<?xml version="1.0" encoding="utf-8" standalone="no"?>
<!DOCTYPE svg PUBLIC "-//W3C//DTD SVG 1.1//EN"
  "http://www.w3.org/Graphics/SVG/1.1/DTD/svg11.dtd">
<svg xmlns:xlink="http://www.w3.org/1999/xlink" width="864pt" height="432pt" viewBox="0 0 864 432" xmlns="http://www.w3.org/2000/svg" version="1.1">
 <metadata>
  <rdf:RDF xmlns:dc="http://purl.org/dc/elements/1.1/" xmlns:cc="http://creativecommons.org/ns#" xmlns:rdf="http://www.w3.org/1999/02/22-rdf-syntax-ns#">
   <cc:Work>
    <dc:type rdf:resource="http://purl.org/dc/dcmitype/StillImage"/>
    <dc:date>2025-05-31T16:11:49.194994</dc:date>
    <dc:format>image/svg+xml</dc:format>
    <dc:creator>
     <cc:Agent>
      <dc:title>Matplotlib v3.10.1, https://matplotlib.org/</dc:title>
     </cc:Agent>
    </dc:creator>
   </cc:Work>
  </rdf:RDF>
 </metadata>
 <defs>
  <style type="text/css">*{stroke-linejoin: round; stroke-linecap: butt}</style>
 </defs>
 <g id="figure_1">
  <g id="patch_1">
   <path d="M 0 432 
L 864 432 
L 864 0 
L 0 0 
z
" style="fill: #ffffff"/>
  </g>
  <g id="axes_1">
   <g id="patch_2">
    <path d="M 50.002685 390.04 
L 853.2 390.04 
L 853.2 41.856 
L 50.002685 41.856 
z
" style="fill: #ffffff"/>
   </g>
   <g id="matplotlib.axis_1">
    <g id="xtick_1">
     <g id="line2d_1">
      <defs>
       <path id="m5b7a4fd17c" d="M 0 0 
L 0 3.5 
" style="stroke: #000000; stroke-width: 0.8"/>
      </defs>
      <g>
       <use xlink:href="#m5b7a4fd17c" x="86.511654" y="390.04" style="stroke: #000000; stroke-width: 0.8"/>
      </g>
     </g>
     <g id="text_1">
      <!-- 0 -->
      <g transform="translate(83.330404 404.638438) scale(0.1 -0.1)">
       <defs>
        <path id="DejaVuSans-30" d="M 2034 4250 
Q 1547 4250 1301 3770 
Q 1056 3291 1056 2328 
Q 1056 1369 1301 889 
Q 1547 409 2034 409 
Q 2525 409 2770 889 
Q 3016 1369 3016 2328 
Q 3016 3291 2770 3770 
Q 2525 4250 2034 4250 
z
M 2034 4750 
Q 2819 4750 3233 4129 
Q 3647 3509 3647 2328 
Q 3647 1150 3233 529 
Q 2819 -91 2034 -91 
Q 1250 -91 836 529 
Q 422 1150 422 2328 
Q 422 3509 836 4129 
Q 1250 4750 2034 4750 
z
" transform="scale(0.015625)"/>
       </defs>
       <use xlink:href="#DejaVuSans-30"/>
      </g>
     </g>
    </g>
    <g id="xtick_2">
     <g id="line2d_2">
      <g>
       <use xlink:href="#m5b7a4fd17c" x="264.17087" y="390.04" style="stroke: #000000; stroke-width: 0.8"/>
      </g>
     </g>
     <g id="text_2">
      <!-- 100 -->
      <g transform="translate(254.62712 404.638438) scale(0.1 -0.1)">
       <defs>
        <path id="DejaVuSans-31" d="M 794 531 
L 1825 531 
L 1825 4091 
L 703 3866 
L 703 4441 
L 1819 4666 
L 2450 4666 
L 2450 531 
L 3481 531 
L 3481 0 
L 794 0 
L 794 531 
z
" transform="scale(0.015625)"/>
       </defs>
       <use xlink:href="#DejaVuSans-31"/>
       <use xlink:href="#DejaVuSans-30" transform="translate(63.623047 0)"/>
       <use xlink:href="#DejaVuSans-30" transform="translate(127.246094 0)"/>
      </g>
     </g>
    </g>
    <g id="xtick_3">
     <g id="line2d_3">
      <g>
       <use xlink:href="#m5b7a4fd17c" x="441.830086" y="390.04" style="stroke: #000000; stroke-width: 0.8"/>
      </g>
     </g>
     <g id="text_3">
      <!-- 200 -->
      <g transform="translate(432.286336 404.638438) scale(0.1 -0.1)">
       <defs>
        <path id="DejaVuSans-32" d="M 1228 531 
L 3431 531 
L 3431 0 
L 469 0 
L 469 531 
Q 828 903 1448 1529 
Q 2069 2156 2228 2338 
Q 2531 2678 2651 2914 
Q 2772 3150 2772 3378 
Q 2772 3750 2511 3984 
Q 2250 4219 1831 4219 
Q 1534 4219 1204 4116 
Q 875 4013 500 3803 
L 500 4441 
Q 881 4594 1212 4672 
Q 1544 4750 1819 4750 
Q 2544 4750 2975 4387 
Q 3406 4025 3406 3419 
Q 3406 3131 3298 2873 
Q 3191 2616 2906 2266 
Q 2828 2175 2409 1742 
Q 1991 1309 1228 531 
z
" transform="scale(0.015625)"/>
       </defs>
       <use xlink:href="#DejaVuSans-32"/>
       <use xlink:href="#DejaVuSans-30" transform="translate(63.623047 0)"/>
       <use xlink:href="#DejaVuSans-30" transform="translate(127.246094 0)"/>
      </g>
     </g>
    </g>
    <g id="xtick_4">
     <g id="line2d_4">
      <g>
       <use xlink:href="#m5b7a4fd17c" x="619.489301" y="390.04" style="stroke: #000000; stroke-width: 0.8"/>
      </g>
     </g>
     <g id="text_4">
      <!-- 300 -->
      <g transform="translate(609.945551 404.638438) scale(0.1 -0.1)">
       <defs>
        <path id="DejaVuSans-33" d="M 2597 2516 
Q 3050 2419 3304 2112 
Q 3559 1806 3559 1356 
Q 3559 666 3084 287 
Q 2609 -91 1734 -91 
Q 1441 -91 1130 -33 
Q 819 25 488 141 
L 488 750 
Q 750 597 1062 519 
Q 1375 441 1716 441 
Q 2309 441 2620 675 
Q 2931 909 2931 1356 
Q 2931 1769 2642 2001 
Q 2353 2234 1838 2234 
L 1294 2234 
L 1294 2753 
L 1863 2753 
Q 2328 2753 2575 2939 
Q 2822 3125 2822 3475 
Q 2822 3834 2567 4026 
Q 2313 4219 1838 4219 
Q 1578 4219 1281 4162 
Q 984 4106 628 3988 
L 628 4550 
Q 988 4650 1302 4700 
Q 1616 4750 1894 4750 
Q 2613 4750 3031 4423 
Q 3450 4097 3450 3541 
Q 3450 3153 3228 2886 
Q 3006 2619 2597 2516 
z
" transform="scale(0.015625)"/>
       </defs>
       <use xlink:href="#DejaVuSans-33"/>
       <use xlink:href="#DejaVuSans-30" transform="translate(63.623047 0)"/>
       <use xlink:href="#DejaVuSans-30" transform="translate(127.246094 0)"/>
      </g>
     </g>
    </g>
    <g id="xtick_5">
     <g id="line2d_5">
      <g>
       <use xlink:href="#m5b7a4fd17c" x="797.148517" y="390.04" style="stroke: #000000; stroke-width: 0.8"/>
      </g>
     </g>
     <g id="text_5">
      <!-- 400 -->
      <g transform="translate(787.604767 404.638438) scale(0.1 -0.1)">
       <defs>
        <path id="DejaVuSans-34" d="M 2419 4116 
L 825 1625 
L 2419 1625 
L 2419 4116 
z
M 2253 4666 
L 3047 4666 
L 3047 1625 
L 3713 1625 
L 3713 1100 
L 3047 1100 
L 3047 0 
L 2419 0 
L 2419 1100 
L 313 1100 
L 313 1709 
L 2253 4666 
z
" transform="scale(0.015625)"/>
       </defs>
       <use xlink:href="#DejaVuSans-34"/>
       <use xlink:href="#DejaVuSans-30" transform="translate(63.623047 0)"/>
       <use xlink:href="#DejaVuSans-30" transform="translate(127.246094 0)"/>
      </g>
     </g>
    </g>
    <g id="text_6">
     <!-- Timestamp (Seconds) -->
     <g transform="translate(397.196655 418.316562) scale(0.1 -0.1)">
      <defs>
       <path id="DejaVuSans-54" d="M -19 4666 
L 3928 4666 
L 3928 4134 
L 2272 4134 
L 2272 0 
L 1638 0 
L 1638 4134 
L -19 4134 
L -19 4666 
z
" transform="scale(0.015625)"/>
       <path id="DejaVuSans-69" d="M 603 3500 
L 1178 3500 
L 1178 0 
L 603 0 
L 603 3500 
z
M 603 4863 
L 1178 4863 
L 1178 4134 
L 603 4134 
L 603 4863 
z
" transform="scale(0.015625)"/>
       <path id="DejaVuSans-6d" d="M 3328 2828 
Q 3544 3216 3844 3400 
Q 4144 3584 4550 3584 
Q 5097 3584 5394 3201 
Q 5691 2819 5691 2113 
L 5691 0 
L 5113 0 
L 5113 2094 
Q 5113 2597 4934 2840 
Q 4756 3084 4391 3084 
Q 3944 3084 3684 2787 
Q 3425 2491 3425 1978 
L 3425 0 
L 2847 0 
L 2847 2094 
Q 2847 2600 2669 2842 
Q 2491 3084 2119 3084 
Q 1678 3084 1418 2786 
Q 1159 2488 1159 1978 
L 1159 0 
L 581 0 
L 581 3500 
L 1159 3500 
L 1159 2956 
Q 1356 3278 1631 3431 
Q 1906 3584 2284 3584 
Q 2666 3584 2933 3390 
Q 3200 3197 3328 2828 
z
" transform="scale(0.015625)"/>
       <path id="DejaVuSans-65" d="M 3597 1894 
L 3597 1613 
L 953 1613 
Q 991 1019 1311 708 
Q 1631 397 2203 397 
Q 2534 397 2845 478 
Q 3156 559 3463 722 
L 3463 178 
Q 3153 47 2828 -22 
Q 2503 -91 2169 -91 
Q 1331 -91 842 396 
Q 353 884 353 1716 
Q 353 2575 817 3079 
Q 1281 3584 2069 3584 
Q 2775 3584 3186 3129 
Q 3597 2675 3597 1894 
z
M 3022 2063 
Q 3016 2534 2758 2815 
Q 2500 3097 2075 3097 
Q 1594 3097 1305 2825 
Q 1016 2553 972 2059 
L 3022 2063 
z
" transform="scale(0.015625)"/>
       <path id="DejaVuSans-73" d="M 2834 3397 
L 2834 2853 
Q 2591 2978 2328 3040 
Q 2066 3103 1784 3103 
Q 1356 3103 1142 2972 
Q 928 2841 928 2578 
Q 928 2378 1081 2264 
Q 1234 2150 1697 2047 
L 1894 2003 
Q 2506 1872 2764 1633 
Q 3022 1394 3022 966 
Q 3022 478 2636 193 
Q 2250 -91 1575 -91 
Q 1294 -91 989 -36 
Q 684 19 347 128 
L 347 722 
Q 666 556 975 473 
Q 1284 391 1588 391 
Q 1994 391 2212 530 
Q 2431 669 2431 922 
Q 2431 1156 2273 1281 
Q 2116 1406 1581 1522 
L 1381 1569 
Q 847 1681 609 1914 
Q 372 2147 372 2553 
Q 372 3047 722 3315 
Q 1072 3584 1716 3584 
Q 2034 3584 2315 3537 
Q 2597 3491 2834 3397 
z
" transform="scale(0.015625)"/>
       <path id="DejaVuSans-74" d="M 1172 4494 
L 1172 3500 
L 2356 3500 
L 2356 3053 
L 1172 3053 
L 1172 1153 
Q 1172 725 1289 603 
Q 1406 481 1766 481 
L 2356 481 
L 2356 0 
L 1766 0 
Q 1100 0 847 248 
Q 594 497 594 1153 
L 594 3053 
L 172 3053 
L 172 3500 
L 594 3500 
L 594 4494 
L 1172 4494 
z
" transform="scale(0.015625)"/>
       <path id="DejaVuSans-61" d="M 2194 1759 
Q 1497 1759 1228 1600 
Q 959 1441 959 1056 
Q 959 750 1161 570 
Q 1363 391 1709 391 
Q 2188 391 2477 730 
Q 2766 1069 2766 1631 
L 2766 1759 
L 2194 1759 
z
M 3341 1997 
L 3341 0 
L 2766 0 
L 2766 531 
Q 2569 213 2275 61 
Q 1981 -91 1556 -91 
Q 1019 -91 701 211 
Q 384 513 384 1019 
Q 384 1609 779 1909 
Q 1175 2209 1959 2209 
L 2766 2209 
L 2766 2266 
Q 2766 2663 2505 2880 
Q 2244 3097 1772 3097 
Q 1472 3097 1187 3025 
Q 903 2953 641 2809 
L 641 3341 
Q 956 3463 1253 3523 
Q 1550 3584 1831 3584 
Q 2591 3584 2966 3190 
Q 3341 2797 3341 1997 
z
" transform="scale(0.015625)"/>
       <path id="DejaVuSans-70" d="M 1159 525 
L 1159 -1331 
L 581 -1331 
L 581 3500 
L 1159 3500 
L 1159 2969 
Q 1341 3281 1617 3432 
Q 1894 3584 2278 3584 
Q 2916 3584 3314 3078 
Q 3713 2572 3713 1747 
Q 3713 922 3314 415 
Q 2916 -91 2278 -91 
Q 1894 -91 1617 61 
Q 1341 213 1159 525 
z
M 3116 1747 
Q 3116 2381 2855 2742 
Q 2594 3103 2138 3103 
Q 1681 3103 1420 2742 
Q 1159 2381 1159 1747 
Q 1159 1113 1420 752 
Q 1681 391 2138 391 
Q 2594 391 2855 752 
Q 3116 1113 3116 1747 
z
" transform="scale(0.015625)"/>
       <path id="DejaVuSans-20" transform="scale(0.015625)"/>
       <path id="DejaVuSans-28" d="M 1984 4856 
Q 1566 4138 1362 3434 
Q 1159 2731 1159 2009 
Q 1159 1288 1364 580 
Q 1569 -128 1984 -844 
L 1484 -844 
Q 1016 -109 783 600 
Q 550 1309 550 2009 
Q 550 2706 781 3412 
Q 1013 4119 1484 4856 
L 1984 4856 
z
" transform="scale(0.015625)"/>
       <path id="DejaVuSans-53" d="M 3425 4513 
L 3425 3897 
Q 3066 4069 2747 4153 
Q 2428 4238 2131 4238 
Q 1616 4238 1336 4038 
Q 1056 3838 1056 3469 
Q 1056 3159 1242 3001 
Q 1428 2844 1947 2747 
L 2328 2669 
Q 3034 2534 3370 2195 
Q 3706 1856 3706 1288 
Q 3706 609 3251 259 
Q 2797 -91 1919 -91 
Q 1588 -91 1214 -16 
Q 841 59 441 206 
L 441 856 
Q 825 641 1194 531 
Q 1563 422 1919 422 
Q 2459 422 2753 634 
Q 3047 847 3047 1241 
Q 3047 1584 2836 1778 
Q 2625 1972 2144 2069 
L 1759 2144 
Q 1053 2284 737 2584 
Q 422 2884 422 3419 
Q 422 4038 858 4394 
Q 1294 4750 2059 4750 
Q 2388 4750 2728 4690 
Q 3069 4631 3425 4513 
z
" transform="scale(0.015625)"/>
       <path id="DejaVuSans-63" d="M 3122 3366 
L 3122 2828 
Q 2878 2963 2633 3030 
Q 2388 3097 2138 3097 
Q 1578 3097 1268 2742 
Q 959 2388 959 1747 
Q 959 1106 1268 751 
Q 1578 397 2138 397 
Q 2388 397 2633 464 
Q 2878 531 3122 666 
L 3122 134 
Q 2881 22 2623 -34 
Q 2366 -91 2075 -91 
Q 1284 -91 818 406 
Q 353 903 353 1747 
Q 353 2603 823 3093 
Q 1294 3584 2113 3584 
Q 2378 3584 2631 3529 
Q 2884 3475 3122 3366 
z
" transform="scale(0.015625)"/>
       <path id="DejaVuSans-6f" d="M 1959 3097 
Q 1497 3097 1228 2736 
Q 959 2375 959 1747 
Q 959 1119 1226 758 
Q 1494 397 1959 397 
Q 2419 397 2687 759 
Q 2956 1122 2956 1747 
Q 2956 2369 2687 2733 
Q 2419 3097 1959 3097 
z
M 1959 3584 
Q 2709 3584 3137 3096 
Q 3566 2609 3566 1747 
Q 3566 888 3137 398 
Q 2709 -91 1959 -91 
Q 1206 -91 779 398 
Q 353 888 353 1747 
Q 353 2609 779 3096 
Q 1206 3584 1959 3584 
z
" transform="scale(0.015625)"/>
       <path id="DejaVuSans-6e" d="M 3513 2113 
L 3513 0 
L 2938 0 
L 2938 2094 
Q 2938 2591 2744 2837 
Q 2550 3084 2163 3084 
Q 1697 3084 1428 2787 
Q 1159 2491 1159 1978 
L 1159 0 
L 581 0 
L 581 3500 
L 1159 3500 
L 1159 2956 
Q 1366 3272 1645 3428 
Q 1925 3584 2291 3584 
Q 2894 3584 3203 3211 
Q 3513 2838 3513 2113 
z
" transform="scale(0.015625)"/>
       <path id="DejaVuSans-64" d="M 2906 2969 
L 2906 4863 
L 3481 4863 
L 3481 0 
L 2906 0 
L 2906 525 
Q 2725 213 2448 61 
Q 2172 -91 1784 -91 
Q 1150 -91 751 415 
Q 353 922 353 1747 
Q 353 2572 751 3078 
Q 1150 3584 1784 3584 
Q 2172 3584 2448 3432 
Q 2725 3281 2906 2969 
z
M 947 1747 
Q 947 1113 1208 752 
Q 1469 391 1925 391 
Q 2381 391 2643 752 
Q 2906 1113 2906 1747 
Q 2906 2381 2643 2742 
Q 2381 3103 1925 3103 
Q 1469 3103 1208 2742 
Q 947 2381 947 1747 
z
" transform="scale(0.015625)"/>
       <path id="DejaVuSans-29" d="M 513 4856 
L 1013 4856 
Q 1481 4119 1714 3412 
Q 1947 2706 1947 2009 
Q 1947 1309 1714 600 
Q 1481 -109 1013 -844 
L 513 -844 
Q 928 -128 1133 580 
Q 1338 1288 1338 2009 
Q 1338 2731 1133 3434 
Q 928 4138 513 4856 
z
" transform="scale(0.015625)"/>
      </defs>
      <use xlink:href="#DejaVuSans-54"/>
      <use xlink:href="#DejaVuSans-69" transform="translate(57.958984 0)"/>
      <use xlink:href="#DejaVuSans-6d" transform="translate(85.742188 0)"/>
      <use xlink:href="#DejaVuSans-65" transform="translate(183.154297 0)"/>
      <use xlink:href="#DejaVuSans-73" transform="translate(244.677734 0)"/>
      <use xlink:href="#DejaVuSans-74" transform="translate(296.777344 0)"/>
      <use xlink:href="#DejaVuSans-61" transform="translate(335.986328 0)"/>
      <use xlink:href="#DejaVuSans-6d" transform="translate(397.265625 0)"/>
      <use xlink:href="#DejaVuSans-70" transform="translate(494.677734 0)"/>
      <use xlink:href="#DejaVuSans-20" transform="translate(558.154297 0)"/>
      <use xlink:href="#DejaVuSans-28" transform="translate(589.941406 0)"/>
      <use xlink:href="#DejaVuSans-53" transform="translate(628.955078 0)"/>
      <use xlink:href="#DejaVuSans-65" transform="translate(692.431641 0)"/>
      <use xlink:href="#DejaVuSans-63" transform="translate(753.955078 0)"/>
      <use xlink:href="#DejaVuSans-6f" transform="translate(808.935547 0)"/>
      <use xlink:href="#DejaVuSans-6e" transform="translate(870.117188 0)"/>
      <use xlink:href="#DejaVuSans-64" transform="translate(933.496094 0)"/>
      <use xlink:href="#DejaVuSans-73" transform="translate(996.972656 0)"/>
      <use xlink:href="#DejaVuSans-29" transform="translate(1049.072266 0)"/>
     </g>
    </g>
   </g>
   <g id="matplotlib.axis_2">
    <g id="ytick_1">
     <g id="line2d_6">
      <defs>
       <path id="me164af43ac" d="M 0 0 
L -3.5 0 
" style="stroke: #000000; stroke-width: 0.8"/>
      </defs>
      <g>
       <use xlink:href="#me164af43ac" x="50.002685" y="303.926654" style="stroke: #000000; stroke-width: 0.8"/>
      </g>
     </g>
     <g id="text_7">
      <!-- $\mathdefault{10^{1}}$ -->
      <g transform="translate(25.402685 307.725873) scale(0.1 -0.1)">
       <use xlink:href="#DejaVuSans-31" transform="translate(0 0.684375)"/>
       <use xlink:href="#DejaVuSans-30" transform="translate(63.623047 0.684375)"/>
       <use xlink:href="#DejaVuSans-31" transform="translate(128.203125 38.965625) scale(0.7)"/>
      </g>
     </g>
    </g>
    <g id="ytick_2">
     <g id="line2d_7">
      <g>
       <use xlink:href="#me164af43ac" x="50.002685" y="191.937354" style="stroke: #000000; stroke-width: 0.8"/>
      </g>
     </g>
     <g id="text_8">
      <!-- $\mathdefault{10^{2}}$ -->
      <g transform="translate(25.402685 195.736573) scale(0.1 -0.1)">
       <use xlink:href="#DejaVuSans-31" transform="translate(0 0.765625)"/>
       <use xlink:href="#DejaVuSans-30" transform="translate(63.623047 0.765625)"/>
       <use xlink:href="#DejaVuSans-32" transform="translate(128.203125 39.046875) scale(0.7)"/>
      </g>
     </g>
    </g>
    <g id="ytick_3">
     <g id="line2d_8">
      <g>
       <use xlink:href="#me164af43ac" x="50.002685" y="79.948054" style="stroke: #000000; stroke-width: 0.8"/>
      </g>
     </g>
     <g id="text_9">
      <!-- $\mathdefault{10^{3}}$ -->
      <g transform="translate(25.402685 83.747273) scale(0.1 -0.1)">
       <use xlink:href="#DejaVuSans-31" transform="translate(0 0.765625)"/>
       <use xlink:href="#DejaVuSans-30" transform="translate(63.623047 0.765625)"/>
       <use xlink:href="#DejaVuSans-33" transform="translate(128.203125 39.046875) scale(0.7)"/>
      </g>
     </g>
    </g>
    <g id="ytick_4">
     <g id="line2d_9">
      <defs>
       <path id="m752d313f98" d="M 0 0 
L -2 0 
" style="stroke: #000000; stroke-width: 0.6"/>
      </defs>
      <g>
       <use xlink:href="#m752d313f98" x="50.002685" y="382.203815" style="stroke: #000000; stroke-width: 0.6"/>
      </g>
     </g>
    </g>
    <g id="ytick_5">
     <g id="line2d_10">
      <g>
       <use xlink:href="#m752d313f98" x="50.002685" y="362.483479" style="stroke: #000000; stroke-width: 0.6"/>
      </g>
     </g>
    </g>
    <g id="ytick_6">
     <g id="line2d_11">
      <g>
       <use xlink:href="#m752d313f98" x="50.002685" y="348.491677" style="stroke: #000000; stroke-width: 0.6"/>
      </g>
     </g>
    </g>
    <g id="ytick_7">
     <g id="line2d_12">
      <g>
       <use xlink:href="#m752d313f98" x="50.002685" y="337.638792" style="stroke: #000000; stroke-width: 0.6"/>
      </g>
     </g>
    </g>
    <g id="ytick_8">
     <g id="line2d_13">
      <g>
       <use xlink:href="#m752d313f98" x="50.002685" y="328.77134" style="stroke: #000000; stroke-width: 0.6"/>
      </g>
     </g>
    </g>
    <g id="ytick_9">
     <g id="line2d_14">
      <g>
       <use xlink:href="#m752d313f98" x="50.002685" y="321.274016" style="stroke: #000000; stroke-width: 0.6"/>
      </g>
     </g>
    </g>
    <g id="ytick_10">
     <g id="line2d_15">
      <g>
       <use xlink:href="#m752d313f98" x="50.002685" y="314.779538" style="stroke: #000000; stroke-width: 0.6"/>
      </g>
     </g>
    </g>
    <g id="ytick_11">
     <g id="line2d_16">
      <g>
       <use xlink:href="#m752d313f98" x="50.002685" y="309.051003" style="stroke: #000000; stroke-width: 0.6"/>
      </g>
     </g>
    </g>
    <g id="ytick_12">
     <g id="line2d_17">
      <g>
       <use xlink:href="#m752d313f98" x="50.002685" y="270.214515" style="stroke: #000000; stroke-width: 0.6"/>
      </g>
     </g>
    </g>
    <g id="ytick_13">
     <g id="line2d_18">
      <g>
       <use xlink:href="#m752d313f98" x="50.002685" y="250.494179" style="stroke: #000000; stroke-width: 0.6"/>
      </g>
     </g>
    </g>
    <g id="ytick_14">
     <g id="line2d_19">
      <g>
       <use xlink:href="#m752d313f98" x="50.002685" y="236.502377" style="stroke: #000000; stroke-width: 0.6"/>
      </g>
     </g>
    </g>
    <g id="ytick_15">
     <g id="line2d_20">
      <g>
       <use xlink:href="#m752d313f98" x="50.002685" y="225.649493" style="stroke: #000000; stroke-width: 0.6"/>
      </g>
     </g>
    </g>
    <g id="ytick_16">
     <g id="line2d_21">
      <g>
       <use xlink:href="#m752d313f98" x="50.002685" y="216.78204" style="stroke: #000000; stroke-width: 0.6"/>
      </g>
     </g>
    </g>
    <g id="ytick_17">
     <g id="line2d_22">
      <g>
       <use xlink:href="#m752d313f98" x="50.002685" y="209.284716" style="stroke: #000000; stroke-width: 0.6"/>
      </g>
     </g>
    </g>
    <g id="ytick_18">
     <g id="line2d_23">
      <g>
       <use xlink:href="#m752d313f98" x="50.002685" y="202.790239" style="stroke: #000000; stroke-width: 0.6"/>
      </g>
     </g>
    </g>
    <g id="ytick_19">
     <g id="line2d_24">
      <g>
       <use xlink:href="#m752d313f98" x="50.002685" y="197.061703" style="stroke: #000000; stroke-width: 0.6"/>
      </g>
     </g>
    </g>
    <g id="ytick_20">
     <g id="line2d_25">
      <g>
       <use xlink:href="#m752d313f98" x="50.002685" y="158.225216" style="stroke: #000000; stroke-width: 0.6"/>
      </g>
     </g>
    </g>
    <g id="ytick_21">
     <g id="line2d_26">
      <g>
       <use xlink:href="#m752d313f98" x="50.002685" y="138.504879" style="stroke: #000000; stroke-width: 0.6"/>
      </g>
     </g>
    </g>
    <g id="ytick_22">
     <g id="line2d_27">
      <g>
       <use xlink:href="#m752d313f98" x="50.002685" y="124.513077" style="stroke: #000000; stroke-width: 0.6"/>
      </g>
     </g>
    </g>
    <g id="ytick_23">
     <g id="line2d_28">
      <g>
       <use xlink:href="#m752d313f98" x="50.002685" y="113.660193" style="stroke: #000000; stroke-width: 0.6"/>
      </g>
     </g>
    </g>
    <g id="ytick_24">
     <g id="line2d_29">
      <g>
       <use xlink:href="#m752d313f98" x="50.002685" y="104.79274" style="stroke: #000000; stroke-width: 0.6"/>
      </g>
     </g>
    </g>
    <g id="ytick_25">
     <g id="line2d_30">
      <g>
       <use xlink:href="#m752d313f98" x="50.002685" y="97.295416" style="stroke: #000000; stroke-width: 0.6"/>
      </g>
     </g>
    </g>
    <g id="ytick_26">
     <g id="line2d_31">
      <g>
       <use xlink:href="#m752d313f98" x="50.002685" y="90.800939" style="stroke: #000000; stroke-width: 0.6"/>
      </g>
     </g>
    </g>
    <g id="ytick_27">
     <g id="line2d_32">
      <g>
       <use xlink:href="#m752d313f98" x="50.002685" y="85.072404" style="stroke: #000000; stroke-width: 0.6"/>
      </g>
     </g>
    </g>
    <g id="ytick_28">
     <g id="line2d_33">
      <g>
       <use xlink:href="#m752d313f98" x="50.002685" y="46.235916" style="stroke: #000000; stroke-width: 0.6"/>
      </g>
     </g>
    </g>
    <g id="text_10">
     <!-- Avg Duration (ms) -->
     <g transform="translate(19.322997 261.478469) rotate(-90) scale(0.1 -0.1)">
      <defs>
       <path id="DejaVuSans-41" d="M 2188 4044 
L 1331 1722 
L 3047 1722 
L 2188 4044 
z
M 1831 4666 
L 2547 4666 
L 4325 0 
L 3669 0 
L 3244 1197 
L 1141 1197 
L 716 0 
L 50 0 
L 1831 4666 
z
" transform="scale(0.015625)"/>
       <path id="DejaVuSans-76" d="M 191 3500 
L 800 3500 
L 1894 563 
L 2988 3500 
L 3597 3500 
L 2284 0 
L 1503 0 
L 191 3500 
z
" transform="scale(0.015625)"/>
       <path id="DejaVuSans-67" d="M 2906 1791 
Q 2906 2416 2648 2759 
Q 2391 3103 1925 3103 
Q 1463 3103 1205 2759 
Q 947 2416 947 1791 
Q 947 1169 1205 825 
Q 1463 481 1925 481 
Q 2391 481 2648 825 
Q 2906 1169 2906 1791 
z
M 3481 434 
Q 3481 -459 3084 -895 
Q 2688 -1331 1869 -1331 
Q 1566 -1331 1297 -1286 
Q 1028 -1241 775 -1147 
L 775 -588 
Q 1028 -725 1275 -790 
Q 1522 -856 1778 -856 
Q 2344 -856 2625 -561 
Q 2906 -266 2906 331 
L 2906 616 
Q 2728 306 2450 153 
Q 2172 0 1784 0 
Q 1141 0 747 490 
Q 353 981 353 1791 
Q 353 2603 747 3093 
Q 1141 3584 1784 3584 
Q 2172 3584 2450 3431 
Q 2728 3278 2906 2969 
L 2906 3500 
L 3481 3500 
L 3481 434 
z
" transform="scale(0.015625)"/>
       <path id="DejaVuSans-44" d="M 1259 4147 
L 1259 519 
L 2022 519 
Q 2988 519 3436 956 
Q 3884 1394 3884 2338 
Q 3884 3275 3436 3711 
Q 2988 4147 2022 4147 
L 1259 4147 
z
M 628 4666 
L 1925 4666 
Q 3281 4666 3915 4102 
Q 4550 3538 4550 2338 
Q 4550 1131 3912 565 
Q 3275 0 1925 0 
L 628 0 
L 628 4666 
z
" transform="scale(0.015625)"/>
       <path id="DejaVuSans-75" d="M 544 1381 
L 544 3500 
L 1119 3500 
L 1119 1403 
Q 1119 906 1312 657 
Q 1506 409 1894 409 
Q 2359 409 2629 706 
Q 2900 1003 2900 1516 
L 2900 3500 
L 3475 3500 
L 3475 0 
L 2900 0 
L 2900 538 
Q 2691 219 2414 64 
Q 2138 -91 1772 -91 
Q 1169 -91 856 284 
Q 544 659 544 1381 
z
M 1991 3584 
L 1991 3584 
z
" transform="scale(0.015625)"/>
       <path id="DejaVuSans-72" d="M 2631 2963 
Q 2534 3019 2420 3045 
Q 2306 3072 2169 3072 
Q 1681 3072 1420 2755 
Q 1159 2438 1159 1844 
L 1159 0 
L 581 0 
L 581 3500 
L 1159 3500 
L 1159 2956 
Q 1341 3275 1631 3429 
Q 1922 3584 2338 3584 
Q 2397 3584 2469 3576 
Q 2541 3569 2628 3553 
L 2631 2963 
z
" transform="scale(0.015625)"/>
      </defs>
      <use xlink:href="#DejaVuSans-41"/>
      <use xlink:href="#DejaVuSans-76" transform="translate(62.533203 0)"/>
      <use xlink:href="#DejaVuSans-67" transform="translate(121.712891 0)"/>
      <use xlink:href="#DejaVuSans-20" transform="translate(185.189453 0)"/>
      <use xlink:href="#DejaVuSans-44" transform="translate(216.976562 0)"/>
      <use xlink:href="#DejaVuSans-75" transform="translate(293.978516 0)"/>
      <use xlink:href="#DejaVuSans-72" transform="translate(357.357422 0)"/>
      <use xlink:href="#DejaVuSans-61" transform="translate(398.470703 0)"/>
      <use xlink:href="#DejaVuSans-74" transform="translate(459.75 0)"/>
      <use xlink:href="#DejaVuSans-69" transform="translate(498.958984 0)"/>
      <use xlink:href="#DejaVuSans-6f" transform="translate(526.742188 0)"/>
      <use xlink:href="#DejaVuSans-6e" transform="translate(587.923828 0)"/>
      <use xlink:href="#DejaVuSans-20" transform="translate(651.302734 0)"/>
      <use xlink:href="#DejaVuSans-28" transform="translate(683.089844 0)"/>
      <use xlink:href="#DejaVuSans-6d" transform="translate(722.103516 0)"/>
      <use xlink:href="#DejaVuSans-73" transform="translate(819.515625 0)"/>
      <use xlink:href="#DejaVuSans-29" transform="translate(871.615234 0)"/>
     </g>
    </g>
   </g>
   <g id="line2d_34">
    <path d="M 86.511654 349.834072 
L 88.288246 356.513508 
L 90.064838 357.55824 
L 91.84143 360.352828 
L 93.618022 363.58867 
L 95.394614 365.712196 
L 97.171207 367.254752 
L 98.947799 365.240474 
L 100.724391 369.365435 
L 102.500983 366.033207 
L 104.277575 369.905113 
L 106.054167 367.579107 
L 107.83076 367.065445 
L 109.607352 366.132756 
L 111.383944 367.543906 
L 113.160536 366.696095 
L 114.937128 368.150405 
L 116.71372 366.228239 
L 118.490313 370.000765 
L 120.266905 366.213239 
L 122.043497 368.376603 
L 125.596681 370.042346 
L 127.373273 368.889258 
L 129.149865 371.311543 
L 130.926458 366.430013 
L 132.70305 372.369542 
L 134.479642 367.567954 
L 136.256234 373.929969 
L 138.032826 369.305287 
L 139.809418 372.752573 
L 141.586011 371.865599 
L 143.362603 372.151964 
L 145.139195 370.417952 
L 146.915787 374.065599 
L 148.692379 372.536161 
L 150.468971 372.260086 
L 152.245564 371.629068 
L 154.022156 372.069686 
L 155.798748 372.221855 
L 157.57534 371.610881 
L 159.351932 373.110447 
L 161.128524 371.67104 
L 162.905116 373.938064 
L 164.681709 369.31912 
L 166.458301 370.667168 
L 168.234893 372.361659 
L 170.011485 373.56343 
L 171.788077 372.794818 
L 173.564669 371.205647 
L 175.341262 371.167709 
L 177.117854 374.213455 
L 178.894446 370.122728 
L 180.671038 372.215837 
L 182.44763 372.734472 
L 184.224222 372.460003 
L 186.000815 370.396451 
L 187.777407 372.350224 
L 189.553999 154.357607 
L 191.330591 330.485384 
L 193.107183 343.02024 
L 194.883775 320.755398 
L 196.660368 366.160732 
L 198.43696 355.135009 
L 200.213552 334.366242 
L 201.990144 352.384437 
L 203.766736 338.144604 
L 205.543328 349.939825 
L 207.31992 356.589099 
L 209.096513 359.253311 
L 210.873105 336.541797 
L 212.649697 353.561379 
L 214.426289 344.727372 
L 217.979473 352.750421 
L 219.756066 355.779542 
L 221.532658 353.904496 
L 223.30925 357.180806 
L 225.085842 355.068458 
L 226.862434 345.022243 
L 228.639026 353.88642 
L 230.415619 355.132467 
L 232.192211 358.529278 
L 233.968803 362.955879 
L 235.745395 354.256274 
L 237.521987 366.361843 
L 239.298579 356.597213 
L 241.075172 348.422608 
L 242.851764 345.26809 
L 244.628356 362.249302 
L 246.404948 358.099915 
L 248.18154 364.61603 
L 249.958132 357.612252 
L 251.734724 367.21827 
L 253.511317 366.408687 
L 255.287909 367.618192 
L 257.064501 371.355861 
L 258.841093 368.457064 
L 260.617685 370.640394 
L 262.394277 368.030299 
L 264.17087 370.093625 
L 265.947462 368.538217 
L 267.724054 370.205836 
L 269.500646 366.59351 
L 271.277238 360.703963 
L 273.05383 371.678613 
L 274.830423 367.428859 
L 276.607015 368.896664 
L 278.383607 358.485738 
L 280.160199 361.737785 
L 281.936791 366.931821 
L 283.713383 368.651005 
L 287.266568 370.052552 
L 289.04316 373.850669 
L 290.819752 371.924741 
L 292.596344 371.560269 
L 294.372936 374.115761 
L 296.149528 372.292871 
L 297.926121 371.952543 
L 299.702713 364.354566 
L 301.479305 369.788942 
L 303.255897 369.207829 
L 305.032489 370.875547 
L 306.809081 367.079135 
L 308.585674 365.378831 
L 310.362266 353.758583 
L 312.138858 364.372108 
L 313.91545 364.304808 
L 317.468634 367.329675 
L 319.245227 368.079443 
L 321.021819 369.408566 
L 322.798411 370.229816 
L 324.575003 363.170069 
L 326.351595 362.709647 
L 328.128187 357.028232 
L 329.904779 366.552886 
L 331.681372 365.472935 
L 333.457964 369.423598 
L 335.234556 367.019392 
L 337.011148 367.356454 
L 338.78774 367.267118 
L 340.564332 356.203629 
L 342.340925 364.30664 
L 344.117517 361.37753 
L 345.894109 357.315401 
L 347.670701 365.909886 
L 349.447293 355.90048 
L 351.223885 353.890658 
L 354.77707 367.285543 
L 358.330254 365.290762 
L 360.106846 362.436524 
L 361.883438 360.598948 
L 363.66003 367.7869 
L 365.436623 362.437262 
L 367.213215 371.734886 
L 368.989807 364.292032 
L 370.766399 358.088523 
L 372.542991 362.00454 
L 374.319583 366.596419 
L 376.096176 366.018881 
L 377.872768 370.711924 
L 379.64936 365.139688 
L 381.425952 368.723246 
L 383.202544 360.055191 
L 384.979136 368.791313 
L 386.755729 367.99548 
L 388.532321 368.421799 
L 390.308913 366.065131 
L 392.085505 362.957105 
L 393.862097 370.851379 
L 395.638689 369.811837 
L 397.415282 360.702971 
L 399.191874 361.629945 
L 400.968466 361.547966 
L 402.745058 364.458426 
L 404.52165 364.103151 
L 406.298242 366.139214 
L 408.074834 364.789545 
L 409.851427 359.231502 
L 411.628019 348.846205 
L 413.404611 350.318861 
L 415.181203 353.599691 
L 416.957795 362.915073 
L 418.734387 367.696687 
L 420.51098 365.812117 
L 422.287572 365.17219 
L 424.064164 370.031449 
L 425.840756 369.422168 
L 427.617348 368.256307 
L 429.39394 373.085445 
L 431.170533 369.671401 
L 432.947125 370.907094 
L 434.723717 366.33571 
L 436.500309 369.324128 
L 438.276901 365.20869 
L 440.053493 371.373185 
L 441.830086 365.254299 
L 443.606678 371.652594 
L 445.38327 366.502931 
L 447.159862 370.554298 
L 448.936454 367.78856 
L 450.713046 367.132787 
L 452.489638 364.893614 
L 454.266231 369.88046 
L 456.042823 364.692862 
L 457.819415 358.409263 
L 459.596007 366.918099 
L 461.372599 365.857 
L 463.149191 366.688581 
L 464.925784 354.730182 
L 466.702376 363.432179 
L 468.478968 364.822753 
L 470.25556 364.22413 
L 472.032152 365.00357 
L 473.808744 361.10444 
L 475.585337 366.039446 
L 477.361929 367.201019 
L 479.138521 363.690435 
L 480.915113 362.528089 
L 482.691705 355.396855 
L 484.468297 360.63129 
L 486.244889 365.117557 
L 489.798074 356.000694 
L 491.574666 365.124375 
L 493.351258 352.300121 
L 495.12785 359.806194 
L 496.904442 364.374349 
L 498.681035 362.513684 
L 500.457627 364.159901 
L 502.234219 357.675271 
L 504.010811 368.14511 
L 505.787403 362.836304 
L 507.563995 358.919847 
L 509.340588 365.091437 
L 511.11718 366.378923 
L 512.893772 357.713076 
L 514.670364 362.286745 
L 516.446956 363.286266 
L 518.223548 355.307321 
L 520.000141 357.397155 
L 521.776733 354.541854 
L 523.553325 365.27268 
L 525.329917 360.862166 
L 527.106509 359.30229 
L 528.883101 348.576213 
L 530.659693 353.91262 
L 532.436286 355.353361 
L 534.212878 353.926812 
L 535.98947 347.717398 
L 537.766062 354.88599 
L 539.542654 351.753956 
L 541.319246 361.484182 
L 543.095839 355.62948 
L 544.872431 361.409657 
L 546.649023 360.525754 
L 548.425615 347.875827 
L 550.202207 359.29686 
L 551.978799 355.024592 
L 553.755392 355.064447 
L 555.531984 358.776995 
L 557.308576 357.974177 
L 559.085168 347.069298 
L 560.86176 358.694146 
L 562.638352 359.011833 
L 564.414945 362.457084 
L 566.191537 360.909914 
L 567.968129 357.666882 
L 569.744721 358.148464 
L 571.521313 351.341644 
L 573.297905 351.829194 
L 575.074497 351.379697 
L 576.85109 351.261945 
L 578.627682 349.694366 
L 580.404274 356.737446 
L 582.180866 351.468868 
L 583.957458 350.070412 
L 585.73405 345.018336 
L 587.510643 346.952741 
L 589.287235 351.708607 
L 591.063827 346.446379 
L 592.840419 352.07051 
L 594.617011 345.763492 
L 596.393603 354.471016 
L 598.170196 352.448535 
L 599.946788 351.147147 
L 601.72338 352.919187 
L 603.499972 355.06927 
L 605.276564 356.152244 
L 607.053156 355.864502 
L 608.829748 360.40949 
L 610.606341 360.845781 
L 612.382933 355.536454 
L 614.159525 358.118186 
L 615.936117 365.940784 
L 617.712709 357.016937 
L 619.489301 358.257979 
L 621.265894 360.609559 
L 623.042486 358.429195 
L 624.819078 347.610915 
L 626.59567 350.839558 
L 628.372262 355.833834 
L 630.148854 353.511368 
L 631.925447 356.181849 
L 633.702039 349.993028 
L 635.478631 353.687589 
L 637.255223 362.548465 
L 640.808407 351.737785 
L 642.585 358.790065 
L 644.361592 347.509474 
L 646.138184 354.213703 
L 647.914776 338.622226 
L 649.691368 345.525967 
L 653.244552 362.377796 
L 655.021145 326.879642 
L 656.797737 351.701981 
L 658.574329 350.111586 
L 660.350921 345.130807 
L 662.127513 325.537049 
L 663.904105 343.364037 
L 665.680698 352.751422 
L 667.45729 344.524417 
L 669.233882 333.27156 
L 671.010474 335.899065 
L 672.787066 337.04322 
L 674.563658 333.354145 
L 676.340251 340.652381 
L 678.116843 321.429124 
L 679.893435 337.96628 
L 681.670027 326.959475 
L 683.446619 339.109001 
L 685.223211 341.999811 
L 686.999803 346.164312 
L 688.776396 339.406649 
L 690.552988 349.015302 
L 692.32958 355.064649 
L 694.106172 345.626765 
L 695.882764 340.331232 
L 697.659356 350.261109 
L 699.435949 340.654884 
L 701.212541 357.404625 
L 702.989133 337.800042 
L 704.765725 342.654515 
L 706.542317 342.767677 
L 708.318909 359.213142 
L 710.095502 355.224897 
L 711.872094 348.54134 
L 713.648686 352.397882 
L 715.425278 355.288327 
L 717.20187 343.415731 
L 718.978462 354.451519 
L 720.755055 348.545192 
L 722.531647 358.941202 
L 724.308239 350.61497 
L 727.861423 344.501586 
L 729.638015 346.074677 
L 731.414607 323.07171 
L 733.1912 332.6682 
L 736.744384 345.900995 
L 738.520976 348.79676 
L 740.297568 347.207088 
L 742.07416 337.719006 
L 743.850753 342.909383 
L 745.627345 342.527176 
L 747.403937 340.592076 
L 749.180529 336.548348 
L 750.957121 337.598192 
L 752.733713 342.704338 
L 754.510306 332.222989 
L 756.286898 342.577142 
L 758.06349 329.223439 
L 759.840082 327.686755 
L 761.616674 334.830807 
L 763.393266 324.410495 
L 765.169859 316.952937 
L 766.946451 334.094436 
L 768.723043 343.39321 
L 770.499635 354.455225 
L 772.276227 340.988122 
L 774.052819 346.557901 
L 775.829411 309.805158 
L 775.829411 309.805158 
" clip-path="url(#ped29a9153d)" style="fill: none; stroke: #1f77b4; stroke-width: 1.5; stroke-linecap: square"/>
   </g>
   <g id="line2d_35">
    <path d="M 86.511654 351.56358 
L 88.288246 356.932534 
L 90.064838 357.259117 
L 91.84143 358.270636 
L 93.618022 361.705743 
L 95.394614 362.347264 
L 97.171207 354.781252 
L 98.947799 369.165291 
L 100.724391 367.432935 
L 102.500983 367.554641 
L 104.277575 368.218897 
L 106.054167 370.951216 
L 107.83076 369.049407 
L 109.607352 370.737933 
L 111.383944 371.673154 
L 113.160536 369.631157 
L 114.937128 369.377665 
L 116.71372 371.831011 
L 118.490313 369.641054 
L 120.266905 369.43731 
L 122.043497 364.618899 
L 123.820089 374.088807 
L 125.596681 372.285502 
L 127.373273 371.750629 
L 129.149865 370.588718 
L 130.926458 372.999754 
L 132.70305 370.700314 
L 134.479642 372.329021 
L 136.256234 373.027986 
L 138.032826 373.034937 
L 139.809418 370.11923 
L 141.586011 373.326714 
L 143.362603 372.294515 
L 145.139195 372.951805 
L 146.915787 371.326821 
L 148.692379 372.179189 
L 150.468971 370.673629 
L 152.245564 371.433718 
L 154.022156 373.713677 
L 155.798748 371.651318 
L 157.57534 370.767093 
L 159.351932 369.55737 
L 161.128524 373.088758 
L 162.905116 370.898276 
L 164.681709 371.897771 
L 166.458301 372.490513 
L 168.234893 370.701104 
L 170.011485 370.938014 
L 171.788077 372.65283 
L 173.564669 372.352406 
L 175.341262 367.140143 
L 177.117854 371.511774 
L 178.894446 372.795207 
L 180.671038 373.12478 
L 186.000815 369.425318 
L 187.777407 368.947375 
L 189.553999 370.356565 
L 191.330591 369.811133 
L 193.107183 373.157191 
L 194.883775 370.528788 
L 196.660368 372.618573 
L 198.43696 83.763837 
L 200.213552 248.368547 
L 201.990144 237.945202 
L 203.766736 255.746279 
L 205.543328 255.386941 
L 207.31992 288.849322 
L 209.096513 297.947697 
L 210.873105 305.967088 
L 212.649697 359.379253 
L 214.426289 355.44038 
L 216.202881 363.57672 
L 217.979473 334.074165 
L 219.756066 363.911655 
L 221.532658 355.762527 
L 223.30925 322.750146 
L 225.085842 361.630826 
L 226.862434 353.425664 
L 228.639026 366.596274 
L 230.415619 360.199335 
L 232.192211 368.066511 
L 233.968803 340.024384 
L 235.745395 357.230373 
L 237.521987 354.226724 
L 239.298579 355.980318 
L 241.075172 361.962098 
L 242.851764 324.262591 
L 244.628356 314.258255 
L 246.404948 355.920677 
L 248.18154 351.963369 
L 249.958132 364.495417 
L 251.734724 355.594393 
L 253.511317 365.481361 
L 255.287909 368.301903 
L 257.064501 336.076729 
L 258.841093 366.330221 
L 260.617685 364.332825 
L 262.394277 360.054794 
L 264.17087 357.470328 
L 265.947462 355.64075 
L 267.724054 356.996412 
L 269.500646 361.481843 
L 271.277238 361.881367 
L 273.05383 354.020616 
L 274.830423 355.135617 
L 276.607015 362.700017 
L 278.383607 365.127508 
L 280.160199 360.851536 
L 281.936791 261.232234 
L 283.713383 332.750644 
L 285.489975 322.298811 
L 287.266568 329.202639 
L 289.04316 350.31223 
L 290.819752 311.525726 
L 292.596344 338.969553 
L 294.372936 314.793237 
L 296.149528 317.510579 
L 297.926121 317.441068 
L 299.702713 347.292701 
L 301.479305 338.192804 
L 303.255897 348.369705 
L 305.032489 359.998492 
L 306.809081 334.262045 
L 310.362266 57.682545 
L 312.138858 142.849735 
L 313.91545 146.251088 
L 315.692042 175.450242 
L 317.468634 208.540121 
L 319.245227 254.096227 
L 321.021819 293.790816 
L 322.798411 325.493929 
L 324.575003 332.072627 
L 326.351595 284.227232 
L 328.128187 338.849512 
L 329.904779 329.267624 
L 331.681372 326.725641 
L 333.457964 315.660983 
L 335.234556 278.987242 
L 337.011148 318.92538 
L 338.78774 300.961308 
L 340.564332 261.370339 
L 342.340925 281.924567 
L 344.117517 316.893394 
L 345.894109 264.60279 
L 347.670701 275.705559 
L 349.447293 315.509385 
L 351.223885 323.910499 
L 353.000478 309.450401 
L 354.77707 301.308703 
L 356.553662 295.540426 
L 358.330254 280.543616 
L 360.106846 289.499571 
L 361.883438 317.704741 
L 363.66003 261.468086 
L 365.436623 279.037875 
L 367.213215 310.430243 
L 368.989807 311.380569 
L 370.766399 294.87165 
L 372.542991 307.420395 
L 374.319583 337.734869 
L 376.096176 190.0718 
L 377.872768 233.91633 
L 379.64936 212.273628 
L 381.425952 274.077692 
L 383.202544 301.837232 
L 384.979136 259.963607 
L 386.755729 264.670029 
L 388.532321 265.630509 
L 390.308913 248.149894 
L 392.085505 258.907119 
L 393.862097 274.91371 
L 395.638689 234.48179 
L 397.415282 279.458051 
L 399.191874 267.914798 
L 402.745058 322.296188 
L 404.52165 301.594614 
L 406.298242 288.281458 
L 408.074834 242.161228 
L 409.851427 283.327415 
L 411.628019 274.114801 
L 413.404611 267.596465 
L 415.181203 249.179304 
L 416.957795 254.019427 
L 418.734387 295.266156 
L 420.51098 221.39988 
L 422.287572 242.773944 
L 424.064164 242.850264 
L 425.840756 238.488587 
L 427.617348 246.714441 
L 429.39394 276.63686 
L 431.170533 230.103548 
L 432.947125 249.566432 
L 434.723717 252.645418 
L 436.500309 234.977778 
L 438.276901 228.146512 
L 440.053493 227.385863 
L 441.830086 254.588054 
L 443.606678 211.406407 
L 445.38327 214.051155 
L 447.159862 217.993615 
L 448.936454 207.24099 
L 450.713046 211.693243 
L 452.489638 206.400789 
L 454.266231 204.491014 
L 456.042823 204.513112 
L 457.819415 189.327405 
L 459.596007 210.923435 
L 461.372599 208.55541 
L 463.149191 201.326164 
L 464.925784 228.556892 
L 466.702376 219.026726 
L 468.478968 220.681796 
L 470.25556 207.412642 
L 472.032152 209.54075 
L 473.808744 203.428145 
L 475.585337 200.260192 
L 477.361929 208.153624 
L 479.138521 203.637895 
L 480.915113 200.720952 
L 482.691705 196.165415 
L 486.244889 197.356293 
L 488.021482 185.642143 
L 489.798074 157.625206 
L 491.574666 181.907407 
L 495.12785 174.428399 
L 496.904442 175.798449 
L 498.681035 196.365985 
L 500.457627 160.495451 
L 502.234219 170.13083 
L 504.010811 170.891057 
L 505.787403 166.857998 
L 507.563995 174.707684 
L 509.340588 160.114381 
L 511.11718 178.134329 
L 512.893772 158.833771 
L 514.670364 168.738577 
L 516.446956 166.139041 
L 518.223548 169.174271 
L 520.000141 163.214834 
L 521.776733 157.73574 
L 523.553325 158.727388 
L 525.329917 161.946954 
L 527.106509 160.515704 
L 528.883101 163.822298 
L 530.659693 156.628149 
L 532.436286 153.258529 
L 534.212878 164.623619 
L 535.98947 159.983065 
L 537.766062 141.307761 
L 539.542654 152.961997 
L 541.319246 144.694644 
L 543.095839 140.739993 
L 544.872431 145.082642 
L 546.649023 154.8086 
L 548.425615 142.404 
L 550.202207 143.36076 
L 551.978799 147.139635 
L 553.755392 136.153658 
L 555.531984 141.455309 
L 557.308576 131.774195 
L 559.085168 126.981498 
L 560.86176 133.444665 
L 562.638352 136.799289 
L 564.414945 141.044757 
L 566.191537 136.653978 
L 567.968129 135.799461 
L 569.744721 137.793327 
L 571.521313 135.668815 
L 573.297905 132.833266 
L 575.074497 131.515766 
L 576.85109 134.262687 
L 578.627682 127.974177 
L 580.404274 128.333458 
L 582.180866 131.370966 
L 583.957458 139.44477 
L 585.73405 126.551898 
L 587.510643 124.619921 
L 589.287235 139.217748 
L 591.063827 121.850336 
L 592.840419 125.582094 
L 594.617011 126.716316 
L 596.393603 121.777065 
L 598.170196 119.994931 
L 599.946788 123.611148 
L 601.72338 125.973804 
L 603.499972 124.098983 
L 605.276564 127.310191 
L 607.053156 115.613616 
L 608.829748 120.615278 
L 610.606341 124.535623 
L 612.382933 120.445171 
L 614.159525 120.618867 
L 615.936117 117.199398 
L 617.712709 119.428914 
L 619.489301 120.34527 
L 621.265894 122.137767 
L 623.042486 117.415983 
L 624.819078 120.199768 
L 626.59567 117.264522 
L 628.372262 117.795639 
L 630.148854 124.529375 
L 631.925447 121.290437 
L 633.702039 110.219058 
L 635.478631 119.241456 
L 639.031815 114.756529 
L 640.808407 112.865856 
L 642.585 109.089986 
L 644.361592 112.778724 
L 646.138184 109.945444 
L 647.914776 117.55577 
L 649.691368 116.177554 
L 653.244552 109.036119 
L 655.021145 114.614309 
L 656.797737 115.20692 
L 658.574329 113.229504 
L 660.350921 111.786866 
L 662.127513 105.394013 
L 663.904105 111.055312 
L 665.680698 109.960752 
L 667.45729 105.002624 
L 669.233882 110.952883 
L 671.010474 113.183152 
L 672.787066 111.344409 
L 674.563658 116.212726 
L 678.116843 106.369381 
L 679.893435 108.603516 
L 681.670027 112.107076 
L 683.446619 110.679211 
L 685.223211 104.133151 
L 688.776396 108.314313 
L 690.552988 102.791192 
L 692.32958 105.411324 
L 694.106172 109.209839 
L 697.659356 103.844288 
L 699.435949 105.949079 
L 701.212541 107.769895 
L 704.765725 102.715653 
L 706.542317 104.399844 
L 708.318909 99.913377 
L 710.095502 109.490094 
L 711.872094 95.172757 
L 713.648686 99.685948 
L 715.425278 99.975873 
L 717.20187 95.30426 
L 718.978462 102.051855 
L 720.755055 98.796832 
L 722.531647 100.207461 
L 724.308239 96.923792 
L 726.084831 97.322257 
L 727.861423 99.704238 
L 729.638015 93.515922 
L 731.414607 109.27866 
L 733.1912 96.819761 
L 734.967792 91.968287 
L 736.744384 103.388587 
L 736.744384 103.388587 
" clip-path="url(#ped29a9153d)" style="fill: none; stroke: #ff7f0e; stroke-width: 1.5; stroke-linecap: square"/>
   </g>
   <g id="line2d_36">
    <path d="M 86.511654 340.466769 
L 88.288246 349.588506 
L 90.064838 349.046871 
L 91.84143 350.464264 
L 93.618022 349.111474 
L 95.394614 349.063257 
L 97.171207 352.279004 
L 98.947799 351.965927 
L 100.724391 344.746233 
L 102.500983 329.386043 
L 104.277575 348.004834 
L 106.054167 350.693042 
L 107.83076 350.773204 
L 109.607352 351.395061 
L 111.383944 349.468728 
L 113.160536 349.892131 
L 114.937128 346.353266 
L 116.71372 351.05393 
L 118.490313 350.656645 
L 122.043497 339.04013 
L 123.820089 350.869175 
L 125.596681 352.499964 
L 127.373273 351.524835 
L 129.149865 352.006043 
L 130.926458 338.103746 
L 132.70305 351.56062 
L 134.479642 352.576588 
L 136.256234 351.996386 
L 138.032826 351.78044 
L 139.809418 303.076393 
L 141.586011 350.685375 
L 143.362603 353.717502 
L 145.139195 352.130968 
L 146.915787 352.500686 
L 148.692379 339.044995 
L 150.468971 351.931827 
L 152.245564 351.111691 
L 154.022156 349.911688 
L 155.798748 352.347677 
L 157.57534 338.01525 
L 159.351932 329.08306 
L 161.128524 352.728114 
L 162.905116 352.655849 
L 164.681709 351.895112 
L 166.458301 353.038501 
L 168.234893 352.788364 
L 170.011485 351.991774 
L 171.788077 351.445989 
L 173.564669 351.590399 
L 175.341262 351.226973 
L 177.117854 332.970494 
L 178.894446 351.703032 
L 180.671038 353.035657 
L 182.44763 351.873713 
L 184.224222 353.303471 
L 186.000815 352.191619 
L 187.777407 347.102384 
L 189.553999 349.943753 
L 193.107183 352.741906 
L 194.883775 352.105048 
L 196.660368 333.39454 
L 198.43696 354.048986 
L 200.213552 199.941992 
L 201.990144 345.662397 
L 203.766736 348.138321 
L 205.543328 335.66212 
L 207.31992 348.684774 
L 209.096513 344.968313 
L 210.873105 346.138079 
L 212.649697 337.854326 
L 214.426289 328.621913 
L 216.202881 341.928222 
L 217.979473 342.664588 
L 219.756066 346.104096 
L 221.532658 348.453798 
L 223.30925 352.047344 
L 225.085842 338.082066 
L 226.862434 351.992567 
L 228.639026 338.706667 
L 230.415619 352.35053 
L 232.192211 352.432715 
L 233.968803 341.054918 
L 235.745395 346.617611 
L 237.521987 347.696444 
L 239.298579 329.13933 
L 241.075172 351.0143 
L 242.851764 339.326713 
L 244.628356 347.494273 
L 246.404948 348.327895 
L 248.18154 354.232878 
L 249.958132 352.577103 
L 251.734724 330.167212 
L 253.511317 343.981227 
L 255.287909 353.121179 
L 257.064501 352.805796 
L 258.841093 348.625386 
L 260.617685 353.656052 
L 262.394277 344.476474 
L 264.17087 352.783804 
L 265.947462 333.600745 
L 267.724054 343.309861 
L 269.500646 350.588962 
L 271.277238 334.897329 
L 273.05383 343.978514 
L 274.830423 352.283752 
L 276.607015 346.170187 
L 278.383607 351.237349 
L 280.160199 331.847361 
L 281.936791 349.485927 
L 283.713383 343.658867 
L 285.489975 348.561796 
L 287.266568 349.778208 
L 289.04316 347.660475 
L 290.819752 321.615878 
L 292.596344 347.271889 
L 294.372936 344.262725 
L 296.149528 350.141187 
L 297.926121 348.751053 
L 299.702713 348.37385 
L 301.479305 166.227055 
L 303.255897 332.605494 
L 305.032489 329.720793 
L 306.809081 329.513281 
L 308.585674 319.407391 
L 310.362266 332.895488 
L 312.138858 348.777983 
L 315.692042 340.452982 
L 317.468634 342.425968 
L 319.245227 310.962206 
L 321.021819 345.055332 
L 322.798411 349.684365 
L 324.575003 338.841323 
L 326.351595 340.849011 
L 328.128187 280.980355 
L 329.904779 187.032069 
L 331.681372 299.043541 
L 333.457964 305.234411 
L 335.234556 327.871675 
L 337.011148 306.79411 
L 338.78774 194.322811 
L 340.564332 289.929341 
L 342.340925 310.714988 
L 344.117517 317.117734 
L 345.894109 293.108747 
L 347.670701 311.444959 
L 349.447293 316.262717 
L 351.223885 324.426701 
L 353.000478 318.967421 
L 354.77707 332.246236 
L 356.553662 301.441028 
L 358.330254 333.449166 
L 360.106846 317.026031 
L 361.883438 342.307281 
L 363.66003 312.398388 
L 365.436623 315.320453 
L 367.213215 335.683434 
L 368.989807 335.499439 
L 370.766399 336.90547 
L 372.542991 338.018506 
L 374.319583 345.415396 
L 376.096176 336.191284 
L 377.872768 344.964043 
L 379.64936 334.265685 
L 381.425952 333.58472 
L 383.202544 337.265849 
L 384.979136 304.646204 
L 386.755729 327.593811 
L 388.532321 327.020504 
L 390.308913 345.642333 
L 392.085505 345.119861 
L 393.862097 340.479547 
L 395.638689 336.268417 
L 397.415282 338.350788 
L 399.191874 343.846783 
L 400.968466 346.527799 
L 402.745058 287.681271 
L 404.52165 283.7817 
L 406.298242 326.336621 
L 408.074834 330.587862 
L 409.851427 335.989014 
L 413.404611 333.621121 
L 415.181203 327.938328 
L 416.957795 306.328667 
L 418.734387 335.390362 
L 420.51098 334.143829 
L 422.287572 318.884115 
L 424.064164 320.127352 
L 427.617348 332.571197 
L 429.39394 320.992906 
L 431.170533 318.360415 
L 432.947125 320.845115 
L 434.723717 313.179159 
L 436.500309 325.615946 
L 438.276901 312.884586 
L 440.053493 312.673639 
L 441.830086 300.047361 
L 443.606678 320.675262 
L 445.38327 302.892479 
L 447.159862 313.276393 
L 448.936454 315.818021 
L 450.713046 307.336243 
L 452.489638 318.749181 
L 454.266231 312.286801 
L 456.042823 312.662772 
L 457.819415 311.710621 
L 459.596007 270.872441 
L 461.372599 324.369323 
L 463.149191 321.16225 
L 464.925784 326.184142 
L 466.702376 287.184052 
L 468.478968 290.837533 
L 472.032152 316.991708 
L 473.808744 305.691552 
L 475.585337 314.417256 
L 477.361929 293.335318 
L 479.138521 293.645 
L 480.915113 310.727228 
L 482.691705 300.260872 
L 484.468297 296.663205 
L 486.244889 279.018056 
L 488.021482 277.991969 
L 489.798074 292.25036 
L 491.574666 298.118463 
L 493.351258 284.947116 
L 495.12785 305.298486 
L 496.904442 299.451607 
L 498.681035 286.703004 
L 500.457627 303.898216 
L 502.234219 296.57039 
L 504.010811 298.313215 
L 505.787403 296.283518 
L 507.563995 290.963553 
L 509.340588 293.406081 
L 511.11718 307.76027 
L 512.893772 301.551577 
L 514.670364 156.681202 
L 516.446956 238.331546 
L 518.223548 276.088793 
L 520.000141 268.231098 
L 521.776733 252.179642 
L 523.553325 259.30321 
L 525.329917 236.62082 
L 527.106509 255.302577 
L 528.883101 254.293794 
L 530.659693 254.417476 
L 532.436286 281.113801 
L 535.98947 264.532229 
L 537.766062 275.472295 
L 539.542654 261.62019 
L 541.319246 266.475299 
L 543.095839 267.436372 
L 544.872431 266.090226 
L 546.649023 270.503551 
L 548.425615 275.849559 
L 550.202207 275.635612 
L 551.978799 255.77538 
L 553.755392 254.210623 
L 555.531984 254.979024 
L 557.308576 269.684311 
L 559.085168 276.126539 
L 560.86176 281.395127 
L 562.638352 291.150389 
L 564.414945 262.553831 
L 566.191537 280.882714 
L 567.968129 266.872892 
L 569.744721 250.500365 
L 571.521313 267.224326 
L 573.297905 248.795527 
L 575.074497 256.229129 
L 576.85109 171.492786 
L 578.627682 250.421307 
L 580.404274 233.049824 
L 582.180866 242.888759 
L 583.957458 267.306196 
L 585.73405 260.446958 
L 587.510643 268.838021 
L 589.287235 254.455706 
L 591.063827 270.582216 
L 592.840419 256.407311 
L 594.617011 256.070602 
L 596.393603 253.251735 
L 598.170196 267.602221 
L 599.946788 267.511884 
L 601.72338 276.338434 
L 603.499972 274.82372 
L 605.276564 260.530935 
L 607.053156 179.963208 
L 608.829748 237.821488 
L 610.606341 197.939112 
L 612.382933 265.078521 
L 614.159525 273.294506 
L 615.936117 264.458566 
L 617.712709 267.428116 
L 619.489301 270.09491 
L 621.265894 250.573835 
L 623.042486 271.0196 
L 624.819078 268.295328 
L 626.59567 262.177252 
L 628.372262 273.31963 
L 630.148854 204.626998 
L 631.925447 149.353878 
L 633.702039 195.653374 
L 635.478631 229.672343 
L 637.255223 227.650499 
L 639.031815 227.970813 
L 640.808407 213.438157 
L 642.585 229.65914 
L 644.361592 235.286276 
L 646.138184 248.699429 
L 647.914776 245.767171 
L 649.691368 220.750614 
L 651.46796 236.253013 
L 653.244552 241.539802 
L 655.021145 233.701866 
L 656.797737 247.754281 
L 658.574329 242.19207 
L 660.350921 247.881847 
L 662.127513 248.484874 
L 663.904105 249.306056 
L 665.680698 253.299343 
L 667.45729 214.308176 
L 669.233882 240.214091 
L 671.010474 248.257449 
L 672.787066 248.241324 
L 674.563658 247.643662 
L 676.340251 246.419473 
L 678.116843 240.65491 
L 679.893435 242.489729 
L 681.670027 249.853251 
L 683.446619 250.202999 
L 685.223211 150.191824 
L 686.999803 195.480731 
L 688.776396 244.222021 
L 690.552988 243.440439 
L 692.32958 232.368082 
L 694.106172 248.110325 
L 695.882764 238.337648 
L 697.659356 240.614501 
L 699.435949 237.00643 
L 701.212541 246.993015 
L 702.989133 245.184827 
L 704.765725 234.875634 
L 706.542317 245.874618 
L 708.318909 247.399065 
L 710.095502 242.400436 
L 711.872094 232.2452 
L 713.648686 250.979169 
L 715.425278 219.077822 
L 717.20187 245.125266 
L 718.978462 245.739224 
L 720.755055 253.734259 
L 722.531647 232.646143 
L 724.308239 175.748807 
L 726.084831 212.987638 
L 727.861423 242.973794 
L 729.638015 235.495559 
L 731.414607 225.669648 
L 733.1912 223.048296 
L 734.967792 223.761653 
L 736.744384 214.767574 
L 738.520976 215.652534 
L 740.297568 204.093309 
L 742.07416 205.010781 
L 743.850753 217.011841 
L 745.627345 198.838325 
L 747.403937 193.829521 
L 749.180529 215.109515 
L 750.957121 233.349578 
L 752.733713 207.858047 
L 754.510306 223.106861 
L 756.286898 216.548132 
L 758.06349 229.336505 
L 759.840082 226.447176 
L 761.616674 215.183536 
L 763.393266 207.380825 
L 765.169859 216.389093 
L 766.946451 227.20853 
L 768.723043 224.288405 
L 770.499635 214.94324 
L 772.276227 230.12314 
L 774.052819 228.367112 
L 775.829411 232.696981 
L 777.606004 190.144419 
L 779.382596 221.811425 
L 781.159188 171.522003 
L 782.93578 146.697476 
L 784.712372 198.463682 
L 786.488964 206.22991 
L 788.265557 192.420039 
L 790.042149 203.290207 
L 791.818741 211.673481 
L 793.595333 198.953244 
L 795.371925 193.52105 
L 797.148517 212.571883 
L 798.92511 192.561993 
L 800.701702 208.256802 
L 802.478294 194.787539 
L 804.254886 206.484934 
L 806.031478 187.754685 
L 807.80807 182.079104 
L 809.584662 195.748694 
L 813.137847 166.759183 
L 814.914439 167.507128 
L 816.691031 202.170428 
L 816.691031 202.170428 
" clip-path="url(#ped29a9153d)" style="fill: none; stroke: #2ca02c; stroke-width: 1.5; stroke-linecap: square"/>
   </g>
   <g id="patch_3">
    <path d="M 50.002685 390.04 
L 50.002685 41.856 
" style="fill: none; stroke: #000000; stroke-width: 0.8; stroke-linejoin: miter; stroke-linecap: square"/>
   </g>
   <g id="patch_4">
    <path d="M 853.2 390.04 
L 853.2 41.856 
" style="fill: none; stroke: #000000; stroke-width: 0.8; stroke-linejoin: miter; stroke-linecap: square"/>
   </g>
   <g id="patch_5">
    <path d="M 50.002685 390.04 
L 853.2 390.04 
" style="fill: none; stroke: #000000; stroke-width: 0.8; stroke-linejoin: miter; stroke-linecap: square"/>
   </g>
   <g id="patch_6">
    <path d="M 50.002685 41.856 
L 853.2 41.856 
" style="fill: none; stroke: #000000; stroke-width: 0.8; stroke-linejoin: miter; stroke-linecap: square"/>
   </g>
   <g id="text_11">
    <!-- Average HTTP Request Duration Over Time -->
    <g transform="translate(322.529155 22.355625) scale(0.12 -0.12)">
     <defs>
      <path id="DejaVuSans-48" d="M 628 4666 
L 1259 4666 
L 1259 2753 
L 3553 2753 
L 3553 4666 
L 4184 4666 
L 4184 0 
L 3553 0 
L 3553 2222 
L 1259 2222 
L 1259 0 
L 628 0 
L 628 4666 
z
" transform="scale(0.015625)"/>
      <path id="DejaVuSans-50" d="M 1259 4147 
L 1259 2394 
L 2053 2394 
Q 2494 2394 2734 2622 
Q 2975 2850 2975 3272 
Q 2975 3691 2734 3919 
Q 2494 4147 2053 4147 
L 1259 4147 
z
M 628 4666 
L 2053 4666 
Q 2838 4666 3239 4311 
Q 3641 3956 3641 3272 
Q 3641 2581 3239 2228 
Q 2838 1875 2053 1875 
L 1259 1875 
L 1259 0 
L 628 0 
L 628 4666 
z
" transform="scale(0.015625)"/>
      <path id="DejaVuSans-52" d="M 2841 2188 
Q 3044 2119 3236 1894 
Q 3428 1669 3622 1275 
L 4263 0 
L 3584 0 
L 2988 1197 
Q 2756 1666 2539 1819 
Q 2322 1972 1947 1972 
L 1259 1972 
L 1259 0 
L 628 0 
L 628 4666 
L 2053 4666 
Q 2853 4666 3247 4331 
Q 3641 3997 3641 3322 
Q 3641 2881 3436 2590 
Q 3231 2300 2841 2188 
z
M 1259 4147 
L 1259 2491 
L 2053 2491 
Q 2509 2491 2742 2702 
Q 2975 2913 2975 3322 
Q 2975 3731 2742 3939 
Q 2509 4147 2053 4147 
L 1259 4147 
z
" transform="scale(0.015625)"/>
      <path id="DejaVuSans-71" d="M 947 1747 
Q 947 1113 1208 752 
Q 1469 391 1925 391 
Q 2381 391 2643 752 
Q 2906 1113 2906 1747 
Q 2906 2381 2643 2742 
Q 2381 3103 1925 3103 
Q 1469 3103 1208 2742 
Q 947 2381 947 1747 
z
M 2906 525 
Q 2725 213 2448 61 
Q 2172 -91 1784 -91 
Q 1150 -91 751 415 
Q 353 922 353 1747 
Q 353 2572 751 3078 
Q 1150 3584 1784 3584 
Q 2172 3584 2448 3432 
Q 2725 3281 2906 2969 
L 2906 3500 
L 3481 3500 
L 3481 -1331 
L 2906 -1331 
L 2906 525 
z
" transform="scale(0.015625)"/>
      <path id="DejaVuSans-4f" d="M 2522 4238 
Q 1834 4238 1429 3725 
Q 1025 3213 1025 2328 
Q 1025 1447 1429 934 
Q 1834 422 2522 422 
Q 3209 422 3611 934 
Q 4013 1447 4013 2328 
Q 4013 3213 3611 3725 
Q 3209 4238 2522 4238 
z
M 2522 4750 
Q 3503 4750 4090 4092 
Q 4678 3434 4678 2328 
Q 4678 1225 4090 567 
Q 3503 -91 2522 -91 
Q 1538 -91 948 565 
Q 359 1222 359 2328 
Q 359 3434 948 4092 
Q 1538 4750 2522 4750 
z
" transform="scale(0.015625)"/>
     </defs>
     <use xlink:href="#DejaVuSans-41"/>
     <use xlink:href="#DejaVuSans-76" transform="translate(62.533203 0)"/>
     <use xlink:href="#DejaVuSans-65" transform="translate(121.712891 0)"/>
     <use xlink:href="#DejaVuSans-72" transform="translate(183.236328 0)"/>
     <use xlink:href="#DejaVuSans-61" transform="translate(224.349609 0)"/>
     <use xlink:href="#DejaVuSans-67" transform="translate(285.628906 0)"/>
     <use xlink:href="#DejaVuSans-65" transform="translate(349.105469 0)"/>
     <use xlink:href="#DejaVuSans-20" transform="translate(410.628906 0)"/>
     <use xlink:href="#DejaVuSans-48" transform="translate(442.416016 0)"/>
     <use xlink:href="#DejaVuSans-54" transform="translate(517.611328 0)"/>
     <use xlink:href="#DejaVuSans-54" transform="translate(576.945312 0)"/>
     <use xlink:href="#DejaVuSans-50" transform="translate(638.029297 0)"/>
     <use xlink:href="#DejaVuSans-20" transform="translate(698.332031 0)"/>
     <use xlink:href="#DejaVuSans-52" transform="translate(730.119141 0)"/>
     <use xlink:href="#DejaVuSans-65" transform="translate(795.101562 0)"/>
     <use xlink:href="#DejaVuSans-71" transform="translate(856.625 0)"/>
     <use xlink:href="#DejaVuSans-75" transform="translate(920.101562 0)"/>
     <use xlink:href="#DejaVuSans-65" transform="translate(983.480469 0)"/>
     <use xlink:href="#DejaVuSans-73" transform="translate(1045.003906 0)"/>
     <use xlink:href="#DejaVuSans-74" transform="translate(1097.103516 0)"/>
     <use xlink:href="#DejaVuSans-20" transform="translate(1136.3125 0)"/>
     <use xlink:href="#DejaVuSans-44" transform="translate(1168.099609 0)"/>
     <use xlink:href="#DejaVuSans-75" transform="translate(1245.101562 0)"/>
     <use xlink:href="#DejaVuSans-72" transform="translate(1308.480469 0)"/>
     <use xlink:href="#DejaVuSans-61" transform="translate(1349.59375 0)"/>
     <use xlink:href="#DejaVuSans-74" transform="translate(1410.873047 0)"/>
     <use xlink:href="#DejaVuSans-69" transform="translate(1450.082031 0)"/>
     <use xlink:href="#DejaVuSans-6f" transform="translate(1477.865234 0)"/>
     <use xlink:href="#DejaVuSans-6e" transform="translate(1539.046875 0)"/>
     <use xlink:href="#DejaVuSans-20" transform="translate(1602.425781 0)"/>
     <use xlink:href="#DejaVuSans-4f" transform="translate(1634.212891 0)"/>
     <use xlink:href="#DejaVuSans-76" transform="translate(1712.923828 0)"/>
     <use xlink:href="#DejaVuSans-65" transform="translate(1772.103516 0)"/>
     <use xlink:href="#DejaVuSans-72" transform="translate(1833.626953 0)"/>
     <use xlink:href="#DejaVuSans-20" transform="translate(1874.740234 0)"/>
     <use xlink:href="#DejaVuSans-54" transform="translate(1906.527344 0)"/>
     <use xlink:href="#DejaVuSans-69" transform="translate(1964.486328 0)"/>
     <use xlink:href="#DejaVuSans-6d" transform="translate(1992.269531 0)"/>
     <use xlink:href="#DejaVuSans-65" transform="translate(2089.681641 0)"/>
    </g>
    <!-- Test: breakpoint | Endpoint: GetMapById -->
    <g transform="translate(330.502592 35.856) scale(0.12 -0.12)">
     <defs>
      <path id="DejaVuSans-3a" d="M 750 794 
L 1409 794 
L 1409 0 
L 750 0 
L 750 794 
z
M 750 3309 
L 1409 3309 
L 1409 2516 
L 750 2516 
L 750 3309 
z
" transform="scale(0.015625)"/>
      <path id="DejaVuSans-62" d="M 3116 1747 
Q 3116 2381 2855 2742 
Q 2594 3103 2138 3103 
Q 1681 3103 1420 2742 
Q 1159 2381 1159 1747 
Q 1159 1113 1420 752 
Q 1681 391 2138 391 
Q 2594 391 2855 752 
Q 3116 1113 3116 1747 
z
M 1159 2969 
Q 1341 3281 1617 3432 
Q 1894 3584 2278 3584 
Q 2916 3584 3314 3078 
Q 3713 2572 3713 1747 
Q 3713 922 3314 415 
Q 2916 -91 2278 -91 
Q 1894 -91 1617 61 
Q 1341 213 1159 525 
L 1159 0 
L 581 0 
L 581 4863 
L 1159 4863 
L 1159 2969 
z
" transform="scale(0.015625)"/>
      <path id="DejaVuSans-6b" d="M 581 4863 
L 1159 4863 
L 1159 1991 
L 2875 3500 
L 3609 3500 
L 1753 1863 
L 3688 0 
L 2938 0 
L 1159 1709 
L 1159 0 
L 581 0 
L 581 4863 
z
" transform="scale(0.015625)"/>
      <path id="DejaVuSans-7c" d="M 1344 4891 
L 1344 -1509 
L 813 -1509 
L 813 4891 
L 1344 4891 
z
" transform="scale(0.015625)"/>
      <path id="DejaVuSans-45" d="M 628 4666 
L 3578 4666 
L 3578 4134 
L 1259 4134 
L 1259 2753 
L 3481 2753 
L 3481 2222 
L 1259 2222 
L 1259 531 
L 3634 531 
L 3634 0 
L 628 0 
L 628 4666 
z
" transform="scale(0.015625)"/>
      <path id="DejaVuSans-47" d="M 3809 666 
L 3809 1919 
L 2778 1919 
L 2778 2438 
L 4434 2438 
L 4434 434 
Q 4069 175 3628 42 
Q 3188 -91 2688 -91 
Q 1594 -91 976 548 
Q 359 1188 359 2328 
Q 359 3472 976 4111 
Q 1594 4750 2688 4750 
Q 3144 4750 3555 4637 
Q 3966 4525 4313 4306 
L 4313 3634 
Q 3963 3931 3569 4081 
Q 3175 4231 2741 4231 
Q 1884 4231 1454 3753 
Q 1025 3275 1025 2328 
Q 1025 1384 1454 906 
Q 1884 428 2741 428 
Q 3075 428 3337 486 
Q 3600 544 3809 666 
z
" transform="scale(0.015625)"/>
      <path id="DejaVuSans-4d" d="M 628 4666 
L 1569 4666 
L 2759 1491 
L 3956 4666 
L 4897 4666 
L 4897 0 
L 4281 0 
L 4281 4097 
L 3078 897 
L 2444 897 
L 1241 4097 
L 1241 0 
L 628 0 
L 628 4666 
z
" transform="scale(0.015625)"/>
      <path id="DejaVuSans-42" d="M 1259 2228 
L 1259 519 
L 2272 519 
Q 2781 519 3026 730 
Q 3272 941 3272 1375 
Q 3272 1813 3026 2020 
Q 2781 2228 2272 2228 
L 1259 2228 
z
M 1259 4147 
L 1259 2741 
L 2194 2741 
Q 2656 2741 2882 2914 
Q 3109 3088 3109 3444 
Q 3109 3797 2882 3972 
Q 2656 4147 2194 4147 
L 1259 4147 
z
M 628 4666 
L 2241 4666 
Q 2963 4666 3353 4366 
Q 3744 4066 3744 3513 
Q 3744 3084 3544 2831 
Q 3344 2578 2956 2516 
Q 3422 2416 3680 2098 
Q 3938 1781 3938 1306 
Q 3938 681 3513 340 
Q 3088 0 2303 0 
L 628 0 
L 628 4666 
z
" transform="scale(0.015625)"/>
      <path id="DejaVuSans-79" d="M 2059 -325 
Q 1816 -950 1584 -1140 
Q 1353 -1331 966 -1331 
L 506 -1331 
L 506 -850 
L 844 -850 
Q 1081 -850 1212 -737 
Q 1344 -625 1503 -206 
L 1606 56 
L 191 3500 
L 800 3500 
L 1894 763 
L 2988 3500 
L 3597 3500 
L 2059 -325 
z
" transform="scale(0.015625)"/>
      <path id="DejaVuSans-49" d="M 628 4666 
L 1259 4666 
L 1259 0 
L 628 0 
L 628 4666 
z
" transform="scale(0.015625)"/>
     </defs>
     <use xlink:href="#DejaVuSans-54"/>
     <use xlink:href="#DejaVuSans-65" transform="translate(44.083984 0)"/>
     <use xlink:href="#DejaVuSans-73" transform="translate(105.607422 0)"/>
     <use xlink:href="#DejaVuSans-74" transform="translate(157.707031 0)"/>
     <use xlink:href="#DejaVuSans-3a" transform="translate(196.916016 0)"/>
     <use xlink:href="#DejaVuSans-20" transform="translate(230.607422 0)"/>
     <use xlink:href="#DejaVuSans-62" transform="translate(262.394531 0)"/>
     <use xlink:href="#DejaVuSans-72" transform="translate(325.871094 0)"/>
     <use xlink:href="#DejaVuSans-65" transform="translate(364.734375 0)"/>
     <use xlink:href="#DejaVuSans-61" transform="translate(426.257812 0)"/>
     <use xlink:href="#DejaVuSans-6b" transform="translate(487.537109 0)"/>
     <use xlink:href="#DejaVuSans-70" transform="translate(545.447266 0)"/>
     <use xlink:href="#DejaVuSans-6f" transform="translate(608.923828 0)"/>
     <use xlink:href="#DejaVuSans-69" transform="translate(670.105469 0)"/>
     <use xlink:href="#DejaVuSans-6e" transform="translate(697.888672 0)"/>
     <use xlink:href="#DejaVuSans-74" transform="translate(761.267578 0)"/>
     <use xlink:href="#DejaVuSans-20" transform="translate(800.476562 0)"/>
     <use xlink:href="#DejaVuSans-7c" transform="translate(832.263672 0)"/>
     <use xlink:href="#DejaVuSans-20" transform="translate(865.955078 0)"/>
     <use xlink:href="#DejaVuSans-45" transform="translate(897.742188 0)"/>
     <use xlink:href="#DejaVuSans-6e" transform="translate(960.925781 0)"/>
     <use xlink:href="#DejaVuSans-64" transform="translate(1024.304688 0)"/>
     <use xlink:href="#DejaVuSans-70" transform="translate(1087.78125 0)"/>
     <use xlink:href="#DejaVuSans-6f" transform="translate(1151.257812 0)"/>
     <use xlink:href="#DejaVuSans-69" transform="translate(1212.439453 0)"/>
     <use xlink:href="#DejaVuSans-6e" transform="translate(1240.222656 0)"/>
     <use xlink:href="#DejaVuSans-74" transform="translate(1303.601562 0)"/>
     <use xlink:href="#DejaVuSans-3a" transform="translate(1342.810547 0)"/>
     <use xlink:href="#DejaVuSans-20" transform="translate(1376.501953 0)"/>
     <use xlink:href="#DejaVuSans-47" transform="translate(1408.289062 0)"/>
     <use xlink:href="#DejaVuSans-65" transform="translate(1485.779297 0)"/>
     <use xlink:href="#DejaVuSans-74" transform="translate(1547.302734 0)"/>
     <use xlink:href="#DejaVuSans-4d" transform="translate(1586.511719 0)"/>
     <use xlink:href="#DejaVuSans-61" transform="translate(1672.791016 0)"/>
     <use xlink:href="#DejaVuSans-70" transform="translate(1734.070312 0)"/>
     <use xlink:href="#DejaVuSans-42" transform="translate(1797.546875 0)"/>
     <use xlink:href="#DejaVuSans-79" transform="translate(1866.150391 0)"/>
     <use xlink:href="#DejaVuSans-49" transform="translate(1925.330078 0)"/>
     <use xlink:href="#DejaVuSans-64" transform="translate(1954.822266 0)"/>
    </g>
   </g>
   <g id="legend_1">
    <g id="patch_7">
     <path d="M 57.002685 93.890375 
L 190.346435 93.890375 
Q 192.346435 93.890375 192.346435 91.890375 
L 192.346435 48.856 
Q 192.346435 46.856 190.346435 46.856 
L 57.002685 46.856 
Q 55.002685 46.856 55.002685 48.856 
L 55.002685 91.890375 
Q 55.002685 93.890375 57.002685 93.890375 
z
" style="fill: #ffffff; opacity: 0.8; stroke: #cccccc; stroke-linejoin: miter"/>
    </g>
    <g id="line2d_37">
     <path d="M 59.002685 54.954437 
L 69.002685 54.954437 
L 79.002685 54.954437 
" style="fill: none; stroke: #1f77b4; stroke-width: 1.5; stroke-linecap: square"/>
    </g>
    <g id="text_12">
     <!-- Single Large Results -->
     <g transform="translate(87.002685 58.454437) scale(0.1 -0.1)">
      <defs>
       <path id="DejaVuSans-6c" d="M 603 4863 
L 1178 4863 
L 1178 0 
L 603 0 
L 603 4863 
z
" transform="scale(0.015625)"/>
       <path id="DejaVuSans-4c" d="M 628 4666 
L 1259 4666 
L 1259 531 
L 3531 531 
L 3531 0 
L 628 0 
L 628 4666 
z
" transform="scale(0.015625)"/>
      </defs>
      <use xlink:href="#DejaVuSans-53"/>
      <use xlink:href="#DejaVuSans-69" transform="translate(63.476562 0)"/>
      <use xlink:href="#DejaVuSans-6e" transform="translate(91.259766 0)"/>
      <use xlink:href="#DejaVuSans-67" transform="translate(154.638672 0)"/>
      <use xlink:href="#DejaVuSans-6c" transform="translate(218.115234 0)"/>
      <use xlink:href="#DejaVuSans-65" transform="translate(245.898438 0)"/>
      <use xlink:href="#DejaVuSans-20" transform="translate(307.421875 0)"/>
      <use xlink:href="#DejaVuSans-4c" transform="translate(339.208984 0)"/>
      <use xlink:href="#DejaVuSans-61" transform="translate(394.921875 0)"/>
      <use xlink:href="#DejaVuSans-72" transform="translate(456.201172 0)"/>
      <use xlink:href="#DejaVuSans-67" transform="translate(495.564453 0)"/>
      <use xlink:href="#DejaVuSans-65" transform="translate(559.041016 0)"/>
      <use xlink:href="#DejaVuSans-20" transform="translate(620.564453 0)"/>
      <use xlink:href="#DejaVuSans-52" transform="translate(652.351562 0)"/>
      <use xlink:href="#DejaVuSans-65" transform="translate(717.333984 0)"/>
      <use xlink:href="#DejaVuSans-73" transform="translate(778.857422 0)"/>
      <use xlink:href="#DejaVuSans-75" transform="translate(830.957031 0)"/>
      <use xlink:href="#DejaVuSans-6c" transform="translate(894.335938 0)"/>
      <use xlink:href="#DejaVuSans-74" transform="translate(922.119141 0)"/>
      <use xlink:href="#DejaVuSans-73" transform="translate(961.328125 0)"/>
     </g>
    </g>
    <g id="line2d_38">
     <path d="M 59.002685 69.632562 
L 69.002685 69.632562 
L 79.002685 69.632562 
" style="fill: none; stroke: #ff7f0e; stroke-width: 1.5; stroke-linecap: square"/>
    </g>
    <g id="text_13">
     <!-- Single Small Results -->
     <g transform="translate(87.002685 73.132562) scale(0.1 -0.1)">
      <use xlink:href="#DejaVuSans-53"/>
      <use xlink:href="#DejaVuSans-69" transform="translate(63.476562 0)"/>
      <use xlink:href="#DejaVuSans-6e" transform="translate(91.259766 0)"/>
      <use xlink:href="#DejaVuSans-67" transform="translate(154.638672 0)"/>
      <use xlink:href="#DejaVuSans-6c" transform="translate(218.115234 0)"/>
      <use xlink:href="#DejaVuSans-65" transform="translate(245.898438 0)"/>
      <use xlink:href="#DejaVuSans-20" transform="translate(307.421875 0)"/>
      <use xlink:href="#DejaVuSans-53" transform="translate(339.208984 0)"/>
      <use xlink:href="#DejaVuSans-6d" transform="translate(402.685547 0)"/>
      <use xlink:href="#DejaVuSans-61" transform="translate(500.097656 0)"/>
      <use xlink:href="#DejaVuSans-6c" transform="translate(561.376953 0)"/>
      <use xlink:href="#DejaVuSans-6c" transform="translate(589.160156 0)"/>
      <use xlink:href="#DejaVuSans-20" transform="translate(616.943359 0)"/>
      <use xlink:href="#DejaVuSans-52" transform="translate(648.730469 0)"/>
      <use xlink:href="#DejaVuSans-65" transform="translate(713.712891 0)"/>
      <use xlink:href="#DejaVuSans-73" transform="translate(775.236328 0)"/>
      <use xlink:href="#DejaVuSans-75" transform="translate(827.335938 0)"/>
      <use xlink:href="#DejaVuSans-6c" transform="translate(890.714844 0)"/>
      <use xlink:href="#DejaVuSans-74" transform="translate(918.498047 0)"/>
      <use xlink:href="#DejaVuSans-73" transform="translate(957.707031 0)"/>
     </g>
    </g>
    <g id="line2d_39">
     <path d="M 59.002685 84.310687 
L 69.002685 84.310687 
L 79.002685 84.310687 
" style="fill: none; stroke: #2ca02c; stroke-width: 1.5; stroke-linecap: square"/>
    </g>
    <g id="text_14">
     <!-- Multi Results -->
     <g transform="translate(87.002685 87.810687) scale(0.1 -0.1)">
      <use xlink:href="#DejaVuSans-4d"/>
      <use xlink:href="#DejaVuSans-75" transform="translate(86.279297 0)"/>
      <use xlink:href="#DejaVuSans-6c" transform="translate(149.658203 0)"/>
      <use xlink:href="#DejaVuSans-74" transform="translate(177.441406 0)"/>
      <use xlink:href="#DejaVuSans-69" transform="translate(216.650391 0)"/>
      <use xlink:href="#DejaVuSans-20" transform="translate(244.433594 0)"/>
      <use xlink:href="#DejaVuSans-52" transform="translate(276.220703 0)"/>
      <use xlink:href="#DejaVuSans-65" transform="translate(341.203125 0)"/>
      <use xlink:href="#DejaVuSans-73" transform="translate(402.726562 0)"/>
      <use xlink:href="#DejaVuSans-75" transform="translate(454.826172 0)"/>
      <use xlink:href="#DejaVuSans-6c" transform="translate(518.205078 0)"/>
      <use xlink:href="#DejaVuSans-74" transform="translate(545.988281 0)"/>
      <use xlink:href="#DejaVuSans-73" transform="translate(585.197266 0)"/>
     </g>
    </g>
   </g>
  </g>
 </g>
 <defs>
  <clipPath id="ped29a9153d">
   <rect x="50.002685" y="41.856" width="803.197315" height="348.184"/>
  </clipPath>
 </defs>
</svg>
