<?xml version="1.0" encoding="utf-8" standalone="no"?>
<!DOCTYPE svg PUBLIC "-//W3C//DTD SVG 1.1//EN"
  "http://www.w3.org/Graphics/SVG/1.1/DTD/svg11.dtd">
<svg xmlns:xlink="http://www.w3.org/1999/xlink" width="864pt" height="432pt" viewBox="0 0 864 432" xmlns="http://www.w3.org/2000/svg" version="1.1">
 <metadata>
  <rdf:RDF xmlns:dc="http://purl.org/dc/elements/1.1/" xmlns:cc="http://creativecommons.org/ns#" xmlns:rdf="http://www.w3.org/1999/02/22-rdf-syntax-ns#">
   <cc:Work>
    <dc:type rdf:resource="http://purl.org/dc/dcmitype/StillImage"/>
    <dc:date>2025-05-31T16:14:30.875390</dc:date>
    <dc:format>image/svg+xml</dc:format>
    <dc:creator>
     <cc:Agent>
      <dc:title>Matplotlib v3.10.1, https://matplotlib.org/</dc:title>
     </cc:Agent>
    </dc:creator>
   </cc:Work>
  </rdf:RDF>
 </metadata>
 <defs>
  <style type="text/css">*{stroke-linejoin: round; stroke-linecap: butt}</style>
 </defs>
 <g id="figure_1">
  <g id="patch_1">
   <path d="M 0 432 
L 864 432 
L 864 0 
L 0 0 
z
" style="fill: #ffffff"/>
  </g>
  <g id="axes_1">
   <g id="patch_2">
    <path d="M 50.137685 390.04 
L 853.2 390.04 
L 853.2 41.856 
L 50.137685 41.856 
z
" style="fill: #ffffff"/>
   </g>
   <g id="matplotlib.axis_1">
    <g id="xtick_1">
     <g id="line2d_1">
      <defs>
       <path id="mdfddec7c5a" d="M 0 0 
L 0 3.5 
" style="stroke: #000000; stroke-width: 0.8"/>
      </defs>
      <g>
       <use xlink:href="#mdfddec7c5a" x="86.640517" y="390.04" style="stroke: #000000; stroke-width: 0.8"/>
      </g>
     </g>
     <g id="text_1">
      <!-- 0 -->
      <g transform="translate(83.459267 404.638438) scale(0.1 -0.1)">
       <defs>
        <path id="DejaVuSans-30" d="M 2034 4250 
Q 1547 4250 1301 3770 
Q 1056 3291 1056 2328 
Q 1056 1369 1301 889 
Q 1547 409 2034 409 
Q 2525 409 2770 889 
Q 3016 1369 3016 2328 
Q 3016 3291 2770 3770 
Q 2525 4250 2034 4250 
z
M 2034 4750 
Q 2819 4750 3233 4129 
Q 3647 3509 3647 2328 
Q 3647 1150 3233 529 
Q 2819 -91 2034 -91 
Q 1250 -91 836 529 
Q 422 1150 422 2328 
Q 422 3509 836 4129 
Q 1250 4750 2034 4750 
z
" transform="scale(0.015625)"/>
       </defs>
       <use xlink:href="#DejaVuSans-30"/>
      </g>
     </g>
    </g>
    <g id="xtick_2">
     <g id="line2d_2">
      <g>
       <use xlink:href="#mdfddec7c5a" x="232.656121" y="390.04" style="stroke: #000000; stroke-width: 0.8"/>
      </g>
     </g>
     <g id="text_2">
      <!-- 20 -->
      <g transform="translate(226.293621 404.638438) scale(0.1 -0.1)">
       <defs>
        <path id="DejaVuSans-32" d="M 1228 531 
L 3431 531 
L 3431 0 
L 469 0 
L 469 531 
Q 828 903 1448 1529 
Q 2069 2156 2228 2338 
Q 2531 2678 2651 2914 
Q 2772 3150 2772 3378 
Q 2772 3750 2511 3984 
Q 2250 4219 1831 4219 
Q 1534 4219 1204 4116 
Q 875 4013 500 3803 
L 500 4441 
Q 881 4594 1212 4672 
Q 1544 4750 1819 4750 
Q 2544 4750 2975 4387 
Q 3406 4025 3406 3419 
Q 3406 3131 3298 2873 
Q 3191 2616 2906 2266 
Q 2828 2175 2409 1742 
Q 1991 1309 1228 531 
z
" transform="scale(0.015625)"/>
       </defs>
       <use xlink:href="#DejaVuSans-32"/>
       <use xlink:href="#DejaVuSans-30" transform="translate(63.623047 0)"/>
      </g>
     </g>
    </g>
    <g id="xtick_3">
     <g id="line2d_3">
      <g>
       <use xlink:href="#mdfddec7c5a" x="378.671724" y="390.04" style="stroke: #000000; stroke-width: 0.8"/>
      </g>
     </g>
     <g id="text_3">
      <!-- 40 -->
      <g transform="translate(372.309224 404.638438) scale(0.1 -0.1)">
       <defs>
        <path id="DejaVuSans-34" d="M 2419 4116 
L 825 1625 
L 2419 1625 
L 2419 4116 
z
M 2253 4666 
L 3047 4666 
L 3047 1625 
L 3713 1625 
L 3713 1100 
L 3047 1100 
L 3047 0 
L 2419 0 
L 2419 1100 
L 313 1100 
L 313 1709 
L 2253 4666 
z
" transform="scale(0.015625)"/>
       </defs>
       <use xlink:href="#DejaVuSans-34"/>
       <use xlink:href="#DejaVuSans-30" transform="translate(63.623047 0)"/>
      </g>
     </g>
    </g>
    <g id="xtick_4">
     <g id="line2d_4">
      <g>
       <use xlink:href="#mdfddec7c5a" x="524.687327" y="390.04" style="stroke: #000000; stroke-width: 0.8"/>
      </g>
     </g>
     <g id="text_4">
      <!-- 60 -->
      <g transform="translate(518.324827 404.638438) scale(0.1 -0.1)">
       <defs>
        <path id="DejaVuSans-36" d="M 2113 2584 
Q 1688 2584 1439 2293 
Q 1191 2003 1191 1497 
Q 1191 994 1439 701 
Q 1688 409 2113 409 
Q 2538 409 2786 701 
Q 3034 994 3034 1497 
Q 3034 2003 2786 2293 
Q 2538 2584 2113 2584 
z
M 3366 4563 
L 3366 3988 
Q 3128 4100 2886 4159 
Q 2644 4219 2406 4219 
Q 1781 4219 1451 3797 
Q 1122 3375 1075 2522 
Q 1259 2794 1537 2939 
Q 1816 3084 2150 3084 
Q 2853 3084 3261 2657 
Q 3669 2231 3669 1497 
Q 3669 778 3244 343 
Q 2819 -91 2113 -91 
Q 1303 -91 875 529 
Q 447 1150 447 2328 
Q 447 3434 972 4092 
Q 1497 4750 2381 4750 
Q 2619 4750 2861 4703 
Q 3103 4656 3366 4563 
z
" transform="scale(0.015625)"/>
       </defs>
       <use xlink:href="#DejaVuSans-36"/>
       <use xlink:href="#DejaVuSans-30" transform="translate(63.623047 0)"/>
      </g>
     </g>
    </g>
    <g id="xtick_5">
     <g id="line2d_5">
      <g>
       <use xlink:href="#mdfddec7c5a" x="670.70293" y="390.04" style="stroke: #000000; stroke-width: 0.8"/>
      </g>
     </g>
     <g id="text_5">
      <!-- 80 -->
      <g transform="translate(664.34043 404.638438) scale(0.1 -0.1)">
       <defs>
        <path id="DejaVuSans-38" d="M 2034 2216 
Q 1584 2216 1326 1975 
Q 1069 1734 1069 1313 
Q 1069 891 1326 650 
Q 1584 409 2034 409 
Q 2484 409 2743 651 
Q 3003 894 3003 1313 
Q 3003 1734 2745 1975 
Q 2488 2216 2034 2216 
z
M 1403 2484 
Q 997 2584 770 2862 
Q 544 3141 544 3541 
Q 544 4100 942 4425 
Q 1341 4750 2034 4750 
Q 2731 4750 3128 4425 
Q 3525 4100 3525 3541 
Q 3525 3141 3298 2862 
Q 3072 2584 2669 2484 
Q 3125 2378 3379 2068 
Q 3634 1759 3634 1313 
Q 3634 634 3220 271 
Q 2806 -91 2034 -91 
Q 1263 -91 848 271 
Q 434 634 434 1313 
Q 434 1759 690 2068 
Q 947 2378 1403 2484 
z
M 1172 3481 
Q 1172 3119 1398 2916 
Q 1625 2713 2034 2713 
Q 2441 2713 2670 2916 
Q 2900 3119 2900 3481 
Q 2900 3844 2670 4047 
Q 2441 4250 2034 4250 
Q 1625 4250 1398 4047 
Q 1172 3844 1172 3481 
z
" transform="scale(0.015625)"/>
       </defs>
       <use xlink:href="#DejaVuSans-38"/>
       <use xlink:href="#DejaVuSans-30" transform="translate(63.623047 0)"/>
      </g>
     </g>
    </g>
    <g id="xtick_6">
     <g id="line2d_6">
      <g>
       <use xlink:href="#mdfddec7c5a" x="816.718534" y="390.04" style="stroke: #000000; stroke-width: 0.8"/>
      </g>
     </g>
     <g id="text_6">
      <!-- 100 -->
      <g transform="translate(807.174784 404.638438) scale(0.1 -0.1)">
       <defs>
        <path id="DejaVuSans-31" d="M 794 531 
L 1825 531 
L 1825 4091 
L 703 3866 
L 703 4441 
L 1819 4666 
L 2450 4666 
L 2450 531 
L 3481 531 
L 3481 0 
L 794 0 
L 794 531 
z
" transform="scale(0.015625)"/>
       </defs>
       <use xlink:href="#DejaVuSans-31"/>
       <use xlink:href="#DejaVuSans-30" transform="translate(63.623047 0)"/>
       <use xlink:href="#DejaVuSans-30" transform="translate(127.246094 0)"/>
      </g>
     </g>
    </g>
    <g id="text_7">
     <!-- Percentile (%) -->
     <g transform="translate(416.764936 418.316562) scale(0.1 -0.1)">
      <defs>
       <path id="DejaVuSans-50" d="M 1259 4147 
L 1259 2394 
L 2053 2394 
Q 2494 2394 2734 2622 
Q 2975 2850 2975 3272 
Q 2975 3691 2734 3919 
Q 2494 4147 2053 4147 
L 1259 4147 
z
M 628 4666 
L 2053 4666 
Q 2838 4666 3239 4311 
Q 3641 3956 3641 3272 
Q 3641 2581 3239 2228 
Q 2838 1875 2053 1875 
L 1259 1875 
L 1259 0 
L 628 0 
L 628 4666 
z
" transform="scale(0.015625)"/>
       <path id="DejaVuSans-65" d="M 3597 1894 
L 3597 1613 
L 953 1613 
Q 991 1019 1311 708 
Q 1631 397 2203 397 
Q 2534 397 2845 478 
Q 3156 559 3463 722 
L 3463 178 
Q 3153 47 2828 -22 
Q 2503 -91 2169 -91 
Q 1331 -91 842 396 
Q 353 884 353 1716 
Q 353 2575 817 3079 
Q 1281 3584 2069 3584 
Q 2775 3584 3186 3129 
Q 3597 2675 3597 1894 
z
M 3022 2063 
Q 3016 2534 2758 2815 
Q 2500 3097 2075 3097 
Q 1594 3097 1305 2825 
Q 1016 2553 972 2059 
L 3022 2063 
z
" transform="scale(0.015625)"/>
       <path id="DejaVuSans-72" d="M 2631 2963 
Q 2534 3019 2420 3045 
Q 2306 3072 2169 3072 
Q 1681 3072 1420 2755 
Q 1159 2438 1159 1844 
L 1159 0 
L 581 0 
L 581 3500 
L 1159 3500 
L 1159 2956 
Q 1341 3275 1631 3429 
Q 1922 3584 2338 3584 
Q 2397 3584 2469 3576 
Q 2541 3569 2628 3553 
L 2631 2963 
z
" transform="scale(0.015625)"/>
       <path id="DejaVuSans-63" d="M 3122 3366 
L 3122 2828 
Q 2878 2963 2633 3030 
Q 2388 3097 2138 3097 
Q 1578 3097 1268 2742 
Q 959 2388 959 1747 
Q 959 1106 1268 751 
Q 1578 397 2138 397 
Q 2388 397 2633 464 
Q 2878 531 3122 666 
L 3122 134 
Q 2881 22 2623 -34 
Q 2366 -91 2075 -91 
Q 1284 -91 818 406 
Q 353 903 353 1747 
Q 353 2603 823 3093 
Q 1294 3584 2113 3584 
Q 2378 3584 2631 3529 
Q 2884 3475 3122 3366 
z
" transform="scale(0.015625)"/>
       <path id="DejaVuSans-6e" d="M 3513 2113 
L 3513 0 
L 2938 0 
L 2938 2094 
Q 2938 2591 2744 2837 
Q 2550 3084 2163 3084 
Q 1697 3084 1428 2787 
Q 1159 2491 1159 1978 
L 1159 0 
L 581 0 
L 581 3500 
L 1159 3500 
L 1159 2956 
Q 1366 3272 1645 3428 
Q 1925 3584 2291 3584 
Q 2894 3584 3203 3211 
Q 3513 2838 3513 2113 
z
" transform="scale(0.015625)"/>
       <path id="DejaVuSans-74" d="M 1172 4494 
L 1172 3500 
L 2356 3500 
L 2356 3053 
L 1172 3053 
L 1172 1153 
Q 1172 725 1289 603 
Q 1406 481 1766 481 
L 2356 481 
L 2356 0 
L 1766 0 
Q 1100 0 847 248 
Q 594 497 594 1153 
L 594 3053 
L 172 3053 
L 172 3500 
L 594 3500 
L 594 4494 
L 1172 4494 
z
" transform="scale(0.015625)"/>
       <path id="DejaVuSans-69" d="M 603 3500 
L 1178 3500 
L 1178 0 
L 603 0 
L 603 3500 
z
M 603 4863 
L 1178 4863 
L 1178 4134 
L 603 4134 
L 603 4863 
z
" transform="scale(0.015625)"/>
       <path id="DejaVuSans-6c" d="M 603 4863 
L 1178 4863 
L 1178 0 
L 603 0 
L 603 4863 
z
" transform="scale(0.015625)"/>
       <path id="DejaVuSans-20" transform="scale(0.015625)"/>
       <path id="DejaVuSans-28" d="M 1984 4856 
Q 1566 4138 1362 3434 
Q 1159 2731 1159 2009 
Q 1159 1288 1364 580 
Q 1569 -128 1984 -844 
L 1484 -844 
Q 1016 -109 783 600 
Q 550 1309 550 2009 
Q 550 2706 781 3412 
Q 1013 4119 1484 4856 
L 1984 4856 
z
" transform="scale(0.015625)"/>
       <path id="DejaVuSans-25" d="M 4653 2053 
Q 4381 2053 4226 1822 
Q 4072 1591 4072 1178 
Q 4072 772 4226 539 
Q 4381 306 4653 306 
Q 4919 306 5073 539 
Q 5228 772 5228 1178 
Q 5228 1588 5073 1820 
Q 4919 2053 4653 2053 
z
M 4653 2450 
Q 5147 2450 5437 2106 
Q 5728 1763 5728 1178 
Q 5728 594 5436 251 
Q 5144 -91 4653 -91 
Q 4153 -91 3862 251 
Q 3572 594 3572 1178 
Q 3572 1766 3864 2108 
Q 4156 2450 4653 2450 
z
M 1428 4353 
Q 1159 4353 1004 4120 
Q 850 3888 850 3481 
Q 850 3069 1003 2837 
Q 1156 2606 1428 2606 
Q 1700 2606 1854 2837 
Q 2009 3069 2009 3481 
Q 2009 3884 1853 4118 
Q 1697 4353 1428 4353 
z
M 4250 4750 
L 4750 4750 
L 1831 -91 
L 1331 -91 
L 4250 4750 
z
M 1428 4750 
Q 1922 4750 2215 4408 
Q 2509 4066 2509 3481 
Q 2509 2891 2217 2550 
Q 1925 2209 1428 2209 
Q 931 2209 642 2551 
Q 353 2894 353 3481 
Q 353 4063 643 4406 
Q 934 4750 1428 4750 
z
" transform="scale(0.015625)"/>
       <path id="DejaVuSans-29" d="M 513 4856 
L 1013 4856 
Q 1481 4119 1714 3412 
Q 1947 2706 1947 2009 
Q 1947 1309 1714 600 
Q 1481 -109 1013 -844 
L 513 -844 
Q 928 -128 1133 580 
Q 1338 1288 1338 2009 
Q 1338 2731 1133 3434 
Q 928 4138 513 4856 
z
" transform="scale(0.015625)"/>
      </defs>
      <use xlink:href="#DejaVuSans-50"/>
      <use xlink:href="#DejaVuSans-65" transform="translate(56.677734 0)"/>
      <use xlink:href="#DejaVuSans-72" transform="translate(118.201172 0)"/>
      <use xlink:href="#DejaVuSans-63" transform="translate(157.064453 0)"/>
      <use xlink:href="#DejaVuSans-65" transform="translate(212.044922 0)"/>
      <use xlink:href="#DejaVuSans-6e" transform="translate(273.568359 0)"/>
      <use xlink:href="#DejaVuSans-74" transform="translate(336.947266 0)"/>
      <use xlink:href="#DejaVuSans-69" transform="translate(376.15625 0)"/>
      <use xlink:href="#DejaVuSans-6c" transform="translate(403.939453 0)"/>
      <use xlink:href="#DejaVuSans-65" transform="translate(431.722656 0)"/>
      <use xlink:href="#DejaVuSans-20" transform="translate(493.246094 0)"/>
      <use xlink:href="#DejaVuSans-28" transform="translate(525.033203 0)"/>
      <use xlink:href="#DejaVuSans-25" transform="translate(564.046875 0)"/>
      <use xlink:href="#DejaVuSans-29" transform="translate(659.066406 0)"/>
     </g>
    </g>
   </g>
   <g id="matplotlib.axis_2">
    <g id="ytick_1">
     <g id="line2d_7">
      <defs>
       <path id="mfb90447f07" d="M 0 0 
L -3.5 0 
" style="stroke: #000000; stroke-width: 0.8"/>
      </defs>
      <g>
       <use xlink:href="#mfb90447f07" x="50.137685" y="376.602089" style="stroke: #000000; stroke-width: 0.8"/>
      </g>
     </g>
     <g id="text_8">
      <!-- $\mathdefault{10^{1}}$ -->
      <g transform="translate(25.537685 380.401308) scale(0.1 -0.1)">
       <use xlink:href="#DejaVuSans-31" transform="translate(0 0.684375)"/>
       <use xlink:href="#DejaVuSans-30" transform="translate(63.623047 0.684375)"/>
       <use xlink:href="#DejaVuSans-31" transform="translate(128.203125 38.965625) scale(0.7)"/>
      </g>
     </g>
    </g>
    <g id="ytick_2">
     <g id="line2d_8">
      <g>
       <use xlink:href="#mfb90447f07" x="50.137685" y="273.453196" style="stroke: #000000; stroke-width: 0.8"/>
      </g>
     </g>
     <g id="text_9">
      <!-- $\mathdefault{10^{2}}$ -->
      <g transform="translate(25.537685 277.252415) scale(0.1 -0.1)">
       <use xlink:href="#DejaVuSans-31" transform="translate(0 0.765625)"/>
       <use xlink:href="#DejaVuSans-30" transform="translate(63.623047 0.765625)"/>
       <use xlink:href="#DejaVuSans-32" transform="translate(128.203125 39.046875) scale(0.7)"/>
      </g>
     </g>
    </g>
    <g id="ytick_3">
     <g id="line2d_9">
      <g>
       <use xlink:href="#mfb90447f07" x="50.137685" y="170.304303" style="stroke: #000000; stroke-width: 0.8"/>
      </g>
     </g>
     <g id="text_10">
      <!-- $\mathdefault{10^{3}}$ -->
      <g transform="translate(25.537685 174.103522) scale(0.1 -0.1)">
       <defs>
        <path id="DejaVuSans-33" d="M 2597 2516 
Q 3050 2419 3304 2112 
Q 3559 1806 3559 1356 
Q 3559 666 3084 287 
Q 2609 -91 1734 -91 
Q 1441 -91 1130 -33 
Q 819 25 488 141 
L 488 750 
Q 750 597 1062 519 
Q 1375 441 1716 441 
Q 2309 441 2620 675 
Q 2931 909 2931 1356 
Q 2931 1769 2642 2001 
Q 2353 2234 1838 2234 
L 1294 2234 
L 1294 2753 
L 1863 2753 
Q 2328 2753 2575 2939 
Q 2822 3125 2822 3475 
Q 2822 3834 2567 4026 
Q 2313 4219 1838 4219 
Q 1578 4219 1281 4162 
Q 984 4106 628 3988 
L 628 4550 
Q 988 4650 1302 4700 
Q 1616 4750 1894 4750 
Q 2613 4750 3031 4423 
Q 3450 4097 3450 3541 
Q 3450 3153 3228 2886 
Q 3006 2619 2597 2516 
z
" transform="scale(0.015625)"/>
       </defs>
       <use xlink:href="#DejaVuSans-31" transform="translate(0 0.765625)"/>
       <use xlink:href="#DejaVuSans-30" transform="translate(63.623047 0.765625)"/>
       <use xlink:href="#DejaVuSans-33" transform="translate(128.203125 39.046875) scale(0.7)"/>
      </g>
     </g>
    </g>
    <g id="ytick_4">
     <g id="line2d_10">
      <g>
       <use xlink:href="#mfb90447f07" x="50.137685" y="67.155411" style="stroke: #000000; stroke-width: 0.8"/>
      </g>
     </g>
     <g id="text_11">
      <!-- $\mathdefault{10^{4}}$ -->
      <g transform="translate(25.537685 70.954629) scale(0.1 -0.1)">
       <use xlink:href="#DejaVuSans-31" transform="translate(0 0.684375)"/>
       <use xlink:href="#DejaVuSans-30" transform="translate(63.623047 0.684375)"/>
       <use xlink:href="#DejaVuSans-34" transform="translate(128.203125 38.965625) scale(0.7)"/>
      </g>
     </g>
    </g>
    <g id="ytick_5">
     <g id="line2d_11">
      <defs>
       <path id="m4cbb8ec406" d="M 0 0 
L -2 0 
" style="stroke: #000000; stroke-width: 0.6"/>
      </defs>
      <g>
       <use xlink:href="#m4cbb8ec406" x="50.137685" y="386.59825" style="stroke: #000000; stroke-width: 0.6"/>
      </g>
     </g>
    </g>
    <g id="ytick_6">
     <g id="line2d_12">
      <g>
       <use xlink:href="#m4cbb8ec406" x="50.137685" y="381.321924" style="stroke: #000000; stroke-width: 0.6"/>
      </g>
     </g>
    </g>
    <g id="ytick_7">
     <g id="line2d_13">
      <g>
       <use xlink:href="#m4cbb8ec406" x="50.137685" y="345.551178" style="stroke: #000000; stroke-width: 0.6"/>
      </g>
     </g>
    </g>
    <g id="ytick_8">
     <g id="line2d_14">
      <g>
       <use xlink:href="#m4cbb8ec406" x="50.137685" y="327.38756" style="stroke: #000000; stroke-width: 0.6"/>
      </g>
     </g>
    </g>
    <g id="ytick_9">
     <g id="line2d_15">
      <g>
       <use xlink:href="#m4cbb8ec406" x="50.137685" y="314.500268" style="stroke: #000000; stroke-width: 0.6"/>
      </g>
     </g>
    </g>
    <g id="ytick_10">
     <g id="line2d_16">
      <g>
       <use xlink:href="#m4cbb8ec406" x="50.137685" y="304.504107" style="stroke: #000000; stroke-width: 0.6"/>
      </g>
     </g>
    </g>
    <g id="ytick_11">
     <g id="line2d_17">
      <g>
       <use xlink:href="#m4cbb8ec406" x="50.137685" y="296.336649" style="stroke: #000000; stroke-width: 0.6"/>
      </g>
     </g>
    </g>
    <g id="ytick_12">
     <g id="line2d_18">
      <g>
       <use xlink:href="#m4cbb8ec406" x="50.137685" y="289.431162" style="stroke: #000000; stroke-width: 0.6"/>
      </g>
     </g>
    </g>
    <g id="ytick_13">
     <g id="line2d_19">
      <g>
       <use xlink:href="#m4cbb8ec406" x="50.137685" y="283.449357" style="stroke: #000000; stroke-width: 0.6"/>
      </g>
     </g>
    </g>
    <g id="ytick_14">
     <g id="line2d_20">
      <g>
       <use xlink:href="#m4cbb8ec406" x="50.137685" y="278.173031" style="stroke: #000000; stroke-width: 0.6"/>
      </g>
     </g>
    </g>
    <g id="ytick_15">
     <g id="line2d_21">
      <g>
       <use xlink:href="#m4cbb8ec406" x="50.137685" y="242.402285" style="stroke: #000000; stroke-width: 0.6"/>
      </g>
     </g>
    </g>
    <g id="ytick_16">
     <g id="line2d_22">
      <g>
       <use xlink:href="#m4cbb8ec406" x="50.137685" y="224.238667" style="stroke: #000000; stroke-width: 0.6"/>
      </g>
     </g>
    </g>
    <g id="ytick_17">
     <g id="line2d_23">
      <g>
       <use xlink:href="#m4cbb8ec406" x="50.137685" y="211.351375" style="stroke: #000000; stroke-width: 0.6"/>
      </g>
     </g>
    </g>
    <g id="ytick_18">
     <g id="line2d_24">
      <g>
       <use xlink:href="#m4cbb8ec406" x="50.137685" y="201.355214" style="stroke: #000000; stroke-width: 0.6"/>
      </g>
     </g>
    </g>
    <g id="ytick_19">
     <g id="line2d_25">
      <g>
       <use xlink:href="#m4cbb8ec406" x="50.137685" y="193.187756" style="stroke: #000000; stroke-width: 0.6"/>
      </g>
     </g>
    </g>
    <g id="ytick_20">
     <g id="line2d_26">
      <g>
       <use xlink:href="#m4cbb8ec406" x="50.137685" y="186.282269" style="stroke: #000000; stroke-width: 0.6"/>
      </g>
     </g>
    </g>
    <g id="ytick_21">
     <g id="line2d_27">
      <g>
       <use xlink:href="#m4cbb8ec406" x="50.137685" y="180.300464" style="stroke: #000000; stroke-width: 0.6"/>
      </g>
     </g>
    </g>
    <g id="ytick_22">
     <g id="line2d_28">
      <g>
       <use xlink:href="#m4cbb8ec406" x="50.137685" y="175.024138" style="stroke: #000000; stroke-width: 0.6"/>
      </g>
     </g>
    </g>
    <g id="ytick_23">
     <g id="line2d_29">
      <g>
       <use xlink:href="#m4cbb8ec406" x="50.137685" y="139.253393" style="stroke: #000000; stroke-width: 0.6"/>
      </g>
     </g>
    </g>
    <g id="ytick_24">
     <g id="line2d_30">
      <g>
       <use xlink:href="#m4cbb8ec406" x="50.137685" y="121.089774" style="stroke: #000000; stroke-width: 0.6"/>
      </g>
     </g>
    </g>
    <g id="ytick_25">
     <g id="line2d_31">
      <g>
       <use xlink:href="#m4cbb8ec406" x="50.137685" y="108.202482" style="stroke: #000000; stroke-width: 0.6"/>
      </g>
     </g>
    </g>
    <g id="ytick_26">
     <g id="line2d_32">
      <g>
       <use xlink:href="#m4cbb8ec406" x="50.137685" y="98.206321" style="stroke: #000000; stroke-width: 0.6"/>
      </g>
     </g>
    </g>
    <g id="ytick_27">
     <g id="line2d_33">
      <g>
       <use xlink:href="#m4cbb8ec406" x="50.137685" y="90.038863" style="stroke: #000000; stroke-width: 0.6"/>
      </g>
     </g>
    </g>
    <g id="ytick_28">
     <g id="line2d_34">
      <g>
       <use xlink:href="#m4cbb8ec406" x="50.137685" y="83.133376" style="stroke: #000000; stroke-width: 0.6"/>
      </g>
     </g>
    </g>
    <g id="ytick_29">
     <g id="line2d_35">
      <g>
       <use xlink:href="#m4cbb8ec406" x="50.137685" y="77.151571" style="stroke: #000000; stroke-width: 0.6"/>
      </g>
     </g>
    </g>
    <g id="ytick_30">
     <g id="line2d_36">
      <g>
       <use xlink:href="#m4cbb8ec406" x="50.137685" y="71.875245" style="stroke: #000000; stroke-width: 0.6"/>
      </g>
     </g>
    </g>
    <g id="text_12">
     <!-- Duration (ms) -->
     <g transform="translate(19.457997 250.62925) rotate(-90) scale(0.1 -0.1)">
      <defs>
       <path id="DejaVuSans-44" d="M 1259 4147 
L 1259 519 
L 2022 519 
Q 2988 519 3436 956 
Q 3884 1394 3884 2338 
Q 3884 3275 3436 3711 
Q 2988 4147 2022 4147 
L 1259 4147 
z
M 628 4666 
L 1925 4666 
Q 3281 4666 3915 4102 
Q 4550 3538 4550 2338 
Q 4550 1131 3912 565 
Q 3275 0 1925 0 
L 628 0 
L 628 4666 
z
" transform="scale(0.015625)"/>
       <path id="DejaVuSans-75" d="M 544 1381 
L 544 3500 
L 1119 3500 
L 1119 1403 
Q 1119 906 1312 657 
Q 1506 409 1894 409 
Q 2359 409 2629 706 
Q 2900 1003 2900 1516 
L 2900 3500 
L 3475 3500 
L 3475 0 
L 2900 0 
L 2900 538 
Q 2691 219 2414 64 
Q 2138 -91 1772 -91 
Q 1169 -91 856 284 
Q 544 659 544 1381 
z
M 1991 3584 
L 1991 3584 
z
" transform="scale(0.015625)"/>
       <path id="DejaVuSans-61" d="M 2194 1759 
Q 1497 1759 1228 1600 
Q 959 1441 959 1056 
Q 959 750 1161 570 
Q 1363 391 1709 391 
Q 2188 391 2477 730 
Q 2766 1069 2766 1631 
L 2766 1759 
L 2194 1759 
z
M 3341 1997 
L 3341 0 
L 2766 0 
L 2766 531 
Q 2569 213 2275 61 
Q 1981 -91 1556 -91 
Q 1019 -91 701 211 
Q 384 513 384 1019 
Q 384 1609 779 1909 
Q 1175 2209 1959 2209 
L 2766 2209 
L 2766 2266 
Q 2766 2663 2505 2880 
Q 2244 3097 1772 3097 
Q 1472 3097 1187 3025 
Q 903 2953 641 2809 
L 641 3341 
Q 956 3463 1253 3523 
Q 1550 3584 1831 3584 
Q 2591 3584 2966 3190 
Q 3341 2797 3341 1997 
z
" transform="scale(0.015625)"/>
       <path id="DejaVuSans-6f" d="M 1959 3097 
Q 1497 3097 1228 2736 
Q 959 2375 959 1747 
Q 959 1119 1226 758 
Q 1494 397 1959 397 
Q 2419 397 2687 759 
Q 2956 1122 2956 1747 
Q 2956 2369 2687 2733 
Q 2419 3097 1959 3097 
z
M 1959 3584 
Q 2709 3584 3137 3096 
Q 3566 2609 3566 1747 
Q 3566 888 3137 398 
Q 2709 -91 1959 -91 
Q 1206 -91 779 398 
Q 353 888 353 1747 
Q 353 2609 779 3096 
Q 1206 3584 1959 3584 
z
" transform="scale(0.015625)"/>
       <path id="DejaVuSans-6d" d="M 3328 2828 
Q 3544 3216 3844 3400 
Q 4144 3584 4550 3584 
Q 5097 3584 5394 3201 
Q 5691 2819 5691 2113 
L 5691 0 
L 5113 0 
L 5113 2094 
Q 5113 2597 4934 2840 
Q 4756 3084 4391 3084 
Q 3944 3084 3684 2787 
Q 3425 2491 3425 1978 
L 3425 0 
L 2847 0 
L 2847 2094 
Q 2847 2600 2669 2842 
Q 2491 3084 2119 3084 
Q 1678 3084 1418 2786 
Q 1159 2488 1159 1978 
L 1159 0 
L 581 0 
L 581 3500 
L 1159 3500 
L 1159 2956 
Q 1356 3278 1631 3431 
Q 1906 3584 2284 3584 
Q 2666 3584 2933 3390 
Q 3200 3197 3328 2828 
z
" transform="scale(0.015625)"/>
       <path id="DejaVuSans-73" d="M 2834 3397 
L 2834 2853 
Q 2591 2978 2328 3040 
Q 2066 3103 1784 3103 
Q 1356 3103 1142 2972 
Q 928 2841 928 2578 
Q 928 2378 1081 2264 
Q 1234 2150 1697 2047 
L 1894 2003 
Q 2506 1872 2764 1633 
Q 3022 1394 3022 966 
Q 3022 478 2636 193 
Q 2250 -91 1575 -91 
Q 1294 -91 989 -36 
Q 684 19 347 128 
L 347 722 
Q 666 556 975 473 
Q 1284 391 1588 391 
Q 1994 391 2212 530 
Q 2431 669 2431 922 
Q 2431 1156 2273 1281 
Q 2116 1406 1581 1522 
L 1381 1569 
Q 847 1681 609 1914 
Q 372 2147 372 2553 
Q 372 3047 722 3315 
Q 1072 3584 1716 3584 
Q 2034 3584 2315 3537 
Q 2597 3491 2834 3397 
z
" transform="scale(0.015625)"/>
      </defs>
      <use xlink:href="#DejaVuSans-44"/>
      <use xlink:href="#DejaVuSans-75" transform="translate(77.001953 0)"/>
      <use xlink:href="#DejaVuSans-72" transform="translate(140.380859 0)"/>
      <use xlink:href="#DejaVuSans-61" transform="translate(181.494141 0)"/>
      <use xlink:href="#DejaVuSans-74" transform="translate(242.773438 0)"/>
      <use xlink:href="#DejaVuSans-69" transform="translate(281.982422 0)"/>
      <use xlink:href="#DejaVuSans-6f" transform="translate(309.765625 0)"/>
      <use xlink:href="#DejaVuSans-6e" transform="translate(370.947266 0)"/>
      <use xlink:href="#DejaVuSans-20" transform="translate(434.326172 0)"/>
      <use xlink:href="#DejaVuSans-28" transform="translate(466.113281 0)"/>
      <use xlink:href="#DejaVuSans-6d" transform="translate(505.126953 0)"/>
      <use xlink:href="#DejaVuSans-73" transform="translate(602.539062 0)"/>
      <use xlink:href="#DejaVuSans-29" transform="translate(654.638672 0)"/>
     </g>
    </g>
   </g>
   <g id="line2d_37">
    <path d="M 86.640517 365.343679 
L 86.854178 364.846381 
L 87.409695 364.337322 
L 87.537891 364.194828 
L 88.200239 363.597135 
L 93.456288 362.82811 
L 96.105679 362.651243 
L 99.18239 362.434246 
L 103.34877 362.187842 
L 103.647895 362.1743 
L 112.856664 361.68425 
L 114.672778 361.564608 
L 115.228296 361.529518 
L 117.621294 361.375182 
L 127.876999 360.241482 
L 128.347052 360.108271 
L 128.859837 359.98333 
L 131.359665 359.175194 
L 136.679812 357.881156 
L 136.893473 357.840692 
L 139.115542 357.208271 
L 139.286471 357.143266 
L 139.820622 356.96747 
L 140.034283 356.897168 
L 142.640941 355.943266 
L 143.089628 355.668541 
L 143.751976 355.371303 
L 143.922904 355.268716 
L 144.157931 355.1655 
L 144.499788 355.047047 
L 145.290332 354.757172 
L 145.632188 354.564036 
L 146.123608 354.424809 
L 146.358634 354.338899 
L 147.106446 354.086619 
L 147.832892 353.854255 
L 148.409775 353.644518 
L 150.140426 353.066807 
L 151.016434 352.825217 
L 151.593317 352.708279 
L 152.042004 352.583403 
L 154.029047 351.919111 
L 160.310667 350.202369 
L 160.99438 350.047029 
L 161.69946 349.906289 
L 162.319075 349.778206 
L 162.575468 349.668151 
L 163.045521 349.527407 
L 163.472842 349.43368 
L 164.006994 349.297279 
L 165.823108 348.932314 
L 166.699116 348.810384 
L 168.173374 348.552026 
L 169.882658 348.273966 
L 170.074953 348.223381 
L 170.673202 348.118218 
L 172.596147 347.814806 
L 173.27986 347.731935 
L 174.476359 347.563088 
L 175.074609 347.435356 
L 176.228376 347.257701 
L 178.258151 346.967876 
L 179.56148 346.786058 
L 179.796506 346.739695 
L 180.864809 346.583601 
L 181.719451 346.442609 
L 183.62103 346.104696 
L 184.304744 346.005623 
L 188.407026 345.198126 
L 188.620686 345.135171 
L 189.51806 344.98035 
L 190.052212 344.910868 
L 191.419639 344.690092 
L 192.060621 344.555489 
L 194.090396 344.185048 
L 194.28269 344.127195 
L 195.030502 343.960167 
L 195.69285 343.784698 
L 196.205635 343.638557 
L 196.61159 343.559356 
L 197.145741 343.449227 
L 197.722625 343.330561 
L 198.214044 343.198081 
L 198.983222 343.041599 
L 199.474641 342.853205 
L 200.008792 342.749256 
L 200.243819 342.690348 
L 200.863434 342.580581 
L 201.162559 342.454105 
L 201.69671 342.347155 
L 202.337692 342.214883 
L 203.085504 342.078107 
L 203.555557 341.945677 
L 206.525438 341.372756 
L 206.824563 341.307613 
L 207.38008 341.199279 
L 207.572375 341.157007 
L 208.298821 341.020731 
L 209.153463 340.859952 
L 209.944007 340.689551 
L 210.136301 340.628869 
L 210.606354 340.513404 
L 211.22597 340.400719 
L 213.448039 339.925831 
L 213.704432 339.869312 
L 218.212669 338.986582 
L 218.810918 338.867397 
L 219.088677 338.836337 
L 219.815123 338.684077 
L 222.635442 338.248467 
L 223.596914 338.110316 
L 224.21653 337.997583 
L 225.327564 337.802455 
L 225.84035 337.743673 
L 227.699196 337.517971 
L 228.041053 337.470243 
L 232.33563 336.995535 
L 233.873986 336.872177 
L 242.954558 336.199797 
L 245.304824 336.037231 
L 259.855105 335.066987 
L 262.803621 334.818502 
L 265.474377 334.611221 
L 266.243555 334.547429 
L 270.474034 334.141211 
L 272.268782 333.955608 
L 273.871236 333.787386 
L 274.277191 333.731586 
L 275.281395 333.617875 
L 276.242868 333.49169 
L 277.161608 333.364756 
L 279.64007 333.088986 
L 280.708373 332.9442 
L 281.114328 332.878743 
L 283.379129 332.510457 
L 283.763718 332.443334 
L 284.426066 332.320412 
L 287.887366 331.658308 
L 288.250589 331.586095 
L 288.934303 331.44687 
L 289.553919 331.338221 
L 290.344462 331.1975 
L 290.600855 331.140046 
L 291.370033 331.000751 
L 292.224675 330.74257 
L 292.41697 330.690944 
L 294.788601 330.208798 
L 295.66461 330.02002 
L 295.899636 329.961783 
L 296.47652 329.806819 
L 297.673018 329.4446 
L 305.065673 326.808653 
L 305.236601 326.688211 
L 309.125223 325.266523 
L 309.317517 325.180103 
L 310.449918 324.809738 
L 311.710515 324.256662 
L 312.031006 324.073539 
L 312.287398 323.943284 
L 312.650621 323.801084 
L 312.949746 323.62827 
L 313.377067 323.456045 
L 316.111922 322.067629 
L 316.496511 321.936537 
L 316.710171 321.879473 
L 320.043276 320.159648 
L 320.214204 320.026883 
L 320.620159 319.841798 
L 321.068846 319.578223 
L 321.389337 319.375205 
L 322.308077 318.934897 
L 322.457639 318.829157 
L 326.346261 317.259919 
L 326.538556 317.141235 
L 326.901778 317.029177 
L 327.094073 316.92143 
L 328.760625 316.205787 
L 329.337508 316.015946 
L 329.679365 315.859723 
L 330.854498 315.330274 
L 331.046793 315.183048 
L 331.516846 314.999223 
L 331.70914 314.885192 
L 333.610719 313.921919 
L 333.845745 313.831333 
L 334.379897 313.588179 
L 340.917909 310.569011 
L 341.45206 310.374132 
L 341.964845 310.136118 
L 342.306702 309.993352 
L 342.477631 309.900939 
L 348.246465 308.179782 
L 348.502858 308.111918 
L 348.823348 307.99762 
L 348.994277 307.920055 
L 349.378866 307.748719 
L 349.656624 307.617676 
L 349.934383 307.517197 
L 350.340338 307.381389 
L 350.596731 307.261775 
L 351.622301 306.888654 
L 352.199185 306.734794 
L 353.288853 306.326193 
L 358.138947 304.629086 
L 358.459438 304.506156 
L 358.908125 304.392894 
L 359.570473 304.087498 
L 359.890964 303.980184 
L 361.04473 303.484829 
L 361.258391 303.360967 
L 361.514784 303.235024 
L 362.882211 302.450547 
L 363.15997 302.3548 
L 363.459094 302.208885 
L 363.694121 302.074069 
L 363.886415 301.913742 
L 364.441933 301.692159 
L 366.023021 300.602394 
L 366.279413 300.45132 
L 366.578538 300.268413 
L 366.877663 300.071216 
L 367.668207 299.482846 
L 367.881867 299.371383 
L 368.095528 299.156544 
L 368.458751 298.944757 
L 368.864706 298.520219 
L 373.308845 295.673842 
L 373.543871 295.569441 
L 373.736166 295.515036 
L 374.248951 295.392871 
L 374.52671 295.25307 
L 376.492386 294.5468 
L 377.667519 293.639125 
L 377.817082 293.487162 
L 378.09484 293.295307 
L 378.265769 293.193727 
L 378.500795 293.074587 
L 378.69309 292.916137 
L 378.885384 292.78822 
L 379.462268 292.287306 
L 379.761392 292.063011 
L 380.680133 291.311516 
L 380.744231 291.203162 
L 380.936525 290.990829 
L 381.513409 290.511767 
L 381.705703 290.380576 
L 382.239855 289.973954 
L 382.624444 289.759218 
L 382.816738 289.62857 
L 383.350889 289.402533 
L 385.380664 288.694936 
L 385.89345 288.535661 
L 387.773662 287.829852 
L 388.136885 287.628281 
L 388.350546 287.496141 
L 388.64967 287.373867 
L 389.333384 287.09098 
L 389.568411 286.878519 
L 389.974366 286.624668 
L 390.123928 286.447552 
L 392.004141 284.859436 
L 392.559658 284.690534 
L 392.794685 284.557351 
L 393.222006 284.399282 
L 393.457032 284.307257 
L 394.888558 283.58797 
L 397.025163 282.584511 
L 397.281556 282.469136 
L 398.050733 282.084643 
L 398.243028 281.932007 
L 398.456688 281.828318 
L 398.627617 281.662441 
L 398.99084 281.513388 
L 399.033572 281.423419 
L 399.268598 281.220651 
L 400.871052 279.950191 
L 401.084713 279.720459 
L 401.127445 279.695694 
L 401.298373 279.415262 
L 401.383838 279.302607 
L 403.434979 277.571666 
L 403.605907 277.391121 
L 403.819568 277.269345 
L 405.827977 276.340343 
L 405.998905 276.260834 
L 406.533056 275.864937 
L 407.3236 274.833174 
L 407.750921 274.457165 
L 407.943216 274.213875 
L 408.007314 274.146426 
L 408.199608 273.919167 
L 408.477367 273.584931 
L 408.819224 273.332805 
L 409.011518 273.15565 
L 410.165285 272.435012 
L 410.378946 272.13548 
L 410.998561 271.728984 
L 411.148124 271.603909 
L 411.425882 271.424595 
L 411.746373 271.065088 
L 412.002766 270.734074 
L 412.344623 270.420459 
L 412.472819 270.314549 
L 412.878774 269.774489 
L 412.964238 269.656532 
L 413.135167 269.369872 
L 414.053907 268.749824 
L 415.186308 267.943985 
L 415.805923 267.235105 
L 416.062316 267.114257 
L 416.318708 266.847489 
L 416.468271 266.67882 
L 416.703297 266.501541 
L 416.788762 266.417139 
L 417.023788 266.058714 
L 417.130618 265.949262 
L 417.344279 265.758751 
L 418.455314 264.648805 
L 418.498046 264.605349 
L 418.69034 264.349142 
L 419.352688 263.88802 
L 419.609081 263.722769 
L 420.591919 263.187581 
L 420.784213 263.090792 
L 420.976508 262.89095 
L 421.446561 262.531451 
L 421.681588 262.32576 
L 421.980712 262.12693 
L 422.151641 261.984431 
L 422.386667 261.836745 
L 422.664426 261.607598 
L 422.835354 261.466559 
L 423.305408 261.026857 
L 423.476336 260.900568 
L 423.625898 260.574253 
L 423.903657 260.430446 
L 424.587371 259.976968 
L 426.189825 259.375372 
L 426.339387 259.232283 
L 427.386324 258.429916 
L 427.599984 258.292878 
L 427.770913 258.136651 
L 428.2196 257.685802 
L 428.454626 257.395848 
L 428.668287 257.246667 
L 429.095608 256.984076 
L 429.864786 256.256639 
L 430.014348 256.022111 
L 431.851829 255.071378 
L 432.044123 254.959046 
L 433.347452 254.105499 
L 433.603845 253.980993 
L 433.967068 253.760372 
L 434.11663 253.623004 
L 434.479853 253.418236 
L 434.82171 253.305156 
L 435.484058 253.048107 
L 437.086512 252.408556 
L 437.25744 252.261959 
L 440.71874 250.855113 
L 442.043436 250.482179 
L 442.23573 250.389397 
L 442.534855 250.273463 
L 442.769881 250.141573 
L 443.517693 249.974602 
L 446.743967 248.486879 
L 447.10719 248.368937 
L 447.299485 248.256766 
L 447.769538 248.029498 
L 454.863067 245.557753 
L 455.033996 245.426255 
L 455.33312 245.2341 
L 455.525415 245.153522 
L 455.910004 244.980326 
L 456.294593 244.828354 
L 456.679182 244.658865 
L 456.871476 244.556252 
L 458.067975 244.131561 
L 458.196171 244.037553 
L 458.452564 243.914778 
L 465.396531 241.238743 
L 465.588826 241.056836 
L 465.78112 240.873733 
L 465.930682 240.763641 
L 466.229807 240.64221 
L 467.063083 240.334392 
L 470.203893 239.072628 
L 470.780776 238.872982 
L 471.122633 238.762274 
L 471.549954 238.557537 
L 472.2764 238.225121 
L 474.156613 237.535431 
L 474.754862 237.418877 
L 475.374478 237.242634 
L 475.694968 237.090579 
L 475.929995 236.977682 
L 476.100923 236.859342 
L 476.44278 236.710524 
L 476.613709 236.620521 
L 477.04103 236.480284 
L 480.331402 235.290003 
L 480.50233 235.122309 
L 483.108989 234.041636 
L 487.104441 233.109599 
L 487.424931 232.933188 
L 487.638592 232.817854 
L 488.386404 232.478302 
L 489.582903 232.223283 
L 496.484138 229.90781 
L 497.274682 229.743825 
L 500.180465 228.989713 
L 500.372759 228.910153 
L 500.565054 228.800063 
L 501.163303 228.536419 
L 501.376964 228.473742 
L 501.932481 228.311246 
L 502.4239 228.149833 
L 502.936686 227.954573 
L 503.193078 227.8298 
L 503.791328 227.652956 
L 505.137389 227.061487 
L 505.628808 226.935721 
L 506.37662 226.628942 
L 506.996236 226.498033 
L 508.256833 226.191694 
L 510.158411 225.926481 
L 510.372072 225.852192 
L 512.850534 225.181411 
L 513.064194 225.044137 
L 513.940203 224.816368 
L 514.260693 224.683486 
L 514.901675 224.48432 
L 517.166477 223.665032 
L 518.256145 223.52519 
L 520.243188 223.308946 
L 529.793814 222.672084 
L 530.221135 222.436671 
L 534.08839 221.201756 
L 534.323417 221.153303 
L 534.814836 221.000026 
L 535.028496 220.950181 
L 535.648112 220.790525 
L 536.075433 220.624078 
L 539.622198 219.650302 
L 540.818697 219.356183 
L 543.083498 218.712818 
L 543.339891 218.625359 
L 544.664586 218.256349 
L 544.856881 218.197915 
L 546.608897 217.846978 
L 547.271245 217.6863 
L 547.655834 217.537613 
L 547.869494 217.44092 
L 548.360913 217.332023 
L 549.51468 217.211155 
L 553.104177 216.859862 
L 553.873355 216.697509 
L 554.663899 216.570873 
L 556.052692 216.362313 
L 556.843236 216.211926 
L 557.868807 216.051698 
L 559.428529 215.712308 
L 559.770385 215.646782 
L 560.454099 215.500313 
L 560.710492 215.455596 
L 561.266009 215.376172 
L 577.098254 212.704108 
L 577.311915 212.619203 
L 578.252021 212.305891 
L 579.298957 212.072116 
L 579.683546 211.867526 
L 581.350098 211.544348 
L 582.375669 211.158702 
L 583.465338 210.93219 
L 583.636266 210.819549 
L 584.790033 210.573689 
L 584.939595 210.529487 
L 585.687407 210.38834 
L 585.922434 210.346791 
L 591.071652 209.314561 
L 591.904928 209.172829 
L 592.396348 209.102026 
L 594.682515 208.824407 
L 594.917542 208.776376 
L 595.494425 208.65504 
L 595.814916 208.578954 
L 599.404413 207.567244 
L 599.74627 207.399402 
L 600.622278 207.186977 
L 601.412822 206.859921 
L 601.882875 206.746093 
L 602.117902 206.557756 
L 602.758883 206.313917 
L 602.972544 206.148106 
L 603.634891 206.033662 
L 604.425435 205.896029 
L 605.451006 205.733986 
L 605.600568 205.624944 
L 608.121762 205.022571 
L 608.335423 204.892384 
L 609.48919 204.630952 
L 609.745582 204.558312 
L 610.771153 204.399161 
L 611.796723 204.008899 
L 612.437705 203.864895 
L 613.185517 203.747484 
L 613.698302 203.679188 
L 614.852069 203.483642 
L 618.313369 202.818115 
L 619.531234 202.677526 
L 620.086752 202.495361 
L 621.17642 202.287349 
L 623.29166 202.026368 
L 624.31723 201.823232 
L 625.599193 201.646443 
L 625.983782 201.583546 
L 629.658743 201.215207 
L 631.068903 201.085941 
L 632.201304 200.85155 
L 633.205508 200.475325 
L 634.252445 200.224265 
L 634.487471 200.118173 
L 635.534408 199.855834 
L 635.748068 199.799535 
L 638.589753 199.261873 
L 639.230735 199.150681 
L 639.444395 199.089626 
L 640.064011 198.975423 
L 640.405868 198.93786 
L 645.661917 198.193499 
L 646.559291 198.073112 
L 649.336878 197.703806 
L 654.336534 196.6559 
L 654.657025 196.584924 
L 655.639863 196.446048 
L 656.109916 196.402881 
L 658.011495 196.201591 
L 658.887503 196.017386 
L 661.729188 195.500693 
L 663.630767 195.333731 
L 665.01956 195.232936 
L 672.11309 194.101138 
L 672.284018 193.962241 
L 672.946366 193.828802 
L 674.463356 193.672265 
L 675.702587 193.559212 
L 682.197867 193.009535 
L 684.078079 192.815098 
L 684.355838 192.781907 
L 685.338676 192.657846 
L 686.278783 192.532229 
L 687.432549 192.335364 
L 688.158995 192.235842 
L 693.585973 191.547236 
L 694.547445 191.398525 
L 701.256385 190.321871 
L 701.55551 190.219594 
L 702.26059 190.138637 
L 703.435723 189.999247 
L 703.863044 189.927861 
L 708.15762 189.533185 
L 708.713138 189.438495 
L 709.311387 189.310005 
L 714.097383 188.825448 
L 716.447649 188.684041 
L 717.986005 188.492422 
L 722.750634 187.942182 
L 723.199321 187.885728 
L 723.541178 187.768538 
L 723.840303 187.697498 
L 725.20773 187.576316 
L 725.464123 187.523205 
L 727.493898 187.330014 
L 728.476736 187.213407 
L 729.074986 187.100612 
L 730.335583 186.980198 
L 730.698806 186.937771 
L 738.454683 186.059781 
L 739.202495 185.909613 
L 740.270797 185.748806 
L 740.52719 185.676834 
L 742.193742 185.51122 
L 745.655043 185.022507 
L 746.231926 184.934421 
L 750.312842 184.488705 
L 752.193055 184.305004 
L 753.325456 184.197359 
L 754.351026 184.058481 
L 761.230895 183.057231 
L 761.508654 183.009542 
L 762.256466 182.899596 
L 763.111108 182.613381 
L 763.816187 182.454189 
L 764.286241 182.367819 
L 766.209185 182.178034 
L 768.559451 181.987009 
L 768.879942 181.948052 
L 770.631958 181.806579 
L 774.499214 181.275203 
L 774.990633 181.123364 
L 775.631614 180.994026 
L 776.486257 180.756762 
L 778.494665 180.567691 
L 779.904825 180.40204 
L 781.101324 180.08715 
L 781.250886 180.033839 
L 782.917438 179.745767 
L 785.011312 179.566464 
L 786.336007 179.322121 
L 789.113594 178.84343 
L 789.34862 178.727962 
L 789.968236 178.613651 
L 790.117798 178.559322 
L 790.523753 178.505848 
L 791.271565 178.389437 
L 792.104841 178.194141 
L 792.254403 178.104854 
L 792.831287 177.939466 
L 793.386804 177.859036 
L 794.668767 177.672313 
L 795.202919 177.573026 
L 796.506248 177.395692 
L 797.382256 177.153724 
L 797.595916 177.027715 
L 798.258264 176.782777 
L 798.322362 176.673883 
L 799.134272 176.281809 
L 799.412031 176.185667 
L 799.561593 176.104607 
L 800.651262 175.944828 
L 800.800824 175.817228 
L 801.078583 175.680122 
L 802.104154 174.977349 
L 802.381912 174.882685 
L 802.574207 174.72559 
L 803.001528 174.616538 
L 803.25792 174.433437 
L 803.813438 174.282461 
L 805.266329 174.034352 
L 805.608186 173.793396 
L 806.462828 172.791714 
L 806.890149 172.091251 
L 807.146542 171.952721 
L 807.360203 171.437908 
L 807.509765 171.286863 
L 807.702059 171.150616 
L 807.830256 171.095351 
L 808.02255 170.764665 
L 808.962656 170.196061 
L 809.197683 169.541464 
L 809.325879 169.244849 
L 809.411344 169.114075 
L 809.625004 168.713022 
L 809.817299 168.315681 
L 809.860031 168.306667 
L 810.073691 167.547555 
L 810.24462 167.398675 
L 810.501012 166.173771 
L 810.543744 166.057912 
L 811.97527 158.724955 
L 812.124832 157.480662 
L 812.466689 156.328966 
L 812.829912 153.813522 
L 813.00084 153.280755 
L 813.086305 151.91836 
L 813.406795 149.816413 
L 813.449527 149.646418 
L 813.59909 148.729608 
L 813.727286 148.039977 
L 813.876849 147.289568 
L 813.919581 147.155993 
L 814.069143 145.622908 
L 815.051981 133.035566 
L 815.11608 132.790126 
L 815.265642 131.84238 
L 815.671597 122.305419 
L 816.184382 101.807418 
L 816.462141 93.375532 
L 816.654435 80.710077 
L 816.697167 57.682545 
L 816.697167 57.682545 
" clip-path="url(#p2e4882fd82)" style="fill: none; stroke: #1f77b4; stroke-width: 1.5; stroke-linecap: square"/>
   </g>
   <g id="line2d_38">
    <path d="M 86.640517 364.816968 
L 87.127723 364.272568 
L 87.371326 364.126357 
L 87.614929 363.690298 
L 88.345738 363.432925 
L 89.076547 363.36405 
L 90.538164 363.121467 
L 94.923017 362.9711 
L 95.897429 362.871407 
L 122.45015 362.002821 
L 185.299709 360.528372 
L 186.517723 360.404706 
L 189.684562 360.286484 
L 200.403091 359.685771 
L 200.890297 359.581265 
L 202.108312 359.487998 
L 203.813532 359.22138 
L 206.005959 359.064339 
L 207.467576 358.968161 
L 208.441988 358.879073 
L 218.429709 358.327214 
L 219.160518 358.2345 
L 223.301768 358.075945 
L 224.763385 357.954917 
L 227.199415 357.85366 
L 228.173826 357.756649 
L 231.340665 357.618158 
L 233.776694 357.51349 
L 237.674341 357.199793 
L 238.648753 357.113995 
L 241.328385 356.965322 
L 244.251621 356.601388 
L 244.738826 356.503883 
L 245.469635 356.356514 
L 245.956841 356.231645 
L 246.200444 356.225169 
L 246.68765 356.053306 
L 251.316106 355.477538 
L 251.803312 355.229053 
L 252.777724 355.102902 
L 254.726547 354.582712 
L 254.97015 354.338713 
L 255.457356 354.316998 
L 255.944562 353.915544 
L 256.918974 353.718732 
L 259.598606 353.236791 
L 260.329415 353.16541 
L 260.816621 352.874485 
L 261.547429 352.708358 
L 261.791032 352.567577 
L 262.034635 352.556063 
L 263.009047 352.173318 
L 263.983459 352.043203 
L 264.714268 351.879776 
L 267.881106 351.489196 
L 269.342724 351.236352 
L 270.073532 351.126086 
L 270.560738 350.842252 
L 271.047944 350.747251 
L 271.53515 350.508435 
L 272.509562 350.413914 
L 272.996768 350.193516 
L 273.483974 350.163589 
L 273.727576 349.99515 
L 274.701988 349.910145 
L 274.945591 349.716384 
L 275.920003 349.613908 
L 276.163606 349.353526 
L 276.407209 349.349152 
L 277.381621 348.996952 
L 277.868827 348.948955 
L 278.599635 348.39049 
L 279.574047 348.121326 
L 280.548459 347.967547 
L 282.740885 347.133124 
L 283.471694 347.008076 
L 285.907724 346.545988 
L 286.638532 346.248944 
L 287.125738 346.141193 
L 289.805371 345.280031 
L 290.292577 344.715925 
L 290.536179 344.693939 
L 291.023385 344.331381 
L 294.921032 343.048648 
L 295.164635 342.800049 
L 295.895444 342.551268 
L 296.139047 342.349396 
L 297.600665 342.09237 
L 297.844268 341.769996 
L 298.331474 341.563394 
L 299.062282 341.335694 
L 301.741915 340.753734 
L 302.472724 340.676499 
L 303.447135 340.089914 
L 303.934341 340.009676 
L 304.177944 339.847939 
L 304.66515 339.795047 
L 305.639562 339.337194 
L 307.831988 339.106141 
L 309.293606 338.920487 
L 309.780812 338.750699 
L 312.216841 338.478184 
L 312.460444 338.300256 
L 313.434856 338.183823 
L 315.140077 337.883932 
L 319.281327 337.582715 
L 320.255738 337.430365 
L 321.717356 337.364106 
L 322.204562 337.158434 
L 323.422577 337.061582 
L 323.909782 336.947189 
L 326.102209 336.877075 
L 326.589415 336.765868 
L 328.781841 336.630253 
L 330.974268 336.37285 
L 334.871915 336.09267 
L 336.333533 335.825628 
L 338.525959 335.698296 
L 339.256768 335.61076 
L 342.667209 335.417891 
L 344.37243 335.318174 
L 345.346841 335.095685 
L 346.564856 335.038574 
L 348.51368 334.514095 
L 350.949709 334.302446 
L 351.436915 334.119729 
L 352.65493 333.933584 
L 352.898533 333.795505 
L 353.629341 333.731942 
L 354.603753 333.513589 
L 355.090959 333.321455 
L 355.334562 332.958236 
L 356.308974 332.843683 
L 356.552577 332.407014 
L 356.79618 332.376474 
L 357.039783 332.015244 
L 358.5014 331.672277 
L 358.745003 331.196764 
L 359.719415 330.987216 
L 360.206621 330.697707 
L 361.668238 330.602968 
L 362.155444 330.432789 
L 362.64265 330.246703 
L 363.617062 330.042092 
L 363.860665 329.861773 
L 364.104268 329.853741 
L 364.347871 329.327053 
L 364.835077 328.984946 
L 367.027503 328.12766 
L 367.514709 327.93045 
L 367.758312 327.7072 
L 368.001915 327.7043 
L 368.489121 327.527946 
L 372.143165 326.162409 
L 372.386768 326.1384 
L 372.630371 325.898519 
L 374.335591 325.322285 
L 374.579194 325.097104 
L 376.284415 324.827372 
L 377.015224 324.398765 
L 377.989636 324.238642 
L 378.720444 324.031137 
L 378.964047 323.866414 
L 379.20765 323.863469 
L 379.451253 323.542274 
L 380.425665 323.375691 
L 380.912871 323.023849 
L 383.836106 322.220403 
L 384.566915 322.026998 
L 385.054121 321.773443 
L 385.78493 321.699068 
L 386.272136 321.614618 
L 386.759341 321.602467 
L 387.977356 321.002106 
L 388.951768 320.819209 
L 395.041841 319.583557 
L 395.529047 319.500092 
L 396.259856 319.231121 
L 397.234268 319.080469 
L 399.426694 318.375333 
L 402.34993 317.672033 
L 402.593533 316.978828 
L 403.324341 316.687441 
L 403.567944 316.26744 
L 404.542356 315.878023 
L 405.029562 315.830772 
L 406.247577 315.083565 
L 407.221989 314.995676 
L 407.709194 314.734486 
L 407.952797 314.732839 
L 408.440003 314.458587 
L 409.414415 314.352911 
L 409.901621 314.081261 
L 410.388827 314.012503 
L 410.63243 313.86015 
L 410.876033 313.844673 
L 412.094047 313.259764 
L 413.068459 312.927623 
L 413.312062 312.765759 
L 413.799268 312.115087 
L 415.504489 311.55394 
L 415.991694 311.322851 
L 416.722503 311.066368 
L 417.453312 310.928155 
L 417.940518 310.400041 
L 419.402136 309.951462 
L 420.132944 309.638288 
L 421.107356 309.555873 
L 421.350959 309.281619 
L 422.325371 308.984453 
L 422.812577 308.963673 
L 423.786989 308.283821 
L 424.517797 308.102173 
L 424.7614 307.877449 
L 425.492209 307.849722 
L 426.466621 307.115509 
L 427.19743 307.021574 
L 427.441033 306.758327 
L 427.928239 306.695855 
L 428.415444 306.404365 
L 428.90265 306.280322 
L 429.146253 306.240761 
L 429.389856 306.027597 
L 430.364268 305.895552 
L 430.851474 305.501041 
L 431.095077 305.397189 
L 431.825886 304.27162 
L 432.069489 304.173654 
L 432.313092 303.769984 
L 434.749121 302.786614 
L 434.992724 302.751806 
L 435.236327 302.546714 
L 435.47993 302.158527 
L 436.210739 302.035178 
L 436.454342 301.577587 
L 437.18515 301.042237 
L 437.428753 300.954587 
L 437.915959 300.282669 
L 438.159562 300.262037 
L 438.403165 299.80252 
L 438.890371 299.654201 
L 439.377577 299.154138 
L 440.595592 298.927872 
L 440.839195 298.66708 
L 441.082797 298.611883 
L 442.544415 297.35683 
L 442.788018 297.345212 
L 443.275224 296.973015 
L 443.76243 296.907299 
L 444.249636 296.664139 
L 444.736842 296.659487 
L 445.224047 295.89375 
L 445.711253 295.825189 
L 446.198459 295.601737 
L 447.172871 295.478643 
L 447.660077 295.217235 
L 448.147283 295.182829 
L 448.390886 294.853206 
L 449.121695 294.766273 
L 449.6089 293.884312 
L 450.096106 293.762001 
L 450.339709 293.627777 
L 450.583312 293.623944 
L 450.826915 293.299002 
L 451.801327 292.921237 
L 452.288533 292.317807 
L 453.506547 292.086116 
L 454.237356 291.687824 
L 454.480959 291.458239 
L 454.968165 291.356847 
L 455.942577 291.105202 
L 456.916989 290.979081 
L 457.647797 290.649335 
L 458.378606 290.482428 
L 458.865812 289.82486 
L 459.353018 289.778631 
L 461.058239 288.868844 
L 461.301842 288.43216 
L 461.545445 288.418201 
L 461.789047 288.177336 
L 462.03265 287.432869 
L 462.519856 287.36568 
L 462.763459 286.925142 
L 463.250665 286.696328 
L 463.737871 286.614112 
L 464.712283 286.307122 
L 464.955886 286.029696 
L 465.686695 285.919826 
L 466.417503 285.881375 
L 467.148312 285.516025 
L 467.391915 285.48543 
L 467.635518 285.145219 
L 468.60993 285.023084 
L 468.853533 284.796021 
L 469.584342 284.673816 
L 470.802356 284.112912 
L 471.045959 284.03757 
L 471.289562 283.516546 
L 472.020371 283.421972 
L 472.75118 283.144382 
L 473.725592 283.017887 
L 474.4564 282.882984 
L 476.405224 282.504561 
L 476.648827 282.198513 
L 478.110445 281.842217 
L 478.59765 281.459006 
L 480.790077 280.726933 
L 481.520886 280.626319 
L 482.251695 280.516901 
L 482.495298 280.505166 
L 483.956915 279.801183 
L 484.931327 279.714744 
L 485.418533 279.482334 
L 485.905739 279.392117 
L 486.149342 279.131234 
L 486.636548 279.000169 
L 486.88015 278.808053 
L 487.610959 278.719955 
L 488.341768 278.511242 
L 489.803386 278.244902 
L 492.726621 277.719423 
L 493.944636 277.615566 
L 497.842283 276.680719 
L 498.085886 276.655962 
L 498.573092 276.467981 
L 500.278312 276.359778 
L 501.009121 276.088239 
L 501.496327 276.07952 
L 501.73993 275.852822 
L 503.688753 275.361867 
L 504.175959 275.255109 
L 508.073606 274.605825 
L 509.048018 274.484754 
L 509.535224 274.261529 
L 510.996842 273.894952 
L 511.971253 273.708169 
L 512.214856 273.466495 
L 513.432871 273.331573 
L 514.407283 273.238256 
L 514.894489 273.135079 
L 517.574121 272.765198 
L 518.061327 272.602408 
L 519.035739 272.492948 
L 519.522945 272.306029 
L 520.010151 272.249985 
L 520.253753 271.935439 
L 522.689783 271.54709 
L 523.420592 271.318999 
L 526.58743 271.093747 
L 527.805445 270.797906 
L 532.190298 270.296815 
L 532.677504 270.180256 
L 534.626327 269.902646 
L 535.844342 269.640787 
L 537.305959 269.528469 
L 538.036768 269.423874 
L 538.523974 269.38842 
L 539.01118 269.137414 
L 539.254783 269.13685 
L 539.741989 268.94053 
L 541.203606 268.785833 
L 541.690812 268.671962 
L 542.421621 268.524862 
L 549.242504 267.318602 
L 550.216915 267.254843 
L 551.191327 266.988892 
L 553.627357 266.80694 
L 554.358165 266.576235 
L 555.332577 266.378774 
L 558.743018 265.665524 
L 559.230224 265.503098 
L 561.666254 264.822174 
L 562.153459 264.726802 
L 562.397062 264.544151 
L 563.371474 264.34069 
L 563.85868 264.182625 
L 565.563901 264.047283 
L 565.807504 263.811358 
L 568.974342 263.116387 
L 569.461548 262.795832 
L 569.948754 262.756308 
L 570.192357 262.506179 
L 570.679562 262.428647 
L 571.166768 262.366129 
L 571.653974 262.243489 
L 572.871989 262.034075 
L 573.359195 262.005869 
L 573.846401 261.270373 
L 576.038827 260.412492 
L 577.013239 260.229532 
L 577.500445 259.702403 
L 578.962062 259.080385 
L 579.692871 258.75269 
L 580.667283 258.408194 
L 580.910886 257.634142 
L 581.154489 257.536095 
L 581.398092 257.138252 
L 581.641695 256.994556 
L 582.128901 256.251307 
L 582.372504 256.135129 
L 582.616107 255.717523 
L 583.346915 255.562735 
L 584.808533 253.923823 
L 585.782945 253.481255 
L 586.026548 252.897915 
L 586.270151 252.807653 
L 586.757357 252.195019 
L 587.00096 252.184518 
L 587.488165 251.881744 
L 588.218974 251.703874 
L 588.462577 251.679959 
L 588.70618 251.374245 
L 589.436989 251.315856 
L 589.680592 251.091069 
L 589.924195 251.090024 
L 590.411401 250.582134 
L 590.898607 250.510779 
L 591.14221 250.334262 
L 591.873018 250.189961 
L 592.116621 249.967007 
L 592.603827 249.79955 
L 592.84743 249.391053 
L 593.091033 249.386853 
L 593.334636 249.158772 
L 594.065445 249.094958 
L 594.796254 248.858209 
L 595.28346 248.771558 
L 597.475886 248.15443 
L 597.963092 247.603377 
L 598.693901 247.246109 
L 599.42471 247.049313 
L 599.911915 246.941261 
L 600.399121 246.893153 
L 600.642724 246.680156 
L 600.886327 246.671849 
L 601.12993 246.466933 
L 601.860739 246.37491 
L 602.347945 246.01989 
L 603.078754 245.766943 
L 603.322357 245.278408 
L 603.809562 245.197548 
L 604.296768 245.101163 
L 605.27118 244.280176 
L 605.758386 244.110636 
L 606.001989 243.967504 
L 606.732798 243.887002 
L 607.220004 243.771041 
L 608.438018 243.668122 
L 608.925224 243.518271 
L 610.874048 243.14289 
L 612.579268 242.480327 
L 613.310077 242.400144 
L 613.55368 242.322373 
L 613.797283 242.089462 
L 615.98971 241.7388 
L 616.476915 241.643308 
L 617.207724 241.559217 
L 617.69493 241.414121 
L 619.156548 241.292329 
L 620.374563 240.967308 
L 620.618165 240.953316 
L 621.105371 240.79334 
L 622.323386 240.688577 
L 622.810592 240.521793 
L 623.054195 240.266014 
L 627.195445 239.581098 
L 627.439048 239.389553 
L 627.926254 239.259556 
L 628.657063 239.095333 
L 629.144268 238.922716 
L 629.631474 238.849749 
L 630.362283 238.764682 
L 632.798313 238.105862 
L 633.285518 237.999006 
L 634.747136 237.723941 
L 635.234342 237.592465 
L 635.965151 237.505471 
L 638.157577 236.771657 
L 638.644783 236.655961 
L 639.619195 236.311056 
L 640.106401 236.221724 
L 641.811621 235.579243 
L 642.055224 235.367527 
L 642.54243 235.330473 
L 643.516842 234.941604 
L 646.196474 234.17434 
L 646.440077 234.153312 
L 647.414489 233.63008 
L 647.658092 233.619826 
L 648.145298 233.416647 
L 648.388901 233.401533 
L 648.632504 233.242929 
L 649.11971 233.177205 
L 650.094121 232.817475 
L 650.337724 232.589227 
L 650.82493 232.525908 
L 651.312136 232.311069 
L 652.042945 232.124955 
L 652.530151 231.996982 
L 654.722577 231.781631 
L 654.96618 231.549429 
L 655.453386 231.462156 
L 655.696989 231.376095 
L 655.940592 231.033367 
L 658.133018 230.518828 
L 658.620224 230.401441 
L 659.10743 230.132328 
L 660.081842 229.847758 
L 660.325445 229.60931 
L 665.928313 228.377278 
L 666.171916 227.913547 
L 666.902724 227.773623 
L 667.38993 227.598025 
L 667.877136 227.46485 
L 668.364342 227.091016 
L 668.607945 227.074002 
L 669.095151 226.862157 
L 669.82596 226.740086 
L 671.043974 226.292639 
L 671.287577 226.22171 
L 671.53118 225.811565 
L 672.018386 225.638391 
L 673.480004 225.24983 
L 674.454416 224.82359 
L 674.941621 224.530352 
L 675.916033 224.248232 
L 676.646842 223.886364 
L 677.134048 223.445883 
L 677.621254 223.378461 
L 677.864857 223.201334 
L 679.082871 222.907745 
L 679.570077 222.691014 
L 680.057283 222.511887 
L 681.031695 222.33208 
L 681.518901 221.987826 
L 683.224121 221.261994 
L 683.467724 220.945044 
L 684.442136 220.746356 
L 684.929342 220.692271 
L 686.878166 219.951662 
L 687.121769 219.878076 
L 687.365372 219.445424 
L 687.608974 219.399844 
L 688.09618 218.983733 
L 689.801401 218.427621 
L 692.23743 217.502622 
L 692.481033 216.909573 
L 692.724636 216.876796 
L 692.968239 216.401946 
L 693.699048 216.053496 
L 693.942651 214.79915 
L 694.917063 214.16421 
L 695.160666 214.163705 
L 695.891474 213.090843 
L 696.135077 213.083611 
L 697.109489 212.621955 
L 698.327504 212.346956 
L 698.571107 212.099218 
L 698.81471 212.074207 
L 699.058313 211.870155 
L 700.763533 211.562773 
L 701.007136 211.295004 
L 701.494342 211.049065 
L 701.981548 210.278861 
L 702.225151 210.275277 
L 702.468754 210.099392 
L 703.199563 209.978932 
L 703.686769 209.692628 
L 703.930372 209.666858 
L 704.173974 209.40018 
L 704.417577 209.332253 
L 704.66118 209.11379 
L 706.610004 208.678542 
L 707.09721 208.660359 
L 707.340813 208.398559 
L 708.071622 208.287952 
L 708.558827 208.170981 
L 709.046033 208.003297 
L 709.533239 207.834478 
L 710.020445 207.524946 
L 710.994857 207.36484 
L 711.482063 207.155843 
L 712.700077 207.017395 
L 713.187283 206.927137 
L 713.430886 206.605402 
L 713.674489 206.595629 
L 714.405298 206.269577 
L 715.136107 205.94078 
L 715.623313 204.771709 
L 715.866916 204.746542 
L 716.110519 204.402488 
L 716.354122 204.382072 
L 716.841327 204.061551 
L 717.328533 203.908146 
L 717.815739 203.736351 
L 718.546548 203.218264 
L 719.277357 203.031401 
L 719.52096 202.235819 
L 720.251769 201.980479 
L 720.738975 201.368778 
L 721.22618 201.330414 
L 721.713386 201.179298 
L 721.956989 201.164182 
L 722.444195 200.968076 
L 723.418607 200.754355 
L 723.905813 200.72169 
L 724.149416 200.357127 
L 725.36743 200.156172 
L 725.854636 200.00879 
L 726.341842 199.934191 
L 726.585445 199.703912 
L 727.072651 199.640367 
L 727.316254 199.33385 
L 728.047063 199.220883 
L 728.290666 198.768619 
L 728.777872 198.560509 
L 729.021475 198.550674 
L 729.752283 198.037583 
L 730.726695 197.865591 
L 731.457504 197.722911 
L 734.137136 197.231621 
L 735.111548 197.13689 
L 736.329563 196.992126 
L 739.252798 196.660574 
L 740.22721 196.543509 
L 740.958019 196.462166 
L 742.176033 196.277931 
L 742.663239 196.095724 
L 742.906842 196.059903 
L 743.150445 195.851693 
L 743.881254 195.783166 
L 744.36846 195.624309 
L 745.586475 195.406593 
L 747.778901 195.076126 
L 748.022504 195.066313 
L 748.753313 194.761328 
L 749.971328 194.361865 
L 750.702136 193.993142 
L 751.189342 193.941604 
L 751.432945 193.799927 
L 751.920151 193.759117 
L 752.407357 193.627769 
L 754.35618 193.138737 
L 754.599783 192.847724 
L 755.330592 192.726452 
L 755.574195 192.564198 
L 755.817798 192.560079 
L 756.061401 192.395758 
L 756.305004 192.021008 
L 756.79221 191.882296 
L 757.035813 191.817082 
L 757.279416 191.214837 
L 758.49743 191.044751 
L 758.984636 190.842922 
L 759.228239 190.573668 
L 760.689857 190.075682 
L 761.177063 189.990023 
L 761.420666 189.728706 
L 761.664269 189.642349 
L 762.151475 189.048464 
L 762.882283 188.929467 
L 763.369489 188.368528 
L 763.613092 188.314956 
L 764.343901 187.771534 
L 764.831107 187.394176 
L 765.561916 186.277621 
L 765.805519 186.127365 
L 766.049122 185.778263 
L 766.292725 184.349438 
L 767.023533 184.190238 
L 767.267136 184.164323 
L 767.510739 183.984344 
L 767.754342 183.958948 
L 768.241548 183.580054 
L 772.626401 182.965958 
L 773.600813 182.667178 
L 773.844416 182.183102 
L 774.088019 182.145419 
L 775.062431 181.106564 
L 776.767651 180.814535 
L 777.254857 180.477632 
L 777.742063 179.730193 
L 777.985666 176.503087 
L 778.229269 176.324885 
L 778.716475 175.657116 
L 778.960078 175.619846 
L 779.447283 175.400128 
L 782.370519 174.997413 
L 783.588533 174.709575 
L 785.537357 174.511578 
L 786.268166 174.170224 
L 786.511769 174.099981 
L 786.998975 173.734328 
L 787.486181 173.542819 
L 787.729783 171.393198 
L 788.216989 170.473553 
L 789.191401 170.354963 
L 790.409416 170.209292 
L 790.653019 169.881591 
L 790.896622 169.774779 
L 791.140225 168.572668 
L 791.383828 168.081541 
L 791.871033 167.9726 
L 792.114636 167.678509 
L 792.358239 167.675215 
L 792.845445 166.894629 
L 793.089048 166.556631 
L 795.525078 166.325772 
L 796.743092 166.216462 
L 798.20471 166.051379 
L 798.935519 166.01413 
L 799.179122 165.853378 
L 799.666328 165.774554 
L 799.909931 165.583821 
L 800.153534 165.570284 
L 801.371548 164.909146 
L 802.34596 164.766309 
L 802.589563 164.430522 
L 804.781989 164.296691 
L 805.756401 163.878533 
L 806.000004 162.55529 
L 807.948828 161.90491 
L 811.359269 161.57561 
L 811.602872 161.382184 
L 812.090078 161.243261 
L 812.333681 161.171526 
L 812.577284 160.957849 
L 813.064489 160.873794 
L 813.551695 160.651633 
L 814.282504 160.584212 
L 814.526107 160.555158 
L 815.013313 153.69787 
L 815.256916 152.424267 
L 815.500519 150.363306 
L 815.987725 148.510604 
L 816.231328 148.115642 
L 816.474931 148.085753 
L 816.474931 148.085753 
" clip-path="url(#p2e4882fd82)" style="fill: none; stroke: #ff7f0e; stroke-width: 1.5; stroke-linecap: square"/>
   </g>
   <g id="line2d_39">
    <path d="M 86.640517 374.213455 
L 86.772044 364.844786 
L 86.956181 364.39885 
L 87.140318 364.027022 
L 87.24554 363.821487 
L 87.403372 363.685188 
L 88.245142 363.279018 
L 88.455585 363.16707 
L 88.929081 363.090961 
L 90.428484 362.901071 
L 91.217644 362.793554 
L 94.242756 362.5211 
L 94.847779 362.466677 
L 97.241564 362.302439 
L 105.054245 361.911917 
L 107.868915 361.789987 
L 117.759718 361.311226 
L 121.1268 361.134986 
L 121.942265 361.080757 
L 128.150322 360.717565 
L 139.330085 359.713868 
L 139.619444 359.65925 
L 140.697962 359.5291 
L 140.93471 359.490694 
L 146.090554 358.710159 
L 146.56405 358.627308 
L 147.511042 358.481828 
L 150.352017 357.911358 
L 152.298611 357.523958 
L 152.956244 357.40465 
L 155.560471 356.92348 
L 155.876135 356.843652 
L 156.481158 356.694198 
L 163.031184 354.934748 
L 163.294237 354.84169 
L 163.662512 354.728647 
L 163.820344 354.641409 
L 164.74103 354.452958 
L 166.029991 354.001822 
L 166.582403 353.768875 
L 168.450081 353.149619 
L 168.765745 353.031996 
L 169.633821 352.728508 
L 170.396675 352.536569 
L 170.659728 352.446021 
L 171.238446 352.292128 
L 172.264353 352.002533 
L 172.474796 351.939485 
L 172.895681 351.793264 
L 173.079818 351.670868 
L 173.737451 351.376026 
L 174.263558 351.245726 
L 174.894886 351.034092 
L 175.315771 350.884163 
L 176.131236 350.684588 
L 176.946701 350.499554 
L 177.367586 350.38855 
L 177.946304 350.167947 
L 186.311397 347.968242 
L 186.942725 347.84633 
L 187.258389 347.782949 
L 187.942327 347.636705 
L 188.389518 347.551183 
L 188.889319 347.433469 
L 189.099762 347.372623 
L 198.517069 345.340036 
L 199.122091 345.088276 
L 199.727114 344.926665 
L 199.963861 344.84383 
L 201.910456 344.193148 
L 202.068288 344.059399 
L 202.594394 343.933647 
L 203.278333 343.697708 
L 203.436164 343.632469 
L 203.672912 343.515736 
L 203.85705 343.456331 
L 204.488378 343.296979 
L 205.382759 343.005824 
L 205.829949 342.882966 
L 207.329353 342.428148 
L 207.51349 342.335343 
L 208.092207 342.162932 
L 208.565703 342.047165 
L 210.985793 341.385176 
L 211.143625 341.293951 
L 211.696037 341.097277 
L 212.011701 340.993455 
L 212.432586 340.88212 
L 212.906082 340.739785 
L 216.430995 339.869712 
L 217.088629 339.72465 
L 217.509514 339.623828 
L 218.03562 339.497175 
L 218.246063 339.448366 
L 219.166749 339.246251 
L 219.377192 339.16665 
L 219.719161 339.062315 
L 219.929604 338.992096 
L 220.350489 338.874731 
L 221.507923 338.603996 
L 222.139251 338.451825 
L 222.981022 338.21479 
L 225.374806 337.668675 
L 234.844724 336.283619 
L 236.054769 336.171246 
L 236.423043 336.113766 
L 247.103006 335.100511 
L 247.313448 335.057369 
L 248.234135 334.945864 
L 249.207432 334.808578 
L 249.865065 334.676528 
L 250.785751 334.530745 
L 252.022101 334.320866 
L 253.837169 333.899492 
L 255.625931 333.587935 
L 256.099427 333.41577 
L 256.467702 333.306391 
L 256.888587 333.225138 
L 257.493609 333.069072 
L 258.230158 332.859302 
L 258.545822 332.730305 
L 259.887394 332.367096 
L 262.491621 331.54815 
L 262.728369 331.426032 
L 263.070338 331.333453 
L 263.912109 331.057219 
L 264.148857 330.921912 
L 268.46293 329.468874 
L 268.620762 329.353474 
L 269.199479 329.097161 
L 269.462533 328.956337 
L 269.64667 328.863871 
L 270.014944 328.731139 
L 270.725188 328.36018 
L 271.146073 328.168029 
L 271.488043 328.040141 
L 272.85592 327.409462 
L 272.987446 327.297136 
L 273.355721 327.138724 
L 273.592469 327.0422 
L 276.564971 325.83203 
L 276.749108 325.665802 
L 277.064772 325.569657 
L 277.248909 325.509875 
L 278.14329 325.126341 
L 278.590481 324.898427 
L 279.37964 324.52733 
L 279.616388 324.43012 
L 281.168403 323.774219 
L 281.378845 323.694081 
L 281.536677 323.600326 
L 282.010173 323.385219 
L 282.299532 323.197181 
L 282.562585 323.096066 
L 282.878249 322.859201 
L 283.272829 322.728134 
L 283.641103 322.529652 
L 283.956767 322.429456 
L 284.351347 322.238282 
L 284.930064 321.947297 
L 285.719224 321.662616 
L 288.61281 320.327172 
L 288.849558 320.096339 
L 289.112611 319.982075 
L 289.375664 319.809982 
L 289.954382 319.61069 
L 290.138519 319.5126 
L 290.322656 319.404671 
L 290.690931 319.285785 
L 291.006595 319.188832 
L 291.164426 319.137709 
L 292.006197 318.897665 
L 292.164029 318.751919 
L 292.847967 318.468844 
L 293.163631 318.294631 
L 293.689738 318.129292 
L 294.005402 317.986848 
L 294.29476 317.878648 
L 294.926088 317.573323 
L 295.715248 317.268154 
L 296.030912 317.103487 
L 297.162041 316.599063 
L 297.319873 316.515942 
L 297.661842 316.385387 
L 297.977506 316.18505 
L 298.950803 315.740013 
L 299.582131 315.437177 
L 300.266069 315.184032 
L 300.76587 314.972017 
L 301.449809 314.710001 
L 301.686557 314.599042 
L 302.028526 314.460223 
L 302.212663 314.342416 
L 302.607243 314.227332 
L 303.370098 313.917801 
L 304.185563 313.449017 
L 304.3697 313.345487 
L 304.895807 313.147196 
L 305.869104 312.663164 
L 306.158462 312.564692 
L 307.236981 311.924313 
L 307.473729 311.806371 
L 307.763087 311.69184 
L 308.078751 311.545536 
L 308.289194 311.394397 
L 311.103864 310.278263 
L 311.419527 310.151045 
L 311.708886 309.957969 
L 312.392825 309.720128 
L 312.629572 309.593966 
L 313.20829 309.422666 
L 313.471343 309.301085 
L 313.971144 309.072364 
L 314.155281 308.956763 
L 314.392029 308.8523 
L 315.207494 308.544055 
L 315.865128 308.362252 
L 320.863139 306.2833 
L 321.020971 306.127455 
L 321.441857 305.944356 
L 321.836437 305.619694 
L 322.125795 305.479486 
L 322.651902 305.241682 
L 323.73042 304.781886 
L 325.519182 303.875818 
L 325.861151 303.720788 
L 326.045289 303.612615 
L 326.282037 303.490684 
L 326.466174 303.392513 
L 327.492082 303.004376 
L 327.78144 302.808377 
L 327.991883 302.675176 
L 328.228631 302.551536 
L 328.649516 302.281447 
L 328.859959 302.187692 
L 329.80695 301.800517 
L 330.096309 301.689129 
L 330.254141 301.563672 
L 330.438278 301.501788 
L 330.780247 301.343076 
L 331.095911 301.214069 
L 331.963987 300.896872 
L 332.279651 300.731526 
L 333.174032 300.300008 
L 333.463391 300.204406 
L 333.80536 300.061304 
L 334.068413 299.918253 
L 334.515604 299.707199 
L 335.015405 299.46353 
L 335.278458 299.343561 
L 335.488901 299.218063 
L 335.883481 299.048161 
L 336.383282 298.828759 
L 336.830472 298.710535 
L 337.488105 298.36736 
L 337.698548 298.285283 
L 338.066823 298.102923 
L 338.64554 297.737339 
L 339.066425 297.437657 
L 339.48731 297.273719 
L 340.013417 296.994897 
L 340.223859 296.871784 
L 341.11824 296.58282 
L 341.276072 296.477869 
L 341.881095 296.304463 
L 342.065232 296.231415 
L 342.354591 296.132822 
L 342.565033 295.986532 
L 343.064835 295.826214 
L 343.275277 295.771687 
L 344.090742 295.488009 
L 344.27488 295.364652 
L 345.695367 294.696658 
L 346.510832 294.394444 
L 346.773886 294.245651 
L 349.062449 293.301127 
L 349.299197 293.159537 
L 349.720082 292.863007 
L 350.193578 292.670346 
L 350.456631 292.57369 
L 350.824906 292.443321 
L 351.377318 292.238391 
L 351.956035 292.045136 
L 352.37692 291.794554 
L 352.981942 291.613693 
L 353.323912 291.497103 
L 353.665881 291.287519 
L 353.876324 291.185135 
L 355.19159 290.567232 
L 355.822918 290.258745 
L 356.03336 290.141776 
L 357.059268 289.72373 
L 357.506459 289.477924 
L 357.927344 289.384378 
L 358.111481 289.249118 
L 358.348229 289.154035 
L 358.690198 288.918167 
L 358.926946 288.805146 
L 359.479358 288.574469 
L 359.689801 288.47133 
L 360.005464 288.349483 
L 360.163296 288.226214 
L 360.847235 287.97352 
L 361.057678 287.891777 
L 361.399647 287.781564 
L 361.6627 287.636297 
L 361.925753 287.533709 
L 362.083585 287.441405 
L 362.425554 287.231982 
L 362.662302 287.127361 
L 363.188409 286.979439 
L 364.977171 286.245764 
L 365.135003 286.132 
L 365.529583 285.893384 
L 365.818942 285.774668 
L 369.291245 284.059988 
L 369.606908 283.965247 
L 369.922572 283.809431 
L 371.264144 283.331706 
L 371.527197 283.216449 
L 372.026998 283.003589 
L 372.290052 282.89832 
L 372.553105 282.742709 
L 373.026601 282.50344 
L 373.237043 282.402744 
L 373.579013 282.19691 
L 373.947287 282.06493 
L 374.526004 281.759905 
L 376.025408 281.281336 
L 376.209545 281.148423 
L 379.287268 279.578584 
L 379.524016 279.419012 
L 381.944106 278.405252 
L 382.312381 278.272252 
L 382.522824 278.197432 
L 382.996319 278.033326 
L 383.548731 277.666701 
L 383.917006 277.554824 
L 385.837295 276.642138 
L 385.995127 276.538753 
L 386.994729 276.115532 
L 387.152561 276.031251 
L 387.415614 275.914796 
L 387.573446 275.818684 
L 388.28369 275.42825 
L 388.573048 275.32279 
L 389.230682 274.998624 
L 389.546346 274.833936 
L 389.783093 274.735091 
L 390.230284 274.523177 
L 390.519643 274.335506 
L 391.54555 273.914094 
L 391.729688 273.831276 
L 392.308405 273.640833 
L 392.702985 273.466276 
L 392.992343 273.382285 
L 393.12387 273.284468 
L 393.597366 273.045189 
L 393.939335 272.87213 
L 395.070464 272.365845 
L 395.228296 272.244655 
L 395.54396 272.086885 
L 395.833318 271.930388 
L 396.122677 271.828629 
L 396.832921 271.489513 
L 397.306417 271.359106 
L 399.910644 270.349217 
L 409.880362 266.217905 
L 410.038194 266.084526 
L 410.722133 265.794901 
L 411.327155 265.532035 
L 411.669125 265.358251 
L 414.089215 264.422192 
L 414.404879 264.290742 
L 414.746848 264.149607 
L 415.378176 263.875187 
L 415.614924 263.743659 
L 416.719747 263.319868 
L 416.903885 263.240539 
L 417.77196 262.793761 
L 418.903089 262.412497 
L 419.192448 262.307886 
L 419.376585 262.210858 
L 419.902692 262.048181 
L 420.086829 261.968788 
L 420.323577 261.839039 
L 421.665149 261.178949 
L 421.928202 261.025688 
L 422.21756 260.868014 
L 424.111544 260.144978 
L 425.374199 259.673356 
L 425.742474 259.493287 
L 426.479023 259.229161 
L 427.373404 258.861175 
L 427.689068 258.725342 
L 428.031037 258.610766 
L 428.925418 258.215592 
L 429.688273 257.927281 
L 429.977632 257.795372 
L 430.477433 257.621922 
L 430.898318 257.432087 
L 431.161371 257.310509 
L 431.345508 257.213029 
L 431.634867 257.098949 
L 433.213187 256.586737 
L 433.581461 256.43495 
L 434.2654 256.092741 
L 434.65998 255.929402 
L 434.870422 255.828853 
L 435.212391 255.679249 
L 435.422834 255.579114 
L 436.133078 255.334915 
L 437.869229 254.764558 
L 438.342725 254.60186 
L 442.025471 253.234898 
L 442.341135 253.133231 
L 442.867241 253.003828 
L 443.630096 252.649357 
L 444.261423 252.489553 
L 444.656003 252.314418 
L 445.129499 252.160545 
L 445.471468 252.044292 
L 445.997575 251.824426 
L 446.471071 251.706175 
L 447.128704 251.50411 
L 447.891558 251.238424 
L 448.707024 250.87595 
L 449.048993 250.750907 
L 449.364657 250.568856 
L 449.654015 250.475452 
L 449.890763 250.370076 
L 450.259038 250.226927 
L 450.46948 250.127148 
L 450.785144 249.997972 
L 452.310853 249.40044 
L 452.573906 249.359912 
L 452.758044 249.237999 
L 453.573509 248.97382 
L 453.783951 248.871891 
L 455.967294 248.072671 
L 456.204041 247.955229 
L 465.752875 244.454879 
L 466.226371 244.29888 
L 468.330797 243.698803 
L 468.777987 243.571306 
L 470.540444 242.99131 
L 471.645268 242.580109 
L 471.829405 242.511584 
L 472.066153 242.387693 
L 478.984454 240.057404 
L 479.273812 239.946447 
L 481.772818 239.270593 
L 482.141093 239.121204 
L 482.71981 238.956031 
L 482.930253 238.846693 
L 484.271824 238.430016 
L 484.561183 238.35213 
L 485.113595 238.215036 
L 486.060586 237.955846 
L 501.659645 233.494416 
L 502.238362 233.353626 
L 502.422499 233.30668 
L 503.26427 233.060428 
L 506.078939 232.20751 
L 506.52613 232.102235 
L 507.210068 231.973241 
L 507.788786 231.859306 
L 508.472724 231.659845 
L 509.261884 231.436863 
L 509.498632 231.354334 
L 509.972128 231.23875 
L 510.12996 231.194962 
L 511.050646 230.95892 
L 511.261089 230.898833 
L 511.997638 230.78176 
L 512.760492 230.549636 
L 519.994457 228.612721 
L 520.65209 228.490388 
L 523.729813 227.558896 
L 523.992866 227.497667 
L 525.387049 227.148698 
L 525.623797 227.05456 
L 526.097293 226.934441 
L 526.597094 226.742667 
L 526.991674 226.565604 
L 527.465169 226.423148 
L 528.201719 226.170783 
L 528.806741 225.994902 
L 530.279839 225.744096 
L 530.437671 225.654636 
L 531.12161 225.435475 
L 541.906793 222.556433 
L 542.511816 222.400998 
L 543.827082 222.131678 
L 544.747769 221.946013 
L 545.063433 221.842709 
L 547.299385 221.322051 
L 547.930713 221.207049 
L 548.90401 221.040466 
L 550.324498 220.685983 
L 550.640162 220.606961 
L 551.771291 220.409478 
L 552.060649 220.323243 
L 554.612266 219.79371 
L 555.427731 219.634068 
L 561.898841 218.165261 
L 562.319726 218.046344 
L 563.02997 217.880938 
L 563.293023 217.782988 
L 563.81913 217.65877 
L 564.21371 217.549082 
L 567.186212 216.789952 
L 567.633402 216.663858 
L 567.922761 216.585849 
L 572.999689 215.55235 
L 573.446879 215.434566 
L 573.736238 215.375385 
L 574.34126 215.26892 
L 575.025199 215.142387 
L 575.735443 215.02536 
L 576.656129 214.856915 
L 578.944692 214.344736 
L 579.497104 214.216261 
L 580.470401 214.001054 
L 581.180645 213.876318 
L 582.495911 213.597483 
L 582.916797 213.512373 
L 585.047528 212.975379 
L 585.626245 212.863426 
L 586.073436 212.752065 
L 586.809985 212.57715 
L 587.204565 212.483419 
L 587.546534 212.38046 
L 587.835892 212.296715 
L 589.308991 211.991795 
L 589.940319 211.89044 
L 590.255982 211.819458 
L 591.308196 211.594844 
L 591.992134 211.456232 
L 592.597156 211.343105 
L 593.25479 211.199484 
L 594.517445 210.944981 
L 594.701583 210.903381 
L 595.253994 210.769177 
L 596.91123 210.332529 
L 598.121275 210.145243 
L 600.12048 209.731964 
L 600.778113 209.570653 
L 601.198998 209.411354 
L 602.224906 209.237339 
L 604.013668 208.90614 
L 604.802828 208.727689 
L 605.881346 208.49522 
L 606.854643 208.285773 
L 607.117696 208.202619 
L 607.77533 208.016304 
L 621.16474 205.355276 
L 621.796068 205.237721 
L 622.164343 205.146793 
L 624.742265 204.722746 
L 626.162752 204.500376 
L 626.636248 204.35376 
L 630.739879 203.62743 
L 631.529039 203.529021 
L 631.871008 203.448465 
L 632.975832 203.281577 
L 634.028045 203.111308 
L 636.07986 202.870008 
L 636.632272 202.783909 
L 637.894928 202.582529 
L 641.051567 202.068094 
L 641.735505 201.952862 
L 643.497962 201.666414 
L 676.274398 196.540658 
L 677.537054 196.422634 
L 687.822436 194.983251 
L 689.032481 194.867855 
L 689.505977 194.799692 
L 690.189916 194.664921 
L 690.452969 194.62328 
L 695.293149 193.805588 
L 695.635118 193.739791 
L 696.503194 193.613674 
L 698.476093 193.277661 
L 699.44939 193.125757 
L 701.632733 192.781011 
L 702.474503 192.596076 
L 702.790167 192.550946 
L 718.889026 190.233249 
L 719.283606 190.18261 
L 720.151682 190.0768 
L 720.414735 190.01671 
L 726.570182 189.235037 
L 728.543081 188.949496 
L 729.542683 188.810078 
L 730.016179 188.749498 
L 730.673812 188.6213 
L 731.121003 188.563665 
L 733.935673 188.200709 
L 739.380875 187.435313 
L 740.617226 187.234321 
L 741.222248 187.12121 
L 748.298381 185.970652 
L 749.192762 185.828981 
L 749.8767 185.71047 
L 750.797387 185.572291 
L 752.112653 185.368081 
L 753.322698 185.176464 
L 754.480132 184.990821 
L 755.558651 184.847817 
L 756.873917 184.640378 
L 757.505245 184.526246 
L 758.425931 184.404998 
L 759.215091 184.261877 
L 760.056861 184.139812 
L 760.767105 183.972405 
L 761.345822 183.887224 
L 762.529562 183.694919 
L 763.187195 183.581562 
L 764.528767 183.364412 
L 767.290826 182.88346 
L 769.263726 182.539999 
L 770.42116 182.342563 
L 771.841647 182.107481 
L 773.156914 181.814013 
L 773.972379 181.648087 
L 774.577401 181.481958 
L 775.182424 181.371418 
L 775.445477 181.269488 
L 776.260942 181.136354 
L 776.865965 180.987659 
L 777.392071 180.876109 
L 780.522405 180.154685 
L 781.653534 179.864739 
L 785.204753 178.877498 
L 785.467806 178.817744 
L 786.099134 178.643031 
L 787.467011 178.124822 
L 787.624843 178.072009 
L 788.913804 177.767169 
L 789.518827 177.606008 
L 791.097146 177.10277 
L 791.439115 177.01583 
L 791.596947 176.92611 
L 792.017832 176.793668 
L 792.859603 176.537469 
L 793.675068 176.288577 
L 793.911816 176.194586 
L 794.595754 175.98731 
L 795.042945 175.826646 
L 797.989141 174.735663 
L 798.252195 174.638356 
L 798.725691 174.477531 
L 798.909828 174.385517 
L 799.357018 174.211562 
L 799.751598 174.071614 
L 801.88233 172.97884 
L 802.461047 172.443685 
L 802.592574 172.38222 
L 802.750405 172.233224 
L 802.908237 172.110168 
L 805.14419 170.321938 
L 805.275717 170.178991 
L 805.459854 169.99182 
L 805.670297 169.789467 
L 805.722907 169.657977 
L 805.880739 169.206945 
L 806.091182 168.773209 
L 806.354235 168.147843 
L 806.38054 168.142206 
L 806.512067 167.812328 
L 806.617288 167.718668 
L 806.801426 167.491046 
L 806.880342 167.372517 
L 807.1697 166.651014 
L 807.222311 166.634903 
L 807.485364 165.670877 
L 808.458661 163.322817 
L 808.616493 162.73194 
L 808.905852 161.267815 
L 809.168905 160.245699 
L 809.274126 160.109625 
L 809.563485 159.155452 
L 809.747622 157.899198 
L 810.168507 155.716752 
L 810.247423 155.635296 
L 810.457866 154.913931 
L 810.642003 153.728311 
L 810.826141 153.20619 
L 810.878751 152.866694 
L 811.010278 152.080591 
L 811.325942 150.188163 
L 811.457468 149.513732 
L 811.510079 149.420357 
L 811.694216 148.706118 
L 811.930964 147.970984 
L 812.167712 147.184922 
L 812.40446 145.994147 
L 813.325146 141.9182 
L 813.509284 140.775781 
L 813.719726 139.833205 
L 814.403665 134.430717 
L 814.482581 134.024708 
L 814.693023 132.721905 
L 814.771939 132.693615 
L 815.21913 128.744844 
L 815.718931 115.344914 
L 815.981984 106.037644 
L 816.429175 92.493218 
L 816.665923 84.206515 
L 816.692228 80.219863 
L 816.692228 80.219863 
" clip-path="url(#p2e4882fd82)" style="fill: none; stroke: #2ca02c; stroke-width: 1.5; stroke-linecap: square"/>
   </g>
   <g id="patch_3">
    <path d="M 50.137685 390.04 
L 50.137685 41.856 
" style="fill: none; stroke: #000000; stroke-width: 0.8; stroke-linejoin: miter; stroke-linecap: square"/>
   </g>
   <g id="patch_4">
    <path d="M 853.2 390.04 
L 853.2 41.856 
" style="fill: none; stroke: #000000; stroke-width: 0.8; stroke-linejoin: miter; stroke-linecap: square"/>
   </g>
   <g id="patch_5">
    <path d="M 50.137685 390.04 
L 853.2 390.04 
" style="fill: none; stroke: #000000; stroke-width: 0.8; stroke-linejoin: miter; stroke-linecap: square"/>
   </g>
   <g id="patch_6">
    <path d="M 50.137685 41.856 
L 853.2 41.856 
" style="fill: none; stroke: #000000; stroke-width: 0.8; stroke-linejoin: miter; stroke-linecap: square"/>
   </g>
   <g id="text_13">
    <!-- HTTP Request Duration Percentiles -->
    <g transform="translate(347.44228 22.355625) scale(0.12 -0.12)">
     <defs>
      <path id="DejaVuSans-48" d="M 628 4666 
L 1259 4666 
L 1259 2753 
L 3553 2753 
L 3553 4666 
L 4184 4666 
L 4184 0 
L 3553 0 
L 3553 2222 
L 1259 2222 
L 1259 0 
L 628 0 
L 628 4666 
z
" transform="scale(0.015625)"/>
      <path id="DejaVuSans-54" d="M -19 4666 
L 3928 4666 
L 3928 4134 
L 2272 4134 
L 2272 0 
L 1638 0 
L 1638 4134 
L -19 4134 
L -19 4666 
z
" transform="scale(0.015625)"/>
      <path id="DejaVuSans-52" d="M 2841 2188 
Q 3044 2119 3236 1894 
Q 3428 1669 3622 1275 
L 4263 0 
L 3584 0 
L 2988 1197 
Q 2756 1666 2539 1819 
Q 2322 1972 1947 1972 
L 1259 1972 
L 1259 0 
L 628 0 
L 628 4666 
L 2053 4666 
Q 2853 4666 3247 4331 
Q 3641 3997 3641 3322 
Q 3641 2881 3436 2590 
Q 3231 2300 2841 2188 
z
M 1259 4147 
L 1259 2491 
L 2053 2491 
Q 2509 2491 2742 2702 
Q 2975 2913 2975 3322 
Q 2975 3731 2742 3939 
Q 2509 4147 2053 4147 
L 1259 4147 
z
" transform="scale(0.015625)"/>
      <path id="DejaVuSans-71" d="M 947 1747 
Q 947 1113 1208 752 
Q 1469 391 1925 391 
Q 2381 391 2643 752 
Q 2906 1113 2906 1747 
Q 2906 2381 2643 2742 
Q 2381 3103 1925 3103 
Q 1469 3103 1208 2742 
Q 947 2381 947 1747 
z
M 2906 525 
Q 2725 213 2448 61 
Q 2172 -91 1784 -91 
Q 1150 -91 751 415 
Q 353 922 353 1747 
Q 353 2572 751 3078 
Q 1150 3584 1784 3584 
Q 2172 3584 2448 3432 
Q 2725 3281 2906 2969 
L 2906 3500 
L 3481 3500 
L 3481 -1331 
L 2906 -1331 
L 2906 525 
z
" transform="scale(0.015625)"/>
     </defs>
     <use xlink:href="#DejaVuSans-48"/>
     <use xlink:href="#DejaVuSans-54" transform="translate(75.195312 0)"/>
     <use xlink:href="#DejaVuSans-54" transform="translate(134.529297 0)"/>
     <use xlink:href="#DejaVuSans-50" transform="translate(195.613281 0)"/>
     <use xlink:href="#DejaVuSans-20" transform="translate(255.916016 0)"/>
     <use xlink:href="#DejaVuSans-52" transform="translate(287.703125 0)"/>
     <use xlink:href="#DejaVuSans-65" transform="translate(352.685547 0)"/>
     <use xlink:href="#DejaVuSans-71" transform="translate(414.208984 0)"/>
     <use xlink:href="#DejaVuSans-75" transform="translate(477.685547 0)"/>
     <use xlink:href="#DejaVuSans-65" transform="translate(541.064453 0)"/>
     <use xlink:href="#DejaVuSans-73" transform="translate(602.587891 0)"/>
     <use xlink:href="#DejaVuSans-74" transform="translate(654.6875 0)"/>
     <use xlink:href="#DejaVuSans-20" transform="translate(693.896484 0)"/>
     <use xlink:href="#DejaVuSans-44" transform="translate(725.683594 0)"/>
     <use xlink:href="#DejaVuSans-75" transform="translate(802.685547 0)"/>
     <use xlink:href="#DejaVuSans-72" transform="translate(866.064453 0)"/>
     <use xlink:href="#DejaVuSans-61" transform="translate(907.177734 0)"/>
     <use xlink:href="#DejaVuSans-74" transform="translate(968.457031 0)"/>
     <use xlink:href="#DejaVuSans-69" transform="translate(1007.666016 0)"/>
     <use xlink:href="#DejaVuSans-6f" transform="translate(1035.449219 0)"/>
     <use xlink:href="#DejaVuSans-6e" transform="translate(1096.630859 0)"/>
     <use xlink:href="#DejaVuSans-20" transform="translate(1160.009766 0)"/>
     <use xlink:href="#DejaVuSans-50" transform="translate(1191.796875 0)"/>
     <use xlink:href="#DejaVuSans-65" transform="translate(1248.474609 0)"/>
     <use xlink:href="#DejaVuSans-72" transform="translate(1309.998047 0)"/>
     <use xlink:href="#DejaVuSans-63" transform="translate(1348.861328 0)"/>
     <use xlink:href="#DejaVuSans-65" transform="translate(1403.841797 0)"/>
     <use xlink:href="#DejaVuSans-6e" transform="translate(1465.365234 0)"/>
     <use xlink:href="#DejaVuSans-74" transform="translate(1528.744141 0)"/>
     <use xlink:href="#DejaVuSans-69" transform="translate(1567.953125 0)"/>
     <use xlink:href="#DejaVuSans-6c" transform="translate(1595.736328 0)"/>
     <use xlink:href="#DejaVuSans-65" transform="translate(1623.519531 0)"/>
     <use xlink:href="#DejaVuSans-73" transform="translate(1685.042969 0)"/>
    </g>
    <!-- Test: breakpoint | Endpoint: GetImageById -->
    <g transform="translate(324.440717 35.856) scale(0.12 -0.12)">
     <defs>
      <path id="DejaVuSans-3a" d="M 750 794 
L 1409 794 
L 1409 0 
L 750 0 
L 750 794 
z
M 750 3309 
L 1409 3309 
L 1409 2516 
L 750 2516 
L 750 3309 
z
" transform="scale(0.015625)"/>
      <path id="DejaVuSans-62" d="M 3116 1747 
Q 3116 2381 2855 2742 
Q 2594 3103 2138 3103 
Q 1681 3103 1420 2742 
Q 1159 2381 1159 1747 
Q 1159 1113 1420 752 
Q 1681 391 2138 391 
Q 2594 391 2855 752 
Q 3116 1113 3116 1747 
z
M 1159 2969 
Q 1341 3281 1617 3432 
Q 1894 3584 2278 3584 
Q 2916 3584 3314 3078 
Q 3713 2572 3713 1747 
Q 3713 922 3314 415 
Q 2916 -91 2278 -91 
Q 1894 -91 1617 61 
Q 1341 213 1159 525 
L 1159 0 
L 581 0 
L 581 4863 
L 1159 4863 
L 1159 2969 
z
" transform="scale(0.015625)"/>
      <path id="DejaVuSans-6b" d="M 581 4863 
L 1159 4863 
L 1159 1991 
L 2875 3500 
L 3609 3500 
L 1753 1863 
L 3688 0 
L 2938 0 
L 1159 1709 
L 1159 0 
L 581 0 
L 581 4863 
z
" transform="scale(0.015625)"/>
      <path id="DejaVuSans-70" d="M 1159 525 
L 1159 -1331 
L 581 -1331 
L 581 3500 
L 1159 3500 
L 1159 2969 
Q 1341 3281 1617 3432 
Q 1894 3584 2278 3584 
Q 2916 3584 3314 3078 
Q 3713 2572 3713 1747 
Q 3713 922 3314 415 
Q 2916 -91 2278 -91 
Q 1894 -91 1617 61 
Q 1341 213 1159 525 
z
M 3116 1747 
Q 3116 2381 2855 2742 
Q 2594 3103 2138 3103 
Q 1681 3103 1420 2742 
Q 1159 2381 1159 1747 
Q 1159 1113 1420 752 
Q 1681 391 2138 391 
Q 2594 391 2855 752 
Q 3116 1113 3116 1747 
z
" transform="scale(0.015625)"/>
      <path id="DejaVuSans-7c" d="M 1344 4891 
L 1344 -1509 
L 813 -1509 
L 813 4891 
L 1344 4891 
z
" transform="scale(0.015625)"/>
      <path id="DejaVuSans-45" d="M 628 4666 
L 3578 4666 
L 3578 4134 
L 1259 4134 
L 1259 2753 
L 3481 2753 
L 3481 2222 
L 1259 2222 
L 1259 531 
L 3634 531 
L 3634 0 
L 628 0 
L 628 4666 
z
" transform="scale(0.015625)"/>
      <path id="DejaVuSans-64" d="M 2906 2969 
L 2906 4863 
L 3481 4863 
L 3481 0 
L 2906 0 
L 2906 525 
Q 2725 213 2448 61 
Q 2172 -91 1784 -91 
Q 1150 -91 751 415 
Q 353 922 353 1747 
Q 353 2572 751 3078 
Q 1150 3584 1784 3584 
Q 2172 3584 2448 3432 
Q 2725 3281 2906 2969 
z
M 947 1747 
Q 947 1113 1208 752 
Q 1469 391 1925 391 
Q 2381 391 2643 752 
Q 2906 1113 2906 1747 
Q 2906 2381 2643 2742 
Q 2381 3103 1925 3103 
Q 1469 3103 1208 2742 
Q 947 2381 947 1747 
z
" transform="scale(0.015625)"/>
      <path id="DejaVuSans-47" d="M 3809 666 
L 3809 1919 
L 2778 1919 
L 2778 2438 
L 4434 2438 
L 4434 434 
Q 4069 175 3628 42 
Q 3188 -91 2688 -91 
Q 1594 -91 976 548 
Q 359 1188 359 2328 
Q 359 3472 976 4111 
Q 1594 4750 2688 4750 
Q 3144 4750 3555 4637 
Q 3966 4525 4313 4306 
L 4313 3634 
Q 3963 3931 3569 4081 
Q 3175 4231 2741 4231 
Q 1884 4231 1454 3753 
Q 1025 3275 1025 2328 
Q 1025 1384 1454 906 
Q 1884 428 2741 428 
Q 3075 428 3337 486 
Q 3600 544 3809 666 
z
" transform="scale(0.015625)"/>
      <path id="DejaVuSans-49" d="M 628 4666 
L 1259 4666 
L 1259 0 
L 628 0 
L 628 4666 
z
" transform="scale(0.015625)"/>
      <path id="DejaVuSans-67" d="M 2906 1791 
Q 2906 2416 2648 2759 
Q 2391 3103 1925 3103 
Q 1463 3103 1205 2759 
Q 947 2416 947 1791 
Q 947 1169 1205 825 
Q 1463 481 1925 481 
Q 2391 481 2648 825 
Q 2906 1169 2906 1791 
z
M 3481 434 
Q 3481 -459 3084 -895 
Q 2688 -1331 1869 -1331 
Q 1566 -1331 1297 -1286 
Q 1028 -1241 775 -1147 
L 775 -588 
Q 1028 -725 1275 -790 
Q 1522 -856 1778 -856 
Q 2344 -856 2625 -561 
Q 2906 -266 2906 331 
L 2906 616 
Q 2728 306 2450 153 
Q 2172 0 1784 0 
Q 1141 0 747 490 
Q 353 981 353 1791 
Q 353 2603 747 3093 
Q 1141 3584 1784 3584 
Q 2172 3584 2450 3431 
Q 2728 3278 2906 2969 
L 2906 3500 
L 3481 3500 
L 3481 434 
z
" transform="scale(0.015625)"/>
      <path id="DejaVuSans-42" d="M 1259 2228 
L 1259 519 
L 2272 519 
Q 2781 519 3026 730 
Q 3272 941 3272 1375 
Q 3272 1813 3026 2020 
Q 2781 2228 2272 2228 
L 1259 2228 
z
M 1259 4147 
L 1259 2741 
L 2194 2741 
Q 2656 2741 2882 2914 
Q 3109 3088 3109 3444 
Q 3109 3797 2882 3972 
Q 2656 4147 2194 4147 
L 1259 4147 
z
M 628 4666 
L 2241 4666 
Q 2963 4666 3353 4366 
Q 3744 4066 3744 3513 
Q 3744 3084 3544 2831 
Q 3344 2578 2956 2516 
Q 3422 2416 3680 2098 
Q 3938 1781 3938 1306 
Q 3938 681 3513 340 
Q 3088 0 2303 0 
L 628 0 
L 628 4666 
z
" transform="scale(0.015625)"/>
      <path id="DejaVuSans-79" d="M 2059 -325 
Q 1816 -950 1584 -1140 
Q 1353 -1331 966 -1331 
L 506 -1331 
L 506 -850 
L 844 -850 
Q 1081 -850 1212 -737 
Q 1344 -625 1503 -206 
L 1606 56 
L 191 3500 
L 800 3500 
L 1894 763 
L 2988 3500 
L 3597 3500 
L 2059 -325 
z
" transform="scale(0.015625)"/>
     </defs>
     <use xlink:href="#DejaVuSans-54"/>
     <use xlink:href="#DejaVuSans-65" transform="translate(44.083984 0)"/>
     <use xlink:href="#DejaVuSans-73" transform="translate(105.607422 0)"/>
     <use xlink:href="#DejaVuSans-74" transform="translate(157.707031 0)"/>
     <use xlink:href="#DejaVuSans-3a" transform="translate(196.916016 0)"/>
     <use xlink:href="#DejaVuSans-20" transform="translate(230.607422 0)"/>
     <use xlink:href="#DejaVuSans-62" transform="translate(262.394531 0)"/>
     <use xlink:href="#DejaVuSans-72" transform="translate(325.871094 0)"/>
     <use xlink:href="#DejaVuSans-65" transform="translate(364.734375 0)"/>
     <use xlink:href="#DejaVuSans-61" transform="translate(426.257812 0)"/>
     <use xlink:href="#DejaVuSans-6b" transform="translate(487.537109 0)"/>
     <use xlink:href="#DejaVuSans-70" transform="translate(545.447266 0)"/>
     <use xlink:href="#DejaVuSans-6f" transform="translate(608.923828 0)"/>
     <use xlink:href="#DejaVuSans-69" transform="translate(670.105469 0)"/>
     <use xlink:href="#DejaVuSans-6e" transform="translate(697.888672 0)"/>
     <use xlink:href="#DejaVuSans-74" transform="translate(761.267578 0)"/>
     <use xlink:href="#DejaVuSans-20" transform="translate(800.476562 0)"/>
     <use xlink:href="#DejaVuSans-7c" transform="translate(832.263672 0)"/>
     <use xlink:href="#DejaVuSans-20" transform="translate(865.955078 0)"/>
     <use xlink:href="#DejaVuSans-45" transform="translate(897.742188 0)"/>
     <use xlink:href="#DejaVuSans-6e" transform="translate(960.925781 0)"/>
     <use xlink:href="#DejaVuSans-64" transform="translate(1024.304688 0)"/>
     <use xlink:href="#DejaVuSans-70" transform="translate(1087.78125 0)"/>
     <use xlink:href="#DejaVuSans-6f" transform="translate(1151.257812 0)"/>
     <use xlink:href="#DejaVuSans-69" transform="translate(1212.439453 0)"/>
     <use xlink:href="#DejaVuSans-6e" transform="translate(1240.222656 0)"/>
     <use xlink:href="#DejaVuSans-74" transform="translate(1303.601562 0)"/>
     <use xlink:href="#DejaVuSans-3a" transform="translate(1342.810547 0)"/>
     <use xlink:href="#DejaVuSans-20" transform="translate(1376.501953 0)"/>
     <use xlink:href="#DejaVuSans-47" transform="translate(1408.289062 0)"/>
     <use xlink:href="#DejaVuSans-65" transform="translate(1485.779297 0)"/>
     <use xlink:href="#DejaVuSans-74" transform="translate(1547.302734 0)"/>
     <use xlink:href="#DejaVuSans-49" transform="translate(1586.511719 0)"/>
     <use xlink:href="#DejaVuSans-6d" transform="translate(1616.003906 0)"/>
     <use xlink:href="#DejaVuSans-61" transform="translate(1713.416016 0)"/>
     <use xlink:href="#DejaVuSans-67" transform="translate(1774.695312 0)"/>
     <use xlink:href="#DejaVuSans-65" transform="translate(1838.171875 0)"/>
     <use xlink:href="#DejaVuSans-42" transform="translate(1899.695312 0)"/>
     <use xlink:href="#DejaVuSans-79" transform="translate(1968.298828 0)"/>
     <use xlink:href="#DejaVuSans-49" transform="translate(2027.478516 0)"/>
     <use xlink:href="#DejaVuSans-64" transform="translate(2056.970703 0)"/>
    </g>
   </g>
   <g id="legend_1">
    <g id="patch_7">
     <path d="M 57.137685 93.890375 
L 190.481435 93.890375 
Q 192.481435 93.890375 192.481435 91.890375 
L 192.481435 48.856 
Q 192.481435 46.856 190.481435 46.856 
L 57.137685 46.856 
Q 55.137685 46.856 55.137685 48.856 
L 55.137685 91.890375 
Q 55.137685 93.890375 57.137685 93.890375 
z
" style="fill: #ffffff; opacity: 0.8; stroke: #cccccc; stroke-linejoin: miter"/>
    </g>
    <g id="line2d_40">
     <path d="M 59.137685 54.954437 
L 69.137685 54.954437 
L 79.137685 54.954437 
" style="fill: none; stroke: #1f77b4; stroke-width: 1.5; stroke-linecap: square"/>
    </g>
    <g id="text_14">
     <!-- Single Large Results -->
     <g transform="translate(87.137685 58.454437) scale(0.1 -0.1)">
      <defs>
       <path id="DejaVuSans-53" d="M 3425 4513 
L 3425 3897 
Q 3066 4069 2747 4153 
Q 2428 4238 2131 4238 
Q 1616 4238 1336 4038 
Q 1056 3838 1056 3469 
Q 1056 3159 1242 3001 
Q 1428 2844 1947 2747 
L 2328 2669 
Q 3034 2534 3370 2195 
Q 3706 1856 3706 1288 
Q 3706 609 3251 259 
Q 2797 -91 1919 -91 
Q 1588 -91 1214 -16 
Q 841 59 441 206 
L 441 856 
Q 825 641 1194 531 
Q 1563 422 1919 422 
Q 2459 422 2753 634 
Q 3047 847 3047 1241 
Q 3047 1584 2836 1778 
Q 2625 1972 2144 2069 
L 1759 2144 
Q 1053 2284 737 2584 
Q 422 2884 422 3419 
Q 422 4038 858 4394 
Q 1294 4750 2059 4750 
Q 2388 4750 2728 4690 
Q 3069 4631 3425 4513 
z
" transform="scale(0.015625)"/>
       <path id="DejaVuSans-4c" d="M 628 4666 
L 1259 4666 
L 1259 531 
L 3531 531 
L 3531 0 
L 628 0 
L 628 4666 
z
" transform="scale(0.015625)"/>
      </defs>
      <use xlink:href="#DejaVuSans-53"/>
      <use xlink:href="#DejaVuSans-69" transform="translate(63.476562 0)"/>
      <use xlink:href="#DejaVuSans-6e" transform="translate(91.259766 0)"/>
      <use xlink:href="#DejaVuSans-67" transform="translate(154.638672 0)"/>
      <use xlink:href="#DejaVuSans-6c" transform="translate(218.115234 0)"/>
      <use xlink:href="#DejaVuSans-65" transform="translate(245.898438 0)"/>
      <use xlink:href="#DejaVuSans-20" transform="translate(307.421875 0)"/>
      <use xlink:href="#DejaVuSans-4c" transform="translate(339.208984 0)"/>
      <use xlink:href="#DejaVuSans-61" transform="translate(394.921875 0)"/>
      <use xlink:href="#DejaVuSans-72" transform="translate(456.201172 0)"/>
      <use xlink:href="#DejaVuSans-67" transform="translate(495.564453 0)"/>
      <use xlink:href="#DejaVuSans-65" transform="translate(559.041016 0)"/>
      <use xlink:href="#DejaVuSans-20" transform="translate(620.564453 0)"/>
      <use xlink:href="#DejaVuSans-52" transform="translate(652.351562 0)"/>
      <use xlink:href="#DejaVuSans-65" transform="translate(717.333984 0)"/>
      <use xlink:href="#DejaVuSans-73" transform="translate(778.857422 0)"/>
      <use xlink:href="#DejaVuSans-75" transform="translate(830.957031 0)"/>
      <use xlink:href="#DejaVuSans-6c" transform="translate(894.335938 0)"/>
      <use xlink:href="#DejaVuSans-74" transform="translate(922.119141 0)"/>
      <use xlink:href="#DejaVuSans-73" transform="translate(961.328125 0)"/>
     </g>
    </g>
    <g id="line2d_41">
     <path d="M 59.137685 69.632562 
L 69.137685 69.632562 
L 79.137685 69.632562 
" style="fill: none; stroke: #ff7f0e; stroke-width: 1.5; stroke-linecap: square"/>
    </g>
    <g id="text_15">
     <!-- Single Small Results -->
     <g transform="translate(87.137685 73.132562) scale(0.1 -0.1)">
      <use xlink:href="#DejaVuSans-53"/>
      <use xlink:href="#DejaVuSans-69" transform="translate(63.476562 0)"/>
      <use xlink:href="#DejaVuSans-6e" transform="translate(91.259766 0)"/>
      <use xlink:href="#DejaVuSans-67" transform="translate(154.638672 0)"/>
      <use xlink:href="#DejaVuSans-6c" transform="translate(218.115234 0)"/>
      <use xlink:href="#DejaVuSans-65" transform="translate(245.898438 0)"/>
      <use xlink:href="#DejaVuSans-20" transform="translate(307.421875 0)"/>
      <use xlink:href="#DejaVuSans-53" transform="translate(339.208984 0)"/>
      <use xlink:href="#DejaVuSans-6d" transform="translate(402.685547 0)"/>
      <use xlink:href="#DejaVuSans-61" transform="translate(500.097656 0)"/>
      <use xlink:href="#DejaVuSans-6c" transform="translate(561.376953 0)"/>
      <use xlink:href="#DejaVuSans-6c" transform="translate(589.160156 0)"/>
      <use xlink:href="#DejaVuSans-20" transform="translate(616.943359 0)"/>
      <use xlink:href="#DejaVuSans-52" transform="translate(648.730469 0)"/>
      <use xlink:href="#DejaVuSans-65" transform="translate(713.712891 0)"/>
      <use xlink:href="#DejaVuSans-73" transform="translate(775.236328 0)"/>
      <use xlink:href="#DejaVuSans-75" transform="translate(827.335938 0)"/>
      <use xlink:href="#DejaVuSans-6c" transform="translate(890.714844 0)"/>
      <use xlink:href="#DejaVuSans-74" transform="translate(918.498047 0)"/>
      <use xlink:href="#DejaVuSans-73" transform="translate(957.707031 0)"/>
     </g>
    </g>
    <g id="line2d_42">
     <path d="M 59.137685 84.310687 
L 69.137685 84.310687 
L 79.137685 84.310687 
" style="fill: none; stroke: #2ca02c; stroke-width: 1.5; stroke-linecap: square"/>
    </g>
    <g id="text_16">
     <!-- Multi Results -->
     <g transform="translate(87.137685 87.810687) scale(0.1 -0.1)">
      <defs>
       <path id="DejaVuSans-4d" d="M 628 4666 
L 1569 4666 
L 2759 1491 
L 3956 4666 
L 4897 4666 
L 4897 0 
L 4281 0 
L 4281 4097 
L 3078 897 
L 2444 897 
L 1241 4097 
L 1241 0 
L 628 0 
L 628 4666 
z
" transform="scale(0.015625)"/>
      </defs>
      <use xlink:href="#DejaVuSans-4d"/>
      <use xlink:href="#DejaVuSans-75" transform="translate(86.279297 0)"/>
      <use xlink:href="#DejaVuSans-6c" transform="translate(149.658203 0)"/>
      <use xlink:href="#DejaVuSans-74" transform="translate(177.441406 0)"/>
      <use xlink:href="#DejaVuSans-69" transform="translate(216.650391 0)"/>
      <use xlink:href="#DejaVuSans-20" transform="translate(244.433594 0)"/>
      <use xlink:href="#DejaVuSans-52" transform="translate(276.220703 0)"/>
      <use xlink:href="#DejaVuSans-65" transform="translate(341.203125 0)"/>
      <use xlink:href="#DejaVuSans-73" transform="translate(402.726562 0)"/>
      <use xlink:href="#DejaVuSans-75" transform="translate(454.826172 0)"/>
      <use xlink:href="#DejaVuSans-6c" transform="translate(518.205078 0)"/>
      <use xlink:href="#DejaVuSans-74" transform="translate(545.988281 0)"/>
      <use xlink:href="#DejaVuSans-73" transform="translate(585.197266 0)"/>
     </g>
    </g>
   </g>
  </g>
 </g>
 <defs>
  <clipPath id="p2e4882fd82">
   <rect x="50.137685" y="41.856" width="803.062315" height="348.184"/>
  </clipPath>
 </defs>
</svg>
