<?xml version="1.0" encoding="utf-8" standalone="no"?>
<!DOCTYPE svg PUBLIC "-//W3C//DTD SVG 1.1//EN"
  "http://www.w3.org/Graphics/SVG/1.1/DTD/svg11.dtd">
<svg xmlns:xlink="http://www.w3.org/1999/xlink" width="1008pt" height="288pt" viewBox="0 0 1008 288" xmlns="http://www.w3.org/2000/svg" version="1.1">
 <metadata>
  <rdf:RDF xmlns:dc="http://purl.org/dc/elements/1.1/" xmlns:cc="http://creativecommons.org/ns#" xmlns:rdf="http://www.w3.org/1999/02/22-rdf-syntax-ns#">
   <cc:Work>
    <dc:type rdf:resource="http://purl.org/dc/dcmitype/StillImage"/>
    <dc:date>2025-05-31T16:18:04.320620</dc:date>
    <dc:format>image/svg+xml</dc:format>
    <dc:creator>
     <cc:Agent>
      <dc:title>Matplotlib v3.10.1, https://matplotlib.org/</dc:title>
     </cc:Agent>
    </dc:creator>
   </cc:Work>
  </rdf:RDF>
 </metadata>
 <defs>
  <style type="text/css">*{stroke-linejoin: round; stroke-linecap: butt}</style>
 </defs>
 <g id="figure_1">
  <g id="patch_1">
   <path d="M 0 288 
L 1008 288 
L 1008 0 
L 0 0 
z
" style="fill: #ffffff"/>
  </g>
  <g id="axes_1">
   <g id="patch_2">
    <path d="M 50.87 246.04 
L 997.2 246.04 
L 997.2 26.88 
L 50.87 26.88 
z
" style="fill: #ffffff"/>
   </g>
   <g id="matplotlib.axis_1">
    <g id="xtick_1">
     <g id="line2d_1">
      <defs>
       <path id="m8b1d905b33" d="M 0 0 
L 0 3.5 
" style="stroke: #000000; stroke-width: 0.8"/>
      </defs>
      <g>
       <use xlink:href="#m8b1d905b33" x="93.885" y="246.04" style="stroke: #000000; stroke-width: 0.8"/>
      </g>
     </g>
     <g id="text_1">
      <!-- 0 -->
      <g transform="translate(90.70375 260.638438) scale(0.1 -0.1)">
       <defs>
        <path id="DejaVuSans-30" d="M 2034 4250 
Q 1547 4250 1301 3770 
Q 1056 3291 1056 2328 
Q 1056 1369 1301 889 
Q 1547 409 2034 409 
Q 2525 409 2770 889 
Q 3016 1369 3016 2328 
Q 3016 3291 2770 3770 
Q 2525 4250 2034 4250 
z
M 2034 4750 
Q 2819 4750 3233 4129 
Q 3647 3509 3647 2328 
Q 3647 1150 3233 529 
Q 2819 -91 2034 -91 
Q 1250 -91 836 529 
Q 422 1150 422 2328 
Q 422 3509 836 4129 
Q 1250 4750 2034 4750 
z
" transform="scale(0.015625)"/>
       </defs>
       <use xlink:href="#DejaVuSans-30"/>
      </g>
     </g>
    </g>
    <g id="xtick_2">
     <g id="line2d_2">
      <g>
       <use xlink:href="#m8b1d905b33" x="260.933544" y="246.04" style="stroke: #000000; stroke-width: 0.8"/>
      </g>
     </g>
     <g id="text_2">
      <!-- 100 -->
      <g transform="translate(251.389794 260.638438) scale(0.1 -0.1)">
       <defs>
        <path id="DejaVuSans-31" d="M 794 531 
L 1825 531 
L 1825 4091 
L 703 3866 
L 703 4441 
L 1819 4666 
L 2450 4666 
L 2450 531 
L 3481 531 
L 3481 0 
L 794 0 
L 794 531 
z
" transform="scale(0.015625)"/>
       </defs>
       <use xlink:href="#DejaVuSans-31"/>
       <use xlink:href="#DejaVuSans-30" transform="translate(63.623047 0)"/>
       <use xlink:href="#DejaVuSans-30" transform="translate(127.246094 0)"/>
      </g>
     </g>
    </g>
    <g id="xtick_3">
     <g id="line2d_3">
      <g>
       <use xlink:href="#m8b1d905b33" x="427.982087" y="246.04" style="stroke: #000000; stroke-width: 0.8"/>
      </g>
     </g>
     <g id="text_3">
      <!-- 200 -->
      <g transform="translate(418.438337 260.638438) scale(0.1 -0.1)">
       <defs>
        <path id="DejaVuSans-32" d="M 1228 531 
L 3431 531 
L 3431 0 
L 469 0 
L 469 531 
Q 828 903 1448 1529 
Q 2069 2156 2228 2338 
Q 2531 2678 2651 2914 
Q 2772 3150 2772 3378 
Q 2772 3750 2511 3984 
Q 2250 4219 1831 4219 
Q 1534 4219 1204 4116 
Q 875 4013 500 3803 
L 500 4441 
Q 881 4594 1212 4672 
Q 1544 4750 1819 4750 
Q 2544 4750 2975 4387 
Q 3406 4025 3406 3419 
Q 3406 3131 3298 2873 
Q 3191 2616 2906 2266 
Q 2828 2175 2409 1742 
Q 1991 1309 1228 531 
z
" transform="scale(0.015625)"/>
       </defs>
       <use xlink:href="#DejaVuSans-32"/>
       <use xlink:href="#DejaVuSans-30" transform="translate(63.623047 0)"/>
       <use xlink:href="#DejaVuSans-30" transform="translate(127.246094 0)"/>
      </g>
     </g>
    </g>
    <g id="xtick_4">
     <g id="line2d_4">
      <g>
       <use xlink:href="#m8b1d905b33" x="595.030631" y="246.04" style="stroke: #000000; stroke-width: 0.8"/>
      </g>
     </g>
     <g id="text_4">
      <!-- 300 -->
      <g transform="translate(585.486881 260.638438) scale(0.1 -0.1)">
       <defs>
        <path id="DejaVuSans-33" d="M 2597 2516 
Q 3050 2419 3304 2112 
Q 3559 1806 3559 1356 
Q 3559 666 3084 287 
Q 2609 -91 1734 -91 
Q 1441 -91 1130 -33 
Q 819 25 488 141 
L 488 750 
Q 750 597 1062 519 
Q 1375 441 1716 441 
Q 2309 441 2620 675 
Q 2931 909 2931 1356 
Q 2931 1769 2642 2001 
Q 2353 2234 1838 2234 
L 1294 2234 
L 1294 2753 
L 1863 2753 
Q 2328 2753 2575 2939 
Q 2822 3125 2822 3475 
Q 2822 3834 2567 4026 
Q 2313 4219 1838 4219 
Q 1578 4219 1281 4162 
Q 984 4106 628 3988 
L 628 4550 
Q 988 4650 1302 4700 
Q 1616 4750 1894 4750 
Q 2613 4750 3031 4423 
Q 3450 4097 3450 3541 
Q 3450 3153 3228 2886 
Q 3006 2619 2597 2516 
z
" transform="scale(0.015625)"/>
       </defs>
       <use xlink:href="#DejaVuSans-33"/>
       <use xlink:href="#DejaVuSans-30" transform="translate(63.623047 0)"/>
       <use xlink:href="#DejaVuSans-30" transform="translate(127.246094 0)"/>
      </g>
     </g>
    </g>
    <g id="xtick_5">
     <g id="line2d_5">
      <g>
       <use xlink:href="#m8b1d905b33" x="762.079175" y="246.04" style="stroke: #000000; stroke-width: 0.8"/>
      </g>
     </g>
     <g id="text_5">
      <!-- 400 -->
      <g transform="translate(752.535425 260.638438) scale(0.1 -0.1)">
       <defs>
        <path id="DejaVuSans-34" d="M 2419 4116 
L 825 1625 
L 2419 1625 
L 2419 4116 
z
M 2253 4666 
L 3047 4666 
L 3047 1625 
L 3713 1625 
L 3713 1100 
L 3047 1100 
L 3047 0 
L 2419 0 
L 2419 1100 
L 313 1100 
L 313 1709 
L 2253 4666 
z
" transform="scale(0.015625)"/>
       </defs>
       <use xlink:href="#DejaVuSans-34"/>
       <use xlink:href="#DejaVuSans-30" transform="translate(63.623047 0)"/>
       <use xlink:href="#DejaVuSans-30" transform="translate(127.246094 0)"/>
      </g>
     </g>
    </g>
    <g id="xtick_6">
     <g id="line2d_6">
      <g>
       <use xlink:href="#m8b1d905b33" x="929.127718" y="246.04" style="stroke: #000000; stroke-width: 0.8"/>
      </g>
     </g>
     <g id="text_6">
      <!-- 500 -->
      <g transform="translate(919.583968 260.638438) scale(0.1 -0.1)">
       <defs>
        <path id="DejaVuSans-35" d="M 691 4666 
L 3169 4666 
L 3169 4134 
L 1269 4134 
L 1269 2991 
Q 1406 3038 1543 3061 
Q 1681 3084 1819 3084 
Q 2600 3084 3056 2656 
Q 3513 2228 3513 1497 
Q 3513 744 3044 326 
Q 2575 -91 1722 -91 
Q 1428 -91 1123 -41 
Q 819 9 494 109 
L 494 744 
Q 775 591 1075 516 
Q 1375 441 1709 441 
Q 2250 441 2565 725 
Q 2881 1009 2881 1497 
Q 2881 1984 2565 2268 
Q 2250 2553 1709 2553 
Q 1456 2553 1204 2497 
Q 953 2441 691 2322 
L 691 4666 
z
" transform="scale(0.015625)"/>
       </defs>
       <use xlink:href="#DejaVuSans-35"/>
       <use xlink:href="#DejaVuSans-30" transform="translate(63.623047 0)"/>
       <use xlink:href="#DejaVuSans-30" transform="translate(127.246094 0)"/>
      </g>
     </g>
    </g>
    <g id="text_7">
     <!-- Timestamp (Seconds) -->
     <g transform="translate(469.630312 274.316562) scale(0.1 -0.1)">
      <defs>
       <path id="DejaVuSans-54" d="M -19 4666 
L 3928 4666 
L 3928 4134 
L 2272 4134 
L 2272 0 
L 1638 0 
L 1638 4134 
L -19 4134 
L -19 4666 
z
" transform="scale(0.015625)"/>
       <path id="DejaVuSans-69" d="M 603 3500 
L 1178 3500 
L 1178 0 
L 603 0 
L 603 3500 
z
M 603 4863 
L 1178 4863 
L 1178 4134 
L 603 4134 
L 603 4863 
z
" transform="scale(0.015625)"/>
       <path id="DejaVuSans-6d" d="M 3328 2828 
Q 3544 3216 3844 3400 
Q 4144 3584 4550 3584 
Q 5097 3584 5394 3201 
Q 5691 2819 5691 2113 
L 5691 0 
L 5113 0 
L 5113 2094 
Q 5113 2597 4934 2840 
Q 4756 3084 4391 3084 
Q 3944 3084 3684 2787 
Q 3425 2491 3425 1978 
L 3425 0 
L 2847 0 
L 2847 2094 
Q 2847 2600 2669 2842 
Q 2491 3084 2119 3084 
Q 1678 3084 1418 2786 
Q 1159 2488 1159 1978 
L 1159 0 
L 581 0 
L 581 3500 
L 1159 3500 
L 1159 2956 
Q 1356 3278 1631 3431 
Q 1906 3584 2284 3584 
Q 2666 3584 2933 3390 
Q 3200 3197 3328 2828 
z
" transform="scale(0.015625)"/>
       <path id="DejaVuSans-65" d="M 3597 1894 
L 3597 1613 
L 953 1613 
Q 991 1019 1311 708 
Q 1631 397 2203 397 
Q 2534 397 2845 478 
Q 3156 559 3463 722 
L 3463 178 
Q 3153 47 2828 -22 
Q 2503 -91 2169 -91 
Q 1331 -91 842 396 
Q 353 884 353 1716 
Q 353 2575 817 3079 
Q 1281 3584 2069 3584 
Q 2775 3584 3186 3129 
Q 3597 2675 3597 1894 
z
M 3022 2063 
Q 3016 2534 2758 2815 
Q 2500 3097 2075 3097 
Q 1594 3097 1305 2825 
Q 1016 2553 972 2059 
L 3022 2063 
z
" transform="scale(0.015625)"/>
       <path id="DejaVuSans-73" d="M 2834 3397 
L 2834 2853 
Q 2591 2978 2328 3040 
Q 2066 3103 1784 3103 
Q 1356 3103 1142 2972 
Q 928 2841 928 2578 
Q 928 2378 1081 2264 
Q 1234 2150 1697 2047 
L 1894 2003 
Q 2506 1872 2764 1633 
Q 3022 1394 3022 966 
Q 3022 478 2636 193 
Q 2250 -91 1575 -91 
Q 1294 -91 989 -36 
Q 684 19 347 128 
L 347 722 
Q 666 556 975 473 
Q 1284 391 1588 391 
Q 1994 391 2212 530 
Q 2431 669 2431 922 
Q 2431 1156 2273 1281 
Q 2116 1406 1581 1522 
L 1381 1569 
Q 847 1681 609 1914 
Q 372 2147 372 2553 
Q 372 3047 722 3315 
Q 1072 3584 1716 3584 
Q 2034 3584 2315 3537 
Q 2597 3491 2834 3397 
z
" transform="scale(0.015625)"/>
       <path id="DejaVuSans-74" d="M 1172 4494 
L 1172 3500 
L 2356 3500 
L 2356 3053 
L 1172 3053 
L 1172 1153 
Q 1172 725 1289 603 
Q 1406 481 1766 481 
L 2356 481 
L 2356 0 
L 1766 0 
Q 1100 0 847 248 
Q 594 497 594 1153 
L 594 3053 
L 172 3053 
L 172 3500 
L 594 3500 
L 594 4494 
L 1172 4494 
z
" transform="scale(0.015625)"/>
       <path id="DejaVuSans-61" d="M 2194 1759 
Q 1497 1759 1228 1600 
Q 959 1441 959 1056 
Q 959 750 1161 570 
Q 1363 391 1709 391 
Q 2188 391 2477 730 
Q 2766 1069 2766 1631 
L 2766 1759 
L 2194 1759 
z
M 3341 1997 
L 3341 0 
L 2766 0 
L 2766 531 
Q 2569 213 2275 61 
Q 1981 -91 1556 -91 
Q 1019 -91 701 211 
Q 384 513 384 1019 
Q 384 1609 779 1909 
Q 1175 2209 1959 2209 
L 2766 2209 
L 2766 2266 
Q 2766 2663 2505 2880 
Q 2244 3097 1772 3097 
Q 1472 3097 1187 3025 
Q 903 2953 641 2809 
L 641 3341 
Q 956 3463 1253 3523 
Q 1550 3584 1831 3584 
Q 2591 3584 2966 3190 
Q 3341 2797 3341 1997 
z
" transform="scale(0.015625)"/>
       <path id="DejaVuSans-70" d="M 1159 525 
L 1159 -1331 
L 581 -1331 
L 581 3500 
L 1159 3500 
L 1159 2969 
Q 1341 3281 1617 3432 
Q 1894 3584 2278 3584 
Q 2916 3584 3314 3078 
Q 3713 2572 3713 1747 
Q 3713 922 3314 415 
Q 2916 -91 2278 -91 
Q 1894 -91 1617 61 
Q 1341 213 1159 525 
z
M 3116 1747 
Q 3116 2381 2855 2742 
Q 2594 3103 2138 3103 
Q 1681 3103 1420 2742 
Q 1159 2381 1159 1747 
Q 1159 1113 1420 752 
Q 1681 391 2138 391 
Q 2594 391 2855 752 
Q 3116 1113 3116 1747 
z
" transform="scale(0.015625)"/>
       <path id="DejaVuSans-20" transform="scale(0.015625)"/>
       <path id="DejaVuSans-28" d="M 1984 4856 
Q 1566 4138 1362 3434 
Q 1159 2731 1159 2009 
Q 1159 1288 1364 580 
Q 1569 -128 1984 -844 
L 1484 -844 
Q 1016 -109 783 600 
Q 550 1309 550 2009 
Q 550 2706 781 3412 
Q 1013 4119 1484 4856 
L 1984 4856 
z
" transform="scale(0.015625)"/>
       <path id="DejaVuSans-53" d="M 3425 4513 
L 3425 3897 
Q 3066 4069 2747 4153 
Q 2428 4238 2131 4238 
Q 1616 4238 1336 4038 
Q 1056 3838 1056 3469 
Q 1056 3159 1242 3001 
Q 1428 2844 1947 2747 
L 2328 2669 
Q 3034 2534 3370 2195 
Q 3706 1856 3706 1288 
Q 3706 609 3251 259 
Q 2797 -91 1919 -91 
Q 1588 -91 1214 -16 
Q 841 59 441 206 
L 441 856 
Q 825 641 1194 531 
Q 1563 422 1919 422 
Q 2459 422 2753 634 
Q 3047 847 3047 1241 
Q 3047 1584 2836 1778 
Q 2625 1972 2144 2069 
L 1759 2144 
Q 1053 2284 737 2584 
Q 422 2884 422 3419 
Q 422 4038 858 4394 
Q 1294 4750 2059 4750 
Q 2388 4750 2728 4690 
Q 3069 4631 3425 4513 
z
" transform="scale(0.015625)"/>
       <path id="DejaVuSans-63" d="M 3122 3366 
L 3122 2828 
Q 2878 2963 2633 3030 
Q 2388 3097 2138 3097 
Q 1578 3097 1268 2742 
Q 959 2388 959 1747 
Q 959 1106 1268 751 
Q 1578 397 2138 397 
Q 2388 397 2633 464 
Q 2878 531 3122 666 
L 3122 134 
Q 2881 22 2623 -34 
Q 2366 -91 2075 -91 
Q 1284 -91 818 406 
Q 353 903 353 1747 
Q 353 2603 823 3093 
Q 1294 3584 2113 3584 
Q 2378 3584 2631 3529 
Q 2884 3475 3122 3366 
z
" transform="scale(0.015625)"/>
       <path id="DejaVuSans-6f" d="M 1959 3097 
Q 1497 3097 1228 2736 
Q 959 2375 959 1747 
Q 959 1119 1226 758 
Q 1494 397 1959 397 
Q 2419 397 2687 759 
Q 2956 1122 2956 1747 
Q 2956 2369 2687 2733 
Q 2419 3097 1959 3097 
z
M 1959 3584 
Q 2709 3584 3137 3096 
Q 3566 2609 3566 1747 
Q 3566 888 3137 398 
Q 2709 -91 1959 -91 
Q 1206 -91 779 398 
Q 353 888 353 1747 
Q 353 2609 779 3096 
Q 1206 3584 1959 3584 
z
" transform="scale(0.015625)"/>
       <path id="DejaVuSans-6e" d="M 3513 2113 
L 3513 0 
L 2938 0 
L 2938 2094 
Q 2938 2591 2744 2837 
Q 2550 3084 2163 3084 
Q 1697 3084 1428 2787 
Q 1159 2491 1159 1978 
L 1159 0 
L 581 0 
L 581 3500 
L 1159 3500 
L 1159 2956 
Q 1366 3272 1645 3428 
Q 1925 3584 2291 3584 
Q 2894 3584 3203 3211 
Q 3513 2838 3513 2113 
z
" transform="scale(0.015625)"/>
       <path id="DejaVuSans-64" d="M 2906 2969 
L 2906 4863 
L 3481 4863 
L 3481 0 
L 2906 0 
L 2906 525 
Q 2725 213 2448 61 
Q 2172 -91 1784 -91 
Q 1150 -91 751 415 
Q 353 922 353 1747 
Q 353 2572 751 3078 
Q 1150 3584 1784 3584 
Q 2172 3584 2448 3432 
Q 2725 3281 2906 2969 
z
M 947 1747 
Q 947 1113 1208 752 
Q 1469 391 1925 391 
Q 2381 391 2643 752 
Q 2906 1113 2906 1747 
Q 2906 2381 2643 2742 
Q 2381 3103 1925 3103 
Q 1469 3103 1208 2742 
Q 947 2381 947 1747 
z
" transform="scale(0.015625)"/>
       <path id="DejaVuSans-29" d="M 513 4856 
L 1013 4856 
Q 1481 4119 1714 3412 
Q 1947 2706 1947 2009 
Q 1947 1309 1714 600 
Q 1481 -109 1013 -844 
L 513 -844 
Q 928 -128 1133 580 
Q 1338 1288 1338 2009 
Q 1338 2731 1133 3434 
Q 928 4138 513 4856 
z
" transform="scale(0.015625)"/>
      </defs>
      <use xlink:href="#DejaVuSans-54"/>
      <use xlink:href="#DejaVuSans-69" transform="translate(57.958984 0)"/>
      <use xlink:href="#DejaVuSans-6d" transform="translate(85.742188 0)"/>
      <use xlink:href="#DejaVuSans-65" transform="translate(183.154297 0)"/>
      <use xlink:href="#DejaVuSans-73" transform="translate(244.677734 0)"/>
      <use xlink:href="#DejaVuSans-74" transform="translate(296.777344 0)"/>
      <use xlink:href="#DejaVuSans-61" transform="translate(335.986328 0)"/>
      <use xlink:href="#DejaVuSans-6d" transform="translate(397.265625 0)"/>
      <use xlink:href="#DejaVuSans-70" transform="translate(494.677734 0)"/>
      <use xlink:href="#DejaVuSans-20" transform="translate(558.154297 0)"/>
      <use xlink:href="#DejaVuSans-28" transform="translate(589.941406 0)"/>
      <use xlink:href="#DejaVuSans-53" transform="translate(628.955078 0)"/>
      <use xlink:href="#DejaVuSans-65" transform="translate(692.431641 0)"/>
      <use xlink:href="#DejaVuSans-63" transform="translate(753.955078 0)"/>
      <use xlink:href="#DejaVuSans-6f" transform="translate(808.935547 0)"/>
      <use xlink:href="#DejaVuSans-6e" transform="translate(870.117188 0)"/>
      <use xlink:href="#DejaVuSans-64" transform="translate(933.496094 0)"/>
      <use xlink:href="#DejaVuSans-73" transform="translate(996.972656 0)"/>
      <use xlink:href="#DejaVuSans-29" transform="translate(1049.072266 0)"/>
     </g>
    </g>
   </g>
   <g id="matplotlib.axis_2">
    <g id="ytick_1">
     <g id="line2d_7">
      <defs>
       <path id="m7c2447a0db" d="M 0 0 
L -3.5 0 
" style="stroke: #000000; stroke-width: 0.8"/>
      </defs>
      <g>
       <use xlink:href="#m7c2447a0db" x="50.87" y="238.111206" style="stroke: #000000; stroke-width: 0.8"/>
      </g>
     </g>
     <g id="text_8">
      <!-- 0 -->
      <g transform="translate(37.5075 241.910425) scale(0.1 -0.1)">
       <use xlink:href="#DejaVuSans-30"/>
      </g>
     </g>
    </g>
    <g id="ytick_2">
     <g id="line2d_8">
      <g>
       <use xlink:href="#m7c2447a0db" x="50.87" y="197.450724" style="stroke: #000000; stroke-width: 0.8"/>
      </g>
     </g>
     <g id="text_9">
      <!-- 20 -->
      <g transform="translate(31.145 201.249942) scale(0.1 -0.1)">
       <use xlink:href="#DejaVuSans-32"/>
       <use xlink:href="#DejaVuSans-30" transform="translate(63.623047 0)"/>
      </g>
     </g>
    </g>
    <g id="ytick_3">
     <g id="line2d_9">
      <g>
       <use xlink:href="#m7c2447a0db" x="50.87" y="156.790241" style="stroke: #000000; stroke-width: 0.8"/>
      </g>
     </g>
     <g id="text_10">
      <!-- 40 -->
      <g transform="translate(31.145 160.58946) scale(0.1 -0.1)">
       <use xlink:href="#DejaVuSans-34"/>
       <use xlink:href="#DejaVuSans-30" transform="translate(63.623047 0)"/>
      </g>
     </g>
    </g>
    <g id="ytick_4">
     <g id="line2d_10">
      <g>
       <use xlink:href="#m7c2447a0db" x="50.87" y="116.129759" style="stroke: #000000; stroke-width: 0.8"/>
      </g>
     </g>
     <g id="text_11">
      <!-- 60 -->
      <g transform="translate(31.145 119.928978) scale(0.1 -0.1)">
       <defs>
        <path id="DejaVuSans-36" d="M 2113 2584 
Q 1688 2584 1439 2293 
Q 1191 2003 1191 1497 
Q 1191 994 1439 701 
Q 1688 409 2113 409 
Q 2538 409 2786 701 
Q 3034 994 3034 1497 
Q 3034 2003 2786 2293 
Q 2538 2584 2113 2584 
z
M 3366 4563 
L 3366 3988 
Q 3128 4100 2886 4159 
Q 2644 4219 2406 4219 
Q 1781 4219 1451 3797 
Q 1122 3375 1075 2522 
Q 1259 2794 1537 2939 
Q 1816 3084 2150 3084 
Q 2853 3084 3261 2657 
Q 3669 2231 3669 1497 
Q 3669 778 3244 343 
Q 2819 -91 2113 -91 
Q 1303 -91 875 529 
Q 447 1150 447 2328 
Q 447 3434 972 4092 
Q 1497 4750 2381 4750 
Q 2619 4750 2861 4703 
Q 3103 4656 3366 4563 
z
" transform="scale(0.015625)"/>
       </defs>
       <use xlink:href="#DejaVuSans-36"/>
       <use xlink:href="#DejaVuSans-30" transform="translate(63.623047 0)"/>
      </g>
     </g>
    </g>
    <g id="ytick_5">
     <g id="line2d_11">
      <g>
       <use xlink:href="#m7c2447a0db" x="50.87" y="75.469276" style="stroke: #000000; stroke-width: 0.8"/>
      </g>
     </g>
     <g id="text_12">
      <!-- 80 -->
      <g transform="translate(31.145 79.268495) scale(0.1 -0.1)">
       <defs>
        <path id="DejaVuSans-38" d="M 2034 2216 
Q 1584 2216 1326 1975 
Q 1069 1734 1069 1313 
Q 1069 891 1326 650 
Q 1584 409 2034 409 
Q 2484 409 2743 651 
Q 3003 894 3003 1313 
Q 3003 1734 2745 1975 
Q 2488 2216 2034 2216 
z
M 1403 2484 
Q 997 2584 770 2862 
Q 544 3141 544 3541 
Q 544 4100 942 4425 
Q 1341 4750 2034 4750 
Q 2731 4750 3128 4425 
Q 3525 4100 3525 3541 
Q 3525 3141 3298 2862 
Q 3072 2584 2669 2484 
Q 3125 2378 3379 2068 
Q 3634 1759 3634 1313 
Q 3634 634 3220 271 
Q 2806 -91 2034 -91 
Q 1263 -91 848 271 
Q 434 634 434 1313 
Q 434 1759 690 2068 
Q 947 2378 1403 2484 
z
M 1172 3481 
Q 1172 3119 1398 2916 
Q 1625 2713 2034 2713 
Q 2441 2713 2670 2916 
Q 2900 3119 2900 3481 
Q 2900 3844 2670 4047 
Q 2441 4250 2034 4250 
Q 1625 4250 1398 4047 
Q 1172 3844 1172 3481 
z
" transform="scale(0.015625)"/>
       </defs>
       <use xlink:href="#DejaVuSans-38"/>
       <use xlink:href="#DejaVuSans-30" transform="translate(63.623047 0)"/>
      </g>
     </g>
    </g>
    <g id="ytick_6">
     <g id="line2d_12">
      <g>
       <use xlink:href="#m7c2447a0db" x="50.87" y="34.808794" style="stroke: #000000; stroke-width: 0.8"/>
      </g>
     </g>
     <g id="text_13">
      <!-- 100 -->
      <g transform="translate(24.7825 38.608013) scale(0.1 -0.1)">
       <use xlink:href="#DejaVuSans-31"/>
       <use xlink:href="#DejaVuSans-30" transform="translate(63.623047 0)"/>
       <use xlink:href="#DejaVuSans-30" transform="translate(127.246094 0)"/>
      </g>
     </g>
    </g>
    <g id="text_14">
     <!-- Requests/sec -->
     <g transform="translate(18.702812 169.489687) rotate(-90) scale(0.1 -0.1)">
      <defs>
       <path id="DejaVuSans-52" d="M 2841 2188 
Q 3044 2119 3236 1894 
Q 3428 1669 3622 1275 
L 4263 0 
L 3584 0 
L 2988 1197 
Q 2756 1666 2539 1819 
Q 2322 1972 1947 1972 
L 1259 1972 
L 1259 0 
L 628 0 
L 628 4666 
L 2053 4666 
Q 2853 4666 3247 4331 
Q 3641 3997 3641 3322 
Q 3641 2881 3436 2590 
Q 3231 2300 2841 2188 
z
M 1259 4147 
L 1259 2491 
L 2053 2491 
Q 2509 2491 2742 2702 
Q 2975 2913 2975 3322 
Q 2975 3731 2742 3939 
Q 2509 4147 2053 4147 
L 1259 4147 
z
" transform="scale(0.015625)"/>
       <path id="DejaVuSans-71" d="M 947 1747 
Q 947 1113 1208 752 
Q 1469 391 1925 391 
Q 2381 391 2643 752 
Q 2906 1113 2906 1747 
Q 2906 2381 2643 2742 
Q 2381 3103 1925 3103 
Q 1469 3103 1208 2742 
Q 947 2381 947 1747 
z
M 2906 525 
Q 2725 213 2448 61 
Q 2172 -91 1784 -91 
Q 1150 -91 751 415 
Q 353 922 353 1747 
Q 353 2572 751 3078 
Q 1150 3584 1784 3584 
Q 2172 3584 2448 3432 
Q 2725 3281 2906 2969 
L 2906 3500 
L 3481 3500 
L 3481 -1331 
L 2906 -1331 
L 2906 525 
z
" transform="scale(0.015625)"/>
       <path id="DejaVuSans-75" d="M 544 1381 
L 544 3500 
L 1119 3500 
L 1119 1403 
Q 1119 906 1312 657 
Q 1506 409 1894 409 
Q 2359 409 2629 706 
Q 2900 1003 2900 1516 
L 2900 3500 
L 3475 3500 
L 3475 0 
L 2900 0 
L 2900 538 
Q 2691 219 2414 64 
Q 2138 -91 1772 -91 
Q 1169 -91 856 284 
Q 544 659 544 1381 
z
M 1991 3584 
L 1991 3584 
z
" transform="scale(0.015625)"/>
       <path id="DejaVuSans-2f" d="M 1625 4666 
L 2156 4666 
L 531 -594 
L 0 -594 
L 1625 4666 
z
" transform="scale(0.015625)"/>
      </defs>
      <use xlink:href="#DejaVuSans-52"/>
      <use xlink:href="#DejaVuSans-65" transform="translate(64.982422 0)"/>
      <use xlink:href="#DejaVuSans-71" transform="translate(126.505859 0)"/>
      <use xlink:href="#DejaVuSans-75" transform="translate(189.982422 0)"/>
      <use xlink:href="#DejaVuSans-65" transform="translate(253.361328 0)"/>
      <use xlink:href="#DejaVuSans-73" transform="translate(314.884766 0)"/>
      <use xlink:href="#DejaVuSans-74" transform="translate(366.984375 0)"/>
      <use xlink:href="#DejaVuSans-73" transform="translate(406.193359 0)"/>
      <use xlink:href="#DejaVuSans-2f" transform="translate(458.292969 0)"/>
      <use xlink:href="#DejaVuSans-73" transform="translate(491.984375 0)"/>
      <use xlink:href="#DejaVuSans-65" transform="translate(544.083984 0)"/>
      <use xlink:href="#DejaVuSans-63" transform="translate(605.607422 0)"/>
     </g>
    </g>
   </g>
   <g id="line2d_13">
    <path d="M 93.885 234.045158 
L 95.555485 236.078182 
L 97.225971 236.078182 
L 98.896456 234.045158 
L 102.237427 234.045158 
L 103.907913 232.012134 
L 107.248883 232.012134 
L 108.919369 229.979109 
L 112.26034 229.979109 
L 113.930825 227.946085 
L 117.271796 227.946085 
L 118.942282 225.913061 
L 122.283252 225.913061 
L 123.953738 223.880037 
L 127.294709 223.880037 
L 128.965194 221.847013 
L 132.306165 221.847013 
L 133.97665 219.813989 
L 137.317621 219.813989 
L 138.988107 217.780965 
L 142.329078 217.780965 
L 143.999563 215.747941 
L 147.340534 215.747941 
L 149.011019 213.714917 
L 152.35199 213.714917 
L 154.022476 211.681892 
L 159.033932 211.681892 
L 160.704417 213.714917 
L 162.374903 209.648868 
L 164.045388 207.615844 
L 165.715874 209.648868 
L 169.056845 205.58282 
L 172.397816 205.58282 
L 174.068301 203.549796 
L 175.738786 203.549796 
L 177.409272 205.58282 
L 179.079757 201.516772 
L 180.750243 203.549796 
L 182.420728 203.549796 
L 185.761699 199.483748 
L 187.432184 199.483748 
L 189.10267 197.450724 
L 190.773155 197.450724 
L 192.443641 199.483748 
L 194.114126 195.417699 
L 195.784612 197.450724 
L 199.125583 193.384675 
L 200.796068 195.417699 
L 202.466553 193.384675 
L 207.47801 193.384675 
L 209.148495 191.351651 
L 210.818981 191.351651 
L 214.159951 187.285603 
L 217.500922 187.285603 
L 219.171408 185.252579 
L 220.841893 185.252579 
L 222.512379 189.318627 
L 224.182864 187.285603 
L 225.85335 187.285603 
L 227.523835 185.252579 
L 229.19432 181.186531 
L 230.864806 183.219555 
L 234.205777 179.153506 
L 237.546748 179.153506 
L 239.217233 177.120482 
L 247.56966 177.120482 
L 249.240146 173.054434 
L 250.910631 175.087458 
L 252.581117 173.054434 
L 254.251602 173.054434 
L 255.922087 171.02141 
L 259.263058 175.087458 
L 260.933544 171.02141 
L 262.604029 173.054434 
L 267.615485 166.955362 
L 269.285971 168.988386 
L 270.956456 164.922338 
L 272.626942 166.955362 
L 275.967913 162.889314 
L 279.308883 162.889314 
L 280.979369 160.856289 
L 282.649854 164.922338 
L 284.32034 158.823265 
L 285.990825 162.889314 
L 287.661311 160.856289 
L 291.002282 160.856289 
L 292.672767 158.823265 
L 294.343252 158.823265 
L 296.013738 156.790241 
L 299.354709 156.790241 
L 301.025194 154.757217 
L 302.69568 154.757217 
L 304.366165 150.691169 
L 306.03665 152.724193 
L 307.707136 150.691169 
L 309.377621 150.691169 
L 311.048107 148.658145 
L 312.718592 150.691169 
L 314.389078 146.625121 
L 316.059563 148.658145 
L 317.730049 148.658145 
L 319.400534 150.691169 
L 321.071019 150.691169 
L 322.741505 148.658145 
L 324.41199 142.559072 
L 326.082476 142.559072 
L 327.752961 144.592096 
L 329.423447 144.592096 
L 331.093932 146.625121 
L 332.764417 144.592096 
L 334.434903 146.625121 
L 336.105388 140.526048 
L 337.775874 138.493024 
L 342.78733 138.493024 
L 346.128301 134.426976 
L 347.798786 134.426976 
L 349.469272 136.46 
L 352.810243 132.393952 
L 354.480728 132.393952 
L 356.151214 136.46 
L 357.821699 134.426976 
L 359.492184 134.426976 
L 361.16267 130.360928 
L 362.833155 132.393952 
L 364.503641 132.393952 
L 366.174126 128.327904 
L 367.844612 126.294879 
L 369.515097 130.360928 
L 371.185583 124.261855 
L 372.856068 130.360928 
L 374.526553 128.327904 
L 376.197039 128.327904 
L 379.53801 124.261855 
L 381.208495 124.261855 
L 382.878981 120.195807 
L 384.549466 124.261855 
L 386.219951 122.228831 
L 387.890437 118.162783 
L 389.560922 120.195807 
L 391.231408 120.195807 
L 392.901893 118.162783 
L 394.572379 118.162783 
L 396.242864 120.195807 
L 397.91335 114.096735 
L 399.583835 114.096735 
L 401.25432 112.063711 
L 402.924806 112.063711 
L 404.595291 118.162783 
L 407.936262 110.030686 
L 409.606748 112.063711 
L 411.277233 118.162783 
L 412.947718 114.096735 
L 414.618204 112.063711 
L 416.288689 112.063711 
L 417.959175 107.997662 
L 419.62966 107.997662 
L 421.300146 105.964638 
L 422.970631 110.030686 
L 424.641117 110.030686 
L 426.311602 105.964638 
L 427.982087 107.997662 
L 429.652573 105.964638 
L 431.323058 107.997662 
L 434.664029 99.865566 
L 436.334515 97.832542 
L 439.675485 97.832542 
L 441.345971 95.799518 
L 443.016456 110.030686 
L 444.686942 95.799518 
L 446.357427 107.997662 
L 449.698398 95.799518 
L 451.368883 97.832542 
L 453.039369 95.799518 
L 454.709854 91.733469 
L 456.38034 93.766494 
L 458.050825 93.766494 
L 459.721311 95.799518 
L 461.391796 101.89859 
L 463.062282 99.865566 
L 464.732767 93.766494 
L 466.403252 89.700445 
L 468.073738 93.766494 
L 469.744223 89.700445 
L 471.414709 83.601373 
L 473.085194 83.601373 
L 474.75568 85.634397 
L 476.426165 81.568349 
L 478.09665 87.667421 
L 479.767136 87.667421 
L 481.437621 85.634397 
L 483.108107 87.667421 
L 484.778592 83.601373 
L 486.449078 83.601373 
L 488.119563 81.568349 
L 489.790049 85.634397 
L 491.460534 79.535325 
L 493.131019 75.469276 
L 494.801505 89.700445 
L 496.47199 79.535325 
L 498.142476 75.469276 
L 499.812961 75.469276 
L 501.483447 73.436252 
L 503.153932 77.502301 
L 506.494903 73.436252 
L 508.165388 75.469276 
L 509.835874 75.469276 
L 511.506359 71.403228 
L 513.176845 75.469276 
L 514.84733 71.403228 
L 516.517816 73.436252 
L 518.188301 77.502301 
L 519.858786 73.436252 
L 521.529272 79.535325 
L 523.199757 67.33718 
L 524.870243 67.33718 
L 526.540728 69.370204 
L 528.211214 73.436252 
L 529.881699 69.370204 
L 531.552184 63.271132 
L 534.893155 71.403228 
L 536.563641 67.33718 
L 538.234126 65.304156 
L 539.904612 69.370204 
L 541.575097 57.172059 
L 544.916068 65.304156 
L 546.586553 65.304156 
L 548.257039 63.271132 
L 549.927524 59.205083 
L 551.59801 59.205083 
L 553.268495 55.139035 
L 554.938981 57.172059 
L 558.279951 57.172059 
L 559.950437 71.403228 
L 561.620922 57.172059 
L 563.291408 53.106011 
L 564.961893 57.172059 
L 566.632379 55.139035 
L 568.302864 63.271132 
L 569.97335 55.139035 
L 571.643835 67.33718 
L 576.655291 61.238108 
L 578.325777 57.172059 
L 579.996262 49.039963 
L 581.666748 57.172059 
L 583.337233 55.139035 
L 585.007718 47.006939 
L 586.678204 55.139035 
L 588.348689 44.973915 
L 590.019175 49.039963 
L 591.68966 49.039963 
L 593.360146 47.006939 
L 595.030631 51.072987 
L 596.701117 47.006939 
L 598.371602 53.106011 
L 600.042087 47.006939 
L 601.712573 57.172059 
L 603.383058 55.139035 
L 605.053544 47.006939 
L 606.724029 49.039963 
L 608.394515 49.039963 
L 610.065 53.106011 
L 611.735485 49.039963 
L 613.405971 55.139035 
L 615.076456 63.271132 
L 616.746942 69.370204 
L 618.417427 49.039963 
L 620.087913 51.072987 
L 621.758398 49.039963 
L 625.099369 49.039963 
L 626.769854 69.370204 
L 628.44034 53.106011 
L 631.781311 57.172059 
L 633.451796 71.403228 
L 635.122282 51.072987 
L 636.792767 51.072987 
L 638.463252 71.403228 
L 640.133738 42.940891 
L 641.804223 51.072987 
L 643.474709 49.039963 
L 646.81568 49.039963 
L 648.486165 47.006939 
L 650.15665 51.072987 
L 651.827136 47.006939 
L 653.497621 49.039963 
L 655.168107 63.271132 
L 656.838592 51.072987 
L 658.509078 49.039963 
L 660.179563 44.973915 
L 661.850049 55.139035 
L 663.520534 44.973915 
L 665.191019 49.039963 
L 666.861505 49.039963 
L 668.53199 47.006939 
L 670.202476 59.205083 
L 671.872961 53.106011 
L 673.543447 63.271132 
L 675.213932 69.370204 
L 676.884417 61.238108 
L 678.554903 49.039963 
L 680.225388 51.072987 
L 681.895874 49.039963 
L 683.566359 51.072987 
L 685.236845 44.973915 
L 686.90733 53.106011 
L 688.577816 59.205083 
L 690.248301 47.006939 
L 691.918786 55.139035 
L 693.589272 55.139035 
L 695.259757 44.973915 
L 696.930243 47.006939 
L 698.600728 51.072987 
L 700.271214 49.039963 
L 701.941699 69.370204 
L 703.612184 53.106011 
L 705.28267 47.006939 
L 706.953155 49.039963 
L 711.964612 49.039963 
L 713.635097 51.072987 
L 716.976068 47.006939 
L 718.646553 49.039963 
L 720.317039 49.039963 
L 721.987524 51.072987 
L 723.65801 47.006939 
L 725.328495 51.072987 
L 728.669466 47.006939 
L 730.339951 53.106011 
L 732.010437 55.139035 
L 733.680922 47.006939 
L 735.351408 51.072987 
L 737.021893 51.072987 
L 738.692379 47.006939 
L 740.362864 63.271132 
L 742.03335 47.006939 
L 743.703835 47.006939 
L 745.37432 53.106011 
L 747.044806 49.039963 
L 748.715291 47.006939 
L 750.385777 55.139035 
L 752.056262 55.139035 
L 753.726748 51.072987 
L 755.397233 49.039963 
L 757.067718 49.039963 
L 758.738204 47.006939 
L 760.408689 51.072987 
L 762.079175 47.006939 
L 763.74966 57.172059 
L 767.090631 49.039963 
L 768.761117 47.006939 
L 770.431602 53.106011 
L 772.102087 55.139035 
L 773.772573 55.139035 
L 777.113544 63.271132 
L 778.784029 44.973915 
L 780.454515 51.072987 
L 782.125 61.238108 
L 783.795485 49.039963 
L 787.136456 61.238108 
L 788.806942 53.106011 
L 790.477427 49.039963 
L 793.818398 49.039963 
L 795.488883 59.205083 
L 797.159369 47.006939 
L 798.829854 77.502301 
L 800.50034 51.072987 
L 802.170825 47.006939 
L 803.841311 57.172059 
L 805.511796 55.139035 
L 807.182282 51.072987 
L 808.852767 57.172059 
L 810.523252 47.006939 
L 812.193738 63.271132 
L 813.864223 55.139035 
L 815.534709 53.106011 
L 817.205194 44.973915 
L 818.87568 53.106011 
L 820.546165 47.006939 
L 822.21665 59.205083 
L 823.887136 53.106011 
L 825.557621 59.205083 
L 827.228107 53.106011 
L 828.898592 53.106011 
L 830.569078 61.238108 
L 832.239563 57.172059 
L 833.910049 51.072987 
L 835.580534 47.006939 
L 837.251019 47.006939 
L 838.921505 51.072987 
L 840.59199 49.039963 
L 842.262476 53.106011 
L 843.932961 71.403228 
L 845.603447 81.568349 
L 847.273932 49.039963 
L 848.944417 55.139035 
L 850.614903 49.039963 
L 852.285388 57.172059 
L 853.955874 57.172059 
L 855.626359 59.205083 
L 857.296845 59.205083 
L 858.96733 51.072987 
L 860.637816 49.039963 
L 863.978786 49.039963 
L 865.649272 47.006939 
L 867.319757 51.072987 
L 868.990243 47.006939 
L 872.331214 47.006939 
L 874.001699 57.172059 
L 875.672184 57.172059 
L 877.34267 59.205083 
L 879.013155 63.271132 
L 880.683641 51.072987 
L 882.354126 47.006939 
L 884.024612 49.039963 
L 885.695097 55.139035 
L 887.365583 75.469276 
L 889.036068 42.940891 
L 892.377039 63.271132 
L 894.047524 51.072987 
L 895.71801 59.205083 
L 897.388495 55.139035 
L 899.058981 59.205083 
L 900.729466 44.973915 
L 902.399951 61.238108 
L 904.070437 63.271132 
L 905.740922 49.039963 
L 907.411408 55.139035 
L 909.081893 42.940891 
L 910.752379 57.172059 
L 912.422864 57.172059 
L 914.09335 49.039963 
L 915.763835 59.205083 
L 917.43432 63.271132 
L 919.104806 44.973915 
L 924.116262 63.271132 
L 925.786748 49.039963 
L 927.457233 59.205083 
L 929.127718 51.072987 
L 930.798204 47.006939 
L 932.468689 44.973915 
L 934.139175 55.139035 
L 935.80966 44.973915 
L 937.480146 51.072987 
L 939.150631 63.271132 
L 940.821117 59.205083 
L 942.491602 65.304156 
L 944.162087 55.139035 
L 945.832573 61.238108 
L 947.503058 57.172059 
L 949.173544 57.172059 
L 950.844029 51.072987 
L 952.514515 67.33718 
L 954.185 95.799518 
L 954.185 95.799518 
" clip-path="url(#p5fd7beddea)" style="fill: none; stroke: #1f77b4; stroke-width: 1.5; stroke-linecap: square"/>
   </g>
   <g id="line2d_14">
    <path d="M 93.885 234.045158 
L 95.555485 236.078182 
L 97.225971 236.078182 
L 98.896456 234.045158 
L 102.237427 234.045158 
L 103.907913 232.012134 
L 107.248883 232.012134 
L 108.919369 229.979109 
L 112.26034 229.979109 
L 113.930825 227.946085 
L 117.271796 227.946085 
L 118.942282 225.913061 
L 122.283252 225.913061 
L 123.953738 223.880037 
L 127.294709 223.880037 
L 128.965194 221.847013 
L 130.63568 223.880037 
L 133.97665 219.813989 
L 137.317621 219.813989 
L 138.988107 217.780965 
L 142.329078 217.780965 
L 143.999563 215.747941 
L 145.670049 217.780965 
L 149.011019 213.714917 
L 150.681505 213.714917 
L 152.35199 215.747941 
L 154.022476 211.681892 
L 157.363447 211.681892 
L 159.033932 209.648868 
L 162.374903 209.648868 
L 164.045388 211.681892 
L 165.715874 207.615844 
L 167.386359 211.681892 
L 169.056845 205.58282 
L 172.397816 205.58282 
L 174.068301 209.648868 
L 175.738786 207.615844 
L 177.409272 203.549796 
L 179.079757 201.516772 
L 180.750243 205.58282 
L 182.420728 201.516772 
L 184.091214 199.483748 
L 187.432184 199.483748 
L 189.10267 197.450724 
L 190.773155 197.450724 
L 192.443641 199.483748 
L 194.114126 195.417699 
L 199.125583 195.417699 
L 200.796068 207.615844 
L 202.466553 201.516772 
L 204.137039 191.351651 
L 207.47801 191.351651 
L 209.148495 189.318627 
L 215.830437 189.318627 
L 217.500922 193.384675 
L 219.171408 187.285603 
L 220.841893 191.351651 
L 222.512379 185.252579 
L 224.182864 183.219555 
L 225.85335 183.219555 
L 229.19432 191.351651 
L 230.864806 183.219555 
L 232.535291 191.351651 
L 234.205777 181.186531 
L 235.876262 185.252579 
L 237.546748 179.153506 
L 239.217233 185.252579 
L 240.887718 177.120482 
L 242.558204 177.120482 
L 244.228689 183.219555 
L 245.899175 175.087458 
L 247.56966 179.153506 
L 249.240146 179.153506 
L 250.910631 187.285603 
L 252.581117 173.054434 
L 254.251602 171.02141 
L 255.922087 175.087458 
L 257.592573 171.02141 
L 259.263058 183.219555 
L 260.933544 175.087458 
L 262.604029 168.988386 
L 264.274515 177.120482 
L 265.945 173.054434 
L 267.615485 185.252579 
L 269.285971 168.988386 
L 270.956456 183.219555 
L 272.626942 179.153506 
L 274.297427 171.02141 
L 275.967913 175.087458 
L 277.638398 199.483748 
L 279.308883 173.054434 
L 280.979369 164.922338 
L 282.649854 173.054434 
L 284.32034 168.988386 
L 285.990825 179.153506 
L 287.661311 160.856289 
L 289.331796 183.219555 
L 291.002282 166.955362 
L 292.672767 160.856289 
L 296.013738 164.922338 
L 297.684223 179.153506 
L 299.354709 160.856289 
L 301.025194 185.252579 
L 302.69568 164.922338 
L 304.366165 185.252579 
L 306.03665 162.889314 
L 307.707136 173.054434 
L 309.377621 185.252579 
L 311.048107 158.823265 
L 312.718592 175.087458 
L 314.389078 199.483748 
L 316.059563 187.285603 
L 317.730049 185.252579 
L 319.400534 148.658145 
L 321.071019 193.384675 
L 322.741505 183.219555 
L 324.41199 199.483748 
L 326.082476 181.186531 
L 327.752961 195.417699 
L 329.423447 219.813989 
L 331.093932 150.691169 
L 332.764417 227.946085 
L 334.434903 138.493024 
L 336.105388 229.979109 
L 336.105388 229.979109 
" clip-path="url(#p5fd7beddea)" style="fill: none; stroke: #ff7f0e; stroke-width: 1.5; stroke-linecap: square"/>
   </g>
   <g id="line2d_15">
    <path d="M 93.885 234.045158 
L 97.225971 236.078182 
L 98.896456 236.078182 
L 100.566942 234.045158 
L 103.907913 234.045158 
L 105.578398 232.012134 
L 108.919369 232.012134 
L 110.589854 229.979109 
L 113.930825 229.979109 
L 115.601311 227.946085 
L 118.942282 227.946085 
L 120.612767 225.913061 
L 123.953738 225.913061 
L 125.624223 223.880037 
L 128.965194 223.880037 
L 130.63568 221.847013 
L 133.97665 221.847013 
L 135.647136 219.813989 
L 138.988107 219.813989 
L 140.658592 217.780965 
L 143.999563 217.780965 
L 145.670049 215.747941 
L 149.011019 215.747941 
L 150.681505 213.714917 
L 154.022476 213.714917 
L 155.692961 211.681892 
L 157.363447 213.714917 
L 159.033932 213.714917 
L 160.704417 209.648868 
L 164.045388 209.648868 
L 165.715874 207.615844 
L 169.056845 207.615844 
L 170.72733 205.58282 
L 177.409272 205.58282 
L 180.750243 201.516772 
L 182.420728 201.516772 
L 184.091214 203.549796 
L 185.761699 203.549796 
L 189.10267 199.483748 
L 190.773155 199.483748 
L 192.443641 197.450724 
L 195.784612 197.450724 
L 197.455097 195.417699 
L 199.125583 195.417699 
L 200.796068 193.384675 
L 204.137039 193.384675 
L 205.807524 191.351651 
L 207.47801 193.384675 
L 209.148495 191.351651 
L 210.818981 191.351651 
L 212.489466 189.318627 
L 214.159951 191.351651 
L 215.830437 187.285603 
L 219.171408 187.285603 
L 220.841893 189.318627 
L 222.512379 185.252579 
L 224.182864 185.252579 
L 225.85335 183.219555 
L 227.523835 189.318627 
L 229.19432 185.252579 
L 232.535291 181.186531 
L 235.876262 181.186531 
L 237.546748 179.153506 
L 239.217233 185.252579 
L 240.887718 179.153506 
L 244.228689 179.153506 
L 245.899175 175.087458 
L 247.56966 179.153506 
L 249.240146 177.120482 
L 250.910631 173.054434 
L 252.581117 173.054434 
L 254.251602 177.120482 
L 255.922087 171.02141 
L 259.263058 171.02141 
L 260.933544 175.087458 
L 267.615485 166.955362 
L 269.285971 168.988386 
L 270.956456 168.988386 
L 272.626942 171.02141 
L 274.297427 164.922338 
L 275.967913 162.889314 
L 277.638398 168.988386 
L 279.308883 164.922338 
L 280.979369 164.922338 
L 282.649854 173.054434 
L 284.32034 160.856289 
L 285.990825 160.856289 
L 287.661311 164.922338 
L 289.331796 158.823265 
L 291.002282 158.823265 
L 292.672767 156.790241 
L 294.343252 160.856289 
L 296.013738 154.757217 
L 297.684223 156.790241 
L 299.354709 154.757217 
L 301.025194 166.955362 
L 302.69568 154.757217 
L 304.366165 152.724193 
L 306.03665 154.757217 
L 307.707136 154.757217 
L 311.048107 150.691169 
L 312.718592 152.724193 
L 316.059563 148.658145 
L 317.730049 150.691169 
L 319.400534 146.625121 
L 321.071019 150.691169 
L 322.741505 146.625121 
L 324.41199 148.658145 
L 327.752961 144.592096 
L 329.423447 148.658145 
L 332.764417 140.526048 
L 334.434903 142.559072 
L 336.105388 140.526048 
L 337.775874 140.526048 
L 339.446359 144.592096 
L 341.116845 136.46 
L 342.78733 136.46 
L 344.457816 140.526048 
L 346.128301 136.46 
L 347.798786 136.46 
L 351.139757 140.526048 
L 352.810243 140.526048 
L 354.480728 142.559072 
L 356.151214 132.393952 
L 357.821699 130.360928 
L 359.492184 132.393952 
L 362.833155 128.327904 
L 364.503641 132.393952 
L 366.174126 146.625121 
L 367.844612 132.393952 
L 372.856068 126.294879 
L 374.526553 128.327904 
L 376.197039 122.228831 
L 377.867524 124.261855 
L 381.208495 124.261855 
L 382.878981 126.294879 
L 386.219951 126.294879 
L 387.890437 122.228831 
L 389.560922 124.261855 
L 391.231408 124.261855 
L 392.901893 118.162783 
L 394.572379 116.129759 
L 396.242864 118.162783 
L 397.91335 114.096735 
L 399.583835 120.195807 
L 401.25432 120.195807 
L 402.924806 114.096735 
L 404.595291 128.327904 
L 406.265777 114.096735 
L 407.936262 116.129759 
L 409.606748 116.129759 
L 411.277233 118.162783 
L 412.947718 112.063711 
L 414.618204 110.030686 
L 416.288689 116.129759 
L 417.959175 114.096735 
L 419.62966 114.096735 
L 421.300146 105.964638 
L 422.970631 110.030686 
L 424.641117 105.964638 
L 426.311602 110.030686 
L 427.982087 105.964638 
L 429.652573 110.030686 
L 431.323058 112.063711 
L 432.993544 101.89859 
L 434.664029 103.931614 
L 436.334515 116.129759 
L 438.005 103.931614 
L 439.675485 99.865566 
L 441.345971 103.931614 
L 443.016456 97.832542 
L 444.686942 110.030686 
L 446.357427 97.832542 
L 448.027913 95.799518 
L 449.698398 101.89859 
L 451.368883 101.89859 
L 453.039369 95.799518 
L 454.709854 114.096735 
L 456.38034 93.766494 
L 458.050825 95.799518 
L 459.721311 95.799518 
L 461.391796 101.89859 
L 463.062282 93.766494 
L 464.732767 89.700445 
L 466.403252 93.766494 
L 468.073738 112.063711 
L 469.744223 85.634397 
L 471.414709 89.700445 
L 473.085194 87.667421 
L 474.75568 110.030686 
L 476.426165 89.700445 
L 478.09665 83.601373 
L 479.767136 89.700445 
L 481.437621 107.997662 
L 483.108107 87.667421 
L 484.778592 79.535325 
L 488.119563 95.799518 
L 489.790049 79.535325 
L 491.460534 87.667421 
L 493.131019 79.535325 
L 494.801505 89.700445 
L 496.47199 87.667421 
L 498.142476 93.766494 
L 499.812961 79.535325 
L 501.483447 85.634397 
L 503.153932 71.403228 
L 504.824417 107.997662 
L 506.494903 81.568349 
L 508.165388 85.634397 
L 509.835874 83.601373 
L 513.176845 87.667421 
L 514.84733 71.403228 
L 516.517816 77.502301 
L 518.188301 77.502301 
L 519.858786 71.403228 
L 521.529272 95.799518 
L 523.199757 77.502301 
L 524.870243 91.733469 
L 526.540728 67.33718 
L 528.211214 73.436252 
L 529.881699 73.436252 
L 531.552184 77.502301 
L 533.22267 103.931614 
L 534.893155 69.370204 
L 536.563641 65.304156 
L 538.234126 63.271132 
L 539.904612 83.601373 
L 541.575097 67.33718 
L 543.245583 87.667421 
L 544.916068 63.271132 
L 546.586553 83.601373 
L 548.257039 83.601373 
L 549.927524 95.799518 
L 551.59801 75.469276 
L 553.268495 83.601373 
L 554.938981 57.172059 
L 556.609466 89.700445 
L 558.279951 67.33718 
L 559.950437 75.469276 
L 561.620922 59.205083 
L 563.291408 91.733469 
L 564.961893 53.106011 
L 566.632379 63.271132 
L 568.302864 75.469276 
L 569.97335 85.634397 
L 571.643835 55.139035 
L 573.31432 63.271132 
L 574.984806 81.568349 
L 576.655291 75.469276 
L 578.325777 73.436252 
L 579.996262 89.700445 
L 581.666748 67.33718 
L 583.337233 61.238108 
L 585.007718 69.370204 
L 586.678204 61.238108 
L 588.348689 55.139035 
L 590.019175 85.634397 
L 591.68966 69.370204 
L 593.360146 75.469276 
L 595.030631 91.733469 
L 596.701117 83.601373 
L 598.371602 57.172059 
L 600.042087 65.304156 
L 601.712573 55.139035 
L 603.383058 87.667421 
L 605.053544 57.172059 
L 606.724029 65.304156 
L 608.394515 83.601373 
L 610.065 85.634397 
L 611.735485 63.271132 
L 613.405971 67.33718 
L 615.076456 65.304156 
L 616.746942 71.403228 
L 618.417427 83.601373 
L 620.087913 51.072987 
L 621.758398 49.039963 
L 623.428883 69.370204 
L 625.099369 65.304156 
L 626.769854 44.973915 
L 628.44034 77.502301 
L 630.110825 47.006939 
L 631.781311 69.370204 
L 635.122282 81.568349 
L 636.792767 65.304156 
L 638.463252 67.33718 
L 640.133738 44.973915 
L 641.804223 61.238108 
L 643.474709 65.304156 
L 645.145194 79.535325 
L 646.81568 65.304156 
L 648.486165 49.039963 
L 650.15665 61.238108 
L 651.827136 69.370204 
L 653.497621 65.304156 
L 655.168107 51.072987 
L 656.838592 91.733469 
L 658.509078 59.205083 
L 660.179563 63.271132 
L 661.850049 47.006939 
L 663.520534 65.304156 
L 665.191019 59.205083 
L 666.861505 61.238108 
L 668.53199 69.370204 
L 670.202476 69.370204 
L 671.872961 65.304156 
L 673.543447 79.535325 
L 676.884417 67.33718 
L 678.554903 55.139035 
L 680.225388 67.33718 
L 681.895874 87.667421 
L 683.566359 77.502301 
L 685.236845 61.238108 
L 686.90733 71.403228 
L 688.577816 67.33718 
L 690.248301 59.205083 
L 691.918786 73.436252 
L 693.589272 42.940891 
L 695.259757 61.238108 
L 696.930243 55.139035 
L 698.600728 67.33718 
L 701.941699 63.271132 
L 703.612184 77.502301 
L 705.28267 61.238108 
L 706.953155 67.33718 
L 708.623641 53.106011 
L 710.294126 71.403228 
L 711.964612 75.469276 
L 713.635097 36.841818 
L 715.305583 87.667421 
L 716.976068 71.403228 
L 718.646553 73.436252 
L 720.317039 63.271132 
L 721.987524 61.238108 
L 723.65801 57.172059 
L 725.328495 93.766494 
L 726.998981 49.039963 
L 728.669466 101.89859 
L 730.339951 77.502301 
L 732.010437 89.700445 
L 733.680922 77.502301 
L 735.351408 77.502301 
L 737.021893 69.370204 
L 738.692379 81.568349 
L 740.362864 67.33718 
L 742.03335 47.006939 
L 743.703835 59.205083 
L 745.37432 51.072987 
L 747.044806 79.535325 
L 748.715291 63.271132 
L 750.385777 73.436252 
L 752.056262 59.205083 
L 753.726748 79.535325 
L 755.397233 61.238108 
L 757.067718 79.535325 
L 758.738204 59.205083 
L 760.408689 71.403228 
L 762.079175 81.568349 
L 763.74966 79.535325 
L 765.420146 73.436252 
L 767.090631 65.304156 
L 768.761117 73.436252 
L 770.431602 71.403228 
L 772.102087 89.700445 
L 773.772573 81.568349 
L 775.443058 97.832542 
L 777.113544 81.568349 
L 778.784029 69.370204 
L 780.454515 63.271132 
L 782.125 59.205083 
L 783.795485 75.469276 
L 785.465971 75.469276 
L 787.136456 59.205083 
L 788.806942 61.238108 
L 790.477427 69.370204 
L 792.147913 71.403228 
L 793.818398 47.006939 
L 795.488883 83.601373 
L 797.159369 57.172059 
L 798.829854 61.238108 
L 800.50034 73.436252 
L 802.170825 67.33718 
L 803.841311 77.502301 
L 805.511796 69.370204 
L 807.182282 81.568349 
L 808.852767 57.172059 
L 810.523252 81.568349 
L 812.193738 53.106011 
L 813.864223 85.634397 
L 815.534709 65.304156 
L 817.205194 93.766494 
L 818.87568 55.139035 
L 820.546165 59.205083 
L 822.21665 55.139035 
L 823.887136 57.172059 
L 825.557621 51.072987 
L 827.228107 57.172059 
L 828.898592 83.601373 
L 830.569078 49.039963 
L 832.239563 59.205083 
L 833.910049 44.973915 
L 835.580534 89.700445 
L 837.251019 55.139035 
L 838.921505 69.370204 
L 840.59199 73.436252 
L 842.262476 67.33718 
L 843.932961 83.601373 
L 845.603447 69.370204 
L 847.273932 81.568349 
L 848.944417 77.502301 
L 850.614903 69.370204 
L 852.285388 81.568349 
L 853.955874 59.205083 
L 855.626359 69.370204 
L 857.296845 69.370204 
L 858.96733 77.502301 
L 860.637816 63.271132 
L 862.308301 63.271132 
L 863.978786 61.238108 
L 865.649272 57.172059 
L 867.319757 81.568349 
L 868.990243 142.559072 
L 868.990243 142.559072 
" clip-path="url(#p5fd7beddea)" style="fill: none; stroke: #2ca02c; stroke-width: 1.5; stroke-linecap: square"/>
   </g>
   <g id="patch_3">
    <path d="M 50.87 246.04 
L 50.87 26.88 
" style="fill: none; stroke: #000000; stroke-width: 0.8; stroke-linejoin: miter; stroke-linecap: square"/>
   </g>
   <g id="patch_4">
    <path d="M 997.2 246.04 
L 997.2 26.88 
" style="fill: none; stroke: #000000; stroke-width: 0.8; stroke-linejoin: miter; stroke-linecap: square"/>
   </g>
   <g id="patch_5">
    <path d="M 50.87 246.04 
L 997.2 246.04 
" style="fill: none; stroke: #000000; stroke-width: 0.8; stroke-linejoin: miter; stroke-linecap: square"/>
   </g>
   <g id="patch_6">
    <path d="M 50.87 26.88 
L 997.2 26.88 
" style="fill: none; stroke: #000000; stroke-width: 0.8; stroke-linejoin: miter; stroke-linecap: square"/>
   </g>
   <g id="text_15">
    <!-- Number of Requests per Second -->
    <g transform="translate(426.972812 20.88) scale(0.12 -0.12)">
     <defs>
      <path id="DejaVuSans-4e" d="M 628 4666 
L 1478 4666 
L 3547 763 
L 3547 4666 
L 4159 4666 
L 4159 0 
L 3309 0 
L 1241 3903 
L 1241 0 
L 628 0 
L 628 4666 
z
" transform="scale(0.015625)"/>
      <path id="DejaVuSans-62" d="M 3116 1747 
Q 3116 2381 2855 2742 
Q 2594 3103 2138 3103 
Q 1681 3103 1420 2742 
Q 1159 2381 1159 1747 
Q 1159 1113 1420 752 
Q 1681 391 2138 391 
Q 2594 391 2855 752 
Q 3116 1113 3116 1747 
z
M 1159 2969 
Q 1341 3281 1617 3432 
Q 1894 3584 2278 3584 
Q 2916 3584 3314 3078 
Q 3713 2572 3713 1747 
Q 3713 922 3314 415 
Q 2916 -91 2278 -91 
Q 1894 -91 1617 61 
Q 1341 213 1159 525 
L 1159 0 
L 581 0 
L 581 4863 
L 1159 4863 
L 1159 2969 
z
" transform="scale(0.015625)"/>
      <path id="DejaVuSans-72" d="M 2631 2963 
Q 2534 3019 2420 3045 
Q 2306 3072 2169 3072 
Q 1681 3072 1420 2755 
Q 1159 2438 1159 1844 
L 1159 0 
L 581 0 
L 581 3500 
L 1159 3500 
L 1159 2956 
Q 1341 3275 1631 3429 
Q 1922 3584 2338 3584 
Q 2397 3584 2469 3576 
Q 2541 3569 2628 3553 
L 2631 2963 
z
" transform="scale(0.015625)"/>
      <path id="DejaVuSans-66" d="M 2375 4863 
L 2375 4384 
L 1825 4384 
Q 1516 4384 1395 4259 
Q 1275 4134 1275 3809 
L 1275 3500 
L 2222 3500 
L 2222 3053 
L 1275 3053 
L 1275 0 
L 697 0 
L 697 3053 
L 147 3053 
L 147 3500 
L 697 3500 
L 697 3744 
Q 697 4328 969 4595 
Q 1241 4863 1831 4863 
L 2375 4863 
z
" transform="scale(0.015625)"/>
     </defs>
     <use xlink:href="#DejaVuSans-4e"/>
     <use xlink:href="#DejaVuSans-75" transform="translate(74.804688 0)"/>
     <use xlink:href="#DejaVuSans-6d" transform="translate(138.183594 0)"/>
     <use xlink:href="#DejaVuSans-62" transform="translate(235.595703 0)"/>
     <use xlink:href="#DejaVuSans-65" transform="translate(299.072266 0)"/>
     <use xlink:href="#DejaVuSans-72" transform="translate(360.595703 0)"/>
     <use xlink:href="#DejaVuSans-20" transform="translate(401.708984 0)"/>
     <use xlink:href="#DejaVuSans-6f" transform="translate(433.496094 0)"/>
     <use xlink:href="#DejaVuSans-66" transform="translate(494.677734 0)"/>
     <use xlink:href="#DejaVuSans-20" transform="translate(529.882812 0)"/>
     <use xlink:href="#DejaVuSans-52" transform="translate(561.669922 0)"/>
     <use xlink:href="#DejaVuSans-65" transform="translate(626.652344 0)"/>
     <use xlink:href="#DejaVuSans-71" transform="translate(688.175781 0)"/>
     <use xlink:href="#DejaVuSans-75" transform="translate(751.652344 0)"/>
     <use xlink:href="#DejaVuSans-65" transform="translate(815.03125 0)"/>
     <use xlink:href="#DejaVuSans-73" transform="translate(876.554688 0)"/>
     <use xlink:href="#DejaVuSans-74" transform="translate(928.654297 0)"/>
     <use xlink:href="#DejaVuSans-73" transform="translate(967.863281 0)"/>
     <use xlink:href="#DejaVuSans-20" transform="translate(1019.962891 0)"/>
     <use xlink:href="#DejaVuSans-70" transform="translate(1051.75 0)"/>
     <use xlink:href="#DejaVuSans-65" transform="translate(1115.226562 0)"/>
     <use xlink:href="#DejaVuSans-72" transform="translate(1176.75 0)"/>
     <use xlink:href="#DejaVuSans-20" transform="translate(1217.863281 0)"/>
     <use xlink:href="#DejaVuSans-53" transform="translate(1249.650391 0)"/>
     <use xlink:href="#DejaVuSans-65" transform="translate(1313.126953 0)"/>
     <use xlink:href="#DejaVuSans-63" transform="translate(1374.650391 0)"/>
     <use xlink:href="#DejaVuSans-6f" transform="translate(1429.630859 0)"/>
     <use xlink:href="#DejaVuSans-6e" transform="translate(1490.8125 0)"/>
     <use xlink:href="#DejaVuSans-64" transform="translate(1554.191406 0)"/>
    </g>
   </g>
   <g id="legend_1">
    <g id="patch_7">
     <path d="M 57.87 78.914375 
L 191.21375 78.914375 
Q 193.21375 78.914375 193.21375 76.914375 
L 193.21375 33.88 
Q 193.21375 31.88 191.21375 31.88 
L 57.87 31.88 
Q 55.87 31.88 55.87 33.88 
L 55.87 76.914375 
Q 55.87 78.914375 57.87 78.914375 
z
" style="fill: #ffffff; opacity: 0.8; stroke: #cccccc; stroke-linejoin: miter"/>
    </g>
    <g id="line2d_16">
     <path d="M 59.87 39.978438 
L 69.87 39.978438 
L 79.87 39.978438 
" style="fill: none; stroke: #1f77b4; stroke-width: 1.5; stroke-linecap: square"/>
    </g>
    <g id="text_16">
     <!-- Single Large Results -->
     <g transform="translate(87.87 43.478438) scale(0.1 -0.1)">
      <defs>
       <path id="DejaVuSans-67" d="M 2906 1791 
Q 2906 2416 2648 2759 
Q 2391 3103 1925 3103 
Q 1463 3103 1205 2759 
Q 947 2416 947 1791 
Q 947 1169 1205 825 
Q 1463 481 1925 481 
Q 2391 481 2648 825 
Q 2906 1169 2906 1791 
z
M 3481 434 
Q 3481 -459 3084 -895 
Q 2688 -1331 1869 -1331 
Q 1566 -1331 1297 -1286 
Q 1028 -1241 775 -1147 
L 775 -588 
Q 1028 -725 1275 -790 
Q 1522 -856 1778 -856 
Q 2344 -856 2625 -561 
Q 2906 -266 2906 331 
L 2906 616 
Q 2728 306 2450 153 
Q 2172 0 1784 0 
Q 1141 0 747 490 
Q 353 981 353 1791 
Q 353 2603 747 3093 
Q 1141 3584 1784 3584 
Q 2172 3584 2450 3431 
Q 2728 3278 2906 2969 
L 2906 3500 
L 3481 3500 
L 3481 434 
z
" transform="scale(0.015625)"/>
       <path id="DejaVuSans-6c" d="M 603 4863 
L 1178 4863 
L 1178 0 
L 603 0 
L 603 4863 
z
" transform="scale(0.015625)"/>
       <path id="DejaVuSans-4c" d="M 628 4666 
L 1259 4666 
L 1259 531 
L 3531 531 
L 3531 0 
L 628 0 
L 628 4666 
z
" transform="scale(0.015625)"/>
      </defs>
      <use xlink:href="#DejaVuSans-53"/>
      <use xlink:href="#DejaVuSans-69" transform="translate(63.476562 0)"/>
      <use xlink:href="#DejaVuSans-6e" transform="translate(91.259766 0)"/>
      <use xlink:href="#DejaVuSans-67" transform="translate(154.638672 0)"/>
      <use xlink:href="#DejaVuSans-6c" transform="translate(218.115234 0)"/>
      <use xlink:href="#DejaVuSans-65" transform="translate(245.898438 0)"/>
      <use xlink:href="#DejaVuSans-20" transform="translate(307.421875 0)"/>
      <use xlink:href="#DejaVuSans-4c" transform="translate(339.208984 0)"/>
      <use xlink:href="#DejaVuSans-61" transform="translate(394.921875 0)"/>
      <use xlink:href="#DejaVuSans-72" transform="translate(456.201172 0)"/>
      <use xlink:href="#DejaVuSans-67" transform="translate(495.564453 0)"/>
      <use xlink:href="#DejaVuSans-65" transform="translate(559.041016 0)"/>
      <use xlink:href="#DejaVuSans-20" transform="translate(620.564453 0)"/>
      <use xlink:href="#DejaVuSans-52" transform="translate(652.351562 0)"/>
      <use xlink:href="#DejaVuSans-65" transform="translate(717.333984 0)"/>
      <use xlink:href="#DejaVuSans-73" transform="translate(778.857422 0)"/>
      <use xlink:href="#DejaVuSans-75" transform="translate(830.957031 0)"/>
      <use xlink:href="#DejaVuSans-6c" transform="translate(894.335938 0)"/>
      <use xlink:href="#DejaVuSans-74" transform="translate(922.119141 0)"/>
      <use xlink:href="#DejaVuSans-73" transform="translate(961.328125 0)"/>
     </g>
    </g>
    <g id="line2d_17">
     <path d="M 59.87 54.656563 
L 69.87 54.656563 
L 79.87 54.656563 
" style="fill: none; stroke: #ff7f0e; stroke-width: 1.5; stroke-linecap: square"/>
    </g>
    <g id="text_17">
     <!-- Single Small Results -->
     <g transform="translate(87.87 58.156563) scale(0.1 -0.1)">
      <use xlink:href="#DejaVuSans-53"/>
      <use xlink:href="#DejaVuSans-69" transform="translate(63.476562 0)"/>
      <use xlink:href="#DejaVuSans-6e" transform="translate(91.259766 0)"/>
      <use xlink:href="#DejaVuSans-67" transform="translate(154.638672 0)"/>
      <use xlink:href="#DejaVuSans-6c" transform="translate(218.115234 0)"/>
      <use xlink:href="#DejaVuSans-65" transform="translate(245.898438 0)"/>
      <use xlink:href="#DejaVuSans-20" transform="translate(307.421875 0)"/>
      <use xlink:href="#DejaVuSans-53" transform="translate(339.208984 0)"/>
      <use xlink:href="#DejaVuSans-6d" transform="translate(402.685547 0)"/>
      <use xlink:href="#DejaVuSans-61" transform="translate(500.097656 0)"/>
      <use xlink:href="#DejaVuSans-6c" transform="translate(561.376953 0)"/>
      <use xlink:href="#DejaVuSans-6c" transform="translate(589.160156 0)"/>
      <use xlink:href="#DejaVuSans-20" transform="translate(616.943359 0)"/>
      <use xlink:href="#DejaVuSans-52" transform="translate(648.730469 0)"/>
      <use xlink:href="#DejaVuSans-65" transform="translate(713.712891 0)"/>
      <use xlink:href="#DejaVuSans-73" transform="translate(775.236328 0)"/>
      <use xlink:href="#DejaVuSans-75" transform="translate(827.335938 0)"/>
      <use xlink:href="#DejaVuSans-6c" transform="translate(890.714844 0)"/>
      <use xlink:href="#DejaVuSans-74" transform="translate(918.498047 0)"/>
      <use xlink:href="#DejaVuSans-73" transform="translate(957.707031 0)"/>
     </g>
    </g>
    <g id="line2d_18">
     <path d="M 59.87 69.334688 
L 69.87 69.334688 
L 79.87 69.334688 
" style="fill: none; stroke: #2ca02c; stroke-width: 1.5; stroke-linecap: square"/>
    </g>
    <g id="text_18">
     <!-- Multi Results -->
     <g transform="translate(87.87 72.834688) scale(0.1 -0.1)">
      <defs>
       <path id="DejaVuSans-4d" d="M 628 4666 
L 1569 4666 
L 2759 1491 
L 3956 4666 
L 4897 4666 
L 4897 0 
L 4281 0 
L 4281 4097 
L 3078 897 
L 2444 897 
L 1241 4097 
L 1241 0 
L 628 0 
L 628 4666 
z
" transform="scale(0.015625)"/>
      </defs>
      <use xlink:href="#DejaVuSans-4d"/>
      <use xlink:href="#DejaVuSans-75" transform="translate(86.279297 0)"/>
      <use xlink:href="#DejaVuSans-6c" transform="translate(149.658203 0)"/>
      <use xlink:href="#DejaVuSans-74" transform="translate(177.441406 0)"/>
      <use xlink:href="#DejaVuSans-69" transform="translate(216.650391 0)"/>
      <use xlink:href="#DejaVuSans-20" transform="translate(244.433594 0)"/>
      <use xlink:href="#DejaVuSans-52" transform="translate(276.220703 0)"/>
      <use xlink:href="#DejaVuSans-65" transform="translate(341.203125 0)"/>
      <use xlink:href="#DejaVuSans-73" transform="translate(402.726562 0)"/>
      <use xlink:href="#DejaVuSans-75" transform="translate(454.826172 0)"/>
      <use xlink:href="#DejaVuSans-6c" transform="translate(518.205078 0)"/>
      <use xlink:href="#DejaVuSans-74" transform="translate(545.988281 0)"/>
      <use xlink:href="#DejaVuSans-73" transform="translate(585.197266 0)"/>
     </g>
    </g>
   </g>
  </g>
 </g>
 <defs>
  <clipPath id="p5fd7beddea">
   <rect x="50.87" y="26.88" width="946.33" height="219.16"/>
  </clipPath>
 </defs>
</svg>
