<?xml version="1.0" encoding="utf-8" standalone="no"?>
<!DOCTYPE svg PUBLIC "-//W3C//DTD SVG 1.1//EN"
  "http://www.w3.org/Graphics/SVG/1.1/DTD/svg11.dtd">
<svg xmlns:xlink="http://www.w3.org/1999/xlink" width="1008pt" height="288pt" viewBox="0 0 1008 288" xmlns="http://www.w3.org/2000/svg" version="1.1">
 <metadata>
  <rdf:RDF xmlns:dc="http://purl.org/dc/elements/1.1/" xmlns:cc="http://creativecommons.org/ns#" xmlns:rdf="http://www.w3.org/1999/02/22-rdf-syntax-ns#">
   <cc:Work>
    <dc:type rdf:resource="http://purl.org/dc/dcmitype/StillImage"/>
    <dc:date>2025-05-31T16:17:50.732752</dc:date>
    <dc:format>image/svg+xml</dc:format>
    <dc:creator>
     <cc:Agent>
      <dc:title>Matplotlib v3.10.1, https://matplotlib.org/</dc:title>
     </cc:Agent>
    </dc:creator>
   </cc:Work>
  </rdf:RDF>
 </metadata>
 <defs>
  <style type="text/css">*{stroke-linejoin: round; stroke-linecap: butt}</style>
 </defs>
 <g id="figure_1">
  <g id="patch_1">
   <path d="M 0 288 
L 1008 288 
L 1008 0 
L 0 0 
z
" style="fill: #ffffff"/>
  </g>
  <g id="axes_1">
   <g id="patch_2">
    <path d="M 50.87 246.04 
L 997.2 246.04 
L 997.2 26.88 
L 50.87 26.88 
z
" style="fill: #ffffff"/>
   </g>
   <g id="matplotlib.axis_1">
    <g id="xtick_1">
     <g id="line2d_1">
      <defs>
       <path id="m40e39856ce" d="M 0 0 
L 0 3.5 
" style="stroke: #000000; stroke-width: 0.8"/>
      </defs>
      <g>
       <use xlink:href="#m40e39856ce" x="93.885" y="246.04" style="stroke: #000000; stroke-width: 0.8"/>
      </g>
     </g>
     <g id="text_1">
      <!-- 0 -->
      <g transform="translate(90.70375 260.638438) scale(0.1 -0.1)">
       <defs>
        <path id="DejaVuSans-30" d="M 2034 4250 
Q 1547 4250 1301 3770 
Q 1056 3291 1056 2328 
Q 1056 1369 1301 889 
Q 1547 409 2034 409 
Q 2525 409 2770 889 
Q 3016 1369 3016 2328 
Q 3016 3291 2770 3770 
Q 2525 4250 2034 4250 
z
M 2034 4750 
Q 2819 4750 3233 4129 
Q 3647 3509 3647 2328 
Q 3647 1150 3233 529 
Q 2819 -91 2034 -91 
Q 1250 -91 836 529 
Q 422 1150 422 2328 
Q 422 3509 836 4129 
Q 1250 4750 2034 4750 
z
" transform="scale(0.015625)"/>
       </defs>
       <use xlink:href="#DejaVuSans-30"/>
      </g>
     </g>
    </g>
    <g id="xtick_2">
     <g id="line2d_2">
      <g>
       <use xlink:href="#m40e39856ce" x="303.203735" y="246.04" style="stroke: #000000; stroke-width: 0.8"/>
      </g>
     </g>
     <g id="text_2">
      <!-- 100 -->
      <g transform="translate(293.659985 260.638438) scale(0.1 -0.1)">
       <defs>
        <path id="DejaVuSans-31" d="M 794 531 
L 1825 531 
L 1825 4091 
L 703 3866 
L 703 4441 
L 1819 4666 
L 2450 4666 
L 2450 531 
L 3481 531 
L 3481 0 
L 794 0 
L 794 531 
z
" transform="scale(0.015625)"/>
       </defs>
       <use xlink:href="#DejaVuSans-31"/>
       <use xlink:href="#DejaVuSans-30" transform="translate(63.623047 0)"/>
       <use xlink:href="#DejaVuSans-30" transform="translate(127.246094 0)"/>
      </g>
     </g>
    </g>
    <g id="xtick_3">
     <g id="line2d_3">
      <g>
       <use xlink:href="#m40e39856ce" x="512.52247" y="246.04" style="stroke: #000000; stroke-width: 0.8"/>
      </g>
     </g>
     <g id="text_3">
      <!-- 200 -->
      <g transform="translate(502.97872 260.638438) scale(0.1 -0.1)">
       <defs>
        <path id="DejaVuSans-32" d="M 1228 531 
L 3431 531 
L 3431 0 
L 469 0 
L 469 531 
Q 828 903 1448 1529 
Q 2069 2156 2228 2338 
Q 2531 2678 2651 2914 
Q 2772 3150 2772 3378 
Q 2772 3750 2511 3984 
Q 2250 4219 1831 4219 
Q 1534 4219 1204 4116 
Q 875 4013 500 3803 
L 500 4441 
Q 881 4594 1212 4672 
Q 1544 4750 1819 4750 
Q 2544 4750 2975 4387 
Q 3406 4025 3406 3419 
Q 3406 3131 3298 2873 
Q 3191 2616 2906 2266 
Q 2828 2175 2409 1742 
Q 1991 1309 1228 531 
z
" transform="scale(0.015625)"/>
       </defs>
       <use xlink:href="#DejaVuSans-32"/>
       <use xlink:href="#DejaVuSans-30" transform="translate(63.623047 0)"/>
       <use xlink:href="#DejaVuSans-30" transform="translate(127.246094 0)"/>
      </g>
     </g>
    </g>
    <g id="xtick_4">
     <g id="line2d_4">
      <g>
       <use xlink:href="#m40e39856ce" x="721.841204" y="246.04" style="stroke: #000000; stroke-width: 0.8"/>
      </g>
     </g>
     <g id="text_4">
      <!-- 300 -->
      <g transform="translate(712.297454 260.638438) scale(0.1 -0.1)">
       <defs>
        <path id="DejaVuSans-33" d="M 2597 2516 
Q 3050 2419 3304 2112 
Q 3559 1806 3559 1356 
Q 3559 666 3084 287 
Q 2609 -91 1734 -91 
Q 1441 -91 1130 -33 
Q 819 25 488 141 
L 488 750 
Q 750 597 1062 519 
Q 1375 441 1716 441 
Q 2309 441 2620 675 
Q 2931 909 2931 1356 
Q 2931 1769 2642 2001 
Q 2353 2234 1838 2234 
L 1294 2234 
L 1294 2753 
L 1863 2753 
Q 2328 2753 2575 2939 
Q 2822 3125 2822 3475 
Q 2822 3834 2567 4026 
Q 2313 4219 1838 4219 
Q 1578 4219 1281 4162 
Q 984 4106 628 3988 
L 628 4550 
Q 988 4650 1302 4700 
Q 1616 4750 1894 4750 
Q 2613 4750 3031 4423 
Q 3450 4097 3450 3541 
Q 3450 3153 3228 2886 
Q 3006 2619 2597 2516 
z
" transform="scale(0.015625)"/>
       </defs>
       <use xlink:href="#DejaVuSans-33"/>
       <use xlink:href="#DejaVuSans-30" transform="translate(63.623047 0)"/>
       <use xlink:href="#DejaVuSans-30" transform="translate(127.246094 0)"/>
      </g>
     </g>
    </g>
    <g id="xtick_5">
     <g id="line2d_5">
      <g>
       <use xlink:href="#m40e39856ce" x="931.159939" y="246.04" style="stroke: #000000; stroke-width: 0.8"/>
      </g>
     </g>
     <g id="text_5">
      <!-- 400 -->
      <g transform="translate(921.616189 260.638438) scale(0.1 -0.1)">
       <defs>
        <path id="DejaVuSans-34" d="M 2419 4116 
L 825 1625 
L 2419 1625 
L 2419 4116 
z
M 2253 4666 
L 3047 4666 
L 3047 1625 
L 3713 1625 
L 3713 1100 
L 3047 1100 
L 3047 0 
L 2419 0 
L 2419 1100 
L 313 1100 
L 313 1709 
L 2253 4666 
z
" transform="scale(0.015625)"/>
       </defs>
       <use xlink:href="#DejaVuSans-34"/>
       <use xlink:href="#DejaVuSans-30" transform="translate(63.623047 0)"/>
       <use xlink:href="#DejaVuSans-30" transform="translate(127.246094 0)"/>
      </g>
     </g>
    </g>
    <g id="text_6">
     <!-- Timestamp (Seconds) -->
     <g transform="translate(469.630312 274.316562) scale(0.1 -0.1)">
      <defs>
       <path id="DejaVuSans-54" d="M -19 4666 
L 3928 4666 
L 3928 4134 
L 2272 4134 
L 2272 0 
L 1638 0 
L 1638 4134 
L -19 4134 
L -19 4666 
z
" transform="scale(0.015625)"/>
       <path id="DejaVuSans-69" d="M 603 3500 
L 1178 3500 
L 1178 0 
L 603 0 
L 603 3500 
z
M 603 4863 
L 1178 4863 
L 1178 4134 
L 603 4134 
L 603 4863 
z
" transform="scale(0.015625)"/>
       <path id="DejaVuSans-6d" d="M 3328 2828 
Q 3544 3216 3844 3400 
Q 4144 3584 4550 3584 
Q 5097 3584 5394 3201 
Q 5691 2819 5691 2113 
L 5691 0 
L 5113 0 
L 5113 2094 
Q 5113 2597 4934 2840 
Q 4756 3084 4391 3084 
Q 3944 3084 3684 2787 
Q 3425 2491 3425 1978 
L 3425 0 
L 2847 0 
L 2847 2094 
Q 2847 2600 2669 2842 
Q 2491 3084 2119 3084 
Q 1678 3084 1418 2786 
Q 1159 2488 1159 1978 
L 1159 0 
L 581 0 
L 581 3500 
L 1159 3500 
L 1159 2956 
Q 1356 3278 1631 3431 
Q 1906 3584 2284 3584 
Q 2666 3584 2933 3390 
Q 3200 3197 3328 2828 
z
" transform="scale(0.015625)"/>
       <path id="DejaVuSans-65" d="M 3597 1894 
L 3597 1613 
L 953 1613 
Q 991 1019 1311 708 
Q 1631 397 2203 397 
Q 2534 397 2845 478 
Q 3156 559 3463 722 
L 3463 178 
Q 3153 47 2828 -22 
Q 2503 -91 2169 -91 
Q 1331 -91 842 396 
Q 353 884 353 1716 
Q 353 2575 817 3079 
Q 1281 3584 2069 3584 
Q 2775 3584 3186 3129 
Q 3597 2675 3597 1894 
z
M 3022 2063 
Q 3016 2534 2758 2815 
Q 2500 3097 2075 3097 
Q 1594 3097 1305 2825 
Q 1016 2553 972 2059 
L 3022 2063 
z
" transform="scale(0.015625)"/>
       <path id="DejaVuSans-73" d="M 2834 3397 
L 2834 2853 
Q 2591 2978 2328 3040 
Q 2066 3103 1784 3103 
Q 1356 3103 1142 2972 
Q 928 2841 928 2578 
Q 928 2378 1081 2264 
Q 1234 2150 1697 2047 
L 1894 2003 
Q 2506 1872 2764 1633 
Q 3022 1394 3022 966 
Q 3022 478 2636 193 
Q 2250 -91 1575 -91 
Q 1294 -91 989 -36 
Q 684 19 347 128 
L 347 722 
Q 666 556 975 473 
Q 1284 391 1588 391 
Q 1994 391 2212 530 
Q 2431 669 2431 922 
Q 2431 1156 2273 1281 
Q 2116 1406 1581 1522 
L 1381 1569 
Q 847 1681 609 1914 
Q 372 2147 372 2553 
Q 372 3047 722 3315 
Q 1072 3584 1716 3584 
Q 2034 3584 2315 3537 
Q 2597 3491 2834 3397 
z
" transform="scale(0.015625)"/>
       <path id="DejaVuSans-74" d="M 1172 4494 
L 1172 3500 
L 2356 3500 
L 2356 3053 
L 1172 3053 
L 1172 1153 
Q 1172 725 1289 603 
Q 1406 481 1766 481 
L 2356 481 
L 2356 0 
L 1766 0 
Q 1100 0 847 248 
Q 594 497 594 1153 
L 594 3053 
L 172 3053 
L 172 3500 
L 594 3500 
L 594 4494 
L 1172 4494 
z
" transform="scale(0.015625)"/>
       <path id="DejaVuSans-61" d="M 2194 1759 
Q 1497 1759 1228 1600 
Q 959 1441 959 1056 
Q 959 750 1161 570 
Q 1363 391 1709 391 
Q 2188 391 2477 730 
Q 2766 1069 2766 1631 
L 2766 1759 
L 2194 1759 
z
M 3341 1997 
L 3341 0 
L 2766 0 
L 2766 531 
Q 2569 213 2275 61 
Q 1981 -91 1556 -91 
Q 1019 -91 701 211 
Q 384 513 384 1019 
Q 384 1609 779 1909 
Q 1175 2209 1959 2209 
L 2766 2209 
L 2766 2266 
Q 2766 2663 2505 2880 
Q 2244 3097 1772 3097 
Q 1472 3097 1187 3025 
Q 903 2953 641 2809 
L 641 3341 
Q 956 3463 1253 3523 
Q 1550 3584 1831 3584 
Q 2591 3584 2966 3190 
Q 3341 2797 3341 1997 
z
" transform="scale(0.015625)"/>
       <path id="DejaVuSans-70" d="M 1159 525 
L 1159 -1331 
L 581 -1331 
L 581 3500 
L 1159 3500 
L 1159 2969 
Q 1341 3281 1617 3432 
Q 1894 3584 2278 3584 
Q 2916 3584 3314 3078 
Q 3713 2572 3713 1747 
Q 3713 922 3314 415 
Q 2916 -91 2278 -91 
Q 1894 -91 1617 61 
Q 1341 213 1159 525 
z
M 3116 1747 
Q 3116 2381 2855 2742 
Q 2594 3103 2138 3103 
Q 1681 3103 1420 2742 
Q 1159 2381 1159 1747 
Q 1159 1113 1420 752 
Q 1681 391 2138 391 
Q 2594 391 2855 752 
Q 3116 1113 3116 1747 
z
" transform="scale(0.015625)"/>
       <path id="DejaVuSans-20" transform="scale(0.015625)"/>
       <path id="DejaVuSans-28" d="M 1984 4856 
Q 1566 4138 1362 3434 
Q 1159 2731 1159 2009 
Q 1159 1288 1364 580 
Q 1569 -128 1984 -844 
L 1484 -844 
Q 1016 -109 783 600 
Q 550 1309 550 2009 
Q 550 2706 781 3412 
Q 1013 4119 1484 4856 
L 1984 4856 
z
" transform="scale(0.015625)"/>
       <path id="DejaVuSans-53" d="M 3425 4513 
L 3425 3897 
Q 3066 4069 2747 4153 
Q 2428 4238 2131 4238 
Q 1616 4238 1336 4038 
Q 1056 3838 1056 3469 
Q 1056 3159 1242 3001 
Q 1428 2844 1947 2747 
L 2328 2669 
Q 3034 2534 3370 2195 
Q 3706 1856 3706 1288 
Q 3706 609 3251 259 
Q 2797 -91 1919 -91 
Q 1588 -91 1214 -16 
Q 841 59 441 206 
L 441 856 
Q 825 641 1194 531 
Q 1563 422 1919 422 
Q 2459 422 2753 634 
Q 3047 847 3047 1241 
Q 3047 1584 2836 1778 
Q 2625 1972 2144 2069 
L 1759 2144 
Q 1053 2284 737 2584 
Q 422 2884 422 3419 
Q 422 4038 858 4394 
Q 1294 4750 2059 4750 
Q 2388 4750 2728 4690 
Q 3069 4631 3425 4513 
z
" transform="scale(0.015625)"/>
       <path id="DejaVuSans-63" d="M 3122 3366 
L 3122 2828 
Q 2878 2963 2633 3030 
Q 2388 3097 2138 3097 
Q 1578 3097 1268 2742 
Q 959 2388 959 1747 
Q 959 1106 1268 751 
Q 1578 397 2138 397 
Q 2388 397 2633 464 
Q 2878 531 3122 666 
L 3122 134 
Q 2881 22 2623 -34 
Q 2366 -91 2075 -91 
Q 1284 -91 818 406 
Q 353 903 353 1747 
Q 353 2603 823 3093 
Q 1294 3584 2113 3584 
Q 2378 3584 2631 3529 
Q 2884 3475 3122 3366 
z
" transform="scale(0.015625)"/>
       <path id="DejaVuSans-6f" d="M 1959 3097 
Q 1497 3097 1228 2736 
Q 959 2375 959 1747 
Q 959 1119 1226 758 
Q 1494 397 1959 397 
Q 2419 397 2687 759 
Q 2956 1122 2956 1747 
Q 2956 2369 2687 2733 
Q 2419 3097 1959 3097 
z
M 1959 3584 
Q 2709 3584 3137 3096 
Q 3566 2609 3566 1747 
Q 3566 888 3137 398 
Q 2709 -91 1959 -91 
Q 1206 -91 779 398 
Q 353 888 353 1747 
Q 353 2609 779 3096 
Q 1206 3584 1959 3584 
z
" transform="scale(0.015625)"/>
       <path id="DejaVuSans-6e" d="M 3513 2113 
L 3513 0 
L 2938 0 
L 2938 2094 
Q 2938 2591 2744 2837 
Q 2550 3084 2163 3084 
Q 1697 3084 1428 2787 
Q 1159 2491 1159 1978 
L 1159 0 
L 581 0 
L 581 3500 
L 1159 3500 
L 1159 2956 
Q 1366 3272 1645 3428 
Q 1925 3584 2291 3584 
Q 2894 3584 3203 3211 
Q 3513 2838 3513 2113 
z
" transform="scale(0.015625)"/>
       <path id="DejaVuSans-64" d="M 2906 2969 
L 2906 4863 
L 3481 4863 
L 3481 0 
L 2906 0 
L 2906 525 
Q 2725 213 2448 61 
Q 2172 -91 1784 -91 
Q 1150 -91 751 415 
Q 353 922 353 1747 
Q 353 2572 751 3078 
Q 1150 3584 1784 3584 
Q 2172 3584 2448 3432 
Q 2725 3281 2906 2969 
z
M 947 1747 
Q 947 1113 1208 752 
Q 1469 391 1925 391 
Q 2381 391 2643 752 
Q 2906 1113 2906 1747 
Q 2906 2381 2643 2742 
Q 2381 3103 1925 3103 
Q 1469 3103 1208 2742 
Q 947 2381 947 1747 
z
" transform="scale(0.015625)"/>
       <path id="DejaVuSans-29" d="M 513 4856 
L 1013 4856 
Q 1481 4119 1714 3412 
Q 1947 2706 1947 2009 
Q 1947 1309 1714 600 
Q 1481 -109 1013 -844 
L 513 -844 
Q 928 -128 1133 580 
Q 1338 1288 1338 2009 
Q 1338 2731 1133 3434 
Q 928 4138 513 4856 
z
" transform="scale(0.015625)"/>
      </defs>
      <use xlink:href="#DejaVuSans-54"/>
      <use xlink:href="#DejaVuSans-69" transform="translate(57.958984 0)"/>
      <use xlink:href="#DejaVuSans-6d" transform="translate(85.742188 0)"/>
      <use xlink:href="#DejaVuSans-65" transform="translate(183.154297 0)"/>
      <use xlink:href="#DejaVuSans-73" transform="translate(244.677734 0)"/>
      <use xlink:href="#DejaVuSans-74" transform="translate(296.777344 0)"/>
      <use xlink:href="#DejaVuSans-61" transform="translate(335.986328 0)"/>
      <use xlink:href="#DejaVuSans-6d" transform="translate(397.265625 0)"/>
      <use xlink:href="#DejaVuSans-70" transform="translate(494.677734 0)"/>
      <use xlink:href="#DejaVuSans-20" transform="translate(558.154297 0)"/>
      <use xlink:href="#DejaVuSans-28" transform="translate(589.941406 0)"/>
      <use xlink:href="#DejaVuSans-53" transform="translate(628.955078 0)"/>
      <use xlink:href="#DejaVuSans-65" transform="translate(692.431641 0)"/>
      <use xlink:href="#DejaVuSans-63" transform="translate(753.955078 0)"/>
      <use xlink:href="#DejaVuSans-6f" transform="translate(808.935547 0)"/>
      <use xlink:href="#DejaVuSans-6e" transform="translate(870.117188 0)"/>
      <use xlink:href="#DejaVuSans-64" transform="translate(933.496094 0)"/>
      <use xlink:href="#DejaVuSans-73" transform="translate(996.972656 0)"/>
      <use xlink:href="#DejaVuSans-29" transform="translate(1049.072266 0)"/>
     </g>
    </g>
   </g>
   <g id="matplotlib.axis_2">
    <g id="ytick_1">
     <g id="line2d_6">
      <defs>
       <path id="m9af783fca5" d="M 0 0 
L -3.5 0 
" style="stroke: #000000; stroke-width: 0.8"/>
      </defs>
      <g>
       <use xlink:href="#m9af783fca5" x="50.87" y="236.383759" style="stroke: #000000; stroke-width: 0.8"/>
      </g>
     </g>
     <g id="text_7">
      <!-- 0 -->
      <g transform="translate(37.5075 240.182978) scale(0.1 -0.1)">
       <use xlink:href="#DejaVuSans-30"/>
      </g>
     </g>
    </g>
    <g id="ytick_2">
     <g id="line2d_7">
      <g>
       <use xlink:href="#m9af783fca5" x="50.87" y="205.826035" style="stroke: #000000; stroke-width: 0.8"/>
      </g>
     </g>
     <g id="text_8">
      <!-- 100 -->
      <g transform="translate(24.7825 209.625253) scale(0.1 -0.1)">
       <use xlink:href="#DejaVuSans-31"/>
       <use xlink:href="#DejaVuSans-30" transform="translate(63.623047 0)"/>
       <use xlink:href="#DejaVuSans-30" transform="translate(127.246094 0)"/>
      </g>
     </g>
    </g>
    <g id="ytick_3">
     <g id="line2d_8">
      <g>
       <use xlink:href="#m9af783fca5" x="50.87" y="175.26831" style="stroke: #000000; stroke-width: 0.8"/>
      </g>
     </g>
     <g id="text_9">
      <!-- 200 -->
      <g transform="translate(24.7825 179.067529) scale(0.1 -0.1)">
       <use xlink:href="#DejaVuSans-32"/>
       <use xlink:href="#DejaVuSans-30" transform="translate(63.623047 0)"/>
       <use xlink:href="#DejaVuSans-30" transform="translate(127.246094 0)"/>
      </g>
     </g>
    </g>
    <g id="ytick_4">
     <g id="line2d_9">
      <g>
       <use xlink:href="#m9af783fca5" x="50.87" y="144.710586" style="stroke: #000000; stroke-width: 0.8"/>
      </g>
     </g>
     <g id="text_10">
      <!-- 300 -->
      <g transform="translate(24.7825 148.509804) scale(0.1 -0.1)">
       <use xlink:href="#DejaVuSans-33"/>
       <use xlink:href="#DejaVuSans-30" transform="translate(63.623047 0)"/>
       <use xlink:href="#DejaVuSans-30" transform="translate(127.246094 0)"/>
      </g>
     </g>
    </g>
    <g id="ytick_5">
     <g id="line2d_10">
      <g>
       <use xlink:href="#m9af783fca5" x="50.87" y="114.152861" style="stroke: #000000; stroke-width: 0.8"/>
      </g>
     </g>
     <g id="text_11">
      <!-- 400 -->
      <g transform="translate(24.7825 117.95208) scale(0.1 -0.1)">
       <use xlink:href="#DejaVuSans-34"/>
       <use xlink:href="#DejaVuSans-30" transform="translate(63.623047 0)"/>
       <use xlink:href="#DejaVuSans-30" transform="translate(127.246094 0)"/>
      </g>
     </g>
    </g>
    <g id="ytick_6">
     <g id="line2d_11">
      <g>
       <use xlink:href="#m9af783fca5" x="50.87" y="83.595137" style="stroke: #000000; stroke-width: 0.8"/>
      </g>
     </g>
     <g id="text_12">
      <!-- 500 -->
      <g transform="translate(24.7825 87.394355) scale(0.1 -0.1)">
       <defs>
        <path id="DejaVuSans-35" d="M 691 4666 
L 3169 4666 
L 3169 4134 
L 1269 4134 
L 1269 2991 
Q 1406 3038 1543 3061 
Q 1681 3084 1819 3084 
Q 2600 3084 3056 2656 
Q 3513 2228 3513 1497 
Q 3513 744 3044 326 
Q 2575 -91 1722 -91 
Q 1428 -91 1123 -41 
Q 819 9 494 109 
L 494 744 
Q 775 591 1075 516 
Q 1375 441 1709 441 
Q 2250 441 2565 725 
Q 2881 1009 2881 1497 
Q 2881 1984 2565 2268 
Q 2250 2553 1709 2553 
Q 1456 2553 1204 2497 
Q 953 2441 691 2322 
L 691 4666 
z
" transform="scale(0.015625)"/>
       </defs>
       <use xlink:href="#DejaVuSans-35"/>
       <use xlink:href="#DejaVuSans-30" transform="translate(63.623047 0)"/>
       <use xlink:href="#DejaVuSans-30" transform="translate(127.246094 0)"/>
      </g>
     </g>
    </g>
    <g id="ytick_7">
     <g id="line2d_12">
      <g>
       <use xlink:href="#m9af783fca5" x="50.87" y="53.037412" style="stroke: #000000; stroke-width: 0.8"/>
      </g>
     </g>
     <g id="text_13">
      <!-- 600 -->
      <g transform="translate(24.7825 56.836631) scale(0.1 -0.1)">
       <defs>
        <path id="DejaVuSans-36" d="M 2113 2584 
Q 1688 2584 1439 2293 
Q 1191 2003 1191 1497 
Q 1191 994 1439 701 
Q 1688 409 2113 409 
Q 2538 409 2786 701 
Q 3034 994 3034 1497 
Q 3034 2003 2786 2293 
Q 2538 2584 2113 2584 
z
M 3366 4563 
L 3366 3988 
Q 3128 4100 2886 4159 
Q 2644 4219 2406 4219 
Q 1781 4219 1451 3797 
Q 1122 3375 1075 2522 
Q 1259 2794 1537 2939 
Q 1816 3084 2150 3084 
Q 2853 3084 3261 2657 
Q 3669 2231 3669 1497 
Q 3669 778 3244 343 
Q 2819 -91 2113 -91 
Q 1303 -91 875 529 
Q 447 1150 447 2328 
Q 447 3434 972 4092 
Q 1497 4750 2381 4750 
Q 2619 4750 2861 4703 
Q 3103 4656 3366 4563 
z
" transform="scale(0.015625)"/>
       </defs>
       <use xlink:href="#DejaVuSans-36"/>
       <use xlink:href="#DejaVuSans-30" transform="translate(63.623047 0)"/>
       <use xlink:href="#DejaVuSans-30" transform="translate(127.246094 0)"/>
      </g>
     </g>
    </g>
    <g id="text_14">
     <!-- Requests/sec -->
     <g transform="translate(18.702812 169.489687) rotate(-90) scale(0.1 -0.1)">
      <defs>
       <path id="DejaVuSans-52" d="M 2841 2188 
Q 3044 2119 3236 1894 
Q 3428 1669 3622 1275 
L 4263 0 
L 3584 0 
L 2988 1197 
Q 2756 1666 2539 1819 
Q 2322 1972 1947 1972 
L 1259 1972 
L 1259 0 
L 628 0 
L 628 4666 
L 2053 4666 
Q 2853 4666 3247 4331 
Q 3641 3997 3641 3322 
Q 3641 2881 3436 2590 
Q 3231 2300 2841 2188 
z
M 1259 4147 
L 1259 2491 
L 2053 2491 
Q 2509 2491 2742 2702 
Q 2975 2913 2975 3322 
Q 2975 3731 2742 3939 
Q 2509 4147 2053 4147 
L 1259 4147 
z
" transform="scale(0.015625)"/>
       <path id="DejaVuSans-71" d="M 947 1747 
Q 947 1113 1208 752 
Q 1469 391 1925 391 
Q 2381 391 2643 752 
Q 2906 1113 2906 1747 
Q 2906 2381 2643 2742 
Q 2381 3103 1925 3103 
Q 1469 3103 1208 2742 
Q 947 2381 947 1747 
z
M 2906 525 
Q 2725 213 2448 61 
Q 2172 -91 1784 -91 
Q 1150 -91 751 415 
Q 353 922 353 1747 
Q 353 2572 751 3078 
Q 1150 3584 1784 3584 
Q 2172 3584 2448 3432 
Q 2725 3281 2906 2969 
L 2906 3500 
L 3481 3500 
L 3481 -1331 
L 2906 -1331 
L 2906 525 
z
" transform="scale(0.015625)"/>
       <path id="DejaVuSans-75" d="M 544 1381 
L 544 3500 
L 1119 3500 
L 1119 1403 
Q 1119 906 1312 657 
Q 1506 409 1894 409 
Q 2359 409 2629 706 
Q 2900 1003 2900 1516 
L 2900 3500 
L 3475 3500 
L 3475 0 
L 2900 0 
L 2900 538 
Q 2691 219 2414 64 
Q 2138 -91 1772 -91 
Q 1169 -91 856 284 
Q 544 659 544 1381 
z
M 1991 3584 
L 1991 3584 
z
" transform="scale(0.015625)"/>
       <path id="DejaVuSans-2f" d="M 1625 4666 
L 2156 4666 
L 531 -594 
L 0 -594 
L 1625 4666 
z
" transform="scale(0.015625)"/>
      </defs>
      <use xlink:href="#DejaVuSans-52"/>
      <use xlink:href="#DejaVuSans-65" transform="translate(64.982422 0)"/>
      <use xlink:href="#DejaVuSans-71" transform="translate(126.505859 0)"/>
      <use xlink:href="#DejaVuSans-75" transform="translate(189.982422 0)"/>
      <use xlink:href="#DejaVuSans-65" transform="translate(253.361328 0)"/>
      <use xlink:href="#DejaVuSans-73" transform="translate(314.884766 0)"/>
      <use xlink:href="#DejaVuSans-74" transform="translate(366.984375 0)"/>
      <use xlink:href="#DejaVuSans-73" transform="translate(406.193359 0)"/>
      <use xlink:href="#DejaVuSans-2f" transform="translate(458.292969 0)"/>
      <use xlink:href="#DejaVuSans-73" transform="translate(491.984375 0)"/>
      <use xlink:href="#DejaVuSans-65" transform="translate(544.083984 0)"/>
      <use xlink:href="#DejaVuSans-63" transform="translate(605.607422 0)"/>
     </g>
    </g>
   </g>
   <g id="line2d_13">
    <path d="M 93.885 235.772605 
L 95.978187 235.16145 
L 98.071375 235.16145 
L 100.164562 234.244718 
L 102.257749 233.939141 
L 106.444124 232.716832 
L 108.537311 232.411255 
L 112.723686 231.188946 
L 114.816873 230.883369 
L 119.003248 229.66106 
L 121.096436 229.355482 
L 125.28281 228.133173 
L 127.375998 227.827596 
L 131.562372 226.605287 
L 133.65556 226.29971 
L 137.841934 225.077401 
L 139.935122 224.771824 
L 144.121496 223.549515 
L 146.214684 223.243938 
L 150.401058 222.021629 
L 152.494246 221.716051 
L 154.587433 221.104897 
L 156.68062 220.79932 
L 160.866995 219.577011 
L 162.960182 219.271433 
L 167.146557 218.049124 
L 171.332932 217.43797 
L 173.426119 216.521238 
L 175.519307 216.215661 
L 181.798869 214.382197 
L 183.892056 214.382197 
L 185.985243 213.465466 
L 188.078431 213.159888 
L 194.357993 211.326425 
L 196.45118 211.326425 
L 198.544367 210.409693 
L 200.637555 210.104116 
L 202.730742 209.492962 
L 204.823929 209.187384 
L 206.917117 208.270653 
L 209.010304 207.965075 
L 211.103491 207.353921 
L 213.196679 211.020848 
L 215.289866 206.437189 
L 219.476241 205.21488 
L 221.569428 204.909303 
L 225.755803 203.686994 
L 227.84899 203.381417 
L 232.035365 202.159108 
L 234.128552 201.85353 
L 238.314927 200.631221 
L 240.408114 200.325644 
L 244.594489 199.103335 
L 246.687676 198.797758 
L 250.874051 197.575449 
L 252.967238 197.269872 
L 257.153613 196.047563 
L 259.2468 196.35314 
L 261.339988 195.130831 
L 263.433175 194.825254 
L 265.526363 194.825254 
L 267.61955 193.602945 
L 269.712737 192.99179 
L 271.805925 192.686213 
L 273.899112 192.99179 
L 275.992299 191.463904 
L 278.085487 191.158327 
L 280.178674 196.658717 
L 282.271861 190.241595 
L 284.365049 190.547172 
L 286.458236 189.936018 
L 288.551423 189.936018 
L 290.644611 188.408132 
L 292.737798 187.4914 
L 294.830985 186.880245 
L 296.924173 186.574668 
L 299.01736 187.4914 
L 301.110547 186.574668 
L 303.203735 187.4914 
L 305.296922 186.269091 
L 307.390109 184.741205 
L 309.483297 188.102554 
L 311.576484 183.824473 
L 313.669672 182.602164 
L 315.762859 182.907741 
L 317.856046 182.602164 
L 319.949234 181.685432 
L 322.042421 181.074278 
L 324.135608 179.851969 
L 326.228796 179.240814 
L 328.321983 178.935237 
L 330.41517 178.324083 
L 332.508358 178.018505 
L 334.601545 177.407351 
L 336.694732 177.101774 
L 338.78792 176.185042 
L 340.881107 176.185042 
L 342.974294 176.490619 
L 345.067482 176.490619 
L 347.160669 174.351578 
L 349.253856 173.740424 
L 351.347044 173.740424 
L 353.440231 172.823692 
L 355.533418 172.212538 
L 357.626606 172.518115 
L 361.812981 170.684651 
L 363.906168 170.990229 
L 365.999355 170.990229 
L 368.092543 169.462342 
L 374.372105 167.628879 
L 380.651667 166.712147 
L 382.744854 165.489838 
L 384.838041 165.489838 
L 393.210791 163.04522 
L 395.303978 163.04522 
L 399.490353 162.434066 
L 401.58354 160.90618 
L 403.676727 160.600602 
L 405.769915 160.600602 
L 407.863102 159.378293 
L 409.95629 159.989448 
L 412.049477 158.461562 
L 414.142664 157.850407 
L 416.235852 158.461562 
L 418.329039 157.239253 
L 420.422226 156.933675 
L 422.515414 156.016944 
L 424.608601 155.405789 
L 428.794976 154.794635 
L 430.888163 153.877903 
L 432.98135 153.572326 
L 435.074538 153.572326 
L 437.167725 153.266748 
L 441.3541 151.433285 
L 443.447287 151.127708 
L 445.540474 150.516553 
L 447.633662 150.210976 
L 449.726849 149.294244 
L 451.820036 149.294244 
L 453.913224 148.377513 
L 456.006411 148.68309 
L 458.099599 147.460781 
L 460.192786 147.155204 
L 462.285973 148.071935 
L 464.379161 145.627317 
L 466.472348 145.627317 
L 468.565535 145.016163 
L 470.658723 144.099431 
L 472.75191 144.710586 
L 474.845097 143.182699 
L 476.938285 143.182699 
L 479.031472 142.571545 
L 481.124659 141.654813 
L 483.217847 142.265968 
L 485.311034 141.349236 
L 487.404221 141.349236 
L 489.497409 140.432504 
L 491.590596 139.82135 
L 493.683783 138.599041 
L 495.776971 137.987886 
L 497.870158 138.599041 
L 499.963345 137.682309 
L 504.14972 137.682309 
L 506.242908 138.599041 
L 508.336095 135.848846 
L 510.429282 136.154423 
L 512.52247 135.543268 
L 514.615657 135.543268 
L 516.708844 135.237691 
L 518.802032 133.09865 
L 522.988406 132.487496 
L 525.081594 132.793073 
L 527.174781 130.654032 
L 529.267968 130.042878 
L 531.361156 129.737301 
L 533.454343 130.654032 
L 535.54753 129.737301 
L 537.640718 128.514992 
L 539.733905 127.59826 
L 543.92028 126.375951 
L 548.106655 126.375951 
L 550.199842 126.070374 
L 552.293029 130.042878 
L 554.386217 123.931333 
L 556.479404 123.931333 
L 558.572591 123.014601 
L 562.758966 121.792292 
L 564.852153 123.014601 
L 566.945341 122.097869 
L 569.038528 120.875561 
L 571.131715 121.181138 
L 573.224903 119.653252 
L 575.31809 120.264406 
L 577.411277 118.73652 
L 579.504465 119.347674 
L 581.597652 118.430943 
L 583.690839 116.903056 
L 587.877214 117.514211 
L 589.970401 116.903056 
L 592.063589 121.181138 
L 594.156776 114.152861 
L 596.249964 113.847284 
L 598.343151 114.152861 
L 600.436338 113.236129 
L 602.529526 112.930552 
L 604.622713 113.236129 
L 606.7159 111.708243 
L 608.809088 110.791511 
L 610.902275 110.180357 
L 612.995462 109.87478 
L 615.08865 109.263625 
L 617.181837 109.87478 
L 619.275024 108.652471 
L 621.368212 107.735739 
L 623.461399 107.124584 
L 625.554586 107.124584 
L 627.647774 106.207853 
L 629.740961 105.596698 
L 631.834148 106.207853 
L 633.927336 106.207853 
L 636.020523 104.068812 
L 638.11371 103.457658 
L 640.206898 104.679967 
L 642.300085 102.540926 
L 644.393273 102.235349 
L 646.48646 102.846503 
L 648.579647 106.207853 
L 650.672835 100.401885 
L 652.766022 100.096308 
L 654.859209 100.401885 
L 656.952397 100.096308 
L 659.045584 102.235349 
L 661.138771 99.179576 
L 663.231959 99.179576 
L 665.325146 97.346113 
L 667.418333 96.429381 
L 669.511521 98.262844 
L 671.604708 97.957267 
L 673.697895 96.123804 
L 675.791083 94.595917 
L 677.88427 94.595917 
L 679.977457 93.679186 
L 682.070645 94.595917 
L 684.163832 93.679186 
L 686.257019 91.845722 
L 688.350207 91.845722 
L 690.443394 93.984763 
L 692.536582 91.845722 
L 694.629769 90.623413 
L 696.722956 94.901495 
L 698.816144 88.78995 
L 700.909331 93.068031 
L 703.002518 90.012259 
L 705.095706 90.317836 
L 707.188893 88.178795 
L 711.375268 85.734177 
L 713.468455 85.4286 
L 715.561642 86.956486 
L 717.65483 86.956486 
L 719.748017 84.206291 
L 721.841204 83.289559 
L 726.027579 83.289559 
L 728.120766 82.372828 
L 730.213954 85.734177 
L 732.307141 83.900714 
L 734.400328 82.983982 
L 736.493516 85.123023 
L 738.586703 79.622632 
L 740.679891 78.705901 
L 742.773078 78.705901 
L 744.866265 77.483592 
L 746.959453 77.178015 
L 749.05264 80.844941 
L 751.145827 75.955706 
L 753.239015 77.483592 
L 755.332202 76.261283 
L 757.425389 74.733397 
L 759.518577 74.733397 
L 761.611764 74.122242 
L 763.704951 74.733397 
L 765.798139 74.122242 
L 767.891326 72.594356 
L 769.984513 71.372047 
L 772.077701 71.06647 
L 776.264075 75.955706 
L 778.357263 70.455315 
L 780.45045 68.927429 
L 782.543637 69.538583 
L 784.636825 68.010697 
L 786.730012 69.538583 
L 788.8232 67.093965 
L 793.009574 65.871656 
L 795.102762 65.566079 
L 797.195949 68.621852 
L 799.289136 73.20551 
L 801.382324 67.093965 
L 803.475511 63.427038 
L 805.568698 62.815884 
L 807.661886 65.871656 
L 809.755073 61.899152 
L 811.84826 61.287998 
L 813.941448 62.815884 
L 816.034635 60.371266 
L 818.127822 68.316274 
L 820.22101 60.371266 
L 822.314197 58.84338 
L 824.407384 58.84338 
L 826.500572 59.148957 
L 828.593759 57.315494 
L 830.686946 56.704339 
L 832.780134 60.371266 
L 834.873321 63.732616 
L 836.966509 55.787607 
L 839.059696 54.565298 
L 841.152883 54.259721 
L 843.246071 54.565298 
L 845.339258 53.648567 
L 847.432445 54.870876 
L 849.525633 53.954144 
L 851.61882 52.426258 
L 853.712007 52.426258 
L 855.805195 52.12068 
L 857.898382 53.342989 
L 859.991569 50.898371 
L 862.084757 49.064908 
L 864.177944 49.676062 
L 866.271131 51.203949 
L 868.364319 51.815103 
L 870.457506 48.148176 
L 872.550693 46.62029 
L 874.643881 48.148176 
L 876.737068 49.064908 
L 878.830255 47.231445 
L 880.923443 52.426258 
L 883.01663 48.453753 
L 885.109818 43.564518 
L 887.203005 45.092404 
L 889.296192 42.647786 
L 891.38938 43.25894 
L 893.482567 41.731054 
L 895.575754 46.925867 
L 897.668942 43.564518 
L 899.762129 42.342209 
L 901.855316 40.814322 
L 903.948504 45.092404 
L 906.041691 121.486715 
L 906.041691 121.486715 
" clip-path="url(#p997c222bf3)" style="fill: none; stroke: #1f77b4; stroke-width: 1.5; stroke-linecap: square"/>
   </g>
   <g id="line2d_14">
    <path d="M 93.885 235.772605 
L 95.978187 235.467027 
L 100.164562 234.244718 
L 102.257749 233.939141 
L 106.444124 232.716832 
L 108.537311 232.411255 
L 112.723686 231.188946 
L 114.816873 230.883369 
L 119.003248 229.66106 
L 121.096436 229.355482 
L 125.28281 228.133173 
L 129.469185 227.522019 
L 131.562372 226.605287 
L 133.65556 226.605287 
L 135.748747 225.688555 
L 137.841934 225.077401 
L 139.935122 225.077401 
L 142.028309 224.160669 
L 144.121496 223.549515 
L 146.214684 223.549515 
L 148.307871 222.632783 
L 150.401058 222.327206 
L 152.494246 221.716051 
L 154.587433 221.410474 
L 156.68062 220.493742 
L 158.773808 220.188165 
L 160.866995 219.577011 
L 162.960182 219.271433 
L 165.05337 218.660279 
L 167.146557 218.354702 
L 169.239745 217.43797 
L 173.426119 216.826815 
L 175.519307 215.910084 
L 177.612494 215.910084 
L 179.705681 214.993352 
L 181.798869 214.382197 
L 185.985243 213.771043 
L 188.078431 212.854311 
L 190.171618 212.854311 
L 192.264805 211.937579 
L 194.357993 211.326425 
L 196.45118 211.632002 
L 198.544367 210.409693 
L 202.730742 209.798539 
L 204.823929 208.881807 
L 206.917117 208.881807 
L 209.010304 207.965075 
L 211.103491 207.659498 
L 213.196679 206.742766 
L 215.289866 206.437189 
L 217.383054 206.437189 
L 219.476241 206.131612 
L 221.569428 204.909303 
L 223.662616 221.410474 
L 225.755803 203.686994 
L 227.84899 214.687775 
L 229.942178 210.71527 
L 232.035365 204.909303 
L 234.128552 202.159108 
L 244.594489 199.103335 
L 246.687676 198.797758 
L 248.780864 199.408912 
L 250.874051 197.881026 
L 252.967238 197.881026 
L 255.060426 197.269872 
L 257.153613 197.575449 
L 259.2468 197.575449 
L 261.339988 196.047563 
L 263.433175 196.047563 
L 265.526363 195.130831 
L 267.61955 193.602945 
L 269.712737 193.297368 
L 271.805925 192.686213 
L 273.899112 192.380636 
L 275.992299 191.463904 
L 280.178674 190.85275 
L 282.271861 189.936018 
L 284.365049 189.936018 
L 286.458236 189.019286 
L 288.551423 188.408132 
L 290.644611 188.408132 
L 292.737798 187.4914 
L 294.830985 187.185823 
L 299.01736 185.963514 
L 301.110547 185.657936 
L 303.203735 185.046782 
L 305.296922 184.741205 
L 309.483297 183.518896 
L 311.576484 183.518896 
L 313.669672 182.296587 
L 317.856046 181.685432 
L 319.949234 181.074278 
L 322.042421 180.768701 
L 324.135608 179.851969 
L 326.228796 179.240814 
L 328.321983 179.240814 
L 330.41517 179.546392 
L 332.508358 178.62966 
L 334.601545 177.407351 
L 336.694732 177.101774 
L 340.881107 175.879465 
L 342.974294 175.879465 
L 345.067482 174.962733 
L 347.160669 174.657156 
L 349.253856 173.740424 
L 351.347044 175.26831 
L 353.440231 194.214099 
L 357.626606 174.351578 
L 359.719793 223.549515 
L 361.812981 170.684651 
L 363.906168 170.379074 
L 368.092543 169.156765 
L 370.18573 168.851188 
L 374.372105 167.628879 
L 376.465292 167.323302 
L 378.558479 170.990229 
L 380.651667 166.100993 
L 382.744854 166.100993 
L 384.838041 167.934456 
L 386.931229 164.573107 
L 389.024416 164.267529 
L 391.117603 169.156765 
L 393.210791 164.878684 
L 395.303978 164.573107 
L 397.397165 162.739643 
L 399.490353 166.100993 
L 401.58354 161.211757 
L 403.676727 164.573107 
L 405.769915 159.989448 
L 407.863102 160.90618 
L 409.95629 159.072716 
L 412.049477 158.461562 
L 414.142664 158.461562 
L 416.235852 159.072716 
L 418.329039 160.600602 
L 420.422226 156.628098 
L 422.515414 157.850407 
L 424.608601 155.405789 
L 426.701788 158.155984 
L 428.794976 154.489057 
L 430.888163 156.016944 
L 432.98135 154.18348 
L 435.074538 154.489057 
L 437.167725 170.684651 
L 439.260912 152.044439 
L 441.3541 153.877903 
L 443.447287 150.822131 
L 445.540474 153.572326 
L 447.633662 150.210976 
L 449.726849 155.711366 
L 451.820036 150.210976 
L 453.913224 151.738862 
L 456.006411 149.599822 
L 458.099599 150.516553 
L 460.192786 148.071935 
L 462.285973 149.599822 
L 464.379161 145.932895 
L 466.472348 148.071935 
L 468.565535 145.32174 
L 470.658723 147.155204 
L 472.75191 148.071935 
L 474.845097 143.793854 
L 476.938285 145.932895 
L 479.031472 145.016163 
L 481.124659 146.849626 
L 483.217847 141.349236 
L 485.311034 146.849626 
L 487.404221 143.488277 
L 489.497409 144.710586 
L 491.590596 141.96039 
L 493.683783 143.182699 
L 495.776971 138.293463 
L 497.870158 147.155204 
L 499.963345 137.071154 
L 502.056533 140.126927 
L 504.14972 142.877122 
L 506.242908 139.515772 
L 508.336095 141.349236 
L 510.429282 137.071154 
L 512.52247 143.182699 
L 514.615657 137.071154 
L 516.708844 140.738081 
L 518.802032 141.654813 
L 520.895219 140.126927 
L 522.988406 136.765577 
L 525.081594 139.515772 
L 527.174781 141.349236 
L 529.267968 140.738081 
L 531.361156 137.071154 
L 533.454343 140.432504 
L 535.54753 137.376732 
L 537.640718 133.09865 
L 539.733905 135.543268 
L 541.827092 131.876341 
L 543.92028 138.293463 
L 546.013467 130.348455 
L 548.106655 135.237691 
L 550.199842 133.404228 
L 552.293029 134.015382 
L 556.479404 132.793073 
L 558.572591 132.793073 
L 560.665779 133.404228 
L 562.758966 132.793073 
L 564.852153 132.487496 
L 566.945341 143.793854 
L 569.038528 133.709805 
L 571.131715 131.265187 
L 573.224903 143.182699 
L 575.31809 130.95961 
L 577.411277 127.292683 
L 579.504465 133.709805 
L 581.597652 130.042878 
L 583.690839 147.155204 
L 585.784027 125.459219 
L 587.877214 138.904618 
L 589.970401 130.042878 
L 592.063589 134.626537 
L 594.156776 137.071154 
L 596.249964 126.681528 
L 598.343151 137.376732 
L 600.436338 126.375951 
L 602.529526 140.432504 
L 604.622713 132.181919 
L 606.7159 133.709805 
L 608.809088 122.403447 
L 610.902275 132.793073 
L 612.995462 129.431723 
L 615.08865 134.320959 
L 617.181837 147.460781 
L 619.275024 116.291902 
L 621.368212 127.292683 
L 623.461399 137.682309 
L 625.554586 131.265187 
L 627.647774 133.09865 
L 629.740961 129.431723 
L 631.834148 155.405789 
L 633.927336 126.681528 
L 636.020523 134.626537 
L 638.11371 121.486715 
L 640.206898 139.82135 
L 642.300085 130.654032 
L 644.393273 130.654032 
L 646.48646 139.515772 
L 648.579647 145.016163 
L 650.672835 124.542487 
L 652.766022 152.044439 
L 654.859209 128.514992 
L 656.952397 130.348455 
L 659.045584 129.431723 
L 661.138771 142.877122 
L 663.231959 127.59826 
L 665.325146 127.59826 
L 667.418333 124.23691 
L 669.511521 148.68309 
L 671.604708 123.014601 
L 673.697895 148.071935 
L 675.791083 137.987886 
L 677.88427 120.264406 
L 679.977457 121.486715 
L 682.070645 152.655594 
L 684.163832 120.569983 
L 686.257019 119.958829 
L 688.350207 138.904618 
L 690.443394 127.59826 
L 692.536582 148.988667 
L 694.629769 137.376732 
L 696.722956 127.292683 
L 698.816144 150.210976 
L 700.909331 111.708243 
L 703.002518 148.988667 
L 705.095706 118.430943 
L 707.188893 143.793854 
L 709.28208 146.238472 
L 711.375268 116.291902 
L 713.468455 118.73652 
L 715.561642 137.071154 
L 717.65483 150.516553 
L 719.748017 117.208634 
L 721.841204 136.46 
L 723.934392 147.155204 
L 726.027579 118.430943 
L 728.120766 135.543268 
L 730.213954 116.903056 
L 732.307141 146.544049 
L 734.400328 134.626537 
L 736.493516 115.069593 
L 738.586703 146.238472 
L 740.679891 135.543268 
L 742.773078 110.180357 
L 744.866265 145.932895 
L 746.959453 134.015382 
L 749.05264 130.042878 
L 751.145827 122.709024 
L 753.239015 131.876341 
L 755.332202 133.09865 
L 757.425389 124.848065 
L 759.518577 161.211757 
L 761.611764 121.486715 
L 763.704951 145.627317 
L 765.798139 86.956486 
L 767.891326 139.515772 
L 769.984513 146.238472 
L 772.077701 110.485934 
L 774.170888 141.654813 
L 776.264075 145.627317 
L 778.357263 119.347674 
L 780.45045 147.766358 
L 782.543637 116.903056 
L 784.636825 125.459219 
L 786.730012 117.819788 
L 788.8232 149.294244 
L 790.916387 107.735739 
L 793.009574 141.043659 
L 795.102762 104.985544 
L 797.195949 152.961171 
L 799.289136 128.209414 
L 801.382324 125.459219 
L 803.475511 134.320959 
L 805.568698 126.070374 
L 807.661886 127.59826 
L 809.755073 124.23691 
L 811.84826 131.876341 
L 813.941448 130.348455 
L 816.034635 104.068812 
L 818.127822 152.044439 
L 822.314197 116.903056 
L 824.407384 129.737301 
L 826.500572 112.624975 
L 828.593759 173.434847 
L 830.686946 112.01382 
L 832.780134 108.652471 
L 834.873321 177.712928 
L 836.966509 107.735739 
L 839.059696 113.541707 
L 841.152883 117.819788 
L 843.246071 166.100993 
L 845.339258 117.208634 
L 847.432445 130.348455 
L 849.525633 150.822131 
L 851.61882 94.29034 
L 853.712007 151.433285 
L 855.805195 127.903837 
L 857.898382 113.847284 
L 859.991569 141.043659 
L 859.991569 141.043659 
" clip-path="url(#p997c222bf3)" style="fill: none; stroke: #ff7f0e; stroke-width: 1.5; stroke-linecap: square"/>
   </g>
   <g id="line2d_15">
    <path d="M 93.885 236.078182 
L 95.978187 235.772605 
L 100.164562 234.550296 
L 104.350937 233.939141 
L 106.444124 233.022409 
L 110.630499 232.411255 
L 112.723686 231.494523 
L 116.910061 230.883369 
L 119.003248 229.966637 
L 123.189623 229.355482 
L 125.28281 228.438751 
L 127.375998 228.438751 
L 129.469185 227.522019 
L 131.562372 226.910864 
L 133.65556 226.910864 
L 135.748747 225.994133 
L 137.841934 225.382978 
L 139.935122 225.382978 
L 142.028309 224.466247 
L 144.121496 224.160669 
L 148.307871 222.93836 
L 150.401058 222.632783 
L 152.494246 222.021629 
L 154.587433 221.716051 
L 156.68062 220.79932 
L 160.866995 220.188165 
L 162.960182 219.271433 
L 165.05337 219.577011 
L 169.239745 217.743547 
L 173.426119 217.743547 
L 175.519307 216.215661 
L 177.612494 216.521238 
L 179.705681 215.298929 
L 181.798869 214.993352 
L 185.985243 213.771043 
L 188.078431 213.465466 
L 192.264805 212.243157 
L 196.45118 211.632002 
L 198.544367 210.71527 
L 200.637555 210.71527 
L 202.730742 209.798539 
L 204.823929 209.187384 
L 206.917117 208.881807 
L 209.010304 209.187384 
L 213.196679 207.353921 
L 215.289866 206.742766 
L 217.383054 206.437189 
L 221.569428 205.21488 
L 223.662616 204.909303 
L 225.755803 208.270653 
L 227.84899 203.992571 
L 229.942178 203.075839 
L 232.035365 203.686994 
L 234.128552 202.159108 
L 236.22174 201.547953 
L 238.314927 201.242376 
L 240.408114 200.631221 
L 242.501302 200.325644 
L 248.780864 198.492181 
L 250.874051 198.186603 
L 252.967238 197.575449 
L 255.060426 197.881026 
L 257.153613 196.658717 
L 261.339988 195.436408 
L 263.433175 195.741985 
L 265.526363 194.519677 
L 267.61955 194.519677 
L 269.712737 193.602945 
L 271.805925 193.297368 
L 278.085487 191.463904 
L 280.178674 191.769481 
L 284.365049 189.936018 
L 286.458236 189.324863 
L 288.551423 189.630441 
L 290.644611 188.408132 
L 292.737798 188.102554 
L 294.830985 188.408132 
L 296.924173 186.880245 
L 299.01736 187.185823 
L 301.110547 185.963514 
L 303.203735 185.657936 
L 305.296922 184.741205 
L 309.483297 184.741205 
L 311.576484 183.518896 
L 315.762859 182.296587 
L 317.856046 181.991009 
L 324.135608 180.157546 
L 326.228796 181.074278 
L 328.321983 180.157546 
L 330.41517 180.157546 
L 332.508358 178.324083 
L 334.601545 178.018505 
L 336.694732 178.324083 
L 338.78792 177.101774 
L 340.881107 177.101774 
L 342.974294 175.573887 
L 345.067482 185.046782 
L 347.160669 174.962733 
L 349.253856 174.046001 
L 351.347044 174.351578 
L 353.440231 173.740424 
L 355.533418 173.740424 
L 357.626606 172.212538 
L 359.719793 171.601383 
L 361.812981 172.518115 
L 363.906168 173.129269 
L 368.092543 169.462342 
L 370.18573 169.76792 
L 372.278917 168.851188 
L 374.372105 168.545611 
L 376.465292 169.156765 
L 378.558479 184.435627 
L 380.651667 166.40657 
L 382.744854 167.323302 
L 384.838041 166.40657 
L 386.931229 164.878684 
L 389.024416 174.046001 
L 391.117603 166.100993 
L 393.210791 163.350798 
L 395.303978 163.350798 
L 397.397165 162.434066 
L 399.490353 162.434066 
L 401.58354 161.517334 
L 403.676727 161.822911 
L 405.769915 160.90618 
L 407.863102 161.517334 
L 409.95629 159.683871 
L 412.049477 158.767139 
L 414.142664 158.461562 
L 416.235852 158.461562 
L 418.329039 157.54483 
L 420.422226 156.933675 
L 422.515414 157.239253 
L 424.608601 155.711366 
L 426.701788 155.405789 
L 428.794976 155.711366 
L 430.888163 154.18348 
L 432.98135 155.711366 
L 435.074538 153.572326 
L 437.167725 152.655594 
L 441.3541 152.655594 
L 443.447287 152.044439 
L 445.540474 150.822131 
L 447.633662 150.210976 
L 449.726849 149.905399 
L 451.820036 150.516553 
L 453.913224 148.68309 
L 456.006411 149.905399 
L 458.099599 147.766358 
L 460.192786 147.460781 
L 462.285973 147.460781 
L 464.379161 149.905399 
L 466.472348 153.266748 
L 468.565535 145.627317 
L 470.658723 145.932895 
L 472.75191 144.099431 
L 474.845097 145.016163 
L 476.938285 143.488277 
L 479.031472 144.099431 
L 481.124659 142.571545 
L 483.217847 141.654813 
L 485.311034 141.043659 
L 487.404221 143.182699 
L 489.497409 142.265968 
L 491.590596 140.126927 
L 493.683783 139.210195 
L 495.776971 138.599041 
L 497.870158 139.82135 
L 499.963345 138.599041 
L 502.056533 137.987886 
L 504.14972 138.293463 
L 506.242908 136.765577 
L 508.336095 136.46 
L 510.429282 138.293463 
L 514.615657 135.848846 
L 516.708844 133.404228 
L 518.802032 132.793073 
L 520.895219 134.015382 
L 525.081594 131.570764 
L 529.267968 131.570764 
L 531.361156 133.09865 
L 533.454343 130.95961 
L 535.54753 130.348455 
L 537.640718 129.126146 
L 539.733905 131.265187 
L 541.827092 128.209414 
L 543.92028 128.514992 
L 546.013467 126.987105 
L 548.106655 128.209414 
L 550.199842 126.987105 
L 552.293029 126.987105 
L 554.386217 127.292683 
L 556.479404 123.931333 
L 558.572591 125.153642 
L 560.665779 123.931333 
L 562.758966 123.931333 
L 564.852153 123.014601 
L 566.945341 127.903837 
L 569.038528 122.403447 
L 571.131715 121.181138 
L 573.224903 121.792292 
L 575.31809 119.042097 
L 577.411277 123.014601 
L 579.504465 119.347674 
L 581.597652 119.347674 
L 583.690839 119.653252 
L 585.784027 117.514211 
L 587.877214 118.125365 
L 589.970401 116.903056 
L 592.063589 117.208634 
L 594.156776 115.37517 
L 596.249964 129.737301 
L 598.343151 114.764016 
L 600.436338 123.931333 
L 602.529526 127.59826 
L 604.622713 119.042097 
L 606.7159 115.986325 
L 608.809088 112.624975 
L 610.902275 111.097089 
L 612.995462 112.01382 
L 615.08865 111.097089 
L 617.181837 112.624975 
L 619.275024 113.847284 
L 621.368212 113.236129 
L 623.461399 110.180357 
L 625.554586 113.236129 
L 627.647774 106.819007 
L 629.740961 112.01382 
L 631.834148 106.819007 
L 633.927336 110.791511 
L 636.020523 107.430162 
L 638.11371 106.207853 
L 640.206898 106.207853 
L 642.300085 103.15208 
L 644.393273 106.207853 
L 646.48646 108.958048 
L 648.579647 113.847284 
L 650.672835 101.01304 
L 652.766022 102.540926 
L 654.859209 102.540926 
L 656.952397 99.485153 
L 659.045584 99.485153 
L 661.138771 102.235349 
L 663.231959 103.763235 
L 665.325146 101.929771 
L 667.418333 99.790731 
L 669.511521 130.042878 
L 671.604708 96.734958 
L 673.697895 96.123804 
L 675.791083 97.957267 
L 677.88427 97.957267 
L 679.977457 99.485153 
L 682.070645 97.346113 
L 684.163832 100.401885 
L 686.257019 95.207072 
L 688.350207 92.762454 
L 690.443394 102.235349 
L 692.536582 90.623413 
L 694.629769 92.456877 
L 696.722956 97.346113 
L 698.816144 91.234568 
L 700.909331 94.595917 
L 703.002518 90.623413 
L 705.095706 120.875561 
L 707.188893 87.262064 
L 709.28208 86.956486 
L 711.375268 89.401104 
L 713.468455 97.040535 
L 715.561642 88.78995 
L 717.65483 89.401104 
L 719.748017 88.484373 
L 721.841204 84.511868 
L 723.934392 89.706682 
L 726.027579 89.401104 
L 728.120766 84.206291 
L 730.213954 82.06725 
L 732.307141 86.039755 
L 734.400328 111.097089 
L 736.493516 107.735739 
L 738.586703 81.761673 
L 740.679891 89.095527 
L 742.773078 97.957267 
L 744.866265 78.705901 
L 746.959453 80.844941 
L 749.05264 78.400323 
L 751.145827 83.595137 
L 753.239015 88.484373 
L 755.332202 94.29034 
L 757.425389 79.92821 
L 759.518577 77.178015 
L 761.611764 78.094746 
L 763.704951 77.178015 
L 765.798139 81.761673 
L 767.891326 81.150519 
L 769.984513 76.56686 
L 772.077701 82.06725 
L 774.170888 78.705901 
L 776.264075 76.872437 
L 778.357263 79.317055 
L 780.45045 71.983201 
L 782.543637 76.872437 
L 784.636825 79.92821 
L 786.730012 69.844161 
L 788.8232 70.455315 
L 790.916387 72.899933 
L 793.009574 72.899933 
L 795.102762 71.677624 
L 797.195949 98.568422 
L 799.289136 81.150519 
L 801.382324 65.871656 
L 803.475511 80.844941 
L 805.568698 82.06725 
L 807.661886 66.482811 
L 809.755073 68.316274 
L 811.84826 63.121461 
L 813.941448 64.954925 
L 816.034635 68.010697 
L 818.127822 72.899933 
L 820.22101 67.093965 
L 822.314197 67.093965 
L 824.407384 64.954925 
L 826.500572 67.399543 
L 828.593759 62.510307 
L 830.686946 62.510307 
L 832.780134 62.20473 
L 834.873321 65.566079 
L 836.966509 64.649347 
L 839.059696 65.260502 
L 841.152883 59.148957 
L 843.246071 61.899152 
L 845.339258 74.122242 
L 847.432445 68.316274 
L 849.525633 60.982421 
L 851.61882 59.760112 
L 853.712007 64.038193 
L 855.805195 57.315494 
L 857.898382 67.093965 
L 859.991569 64.038193 
L 862.084757 57.315494 
L 864.177944 58.84338 
L 866.271131 66.482811 
L 868.364319 63.732616 
L 870.457506 65.260502 
L 872.550693 60.982421 
L 874.643881 50.898371 
L 876.737068 64.038193 
L 878.830255 62.815884 
L 880.923443 51.203949 
L 883.01663 53.954144 
L 885.109818 54.259721 
L 887.203005 57.621071 
L 889.296192 52.731835 
L 891.38938 52.426258 
L 893.482567 49.370485 
L 895.575754 64.649347 
L 897.668942 56.704339 
L 899.762129 45.397981 
L 901.855316 43.564518 
L 903.948504 55.787607 
L 906.041691 52.426258 
L 908.134878 47.231445 
L 910.228066 59.148957 
L 912.321253 113.847284 
L 914.41444 36.841818 
L 916.507628 41.425477 
L 918.600815 57.926648 
L 920.694002 51.509526 
L 922.78719 55.48203 
L 924.880377 46.314713 
L 926.973564 54.870876 
L 929.066752 57.315494 
L 931.159939 41.1199 
L 933.253127 55.48203 
L 935.346314 38.064127 
L 937.439501 50.287217 
L 939.532689 53.648567 
L 941.625876 52.426258 
L 943.719063 46.62029 
L 945.812251 54.565298 
L 947.905438 57.009916 
L 949.998625 61.287998 
L 952.091813 50.592794 
L 954.185 171.601383 
L 954.185 171.601383 
" clip-path="url(#p997c222bf3)" style="fill: none; stroke: #2ca02c; stroke-width: 1.5; stroke-linecap: square"/>
   </g>
   <g id="patch_3">
    <path d="M 50.87 246.04 
L 50.87 26.88 
" style="fill: none; stroke: #000000; stroke-width: 0.8; stroke-linejoin: miter; stroke-linecap: square"/>
   </g>
   <g id="patch_4">
    <path d="M 997.2 246.04 
L 997.2 26.88 
" style="fill: none; stroke: #000000; stroke-width: 0.8; stroke-linejoin: miter; stroke-linecap: square"/>
   </g>
   <g id="patch_5">
    <path d="M 50.87 246.04 
L 997.2 246.04 
" style="fill: none; stroke: #000000; stroke-width: 0.8; stroke-linejoin: miter; stroke-linecap: square"/>
   </g>
   <g id="patch_6">
    <path d="M 50.87 26.88 
L 997.2 26.88 
" style="fill: none; stroke: #000000; stroke-width: 0.8; stroke-linejoin: miter; stroke-linecap: square"/>
   </g>
   <g id="text_15">
    <!-- Number of Requests per Second -->
    <g transform="translate(426.972812 20.88) scale(0.12 -0.12)">
     <defs>
      <path id="DejaVuSans-4e" d="M 628 4666 
L 1478 4666 
L 3547 763 
L 3547 4666 
L 4159 4666 
L 4159 0 
L 3309 0 
L 1241 3903 
L 1241 0 
L 628 0 
L 628 4666 
z
" transform="scale(0.015625)"/>
      <path id="DejaVuSans-62" d="M 3116 1747 
Q 3116 2381 2855 2742 
Q 2594 3103 2138 3103 
Q 1681 3103 1420 2742 
Q 1159 2381 1159 1747 
Q 1159 1113 1420 752 
Q 1681 391 2138 391 
Q 2594 391 2855 752 
Q 3116 1113 3116 1747 
z
M 1159 2969 
Q 1341 3281 1617 3432 
Q 1894 3584 2278 3584 
Q 2916 3584 3314 3078 
Q 3713 2572 3713 1747 
Q 3713 922 3314 415 
Q 2916 -91 2278 -91 
Q 1894 -91 1617 61 
Q 1341 213 1159 525 
L 1159 0 
L 581 0 
L 581 4863 
L 1159 4863 
L 1159 2969 
z
" transform="scale(0.015625)"/>
      <path id="DejaVuSans-72" d="M 2631 2963 
Q 2534 3019 2420 3045 
Q 2306 3072 2169 3072 
Q 1681 3072 1420 2755 
Q 1159 2438 1159 1844 
L 1159 0 
L 581 0 
L 581 3500 
L 1159 3500 
L 1159 2956 
Q 1341 3275 1631 3429 
Q 1922 3584 2338 3584 
Q 2397 3584 2469 3576 
Q 2541 3569 2628 3553 
L 2631 2963 
z
" transform="scale(0.015625)"/>
      <path id="DejaVuSans-66" d="M 2375 4863 
L 2375 4384 
L 1825 4384 
Q 1516 4384 1395 4259 
Q 1275 4134 1275 3809 
L 1275 3500 
L 2222 3500 
L 2222 3053 
L 1275 3053 
L 1275 0 
L 697 0 
L 697 3053 
L 147 3053 
L 147 3500 
L 697 3500 
L 697 3744 
Q 697 4328 969 4595 
Q 1241 4863 1831 4863 
L 2375 4863 
z
" transform="scale(0.015625)"/>
     </defs>
     <use xlink:href="#DejaVuSans-4e"/>
     <use xlink:href="#DejaVuSans-75" transform="translate(74.804688 0)"/>
     <use xlink:href="#DejaVuSans-6d" transform="translate(138.183594 0)"/>
     <use xlink:href="#DejaVuSans-62" transform="translate(235.595703 0)"/>
     <use xlink:href="#DejaVuSans-65" transform="translate(299.072266 0)"/>
     <use xlink:href="#DejaVuSans-72" transform="translate(360.595703 0)"/>
     <use xlink:href="#DejaVuSans-20" transform="translate(401.708984 0)"/>
     <use xlink:href="#DejaVuSans-6f" transform="translate(433.496094 0)"/>
     <use xlink:href="#DejaVuSans-66" transform="translate(494.677734 0)"/>
     <use xlink:href="#DejaVuSans-20" transform="translate(529.882812 0)"/>
     <use xlink:href="#DejaVuSans-52" transform="translate(561.669922 0)"/>
     <use xlink:href="#DejaVuSans-65" transform="translate(626.652344 0)"/>
     <use xlink:href="#DejaVuSans-71" transform="translate(688.175781 0)"/>
     <use xlink:href="#DejaVuSans-75" transform="translate(751.652344 0)"/>
     <use xlink:href="#DejaVuSans-65" transform="translate(815.03125 0)"/>
     <use xlink:href="#DejaVuSans-73" transform="translate(876.554688 0)"/>
     <use xlink:href="#DejaVuSans-74" transform="translate(928.654297 0)"/>
     <use xlink:href="#DejaVuSans-73" transform="translate(967.863281 0)"/>
     <use xlink:href="#DejaVuSans-20" transform="translate(1019.962891 0)"/>
     <use xlink:href="#DejaVuSans-70" transform="translate(1051.75 0)"/>
     <use xlink:href="#DejaVuSans-65" transform="translate(1115.226562 0)"/>
     <use xlink:href="#DejaVuSans-72" transform="translate(1176.75 0)"/>
     <use xlink:href="#DejaVuSans-20" transform="translate(1217.863281 0)"/>
     <use xlink:href="#DejaVuSans-53" transform="translate(1249.650391 0)"/>
     <use xlink:href="#DejaVuSans-65" transform="translate(1313.126953 0)"/>
     <use xlink:href="#DejaVuSans-63" transform="translate(1374.650391 0)"/>
     <use xlink:href="#DejaVuSans-6f" transform="translate(1429.630859 0)"/>
     <use xlink:href="#DejaVuSans-6e" transform="translate(1490.8125 0)"/>
     <use xlink:href="#DejaVuSans-64" transform="translate(1554.191406 0)"/>
    </g>
   </g>
   <g id="legend_1">
    <g id="patch_7">
     <path d="M 57.87 78.914375 
L 191.21375 78.914375 
Q 193.21375 78.914375 193.21375 76.914375 
L 193.21375 33.88 
Q 193.21375 31.88 191.21375 31.88 
L 57.87 31.88 
Q 55.87 31.88 55.87 33.88 
L 55.87 76.914375 
Q 55.87 78.914375 57.87 78.914375 
z
" style="fill: #ffffff; opacity: 0.8; stroke: #cccccc; stroke-linejoin: miter"/>
    </g>
    <g id="line2d_16">
     <path d="M 59.87 39.978438 
L 69.87 39.978438 
L 79.87 39.978438 
" style="fill: none; stroke: #1f77b4; stroke-width: 1.5; stroke-linecap: square"/>
    </g>
    <g id="text_16">
     <!-- Single Large Results -->
     <g transform="translate(87.87 43.478438) scale(0.1 -0.1)">
      <defs>
       <path id="DejaVuSans-67" d="M 2906 1791 
Q 2906 2416 2648 2759 
Q 2391 3103 1925 3103 
Q 1463 3103 1205 2759 
Q 947 2416 947 1791 
Q 947 1169 1205 825 
Q 1463 481 1925 481 
Q 2391 481 2648 825 
Q 2906 1169 2906 1791 
z
M 3481 434 
Q 3481 -459 3084 -895 
Q 2688 -1331 1869 -1331 
Q 1566 -1331 1297 -1286 
Q 1028 -1241 775 -1147 
L 775 -588 
Q 1028 -725 1275 -790 
Q 1522 -856 1778 -856 
Q 2344 -856 2625 -561 
Q 2906 -266 2906 331 
L 2906 616 
Q 2728 306 2450 153 
Q 2172 0 1784 0 
Q 1141 0 747 490 
Q 353 981 353 1791 
Q 353 2603 747 3093 
Q 1141 3584 1784 3584 
Q 2172 3584 2450 3431 
Q 2728 3278 2906 2969 
L 2906 3500 
L 3481 3500 
L 3481 434 
z
" transform="scale(0.015625)"/>
       <path id="DejaVuSans-6c" d="M 603 4863 
L 1178 4863 
L 1178 0 
L 603 0 
L 603 4863 
z
" transform="scale(0.015625)"/>
       <path id="DejaVuSans-4c" d="M 628 4666 
L 1259 4666 
L 1259 531 
L 3531 531 
L 3531 0 
L 628 0 
L 628 4666 
z
" transform="scale(0.015625)"/>
      </defs>
      <use xlink:href="#DejaVuSans-53"/>
      <use xlink:href="#DejaVuSans-69" transform="translate(63.476562 0)"/>
      <use xlink:href="#DejaVuSans-6e" transform="translate(91.259766 0)"/>
      <use xlink:href="#DejaVuSans-67" transform="translate(154.638672 0)"/>
      <use xlink:href="#DejaVuSans-6c" transform="translate(218.115234 0)"/>
      <use xlink:href="#DejaVuSans-65" transform="translate(245.898438 0)"/>
      <use xlink:href="#DejaVuSans-20" transform="translate(307.421875 0)"/>
      <use xlink:href="#DejaVuSans-4c" transform="translate(339.208984 0)"/>
      <use xlink:href="#DejaVuSans-61" transform="translate(394.921875 0)"/>
      <use xlink:href="#DejaVuSans-72" transform="translate(456.201172 0)"/>
      <use xlink:href="#DejaVuSans-67" transform="translate(495.564453 0)"/>
      <use xlink:href="#DejaVuSans-65" transform="translate(559.041016 0)"/>
      <use xlink:href="#DejaVuSans-20" transform="translate(620.564453 0)"/>
      <use xlink:href="#DejaVuSans-52" transform="translate(652.351562 0)"/>
      <use xlink:href="#DejaVuSans-65" transform="translate(717.333984 0)"/>
      <use xlink:href="#DejaVuSans-73" transform="translate(778.857422 0)"/>
      <use xlink:href="#DejaVuSans-75" transform="translate(830.957031 0)"/>
      <use xlink:href="#DejaVuSans-6c" transform="translate(894.335938 0)"/>
      <use xlink:href="#DejaVuSans-74" transform="translate(922.119141 0)"/>
      <use xlink:href="#DejaVuSans-73" transform="translate(961.328125 0)"/>
     </g>
    </g>
    <g id="line2d_17">
     <path d="M 59.87 54.656563 
L 69.87 54.656563 
L 79.87 54.656563 
" style="fill: none; stroke: #ff7f0e; stroke-width: 1.5; stroke-linecap: square"/>
    </g>
    <g id="text_17">
     <!-- Single Small Results -->
     <g transform="translate(87.87 58.156563) scale(0.1 -0.1)">
      <use xlink:href="#DejaVuSans-53"/>
      <use xlink:href="#DejaVuSans-69" transform="translate(63.476562 0)"/>
      <use xlink:href="#DejaVuSans-6e" transform="translate(91.259766 0)"/>
      <use xlink:href="#DejaVuSans-67" transform="translate(154.638672 0)"/>
      <use xlink:href="#DejaVuSans-6c" transform="translate(218.115234 0)"/>
      <use xlink:href="#DejaVuSans-65" transform="translate(245.898438 0)"/>
      <use xlink:href="#DejaVuSans-20" transform="translate(307.421875 0)"/>
      <use xlink:href="#DejaVuSans-53" transform="translate(339.208984 0)"/>
      <use xlink:href="#DejaVuSans-6d" transform="translate(402.685547 0)"/>
      <use xlink:href="#DejaVuSans-61" transform="translate(500.097656 0)"/>
      <use xlink:href="#DejaVuSans-6c" transform="translate(561.376953 0)"/>
      <use xlink:href="#DejaVuSans-6c" transform="translate(589.160156 0)"/>
      <use xlink:href="#DejaVuSans-20" transform="translate(616.943359 0)"/>
      <use xlink:href="#DejaVuSans-52" transform="translate(648.730469 0)"/>
      <use xlink:href="#DejaVuSans-65" transform="translate(713.712891 0)"/>
      <use xlink:href="#DejaVuSans-73" transform="translate(775.236328 0)"/>
      <use xlink:href="#DejaVuSans-75" transform="translate(827.335938 0)"/>
      <use xlink:href="#DejaVuSans-6c" transform="translate(890.714844 0)"/>
      <use xlink:href="#DejaVuSans-74" transform="translate(918.498047 0)"/>
      <use xlink:href="#DejaVuSans-73" transform="translate(957.707031 0)"/>
     </g>
    </g>
    <g id="line2d_18">
     <path d="M 59.87 69.334688 
L 69.87 69.334688 
L 79.87 69.334688 
" style="fill: none; stroke: #2ca02c; stroke-width: 1.5; stroke-linecap: square"/>
    </g>
    <g id="text_18">
     <!-- Multi Results -->
     <g transform="translate(87.87 72.834688) scale(0.1 -0.1)">
      <defs>
       <path id="DejaVuSans-4d" d="M 628 4666 
L 1569 4666 
L 2759 1491 
L 3956 4666 
L 4897 4666 
L 4897 0 
L 4281 0 
L 4281 4097 
L 3078 897 
L 2444 897 
L 1241 4097 
L 1241 0 
L 628 0 
L 628 4666 
z
" transform="scale(0.015625)"/>
      </defs>
      <use xlink:href="#DejaVuSans-4d"/>
      <use xlink:href="#DejaVuSans-75" transform="translate(86.279297 0)"/>
      <use xlink:href="#DejaVuSans-6c" transform="translate(149.658203 0)"/>
      <use xlink:href="#DejaVuSans-74" transform="translate(177.441406 0)"/>
      <use xlink:href="#DejaVuSans-69" transform="translate(216.650391 0)"/>
      <use xlink:href="#DejaVuSans-20" transform="translate(244.433594 0)"/>
      <use xlink:href="#DejaVuSans-52" transform="translate(276.220703 0)"/>
      <use xlink:href="#DejaVuSans-65" transform="translate(341.203125 0)"/>
      <use xlink:href="#DejaVuSans-73" transform="translate(402.726562 0)"/>
      <use xlink:href="#DejaVuSans-75" transform="translate(454.826172 0)"/>
      <use xlink:href="#DejaVuSans-6c" transform="translate(518.205078 0)"/>
      <use xlink:href="#DejaVuSans-74" transform="translate(545.988281 0)"/>
      <use xlink:href="#DejaVuSans-73" transform="translate(585.197266 0)"/>
     </g>
    </g>
   </g>
  </g>
 </g>
 <defs>
  <clipPath id="p997c222bf3">
   <rect x="50.87" y="26.88" width="946.33" height="219.16"/>
  </clipPath>
 </defs>
</svg>
