<?xml version="1.0" encoding="utf-8" standalone="no"?>
<!DOCTYPE svg PUBLIC "-//W3C//DTD SVG 1.1//EN"
  "http://www.w3.org/Graphics/SVG/1.1/DTD/svg11.dtd">
<svg xmlns:xlink="http://www.w3.org/1999/xlink" width="864pt" height="432pt" viewBox="0 0 864 432" xmlns="http://www.w3.org/2000/svg" version="1.1">
 <metadata>
  <rdf:RDF xmlns:dc="http://purl.org/dc/elements/1.1/" xmlns:cc="http://creativecommons.org/ns#" xmlns:rdf="http://www.w3.org/1999/02/22-rdf-syntax-ns#">
   <cc:Work>
    <dc:type rdf:resource="http://purl.org/dc/dcmitype/StillImage"/>
    <dc:date>2025-05-31T16:14:21.759651</dc:date>
    <dc:format>image/svg+xml</dc:format>
    <dc:creator>
     <cc:Agent>
      <dc:title>Matplotlib v3.10.1, https://matplotlib.org/</dc:title>
     </cc:Agent>
    </dc:creator>
   </cc:Work>
  </rdf:RDF>
 </metadata>
 <defs>
  <style type="text/css">*{stroke-linejoin: round; stroke-linecap: butt}</style>
 </defs>
 <g id="figure_1">
  <g id="patch_1">
   <path d="M 0 432 
L 864 432 
L 864 0 
L 0 0 
z
" style="fill: #ffffff"/>
  </g>
  <g id="axes_1">
   <g id="patch_2">
    <path d="M 50.002685 390.04 
L 853.2 390.04 
L 853.2 41.856 
L 50.002685 41.856 
z
" style="fill: #ffffff"/>
   </g>
   <g id="matplotlib.axis_1">
    <g id="xtick_1">
     <g id="line2d_1">
      <defs>
       <path id="m84ffd0c31e" d="M 0 0 
L 0 3.5 
" style="stroke: #000000; stroke-width: 0.8"/>
      </defs>
      <g>
       <use xlink:href="#m84ffd0c31e" x="86.511654" y="390.04" style="stroke: #000000; stroke-width: 0.8"/>
      </g>
     </g>
     <g id="text_1">
      <!-- 0 -->
      <g transform="translate(83.330404 404.638438) scale(0.1 -0.1)">
       <defs>
        <path id="DejaVuSans-30" d="M 2034 4250 
Q 1547 4250 1301 3770 
Q 1056 3291 1056 2328 
Q 1056 1369 1301 889 
Q 1547 409 2034 409 
Q 2525 409 2770 889 
Q 3016 1369 3016 2328 
Q 3016 3291 2770 3770 
Q 2525 4250 2034 4250 
z
M 2034 4750 
Q 2819 4750 3233 4129 
Q 3647 3509 3647 2328 
Q 3647 1150 3233 529 
Q 2819 -91 2034 -91 
Q 1250 -91 836 529 
Q 422 1150 422 2328 
Q 422 3509 836 4129 
Q 1250 4750 2034 4750 
z
" transform="scale(0.015625)"/>
       </defs>
       <use xlink:href="#DejaVuSans-30"/>
      </g>
     </g>
    </g>
    <g id="xtick_2">
     <g id="line2d_2">
      <g>
       <use xlink:href="#m84ffd0c31e" x="232.576344" y="390.04" style="stroke: #000000; stroke-width: 0.8"/>
      </g>
     </g>
     <g id="text_2">
      <!-- 20 -->
      <g transform="translate(226.213844 404.638438) scale(0.1 -0.1)">
       <defs>
        <path id="DejaVuSans-32" d="M 1228 531 
L 3431 531 
L 3431 0 
L 469 0 
L 469 531 
Q 828 903 1448 1529 
Q 2069 2156 2228 2338 
Q 2531 2678 2651 2914 
Q 2772 3150 2772 3378 
Q 2772 3750 2511 3984 
Q 2250 4219 1831 4219 
Q 1534 4219 1204 4116 
Q 875 4013 500 3803 
L 500 4441 
Q 881 4594 1212 4672 
Q 1544 4750 1819 4750 
Q 2544 4750 2975 4387 
Q 3406 4025 3406 3419 
Q 3406 3131 3298 2873 
Q 3191 2616 2906 2266 
Q 2828 2175 2409 1742 
Q 1991 1309 1228 531 
z
" transform="scale(0.015625)"/>
       </defs>
       <use xlink:href="#DejaVuSans-32"/>
       <use xlink:href="#DejaVuSans-30" transform="translate(63.623047 0)"/>
      </g>
     </g>
    </g>
    <g id="xtick_3">
     <g id="line2d_3">
      <g>
       <use xlink:href="#m84ffd0c31e" x="378.641035" y="390.04" style="stroke: #000000; stroke-width: 0.8"/>
      </g>
     </g>
     <g id="text_3">
      <!-- 40 -->
      <g transform="translate(372.278535 404.638438) scale(0.1 -0.1)">
       <defs>
        <path id="DejaVuSans-34" d="M 2419 4116 
L 825 1625 
L 2419 1625 
L 2419 4116 
z
M 2253 4666 
L 3047 4666 
L 3047 1625 
L 3713 1625 
L 3713 1100 
L 3047 1100 
L 3047 0 
L 2419 0 
L 2419 1100 
L 313 1100 
L 313 1709 
L 2253 4666 
z
" transform="scale(0.015625)"/>
       </defs>
       <use xlink:href="#DejaVuSans-34"/>
       <use xlink:href="#DejaVuSans-30" transform="translate(63.623047 0)"/>
      </g>
     </g>
    </g>
    <g id="xtick_4">
     <g id="line2d_4">
      <g>
       <use xlink:href="#m84ffd0c31e" x="524.705726" y="390.04" style="stroke: #000000; stroke-width: 0.8"/>
      </g>
     </g>
     <g id="text_4">
      <!-- 60 -->
      <g transform="translate(518.343226 404.638438) scale(0.1 -0.1)">
       <defs>
        <path id="DejaVuSans-36" d="M 2113 2584 
Q 1688 2584 1439 2293 
Q 1191 2003 1191 1497 
Q 1191 994 1439 701 
Q 1688 409 2113 409 
Q 2538 409 2786 701 
Q 3034 994 3034 1497 
Q 3034 2003 2786 2293 
Q 2538 2584 2113 2584 
z
M 3366 4563 
L 3366 3988 
Q 3128 4100 2886 4159 
Q 2644 4219 2406 4219 
Q 1781 4219 1451 3797 
Q 1122 3375 1075 2522 
Q 1259 2794 1537 2939 
Q 1816 3084 2150 3084 
Q 2853 3084 3261 2657 
Q 3669 2231 3669 1497 
Q 3669 778 3244 343 
Q 2819 -91 2113 -91 
Q 1303 -91 875 529 
Q 447 1150 447 2328 
Q 447 3434 972 4092 
Q 1497 4750 2381 4750 
Q 2619 4750 2861 4703 
Q 3103 4656 3366 4563 
z
" transform="scale(0.015625)"/>
       </defs>
       <use xlink:href="#DejaVuSans-36"/>
       <use xlink:href="#DejaVuSans-30" transform="translate(63.623047 0)"/>
      </g>
     </g>
    </g>
    <g id="xtick_5">
     <g id="line2d_5">
      <g>
       <use xlink:href="#m84ffd0c31e" x="670.770417" y="390.04" style="stroke: #000000; stroke-width: 0.8"/>
      </g>
     </g>
     <g id="text_5">
      <!-- 80 -->
      <g transform="translate(664.407917 404.638438) scale(0.1 -0.1)">
       <defs>
        <path id="DejaVuSans-38" d="M 2034 2216 
Q 1584 2216 1326 1975 
Q 1069 1734 1069 1313 
Q 1069 891 1326 650 
Q 1584 409 2034 409 
Q 2484 409 2743 651 
Q 3003 894 3003 1313 
Q 3003 1734 2745 1975 
Q 2488 2216 2034 2216 
z
M 1403 2484 
Q 997 2584 770 2862 
Q 544 3141 544 3541 
Q 544 4100 942 4425 
Q 1341 4750 2034 4750 
Q 2731 4750 3128 4425 
Q 3525 4100 3525 3541 
Q 3525 3141 3298 2862 
Q 3072 2584 2669 2484 
Q 3125 2378 3379 2068 
Q 3634 1759 3634 1313 
Q 3634 634 3220 271 
Q 2806 -91 2034 -91 
Q 1263 -91 848 271 
Q 434 634 434 1313 
Q 434 1759 690 2068 
Q 947 2378 1403 2484 
z
M 1172 3481 
Q 1172 3119 1398 2916 
Q 1625 2713 2034 2713 
Q 2441 2713 2670 2916 
Q 2900 3119 2900 3481 
Q 2900 3844 2670 4047 
Q 2441 4250 2034 4250 
Q 1625 4250 1398 4047 
Q 1172 3844 1172 3481 
z
" transform="scale(0.015625)"/>
       </defs>
       <use xlink:href="#DejaVuSans-38"/>
       <use xlink:href="#DejaVuSans-30" transform="translate(63.623047 0)"/>
      </g>
     </g>
    </g>
    <g id="xtick_6">
     <g id="line2d_6">
      <g>
       <use xlink:href="#m84ffd0c31e" x="816.835108" y="390.04" style="stroke: #000000; stroke-width: 0.8"/>
      </g>
     </g>
     <g id="text_6">
      <!-- 100 -->
      <g transform="translate(807.291358 404.638438) scale(0.1 -0.1)">
       <defs>
        <path id="DejaVuSans-31" d="M 794 531 
L 1825 531 
L 1825 4091 
L 703 3866 
L 703 4441 
L 1819 4666 
L 2450 4666 
L 2450 531 
L 3481 531 
L 3481 0 
L 794 0 
L 794 531 
z
" transform="scale(0.015625)"/>
       </defs>
       <use xlink:href="#DejaVuSans-31"/>
       <use xlink:href="#DejaVuSans-30" transform="translate(63.623047 0)"/>
       <use xlink:href="#DejaVuSans-30" transform="translate(127.246094 0)"/>
      </g>
     </g>
    </g>
    <g id="text_7">
     <!-- Percentile (%) -->
     <g transform="translate(416.697436 418.316562) scale(0.1 -0.1)">
      <defs>
       <path id="DejaVuSans-50" d="M 1259 4147 
L 1259 2394 
L 2053 2394 
Q 2494 2394 2734 2622 
Q 2975 2850 2975 3272 
Q 2975 3691 2734 3919 
Q 2494 4147 2053 4147 
L 1259 4147 
z
M 628 4666 
L 2053 4666 
Q 2838 4666 3239 4311 
Q 3641 3956 3641 3272 
Q 3641 2581 3239 2228 
Q 2838 1875 2053 1875 
L 1259 1875 
L 1259 0 
L 628 0 
L 628 4666 
z
" transform="scale(0.015625)"/>
       <path id="DejaVuSans-65" d="M 3597 1894 
L 3597 1613 
L 953 1613 
Q 991 1019 1311 708 
Q 1631 397 2203 397 
Q 2534 397 2845 478 
Q 3156 559 3463 722 
L 3463 178 
Q 3153 47 2828 -22 
Q 2503 -91 2169 -91 
Q 1331 -91 842 396 
Q 353 884 353 1716 
Q 353 2575 817 3079 
Q 1281 3584 2069 3584 
Q 2775 3584 3186 3129 
Q 3597 2675 3597 1894 
z
M 3022 2063 
Q 3016 2534 2758 2815 
Q 2500 3097 2075 3097 
Q 1594 3097 1305 2825 
Q 1016 2553 972 2059 
L 3022 2063 
z
" transform="scale(0.015625)"/>
       <path id="DejaVuSans-72" d="M 2631 2963 
Q 2534 3019 2420 3045 
Q 2306 3072 2169 3072 
Q 1681 3072 1420 2755 
Q 1159 2438 1159 1844 
L 1159 0 
L 581 0 
L 581 3500 
L 1159 3500 
L 1159 2956 
Q 1341 3275 1631 3429 
Q 1922 3584 2338 3584 
Q 2397 3584 2469 3576 
Q 2541 3569 2628 3553 
L 2631 2963 
z
" transform="scale(0.015625)"/>
       <path id="DejaVuSans-63" d="M 3122 3366 
L 3122 2828 
Q 2878 2963 2633 3030 
Q 2388 3097 2138 3097 
Q 1578 3097 1268 2742 
Q 959 2388 959 1747 
Q 959 1106 1268 751 
Q 1578 397 2138 397 
Q 2388 397 2633 464 
Q 2878 531 3122 666 
L 3122 134 
Q 2881 22 2623 -34 
Q 2366 -91 2075 -91 
Q 1284 -91 818 406 
Q 353 903 353 1747 
Q 353 2603 823 3093 
Q 1294 3584 2113 3584 
Q 2378 3584 2631 3529 
Q 2884 3475 3122 3366 
z
" transform="scale(0.015625)"/>
       <path id="DejaVuSans-6e" d="M 3513 2113 
L 3513 0 
L 2938 0 
L 2938 2094 
Q 2938 2591 2744 2837 
Q 2550 3084 2163 3084 
Q 1697 3084 1428 2787 
Q 1159 2491 1159 1978 
L 1159 0 
L 581 0 
L 581 3500 
L 1159 3500 
L 1159 2956 
Q 1366 3272 1645 3428 
Q 1925 3584 2291 3584 
Q 2894 3584 3203 3211 
Q 3513 2838 3513 2113 
z
" transform="scale(0.015625)"/>
       <path id="DejaVuSans-74" d="M 1172 4494 
L 1172 3500 
L 2356 3500 
L 2356 3053 
L 1172 3053 
L 1172 1153 
Q 1172 725 1289 603 
Q 1406 481 1766 481 
L 2356 481 
L 2356 0 
L 1766 0 
Q 1100 0 847 248 
Q 594 497 594 1153 
L 594 3053 
L 172 3053 
L 172 3500 
L 594 3500 
L 594 4494 
L 1172 4494 
z
" transform="scale(0.015625)"/>
       <path id="DejaVuSans-69" d="M 603 3500 
L 1178 3500 
L 1178 0 
L 603 0 
L 603 3500 
z
M 603 4863 
L 1178 4863 
L 1178 4134 
L 603 4134 
L 603 4863 
z
" transform="scale(0.015625)"/>
       <path id="DejaVuSans-6c" d="M 603 4863 
L 1178 4863 
L 1178 0 
L 603 0 
L 603 4863 
z
" transform="scale(0.015625)"/>
       <path id="DejaVuSans-20" transform="scale(0.015625)"/>
       <path id="DejaVuSans-28" d="M 1984 4856 
Q 1566 4138 1362 3434 
Q 1159 2731 1159 2009 
Q 1159 1288 1364 580 
Q 1569 -128 1984 -844 
L 1484 -844 
Q 1016 -109 783 600 
Q 550 1309 550 2009 
Q 550 2706 781 3412 
Q 1013 4119 1484 4856 
L 1984 4856 
z
" transform="scale(0.015625)"/>
       <path id="DejaVuSans-25" d="M 4653 2053 
Q 4381 2053 4226 1822 
Q 4072 1591 4072 1178 
Q 4072 772 4226 539 
Q 4381 306 4653 306 
Q 4919 306 5073 539 
Q 5228 772 5228 1178 
Q 5228 1588 5073 1820 
Q 4919 2053 4653 2053 
z
M 4653 2450 
Q 5147 2450 5437 2106 
Q 5728 1763 5728 1178 
Q 5728 594 5436 251 
Q 5144 -91 4653 -91 
Q 4153 -91 3862 251 
Q 3572 594 3572 1178 
Q 3572 1766 3864 2108 
Q 4156 2450 4653 2450 
z
M 1428 4353 
Q 1159 4353 1004 4120 
Q 850 3888 850 3481 
Q 850 3069 1003 2837 
Q 1156 2606 1428 2606 
Q 1700 2606 1854 2837 
Q 2009 3069 2009 3481 
Q 2009 3884 1853 4118 
Q 1697 4353 1428 4353 
z
M 4250 4750 
L 4750 4750 
L 1831 -91 
L 1331 -91 
L 4250 4750 
z
M 1428 4750 
Q 1922 4750 2215 4408 
Q 2509 4066 2509 3481 
Q 2509 2891 2217 2550 
Q 1925 2209 1428 2209 
Q 931 2209 642 2551 
Q 353 2894 353 3481 
Q 353 4063 643 4406 
Q 934 4750 1428 4750 
z
" transform="scale(0.015625)"/>
       <path id="DejaVuSans-29" d="M 513 4856 
L 1013 4856 
Q 1481 4119 1714 3412 
Q 1947 2706 1947 2009 
Q 1947 1309 1714 600 
Q 1481 -109 1013 -844 
L 513 -844 
Q 928 -128 1133 580 
Q 1338 1288 1338 2009 
Q 1338 2731 1133 3434 
Q 928 4138 513 4856 
z
" transform="scale(0.015625)"/>
      </defs>
      <use xlink:href="#DejaVuSans-50"/>
      <use xlink:href="#DejaVuSans-65" transform="translate(56.677734 0)"/>
      <use xlink:href="#DejaVuSans-72" transform="translate(118.201172 0)"/>
      <use xlink:href="#DejaVuSans-63" transform="translate(157.064453 0)"/>
      <use xlink:href="#DejaVuSans-65" transform="translate(212.044922 0)"/>
      <use xlink:href="#DejaVuSans-6e" transform="translate(273.568359 0)"/>
      <use xlink:href="#DejaVuSans-74" transform="translate(336.947266 0)"/>
      <use xlink:href="#DejaVuSans-69" transform="translate(376.15625 0)"/>
      <use xlink:href="#DejaVuSans-6c" transform="translate(403.939453 0)"/>
      <use xlink:href="#DejaVuSans-65" transform="translate(431.722656 0)"/>
      <use xlink:href="#DejaVuSans-20" transform="translate(493.246094 0)"/>
      <use xlink:href="#DejaVuSans-28" transform="translate(525.033203 0)"/>
      <use xlink:href="#DejaVuSans-25" transform="translate(564.046875 0)"/>
      <use xlink:href="#DejaVuSans-29" transform="translate(659.066406 0)"/>
     </g>
    </g>
   </g>
   <g id="matplotlib.axis_2">
    <g id="ytick_1">
     <g id="line2d_7">
      <defs>
       <path id="mfc931a4139" d="M 0 0 
L -3.5 0 
" style="stroke: #000000; stroke-width: 0.8"/>
      </defs>
      <g>
       <use xlink:href="#mfc931a4139" x="50.002685" y="311.624795" style="stroke: #000000; stroke-width: 0.8"/>
      </g>
     </g>
     <g id="text_8">
      <!-- $\mathdefault{10^{1}}$ -->
      <g transform="translate(25.402685 315.424014) scale(0.1 -0.1)">
       <use xlink:href="#DejaVuSans-31" transform="translate(0 0.684375)"/>
       <use xlink:href="#DejaVuSans-30" transform="translate(63.623047 0.684375)"/>
       <use xlink:href="#DejaVuSans-31" transform="translate(128.203125 38.965625) scale(0.7)"/>
      </g>
     </g>
    </g>
    <g id="ytick_2">
     <g id="line2d_8">
      <g>
       <use xlink:href="#mfc931a4139" x="50.002685" y="210.095175" style="stroke: #000000; stroke-width: 0.8"/>
      </g>
     </g>
     <g id="text_9">
      <!-- $\mathdefault{10^{2}}$ -->
      <g transform="translate(25.402685 213.894394) scale(0.1 -0.1)">
       <use xlink:href="#DejaVuSans-31" transform="translate(0 0.765625)"/>
       <use xlink:href="#DejaVuSans-30" transform="translate(63.623047 0.765625)"/>
       <use xlink:href="#DejaVuSans-32" transform="translate(128.203125 39.046875) scale(0.7)"/>
      </g>
     </g>
    </g>
    <g id="ytick_3">
     <g id="line2d_9">
      <g>
       <use xlink:href="#mfc931a4139" x="50.002685" y="108.565555" style="stroke: #000000; stroke-width: 0.8"/>
      </g>
     </g>
     <g id="text_10">
      <!-- $\mathdefault{10^{3}}$ -->
      <g transform="translate(25.402685 112.364773) scale(0.1 -0.1)">
       <defs>
        <path id="DejaVuSans-33" d="M 2597 2516 
Q 3050 2419 3304 2112 
Q 3559 1806 3559 1356 
Q 3559 666 3084 287 
Q 2609 -91 1734 -91 
Q 1441 -91 1130 -33 
Q 819 25 488 141 
L 488 750 
Q 750 597 1062 519 
Q 1375 441 1716 441 
Q 2309 441 2620 675 
Q 2931 909 2931 1356 
Q 2931 1769 2642 2001 
Q 2353 2234 1838 2234 
L 1294 2234 
L 1294 2753 
L 1863 2753 
Q 2328 2753 2575 2939 
Q 2822 3125 2822 3475 
Q 2822 3834 2567 4026 
Q 2313 4219 1838 4219 
Q 1578 4219 1281 4162 
Q 984 4106 628 3988 
L 628 4550 
Q 988 4650 1302 4700 
Q 1616 4750 1894 4750 
Q 2613 4750 3031 4423 
Q 3450 4097 3450 3541 
Q 3450 3153 3228 2886 
Q 3006 2619 2597 2516 
z
" transform="scale(0.015625)"/>
       </defs>
       <use xlink:href="#DejaVuSans-31" transform="translate(0 0.765625)"/>
       <use xlink:href="#DejaVuSans-30" transform="translate(63.623047 0.765625)"/>
       <use xlink:href="#DejaVuSans-33" transform="translate(128.203125 39.046875) scale(0.7)"/>
      </g>
     </g>
    </g>
    <g id="ytick_4">
     <g id="line2d_10">
      <defs>
       <path id="ma25bb908dc" d="M 0 0 
L -2 0 
" style="stroke: #000000; stroke-width: 0.6"/>
      </defs>
      <g>
       <use xlink:href="#ma25bb908dc" x="50.002685" y="382.590954" style="stroke: #000000; stroke-width: 0.6"/>
      </g>
     </g>
    </g>
    <g id="ytick_5">
     <g id="line2d_11">
      <g>
       <use xlink:href="#ma25bb908dc" x="50.002685" y="364.712476" style="stroke: #000000; stroke-width: 0.6"/>
      </g>
     </g>
    </g>
    <g id="ytick_6">
     <g id="line2d_12">
      <g>
       <use xlink:href="#ma25bb908dc" x="50.002685" y="352.027493" style="stroke: #000000; stroke-width: 0.6"/>
      </g>
     </g>
    </g>
    <g id="ytick_7">
     <g id="line2d_13">
      <g>
       <use xlink:href="#ma25bb908dc" x="50.002685" y="342.188256" style="stroke: #000000; stroke-width: 0.6"/>
      </g>
     </g>
    </g>
    <g id="ytick_8">
     <g id="line2d_14">
      <g>
       <use xlink:href="#ma25bb908dc" x="50.002685" y="334.149014" style="stroke: #000000; stroke-width: 0.6"/>
      </g>
     </g>
    </g>
    <g id="ytick_9">
     <g id="line2d_15">
      <g>
       <use xlink:href="#ma25bb908dc" x="50.002685" y="327.351932" style="stroke: #000000; stroke-width: 0.6"/>
      </g>
     </g>
    </g>
    <g id="ytick_10">
     <g id="line2d_16">
      <g>
       <use xlink:href="#ma25bb908dc" x="50.002685" y="321.464032" style="stroke: #000000; stroke-width: 0.6"/>
      </g>
     </g>
    </g>
    <g id="ytick_11">
     <g id="line2d_17">
      <g>
       <use xlink:href="#ma25bb908dc" x="50.002685" y="316.270536" style="stroke: #000000; stroke-width: 0.6"/>
      </g>
     </g>
    </g>
    <g id="ytick_12">
     <g id="line2d_18">
      <g>
       <use xlink:href="#ma25bb908dc" x="50.002685" y="281.061334" style="stroke: #000000; stroke-width: 0.6"/>
      </g>
     </g>
    </g>
    <g id="ytick_13">
     <g id="line2d_19">
      <g>
       <use xlink:href="#ma25bb908dc" x="50.002685" y="263.182855" style="stroke: #000000; stroke-width: 0.6"/>
      </g>
     </g>
    </g>
    <g id="ytick_14">
     <g id="line2d_20">
      <g>
       <use xlink:href="#ma25bb908dc" x="50.002685" y="250.497873" style="stroke: #000000; stroke-width: 0.6"/>
      </g>
     </g>
    </g>
    <g id="ytick_15">
     <g id="line2d_21">
      <g>
       <use xlink:href="#ma25bb908dc" x="50.002685" y="240.658636" style="stroke: #000000; stroke-width: 0.6"/>
      </g>
     </g>
    </g>
    <g id="ytick_16">
     <g id="line2d_22">
      <g>
       <use xlink:href="#ma25bb908dc" x="50.002685" y="232.619394" style="stroke: #000000; stroke-width: 0.6"/>
      </g>
     </g>
    </g>
    <g id="ytick_17">
     <g id="line2d_23">
      <g>
       <use xlink:href="#ma25bb908dc" x="50.002685" y="225.822312" style="stroke: #000000; stroke-width: 0.6"/>
      </g>
     </g>
    </g>
    <g id="ytick_18">
     <g id="line2d_24">
      <g>
       <use xlink:href="#ma25bb908dc" x="50.002685" y="219.934412" style="stroke: #000000; stroke-width: 0.6"/>
      </g>
     </g>
    </g>
    <g id="ytick_19">
     <g id="line2d_25">
      <g>
       <use xlink:href="#ma25bb908dc" x="50.002685" y="214.740916" style="stroke: #000000; stroke-width: 0.6"/>
      </g>
     </g>
    </g>
    <g id="ytick_20">
     <g id="line2d_26">
      <g>
       <use xlink:href="#ma25bb908dc" x="50.002685" y="179.531714" style="stroke: #000000; stroke-width: 0.6"/>
      </g>
     </g>
    </g>
    <g id="ytick_21">
     <g id="line2d_27">
      <g>
       <use xlink:href="#ma25bb908dc" x="50.002685" y="161.653235" style="stroke: #000000; stroke-width: 0.6"/>
      </g>
     </g>
    </g>
    <g id="ytick_22">
     <g id="line2d_28">
      <g>
       <use xlink:href="#ma25bb908dc" x="50.002685" y="148.968253" style="stroke: #000000; stroke-width: 0.6"/>
      </g>
     </g>
    </g>
    <g id="ytick_23">
     <g id="line2d_29">
      <g>
       <use xlink:href="#ma25bb908dc" x="50.002685" y="139.129016" style="stroke: #000000; stroke-width: 0.6"/>
      </g>
     </g>
    </g>
    <g id="ytick_24">
     <g id="line2d_30">
      <g>
       <use xlink:href="#ma25bb908dc" x="50.002685" y="131.089774" style="stroke: #000000; stroke-width: 0.6"/>
      </g>
     </g>
    </g>
    <g id="ytick_25">
     <g id="line2d_31">
      <g>
       <use xlink:href="#ma25bb908dc" x="50.002685" y="124.292692" style="stroke: #000000; stroke-width: 0.6"/>
      </g>
     </g>
    </g>
    <g id="ytick_26">
     <g id="line2d_32">
      <g>
       <use xlink:href="#ma25bb908dc" x="50.002685" y="118.404791" style="stroke: #000000; stroke-width: 0.6"/>
      </g>
     </g>
    </g>
    <g id="ytick_27">
     <g id="line2d_33">
      <g>
       <use xlink:href="#ma25bb908dc" x="50.002685" y="113.211295" style="stroke: #000000; stroke-width: 0.6"/>
      </g>
     </g>
    </g>
    <g id="ytick_28">
     <g id="line2d_34">
      <g>
       <use xlink:href="#ma25bb908dc" x="50.002685" y="78.002093" style="stroke: #000000; stroke-width: 0.6"/>
      </g>
     </g>
    </g>
    <g id="ytick_29">
     <g id="line2d_35">
      <g>
       <use xlink:href="#ma25bb908dc" x="50.002685" y="60.123615" style="stroke: #000000; stroke-width: 0.6"/>
      </g>
     </g>
    </g>
    <g id="ytick_30">
     <g id="line2d_36">
      <g>
       <use xlink:href="#ma25bb908dc" x="50.002685" y="47.438632" style="stroke: #000000; stroke-width: 0.6"/>
      </g>
     </g>
    </g>
    <g id="text_11">
     <!-- Duration (ms) -->
     <g transform="translate(19.322997 250.62925) rotate(-90) scale(0.1 -0.1)">
      <defs>
       <path id="DejaVuSans-44" d="M 1259 4147 
L 1259 519 
L 2022 519 
Q 2988 519 3436 956 
Q 3884 1394 3884 2338 
Q 3884 3275 3436 3711 
Q 2988 4147 2022 4147 
L 1259 4147 
z
M 628 4666 
L 1925 4666 
Q 3281 4666 3915 4102 
Q 4550 3538 4550 2338 
Q 4550 1131 3912 565 
Q 3275 0 1925 0 
L 628 0 
L 628 4666 
z
" transform="scale(0.015625)"/>
       <path id="DejaVuSans-75" d="M 544 1381 
L 544 3500 
L 1119 3500 
L 1119 1403 
Q 1119 906 1312 657 
Q 1506 409 1894 409 
Q 2359 409 2629 706 
Q 2900 1003 2900 1516 
L 2900 3500 
L 3475 3500 
L 3475 0 
L 2900 0 
L 2900 538 
Q 2691 219 2414 64 
Q 2138 -91 1772 -91 
Q 1169 -91 856 284 
Q 544 659 544 1381 
z
M 1991 3584 
L 1991 3584 
z
" transform="scale(0.015625)"/>
       <path id="DejaVuSans-61" d="M 2194 1759 
Q 1497 1759 1228 1600 
Q 959 1441 959 1056 
Q 959 750 1161 570 
Q 1363 391 1709 391 
Q 2188 391 2477 730 
Q 2766 1069 2766 1631 
L 2766 1759 
L 2194 1759 
z
M 3341 1997 
L 3341 0 
L 2766 0 
L 2766 531 
Q 2569 213 2275 61 
Q 1981 -91 1556 -91 
Q 1019 -91 701 211 
Q 384 513 384 1019 
Q 384 1609 779 1909 
Q 1175 2209 1959 2209 
L 2766 2209 
L 2766 2266 
Q 2766 2663 2505 2880 
Q 2244 3097 1772 3097 
Q 1472 3097 1187 3025 
Q 903 2953 641 2809 
L 641 3341 
Q 956 3463 1253 3523 
Q 1550 3584 1831 3584 
Q 2591 3584 2966 3190 
Q 3341 2797 3341 1997 
z
" transform="scale(0.015625)"/>
       <path id="DejaVuSans-6f" d="M 1959 3097 
Q 1497 3097 1228 2736 
Q 959 2375 959 1747 
Q 959 1119 1226 758 
Q 1494 397 1959 397 
Q 2419 397 2687 759 
Q 2956 1122 2956 1747 
Q 2956 2369 2687 2733 
Q 2419 3097 1959 3097 
z
M 1959 3584 
Q 2709 3584 3137 3096 
Q 3566 2609 3566 1747 
Q 3566 888 3137 398 
Q 2709 -91 1959 -91 
Q 1206 -91 779 398 
Q 353 888 353 1747 
Q 353 2609 779 3096 
Q 1206 3584 1959 3584 
z
" transform="scale(0.015625)"/>
       <path id="DejaVuSans-6d" d="M 3328 2828 
Q 3544 3216 3844 3400 
Q 4144 3584 4550 3584 
Q 5097 3584 5394 3201 
Q 5691 2819 5691 2113 
L 5691 0 
L 5113 0 
L 5113 2094 
Q 5113 2597 4934 2840 
Q 4756 3084 4391 3084 
Q 3944 3084 3684 2787 
Q 3425 2491 3425 1978 
L 3425 0 
L 2847 0 
L 2847 2094 
Q 2847 2600 2669 2842 
Q 2491 3084 2119 3084 
Q 1678 3084 1418 2786 
Q 1159 2488 1159 1978 
L 1159 0 
L 581 0 
L 581 3500 
L 1159 3500 
L 1159 2956 
Q 1356 3278 1631 3431 
Q 1906 3584 2284 3584 
Q 2666 3584 2933 3390 
Q 3200 3197 3328 2828 
z
" transform="scale(0.015625)"/>
       <path id="DejaVuSans-73" d="M 2834 3397 
L 2834 2853 
Q 2591 2978 2328 3040 
Q 2066 3103 1784 3103 
Q 1356 3103 1142 2972 
Q 928 2841 928 2578 
Q 928 2378 1081 2264 
Q 1234 2150 1697 2047 
L 1894 2003 
Q 2506 1872 2764 1633 
Q 3022 1394 3022 966 
Q 3022 478 2636 193 
Q 2250 -91 1575 -91 
Q 1294 -91 989 -36 
Q 684 19 347 128 
L 347 722 
Q 666 556 975 473 
Q 1284 391 1588 391 
Q 1994 391 2212 530 
Q 2431 669 2431 922 
Q 2431 1156 2273 1281 
Q 2116 1406 1581 1522 
L 1381 1569 
Q 847 1681 609 1914 
Q 372 2147 372 2553 
Q 372 3047 722 3315 
Q 1072 3584 1716 3584 
Q 2034 3584 2315 3537 
Q 2597 3491 2834 3397 
z
" transform="scale(0.015625)"/>
      </defs>
      <use xlink:href="#DejaVuSans-44"/>
      <use xlink:href="#DejaVuSans-75" transform="translate(77.001953 0)"/>
      <use xlink:href="#DejaVuSans-72" transform="translate(140.380859 0)"/>
      <use xlink:href="#DejaVuSans-61" transform="translate(181.494141 0)"/>
      <use xlink:href="#DejaVuSans-74" transform="translate(242.773438 0)"/>
      <use xlink:href="#DejaVuSans-69" transform="translate(281.982422 0)"/>
      <use xlink:href="#DejaVuSans-6f" transform="translate(309.765625 0)"/>
      <use xlink:href="#DejaVuSans-6e" transform="translate(370.947266 0)"/>
      <use xlink:href="#DejaVuSans-20" transform="translate(434.326172 0)"/>
      <use xlink:href="#DejaVuSans-28" transform="translate(466.113281 0)"/>
      <use xlink:href="#DejaVuSans-6d" transform="translate(505.126953 0)"/>
      <use xlink:href="#DejaVuSans-73" transform="translate(602.539062 0)"/>
      <use xlink:href="#DejaVuSans-29" transform="translate(654.638672 0)"/>
     </g>
    </g>
   </g>
   <g id="line2d_37">
    <path d="M 86.511654 374.213455 
L 88.580559 369.509308 
L 90.649464 368.383524 
L 92.718369 367.959591 
L 94.787274 367.294153 
L 96.856178 366.781866 
L 98.925083 366.575426 
L 100.993988 366.007877 
L 103.062893 365.836944 
L 107.200703 364.283305 
L 109.269608 363.961696 
L 111.338513 363.386905 
L 113.407418 363.219025 
L 115.476323 362.054597 
L 117.545228 360.095679 
L 119.614133 358.907533 
L 121.683038 353.557268 
L 123.751943 353.476164 
L 125.820848 347.113228 
L 127.889753 312.189091 
L 129.958658 311.730451 
L 132.027563 299.070655 
L 134.096468 294.544968 
L 136.165373 293.036449 
L 138.234278 290.30426 
L 150.647708 289.831555 
L 152.716613 288.79649 
L 158.923328 288.541957 
L 160.992233 287.25343 
L 163.061137 286.689342 
L 165.130042 286.284846 
L 167.198947 283.872141 
L 169.267852 280.251648 
L 171.336757 280.17257 
L 175.474567 279.109866 
L 177.543472 278.051661 
L 179.612377 277.195018 
L 181.681282 276.725316 
L 183.750187 274.836271 
L 185.819092 273.443753 
L 187.887997 273.410585 
L 189.956902 272.542682 
L 192.025807 272.51529 
L 194.094712 271.784068 
L 198.232522 271.680108 
L 202.370332 271.294882 
L 204.439237 270.908383 
L 220.990477 270.016657 
L 223.059382 269.984893 
L 225.128287 269.291593 
L 229.266096 269.089877 
L 237.541716 268.766383 
L 239.610621 268.760301 
L 243.748431 268.510821 
L 245.817336 268.469025 
L 249.955146 267.95902 
L 252.024051 267.720029 
L 254.092956 267.719345 
L 256.161861 267.597115 
L 258.230766 267.275929 
L 264.437481 267.060888 
L 268.575291 266.323387 
L 270.644196 266.162444 
L 272.713101 266.138353 
L 274.782006 265.74092 
L 276.850911 265.721615 
L 280.988721 265.514186 
L 283.057626 265.510403 
L 285.126531 265.258595 
L 291.333246 265.12545 
L 295.471055 264.591348 
L 301.67777 264.117583 
L 305.81558 262.577816 
L 307.884485 261.677247 
L 309.95339 261.506988 
L 312.022295 260.424353 
L 320.297915 259.530884 
L 322.36682 257.551795 
L 324.435725 255.873716 
L 326.50463 255.377628 
L 328.573535 255.142354 
L 330.64244 254.484143 
L 332.711345 254.189222 
L 334.78025 253.369943 
L 336.849155 252.979407 
L 338.91806 249.256258 
L 340.986965 248.990905 
L 343.05587 247.450066 
L 345.124775 245.676587 
L 347.19368 245.589723 
L 349.262585 245.297961 
L 351.33149 245.21933 
L 353.400395 244.220991 
L 355.4693 242.064222 
L 357.538205 241.340754 
L 361.676014 240.320941 
L 363.744919 239.248455 
L 365.813824 237.698658 
L 367.882729 237.013781 
L 369.951634 236.969058 
L 374.089444 236.584535 
L 378.227254 234.782939 
L 380.296159 234.706263 
L 382.365064 232.994924 
L 384.433969 232.418236 
L 386.502874 232.294435 
L 388.571779 231.593344 
L 390.640684 231.337337 
L 392.709589 231.309293 
L 398.916304 229.706373 
L 403.054114 227.684468 
L 405.123019 227.38065 
L 407.191924 226.57466 
L 409.260829 225.335088 
L 411.329734 223.732704 
L 413.398639 223.639323 
L 417.536449 222.271964 
L 419.605354 222.155417 
L 421.674259 221.449605 
L 423.743164 219.621611 
L 425.812068 219.256435 
L 427.880973 219.033884 
L 429.949878 218.166023 
L 432.018783 217.089191 
L 434.087688 214.527783 
L 436.156593 214.513155 
L 438.225498 213.879587 
L 440.294403 212.701864 
L 442.363308 211.968986 
L 448.570023 210.339383 
L 450.638928 208.715003 
L 452.707833 207.804611 
L 454.776738 207.759153 
L 456.845643 207.275179 
L 458.914548 203.38465 
L 463.052358 203.195333 
L 465.121263 201.742497 
L 467.190168 201.099064 
L 469.259073 200.732645 
L 471.327978 200.583679 
L 473.396883 197.929942 
L 475.465788 196.940623 
L 477.534693 196.842531 
L 479.603598 194.897936 
L 481.672503 194.525561 
L 483.741408 193.472032 
L 485.810313 191.064887 
L 487.879218 190.941243 
L 489.948123 190.648947 
L 494.085932 190.598466 
L 498.223742 189.423867 
L 500.292647 188.558853 
L 502.361552 186.643035 
L 506.499362 186.036837 
L 508.568267 185.929975 
L 510.637172 184.163666 
L 512.706077 182.892758 
L 514.774982 182.593236 
L 516.843887 182.43454 
L 518.912792 181.029391 
L 520.981697 180.938347 
L 523.050602 180.460778 
L 525.119507 179.394478 
L 527.188412 177.747111 
L 529.257317 177.607765 
L 531.326222 174.685814 
L 533.395127 174.511118 
L 535.464032 173.434249 
L 537.532937 171.923434 
L 539.601842 169.236024 
L 541.670747 169.056706 
L 543.739652 168.484041 
L 547.877462 167.78632 
L 552.015272 167.649378 
L 554.084177 167.283688 
L 556.153082 166.488398 
L 558.221986 166.432112 
L 560.290891 165.134144 
L 562.359796 164.870765 
L 564.428701 164.728887 
L 566.497606 164.443818 
L 570.635416 163.073866 
L 572.704321 161.86161 
L 574.773226 161.598879 
L 576.842131 160.698949 
L 578.911036 160.551962 
L 585.117751 159.644442 
L 587.186656 159.596535 
L 589.255561 158.887815 
L 591.324466 158.811886 
L 595.462276 158.072206 
L 597.531181 157.953838 
L 599.600086 157.246674 
L 601.668991 157.172041 
L 603.737896 156.952011 
L 607.875706 155.884057 
L 612.013516 155.235836 
L 614.082421 153.546991 
L 616.151326 152.973617 
L 618.220231 152.759312 
L 622.358041 152.15888 
L 630.63366 151.825309 
L 632.702565 151.604921 
L 638.90928 151.385074 
L 640.978185 150.907324 
L 651.32271 150.148424 
L 653.391615 149.74832 
L 665.805045 149.015856 
L 667.87395 148.566151 
L 669.942855 148.411542 
L 672.01176 148.117732 
L 674.080665 147.680422 
L 676.14957 147.608047 
L 678.218475 146.839543 
L 682.356285 146.639929 
L 684.42519 146.361767 
L 690.631904 146.2222 
L 692.700809 144.560217 
L 694.769714 143.836809 
L 696.838619 143.260497 
L 698.907524 142.850029 
L 705.114239 142.307246 
L 709.252049 142.014548 
L 711.320954 141.891615 
L 713.389859 140.738929 
L 715.458764 140.341237 
L 717.527669 140.218056 
L 719.596574 139.522794 
L 723.734384 139.303858 
L 725.803289 138.70703 
L 727.872194 137.811275 
L 729.941099 137.63923 
L 732.010004 136.30169 
L 734.078909 136.249544 
L 736.147814 135.990974 
L 738.216719 135.414189 
L 740.285624 134.333501 
L 742.354529 133.978456 
L 746.492339 132.846799 
L 748.561244 131.976698 
L 752.699054 131.253286 
L 754.767959 130.249382 
L 756.836863 128.684198 
L 758.905768 126.372091 
L 760.974673 126.294018 
L 763.043578 123.114801 
L 765.112483 122.003691 
L 771.319198 121.674719 
L 773.388103 118.251981 
L 775.457008 117.880601 
L 777.525913 115.726044 
L 779.594818 115.558893 
L 781.663723 115.112962 
L 783.732628 114.323758 
L 785.801533 112.518111 
L 787.870438 111.937659 
L 789.939343 111.916456 
L 792.008248 111.176669 
L 796.146058 110.399806 
L 798.214963 110.247081 
L 800.283868 106.267528 
L 802.352773 105.831575 
L 804.421678 105.548124 
L 806.490583 105.488868 
L 808.559488 103.581344 
L 810.628393 101.449961 
L 812.697298 101.410097 
L 814.766203 101.182681 
L 814.766203 101.182681 
" clip-path="url(#pe7042e52cd)" style="fill: none; stroke: #1f77b4; stroke-width: 1.5; stroke-linecap: square"/>
   </g>
   <g id="line2d_38">
    <path d="M 86.511654 370.597571 
L 89.44468 369.430818 
L 92.377705 366.831742 
L 95.310731 366.204555 
L 98.243757 364.038868 
L 101.176783 363.575904 
L 104.109809 362.98573 
L 107.042835 362.952924 
L 109.975861 362.777682 
L 112.908887 362.000316 
L 115.841913 360.175874 
L 118.774939 360.049758 
L 121.707965 357.93006 
L 124.640991 356.517454 
L 127.574017 354.143324 
L 130.507042 304.446104 
L 133.440068 303.690423 
L 136.373094 303.072281 
L 142.239146 302.867367 
L 145.172172 301.627893 
L 148.105198 301.123309 
L 151.038224 300.984222 
L 153.97125 300.061482 
L 156.904276 299.948401 
L 159.837302 299.595431 
L 162.770328 298.829636 
L 168.636379 298.498726 
L 171.569405 298.294717 
L 177.435457 298.14879 
L 180.368483 297.961469 
L 183.301509 297.960244 
L 186.234535 297.787089 
L 189.167561 296.238249 
L 192.100587 296.198462 
L 195.033613 295.478887 
L 197.966639 293.995558 
L 209.698742 293.047324 
L 215.564794 292.633514 
L 218.49782 292.452503 
L 224.363872 290.764938 
L 230.229924 290.576906 
L 233.16295 289.22245 
L 239.029001 289.081504 
L 241.962027 288.779129 
L 244.895053 288.715364 
L 247.828079 287.995604 
L 253.694131 286.978389 
L 256.627157 286.411718 
L 259.560183 286.154273 
L 265.426235 285.994876 
L 268.359261 285.856937 
L 271.292287 285.351395 
L 274.225312 283.78428 
L 277.158338 280.939594 
L 280.091364 280.423593 
L 283.02439 280.077295 
L 288.890442 274.653815 
L 294.756494 271.675049 
L 297.68952 264.631407 
L 300.622546 251.433497 
L 303.555572 249.506493 
L 306.488598 244.394237 
L 309.421624 238.690326 
L 312.354649 238.249491 
L 315.287675 236.574353 
L 318.220701 234.474072 
L 321.153727 234.298858 
L 324.086753 228.56434 
L 327.019779 224.35186 
L 329.952805 224.239199 
L 332.885831 222.465811 
L 335.818857 221.016228 
L 338.751883 219.983899 
L 341.684909 217.300909 
L 344.617935 215.760227 
L 347.55096 215.331428 
L 350.483986 214.353979 
L 353.417012 212.609905 
L 356.350038 212.374475 
L 359.283064 212.014215 
L 362.21609 211.184571 
L 365.149116 211.058318 
L 368.082142 209.407273 
L 373.948194 209.158369 
L 379.814246 209.057288 
L 382.747271 208.767986 
L 385.680297 208.704433 
L 388.613323 207.531639 
L 391.546349 207.375919 
L 394.479375 206.931861 
L 397.412401 206.806515 
L 400.345427 206.340057 
L 403.278453 206.33648 
L 406.211479 204.971835 
L 409.144505 204.704061 
L 412.077531 204.625124 
L 415.010557 204.023321 
L 417.943583 204.01129 
L 420.876608 199.850675 
L 423.809634 196.435649 
L 426.74266 193.717129 
L 429.675686 188.486311 
L 432.608712 182.905347 
L 435.541738 182.810803 
L 438.474764 181.765422 
L 441.40779 180.581905 
L 444.340816 180.093752 
L 447.273842 178.021703 
L 450.206868 176.706375 
L 456.072919 176.17248 
L 459.005945 176.162123 
L 461.938971 175.922864 
L 467.805023 175.624351 
L 470.738049 175.214133 
L 473.671075 174.240515 
L 476.604101 172.854757 
L 479.537127 172.850468 
L 485.403179 170.638286 
L 488.336205 170.46487 
L 491.269231 167.892816 
L 494.202256 167.606357 
L 497.135282 162.938878 
L 500.068308 161.05107 
L 503.001334 160.969994 
L 505.93436 160.437097 
L 508.867386 158.802159 
L 511.800412 158.383707 
L 532.331593 157.576565 
L 541.130671 156.590261 
L 544.063697 156.475715 
L 546.996723 155.285772 
L 549.929749 155.063386 
L 552.862775 153.535725 
L 558.728827 147.27453 
L 561.661853 146.457593 
L 564.594878 146.125097 
L 567.527904 145.428064 
L 570.46093 145.385156 
L 573.393956 145.138362 
L 579.260008 145.05317 
L 582.193034 144.810258 
L 596.858164 144.607267 
L 605.657241 144.160295 
L 608.590267 143.793271 
L 611.523293 137.897614 
L 614.456319 135.436717 
L 617.389345 135.343303 
L 620.322371 135.055868 
L 640.853552 134.812417 
L 646.719604 134.642132 
L 661.384734 134.540437 
L 670.183812 134.204426 
L 673.116838 130.323982 
L 676.049863 128.811859 
L 678.982889 128.643517 
L 681.915915 127.544693 
L 690.714993 126.517968 
L 693.648019 126.508289 
L 696.581045 126.329817 
L 699.514071 126.32408 
L 702.447097 120.092488 
L 708.313149 119.914657 
L 711.246174 119.877354 
L 714.1792 119.251822 
L 717.112226 115.520928 
L 720.045252 114.387295 
L 722.978278 112.726644 
L 725.911304 112.473794 
L 728.84433 107.534594 
L 731.777356 104.133751 
L 737.643408 104.017331 
L 740.576434 103.961304 
L 743.50946 103.560755 
L 746.442485 102.898524 
L 749.375511 100.099003 
L 755.241563 99.940186 
L 758.174589 96.365134 
L 764.040641 95.753464 
L 766.973667 95.230607 
L 769.906693 92.620733 
L 772.839719 92.434902 
L 775.772745 92.403859 
L 778.705771 92.168351 
L 781.638797 91.625075 
L 784.571822 89.603569 
L 787.504848 89.211669 
L 796.303926 89.081771 
L 799.236952 85.822397 
L 802.169978 84.105043 
L 805.103004 83.488217 
L 808.03603 83.122532 
L 810.969056 82.932817 
L 813.902082 75.526579 
L 813.902082 75.526579 
" clip-path="url(#pe7042e52cd)" style="fill: none; stroke: #ff7f0e; stroke-width: 1.5; stroke-linecap: square"/>
   </g>
   <g id="line2d_39">
    <path d="M 86.511654 364.891772 
L 86.65573 364.023064 
L 86.799807 362.165011 
L 86.943883 361.937833 
L 87.520189 359.515086 
L 87.952418 359.450756 
L 88.240571 358.715888 
L 88.816877 358.502405 
L 89.105029 358.376484 
L 89.249106 358.370921 
L 89.969488 357.758498 
L 90.113565 357.734803 
L 90.401717 357.461269 
L 90.833947 356.991191 
L 91.842482 356.695237 
L 92.130635 356.298138 
L 95.15624 355.267003 
L 95.444393 355.220261 
L 95.732546 355.005495 
L 97.317386 354.472286 
L 101.351527 353.613202 
L 101.927832 353.264096 
L 102.504138 353.055852 
L 103.368597 352.949959 
L 104.665285 352.365007 
L 106.970508 351.543376 
L 107.25866 351.412429 
L 108.123119 351.270869 
L 108.411272 351.14828 
L 108.987578 350.966878 
L 109.275731 350.789757 
L 109.419807 350.785223 
L 109.852036 350.490416 
L 110.284266 350.333606 
L 112.157259 349.72881 
L 113.021718 349.636775 
L 113.598024 348.833784 
L 113.886176 348.628317 
L 114.174329 348.349963 
L 114.606559 348.003952 
L 115.182864 347.222464 
L 117.199935 345.769772 
L 118.064393 345.462225 
L 118.20847 345.279228 
L 118.352546 344.149645 
L 118.496622 344.103836 
L 118.784775 343.543219 
L 119.217005 343.085126 
L 119.505157 342.2748 
L 119.649234 342.187754 
L 119.79331 341.960177 
L 119.937387 341.249666 
L 120.369616 341.026997 
L 120.945922 339.957483 
L 121.378151 339.622348 
L 121.522228 339.129296 
L 121.81038 338.939481 
L 122.098533 336.552101 
L 122.530763 335.73606 
L 122.818916 334.742271 
L 122.962992 334.664332 
L 123.395221 332.354946 
L 123.539298 332.178154 
L 124.115603 330.289738 
L 124.403756 327.97238 
L 124.691909 327.219887 
L 124.835986 327.215145 
L 125.124138 326.735112 
L 125.268215 326.590228 
L 125.556368 325.32315 
L 125.700444 321.979223 
L 125.844521 321.959799 
L 125.988597 321.592935 
L 126.132674 320.705842 
L 126.27675 320.67991 
L 126.420826 320.305436 
L 126.708979 317.781508 
L 126.853056 317.001482 
L 126.997132 316.942867 
L 127.141209 315.908279 
L 127.429361 315.836858 
L 127.717514 315.492869 
L 127.861591 315.485283 
L 128.005667 315.298873 
L 128.149744 314.740225 
L 131.463502 312.992437 
L 133.336495 312.382821 
L 133.624648 312.277136 
L 134.489107 312.07176 
L 135.065413 311.809679 
L 135.497642 311.694487 
L 136.073948 311.519928 
L 136.3621 311.376766 
L 136.938406 311.207917 
L 138.091018 310.746712 
L 138.523247 310.684625 
L 138.955476 310.558225 
L 139.387706 310.465752 
L 139.819935 310.325388 
L 140.684394 310.219223 
L 140.972546 310.09638 
L 141.837005 309.971645 
L 143.133693 309.616591 
L 144.574457 309.312185 
L 144.86261 309.261269 
L 145.29484 309.09427 
L 146.447451 308.890719 
L 146.87968 308.777163 
L 147.455986 308.616876 
L 147.744139 308.460819 
L 148.176368 308.40585 
L 150.193438 308.213264 
L 151.922356 307.796763 
L 152.354585 307.732425 
L 153.795349 307.582873 
L 154.083502 307.441104 
L 154.515731 307.376338 
L 155.236114 307.241489 
L 155.668343 307.14818 
L 156.676878 307.063882 
L 157.39726 306.869092 
L 158.982101 306.663234 
L 162.151783 306.228699 
L 163.44847 306.00147 
L 164.312929 305.870929 
L 165.321464 305.648051 
L 167.194458 305.391244 
L 167.626687 305.311256 
L 168.923375 305.145406 
L 170.075987 305.007603 
L 170.364139 304.890102 
L 170.652292 304.832882 
L 171.228598 304.630209 
L 172.813439 304.378999 
L 174.254203 304.012367 
L 174.830509 303.918388 
L 175.262738 303.795272 
L 175.550891 303.724399 
L 175.839044 303.632071 
L 177.423885 303.487216 
L 180.593566 302.906919 
L 181.890254 302.783778 
L 182.610636 302.621952 
L 182.898789 302.456133 
L 183.619171 302.341776 
L 188.373694 301.032315 
L 188.661847 300.773166 
L 189.526305 300.521016 
L 190.246688 300.386746 
L 191.111146 300.177863 
L 191.975605 299.877701 
L 192.840063 299.545417 
L 193.272293 299.416714 
L 193.560446 299.326696 
L 194.424904 299.077263 
L 195.289363 298.785965 
L 195.577516 298.740441 
L 195.865669 298.447729 
L 196.586051 298.353683 
L 197.01828 298.141008 
L 197.450509 298.106959 
L 197.738662 297.913115 
L 201.340573 297.260728 
L 201.916879 297.196485 
L 202.493185 297.091854 
L 202.781337 297.009885 
L 204.222102 296.797924 
L 205.662866 296.360296 
L 206.815478 296.239378 
L 206.959554 296.016398 
L 208.688471 295.850962 
L 209.120701 295.789096 
L 211.137771 295.361658 
L 215.460064 294.586059 
L 215.748217 294.451132 
L 216.324522 294.313538 
L 220.214586 293.532695 
L 221.223121 293.392847 
L 222.952039 292.914958 
L 223.960574 292.843387 
L 224.248726 292.72944 
L 225.545414 292.502226 
L 229.723631 291.957648 
L 234.62223 291.041491 
L 234.910383 290.819901 
L 235.342612 290.79253 
L 235.630765 290.672944 
L 236.062994 290.499371 
L 243.266816 288.720098 
L 244.131275 288.604603 
L 248.165415 287.420666 
L 248.309491 287.176537 
L 248.597644 287.061938 
L 249.17395 286.70931 
L 249.606179 286.630175 
L 250.182485 286.39592 
L 250.614714 286.308359 
L 250.902867 286.126988 
L 251.911402 285.637205 
L 252.775861 285.529973 
L 253.352166 285.371209 
L 254.648854 284.896499 
L 254.792931 284.852754 
L 255.081084 284.683539 
L 255.369237 284.506738 
L 255.513313 284.243439 
L 255.945542 284.134973 
L 256.521848 283.977486 
L 257.530383 283.863271 
L 257.962612 283.776014 
L 258.394842 283.62308 
L 258.827071 283.427649 
L 260.555988 283.04843 
L 260.844141 282.717252 
L 264.590128 281.601432 
L 265.886816 281.344377 
L 266.174969 281.099589 
L 266.751275 280.951191 
L 267.039428 280.831724 
L 267.75981 280.673372 
L 268.047963 280.525794 
L 268.336116 280.500618 
L 268.624269 280.270593 
L 269.344651 280.083645 
L 269.632804 279.968748 
L 269.920957 279.821375 
L 270.497262 279.657067 
L 271.073568 279.481009 
L 272.22618 279.179892 
L 272.514332 278.965922 
L 276.836626 277.132228 
L 277.989237 276.539271 
L 278.421466 276.086008 
L 278.997772 275.959462 
L 280.150384 275.629891 
L 280.29446 275.378438 
L 281.014842 275.211606 
L 281.447072 275.112911 
L 282.023377 274.980529 
L 283.896371 274.221907 
L 284.3286 274.149444 
L 284.616753 274.011719 
L 285.337135 273.865141 
L 285.769365 273.624504 
L 288.36274 272.655841 
L 288.506817 272.347236 
L 289.083123 272.24573 
L 290.091658 271.697343 
L 290.379811 271.238032 
L 290.667963 271.088176 
L 291.100193 271.028819 
L 291.532422 270.671581 
L 291.820575 270.355168 
L 293.117263 269.692706 
L 293.693569 269.605657 
L 294.125798 269.258065 
L 294.413951 269.145163 
L 294.702104 268.986212 
L 295.710639 268.668195 
L 296.431021 268.515968 
L 296.86325 268.21116 
L 297.295479 268.101183 
L 297.583632 267.958134 
L 298.159938 267.884434 
L 298.592167 267.528528 
L 298.736244 267.517765 
L 299.024397 267.34164 
L 299.600702 267.107781 
L 299.888855 266.850797 
L 300.753314 266.523149 
L 301.185543 266.058085 
L 301.761849 265.922413 
L 302.050002 265.747982 
L 302.338155 265.716281 
L 302.626308 265.56775 
L 302.770384 265.53625 
L 303.058537 265.201466 
L 305.219683 264.684706 
L 306.372295 263.864082 
L 307.813059 263.563309 
L 308.101212 263.34413 
L 308.677518 263.056161 
L 309.253824 263.020001 
L 309.541977 262.856232 
L 309.974206 262.707195 
L 310.118282 262.509088 
L 310.406435 262.503852 
L 310.694588 262.234177 
L 310.982741 262.176057 
L 311.270894 261.979547 
L 311.559047 261.798979 
L 312.279429 261.655072 
L 312.711658 261.485472 
L 313.720193 260.666861 
L 313.86427 260.634542 
L 314.152422 260.341696 
L 315.016881 259.676929 
L 315.737263 259.353082 
L 316.025416 259.207885 
L 316.313569 259.110998 
L 316.457645 258.804219 
L 316.745798 258.768672 
L 317.033951 258.592654 
L 317.178028 258.556088 
L 317.322104 258.322064 
L 317.89841 258.179619 
L 318.186563 257.82674 
L 318.330639 257.813877 
L 319.051021 257.103548 
L 319.339174 256.849735 
L 319.483251 256.58174 
L 320.203633 256.509403 
L 320.491786 256.292552 
L 320.779939 256.2775 
L 321.068091 256.110544 
L 321.500321 255.968559 
L 322.220703 255.738395 
L 323.229238 255.61052 
L 323.661467 255.357296 
L 323.805544 255.341906 
L 324.237773 254.839146 
L 324.958155 254.649971 
L 325.678537 254.546818 
L 325.96669 254.322846 
L 326.39892 254.223967 
L 326.975225 254.076712 
L 329.136372 253.061906 
L 329.424525 252.894769 
L 330.721213 252.331627 
L 331.009365 252.17165 
L 331.729748 251.906743 
L 331.873824 251.595535 
L 332.306053 251.507031 
L 332.738283 251.303339 
L 333.746818 251.079307 
L 334.323124 250.696841 
L 335.043506 250.559375 
L 335.619811 250.452972 
L 336.340194 250.321228 
L 336.628346 250.172323 
L 337.060576 250.10305 
L 337.492805 249.815199 
L 337.780958 249.695302 
L 338.50134 249.530454 
L 338.933569 249.277649 
L 339.653952 249.027734 
L 339.942105 248.850329 
L 342.103251 248.577668 
L 342.391404 248.47437 
L 342.679557 248.387659 
L 343.688092 248.157216 
L 344.264398 247.973202 
L 344.696627 247.780844 
L 349.595226 246.898904 
L 350.891914 246.371893 
L 351.180067 246.239281 
L 352.620831 245.901887 
L 353.341213 245.8558 
L 353.629366 245.687097 
L 355.50236 245.471542 
L 356.654971 245.189726 
L 357.807583 244.820155 
L 358.672041 244.647747 
L 359.248347 244.401481 
L 359.5365 244.191629 
L 360.112806 243.957376 
L 365.443634 242.351534 
L 366.596245 242.171692 
L 367.60478 241.94552 
L 367.892933 241.781053 
L 372.791532 240.342481 
L 373.079685 240.221823 
L 374.808602 239.927634 
L 376.10529 239.384478 
L 376.681596 239.272945 
L 376.969749 239.171517 
L 377.546054 239.064214 
L 378.842742 238.767293 
L 379.563124 238.628943 
L 381.580195 238.396386 
L 383.597265 237.746258 
L 383.885417 237.641162 
L 384.6058 237.569723 
L 386.334717 237.435845 
L 387.775481 237.072337 
L 388.063634 237.004961 
L 388.495863 236.928631 
L 390.945163 236.694281 
L 397.14045 235.547688 
L 397.716755 235.458321 
L 405.20873 234.079746 
L 405.496883 233.971023 
L 406.505418 233.854588 
L 407.369877 233.665129 
L 408.954717 233.327942 
L 409.6751 233.062012 
L 410.539558 232.98097 
L 411.404017 232.780224 
L 412.124399 232.645349 
L 419.76045 231.056412 
L 421.345291 230.93271 
L 423.650514 230.582831 
L 424.659049 230.466493 
L 428.693189 229.744804 
L 429.269495 229.46682 
L 430.566183 229.282615 
L 432.439176 228.800638 
L 433.735864 228.574782 
L 434.456247 228.432048 
L 437.193699 228.136896 
L 438.202234 227.844193 
L 439.066692 227.723739 
L 439.642998 227.562532 
L 441.083763 227.387413 
L 441.804145 227.101123 
L 442.236374 226.996827 
L 444.397521 226.473262 
L 444.973826 226.389561 
L 449.007967 225.713945 
L 449.296119 225.611466 
L 449.584272 225.517163 
L 449.872425 225.406554 
L 451.457266 225.121741 
L 452.177648 224.901373 
L 453.042107 224.687812 
L 455.923635 224.131712 
L 456.788094 223.887848 
L 457.3644 223.675104 
L 457.652553 223.560418 
L 458.805164 223.194262 
L 460.101852 223.029852 
L 460.678158 222.94332 
L 461.254464 222.849825 
L 461.974846 222.642125 
L 467.161597 221.702849 
L 467.737903 221.580184 
L 469.034591 221.382941 
L 469.46682 221.231446 
L 472.348349 220.821947 
L 472.492426 220.536509 
L 473.068731 220.463212 
L 473.356884 220.291882 
L 473.789114 220.226645 
L 474.077266 220.119141 
L 474.509496 220.06307 
L 474.797649 219.847358 
L 475.662107 219.723284 
L 478.399559 218.89125 
L 478.687712 218.563029 
L 478.975865 218.436441 
L 480.848859 218.014268 
L 481.137012 217.843342 
L 481.569241 217.658878 
L 482.00147 217.576413 
L 482.4337 217.223767 
L 485.027076 216.76365 
L 485.459305 216.619601 
L 486.035611 216.487031 
L 490.934209 215.604496 
L 491.222362 215.523362 
L 491.942744 215.437943 
L 492.807203 215.247477 
L 495.832808 214.79779 
L 496.120961 214.682542 
L 497.705802 214.376751 
L 497.993955 214.195778 
L 500.155101 213.737603 
L 500.587331 213.611051 
L 503.468859 213.115962 
L 503.757012 212.982647 
L 504.189242 212.858081 
L 507.214847 212.282898 
L 508.943764 211.936348 
L 509.375993 211.700819 
L 510.240452 211.512819 
L 511.825293 211.299532 
L 512.689751 211.169786 
L 512.977904 211.047501 
L 513.698286 210.945465 
L 514.850898 210.683299 
L 515.859433 210.331963 
L 516.435739 210.140085 
L 517.444274 209.914313 
L 517.876503 209.829315 
L 518.164656 209.705552 
L 518.596885 209.635186 
L 520.037649 209.423486 
L 521.046185 209.227337 
L 521.478414 209.101274 
L 522.631025 208.886412 
L 530.411153 207.600914 
L 530.987459 207.508779 
L 532.284147 207.210163 
L 532.860452 207.108332 
L 535.453828 206.598835 
L 536.750516 206.464394 
L 538.047204 206.195799 
L 539.199815 206.058216 
L 542.081344 205.723834 
L 542.945803 205.488141 
L 545.106949 205.116578 
L 545.971408 204.975814 
L 546.259561 204.883595 
L 547.268096 204.714253 
L 551.878542 203.536607 
L 552.166695 203.366011 
L 553.607459 203.007929 
L 553.895612 202.769845 
L 554.471918 202.661175 
L 555.912682 202.399821 
L 556.488988 202.164187 
L 556.921217 202.111733 
L 558.217905 201.945095 
L 558.506058 201.783106 
L 559.22644 201.6724 
L 560.523128 201.395099 
L 561.963892 201.18155 
L 562.684275 201.048133 
L 563.69281 200.834401 
L 563.980962 200.746353 
L 564.989497 200.635359 
L 571.040708 199.797452 
L 571.328861 199.703728 
L 571.905166 199.661332 
L 572.337396 199.508666 
L 574.210389 199.198885 
L 574.786695 199.081577 
L 575.79523 198.920868 
L 576.371536 198.796676 
L 577.8123 198.432818 
L 578.388606 198.194852 
L 578.820835 198.077295 
L 578.964912 198.051283 
L 579.253065 197.879949 
L 580.405676 197.769762 
L 580.837905 197.643433 
L 581.126058 197.513336 
L 582.134593 197.273787 
L 582.422746 197.119155 
L 583.431281 196.865007 
L 583.863511 196.797772 
L 588.32988 195.966773 
L 588.618033 195.594363 
L 589.482492 195.217035 
L 589.770644 195.145535 
L 590.058797 194.983029 
L 590.34695 194.954444 
L 590.635103 194.809714 
L 592.075867 194.522412 
L 592.940326 194.254199 
L 593.372555 194.201816 
L 593.660708 194.07224 
L 594.38109 193.931159 
L 594.957396 193.739003 
L 596.254084 193.459516 
L 596.686313 193.354909 
L 597.838925 193.093852 
L 598.127078 192.952222 
L 599.567842 192.668065 
L 600.432301 192.534068 
L 601.440836 192.434305 
L 601.728989 192.299239 
L 602.449371 192.199051 
L 603.025677 192.118663 
L 603.313829 192.049098 
L 603.601982 192.008646 
L 603.890135 191.783495 
L 605.907205 191.300421 
L 608.212428 191.064851 
L 608.644658 190.959099 
L 609.220963 190.865797 
L 609.509116 190.771046 
L 610.085422 190.546019 
L 610.517651 190.447041 
L 611.526186 190.319015 
L 611.958416 190.213905 
L 613.543256 190.074989 
L 615.272174 189.90805 
L 616.424785 189.66079 
L 618.153702 189.470668 
L 621.755613 188.789672 
L 632.273193 187.678358 
L 633.858034 187.467891 
L 636.163257 187.238605 
L 636.739563 187.157601 
L 640.197397 186.672233 
L 640.773703 186.579735 
L 642.50262 186.372814 
L 642.934849 186.202174 
L 644.375614 185.960873 
L 645.095996 185.867266 
L 646.392684 185.747046 
L 648.265677 185.287959 
L 649.130136 185.149753 
L 649.562365 185.056855 
L 649.850518 185.02466 
L 650.138671 184.864044 
L 650.859053 184.707204 
L 651.579436 184.58494 
L 651.867588 184.4304 
L 652.155741 184.310811 
L 655.469499 183.566786 
L 656.045805 183.500479 
L 656.333958 183.374519 
L 657.774722 183.162941 
L 658.062875 183.035565 
L 659.503639 182.727234 
L 659.791792 182.621311 
L 660.079945 182.384358 
L 660.368098 182.289329 
L 660.800327 182.127896 
L 661.664786 181.955645 
L 661.952939 181.833198 
L 663.393703 181.513752 
L 663.681856 181.290273 
L 664.114085 181.170606 
L 664.402238 181.019083 
L 665.987079 180.840447 
L 667.860073 180.349685 
L 669.877143 179.999615 
L 672.038289 179.792193 
L 672.902748 179.504825 
L 675.207971 179.017421 
L 676.360582 178.544705 
L 677.369118 178.378055 
L 677.65727 178.226661 
L 678.0895 178.045027 
L 678.521729 177.841776 
L 679.242111 177.519432 
L 680.10657 177.381536 
L 680.394723 177.249634 
L 681.115105 177.08611 
L 681.547334 177.042309 
L 681.835487 176.905302 
L 682.844022 176.706575 
L 683.564404 176.446528 
L 684.284786 176.257523 
L 685.725551 175.827631 
L 686.15778 175.744116 
L 688.751156 174.611913 
L 688.895232 174.364081 
L 689.327462 174.337059 
L 689.615615 174.120136 
L 689.903767 174.10334 
L 690.19192 173.849868 
L 691.056379 173.560572 
L 691.344532 173.263895 
L 691.776761 173.226549 
L 692.064914 172.929394 
L 693.505678 172.81218 
L 694.370137 172.595746 
L 694.514213 172.203217 
L 694.65829 172.154129 
L 694.802366 171.735416 
L 695.090519 171.687184 
L 695.234596 171.356342 
L 695.954978 171.105714 
L 696.243131 170.329404 
L 696.531284 170.196391 
L 696.67536 170.19006 
L 697.107589 169.805742 
L 697.251666 169.793096 
L 697.827971 169.327794 
L 699.124659 168.599389 
L 699.412812 168.421805 
L 699.556889 168.386001 
L 699.700965 168.114474 
L 700.133194 168.014096 
L 700.421347 167.696561 
L 701.862112 167.247211 
L 702.150265 167.120999 
L 706.040328 166.263275 
L 707.048863 165.992705 
L 707.337016 165.857207 
L 707.481093 165.563696 
L 707.769246 165.441626 
L 708.057398 165.25459 
L 709.498163 164.912774 
L 709.786316 164.644407 
L 711.515233 164.143989 
L 711.803386 163.930218 
L 712.667844 163.753589 
L 713.24415 163.661608 
L 713.532303 163.480001 
L 713.964532 163.162036 
L 714.973067 162.412905 
L 715.117144 162.380419 
L 715.405297 162.12036 
L 717.27829 161.154352 
L 717.71052 161.083814 
L 718.863131 160.340981 
L 719.29536 159.999397 
L 719.72759 159.834299 
L 720.447972 159.389558 
L 720.880201 159.244518 
L 721.456507 158.647749 
L 722.176889 158.487646 
L 722.609118 158.365974 
L 722.897271 157.878198 
L 723.473577 157.532386 
L 723.76173 156.986359 
L 724.338036 156.638663 
L 725.346571 156.039874 
L 726.066953 155.94641 
L 726.499182 155.40542 
L 726.643259 154.505896 
L 727.075488 154.393015 
L 727.219564 154.336662 
L 727.651794 153.289245 
L 728.084023 153.03651 
L 728.660329 152.506998 
L 729.092558 151.814172 
L 729.81294 151.420551 
L 730.389246 151.308069 
L 730.965552 151.055048 
L 731.397781 150.874092 
L 731.541857 150.740152 
L 731.685934 150.306665 
L 732.118163 150.223163 
L 732.694469 149.921429 
L 732.838545 149.500204 
L 733.126698 149.423426 
L 733.414851 148.893667 
L 733.703004 148.762057 
L 735.143768 147.912417 
L 735.287845 147.899378 
L 735.575998 147.698689 
L 736.29638 147.465936 
L 736.584533 147.402182 
L 738.457526 146.550432 
L 738.745679 146.454019 
L 739.321985 146.312489 
L 739.610138 146.188046 
L 739.754214 146.185151 
L 740.186444 145.764332 
L 741.050902 145.49446 
L 741.771284 145.315777 
L 744.79689 144.25656 
L 745.085042 144.201823 
L 745.517272 143.928522 
L 745.661348 143.482849 
L 746.237654 143.322364 
L 746.669883 142.572001 
L 746.958036 142.143355 
L 747.102113 142.089391 
L 747.678418 141.216144 
L 747.822495 141.209205 
L 748.3988 140.824863 
L 748.83103 140.695486 
L 749.263259 140.55096 
L 749.695488 140.443924 
L 750.271794 140.301717 
L 750.559947 140.202175 
L 751.280329 139.798865 
L 751.712559 139.68833 
L 752.000711 139.462969 
L 752.144788 139.456184 
L 752.86517 138.679302 
L 753.153323 138.571603 
L 753.441476 138.471027 
L 753.873705 138.343952 
L 754.161858 138.17857 
L 754.305934 138.175006 
L 755.170393 137.560273 
L 755.314469 137.5445 
L 755.458546 137.189228 
L 756.89931 136.890518 
L 757.619692 136.559369 
L 757.907845 136.471805 
L 758.051922 135.938552 
L 758.484151 135.785668 
L 759.34861 135.447651 
L 759.780839 134.928648 
L 760.068992 134.765866 
L 760.93345 134.369893 
L 761.941985 133.74646 
L 762.086062 133.37105 
L 762.518291 133.265878 
L 762.806444 132.891221 
L 762.950521 132.831298 
L 763.238673 132.532487 
L 764.823514 132.008813 
L 765.111667 131.679954 
L 765.543896 131.533153 
L 765.832049 131.430429 
L 765.976126 131.277164 
L 766.120202 130.583351 
L 766.264279 130.57836 
L 766.552431 129.968511 
L 766.840584 129.911808 
L 767.128737 129.660585 
L 767.272814 129.438426 
L 767.41689 129.436005 
L 767.705043 129.156962 
L 768.425425 128.900545 
L 768.857654 128.808522 
L 770.442495 128.294474 
L 771.595107 127.998899 
L 772.171412 127.686308 
L 773.756253 127.332975 
L 774.908865 126.235051 
L 775.197018 125.584109 
L 776.925935 124.798244 
L 777.214088 124.263384 
L 778.366699 123.626554 
L 778.654852 123.537399 
L 778.798928 123.227473 
L 778.943005 122.544541 
L 779.231158 122.517982 
L 779.663387 122.253831 
L 780.815999 121.967077 
L 780.960075 121.901532 
L 781.248228 121.669085 
L 781.824534 121.475798 
L 782.400839 121.398606 
L 783.121222 121.270215 
L 783.409374 121.190728 
L 783.697527 120.751417 
L 783.841604 120.710718 
L 784.273833 120.242076 
L 784.706062 120.170456 
L 784.850139 119.868135 
L 784.994215 119.824928 
L 785.138292 119.212533 
L 785.570521 119.022055 
L 785.858674 118.664696 
L 786.43498 118.514969 
L 786.723132 118.400056 
L 787.299438 117.887181 
L 787.875744 117.745283 
L 788.596126 116.146459 
L 789.316508 115.977637 
L 789.892814 115.402858 
L 790.613196 114.943204 
L 790.901349 114.693744 
L 791.477655 114.565052 
L 791.909884 114.194838 
L 792.053961 113.968142 
L 792.198037 112.843719 
L 792.48619 112.661132 
L 792.918419 112.41913 
L 793.062496 111.918091 
L 793.206572 111.911373 
L 793.350648 111.002402 
L 794.071031 110.720041 
L 794.359184 110.324338 
L 794.50326 109.930364 
L 794.935489 109.801076 
L 795.223642 109.670149 
L 795.367719 108.394224 
L 795.511795 108.270801 
L 796.088101 106.266819 
L 796.232177 106.184883 
L 796.52033 105.896811 
L 797.096636 103.899599 
L 797.384789 103.759859 
L 797.672942 102.861303 
L 797.817018 102.678028 
L 797.961094 102.269361 
L 798.105171 101.220087 
L 798.393324 101.185688 
L 798.825553 99.169875 
L 799.257782 98.907448 
L 799.401859 98.225186 
L 800.122241 97.655771 
L 800.266317 97.31162 
L 800.410394 96.020297 
L 800.698547 95.624291 
L 800.842623 95.606547 
L 801.130776 95.249686 
L 801.274852 95.218899 
L 801.418929 94.959983 
L 801.563005 94.934922 
L 801.707082 94.49829 
L 802.139311 94.362756 
L 802.57154 94.050104 
L 802.859693 93.418003 
L 803.435999 92.510524 
L 803.724152 91.403425 
L 804.588611 90.582076 
L 804.732687 90.234836 
L 805.02084 88.687904 
L 805.308993 88.273358 
L 805.597146 88.200165 
L 805.885298 87.847959 
L 806.029375 86.637604 
L 806.317528 86.303958 
L 806.461604 86.243285 
L 806.749757 85.665864 
L 806.893833 85.623076 
L 807.181986 85.317547 
L 807.470139 85.262334 
L 807.902369 84.878582 
L 808.046445 84.871491 
L 808.334598 84.625321 
L 808.622751 83.264955 
L 808.910904 83.157543 
L 809.05498 83.143816 
L 809.199056 82.799387 
L 809.775362 82.72975 
L 810.495744 82.040238 
L 810.639821 81.389599 
L 810.927974 81.071103 
L 811.216127 80.469953 
L 811.648356 80.295445 
L 811.792432 79.901421 
L 811.936509 79.835347 
L 812.224662 79.067411 
L 812.368738 79.01896 
L 812.656891 78.780198 
L 812.945044 78.519969 
L 813.233197 78.173193 
L 813.377273 78.14526 
L 813.809502 77.374605 
L 813.953579 77.001486 
L 814.097655 76.968434 
L 814.673961 76.448511 
L 814.962114 75.806573 
L 815.10619 75.723497 
L 815.250267 75.221324 
L 815.394343 75.210768 
L 815.53842 74.350225 
L 815.826573 74.282982 
L 815.970649 73.404065 
L 816.114725 73.368746 
L 816.546955 67.517143 
L 816.691031 57.682545 
L 816.691031 57.682545 
" clip-path="url(#pe7042e52cd)" style="fill: none; stroke: #2ca02c; stroke-width: 1.5; stroke-linecap: square"/>
   </g>
   <g id="patch_3">
    <path d="M 50.002685 390.04 
L 50.002685 41.856 
" style="fill: none; stroke: #000000; stroke-width: 0.8; stroke-linejoin: miter; stroke-linecap: square"/>
   </g>
   <g id="patch_4">
    <path d="M 853.2 390.04 
L 853.2 41.856 
" style="fill: none; stroke: #000000; stroke-width: 0.8; stroke-linejoin: miter; stroke-linecap: square"/>
   </g>
   <g id="patch_5">
    <path d="M 50.002685 390.04 
L 853.2 390.04 
" style="fill: none; stroke: #000000; stroke-width: 0.8; stroke-linejoin: miter; stroke-linecap: square"/>
   </g>
   <g id="patch_6">
    <path d="M 50.002685 41.856 
L 853.2 41.856 
" style="fill: none; stroke: #000000; stroke-width: 0.8; stroke-linejoin: miter; stroke-linecap: square"/>
   </g>
   <g id="text_12">
    <!-- HTTP Request Duration Percentiles -->
    <g transform="translate(347.37478 22.355625) scale(0.12 -0.12)">
     <defs>
      <path id="DejaVuSans-48" d="M 628 4666 
L 1259 4666 
L 1259 2753 
L 3553 2753 
L 3553 4666 
L 4184 4666 
L 4184 0 
L 3553 0 
L 3553 2222 
L 1259 2222 
L 1259 0 
L 628 0 
L 628 4666 
z
" transform="scale(0.015625)"/>
      <path id="DejaVuSans-54" d="M -19 4666 
L 3928 4666 
L 3928 4134 
L 2272 4134 
L 2272 0 
L 1638 0 
L 1638 4134 
L -19 4134 
L -19 4666 
z
" transform="scale(0.015625)"/>
      <path id="DejaVuSans-52" d="M 2841 2188 
Q 3044 2119 3236 1894 
Q 3428 1669 3622 1275 
L 4263 0 
L 3584 0 
L 2988 1197 
Q 2756 1666 2539 1819 
Q 2322 1972 1947 1972 
L 1259 1972 
L 1259 0 
L 628 0 
L 628 4666 
L 2053 4666 
Q 2853 4666 3247 4331 
Q 3641 3997 3641 3322 
Q 3641 2881 3436 2590 
Q 3231 2300 2841 2188 
z
M 1259 4147 
L 1259 2491 
L 2053 2491 
Q 2509 2491 2742 2702 
Q 2975 2913 2975 3322 
Q 2975 3731 2742 3939 
Q 2509 4147 2053 4147 
L 1259 4147 
z
" transform="scale(0.015625)"/>
      <path id="DejaVuSans-71" d="M 947 1747 
Q 947 1113 1208 752 
Q 1469 391 1925 391 
Q 2381 391 2643 752 
Q 2906 1113 2906 1747 
Q 2906 2381 2643 2742 
Q 2381 3103 1925 3103 
Q 1469 3103 1208 2742 
Q 947 2381 947 1747 
z
M 2906 525 
Q 2725 213 2448 61 
Q 2172 -91 1784 -91 
Q 1150 -91 751 415 
Q 353 922 353 1747 
Q 353 2572 751 3078 
Q 1150 3584 1784 3584 
Q 2172 3584 2448 3432 
Q 2725 3281 2906 2969 
L 2906 3500 
L 3481 3500 
L 3481 -1331 
L 2906 -1331 
L 2906 525 
z
" transform="scale(0.015625)"/>
     </defs>
     <use xlink:href="#DejaVuSans-48"/>
     <use xlink:href="#DejaVuSans-54" transform="translate(75.195312 0)"/>
     <use xlink:href="#DejaVuSans-54" transform="translate(134.529297 0)"/>
     <use xlink:href="#DejaVuSans-50" transform="translate(195.613281 0)"/>
     <use xlink:href="#DejaVuSans-20" transform="translate(255.916016 0)"/>
     <use xlink:href="#DejaVuSans-52" transform="translate(287.703125 0)"/>
     <use xlink:href="#DejaVuSans-65" transform="translate(352.685547 0)"/>
     <use xlink:href="#DejaVuSans-71" transform="translate(414.208984 0)"/>
     <use xlink:href="#DejaVuSans-75" transform="translate(477.685547 0)"/>
     <use xlink:href="#DejaVuSans-65" transform="translate(541.064453 0)"/>
     <use xlink:href="#DejaVuSans-73" transform="translate(602.587891 0)"/>
     <use xlink:href="#DejaVuSans-74" transform="translate(654.6875 0)"/>
     <use xlink:href="#DejaVuSans-20" transform="translate(693.896484 0)"/>
     <use xlink:href="#DejaVuSans-44" transform="translate(725.683594 0)"/>
     <use xlink:href="#DejaVuSans-75" transform="translate(802.685547 0)"/>
     <use xlink:href="#DejaVuSans-72" transform="translate(866.064453 0)"/>
     <use xlink:href="#DejaVuSans-61" transform="translate(907.177734 0)"/>
     <use xlink:href="#DejaVuSans-74" transform="translate(968.457031 0)"/>
     <use xlink:href="#DejaVuSans-69" transform="translate(1007.666016 0)"/>
     <use xlink:href="#DejaVuSans-6f" transform="translate(1035.449219 0)"/>
     <use xlink:href="#DejaVuSans-6e" transform="translate(1096.630859 0)"/>
     <use xlink:href="#DejaVuSans-20" transform="translate(1160.009766 0)"/>
     <use xlink:href="#DejaVuSans-50" transform="translate(1191.796875 0)"/>
     <use xlink:href="#DejaVuSans-65" transform="translate(1248.474609 0)"/>
     <use xlink:href="#DejaVuSans-72" transform="translate(1309.998047 0)"/>
     <use xlink:href="#DejaVuSans-63" transform="translate(1348.861328 0)"/>
     <use xlink:href="#DejaVuSans-65" transform="translate(1403.841797 0)"/>
     <use xlink:href="#DejaVuSans-6e" transform="translate(1465.365234 0)"/>
     <use xlink:href="#DejaVuSans-74" transform="translate(1528.744141 0)"/>
     <use xlink:href="#DejaVuSans-69" transform="translate(1567.953125 0)"/>
     <use xlink:href="#DejaVuSans-6c" transform="translate(1595.736328 0)"/>
     <use xlink:href="#DejaVuSans-65" transform="translate(1623.519531 0)"/>
     <use xlink:href="#DejaVuSans-73" transform="translate(1685.042969 0)"/>
    </g>
    <!-- Test: breakpoint | Endpoint: Combined -->
    <g transform="translate(336.620717 35.856) scale(0.12 -0.12)">
     <defs>
      <path id="DejaVuSans-3a" d="M 750 794 
L 1409 794 
L 1409 0 
L 750 0 
L 750 794 
z
M 750 3309 
L 1409 3309 
L 1409 2516 
L 750 2516 
L 750 3309 
z
" transform="scale(0.015625)"/>
      <path id="DejaVuSans-62" d="M 3116 1747 
Q 3116 2381 2855 2742 
Q 2594 3103 2138 3103 
Q 1681 3103 1420 2742 
Q 1159 2381 1159 1747 
Q 1159 1113 1420 752 
Q 1681 391 2138 391 
Q 2594 391 2855 752 
Q 3116 1113 3116 1747 
z
M 1159 2969 
Q 1341 3281 1617 3432 
Q 1894 3584 2278 3584 
Q 2916 3584 3314 3078 
Q 3713 2572 3713 1747 
Q 3713 922 3314 415 
Q 2916 -91 2278 -91 
Q 1894 -91 1617 61 
Q 1341 213 1159 525 
L 1159 0 
L 581 0 
L 581 4863 
L 1159 4863 
L 1159 2969 
z
" transform="scale(0.015625)"/>
      <path id="DejaVuSans-6b" d="M 581 4863 
L 1159 4863 
L 1159 1991 
L 2875 3500 
L 3609 3500 
L 1753 1863 
L 3688 0 
L 2938 0 
L 1159 1709 
L 1159 0 
L 581 0 
L 581 4863 
z
" transform="scale(0.015625)"/>
      <path id="DejaVuSans-70" d="M 1159 525 
L 1159 -1331 
L 581 -1331 
L 581 3500 
L 1159 3500 
L 1159 2969 
Q 1341 3281 1617 3432 
Q 1894 3584 2278 3584 
Q 2916 3584 3314 3078 
Q 3713 2572 3713 1747 
Q 3713 922 3314 415 
Q 2916 -91 2278 -91 
Q 1894 -91 1617 61 
Q 1341 213 1159 525 
z
M 3116 1747 
Q 3116 2381 2855 2742 
Q 2594 3103 2138 3103 
Q 1681 3103 1420 2742 
Q 1159 2381 1159 1747 
Q 1159 1113 1420 752 
Q 1681 391 2138 391 
Q 2594 391 2855 752 
Q 3116 1113 3116 1747 
z
" transform="scale(0.015625)"/>
      <path id="DejaVuSans-7c" d="M 1344 4891 
L 1344 -1509 
L 813 -1509 
L 813 4891 
L 1344 4891 
z
" transform="scale(0.015625)"/>
      <path id="DejaVuSans-45" d="M 628 4666 
L 3578 4666 
L 3578 4134 
L 1259 4134 
L 1259 2753 
L 3481 2753 
L 3481 2222 
L 1259 2222 
L 1259 531 
L 3634 531 
L 3634 0 
L 628 0 
L 628 4666 
z
" transform="scale(0.015625)"/>
      <path id="DejaVuSans-64" d="M 2906 2969 
L 2906 4863 
L 3481 4863 
L 3481 0 
L 2906 0 
L 2906 525 
Q 2725 213 2448 61 
Q 2172 -91 1784 -91 
Q 1150 -91 751 415 
Q 353 922 353 1747 
Q 353 2572 751 3078 
Q 1150 3584 1784 3584 
Q 2172 3584 2448 3432 
Q 2725 3281 2906 2969 
z
M 947 1747 
Q 947 1113 1208 752 
Q 1469 391 1925 391 
Q 2381 391 2643 752 
Q 2906 1113 2906 1747 
Q 2906 2381 2643 2742 
Q 2381 3103 1925 3103 
Q 1469 3103 1208 2742 
Q 947 2381 947 1747 
z
" transform="scale(0.015625)"/>
      <path id="DejaVuSans-43" d="M 4122 4306 
L 4122 3641 
Q 3803 3938 3442 4084 
Q 3081 4231 2675 4231 
Q 1875 4231 1450 3742 
Q 1025 3253 1025 2328 
Q 1025 1406 1450 917 
Q 1875 428 2675 428 
Q 3081 428 3442 575 
Q 3803 722 4122 1019 
L 4122 359 
Q 3791 134 3420 21 
Q 3050 -91 2638 -91 
Q 1578 -91 968 557 
Q 359 1206 359 2328 
Q 359 3453 968 4101 
Q 1578 4750 2638 4750 
Q 3056 4750 3426 4639 
Q 3797 4528 4122 4306 
z
" transform="scale(0.015625)"/>
     </defs>
     <use xlink:href="#DejaVuSans-54"/>
     <use xlink:href="#DejaVuSans-65" transform="translate(44.083984 0)"/>
     <use xlink:href="#DejaVuSans-73" transform="translate(105.607422 0)"/>
     <use xlink:href="#DejaVuSans-74" transform="translate(157.707031 0)"/>
     <use xlink:href="#DejaVuSans-3a" transform="translate(196.916016 0)"/>
     <use xlink:href="#DejaVuSans-20" transform="translate(230.607422 0)"/>
     <use xlink:href="#DejaVuSans-62" transform="translate(262.394531 0)"/>
     <use xlink:href="#DejaVuSans-72" transform="translate(325.871094 0)"/>
     <use xlink:href="#DejaVuSans-65" transform="translate(364.734375 0)"/>
     <use xlink:href="#DejaVuSans-61" transform="translate(426.257812 0)"/>
     <use xlink:href="#DejaVuSans-6b" transform="translate(487.537109 0)"/>
     <use xlink:href="#DejaVuSans-70" transform="translate(545.447266 0)"/>
     <use xlink:href="#DejaVuSans-6f" transform="translate(608.923828 0)"/>
     <use xlink:href="#DejaVuSans-69" transform="translate(670.105469 0)"/>
     <use xlink:href="#DejaVuSans-6e" transform="translate(697.888672 0)"/>
     <use xlink:href="#DejaVuSans-74" transform="translate(761.267578 0)"/>
     <use xlink:href="#DejaVuSans-20" transform="translate(800.476562 0)"/>
     <use xlink:href="#DejaVuSans-7c" transform="translate(832.263672 0)"/>
     <use xlink:href="#DejaVuSans-20" transform="translate(865.955078 0)"/>
     <use xlink:href="#DejaVuSans-45" transform="translate(897.742188 0)"/>
     <use xlink:href="#DejaVuSans-6e" transform="translate(960.925781 0)"/>
     <use xlink:href="#DejaVuSans-64" transform="translate(1024.304688 0)"/>
     <use xlink:href="#DejaVuSans-70" transform="translate(1087.78125 0)"/>
     <use xlink:href="#DejaVuSans-6f" transform="translate(1151.257812 0)"/>
     <use xlink:href="#DejaVuSans-69" transform="translate(1212.439453 0)"/>
     <use xlink:href="#DejaVuSans-6e" transform="translate(1240.222656 0)"/>
     <use xlink:href="#DejaVuSans-74" transform="translate(1303.601562 0)"/>
     <use xlink:href="#DejaVuSans-3a" transform="translate(1342.810547 0)"/>
     <use xlink:href="#DejaVuSans-20" transform="translate(1376.501953 0)"/>
     <use xlink:href="#DejaVuSans-43" transform="translate(1408.289062 0)"/>
     <use xlink:href="#DejaVuSans-6f" transform="translate(1478.113281 0)"/>
     <use xlink:href="#DejaVuSans-6d" transform="translate(1539.294922 0)"/>
     <use xlink:href="#DejaVuSans-62" transform="translate(1636.707031 0)"/>
     <use xlink:href="#DejaVuSans-69" transform="translate(1700.183594 0)"/>
     <use xlink:href="#DejaVuSans-6e" transform="translate(1727.966797 0)"/>
     <use xlink:href="#DejaVuSans-65" transform="translate(1791.345703 0)"/>
     <use xlink:href="#DejaVuSans-64" transform="translate(1852.869141 0)"/>
    </g>
   </g>
   <g id="legend_1">
    <g id="patch_7">
     <path d="M 57.002685 93.890375 
L 190.346435 93.890375 
Q 192.346435 93.890375 192.346435 91.890375 
L 192.346435 48.856 
Q 192.346435 46.856 190.346435 46.856 
L 57.002685 46.856 
Q 55.002685 46.856 55.002685 48.856 
L 55.002685 91.890375 
Q 55.002685 93.890375 57.002685 93.890375 
z
" style="fill: #ffffff; opacity: 0.8; stroke: #cccccc; stroke-linejoin: miter"/>
    </g>
    <g id="line2d_40">
     <path d="M 59.002685 54.954437 
L 69.002685 54.954437 
L 79.002685 54.954437 
" style="fill: none; stroke: #1f77b4; stroke-width: 1.5; stroke-linecap: square"/>
    </g>
    <g id="text_13">
     <!-- Single Large Results -->
     <g transform="translate(87.002685 58.454437) scale(0.1 -0.1)">
      <defs>
       <path id="DejaVuSans-53" d="M 3425 4513 
L 3425 3897 
Q 3066 4069 2747 4153 
Q 2428 4238 2131 4238 
Q 1616 4238 1336 4038 
Q 1056 3838 1056 3469 
Q 1056 3159 1242 3001 
Q 1428 2844 1947 2747 
L 2328 2669 
Q 3034 2534 3370 2195 
Q 3706 1856 3706 1288 
Q 3706 609 3251 259 
Q 2797 -91 1919 -91 
Q 1588 -91 1214 -16 
Q 841 59 441 206 
L 441 856 
Q 825 641 1194 531 
Q 1563 422 1919 422 
Q 2459 422 2753 634 
Q 3047 847 3047 1241 
Q 3047 1584 2836 1778 
Q 2625 1972 2144 2069 
L 1759 2144 
Q 1053 2284 737 2584 
Q 422 2884 422 3419 
Q 422 4038 858 4394 
Q 1294 4750 2059 4750 
Q 2388 4750 2728 4690 
Q 3069 4631 3425 4513 
z
" transform="scale(0.015625)"/>
       <path id="DejaVuSans-67" d="M 2906 1791 
Q 2906 2416 2648 2759 
Q 2391 3103 1925 3103 
Q 1463 3103 1205 2759 
Q 947 2416 947 1791 
Q 947 1169 1205 825 
Q 1463 481 1925 481 
Q 2391 481 2648 825 
Q 2906 1169 2906 1791 
z
M 3481 434 
Q 3481 -459 3084 -895 
Q 2688 -1331 1869 -1331 
Q 1566 -1331 1297 -1286 
Q 1028 -1241 775 -1147 
L 775 -588 
Q 1028 -725 1275 -790 
Q 1522 -856 1778 -856 
Q 2344 -856 2625 -561 
Q 2906 -266 2906 331 
L 2906 616 
Q 2728 306 2450 153 
Q 2172 0 1784 0 
Q 1141 0 747 490 
Q 353 981 353 1791 
Q 353 2603 747 3093 
Q 1141 3584 1784 3584 
Q 2172 3584 2450 3431 
Q 2728 3278 2906 2969 
L 2906 3500 
L 3481 3500 
L 3481 434 
z
" transform="scale(0.015625)"/>
       <path id="DejaVuSans-4c" d="M 628 4666 
L 1259 4666 
L 1259 531 
L 3531 531 
L 3531 0 
L 628 0 
L 628 4666 
z
" transform="scale(0.015625)"/>
      </defs>
      <use xlink:href="#DejaVuSans-53"/>
      <use xlink:href="#DejaVuSans-69" transform="translate(63.476562 0)"/>
      <use xlink:href="#DejaVuSans-6e" transform="translate(91.259766 0)"/>
      <use xlink:href="#DejaVuSans-67" transform="translate(154.638672 0)"/>
      <use xlink:href="#DejaVuSans-6c" transform="translate(218.115234 0)"/>
      <use xlink:href="#DejaVuSans-65" transform="translate(245.898438 0)"/>
      <use xlink:href="#DejaVuSans-20" transform="translate(307.421875 0)"/>
      <use xlink:href="#DejaVuSans-4c" transform="translate(339.208984 0)"/>
      <use xlink:href="#DejaVuSans-61" transform="translate(394.921875 0)"/>
      <use xlink:href="#DejaVuSans-72" transform="translate(456.201172 0)"/>
      <use xlink:href="#DejaVuSans-67" transform="translate(495.564453 0)"/>
      <use xlink:href="#DejaVuSans-65" transform="translate(559.041016 0)"/>
      <use xlink:href="#DejaVuSans-20" transform="translate(620.564453 0)"/>
      <use xlink:href="#DejaVuSans-52" transform="translate(652.351562 0)"/>
      <use xlink:href="#DejaVuSans-65" transform="translate(717.333984 0)"/>
      <use xlink:href="#DejaVuSans-73" transform="translate(778.857422 0)"/>
      <use xlink:href="#DejaVuSans-75" transform="translate(830.957031 0)"/>
      <use xlink:href="#DejaVuSans-6c" transform="translate(894.335938 0)"/>
      <use xlink:href="#DejaVuSans-74" transform="translate(922.119141 0)"/>
      <use xlink:href="#DejaVuSans-73" transform="translate(961.328125 0)"/>
     </g>
    </g>
    <g id="line2d_41">
     <path d="M 59.002685 69.632562 
L 69.002685 69.632562 
L 79.002685 69.632562 
" style="fill: none; stroke: #ff7f0e; stroke-width: 1.5; stroke-linecap: square"/>
    </g>
    <g id="text_14">
     <!-- Single Small Results -->
     <g transform="translate(87.002685 73.132562) scale(0.1 -0.1)">
      <use xlink:href="#DejaVuSans-53"/>
      <use xlink:href="#DejaVuSans-69" transform="translate(63.476562 0)"/>
      <use xlink:href="#DejaVuSans-6e" transform="translate(91.259766 0)"/>
      <use xlink:href="#DejaVuSans-67" transform="translate(154.638672 0)"/>
      <use xlink:href="#DejaVuSans-6c" transform="translate(218.115234 0)"/>
      <use xlink:href="#DejaVuSans-65" transform="translate(245.898438 0)"/>
      <use xlink:href="#DejaVuSans-20" transform="translate(307.421875 0)"/>
      <use xlink:href="#DejaVuSans-53" transform="translate(339.208984 0)"/>
      <use xlink:href="#DejaVuSans-6d" transform="translate(402.685547 0)"/>
      <use xlink:href="#DejaVuSans-61" transform="translate(500.097656 0)"/>
      <use xlink:href="#DejaVuSans-6c" transform="translate(561.376953 0)"/>
      <use xlink:href="#DejaVuSans-6c" transform="translate(589.160156 0)"/>
      <use xlink:href="#DejaVuSans-20" transform="translate(616.943359 0)"/>
      <use xlink:href="#DejaVuSans-52" transform="translate(648.730469 0)"/>
      <use xlink:href="#DejaVuSans-65" transform="translate(713.712891 0)"/>
      <use xlink:href="#DejaVuSans-73" transform="translate(775.236328 0)"/>
      <use xlink:href="#DejaVuSans-75" transform="translate(827.335938 0)"/>
      <use xlink:href="#DejaVuSans-6c" transform="translate(890.714844 0)"/>
      <use xlink:href="#DejaVuSans-74" transform="translate(918.498047 0)"/>
      <use xlink:href="#DejaVuSans-73" transform="translate(957.707031 0)"/>
     </g>
    </g>
    <g id="line2d_42">
     <path d="M 59.002685 84.310687 
L 69.002685 84.310687 
L 79.002685 84.310687 
" style="fill: none; stroke: #2ca02c; stroke-width: 1.5; stroke-linecap: square"/>
    </g>
    <g id="text_15">
     <!-- Multi Results -->
     <g transform="translate(87.002685 87.810687) scale(0.1 -0.1)">
      <defs>
       <path id="DejaVuSans-4d" d="M 628 4666 
L 1569 4666 
L 2759 1491 
L 3956 4666 
L 4897 4666 
L 4897 0 
L 4281 0 
L 4281 4097 
L 3078 897 
L 2444 897 
L 1241 4097 
L 1241 0 
L 628 0 
L 628 4666 
z
" transform="scale(0.015625)"/>
      </defs>
      <use xlink:href="#DejaVuSans-4d"/>
      <use xlink:href="#DejaVuSans-75" transform="translate(86.279297 0)"/>
      <use xlink:href="#DejaVuSans-6c" transform="translate(149.658203 0)"/>
      <use xlink:href="#DejaVuSans-74" transform="translate(177.441406 0)"/>
      <use xlink:href="#DejaVuSans-69" transform="translate(216.650391 0)"/>
      <use xlink:href="#DejaVuSans-20" transform="translate(244.433594 0)"/>
      <use xlink:href="#DejaVuSans-52" transform="translate(276.220703 0)"/>
      <use xlink:href="#DejaVuSans-65" transform="translate(341.203125 0)"/>
      <use xlink:href="#DejaVuSans-73" transform="translate(402.726562 0)"/>
      <use xlink:href="#DejaVuSans-75" transform="translate(454.826172 0)"/>
      <use xlink:href="#DejaVuSans-6c" transform="translate(518.205078 0)"/>
      <use xlink:href="#DejaVuSans-74" transform="translate(545.988281 0)"/>
      <use xlink:href="#DejaVuSans-73" transform="translate(585.197266 0)"/>
     </g>
    </g>
   </g>
  </g>
 </g>
 <defs>
  <clipPath id="pe7042e52cd">
   <rect x="50.002685" y="41.856" width="803.197315" height="348.184"/>
  </clipPath>
 </defs>
</svg>
