<?xml version="1.0" encoding="utf-8" standalone="no"?>
<!DOCTYPE svg PUBLIC "-//W3C//DTD SVG 1.1//EN"
  "http://www.w3.org/Graphics/SVG/1.1/DTD/svg11.dtd">
<svg xmlns:xlink="http://www.w3.org/1999/xlink" width="1008pt" height="288pt" viewBox="0 0 1008 288" xmlns="http://www.w3.org/2000/svg" version="1.1">
 <metadata>
  <rdf:RDF xmlns:dc="http://purl.org/dc/elements/1.1/" xmlns:cc="http://creativecommons.org/ns#" xmlns:rdf="http://www.w3.org/1999/02/22-rdf-syntax-ns#">
   <cc:Work>
    <dc:type rdf:resource="http://purl.org/dc/dcmitype/StillImage"/>
    <dc:date>2025-05-31T22:10:58.998541</dc:date>
    <dc:format>image/svg+xml</dc:format>
    <dc:creator>
     <cc:Agent>
      <dc:title>Matplotlib v3.10.1, https://matplotlib.org/</dc:title>
     </cc:Agent>
    </dc:creator>
   </cc:Work>
  </rdf:RDF>
 </metadata>
 <defs>
  <style type="text/css">*{stroke-linejoin: round; stroke-linecap: butt}</style>
 </defs>
 <g id="figure_1">
  <g id="patch_1">
   <path d="M 0 288 
L 1008 288 
L 1008 0 
L 0 0 
z
" style="fill: #ffffff"/>
  </g>
  <g id="axes_1">
   <g id="patch_2">
    <path d="M 50.002685 246.04 
L 997.2 246.04 
L 997.2 26.88 
L 50.002685 26.88 
z
" style="fill: #ffffff"/>
   </g>
   <g id="matplotlib.axis_1">
    <g id="xtick_1">
     <g id="line2d_1">
      <defs>
       <path id="m8eed447cef" d="M 0 0 
L 0 3.5 
" style="stroke: #000000; stroke-width: 0.8"/>
      </defs>
      <g>
       <use xlink:href="#m8eed447cef" x="93.057108" y="246.04" style="stroke: #000000; stroke-width: 0.8"/>
      </g>
     </g>
     <g id="text_1">
      <!-- 0 -->
      <g transform="translate(89.875858 260.638438) scale(0.1 -0.1)">
       <defs>
        <path id="DejaVuSans-30" d="M 2034 4250 
Q 1547 4250 1301 3770 
Q 1056 3291 1056 2328 
Q 1056 1369 1301 889 
Q 1547 409 2034 409 
Q 2525 409 2770 889 
Q 3016 1369 3016 2328 
Q 3016 3291 2770 3770 
Q 2525 4250 2034 4250 
z
M 2034 4750 
Q 2819 4750 3233 4129 
Q 3647 3509 3647 2328 
Q 3647 1150 3233 529 
Q 2819 -91 2034 -91 
Q 1250 -91 836 529 
Q 422 1150 422 2328 
Q 422 3509 836 4129 
Q 1250 4750 2034 4750 
z
" transform="scale(0.015625)"/>
       </defs>
       <use xlink:href="#DejaVuSans-30"/>
      </g>
     </g>
    </g>
    <g id="xtick_2">
     <g id="line2d_2">
      <g>
       <use xlink:href="#m8eed447cef" x="302.567684" y="246.04" style="stroke: #000000; stroke-width: 0.8"/>
      </g>
     </g>
     <g id="text_2">
      <!-- 100 -->
      <g transform="translate(293.023934 260.638438) scale(0.1 -0.1)">
       <defs>
        <path id="DejaVuSans-31" d="M 794 531 
L 1825 531 
L 1825 4091 
L 703 3866 
L 703 4441 
L 1819 4666 
L 2450 4666 
L 2450 531 
L 3481 531 
L 3481 0 
L 794 0 
L 794 531 
z
" transform="scale(0.015625)"/>
       </defs>
       <use xlink:href="#DejaVuSans-31"/>
       <use xlink:href="#DejaVuSans-30" transform="translate(63.623047 0)"/>
       <use xlink:href="#DejaVuSans-30" transform="translate(127.246094 0)"/>
      </g>
     </g>
    </g>
    <g id="xtick_3">
     <g id="line2d_3">
      <g>
       <use xlink:href="#m8eed447cef" x="512.078261" y="246.04" style="stroke: #000000; stroke-width: 0.8"/>
      </g>
     </g>
     <g id="text_3">
      <!-- 200 -->
      <g transform="translate(502.534511 260.638438) scale(0.1 -0.1)">
       <defs>
        <path id="DejaVuSans-32" d="M 1228 531 
L 3431 531 
L 3431 0 
L 469 0 
L 469 531 
Q 828 903 1448 1529 
Q 2069 2156 2228 2338 
Q 2531 2678 2651 2914 
Q 2772 3150 2772 3378 
Q 2772 3750 2511 3984 
Q 2250 4219 1831 4219 
Q 1534 4219 1204 4116 
Q 875 4013 500 3803 
L 500 4441 
Q 881 4594 1212 4672 
Q 1544 4750 1819 4750 
Q 2544 4750 2975 4387 
Q 3406 4025 3406 3419 
Q 3406 3131 3298 2873 
Q 3191 2616 2906 2266 
Q 2828 2175 2409 1742 
Q 1991 1309 1228 531 
z
" transform="scale(0.015625)"/>
       </defs>
       <use xlink:href="#DejaVuSans-32"/>
       <use xlink:href="#DejaVuSans-30" transform="translate(63.623047 0)"/>
       <use xlink:href="#DejaVuSans-30" transform="translate(127.246094 0)"/>
      </g>
     </g>
    </g>
    <g id="xtick_4">
     <g id="line2d_4">
      <g>
       <use xlink:href="#m8eed447cef" x="721.588837" y="246.04" style="stroke: #000000; stroke-width: 0.8"/>
      </g>
     </g>
     <g id="text_4">
      <!-- 300 -->
      <g transform="translate(712.045087 260.638438) scale(0.1 -0.1)">
       <defs>
        <path id="DejaVuSans-33" d="M 2597 2516 
Q 3050 2419 3304 2112 
Q 3559 1806 3559 1356 
Q 3559 666 3084 287 
Q 2609 -91 1734 -91 
Q 1441 -91 1130 -33 
Q 819 25 488 141 
L 488 750 
Q 750 597 1062 519 
Q 1375 441 1716 441 
Q 2309 441 2620 675 
Q 2931 909 2931 1356 
Q 2931 1769 2642 2001 
Q 2353 2234 1838 2234 
L 1294 2234 
L 1294 2753 
L 1863 2753 
Q 2328 2753 2575 2939 
Q 2822 3125 2822 3475 
Q 2822 3834 2567 4026 
Q 2313 4219 1838 4219 
Q 1578 4219 1281 4162 
Q 984 4106 628 3988 
L 628 4550 
Q 988 4650 1302 4700 
Q 1616 4750 1894 4750 
Q 2613 4750 3031 4423 
Q 3450 4097 3450 3541 
Q 3450 3153 3228 2886 
Q 3006 2619 2597 2516 
z
" transform="scale(0.015625)"/>
       </defs>
       <use xlink:href="#DejaVuSans-33"/>
       <use xlink:href="#DejaVuSans-30" transform="translate(63.623047 0)"/>
       <use xlink:href="#DejaVuSans-30" transform="translate(127.246094 0)"/>
      </g>
     </g>
    </g>
    <g id="xtick_5">
     <g id="line2d_5">
      <g>
       <use xlink:href="#m8eed447cef" x="931.099413" y="246.04" style="stroke: #000000; stroke-width: 0.8"/>
      </g>
     </g>
     <g id="text_5">
      <!-- 400 -->
      <g transform="translate(921.555663 260.638438) scale(0.1 -0.1)">
       <defs>
        <path id="DejaVuSans-34" d="M 2419 4116 
L 825 1625 
L 2419 1625 
L 2419 4116 
z
M 2253 4666 
L 3047 4666 
L 3047 1625 
L 3713 1625 
L 3713 1100 
L 3047 1100 
L 3047 0 
L 2419 0 
L 2419 1100 
L 313 1100 
L 313 1709 
L 2253 4666 
z
" transform="scale(0.015625)"/>
       </defs>
       <use xlink:href="#DejaVuSans-34"/>
       <use xlink:href="#DejaVuSans-30" transform="translate(63.623047 0)"/>
       <use xlink:href="#DejaVuSans-30" transform="translate(127.246094 0)"/>
      </g>
     </g>
    </g>
    <g id="text_6">
     <!-- Timestamp (Seconds) -->
     <g transform="translate(469.196655 274.316562) scale(0.1 -0.1)">
      <defs>
       <path id="DejaVuSans-54" d="M -19 4666 
L 3928 4666 
L 3928 4134 
L 2272 4134 
L 2272 0 
L 1638 0 
L 1638 4134 
L -19 4134 
L -19 4666 
z
" transform="scale(0.015625)"/>
       <path id="DejaVuSans-69" d="M 603 3500 
L 1178 3500 
L 1178 0 
L 603 0 
L 603 3500 
z
M 603 4863 
L 1178 4863 
L 1178 4134 
L 603 4134 
L 603 4863 
z
" transform="scale(0.015625)"/>
       <path id="DejaVuSans-6d" d="M 3328 2828 
Q 3544 3216 3844 3400 
Q 4144 3584 4550 3584 
Q 5097 3584 5394 3201 
Q 5691 2819 5691 2113 
L 5691 0 
L 5113 0 
L 5113 2094 
Q 5113 2597 4934 2840 
Q 4756 3084 4391 3084 
Q 3944 3084 3684 2787 
Q 3425 2491 3425 1978 
L 3425 0 
L 2847 0 
L 2847 2094 
Q 2847 2600 2669 2842 
Q 2491 3084 2119 3084 
Q 1678 3084 1418 2786 
Q 1159 2488 1159 1978 
L 1159 0 
L 581 0 
L 581 3500 
L 1159 3500 
L 1159 2956 
Q 1356 3278 1631 3431 
Q 1906 3584 2284 3584 
Q 2666 3584 2933 3390 
Q 3200 3197 3328 2828 
z
" transform="scale(0.015625)"/>
       <path id="DejaVuSans-65" d="M 3597 1894 
L 3597 1613 
L 953 1613 
Q 991 1019 1311 708 
Q 1631 397 2203 397 
Q 2534 397 2845 478 
Q 3156 559 3463 722 
L 3463 178 
Q 3153 47 2828 -22 
Q 2503 -91 2169 -91 
Q 1331 -91 842 396 
Q 353 884 353 1716 
Q 353 2575 817 3079 
Q 1281 3584 2069 3584 
Q 2775 3584 3186 3129 
Q 3597 2675 3597 1894 
z
M 3022 2063 
Q 3016 2534 2758 2815 
Q 2500 3097 2075 3097 
Q 1594 3097 1305 2825 
Q 1016 2553 972 2059 
L 3022 2063 
z
" transform="scale(0.015625)"/>
       <path id="DejaVuSans-73" d="M 2834 3397 
L 2834 2853 
Q 2591 2978 2328 3040 
Q 2066 3103 1784 3103 
Q 1356 3103 1142 2972 
Q 928 2841 928 2578 
Q 928 2378 1081 2264 
Q 1234 2150 1697 2047 
L 1894 2003 
Q 2506 1872 2764 1633 
Q 3022 1394 3022 966 
Q 3022 478 2636 193 
Q 2250 -91 1575 -91 
Q 1294 -91 989 -36 
Q 684 19 347 128 
L 347 722 
Q 666 556 975 473 
Q 1284 391 1588 391 
Q 1994 391 2212 530 
Q 2431 669 2431 922 
Q 2431 1156 2273 1281 
Q 2116 1406 1581 1522 
L 1381 1569 
Q 847 1681 609 1914 
Q 372 2147 372 2553 
Q 372 3047 722 3315 
Q 1072 3584 1716 3584 
Q 2034 3584 2315 3537 
Q 2597 3491 2834 3397 
z
" transform="scale(0.015625)"/>
       <path id="DejaVuSans-74" d="M 1172 4494 
L 1172 3500 
L 2356 3500 
L 2356 3053 
L 1172 3053 
L 1172 1153 
Q 1172 725 1289 603 
Q 1406 481 1766 481 
L 2356 481 
L 2356 0 
L 1766 0 
Q 1100 0 847 248 
Q 594 497 594 1153 
L 594 3053 
L 172 3053 
L 172 3500 
L 594 3500 
L 594 4494 
L 1172 4494 
z
" transform="scale(0.015625)"/>
       <path id="DejaVuSans-61" d="M 2194 1759 
Q 1497 1759 1228 1600 
Q 959 1441 959 1056 
Q 959 750 1161 570 
Q 1363 391 1709 391 
Q 2188 391 2477 730 
Q 2766 1069 2766 1631 
L 2766 1759 
L 2194 1759 
z
M 3341 1997 
L 3341 0 
L 2766 0 
L 2766 531 
Q 2569 213 2275 61 
Q 1981 -91 1556 -91 
Q 1019 -91 701 211 
Q 384 513 384 1019 
Q 384 1609 779 1909 
Q 1175 2209 1959 2209 
L 2766 2209 
L 2766 2266 
Q 2766 2663 2505 2880 
Q 2244 3097 1772 3097 
Q 1472 3097 1187 3025 
Q 903 2953 641 2809 
L 641 3341 
Q 956 3463 1253 3523 
Q 1550 3584 1831 3584 
Q 2591 3584 2966 3190 
Q 3341 2797 3341 1997 
z
" transform="scale(0.015625)"/>
       <path id="DejaVuSans-70" d="M 1159 525 
L 1159 -1331 
L 581 -1331 
L 581 3500 
L 1159 3500 
L 1159 2969 
Q 1341 3281 1617 3432 
Q 1894 3584 2278 3584 
Q 2916 3584 3314 3078 
Q 3713 2572 3713 1747 
Q 3713 922 3314 415 
Q 2916 -91 2278 -91 
Q 1894 -91 1617 61 
Q 1341 213 1159 525 
z
M 3116 1747 
Q 3116 2381 2855 2742 
Q 2594 3103 2138 3103 
Q 1681 3103 1420 2742 
Q 1159 2381 1159 1747 
Q 1159 1113 1420 752 
Q 1681 391 2138 391 
Q 2594 391 2855 752 
Q 3116 1113 3116 1747 
z
" transform="scale(0.015625)"/>
       <path id="DejaVuSans-20" transform="scale(0.015625)"/>
       <path id="DejaVuSans-28" d="M 1984 4856 
Q 1566 4138 1362 3434 
Q 1159 2731 1159 2009 
Q 1159 1288 1364 580 
Q 1569 -128 1984 -844 
L 1484 -844 
Q 1016 -109 783 600 
Q 550 1309 550 2009 
Q 550 2706 781 3412 
Q 1013 4119 1484 4856 
L 1984 4856 
z
" transform="scale(0.015625)"/>
       <path id="DejaVuSans-53" d="M 3425 4513 
L 3425 3897 
Q 3066 4069 2747 4153 
Q 2428 4238 2131 4238 
Q 1616 4238 1336 4038 
Q 1056 3838 1056 3469 
Q 1056 3159 1242 3001 
Q 1428 2844 1947 2747 
L 2328 2669 
Q 3034 2534 3370 2195 
Q 3706 1856 3706 1288 
Q 3706 609 3251 259 
Q 2797 -91 1919 -91 
Q 1588 -91 1214 -16 
Q 841 59 441 206 
L 441 856 
Q 825 641 1194 531 
Q 1563 422 1919 422 
Q 2459 422 2753 634 
Q 3047 847 3047 1241 
Q 3047 1584 2836 1778 
Q 2625 1972 2144 2069 
L 1759 2144 
Q 1053 2284 737 2584 
Q 422 2884 422 3419 
Q 422 4038 858 4394 
Q 1294 4750 2059 4750 
Q 2388 4750 2728 4690 
Q 3069 4631 3425 4513 
z
" transform="scale(0.015625)"/>
       <path id="DejaVuSans-63" d="M 3122 3366 
L 3122 2828 
Q 2878 2963 2633 3030 
Q 2388 3097 2138 3097 
Q 1578 3097 1268 2742 
Q 959 2388 959 1747 
Q 959 1106 1268 751 
Q 1578 397 2138 397 
Q 2388 397 2633 464 
Q 2878 531 3122 666 
L 3122 134 
Q 2881 22 2623 -34 
Q 2366 -91 2075 -91 
Q 1284 -91 818 406 
Q 353 903 353 1747 
Q 353 2603 823 3093 
Q 1294 3584 2113 3584 
Q 2378 3584 2631 3529 
Q 2884 3475 3122 3366 
z
" transform="scale(0.015625)"/>
       <path id="DejaVuSans-6f" d="M 1959 3097 
Q 1497 3097 1228 2736 
Q 959 2375 959 1747 
Q 959 1119 1226 758 
Q 1494 397 1959 397 
Q 2419 397 2687 759 
Q 2956 1122 2956 1747 
Q 2956 2369 2687 2733 
Q 2419 3097 1959 3097 
z
M 1959 3584 
Q 2709 3584 3137 3096 
Q 3566 2609 3566 1747 
Q 3566 888 3137 398 
Q 2709 -91 1959 -91 
Q 1206 -91 779 398 
Q 353 888 353 1747 
Q 353 2609 779 3096 
Q 1206 3584 1959 3584 
z
" transform="scale(0.015625)"/>
       <path id="DejaVuSans-6e" d="M 3513 2113 
L 3513 0 
L 2938 0 
L 2938 2094 
Q 2938 2591 2744 2837 
Q 2550 3084 2163 3084 
Q 1697 3084 1428 2787 
Q 1159 2491 1159 1978 
L 1159 0 
L 581 0 
L 581 3500 
L 1159 3500 
L 1159 2956 
Q 1366 3272 1645 3428 
Q 1925 3584 2291 3584 
Q 2894 3584 3203 3211 
Q 3513 2838 3513 2113 
z
" transform="scale(0.015625)"/>
       <path id="DejaVuSans-64" d="M 2906 2969 
L 2906 4863 
L 3481 4863 
L 3481 0 
L 2906 0 
L 2906 525 
Q 2725 213 2448 61 
Q 2172 -91 1784 -91 
Q 1150 -91 751 415 
Q 353 922 353 1747 
Q 353 2572 751 3078 
Q 1150 3584 1784 3584 
Q 2172 3584 2448 3432 
Q 2725 3281 2906 2969 
z
M 947 1747 
Q 947 1113 1208 752 
Q 1469 391 1925 391 
Q 2381 391 2643 752 
Q 2906 1113 2906 1747 
Q 2906 2381 2643 2742 
Q 2381 3103 1925 3103 
Q 1469 3103 1208 2742 
Q 947 2381 947 1747 
z
" transform="scale(0.015625)"/>
       <path id="DejaVuSans-29" d="M 513 4856 
L 1013 4856 
Q 1481 4119 1714 3412 
Q 1947 2706 1947 2009 
Q 1947 1309 1714 600 
Q 1481 -109 1013 -844 
L 513 -844 
Q 928 -128 1133 580 
Q 1338 1288 1338 2009 
Q 1338 2731 1133 3434 
Q 928 4138 513 4856 
z
" transform="scale(0.015625)"/>
      </defs>
      <use xlink:href="#DejaVuSans-54"/>
      <use xlink:href="#DejaVuSans-69" transform="translate(57.958984 0)"/>
      <use xlink:href="#DejaVuSans-6d" transform="translate(85.742188 0)"/>
      <use xlink:href="#DejaVuSans-65" transform="translate(183.154297 0)"/>
      <use xlink:href="#DejaVuSans-73" transform="translate(244.677734 0)"/>
      <use xlink:href="#DejaVuSans-74" transform="translate(296.777344 0)"/>
      <use xlink:href="#DejaVuSans-61" transform="translate(335.986328 0)"/>
      <use xlink:href="#DejaVuSans-6d" transform="translate(397.265625 0)"/>
      <use xlink:href="#DejaVuSans-70" transform="translate(494.677734 0)"/>
      <use xlink:href="#DejaVuSans-20" transform="translate(558.154297 0)"/>
      <use xlink:href="#DejaVuSans-28" transform="translate(589.941406 0)"/>
      <use xlink:href="#DejaVuSans-53" transform="translate(628.955078 0)"/>
      <use xlink:href="#DejaVuSans-65" transform="translate(692.431641 0)"/>
      <use xlink:href="#DejaVuSans-63" transform="translate(753.955078 0)"/>
      <use xlink:href="#DejaVuSans-6f" transform="translate(808.935547 0)"/>
      <use xlink:href="#DejaVuSans-6e" transform="translate(870.117188 0)"/>
      <use xlink:href="#DejaVuSans-64" transform="translate(933.496094 0)"/>
      <use xlink:href="#DejaVuSans-73" transform="translate(996.972656 0)"/>
      <use xlink:href="#DejaVuSans-29" transform="translate(1049.072266 0)"/>
     </g>
    </g>
   </g>
   <g id="matplotlib.axis_2">
    <g id="ytick_1">
     <g id="line2d_6">
      <defs>
       <path id="mc1625b0dd7" d="M 0 0 
L -3.5 0 
" style="stroke: #000000; stroke-width: 0.8"/>
      </defs>
      <g>
       <use xlink:href="#mc1625b0dd7" x="50.002685" y="191.837047" style="stroke: #000000; stroke-width: 0.8"/>
      </g>
     </g>
     <g id="text_7">
      <!-- $\mathdefault{10^{1}}$ -->
      <g transform="translate(25.402685 195.636266) scale(0.1 -0.1)">
       <use xlink:href="#DejaVuSans-31" transform="translate(0 0.684375)"/>
       <use xlink:href="#DejaVuSans-30" transform="translate(63.623047 0.684375)"/>
       <use xlink:href="#DejaVuSans-31" transform="translate(128.203125 38.965625) scale(0.7)"/>
      </g>
     </g>
    </g>
    <g id="ytick_2">
     <g id="line2d_7">
      <g>
       <use xlink:href="#mc1625b0dd7" x="50.002685" y="121.346804" style="stroke: #000000; stroke-width: 0.8"/>
      </g>
     </g>
     <g id="text_8">
      <!-- $\mathdefault{10^{2}}$ -->
      <g transform="translate(25.402685 125.146022) scale(0.1 -0.1)">
       <use xlink:href="#DejaVuSans-31" transform="translate(0 0.765625)"/>
       <use xlink:href="#DejaVuSans-30" transform="translate(63.623047 0.765625)"/>
       <use xlink:href="#DejaVuSans-32" transform="translate(128.203125 39.046875) scale(0.7)"/>
      </g>
     </g>
    </g>
    <g id="ytick_3">
     <g id="line2d_8">
      <g>
       <use xlink:href="#mc1625b0dd7" x="50.002685" y="50.85656" style="stroke: #000000; stroke-width: 0.8"/>
      </g>
     </g>
     <g id="text_9">
      <!-- $\mathdefault{10^{3}}$ -->
      <g transform="translate(25.402685 54.655779) scale(0.1 -0.1)">
       <use xlink:href="#DejaVuSans-31" transform="translate(0 0.765625)"/>
       <use xlink:href="#DejaVuSans-30" transform="translate(63.623047 0.765625)"/>
       <use xlink:href="#DejaVuSans-33" transform="translate(128.203125 39.046875) scale(0.7)"/>
      </g>
     </g>
    </g>
    <g id="ytick_4">
     <g id="line2d_9">
      <defs>
       <path id="m3744a0cf5e" d="M 0 0 
L -2 0 
" style="stroke: #000000; stroke-width: 0.6"/>
      </defs>
      <g>
       <use xlink:href="#m3744a0cf5e" x="50.002685" y="241.107613" style="stroke: #000000; stroke-width: 0.6"/>
      </g>
     </g>
    </g>
    <g id="ytick_5">
     <g id="line2d_10">
      <g>
       <use xlink:href="#m3744a0cf5e" x="50.002685" y="228.694897" style="stroke: #000000; stroke-width: 0.6"/>
      </g>
     </g>
    </g>
    <g id="ytick_6">
     <g id="line2d_11">
      <g>
       <use xlink:href="#m3744a0cf5e" x="50.002685" y="219.887935" style="stroke: #000000; stroke-width: 0.6"/>
      </g>
     </g>
    </g>
    <g id="ytick_7">
     <g id="line2d_12">
      <g>
       <use xlink:href="#m3744a0cf5e" x="50.002685" y="213.056725" style="stroke: #000000; stroke-width: 0.6"/>
      </g>
     </g>
    </g>
    <g id="ytick_8">
     <g id="line2d_13">
      <g>
       <use xlink:href="#m3744a0cf5e" x="50.002685" y="207.47522" style="stroke: #000000; stroke-width: 0.6"/>
      </g>
     </g>
    </g>
    <g id="ytick_9">
     <g id="line2d_14">
      <g>
       <use xlink:href="#m3744a0cf5e" x="50.002685" y="202.756124" style="stroke: #000000; stroke-width: 0.6"/>
      </g>
     </g>
    </g>
    <g id="ytick_10">
     <g id="line2d_15">
      <g>
       <use xlink:href="#m3744a0cf5e" x="50.002685" y="198.668258" style="stroke: #000000; stroke-width: 0.6"/>
      </g>
     </g>
    </g>
    <g id="ytick_11">
     <g id="line2d_16">
      <g>
       <use xlink:href="#m3744a0cf5e" x="50.002685" y="195.062504" style="stroke: #000000; stroke-width: 0.6"/>
      </g>
     </g>
    </g>
    <g id="ytick_12">
     <g id="line2d_17">
      <g>
       <use xlink:href="#m3744a0cf5e" x="50.002685" y="170.617369" style="stroke: #000000; stroke-width: 0.6"/>
      </g>
     </g>
    </g>
    <g id="ytick_13">
     <g id="line2d_18">
      <g>
       <use xlink:href="#m3744a0cf5e" x="50.002685" y="158.204654" style="stroke: #000000; stroke-width: 0.6"/>
      </g>
     </g>
    </g>
    <g id="ytick_14">
     <g id="line2d_19">
      <g>
       <use xlink:href="#m3744a0cf5e" x="50.002685" y="149.397692" style="stroke: #000000; stroke-width: 0.6"/>
      </g>
     </g>
    </g>
    <g id="ytick_15">
     <g id="line2d_20">
      <g>
       <use xlink:href="#m3744a0cf5e" x="50.002685" y="142.566481" style="stroke: #000000; stroke-width: 0.6"/>
      </g>
     </g>
    </g>
    <g id="ytick_16">
     <g id="line2d_21">
      <g>
       <use xlink:href="#m3744a0cf5e" x="50.002685" y="136.984976" style="stroke: #000000; stroke-width: 0.6"/>
      </g>
     </g>
    </g>
    <g id="ytick_17">
     <g id="line2d_22">
      <g>
       <use xlink:href="#m3744a0cf5e" x="50.002685" y="132.265881" style="stroke: #000000; stroke-width: 0.6"/>
      </g>
     </g>
    </g>
    <g id="ytick_18">
     <g id="line2d_23">
      <g>
       <use xlink:href="#m3744a0cf5e" x="50.002685" y="128.178014" style="stroke: #000000; stroke-width: 0.6"/>
      </g>
     </g>
    </g>
    <g id="ytick_19">
     <g id="line2d_24">
      <g>
       <use xlink:href="#m3744a0cf5e" x="50.002685" y="124.57226" style="stroke: #000000; stroke-width: 0.6"/>
      </g>
     </g>
    </g>
    <g id="ytick_20">
     <g id="line2d_25">
      <g>
       <use xlink:href="#m3744a0cf5e" x="50.002685" y="100.127126" style="stroke: #000000; stroke-width: 0.6"/>
      </g>
     </g>
    </g>
    <g id="ytick_21">
     <g id="line2d_26">
      <g>
       <use xlink:href="#m3744a0cf5e" x="50.002685" y="87.71441" style="stroke: #000000; stroke-width: 0.6"/>
      </g>
     </g>
    </g>
    <g id="ytick_22">
     <g id="line2d_27">
      <g>
       <use xlink:href="#m3744a0cf5e" x="50.002685" y="78.907448" style="stroke: #000000; stroke-width: 0.6"/>
      </g>
     </g>
    </g>
    <g id="ytick_23">
     <g id="line2d_28">
      <g>
       <use xlink:href="#m3744a0cf5e" x="50.002685" y="72.076238" style="stroke: #000000; stroke-width: 0.6"/>
      </g>
     </g>
    </g>
    <g id="ytick_24">
     <g id="line2d_29">
      <g>
       <use xlink:href="#m3744a0cf5e" x="50.002685" y="66.494733" style="stroke: #000000; stroke-width: 0.6"/>
      </g>
     </g>
    </g>
    <g id="ytick_25">
     <g id="line2d_30">
      <g>
       <use xlink:href="#m3744a0cf5e" x="50.002685" y="61.775637" style="stroke: #000000; stroke-width: 0.6"/>
      </g>
     </g>
    </g>
    <g id="ytick_26">
     <g id="line2d_31">
      <g>
       <use xlink:href="#m3744a0cf5e" x="50.002685" y="57.687771" style="stroke: #000000; stroke-width: 0.6"/>
      </g>
     </g>
    </g>
    <g id="ytick_27">
     <g id="line2d_32">
      <g>
       <use xlink:href="#m3744a0cf5e" x="50.002685" y="54.082017" style="stroke: #000000; stroke-width: 0.6"/>
      </g>
     </g>
    </g>
    <g id="ytick_28">
     <g id="line2d_33">
      <g>
       <use xlink:href="#m3744a0cf5e" x="50.002685" y="29.636882" style="stroke: #000000; stroke-width: 0.6"/>
      </g>
     </g>
    </g>
    <g id="text_10">
     <!-- Avg Duration (ms) -->
     <g transform="translate(19.322997 181.990469) rotate(-90) scale(0.1 -0.1)">
      <defs>
       <path id="DejaVuSans-41" d="M 2188 4044 
L 1331 1722 
L 3047 1722 
L 2188 4044 
z
M 1831 4666 
L 2547 4666 
L 4325 0 
L 3669 0 
L 3244 1197 
L 1141 1197 
L 716 0 
L 50 0 
L 1831 4666 
z
" transform="scale(0.015625)"/>
       <path id="DejaVuSans-76" d="M 191 3500 
L 800 3500 
L 1894 563 
L 2988 3500 
L 3597 3500 
L 2284 0 
L 1503 0 
L 191 3500 
z
" transform="scale(0.015625)"/>
       <path id="DejaVuSans-67" d="M 2906 1791 
Q 2906 2416 2648 2759 
Q 2391 3103 1925 3103 
Q 1463 3103 1205 2759 
Q 947 2416 947 1791 
Q 947 1169 1205 825 
Q 1463 481 1925 481 
Q 2391 481 2648 825 
Q 2906 1169 2906 1791 
z
M 3481 434 
Q 3481 -459 3084 -895 
Q 2688 -1331 1869 -1331 
Q 1566 -1331 1297 -1286 
Q 1028 -1241 775 -1147 
L 775 -588 
Q 1028 -725 1275 -790 
Q 1522 -856 1778 -856 
Q 2344 -856 2625 -561 
Q 2906 -266 2906 331 
L 2906 616 
Q 2728 306 2450 153 
Q 2172 0 1784 0 
Q 1141 0 747 490 
Q 353 981 353 1791 
Q 353 2603 747 3093 
Q 1141 3584 1784 3584 
Q 2172 3584 2450 3431 
Q 2728 3278 2906 2969 
L 2906 3500 
L 3481 3500 
L 3481 434 
z
" transform="scale(0.015625)"/>
       <path id="DejaVuSans-44" d="M 1259 4147 
L 1259 519 
L 2022 519 
Q 2988 519 3436 956 
Q 3884 1394 3884 2338 
Q 3884 3275 3436 3711 
Q 2988 4147 2022 4147 
L 1259 4147 
z
M 628 4666 
L 1925 4666 
Q 3281 4666 3915 4102 
Q 4550 3538 4550 2338 
Q 4550 1131 3912 565 
Q 3275 0 1925 0 
L 628 0 
L 628 4666 
z
" transform="scale(0.015625)"/>
       <path id="DejaVuSans-75" d="M 544 1381 
L 544 3500 
L 1119 3500 
L 1119 1403 
Q 1119 906 1312 657 
Q 1506 409 1894 409 
Q 2359 409 2629 706 
Q 2900 1003 2900 1516 
L 2900 3500 
L 3475 3500 
L 3475 0 
L 2900 0 
L 2900 538 
Q 2691 219 2414 64 
Q 2138 -91 1772 -91 
Q 1169 -91 856 284 
Q 544 659 544 1381 
z
M 1991 3584 
L 1991 3584 
z
" transform="scale(0.015625)"/>
       <path id="DejaVuSans-72" d="M 2631 2963 
Q 2534 3019 2420 3045 
Q 2306 3072 2169 3072 
Q 1681 3072 1420 2755 
Q 1159 2438 1159 1844 
L 1159 0 
L 581 0 
L 581 3500 
L 1159 3500 
L 1159 2956 
Q 1341 3275 1631 3429 
Q 1922 3584 2338 3584 
Q 2397 3584 2469 3576 
Q 2541 3569 2628 3553 
L 2631 2963 
z
" transform="scale(0.015625)"/>
      </defs>
      <use xlink:href="#DejaVuSans-41"/>
      <use xlink:href="#DejaVuSans-76" transform="translate(62.533203 0)"/>
      <use xlink:href="#DejaVuSans-67" transform="translate(121.712891 0)"/>
      <use xlink:href="#DejaVuSans-20" transform="translate(185.189453 0)"/>
      <use xlink:href="#DejaVuSans-44" transform="translate(216.976562 0)"/>
      <use xlink:href="#DejaVuSans-75" transform="translate(293.978516 0)"/>
      <use xlink:href="#DejaVuSans-72" transform="translate(357.357422 0)"/>
      <use xlink:href="#DejaVuSans-61" transform="translate(398.470703 0)"/>
      <use xlink:href="#DejaVuSans-74" transform="translate(459.75 0)"/>
      <use xlink:href="#DejaVuSans-69" transform="translate(498.958984 0)"/>
      <use xlink:href="#DejaVuSans-6f" transform="translate(526.742188 0)"/>
      <use xlink:href="#DejaVuSans-6e" transform="translate(587.923828 0)"/>
      <use xlink:href="#DejaVuSans-20" transform="translate(651.302734 0)"/>
      <use xlink:href="#DejaVuSans-28" transform="translate(683.089844 0)"/>
      <use xlink:href="#DejaVuSans-6d" transform="translate(722.103516 0)"/>
      <use xlink:href="#DejaVuSans-73" transform="translate(819.515625 0)"/>
      <use xlink:href="#DejaVuSans-29" transform="translate(871.615234 0)"/>
     </g>
    </g>
   </g>
   <g id="line2d_34">
    <path d="M 93.057108 220.732889 
L 95.152214 224.937175 
L 97.24732 225.594768 
L 99.342425 227.353786 
L 101.437531 229.390546 
L 103.532637 230.727172 
L 105.627743 231.698115 
L 107.722849 230.430253 
L 109.817954 233.026658 
L 111.91306 230.929229 
L 114.008166 233.366351 
L 116.103272 231.902276 
L 118.198377 231.578958 
L 120.293483 230.991888 
L 122.388589 231.880119 
L 124.483695 231.346475 
L 126.5788 232.261872 
L 128.673906 231.051989 
L 130.769012 233.426558 
L 132.864118 231.042548 
L 134.959223 232.40425 
L 139.149435 233.452731 
L 141.244541 232.726934 
L 143.339646 234.25161 
L 145.434752 231.178993 
L 147.529858 234.917554 
L 149.624964 231.895256 
L 151.72007 235.899746 
L 153.815175 232.988798 
L 155.910281 235.158649 
L 158.005387 234.600354 
L 160.100493 234.780603 
L 162.195598 233.689151 
L 164.290704 235.985116 
L 166.38581 235.022431 
L 168.480916 234.848659 
L 170.576021 234.451473 
L 172.671127 234.728814 
L 174.766233 234.824595 
L 176.861339 234.440025 
L 178.956444 235.383908 
L 181.05155 234.477891 
L 183.146656 235.904841 
L 185.241762 232.997505 
L 187.336867 233.846017 
L 189.431973 234.912592 
L 191.527079 235.669032 
L 193.622185 235.185239 
L 195.717291 234.184956 
L 197.812396 234.161076 
L 199.907502 236.078182 
L 202.002608 233.503326 
L 204.097714 234.820807 
L 206.192819 235.147255 
L 208.287925 234.974494 
L 210.383031 233.675617 
L 212.478137 234.905395 
L 214.573242 97.692709 
L 216.668348 208.554103 
L 218.763454 216.444009 
L 220.85856 202.429687 
L 222.953665 231.009498 
L 225.048771 224.069497 
L 227.143877 210.996859 
L 229.238983 222.338184 
L 231.334089 213.375102 
L 233.429194 220.799454 
L 235.5243 224.984755 
L 237.619406 226.661709 
L 239.714512 212.366235 
L 241.809617 223.078995 
L 243.904723 217.518541 
L 248.094935 222.568548 
L 250.19004 224.47519 
L 252.285146 223.294966 
L 254.380252 225.357197 
L 256.475358 224.027606 
L 258.570463 217.704144 
L 260.665569 223.283588 
L 262.760675 224.067896 
L 264.855781 226.205976 
L 266.950886 228.992244 
L 269.045992 223.516388 
L 271.141098 231.136085 
L 273.236204 224.989862 
L 275.33131 219.844461 
L 277.426415 217.85889 
L 279.521521 228.547498 
L 281.616627 225.935719 
L 283.711733 230.037205 
L 285.806838 225.628766 
L 287.901944 231.675151 
L 289.99705 231.16557 
L 292.092156 231.926878 
L 294.187261 234.279506 
L 296.282367 232.454895 
L 298.377473 233.829164 
L 300.472579 232.186273 
L 302.567684 233.485007 
L 304.66279 232.505975 
L 306.757896 233.555637 
L 308.853002 231.281904 
L 310.948107 227.574804 
L 313.043213 234.482658 
L 315.138319 231.807704 
L 317.233425 232.731596 
L 319.328531 226.17857 
L 321.423636 228.22553 
L 323.518742 231.49485 
L 325.613848 232.576969 
L 329.804059 233.459155 
L 331.899165 235.849831 
L 333.994271 234.63758 
L 336.089377 234.408168 
L 338.184482 236.01669 
L 340.279588 234.869295 
L 342.374694 234.65508 
L 344.4698 229.87263 
L 346.564905 233.293229 
L 348.660011 232.927454 
L 350.755117 233.977178 
L 352.850223 231.587575 
L 354.945329 230.51734 
L 357.040434 223.203122 
L 359.13554 229.883671 
L 361.230646 229.84131 
L 365.420857 231.745274 
L 367.515963 232.217206 
L 369.611069 233.053806 
L 371.706175 233.570731 
L 373.80128 229.127063 
L 375.896386 228.837256 
L 377.991492 225.261161 
L 380.086598 231.256334 
L 382.181703 230.576573 
L 384.276809 233.063267 
L 386.371915 231.54997 
L 388.467021 231.76213 
L 390.562126 231.705898 
L 392.657232 224.742125 
L 394.752338 229.842463 
L 396.847444 227.998772 
L 398.94255 225.441917 
L 401.037655 230.851606 
L 403.132761 224.551313 
L 405.227867 223.286256 
L 409.418078 231.717496 
L 413.60829 230.461906 
L 415.703396 228.665342 
L 417.798501 227.508703 
L 419.893607 232.033068 
L 421.988713 228.665807 
L 424.083819 234.518078 
L 426.178924 229.833268 
L 428.27403 225.928549 
L 430.369136 228.393435 
L 432.464242 231.283735 
L 434.559347 230.920211 
L 436.654453 233.874188 
L 438.749559 230.366815 
L 440.844665 232.62244 
L 442.939771 227.166442 
L 445.034876 232.665284 
L 447.129982 232.164357 
L 449.225088 232.432698 
L 451.320194 230.949323 
L 453.415299 228.993015 
L 455.510405 233.961966 
L 457.605511 233.30764 
L 459.700617 227.574179 
L 461.795722 228.157651 
L 463.890828 228.106051 
L 465.985934 229.938003 
L 468.08104 229.71438 
L 470.176145 230.995954 
L 472.271251 230.146422 
L 474.366357 226.647982 
L 476.461463 220.111089 
L 478.556568 221.038033 
L 480.651674 223.10311 
L 482.74678 228.966559 
L 484.841886 231.976285 
L 486.936992 230.790067 
L 489.032097 230.387273 
L 491.127203 233.445871 
L 493.222309 233.062367 
L 495.317415 232.328531 
L 497.41252 235.368171 
L 499.507626 233.219244 
L 501.602732 233.997035 
L 503.697838 231.119635 
L 505.792943 233.000658 
L 507.888049 230.410247 
L 509.983155 234.29041 
L 512.078261 230.438955 
L 514.173366 234.46628 
L 516.268472 231.224891 
L 518.363578 233.774972 
L 520.458684 232.034113 
L 522.55379 231.621345 
L 524.648895 230.211927 
L 526.744001 233.350833 
L 528.839107 230.085566 
L 530.934213 226.130434 
L 533.029318 231.486213 
L 535.124424 230.818317 
L 537.21953 231.341746 
L 539.314636 223.814683 
L 541.409741 229.292045 
L 543.504847 230.167324 
L 545.599953 229.790528 
L 547.695059 230.281137 
L 549.790164 227.826879 
L 551.88527 230.933156 
L 553.980376 231.664293 
L 556.075482 229.4546 
L 558.170587 228.722977 
L 560.265693 224.234312 
L 562.360799 227.529061 
L 564.455905 230.352885 
L 568.646116 224.614391 
L 570.741222 230.357176 
L 572.836328 222.285112 
L 574.931434 227.009715 
L 577.026539 229.885082 
L 579.121645 228.71391 
L 581.216751 229.7501 
L 583.311857 225.668432 
L 585.406962 232.258539 
L 587.502068 228.916979 
L 589.597174 226.451815 
L 591.69228 230.336444 
L 593.787385 231.146836 
L 595.882491 225.692228 
L 597.977597 228.571066 
L 600.072703 229.200202 
L 602.167808 224.177956 
L 604.262914 225.493375 
L 606.35802 223.696143 
L 608.453126 230.450525 
L 610.548232 227.674382 
L 612.643337 226.692539 
L 614.738443 219.941146 
L 616.833549 223.300079 
L 618.928655 224.206935 
L 621.02376 223.309012 
L 623.118866 219.400575 
L 625.213972 223.912754 
L 627.309078 221.941335 
L 629.404183 228.065903 
L 631.499289 224.380735 
L 633.594395 228.018994 
L 635.689501 227.462632 
L 637.784606 219.500296 
L 639.879712 226.689121 
L 641.974818 223.999996 
L 644.069924 224.025082 
L 646.165029 226.361898 
L 648.260135 225.856575 
L 650.355241 218.992637 
L 652.450347 226.30975 
L 654.545453 226.509714 
L 656.640558 228.678284 
L 658.735664 227.704437 
L 660.83077 225.663152 
L 662.925876 225.966278 
L 665.020981 221.681811 
L 667.116087 221.988693 
L 669.211193 221.705763 
L 671.306299 221.631645 
L 673.401404 220.644953 
L 675.49651 225.07813 
L 677.591616 221.76189 
L 679.686722 220.88165 
L 681.781827 217.701685 
L 683.876933 218.919272 
L 685.972039 221.912791 
L 688.067145 218.600548 
L 690.162251 222.140587 
L 692.257356 218.170714 
L 694.352462 223.651554 
L 696.447568 222.378529 
L 698.542674 221.559387 
L 700.637779 222.674775 
L 702.732885 224.028118 
L 704.827991 224.709782 
L 706.923097 224.528666 
L 709.018202 227.389452 
L 711.113308 227.664069 
L 713.208414 224.322181 
L 715.30352 225.947219 
L 717.398625 230.871054 
L 719.493731 225.254052 
L 721.588837 226.03521 
L 723.683943 227.515382 
L 725.779048 226.14298 
L 727.874154 219.333551 
L 729.96926 221.365779 
L 732.064366 224.509363 
L 734.159472 223.047516 
L 736.254577 224.728416 
L 738.349683 220.832942 
L 740.444789 223.158437 
L 742.539895 228.735802 
L 746.730106 221.931157 
L 748.825212 226.370125 
L 750.920318 219.2697 
L 753.015423 223.489592 
L 755.110529 213.675735 
L 757.205635 218.021207 
L 761.395846 228.628377 
L 763.490952 206.284514 
L 765.586058 221.908621 
L 767.681164 220.907566 
L 769.776269 217.772478 
L 771.871375 205.439436 
L 773.966481 216.660408 
L 776.061587 222.569178 
L 778.156693 217.390794 
L 780.251798 210.307826 
L 782.346904 211.961675 
L 784.44201 212.68185 
L 786.537116 210.359808 
L 788.632221 214.95359 
L 790.727327 202.853755 
L 792.822433 213.262858 
L 794.917539 206.334764 
L 797.012644 213.982129 
L 799.10775 215.801713 
L 801.202856 218.423005 
L 803.297962 214.16948 
L 805.393067 220.217524 
L 807.488173 224.025209 
L 809.583279 218.084653 
L 811.678385 214.751447 
L 813.77349 221.001682 
L 815.868596 214.955166 
L 817.963702 225.498077 
L 820.058808 213.158221 
L 822.153914 216.213808 
L 824.249019 216.285036 
L 826.344125 226.636425 
L 828.439231 224.126076 
L 830.534337 219.919195 
L 832.629442 222.346646 
L 834.724548 224.166001 
L 836.819654 216.692946 
L 838.91476 223.639283 
L 841.009865 219.92162 
L 843.104971 226.465256 
L 845.200077 221.224415 
L 849.390288 217.376423 
L 851.485394 218.366585 
L 853.5805 203.88766 
L 855.675606 209.928048 
L 859.865817 218.257263 
L 861.960923 220.079966 
L 864.056029 219.079367 
L 866.151135 213.107214 
L 868.24624 216.374231 
L 870.341346 216.133656 
L 872.436452 214.915632 
L 874.531558 212.370358 
L 876.626663 213.03117 
L 878.721769 216.245168 
L 880.816875 209.647816 
L 882.911981 216.165106 
L 885.007086 207.759787 
L 887.102192 206.792541 
L 889.197298 211.289274 
L 891.292404 204.730341 
L 893.387509 200.036276 
L 895.482615 210.825775 
L 897.577721 216.67877 
L 899.672827 223.641615 
L 901.767933 215.164918 
L 903.863038 218.670744 
L 905.958144 195.537197 
L 905.958144 195.537197 
" clip-path="url(#p395cfe5cc8)" style="fill: none; stroke: #1f77b4; stroke-width: 1.5; stroke-linecap: square"/>
   </g>
   <g id="line2d_35">
    <path d="M 93.057108 221.821506 
L 95.152214 225.200926 
L 97.24732 225.406489 
L 99.342425 226.043177 
L 101.437531 228.205361 
L 103.532637 228.609159 
L 105.627743 223.846829 
L 107.722849 232.900679 
L 109.817954 231.81027 
L 111.91306 231.886876 
L 114.008166 232.304984 
L 116.103272 234.024807 
L 118.198377 232.827737 
L 120.293483 233.890559 
L 122.388589 234.479222 
L 124.483695 233.193913 
L 126.5788 233.034355 
L 128.673906 234.578583 
L 130.769012 233.200143 
L 132.864118 233.071898 
L 134.959223 230.03901 
L 137.054329 235.999724 
L 139.149435 234.864657 
L 141.244541 234.527987 
L 143.339646 233.796637 
L 145.434752 235.314233 
L 147.529858 233.86688 
L 149.624964 234.892049 
L 151.72007 235.332003 
L 153.815175 235.336379 
L 155.910281 233.501124 
L 158.005387 235.520034 
L 160.100493 234.87033 
L 162.195598 235.284052 
L 164.290704 234.261227 
L 166.38581 234.797739 
L 168.480916 233.850083 
L 170.576021 234.328512 
L 172.671127 235.763603 
L 174.766233 234.465478 
L 176.861339 233.908913 
L 178.956444 233.147468 
L 181.05155 235.370256 
L 183.146656 233.991485 
L 185.241762 234.620604 
L 187.336867 234.993698 
L 189.431973 233.867377 
L 191.527079 234.016497 
L 193.622185 235.095867 
L 195.717291 234.906768 
L 197.812396 231.625976 
L 199.907502 234.377644 
L 202.002608 235.185484 
L 204.097714 235.392929 
L 210.383031 233.06435 
L 212.478137 232.763515 
L 214.573242 233.650511 
L 216.668348 233.307197 
L 218.763454 235.41333 
L 220.85856 233.758915 
L 222.953665 235.074304 
L 225.048771 53.258356 
L 227.143877 156.866702 
L 229.238983 150.30586 
L 231.334089 161.510521 
L 233.429194 161.284341 
L 235.5243 182.346812 
L 237.619406 188.073669 
L 239.714512 193.121372 
L 241.809617 226.740982 
L 243.904723 224.261708 
L 245.999829 229.383024 
L 248.094935 210.813015 
L 250.19004 229.593845 
L 252.285146 224.46448 
L 254.380252 203.685256 
L 256.475358 228.158206 
L 258.570463 222.993571 
L 260.665569 231.283644 
L 262.760675 227.257172 
L 264.855781 232.209066 
L 266.950886 214.558306 
L 269.045992 225.388396 
L 271.141098 223.497788 
L 273.236204 224.601565 
L 275.33131 228.366721 
L 277.426415 204.637245 
L 279.521521 198.340143 
L 281.616627 224.564025 
L 283.711733 222.073148 
L 285.806838 229.961287 
L 287.901944 224.35865 
L 289.99705 230.581876 
L 292.092156 232.357231 
L 294.187261 212.073504 
L 296.282367 231.116181 
L 298.377473 229.858945 
L 300.472579 227.166192 
L 302.567684 225.539433 
L 304.66279 224.387829 
L 306.757896 225.241133 
L 308.853002 228.06443 
L 310.948107 228.315906 
L 313.043213 223.368056 
L 315.138319 224.069879 
L 317.233425 228.831195 
L 319.328531 230.359148 
L 321.423636 227.667692 
L 323.518742 164.963586 
L 325.613848 209.979942 
L 327.708954 203.401168 
L 329.804059 207.746695 
L 331.899165 221.033859 
L 333.994271 196.620187 
L 336.089377 213.894355 
L 338.184482 198.67688 
L 340.279588 200.387277 
L 342.374694 200.343524 
L 344.4698 219.133255 
L 346.564905 213.40544 
L 348.660011 219.811162 
L 350.755117 227.130754 
L 352.850223 210.931274 
L 357.040434 36.841818 
L 359.13554 90.449225 
L 361.230646 92.590163 
L 363.325752 110.9692 
L 365.420857 131.797205 
L 367.515963 160.471918 
L 369.611069 185.457173 
L 371.706175 205.412295 
L 373.80128 209.553173 
L 375.896386 179.437496 
L 377.991492 213.818797 
L 380.086598 207.787599 
L 382.181703 206.187581 
L 384.276809 199.223071 
L 386.371915 176.139251 
L 388.467021 201.277805 
L 390.562126 189.970548 
L 392.657232 165.050515 
L 394.752338 177.988113 
L 396.847444 199.998797 
L 398.94255 167.08514 
L 401.037655 174.073637 
L 403.132761 199.12765 
L 405.227867 204.415625 
L 407.322973 195.313899 
L 409.418078 190.189211 
L 411.513184 186.558442 
L 413.60829 177.11889 
L 415.703396 182.756103 
L 417.798501 200.509489 
L 419.893607 165.11204 
L 421.988713 176.171121 
L 424.083819 195.930649 
L 426.178924 196.528819 
L 428.27403 186.13749 
L 430.369136 194.036138 
L 432.464242 213.117199 
L 434.559347 120.172554 
L 436.654453 147.769937 
L 438.749559 134.147213 
L 440.844665 173.048997 
L 442.939771 190.521887 
L 445.034876 164.165065 
L 447.129982 167.127463 
L 449.225088 167.732025 
L 451.320194 156.729074 
L 453.415299 163.500072 
L 455.510405 173.575218 
L 457.605511 148.125859 
L 459.700617 176.435595 
L 461.795722 169.169841 
L 465.985934 203.399517 
L 468.08104 190.369174 
L 470.176145 181.989377 
L 472.271251 152.959584 
L 474.366357 178.871118 
L 476.461463 173.072355 
L 478.556568 168.969471 
L 480.651674 157.377022 
L 482.74678 160.423576 
L 484.841886 186.385807 
L 486.936992 139.891617 
L 489.032097 153.34525 
L 491.127203 153.393289 
L 493.222309 150.647886 
L 495.317415 155.825546 
L 497.41252 174.659833 
L 499.507626 145.37003 
L 501.602732 157.620696 
L 503.697838 159.558724 
L 505.792943 148.438052 
L 507.888049 144.138198 
L 509.983155 143.659418 
L 512.078261 160.781492 
L 514.173366 133.601352 
L 516.268472 135.266055 
L 518.363578 137.747586 
L 520.458684 130.979483 
L 522.55379 133.781897 
L 524.648895 130.450629 
L 526.744001 129.248546 
L 528.839107 129.262455 
L 530.934213 119.704004 
L 533.029318 133.297351 
L 535.124424 131.806828 
L 537.21953 127.256471 
L 539.314636 144.396507 
L 541.409741 138.397865 
L 543.504847 139.439628 
L 545.599953 131.087527 
L 547.695059 132.427037 
L 549.790164 128.579536 
L 551.88527 126.585508 
L 553.980376 131.553929 
L 556.075482 128.711561 
L 558.170587 126.875528 
L 560.265693 124.008103 
L 564.455905 124.757686 
L 566.551011 117.384363 
L 568.646116 99.749457 
L 570.741222 115.033581 
L 574.931434 110.326014 
L 577.026539 111.188375 
L 579.121645 124.134349 
L 581.216751 101.556097 
L 583.311857 107.620964 
L 585.406962 108.099479 
L 587.502068 105.560921 
L 589.597174 110.501807 
L 591.69228 101.316237 
L 593.787385 112.658665 
L 595.882491 100.510173 
L 597.977597 106.744628 
L 600.072703 105.108383 
L 602.167808 107.01887 
L 604.262914 103.267778 
L 606.35802 99.819032 
L 608.453126 100.443212 
L 610.548232 102.469727 
L 612.643337 101.568845 
L 614.738443 103.650139 
L 616.833549 99.121872 
L 618.928655 97.000908 
L 621.02376 104.154519 
L 623.118866 101.233582 
L 625.213972 89.478649 
L 627.309078 96.81426 
L 629.404183 91.61048 
L 631.499289 89.121275 
L 633.594395 91.8547 
L 635.689501 97.976581 
L 637.784606 90.168662 
L 639.879712 90.770883 
L 641.974818 93.149448 
L 644.069924 86.234464 
L 646.165029 89.571521 
L 648.260135 83.477867 
L 650.355241 80.461164 
L 652.450347 84.529323 
L 654.545453 86.640848 
L 656.640558 89.313104 
L 658.735664 86.549384 
L 660.83077 86.011519 
L 662.925876 87.266533 
L 665.020981 85.929286 
L 667.116087 84.144486 
L 669.211193 83.315202 
L 671.306299 85.044217 
L 673.401404 81.085993 
L 675.49651 81.312138 
L 677.591616 83.224059 
L 679.686722 88.306013 
L 681.781827 80.190758 
L 683.876933 78.9747 
L 685.972039 88.163117 
L 688.067145 77.23142 
L 690.162251 79.580327 
L 692.257356 80.294249 
L 694.352462 77.1853 
L 696.447568 76.063558 
L 698.542674 78.33974 
L 700.637779 79.826884 
L 702.732885 78.646802 
L 704.827991 80.668056 
L 706.923097 73.305795 
L 709.018202 76.454028 
L 711.113308 78.921639 
L 713.208414 76.346956 
L 715.30352 76.456287 
L 717.398625 74.303945 
L 719.493731 75.707286 
L 721.588837 76.284075 
L 723.683943 77.412339 
L 725.779048 74.440273 
L 727.874154 76.192491 
L 729.96926 74.344937 
L 732.064366 74.679242 
L 734.159472 78.917707 
L 736.254577 76.878999 
L 738.349683 69.910259 
L 740.444789 75.589293 
L 744.635 72.766313 
L 746.730106 71.576252 
L 748.825212 69.199579 
L 750.920318 71.521408 
L 753.015423 69.738037 
L 755.110529 74.528259 
L 757.205635 73.660759 
L 761.395846 69.165673 
L 763.490952 72.676794 
L 765.586058 73.049806 
L 767.681164 71.805146 
L 769.776269 70.897096 
L 771.871375 66.873196 
L 773.966481 70.436629 
L 776.061587 69.747672 
L 778.156693 66.626841 
L 780.251798 70.372156 
L 782.346904 71.775971 
L 784.44201 70.618597 
L 786.537116 73.682898 
L 790.727327 67.487129 
L 792.822433 68.893377 
L 794.917539 71.098648 
L 797.012644 70.199897 
L 799.10775 66.079562 
L 803.297962 68.711342 
L 805.393067 65.234883 
L 807.488173 66.884092 
L 809.583279 69.275019 
L 813.77349 65.897741 
L 815.868596 67.222575 
L 817.963702 68.368665 
L 822.153914 65.187336 
L 824.249019 66.247429 
L 826.344125 63.423479 
L 828.439231 69.451422 
L 830.534337 60.439556 
L 832.629442 63.280327 
L 834.724548 63.462817 
L 836.819654 60.522329 
L 838.91476 64.769517 
L 841.009865 62.720684 
L 843.104971 63.608586 
L 845.200077 61.541723 
L 847.295183 61.792531 
L 849.390288 63.291839 
L 851.485394 59.396682 
L 853.5805 69.318338 
L 855.675606 61.476242 
L 857.770712 58.422543 
L 859.865817 65.610906 
L 859.865817 65.610906 
" clip-path="url(#p395cfe5cc8)" style="fill: none; stroke: #ff7f0e; stroke-width: 1.5; stroke-linecap: square"/>
   </g>
   <g id="line2d_36">
    <path d="M 93.057108 214.836759 
L 95.152214 220.57832 
L 97.24732 220.237395 
L 99.342425 221.129555 
L 101.437531 220.278059 
L 103.532637 220.247709 
L 105.627743 222.27182 
L 107.722849 222.074758 
L 109.817954 217.530413 
L 111.91306 207.862136 
L 114.008166 219.581498 
L 116.103272 221.273557 
L 118.198377 221.324014 
L 120.293483 221.715434 
L 122.388589 220.502928 
L 124.483695 220.769434 
L 126.5788 218.54194 
L 128.673906 221.500713 
L 130.769012 221.250647 
L 132.864118 217.704277 
L 134.959223 213.938779 
L 137.054329 221.384421 
L 139.149435 222.410901 
L 141.244541 221.797118 
L 143.339646 222.100009 
L 145.434752 213.349384 
L 147.529858 221.819642 
L 149.624964 222.459131 
L 151.72007 222.09393 
L 153.815175 221.958005 
L 155.910281 191.301861 
L 158.005387 221.26873 
L 160.100493 223.177264 
L 162.195598 222.178641 
L 164.290704 222.411355 
L 166.38581 213.941841 
L 168.480916 222.053294 
L 170.576021 221.53707 
L 172.671127 220.781743 
L 174.766233 222.315045 
L 176.861339 213.293681 
L 178.956444 207.671428 
L 181.05155 222.554507 
L 183.146656 222.50902 
L 185.241762 222.030184 
L 187.336867 222.749876 
L 189.431973 222.592431 
L 191.527079 222.091027 
L 193.622185 221.747489 
L 195.717291 221.838386 
L 197.812396 221.609633 
L 199.907502 210.118324 
L 202.002608 221.909282 
L 204.097714 222.748086 
L 206.192819 222.016715 
L 208.287925 222.916658 
L 210.383031 222.216817 
L 212.478137 219.013463 
L 214.573242 220.801926 
L 218.763454 222.563188 
L 220.85856 222.162326 
L 222.953665 210.385234 
L 225.048771 223.385913 
L 227.143877 126.385221 
L 229.238983 218.107081 
L 231.334089 219.66552 
L 233.429194 211.812534 
L 235.5243 220.009478 
L 237.619406 217.670199 
L 239.714512 218.406493 
L 241.809617 213.19239 
L 243.904723 207.381165 
L 245.999829 215.756652 
L 248.094935 216.220148 
L 250.19004 218.385103 
L 252.285146 219.864093 
L 254.380252 222.126005 
L 256.475358 213.335738 
L 258.570463 222.091526 
L 260.665569 213.728885 
L 262.760675 222.316841 
L 264.855781 222.368572 
L 266.950886 215.206962 
L 269.045992 218.708328 
L 271.141098 219.387386 
L 273.236204 207.706846 
L 275.33131 221.475768 
L 277.426415 214.119165 
L 279.521521 219.260132 
L 281.616627 219.784845 
L 283.711733 223.501662 
L 285.806838 222.459455 
L 287.901944 208.353834 
L 289.99705 217.04889 
L 292.092156 222.801917 
L 294.187261 222.603403 
L 296.282367 219.972097 
L 298.377473 223.138586 
L 300.472579 217.360617 
L 302.567684 222.58956 
L 304.66279 210.515027 
L 306.757896 216.626307 
L 308.853002 221.208045 
L 310.948107 211.331146 
L 313.043213 217.047182 
L 315.138319 222.274809 
L 317.233425 218.426703 
L 319.328531 221.616164 
L 321.423636 209.411382 
L 323.518742 220.513753 
L 325.613848 216.845985 
L 327.708954 219.932071 
L 329.804059 220.697726 
L 331.899165 219.364746 
L 333.994271 202.971305 
L 336.089377 219.120156 
L 338.184482 217.226075 
L 340.279588 220.926198 
L 342.374694 220.051197 
L 344.4698 219.813771 
L 346.564905 105.163782 
L 348.660011 209.888579 
L 350.755117 208.07284 
L 352.850223 207.942225 
L 354.945329 201.581201 
L 357.040434 210.071112 
L 359.13554 220.068147 
L 363.325752 214.828081 
L 365.420857 216.069952 
L 367.515963 196.265486 
L 369.611069 217.724972 
L 371.706175 220.638658 
L 373.80128 213.813643 
L 375.896386 215.077356 
L 377.991492 177.393791 
L 380.086598 118.259234 
L 382.181703 188.763434 
L 384.276809 192.660199 
L 386.371915 206.908937 
L 388.467021 193.641931 
L 390.562126 122.848299 
L 392.657232 183.026616 
L 394.752338 196.109878 
L 396.847444 200.140005 
L 398.94255 185.027853 
L 401.037655 196.569349 
L 403.132761 199.601826 
L 405.227867 204.740542 
L 407.322973 201.304267 
L 409.418078 209.662449 
L 411.513184 190.272501 
L 413.60829 210.419618 
L 415.703396 200.082284 
L 417.798501 215.995246 
L 419.893607 197.169473 
L 421.988713 199.008729 
L 424.083819 211.82595 
L 426.178924 211.710136 
L 428.27403 212.595145 
L 430.369136 213.295731 
L 432.464242 217.95161 
L 434.559347 212.145609 
L 436.654453 217.667511 
L 438.749559 210.933565 
L 440.844665 210.50494 
L 442.939771 212.821981 
L 445.034876 192.289959 
L 447.129982 206.734039 
L 449.225088 206.373178 
L 451.320194 218.094452 
L 453.415299 217.765589 
L 455.510405 214.844802 
L 457.605511 212.194159 
L 459.700617 213.504881 
L 461.795722 216.964266 
L 463.890828 218.651797 
L 465.985934 181.611597 
L 468.08104 179.157062 
L 470.176145 205.942717 
L 472.271251 208.618606 
L 474.366357 212.018293 
L 478.556568 210.527853 
L 480.651674 206.95089 
L 482.74678 193.348964 
L 484.841886 211.641479 
L 486.936992 210.856865 
L 489.032097 201.251831 
L 491.127203 202.034371 
L 493.222309 205.835499 
L 495.317415 209.866991 
L 497.41252 202.579183 
L 499.507626 200.922195 
L 501.602732 202.486157 
L 503.697838 197.660919 
L 505.792943 205.489097 
L 507.888049 197.475504 
L 509.983155 197.342726 
L 512.078261 189.395275 
L 514.173366 202.379246 
L 516.268472 191.186099 
L 518.363578 197.722122 
L 520.458684 199.321917 
L 522.55379 193.98317 
L 524.648895 201.166899 
L 526.744001 197.099236 
L 528.839107 197.335886 
L 530.934213 196.736567 
L 533.029318 171.031492 
L 535.124424 204.704426 
L 537.21953 202.685774 
L 539.314636 205.846741 
L 541.409741 181.298629 
L 543.504847 183.598266 
L 545.599953 192.076169 
L 547.695059 200.060679 
L 549.790164 192.94794 
L 551.88527 198.440223 
L 553.980376 185.170465 
L 556.075482 185.365391 
L 558.170587 196.117582 
L 560.265693 189.529667 
L 562.360799 187.265161 
L 564.455905 176.158646 
L 566.551011 175.512789 
L 568.646116 184.487552 
L 570.741222 188.181155 
L 572.836328 179.890618 
L 574.931434 192.70053 
L 577.026539 189.020286 
L 579.121645 180.995839 
L 581.216751 191.819147 
L 583.311857 187.20674 
L 585.406962 188.303739 
L 587.502068 187.026172 
L 589.597174 183.677588 
L 591.69228 185.215006 
L 593.787385 194.250068 
L 595.882491 190.342085 
L 597.977597 99.155266 
L 600.072703 150.549039 
L 602.167808 174.314859 
L 604.262914 169.368932 
L 606.35802 159.265547 
L 608.453126 163.749387 
L 610.548232 149.472244 
L 612.643337 161.231239 
L 614.738443 160.596273 
L 616.833549 160.674124 
L 618.928655 177.477786 
L 623.118866 167.040726 
L 625.213972 173.926812 
L 627.309078 165.20778 
L 629.404183 168.263767 
L 631.499289 168.868702 
L 633.594395 168.021388 
L 635.689501 170.799299 
L 637.784606 174.164276 
L 639.879712 174.02961 
L 641.974818 161.528839 
L 644.069924 160.543923 
L 646.165029 161.027583 
L 648.260135 170.283639 
L 650.355241 174.338617 
L 652.450347 177.654863 
L 654.545453 183.795189 
L 656.640558 165.795449 
L 658.735664 177.332332 
L 660.83077 168.514027 
L 662.925876 158.208547 
L 665.020981 168.735233 
L 667.116087 157.135459 
L 669.211193 161.814445 
L 671.306299 108.47823 
L 673.401404 158.158785 
L 675.49651 147.224526 
L 677.591616 153.417519 
L 679.686722 168.786764 
L 681.781827 164.469304 
L 683.876933 169.750952 
L 685.972039 160.698187 
L 688.067145 170.848814 
L 690.162251 161.9266 
L 692.257356 161.714662 
L 694.352462 159.940363 
L 696.447568 168.973094 
L 698.542674 168.916232 
L 700.637779 174.471992 
L 702.732885 173.518575 
L 704.827991 164.522162 
L 706.923097 113.809829 
L 709.018202 150.22799 
L 711.113308 125.124534 
L 713.208414 167.384583 
L 715.30352 172.55603 
L 717.398625 166.99436 
L 719.493731 168.863506 
L 721.588837 170.542085 
L 723.683943 158.254793 
L 725.779048 171.12412 
L 727.874154 169.409361 
L 729.96926 165.558416 
L 732.064366 172.571844 
L 734.159472 129.334139 
L 736.254577 94.543175 
L 738.349683 123.685805 
L 740.444789 145.098614 
L 742.539895 143.82599 
L 744.635 144.027607 
L 746.730106 134.880211 
L 748.825212 145.090303 
L 750.920318 148.632232 
L 753.015423 157.074972 
L 755.110529 155.229299 
L 757.205635 139.482944 
L 759.300741 149.240732 
L 761.395846 152.568435 
L 763.490952 147.634945 
L 765.586058 156.48006 
L 767.681164 152.978997 
L 769.776269 156.560355 
L 771.871375 156.939922 
L 773.966481 157.456805 
L 776.061587 159.970329 
L 778.156693 135.427833 
L 780.251798 151.733983 
L 782.346904 156.796773 
L 784.44201 156.786623 
L 786.537116 156.410432 
L 788.632221 155.639882 
L 790.727327 152.011451 
L 792.822433 153.166354 
L 794.917539 157.80123 
L 797.012644 158.021375 
L 799.10775 95.07061 
L 801.202856 123.577137 
L 803.297962 154.256724 
L 805.393067 153.764767 
L 807.488173 146.795412 
L 809.583279 156.704167 
L 811.678385 150.55288 
L 813.77349 151.986016 
L 815.868596 149.714962 
L 817.963702 156.000891 
L 820.058808 154.86275 
L 822.153914 148.373759 
L 824.249019 155.29693 
L 826.344125 156.256474 
L 828.439231 153.11015 
L 830.534337 146.718066 
L 832.629442 158.509925 
L 834.724548 138.430027 
L 836.819654 154.82526 
L 838.91476 155.211708 
L 841.009865 160.244081 
L 843.104971 146.970434 
L 845.200077 111.157128 
L 847.295183 134.596637 
L 849.390288 153.471043 
L 851.485394 148.763963 
L 853.5805 142.579168 
L 855.675606 140.929191 
L 857.770712 141.378205 
L 859.865817 135.716996 
L 861.960923 136.274023 
L 864.056029 128.998215 
L 866.151135 129.575706 
L 868.24624 137.129621 
L 870.341346 125.690532 
L 872.436452 122.537804 
L 874.531558 135.932226 
L 876.626663 147.413203 
L 878.721769 131.367882 
L 880.816875 140.966054 
L 882.911981 136.837746 
L 885.007086 144.887225 
L 887.102192 143.068573 
L 889.197298 135.978818 
L 891.292404 131.067501 
L 893.387509 136.73764 
L 895.482615 143.547798 
L 897.577721 141.709762 
L 899.672827 135.827566 
L 901.767933 145.382362 
L 903.863038 144.277052 
L 905.958144 147.002434 
L 908.05325 120.218264 
L 910.148356 140.150659 
L 912.243461 108.49662 
L 914.338567 92.871137 
L 916.433673 125.454718 
L 918.528779 130.343071 
L 920.623884 121.650624 
L 922.71899 128.492713 
L 924.814096 133.769458 
L 926.909202 125.762866 
L 929.004307 122.343641 
L 931.099413 134.334946 
L 933.194519 121.739974 
L 935.289625 131.618873 
L 937.38473 123.140816 
L 939.479836 130.503593 
L 941.574942 118.714075 
L 943.670048 115.141653 
L 945.765154 123.745803 
L 949.955365 105.498723 
L 952.050471 105.969508 
L 954.145577 127.787882 
L 954.145577 127.787882 
" clip-path="url(#p395cfe5cc8)" style="fill: none; stroke: #2ca02c; stroke-width: 1.5; stroke-linecap: square"/>
   </g>
   <g id="patch_3">
    <path d="M 50.002685 246.04 
L 50.002685 26.88 
" style="fill: none; stroke: #000000; stroke-width: 0.8; stroke-linejoin: miter; stroke-linecap: square"/>
   </g>
   <g id="patch_4">
    <path d="M 997.2 246.04 
L 997.2 26.88 
" style="fill: none; stroke: #000000; stroke-width: 0.8; stroke-linejoin: miter; stroke-linecap: square"/>
   </g>
   <g id="patch_5">
    <path d="M 50.002685 246.04 
L 997.2 246.04 
" style="fill: none; stroke: #000000; stroke-width: 0.8; stroke-linejoin: miter; stroke-linecap: square"/>
   </g>
   <g id="patch_6">
    <path d="M 50.002685 26.88 
L 997.2 26.88 
" style="fill: none; stroke: #000000; stroke-width: 0.8; stroke-linejoin: miter; stroke-linecap: square"/>
   </g>
   <g id="text_11">
    <!-- Average HTTP Request Duration (log scale) -->
    <g transform="translate(394.352905 20.88) scale(0.12 -0.12)">
     <defs>
      <path id="DejaVuSans-48" d="M 628 4666 
L 1259 4666 
L 1259 2753 
L 3553 2753 
L 3553 4666 
L 4184 4666 
L 4184 0 
L 3553 0 
L 3553 2222 
L 1259 2222 
L 1259 0 
L 628 0 
L 628 4666 
z
" transform="scale(0.015625)"/>
      <path id="DejaVuSans-50" d="M 1259 4147 
L 1259 2394 
L 2053 2394 
Q 2494 2394 2734 2622 
Q 2975 2850 2975 3272 
Q 2975 3691 2734 3919 
Q 2494 4147 2053 4147 
L 1259 4147 
z
M 628 4666 
L 2053 4666 
Q 2838 4666 3239 4311 
Q 3641 3956 3641 3272 
Q 3641 2581 3239 2228 
Q 2838 1875 2053 1875 
L 1259 1875 
L 1259 0 
L 628 0 
L 628 4666 
z
" transform="scale(0.015625)"/>
      <path id="DejaVuSans-52" d="M 2841 2188 
Q 3044 2119 3236 1894 
Q 3428 1669 3622 1275 
L 4263 0 
L 3584 0 
L 2988 1197 
Q 2756 1666 2539 1819 
Q 2322 1972 1947 1972 
L 1259 1972 
L 1259 0 
L 628 0 
L 628 4666 
L 2053 4666 
Q 2853 4666 3247 4331 
Q 3641 3997 3641 3322 
Q 3641 2881 3436 2590 
Q 3231 2300 2841 2188 
z
M 1259 4147 
L 1259 2491 
L 2053 2491 
Q 2509 2491 2742 2702 
Q 2975 2913 2975 3322 
Q 2975 3731 2742 3939 
Q 2509 4147 2053 4147 
L 1259 4147 
z
" transform="scale(0.015625)"/>
      <path id="DejaVuSans-71" d="M 947 1747 
Q 947 1113 1208 752 
Q 1469 391 1925 391 
Q 2381 391 2643 752 
Q 2906 1113 2906 1747 
Q 2906 2381 2643 2742 
Q 2381 3103 1925 3103 
Q 1469 3103 1208 2742 
Q 947 2381 947 1747 
z
M 2906 525 
Q 2725 213 2448 61 
Q 2172 -91 1784 -91 
Q 1150 -91 751 415 
Q 353 922 353 1747 
Q 353 2572 751 3078 
Q 1150 3584 1784 3584 
Q 2172 3584 2448 3432 
Q 2725 3281 2906 2969 
L 2906 3500 
L 3481 3500 
L 3481 -1331 
L 2906 -1331 
L 2906 525 
z
" transform="scale(0.015625)"/>
      <path id="DejaVuSans-6c" d="M 603 4863 
L 1178 4863 
L 1178 0 
L 603 0 
L 603 4863 
z
" transform="scale(0.015625)"/>
     </defs>
     <use xlink:href="#DejaVuSans-41"/>
     <use xlink:href="#DejaVuSans-76" transform="translate(62.533203 0)"/>
     <use xlink:href="#DejaVuSans-65" transform="translate(121.712891 0)"/>
     <use xlink:href="#DejaVuSans-72" transform="translate(183.236328 0)"/>
     <use xlink:href="#DejaVuSans-61" transform="translate(224.349609 0)"/>
     <use xlink:href="#DejaVuSans-67" transform="translate(285.628906 0)"/>
     <use xlink:href="#DejaVuSans-65" transform="translate(349.105469 0)"/>
     <use xlink:href="#DejaVuSans-20" transform="translate(410.628906 0)"/>
     <use xlink:href="#DejaVuSans-48" transform="translate(442.416016 0)"/>
     <use xlink:href="#DejaVuSans-54" transform="translate(517.611328 0)"/>
     <use xlink:href="#DejaVuSans-54" transform="translate(576.945312 0)"/>
     <use xlink:href="#DejaVuSans-50" transform="translate(638.029297 0)"/>
     <use xlink:href="#DejaVuSans-20" transform="translate(698.332031 0)"/>
     <use xlink:href="#DejaVuSans-52" transform="translate(730.119141 0)"/>
     <use xlink:href="#DejaVuSans-65" transform="translate(795.101562 0)"/>
     <use xlink:href="#DejaVuSans-71" transform="translate(856.625 0)"/>
     <use xlink:href="#DejaVuSans-75" transform="translate(920.101562 0)"/>
     <use xlink:href="#DejaVuSans-65" transform="translate(983.480469 0)"/>
     <use xlink:href="#DejaVuSans-73" transform="translate(1045.003906 0)"/>
     <use xlink:href="#DejaVuSans-74" transform="translate(1097.103516 0)"/>
     <use xlink:href="#DejaVuSans-20" transform="translate(1136.3125 0)"/>
     <use xlink:href="#DejaVuSans-44" transform="translate(1168.099609 0)"/>
     <use xlink:href="#DejaVuSans-75" transform="translate(1245.101562 0)"/>
     <use xlink:href="#DejaVuSans-72" transform="translate(1308.480469 0)"/>
     <use xlink:href="#DejaVuSans-61" transform="translate(1349.59375 0)"/>
     <use xlink:href="#DejaVuSans-74" transform="translate(1410.873047 0)"/>
     <use xlink:href="#DejaVuSans-69" transform="translate(1450.082031 0)"/>
     <use xlink:href="#DejaVuSans-6f" transform="translate(1477.865234 0)"/>
     <use xlink:href="#DejaVuSans-6e" transform="translate(1539.046875 0)"/>
     <use xlink:href="#DejaVuSans-20" transform="translate(1602.425781 0)"/>
     <use xlink:href="#DejaVuSans-28" transform="translate(1634.212891 0)"/>
     <use xlink:href="#DejaVuSans-6c" transform="translate(1673.226562 0)"/>
     <use xlink:href="#DejaVuSans-6f" transform="translate(1701.009766 0)"/>
     <use xlink:href="#DejaVuSans-67" transform="translate(1762.191406 0)"/>
     <use xlink:href="#DejaVuSans-20" transform="translate(1825.667969 0)"/>
     <use xlink:href="#DejaVuSans-73" transform="translate(1857.455078 0)"/>
     <use xlink:href="#DejaVuSans-63" transform="translate(1909.554688 0)"/>
     <use xlink:href="#DejaVuSans-61" transform="translate(1964.535156 0)"/>
     <use xlink:href="#DejaVuSans-6c" transform="translate(2025.814453 0)"/>
     <use xlink:href="#DejaVuSans-65" transform="translate(2053.597656 0)"/>
     <use xlink:href="#DejaVuSans-29" transform="translate(2115.121094 0)"/>
    </g>
   </g>
   <g id="legend_1">
    <g id="patch_7">
     <path d="M 57.002685 78.914375 
L 190.346435 78.914375 
Q 192.346435 78.914375 192.346435 76.914375 
L 192.346435 33.88 
Q 192.346435 31.88 190.346435 31.88 
L 57.002685 31.88 
Q 55.002685 31.88 55.002685 33.88 
L 55.002685 76.914375 
Q 55.002685 78.914375 57.002685 78.914375 
z
" style="fill: #ffffff; opacity: 0.8; stroke: #cccccc; stroke-linejoin: miter"/>
    </g>
    <g id="line2d_37">
     <path d="M 59.002685 39.978438 
L 69.002685 39.978438 
L 79.002685 39.978438 
" style="fill: none; stroke: #1f77b4; stroke-width: 1.5; stroke-linecap: square"/>
    </g>
    <g id="text_12">
     <!-- Single Large Results -->
     <g transform="translate(87.002685 43.478438) scale(0.1 -0.1)">
      <defs>
       <path id="DejaVuSans-4c" d="M 628 4666 
L 1259 4666 
L 1259 531 
L 3531 531 
L 3531 0 
L 628 0 
L 628 4666 
z
" transform="scale(0.015625)"/>
      </defs>
      <use xlink:href="#DejaVuSans-53"/>
      <use xlink:href="#DejaVuSans-69" transform="translate(63.476562 0)"/>
      <use xlink:href="#DejaVuSans-6e" transform="translate(91.259766 0)"/>
      <use xlink:href="#DejaVuSans-67" transform="translate(154.638672 0)"/>
      <use xlink:href="#DejaVuSans-6c" transform="translate(218.115234 0)"/>
      <use xlink:href="#DejaVuSans-65" transform="translate(245.898438 0)"/>
      <use xlink:href="#DejaVuSans-20" transform="translate(307.421875 0)"/>
      <use xlink:href="#DejaVuSans-4c" transform="translate(339.208984 0)"/>
      <use xlink:href="#DejaVuSans-61" transform="translate(394.921875 0)"/>
      <use xlink:href="#DejaVuSans-72" transform="translate(456.201172 0)"/>
      <use xlink:href="#DejaVuSans-67" transform="translate(495.564453 0)"/>
      <use xlink:href="#DejaVuSans-65" transform="translate(559.041016 0)"/>
      <use xlink:href="#DejaVuSans-20" transform="translate(620.564453 0)"/>
      <use xlink:href="#DejaVuSans-52" transform="translate(652.351562 0)"/>
      <use xlink:href="#DejaVuSans-65" transform="translate(717.333984 0)"/>
      <use xlink:href="#DejaVuSans-73" transform="translate(778.857422 0)"/>
      <use xlink:href="#DejaVuSans-75" transform="translate(830.957031 0)"/>
      <use xlink:href="#DejaVuSans-6c" transform="translate(894.335938 0)"/>
      <use xlink:href="#DejaVuSans-74" transform="translate(922.119141 0)"/>
      <use xlink:href="#DejaVuSans-73" transform="translate(961.328125 0)"/>
     </g>
    </g>
    <g id="line2d_38">
     <path d="M 59.002685 54.656563 
L 69.002685 54.656563 
L 79.002685 54.656563 
" style="fill: none; stroke: #ff7f0e; stroke-width: 1.5; stroke-linecap: square"/>
    </g>
    <g id="text_13">
     <!-- Single Small Results -->
     <g transform="translate(87.002685 58.156563) scale(0.1 -0.1)">
      <use xlink:href="#DejaVuSans-53"/>
      <use xlink:href="#DejaVuSans-69" transform="translate(63.476562 0)"/>
      <use xlink:href="#DejaVuSans-6e" transform="translate(91.259766 0)"/>
      <use xlink:href="#DejaVuSans-67" transform="translate(154.638672 0)"/>
      <use xlink:href="#DejaVuSans-6c" transform="translate(218.115234 0)"/>
      <use xlink:href="#DejaVuSans-65" transform="translate(245.898438 0)"/>
      <use xlink:href="#DejaVuSans-20" transform="translate(307.421875 0)"/>
      <use xlink:href="#DejaVuSans-53" transform="translate(339.208984 0)"/>
      <use xlink:href="#DejaVuSans-6d" transform="translate(402.685547 0)"/>
      <use xlink:href="#DejaVuSans-61" transform="translate(500.097656 0)"/>
      <use xlink:href="#DejaVuSans-6c" transform="translate(561.376953 0)"/>
      <use xlink:href="#DejaVuSans-6c" transform="translate(589.160156 0)"/>
      <use xlink:href="#DejaVuSans-20" transform="translate(616.943359 0)"/>
      <use xlink:href="#DejaVuSans-52" transform="translate(648.730469 0)"/>
      <use xlink:href="#DejaVuSans-65" transform="translate(713.712891 0)"/>
      <use xlink:href="#DejaVuSans-73" transform="translate(775.236328 0)"/>
      <use xlink:href="#DejaVuSans-75" transform="translate(827.335938 0)"/>
      <use xlink:href="#DejaVuSans-6c" transform="translate(890.714844 0)"/>
      <use xlink:href="#DejaVuSans-74" transform="translate(918.498047 0)"/>
      <use xlink:href="#DejaVuSans-73" transform="translate(957.707031 0)"/>
     </g>
    </g>
    <g id="line2d_39">
     <path d="M 59.002685 69.334688 
L 69.002685 69.334688 
L 79.002685 69.334688 
" style="fill: none; stroke: #2ca02c; stroke-width: 1.5; stroke-linecap: square"/>
    </g>
    <g id="text_14">
     <!-- Multi Results -->
     <g transform="translate(87.002685 72.834688) scale(0.1 -0.1)">
      <defs>
       <path id="DejaVuSans-4d" d="M 628 4666 
L 1569 4666 
L 2759 1491 
L 3956 4666 
L 4897 4666 
L 4897 0 
L 4281 0 
L 4281 4097 
L 3078 897 
L 2444 897 
L 1241 4097 
L 1241 0 
L 628 0 
L 628 4666 
z
" transform="scale(0.015625)"/>
      </defs>
      <use xlink:href="#DejaVuSans-4d"/>
      <use xlink:href="#DejaVuSans-75" transform="translate(86.279297 0)"/>
      <use xlink:href="#DejaVuSans-6c" transform="translate(149.658203 0)"/>
      <use xlink:href="#DejaVuSans-74" transform="translate(177.441406 0)"/>
      <use xlink:href="#DejaVuSans-69" transform="translate(216.650391 0)"/>
      <use xlink:href="#DejaVuSans-20" transform="translate(244.433594 0)"/>
      <use xlink:href="#DejaVuSans-52" transform="translate(276.220703 0)"/>
      <use xlink:href="#DejaVuSans-65" transform="translate(341.203125 0)"/>
      <use xlink:href="#DejaVuSans-73" transform="translate(402.726562 0)"/>
      <use xlink:href="#DejaVuSans-75" transform="translate(454.826172 0)"/>
      <use xlink:href="#DejaVuSans-6c" transform="translate(518.205078 0)"/>
      <use xlink:href="#DejaVuSans-74" transform="translate(545.988281 0)"/>
      <use xlink:href="#DejaVuSans-73" transform="translate(585.197266 0)"/>
     </g>
    </g>
   </g>
  </g>
 </g>
 <defs>
  <clipPath id="p395cfe5cc8">
   <rect x="50.002685" y="26.88" width="947.197315" height="219.16"/>
  </clipPath>
 </defs>
</svg>
