<?xml version="1.0" encoding="utf-8" standalone="no"?>
<!DOCTYPE svg PUBLIC "-//W3C//DTD SVG 1.1//EN"
  "http://www.w3.org/Graphics/SVG/1.1/DTD/svg11.dtd">
<svg xmlns:xlink="http://www.w3.org/1999/xlink" width="1008pt" height="288pt" viewBox="0 0 1008 288" xmlns="http://www.w3.org/2000/svg" version="1.1">
 <metadata>
  <rdf:RDF xmlns:dc="http://purl.org/dc/elements/1.1/" xmlns:cc="http://creativecommons.org/ns#" xmlns:rdf="http://www.w3.org/1999/02/22-rdf-syntax-ns#">
   <cc:Work>
    <dc:type rdf:resource="http://purl.org/dc/dcmitype/StillImage"/>
    <dc:date>2025-05-31T22:11:21.054568</dc:date>
    <dc:format>image/svg+xml</dc:format>
    <dc:creator>
     <cc:Agent>
      <dc:title>Matplotlib v3.10.1, https://matplotlib.org/</dc:title>
     </cc:Agent>
    </dc:creator>
   </cc:Work>
  </rdf:RDF>
 </metadata>
 <defs>
  <style type="text/css">*{stroke-linejoin: round; stroke-linecap: butt}</style>
 </defs>
 <g id="figure_1">
  <g id="patch_1">
   <path d="M 0 288 
L 1008 288 
L 1008 0 
L 0 0 
z
" style="fill: #ffffff"/>
  </g>
  <g id="axes_1">
   <g id="patch_2">
    <path d="M 44.57 246.04 
L 997.2 246.04 
L 997.2 26.88 
L 44.57 26.88 
z
" style="fill: #ffffff"/>
   </g>
   <g id="matplotlib.axis_1">
    <g id="xtick_1">
     <g id="line2d_1">
      <defs>
       <path id="ma4d00799d2" d="M 0 0 
L 0 3.5 
" style="stroke: #000000; stroke-width: 0.8"/>
      </defs>
      <g>
       <use xlink:href="#ma4d00799d2" x="87.871364" y="246.04" style="stroke: #000000; stroke-width: 0.8"/>
      </g>
     </g>
     <g id="text_1">
      <!-- 0 -->
      <g transform="translate(84.690114 260.638438) scale(0.1 -0.1)">
       <defs>
        <path id="DejaVuSans-30" d="M 2034 4250 
Q 1547 4250 1301 3770 
Q 1056 3291 1056 2328 
Q 1056 1369 1301 889 
Q 1547 409 2034 409 
Q 2525 409 2770 889 
Q 3016 1369 3016 2328 
Q 3016 3291 2770 3770 
Q 2525 4250 2034 4250 
z
M 2034 4750 
Q 2819 4750 3233 4129 
Q 3647 3509 3647 2328 
Q 3647 1150 3233 529 
Q 2819 -91 2034 -91 
Q 1250 -91 836 529 
Q 422 1150 422 2328 
Q 422 3509 836 4129 
Q 1250 4750 2034 4750 
z
" transform="scale(0.015625)"/>
       </defs>
       <use xlink:href="#DejaVuSans-30"/>
      </g>
     </g>
    </g>
    <g id="xtick_2">
     <g id="line2d_2">
      <g>
       <use xlink:href="#ma4d00799d2" x="220.697632" y="246.04" style="stroke: #000000; stroke-width: 0.8"/>
      </g>
     </g>
     <g id="text_2">
      <!-- 50 -->
      <g transform="translate(214.335132 260.638438) scale(0.1 -0.1)">
       <defs>
        <path id="DejaVuSans-35" d="M 691 4666 
L 3169 4666 
L 3169 4134 
L 1269 4134 
L 1269 2991 
Q 1406 3038 1543 3061 
Q 1681 3084 1819 3084 
Q 2600 3084 3056 2656 
Q 3513 2228 3513 1497 
Q 3513 744 3044 326 
Q 2575 -91 1722 -91 
Q 1428 -91 1123 -41 
Q 819 9 494 109 
L 494 744 
Q 775 591 1075 516 
Q 1375 441 1709 441 
Q 2250 441 2565 725 
Q 2881 1009 2881 1497 
Q 2881 1984 2565 2268 
Q 2250 2553 1709 2553 
Q 1456 2553 1204 2497 
Q 953 2441 691 2322 
L 691 4666 
z
" transform="scale(0.015625)"/>
       </defs>
       <use xlink:href="#DejaVuSans-35"/>
       <use xlink:href="#DejaVuSans-30" transform="translate(63.623047 0)"/>
      </g>
     </g>
    </g>
    <g id="xtick_3">
     <g id="line2d_3">
      <g>
       <use xlink:href="#ma4d00799d2" x="353.523901" y="246.04" style="stroke: #000000; stroke-width: 0.8"/>
      </g>
     </g>
     <g id="text_3">
      <!-- 100 -->
      <g transform="translate(343.980151 260.638438) scale(0.1 -0.1)">
       <defs>
        <path id="DejaVuSans-31" d="M 794 531 
L 1825 531 
L 1825 4091 
L 703 3866 
L 703 4441 
L 1819 4666 
L 2450 4666 
L 2450 531 
L 3481 531 
L 3481 0 
L 794 0 
L 794 531 
z
" transform="scale(0.015625)"/>
       </defs>
       <use xlink:href="#DejaVuSans-31"/>
       <use xlink:href="#DejaVuSans-30" transform="translate(63.623047 0)"/>
       <use xlink:href="#DejaVuSans-30" transform="translate(127.246094 0)"/>
      </g>
     </g>
    </g>
    <g id="xtick_4">
     <g id="line2d_4">
      <g>
       <use xlink:href="#ma4d00799d2" x="486.35017" y="246.04" style="stroke: #000000; stroke-width: 0.8"/>
      </g>
     </g>
     <g id="text_4">
      <!-- 150 -->
      <g transform="translate(476.80642 260.638438) scale(0.1 -0.1)">
       <use xlink:href="#DejaVuSans-31"/>
       <use xlink:href="#DejaVuSans-35" transform="translate(63.623047 0)"/>
       <use xlink:href="#DejaVuSans-30" transform="translate(127.246094 0)"/>
      </g>
     </g>
    </g>
    <g id="xtick_5">
     <g id="line2d_5">
      <g>
       <use xlink:href="#ma4d00799d2" x="619.176439" y="246.04" style="stroke: #000000; stroke-width: 0.8"/>
      </g>
     </g>
     <g id="text_5">
      <!-- 200 -->
      <g transform="translate(609.632689 260.638438) scale(0.1 -0.1)">
       <defs>
        <path id="DejaVuSans-32" d="M 1228 531 
L 3431 531 
L 3431 0 
L 469 0 
L 469 531 
Q 828 903 1448 1529 
Q 2069 2156 2228 2338 
Q 2531 2678 2651 2914 
Q 2772 3150 2772 3378 
Q 2772 3750 2511 3984 
Q 2250 4219 1831 4219 
Q 1534 4219 1204 4116 
Q 875 4013 500 3803 
L 500 4441 
Q 881 4594 1212 4672 
Q 1544 4750 1819 4750 
Q 2544 4750 2975 4387 
Q 3406 4025 3406 3419 
Q 3406 3131 3298 2873 
Q 3191 2616 2906 2266 
Q 2828 2175 2409 1742 
Q 1991 1309 1228 531 
z
" transform="scale(0.015625)"/>
       </defs>
       <use xlink:href="#DejaVuSans-32"/>
       <use xlink:href="#DejaVuSans-30" transform="translate(63.623047 0)"/>
       <use xlink:href="#DejaVuSans-30" transform="translate(127.246094 0)"/>
      </g>
     </g>
    </g>
    <g id="xtick_6">
     <g id="line2d_6">
      <g>
       <use xlink:href="#ma4d00799d2" x="752.002708" y="246.04" style="stroke: #000000; stroke-width: 0.8"/>
      </g>
     </g>
     <g id="text_6">
      <!-- 250 -->
      <g transform="translate(742.458958 260.638438) scale(0.1 -0.1)">
       <use xlink:href="#DejaVuSans-32"/>
       <use xlink:href="#DejaVuSans-35" transform="translate(63.623047 0)"/>
       <use xlink:href="#DejaVuSans-30" transform="translate(127.246094 0)"/>
      </g>
     </g>
    </g>
    <g id="xtick_7">
     <g id="line2d_7">
      <g>
       <use xlink:href="#ma4d00799d2" x="884.828977" y="246.04" style="stroke: #000000; stroke-width: 0.8"/>
      </g>
     </g>
     <g id="text_7">
      <!-- 300 -->
      <g transform="translate(875.285227 260.638438) scale(0.1 -0.1)">
       <defs>
        <path id="DejaVuSans-33" d="M 2597 2516 
Q 3050 2419 3304 2112 
Q 3559 1806 3559 1356 
Q 3559 666 3084 287 
Q 2609 -91 1734 -91 
Q 1441 -91 1130 -33 
Q 819 25 488 141 
L 488 750 
Q 750 597 1062 519 
Q 1375 441 1716 441 
Q 2309 441 2620 675 
Q 2931 909 2931 1356 
Q 2931 1769 2642 2001 
Q 2353 2234 1838 2234 
L 1294 2234 
L 1294 2753 
L 1863 2753 
Q 2328 2753 2575 2939 
Q 2822 3125 2822 3475 
Q 2822 3834 2567 4026 
Q 2313 4219 1838 4219 
Q 1578 4219 1281 4162 
Q 984 4106 628 3988 
L 628 4550 
Q 988 4650 1302 4700 
Q 1616 4750 1894 4750 
Q 2613 4750 3031 4423 
Q 3450 4097 3450 3541 
Q 3450 3153 3228 2886 
Q 3006 2619 2597 2516 
z
" transform="scale(0.015625)"/>
       </defs>
       <use xlink:href="#DejaVuSans-33"/>
       <use xlink:href="#DejaVuSans-30" transform="translate(63.623047 0)"/>
       <use xlink:href="#DejaVuSans-30" transform="translate(127.246094 0)"/>
      </g>
     </g>
    </g>
    <g id="text_8">
     <!-- Timestamp (Seconds) -->
     <g transform="translate(466.480312 274.316562) scale(0.1 -0.1)">
      <defs>
       <path id="DejaVuSans-54" d="M -19 4666 
L 3928 4666 
L 3928 4134 
L 2272 4134 
L 2272 0 
L 1638 0 
L 1638 4134 
L -19 4134 
L -19 4666 
z
" transform="scale(0.015625)"/>
       <path id="DejaVuSans-69" d="M 603 3500 
L 1178 3500 
L 1178 0 
L 603 0 
L 603 3500 
z
M 603 4863 
L 1178 4863 
L 1178 4134 
L 603 4134 
L 603 4863 
z
" transform="scale(0.015625)"/>
       <path id="DejaVuSans-6d" d="M 3328 2828 
Q 3544 3216 3844 3400 
Q 4144 3584 4550 3584 
Q 5097 3584 5394 3201 
Q 5691 2819 5691 2113 
L 5691 0 
L 5113 0 
L 5113 2094 
Q 5113 2597 4934 2840 
Q 4756 3084 4391 3084 
Q 3944 3084 3684 2787 
Q 3425 2491 3425 1978 
L 3425 0 
L 2847 0 
L 2847 2094 
Q 2847 2600 2669 2842 
Q 2491 3084 2119 3084 
Q 1678 3084 1418 2786 
Q 1159 2488 1159 1978 
L 1159 0 
L 581 0 
L 581 3500 
L 1159 3500 
L 1159 2956 
Q 1356 3278 1631 3431 
Q 1906 3584 2284 3584 
Q 2666 3584 2933 3390 
Q 3200 3197 3328 2828 
z
" transform="scale(0.015625)"/>
       <path id="DejaVuSans-65" d="M 3597 1894 
L 3597 1613 
L 953 1613 
Q 991 1019 1311 708 
Q 1631 397 2203 397 
Q 2534 397 2845 478 
Q 3156 559 3463 722 
L 3463 178 
Q 3153 47 2828 -22 
Q 2503 -91 2169 -91 
Q 1331 -91 842 396 
Q 353 884 353 1716 
Q 353 2575 817 3079 
Q 1281 3584 2069 3584 
Q 2775 3584 3186 3129 
Q 3597 2675 3597 1894 
z
M 3022 2063 
Q 3016 2534 2758 2815 
Q 2500 3097 2075 3097 
Q 1594 3097 1305 2825 
Q 1016 2553 972 2059 
L 3022 2063 
z
" transform="scale(0.015625)"/>
       <path id="DejaVuSans-73" d="M 2834 3397 
L 2834 2853 
Q 2591 2978 2328 3040 
Q 2066 3103 1784 3103 
Q 1356 3103 1142 2972 
Q 928 2841 928 2578 
Q 928 2378 1081 2264 
Q 1234 2150 1697 2047 
L 1894 2003 
Q 2506 1872 2764 1633 
Q 3022 1394 3022 966 
Q 3022 478 2636 193 
Q 2250 -91 1575 -91 
Q 1294 -91 989 -36 
Q 684 19 347 128 
L 347 722 
Q 666 556 975 473 
Q 1284 391 1588 391 
Q 1994 391 2212 530 
Q 2431 669 2431 922 
Q 2431 1156 2273 1281 
Q 2116 1406 1581 1522 
L 1381 1569 
Q 847 1681 609 1914 
Q 372 2147 372 2553 
Q 372 3047 722 3315 
Q 1072 3584 1716 3584 
Q 2034 3584 2315 3537 
Q 2597 3491 2834 3397 
z
" transform="scale(0.015625)"/>
       <path id="DejaVuSans-74" d="M 1172 4494 
L 1172 3500 
L 2356 3500 
L 2356 3053 
L 1172 3053 
L 1172 1153 
Q 1172 725 1289 603 
Q 1406 481 1766 481 
L 2356 481 
L 2356 0 
L 1766 0 
Q 1100 0 847 248 
Q 594 497 594 1153 
L 594 3053 
L 172 3053 
L 172 3500 
L 594 3500 
L 594 4494 
L 1172 4494 
z
" transform="scale(0.015625)"/>
       <path id="DejaVuSans-61" d="M 2194 1759 
Q 1497 1759 1228 1600 
Q 959 1441 959 1056 
Q 959 750 1161 570 
Q 1363 391 1709 391 
Q 2188 391 2477 730 
Q 2766 1069 2766 1631 
L 2766 1759 
L 2194 1759 
z
M 3341 1997 
L 3341 0 
L 2766 0 
L 2766 531 
Q 2569 213 2275 61 
Q 1981 -91 1556 -91 
Q 1019 -91 701 211 
Q 384 513 384 1019 
Q 384 1609 779 1909 
Q 1175 2209 1959 2209 
L 2766 2209 
L 2766 2266 
Q 2766 2663 2505 2880 
Q 2244 3097 1772 3097 
Q 1472 3097 1187 3025 
Q 903 2953 641 2809 
L 641 3341 
Q 956 3463 1253 3523 
Q 1550 3584 1831 3584 
Q 2591 3584 2966 3190 
Q 3341 2797 3341 1997 
z
" transform="scale(0.015625)"/>
       <path id="DejaVuSans-70" d="M 1159 525 
L 1159 -1331 
L 581 -1331 
L 581 3500 
L 1159 3500 
L 1159 2969 
Q 1341 3281 1617 3432 
Q 1894 3584 2278 3584 
Q 2916 3584 3314 3078 
Q 3713 2572 3713 1747 
Q 3713 922 3314 415 
Q 2916 -91 2278 -91 
Q 1894 -91 1617 61 
Q 1341 213 1159 525 
z
M 3116 1747 
Q 3116 2381 2855 2742 
Q 2594 3103 2138 3103 
Q 1681 3103 1420 2742 
Q 1159 2381 1159 1747 
Q 1159 1113 1420 752 
Q 1681 391 2138 391 
Q 2594 391 2855 752 
Q 3116 1113 3116 1747 
z
" transform="scale(0.015625)"/>
       <path id="DejaVuSans-20" transform="scale(0.015625)"/>
       <path id="DejaVuSans-28" d="M 1984 4856 
Q 1566 4138 1362 3434 
Q 1159 2731 1159 2009 
Q 1159 1288 1364 580 
Q 1569 -128 1984 -844 
L 1484 -844 
Q 1016 -109 783 600 
Q 550 1309 550 2009 
Q 550 2706 781 3412 
Q 1013 4119 1484 4856 
L 1984 4856 
z
" transform="scale(0.015625)"/>
       <path id="DejaVuSans-53" d="M 3425 4513 
L 3425 3897 
Q 3066 4069 2747 4153 
Q 2428 4238 2131 4238 
Q 1616 4238 1336 4038 
Q 1056 3838 1056 3469 
Q 1056 3159 1242 3001 
Q 1428 2844 1947 2747 
L 2328 2669 
Q 3034 2534 3370 2195 
Q 3706 1856 3706 1288 
Q 3706 609 3251 259 
Q 2797 -91 1919 -91 
Q 1588 -91 1214 -16 
Q 841 59 441 206 
L 441 856 
Q 825 641 1194 531 
Q 1563 422 1919 422 
Q 2459 422 2753 634 
Q 3047 847 3047 1241 
Q 3047 1584 2836 1778 
Q 2625 1972 2144 2069 
L 1759 2144 
Q 1053 2284 737 2584 
Q 422 2884 422 3419 
Q 422 4038 858 4394 
Q 1294 4750 2059 4750 
Q 2388 4750 2728 4690 
Q 3069 4631 3425 4513 
z
" transform="scale(0.015625)"/>
       <path id="DejaVuSans-63" d="M 3122 3366 
L 3122 2828 
Q 2878 2963 2633 3030 
Q 2388 3097 2138 3097 
Q 1578 3097 1268 2742 
Q 959 2388 959 1747 
Q 959 1106 1268 751 
Q 1578 397 2138 397 
Q 2388 397 2633 464 
Q 2878 531 3122 666 
L 3122 134 
Q 2881 22 2623 -34 
Q 2366 -91 2075 -91 
Q 1284 -91 818 406 
Q 353 903 353 1747 
Q 353 2603 823 3093 
Q 1294 3584 2113 3584 
Q 2378 3584 2631 3529 
Q 2884 3475 3122 3366 
z
" transform="scale(0.015625)"/>
       <path id="DejaVuSans-6f" d="M 1959 3097 
Q 1497 3097 1228 2736 
Q 959 2375 959 1747 
Q 959 1119 1226 758 
Q 1494 397 1959 397 
Q 2419 397 2687 759 
Q 2956 1122 2956 1747 
Q 2956 2369 2687 2733 
Q 2419 3097 1959 3097 
z
M 1959 3584 
Q 2709 3584 3137 3096 
Q 3566 2609 3566 1747 
Q 3566 888 3137 398 
Q 2709 -91 1959 -91 
Q 1206 -91 779 398 
Q 353 888 353 1747 
Q 353 2609 779 3096 
Q 1206 3584 1959 3584 
z
" transform="scale(0.015625)"/>
       <path id="DejaVuSans-6e" d="M 3513 2113 
L 3513 0 
L 2938 0 
L 2938 2094 
Q 2938 2591 2744 2837 
Q 2550 3084 2163 3084 
Q 1697 3084 1428 2787 
Q 1159 2491 1159 1978 
L 1159 0 
L 581 0 
L 581 3500 
L 1159 3500 
L 1159 2956 
Q 1366 3272 1645 3428 
Q 1925 3584 2291 3584 
Q 2894 3584 3203 3211 
Q 3513 2838 3513 2113 
z
" transform="scale(0.015625)"/>
       <path id="DejaVuSans-64" d="M 2906 2969 
L 2906 4863 
L 3481 4863 
L 3481 0 
L 2906 0 
L 2906 525 
Q 2725 213 2448 61 
Q 2172 -91 1784 -91 
Q 1150 -91 751 415 
Q 353 922 353 1747 
Q 353 2572 751 3078 
Q 1150 3584 1784 3584 
Q 2172 3584 2448 3432 
Q 2725 3281 2906 2969 
z
M 947 1747 
Q 947 1113 1208 752 
Q 1469 391 1925 391 
Q 2381 391 2643 752 
Q 2906 1113 2906 1747 
Q 2906 2381 2643 2742 
Q 2381 3103 1925 3103 
Q 1469 3103 1208 2742 
Q 947 2381 947 1747 
z
" transform="scale(0.015625)"/>
       <path id="DejaVuSans-29" d="M 513 4856 
L 1013 4856 
Q 1481 4119 1714 3412 
Q 1947 2706 1947 2009 
Q 1947 1309 1714 600 
Q 1481 -109 1013 -844 
L 513 -844 
Q 928 -128 1133 580 
Q 1338 1288 1338 2009 
Q 1338 2731 1133 3434 
Q 928 4138 513 4856 
z
" transform="scale(0.015625)"/>
      </defs>
      <use xlink:href="#DejaVuSans-54"/>
      <use xlink:href="#DejaVuSans-69" transform="translate(57.958984 0)"/>
      <use xlink:href="#DejaVuSans-6d" transform="translate(85.742188 0)"/>
      <use xlink:href="#DejaVuSans-65" transform="translate(183.154297 0)"/>
      <use xlink:href="#DejaVuSans-73" transform="translate(244.677734 0)"/>
      <use xlink:href="#DejaVuSans-74" transform="translate(296.777344 0)"/>
      <use xlink:href="#DejaVuSans-61" transform="translate(335.986328 0)"/>
      <use xlink:href="#DejaVuSans-6d" transform="translate(397.265625 0)"/>
      <use xlink:href="#DejaVuSans-70" transform="translate(494.677734 0)"/>
      <use xlink:href="#DejaVuSans-20" transform="translate(558.154297 0)"/>
      <use xlink:href="#DejaVuSans-28" transform="translate(589.941406 0)"/>
      <use xlink:href="#DejaVuSans-53" transform="translate(628.955078 0)"/>
      <use xlink:href="#DejaVuSans-65" transform="translate(692.431641 0)"/>
      <use xlink:href="#DejaVuSans-63" transform="translate(753.955078 0)"/>
      <use xlink:href="#DejaVuSans-6f" transform="translate(808.935547 0)"/>
      <use xlink:href="#DejaVuSans-6e" transform="translate(870.117188 0)"/>
      <use xlink:href="#DejaVuSans-64" transform="translate(933.496094 0)"/>
      <use xlink:href="#DejaVuSans-73" transform="translate(996.972656 0)"/>
      <use xlink:href="#DejaVuSans-29" transform="translate(1049.072266 0)"/>
     </g>
    </g>
   </g>
   <g id="matplotlib.axis_2">
    <g id="ytick_1">
     <g id="line2d_8">
      <defs>
       <path id="m8b7ff50a13" d="M 0 0 
L -3.5 0 
" style="stroke: #000000; stroke-width: 0.8"/>
      </defs>
      <g>
       <use xlink:href="#m8b7ff50a13" x="44.57" y="238.770565" style="stroke: #000000; stroke-width: 0.8"/>
      </g>
     </g>
     <g id="text_9">
      <!-- 0 -->
      <g transform="translate(31.2075 242.569784) scale(0.1 -0.1)">
       <use xlink:href="#DejaVuSans-30"/>
      </g>
     </g>
    </g>
    <g id="ytick_2">
     <g id="line2d_9">
      <g>
       <use xlink:href="#m8b7ff50a13" x="44.57" y="211.846732" style="stroke: #000000; stroke-width: 0.8"/>
      </g>
     </g>
     <g id="text_10">
      <!-- 10 -->
      <g transform="translate(24.845 215.645951) scale(0.1 -0.1)">
       <use xlink:href="#DejaVuSans-31"/>
       <use xlink:href="#DejaVuSans-30" transform="translate(63.623047 0)"/>
      </g>
     </g>
    </g>
    <g id="ytick_3">
     <g id="line2d_10">
      <g>
       <use xlink:href="#m8b7ff50a13" x="44.57" y="184.922899" style="stroke: #000000; stroke-width: 0.8"/>
      </g>
     </g>
     <g id="text_11">
      <!-- 20 -->
      <g transform="translate(24.845 188.722118) scale(0.1 -0.1)">
       <use xlink:href="#DejaVuSans-32"/>
       <use xlink:href="#DejaVuSans-30" transform="translate(63.623047 0)"/>
      </g>
     </g>
    </g>
    <g id="ytick_4">
     <g id="line2d_11">
      <g>
       <use xlink:href="#m8b7ff50a13" x="44.57" y="157.999066" style="stroke: #000000; stroke-width: 0.8"/>
      </g>
     </g>
     <g id="text_12">
      <!-- 30 -->
      <g transform="translate(24.845 161.798285) scale(0.1 -0.1)">
       <use xlink:href="#DejaVuSans-33"/>
       <use xlink:href="#DejaVuSans-30" transform="translate(63.623047 0)"/>
      </g>
     </g>
    </g>
    <g id="ytick_5">
     <g id="line2d_12">
      <g>
       <use xlink:href="#m8b7ff50a13" x="44.57" y="131.075233" style="stroke: #000000; stroke-width: 0.8"/>
      </g>
     </g>
     <g id="text_13">
      <!-- 40 -->
      <g transform="translate(24.845 134.874452) scale(0.1 -0.1)">
       <defs>
        <path id="DejaVuSans-34" d="M 2419 4116 
L 825 1625 
L 2419 1625 
L 2419 4116 
z
M 2253 4666 
L 3047 4666 
L 3047 1625 
L 3713 1625 
L 3713 1100 
L 3047 1100 
L 3047 0 
L 2419 0 
L 2419 1100 
L 313 1100 
L 313 1709 
L 2253 4666 
z
" transform="scale(0.015625)"/>
       </defs>
       <use xlink:href="#DejaVuSans-34"/>
       <use xlink:href="#DejaVuSans-30" transform="translate(63.623047 0)"/>
      </g>
     </g>
    </g>
    <g id="ytick_6">
     <g id="line2d_13">
      <g>
       <use xlink:href="#m8b7ff50a13" x="44.57" y="104.1514" style="stroke: #000000; stroke-width: 0.8"/>
      </g>
     </g>
     <g id="text_14">
      <!-- 50 -->
      <g transform="translate(24.845 107.950619) scale(0.1 -0.1)">
       <use xlink:href="#DejaVuSans-35"/>
       <use xlink:href="#DejaVuSans-30" transform="translate(63.623047 0)"/>
      </g>
     </g>
    </g>
    <g id="ytick_7">
     <g id="line2d_14">
      <g>
       <use xlink:href="#m8b7ff50a13" x="44.57" y="77.227568" style="stroke: #000000; stroke-width: 0.8"/>
      </g>
     </g>
     <g id="text_15">
      <!-- 60 -->
      <g transform="translate(24.845 81.026786) scale(0.1 -0.1)">
       <defs>
        <path id="DejaVuSans-36" d="M 2113 2584 
Q 1688 2584 1439 2293 
Q 1191 2003 1191 1497 
Q 1191 994 1439 701 
Q 1688 409 2113 409 
Q 2538 409 2786 701 
Q 3034 994 3034 1497 
Q 3034 2003 2786 2293 
Q 2538 2584 2113 2584 
z
M 3366 4563 
L 3366 3988 
Q 3128 4100 2886 4159 
Q 2644 4219 2406 4219 
Q 1781 4219 1451 3797 
Q 1122 3375 1075 2522 
Q 1259 2794 1537 2939 
Q 1816 3084 2150 3084 
Q 2853 3084 3261 2657 
Q 3669 2231 3669 1497 
Q 3669 778 3244 343 
Q 2819 -91 2113 -91 
Q 1303 -91 875 529 
Q 447 1150 447 2328 
Q 447 3434 972 4092 
Q 1497 4750 2381 4750 
Q 2619 4750 2861 4703 
Q 3103 4656 3366 4563 
z
" transform="scale(0.015625)"/>
       </defs>
       <use xlink:href="#DejaVuSans-36"/>
       <use xlink:href="#DejaVuSans-30" transform="translate(63.623047 0)"/>
      </g>
     </g>
    </g>
    <g id="ytick_8">
     <g id="line2d_15">
      <g>
       <use xlink:href="#m8b7ff50a13" x="44.57" y="50.303735" style="stroke: #000000; stroke-width: 0.8"/>
      </g>
     </g>
     <g id="text_16">
      <!-- 70 -->
      <g transform="translate(24.845 54.102953) scale(0.1 -0.1)">
       <defs>
        <path id="DejaVuSans-37" d="M 525 4666 
L 3525 4666 
L 3525 4397 
L 1831 0 
L 1172 0 
L 2766 4134 
L 525 4134 
L 525 4666 
z
" transform="scale(0.015625)"/>
       </defs>
       <use xlink:href="#DejaVuSans-37"/>
       <use xlink:href="#DejaVuSans-30" transform="translate(63.623047 0)"/>
      </g>
     </g>
    </g>
    <g id="text_17">
     <!-- Requests/sec -->
     <g transform="translate(18.765312 169.489687) rotate(-90) scale(0.1 -0.1)">
      <defs>
       <path id="DejaVuSans-52" d="M 2841 2188 
Q 3044 2119 3236 1894 
Q 3428 1669 3622 1275 
L 4263 0 
L 3584 0 
L 2988 1197 
Q 2756 1666 2539 1819 
Q 2322 1972 1947 1972 
L 1259 1972 
L 1259 0 
L 628 0 
L 628 4666 
L 2053 4666 
Q 2853 4666 3247 4331 
Q 3641 3997 3641 3322 
Q 3641 2881 3436 2590 
Q 3231 2300 2841 2188 
z
M 1259 4147 
L 1259 2491 
L 2053 2491 
Q 2509 2491 2742 2702 
Q 2975 2913 2975 3322 
Q 2975 3731 2742 3939 
Q 2509 4147 2053 4147 
L 1259 4147 
z
" transform="scale(0.015625)"/>
       <path id="DejaVuSans-71" d="M 947 1747 
Q 947 1113 1208 752 
Q 1469 391 1925 391 
Q 2381 391 2643 752 
Q 2906 1113 2906 1747 
Q 2906 2381 2643 2742 
Q 2381 3103 1925 3103 
Q 1469 3103 1208 2742 
Q 947 2381 947 1747 
z
M 2906 525 
Q 2725 213 2448 61 
Q 2172 -91 1784 -91 
Q 1150 -91 751 415 
Q 353 922 353 1747 
Q 353 2572 751 3078 
Q 1150 3584 1784 3584 
Q 2172 3584 2448 3432 
Q 2725 3281 2906 2969 
L 2906 3500 
L 3481 3500 
L 3481 -1331 
L 2906 -1331 
L 2906 525 
z
" transform="scale(0.015625)"/>
       <path id="DejaVuSans-75" d="M 544 1381 
L 544 3500 
L 1119 3500 
L 1119 1403 
Q 1119 906 1312 657 
Q 1506 409 1894 409 
Q 2359 409 2629 706 
Q 2900 1003 2900 1516 
L 2900 3500 
L 3475 3500 
L 3475 0 
L 2900 0 
L 2900 538 
Q 2691 219 2414 64 
Q 2138 -91 1772 -91 
Q 1169 -91 856 284 
Q 544 659 544 1381 
z
M 1991 3584 
L 1991 3584 
z
" transform="scale(0.015625)"/>
       <path id="DejaVuSans-2f" d="M 1625 4666 
L 2156 4666 
L 531 -594 
L 0 -594 
L 1625 4666 
z
" transform="scale(0.015625)"/>
      </defs>
      <use xlink:href="#DejaVuSans-52"/>
      <use xlink:href="#DejaVuSans-65" transform="translate(64.982422 0)"/>
      <use xlink:href="#DejaVuSans-71" transform="translate(126.505859 0)"/>
      <use xlink:href="#DejaVuSans-75" transform="translate(189.982422 0)"/>
      <use xlink:href="#DejaVuSans-65" transform="translate(253.361328 0)"/>
      <use xlink:href="#DejaVuSans-73" transform="translate(314.884766 0)"/>
      <use xlink:href="#DejaVuSans-74" transform="translate(366.984375 0)"/>
      <use xlink:href="#DejaVuSans-73" transform="translate(406.193359 0)"/>
      <use xlink:href="#DejaVuSans-2f" transform="translate(458.292969 0)"/>
      <use xlink:href="#DejaVuSans-73" transform="translate(491.984375 0)"/>
      <use xlink:href="#DejaVuSans-65" transform="translate(544.083984 0)"/>
      <use xlink:href="#DejaVuSans-63" transform="translate(605.607422 0)"/>
     </g>
    </g>
   </g>
   <g id="line2d_16">
    <path d="M 87.871364 236.078182 
L 93.184414 236.078182 
L 95.84094 233.385799 
L 101.153991 233.385799 
L 103.810516 230.693415 
L 109.123567 230.693415 
L 111.780092 228.001032 
L 114.436617 230.693415 
L 119.749668 225.308649 
L 122.406194 228.001032 
L 127.719244 222.616265 
L 130.37577 225.308649 
L 133.032295 222.616265 
L 135.68882 222.616265 
L 138.345346 219.923882 
L 141.001871 222.616265 
L 143.658397 217.231499 
L 146.314922 217.231499 
L 148.971447 219.923882 
L 151.627973 214.539115 
L 154.284498 214.539115 
L 156.941023 217.231499 
L 159.597549 211.846732 
L 162.254074 211.846732 
L 164.9106 214.539115 
L 167.567125 209.154349 
L 170.22365 211.846732 
L 175.536701 206.461966 
L 178.193226 209.154349 
L 180.849752 206.461966 
L 183.506277 206.461966 
L 186.162803 203.769582 
L 188.819328 206.461966 
L 191.475853 201.077199 
L 194.132379 201.077199 
L 196.788904 203.769582 
L 199.445429 203.769582 
L 202.101955 198.384816 
L 204.75848 198.384816 
L 207.415006 195.692432 
L 210.071531 201.077199 
L 212.728056 195.692432 
L 215.384582 193.000049 
L 218.041107 195.692432 
L 220.697632 195.692432 
L 223.354158 193.000049 
L 228.667209 193.000049 
L 231.323734 187.615283 
L 233.980259 190.307666 
L 236.636785 190.307666 
L 239.29331 184.922899 
L 241.949835 190.307666 
L 244.606361 184.922899 
L 252.575937 184.922899 
L 257.888988 179.538133 
L 263.202038 179.538133 
L 265.858564 182.230516 
L 268.515089 176.845749 
L 271.171615 179.538133 
L 273.82814 176.845749 
L 276.484665 176.845749 
L 281.797716 171.460983 
L 284.454241 174.153366 
L 287.110767 174.153366 
L 289.767292 168.7686 
L 292.423818 171.460983 
L 295.080343 171.460983 
L 297.736868 168.7686 
L 303.049919 168.7686 
L 305.706445 166.076216 
L 308.36297 166.076216 
L 311.019495 168.7686 
L 318.989071 160.69145 
L 321.645597 163.383833 
L 324.302122 157.999066 
L 326.958648 157.999066 
L 329.615173 168.7686 
L 332.271698 160.69145 
L 334.928224 155.306683 
L 337.584749 157.999066 
L 340.241274 152.6143 
L 342.8978 160.69145 
L 345.554325 155.306683 
L 348.210851 176.845749 
L 350.867376 152.6143 
L 353.523901 233.385799 
L 358.836952 236.078182 
L 364.150003 230.693415 
L 366.806528 152.6143 
L 369.463054 141.844767 
L 372.119579 141.844767 
L 374.776104 176.845749 
L 377.43263 160.69145 
L 380.089155 139.152383 
L 382.74568 152.6143 
L 385.402206 136.46 
L 388.058731 157.999066 
L 390.715257 152.6143 
L 393.371782 139.152383 
L 396.028307 152.6143 
L 398.684833 139.152383 
L 403.997883 133.767617 
L 406.654409 147.229533 
L 409.310934 157.999066 
L 411.96746 131.075233 
L 414.623985 141.844767 
L 417.28051 125.690467 
L 419.937036 144.53715 
L 422.593561 147.229533 
L 425.250086 125.690467 
L 427.906612 144.53715 
L 430.563137 122.998084 
L 435.876188 139.152383 
L 438.532713 136.46 
L 441.189239 117.613317 
L 443.845764 125.690467 
L 446.502289 136.46 
L 449.158815 128.38285 
L 451.81534 147.229533 
L 454.471866 122.998084 
L 457.128391 112.22855 
L 459.784916 144.53715 
L 462.441442 141.844767 
L 465.097967 120.3057 
L 467.754492 114.920934 
L 470.411018 144.53715 
L 473.067543 120.3057 
L 475.724069 106.843784 
L 478.380594 128.38285 
L 481.037119 133.767617 
L 483.693645 120.3057 
L 489.006695 109.536167 
L 491.663221 141.844767 
L 494.319746 114.920934 
L 496.976272 104.1514 
L 499.632797 131.075233 
L 502.289322 117.613317 
L 504.945848 117.613317 
L 507.602373 109.536167 
L 510.258898 117.613317 
L 512.915424 120.3057 
L 515.571949 109.536167 
L 518.228475 104.1514 
L 520.885 112.22855 
L 523.541525 139.152383 
L 526.198051 90.689484 
L 528.854576 93.381867 
L 531.511102 133.767617 
L 534.167627 125.690467 
L 536.824152 85.304717 
L 539.480678 120.3057 
L 542.137203 131.075233 
L 544.793728 82.612334 
L 547.450254 120.3057 
L 550.106779 128.38285 
L 552.763305 98.766634 
L 555.41983 93.381867 
L 558.076355 104.1514 
L 560.732881 122.998084 
L 563.389406 101.459017 
L 566.045931 85.304717 
L 568.702457 122.998084 
L 571.358982 101.459017 
L 574.015508 98.766634 
L 576.672033 87.997101 
L 579.328558 106.843784 
L 581.985084 93.381867 
L 584.641609 98.766634 
L 587.298134 114.920934 
L 589.95466 109.536167 
L 592.611185 66.458034 
L 595.267711 125.690467 
L 597.924236 106.843784 
L 603.237287 101.459017 
L 605.893812 79.919951 
L 608.550337 122.998084 
L 611.206863 93.381867 
L 613.863388 85.304717 
L 616.519914 98.766634 
L 619.176439 87.997101 
L 621.832964 82.612334 
L 624.48949 87.997101 
L 627.146015 106.843784 
L 629.80254 69.150418 
L 632.459066 104.1514 
L 635.115591 87.997101 
L 637.772117 106.843784 
L 640.428642 79.919951 
L 643.085167 85.304717 
L 645.741693 96.074251 
L 648.398218 58.380885 
L 651.054743 85.304717 
L 653.711269 101.459017 
L 656.367794 66.458034 
L 661.680845 109.536167 
L 664.33737 47.611351 
L 666.993896 104.1514 
L 669.650421 61.073268 
L 672.306946 74.535184 
L 674.963472 90.689484 
L 677.619997 74.535184 
L 680.276523 90.689484 
L 682.933048 50.303735 
L 685.589573 85.304717 
L 688.246099 85.304717 
L 690.902624 63.765651 
L 693.559149 101.459017 
L 696.215675 66.458034 
L 698.8722 82.612334 
L 701.528726 106.843784 
L 704.185251 96.074251 
L 706.841776 77.227568 
L 709.498302 114.920934 
L 712.154827 71.842801 
L 714.811352 61.073268 
L 717.467878 112.22855 
L 720.124403 71.842801 
L 722.780929 106.843784 
L 725.437454 77.227568 
L 728.093979 85.304717 
L 733.40703 74.535184 
L 736.063555 82.612334 
L 738.720081 96.074251 
L 741.376606 63.765651 
L 744.033132 93.381867 
L 746.689657 82.612334 
L 749.346182 69.150418 
L 752.002708 104.1514 
L 754.659233 79.919951 
L 757.315759 114.920934 
L 759.972284 66.458034 
L 762.628809 82.612334 
L 765.285335 96.074251 
L 767.94186 61.073268 
L 770.598385 69.150418 
L 773.254911 122.998084 
L 775.911436 69.150418 
L 778.567962 79.919951 
L 781.224487 74.535184 
L 783.881012 82.612334 
L 786.537538 71.842801 
L 789.194063 106.843784 
L 791.850588 47.611351 
L 794.507114 117.613317 
L 797.163639 90.689484 
L 799.820165 74.535184 
L 802.47669 101.459017 
L 805.133215 77.227568 
L 807.789741 93.381867 
L 810.446266 77.227568 
L 813.102791 101.459017 
L 815.759317 109.536167 
L 818.415842 55.688501 
L 821.072368 96.074251 
L 823.728893 87.997101 
L 826.385418 90.689484 
L 829.041944 74.535184 
L 831.698469 82.612334 
L 834.354994 120.3057 
L 837.01152 90.689484 
L 839.668045 69.150418 
L 842.324571 106.843784 
L 844.981096 74.535184 
L 847.637621 77.227568 
L 850.294147 125.690467 
L 852.950672 58.380885 
L 855.607197 101.459017 
L 858.263723 114.920934 
L 860.920248 44.918968 
L 863.576774 139.152383 
L 866.233299 63.765651 
L 868.889824 77.227568 
L 871.54635 120.3057 
L 874.202875 61.073268 
L 876.8594 87.997101 
L 879.515926 122.998084 
L 882.172451 120.3057 
L 884.828977 71.842801 
L 887.485502 55.688501 
L 890.142027 109.536167 
L 892.798553 90.689484 
L 895.455078 63.765651 
L 898.111603 101.459017 
L 900.768129 112.22855 
L 903.424654 104.1514 
L 906.08118 42.226585 
L 908.737705 125.690467 
L 911.39423 74.535184 
L 914.050756 87.997101 
L 916.707281 125.690467 
L 919.363806 36.841818 
L 922.020332 149.921916 
L 924.676857 77.227568 
L 927.333383 69.150418 
L 929.989908 117.613317 
L 932.646433 69.150418 
L 935.302959 101.459017 
L 937.959484 71.842801 
L 940.616009 74.535184 
L 943.272535 96.074251 
L 945.92906 106.843784 
L 948.585586 109.536167 
L 951.242111 66.458034 
L 953.898636 214.539115 
L 953.898636 214.539115 
" clip-path="url(#p37910d81d1)" style="fill: none; stroke: #1f77b4; stroke-width: 1.5; stroke-linecap: square"/>
   </g>
   <g id="line2d_17">
    <path d="M 87.871364 236.078182 
L 90.527889 236.078182 
L 93.184414 236.078182 
L 95.84094 233.385799 
L 98.497465 233.385799 
L 101.153991 233.385799 
L 103.810516 230.693415 
L 106.467041 230.693415 
L 109.123567 233.385799 
L 111.780092 228.001032 
L 114.436617 228.001032 
L 117.093143 230.693415 
L 119.749668 225.308649 
L 122.406194 228.001032 
L 125.062719 228.001032 
L 127.719244 225.308649 
L 130.37577 222.616265 
L 133.032295 225.308649 
L 135.68882 219.923882 
L 138.345346 219.923882 
L 141.001871 219.923882 
L 143.658397 217.231499 
L 146.314922 219.923882 
L 148.971447 217.231499 
L 151.627973 219.923882 
L 154.284498 219.923882 
L 156.941023 214.539115 
L 159.597549 211.846732 
L 162.254074 211.846732 
L 164.9106 214.539115 
L 167.567125 214.539115 
L 170.22365 214.539115 
L 172.880176 209.154349 
L 175.536701 211.846732 
L 178.193226 209.154349 
L 180.849752 209.154349 
L 183.506277 203.769582 
L 186.162803 206.461966 
L 188.819328 206.461966 
L 191.475853 209.154349 
L 194.132379 203.769582 
L 196.788904 201.077199 
L 199.445429 203.769582 
L 202.101955 203.769582 
L 204.75848 206.461966 
L 207.415006 195.692432 
L 210.071531 209.154349 
L 212.728056 195.692432 
L 215.384582 203.769582 
L 218.041107 198.384816 
L 220.697632 203.769582 
L 223.354158 203.769582 
L 226.010683 190.307666 
L 228.667209 201.077199 
L 231.323734 206.461966 
L 233.980259 198.384816 
L 236.636785 198.384816 
L 239.29331 195.692432 
L 241.949835 201.077199 
L 244.606361 198.384816 
L 247.262886 195.692432 
L 249.919412 190.307666 
L 252.575937 193.000049 
L 255.232462 195.692432 
L 257.888988 190.307666 
L 260.545513 190.307666 
L 263.202038 195.692432 
L 265.858564 184.922899 
L 268.515089 193.000049 
L 271.171615 187.615283 
L 273.82814 187.615283 
L 276.484665 193.000049 
L 279.141191 190.307666 
L 281.797716 187.615283 
L 284.454241 187.615283 
L 287.110767 184.922899 
L 289.767292 187.615283 
L 292.423818 182.230516 
L 295.080343 190.307666 
L 297.736868 184.922899 
L 300.393394 184.922899 
L 303.049919 184.922899 
L 305.706445 187.615283 
L 308.36297 182.230516 
L 311.019495 184.922899 
L 313.676021 195.692432 
L 316.332546 179.538133 
L 318.989071 195.692432 
L 321.645597 182.230516 
L 324.302122 182.230516 
L 326.958648 195.692432 
L 329.615173 184.922899 
L 332.271698 184.922899 
L 334.928224 193.000049 
L 337.584749 187.615283 
L 340.241274 182.230516 
L 342.8978 182.230516 
L 345.554325 190.307666 
L 348.210851 182.230516 
L 350.867376 190.307666 
L 353.523901 190.307666 
L 356.180427 190.307666 
L 358.836952 168.7686 
L 361.493477 206.461966 
L 364.150003 176.845749 
L 366.806528 179.538133 
L 369.463054 195.692432 
L 372.119579 209.154349 
L 374.776104 157.999066 
L 377.43263 209.154349 
L 380.089155 184.922899 
L 382.74568 168.7686 
L 385.402206 203.769582 
L 388.058731 195.692432 
L 390.715257 214.539115 
" clip-path="url(#p37910d81d1)" style="fill: none; stroke: #ff7f0e; stroke-width: 1.5; stroke-linecap: square"/>
   </g>
   <g id="line2d_18">
    <path d="M 87.871364 236.078182 
L 90.527889 236.078182 
L 93.184414 236.078182 
L 95.84094 236.078182 
L 98.497465 233.385799 
L 101.153991 233.385799 
L 103.810516 230.693415 
L 106.467041 233.385799 
L 109.123567 230.693415 
L 111.780092 228.001032 
L 114.436617 230.693415 
L 117.093143 230.693415 
L 119.749668 225.308649 
L 122.406194 228.001032 
L 125.062719 225.308649 
L 127.719244 222.616265 
L 130.37577 225.308649 
L 133.032295 225.308649 
L 135.68882 225.308649 
L 138.345346 222.616265 
L 141.001871 222.616265 
L 143.658397 219.923882 
L 146.314922 219.923882 
L 148.971447 217.231499 
L 151.627973 219.923882 
L 154.284498 217.231499 
L 156.941023 219.923882 
L 159.597549 214.539115 
L 162.254074 222.616265 
L 164.9106 217.231499 
L 167.567125 211.846732 
L 170.22365 217.231499 
L 172.880176 211.846732 
L 175.536701 225.308649 
L 178.193226 209.154349 
L 180.849752 222.616265 
L 183.506277 206.461966 
L 186.162803 222.616265 
L 188.819328 206.461966 
L 191.475853 222.616265 
L 194.132379 203.769582 
L 196.788904 217.231499 
L 199.445429 211.846732 
L 202.101955 209.154349 
L 204.75848 209.154349 
L 207.415006 214.539115 
L 210.071531 214.539115 
L 212.728056 211.846732 
L 215.384582 217.231499 
L 218.041107 201.077199 
L 220.697632 225.308649 
L 223.354158 201.077199 
L 226.010683 211.846732 
L 228.667209 230.693415 
L 231.323734 190.307666 
L 233.980259 225.308649 
L 236.636785 236.078182 
" clip-path="url(#p37910d81d1)" style="fill: none; stroke: #2ca02c; stroke-width: 1.5; stroke-linecap: square"/>
   </g>
   <g id="patch_3">
    <path d="M 44.57 246.04 
L 44.57 26.88 
" style="fill: none; stroke: #000000; stroke-width: 0.8; stroke-linejoin: miter; stroke-linecap: square"/>
   </g>
   <g id="patch_4">
    <path d="M 997.2 246.04 
L 997.2 26.88 
" style="fill: none; stroke: #000000; stroke-width: 0.8; stroke-linejoin: miter; stroke-linecap: square"/>
   </g>
   <g id="patch_5">
    <path d="M 44.57 246.04 
L 997.2 246.04 
" style="fill: none; stroke: #000000; stroke-width: 0.8; stroke-linejoin: miter; stroke-linecap: square"/>
   </g>
   <g id="patch_6">
    <path d="M 44.57 26.88 
L 997.2 26.88 
" style="fill: none; stroke: #000000; stroke-width: 0.8; stroke-linejoin: miter; stroke-linecap: square"/>
   </g>
   <g id="text_18">
    <!-- Number of Requests per Second -->
    <g transform="translate(423.822812 20.88) scale(0.12 -0.12)">
     <defs>
      <path id="DejaVuSans-4e" d="M 628 4666 
L 1478 4666 
L 3547 763 
L 3547 4666 
L 4159 4666 
L 4159 0 
L 3309 0 
L 1241 3903 
L 1241 0 
L 628 0 
L 628 4666 
z
" transform="scale(0.015625)"/>
      <path id="DejaVuSans-62" d="M 3116 1747 
Q 3116 2381 2855 2742 
Q 2594 3103 2138 3103 
Q 1681 3103 1420 2742 
Q 1159 2381 1159 1747 
Q 1159 1113 1420 752 
Q 1681 391 2138 391 
Q 2594 391 2855 752 
Q 3116 1113 3116 1747 
z
M 1159 2969 
Q 1341 3281 1617 3432 
Q 1894 3584 2278 3584 
Q 2916 3584 3314 3078 
Q 3713 2572 3713 1747 
Q 3713 922 3314 415 
Q 2916 -91 2278 -91 
Q 1894 -91 1617 61 
Q 1341 213 1159 525 
L 1159 0 
L 581 0 
L 581 4863 
L 1159 4863 
L 1159 2969 
z
" transform="scale(0.015625)"/>
      <path id="DejaVuSans-72" d="M 2631 2963 
Q 2534 3019 2420 3045 
Q 2306 3072 2169 3072 
Q 1681 3072 1420 2755 
Q 1159 2438 1159 1844 
L 1159 0 
L 581 0 
L 581 3500 
L 1159 3500 
L 1159 2956 
Q 1341 3275 1631 3429 
Q 1922 3584 2338 3584 
Q 2397 3584 2469 3576 
Q 2541 3569 2628 3553 
L 2631 2963 
z
" transform="scale(0.015625)"/>
      <path id="DejaVuSans-66" d="M 2375 4863 
L 2375 4384 
L 1825 4384 
Q 1516 4384 1395 4259 
Q 1275 4134 1275 3809 
L 1275 3500 
L 2222 3500 
L 2222 3053 
L 1275 3053 
L 1275 0 
L 697 0 
L 697 3053 
L 147 3053 
L 147 3500 
L 697 3500 
L 697 3744 
Q 697 4328 969 4595 
Q 1241 4863 1831 4863 
L 2375 4863 
z
" transform="scale(0.015625)"/>
     </defs>
     <use xlink:href="#DejaVuSans-4e"/>
     <use xlink:href="#DejaVuSans-75" transform="translate(74.804688 0)"/>
     <use xlink:href="#DejaVuSans-6d" transform="translate(138.183594 0)"/>
     <use xlink:href="#DejaVuSans-62" transform="translate(235.595703 0)"/>
     <use xlink:href="#DejaVuSans-65" transform="translate(299.072266 0)"/>
     <use xlink:href="#DejaVuSans-72" transform="translate(360.595703 0)"/>
     <use xlink:href="#DejaVuSans-20" transform="translate(401.708984 0)"/>
     <use xlink:href="#DejaVuSans-6f" transform="translate(433.496094 0)"/>
     <use xlink:href="#DejaVuSans-66" transform="translate(494.677734 0)"/>
     <use xlink:href="#DejaVuSans-20" transform="translate(529.882812 0)"/>
     <use xlink:href="#DejaVuSans-52" transform="translate(561.669922 0)"/>
     <use xlink:href="#DejaVuSans-65" transform="translate(626.652344 0)"/>
     <use xlink:href="#DejaVuSans-71" transform="translate(688.175781 0)"/>
     <use xlink:href="#DejaVuSans-75" transform="translate(751.652344 0)"/>
     <use xlink:href="#DejaVuSans-65" transform="translate(815.03125 0)"/>
     <use xlink:href="#DejaVuSans-73" transform="translate(876.554688 0)"/>
     <use xlink:href="#DejaVuSans-74" transform="translate(928.654297 0)"/>
     <use xlink:href="#DejaVuSans-73" transform="translate(967.863281 0)"/>
     <use xlink:href="#DejaVuSans-20" transform="translate(1019.962891 0)"/>
     <use xlink:href="#DejaVuSans-70" transform="translate(1051.75 0)"/>
     <use xlink:href="#DejaVuSans-65" transform="translate(1115.226562 0)"/>
     <use xlink:href="#DejaVuSans-72" transform="translate(1176.75 0)"/>
     <use xlink:href="#DejaVuSans-20" transform="translate(1217.863281 0)"/>
     <use xlink:href="#DejaVuSans-53" transform="translate(1249.650391 0)"/>
     <use xlink:href="#DejaVuSans-65" transform="translate(1313.126953 0)"/>
     <use xlink:href="#DejaVuSans-63" transform="translate(1374.650391 0)"/>
     <use xlink:href="#DejaVuSans-6f" transform="translate(1429.630859 0)"/>
     <use xlink:href="#DejaVuSans-6e" transform="translate(1490.8125 0)"/>
     <use xlink:href="#DejaVuSans-64" transform="translate(1554.191406 0)"/>
    </g>
   </g>
   <g id="legend_1">
    <g id="patch_7">
     <path d="M 51.57 78.914375 
L 184.91375 78.914375 
Q 186.91375 78.914375 186.91375 76.914375 
L 186.91375 33.88 
Q 186.91375 31.88 184.91375 31.88 
L 51.57 31.88 
Q 49.57 31.88 49.57 33.88 
L 49.57 76.914375 
Q 49.57 78.914375 51.57 78.914375 
z
" style="fill: #ffffff; opacity: 0.8; stroke: #cccccc; stroke-linejoin: miter"/>
    </g>
    <g id="line2d_19">
     <path d="M 53.57 39.978438 
L 63.57 39.978438 
L 73.57 39.978438 
" style="fill: none; stroke: #1f77b4; stroke-width: 1.5; stroke-linecap: square"/>
    </g>
    <g id="text_19">
     <!-- Single Large Results -->
     <g transform="translate(81.57 43.478438) scale(0.1 -0.1)">
      <defs>
       <path id="DejaVuSans-67" d="M 2906 1791 
Q 2906 2416 2648 2759 
Q 2391 3103 1925 3103 
Q 1463 3103 1205 2759 
Q 947 2416 947 1791 
Q 947 1169 1205 825 
Q 1463 481 1925 481 
Q 2391 481 2648 825 
Q 2906 1169 2906 1791 
z
M 3481 434 
Q 3481 -459 3084 -895 
Q 2688 -1331 1869 -1331 
Q 1566 -1331 1297 -1286 
Q 1028 -1241 775 -1147 
L 775 -588 
Q 1028 -725 1275 -790 
Q 1522 -856 1778 -856 
Q 2344 -856 2625 -561 
Q 2906 -266 2906 331 
L 2906 616 
Q 2728 306 2450 153 
Q 2172 0 1784 0 
Q 1141 0 747 490 
Q 353 981 353 1791 
Q 353 2603 747 3093 
Q 1141 3584 1784 3584 
Q 2172 3584 2450 3431 
Q 2728 3278 2906 2969 
L 2906 3500 
L 3481 3500 
L 3481 434 
z
" transform="scale(0.015625)"/>
       <path id="DejaVuSans-6c" d="M 603 4863 
L 1178 4863 
L 1178 0 
L 603 0 
L 603 4863 
z
" transform="scale(0.015625)"/>
       <path id="DejaVuSans-4c" d="M 628 4666 
L 1259 4666 
L 1259 531 
L 3531 531 
L 3531 0 
L 628 0 
L 628 4666 
z
" transform="scale(0.015625)"/>
      </defs>
      <use xlink:href="#DejaVuSans-53"/>
      <use xlink:href="#DejaVuSans-69" transform="translate(63.476562 0)"/>
      <use xlink:href="#DejaVuSans-6e" transform="translate(91.259766 0)"/>
      <use xlink:href="#DejaVuSans-67" transform="translate(154.638672 0)"/>
      <use xlink:href="#DejaVuSans-6c" transform="translate(218.115234 0)"/>
      <use xlink:href="#DejaVuSans-65" transform="translate(245.898438 0)"/>
      <use xlink:href="#DejaVuSans-20" transform="translate(307.421875 0)"/>
      <use xlink:href="#DejaVuSans-4c" transform="translate(339.208984 0)"/>
      <use xlink:href="#DejaVuSans-61" transform="translate(394.921875 0)"/>
      <use xlink:href="#DejaVuSans-72" transform="translate(456.201172 0)"/>
      <use xlink:href="#DejaVuSans-67" transform="translate(495.564453 0)"/>
      <use xlink:href="#DejaVuSans-65" transform="translate(559.041016 0)"/>
      <use xlink:href="#DejaVuSans-20" transform="translate(620.564453 0)"/>
      <use xlink:href="#DejaVuSans-52" transform="translate(652.351562 0)"/>
      <use xlink:href="#DejaVuSans-65" transform="translate(717.333984 0)"/>
      <use xlink:href="#DejaVuSans-73" transform="translate(778.857422 0)"/>
      <use xlink:href="#DejaVuSans-75" transform="translate(830.957031 0)"/>
      <use xlink:href="#DejaVuSans-6c" transform="translate(894.335938 0)"/>
      <use xlink:href="#DejaVuSans-74" transform="translate(922.119141 0)"/>
      <use xlink:href="#DejaVuSans-73" transform="translate(961.328125 0)"/>
     </g>
    </g>
    <g id="line2d_20">
     <path d="M 53.57 54.656563 
L 63.57 54.656563 
L 73.57 54.656563 
" style="fill: none; stroke: #ff7f0e; stroke-width: 1.5; stroke-linecap: square"/>
    </g>
    <g id="text_20">
     <!-- Single Small Results -->
     <g transform="translate(81.57 58.156563) scale(0.1 -0.1)">
      <use xlink:href="#DejaVuSans-53"/>
      <use xlink:href="#DejaVuSans-69" transform="translate(63.476562 0)"/>
      <use xlink:href="#DejaVuSans-6e" transform="translate(91.259766 0)"/>
      <use xlink:href="#DejaVuSans-67" transform="translate(154.638672 0)"/>
      <use xlink:href="#DejaVuSans-6c" transform="translate(218.115234 0)"/>
      <use xlink:href="#DejaVuSans-65" transform="translate(245.898438 0)"/>
      <use xlink:href="#DejaVuSans-20" transform="translate(307.421875 0)"/>
      <use xlink:href="#DejaVuSans-53" transform="translate(339.208984 0)"/>
      <use xlink:href="#DejaVuSans-6d" transform="translate(402.685547 0)"/>
      <use xlink:href="#DejaVuSans-61" transform="translate(500.097656 0)"/>
      <use xlink:href="#DejaVuSans-6c" transform="translate(561.376953 0)"/>
      <use xlink:href="#DejaVuSans-6c" transform="translate(589.160156 0)"/>
      <use xlink:href="#DejaVuSans-20" transform="translate(616.943359 0)"/>
      <use xlink:href="#DejaVuSans-52" transform="translate(648.730469 0)"/>
      <use xlink:href="#DejaVuSans-65" transform="translate(713.712891 0)"/>
      <use xlink:href="#DejaVuSans-73" transform="translate(775.236328 0)"/>
      <use xlink:href="#DejaVuSans-75" transform="translate(827.335938 0)"/>
      <use xlink:href="#DejaVuSans-6c" transform="translate(890.714844 0)"/>
      <use xlink:href="#DejaVuSans-74" transform="translate(918.498047 0)"/>
      <use xlink:href="#DejaVuSans-73" transform="translate(957.707031 0)"/>
     </g>
    </g>
    <g id="line2d_21">
     <path d="M 53.57 69.334688 
L 63.57 69.334688 
L 73.57 69.334688 
" style="fill: none; stroke: #2ca02c; stroke-width: 1.5; stroke-linecap: square"/>
    </g>
    <g id="text_21">
     <!-- Multi Results -->
     <g transform="translate(81.57 72.834688) scale(0.1 -0.1)">
      <defs>
       <path id="DejaVuSans-4d" d="M 628 4666 
L 1569 4666 
L 2759 1491 
L 3956 4666 
L 4897 4666 
L 4897 0 
L 4281 0 
L 4281 4097 
L 3078 897 
L 2444 897 
L 1241 4097 
L 1241 0 
L 628 0 
L 628 4666 
z
" transform="scale(0.015625)"/>
      </defs>
      <use xlink:href="#DejaVuSans-4d"/>
      <use xlink:href="#DejaVuSans-75" transform="translate(86.279297 0)"/>
      <use xlink:href="#DejaVuSans-6c" transform="translate(149.658203 0)"/>
      <use xlink:href="#DejaVuSans-74" transform="translate(177.441406 0)"/>
      <use xlink:href="#DejaVuSans-69" transform="translate(216.650391 0)"/>
      <use xlink:href="#DejaVuSans-20" transform="translate(244.433594 0)"/>
      <use xlink:href="#DejaVuSans-52" transform="translate(276.220703 0)"/>
      <use xlink:href="#DejaVuSans-65" transform="translate(341.203125 0)"/>
      <use xlink:href="#DejaVuSans-73" transform="translate(402.726562 0)"/>
      <use xlink:href="#DejaVuSans-75" transform="translate(454.826172 0)"/>
      <use xlink:href="#DejaVuSans-6c" transform="translate(518.205078 0)"/>
      <use xlink:href="#DejaVuSans-74" transform="translate(545.988281 0)"/>
      <use xlink:href="#DejaVuSans-73" transform="translate(585.197266 0)"/>
     </g>
    </g>
   </g>
  </g>
 </g>
 <defs>
  <clipPath id="p37910d81d1">
   <rect x="44.57" y="26.88" width="952.63" height="219.16"/>
  </clipPath>
 </defs>
</svg>
