<?xml version="1.0" encoding="utf-8" standalone="no"?>
<!DOCTYPE svg PUBLIC "-//W3C//DTD SVG 1.1//EN"
  "http://www.w3.org/Graphics/SVG/1.1/DTD/svg11.dtd">
<svg xmlns:xlink="http://www.w3.org/1999/xlink" width="864pt" height="432pt" viewBox="0 0 864 432" xmlns="http://www.w3.org/2000/svg" version="1.1">
 <metadata>
  <rdf:RDF xmlns:dc="http://purl.org/dc/elements/1.1/" xmlns:cc="http://creativecommons.org/ns#" xmlns:rdf="http://www.w3.org/1999/02/22-rdf-syntax-ns#">
   <cc:Work>
    <dc:type rdf:resource="http://purl.org/dc/dcmitype/StillImage"/>
    <dc:date>2025-05-31T16:14:28.554461</dc:date>
    <dc:format>image/svg+xml</dc:format>
    <dc:creator>
     <cc:Agent>
      <dc:title>Matplotlib v3.10.1, https://matplotlib.org/</dc:title>
     </cc:Agent>
    </dc:creator>
   </cc:Work>
  </rdf:RDF>
 </metadata>
 <defs>
  <style type="text/css">*{stroke-linejoin: round; stroke-linecap: butt}</style>
 </defs>
 <g id="figure_1">
  <g id="patch_1">
   <path d="M 0 432 
L 864 432 
L 864 0 
L 0 0 
z
" style="fill: #ffffff"/>
  </g>
  <g id="axes_1">
   <g id="patch_2">
    <path d="M 55.772054 390.04 
L 853.2 390.04 
L 853.2 41.856 
L 55.772054 41.856 
z
" style="fill: #ffffff"/>
   </g>
   <g id="matplotlib.axis_1">
    <g id="xtick_1">
     <g id="line2d_1">
      <defs>
       <path id="m041d39c54f" d="M 0 0 
L 0 3.5 
" style="stroke: #000000; stroke-width: 0.8"/>
      </defs>
      <g>
       <use xlink:href="#m041d39c54f" x="92.018779" y="390.04" style="stroke: #000000; stroke-width: 0.8"/>
      </g>
     </g>
     <g id="text_1">
      <!-- 0 -->
      <g transform="translate(88.837529 404.638438) scale(0.1 -0.1)">
       <defs>
        <path id="DejaVuSans-30" d="M 2034 4250 
Q 1547 4250 1301 3770 
Q 1056 3291 1056 2328 
Q 1056 1369 1301 889 
Q 1547 409 2034 409 
Q 2525 409 2770 889 
Q 3016 1369 3016 2328 
Q 3016 3291 2770 3770 
Q 2525 4250 2034 4250 
z
M 2034 4750 
Q 2819 4750 3233 4129 
Q 3647 3509 3647 2328 
Q 3647 1150 3233 529 
Q 2819 -91 2034 -91 
Q 1250 -91 836 529 
Q 422 1150 422 2328 
Q 422 3509 836 4129 
Q 1250 4750 2034 4750 
z
" transform="scale(0.015625)"/>
       </defs>
       <use xlink:href="#DejaVuSans-30"/>
      </g>
     </g>
    </g>
    <g id="xtick_2">
     <g id="line2d_2">
      <g>
       <use xlink:href="#m041d39c54f" x="237.006754" y="390.04" style="stroke: #000000; stroke-width: 0.8"/>
      </g>
     </g>
     <g id="text_2">
      <!-- 20 -->
      <g transform="translate(230.644254 404.638438) scale(0.1 -0.1)">
       <defs>
        <path id="DejaVuSans-32" d="M 1228 531 
L 3431 531 
L 3431 0 
L 469 0 
L 469 531 
Q 828 903 1448 1529 
Q 2069 2156 2228 2338 
Q 2531 2678 2651 2914 
Q 2772 3150 2772 3378 
Q 2772 3750 2511 3984 
Q 2250 4219 1831 4219 
Q 1534 4219 1204 4116 
Q 875 4013 500 3803 
L 500 4441 
Q 881 4594 1212 4672 
Q 1544 4750 1819 4750 
Q 2544 4750 2975 4387 
Q 3406 4025 3406 3419 
Q 3406 3131 3298 2873 
Q 3191 2616 2906 2266 
Q 2828 2175 2409 1742 
Q 1991 1309 1228 531 
z
" transform="scale(0.015625)"/>
       </defs>
       <use xlink:href="#DejaVuSans-32"/>
       <use xlink:href="#DejaVuSans-30" transform="translate(63.623047 0)"/>
      </g>
     </g>
    </g>
    <g id="xtick_3">
     <g id="line2d_3">
      <g>
       <use xlink:href="#m041d39c54f" x="381.994729" y="390.04" style="stroke: #000000; stroke-width: 0.8"/>
      </g>
     </g>
     <g id="text_3">
      <!-- 40 -->
      <g transform="translate(375.632229 404.638438) scale(0.1 -0.1)">
       <defs>
        <path id="DejaVuSans-34" d="M 2419 4116 
L 825 1625 
L 2419 1625 
L 2419 4116 
z
M 2253 4666 
L 3047 4666 
L 3047 1625 
L 3713 1625 
L 3713 1100 
L 3047 1100 
L 3047 0 
L 2419 0 
L 2419 1100 
L 313 1100 
L 313 1709 
L 2253 4666 
z
" transform="scale(0.015625)"/>
       </defs>
       <use xlink:href="#DejaVuSans-34"/>
       <use xlink:href="#DejaVuSans-30" transform="translate(63.623047 0)"/>
      </g>
     </g>
    </g>
    <g id="xtick_4">
     <g id="line2d_4">
      <g>
       <use xlink:href="#m041d39c54f" x="526.982704" y="390.04" style="stroke: #000000; stroke-width: 0.8"/>
      </g>
     </g>
     <g id="text_4">
      <!-- 60 -->
      <g transform="translate(520.620204 404.638438) scale(0.1 -0.1)">
       <defs>
        <path id="DejaVuSans-36" d="M 2113 2584 
Q 1688 2584 1439 2293 
Q 1191 2003 1191 1497 
Q 1191 994 1439 701 
Q 1688 409 2113 409 
Q 2538 409 2786 701 
Q 3034 994 3034 1497 
Q 3034 2003 2786 2293 
Q 2538 2584 2113 2584 
z
M 3366 4563 
L 3366 3988 
Q 3128 4100 2886 4159 
Q 2644 4219 2406 4219 
Q 1781 4219 1451 3797 
Q 1122 3375 1075 2522 
Q 1259 2794 1537 2939 
Q 1816 3084 2150 3084 
Q 2853 3084 3261 2657 
Q 3669 2231 3669 1497 
Q 3669 778 3244 343 
Q 2819 -91 2113 -91 
Q 1303 -91 875 529 
Q 447 1150 447 2328 
Q 447 3434 972 4092 
Q 1497 4750 2381 4750 
Q 2619 4750 2861 4703 
Q 3103 4656 3366 4563 
z
" transform="scale(0.015625)"/>
       </defs>
       <use xlink:href="#DejaVuSans-36"/>
       <use xlink:href="#DejaVuSans-30" transform="translate(63.623047 0)"/>
      </g>
     </g>
    </g>
    <g id="xtick_5">
     <g id="line2d_5">
      <g>
       <use xlink:href="#m041d39c54f" x="671.970679" y="390.04" style="stroke: #000000; stroke-width: 0.8"/>
      </g>
     </g>
     <g id="text_5">
      <!-- 80 -->
      <g transform="translate(665.608179 404.638438) scale(0.1 -0.1)">
       <defs>
        <path id="DejaVuSans-38" d="M 2034 2216 
Q 1584 2216 1326 1975 
Q 1069 1734 1069 1313 
Q 1069 891 1326 650 
Q 1584 409 2034 409 
Q 2484 409 2743 651 
Q 3003 894 3003 1313 
Q 3003 1734 2745 1975 
Q 2488 2216 2034 2216 
z
M 1403 2484 
Q 997 2584 770 2862 
Q 544 3141 544 3541 
Q 544 4100 942 4425 
Q 1341 4750 2034 4750 
Q 2731 4750 3128 4425 
Q 3525 4100 3525 3541 
Q 3525 3141 3298 2862 
Q 3072 2584 2669 2484 
Q 3125 2378 3379 2068 
Q 3634 1759 3634 1313 
Q 3634 634 3220 271 
Q 2806 -91 2034 -91 
Q 1263 -91 848 271 
Q 434 634 434 1313 
Q 434 1759 690 2068 
Q 947 2378 1403 2484 
z
M 1172 3481 
Q 1172 3119 1398 2916 
Q 1625 2713 2034 2713 
Q 2441 2713 2670 2916 
Q 2900 3119 2900 3481 
Q 2900 3844 2670 4047 
Q 2441 4250 2034 4250 
Q 1625 4250 1398 4047 
Q 1172 3844 1172 3481 
z
" transform="scale(0.015625)"/>
       </defs>
       <use xlink:href="#DejaVuSans-38"/>
       <use xlink:href="#DejaVuSans-30" transform="translate(63.623047 0)"/>
      </g>
     </g>
    </g>
    <g id="xtick_6">
     <g id="line2d_6">
      <g>
       <use xlink:href="#m041d39c54f" x="816.958654" y="390.04" style="stroke: #000000; stroke-width: 0.8"/>
      </g>
     </g>
     <g id="text_6">
      <!-- 100 -->
      <g transform="translate(807.414904 404.638438) scale(0.1 -0.1)">
       <defs>
        <path id="DejaVuSans-31" d="M 794 531 
L 1825 531 
L 1825 4091 
L 703 3866 
L 703 4441 
L 1819 4666 
L 2450 4666 
L 2450 531 
L 3481 531 
L 3481 0 
L 794 0 
L 794 531 
z
" transform="scale(0.015625)"/>
       </defs>
       <use xlink:href="#DejaVuSans-31"/>
       <use xlink:href="#DejaVuSans-30" transform="translate(63.623047 0)"/>
       <use xlink:href="#DejaVuSans-30" transform="translate(127.246094 0)"/>
      </g>
     </g>
    </g>
    <g id="text_7">
     <!-- Percentile (%) -->
     <g transform="translate(419.582121 418.316562) scale(0.1 -0.1)">
      <defs>
       <path id="DejaVuSans-50" d="M 1259 4147 
L 1259 2394 
L 2053 2394 
Q 2494 2394 2734 2622 
Q 2975 2850 2975 3272 
Q 2975 3691 2734 3919 
Q 2494 4147 2053 4147 
L 1259 4147 
z
M 628 4666 
L 2053 4666 
Q 2838 4666 3239 4311 
Q 3641 3956 3641 3272 
Q 3641 2581 3239 2228 
Q 2838 1875 2053 1875 
L 1259 1875 
L 1259 0 
L 628 0 
L 628 4666 
z
" transform="scale(0.015625)"/>
       <path id="DejaVuSans-65" d="M 3597 1894 
L 3597 1613 
L 953 1613 
Q 991 1019 1311 708 
Q 1631 397 2203 397 
Q 2534 397 2845 478 
Q 3156 559 3463 722 
L 3463 178 
Q 3153 47 2828 -22 
Q 2503 -91 2169 -91 
Q 1331 -91 842 396 
Q 353 884 353 1716 
Q 353 2575 817 3079 
Q 1281 3584 2069 3584 
Q 2775 3584 3186 3129 
Q 3597 2675 3597 1894 
z
M 3022 2063 
Q 3016 2534 2758 2815 
Q 2500 3097 2075 3097 
Q 1594 3097 1305 2825 
Q 1016 2553 972 2059 
L 3022 2063 
z
" transform="scale(0.015625)"/>
       <path id="DejaVuSans-72" d="M 2631 2963 
Q 2534 3019 2420 3045 
Q 2306 3072 2169 3072 
Q 1681 3072 1420 2755 
Q 1159 2438 1159 1844 
L 1159 0 
L 581 0 
L 581 3500 
L 1159 3500 
L 1159 2956 
Q 1341 3275 1631 3429 
Q 1922 3584 2338 3584 
Q 2397 3584 2469 3576 
Q 2541 3569 2628 3553 
L 2631 2963 
z
" transform="scale(0.015625)"/>
       <path id="DejaVuSans-63" d="M 3122 3366 
L 3122 2828 
Q 2878 2963 2633 3030 
Q 2388 3097 2138 3097 
Q 1578 3097 1268 2742 
Q 959 2388 959 1747 
Q 959 1106 1268 751 
Q 1578 397 2138 397 
Q 2388 397 2633 464 
Q 2878 531 3122 666 
L 3122 134 
Q 2881 22 2623 -34 
Q 2366 -91 2075 -91 
Q 1284 -91 818 406 
Q 353 903 353 1747 
Q 353 2603 823 3093 
Q 1294 3584 2113 3584 
Q 2378 3584 2631 3529 
Q 2884 3475 3122 3366 
z
" transform="scale(0.015625)"/>
       <path id="DejaVuSans-6e" d="M 3513 2113 
L 3513 0 
L 2938 0 
L 2938 2094 
Q 2938 2591 2744 2837 
Q 2550 3084 2163 3084 
Q 1697 3084 1428 2787 
Q 1159 2491 1159 1978 
L 1159 0 
L 581 0 
L 581 3500 
L 1159 3500 
L 1159 2956 
Q 1366 3272 1645 3428 
Q 1925 3584 2291 3584 
Q 2894 3584 3203 3211 
Q 3513 2838 3513 2113 
z
" transform="scale(0.015625)"/>
       <path id="DejaVuSans-74" d="M 1172 4494 
L 1172 3500 
L 2356 3500 
L 2356 3053 
L 1172 3053 
L 1172 1153 
Q 1172 725 1289 603 
Q 1406 481 1766 481 
L 2356 481 
L 2356 0 
L 1766 0 
Q 1100 0 847 248 
Q 594 497 594 1153 
L 594 3053 
L 172 3053 
L 172 3500 
L 594 3500 
L 594 4494 
L 1172 4494 
z
" transform="scale(0.015625)"/>
       <path id="DejaVuSans-69" d="M 603 3500 
L 1178 3500 
L 1178 0 
L 603 0 
L 603 3500 
z
M 603 4863 
L 1178 4863 
L 1178 4134 
L 603 4134 
L 603 4863 
z
" transform="scale(0.015625)"/>
       <path id="DejaVuSans-6c" d="M 603 4863 
L 1178 4863 
L 1178 0 
L 603 0 
L 603 4863 
z
" transform="scale(0.015625)"/>
       <path id="DejaVuSans-20" transform="scale(0.015625)"/>
       <path id="DejaVuSans-28" d="M 1984 4856 
Q 1566 4138 1362 3434 
Q 1159 2731 1159 2009 
Q 1159 1288 1364 580 
Q 1569 -128 1984 -844 
L 1484 -844 
Q 1016 -109 783 600 
Q 550 1309 550 2009 
Q 550 2706 781 3412 
Q 1013 4119 1484 4856 
L 1984 4856 
z
" transform="scale(0.015625)"/>
       <path id="DejaVuSans-25" d="M 4653 2053 
Q 4381 2053 4226 1822 
Q 4072 1591 4072 1178 
Q 4072 772 4226 539 
Q 4381 306 4653 306 
Q 4919 306 5073 539 
Q 5228 772 5228 1178 
Q 5228 1588 5073 1820 
Q 4919 2053 4653 2053 
z
M 4653 2450 
Q 5147 2450 5437 2106 
Q 5728 1763 5728 1178 
Q 5728 594 5436 251 
Q 5144 -91 4653 -91 
Q 4153 -91 3862 251 
Q 3572 594 3572 1178 
Q 3572 1766 3864 2108 
Q 4156 2450 4653 2450 
z
M 1428 4353 
Q 1159 4353 1004 4120 
Q 850 3888 850 3481 
Q 850 3069 1003 2837 
Q 1156 2606 1428 2606 
Q 1700 2606 1854 2837 
Q 2009 3069 2009 3481 
Q 2009 3884 1853 4118 
Q 1697 4353 1428 4353 
z
M 4250 4750 
L 4750 4750 
L 1831 -91 
L 1331 -91 
L 4250 4750 
z
M 1428 4750 
Q 1922 4750 2215 4408 
Q 2509 4066 2509 3481 
Q 2509 2891 2217 2550 
Q 1925 2209 1428 2209 
Q 931 2209 642 2551 
Q 353 2894 353 3481 
Q 353 4063 643 4406 
Q 934 4750 1428 4750 
z
" transform="scale(0.015625)"/>
       <path id="DejaVuSans-29" d="M 513 4856 
L 1013 4856 
Q 1481 4119 1714 3412 
Q 1947 2706 1947 2009 
Q 1947 1309 1714 600 
Q 1481 -109 1013 -844 
L 513 -844 
Q 928 -128 1133 580 
Q 1338 1288 1338 2009 
Q 1338 2731 1133 3434 
Q 928 4138 513 4856 
z
" transform="scale(0.015625)"/>
      </defs>
      <use xlink:href="#DejaVuSans-50"/>
      <use xlink:href="#DejaVuSans-65" transform="translate(56.677734 0)"/>
      <use xlink:href="#DejaVuSans-72" transform="translate(118.201172 0)"/>
      <use xlink:href="#DejaVuSans-63" transform="translate(157.064453 0)"/>
      <use xlink:href="#DejaVuSans-65" transform="translate(212.044922 0)"/>
      <use xlink:href="#DejaVuSans-6e" transform="translate(273.568359 0)"/>
      <use xlink:href="#DejaVuSans-74" transform="translate(336.947266 0)"/>
      <use xlink:href="#DejaVuSans-69" transform="translate(376.15625 0)"/>
      <use xlink:href="#DejaVuSans-6c" transform="translate(403.939453 0)"/>
      <use xlink:href="#DejaVuSans-65" transform="translate(431.722656 0)"/>
      <use xlink:href="#DejaVuSans-20" transform="translate(493.246094 0)"/>
      <use xlink:href="#DejaVuSans-28" transform="translate(525.033203 0)"/>
      <use xlink:href="#DejaVuSans-25" transform="translate(564.046875 0)"/>
      <use xlink:href="#DejaVuSans-29" transform="translate(659.066406 0)"/>
     </g>
    </g>
   </g>
   <g id="matplotlib.axis_2">
    <g id="ytick_1">
     <g id="line2d_7">
      <defs>
       <path id="ma0b96dfaa4" d="M 0 0 
L -3.5 0 
" style="stroke: #000000; stroke-width: 0.8"/>
      </defs>
      <g>
       <use xlink:href="#ma0b96dfaa4" x="55.772054" y="363.514894" style="stroke: #000000; stroke-width: 0.8"/>
      </g>
     </g>
     <g id="text_8">
      <!-- $\mathdefault{10^{-1}}$ -->
      <g transform="translate(25.272054 367.314112) scale(0.1 -0.1)">
       <defs>
        <path id="DejaVuSans-2212" d="M 678 2272 
L 4684 2272 
L 4684 1741 
L 678 1741 
L 678 2272 
z
" transform="scale(0.015625)"/>
       </defs>
       <use xlink:href="#DejaVuSans-31" transform="translate(0 0.684375)"/>
       <use xlink:href="#DejaVuSans-30" transform="translate(63.623047 0.684375)"/>
       <use xlink:href="#DejaVuSans-2212" transform="translate(128.203125 38.965625) scale(0.7)"/>
       <use xlink:href="#DejaVuSans-31" transform="translate(186.855469 38.965625) scale(0.7)"/>
      </g>
     </g>
    </g>
    <g id="ytick_2">
     <g id="line2d_8">
      <g>
       <use xlink:href="#ma0b96dfaa4" x="55.772054" y="292.355875" style="stroke: #000000; stroke-width: 0.8"/>
      </g>
     </g>
     <g id="text_9">
      <!-- $\mathdefault{10^{0}}$ -->
      <g transform="translate(31.172054 296.155094) scale(0.1 -0.1)">
       <use xlink:href="#DejaVuSans-31" transform="translate(0 0.765625)"/>
       <use xlink:href="#DejaVuSans-30" transform="translate(63.623047 0.765625)"/>
       <use xlink:href="#DejaVuSans-30" transform="translate(128.203125 39.046875) scale(0.7)"/>
      </g>
     </g>
    </g>
    <g id="ytick_3">
     <g id="line2d_9">
      <g>
       <use xlink:href="#ma0b96dfaa4" x="55.772054" y="221.196856" style="stroke: #000000; stroke-width: 0.8"/>
      </g>
     </g>
     <g id="text_10">
      <!-- $\mathdefault{10^{1}}$ -->
      <g transform="translate(31.172054 224.996075) scale(0.1 -0.1)">
       <use xlink:href="#DejaVuSans-31" transform="translate(0 0.684375)"/>
       <use xlink:href="#DejaVuSans-30" transform="translate(63.623047 0.684375)"/>
       <use xlink:href="#DejaVuSans-31" transform="translate(128.203125 38.965625) scale(0.7)"/>
      </g>
     </g>
    </g>
    <g id="ytick_4">
     <g id="line2d_10">
      <g>
       <use xlink:href="#ma0b96dfaa4" x="55.772054" y="150.037837" style="stroke: #000000; stroke-width: 0.8"/>
      </g>
     </g>
     <g id="text_11">
      <!-- $\mathdefault{10^{2}}$ -->
      <g transform="translate(31.172054 153.837056) scale(0.1 -0.1)">
       <use xlink:href="#DejaVuSans-31" transform="translate(0 0.765625)"/>
       <use xlink:href="#DejaVuSans-30" transform="translate(63.623047 0.765625)"/>
       <use xlink:href="#DejaVuSans-32" transform="translate(128.203125 39.046875) scale(0.7)"/>
      </g>
     </g>
    </g>
    <g id="ytick_5">
     <g id="line2d_11">
      <g>
       <use xlink:href="#ma0b96dfaa4" x="55.772054" y="78.878818" style="stroke: #000000; stroke-width: 0.8"/>
      </g>
     </g>
     <g id="text_12">
      <!-- $\mathdefault{10^{3}}$ -->
      <g transform="translate(31.172054 82.678037) scale(0.1 -0.1)">
       <defs>
        <path id="DejaVuSans-33" d="M 2597 2516 
Q 3050 2419 3304 2112 
Q 3559 1806 3559 1356 
Q 3559 666 3084 287 
Q 2609 -91 1734 -91 
Q 1441 -91 1130 -33 
Q 819 25 488 141 
L 488 750 
Q 750 597 1062 519 
Q 1375 441 1716 441 
Q 2309 441 2620 675 
Q 2931 909 2931 1356 
Q 2931 1769 2642 2001 
Q 2353 2234 1838 2234 
L 1294 2234 
L 1294 2753 
L 1863 2753 
Q 2328 2753 2575 2939 
Q 2822 3125 2822 3475 
Q 2822 3834 2567 4026 
Q 2313 4219 1838 4219 
Q 1578 4219 1281 4162 
Q 984 4106 628 3988 
L 628 4550 
Q 988 4650 1302 4700 
Q 1616 4750 1894 4750 
Q 2613 4750 3031 4423 
Q 3450 4097 3450 3541 
Q 3450 3153 3228 2886 
Q 3006 2619 2597 2516 
z
" transform="scale(0.015625)"/>
       </defs>
       <use xlink:href="#DejaVuSans-31" transform="translate(0 0.765625)"/>
       <use xlink:href="#DejaVuSans-30" transform="translate(63.623047 0.765625)"/>
       <use xlink:href="#DejaVuSans-33" transform="translate(128.203125 39.046875) scale(0.7)"/>
      </g>
     </g>
    </g>
    <g id="ytick_6">
     <g id="line2d_12">
      <defs>
       <path id="m0f0a783141" d="M 0 0 
L -2 0 
" style="stroke: #000000; stroke-width: 0.6"/>
      </defs>
      <g>
       <use xlink:href="#m0f0a783141" x="55.772054" y="384.935893" style="stroke: #000000; stroke-width: 0.6"/>
      </g>
     </g>
    </g>
    <g id="ytick_7">
     <g id="line2d_13">
      <g>
       <use xlink:href="#m0f0a783141" x="55.772054" y="379.301433" style="stroke: #000000; stroke-width: 0.6"/>
      </g>
     </g>
    </g>
    <g id="ytick_8">
     <g id="line2d_14">
      <g>
       <use xlink:href="#m0f0a783141" x="55.772054" y="374.537565" style="stroke: #000000; stroke-width: 0.6"/>
      </g>
     </g>
    </g>
    <g id="ytick_9">
     <g id="line2d_15">
      <g>
       <use xlink:href="#m0f0a783141" x="55.772054" y="370.410915" style="stroke: #000000; stroke-width: 0.6"/>
      </g>
     </g>
    </g>
    <g id="ytick_10">
     <g id="line2d_16">
      <g>
       <use xlink:href="#m0f0a783141" x="55.772054" y="366.770952" style="stroke: #000000; stroke-width: 0.6"/>
      </g>
     </g>
    </g>
    <g id="ytick_11">
     <g id="line2d_17">
      <g>
       <use xlink:href="#m0f0a783141" x="55.772054" y="342.093895" style="stroke: #000000; stroke-width: 0.6"/>
      </g>
     </g>
    </g>
    <g id="ytick_12">
     <g id="line2d_18">
      <g>
       <use xlink:href="#m0f0a783141" x="55.772054" y="329.563413" style="stroke: #000000; stroke-width: 0.6"/>
      </g>
     </g>
    </g>
    <g id="ytick_13">
     <g id="line2d_19">
      <g>
       <use xlink:href="#m0f0a783141" x="55.772054" y="320.672895" style="stroke: #000000; stroke-width: 0.6"/>
      </g>
     </g>
    </g>
    <g id="ytick_14">
     <g id="line2d_20">
      <g>
       <use xlink:href="#m0f0a783141" x="55.772054" y="313.776874" style="stroke: #000000; stroke-width: 0.6"/>
      </g>
     </g>
    </g>
    <g id="ytick_15">
     <g id="line2d_21">
      <g>
       <use xlink:href="#m0f0a783141" x="55.772054" y="308.142414" style="stroke: #000000; stroke-width: 0.6"/>
      </g>
     </g>
    </g>
    <g id="ytick_16">
     <g id="line2d_22">
      <g>
       <use xlink:href="#m0f0a783141" x="55.772054" y="303.378546" style="stroke: #000000; stroke-width: 0.6"/>
      </g>
     </g>
    </g>
    <g id="ytick_17">
     <g id="line2d_23">
      <g>
       <use xlink:href="#m0f0a783141" x="55.772054" y="299.251896" style="stroke: #000000; stroke-width: 0.6"/>
      </g>
     </g>
    </g>
    <g id="ytick_18">
     <g id="line2d_24">
      <g>
       <use xlink:href="#m0f0a783141" x="55.772054" y="295.611933" style="stroke: #000000; stroke-width: 0.6"/>
      </g>
     </g>
    </g>
    <g id="ytick_19">
     <g id="line2d_25">
      <g>
       <use xlink:href="#m0f0a783141" x="55.772054" y="270.934876" style="stroke: #000000; stroke-width: 0.6"/>
      </g>
     </g>
    </g>
    <g id="ytick_20">
     <g id="line2d_26">
      <g>
       <use xlink:href="#m0f0a783141" x="55.772054" y="258.404394" style="stroke: #000000; stroke-width: 0.6"/>
      </g>
     </g>
    </g>
    <g id="ytick_21">
     <g id="line2d_27">
      <g>
       <use xlink:href="#m0f0a783141" x="55.772054" y="249.513877" style="stroke: #000000; stroke-width: 0.6"/>
      </g>
     </g>
    </g>
    <g id="ytick_22">
     <g id="line2d_28">
      <g>
       <use xlink:href="#m0f0a783141" x="55.772054" y="242.617855" style="stroke: #000000; stroke-width: 0.6"/>
      </g>
     </g>
    </g>
    <g id="ytick_23">
     <g id="line2d_29">
      <g>
       <use xlink:href="#m0f0a783141" x="55.772054" y="236.983395" style="stroke: #000000; stroke-width: 0.6"/>
      </g>
     </g>
    </g>
    <g id="ytick_24">
     <g id="line2d_30">
      <g>
       <use xlink:href="#m0f0a783141" x="55.772054" y="232.219527" style="stroke: #000000; stroke-width: 0.6"/>
      </g>
     </g>
    </g>
    <g id="ytick_25">
     <g id="line2d_31">
      <g>
       <use xlink:href="#m0f0a783141" x="55.772054" y="228.092877" style="stroke: #000000; stroke-width: 0.6"/>
      </g>
     </g>
    </g>
    <g id="ytick_26">
     <g id="line2d_32">
      <g>
       <use xlink:href="#m0f0a783141" x="55.772054" y="224.452914" style="stroke: #000000; stroke-width: 0.6"/>
      </g>
     </g>
    </g>
    <g id="ytick_27">
     <g id="line2d_33">
      <g>
       <use xlink:href="#m0f0a783141" x="55.772054" y="199.775857" style="stroke: #000000; stroke-width: 0.6"/>
      </g>
     </g>
    </g>
    <g id="ytick_28">
     <g id="line2d_34">
      <g>
       <use xlink:href="#m0f0a783141" x="55.772054" y="187.245376" style="stroke: #000000; stroke-width: 0.6"/>
      </g>
     </g>
    </g>
    <g id="ytick_29">
     <g id="line2d_35">
      <g>
       <use xlink:href="#m0f0a783141" x="55.772054" y="178.354858" style="stroke: #000000; stroke-width: 0.6"/>
      </g>
     </g>
    </g>
    <g id="ytick_30">
     <g id="line2d_36">
      <g>
       <use xlink:href="#m0f0a783141" x="55.772054" y="171.458836" style="stroke: #000000; stroke-width: 0.6"/>
      </g>
     </g>
    </g>
    <g id="ytick_31">
     <g id="line2d_37">
      <g>
       <use xlink:href="#m0f0a783141" x="55.772054" y="165.824376" style="stroke: #000000; stroke-width: 0.6"/>
      </g>
     </g>
    </g>
    <g id="ytick_32">
     <g id="line2d_38">
      <g>
       <use xlink:href="#m0f0a783141" x="55.772054" y="161.060509" style="stroke: #000000; stroke-width: 0.6"/>
      </g>
     </g>
    </g>
    <g id="ytick_33">
     <g id="line2d_39">
      <g>
       <use xlink:href="#m0f0a783141" x="55.772054" y="156.933859" style="stroke: #000000; stroke-width: 0.6"/>
      </g>
     </g>
    </g>
    <g id="ytick_34">
     <g id="line2d_40">
      <g>
       <use xlink:href="#m0f0a783141" x="55.772054" y="153.293895" style="stroke: #000000; stroke-width: 0.6"/>
      </g>
     </g>
    </g>
    <g id="ytick_35">
     <g id="line2d_41">
      <g>
       <use xlink:href="#m0f0a783141" x="55.772054" y="128.616838" style="stroke: #000000; stroke-width: 0.6"/>
      </g>
     </g>
    </g>
    <g id="ytick_36">
     <g id="line2d_42">
      <g>
       <use xlink:href="#m0f0a783141" x="55.772054" y="116.086357" style="stroke: #000000; stroke-width: 0.6"/>
      </g>
     </g>
    </g>
    <g id="ytick_37">
     <g id="line2d_43">
      <g>
       <use xlink:href="#m0f0a783141" x="55.772054" y="107.195839" style="stroke: #000000; stroke-width: 0.6"/>
      </g>
     </g>
    </g>
    <g id="ytick_38">
     <g id="line2d_44">
      <g>
       <use xlink:href="#m0f0a783141" x="55.772054" y="100.299817" style="stroke: #000000; stroke-width: 0.6"/>
      </g>
     </g>
    </g>
    <g id="ytick_39">
     <g id="line2d_45">
      <g>
       <use xlink:href="#m0f0a783141" x="55.772054" y="94.665358" style="stroke: #000000; stroke-width: 0.6"/>
      </g>
     </g>
    </g>
    <g id="ytick_40">
     <g id="line2d_46">
      <g>
       <use xlink:href="#m0f0a783141" x="55.772054" y="89.90149" style="stroke: #000000; stroke-width: 0.6"/>
      </g>
     </g>
    </g>
    <g id="ytick_41">
     <g id="line2d_47">
      <g>
       <use xlink:href="#m0f0a783141" x="55.772054" y="85.77484" style="stroke: #000000; stroke-width: 0.6"/>
      </g>
     </g>
    </g>
    <g id="ytick_42">
     <g id="line2d_48">
      <g>
       <use xlink:href="#m0f0a783141" x="55.772054" y="82.134876" style="stroke: #000000; stroke-width: 0.6"/>
      </g>
     </g>
    </g>
    <g id="ytick_43">
     <g id="line2d_49">
      <g>
       <use xlink:href="#m0f0a783141" x="55.772054" y="57.457819" style="stroke: #000000; stroke-width: 0.6"/>
      </g>
     </g>
    </g>
    <g id="ytick_44">
     <g id="line2d_50">
      <g>
       <use xlink:href="#m0f0a783141" x="55.772054" y="44.927338" style="stroke: #000000; stroke-width: 0.6"/>
      </g>
     </g>
    </g>
    <g id="text_13">
     <!-- Duration (ms) -->
     <g transform="translate(19.192366 250.62925) rotate(-90) scale(0.1 -0.1)">
      <defs>
       <path id="DejaVuSans-44" d="M 1259 4147 
L 1259 519 
L 2022 519 
Q 2988 519 3436 956 
Q 3884 1394 3884 2338 
Q 3884 3275 3436 3711 
Q 2988 4147 2022 4147 
L 1259 4147 
z
M 628 4666 
L 1925 4666 
Q 3281 4666 3915 4102 
Q 4550 3538 4550 2338 
Q 4550 1131 3912 565 
Q 3275 0 1925 0 
L 628 0 
L 628 4666 
z
" transform="scale(0.015625)"/>
       <path id="DejaVuSans-75" d="M 544 1381 
L 544 3500 
L 1119 3500 
L 1119 1403 
Q 1119 906 1312 657 
Q 1506 409 1894 409 
Q 2359 409 2629 706 
Q 2900 1003 2900 1516 
L 2900 3500 
L 3475 3500 
L 3475 0 
L 2900 0 
L 2900 538 
Q 2691 219 2414 64 
Q 2138 -91 1772 -91 
Q 1169 -91 856 284 
Q 544 659 544 1381 
z
M 1991 3584 
L 1991 3584 
z
" transform="scale(0.015625)"/>
       <path id="DejaVuSans-61" d="M 2194 1759 
Q 1497 1759 1228 1600 
Q 959 1441 959 1056 
Q 959 750 1161 570 
Q 1363 391 1709 391 
Q 2188 391 2477 730 
Q 2766 1069 2766 1631 
L 2766 1759 
L 2194 1759 
z
M 3341 1997 
L 3341 0 
L 2766 0 
L 2766 531 
Q 2569 213 2275 61 
Q 1981 -91 1556 -91 
Q 1019 -91 701 211 
Q 384 513 384 1019 
Q 384 1609 779 1909 
Q 1175 2209 1959 2209 
L 2766 2209 
L 2766 2266 
Q 2766 2663 2505 2880 
Q 2244 3097 1772 3097 
Q 1472 3097 1187 3025 
Q 903 2953 641 2809 
L 641 3341 
Q 956 3463 1253 3523 
Q 1550 3584 1831 3584 
Q 2591 3584 2966 3190 
Q 3341 2797 3341 1997 
z
" transform="scale(0.015625)"/>
       <path id="DejaVuSans-6f" d="M 1959 3097 
Q 1497 3097 1228 2736 
Q 959 2375 959 1747 
Q 959 1119 1226 758 
Q 1494 397 1959 397 
Q 2419 397 2687 759 
Q 2956 1122 2956 1747 
Q 2956 2369 2687 2733 
Q 2419 3097 1959 3097 
z
M 1959 3584 
Q 2709 3584 3137 3096 
Q 3566 2609 3566 1747 
Q 3566 888 3137 398 
Q 2709 -91 1959 -91 
Q 1206 -91 779 398 
Q 353 888 353 1747 
Q 353 2609 779 3096 
Q 1206 3584 1959 3584 
z
" transform="scale(0.015625)"/>
       <path id="DejaVuSans-6d" d="M 3328 2828 
Q 3544 3216 3844 3400 
Q 4144 3584 4550 3584 
Q 5097 3584 5394 3201 
Q 5691 2819 5691 2113 
L 5691 0 
L 5113 0 
L 5113 2094 
Q 5113 2597 4934 2840 
Q 4756 3084 4391 3084 
Q 3944 3084 3684 2787 
Q 3425 2491 3425 1978 
L 3425 0 
L 2847 0 
L 2847 2094 
Q 2847 2600 2669 2842 
Q 2491 3084 2119 3084 
Q 1678 3084 1418 2786 
Q 1159 2488 1159 1978 
L 1159 0 
L 581 0 
L 581 3500 
L 1159 3500 
L 1159 2956 
Q 1356 3278 1631 3431 
Q 1906 3584 2284 3584 
Q 2666 3584 2933 3390 
Q 3200 3197 3328 2828 
z
" transform="scale(0.015625)"/>
       <path id="DejaVuSans-73" d="M 2834 3397 
L 2834 2853 
Q 2591 2978 2328 3040 
Q 2066 3103 1784 3103 
Q 1356 3103 1142 2972 
Q 928 2841 928 2578 
Q 928 2378 1081 2264 
Q 1234 2150 1697 2047 
L 1894 2003 
Q 2506 1872 2764 1633 
Q 3022 1394 3022 966 
Q 3022 478 2636 193 
Q 2250 -91 1575 -91 
Q 1294 -91 989 -36 
Q 684 19 347 128 
L 347 722 
Q 666 556 975 473 
Q 1284 391 1588 391 
Q 1994 391 2212 530 
Q 2431 669 2431 922 
Q 2431 1156 2273 1281 
Q 2116 1406 1581 1522 
L 1381 1569 
Q 847 1681 609 1914 
Q 372 2147 372 2553 
Q 372 3047 722 3315 
Q 1072 3584 1716 3584 
Q 2034 3584 2315 3537 
Q 2597 3491 2834 3397 
z
" transform="scale(0.015625)"/>
      </defs>
      <use xlink:href="#DejaVuSans-44"/>
      <use xlink:href="#DejaVuSans-75" transform="translate(77.001953 0)"/>
      <use xlink:href="#DejaVuSans-72" transform="translate(140.380859 0)"/>
      <use xlink:href="#DejaVuSans-61" transform="translate(181.494141 0)"/>
      <use xlink:href="#DejaVuSans-74" transform="translate(242.773438 0)"/>
      <use xlink:href="#DejaVuSans-69" transform="translate(281.982422 0)"/>
      <use xlink:href="#DejaVuSans-6f" transform="translate(309.765625 0)"/>
      <use xlink:href="#DejaVuSans-6e" transform="translate(370.947266 0)"/>
      <use xlink:href="#DejaVuSans-20" transform="translate(434.326172 0)"/>
      <use xlink:href="#DejaVuSans-28" transform="translate(466.113281 0)"/>
      <use xlink:href="#DejaVuSans-6d" transform="translate(505.126953 0)"/>
      <use xlink:href="#DejaVuSans-73" transform="translate(602.539062 0)"/>
      <use xlink:href="#DejaVuSans-29" transform="translate(654.638672 0)"/>
     </g>
    </g>
   </g>
   <g id="line2d_51">
    <path d="M 92.210231 433 
L 92.32047 351.057019 
L 92.332073 350.614958 
L 92.390091 342.25548 
L 92.761402 297.418738 
L 92.784609 297.358074 
L 92.999274 295.786621 
L 93.022481 295.680341 
L 93.300965 294.70495 
L 93.364784 294.583913 
L 93.985571 292.713767 
L 94.072597 292.533557 
L 94.304667 292.090318 
L 94.385891 291.973709 
L 94.606358 291.633535 
L 94.751402 291.376991 
L 94.931256 291.116414 
L 95.232946 290.408746 
L 95.314171 290.22844 
L 95.94076 288.81849 
L 96.097407 288.371195 
L 96.161226 288.227255 
L 96.335278 287.677066 
L 96.387494 287.556338 
L 96.764608 286.627995 
L 97.060497 285.939126 
L 97.385395 285.001758 
L 97.455016 284.876779 
L 97.640671 284.425128 
L 98.325278 282.099146 
L 98.551546 279.841715 
L 98.917056 275.462405 
L 98.975073 275.322002 
L 99.207143 274.685837 
L 99.392799 274.480517 
L 99.769913 274.191105 
L 100.419708 273.785281 
L 102.08481 273.251707 
L 102.560553 273.135591 
L 109.383407 272.193846 
L 111.715709 271.967088 
L 112.133435 271.928432 
L 113.699907 271.787441 
L 115.057516 271.672874 
L 118.480546 271.431265 
L 120.464744 271.300898 
L 122.234276 271.190657 
L 123.116142 271.144854 
L 127.043925 270.928448 
L 129.933195 270.770303 
L 132.41054 270.639582 
L 135.044534 270.500741 
L 137.272404 270.378148 
L 138.270305 270.330926 
L 145.946016 269.979444 
L 147.2224 269.923045 
L 150.163886 269.78933 
L 153.33164 269.656576 
L 156.45298 269.53 
L 158.007848 269.471172 
L 167.598135 269.092166 
L 169.24003 269.026523 
L 174.206325 268.840922 
L 175.894633 268.784198 
L 178.783903 268.673271 
L 193.247658 268.211594 
L 210.269984 267.783089 
L 218.862371 267.61017 
L 220.875577 267.572201 
L 236.870993 267.301121 
L 245.09787 267.190181 
L 247.180697 267.163856 
L 255.279936 267.064965 
L 264.139203 266.954135 
L 266.059581 266.93029 
L 281.86354 266.745261 
L 360.877531 265.715358 
L 377.284871 265.42044 
L 383.782827 265.295034 
L 387.461135 265.218526 
L 394.051919 265.078398 
L 394.678508 265.062894 
L 402.15696 264.885927 
L 474.806434 262.70702 
L 475.804334 262.666589 
L 479.122934 262.541983 
L 482.783836 262.393748 
L 488.864067 262.147575 
L 500.119456 261.672061 
L 502.631612 261.561079 
L 507.191785 261.367412 
L 513.921811 261.045881 
L 514.995135 260.991811 
L 536.606642 259.921268 
L 537.941043 259.854141 
L 547.745996 259.323316 
L 550.391592 259.18298 
L 552.880542 259.058437 
L 554.563048 258.96267 
L 557.603164 258.785681 
L 560.933366 258.585734 
L 562.923365 258.471519 
L 565.19765 258.340366 
L 572.008901 257.929341 
L 572.380213 257.905573 
L 573.871262 257.793879 
L 576.35441 257.641415 
L 577.804846 257.531051 
L 578.698315 257.470654 
L 580.467848 257.344738 
L 587.441548 256.857954 
L 589.73904 256.696856 
L 590.307611 256.646307 
L 592.216385 256.487284 
L 599.915304 255.862463 
L 601.191688 255.742815 
L 602.618918 255.624985 
L 604.051949 255.492832 
L 605.589412 255.357116 
L 605.989733 255.325742 
L 608.397457 255.125837 
L 609.540402 255.017771 
L 611.733462 254.824071 
L 612.1918 254.773076 
L 613.363753 254.658559 
L 616.235618 254.372248 
L 616.838999 254.31923 
L 618.852205 254.136503 
L 620.789989 253.916358 
L 621.996752 253.788797 
L 628.92984 253.074487 
L 629.370772 253.022964 
L 632.967855 252.612101 
L 633.553832 252.549365 
L 634.60975 252.430285 
L 635.155114 252.372119 
L 635.949953 252.287447 
L 637.249545 252.167138 
L 637.783305 252.106449 
L 638.903043 251.970492 
L 640.243246 251.829725 
L 640.608756 251.782795 
L 644.490125 251.299109 
L 645.789716 251.141011 
L 647.425809 250.954305 
L 659.661693 249.511273 
L 660.729214 249.370883 
L 662.550963 249.116796 
L 664.233469 248.906374 
L 687.602906 245.439376 
L 687.858183 245.399766 
L 688.699436 245.267738 
L 690.30652 244.985769 
L 691.356636 244.794056 
L 691.611913 244.749059 
L 692.516985 244.578786 
L 692.940513 244.49421 
L 693.880396 244.338593 
L 694.245906 244.27293 
L 695.446868 244.089322 
L 696.647829 243.87426 
L 697.431065 243.737059 
L 697.651531 243.698624 
L 698.591414 243.532549 
L 699.293426 243.428435 
L 700.036049 243.306072 
L 701.358848 243.088886 
L 702.519197 242.880066 
L 705.466484 242.375366 
L 706.110478 242.264561 
L 714.424382 240.923637 
L 715.312049 240.789931 
L 716.228725 240.642303 
L 717.934438 240.378369 
L 718.160707 240.342179 
L 719.796799 240.065332 
L 720.580035 239.951163 
L 726.57324 239.025743 
L 727.53633 238.868523 
L 728.255746 238.754811 
L 735.844431 237.429824 
L 736.186734 237.3578 
L 736.998979 237.213459 
L 737.46892 237.13366 
L 738.072302 237.020564 
L 739.255858 236.839153 
L 739.661981 236.766491 
L 740.35819 236.636505 
L 740.996382 236.514424 
L 741.559152 236.401516 
L 742.278568 236.248217 
L 742.88195 236.099514 
L 744.84294 235.704399 
L 745.016993 235.659214 
L 745.724806 235.480619 
L 746.217954 235.369013 
L 746.693698 235.262014 
L 746.908362 235.214036 
L 747.854047 235.021032 
L 748.126729 234.9605 
L 763.356315 230.998572 
L 763.779842 230.849718 
L 764.447043 230.651646 
L 764.766139 230.548526 
L 765.439142 230.347814 
L 765.711824 230.27982 
L 767.504564 229.718929 
L 768.357421 229.457737 
L 768.751939 229.335098 
L 768.955 229.248124 
L 769.372726 229.118448 
L 769.935496 228.918118 
L 770.805758 228.602612 
L 771.026224 228.519764 
L 771.449752 228.396844 
L 771.919693 228.207857 
L 772.227186 228.094523 
L 772.581092 227.977327 
L 772.876981 227.873233 
L 773.207681 227.748662 
L 774.983015 227.080621 
L 775.238292 226.960348 
L 775.766251 226.764007 
L 776.381236 226.516893 
L 776.590099 226.408095 
L 776.961411 226.260109 
L 777.106455 226.188487 
L 777.413947 226.060227 
L 778.005726 225.799937 
L 778.226192 225.714533 
L 779.949311 224.997131 
L 780.088553 224.938799 
L 780.34383 224.825139 
L 780.726745 224.65336 
L 784.294819 223.008462 
L 784.439863 222.931186 
L 784.654528 222.81572 
L 784.805373 222.734197 
L 785.275314 222.489743 
L 786.029542 222.095418 
L 792.695749 218.437652 
L 792.968431 218.295963 
L 793.246915 218.104122 
L 793.600821 217.889233 
L 795.376156 216.781893 
L 795.666243 216.585578 
L 795.967934 216.414763 
L 796.112978 216.325995 
L 796.861403 215.746088 
L 797.192103 215.508634 
L 797.371957 215.389655 
L 797.540207 215.236846 
L 798.468487 214.446309 
L 798.741169 214.278149 
L 803.034462 210.57662 
L 803.196911 210.424473 
L 803.318747 210.313233 
L 803.510205 210.093967 
L 804.774986 208.863566 
L 805.465394 208.019328 
L 805.581428 207.901295 
L 805.761283 207.657876 
L 805.830904 207.567269 
L 805.975947 207.372474 
L 806.132594 207.165259 
L 806.370466 206.898133 
L 806.445889 206.805302 
L 806.608338 206.521372 
L 806.724373 206.407417 
L 806.91583 206.148161 
L 808.261836 204.578145 
L 808.4765 204.208889 
L 808.569328 204.090372 
L 809.021864 203.323471 
L 809.422185 202.703307 
L 809.526616 202.573768 
L 810.060377 201.620378 
L 810.159007 201.457676 
L 810.431689 200.808013 
L 810.495508 200.661239 
L 810.832009 200.074839 
L 810.930639 199.947426 
L 811.394779 198.870304 
L 811.789298 197.715409 
L 811.934341 197.233277 
L 813.088889 193.699597 
L 813.233933 192.998924 
L 813.25714 192.879507 
L 813.570434 190.986619 
L 813.593641 190.845125 
L 813.796702 189.959838 
L 814.011367 189.010472 
L 814.144807 188.389769 
L 814.185419 188.324384 
L 814.330463 187.6668 
L 814.394282 187.355273 
L 814.539326 186.47027 
L 814.649559 186.17918 
L 815.18332 183.79662 
L 815.386381 183.00845 
L 815.647459 181.643505 
L 815.705477 181.22159 
L 816.117401 176.52028 
L 816.285651 174.519668 
L 816.372678 172.669561 
L 816.622153 162.802109 
L 816.796205 108.369314 
L 816.952852 92.507066 
L 816.952852 92.507066 
" clip-path="url(#pa7dd27410e)" style="fill: none; stroke: #1f77b4; stroke-width: 1.5; stroke-linecap: square"/>
   </g>
   <g id="line2d_52">
    <path d="M 92.263172 433 
L 92.369086 363.204329 
L 92.532019 345.574996 
L 92.654219 297.140548 
L 93.077846 294.310774 
L 93.21634 294.015398 
L 93.354833 293.480796 
L 93.420007 293.348139 
L 93.916954 292.266537 
L 94.837528 290.462939 
L 95.041195 290.047688 
L 95.505555 289.258737 
L 96.018795 288.240777 
L 96.067675 288.169877 
L 96.246902 287.728613 
L 96.328369 287.560148 
L 96.548329 287.108402 
L 96.662383 286.954821 
L 96.800876 286.725484 
L 96.939369 286.493031 
L 97.077863 286.295672 
L 97.265236 285.894262 
L 97.362996 285.747183 
L 97.591103 285.196368 
L 97.680717 285.038197 
L 97.884384 284.589581 
L 98.462797 282.502616 
L 98.788664 279.73547 
L 98.853838 278.859427 
L 98.992331 274.473465 
L 99.187851 273.221293 
L 99.619625 272.603987 
L 99.717385 272.490551 
L 100.303946 272.083843 
L 100.597226 271.894941 
L 100.752013 271.815616 
L 105.75407 270.233464 
L 106.633911 270.023717 
L 106.951631 269.931855 
L 109.640033 269.365804 
L 110.454701 269.226402 
L 111.285661 269.06273 
L 111.611528 268.992448 
L 113.46897 268.646728 
L 120.654336 267.632435 
L 122.267377 267.482857 
L 133.363146 266.840912 
L 136.222628 266.721698 
L 136.638109 266.699109 
L 152.727789 266.002959 
L 155.530244 265.856051 
L 157.680966 265.734614 
L 159.758368 265.597019 
L 161.265502 265.487344 
L 164.662665 265.214725 
L 165.346986 265.138505 
L 166.723773 265.001862 
L 167.399947 264.921128 
L 169.029282 264.746575 
L 169.575109 264.685356 
L 171.008924 264.54581 
L 171.978378 264.446334 
L 173.135205 264.29629 
L 174.7401 264.106125 
L 175.717701 263.968831 
L 176.222795 263.892863 
L 179.603664 263.405273 
L 179.945824 263.35861 
L 180.825665 263.233103 
L 181.127092 263.184438 
L 183.970281 262.779805 
L 184.947882 262.654471 
L 185.770696 262.536873 
L 186.47131 262.432415 
L 188.418365 262.170793 
L 188.719791 262.119786 
L 191.131207 261.760342 
L 191.310434 261.731981 
L 192.255448 261.587274 
L 193.363395 261.418974 
L 195.872571 260.992707 
L 196.141411 260.951358 
L 197.925532 260.64303 
L 198.927573 260.481907 
L 199.098653 260.451877 
L 199.742241 260.365494 
L 201.143468 260.153351 
L 201.485629 260.102071 
L 202.129216 259.989799 
L 203.375657 259.764318 
L 204.499898 259.581333 
L 205.363445 259.413928 
L 206.438806 259.235359 
L 209.216822 258.784284 
L 222.528486 256.219787 
L 223.017286 256.09964 
L 223.872687 255.901597 
L 224.076354 255.854571 
L 224.695501 255.72817 
L 226.609969 255.288494 
L 227.497957 255.06588 
L 227.726064 255.012528 
L 231.01732 254.175343 
L 231.449093 254.054772 
L 232.328934 253.810435 
L 232.858468 253.631133 
L 233.534642 253.422199 
L 235.530577 252.769179 
L 235.93791 252.639316 
L 236.328951 252.522367 
L 237.168058 252.274519 
L 238.398206 251.907365 
L 238.935886 251.784675 
L 239.34322 251.619158 
L 239.78314 251.471928 
L 243.017369 250.469296 
L 243.31065 250.357921 
L 243.546903 250.286869 
L 243.905357 250.147446 
L 244.149757 250.079 
L 245.306585 249.732008 
L 245.469518 249.659638 
L 246.292332 249.372513 
L 246.805573 249.202111 
L 247.017386 249.106707 
L 247.269933 248.993532 
L 247.44916 248.909162 
L 248.850388 248.360135 
L 249.184401 248.267944 
L 249.827988 248.076099 
L 259.59585 244.629029 
L 259.823957 244.542428 
L 260.679357 244.242656 
L 261.054104 244.072175 
L 261.388118 243.900857 
L 261.591785 243.781324 
L 261.860625 243.65295 
L 262.292399 243.528315 
L 262.773052 243.3229 
L 263.074479 243.20925 
L 263.253706 243.09011 
L 263.669186 242.977492 
L 263.815826 242.917108 
L 264.377947 242.720298 
L 265.005241 242.494116 
L 265.632535 242.273758 
L 272.42686 240.081936 
L 273.966581 239.67591 
L 274.512409 239.453498 
L 274.993062 239.325302 
L 275.245609 239.228954 
L 275.97881 238.970366 
L 276.19877 238.887565 
L 276.671277 238.738179 
L 277.005291 238.615713 
L 277.192664 238.563433 
L 277.575558 238.452348 
L 277.754785 238.382253 
L 278.031771 238.287802 
L 278.430958 238.15317 
L 278.577599 238.083093 
L 279.669253 237.71045 
L 280.133613 237.577617 
L 280.48392 237.455628 
L 282.178428 236.838866 
L 282.357655 236.784019 
L 282.659082 236.652777 
L 283.123442 236.486702 
L 283.522629 236.337056 
L 284.003283 236.145162 
L 285.502271 235.546112 
L 285.754818 235.402572 
L 286.357672 235.209192 
L 286.545045 235.147383 
L 287.033846 234.962473 
L 287.376006 234.819921 
L 287.644846 234.728934 
L 287.8811 234.610927 
L 290.895369 233.401572 
L 291.327142 233.229166 
L 291.506369 233.161694 
L 293.160144 232.515053 
L 293.445277 232.37763 
L 293.852611 232.173118 
L 294.072571 232.087018 
L 294.414732 231.932626 
L 294.879092 231.695194 
L 295.115346 231.578064 
L 295.449359 231.398383 
L 295.620439 231.276238 
L 296.35364 230.938136 
L 297.160161 230.565813 
L 297.298654 230.485198 
L 297.624521 230.27608 
L 297.966681 230.127748 
L 300.10111 228.923986 
L 300.29663 228.804573 
L 300.818017 228.489973 
L 300.989097 228.412101 
L 301.298671 228.252526 
L 301.494191 228.034493 
L 301.787471 227.875197 
L 302.088898 227.606081 
L 302.789512 227.105664 
L 303.033912 226.867537 
L 303.196845 226.745807 
L 309.168357 221.883537 
L 309.339437 221.721824 
L 309.526811 221.586094 
L 309.868971 221.27197 
L 310.162251 221.000736 
L 310.292598 220.894823 
L 310.463678 220.724724 
L 311.009505 220.133217 
L 311.433132 219.722844 
L 311.628652 219.586242 
L 312.052279 219.234384 
L 312.207066 219.080538 
L 312.329266 218.977705 
L 312.728453 218.610966 
L 313.046174 218.371675 
L 313.315014 218.106985 
L 313.494241 217.996916 
L 313.974894 217.584672 
L 314.292615 217.349241 
L 314.520721 217.074769 
L 315.343535 216.282061 
L 315.701989 215.867196 
L 315.840483 215.773157 
L 316.101176 215.483632 
L 316.26411 215.266207 
L 316.99731 214.433293 
L 317.200977 214.243841 
L 317.331324 214.008045 
L 317.396497 213.902751 
L 317.640897 213.586713 
L 317.844564 213.286235 
L 317.999351 213.019905 
L 318.243751 212.804437 
L 318.422978 212.563338 
L 318.512591 212.387252 
L 318.659232 212.158943 
L 318.911778 211.835975 
L 319.294672 211.219417 
L 319.400579 211.055287 
L 319.571659 210.807211 
L 319.669419 210.672541 
L 319.954553 210.041125 
L 320.62258 209.204189 
L 320.728487 209.008114 
L 321.046207 208.627565 
L 321.200994 208.497301 
L 328.883307 197.718099 
L 329.029947 197.495272 
L 329.355814 196.918876 
L 329.396547 196.791263 
L 329.592067 196.487051 
L 329.730561 196.21192 
L 329.877201 196.057174 
L 330.031988 195.824838 
L 330.276388 195.438872 
L 330.382294 195.285519 
L 330.667428 194.824897 
L 330.919975 194.520379 
L 331.490242 193.64756 
L 331.547269 193.532884 
L 331.693909 193.222069 
L 332.50043 192.208029 
L 332.565603 192.139672 
L 332.69595 191.942534 
L 332.777416 191.770492 
L 332.907763 191.554023 
L 333.078843 191.140806 
L 333.152163 191.01568 
L 333.40471 190.511386 
L 333.469884 190.38304 
L 333.632817 190.109824 
L 333.763164 189.960744 
L 334.023857 189.59011 
L 334.186791 189.392993 
L 334.838525 188.161233 
L 334.944432 187.968388 
L 335.205125 187.4746 
L 335.351765 187.255304 
L 335.506552 186.788721 
L 335.645045 186.593223 
L 335.865006 186.106758 
L 335.922032 185.978044 
L 336.329366 185.164414 
L 336.630793 184.626513 
L 338.805955 180.372412 
L 338.985182 180.100106 
L 339.376222 179.557802 
L 339.433249 179.455239 
L 339.579889 179.016344 
L 341.21737 176.130591 
L 341.502504 175.378501 
L 341.592117 175.232123 
L 341.836517 174.693164 
L 341.901691 174.585494 
L 342.048331 174.410854 
L 342.129797 174.270229 
L 342.414931 173.759707 
L 342.496398 173.665486 
L 342.651185 173.448901 
L 342.993345 172.980316 
L 343.197012 172.579914 
L 343.286625 172.465284 
L 343.555465 172.095554 
L 343.726545 171.892759 
L 343.922066 171.505285 
L 344.019826 171.328146 
L 344.207199 171.071129 
L 344.541213 170.690954 
L 344.801906 170.415732 
L 344.981133 170.209329 
L 345.1848 169.861524 
L 346.333481 168.728801 
L 346.439388 168.620936 
L 346.586028 168.435685 
L 346.879308 168.107775 
L 347.115562 167.708762 
L 347.661389 167.150385 
L 347.824322 166.921993 
L 347.897642 166.806411 
L 348.321269 166.440547 
L 348.565669 166.180909 
L 348.73675 166.043895 
L 348.842656 165.906724 
L 349.07891 165.520456 
L 349.17667 165.407324 
L 349.34775 165.240737 
L 349.624737 165.034416 
L 349.83655 164.845341 
L 350.048364 164.669112 
L 350.675658 164.131925 
L 351.465885 163.36248 
L 351.612525 163.185193 
L 351.816192 162.96001 
L 351.970979 162.782004 
L 352.199086 162.6348 
L 352.630859 162.335655 
L 353.19298 161.994784 
L 353.616607 161.818485 
L 354.105407 161.577052 
L 354.366101 161.460426 
L 355.775475 160.749529 
L 356.166516 160.606665 
L 356.476089 160.495252 
L 356.875276 160.37714 
L 364.541296 158.30359 
L 365.030096 158.192275 
L 365.958817 157.960383 
L 366.235804 157.899281 
L 369.298953 157.266674 
L 369.983274 157.148483 
L 370.667594 157.015417 
L 375.294905 156.221382 
L 376.166599 156.05795 
L 376.924239 155.930524 
L 377.11976 155.880763 
L 378.797974 155.618301 
L 379.718548 155.467701 
L 380.533216 155.364313 
L 381.755217 155.203017 
L 388.777649 154.29394 
L 389.673783 154.179772 
L 389.893743 154.143241 
L 390.944664 154.003596 
L 391.254238 153.962857 
L 392.419212 153.802706 
L 392.769519 153.75694 
L 394.024107 153.599275 
L 395.425335 153.423348 
L 396.411082 153.277892 
L 398.064857 153.052211 
L 399.335738 152.86986 
L 402.56182 152.455523 
L 403.767528 152.319829 
L 422.390823 149.842075 
L 422.936651 149.749012 
L 423.914251 149.593449 
L 433.405126 148.217968 
L 433.592499 148.182222 
L 434.39902 148.037526 
L 435.229981 147.879886 
L 435.824688 147.75646 
L 436.346075 147.648476 
L 436.891902 147.530736 
L 438.447917 147.221835 
L 439.352197 146.987986 
L 439.849144 146.876016 
L 441.217786 146.515167 
L 441.796199 146.320099 
L 442.38276 146.20429 
L 442.879707 146.066924 
L 443.295187 145.954348 
L 443.474414 145.881668 
L 443.743254 145.791473 
L 445.388882 145.162489 
L 445.641429 145.04591 
L 446.39907 144.690812 
L 446.684203 144.56117 
L 449.559979 142.655143 
L 449.739206 142.51189 
L 449.910286 142.356535 
L 450.480553 141.428304 
L 450.53758 141.316639 
L 450.741247 140.972227 
L 450.822713 140.755164 
L 451.425567 138.932218 
L 451.572207 138.357494 
L 451.694407 138.225282 
L 451.832901 137.881092 
L 451.995834 137.703523 
L 452.028421 137.665204 
L 452.183208 137.215293 
L 452.354288 136.833406 
L 452.663862 136.265053 
L 452.761622 136.121868 
L 453.217835 135.423156 
L 453.307449 135.263576 
L 453.511116 135.020559 
L 453.739222 134.777575 
L 453.885863 134.551298 
L 455.645544 133.040327 
L 455.841064 132.890537 
L 456.028438 132.733728 
L 456.761638 132.384456 
L 457.380785 132.160428 
L 457.771826 131.981476 
L 458.76572 131.676673 
L 459.01012 131.601228 
L 459.629267 131.440993 
L 460.093628 131.342239 
L 460.590575 131.225416 
L 461.266749 131.086029 
L 463.091603 130.782709 
L 472.004064 129.604643 
L 472.777998 129.484708 
L 473.030545 129.446371 
L 475.523427 129.188917 
L 476.558055 129.065755 
L 477.633415 128.954613 
L 479.026497 128.820567 
L 485.030595 128.199335 
L 485.763795 128.131895 
L 487.352397 127.985904 
L 487.914517 127.93548 
L 489.022465 127.809362 
L 491.050986 127.618626 
L 498.8555 126.800786 
L 500.297461 126.662276 
L 501.495022 126.515039 
L 504.338211 126.211522 
L 504.875891 126.149693 
L 510.163082 125.461749 
L 511.09995 125.335297 
L 512.346391 125.167093 
L 512.827044 125.095178 
L 514.057192 124.85136 
L 514.317886 124.813271 
L 518.016475 123.860733 
L 518.269022 123.766257 
L 518.733383 123.597473 
L 519.368823 123.307732 
L 519.678397 123.145282 
L 520.004264 122.973158 
L 520.778198 122.541543 
L 520.990011 122.37292 
L 521.161091 122.237155 
L 521.527691 122.108541 
L 521.967612 121.783857 
L 522.415679 121.384443 
L 522.611199 121.274928 
L 522.790426 121.141752 
L 522.871893 121.039467 
L 523.034826 120.769535 
L 523.873933 120.007975 
L 523.971693 119.861682 
L 524.183507 119.750042 
L 524.27312 119.641255 
L 524.590841 119.466206 
L 524.696747 119.354307 
L 524.835241 119.251833 
L 525.079641 119.122076 
L 525.413655 118.902864 
L 525.649908 118.774321 
L 525.894308 118.656689 
L 526.252762 118.517795 
L 526.766002 118.345411 
L 527.116309 118.217136 
L 528.28943 117.892741 
L 528.566417 117.830289 
L 529.381085 117.628615 
L 539.43408 116.140417 
L 543.140816 115.783297 
L 544.142857 115.681919 
L 547.393379 115.378554 
L 548.34654 115.285356 
L 549.650008 115.165284 
L 554.277318 114.716992 
L 561.658204 114.089892 
L 564.7295 113.823198 
L 567.531956 113.571637 
L 570.635838 113.325265 
L 571.287572 113.27272 
L 572.811 113.131369 
L 581.772341 111.918315 
L 582.016741 111.865333 
L 582.497395 111.753867 
L 583.556462 111.449306 
L 584.696997 111.010439 
L 585.071744 110.889134 
L 585.715331 110.649325 
L 585.894558 110.592344 
L 586.236718 110.464063 
L 586.806985 110.19311 
L 587.849759 109.645126 
L 588.403733 109.474962 
L 588.786627 109.355255 
L 594.839605 107.931619 
L 595.988286 107.779134 
L 596.403766 107.718824 
L 610.253111 106.560467 
L 612.289779 106.439955 
L 614.326448 106.295615 
L 616.314236 106.153384 
L 618.367198 106.019578 
L 618.823411 105.98278 
L 624.330563 105.621197 
L 627.458885 105.45904 
L 631.515928 105.212566 
L 634.245064 105.060365 
L 652.803186 103.731843 
L 653.463066 103.631328 
L 654.16368 103.51337 
L 656.355136 102.949138 
L 656.697296 102.851967 
L 657.080189 102.681214 
L 657.259416 102.642833 
L 657.64231 102.502078 
L 658.742111 102.186522 
L 659.279791 102.048669 
L 659.703418 101.914106 
L 660.012992 101.838519 
L 660.420326 101.722071 
L 660.632139 101.647254 
L 661.161673 101.527264 
L 661.3409 101.474452 
L 662.163714 101.289381 
L 662.473287 101.227665 
L 663.841928 100.998812 
L 664.192235 100.935625 
L 664.770649 100.838764 
L 675.670898 99.644493 
L 678.033433 99.497829 
L 688.501909 98.843604 
L 689.381749 98.789568 
L 695.736155 98.351932 
L 696.273835 98.31144 
L 698.897064 98.120561 
L 699.785051 98.061676 
L 716.086545 96.695893 
L 716.371678 96.659339 
L 717.210786 96.547499 
L 717.406306 96.496724 
L 720.428721 96.061473 
L 721.227095 95.880496 
L 722.497977 95.653725 
L 722.644617 95.599248 
L 723.410404 95.425634 
L 723.581484 95.369665 
L 724.339125 95.200907 
L 725.512246 94.975729 
L 726.16398 94.85466 
L 727.891074 94.638522 
L 728.844235 94.512478 
L 729.235275 94.463611 
L 730.196583 94.334206 
L 732.200664 94.104631 
L 732.534678 94.070892 
L 733.846293 93.94511 
L 734.889067 93.863019 
L 736.534695 93.73282 
L 737.219015 93.690815 
L 739.06831 93.567048 
L 741.276059 93.421964 
L 743.08462 93.306748 
L 745.569355 93.150232 
L 752.599935 92.712082 
L 755.557177 92.521387 
L 759.263913 92.292131 
L 762.538876 92.059188 
L 763.418717 91.999591 
L 765.023611 91.884977 
L 767.027693 91.714288 
L 770.498176 91.21133 
L 770.92995 91.076336 
L 775.67946 89.826225 
L 776.029767 89.741068 
L 776.583741 89.627301 
L 776.934048 89.527528 
L 777.822035 89.231141 
L 777.960529 89.18955 
L 778.93813 88.995914 
L 779.296583 88.924491 
L 780.347504 88.788092 
L 780.591904 88.74634 
L 785.626548 88.217632 
L 787.736537 88.02209 
L 789.031858 87.908652 
L 793.944302 87.513002 
L 794.262022 87.471074 
L 795.744717 87.299076 
L 797.308878 87.09892 
L 799.247786 86.939107 
L 799.883227 86.859942 
L 800.811948 86.732437 
L 801.121521 86.668579 
L 801.708082 86.548163 
L 803.28039 86.092349 
L 803.467763 85.996016 
L 803.67143 85.884883 
L 803.809923 85.804996 
L 805.235591 85.249085 
L 805.455551 85.142598 
L 807.581833 84.467515 
L 808.852714 84.070135 
L 809.007501 83.969357 
L 809.097114 83.842888 
L 809.251901 83.656629 
L 809.349661 83.499732 
L 810.310969 82.814336 
L 810.775329 82.587546 
L 810.930116 82.006035 
L 811.027876 81.874456 
L 811.313009 81.666378 
L 811.858837 81.331483 
L 811.97289 81.279637 
L 812.11953 80.954367 
L 812.14397 80.877153 
L 812.26617 80.532245 
L 812.51057 80.292881 
L 813.732571 79.523934 
L 813.895505 79.404397 
L 814.025852 79.050812 
L 814.685732 78.001109 
L 814.775346 77.907421 
L 814.987159 76.392528 
L 815.174533 72.212268 
L 815.288586 71.70681 
L 815.45152 70.008215 
L 815.655186 69.276172 
L 815.777386 68.73983 
L 815.826267 68.510939 
L 816.192867 64.552416 
L 816.323214 62.694645 
L 816.486147 61.770447 
L 816.52688 61.746842 
L 816.779427 58.914313 
L 816.803867 58.870203 
L 816.942361 57.725245 
L 816.950507 57.682545 
L 816.950507 57.682545 
" clip-path="url(#pa7dd27410e)" style="fill: none; stroke: #ff7f0e; stroke-width: 1.5; stroke-linecap: square"/>
   </g>
   <g id="line2d_53">
    <path d="M 92.174763 433 
L 92.282346 349.074051 
L 92.529777 296.642473 
L 92.545914 296.285264 
L 92.787966 293.229335 
L 92.927818 292.555789 
L 93.465711 290.198567 
L 93.530258 289.9129 
L 93.766931 289.111476 
L 93.960572 288.709237 
L 94.127319 288.246323 
L 94.891127 286.643404 
L 95.369852 285.543605 
L 95.563493 285.127611 
L 95.644177 284.945685 
L 95.907745 284.370209 
L 96.036839 284.184561 
L 96.23586 283.716566 
L 97.327782 280.204261 
L 97.623624 278.581994 
L 97.946359 276.120449 
L 98.516526 269.793053 
L 98.941461 262.306902 
L 99.194271 261.503152 
L 99.742922 260.629521 
L 99.861258 260.518099 
L 100.592793 259.983229 
L 100.802571 259.869583 
L 101.082275 259.736708 
L 103.868561 258.840985 
L 108.806418 257.95657 
L 109.946752 257.811266 
L 112.001503 257.59551 
L 114.793167 257.307104 
L 123.141266 256.646901 
L 125.669363 256.49013 
L 149.083844 255.294642 
L 154.285269 255.084767 
L 154.919983 255.060398 
L 160.960521 254.825429 
L 161.288636 254.811523 
L 167.764867 254.579106 
L 170.642595 254.476071 
L 174.004426 254.353673 
L 178.442043 254.188965 
L 181.513412 254.078012 
L 270.658414 251.147095 
L 273.428563 251.044391 
L 276.553721 250.929569 
L 276.946383 250.913842 
L 278.522409 250.856853 
L 281.717494 250.741213 
L 282.868584 250.694542 
L 291.474872 250.339395 
L 302.195079 249.84965 
L 305.083564 249.709335 
L 308.015081 249.562356 
L 311.774953 249.375713 
L 312.829223 249.329736 
L 317.180777 249.094951 
L 318.01989 249.045159 
L 320.13381 248.925531 
L 320.870723 248.883186 
L 322.941611 248.751862 
L 344.441193 247.104736 
L 344.871507 247.066219 
L 346.372229 246.943488 
L 356.656742 245.813072 
L 357.027889 245.759841 
L 357.872381 245.643496 
L 358.926651 245.495903 
L 361.277243 245.162917 
L 361.583842 245.117876 
L 362.734933 244.966357 
L 389.28533 240.476132 
L 389.946939 240.348582 
L 399.005056 238.605256 
L 399.204077 238.564208 
L 402.915538 237.768727 
L 403.249032 237.706485 
L 404.098903 237.53239 
L 404.378607 237.448312 
L 405.077868 237.289704 
L 406.691547 236.897252 
L 407.111103 236.795694 
L 407.72968 236.639765 
L 408.203026 236.508231 
L 410.736502 235.843707 
L 410.978554 235.779453 
L 411.726225 235.56456 
L 411.946761 235.517786 
L 412.350181 235.38693 
L 413.017168 235.225595 
L 413.936965 234.977553 
L 414.130607 234.928815 
L 433.828247 229.307788 
L 434.290835 229.17433 
L 434.597434 229.061823 
L 434.748044 229.00542 
L 434.995475 228.92782 
L 435.92603 228.631609 
L 436.103535 228.580667 
L 436.490818 228.460999 
L 450.013447 223.928468 
L 450.169436 223.874597 
L 450.535203 223.739971 
L 450.890212 223.64105 
L 451.315148 223.47941 
L 454.558643 222.326598 
L 454.730768 222.277078 
L 455.343966 222.059452 
L 455.510713 222.012398 
L 456.145427 221.782868 
L 456.32831 221.719938 
L 457.006056 221.485087 
L 457.511675 221.286716 
L 457.947368 221.11607 
L 458.173283 221.039662 
L 459.227554 220.658567 
L 459.582563 220.539517 
L 459.975225 220.391081 
L 460.486223 220.196258 
L 462.056871 219.643924 
L 462.315059 219.552778 
L 464.509663 218.738274 
L 465.800606 218.272744 
L 471.367798 216.031164 
L 471.513029 215.968598 
L 471.776597 215.860201 
L 471.921828 215.8167 
L 472.588815 215.564936 
L 473.610812 215.15605 
L 474.277799 214.922244 
L 477.510536 213.592307 
L 478.010776 213.377798 
L 479.022015 212.981855 
L 479.602939 212.784926 
L 480.108559 212.613576 
L 480.4044 212.492981 
L 480.797062 212.340186 
L 494.938268 207.242935 
L 495.37934 207.105148 
L 496.745588 206.629858 
L 497.208176 206.463881 
L 497.826753 206.24908 
L 498.235552 206.12322 
L 498.638972 206.003495 
L 499.020876 205.873587 
L 499.467327 205.741094 
L 499.897641 205.594632 
L 501.054111 205.208575 
L 501.398363 205.09045 
L 501.920119 204.913481 
L 503.130378 204.504757 
L 503.765092 204.265518 
L 504.146996 204.147586 
L 504.77633 203.959982 
L 505.147477 203.829071 
L 505.319602 203.784028 
L 505.927421 203.610296 
L 511.580677 201.834202 
L 511.736666 201.789543 
L 511.978717 201.728622 
L 513.275039 201.324274 
L 513.608533 201.214786 
L 513.861343 201.130819 
L 514.555225 200.89467 
L 514.899476 200.761977 
L 515.356685 200.629921 
L 515.824652 200.480192 
L 517.099458 200.078072 
L 517.384542 200.002129 
L 518.584043 199.619202 
L 518.820716 199.562789 
L 521.41336 198.71721 
L 521.612381 198.64642 
L 523.42508 198.07817 
L 523.564932 198.034684 
L 526.162955 197.272959 
L 526.856837 197.047219 
L 527.168815 196.930456 
L 527.819665 196.715882 
L 528.239222 196.575844 
L 528.454379 196.50458 
L 531.783937 195.449916 
L 532.235767 195.32038 
L 532.407892 195.269557 
L 532.935028 195.086395 
L 533.682699 194.834801 
L 534.069982 194.71807 
L 534.204455 194.667898 
L 537.571665 193.685522 
L 537.743791 193.633546 
L 538.114937 193.518955 
L 538.421536 193.436344 
L 538.900261 193.302767 
L 539.115418 193.24518 
L 539.653311 193.096265 
L 539.879226 193.03609 
L 540.928117 192.747239 
L 541.557452 192.594787 
L 541.82102 192.527806 
L 544.827841 191.664499 
L 545.344218 191.524621 
L 560.808641 187.222562 
L 561.056072 187.149555 
L 563.998347 186.306756 
L 564.439419 186.188823 
L 564.692229 186.111428 
L 565.445279 185.909866 
L 566.752359 185.503027 
L 567.166536 185.38543 
L 567.473135 185.27557 
L 568.613468 184.941914 
L 569.151361 184.785559 
L 569.796833 184.61652 
L 570.372379 184.465981 
L 572.534708 183.946164 
L 572.771381 183.885489 
L 573.357685 183.745511 
L 574.772343 183.347359 
L 575.035911 183.282171 
L 575.670624 183.126988 
L 576.117075 183.016305 
L 580.108241 182.056181 
L 580.382567 181.993403 
L 582.152235 181.553104 
L 582.518002 181.46582 
L 587.536543 180.423608 
L 588.015268 180.2981 
L 595.335991 178.79012 
L 596.126694 178.655436 
L 596.352609 178.612514 
L 596.987323 178.503514 
L 597.261648 178.454663 
L 617.65855 174.714157 
L 618.481526 174.583608 
L 619.11624 174.476559 
L 619.949974 174.330961 
L 620.504004 174.241864 
L 621.262433 174.112502 
L 621.698126 174.049359 
L 623.198847 173.806637 
L 623.381731 173.773931 
L 624.161676 173.654603 
L 626.942582 173.196746 
L 627.932306 173.032196 
L 628.31421 172.974933 
L 629.045744 172.855456 
L 629.626668 172.763419 
L 633.693139 172.173531 
L 634.053528 172.122302 
L 641.142957 171.102391 
L 641.417282 171.07583 
L 642.552237 170.929691 
L 644.547819 170.659567 
L 646.199151 170.457387 
L 647.436305 170.285383 
L 669.764242 167.610404 
L 670.47964 167.512012 
L 674.427774 167.005951 
L 675.057109 166.920836 
L 690.317133 164.537314 
L 690.666763 164.460813 
L 691.462845 164.279575 
L 691.925433 164.187995 
L 692.506357 164.0547 
L 693.657448 163.826064 
L 694.55035 163.640681 
L 695.163548 163.508801 
L 699.837838 162.504278 
L 700.418763 162.369779 
L 701.709706 162.050062 
L 704.323866 161.457827 
L 704.539023 161.40169 
L 705.329725 161.191476 
L 705.878376 161.069083 
L 707.900854 160.557128 
L 708.530189 160.381202 
L 709.121871 160.229445 
L 709.595217 160.084065 
L 709.874921 159.994278 
L 712.84409 159.120835 
L 713.080763 159.045366 
L 713.564867 158.903775 
L 714.048971 158.734945 
L 714.592242 158.556199 
L 715.092483 158.391516 
L 715.549692 158.249494 
L 716.179027 158.063034 
L 717.002003 157.831098 
L 717.260192 157.761304 
L 717.701264 157.633991 
L 718.185367 157.456246 
L 718.405904 157.401566 
L 718.755534 157.265808 
L 720.363834 156.760984 
L 720.708086 156.647011 
L 722.359417 156.110438 
L 722.569195 156.055547 
L 723.365277 155.8468 
L 724.086053 155.634209 
L 724.489473 155.503675 
L 726.81855 154.950471 
L 727.039086 154.89944 
L 727.87282 154.684673 
L 728.356924 154.560007 
L 728.894817 154.421498 
L 729.22831 154.338693 
L 730.078181 154.14572 
L 730.28258 154.076086 
L 732.993561 153.548484 
L 733.977905 153.352958 
L 737.554893 152.69045 
L 738.264912 152.524435 
L 738.609164 152.458253 
L 739.211604 152.331561 
L 739.448277 152.267651 
L 740.066854 152.149323 
L 741.352418 151.878777 
L 741.89569 151.762059 
L 742.250699 151.681197 
L 743.729905 151.413745 
L 745.709351 151.031106 
L 745.908371 150.985183 
L 746.489296 150.874077 
L 746.924989 150.800817 
L 747.914712 150.624227 
L 748.441847 150.515082 
L 748.769962 150.459727 
L 750.496598 150.089758 
L 751.454048 149.876122 
L 751.94353 149.779888 
L 753.00318 149.53299 
L 753.643272 149.393926 
L 762.905789 147.01347 
L 763.309209 146.875429 
L 763.65346 146.741617 
L 764.524847 146.388833 
L 764.723868 146.286103 
L 765.977158 145.804733 
L 766.138526 145.733153 
L 768.666623 144.534264 
L 768.924812 144.407467 
L 770.215755 143.868073 
L 770.597659 143.727734 
L 770.802058 143.634755 
L 771.076384 143.504618 
L 771.474424 143.34749 
L 771.94777 143.180617 
L 772.238232 143.065839 
L 773.324776 142.661215 
L 773.480765 142.589432 
L 773.841153 142.45508 
L 774.088584 142.358617 
L 774.71254 142.107045 
L 774.852392 142.036126 
L 775.051413 141.948531 
L 775.41718 141.796027 
L 775.594684 141.700657 
L 775.788326 141.587072 
L 775.976588 141.507325 
L 776.439176 141.271709 
L 776.934038 140.96303 
L 777.192227 140.844734 
L 777.439657 140.72043 
L 777.654815 140.598836 
L 777.999066 140.390165 
L 778.155055 140.249003 
L 778.348697 140.104498 
L 778.536959 140.002976 
L 778.924242 139.783876 
L 779.548198 139.362426 
L 779.79025 139.256034 
L 779.967754 139.170623 
L 780.225943 139.042248 
L 780.855278 138.756471 
L 781.113466 138.63645 
L 781.59757 138.427285 
L 781.871895 138.277028 
L 782.253799 138.105943 
L 782.506609 137.991864 
L 785.77162 136.511734 
L 786.115871 136.365383 
L 789.633691 135.061126 
L 790.182342 134.869689 
L 790.445909 134.765259 
L 790.784782 134.636855 
L 790.94615 134.555999 
L 791.172065 134.444223 
L 792.618997 133.635388 
L 792.774986 133.479383 
L 792.861049 133.369344 
L 793.017038 133.236852 
L 793.318258 132.92366 
L 793.485005 132.748157 
L 793.716299 132.547857 
L 793.888424 132.352725 
L 794.082066 132.187967 
L 795.281567 131.040331 
L 795.615061 130.771457 
L 795.846355 130.626883 
L 796.663952 130.132337 
L 796.814562 130.042009 
L 797.12654 129.908891 
L 798.08399 129.376015 
L 798.374452 129.213587 
L 799.719184 128.477509 
L 799.93972 128.332774 
L 800.660497 127.990856 
L 800.934822 127.849411 
L 803.10791 126.198339 
L 803.301552 126.064112 
L 803.452162 125.957282 
L 803.554361 125.861083 
L 803.694213 125.749172 
L 804.36658 124.974177 
L 804.511811 124.760295 
L 804.856062 124.161575 
L 804.936746 124.012062 
L 805.275619 123.531897 
L 805.361682 123.329787 
L 805.72207 122.494089 
L 805.818891 122.271573 
L 805.964122 121.775094 
L 806.028669 121.668074 
L 806.281479 120.961161 
L 806.362163 120.856699 
L 806.528909 120.433202 
L 806.733309 120.141042 
L 806.77634 120.024557 
L 807.045287 119.702978 
L 807.685379 118.482102 
L 808.142588 117.138513 
L 808.18562 116.93187 
L 809.180722 114.520199 
L 809.654068 113.775096 
L 810.014456 112.801669 
L 810.256508 112.091282 
L 810.299539 111.989994 
L 811.154789 108.703143 
L 811.466767 107.464487 
L 811.644272 106.777942 
L 811.681924 106.724003 
L 811.816397 106.092049 
L 812.295122 104.404918 
L 812.35429 104.277537 
L 812.574826 103.788749 
L 812.994383 101.884169 
L 813.042793 101.727641 
L 813.666749 97.910244 
L 813.828117 97.238399 
L 814.629578 93.513644 
L 814.855493 92.166386 
L 815.393386 90.009023 
L 815.425659 89.913483 
L 815.651574 88.26443 
L 816.52834 84.625156 
L 816.67895 83.720609 
L 816.721981 83.635848 
L 816.888728 81.615557 
L 816.894107 81.61453 
L 816.953275 79.470285 
L 816.953275 79.470285 
" clip-path="url(#pa7dd27410e)" style="fill: none; stroke: #2ca02c; stroke-width: 1.5; stroke-linecap: square"/>
   </g>
   <g id="patch_3">
    <path d="M 55.772054 390.04 
L 55.772054 41.856 
" style="fill: none; stroke: #000000; stroke-width: 0.8; stroke-linejoin: miter; stroke-linecap: square"/>
   </g>
   <g id="patch_4">
    <path d="M 853.2 390.04 
L 853.2 41.856 
" style="fill: none; stroke: #000000; stroke-width: 0.8; stroke-linejoin: miter; stroke-linecap: square"/>
   </g>
   <g id="patch_5">
    <path d="M 55.772054 390.04 
L 853.2 390.04 
" style="fill: none; stroke: #000000; stroke-width: 0.8; stroke-linejoin: miter; stroke-linecap: square"/>
   </g>
   <g id="patch_6">
    <path d="M 55.772054 41.856 
L 853.2 41.856 
" style="fill: none; stroke: #000000; stroke-width: 0.8; stroke-linejoin: miter; stroke-linecap: square"/>
   </g>
   <g id="text_14">
    <!-- HTTP Request Duration Percentiles -->
    <g transform="translate(350.259464 22.355625) scale(0.12 -0.12)">
     <defs>
      <path id="DejaVuSans-48" d="M 628 4666 
L 1259 4666 
L 1259 2753 
L 3553 2753 
L 3553 4666 
L 4184 4666 
L 4184 0 
L 3553 0 
L 3553 2222 
L 1259 2222 
L 1259 0 
L 628 0 
L 628 4666 
z
" transform="scale(0.015625)"/>
      <path id="DejaVuSans-54" d="M -19 4666 
L 3928 4666 
L 3928 4134 
L 2272 4134 
L 2272 0 
L 1638 0 
L 1638 4134 
L -19 4134 
L -19 4666 
z
" transform="scale(0.015625)"/>
      <path id="DejaVuSans-52" d="M 2841 2188 
Q 3044 2119 3236 1894 
Q 3428 1669 3622 1275 
L 4263 0 
L 3584 0 
L 2988 1197 
Q 2756 1666 2539 1819 
Q 2322 1972 1947 1972 
L 1259 1972 
L 1259 0 
L 628 0 
L 628 4666 
L 2053 4666 
Q 2853 4666 3247 4331 
Q 3641 3997 3641 3322 
Q 3641 2881 3436 2590 
Q 3231 2300 2841 2188 
z
M 1259 4147 
L 1259 2491 
L 2053 2491 
Q 2509 2491 2742 2702 
Q 2975 2913 2975 3322 
Q 2975 3731 2742 3939 
Q 2509 4147 2053 4147 
L 1259 4147 
z
" transform="scale(0.015625)"/>
      <path id="DejaVuSans-71" d="M 947 1747 
Q 947 1113 1208 752 
Q 1469 391 1925 391 
Q 2381 391 2643 752 
Q 2906 1113 2906 1747 
Q 2906 2381 2643 2742 
Q 2381 3103 1925 3103 
Q 1469 3103 1208 2742 
Q 947 2381 947 1747 
z
M 2906 525 
Q 2725 213 2448 61 
Q 2172 -91 1784 -91 
Q 1150 -91 751 415 
Q 353 922 353 1747 
Q 353 2572 751 3078 
Q 1150 3584 1784 3584 
Q 2172 3584 2448 3432 
Q 2725 3281 2906 2969 
L 2906 3500 
L 3481 3500 
L 3481 -1331 
L 2906 -1331 
L 2906 525 
z
" transform="scale(0.015625)"/>
     </defs>
     <use xlink:href="#DejaVuSans-48"/>
     <use xlink:href="#DejaVuSans-54" transform="translate(75.195312 0)"/>
     <use xlink:href="#DejaVuSans-54" transform="translate(134.529297 0)"/>
     <use xlink:href="#DejaVuSans-50" transform="translate(195.613281 0)"/>
     <use xlink:href="#DejaVuSans-20" transform="translate(255.916016 0)"/>
     <use xlink:href="#DejaVuSans-52" transform="translate(287.703125 0)"/>
     <use xlink:href="#DejaVuSans-65" transform="translate(352.685547 0)"/>
     <use xlink:href="#DejaVuSans-71" transform="translate(414.208984 0)"/>
     <use xlink:href="#DejaVuSans-75" transform="translate(477.685547 0)"/>
     <use xlink:href="#DejaVuSans-65" transform="translate(541.064453 0)"/>
     <use xlink:href="#DejaVuSans-73" transform="translate(602.587891 0)"/>
     <use xlink:href="#DejaVuSans-74" transform="translate(654.6875 0)"/>
     <use xlink:href="#DejaVuSans-20" transform="translate(693.896484 0)"/>
     <use xlink:href="#DejaVuSans-44" transform="translate(725.683594 0)"/>
     <use xlink:href="#DejaVuSans-75" transform="translate(802.685547 0)"/>
     <use xlink:href="#DejaVuSans-72" transform="translate(866.064453 0)"/>
     <use xlink:href="#DejaVuSans-61" transform="translate(907.177734 0)"/>
     <use xlink:href="#DejaVuSans-74" transform="translate(968.457031 0)"/>
     <use xlink:href="#DejaVuSans-69" transform="translate(1007.666016 0)"/>
     <use xlink:href="#DejaVuSans-6f" transform="translate(1035.449219 0)"/>
     <use xlink:href="#DejaVuSans-6e" transform="translate(1096.630859 0)"/>
     <use xlink:href="#DejaVuSans-20" transform="translate(1160.009766 0)"/>
     <use xlink:href="#DejaVuSans-50" transform="translate(1191.796875 0)"/>
     <use xlink:href="#DejaVuSans-65" transform="translate(1248.474609 0)"/>
     <use xlink:href="#DejaVuSans-72" transform="translate(1309.998047 0)"/>
     <use xlink:href="#DejaVuSans-63" transform="translate(1348.861328 0)"/>
     <use xlink:href="#DejaVuSans-65" transform="translate(1403.841797 0)"/>
     <use xlink:href="#DejaVuSans-6e" transform="translate(1465.365234 0)"/>
     <use xlink:href="#DejaVuSans-74" transform="translate(1528.744141 0)"/>
     <use xlink:href="#DejaVuSans-69" transform="translate(1567.953125 0)"/>
     <use xlink:href="#DejaVuSans-6c" transform="translate(1595.736328 0)"/>
     <use xlink:href="#DejaVuSans-65" transform="translate(1623.519531 0)"/>
     <use xlink:href="#DejaVuSans-73" transform="translate(1685.042969 0)"/>
    </g>
    <!-- Test: breakpoint | Endpoint: GetMapById -->
    <g transform="translate(333.387277 35.856) scale(0.12 -0.12)">
     <defs>
      <path id="DejaVuSans-3a" d="M 750 794 
L 1409 794 
L 1409 0 
L 750 0 
L 750 794 
z
M 750 3309 
L 1409 3309 
L 1409 2516 
L 750 2516 
L 750 3309 
z
" transform="scale(0.015625)"/>
      <path id="DejaVuSans-62" d="M 3116 1747 
Q 3116 2381 2855 2742 
Q 2594 3103 2138 3103 
Q 1681 3103 1420 2742 
Q 1159 2381 1159 1747 
Q 1159 1113 1420 752 
Q 1681 391 2138 391 
Q 2594 391 2855 752 
Q 3116 1113 3116 1747 
z
M 1159 2969 
Q 1341 3281 1617 3432 
Q 1894 3584 2278 3584 
Q 2916 3584 3314 3078 
Q 3713 2572 3713 1747 
Q 3713 922 3314 415 
Q 2916 -91 2278 -91 
Q 1894 -91 1617 61 
Q 1341 213 1159 525 
L 1159 0 
L 581 0 
L 581 4863 
L 1159 4863 
L 1159 2969 
z
" transform="scale(0.015625)"/>
      <path id="DejaVuSans-6b" d="M 581 4863 
L 1159 4863 
L 1159 1991 
L 2875 3500 
L 3609 3500 
L 1753 1863 
L 3688 0 
L 2938 0 
L 1159 1709 
L 1159 0 
L 581 0 
L 581 4863 
z
" transform="scale(0.015625)"/>
      <path id="DejaVuSans-70" d="M 1159 525 
L 1159 -1331 
L 581 -1331 
L 581 3500 
L 1159 3500 
L 1159 2969 
Q 1341 3281 1617 3432 
Q 1894 3584 2278 3584 
Q 2916 3584 3314 3078 
Q 3713 2572 3713 1747 
Q 3713 922 3314 415 
Q 2916 -91 2278 -91 
Q 1894 -91 1617 61 
Q 1341 213 1159 525 
z
M 3116 1747 
Q 3116 2381 2855 2742 
Q 2594 3103 2138 3103 
Q 1681 3103 1420 2742 
Q 1159 2381 1159 1747 
Q 1159 1113 1420 752 
Q 1681 391 2138 391 
Q 2594 391 2855 752 
Q 3116 1113 3116 1747 
z
" transform="scale(0.015625)"/>
      <path id="DejaVuSans-7c" d="M 1344 4891 
L 1344 -1509 
L 813 -1509 
L 813 4891 
L 1344 4891 
z
" transform="scale(0.015625)"/>
      <path id="DejaVuSans-45" d="M 628 4666 
L 3578 4666 
L 3578 4134 
L 1259 4134 
L 1259 2753 
L 3481 2753 
L 3481 2222 
L 1259 2222 
L 1259 531 
L 3634 531 
L 3634 0 
L 628 0 
L 628 4666 
z
" transform="scale(0.015625)"/>
      <path id="DejaVuSans-64" d="M 2906 2969 
L 2906 4863 
L 3481 4863 
L 3481 0 
L 2906 0 
L 2906 525 
Q 2725 213 2448 61 
Q 2172 -91 1784 -91 
Q 1150 -91 751 415 
Q 353 922 353 1747 
Q 353 2572 751 3078 
Q 1150 3584 1784 3584 
Q 2172 3584 2448 3432 
Q 2725 3281 2906 2969 
z
M 947 1747 
Q 947 1113 1208 752 
Q 1469 391 1925 391 
Q 2381 391 2643 752 
Q 2906 1113 2906 1747 
Q 2906 2381 2643 2742 
Q 2381 3103 1925 3103 
Q 1469 3103 1208 2742 
Q 947 2381 947 1747 
z
" transform="scale(0.015625)"/>
      <path id="DejaVuSans-47" d="M 3809 666 
L 3809 1919 
L 2778 1919 
L 2778 2438 
L 4434 2438 
L 4434 434 
Q 4069 175 3628 42 
Q 3188 -91 2688 -91 
Q 1594 -91 976 548 
Q 359 1188 359 2328 
Q 359 3472 976 4111 
Q 1594 4750 2688 4750 
Q 3144 4750 3555 4637 
Q 3966 4525 4313 4306 
L 4313 3634 
Q 3963 3931 3569 4081 
Q 3175 4231 2741 4231 
Q 1884 4231 1454 3753 
Q 1025 3275 1025 2328 
Q 1025 1384 1454 906 
Q 1884 428 2741 428 
Q 3075 428 3337 486 
Q 3600 544 3809 666 
z
" transform="scale(0.015625)"/>
      <path id="DejaVuSans-4d" d="M 628 4666 
L 1569 4666 
L 2759 1491 
L 3956 4666 
L 4897 4666 
L 4897 0 
L 4281 0 
L 4281 4097 
L 3078 897 
L 2444 897 
L 1241 4097 
L 1241 0 
L 628 0 
L 628 4666 
z
" transform="scale(0.015625)"/>
      <path id="DejaVuSans-42" d="M 1259 2228 
L 1259 519 
L 2272 519 
Q 2781 519 3026 730 
Q 3272 941 3272 1375 
Q 3272 1813 3026 2020 
Q 2781 2228 2272 2228 
L 1259 2228 
z
M 1259 4147 
L 1259 2741 
L 2194 2741 
Q 2656 2741 2882 2914 
Q 3109 3088 3109 3444 
Q 3109 3797 2882 3972 
Q 2656 4147 2194 4147 
L 1259 4147 
z
M 628 4666 
L 2241 4666 
Q 2963 4666 3353 4366 
Q 3744 4066 3744 3513 
Q 3744 3084 3544 2831 
Q 3344 2578 2956 2516 
Q 3422 2416 3680 2098 
Q 3938 1781 3938 1306 
Q 3938 681 3513 340 
Q 3088 0 2303 0 
L 628 0 
L 628 4666 
z
" transform="scale(0.015625)"/>
      <path id="DejaVuSans-79" d="M 2059 -325 
Q 1816 -950 1584 -1140 
Q 1353 -1331 966 -1331 
L 506 -1331 
L 506 -850 
L 844 -850 
Q 1081 -850 1212 -737 
Q 1344 -625 1503 -206 
L 1606 56 
L 191 3500 
L 800 3500 
L 1894 763 
L 2988 3500 
L 3597 3500 
L 2059 -325 
z
" transform="scale(0.015625)"/>
      <path id="DejaVuSans-49" d="M 628 4666 
L 1259 4666 
L 1259 0 
L 628 0 
L 628 4666 
z
" transform="scale(0.015625)"/>
     </defs>
     <use xlink:href="#DejaVuSans-54"/>
     <use xlink:href="#DejaVuSans-65" transform="translate(44.083984 0)"/>
     <use xlink:href="#DejaVuSans-73" transform="translate(105.607422 0)"/>
     <use xlink:href="#DejaVuSans-74" transform="translate(157.707031 0)"/>
     <use xlink:href="#DejaVuSans-3a" transform="translate(196.916016 0)"/>
     <use xlink:href="#DejaVuSans-20" transform="translate(230.607422 0)"/>
     <use xlink:href="#DejaVuSans-62" transform="translate(262.394531 0)"/>
     <use xlink:href="#DejaVuSans-72" transform="translate(325.871094 0)"/>
     <use xlink:href="#DejaVuSans-65" transform="translate(364.734375 0)"/>
     <use xlink:href="#DejaVuSans-61" transform="translate(426.257812 0)"/>
     <use xlink:href="#DejaVuSans-6b" transform="translate(487.537109 0)"/>
     <use xlink:href="#DejaVuSans-70" transform="translate(545.447266 0)"/>
     <use xlink:href="#DejaVuSans-6f" transform="translate(608.923828 0)"/>
     <use xlink:href="#DejaVuSans-69" transform="translate(670.105469 0)"/>
     <use xlink:href="#DejaVuSans-6e" transform="translate(697.888672 0)"/>
     <use xlink:href="#DejaVuSans-74" transform="translate(761.267578 0)"/>
     <use xlink:href="#DejaVuSans-20" transform="translate(800.476562 0)"/>
     <use xlink:href="#DejaVuSans-7c" transform="translate(832.263672 0)"/>
     <use xlink:href="#DejaVuSans-20" transform="translate(865.955078 0)"/>
     <use xlink:href="#DejaVuSans-45" transform="translate(897.742188 0)"/>
     <use xlink:href="#DejaVuSans-6e" transform="translate(960.925781 0)"/>
     <use xlink:href="#DejaVuSans-64" transform="translate(1024.304688 0)"/>
     <use xlink:href="#DejaVuSans-70" transform="translate(1087.78125 0)"/>
     <use xlink:href="#DejaVuSans-6f" transform="translate(1151.257812 0)"/>
     <use xlink:href="#DejaVuSans-69" transform="translate(1212.439453 0)"/>
     <use xlink:href="#DejaVuSans-6e" transform="translate(1240.222656 0)"/>
     <use xlink:href="#DejaVuSans-74" transform="translate(1303.601562 0)"/>
     <use xlink:href="#DejaVuSans-3a" transform="translate(1342.810547 0)"/>
     <use xlink:href="#DejaVuSans-20" transform="translate(1376.501953 0)"/>
     <use xlink:href="#DejaVuSans-47" transform="translate(1408.289062 0)"/>
     <use xlink:href="#DejaVuSans-65" transform="translate(1485.779297 0)"/>
     <use xlink:href="#DejaVuSans-74" transform="translate(1547.302734 0)"/>
     <use xlink:href="#DejaVuSans-4d" transform="translate(1586.511719 0)"/>
     <use xlink:href="#DejaVuSans-61" transform="translate(1672.791016 0)"/>
     <use xlink:href="#DejaVuSans-70" transform="translate(1734.070312 0)"/>
     <use xlink:href="#DejaVuSans-42" transform="translate(1797.546875 0)"/>
     <use xlink:href="#DejaVuSans-79" transform="translate(1866.150391 0)"/>
     <use xlink:href="#DejaVuSans-49" transform="translate(1925.330078 0)"/>
     <use xlink:href="#DejaVuSans-64" transform="translate(1954.822266 0)"/>
    </g>
   </g>
   <g id="legend_1">
    <g id="patch_7">
     <path d="M 62.772054 93.890375 
L 196.115804 93.890375 
Q 198.115804 93.890375 198.115804 91.890375 
L 198.115804 48.856 
Q 198.115804 46.856 196.115804 46.856 
L 62.772054 46.856 
Q 60.772054 46.856 60.772054 48.856 
L 60.772054 91.890375 
Q 60.772054 93.890375 62.772054 93.890375 
z
" style="fill: #ffffff; opacity: 0.8; stroke: #cccccc; stroke-linejoin: miter"/>
    </g>
    <g id="line2d_54">
     <path d="M 64.772054 54.954437 
L 74.772054 54.954437 
L 84.772054 54.954437 
" style="fill: none; stroke: #1f77b4; stroke-width: 1.5; stroke-linecap: square"/>
    </g>
    <g id="text_15">
     <!-- Single Large Results -->
     <g transform="translate(92.772054 58.454437) scale(0.1 -0.1)">
      <defs>
       <path id="DejaVuSans-53" d="M 3425 4513 
L 3425 3897 
Q 3066 4069 2747 4153 
Q 2428 4238 2131 4238 
Q 1616 4238 1336 4038 
Q 1056 3838 1056 3469 
Q 1056 3159 1242 3001 
Q 1428 2844 1947 2747 
L 2328 2669 
Q 3034 2534 3370 2195 
Q 3706 1856 3706 1288 
Q 3706 609 3251 259 
Q 2797 -91 1919 -91 
Q 1588 -91 1214 -16 
Q 841 59 441 206 
L 441 856 
Q 825 641 1194 531 
Q 1563 422 1919 422 
Q 2459 422 2753 634 
Q 3047 847 3047 1241 
Q 3047 1584 2836 1778 
Q 2625 1972 2144 2069 
L 1759 2144 
Q 1053 2284 737 2584 
Q 422 2884 422 3419 
Q 422 4038 858 4394 
Q 1294 4750 2059 4750 
Q 2388 4750 2728 4690 
Q 3069 4631 3425 4513 
z
" transform="scale(0.015625)"/>
       <path id="DejaVuSans-67" d="M 2906 1791 
Q 2906 2416 2648 2759 
Q 2391 3103 1925 3103 
Q 1463 3103 1205 2759 
Q 947 2416 947 1791 
Q 947 1169 1205 825 
Q 1463 481 1925 481 
Q 2391 481 2648 825 
Q 2906 1169 2906 1791 
z
M 3481 434 
Q 3481 -459 3084 -895 
Q 2688 -1331 1869 -1331 
Q 1566 -1331 1297 -1286 
Q 1028 -1241 775 -1147 
L 775 -588 
Q 1028 -725 1275 -790 
Q 1522 -856 1778 -856 
Q 2344 -856 2625 -561 
Q 2906 -266 2906 331 
L 2906 616 
Q 2728 306 2450 153 
Q 2172 0 1784 0 
Q 1141 0 747 490 
Q 353 981 353 1791 
Q 353 2603 747 3093 
Q 1141 3584 1784 3584 
Q 2172 3584 2450 3431 
Q 2728 3278 2906 2969 
L 2906 3500 
L 3481 3500 
L 3481 434 
z
" transform="scale(0.015625)"/>
       <path id="DejaVuSans-4c" d="M 628 4666 
L 1259 4666 
L 1259 531 
L 3531 531 
L 3531 0 
L 628 0 
L 628 4666 
z
" transform="scale(0.015625)"/>
      </defs>
      <use xlink:href="#DejaVuSans-53"/>
      <use xlink:href="#DejaVuSans-69" transform="translate(63.476562 0)"/>
      <use xlink:href="#DejaVuSans-6e" transform="translate(91.259766 0)"/>
      <use xlink:href="#DejaVuSans-67" transform="translate(154.638672 0)"/>
      <use xlink:href="#DejaVuSans-6c" transform="translate(218.115234 0)"/>
      <use xlink:href="#DejaVuSans-65" transform="translate(245.898438 0)"/>
      <use xlink:href="#DejaVuSans-20" transform="translate(307.421875 0)"/>
      <use xlink:href="#DejaVuSans-4c" transform="translate(339.208984 0)"/>
      <use xlink:href="#DejaVuSans-61" transform="translate(394.921875 0)"/>
      <use xlink:href="#DejaVuSans-72" transform="translate(456.201172 0)"/>
      <use xlink:href="#DejaVuSans-67" transform="translate(495.564453 0)"/>
      <use xlink:href="#DejaVuSans-65" transform="translate(559.041016 0)"/>
      <use xlink:href="#DejaVuSans-20" transform="translate(620.564453 0)"/>
      <use xlink:href="#DejaVuSans-52" transform="translate(652.351562 0)"/>
      <use xlink:href="#DejaVuSans-65" transform="translate(717.333984 0)"/>
      <use xlink:href="#DejaVuSans-73" transform="translate(778.857422 0)"/>
      <use xlink:href="#DejaVuSans-75" transform="translate(830.957031 0)"/>
      <use xlink:href="#DejaVuSans-6c" transform="translate(894.335938 0)"/>
      <use xlink:href="#DejaVuSans-74" transform="translate(922.119141 0)"/>
      <use xlink:href="#DejaVuSans-73" transform="translate(961.328125 0)"/>
     </g>
    </g>
    <g id="line2d_55">
     <path d="M 64.772054 69.632562 
L 74.772054 69.632562 
L 84.772054 69.632562 
" style="fill: none; stroke: #ff7f0e; stroke-width: 1.5; stroke-linecap: square"/>
    </g>
    <g id="text_16">
     <!-- Single Small Results -->
     <g transform="translate(92.772054 73.132562) scale(0.1 -0.1)">
      <use xlink:href="#DejaVuSans-53"/>
      <use xlink:href="#DejaVuSans-69" transform="translate(63.476562 0)"/>
      <use xlink:href="#DejaVuSans-6e" transform="translate(91.259766 0)"/>
      <use xlink:href="#DejaVuSans-67" transform="translate(154.638672 0)"/>
      <use xlink:href="#DejaVuSans-6c" transform="translate(218.115234 0)"/>
      <use xlink:href="#DejaVuSans-65" transform="translate(245.898438 0)"/>
      <use xlink:href="#DejaVuSans-20" transform="translate(307.421875 0)"/>
      <use xlink:href="#DejaVuSans-53" transform="translate(339.208984 0)"/>
      <use xlink:href="#DejaVuSans-6d" transform="translate(402.685547 0)"/>
      <use xlink:href="#DejaVuSans-61" transform="translate(500.097656 0)"/>
      <use xlink:href="#DejaVuSans-6c" transform="translate(561.376953 0)"/>
      <use xlink:href="#DejaVuSans-6c" transform="translate(589.160156 0)"/>
      <use xlink:href="#DejaVuSans-20" transform="translate(616.943359 0)"/>
      <use xlink:href="#DejaVuSans-52" transform="translate(648.730469 0)"/>
      <use xlink:href="#DejaVuSans-65" transform="translate(713.712891 0)"/>
      <use xlink:href="#DejaVuSans-73" transform="translate(775.236328 0)"/>
      <use xlink:href="#DejaVuSans-75" transform="translate(827.335938 0)"/>
      <use xlink:href="#DejaVuSans-6c" transform="translate(890.714844 0)"/>
      <use xlink:href="#DejaVuSans-74" transform="translate(918.498047 0)"/>
      <use xlink:href="#DejaVuSans-73" transform="translate(957.707031 0)"/>
     </g>
    </g>
    <g id="line2d_56">
     <path d="M 64.772054 84.310687 
L 74.772054 84.310687 
L 84.772054 84.310687 
" style="fill: none; stroke: #2ca02c; stroke-width: 1.5; stroke-linecap: square"/>
    </g>
    <g id="text_17">
     <!-- Multi Results -->
     <g transform="translate(92.772054 87.810687) scale(0.1 -0.1)">
      <use xlink:href="#DejaVuSans-4d"/>
      <use xlink:href="#DejaVuSans-75" transform="translate(86.279297 0)"/>
      <use xlink:href="#DejaVuSans-6c" transform="translate(149.658203 0)"/>
      <use xlink:href="#DejaVuSans-74" transform="translate(177.441406 0)"/>
      <use xlink:href="#DejaVuSans-69" transform="translate(216.650391 0)"/>
      <use xlink:href="#DejaVuSans-20" transform="translate(244.433594 0)"/>
      <use xlink:href="#DejaVuSans-52" transform="translate(276.220703 0)"/>
      <use xlink:href="#DejaVuSans-65" transform="translate(341.203125 0)"/>
      <use xlink:href="#DejaVuSans-73" transform="translate(402.726562 0)"/>
      <use xlink:href="#DejaVuSans-75" transform="translate(454.826172 0)"/>
      <use xlink:href="#DejaVuSans-6c" transform="translate(518.205078 0)"/>
      <use xlink:href="#DejaVuSans-74" transform="translate(545.988281 0)"/>
      <use xlink:href="#DejaVuSans-73" transform="translate(585.197266 0)"/>
     </g>
    </g>
   </g>
  </g>
 </g>
 <defs>
  <clipPath id="pa7dd27410e">
   <rect x="55.772054" y="41.856" width="797.427946" height="348.184"/>
  </clipPath>
 </defs>
</svg>
