<?xml version="1.0" encoding="utf-8" standalone="no"?>
<!DOCTYPE svg PUBLIC "-//W3C//DTD SVG 1.1//EN"
  "http://www.w3.org/Graphics/SVG/1.1/DTD/svg11.dtd">
<svg xmlns:xlink="http://www.w3.org/1999/xlink" width="864pt" height="432pt" viewBox="0 0 864 432" xmlns="http://www.w3.org/2000/svg" version="1.1">
 <metadata>
  <rdf:RDF xmlns:dc="http://purl.org/dc/elements/1.1/" xmlns:cc="http://creativecommons.org/ns#" xmlns:rdf="http://www.w3.org/1999/02/22-rdf-syntax-ns#">
   <cc:Work>
    <dc:type rdf:resource="http://purl.org/dc/dcmitype/StillImage"/>
    <dc:date>2025-05-31T16:11:51.431191</dc:date>
    <dc:format>image/svg+xml</dc:format>
    <dc:creator>
     <cc:Agent>
      <dc:title>Matplotlib v3.10.1, https://matplotlib.org/</dc:title>
     </cc:Agent>
    </dc:creator>
   </cc:Work>
  </rdf:RDF>
 </metadata>
 <defs>
  <style type="text/css">*{stroke-linejoin: round; stroke-linecap: butt}</style>
 </defs>
 <g id="figure_1">
  <g id="patch_1">
   <path d="M 0 432 
L 864 432 
L 864 0 
L 0 0 
z
" style="fill: #ffffff"/>
  </g>
  <g id="axes_1">
   <g id="patch_2">
    <path d="M 50.002685 390.04 
L 853.2 390.04 
L 853.2 41.856 
L 50.002685 41.856 
z
" style="fill: #ffffff"/>
   </g>
   <g id="matplotlib.axis_1">
    <g id="xtick_1">
     <g id="line2d_1">
      <defs>
       <path id="m24f9b63f3d" d="M 0 0 
L 0 3.5 
" style="stroke: #000000; stroke-width: 0.8"/>
      </defs>
      <g>
       <use xlink:href="#m24f9b63f3d" x="86.511654" y="390.04" style="stroke: #000000; stroke-width: 0.8"/>
      </g>
     </g>
     <g id="text_1">
      <!-- 0 -->
      <g transform="translate(83.330404 404.638438) scale(0.1 -0.1)">
       <defs>
        <path id="DejaVuSans-30" d="M 2034 4250 
Q 1547 4250 1301 3770 
Q 1056 3291 1056 2328 
Q 1056 1369 1301 889 
Q 1547 409 2034 409 
Q 2525 409 2770 889 
Q 3016 1369 3016 2328 
Q 3016 3291 2770 3770 
Q 2525 4250 2034 4250 
z
M 2034 4750 
Q 2819 4750 3233 4129 
Q 3647 3509 3647 2328 
Q 3647 1150 3233 529 
Q 2819 -91 2034 -91 
Q 1250 -91 836 529 
Q 422 1150 422 2328 
Q 422 3509 836 4129 
Q 1250 4750 2034 4750 
z
" transform="scale(0.015625)"/>
       </defs>
       <use xlink:href="#DejaVuSans-30"/>
      </g>
     </g>
    </g>
    <g id="xtick_2">
     <g id="line2d_2">
      <g>
       <use xlink:href="#m24f9b63f3d" x="228.294057" y="390.04" style="stroke: #000000; stroke-width: 0.8"/>
      </g>
     </g>
     <g id="text_2">
      <!-- 100 -->
      <g transform="translate(218.750307 404.638438) scale(0.1 -0.1)">
       <defs>
        <path id="DejaVuSans-31" d="M 794 531 
L 1825 531 
L 1825 4091 
L 703 3866 
L 703 4441 
L 1819 4666 
L 2450 4666 
L 2450 531 
L 3481 531 
L 3481 0 
L 794 0 
L 794 531 
z
" transform="scale(0.015625)"/>
       </defs>
       <use xlink:href="#DejaVuSans-31"/>
       <use xlink:href="#DejaVuSans-30" transform="translate(63.623047 0)"/>
       <use xlink:href="#DejaVuSans-30" transform="translate(127.246094 0)"/>
      </g>
     </g>
    </g>
    <g id="xtick_3">
     <g id="line2d_3">
      <g>
       <use xlink:href="#m24f9b63f3d" x="370.07646" y="390.04" style="stroke: #000000; stroke-width: 0.8"/>
      </g>
     </g>
     <g id="text_3">
      <!-- 200 -->
      <g transform="translate(360.53271 404.638438) scale(0.1 -0.1)">
       <defs>
        <path id="DejaVuSans-32" d="M 1228 531 
L 3431 531 
L 3431 0 
L 469 0 
L 469 531 
Q 828 903 1448 1529 
Q 2069 2156 2228 2338 
Q 2531 2678 2651 2914 
Q 2772 3150 2772 3378 
Q 2772 3750 2511 3984 
Q 2250 4219 1831 4219 
Q 1534 4219 1204 4116 
Q 875 4013 500 3803 
L 500 4441 
Q 881 4594 1212 4672 
Q 1544 4750 1819 4750 
Q 2544 4750 2975 4387 
Q 3406 4025 3406 3419 
Q 3406 3131 3298 2873 
Q 3191 2616 2906 2266 
Q 2828 2175 2409 1742 
Q 1991 1309 1228 531 
z
" transform="scale(0.015625)"/>
       </defs>
       <use xlink:href="#DejaVuSans-32"/>
       <use xlink:href="#DejaVuSans-30" transform="translate(63.623047 0)"/>
       <use xlink:href="#DejaVuSans-30" transform="translate(127.246094 0)"/>
      </g>
     </g>
    </g>
    <g id="xtick_4">
     <g id="line2d_4">
      <g>
       <use xlink:href="#m24f9b63f3d" x="511.858864" y="390.04" style="stroke: #000000; stroke-width: 0.8"/>
      </g>
     </g>
     <g id="text_4">
      <!-- 300 -->
      <g transform="translate(502.315114 404.638438) scale(0.1 -0.1)">
       <defs>
        <path id="DejaVuSans-33" d="M 2597 2516 
Q 3050 2419 3304 2112 
Q 3559 1806 3559 1356 
Q 3559 666 3084 287 
Q 2609 -91 1734 -91 
Q 1441 -91 1130 -33 
Q 819 25 488 141 
L 488 750 
Q 750 597 1062 519 
Q 1375 441 1716 441 
Q 2309 441 2620 675 
Q 2931 909 2931 1356 
Q 2931 1769 2642 2001 
Q 2353 2234 1838 2234 
L 1294 2234 
L 1294 2753 
L 1863 2753 
Q 2328 2753 2575 2939 
Q 2822 3125 2822 3475 
Q 2822 3834 2567 4026 
Q 2313 4219 1838 4219 
Q 1578 4219 1281 4162 
Q 984 4106 628 3988 
L 628 4550 
Q 988 4650 1302 4700 
Q 1616 4750 1894 4750 
Q 2613 4750 3031 4423 
Q 3450 4097 3450 3541 
Q 3450 3153 3228 2886 
Q 3006 2619 2597 2516 
z
" transform="scale(0.015625)"/>
       </defs>
       <use xlink:href="#DejaVuSans-33"/>
       <use xlink:href="#DejaVuSans-30" transform="translate(63.623047 0)"/>
       <use xlink:href="#DejaVuSans-30" transform="translate(127.246094 0)"/>
      </g>
     </g>
    </g>
    <g id="xtick_5">
     <g id="line2d_5">
      <g>
       <use xlink:href="#m24f9b63f3d" x="653.641267" y="390.04" style="stroke: #000000; stroke-width: 0.8"/>
      </g>
     </g>
     <g id="text_5">
      <!-- 400 -->
      <g transform="translate(644.097517 404.638438) scale(0.1 -0.1)">
       <defs>
        <path id="DejaVuSans-34" d="M 2419 4116 
L 825 1625 
L 2419 1625 
L 2419 4116 
z
M 2253 4666 
L 3047 4666 
L 3047 1625 
L 3713 1625 
L 3713 1100 
L 3047 1100 
L 3047 0 
L 2419 0 
L 2419 1100 
L 313 1100 
L 313 1709 
L 2253 4666 
z
" transform="scale(0.015625)"/>
       </defs>
       <use xlink:href="#DejaVuSans-34"/>
       <use xlink:href="#DejaVuSans-30" transform="translate(63.623047 0)"/>
       <use xlink:href="#DejaVuSans-30" transform="translate(127.246094 0)"/>
      </g>
     </g>
    </g>
    <g id="xtick_6">
     <g id="line2d_6">
      <g>
       <use xlink:href="#m24f9b63f3d" x="795.423671" y="390.04" style="stroke: #000000; stroke-width: 0.8"/>
      </g>
     </g>
     <g id="text_6">
      <!-- 500 -->
      <g transform="translate(785.879921 404.638438) scale(0.1 -0.1)">
       <defs>
        <path id="DejaVuSans-35" d="M 691 4666 
L 3169 4666 
L 3169 4134 
L 1269 4134 
L 1269 2991 
Q 1406 3038 1543 3061 
Q 1681 3084 1819 3084 
Q 2600 3084 3056 2656 
Q 3513 2228 3513 1497 
Q 3513 744 3044 326 
Q 2575 -91 1722 -91 
Q 1428 -91 1123 -41 
Q 819 9 494 109 
L 494 744 
Q 775 591 1075 516 
Q 1375 441 1709 441 
Q 2250 441 2565 725 
Q 2881 1009 2881 1497 
Q 2881 1984 2565 2268 
Q 2250 2553 1709 2553 
Q 1456 2553 1204 2497 
Q 953 2441 691 2322 
L 691 4666 
z
" transform="scale(0.015625)"/>
       </defs>
       <use xlink:href="#DejaVuSans-35"/>
       <use xlink:href="#DejaVuSans-30" transform="translate(63.623047 0)"/>
       <use xlink:href="#DejaVuSans-30" transform="translate(127.246094 0)"/>
      </g>
     </g>
    </g>
    <g id="text_7">
     <!-- Timestamp (Seconds) -->
     <g transform="translate(397.196655 418.316562) scale(0.1 -0.1)">
      <defs>
       <path id="DejaVuSans-54" d="M -19 4666 
L 3928 4666 
L 3928 4134 
L 2272 4134 
L 2272 0 
L 1638 0 
L 1638 4134 
L -19 4134 
L -19 4666 
z
" transform="scale(0.015625)"/>
       <path id="DejaVuSans-69" d="M 603 3500 
L 1178 3500 
L 1178 0 
L 603 0 
L 603 3500 
z
M 603 4863 
L 1178 4863 
L 1178 4134 
L 603 4134 
L 603 4863 
z
" transform="scale(0.015625)"/>
       <path id="DejaVuSans-6d" d="M 3328 2828 
Q 3544 3216 3844 3400 
Q 4144 3584 4550 3584 
Q 5097 3584 5394 3201 
Q 5691 2819 5691 2113 
L 5691 0 
L 5113 0 
L 5113 2094 
Q 5113 2597 4934 2840 
Q 4756 3084 4391 3084 
Q 3944 3084 3684 2787 
Q 3425 2491 3425 1978 
L 3425 0 
L 2847 0 
L 2847 2094 
Q 2847 2600 2669 2842 
Q 2491 3084 2119 3084 
Q 1678 3084 1418 2786 
Q 1159 2488 1159 1978 
L 1159 0 
L 581 0 
L 581 3500 
L 1159 3500 
L 1159 2956 
Q 1356 3278 1631 3431 
Q 1906 3584 2284 3584 
Q 2666 3584 2933 3390 
Q 3200 3197 3328 2828 
z
" transform="scale(0.015625)"/>
       <path id="DejaVuSans-65" d="M 3597 1894 
L 3597 1613 
L 953 1613 
Q 991 1019 1311 708 
Q 1631 397 2203 397 
Q 2534 397 2845 478 
Q 3156 559 3463 722 
L 3463 178 
Q 3153 47 2828 -22 
Q 2503 -91 2169 -91 
Q 1331 -91 842 396 
Q 353 884 353 1716 
Q 353 2575 817 3079 
Q 1281 3584 2069 3584 
Q 2775 3584 3186 3129 
Q 3597 2675 3597 1894 
z
M 3022 2063 
Q 3016 2534 2758 2815 
Q 2500 3097 2075 3097 
Q 1594 3097 1305 2825 
Q 1016 2553 972 2059 
L 3022 2063 
z
" transform="scale(0.015625)"/>
       <path id="DejaVuSans-73" d="M 2834 3397 
L 2834 2853 
Q 2591 2978 2328 3040 
Q 2066 3103 1784 3103 
Q 1356 3103 1142 2972 
Q 928 2841 928 2578 
Q 928 2378 1081 2264 
Q 1234 2150 1697 2047 
L 1894 2003 
Q 2506 1872 2764 1633 
Q 3022 1394 3022 966 
Q 3022 478 2636 193 
Q 2250 -91 1575 -91 
Q 1294 -91 989 -36 
Q 684 19 347 128 
L 347 722 
Q 666 556 975 473 
Q 1284 391 1588 391 
Q 1994 391 2212 530 
Q 2431 669 2431 922 
Q 2431 1156 2273 1281 
Q 2116 1406 1581 1522 
L 1381 1569 
Q 847 1681 609 1914 
Q 372 2147 372 2553 
Q 372 3047 722 3315 
Q 1072 3584 1716 3584 
Q 2034 3584 2315 3537 
Q 2597 3491 2834 3397 
z
" transform="scale(0.015625)"/>
       <path id="DejaVuSans-74" d="M 1172 4494 
L 1172 3500 
L 2356 3500 
L 2356 3053 
L 1172 3053 
L 1172 1153 
Q 1172 725 1289 603 
Q 1406 481 1766 481 
L 2356 481 
L 2356 0 
L 1766 0 
Q 1100 0 847 248 
Q 594 497 594 1153 
L 594 3053 
L 172 3053 
L 172 3500 
L 594 3500 
L 594 4494 
L 1172 4494 
z
" transform="scale(0.015625)"/>
       <path id="DejaVuSans-61" d="M 2194 1759 
Q 1497 1759 1228 1600 
Q 959 1441 959 1056 
Q 959 750 1161 570 
Q 1363 391 1709 391 
Q 2188 391 2477 730 
Q 2766 1069 2766 1631 
L 2766 1759 
L 2194 1759 
z
M 3341 1997 
L 3341 0 
L 2766 0 
L 2766 531 
Q 2569 213 2275 61 
Q 1981 -91 1556 -91 
Q 1019 -91 701 211 
Q 384 513 384 1019 
Q 384 1609 779 1909 
Q 1175 2209 1959 2209 
L 2766 2209 
L 2766 2266 
Q 2766 2663 2505 2880 
Q 2244 3097 1772 3097 
Q 1472 3097 1187 3025 
Q 903 2953 641 2809 
L 641 3341 
Q 956 3463 1253 3523 
Q 1550 3584 1831 3584 
Q 2591 3584 2966 3190 
Q 3341 2797 3341 1997 
z
" transform="scale(0.015625)"/>
       <path id="DejaVuSans-70" d="M 1159 525 
L 1159 -1331 
L 581 -1331 
L 581 3500 
L 1159 3500 
L 1159 2969 
Q 1341 3281 1617 3432 
Q 1894 3584 2278 3584 
Q 2916 3584 3314 3078 
Q 3713 2572 3713 1747 
Q 3713 922 3314 415 
Q 2916 -91 2278 -91 
Q 1894 -91 1617 61 
Q 1341 213 1159 525 
z
M 3116 1747 
Q 3116 2381 2855 2742 
Q 2594 3103 2138 3103 
Q 1681 3103 1420 2742 
Q 1159 2381 1159 1747 
Q 1159 1113 1420 752 
Q 1681 391 2138 391 
Q 2594 391 2855 752 
Q 3116 1113 3116 1747 
z
" transform="scale(0.015625)"/>
       <path id="DejaVuSans-20" transform="scale(0.015625)"/>
       <path id="DejaVuSans-28" d="M 1984 4856 
Q 1566 4138 1362 3434 
Q 1159 2731 1159 2009 
Q 1159 1288 1364 580 
Q 1569 -128 1984 -844 
L 1484 -844 
Q 1016 -109 783 600 
Q 550 1309 550 2009 
Q 550 2706 781 3412 
Q 1013 4119 1484 4856 
L 1984 4856 
z
" transform="scale(0.015625)"/>
       <path id="DejaVuSans-53" d="M 3425 4513 
L 3425 3897 
Q 3066 4069 2747 4153 
Q 2428 4238 2131 4238 
Q 1616 4238 1336 4038 
Q 1056 3838 1056 3469 
Q 1056 3159 1242 3001 
Q 1428 2844 1947 2747 
L 2328 2669 
Q 3034 2534 3370 2195 
Q 3706 1856 3706 1288 
Q 3706 609 3251 259 
Q 2797 -91 1919 -91 
Q 1588 -91 1214 -16 
Q 841 59 441 206 
L 441 856 
Q 825 641 1194 531 
Q 1563 422 1919 422 
Q 2459 422 2753 634 
Q 3047 847 3047 1241 
Q 3047 1584 2836 1778 
Q 2625 1972 2144 2069 
L 1759 2144 
Q 1053 2284 737 2584 
Q 422 2884 422 3419 
Q 422 4038 858 4394 
Q 1294 4750 2059 4750 
Q 2388 4750 2728 4690 
Q 3069 4631 3425 4513 
z
" transform="scale(0.015625)"/>
       <path id="DejaVuSans-63" d="M 3122 3366 
L 3122 2828 
Q 2878 2963 2633 3030 
Q 2388 3097 2138 3097 
Q 1578 3097 1268 2742 
Q 959 2388 959 1747 
Q 959 1106 1268 751 
Q 1578 397 2138 397 
Q 2388 397 2633 464 
Q 2878 531 3122 666 
L 3122 134 
Q 2881 22 2623 -34 
Q 2366 -91 2075 -91 
Q 1284 -91 818 406 
Q 353 903 353 1747 
Q 353 2603 823 3093 
Q 1294 3584 2113 3584 
Q 2378 3584 2631 3529 
Q 2884 3475 3122 3366 
z
" transform="scale(0.015625)"/>
       <path id="DejaVuSans-6f" d="M 1959 3097 
Q 1497 3097 1228 2736 
Q 959 2375 959 1747 
Q 959 1119 1226 758 
Q 1494 397 1959 397 
Q 2419 397 2687 759 
Q 2956 1122 2956 1747 
Q 2956 2369 2687 2733 
Q 2419 3097 1959 3097 
z
M 1959 3584 
Q 2709 3584 3137 3096 
Q 3566 2609 3566 1747 
Q 3566 888 3137 398 
Q 2709 -91 1959 -91 
Q 1206 -91 779 398 
Q 353 888 353 1747 
Q 353 2609 779 3096 
Q 1206 3584 1959 3584 
z
" transform="scale(0.015625)"/>
       <path id="DejaVuSans-6e" d="M 3513 2113 
L 3513 0 
L 2938 0 
L 2938 2094 
Q 2938 2591 2744 2837 
Q 2550 3084 2163 3084 
Q 1697 3084 1428 2787 
Q 1159 2491 1159 1978 
L 1159 0 
L 581 0 
L 581 3500 
L 1159 3500 
L 1159 2956 
Q 1366 3272 1645 3428 
Q 1925 3584 2291 3584 
Q 2894 3584 3203 3211 
Q 3513 2838 3513 2113 
z
" transform="scale(0.015625)"/>
       <path id="DejaVuSans-64" d="M 2906 2969 
L 2906 4863 
L 3481 4863 
L 3481 0 
L 2906 0 
L 2906 525 
Q 2725 213 2448 61 
Q 2172 -91 1784 -91 
Q 1150 -91 751 415 
Q 353 922 353 1747 
Q 353 2572 751 3078 
Q 1150 3584 1784 3584 
Q 2172 3584 2448 3432 
Q 2725 3281 2906 2969 
z
M 947 1747 
Q 947 1113 1208 752 
Q 1469 391 1925 391 
Q 2381 391 2643 752 
Q 2906 1113 2906 1747 
Q 2906 2381 2643 2742 
Q 2381 3103 1925 3103 
Q 1469 3103 1208 2742 
Q 947 2381 947 1747 
z
" transform="scale(0.015625)"/>
       <path id="DejaVuSans-29" d="M 513 4856 
L 1013 4856 
Q 1481 4119 1714 3412 
Q 1947 2706 1947 2009 
Q 1947 1309 1714 600 
Q 1481 -109 1013 -844 
L 513 -844 
Q 928 -128 1133 580 
Q 1338 1288 1338 2009 
Q 1338 2731 1133 3434 
Q 928 4138 513 4856 
z
" transform="scale(0.015625)"/>
      </defs>
      <use xlink:href="#DejaVuSans-54"/>
      <use xlink:href="#DejaVuSans-69" transform="translate(57.958984 0)"/>
      <use xlink:href="#DejaVuSans-6d" transform="translate(85.742188 0)"/>
      <use xlink:href="#DejaVuSans-65" transform="translate(183.154297 0)"/>
      <use xlink:href="#DejaVuSans-73" transform="translate(244.677734 0)"/>
      <use xlink:href="#DejaVuSans-74" transform="translate(296.777344 0)"/>
      <use xlink:href="#DejaVuSans-61" transform="translate(335.986328 0)"/>
      <use xlink:href="#DejaVuSans-6d" transform="translate(397.265625 0)"/>
      <use xlink:href="#DejaVuSans-70" transform="translate(494.677734 0)"/>
      <use xlink:href="#DejaVuSans-20" transform="translate(558.154297 0)"/>
      <use xlink:href="#DejaVuSans-28" transform="translate(589.941406 0)"/>
      <use xlink:href="#DejaVuSans-53" transform="translate(628.955078 0)"/>
      <use xlink:href="#DejaVuSans-65" transform="translate(692.431641 0)"/>
      <use xlink:href="#DejaVuSans-63" transform="translate(753.955078 0)"/>
      <use xlink:href="#DejaVuSans-6f" transform="translate(808.935547 0)"/>
      <use xlink:href="#DejaVuSans-6e" transform="translate(870.117188 0)"/>
      <use xlink:href="#DejaVuSans-64" transform="translate(933.496094 0)"/>
      <use xlink:href="#DejaVuSans-73" transform="translate(996.972656 0)"/>
      <use xlink:href="#DejaVuSans-29" transform="translate(1049.072266 0)"/>
     </g>
    </g>
   </g>
   <g id="matplotlib.axis_2">
    <g id="ytick_1">
     <g id="line2d_7">
      <defs>
       <path id="md72ca89aa8" d="M 0 0 
L -3.5 0 
" style="stroke: #000000; stroke-width: 0.8"/>
      </defs>
      <g>
       <use xlink:href="#md72ca89aa8" x="50.002685" y="230.165579" style="stroke: #000000; stroke-width: 0.8"/>
      </g>
     </g>
     <g id="text_8">
      <!-- $\mathdefault{10^{2}}$ -->
      <g transform="translate(25.402685 233.964798) scale(0.1 -0.1)">
       <use xlink:href="#DejaVuSans-31" transform="translate(0 0.765625)"/>
       <use xlink:href="#DejaVuSans-30" transform="translate(63.623047 0.765625)"/>
       <use xlink:href="#DejaVuSans-32" transform="translate(128.203125 39.046875) scale(0.7)"/>
      </g>
     </g>
    </g>
    <g id="ytick_2">
     <g id="line2d_8">
      <g>
       <use xlink:href="#md72ca89aa8" x="50.002685" y="63.154007" style="stroke: #000000; stroke-width: 0.8"/>
      </g>
     </g>
     <g id="text_9">
      <!-- $\mathdefault{10^{3}}$ -->
      <g transform="translate(25.402685 66.953226) scale(0.1 -0.1)">
       <use xlink:href="#DejaVuSans-31" transform="translate(0 0.765625)"/>
       <use xlink:href="#DejaVuSans-30" transform="translate(63.623047 0.765625)"/>
       <use xlink:href="#DejaVuSans-33" transform="translate(128.203125 39.046875) scale(0.7)"/>
      </g>
     </g>
    </g>
    <g id="ytick_3">
     <g id="line2d_9">
      <defs>
       <path id="md9e0005a25" d="M 0 0 
L -2 0 
" style="stroke: #000000; stroke-width: 0.6"/>
      </defs>
      <g>
       <use xlink:href="#md9e0005a25" x="50.002685" y="346.901659" style="stroke: #000000; stroke-width: 0.6"/>
      </g>
     </g>
    </g>
    <g id="ytick_4">
     <g id="line2d_10">
      <g>
       <use xlink:href="#md9e0005a25" x="50.002685" y="317.492381" style="stroke: #000000; stroke-width: 0.6"/>
      </g>
     </g>
    </g>
    <g id="ytick_5">
     <g id="line2d_11">
      <g>
       <use xlink:href="#md9e0005a25" x="50.002685" y="296.626166" style="stroke: #000000; stroke-width: 0.6"/>
      </g>
     </g>
    </g>
    <g id="ytick_6">
     <g id="line2d_12">
      <g>
       <use xlink:href="#md9e0005a25" x="50.002685" y="280.441072" style="stroke: #000000; stroke-width: 0.6"/>
      </g>
     </g>
    </g>
    <g id="ytick_7">
     <g id="line2d_13">
      <g>
       <use xlink:href="#md9e0005a25" x="50.002685" y="267.216888" style="stroke: #000000; stroke-width: 0.6"/>
      </g>
     </g>
    </g>
    <g id="ytick_8">
     <g id="line2d_14">
      <g>
       <use xlink:href="#md9e0005a25" x="50.002685" y="256.035999" style="stroke: #000000; stroke-width: 0.6"/>
      </g>
     </g>
    </g>
    <g id="ytick_9">
     <g id="line2d_15">
      <g>
       <use xlink:href="#md9e0005a25" x="50.002685" y="246.350673" style="stroke: #000000; stroke-width: 0.6"/>
      </g>
     </g>
    </g>
    <g id="ytick_10">
     <g id="line2d_16">
      <g>
       <use xlink:href="#md9e0005a25" x="50.002685" y="237.80761" style="stroke: #000000; stroke-width: 0.6"/>
      </g>
     </g>
    </g>
    <g id="ytick_11">
     <g id="line2d_17">
      <g>
       <use xlink:href="#md9e0005a25" x="50.002685" y="179.890087" style="stroke: #000000; stroke-width: 0.6"/>
      </g>
     </g>
    </g>
    <g id="ytick_12">
     <g id="line2d_18">
      <g>
       <use xlink:href="#md9e0005a25" x="50.002685" y="150.480808" style="stroke: #000000; stroke-width: 0.6"/>
      </g>
     </g>
    </g>
    <g id="ytick_13">
     <g id="line2d_19">
      <g>
       <use xlink:href="#md9e0005a25" x="50.002685" y="129.614594" style="stroke: #000000; stroke-width: 0.6"/>
      </g>
     </g>
    </g>
    <g id="ytick_14">
     <g id="line2d_20">
      <g>
       <use xlink:href="#md9e0005a25" x="50.002685" y="113.4295" style="stroke: #000000; stroke-width: 0.6"/>
      </g>
     </g>
    </g>
    <g id="ytick_15">
     <g id="line2d_21">
      <g>
       <use xlink:href="#md9e0005a25" x="50.002685" y="100.205315" style="stroke: #000000; stroke-width: 0.6"/>
      </g>
     </g>
    </g>
    <g id="ytick_16">
     <g id="line2d_22">
      <g>
       <use xlink:href="#md9e0005a25" x="50.002685" y="89.024427" style="stroke: #000000; stroke-width: 0.6"/>
      </g>
     </g>
    </g>
    <g id="ytick_17">
     <g id="line2d_23">
      <g>
       <use xlink:href="#md9e0005a25" x="50.002685" y="79.339101" style="stroke: #000000; stroke-width: 0.6"/>
      </g>
     </g>
    </g>
    <g id="ytick_18">
     <g id="line2d_24">
      <g>
       <use xlink:href="#md9e0005a25" x="50.002685" y="70.796037" style="stroke: #000000; stroke-width: 0.6"/>
      </g>
     </g>
    </g>
    <g id="text_10">
     <!-- Avg Duration (ms) -->
     <g transform="translate(19.322997 261.478469) rotate(-90) scale(0.1 -0.1)">
      <defs>
       <path id="DejaVuSans-41" d="M 2188 4044 
L 1331 1722 
L 3047 1722 
L 2188 4044 
z
M 1831 4666 
L 2547 4666 
L 4325 0 
L 3669 0 
L 3244 1197 
L 1141 1197 
L 716 0 
L 50 0 
L 1831 4666 
z
" transform="scale(0.015625)"/>
       <path id="DejaVuSans-76" d="M 191 3500 
L 800 3500 
L 1894 563 
L 2988 3500 
L 3597 3500 
L 2284 0 
L 1503 0 
L 191 3500 
z
" transform="scale(0.015625)"/>
       <path id="DejaVuSans-67" d="M 2906 1791 
Q 2906 2416 2648 2759 
Q 2391 3103 1925 3103 
Q 1463 3103 1205 2759 
Q 947 2416 947 1791 
Q 947 1169 1205 825 
Q 1463 481 1925 481 
Q 2391 481 2648 825 
Q 2906 1169 2906 1791 
z
M 3481 434 
Q 3481 -459 3084 -895 
Q 2688 -1331 1869 -1331 
Q 1566 -1331 1297 -1286 
Q 1028 -1241 775 -1147 
L 775 -588 
Q 1028 -725 1275 -790 
Q 1522 -856 1778 -856 
Q 2344 -856 2625 -561 
Q 2906 -266 2906 331 
L 2906 616 
Q 2728 306 2450 153 
Q 2172 0 1784 0 
Q 1141 0 747 490 
Q 353 981 353 1791 
Q 353 2603 747 3093 
Q 1141 3584 1784 3584 
Q 2172 3584 2450 3431 
Q 2728 3278 2906 2969 
L 2906 3500 
L 3481 3500 
L 3481 434 
z
" transform="scale(0.015625)"/>
       <path id="DejaVuSans-44" d="M 1259 4147 
L 1259 519 
L 2022 519 
Q 2988 519 3436 956 
Q 3884 1394 3884 2338 
Q 3884 3275 3436 3711 
Q 2988 4147 2022 4147 
L 1259 4147 
z
M 628 4666 
L 1925 4666 
Q 3281 4666 3915 4102 
Q 4550 3538 4550 2338 
Q 4550 1131 3912 565 
Q 3275 0 1925 0 
L 628 0 
L 628 4666 
z
" transform="scale(0.015625)"/>
       <path id="DejaVuSans-75" d="M 544 1381 
L 544 3500 
L 1119 3500 
L 1119 1403 
Q 1119 906 1312 657 
Q 1506 409 1894 409 
Q 2359 409 2629 706 
Q 2900 1003 2900 1516 
L 2900 3500 
L 3475 3500 
L 3475 0 
L 2900 0 
L 2900 538 
Q 2691 219 2414 64 
Q 2138 -91 1772 -91 
Q 1169 -91 856 284 
Q 544 659 544 1381 
z
M 1991 3584 
L 1991 3584 
z
" transform="scale(0.015625)"/>
       <path id="DejaVuSans-72" d="M 2631 2963 
Q 2534 3019 2420 3045 
Q 2306 3072 2169 3072 
Q 1681 3072 1420 2755 
Q 1159 2438 1159 1844 
L 1159 0 
L 581 0 
L 581 3500 
L 1159 3500 
L 1159 2956 
Q 1341 3275 1631 3429 
Q 1922 3584 2338 3584 
Q 2397 3584 2469 3576 
Q 2541 3569 2628 3553 
L 2631 2963 
z
" transform="scale(0.015625)"/>
      </defs>
      <use xlink:href="#DejaVuSans-41"/>
      <use xlink:href="#DejaVuSans-76" transform="translate(62.533203 0)"/>
      <use xlink:href="#DejaVuSans-67" transform="translate(121.712891 0)"/>
      <use xlink:href="#DejaVuSans-20" transform="translate(185.189453 0)"/>
      <use xlink:href="#DejaVuSans-44" transform="translate(216.976562 0)"/>
      <use xlink:href="#DejaVuSans-75" transform="translate(293.978516 0)"/>
      <use xlink:href="#DejaVuSans-72" transform="translate(357.357422 0)"/>
      <use xlink:href="#DejaVuSans-61" transform="translate(398.470703 0)"/>
      <use xlink:href="#DejaVuSans-74" transform="translate(459.75 0)"/>
      <use xlink:href="#DejaVuSans-69" transform="translate(498.958984 0)"/>
      <use xlink:href="#DejaVuSans-6f" transform="translate(526.742188 0)"/>
      <use xlink:href="#DejaVuSans-6e" transform="translate(587.923828 0)"/>
      <use xlink:href="#DejaVuSans-20" transform="translate(651.302734 0)"/>
      <use xlink:href="#DejaVuSans-28" transform="translate(683.089844 0)"/>
      <use xlink:href="#DejaVuSans-6d" transform="translate(722.103516 0)"/>
      <use xlink:href="#DejaVuSans-73" transform="translate(819.515625 0)"/>
      <use xlink:href="#DejaVuSans-29" transform="translate(871.615234 0)"/>
     </g>
    </g>
   </g>
   <g id="line2d_25">
    <path d="M 86.511654 327.739993 
L 87.929478 366.097134 
L 89.347302 360.847616 
L 90.765126 362.966888 
L 92.18295 363.774359 
L 93.600774 362.945034 
L 95.018598 362.588296 
L 96.436422 368.176142 
L 97.854246 367.152565 
L 99.27207 362.214296 
L 100.689894 364.729296 
L 102.107718 366.999734 
L 103.525542 362.437011 
L 104.943366 365.198276 
L 106.36119 366.374442 
L 107.779014 365.726614 
L 109.196838 365.732015 
L 110.614662 366.541679 
L 112.032486 366.280235 
L 113.45031 366.321022 
L 114.868134 366.796534 
L 116.285958 357.32986 
L 117.703782 365.713799 
L 119.121606 366.876364 
L 120.53943 364.698172 
L 121.957254 374.213455 
L 123.375079 373.318898 
L 124.792903 370.789402 
L 126.210727 371.518596 
L 127.628551 369.325401 
L 129.046375 372.796376 
L 130.464199 370.906869 
L 131.882023 373.098295 
L 133.299847 372.226386 
L 134.717671 368.842635 
L 136.135495 329.48511 
L 137.553319 354.187708 
L 138.971143 365.445649 
L 140.388967 362.666997 
L 141.806791 363.154244 
L 143.224615 368.922166 
L 144.642439 362.590323 
L 146.060263 362.703211 
L 147.478087 359.459876 
L 148.895911 360.851294 
L 150.313735 362.668157 
L 151.731559 359.621598 
L 153.149383 359.782241 
L 154.567207 365.912965 
L 155.985031 368.157214 
L 157.402855 368.499682 
L 158.820679 368.512898 
L 160.238503 368.280987 
L 161.656327 370.025752 
L 163.074151 366.710349 
L 164.491976 369.904611 
L 165.9098 369.410009 
L 167.327624 370.187317 
L 168.745448 363.661479 
L 170.163272 369.425016 
L 171.581096 369.87803 
L 172.99892 369.110116 
L 174.416744 370.311267 
L 175.834568 366.612625 
L 177.252392 368.034832 
L 178.670216 348.831912 
L 180.08804 364.222054 
L 181.505864 361.121341 
L 182.923688 363.662254 
L 184.341512 360.550688 
L 185.759336 362.503227 
L 187.17716 362.810621 
L 188.594984 359.341506 
L 190.012808 329.252254 
L 191.430632 359.516898 
L 192.848456 362.678484 
L 194.26628 364.784883 
L 195.684104 364.696667 
L 197.101928 365.143512 
L 198.519752 365.867898 
L 199.937576 364.75876 
L 201.3554 359.771061 
L 202.773224 359.144407 
L 204.191048 363.283345 
L 205.608872 365.626151 
L 207.026697 366.694181 
L 208.444521 367.572716 
L 209.862345 366.730772 
L 211.280169 367.64312 
L 212.697993 366.727245 
L 214.115817 347.439024 
L 215.533641 353.258058 
L 218.369289 343.363754 
L 219.787113 345.881945 
L 221.204937 355.150066 
L 222.622761 356.624697 
L 224.040585 353.67468 
L 225.458409 353.136872 
L 226.876233 359.620521 
L 228.294057 354.484562 
L 229.711881 357.486566 
L 231.129705 347.464524 
L 232.547529 344.762731 
L 233.965353 345.126741 
L 235.383177 347.663627 
L 236.801001 347.988878 
L 238.218825 349.217858 
L 239.636649 345.863458 
L 241.054473 350.167046 
L 242.472297 351.897371 
L 243.890121 348.779342 
L 245.307945 356.322489 
L 246.725769 357.897129 
L 248.143594 354.940093 
L 249.561418 346.958827 
L 250.979242 355.216105 
L 252.397066 353.450433 
L 253.81489 336.939496 
L 255.232714 347.459528 
L 256.650538 352.961412 
L 258.068362 350.704749 
L 259.486186 340.619698 
L 260.90401 347.730569 
L 262.321834 336.492148 
L 263.739658 350.360699 
L 265.157482 351.789801 
L 266.575306 352.044456 
L 267.99313 353.606433 
L 269.410954 345.442923 
L 270.828778 330.126404 
L 272.246602 355.711994 
L 273.664426 338.079048 
L 275.08225 352.469769 
L 276.500074 350.526945 
L 277.917898 329.590164 
L 279.335722 351.86284 
L 280.753546 352.593115 
L 282.17137 351.810087 
L 283.589194 350.505726 
L 285.007018 347.281652 
L 286.424842 352.500272 
L 287.842666 347.457986 
L 289.26049 349.094494 
L 290.678315 346.768013 
L 292.096139 334.010402 
L 293.513963 340.895476 
L 294.931787 339.65944 
L 296.349611 342.143956 
L 297.767435 337.247878 
L 299.185259 348.137662 
L 300.603083 347.819954 
L 302.020907 339.000691 
L 303.438731 333.746457 
L 304.856555 337.949831 
L 306.274379 343.399524 
L 307.692203 315.471196 
L 309.110027 339.729477 
L 310.527851 341.76976 
L 311.945675 341.8139 
L 313.363499 340.579816 
L 314.781323 344.067857 
L 316.199147 346.161979 
L 317.616971 335.832244 
L 319.034795 341.192462 
L 320.452619 345.015666 
L 321.870443 342.553691 
L 323.288267 347.222715 
L 324.706091 344.208063 
L 326.123915 340.301989 
L 327.541739 340.741521 
L 328.959563 336.94243 
L 330.377387 338.871504 
L 331.795212 341.281505 
L 333.213036 345.684723 
L 334.63086 338.231207 
L 336.048684 338.381674 
L 337.466508 337.583196 
L 338.884332 335.745305 
L 340.302156 337.695763 
L 341.71998 325.183044 
L 343.137804 340.788123 
L 344.555628 335.167198 
L 345.973452 326.018866 
L 347.391276 334.347947 
L 348.8091 328.161668 
L 350.226924 319.666607 
L 351.644748 331.212126 
L 353.062572 337.581942 
L 354.480396 332.38707 
L 357.316044 315.797931 
L 358.733868 298.423442 
L 360.151692 320.919964 
L 361.569516 296.821419 
L 362.98734 339.422299 
L 364.405164 335.354673 
L 365.822988 339.537398 
L 367.240812 341.903274 
L 368.658636 338.276815 
L 370.07646 336.485136 
L 371.494284 342.585051 
L 372.912108 341.787915 
L 374.329933 342.522036 
L 375.747757 339.718718 
L 377.165581 300.047916 
L 378.583405 331.385697 
L 380.001229 280.234573 
L 381.419053 304.919885 
L 382.836877 317.947069 
L 384.254701 299.403414 
L 385.672525 299.421621 
L 387.090349 318.529314 
L 388.508173 325.629631 
L 389.925997 328.991779 
L 391.343821 336.499556 
L 392.761645 333.597905 
L 394.179469 331.077 
L 395.597293 276.59727 
L 397.015117 344.672159 
L 398.432941 312.459129 
L 399.850765 275.473454 
L 401.268589 293.073563 
L 402.686413 306.21127 
L 404.104237 323.634207 
L 405.522061 327.073752 
L 406.939885 318.013325 
L 408.357709 317.322351 
L 409.775533 327.757259 
L 411.193357 268.682434 
L 412.611181 325.246492 
L 414.029005 330.038777 
L 415.44683 328.298734 
L 416.864654 331.978114 
L 418.282478 334.201898 
L 419.700302 332.911986 
L 421.118126 305.365741 
L 422.53595 330.882818 
L 423.953774 303.414731 
L 425.371598 312.736956 
L 426.789422 316.987167 
L 428.207246 295.114249 
L 429.62507 331.972691 
L 431.042894 337.924271 
L 432.460718 340.224925 
L 433.878542 341.043973 
L 435.296366 341.716472 
L 436.71419 334.216017 
L 438.132014 331.911398 
L 439.549838 334.604622 
L 440.967662 321.82482 
L 442.385486 328.045332 
L 443.80331 320.889758 
L 445.221134 255.416757 
L 446.638958 309.987734 
L 448.056782 312.406842 
L 449.474606 236.978136 
L 450.89243 257.868931 
L 452.310254 293.540531 
L 453.728078 306.071166 
L 455.145902 303.285559 
L 456.563727 312.944277 
L 457.981551 289.018541 
L 459.399375 313.006144 
L 460.817199 279.191581 
L 462.235023 287.993792 
L 463.652847 293.204575 
L 465.070671 299.844754 
L 466.488495 272.564883 
L 467.906319 279.426924 
L 469.324143 287.444329 
L 470.741967 294.491101 
L 472.159791 303.315502 
L 473.577615 288.197463 
L 474.995439 300.097927 
L 476.413263 316.286563 
L 477.831087 292.517289 
L 479.248911 306.925876 
L 480.666735 304.421015 
L 482.084559 301.617166 
L 483.502383 215.907817 
L 484.920207 268.913618 
L 486.338031 291.697325 
L 487.755855 287.570429 
L 489.173679 275.523556 
L 490.591503 252.735439 
L 492.009327 254.697611 
L 493.427151 186.105638 
L 494.844975 236.386627 
L 496.262799 235.602436 
L 497.680623 209.193245 
L 499.098448 283.627048 
L 500.516272 285.103656 
L 501.934096 216.693133 
L 503.35192 275.690564 
L 504.769744 272.567425 
L 506.187568 263.214163 
L 507.605392 266.707596 
L 509.023216 268.596584 
L 510.44104 249.044871 
L 511.858864 258.63899 
L 513.276688 252.687436 
L 514.694512 244.549436 
L 516.112336 245.334157 
L 517.53016 245.898155 
L 518.947984 192.548894 
L 520.365808 226.879055 
L 521.783632 236.570074 
L 523.201456 226.258911 
L 524.61928 229.185542 
L 526.037104 227.607857 
L 527.454928 219.123479 
L 528.872752 190.740276 
L 530.290576 176.851998 
L 531.7084 164.732359 
L 533.126224 209.455467 
L 534.544048 212.336813 
L 535.961872 207.073873 
L 537.379696 211.001495 
L 538.79752 192.165838 
L 540.215345 166.088979 
L 541.633169 192.256078 
L 543.050993 178.100806 
L 544.468817 168.049489 
L 545.886641 167.120938 
L 547.304465 191.72911 
L 548.722289 170.877842 
L 550.140113 160.072815 
L 551.557937 196.328372 
L 552.975761 192.503163 
L 554.393585 183.659831 
L 555.811409 188.114791 
L 557.229233 187.565802 
L 558.647057 180.796503 
L 560.064881 185.490394 
L 561.482705 182.587369 
L 562.900529 173.816957 
L 564.318353 158.953354 
L 565.736177 177.326088 
L 567.154001 172.073613 
L 568.571825 179.124877 
L 571.407473 169.50696 
L 572.825297 174.934302 
L 574.243121 170.331731 
L 575.660945 167.392001 
L 577.078769 154.175997 
L 578.496593 150.914465 
L 579.914417 144.287136 
L 581.332241 130.927147 
L 582.750066 145.048014 
L 584.16789 164.608238 
L 585.585714 158.71827 
L 587.003538 163.76409 
L 588.421362 155.771461 
L 589.839186 160.482688 
L 591.25701 159.638099 
L 592.674834 162.336295 
L 594.092658 157.619297 
L 596.928306 134.100051 
L 598.34613 146.251951 
L 599.763954 156.155217 
L 601.181778 153.237022 
L 602.599602 142.10297 
L 604.017426 124.492029 
L 605.43525 146.077614 
L 606.853074 147.223882 
L 608.270898 149.518713 
L 609.688722 148.101685 
L 611.106546 143.003099 
L 612.52437 147.095888 
L 613.942194 144.602804 
L 615.360018 141.846598 
L 618.195666 145.143655 
L 621.031314 138.240619 
L 622.449138 141.71135 
L 623.866963 140.33453 
L 625.284787 134.862789 
L 626.702611 139.688368 
L 628.120435 125.285021 
L 629.538259 131.242815 
L 630.956083 137.687307 
L 632.373907 131.282765 
L 633.791731 135.19628 
L 635.209555 125.423463 
L 636.627379 126.926721 
L 638.045203 127.965836 
L 639.463027 134.558371 
L 640.880851 132.846165 
L 642.298675 125.726434 
L 643.716499 132.677399 
L 645.134323 118.950798 
L 646.552147 118.472206 
L 647.969971 129.225928 
L 649.387795 130.953437 
L 650.805619 119.079434 
L 652.223443 131.624146 
L 653.641267 124.147041 
L 655.059091 127.759295 
L 656.476915 111.197184 
L 657.894739 121.198216 
L 659.312563 120.023748 
L 660.730387 123.232229 
L 662.148211 118.65504 
L 663.566035 114.988985 
L 664.983859 112.156968 
L 666.401684 108.508954 
L 667.819508 102.512388 
L 669.237332 123.725162 
L 670.655156 114.498008 
L 672.07298 106.171743 
L 673.490804 114.612587 
L 676.326452 101.908517 
L 677.744276 113.980265 
L 679.1621 116.633107 
L 680.579924 115.986493 
L 681.997748 108.19605 
L 683.415572 106.9283 
L 684.833396 107.183765 
L 686.25122 91.103598 
L 687.669044 109.27062 
L 689.086868 111.894411 
L 690.504692 99.266685 
L 691.922516 108.691553 
L 693.34034 105.971923 
L 694.758164 104.306423 
L 696.175988 104.953092 
L 697.593812 97.165048 
L 699.011636 99.801664 
L 700.42946 103.401195 
L 701.847284 110.089663 
L 703.265108 105.585972 
L 704.682932 103.006659 
L 706.100756 101.026585 
L 707.518581 101.042198 
L 708.936405 94.469805 
L 710.354229 98.552931 
L 711.772053 97.058784 
L 713.189877 90.88264 
L 714.607701 98.479011 
L 716.025525 102.300215 
L 717.443349 98.18935 
L 718.861173 105.499365 
L 720.278997 100.303607 
L 721.696821 97.705763 
L 724.532469 83.73032 
L 725.950293 75.554176 
L 727.368117 94.942781 
L 728.785941 101.656348 
L 730.203765 100.596612 
L 731.621589 90.378003 
L 733.039413 93.468842 
L 734.457237 90.042245 
L 735.875061 85.69446 
L 737.292885 98.928321 
L 738.710709 100.878821 
L 740.128533 81.98635 
L 741.546357 84.271899 
L 742.964181 92.28121 
L 744.382005 95.405419 
L 745.799829 92.664182 
L 747.217653 92.158299 
L 748.635477 94.149669 
L 750.053302 88.908908 
L 751.471126 87.845631 
L 752.88895 80.028844 
L 754.306774 82.249764 
L 755.724598 88.565901 
L 757.142422 86.785541 
L 758.560246 91.548414 
L 759.97807 87.026174 
L 761.395894 73.388823 
L 762.813718 88.936353 
L 764.231542 83.229121 
L 765.649366 77.988272 
L 767.06719 82.080626 
L 768.485014 83.604903 
L 769.902838 80.120484 
L 771.320662 77.107196 
L 772.738486 87.729298 
L 774.15631 77.425676 
L 775.574134 79.969765 
L 776.991958 81.397972 
L 778.409782 79.543871 
L 779.827606 87.485751 
L 781.24543 82.104462 
L 782.663254 75.06146 
L 784.081078 84.194737 
L 785.498902 78.002909 
L 786.916726 73.606883 
L 788.33455 78.559078 
L 789.752374 80.256046 
L 791.170199 76.776489 
L 792.588023 70.164941 
L 794.005847 78.372202 
L 795.423671 78.302792 
L 796.841495 76.66699 
L 798.259319 81.786336 
L 799.677143 82.915284 
L 801.094967 75.842141 
L 802.512791 81.420638 
L 803.930615 79.296232 
L 805.348439 65.323822 
L 806.766263 72.692789 
L 808.184087 71.03987 
L 809.601911 63.187613 
L 811.019735 69.116486 
L 812.437559 71.456339 
L 813.855383 75.445434 
L 815.273207 73.235843 
L 816.691031 61.950848 
L 816.691031 61.950848 
" clip-path="url(#p66a75bb8e0)" style="fill: none; stroke: #1f77b4; stroke-width: 1.5; stroke-linecap: square"/>
   </g>
   <g id="line2d_26">
    <path d="M 86.511654 352.183341 
L 87.929478 359.230098 
L 89.347302 362.367152 
L 90.765126 297.289821 
L 92.18295 362.679749 
L 93.600774 365.566826 
L 95.018598 365.509892 
L 96.436422 366.220885 
L 97.854246 351.632972 
L 99.27207 360.69566 
L 100.689894 331.731892 
L 102.107718 366.078014 
L 103.525542 362.927462 
L 104.943366 365.917518 
L 106.36119 362.830378 
L 107.779014 365.634568 
L 110.614662 365.932355 
L 112.032486 355.448413 
L 113.45031 236.946099 
L 114.868134 370.312124 
L 116.285958 371.446291 
L 117.703782 373.715193 
L 119.121606 372.972906 
L 120.53943 370.437195 
L 121.957254 371.404304 
L 123.375079 373.594721 
L 124.792903 366.044216 
L 126.210727 366.263603 
L 127.628551 353.794557 
L 129.046375 365.816838 
L 130.464199 340.857837 
L 131.882023 358.147204 
L 133.299847 357.294563 
L 134.717671 340.860189 
L 136.135495 335.061559 
L 137.553319 350.416879 
L 138.971143 358.602073 
L 140.388967 357.782513 
L 141.806791 353.976841 
L 143.224615 362.219315 
L 144.642439 365.110138 
L 146.060263 360.667077 
L 147.478087 366.094981 
L 148.895911 368.738491 
L 150.313735 241.526083 
L 151.731559 317.802835 
L 153.149383 327.990196 
L 154.567207 340.562455 
L 155.985031 335.706659 
L 157.402855 245.876599 
L 158.820679 301.450928 
L 160.238503 337.247489 
L 161.656327 358.1823 
L 163.074151 355.228824 
L 164.491976 361.40352 
L 165.9098 324.241399 
L 168.745448 360.333838 
L 170.163272 356.528412 
L 171.581096 325.607764 
L 172.99892 346.136419 
L 174.416744 352.803517 
L 175.834568 285.660956 
L 178.670216 198.243233 
L 180.08804 244.197125 
L 181.505864 262.399157 
L 182.923688 295.41581 
L 184.341512 322.57143 
L 185.759336 327.427821 
L 187.17716 342.553348 
L 188.594984 299.032726 
L 190.012808 304.170004 
L 191.430632 314.584194 
L 192.848456 322.128104 
L 194.26628 341.947365 
L 195.684104 347.36902 
L 197.101928 337.120026 
L 198.519752 354.617321 
L 199.937576 178.613048 
L 201.3554 290.437647 
L 202.773224 276.14457 
L 204.191048 226.80525 
L 205.608872 249.5946 
L 207.026697 260.827292 
L 208.444521 260.73239 
L 209.862345 268.15155 
L 211.280169 264.678779 
L 212.697993 315.840715 
L 214.115817 316.252187 
L 215.533641 264.225735 
L 216.951465 271.96927 
L 218.369289 198.850304 
L 219.787113 259.780968 
L 221.204937 260.788145 
L 222.622761 264.891889 
L 224.040585 288.275086 
L 225.458409 321.36916 
L 226.876233 251.994999 
L 229.711881 209.763397 
L 231.129705 244.01479 
L 232.547529 235.311553 
L 233.965353 238.796943 
L 235.383177 154.708123 
L 236.801001 186.999167 
L 238.218825 207.554087 
L 239.636649 164.070681 
L 241.054473 190.627169 
L 242.472297 130.753281 
L 243.890121 118.60869 
L 245.307945 222.65064 
L 246.725769 254.053461 
L 248.143594 159.678817 
L 249.561418 203.287465 
L 250.979242 185.143245 
L 252.397066 235.555114 
L 253.81489 157.743476 
L 255.232714 214.266892 
L 256.650538 237.331894 
L 258.068362 219.115459 
L 259.486186 179.884837 
L 260.90401 170.30123 
L 262.321834 184.22071 
L 263.739658 108.881552 
L 265.157482 187.328929 
L 266.575306 118.708685 
L 267.99313 184.838485 
L 269.410954 111.440376 
L 270.828778 149.080749 
L 272.246602 126.667819 
L 275.08225 90.699448 
L 276.500074 120.719526 
L 277.917898 75.186043 
L 279.335722 127.47961 
L 280.753546 86.746876 
L 282.17137 96.031334 
L 283.589194 57.992848 
L 285.007018 91.675007 
L 286.424842 57.682545 
L 287.842666 65.83893 
L 289.26049 75.033276 
L 290.678315 62.892131 
L 292.096139 192.566984 
L 292.096139 192.566984 
" clip-path="url(#p66a75bb8e0)" style="fill: none; stroke: #ff7f0e; stroke-width: 1.5; stroke-linecap: square"/>
   </g>
   <g id="line2d_27">
    <path d="M 86.511654 359.267238 
L 89.347302 363.025149 
L 90.765126 361.59172 
L 92.18295 359.195408 
L 93.600774 366.01309 
L 95.018598 362.896696 
L 96.436422 358.419866 
L 97.854246 368.15305 
L 99.27207 366.397999 
L 100.689894 363.082523 
L 102.107718 364.835741 
L 103.525542 365.210207 
L 104.943366 339.440226 
L 106.36119 336.502446 
L 107.779014 364.514831 
L 109.196838 365.85984 
L 110.614662 365.644639 
L 112.032486 361.743252 
L 113.45031 365.205162 
L 114.868134 365.977392 
L 116.285958 361.015773 
L 117.703782 281.754892 
L 119.121606 369.842026 
L 120.53943 357.723689 
L 121.957254 358.586013 
L 123.375079 367.827949 
L 124.792903 366.642026 
L 126.210727 366.410546 
L 127.628551 364.250893 
L 129.046375 360.415965 
L 130.464199 368.782509 
L 131.882023 372.475524 
L 133.299847 289.309197 
L 134.717671 270.572825 
L 136.135495 347.110139 
L 137.553319 356.373831 
L 138.971143 351.623062 
L 140.388967 355.403792 
L 141.806791 355.176903 
L 143.224615 357.135971 
L 144.642439 339.573882 
L 146.060263 338.019657 
L 147.478087 356.950429 
L 148.895911 362.610422 
L 150.313735 315.389994 
L 151.731559 293.359144 
L 153.149383 353.479725 
L 154.567207 360.529959 
L 155.985031 344.396656 
L 157.402855 316.959581 
L 158.820679 360.413602 
L 160.238503 308.708181 
L 161.656327 365.66141 
L 163.074151 361.575945 
L 164.491976 312.377865 
L 165.9098 303.649927 
L 167.327624 307.437945 
L 168.745448 363.349713 
L 170.163272 336.730072 
L 171.581096 364.42746 
L 172.99892 319.609954 
L 174.416744 363.971346 
L 175.834568 364.22573 
L 177.252392 356.882568 
L 178.670216 369.696081 
L 180.08804 372.073442 
L 181.505864 344.702281 
L 182.923688 362.753775 
L 184.341512 358.275202 
L 185.759336 338.95867 
L 187.17716 365.078427 
L 188.594984 352.756076 
L 190.012808 358.441718 
L 191.430632 360.212084 
L 192.848456 350.494947 
L 194.26628 361.619374 
L 195.684104 368.113936 
L 197.101928 367.12604 
L 198.519752 327.013305 
L 199.937576 360.334848 
L 201.3554 360.050315 
L 202.773224 319.846924 
L 204.191048 354.948071 
L 205.608872 337.716335 
L 207.026697 309.990469 
L 208.444521 320.352649 
L 209.862345 315.080739 
L 211.280169 312.094466 
L 212.697993 335.033129 
L 214.115817 330.384686 
L 215.533641 327.079945 
L 216.951465 334.13866 
L 218.369289 341.837151 
L 219.787113 344.609304 
L 221.204937 295.037367 
L 222.622761 336.046371 
L 224.040585 341.057228 
L 225.458409 329.096416 
L 226.876233 305.445633 
L 228.294057 326.823086 
L 229.711881 318.562364 
L 231.129705 322.418525 
L 232.547529 348.761742 
L 233.965353 346.695768 
L 235.383177 285.529421 
L 236.801001 349.418769 
L 238.218825 309.334358 
L 239.636649 241.928789 
L 241.054473 330.295265 
L 242.472297 226.570454 
L 243.890121 315.094645 
L 245.307945 298.682925 
L 246.725769 321.878941 
L 248.143594 266.861282 
L 249.561418 326.802174 
L 250.979242 337.704737 
L 252.397066 314.530543 
L 253.81489 350.729456 
L 255.232714 325.717329 
L 256.650538 329.383224 
L 258.068362 338.777629 
L 259.486186 277.419829 
L 260.90401 326.620029 
L 262.321834 302.463415 
L 263.739658 305.183797 
L 265.157482 316.321526 
L 266.575306 334.751726 
L 267.99313 299.483014 
L 269.410954 344.305637 
L 270.828778 329.712914 
L 272.246602 325.137379 
L 273.664426 297.259102 
L 275.08225 315.062232 
L 276.500074 338.495757 
L 277.917898 311.965693 
L 279.335722 335.889473 
L 280.753546 332.822828 
L 282.17137 304.127417 
L 283.589194 319.742674 
L 285.007018 326.821655 
L 286.424842 324.191814 
L 287.842666 290.911688 
L 289.26049 333.593886 
L 290.678315 338.513658 
L 292.096139 333.535462 
L 293.513963 324.552681 
L 294.931787 351.323099 
L 296.349611 350.667371 
L 297.767435 342.507194 
L 299.185259 340.521091 
L 300.603083 340.589961 
L 302.020907 318.891047 
L 303.438731 329.991384 
L 304.856555 313.70141 
L 306.274379 336.168772 
L 309.110027 258.409575 
L 310.527851 313.211169 
L 311.945675 336.729434 
L 313.363499 285.297933 
L 314.781323 324.410086 
L 316.199147 339.375078 
L 317.616971 282.702537 
L 319.034795 260.941995 
L 320.452619 323.549728 
L 321.870443 318.706949 
L 323.288267 270.80813 
L 324.706091 330.270115 
L 326.123915 302.124723 
L 327.541739 310.353533 
L 328.959563 332.669955 
L 330.377387 273.668248 
L 331.795212 314.421541 
L 333.213036 339.501502 
L 334.63086 316.586959 
L 336.048684 323.579654 
L 337.466508 286.622136 
L 338.884332 330.831744 
L 340.302156 291.355003 
L 341.71998 268.977557 
L 343.137804 295.162108 
L 344.555628 324.854131 
L 345.973452 340.337039 
L 347.391276 304.458474 
L 348.8091 296.499439 
L 350.226924 312.469283 
L 351.644748 272.722246 
L 353.062572 274.90482 
L 354.480396 316.389718 
L 355.89822 290.010617 
L 357.316044 260.700056 
L 358.733868 300.153765 
L 360.151692 303.0056 
L 361.569516 288.833314 
L 362.98734 316.431074 
L 364.405164 302.507599 
L 365.822988 303.605417 
L 367.240812 336.184409 
L 368.658636 288.889536 
L 370.07646 298.049365 
L 372.912108 299.581249 
L 374.329933 244.566394 
L 375.747757 264.513512 
L 377.165581 299.728786 
L 378.583405 268.726162 
L 380.001229 303.921827 
L 381.419053 324.516169 
L 382.836877 270.699152 
L 384.254701 327.478059 
L 385.672525 310.223985 
L 387.090349 314.966464 
L 388.508173 250.426485 
L 389.925997 240.57389 
L 391.343821 266.571832 
L 392.761645 324.271627 
L 394.179469 272.318335 
L 395.597293 249.848463 
L 397.015117 313.798613 
L 398.432941 311.72741 
L 399.850765 276.113782 
L 401.268589 235.438189 
L 402.686413 279.494271 
L 404.104237 314.991913 
L 405.522061 216.395828 
L 406.939885 303.040233 
L 408.357709 285.851867 
L 409.775533 271.355698 
L 411.193357 261.176251 
L 412.611181 262.833809 
L 414.029005 281.495307 
L 415.44683 242.155709 
L 416.864654 240.095744 
L 418.282478 280.180358 
L 419.700302 287.64276 
L 421.118126 265.287502 
L 422.53595 256.855011 
L 423.953774 311.152549 
L 425.371598 269.941555 
L 426.789422 220.984967 
L 428.207246 257.743877 
L 429.62507 233.86908 
L 431.042894 279.578382 
L 432.460718 305.683442 
L 433.878542 235.53942 
L 435.296366 226.963261 
L 436.71419 213.192333 
L 438.132014 253.05201 
L 439.549838 246.896726 
L 440.967662 197.992001 
L 442.385486 249.345646 
L 443.80331 231.595947 
L 445.221134 289.789686 
L 446.638958 246.617049 
L 448.056782 269.510943 
L 449.474606 209.532572 
L 450.89243 232.415339 
L 452.310254 279.632234 
L 453.728078 205.662867 
L 455.145902 257.47868 
L 456.563727 247.433416 
L 457.981551 252.046493 
L 459.399375 180.850921 
L 460.817199 191.25954 
L 462.235023 258.080278 
L 463.652847 296.776799 
L 465.070671 224.157552 
L 466.488495 217.899032 
L 467.906319 256.975117 
L 469.324143 224.881284 
L 470.741967 212.768564 
L 472.159791 177.301895 
L 473.577615 161.179062 
L 474.995439 173.63788 
L 476.413263 225.001684 
L 477.831087 210.437705 
L 479.248911 207.556188 
L 480.666735 178.047583 
L 482.084559 222.138226 
L 483.502383 205.232779 
L 484.920207 236.611176 
L 486.338031 209.017789 
L 487.755855 232.19079 
L 489.173679 209.089893 
L 490.591503 213.728018 
L 492.009327 175.22141 
L 493.427151 231.670742 
L 496.262799 174.311391 
L 497.680623 193.497825 
L 499.098448 158.584184 
L 500.516272 173.466957 
L 501.934096 183.563208 
L 503.35192 221.923331 
L 504.769744 202.880215 
L 506.187568 199.206205 
L 507.605392 199.913501 
L 509.023216 186.525677 
L 510.44104 170.239411 
L 511.858864 136.414425 
L 513.276688 127.072904 
L 514.694512 197.414767 
L 516.112336 193.163617 
L 517.53016 205.324689 
L 518.947984 193.499336 
L 520.365808 154.385893 
L 521.783632 186.533732 
L 523.201456 159.896371 
L 524.61928 144.967078 
L 526.037104 159.890117 
L 527.454928 160.752057 
L 528.872752 168.128682 
L 530.290576 161.318714 
L 531.7084 160.259079 
L 533.126224 155.552684 
L 534.544048 205.559028 
L 537.379696 165.789149 
L 538.79752 185.140449 
L 540.215345 171.927843 
L 541.633169 169.542325 
L 543.050993 202.088545 
L 544.468817 156.405983 
L 545.886641 136.940001 
L 547.304465 134.648446 
L 548.722289 150.695649 
L 550.140113 169.661191 
L 551.557937 184.920604 
L 552.975761 166.842871 
L 555.811409 136.794196 
L 557.229233 151.082728 
L 558.647057 174.980525 
L 560.064881 148.173594 
L 561.482705 156.569717 
L 562.900529 160.355767 
L 564.318353 143.007062 
L 565.736177 128.537684 
L 568.571825 157.481135 
L 569.989649 164.0789 
L 571.407473 149.436717 
L 572.825297 152.146524 
L 574.243121 146.002129 
L 575.660945 141.447125 
L 577.078769 131.869121 
L 578.496593 123.113265 
L 579.914417 128.434063 
L 581.332241 128.147157 
L 582.750066 131.708574 
L 584.16789 154.337158 
L 585.585714 125.848024 
L 587.003538 103.081992 
L 588.421362 130.716525 
L 589.839186 133.36548 
L 591.25701 123.68947 
L 592.674834 129.414623 
L 594.092658 129.313027 
L 595.510482 137.338932 
L 596.928306 151.835984 
L 598.34613 132.767873 
L 599.763954 136.629154 
L 601.181778 126.526438 
L 602.599602 126.729551 
L 604.017426 131.002205 
L 605.43525 115.305386 
L 606.853074 120.575557 
L 608.270898 128.607595 
L 609.688722 137.486482 
L 611.106546 120.534463 
L 613.942194 128.441143 
L 615.360018 103.463932 
L 616.777842 107.51671 
L 618.195666 116.757456 
L 619.61349 119.909624 
L 621.031314 119.175605 
L 622.449138 113.609315 
L 623.866963 103.462798 
L 625.284787 112.386198 
L 626.702611 97.391222 
L 628.120435 102.204127 
L 629.538259 87.008097 
L 630.956083 107.996521 
L 632.373907 110.81953 
L 633.791731 93.24358 
L 635.209555 97.43319 
L 636.627379 109.170184 
L 638.045203 115.76147 
L 639.463027 123.169006 
L 640.880851 115.351419 
L 642.298675 100.371274 
L 643.716499 109.349402 
L 645.134323 103.56165 
L 646.552147 107.972159 
L 647.969971 103.516708 
L 649.387795 104.369282 
L 650.805619 95.990731 
L 652.223443 110.881622 
L 653.641267 92.435281 
L 655.059091 87.220069 
L 656.476915 98.483675 
L 657.894739 92.965426 
L 659.312563 105.348889 
L 660.730387 87.84468 
L 662.148211 89.061869 
L 664.983859 78.721539 
L 666.401684 74.124588 
L 667.819508 87.236514 
L 669.237332 92.046364 
L 670.655156 107.210506 
L 672.07298 93.89565 
L 673.490804 88.998286 
L 674.908628 90.742898 
L 676.326452 102.521644 
L 677.744276 102.058474 
L 679.1621 93.350904 
L 680.579924 97.476859 
L 681.997748 108.423861 
L 683.415572 86.181072 
L 684.833396 95.612889 
L 686.25122 108.475144 
L 687.669044 87.157717 
L 689.086868 88.57075 
L 690.504692 98.488773 
L 691.922516 79.247872 
L 693.34034 76.756719 
L 694.758164 92.068315 
L 696.175988 80.099466 
L 697.593812 99.824112 
L 699.011636 75.366644 
L 700.42946 81.912417 
L 701.847284 79.658966 
L 703.265108 95.116787 
L 704.682932 96.252092 
L 706.100756 100.448308 
L 707.518581 95.769868 
L 708.936405 94.296058 
L 710.354229 90.056428 
L 711.772053 87.244644 
L 713.189877 96.710283 
L 714.607701 93.543681 
L 716.025525 96.35027 
L 717.443349 79.285257 
L 718.861173 82.146997 
L 720.278997 83.371043 
L 721.696821 79.301875 
L 723.114645 85.258221 
L 724.532469 67.325768 
L 725.950293 78.663956 
L 727.368117 74.171325 
L 728.785941 70.872361 
L 730.203765 79.035525 
L 731.621589 71.944016 
L 733.039413 73.7088 
L 734.457237 81.460233 
L 735.875061 77.011952 
L 737.292885 68.325699 
L 738.710709 81.175666 
L 740.128533 86.731986 
L 741.546357 79.348747 
L 742.964181 81.370464 
L 744.382005 75.470177 
L 744.382005 75.470177 
" clip-path="url(#p66a75bb8e0)" style="fill: none; stroke: #2ca02c; stroke-width: 1.5; stroke-linecap: square"/>
   </g>
   <g id="patch_3">
    <path d="M 50.002685 390.04 
L 50.002685 41.856 
" style="fill: none; stroke: #000000; stroke-width: 0.8; stroke-linejoin: miter; stroke-linecap: square"/>
   </g>
   <g id="patch_4">
    <path d="M 853.2 390.04 
L 853.2 41.856 
" style="fill: none; stroke: #000000; stroke-width: 0.8; stroke-linejoin: miter; stroke-linecap: square"/>
   </g>
   <g id="patch_5">
    <path d="M 50.002685 390.04 
L 853.2 390.04 
" style="fill: none; stroke: #000000; stroke-width: 0.8; stroke-linejoin: miter; stroke-linecap: square"/>
   </g>
   <g id="patch_6">
    <path d="M 50.002685 41.856 
L 853.2 41.856 
" style="fill: none; stroke: #000000; stroke-width: 0.8; stroke-linejoin: miter; stroke-linecap: square"/>
   </g>
   <g id="text_11">
    <!-- Average HTTP Request Duration Over Time -->
    <g transform="translate(322.529155 22.355625) scale(0.12 -0.12)">
     <defs>
      <path id="DejaVuSans-48" d="M 628 4666 
L 1259 4666 
L 1259 2753 
L 3553 2753 
L 3553 4666 
L 4184 4666 
L 4184 0 
L 3553 0 
L 3553 2222 
L 1259 2222 
L 1259 0 
L 628 0 
L 628 4666 
z
" transform="scale(0.015625)"/>
      <path id="DejaVuSans-50" d="M 1259 4147 
L 1259 2394 
L 2053 2394 
Q 2494 2394 2734 2622 
Q 2975 2850 2975 3272 
Q 2975 3691 2734 3919 
Q 2494 4147 2053 4147 
L 1259 4147 
z
M 628 4666 
L 2053 4666 
Q 2838 4666 3239 4311 
Q 3641 3956 3641 3272 
Q 3641 2581 3239 2228 
Q 2838 1875 2053 1875 
L 1259 1875 
L 1259 0 
L 628 0 
L 628 4666 
z
" transform="scale(0.015625)"/>
      <path id="DejaVuSans-52" d="M 2841 2188 
Q 3044 2119 3236 1894 
Q 3428 1669 3622 1275 
L 4263 0 
L 3584 0 
L 2988 1197 
Q 2756 1666 2539 1819 
Q 2322 1972 1947 1972 
L 1259 1972 
L 1259 0 
L 628 0 
L 628 4666 
L 2053 4666 
Q 2853 4666 3247 4331 
Q 3641 3997 3641 3322 
Q 3641 2881 3436 2590 
Q 3231 2300 2841 2188 
z
M 1259 4147 
L 1259 2491 
L 2053 2491 
Q 2509 2491 2742 2702 
Q 2975 2913 2975 3322 
Q 2975 3731 2742 3939 
Q 2509 4147 2053 4147 
L 1259 4147 
z
" transform="scale(0.015625)"/>
      <path id="DejaVuSans-71" d="M 947 1747 
Q 947 1113 1208 752 
Q 1469 391 1925 391 
Q 2381 391 2643 752 
Q 2906 1113 2906 1747 
Q 2906 2381 2643 2742 
Q 2381 3103 1925 3103 
Q 1469 3103 1208 2742 
Q 947 2381 947 1747 
z
M 2906 525 
Q 2725 213 2448 61 
Q 2172 -91 1784 -91 
Q 1150 -91 751 415 
Q 353 922 353 1747 
Q 353 2572 751 3078 
Q 1150 3584 1784 3584 
Q 2172 3584 2448 3432 
Q 2725 3281 2906 2969 
L 2906 3500 
L 3481 3500 
L 3481 -1331 
L 2906 -1331 
L 2906 525 
z
" transform="scale(0.015625)"/>
      <path id="DejaVuSans-4f" d="M 2522 4238 
Q 1834 4238 1429 3725 
Q 1025 3213 1025 2328 
Q 1025 1447 1429 934 
Q 1834 422 2522 422 
Q 3209 422 3611 934 
Q 4013 1447 4013 2328 
Q 4013 3213 3611 3725 
Q 3209 4238 2522 4238 
z
M 2522 4750 
Q 3503 4750 4090 4092 
Q 4678 3434 4678 2328 
Q 4678 1225 4090 567 
Q 3503 -91 2522 -91 
Q 1538 -91 948 565 
Q 359 1222 359 2328 
Q 359 3434 948 4092 
Q 1538 4750 2522 4750 
z
" transform="scale(0.015625)"/>
     </defs>
     <use xlink:href="#DejaVuSans-41"/>
     <use xlink:href="#DejaVuSans-76" transform="translate(62.533203 0)"/>
     <use xlink:href="#DejaVuSans-65" transform="translate(121.712891 0)"/>
     <use xlink:href="#DejaVuSans-72" transform="translate(183.236328 0)"/>
     <use xlink:href="#DejaVuSans-61" transform="translate(224.349609 0)"/>
     <use xlink:href="#DejaVuSans-67" transform="translate(285.628906 0)"/>
     <use xlink:href="#DejaVuSans-65" transform="translate(349.105469 0)"/>
     <use xlink:href="#DejaVuSans-20" transform="translate(410.628906 0)"/>
     <use xlink:href="#DejaVuSans-48" transform="translate(442.416016 0)"/>
     <use xlink:href="#DejaVuSans-54" transform="translate(517.611328 0)"/>
     <use xlink:href="#DejaVuSans-54" transform="translate(576.945312 0)"/>
     <use xlink:href="#DejaVuSans-50" transform="translate(638.029297 0)"/>
     <use xlink:href="#DejaVuSans-20" transform="translate(698.332031 0)"/>
     <use xlink:href="#DejaVuSans-52" transform="translate(730.119141 0)"/>
     <use xlink:href="#DejaVuSans-65" transform="translate(795.101562 0)"/>
     <use xlink:href="#DejaVuSans-71" transform="translate(856.625 0)"/>
     <use xlink:href="#DejaVuSans-75" transform="translate(920.101562 0)"/>
     <use xlink:href="#DejaVuSans-65" transform="translate(983.480469 0)"/>
     <use xlink:href="#DejaVuSans-73" transform="translate(1045.003906 0)"/>
     <use xlink:href="#DejaVuSans-74" transform="translate(1097.103516 0)"/>
     <use xlink:href="#DejaVuSans-20" transform="translate(1136.3125 0)"/>
     <use xlink:href="#DejaVuSans-44" transform="translate(1168.099609 0)"/>
     <use xlink:href="#DejaVuSans-75" transform="translate(1245.101562 0)"/>
     <use xlink:href="#DejaVuSans-72" transform="translate(1308.480469 0)"/>
     <use xlink:href="#DejaVuSans-61" transform="translate(1349.59375 0)"/>
     <use xlink:href="#DejaVuSans-74" transform="translate(1410.873047 0)"/>
     <use xlink:href="#DejaVuSans-69" transform="translate(1450.082031 0)"/>
     <use xlink:href="#DejaVuSans-6f" transform="translate(1477.865234 0)"/>
     <use xlink:href="#DejaVuSans-6e" transform="translate(1539.046875 0)"/>
     <use xlink:href="#DejaVuSans-20" transform="translate(1602.425781 0)"/>
     <use xlink:href="#DejaVuSans-4f" transform="translate(1634.212891 0)"/>
     <use xlink:href="#DejaVuSans-76" transform="translate(1712.923828 0)"/>
     <use xlink:href="#DejaVuSans-65" transform="translate(1772.103516 0)"/>
     <use xlink:href="#DejaVuSans-72" transform="translate(1833.626953 0)"/>
     <use xlink:href="#DejaVuSans-20" transform="translate(1874.740234 0)"/>
     <use xlink:href="#DejaVuSans-54" transform="translate(1906.527344 0)"/>
     <use xlink:href="#DejaVuSans-69" transform="translate(1964.486328 0)"/>
     <use xlink:href="#DejaVuSans-6d" transform="translate(1992.269531 0)"/>
     <use xlink:href="#DejaVuSans-65" transform="translate(2089.681641 0)"/>
    </g>
    <!-- Test: breakpoint | Endpoint: GetImageById -->
    <g transform="translate(324.373217 35.856) scale(0.12 -0.12)">
     <defs>
      <path id="DejaVuSans-3a" d="M 750 794 
L 1409 794 
L 1409 0 
L 750 0 
L 750 794 
z
M 750 3309 
L 1409 3309 
L 1409 2516 
L 750 2516 
L 750 3309 
z
" transform="scale(0.015625)"/>
      <path id="DejaVuSans-62" d="M 3116 1747 
Q 3116 2381 2855 2742 
Q 2594 3103 2138 3103 
Q 1681 3103 1420 2742 
Q 1159 2381 1159 1747 
Q 1159 1113 1420 752 
Q 1681 391 2138 391 
Q 2594 391 2855 752 
Q 3116 1113 3116 1747 
z
M 1159 2969 
Q 1341 3281 1617 3432 
Q 1894 3584 2278 3584 
Q 2916 3584 3314 3078 
Q 3713 2572 3713 1747 
Q 3713 922 3314 415 
Q 2916 -91 2278 -91 
Q 1894 -91 1617 61 
Q 1341 213 1159 525 
L 1159 0 
L 581 0 
L 581 4863 
L 1159 4863 
L 1159 2969 
z
" transform="scale(0.015625)"/>
      <path id="DejaVuSans-6b" d="M 581 4863 
L 1159 4863 
L 1159 1991 
L 2875 3500 
L 3609 3500 
L 1753 1863 
L 3688 0 
L 2938 0 
L 1159 1709 
L 1159 0 
L 581 0 
L 581 4863 
z
" transform="scale(0.015625)"/>
      <path id="DejaVuSans-7c" d="M 1344 4891 
L 1344 -1509 
L 813 -1509 
L 813 4891 
L 1344 4891 
z
" transform="scale(0.015625)"/>
      <path id="DejaVuSans-45" d="M 628 4666 
L 3578 4666 
L 3578 4134 
L 1259 4134 
L 1259 2753 
L 3481 2753 
L 3481 2222 
L 1259 2222 
L 1259 531 
L 3634 531 
L 3634 0 
L 628 0 
L 628 4666 
z
" transform="scale(0.015625)"/>
      <path id="DejaVuSans-47" d="M 3809 666 
L 3809 1919 
L 2778 1919 
L 2778 2438 
L 4434 2438 
L 4434 434 
Q 4069 175 3628 42 
Q 3188 -91 2688 -91 
Q 1594 -91 976 548 
Q 359 1188 359 2328 
Q 359 3472 976 4111 
Q 1594 4750 2688 4750 
Q 3144 4750 3555 4637 
Q 3966 4525 4313 4306 
L 4313 3634 
Q 3963 3931 3569 4081 
Q 3175 4231 2741 4231 
Q 1884 4231 1454 3753 
Q 1025 3275 1025 2328 
Q 1025 1384 1454 906 
Q 1884 428 2741 428 
Q 3075 428 3337 486 
Q 3600 544 3809 666 
z
" transform="scale(0.015625)"/>
      <path id="DejaVuSans-49" d="M 628 4666 
L 1259 4666 
L 1259 0 
L 628 0 
L 628 4666 
z
" transform="scale(0.015625)"/>
      <path id="DejaVuSans-42" d="M 1259 2228 
L 1259 519 
L 2272 519 
Q 2781 519 3026 730 
Q 3272 941 3272 1375 
Q 3272 1813 3026 2020 
Q 2781 2228 2272 2228 
L 1259 2228 
z
M 1259 4147 
L 1259 2741 
L 2194 2741 
Q 2656 2741 2882 2914 
Q 3109 3088 3109 3444 
Q 3109 3797 2882 3972 
Q 2656 4147 2194 4147 
L 1259 4147 
z
M 628 4666 
L 2241 4666 
Q 2963 4666 3353 4366 
Q 3744 4066 3744 3513 
Q 3744 3084 3544 2831 
Q 3344 2578 2956 2516 
Q 3422 2416 3680 2098 
Q 3938 1781 3938 1306 
Q 3938 681 3513 340 
Q 3088 0 2303 0 
L 628 0 
L 628 4666 
z
" transform="scale(0.015625)"/>
      <path id="DejaVuSans-79" d="M 2059 -325 
Q 1816 -950 1584 -1140 
Q 1353 -1331 966 -1331 
L 506 -1331 
L 506 -850 
L 844 -850 
Q 1081 -850 1212 -737 
Q 1344 -625 1503 -206 
L 1606 56 
L 191 3500 
L 800 3500 
L 1894 763 
L 2988 3500 
L 3597 3500 
L 2059 -325 
z
" transform="scale(0.015625)"/>
     </defs>
     <use xlink:href="#DejaVuSans-54"/>
     <use xlink:href="#DejaVuSans-65" transform="translate(44.083984 0)"/>
     <use xlink:href="#DejaVuSans-73" transform="translate(105.607422 0)"/>
     <use xlink:href="#DejaVuSans-74" transform="translate(157.707031 0)"/>
     <use xlink:href="#DejaVuSans-3a" transform="translate(196.916016 0)"/>
     <use xlink:href="#DejaVuSans-20" transform="translate(230.607422 0)"/>
     <use xlink:href="#DejaVuSans-62" transform="translate(262.394531 0)"/>
     <use xlink:href="#DejaVuSans-72" transform="translate(325.871094 0)"/>
     <use xlink:href="#DejaVuSans-65" transform="translate(364.734375 0)"/>
     <use xlink:href="#DejaVuSans-61" transform="translate(426.257812 0)"/>
     <use xlink:href="#DejaVuSans-6b" transform="translate(487.537109 0)"/>
     <use xlink:href="#DejaVuSans-70" transform="translate(545.447266 0)"/>
     <use xlink:href="#DejaVuSans-6f" transform="translate(608.923828 0)"/>
     <use xlink:href="#DejaVuSans-69" transform="translate(670.105469 0)"/>
     <use xlink:href="#DejaVuSans-6e" transform="translate(697.888672 0)"/>
     <use xlink:href="#DejaVuSans-74" transform="translate(761.267578 0)"/>
     <use xlink:href="#DejaVuSans-20" transform="translate(800.476562 0)"/>
     <use xlink:href="#DejaVuSans-7c" transform="translate(832.263672 0)"/>
     <use xlink:href="#DejaVuSans-20" transform="translate(865.955078 0)"/>
     <use xlink:href="#DejaVuSans-45" transform="translate(897.742188 0)"/>
     <use xlink:href="#DejaVuSans-6e" transform="translate(960.925781 0)"/>
     <use xlink:href="#DejaVuSans-64" transform="translate(1024.304688 0)"/>
     <use xlink:href="#DejaVuSans-70" transform="translate(1087.78125 0)"/>
     <use xlink:href="#DejaVuSans-6f" transform="translate(1151.257812 0)"/>
     <use xlink:href="#DejaVuSans-69" transform="translate(1212.439453 0)"/>
     <use xlink:href="#DejaVuSans-6e" transform="translate(1240.222656 0)"/>
     <use xlink:href="#DejaVuSans-74" transform="translate(1303.601562 0)"/>
     <use xlink:href="#DejaVuSans-3a" transform="translate(1342.810547 0)"/>
     <use xlink:href="#DejaVuSans-20" transform="translate(1376.501953 0)"/>
     <use xlink:href="#DejaVuSans-47" transform="translate(1408.289062 0)"/>
     <use xlink:href="#DejaVuSans-65" transform="translate(1485.779297 0)"/>
     <use xlink:href="#DejaVuSans-74" transform="translate(1547.302734 0)"/>
     <use xlink:href="#DejaVuSans-49" transform="translate(1586.511719 0)"/>
     <use xlink:href="#DejaVuSans-6d" transform="translate(1616.003906 0)"/>
     <use xlink:href="#DejaVuSans-61" transform="translate(1713.416016 0)"/>
     <use xlink:href="#DejaVuSans-67" transform="translate(1774.695312 0)"/>
     <use xlink:href="#DejaVuSans-65" transform="translate(1838.171875 0)"/>
     <use xlink:href="#DejaVuSans-42" transform="translate(1899.695312 0)"/>
     <use xlink:href="#DejaVuSans-79" transform="translate(1968.298828 0)"/>
     <use xlink:href="#DejaVuSans-49" transform="translate(2027.478516 0)"/>
     <use xlink:href="#DejaVuSans-64" transform="translate(2056.970703 0)"/>
    </g>
   </g>
   <g id="legend_1">
    <g id="patch_7">
     <path d="M 57.002685 93.890375 
L 190.346435 93.890375 
Q 192.346435 93.890375 192.346435 91.890375 
L 192.346435 48.856 
Q 192.346435 46.856 190.346435 46.856 
L 57.002685 46.856 
Q 55.002685 46.856 55.002685 48.856 
L 55.002685 91.890375 
Q 55.002685 93.890375 57.002685 93.890375 
z
" style="fill: #ffffff; opacity: 0.8; stroke: #cccccc; stroke-linejoin: miter"/>
    </g>
    <g id="line2d_28">
     <path d="M 59.002685 54.954437 
L 69.002685 54.954437 
L 79.002685 54.954437 
" style="fill: none; stroke: #1f77b4; stroke-width: 1.5; stroke-linecap: square"/>
    </g>
    <g id="text_12">
     <!-- Single Large Results -->
     <g transform="translate(87.002685 58.454437) scale(0.1 -0.1)">
      <defs>
       <path id="DejaVuSans-6c" d="M 603 4863 
L 1178 4863 
L 1178 0 
L 603 0 
L 603 4863 
z
" transform="scale(0.015625)"/>
       <path id="DejaVuSans-4c" d="M 628 4666 
L 1259 4666 
L 1259 531 
L 3531 531 
L 3531 0 
L 628 0 
L 628 4666 
z
" transform="scale(0.015625)"/>
      </defs>
      <use xlink:href="#DejaVuSans-53"/>
      <use xlink:href="#DejaVuSans-69" transform="translate(63.476562 0)"/>
      <use xlink:href="#DejaVuSans-6e" transform="translate(91.259766 0)"/>
      <use xlink:href="#DejaVuSans-67" transform="translate(154.638672 0)"/>
      <use xlink:href="#DejaVuSans-6c" transform="translate(218.115234 0)"/>
      <use xlink:href="#DejaVuSans-65" transform="translate(245.898438 0)"/>
      <use xlink:href="#DejaVuSans-20" transform="translate(307.421875 0)"/>
      <use xlink:href="#DejaVuSans-4c" transform="translate(339.208984 0)"/>
      <use xlink:href="#DejaVuSans-61" transform="translate(394.921875 0)"/>
      <use xlink:href="#DejaVuSans-72" transform="translate(456.201172 0)"/>
      <use xlink:href="#DejaVuSans-67" transform="translate(495.564453 0)"/>
      <use xlink:href="#DejaVuSans-65" transform="translate(559.041016 0)"/>
      <use xlink:href="#DejaVuSans-20" transform="translate(620.564453 0)"/>
      <use xlink:href="#DejaVuSans-52" transform="translate(652.351562 0)"/>
      <use xlink:href="#DejaVuSans-65" transform="translate(717.333984 0)"/>
      <use xlink:href="#DejaVuSans-73" transform="translate(778.857422 0)"/>
      <use xlink:href="#DejaVuSans-75" transform="translate(830.957031 0)"/>
      <use xlink:href="#DejaVuSans-6c" transform="translate(894.335938 0)"/>
      <use xlink:href="#DejaVuSans-74" transform="translate(922.119141 0)"/>
      <use xlink:href="#DejaVuSans-73" transform="translate(961.328125 0)"/>
     </g>
    </g>
    <g id="line2d_29">
     <path d="M 59.002685 69.632562 
L 69.002685 69.632562 
L 79.002685 69.632562 
" style="fill: none; stroke: #ff7f0e; stroke-width: 1.5; stroke-linecap: square"/>
    </g>
    <g id="text_13">
     <!-- Single Small Results -->
     <g transform="translate(87.002685 73.132562) scale(0.1 -0.1)">
      <use xlink:href="#DejaVuSans-53"/>
      <use xlink:href="#DejaVuSans-69" transform="translate(63.476562 0)"/>
      <use xlink:href="#DejaVuSans-6e" transform="translate(91.259766 0)"/>
      <use xlink:href="#DejaVuSans-67" transform="translate(154.638672 0)"/>
      <use xlink:href="#DejaVuSans-6c" transform="translate(218.115234 0)"/>
      <use xlink:href="#DejaVuSans-65" transform="translate(245.898438 0)"/>
      <use xlink:href="#DejaVuSans-20" transform="translate(307.421875 0)"/>
      <use xlink:href="#DejaVuSans-53" transform="translate(339.208984 0)"/>
      <use xlink:href="#DejaVuSans-6d" transform="translate(402.685547 0)"/>
      <use xlink:href="#DejaVuSans-61" transform="translate(500.097656 0)"/>
      <use xlink:href="#DejaVuSans-6c" transform="translate(561.376953 0)"/>
      <use xlink:href="#DejaVuSans-6c" transform="translate(589.160156 0)"/>
      <use xlink:href="#DejaVuSans-20" transform="translate(616.943359 0)"/>
      <use xlink:href="#DejaVuSans-52" transform="translate(648.730469 0)"/>
      <use xlink:href="#DejaVuSans-65" transform="translate(713.712891 0)"/>
      <use xlink:href="#DejaVuSans-73" transform="translate(775.236328 0)"/>
      <use xlink:href="#DejaVuSans-75" transform="translate(827.335938 0)"/>
      <use xlink:href="#DejaVuSans-6c" transform="translate(890.714844 0)"/>
      <use xlink:href="#DejaVuSans-74" transform="translate(918.498047 0)"/>
      <use xlink:href="#DejaVuSans-73" transform="translate(957.707031 0)"/>
     </g>
    </g>
    <g id="line2d_30">
     <path d="M 59.002685 84.310687 
L 69.002685 84.310687 
L 79.002685 84.310687 
" style="fill: none; stroke: #2ca02c; stroke-width: 1.5; stroke-linecap: square"/>
    </g>
    <g id="text_14">
     <!-- Multi Results -->
     <g transform="translate(87.002685 87.810687) scale(0.1 -0.1)">
      <defs>
       <path id="DejaVuSans-4d" d="M 628 4666 
L 1569 4666 
L 2759 1491 
L 3956 4666 
L 4897 4666 
L 4897 0 
L 4281 0 
L 4281 4097 
L 3078 897 
L 2444 897 
L 1241 4097 
L 1241 0 
L 628 0 
L 628 4666 
z
" transform="scale(0.015625)"/>
      </defs>
      <use xlink:href="#DejaVuSans-4d"/>
      <use xlink:href="#DejaVuSans-75" transform="translate(86.279297 0)"/>
      <use xlink:href="#DejaVuSans-6c" transform="translate(149.658203 0)"/>
      <use xlink:href="#DejaVuSans-74" transform="translate(177.441406 0)"/>
      <use xlink:href="#DejaVuSans-69" transform="translate(216.650391 0)"/>
      <use xlink:href="#DejaVuSans-20" transform="translate(244.433594 0)"/>
      <use xlink:href="#DejaVuSans-52" transform="translate(276.220703 0)"/>
      <use xlink:href="#DejaVuSans-65" transform="translate(341.203125 0)"/>
      <use xlink:href="#DejaVuSans-73" transform="translate(402.726562 0)"/>
      <use xlink:href="#DejaVuSans-75" transform="translate(454.826172 0)"/>
      <use xlink:href="#DejaVuSans-6c" transform="translate(518.205078 0)"/>
      <use xlink:href="#DejaVuSans-74" transform="translate(545.988281 0)"/>
      <use xlink:href="#DejaVuSans-73" transform="translate(585.197266 0)"/>
     </g>
    </g>
   </g>
  </g>
 </g>
 <defs>
  <clipPath id="p66a75bb8e0">
   <rect x="50.002685" y="41.856" width="803.197315" height="348.184"/>
  </clipPath>
 </defs>
</svg>
