<?xml version="1.0" encoding="utf-8" standalone="no"?>
<!DOCTYPE svg PUBLIC "-//W3C//DTD SVG 1.1//EN"
  "http://www.w3.org/Graphics/SVG/1.1/DTD/svg11.dtd">
<svg xmlns:xlink="http://www.w3.org/1999/xlink" width="864pt" height="432pt" viewBox="0 0 864 432" xmlns="http://www.w3.org/2000/svg" version="1.1">
 <metadata>
  <rdf:RDF xmlns:dc="http://purl.org/dc/elements/1.1/" xmlns:cc="http://creativecommons.org/ns#" xmlns:rdf="http://www.w3.org/1999/02/22-rdf-syntax-ns#">
   <cc:Work>
    <dc:type rdf:resource="http://purl.org/dc/dcmitype/StillImage"/>
    <dc:date>2025-05-31T16:14:28.878225</dc:date>
    <dc:format>image/svg+xml</dc:format>
    <dc:creator>
     <cc:Agent>
      <dc:title>Matplotlib v3.10.1, https://matplotlib.org/</dc:title>
     </cc:Agent>
    </dc:creator>
   </cc:Work>
  </rdf:RDF>
 </metadata>
 <defs>
  <style type="text/css">*{stroke-linejoin: round; stroke-linecap: butt}</style>
 </defs>
 <g id="figure_1">
  <g id="patch_1">
   <path d="M 0 432 
L 864 432 
L 864 0 
L 0 0 
z
" style="fill: #ffffff"/>
  </g>
  <g id="axes_1">
   <g id="patch_2">
    <path d="M 50.002685 390.04 
L 853.2 390.04 
L 853.2 41.856 
L 50.002685 41.856 
z
" style="fill: #ffffff"/>
   </g>
   <g id="matplotlib.axis_1">
    <g id="xtick_1">
     <g id="line2d_1">
      <defs>
       <path id="m028cab3bbd" d="M 0 0 
L 0 3.5 
" style="stroke: #000000; stroke-width: 0.8"/>
      </defs>
      <g>
       <use xlink:href="#m028cab3bbd" x="86.511654" y="390.04" style="stroke: #000000; stroke-width: 0.8"/>
      </g>
     </g>
     <g id="text_1">
      <!-- 0 -->
      <g transform="translate(83.330404 404.638438) scale(0.1 -0.1)">
       <defs>
        <path id="DejaVuSans-30" d="M 2034 4250 
Q 1547 4250 1301 3770 
Q 1056 3291 1056 2328 
Q 1056 1369 1301 889 
Q 1547 409 2034 409 
Q 2525 409 2770 889 
Q 3016 1369 3016 2328 
Q 3016 3291 2770 3770 
Q 2525 4250 2034 4250 
z
M 2034 4750 
Q 2819 4750 3233 4129 
Q 3647 3509 3647 2328 
Q 3647 1150 3233 529 
Q 2819 -91 2034 -91 
Q 1250 -91 836 529 
Q 422 1150 422 2328 
Q 422 3509 836 4129 
Q 1250 4750 2034 4750 
z
" transform="scale(0.015625)"/>
       </defs>
       <use xlink:href="#DejaVuSans-30"/>
      </g>
     </g>
    </g>
    <g id="xtick_2">
     <g id="line2d_2">
      <g>
       <use xlink:href="#m028cab3bbd" x="232.583009" y="390.04" style="stroke: #000000; stroke-width: 0.8"/>
      </g>
     </g>
     <g id="text_2">
      <!-- 20 -->
      <g transform="translate(226.220509 404.638438) scale(0.1 -0.1)">
       <defs>
        <path id="DejaVuSans-32" d="M 1228 531 
L 3431 531 
L 3431 0 
L 469 0 
L 469 531 
Q 828 903 1448 1529 
Q 2069 2156 2228 2338 
Q 2531 2678 2651 2914 
Q 2772 3150 2772 3378 
Q 2772 3750 2511 3984 
Q 2250 4219 1831 4219 
Q 1534 4219 1204 4116 
Q 875 4013 500 3803 
L 500 4441 
Q 881 4594 1212 4672 
Q 1544 4750 1819 4750 
Q 2544 4750 2975 4387 
Q 3406 4025 3406 3419 
Q 3406 3131 3298 2873 
Q 3191 2616 2906 2266 
Q 2828 2175 2409 1742 
Q 1991 1309 1228 531 
z
" transform="scale(0.015625)"/>
       </defs>
       <use xlink:href="#DejaVuSans-32"/>
       <use xlink:href="#DejaVuSans-30" transform="translate(63.623047 0)"/>
      </g>
     </g>
    </g>
    <g id="xtick_3">
     <g id="line2d_3">
      <g>
       <use xlink:href="#m028cab3bbd" x="378.654365" y="390.04" style="stroke: #000000; stroke-width: 0.8"/>
      </g>
     </g>
     <g id="text_3">
      <!-- 40 -->
      <g transform="translate(372.291865 404.638438) scale(0.1 -0.1)">
       <defs>
        <path id="DejaVuSans-34" d="M 2419 4116 
L 825 1625 
L 2419 1625 
L 2419 4116 
z
M 2253 4666 
L 3047 4666 
L 3047 1625 
L 3713 1625 
L 3713 1100 
L 3047 1100 
L 3047 0 
L 2419 0 
L 2419 1100 
L 313 1100 
L 313 1709 
L 2253 4666 
z
" transform="scale(0.015625)"/>
       </defs>
       <use xlink:href="#DejaVuSans-34"/>
       <use xlink:href="#DejaVuSans-30" transform="translate(63.623047 0)"/>
      </g>
     </g>
    </g>
    <g id="xtick_4">
     <g id="line2d_4">
      <g>
       <use xlink:href="#m028cab3bbd" x="524.72572" y="390.04" style="stroke: #000000; stroke-width: 0.8"/>
      </g>
     </g>
     <g id="text_4">
      <!-- 60 -->
      <g transform="translate(518.36322 404.638438) scale(0.1 -0.1)">
       <defs>
        <path id="DejaVuSans-36" d="M 2113 2584 
Q 1688 2584 1439 2293 
Q 1191 2003 1191 1497 
Q 1191 994 1439 701 
Q 1688 409 2113 409 
Q 2538 409 2786 701 
Q 3034 994 3034 1497 
Q 3034 2003 2786 2293 
Q 2538 2584 2113 2584 
z
M 3366 4563 
L 3366 3988 
Q 3128 4100 2886 4159 
Q 2644 4219 2406 4219 
Q 1781 4219 1451 3797 
Q 1122 3375 1075 2522 
Q 1259 2794 1537 2939 
Q 1816 3084 2150 3084 
Q 2853 3084 3261 2657 
Q 3669 2231 3669 1497 
Q 3669 778 3244 343 
Q 2819 -91 2113 -91 
Q 1303 -91 875 529 
Q 447 1150 447 2328 
Q 447 3434 972 4092 
Q 1497 4750 2381 4750 
Q 2619 4750 2861 4703 
Q 3103 4656 3366 4563 
z
" transform="scale(0.015625)"/>
       </defs>
       <use xlink:href="#DejaVuSans-36"/>
       <use xlink:href="#DejaVuSans-30" transform="translate(63.623047 0)"/>
      </g>
     </g>
    </g>
    <g id="xtick_5">
     <g id="line2d_5">
      <g>
       <use xlink:href="#m028cab3bbd" x="670.797076" y="390.04" style="stroke: #000000; stroke-width: 0.8"/>
      </g>
     </g>
     <g id="text_5">
      <!-- 80 -->
      <g transform="translate(664.434576 404.638438) scale(0.1 -0.1)">
       <defs>
        <path id="DejaVuSans-38" d="M 2034 2216 
Q 1584 2216 1326 1975 
Q 1069 1734 1069 1313 
Q 1069 891 1326 650 
Q 1584 409 2034 409 
Q 2484 409 2743 651 
Q 3003 894 3003 1313 
Q 3003 1734 2745 1975 
Q 2488 2216 2034 2216 
z
M 1403 2484 
Q 997 2584 770 2862 
Q 544 3141 544 3541 
Q 544 4100 942 4425 
Q 1341 4750 2034 4750 
Q 2731 4750 3128 4425 
Q 3525 4100 3525 3541 
Q 3525 3141 3298 2862 
Q 3072 2584 2669 2484 
Q 3125 2378 3379 2068 
Q 3634 1759 3634 1313 
Q 3634 634 3220 271 
Q 2806 -91 2034 -91 
Q 1263 -91 848 271 
Q 434 634 434 1313 
Q 434 1759 690 2068 
Q 947 2378 1403 2484 
z
M 1172 3481 
Q 1172 3119 1398 2916 
Q 1625 2713 2034 2713 
Q 2441 2713 2670 2916 
Q 2900 3119 2900 3481 
Q 2900 3844 2670 4047 
Q 2441 4250 2034 4250 
Q 1625 4250 1398 4047 
Q 1172 3844 1172 3481 
z
" transform="scale(0.015625)"/>
       </defs>
       <use xlink:href="#DejaVuSans-38"/>
       <use xlink:href="#DejaVuSans-30" transform="translate(63.623047 0)"/>
      </g>
     </g>
    </g>
    <g id="xtick_6">
     <g id="line2d_6">
      <g>
       <use xlink:href="#m028cab3bbd" x="816.868431" y="390.04" style="stroke: #000000; stroke-width: 0.8"/>
      </g>
     </g>
     <g id="text_6">
      <!-- 100 -->
      <g transform="translate(807.324681 404.638438) scale(0.1 -0.1)">
       <defs>
        <path id="DejaVuSans-31" d="M 794 531 
L 1825 531 
L 1825 4091 
L 703 3866 
L 703 4441 
L 1819 4666 
L 2450 4666 
L 2450 531 
L 3481 531 
L 3481 0 
L 794 0 
L 794 531 
z
" transform="scale(0.015625)"/>
       </defs>
       <use xlink:href="#DejaVuSans-31"/>
       <use xlink:href="#DejaVuSans-30" transform="translate(63.623047 0)"/>
       <use xlink:href="#DejaVuSans-30" transform="translate(127.246094 0)"/>
      </g>
     </g>
    </g>
    <g id="text_7">
     <!-- Percentile (%) -->
     <g transform="translate(416.697436 418.316562) scale(0.1 -0.1)">
      <defs>
       <path id="DejaVuSans-50" d="M 1259 4147 
L 1259 2394 
L 2053 2394 
Q 2494 2394 2734 2622 
Q 2975 2850 2975 3272 
Q 2975 3691 2734 3919 
Q 2494 4147 2053 4147 
L 1259 4147 
z
M 628 4666 
L 2053 4666 
Q 2838 4666 3239 4311 
Q 3641 3956 3641 3272 
Q 3641 2581 3239 2228 
Q 2838 1875 2053 1875 
L 1259 1875 
L 1259 0 
L 628 0 
L 628 4666 
z
" transform="scale(0.015625)"/>
       <path id="DejaVuSans-65" d="M 3597 1894 
L 3597 1613 
L 953 1613 
Q 991 1019 1311 708 
Q 1631 397 2203 397 
Q 2534 397 2845 478 
Q 3156 559 3463 722 
L 3463 178 
Q 3153 47 2828 -22 
Q 2503 -91 2169 -91 
Q 1331 -91 842 396 
Q 353 884 353 1716 
Q 353 2575 817 3079 
Q 1281 3584 2069 3584 
Q 2775 3584 3186 3129 
Q 3597 2675 3597 1894 
z
M 3022 2063 
Q 3016 2534 2758 2815 
Q 2500 3097 2075 3097 
Q 1594 3097 1305 2825 
Q 1016 2553 972 2059 
L 3022 2063 
z
" transform="scale(0.015625)"/>
       <path id="DejaVuSans-72" d="M 2631 2963 
Q 2534 3019 2420 3045 
Q 2306 3072 2169 3072 
Q 1681 3072 1420 2755 
Q 1159 2438 1159 1844 
L 1159 0 
L 581 0 
L 581 3500 
L 1159 3500 
L 1159 2956 
Q 1341 3275 1631 3429 
Q 1922 3584 2338 3584 
Q 2397 3584 2469 3576 
Q 2541 3569 2628 3553 
L 2631 2963 
z
" transform="scale(0.015625)"/>
       <path id="DejaVuSans-63" d="M 3122 3366 
L 3122 2828 
Q 2878 2963 2633 3030 
Q 2388 3097 2138 3097 
Q 1578 3097 1268 2742 
Q 959 2388 959 1747 
Q 959 1106 1268 751 
Q 1578 397 2138 397 
Q 2388 397 2633 464 
Q 2878 531 3122 666 
L 3122 134 
Q 2881 22 2623 -34 
Q 2366 -91 2075 -91 
Q 1284 -91 818 406 
Q 353 903 353 1747 
Q 353 2603 823 3093 
Q 1294 3584 2113 3584 
Q 2378 3584 2631 3529 
Q 2884 3475 3122 3366 
z
" transform="scale(0.015625)"/>
       <path id="DejaVuSans-6e" d="M 3513 2113 
L 3513 0 
L 2938 0 
L 2938 2094 
Q 2938 2591 2744 2837 
Q 2550 3084 2163 3084 
Q 1697 3084 1428 2787 
Q 1159 2491 1159 1978 
L 1159 0 
L 581 0 
L 581 3500 
L 1159 3500 
L 1159 2956 
Q 1366 3272 1645 3428 
Q 1925 3584 2291 3584 
Q 2894 3584 3203 3211 
Q 3513 2838 3513 2113 
z
" transform="scale(0.015625)"/>
       <path id="DejaVuSans-74" d="M 1172 4494 
L 1172 3500 
L 2356 3500 
L 2356 3053 
L 1172 3053 
L 1172 1153 
Q 1172 725 1289 603 
Q 1406 481 1766 481 
L 2356 481 
L 2356 0 
L 1766 0 
Q 1100 0 847 248 
Q 594 497 594 1153 
L 594 3053 
L 172 3053 
L 172 3500 
L 594 3500 
L 594 4494 
L 1172 4494 
z
" transform="scale(0.015625)"/>
       <path id="DejaVuSans-69" d="M 603 3500 
L 1178 3500 
L 1178 0 
L 603 0 
L 603 3500 
z
M 603 4863 
L 1178 4863 
L 1178 4134 
L 603 4134 
L 603 4863 
z
" transform="scale(0.015625)"/>
       <path id="DejaVuSans-6c" d="M 603 4863 
L 1178 4863 
L 1178 0 
L 603 0 
L 603 4863 
z
" transform="scale(0.015625)"/>
       <path id="DejaVuSans-20" transform="scale(0.015625)"/>
       <path id="DejaVuSans-28" d="M 1984 4856 
Q 1566 4138 1362 3434 
Q 1159 2731 1159 2009 
Q 1159 1288 1364 580 
Q 1569 -128 1984 -844 
L 1484 -844 
Q 1016 -109 783 600 
Q 550 1309 550 2009 
Q 550 2706 781 3412 
Q 1013 4119 1484 4856 
L 1984 4856 
z
" transform="scale(0.015625)"/>
       <path id="DejaVuSans-25" d="M 4653 2053 
Q 4381 2053 4226 1822 
Q 4072 1591 4072 1178 
Q 4072 772 4226 539 
Q 4381 306 4653 306 
Q 4919 306 5073 539 
Q 5228 772 5228 1178 
Q 5228 1588 5073 1820 
Q 4919 2053 4653 2053 
z
M 4653 2450 
Q 5147 2450 5437 2106 
Q 5728 1763 5728 1178 
Q 5728 594 5436 251 
Q 5144 -91 4653 -91 
Q 4153 -91 3862 251 
Q 3572 594 3572 1178 
Q 3572 1766 3864 2108 
Q 4156 2450 4653 2450 
z
M 1428 4353 
Q 1159 4353 1004 4120 
Q 850 3888 850 3481 
Q 850 3069 1003 2837 
Q 1156 2606 1428 2606 
Q 1700 2606 1854 2837 
Q 2009 3069 2009 3481 
Q 2009 3884 1853 4118 
Q 1697 4353 1428 4353 
z
M 4250 4750 
L 4750 4750 
L 1831 -91 
L 1331 -91 
L 4250 4750 
z
M 1428 4750 
Q 1922 4750 2215 4408 
Q 2509 4066 2509 3481 
Q 2509 2891 2217 2550 
Q 1925 2209 1428 2209 
Q 931 2209 642 2551 
Q 353 2894 353 3481 
Q 353 4063 643 4406 
Q 934 4750 1428 4750 
z
" transform="scale(0.015625)"/>
       <path id="DejaVuSans-29" d="M 513 4856 
L 1013 4856 
Q 1481 4119 1714 3412 
Q 1947 2706 1947 2009 
Q 1947 1309 1714 600 
Q 1481 -109 1013 -844 
L 513 -844 
Q 928 -128 1133 580 
Q 1338 1288 1338 2009 
Q 1338 2731 1133 3434 
Q 928 4138 513 4856 
z
" transform="scale(0.015625)"/>
      </defs>
      <use xlink:href="#DejaVuSans-50"/>
      <use xlink:href="#DejaVuSans-65" transform="translate(56.677734 0)"/>
      <use xlink:href="#DejaVuSans-72" transform="translate(118.201172 0)"/>
      <use xlink:href="#DejaVuSans-63" transform="translate(157.064453 0)"/>
      <use xlink:href="#DejaVuSans-65" transform="translate(212.044922 0)"/>
      <use xlink:href="#DejaVuSans-6e" transform="translate(273.568359 0)"/>
      <use xlink:href="#DejaVuSans-74" transform="translate(336.947266 0)"/>
      <use xlink:href="#DejaVuSans-69" transform="translate(376.15625 0)"/>
      <use xlink:href="#DejaVuSans-6c" transform="translate(403.939453 0)"/>
      <use xlink:href="#DejaVuSans-65" transform="translate(431.722656 0)"/>
      <use xlink:href="#DejaVuSans-20" transform="translate(493.246094 0)"/>
      <use xlink:href="#DejaVuSans-28" transform="translate(525.033203 0)"/>
      <use xlink:href="#DejaVuSans-25" transform="translate(564.046875 0)"/>
      <use xlink:href="#DejaVuSans-29" transform="translate(659.066406 0)"/>
     </g>
    </g>
   </g>
   <g id="matplotlib.axis_2">
    <g id="ytick_1">
     <g id="line2d_7">
      <defs>
       <path id="meb5108d2a3" d="M 0 0 
L -3.5 0 
" style="stroke: #000000; stroke-width: 0.8"/>
      </defs>
      <g>
       <use xlink:href="#meb5108d2a3" x="50.002685" y="366.537228" style="stroke: #000000; stroke-width: 0.8"/>
      </g>
     </g>
     <g id="text_8">
      <!-- $\mathdefault{10^{1}}$ -->
      <g transform="translate(25.402685 370.336447) scale(0.1 -0.1)">
       <use xlink:href="#DejaVuSans-31" transform="translate(0 0.684375)"/>
       <use xlink:href="#DejaVuSans-30" transform="translate(63.623047 0.684375)"/>
       <use xlink:href="#DejaVuSans-31" transform="translate(128.203125 38.965625) scale(0.7)"/>
      </g>
     </g>
    </g>
    <g id="ytick_2">
     <g id="line2d_8">
      <g>
       <use xlink:href="#meb5108d2a3" x="50.002685" y="242.18119" style="stroke: #000000; stroke-width: 0.8"/>
      </g>
     </g>
     <g id="text_9">
      <!-- $\mathdefault{10^{2}}$ -->
      <g transform="translate(25.402685 245.980409) scale(0.1 -0.1)">
       <use xlink:href="#DejaVuSans-31" transform="translate(0 0.765625)"/>
       <use xlink:href="#DejaVuSans-30" transform="translate(63.623047 0.765625)"/>
       <use xlink:href="#DejaVuSans-32" transform="translate(128.203125 39.046875) scale(0.7)"/>
      </g>
     </g>
    </g>
    <g id="ytick_3">
     <g id="line2d_9">
      <g>
       <use xlink:href="#meb5108d2a3" x="50.002685" y="117.825152" style="stroke: #000000; stroke-width: 0.8"/>
      </g>
     </g>
     <g id="text_10">
      <!-- $\mathdefault{10^{3}}$ -->
      <g transform="translate(25.402685 121.624371) scale(0.1 -0.1)">
       <defs>
        <path id="DejaVuSans-33" d="M 2597 2516 
Q 3050 2419 3304 2112 
Q 3559 1806 3559 1356 
Q 3559 666 3084 287 
Q 2609 -91 1734 -91 
Q 1441 -91 1130 -33 
Q 819 25 488 141 
L 488 750 
Q 750 597 1062 519 
Q 1375 441 1716 441 
Q 2309 441 2620 675 
Q 2931 909 2931 1356 
Q 2931 1769 2642 2001 
Q 2353 2234 1838 2234 
L 1294 2234 
L 1294 2753 
L 1863 2753 
Q 2328 2753 2575 2939 
Q 2822 3125 2822 3475 
Q 2822 3834 2567 4026 
Q 2313 4219 1838 4219 
Q 1578 4219 1281 4162 
Q 984 4106 628 3988 
L 628 4550 
Q 988 4650 1302 4700 
Q 1616 4750 1894 4750 
Q 2613 4750 3031 4423 
Q 3450 4097 3450 3541 
Q 3450 3153 3228 2886 
Q 3006 2619 2597 2516 
z
" transform="scale(0.015625)"/>
       </defs>
       <use xlink:href="#DejaVuSans-31" transform="translate(0 0.765625)"/>
       <use xlink:href="#DejaVuSans-30" transform="translate(63.623047 0.765625)"/>
       <use xlink:href="#DejaVuSans-33" transform="translate(128.203125 39.046875) scale(0.7)"/>
      </g>
     </g>
    </g>
    <g id="ytick_4">
     <g id="line2d_10">
      <defs>
       <path id="mb255672844" d="M 0 0 
L -2 0 
" style="stroke: #000000; stroke-width: 0.6"/>
      </defs>
      <g>
       <use xlink:href="#mb255672844" x="50.002685" y="385.800222" style="stroke: #000000; stroke-width: 0.6"/>
      </g>
     </g>
    </g>
    <g id="ytick_5">
     <g id="line2d_11">
      <g>
       <use xlink:href="#mb255672844" x="50.002685" y="378.588574" style="stroke: #000000; stroke-width: 0.6"/>
      </g>
     </g>
    </g>
    <g id="ytick_6">
     <g id="line2d_12">
      <g>
       <use xlink:href="#mb255672844" x="50.002685" y="372.227448" style="stroke: #000000; stroke-width: 0.6"/>
      </g>
     </g>
    </g>
    <g id="ytick_7">
     <g id="line2d_13">
      <g>
       <use xlink:href="#mb255672844" x="50.002685" y="329.102331" style="stroke: #000000; stroke-width: 0.6"/>
      </g>
     </g>
    </g>
    <g id="ytick_8">
     <g id="line2d_14">
      <g>
       <use xlink:href="#mb255672844" x="50.002685" y="307.204319" style="stroke: #000000; stroke-width: 0.6"/>
      </g>
     </g>
    </g>
    <g id="ytick_9">
     <g id="line2d_15">
      <g>
       <use xlink:href="#mb255672844" x="50.002685" y="291.667433" style="stroke: #000000; stroke-width: 0.6"/>
      </g>
     </g>
    </g>
    <g id="ytick_10">
     <g id="line2d_16">
      <g>
       <use xlink:href="#mb255672844" x="50.002685" y="279.616088" style="stroke: #000000; stroke-width: 0.6"/>
      </g>
     </g>
    </g>
    <g id="ytick_11">
     <g id="line2d_17">
      <g>
       <use xlink:href="#mb255672844" x="50.002685" y="269.769422" style="stroke: #000000; stroke-width: 0.6"/>
      </g>
     </g>
    </g>
    <g id="ytick_12">
     <g id="line2d_18">
      <g>
       <use xlink:href="#mb255672844" x="50.002685" y="261.444184" style="stroke: #000000; stroke-width: 0.6"/>
      </g>
     </g>
    </g>
    <g id="ytick_13">
     <g id="line2d_19">
      <g>
       <use xlink:href="#mb255672844" x="50.002685" y="254.232535" style="stroke: #000000; stroke-width: 0.6"/>
      </g>
     </g>
    </g>
    <g id="ytick_14">
     <g id="line2d_20">
      <g>
       <use xlink:href="#mb255672844" x="50.002685" y="247.87141" style="stroke: #000000; stroke-width: 0.6"/>
      </g>
     </g>
    </g>
    <g id="ytick_15">
     <g id="line2d_21">
      <g>
       <use xlink:href="#mb255672844" x="50.002685" y="204.746293" style="stroke: #000000; stroke-width: 0.6"/>
      </g>
     </g>
    </g>
    <g id="ytick_16">
     <g id="line2d_22">
      <g>
       <use xlink:href="#mb255672844" x="50.002685" y="182.848281" style="stroke: #000000; stroke-width: 0.6"/>
      </g>
     </g>
    </g>
    <g id="ytick_17">
     <g id="line2d_23">
      <g>
       <use xlink:href="#mb255672844" x="50.002685" y="167.311395" style="stroke: #000000; stroke-width: 0.6"/>
      </g>
     </g>
    </g>
    <g id="ytick_18">
     <g id="line2d_24">
      <g>
       <use xlink:href="#mb255672844" x="50.002685" y="155.26005" style="stroke: #000000; stroke-width: 0.6"/>
      </g>
     </g>
    </g>
    <g id="ytick_19">
     <g id="line2d_25">
      <g>
       <use xlink:href="#mb255672844" x="50.002685" y="145.413384" style="stroke: #000000; stroke-width: 0.6"/>
      </g>
     </g>
    </g>
    <g id="ytick_20">
     <g id="line2d_26">
      <g>
       <use xlink:href="#mb255672844" x="50.002685" y="137.088146" style="stroke: #000000; stroke-width: 0.6"/>
      </g>
     </g>
    </g>
    <g id="ytick_21">
     <g id="line2d_27">
      <g>
       <use xlink:href="#mb255672844" x="50.002685" y="129.876497" style="stroke: #000000; stroke-width: 0.6"/>
      </g>
     </g>
    </g>
    <g id="ytick_22">
     <g id="line2d_28">
      <g>
       <use xlink:href="#mb255672844" x="50.002685" y="123.515372" style="stroke: #000000; stroke-width: 0.6"/>
      </g>
     </g>
    </g>
    <g id="ytick_23">
     <g id="line2d_29">
      <g>
       <use xlink:href="#mb255672844" x="50.002685" y="80.390254" style="stroke: #000000; stroke-width: 0.6"/>
      </g>
     </g>
    </g>
    <g id="ytick_24">
     <g id="line2d_30">
      <g>
       <use xlink:href="#mb255672844" x="50.002685" y="58.492243" style="stroke: #000000; stroke-width: 0.6"/>
      </g>
     </g>
    </g>
    <g id="ytick_25">
     <g id="line2d_31">
      <g>
       <use xlink:href="#mb255672844" x="50.002685" y="42.955357" style="stroke: #000000; stroke-width: 0.6"/>
      </g>
     </g>
    </g>
    <g id="text_11">
     <!-- Duration (ms) -->
     <g transform="translate(19.322997 250.62925) rotate(-90) scale(0.1 -0.1)">
      <defs>
       <path id="DejaVuSans-44" d="M 1259 4147 
L 1259 519 
L 2022 519 
Q 2988 519 3436 956 
Q 3884 1394 3884 2338 
Q 3884 3275 3436 3711 
Q 2988 4147 2022 4147 
L 1259 4147 
z
M 628 4666 
L 1925 4666 
Q 3281 4666 3915 4102 
Q 4550 3538 4550 2338 
Q 4550 1131 3912 565 
Q 3275 0 1925 0 
L 628 0 
L 628 4666 
z
" transform="scale(0.015625)"/>
       <path id="DejaVuSans-75" d="M 544 1381 
L 544 3500 
L 1119 3500 
L 1119 1403 
Q 1119 906 1312 657 
Q 1506 409 1894 409 
Q 2359 409 2629 706 
Q 2900 1003 2900 1516 
L 2900 3500 
L 3475 3500 
L 3475 0 
L 2900 0 
L 2900 538 
Q 2691 219 2414 64 
Q 2138 -91 1772 -91 
Q 1169 -91 856 284 
Q 544 659 544 1381 
z
M 1991 3584 
L 1991 3584 
z
" transform="scale(0.015625)"/>
       <path id="DejaVuSans-61" d="M 2194 1759 
Q 1497 1759 1228 1600 
Q 959 1441 959 1056 
Q 959 750 1161 570 
Q 1363 391 1709 391 
Q 2188 391 2477 730 
Q 2766 1069 2766 1631 
L 2766 1759 
L 2194 1759 
z
M 3341 1997 
L 3341 0 
L 2766 0 
L 2766 531 
Q 2569 213 2275 61 
Q 1981 -91 1556 -91 
Q 1019 -91 701 211 
Q 384 513 384 1019 
Q 384 1609 779 1909 
Q 1175 2209 1959 2209 
L 2766 2209 
L 2766 2266 
Q 2766 2663 2505 2880 
Q 2244 3097 1772 3097 
Q 1472 3097 1187 3025 
Q 903 2953 641 2809 
L 641 3341 
Q 956 3463 1253 3523 
Q 1550 3584 1831 3584 
Q 2591 3584 2966 3190 
Q 3341 2797 3341 1997 
z
" transform="scale(0.015625)"/>
       <path id="DejaVuSans-6f" d="M 1959 3097 
Q 1497 3097 1228 2736 
Q 959 2375 959 1747 
Q 959 1119 1226 758 
Q 1494 397 1959 397 
Q 2419 397 2687 759 
Q 2956 1122 2956 1747 
Q 2956 2369 2687 2733 
Q 2419 3097 1959 3097 
z
M 1959 3584 
Q 2709 3584 3137 3096 
Q 3566 2609 3566 1747 
Q 3566 888 3137 398 
Q 2709 -91 1959 -91 
Q 1206 -91 779 398 
Q 353 888 353 1747 
Q 353 2609 779 3096 
Q 1206 3584 1959 3584 
z
" transform="scale(0.015625)"/>
       <path id="DejaVuSans-6d" d="M 3328 2828 
Q 3544 3216 3844 3400 
Q 4144 3584 4550 3584 
Q 5097 3584 5394 3201 
Q 5691 2819 5691 2113 
L 5691 0 
L 5113 0 
L 5113 2094 
Q 5113 2597 4934 2840 
Q 4756 3084 4391 3084 
Q 3944 3084 3684 2787 
Q 3425 2491 3425 1978 
L 3425 0 
L 2847 0 
L 2847 2094 
Q 2847 2600 2669 2842 
Q 2491 3084 2119 3084 
Q 1678 3084 1418 2786 
Q 1159 2488 1159 1978 
L 1159 0 
L 581 0 
L 581 3500 
L 1159 3500 
L 1159 2956 
Q 1356 3278 1631 3431 
Q 1906 3584 2284 3584 
Q 2666 3584 2933 3390 
Q 3200 3197 3328 2828 
z
" transform="scale(0.015625)"/>
       <path id="DejaVuSans-73" d="M 2834 3397 
L 2834 2853 
Q 2591 2978 2328 3040 
Q 2066 3103 1784 3103 
Q 1356 3103 1142 2972 
Q 928 2841 928 2578 
Q 928 2378 1081 2264 
Q 1234 2150 1697 2047 
L 1894 2003 
Q 2506 1872 2764 1633 
Q 3022 1394 3022 966 
Q 3022 478 2636 193 
Q 2250 -91 1575 -91 
Q 1294 -91 989 -36 
Q 684 19 347 128 
L 347 722 
Q 666 556 975 473 
Q 1284 391 1588 391 
Q 1994 391 2212 530 
Q 2431 669 2431 922 
Q 2431 1156 2273 1281 
Q 2116 1406 1581 1522 
L 1381 1569 
Q 847 1681 609 1914 
Q 372 2147 372 2553 
Q 372 3047 722 3315 
Q 1072 3584 1716 3584 
Q 2034 3584 2315 3537 
Q 2597 3491 2834 3397 
z
" transform="scale(0.015625)"/>
      </defs>
      <use xlink:href="#DejaVuSans-44"/>
      <use xlink:href="#DejaVuSans-75" transform="translate(77.001953 0)"/>
      <use xlink:href="#DejaVuSans-72" transform="translate(140.380859 0)"/>
      <use xlink:href="#DejaVuSans-61" transform="translate(181.494141 0)"/>
      <use xlink:href="#DejaVuSans-74" transform="translate(242.773438 0)"/>
      <use xlink:href="#DejaVuSans-69" transform="translate(281.982422 0)"/>
      <use xlink:href="#DejaVuSans-6f" transform="translate(309.765625 0)"/>
      <use xlink:href="#DejaVuSans-6e" transform="translate(370.947266 0)"/>
      <use xlink:href="#DejaVuSans-20" transform="translate(434.326172 0)"/>
      <use xlink:href="#DejaVuSans-28" transform="translate(466.113281 0)"/>
      <use xlink:href="#DejaVuSans-6d" transform="translate(505.126953 0)"/>
      <use xlink:href="#DejaVuSans-73" transform="translate(602.539062 0)"/>
      <use xlink:href="#DejaVuSans-29" transform="translate(654.638672 0)"/>
     </g>
    </g>
   </g>
   <g id="line2d_32">
    <path d="M 86.511654 323.141438 
L 88.250598 320.818261 
L 89.989543 320.377986 
L 91.728488 319.445692 
L 93.467432 319.121316 
L 95.206377 318.978 
L 98.684267 318.237159 
L 100.423211 317.739348 
L 110.85688 317.074088 
L 112.595824 316.631688 
L 114.334769 315.943084 
L 116.073714 315.858897 
L 119.551603 315.556423 
L 123.029493 315.448104 
L 124.768437 314.949833 
L 128.246327 314.79542 
L 129.985271 314.381079 
L 136.94105 313.869717 
L 138.679995 313.760322 
L 140.41894 311.852343 
L 143.896829 311.726692 
L 145.635774 310.585795 
L 147.374718 310.225805 
L 149.113663 309.499418 
L 150.852608 309.384821 
L 152.591553 308.896333 
L 154.330497 307.907273 
L 156.069442 307.836329 
L 157.808387 304.826683 
L 159.547331 303.591728 
L 161.286276 303.383842 
L 163.025221 299.9409 
L 164.764166 298.81123 
L 166.50311 298.746955 
L 168.242055 289.808002 
L 169.981 281.528558 
L 171.719944 279.946074 
L 173.458889 279.441747 
L 175.197834 277.290361 
L 176.936779 275.745846 
L 178.675723 275.595469 
L 180.414668 273.393116 
L 182.153613 273.32113 
L 183.892557 270.090725 
L 185.631502 269.626429 
L 187.370447 269.403935 
L 189.109391 269.006262 
L 190.848336 268.988638 
L 194.326226 268.688227 
L 196.06517 268.284065 
L 201.282004 267.83288 
L 203.020949 266.844508 
L 204.759894 265.267615 
L 206.498839 265.059329 
L 208.237783 262.766956 
L 211.715673 262.299122 
L 213.454617 261.82177 
L 216.932507 259.435068 
L 220.410396 259.174666 
L 222.149341 258.787758 
L 223.888286 258.613713 
L 225.62723 257.40768 
L 227.366175 256.38553 
L 229.10512 256.172523 
L 230.844064 254.947588 
L 232.583009 249.530557 
L 236.060899 248.04457 
L 237.799843 245.692676 
L 239.538788 243.823589 
L 241.277733 242.206284 
L 243.016677 242.185539 
L 244.755622 241.830342 
L 246.494567 239.099768 
L 248.233512 237.311311 
L 249.972456 234.862421 
L 251.711401 232.10182 
L 253.450346 231.67139 
L 255.18929 231.402309 
L 256.928235 230.654655 
L 258.66718 229.525586 
L 260.406125 228.838155 
L 262.145069 228.651347 
L 263.884014 227.338135 
L 265.622959 225.592492 
L 267.361903 225.561347 
L 270.839793 224.549701 
L 272.578737 221.776519 
L 274.317682 219.916343 
L 276.056627 219.490253 
L 277.795572 219.178968 
L 279.534516 218.098612 
L 283.012406 217.095678 
L 284.75135 215.513865 
L 286.490295 215.115499 
L 288.22924 215.042057 
L 289.968185 214.805323 
L 291.707129 213.809865 
L 293.446074 213.635158 
L 296.923963 212.878655 
L 298.662908 212.704269 
L 300.401853 210.490775 
L 302.140798 209.354657 
L 303.879742 208.538997 
L 307.357632 208.378057 
L 309.096576 206.919024 
L 310.835521 206.661233 
L 314.313411 203.745797 
L 316.052355 203.559698 
L 319.530245 202.47581 
L 321.269189 200.907172 
L 323.008134 200.645701 
L 324.747079 199.992012 
L 326.486023 198.581138 
L 328.224968 197.801755 
L 331.702858 197.552562 
L 333.441802 196.573823 
L 336.919692 196.128536 
L 338.658636 195.849755 
L 340.397581 195.395213 
L 342.136526 194.795542 
L 343.875471 194.571125 
L 345.614415 190.213777 
L 349.092305 189.073166 
L 350.831249 189.05378 
L 354.309139 188.483737 
L 356.048084 188.159561 
L 357.787028 187.99499 
L 361.264918 187.887812 
L 364.742807 187.650546 
L 368.220696 187.581475 
L 369.959641 187.05679 
L 371.698586 186.772521 
L 373.437531 186.741784 
L 375.176475 186.334086 
L 376.91542 186.263955 
L 378.654365 184.228466 
L 380.393309 181.853274 
L 382.132254 181.395949 
L 383.871199 181.087316 
L 385.610144 181.062052 
L 387.349088 180.738908 
L 389.088033 180.588859 
L 390.826978 180.072422 
L 394.304867 179.653175 
L 396.043812 179.582253 
L 397.782757 179.107565 
L 402.999591 178.840108 
L 404.738535 178.159227 
L 406.47748 178.150703 
L 408.216425 177.605463 
L 409.955369 177.497654 
L 411.694314 177.1518 
L 413.433259 176.623162 
L 418.650093 176.359384 
L 420.389038 175.690691 
L 422.127982 175.52908 
L 423.866927 175.484552 
L 425.605872 174.402933 
L 427.344817 172.805886 
L 429.083761 171.575335 
L 430.822706 170.793817 
L 432.561651 170.772412 
L 434.300595 170.533604 
L 436.03954 169.830792 
L 441.256374 169.6378 
L 446.473208 169.130735 
L 448.212153 168.744264 
L 453.428987 168.119019 
L 455.167932 168.102979 
L 456.906877 167.956964 
L 458.645821 167.952293 
L 460.384766 167.494918 
L 462.123711 167.335026 
L 463.862655 166.855221 
L 465.6016 166.590405 
L 467.340545 165.961231 
L 469.07949 165.09442 
L 470.818434 164.697816 
L 472.557379 163.942668 
L 474.296324 163.896456 
L 477.774213 163.419307 
L 481.252103 163.359458 
L 482.991047 163.114477 
L 484.729992 163.035693 
L 489.946826 162.184458 
L 491.685771 162.164913 
L 493.424716 161.344113 
L 495.16366 161.213251 
L 496.902605 158.844054 
L 502.119439 158.169303 
L 503.858384 158.130808 
L 505.597328 157.915423 
L 507.336273 157.836568 
L 509.075218 157.417555 
L 517.769941 156.801534 
L 519.508886 156.477361 
L 522.986776 156.423162 
L 528.20361 155.764729 
L 531.681499 155.732018 
L 533.420444 155.297984 
L 535.159389 155.281827 
L 536.898333 154.928186 
L 542.115167 154.688308 
L 543.854112 154.184416 
L 545.593057 154.172947 
L 547.332001 153.738737 
L 550.809891 153.643024 
L 552.548836 152.478319 
L 554.28778 152.41729 
L 556.026725 152.174094 
L 557.76567 152.148626 
L 559.504614 151.118423 
L 561.243559 150.747955 
L 564.721449 150.398909 
L 566.460393 149.560572 
L 568.199338 148.173266 
L 569.938283 147.094797 
L 576.894062 146.719034 
L 582.110896 146.463351 
L 585.588785 146.334937 
L 592.544564 146.204128 
L 604.717177 145.433648 
L 608.195066 145.353756 
L 609.934011 144.93683 
L 613.4119 143.739006 
L 615.150845 143.716862 
L 616.88979 143.250978 
L 620.367679 143.150924 
L 622.106624 143.121978 
L 623.845569 142.80343 
L 625.584513 142.354694 
L 627.323458 141.600393 
L 629.062403 141.550195 
L 634.279237 139.50652 
L 637.757126 139.143175 
L 646.45185 138.730171 
L 648.190795 138.38557 
L 653.407629 138.218871 
L 656.885518 138.067436 
L 658.624463 137.682266 
L 667.319186 137.351063 
L 693.403357 136.882982 
L 696.881246 136.710902 
L 709.053859 136.583347 
L 710.792804 136.197724 
L 714.270694 136.110725 
L 717.748583 135.975333 
L 728.182251 135.840645 
L 735.13803 135.750742 
L 736.876975 135.322317 
L 738.615919 135.280262 
L 740.354864 134.922447 
L 743.832754 134.814249 
L 745.571698 134.709187 
L 747.310643 133.989128 
L 757.744311 133.653644 
L 762.961145 133.112951 
L 764.70009 132.763321 
L 766.439035 132.179072 
L 768.17798 132.175484 
L 769.916924 131.996573 
L 771.655869 130.834511 
L 773.394814 130.695984 
L 775.133758 129.835767 
L 780.350592 129.649505 
L 783.828482 129.505367 
L 785.567427 129.20588 
L 797.74004 128.450916 
L 804.695818 128.236923 
L 806.434763 127.962994 
L 808.173708 127.059716 
L 809.912653 127.057974 
L 811.651597 126.347785 
L 813.390542 125.860838 
L 815.129487 124.922582 
L 815.129487 124.922582 
" clip-path="url(#pf05f2bcf22)" style="fill: none; stroke: #1f77b4; stroke-width: 1.5; stroke-linecap: square"/>
   </g>
   <g id="line2d_33">
    <path d="M 86.511654 356.579215 
L 89.743321 355.132855 
L 92.974988 355.112374 
L 96.206655 354.88125 
L 102.669989 353.885668 
L 105.901657 353.508175 
L 109.133324 353.251365 
L 115.596658 351.689452 
L 122.059992 351.239302 
L 125.29166 351.222132 
L 128.523327 351.060588 
L 131.754994 350.773222 
L 138.218328 350.520444 
L 141.449995 349.995495 
L 144.681662 349.818086 
L 151.144997 348.716162 
L 154.376664 348.230368 
L 157.608331 347.323839 
L 160.839998 344.753834 
L 164.071665 341.01078 
L 167.303333 339.360976 
L 170.535 328.559469 
L 173.766667 310.509525 
L 176.998334 302.120812 
L 180.230001 287.803491 
L 183.461668 283.286882 
L 186.693336 266.972778 
L 189.925003 266.796278 
L 193.15667 264.706891 
L 196.388337 252.116159 
L 199.620004 251.024974 
L 202.851671 250.392059 
L 206.083338 245.250752 
L 209.315006 240.879885 
L 212.546673 240.810099 
L 215.77834 239.786075 
L 219.010007 239.278415 
L 222.241674 238.606897 
L 225.473341 236.441876 
L 228.705009 236.371309 
L 235.168343 234.930291 
L 238.40001 234.675381 
L 241.631677 226.881447 
L 244.863344 225.177045 
L 248.095012 212.352801 
L 251.326679 210.706576 
L 254.558346 209.207168 
L 257.790013 207.543993 
L 261.02168 201.163303 
L 267.485014 200.710731 
L 273.948349 200.691414 
L 286.875017 200.30225 
L 293.338352 200.144219 
L 296.570019 199.907562 
L 303.033353 199.807698 
L 309.496688 199.754604 
L 312.728355 199.455633 
L 325.655023 198.971022 
L 328.88669 198.548091 
L 332.118358 198.546598 
L 335.350025 198.079373 
L 338.581692 195.029512 
L 341.813359 193.983657 
L 345.045026 192.59146 
L 348.276693 189.845194 
L 351.508361 189.06763 
L 354.740028 181.869528 
L 357.971695 178.741158 
L 361.203362 178.597959 
L 367.666696 178.575165 
L 370.898364 178.421782 
L 377.361698 178.379122 
L 380.593365 178.144662 
L 383.825032 177.626828 
L 390.288366 177.56323 
L 393.520034 177.29049 
L 396.751701 177.224782 
L 403.215035 176.734469 
L 409.678369 176.672533 
L 412.910037 176.041898 
L 416.141704 175.722582 
L 419.373371 168.52053 
L 422.605038 166.044378 
L 425.836705 165.357779 
L 429.068372 163.612115 
L 432.30004 163.217961 
L 435.531707 162.54374 
L 454.92171 162.276121 
L 458.153377 161.83179 
L 464.616711 161.651253 
L 467.848378 160.241442 
L 471.080045 157.592399 
L 474.311713 155.093972 
L 477.54338 150.643295 
L 484.006714 150.118447 
L 487.238381 150.02607 
L 490.470048 149.698452 
L 493.701716 149.613806 
L 500.16505 148.803298 
L 503.396717 141.023921 
L 506.628384 140.675852 
L 513.091719 140.656589 
L 516.323386 140.287195 
L 529.250054 139.934666 
L 542.176723 139.75271 
L 545.40839 139.566033 
L 548.640057 139.561035 
L 551.871724 137.293175 
L 555.103392 133.558205 
L 558.335059 133.47776 
L 561.566726 132.178967 
L 574.493395 131.843898 
L 577.725062 131.787795 
L 580.956729 131.547042 
L 590.65173 131.22719 
L 593.883397 129.013784 
L 597.115065 125.015352 
L 616.505068 124.477372 
L 619.736735 124.25866 
L 632.663403 124.111781 
L 635.895071 123.896508 
L 639.126738 122.795499 
L 642.358405 118.77272 
L 648.821739 118.369414 
L 652.053406 118.365214 
L 655.285073 118.07845 
L 671.443409 117.839975 
L 674.675076 117.488542 
L 677.906744 117.484354 
L 681.138411 114.802481 
L 684.370078 113.840052 
L 687.601745 113.110505 
L 690.833412 112.874363 
L 694.065079 112.836772 
L 700.528414 112.480611 
L 710.223415 112.310286 
L 723.150084 112.196128 
L 749.003421 111.725026 
L 752.235088 111.541798 
L 755.466755 109.712833 
L 758.698423 107.723486 
L 761.93009 107.382038 
L 797.478428 106.676952 
L 800.710096 103.258703 
L 803.941763 102.53642 
L 807.17343 102.536203 
L 810.405097 102.41348 
L 813.636764 94.671675 
L 813.636764 94.671675 
" clip-path="url(#pf05f2bcf22)" style="fill: none; stroke: #ff7f0e; stroke-width: 1.5; stroke-linecap: square"/>
   </g>
   <g id="line2d_34">
    <path d="M 86.511654 374.213455 
L 87.221255 371.650736 
L 87.398655 371.39917 
L 87.576055 371.379324 
L 88.285656 370.7584 
L 88.817857 370.610605 
L 90.059658 369.827998 
L 91.12406 369.587368 
L 92.011061 369.012095 
L 92.188461 368.991637 
L 92.543262 368.658795 
L 92.898062 368.579366 
L 93.252863 368.428441 
L 94.139864 368.117251 
L 94.494664 367.891012 
L 96.978268 366.73703 
L 97.155668 366.730167 
L 97.510468 366.30841 
L 97.865269 366.214631 
L 98.220069 366.089287 
L 98.57487 366.060811 
L 98.75227 365.850052 
L 99.107071 365.765365 
L 99.461871 365.535545 
L 99.639271 365.521201 
L 100.171472 364.997154 
L 101.413274 364.527329 
L 101.768074 364.268787 
L 102.477675 364.128687 
L 103.364676 363.951292 
L 104.074277 363.684349 
L 104.606478 363.53195 
L 105.670879 363.402949 
L 106.02568 363.133944 
L 106.38048 363.040892 
L 110.460686 361.916661 
L 113.121689 361.430898 
L 113.47649 361.283788 
L 114.186091 361.103085 
L 114.718291 360.987708 
L 123.588303 359.394407 
L 124.297904 359.149923 
L 124.830105 359.048648 
L 125.539706 358.878756 
L 127.136308 358.54718 
L 127.491108 358.457249 
L 128.73291 358.295731 
L 131.039113 357.739061 
L 134.764518 357.111079 
L 135.651519 356.898394 
L 137.248122 356.731812 
L 138.312523 356.416591 
L 138.844724 356.272705 
L 140.263926 355.747964 
L 141.150927 355.682551 
L 142.037928 355.303935 
L 142.924929 355.224374 
L 143.989331 354.914386 
L 144.344131 354.689367 
L 144.876332 354.653999 
L 145.408532 354.349702 
L 145.585933 354.299138 
L 145.763333 354.092891 
L 147.182535 353.887408 
L 148.069536 353.667027 
L 149.133937 353.59802 
L 149.666138 353.48383 
L 151.440141 353.261378 
L 151.972341 352.993538 
L 152.149742 352.990277 
L 152.327142 352.723782 
L 154.101144 352.206038 
L 154.278544 352.196885 
L 154.455945 351.957487 
L 154.633345 351.94972 
L 154.988145 351.478889 
L 155.875146 351.318753 
L 156.229947 350.694549 
L 156.584747 350.426008 
L 156.939548 350.294844 
L 157.116948 350.204601 
L 157.294348 349.744985 
L 157.471749 349.690226 
L 157.649149 349.412586 
L 158.003949 349.280203 
L 158.35875 348.718484 
L 158.53615 348.712691 
L 158.71355 348.441695 
L 159.068351 348.361972 
L 159.777952 347.622603 
L 159.955352 347.076085 
L 160.487553 346.960922 
L 161.019753 346.820813 
L 162.084155 345.792084 
L 162.971156 345.680365 
L 163.148556 344.982723 
L 163.325956 344.975821 
L 164.567758 343.992769 
L 164.922559 343.490574 
L 165.454759 343.330149 
L 166.16436 342.825123 
L 166.519161 342.180138 
L 166.873961 342.136681 
L 167.228762 341.869005 
L 167.583562 341.551666 
L 167.760962 341.309031 
L 167.938363 340.429923 
L 168.115763 340.341893 
L 168.293163 339.743762 
L 168.825364 339.147219 
L 169.002764 338.812397 
L 169.180164 337.413504 
L 169.534965 337.320381 
L 169.712365 337.130192 
L 169.889765 336.557473 
L 170.244566 336.315476 
L 170.599366 335.492496 
L 170.954167 335.063228 
L 171.308967 334.659093 
L 171.486367 333.008369 
L 171.841168 332.194191 
L 172.373369 331.322806 
L 172.728169 330.834069 
L 173.26037 330.48454 
L 173.969971 328.773657 
L 174.324771 328.529076 
L 174.679572 328.229784 
L 175.211772 328.0711 
L 176.276174 326.523152 
L 176.453574 326.502764 
L 176.630974 325.760494 
L 177.163175 325.262734 
L 177.340575 324.82603 
L 177.872776 324.518189 
L 178.050176 323.99263 
L 178.227576 323.90235 
L 178.582377 323.185566 
L 179.114578 322.781046 
L 179.646778 320.669635 
L 180.001579 320.5453 
L 180.356379 320.054873 
L 180.71118 319.925186 
L 180.88858 319.713855 
L 181.24338 319.66373 
L 181.598181 319.460657 
L 182.307782 319.202264 
L 182.485182 319.191954 
L 183.194783 318.172882 
L 183.549584 316.83301 
L 184.081784 316.573459 
L 184.968785 316.104715 
L 185.323586 315.333476 
L 185.500986 314.982126 
L 186.033187 314.753217 
L 186.387987 314.286439 
L 186.565388 313.34169 
L 187.097588 312.896822 
L 187.274989 312.888363 
L 187.452389 312.690383 
L 187.629789 312.083581 
L 187.984589 311.950347 
L 188.16199 311.250531 
L 188.51679 311.064088 
L 188.69419 310.990874 
L 189.048991 310.50219 
L 189.403791 310.434398 
L 190.113392 310.137617 
L 190.290793 309.624214 
L 190.645593 309.551649 
L 191.000394 309.204497 
L 191.177794 309.070236 
L 191.355194 308.755614 
L 191.887395 307.172319 
L 192.419595 306.636893 
L 192.951796 306.007973 
L 193.483997 305.69357 
L 194.016198 305.40198 
L 194.193598 305.189571 
L 194.370998 305.150887 
L 196.145 302.878572 
L 196.322401 302.867224 
L 196.677201 302.204069 
L 196.854601 302.166651 
L 197.032002 301.393706 
L 197.386802 301.293353 
L 197.564202 300.821349 
L 197.919003 300.732455 
L 198.451203 300.567199 
L 198.806004 299.930123 
L 199.160804 299.641232 
L 199.338205 299.250507 
L 200.402606 298.944626 
L 200.757407 298.613066 
L 200.934807 297.803183 
L 201.112207 296.468452 
L 201.644408 296.275951 
L 202.176608 296.08383 
L 203.41841 294.397261 
L 203.950611 294.245562 
L 204.305411 294.173018 
L 204.482812 294.017582 
L 204.660212 293.676531 
L 204.837612 293.031485 
L 205.015012 292.811327 
L 205.192413 292.805125 
L 205.547213 292.248483 
L 205.724613 292.245557 
L 205.902013 291.968188 
L 206.434214 291.720314 
L 206.789015 291.469269 
L 206.966415 291.444405 
L 207.321215 291.141468 
L 207.676016 290.996587 
L 207.853416 290.691222 
L 208.563017 290.501711 
L 208.917818 290.212023 
L 209.095218 289.546146 
L 209.450018 289.42475 
L 209.627418 288.906279 
L 210.69182 288.566254 
L 211.04662 288.35698 
L 211.224021 287.955602 
L 211.401421 287.873723 
L 211.578821 287.605338 
L 211.933622 287.582849 
L 212.820623 286.350862 
L 213.352823 286.218305 
L 213.707624 285.992167 
L 214.062424 285.659574 
L 214.239825 285.634665 
L 214.417225 285.155293 
L 215.304226 285.0359 
L 215.659027 284.738501 
L 215.836427 284.525266 
L 216.546028 284.409134 
L 217.078228 283.817453 
L 217.255629 283.755731 
L 217.433029 283.406048 
L 217.610429 283.392144 
L 219.029631 282.305205 
L 219.561832 282.158718 
L 219.916632 281.948683 
L 220.803633 281.683558 
L 223.287237 280.541745 
L 223.464637 280.208518 
L 223.996838 280.02857 
L 224.529038 279.779829 
L 225.061239 279.084627 
L 225.41604 278.967852 
L 225.94824 278.854512 
L 226.125641 278.821585 
L 227.190042 277.974869 
L 227.367442 277.974755 
L 227.899643 277.566857 
L 230.560646 276.903304 
L 231.092847 276.560089 
L 232.334649 276.335906 
L 232.689449 276.181115 
L 234.108651 275.601166 
L 234.463452 275.581716 
L 234.995652 275.042517 
L 235.173053 275.0363 
L 235.350453 274.828121 
L 235.882654 274.704801 
L 236.237454 274.562815 
L 237.124455 274.379371 
L 239.962859 273.707257 
L 241.559461 273.366453 
L 241.914262 273.154612 
L 242.446462 273.020389 
L 242.801263 272.803161 
L 244.575265 272.501309 
L 245.639667 272.104851 
L 246.349268 271.94028 
L 246.881468 271.821147 
L 249.897272 271.278294 
L 250.252073 271.089232 
L 251.493875 270.948155 
L 252.380876 270.687604 
L 254.864479 270.362754 
L 255.39668 270.14017 
L 256.815882 269.896628 
L 257.170682 269.789042 
L 257.525483 269.638246 
L 258.057683 269.612019 
L 258.235084 269.43695 
L 259.122085 269.391931 
L 259.476885 269.208444 
L 260.186486 269.14378 
L 260.541287 269.056283 
L 261.073487 268.905369 
L 262.670089 268.371457 
L 262.84749 267.980095 
L 264.621492 267.70821 
L 264.976293 267.485823 
L 265.863294 267.333399 
L 266.572895 267.118653 
L 266.750295 266.789928 
L 267.459896 266.608874 
L 267.814696 266.536235 
L 268.701698 266.433502 
L 269.588699 266.196123 
L 271.894902 265.660011 
L 272.072302 265.643961 
L 272.427103 265.466712 
L 272.959303 265.343315 
L 274.023705 264.941954 
L 274.378505 264.790192 
L 275.265506 264.533174 
L 275.620307 264.395449 
L 277.74911 263.92585 
L 277.92651 263.721187 
L 278.636111 263.502638 
L 278.813511 263.222227 
L 279.523112 263.013263 
L 279.700512 262.814034 
L 281.119714 262.517843 
L 281.651915 262.320898 
L 282.538916 262.135163 
L 282.716316 261.918948 
L 283.248517 261.868214 
L 283.425917 261.678799 
L 284.135518 261.477227 
L 284.667719 260.896328 
L 285.909521 260.503191 
L 286.796522 260.308319 
L 287.860923 259.754774 
L 290.344527 258.985687 
L 290.699327 258.809912 
L 291.408928 258.686172 
L 291.763728 258.528559 
L 294.779532 257.04295 
L 295.311733 256.930746 
L 295.843934 256.815368 
L 296.553535 256.735324 
L 297.795336 256.133155 
L 298.150137 256.029153 
L 298.504937 255.868873 
L 298.859738 255.810109 
L 299.037138 255.575433 
L 299.569339 255.400641 
L 299.746739 255.277403 
L 299.924139 254.812662 
L 300.27894 254.664107 
L 300.811141 254.499427 
L 300.988541 254.282821 
L 301.165941 254.260888 
L 301.520741 253.997627 
L 301.875542 253.962661 
L 302.052942 253.753015 
L 302.585143 253.568595 
L 303.472144 253.185954 
L 303.649544 252.774426 
L 304.359145 252.453358 
L 304.891346 252.181783 
L 305.778347 252.021678 
L 305.955747 251.6538 
L 306.487948 251.478852 
L 307.55235 251.028726 
L 308.439351 250.874264 
L 311.987355 249.657944 
L 312.874357 249.490305 
L 313.406557 249.057743 
L 313.583958 249.047239 
L 313.938758 248.835435 
L 315.00316 248.697664 
L 316.422361 248.296733 
L 316.954562 248.204001 
L 317.486763 247.998293 
L 319.438165 247.557646 
L 320.147766 247.492281 
L 321.034768 247.327472 
L 321.566968 247.078735 
L 323.340971 246.788426 
L 323.873171 246.707777 
L 324.760173 246.124185 
L 325.647174 245.88265 
L 326.356775 245.670036 
L 327.243776 245.560359 
L 328.308177 245.288194 
L 329.017778 245.079716 
L 331.146581 244.76333 
L 331.501382 244.637404 
L 335.581587 243.965113 
L 335.936388 243.77938 
L 337.53299 243.686848 
L 338.242591 243.55043 
L 338.597391 243.426919 
L 339.839193 243.142024 
L 340.193993 242.986079 
L 341.435795 242.732373 
L 342.145396 242.613794 
L 343.032397 242.469279 
L 344.628999 242.008735 
L 344.806399 241.77272 
L 345.3386 241.676145 
L 345.870801 241.290655 
L 346.935202 241.13057 
L 347.290003 240.964111 
L 347.644803 240.878738 
L 347.999604 240.602986 
L 349.596206 240.464087 
L 350.305807 240.212956 
L 350.838007 240.052778 
L 351.547608 239.814166 
L 353.321611 239.290963 
L 353.676411 239.156917 
L 354.918213 239.062883 
L 355.982614 238.680849 
L 356.869616 238.464232 
L 357.579217 238.366682 
L 358.643618 238.216494 
L 359.175819 238.055602 
L 360.41762 237.775505 
L 362.369023 237.486786 
L 363.610825 237.374013 
L 364.143025 237.257539 
L 365.917028 236.980227 
L 366.271828 236.744557 
L 366.981429 236.580984 
L 367.51363 236.291444 
L 367.69103 236.138781 
L 368.400631 236.061397 
L 368.755431 235.960242 
L 369.997233 235.774901 
L 370.352034 235.562795 
L 370.884234 234.756107 
L 371.771236 234.436544 
L 372.126036 234.126618 
L 372.658237 234.016942 
L 373.013037 233.601205 
L 374.609639 233.21632 
L 374.78704 233.008993 
L 375.14184 232.928935 
L 375.496641 232.819278 
L 375.674041 232.80817 
L 375.851441 232.549145 
L 376.738442 232.439521 
L 377.270643 232.221617 
L 379.931646 231.635598 
L 380.286447 231.462709 
L 380.996048 231.328806 
L 381.350848 231.252494 
L 381.883049 231.079388 
L 382.23785 230.997311 
L 382.77005 230.860145 
L 383.302251 230.727635 
L 383.657051 230.539438 
L 384.721453 230.330428 
L 385.076253 230.172289 
L 385.431054 230.151409 
L 385.785854 230.001243 
L 386.850256 229.859807 
L 390.39826 229.217329 
L 390.930461 229.081819 
L 391.285262 229.076377 
L 391.462662 228.919411 
L 392.172263 228.822471 
L 393.059264 228.591384 
L 393.946265 228.375167 
L 394.655866 228.303235 
L 395.188067 228.176667 
L 396.784669 228.05316 
L 398.736072 227.762549 
L 399.090872 227.579841 
L 401.397075 227.108017 
L 402.284076 226.921456 
L 403.703278 226.708807 
L 404.235479 226.641171 
L 413.282891 225.20574 
L 413.992492 225.077627 
L 414.702093 224.889593 
L 416.653496 224.68275 
L 418.604898 224.058245 
L 419.6693 223.991209 
L 420.0241 223.914943 
L 421.265902 223.748224 
L 421.975503 223.591022 
L 423.926905 223.015536 
L 424.104306 222.836147 
L 426.233108 222.494819 
L 428.361911 222.10922 
L 428.894112 221.946178 
L 429.603713 221.784991 
L 429.958513 221.555535 
L 431.909916 221.299921 
L 432.264716 221.128665 
L 432.442117 221.085873 
L 432.796917 220.885545 
L 433.861319 220.700438 
L 434.393519 220.491672 
L 439.892927 219.637614 
L 441.134728 219.435188 
L 442.02173 219.307737 
L 443.973132 218.924736 
L 447.166336 218.308636 
L 447.875937 218.170408 
L 448.940339 218.006595 
L 450.00474 217.857211 
L 450.536941 217.795401 
L 451.956143 217.664103 
L 453.020544 217.498147 
L 462.422757 216.591213 
L 462.954958 216.503681 
L 466.857763 216.256103 
L 467.744764 216.168702 
L 472.00237 215.736991 
L 473.953772 215.625921 
L 474.485973 215.522737 
L 475.195574 215.443758 
L 476.792176 215.276503 
L 483.710785 214.75505 
L 484.952587 214.650355 
L 486.371789 214.509883 
L 490.451994 214.136635 
L 490.984195 213.954178 
L 491.871196 213.833693 
L 493.467798 213.590357 
L 494.3548 213.439522 
L 494.7096 213.314178 
L 495.774002 213.188179 
L 496.306202 213.076108 
L 496.661003 212.966455 
L 499.854207 212.57649 
L 501.628209 212.196924 
L 503.579612 211.964132 
L 504.111813 211.853656 
L 505.353614 211.582819 
L 505.708415 211.460046 
L 512.981825 209.86423 
L 513.514025 209.638855 
L 514.401026 209.464798 
L 515.642828 208.844809 
L 515.997629 208.649968 
L 516.529829 208.524349 
L 516.88463 208.390915 
L 519.013433 208.025503 
L 519.190833 207.723714 
L 519.545633 207.645665 
L 520.077834 207.573467 
L 521.142235 207.442918 
L 521.497036 207.208206 
L 523.448439 206.903619 
L 523.803239 206.756486 
L 524.15804 206.642452 
L 525.222441 206.535451 
L 528.947846 205.897281 
L 529.302646 205.792032 
L 529.657447 205.708384 
L 530.367048 205.644492 
L 531.254049 205.062703 
L 531.78625 204.856513 
L 533.205452 204.450407 
L 534.269853 204.297599 
L 534.624654 204.18838 
L 535.689055 204.084739 
L 536.221256 203.751056 
L 536.930857 203.613593 
L 537.285657 203.466704 
L 537.817858 203.170091 
L 539.059659 202.835681 
L 539.41446 202.628421 
L 540.301461 202.522372 
L 543.317265 201.711926 
L 544.559067 201.484023 
L 545.091268 201.335496 
L 547.752271 200.927546 
L 547.929671 200.6642 
L 548.816673 200.533752 
L 549.703674 200.285414 
L 550.058474 200.082211 
L 551.300276 199.638143 
L 551.655076 199.288489 
L 552.009877 199.18232 
L 552.364677 198.842042 
L 552.542078 198.633404 
L 552.896878 198.590553 
L 553.074278 198.381647 
L 553.783879 198.296648 
L 554.13868 198.101184 
L 554.31608 198.028657 
L 554.67088 197.778758 
L 555.025681 197.679418 
L 555.203081 197.488612 
L 557.331884 197.273734 
L 558.218885 197.038332 
L 558.573686 196.90313 
L 559.460687 196.843543 
L 560.525088 196.367416 
L 561.057289 196.222639 
L 562.653891 195.840808 
L 563.718292 195.65389 
L 564.073093 195.54746 
L 564.782694 195.441667 
L 565.137494 195.344816 
L 566.556696 195.196752 
L 568.153298 194.835446 
L 569.0403 194.637095 
L 570.814302 194.277076 
L 571.878703 194.17165 
L 572.588304 193.972669 
L 572.943105 193.869166 
L 575.249308 193.45179 
L 576.136309 193.181335 
L 577.200711 192.996825 
L 578.265112 192.774122 
L 578.974713 192.665193 
L 580.393915 192.250012 
L 581.103516 192.131281 
L 581.458316 191.795703 
L 582.877518 191.488561 
L 583.232319 191.085248 
L 583.764519 190.848733 
L 585.538522 190.665994 
L 586.070722 190.522626 
L 586.780323 190.441624 
L 587.489924 190.304248 
L 590.150928 190.041432 
L 592.634531 189.690849 
L 594.940734 189.499984 
L 597.601738 189.291071 
L 599.37574 189.151076 
L 602.036744 188.943659 
L 602.923745 188.874174 
L 611.616357 188.264001 
L 611.971157 188.12426 
L 613.390359 188.025883 
L 615.341762 187.758189 
L 616.228763 187.627894 
L 616.938364 187.581325 
L 618.180165 187.464602 
L 619.244567 187.250634 
L 621.195969 187.067996 
L 622.437771 186.706491 
L 622.615171 186.700018 
L 622.792572 186.534224 
L 623.324772 186.499622 
L 623.856973 186.202408 
L 624.389174 186.122703 
L 624.743974 185.985328 
L 625.985776 185.852963 
L 626.340576 185.658796 
L 626.695377 185.442065 
L 628.114579 184.796183 
L 629.00158 184.647499 
L 629.888581 184.495517 
L 630.598182 184.368461 
L 631.130383 184.066674 
L 632.372184 183.888948 
L 633.791386 183.622233 
L 634.146187 183.524567 
L 636.097589 183.264569 
L 641.064796 182.119347 
L 641.419596 182.048587 
L 643.9032 181.414147 
L 644.0806 181.23649 
L 644.435401 181.17478 
L 644.790201 181.062956 
L 645.322402 180.945357 
L 646.564203 180.743752 
L 647.451205 180.635526 
L 647.983405 180.427987 
L 649.047807 180.229594 
L 650.821809 179.720881 
L 651.35401 179.632201 
L 652.241011 179.34545 
L 653.660213 179.128932 
L 654.015013 179.113672 
L 654.369814 178.897525 
L 655.434215 178.541457 
L 656.321216 177.542028 
L 656.853417 177.241648 
L 658.62742 176.396912 
L 658.98222 176.287785 
L 659.691821 176.084205 
L 659.869221 176.081382 
L 660.224022 175.853292 
L 660.933623 175.661081 
L 662.175424 175.410687 
L 662.352825 175.249039 
L 662.885025 175.224914 
L 663.239826 175.071467 
L 664.304227 174.721587 
L 664.659028 174.686674 
L 665.013828 174.544546 
L 668.207032 173.338463 
L 668.916633 173.108474 
L 669.981035 172.807116 
L 671.045436 172.209769 
L 671.932437 172.06833 
L 672.287238 171.970894 
L 673.529039 171.716016 
L 674.416041 171.642238 
L 675.125642 171.379288 
L 676.367443 171.266429 
L 676.899644 171.181576 
L 677.964045 171.08019 
L 679.738048 170.906567 
L 681.866851 170.721505 
L 682.221651 170.56717 
L 682.931252 170.419153 
L 684.173054 170.25787 
L 686.124456 169.947261 
L 686.656657 169.79062 
L 687.011458 169.723385 
L 687.366258 169.559544 
L 688.075859 169.355204 
L 688.430659 169.216038 
L 688.60806 169.169056 
L 688.78546 168.935367 
L 689.317661 168.89146 
L 689.672461 168.631858 
L 690.027262 168.586394 
L 690.736863 168.21929 
L 691.269063 168.13194 
L 691.446463 167.930898 
L 691.801264 167.894542 
L 692.156064 167.521056 
L 692.865665 167.188794 
L 693.043066 166.767781 
L 694.817068 166.505825 
L 695.349269 166.421105 
L 696.05887 166.20729 
L 696.59107 166.106155 
L 698.365073 165.525623 
L 700.316475 165.134268 
L 701.026076 165.008082 
L 701.913077 164.830525 
L 702.267878 164.692589 
L 702.622678 164.556193 
L 703.154879 164.289247 
L 703.50968 164.234043 
L 704.04188 163.860108 
L 704.219281 163.508143 
L 704.396681 163.501749 
L 704.751481 163.002821 
L 705.106282 162.757961 
L 705.283682 162.438526 
L 705.638482 162.19983 
L 707.412485 161.223976 
L 707.589885 161.213573 
L 707.767285 161.024008 
L 708.299486 160.93929 
L 708.654286 160.847838 
L 709.009087 160.747035 
L 709.541288 160.389323 
L 709.718688 160.174996 
L 709.896088 160.142307 
L 710.250889 159.964314 
L 710.783089 159.858946 
L 710.96049 159.09502 
L 712.734492 158.750158 
L 712.911892 158.511666 
L 713.798893 158.344622 
L 715.040695 157.862811 
L 715.395496 157.732942 
L 716.459897 157.656564 
L 716.814697 157.550595 
L 717.169498 157.444794 
L 717.701699 157.062646 
L 718.7661 156.94853 
L 719.120901 156.727645 
L 719.298301 156.689534 
L 719.475701 156.374365 
L 720.007902 156.167475 
L 720.185302 156.009224 
L 720.362702 155.693632 
L 721.427104 155.528862 
L 722.314105 155.075487 
L 722.491505 155.061424 
L 723.201106 154.399109 
L 723.910707 154.330711 
L 724.088107 154.146298 
L 725.507309 153.96149 
L 726.39431 153.757693 
L 727.103911 153.600643 
L 727.458712 153.5161 
L 728.523113 153.389197 
L 729.764915 153.137952 
L 730.297115 152.897681 
L 731.716317 152.23697 
L 731.893718 152.2293 
L 733.49032 150.713748 
L 733.84512 150.382256 
L 734.199921 150.101309 
L 734.909522 149.91601 
L 736.151323 149.172537 
L 736.328724 148.424955 
L 736.683524 148.141367 
L 737.393125 147.836474 
L 737.925326 147.803237 
L 738.280126 147.414962 
L 740.408929 146.945296 
L 740.586329 146.766618 
L 742.005531 146.642196 
L 742.360332 146.471937 
L 742.892532 146.343021 
L 743.779534 146.109658 
L 744.489134 145.937929 
L 745.021335 145.846011 
L 746.972738 145.171843 
L 747.859739 144.768869 
L 748.214539 144.652405 
L 748.92414 144.374874 
L 749.278941 144.265887 
L 750.520743 144.048188 
L 752.472145 143.743786 
L 753.004346 143.522313 
L 753.891347 143.479384 
L 754.423548 143.209286 
L 754.600948 143.19476 
L 754.778348 143.017467 
L 755.487949 142.857998 
L 755.84275 142.750762 
L 756.19755 142.303304 
L 756.907151 142.239231 
L 757.616752 141.725963 
L 757.794152 141.089752 
L 758.148953 141.045835 
L 758.326353 140.851534 
L 758.503753 140.349756 
L 759.213354 139.968231 
L 759.568155 139.664442 
L 759.745555 139.153752 
L 760.100355 138.957783 
L 760.632556 138.643172 
L 760.809956 138.158904 
L 761.874358 137.951209 
L 762.406558 137.618158 
L 762.938759 137.525963 
L 763.29356 137.097904 
L 763.64836 136.834174 
L 763.82576 136.800319 
L 764.003161 136.44005 
L 764.357961 136.309597 
L 766.841564 135.057046 
L 767.373765 134.923531 
L 767.728566 134.622687 
L 767.905966 134.608164 
L 768.438167 133.4795 
L 768.792967 133.449445 
L 769.502568 132.756024 
L 769.857368 132.63986 
L 770.566969 131.943496 
L 770.92177 131.735733 
L 771.453971 131.679475 
L 771.631371 131.616543 
L 771.808771 131.088395 
L 772.695772 130.721103 
L 773.050573 130.564981 
L 773.227973 130.287866 
L 775.356776 129.885279 
L 775.534176 129.524103 
L 776.598577 129.100352 
L 777.130778 128.959893 
L 777.662979 128.768015 
L 778.017779 128.654776 
L 778.19518 128.599948 
L 778.72738 128.105555 
L 781.565784 126.848823 
L 782.097985 125.955311 
L 782.807586 125.671005 
L 783.162386 125.600612 
L 783.694587 124.99322 
L 783.871987 124.900935 
L 784.049387 124.413967 
L 784.404188 124.265306 
L 784.581588 124.181202 
L 784.758988 123.900205 
L 785.113789 123.728742 
L 785.468589 123.487623 
L 785.82339 123.391337 
L 786.355591 123.28979 
L 786.532991 123.088473 
L 787.065191 122.893884 
L 787.242592 122.85439 
L 787.419992 122.424719 
L 787.774792 122.391288 
L 787.952193 121.798666 
L 788.129593 121.76989 
L 788.306993 121.569038 
L 789.193994 121.440266 
L 789.548795 121.23844 
L 790.613196 121.112933 
L 791.145397 120.709474 
L 791.322797 120.701616 
L 791.854998 120.288501 
L 792.209798 120.201384 
L 792.387199 119.550741 
L 792.564599 119.417691 
L 792.919399 118.920354 
L 793.0968 118.767027 
L 793.2742 118.239799 
L 793.983801 117.944791 
L 794.338601 117.451702 
L 794.516001 117.436142 
L 795.048202 116.271892 
L 795.225602 116.262367 
L 795.935203 115.824541 
L 796.290004 115.73817 
L 796.822205 115.10389 
L 797.177005 113.647827 
L 797.354405 113.512812 
L 797.531805 112.418771 
L 797.709206 112.418053 
L 797.886606 111.60993 
L 798.064006 109.587977 
L 798.418807 109.484669 
L 798.596207 108.107112 
L 799.305808 106.548093 
L 799.483208 106.348171 
L 799.660608 105.845219 
L 799.838009 105.828555 
L 800.192809 104.949815 
L 800.370209 104.907936 
L 801.07981 102.99073 
L 801.25721 102.848073 
L 801.434611 101.541184 
L 801.612011 101.161633 
L 801.789411 100.426528 
L 801.966811 100.390089 
L 802.321612 97.24524 
L 802.676412 96.993499 
L 803.740814 96.605025 
L 804.095614 95.395127 
L 804.273015 94.761037 
L 804.450415 94.744886 
L 804.805215 93.467253 
L 805.160016 93.317753 
L 805.337416 91.722622 
L 805.514816 91.677811 
L 805.869617 90.061455 
L 806.224417 89.827273 
L 807.111418 89.536171 
L 807.288819 89.27619 
L 807.466219 86.570826 
L 807.821019 86.015107 
L 807.998419 86.01152 
L 808.53062 83.580789 
L 808.70802 83.315554 
L 808.885421 82.338092 
L 809.062821 82.219321 
L 809.240221 81.340512 
L 809.772422 81.2392 
L 809.949822 80.381461 
L 810.127222 80.091493 
L 810.304623 80.049839 
L 810.482023 78.367902 
L 810.836823 78.180491 
L 811.014224 77.707789 
L 811.191624 77.667194 
L 811.369024 77.400911 
L 811.546424 74.739014 
L 811.723824 74.569635 
L 812.078625 70.769354 
L 812.256025 70.590715 
L 812.433425 70.574748 
L 813.143026 70.140558 
L 813.320427 68.020622 
L 813.852627 67.845693 
L 814.030028 67.807252 
L 814.207428 66.242271 
L 814.562228 65.534733 
L 815.094429 63.26887 
L 815.271829 63.260055 
L 815.62663 61.341479 
L 815.98143 61.320725 
L 816.15883 59.718233 
L 816.336231 59.426793 
L 816.513631 59.388452 
L 816.691031 57.682545 
L 816.691031 57.682545 
" clip-path="url(#pf05f2bcf22)" style="fill: none; stroke: #2ca02c; stroke-width: 1.5; stroke-linecap: square"/>
   </g>
   <g id="patch_3">
    <path d="M 50.002685 390.04 
L 50.002685 41.856 
" style="fill: none; stroke: #000000; stroke-width: 0.8; stroke-linejoin: miter; stroke-linecap: square"/>
   </g>
   <g id="patch_4">
    <path d="M 853.2 390.04 
L 853.2 41.856 
" style="fill: none; stroke: #000000; stroke-width: 0.8; stroke-linejoin: miter; stroke-linecap: square"/>
   </g>
   <g id="patch_5">
    <path d="M 50.002685 390.04 
L 853.2 390.04 
" style="fill: none; stroke: #000000; stroke-width: 0.8; stroke-linejoin: miter; stroke-linecap: square"/>
   </g>
   <g id="patch_6">
    <path d="M 50.002685 41.856 
L 853.2 41.856 
" style="fill: none; stroke: #000000; stroke-width: 0.8; stroke-linejoin: miter; stroke-linecap: square"/>
   </g>
   <g id="text_12">
    <!-- HTTP Request Duration Percentiles -->
    <g transform="translate(347.37478 22.355625) scale(0.12 -0.12)">
     <defs>
      <path id="DejaVuSans-48" d="M 628 4666 
L 1259 4666 
L 1259 2753 
L 3553 2753 
L 3553 4666 
L 4184 4666 
L 4184 0 
L 3553 0 
L 3553 2222 
L 1259 2222 
L 1259 0 
L 628 0 
L 628 4666 
z
" transform="scale(0.015625)"/>
      <path id="DejaVuSans-54" d="M -19 4666 
L 3928 4666 
L 3928 4134 
L 2272 4134 
L 2272 0 
L 1638 0 
L 1638 4134 
L -19 4134 
L -19 4666 
z
" transform="scale(0.015625)"/>
      <path id="DejaVuSans-52" d="M 2841 2188 
Q 3044 2119 3236 1894 
Q 3428 1669 3622 1275 
L 4263 0 
L 3584 0 
L 2988 1197 
Q 2756 1666 2539 1819 
Q 2322 1972 1947 1972 
L 1259 1972 
L 1259 0 
L 628 0 
L 628 4666 
L 2053 4666 
Q 2853 4666 3247 4331 
Q 3641 3997 3641 3322 
Q 3641 2881 3436 2590 
Q 3231 2300 2841 2188 
z
M 1259 4147 
L 1259 2491 
L 2053 2491 
Q 2509 2491 2742 2702 
Q 2975 2913 2975 3322 
Q 2975 3731 2742 3939 
Q 2509 4147 2053 4147 
L 1259 4147 
z
" transform="scale(0.015625)"/>
      <path id="DejaVuSans-71" d="M 947 1747 
Q 947 1113 1208 752 
Q 1469 391 1925 391 
Q 2381 391 2643 752 
Q 2906 1113 2906 1747 
Q 2906 2381 2643 2742 
Q 2381 3103 1925 3103 
Q 1469 3103 1208 2742 
Q 947 2381 947 1747 
z
M 2906 525 
Q 2725 213 2448 61 
Q 2172 -91 1784 -91 
Q 1150 -91 751 415 
Q 353 922 353 1747 
Q 353 2572 751 3078 
Q 1150 3584 1784 3584 
Q 2172 3584 2448 3432 
Q 2725 3281 2906 2969 
L 2906 3500 
L 3481 3500 
L 3481 -1331 
L 2906 -1331 
L 2906 525 
z
" transform="scale(0.015625)"/>
     </defs>
     <use xlink:href="#DejaVuSans-48"/>
     <use xlink:href="#DejaVuSans-54" transform="translate(75.195312 0)"/>
     <use xlink:href="#DejaVuSans-54" transform="translate(134.529297 0)"/>
     <use xlink:href="#DejaVuSans-50" transform="translate(195.613281 0)"/>
     <use xlink:href="#DejaVuSans-20" transform="translate(255.916016 0)"/>
     <use xlink:href="#DejaVuSans-52" transform="translate(287.703125 0)"/>
     <use xlink:href="#DejaVuSans-65" transform="translate(352.685547 0)"/>
     <use xlink:href="#DejaVuSans-71" transform="translate(414.208984 0)"/>
     <use xlink:href="#DejaVuSans-75" transform="translate(477.685547 0)"/>
     <use xlink:href="#DejaVuSans-65" transform="translate(541.064453 0)"/>
     <use xlink:href="#DejaVuSans-73" transform="translate(602.587891 0)"/>
     <use xlink:href="#DejaVuSans-74" transform="translate(654.6875 0)"/>
     <use xlink:href="#DejaVuSans-20" transform="translate(693.896484 0)"/>
     <use xlink:href="#DejaVuSans-44" transform="translate(725.683594 0)"/>
     <use xlink:href="#DejaVuSans-75" transform="translate(802.685547 0)"/>
     <use xlink:href="#DejaVuSans-72" transform="translate(866.064453 0)"/>
     <use xlink:href="#DejaVuSans-61" transform="translate(907.177734 0)"/>
     <use xlink:href="#DejaVuSans-74" transform="translate(968.457031 0)"/>
     <use xlink:href="#DejaVuSans-69" transform="translate(1007.666016 0)"/>
     <use xlink:href="#DejaVuSans-6f" transform="translate(1035.449219 0)"/>
     <use xlink:href="#DejaVuSans-6e" transform="translate(1096.630859 0)"/>
     <use xlink:href="#DejaVuSans-20" transform="translate(1160.009766 0)"/>
     <use xlink:href="#DejaVuSans-50" transform="translate(1191.796875 0)"/>
     <use xlink:href="#DejaVuSans-65" transform="translate(1248.474609 0)"/>
     <use xlink:href="#DejaVuSans-72" transform="translate(1309.998047 0)"/>
     <use xlink:href="#DejaVuSans-63" transform="translate(1348.861328 0)"/>
     <use xlink:href="#DejaVuSans-65" transform="translate(1403.841797 0)"/>
     <use xlink:href="#DejaVuSans-6e" transform="translate(1465.365234 0)"/>
     <use xlink:href="#DejaVuSans-74" transform="translate(1528.744141 0)"/>
     <use xlink:href="#DejaVuSans-69" transform="translate(1567.953125 0)"/>
     <use xlink:href="#DejaVuSans-6c" transform="translate(1595.736328 0)"/>
     <use xlink:href="#DejaVuSans-65" transform="translate(1623.519531 0)"/>
     <use xlink:href="#DejaVuSans-73" transform="translate(1685.042969 0)"/>
    </g>
    <!-- Test: breakpoint | Endpoint: GetWaypointsByMapId -->
    <g transform="translate(299.296967 35.856) scale(0.12 -0.12)">
     <defs>
      <path id="DejaVuSans-3a" d="M 750 794 
L 1409 794 
L 1409 0 
L 750 0 
L 750 794 
z
M 750 3309 
L 1409 3309 
L 1409 2516 
L 750 2516 
L 750 3309 
z
" transform="scale(0.015625)"/>
      <path id="DejaVuSans-62" d="M 3116 1747 
Q 3116 2381 2855 2742 
Q 2594 3103 2138 3103 
Q 1681 3103 1420 2742 
Q 1159 2381 1159 1747 
Q 1159 1113 1420 752 
Q 1681 391 2138 391 
Q 2594 391 2855 752 
Q 3116 1113 3116 1747 
z
M 1159 2969 
Q 1341 3281 1617 3432 
Q 1894 3584 2278 3584 
Q 2916 3584 3314 3078 
Q 3713 2572 3713 1747 
Q 3713 922 3314 415 
Q 2916 -91 2278 -91 
Q 1894 -91 1617 61 
Q 1341 213 1159 525 
L 1159 0 
L 581 0 
L 581 4863 
L 1159 4863 
L 1159 2969 
z
" transform="scale(0.015625)"/>
      <path id="DejaVuSans-6b" d="M 581 4863 
L 1159 4863 
L 1159 1991 
L 2875 3500 
L 3609 3500 
L 1753 1863 
L 3688 0 
L 2938 0 
L 1159 1709 
L 1159 0 
L 581 0 
L 581 4863 
z
" transform="scale(0.015625)"/>
      <path id="DejaVuSans-70" d="M 1159 525 
L 1159 -1331 
L 581 -1331 
L 581 3500 
L 1159 3500 
L 1159 2969 
Q 1341 3281 1617 3432 
Q 1894 3584 2278 3584 
Q 2916 3584 3314 3078 
Q 3713 2572 3713 1747 
Q 3713 922 3314 415 
Q 2916 -91 2278 -91 
Q 1894 -91 1617 61 
Q 1341 213 1159 525 
z
M 3116 1747 
Q 3116 2381 2855 2742 
Q 2594 3103 2138 3103 
Q 1681 3103 1420 2742 
Q 1159 2381 1159 1747 
Q 1159 1113 1420 752 
Q 1681 391 2138 391 
Q 2594 391 2855 752 
Q 3116 1113 3116 1747 
z
" transform="scale(0.015625)"/>
      <path id="DejaVuSans-7c" d="M 1344 4891 
L 1344 -1509 
L 813 -1509 
L 813 4891 
L 1344 4891 
z
" transform="scale(0.015625)"/>
      <path id="DejaVuSans-45" d="M 628 4666 
L 3578 4666 
L 3578 4134 
L 1259 4134 
L 1259 2753 
L 3481 2753 
L 3481 2222 
L 1259 2222 
L 1259 531 
L 3634 531 
L 3634 0 
L 628 0 
L 628 4666 
z
" transform="scale(0.015625)"/>
      <path id="DejaVuSans-64" d="M 2906 2969 
L 2906 4863 
L 3481 4863 
L 3481 0 
L 2906 0 
L 2906 525 
Q 2725 213 2448 61 
Q 2172 -91 1784 -91 
Q 1150 -91 751 415 
Q 353 922 353 1747 
Q 353 2572 751 3078 
Q 1150 3584 1784 3584 
Q 2172 3584 2448 3432 
Q 2725 3281 2906 2969 
z
M 947 1747 
Q 947 1113 1208 752 
Q 1469 391 1925 391 
Q 2381 391 2643 752 
Q 2906 1113 2906 1747 
Q 2906 2381 2643 2742 
Q 2381 3103 1925 3103 
Q 1469 3103 1208 2742 
Q 947 2381 947 1747 
z
" transform="scale(0.015625)"/>
      <path id="DejaVuSans-47" d="M 3809 666 
L 3809 1919 
L 2778 1919 
L 2778 2438 
L 4434 2438 
L 4434 434 
Q 4069 175 3628 42 
Q 3188 -91 2688 -91 
Q 1594 -91 976 548 
Q 359 1188 359 2328 
Q 359 3472 976 4111 
Q 1594 4750 2688 4750 
Q 3144 4750 3555 4637 
Q 3966 4525 4313 4306 
L 4313 3634 
Q 3963 3931 3569 4081 
Q 3175 4231 2741 4231 
Q 1884 4231 1454 3753 
Q 1025 3275 1025 2328 
Q 1025 1384 1454 906 
Q 1884 428 2741 428 
Q 3075 428 3337 486 
Q 3600 544 3809 666 
z
" transform="scale(0.015625)"/>
      <path id="DejaVuSans-57" d="M 213 4666 
L 850 4666 
L 1831 722 
L 2809 4666 
L 3519 4666 
L 4500 722 
L 5478 4666 
L 6119 4666 
L 4947 0 
L 4153 0 
L 3169 4050 
L 2175 0 
L 1381 0 
L 213 4666 
z
" transform="scale(0.015625)"/>
      <path id="DejaVuSans-79" d="M 2059 -325 
Q 1816 -950 1584 -1140 
Q 1353 -1331 966 -1331 
L 506 -1331 
L 506 -850 
L 844 -850 
Q 1081 -850 1212 -737 
Q 1344 -625 1503 -206 
L 1606 56 
L 191 3500 
L 800 3500 
L 1894 763 
L 2988 3500 
L 3597 3500 
L 2059 -325 
z
" transform="scale(0.015625)"/>
      <path id="DejaVuSans-42" d="M 1259 2228 
L 1259 519 
L 2272 519 
Q 2781 519 3026 730 
Q 3272 941 3272 1375 
Q 3272 1813 3026 2020 
Q 2781 2228 2272 2228 
L 1259 2228 
z
M 1259 4147 
L 1259 2741 
L 2194 2741 
Q 2656 2741 2882 2914 
Q 3109 3088 3109 3444 
Q 3109 3797 2882 3972 
Q 2656 4147 2194 4147 
L 1259 4147 
z
M 628 4666 
L 2241 4666 
Q 2963 4666 3353 4366 
Q 3744 4066 3744 3513 
Q 3744 3084 3544 2831 
Q 3344 2578 2956 2516 
Q 3422 2416 3680 2098 
Q 3938 1781 3938 1306 
Q 3938 681 3513 340 
Q 3088 0 2303 0 
L 628 0 
L 628 4666 
z
" transform="scale(0.015625)"/>
      <path id="DejaVuSans-4d" d="M 628 4666 
L 1569 4666 
L 2759 1491 
L 3956 4666 
L 4897 4666 
L 4897 0 
L 4281 0 
L 4281 4097 
L 3078 897 
L 2444 897 
L 1241 4097 
L 1241 0 
L 628 0 
L 628 4666 
z
" transform="scale(0.015625)"/>
      <path id="DejaVuSans-49" d="M 628 4666 
L 1259 4666 
L 1259 0 
L 628 0 
L 628 4666 
z
" transform="scale(0.015625)"/>
     </defs>
     <use xlink:href="#DejaVuSans-54"/>
     <use xlink:href="#DejaVuSans-65" transform="translate(44.083984 0)"/>
     <use xlink:href="#DejaVuSans-73" transform="translate(105.607422 0)"/>
     <use xlink:href="#DejaVuSans-74" transform="translate(157.707031 0)"/>
     <use xlink:href="#DejaVuSans-3a" transform="translate(196.916016 0)"/>
     <use xlink:href="#DejaVuSans-20" transform="translate(230.607422 0)"/>
     <use xlink:href="#DejaVuSans-62" transform="translate(262.394531 0)"/>
     <use xlink:href="#DejaVuSans-72" transform="translate(325.871094 0)"/>
     <use xlink:href="#DejaVuSans-65" transform="translate(364.734375 0)"/>
     <use xlink:href="#DejaVuSans-61" transform="translate(426.257812 0)"/>
     <use xlink:href="#DejaVuSans-6b" transform="translate(487.537109 0)"/>
     <use xlink:href="#DejaVuSans-70" transform="translate(545.447266 0)"/>
     <use xlink:href="#DejaVuSans-6f" transform="translate(608.923828 0)"/>
     <use xlink:href="#DejaVuSans-69" transform="translate(670.105469 0)"/>
     <use xlink:href="#DejaVuSans-6e" transform="translate(697.888672 0)"/>
     <use xlink:href="#DejaVuSans-74" transform="translate(761.267578 0)"/>
     <use xlink:href="#DejaVuSans-20" transform="translate(800.476562 0)"/>
     <use xlink:href="#DejaVuSans-7c" transform="translate(832.263672 0)"/>
     <use xlink:href="#DejaVuSans-20" transform="translate(865.955078 0)"/>
     <use xlink:href="#DejaVuSans-45" transform="translate(897.742188 0)"/>
     <use xlink:href="#DejaVuSans-6e" transform="translate(960.925781 0)"/>
     <use xlink:href="#DejaVuSans-64" transform="translate(1024.304688 0)"/>
     <use xlink:href="#DejaVuSans-70" transform="translate(1087.78125 0)"/>
     <use xlink:href="#DejaVuSans-6f" transform="translate(1151.257812 0)"/>
     <use xlink:href="#DejaVuSans-69" transform="translate(1212.439453 0)"/>
     <use xlink:href="#DejaVuSans-6e" transform="translate(1240.222656 0)"/>
     <use xlink:href="#DejaVuSans-74" transform="translate(1303.601562 0)"/>
     <use xlink:href="#DejaVuSans-3a" transform="translate(1342.810547 0)"/>
     <use xlink:href="#DejaVuSans-20" transform="translate(1376.501953 0)"/>
     <use xlink:href="#DejaVuSans-47" transform="translate(1408.289062 0)"/>
     <use xlink:href="#DejaVuSans-65" transform="translate(1485.779297 0)"/>
     <use xlink:href="#DejaVuSans-74" transform="translate(1547.302734 0)"/>
     <use xlink:href="#DejaVuSans-57" transform="translate(1586.511719 0)"/>
     <use xlink:href="#DejaVuSans-61" transform="translate(1679.013672 0)"/>
     <use xlink:href="#DejaVuSans-79" transform="translate(1740.292969 0)"/>
     <use xlink:href="#DejaVuSans-70" transform="translate(1799.472656 0)"/>
     <use xlink:href="#DejaVuSans-6f" transform="translate(1862.949219 0)"/>
     <use xlink:href="#DejaVuSans-69" transform="translate(1924.130859 0)"/>
     <use xlink:href="#DejaVuSans-6e" transform="translate(1951.914062 0)"/>
     <use xlink:href="#DejaVuSans-74" transform="translate(2015.292969 0)"/>
     <use xlink:href="#DejaVuSans-73" transform="translate(2054.501953 0)"/>
     <use xlink:href="#DejaVuSans-42" transform="translate(2106.601562 0)"/>
     <use xlink:href="#DejaVuSans-79" transform="translate(2175.205078 0)"/>
     <use xlink:href="#DejaVuSans-4d" transform="translate(2234.384766 0)"/>
     <use xlink:href="#DejaVuSans-61" transform="translate(2320.664062 0)"/>
     <use xlink:href="#DejaVuSans-70" transform="translate(2381.943359 0)"/>
     <use xlink:href="#DejaVuSans-49" transform="translate(2445.419922 0)"/>
     <use xlink:href="#DejaVuSans-64" transform="translate(2474.912109 0)"/>
    </g>
   </g>
   <g id="legend_1">
    <g id="patch_7">
     <path d="M 57.002685 93.890375 
L 190.346435 93.890375 
Q 192.346435 93.890375 192.346435 91.890375 
L 192.346435 48.856 
Q 192.346435 46.856 190.346435 46.856 
L 57.002685 46.856 
Q 55.002685 46.856 55.002685 48.856 
L 55.002685 91.890375 
Q 55.002685 93.890375 57.002685 93.890375 
z
" style="fill: #ffffff; opacity: 0.8; stroke: #cccccc; stroke-linejoin: miter"/>
    </g>
    <g id="line2d_35">
     <path d="M 59.002685 54.954437 
L 69.002685 54.954437 
L 79.002685 54.954437 
" style="fill: none; stroke: #1f77b4; stroke-width: 1.5; stroke-linecap: square"/>
    </g>
    <g id="text_13">
     <!-- Single Large Results -->
     <g transform="translate(87.002685 58.454437) scale(0.1 -0.1)">
      <defs>
       <path id="DejaVuSans-53" d="M 3425 4513 
L 3425 3897 
Q 3066 4069 2747 4153 
Q 2428 4238 2131 4238 
Q 1616 4238 1336 4038 
Q 1056 3838 1056 3469 
Q 1056 3159 1242 3001 
Q 1428 2844 1947 2747 
L 2328 2669 
Q 3034 2534 3370 2195 
Q 3706 1856 3706 1288 
Q 3706 609 3251 259 
Q 2797 -91 1919 -91 
Q 1588 -91 1214 -16 
Q 841 59 441 206 
L 441 856 
Q 825 641 1194 531 
Q 1563 422 1919 422 
Q 2459 422 2753 634 
Q 3047 847 3047 1241 
Q 3047 1584 2836 1778 
Q 2625 1972 2144 2069 
L 1759 2144 
Q 1053 2284 737 2584 
Q 422 2884 422 3419 
Q 422 4038 858 4394 
Q 1294 4750 2059 4750 
Q 2388 4750 2728 4690 
Q 3069 4631 3425 4513 
z
" transform="scale(0.015625)"/>
       <path id="DejaVuSans-67" d="M 2906 1791 
Q 2906 2416 2648 2759 
Q 2391 3103 1925 3103 
Q 1463 3103 1205 2759 
Q 947 2416 947 1791 
Q 947 1169 1205 825 
Q 1463 481 1925 481 
Q 2391 481 2648 825 
Q 2906 1169 2906 1791 
z
M 3481 434 
Q 3481 -459 3084 -895 
Q 2688 -1331 1869 -1331 
Q 1566 -1331 1297 -1286 
Q 1028 -1241 775 -1147 
L 775 -588 
Q 1028 -725 1275 -790 
Q 1522 -856 1778 -856 
Q 2344 -856 2625 -561 
Q 2906 -266 2906 331 
L 2906 616 
Q 2728 306 2450 153 
Q 2172 0 1784 0 
Q 1141 0 747 490 
Q 353 981 353 1791 
Q 353 2603 747 3093 
Q 1141 3584 1784 3584 
Q 2172 3584 2450 3431 
Q 2728 3278 2906 2969 
L 2906 3500 
L 3481 3500 
L 3481 434 
z
" transform="scale(0.015625)"/>
       <path id="DejaVuSans-4c" d="M 628 4666 
L 1259 4666 
L 1259 531 
L 3531 531 
L 3531 0 
L 628 0 
L 628 4666 
z
" transform="scale(0.015625)"/>
      </defs>
      <use xlink:href="#DejaVuSans-53"/>
      <use xlink:href="#DejaVuSans-69" transform="translate(63.476562 0)"/>
      <use xlink:href="#DejaVuSans-6e" transform="translate(91.259766 0)"/>
      <use xlink:href="#DejaVuSans-67" transform="translate(154.638672 0)"/>
      <use xlink:href="#DejaVuSans-6c" transform="translate(218.115234 0)"/>
      <use xlink:href="#DejaVuSans-65" transform="translate(245.898438 0)"/>
      <use xlink:href="#DejaVuSans-20" transform="translate(307.421875 0)"/>
      <use xlink:href="#DejaVuSans-4c" transform="translate(339.208984 0)"/>
      <use xlink:href="#DejaVuSans-61" transform="translate(394.921875 0)"/>
      <use xlink:href="#DejaVuSans-72" transform="translate(456.201172 0)"/>
      <use xlink:href="#DejaVuSans-67" transform="translate(495.564453 0)"/>
      <use xlink:href="#DejaVuSans-65" transform="translate(559.041016 0)"/>
      <use xlink:href="#DejaVuSans-20" transform="translate(620.564453 0)"/>
      <use xlink:href="#DejaVuSans-52" transform="translate(652.351562 0)"/>
      <use xlink:href="#DejaVuSans-65" transform="translate(717.333984 0)"/>
      <use xlink:href="#DejaVuSans-73" transform="translate(778.857422 0)"/>
      <use xlink:href="#DejaVuSans-75" transform="translate(830.957031 0)"/>
      <use xlink:href="#DejaVuSans-6c" transform="translate(894.335938 0)"/>
      <use xlink:href="#DejaVuSans-74" transform="translate(922.119141 0)"/>
      <use xlink:href="#DejaVuSans-73" transform="translate(961.328125 0)"/>
     </g>
    </g>
    <g id="line2d_36">
     <path d="M 59.002685 69.632562 
L 69.002685 69.632562 
L 79.002685 69.632562 
" style="fill: none; stroke: #ff7f0e; stroke-width: 1.5; stroke-linecap: square"/>
    </g>
    <g id="text_14">
     <!-- Single Small Results -->
     <g transform="translate(87.002685 73.132562) scale(0.1 -0.1)">
      <use xlink:href="#DejaVuSans-53"/>
      <use xlink:href="#DejaVuSans-69" transform="translate(63.476562 0)"/>
      <use xlink:href="#DejaVuSans-6e" transform="translate(91.259766 0)"/>
      <use xlink:href="#DejaVuSans-67" transform="translate(154.638672 0)"/>
      <use xlink:href="#DejaVuSans-6c" transform="translate(218.115234 0)"/>
      <use xlink:href="#DejaVuSans-65" transform="translate(245.898438 0)"/>
      <use xlink:href="#DejaVuSans-20" transform="translate(307.421875 0)"/>
      <use xlink:href="#DejaVuSans-53" transform="translate(339.208984 0)"/>
      <use xlink:href="#DejaVuSans-6d" transform="translate(402.685547 0)"/>
      <use xlink:href="#DejaVuSans-61" transform="translate(500.097656 0)"/>
      <use xlink:href="#DejaVuSans-6c" transform="translate(561.376953 0)"/>
      <use xlink:href="#DejaVuSans-6c" transform="translate(589.160156 0)"/>
      <use xlink:href="#DejaVuSans-20" transform="translate(616.943359 0)"/>
      <use xlink:href="#DejaVuSans-52" transform="translate(648.730469 0)"/>
      <use xlink:href="#DejaVuSans-65" transform="translate(713.712891 0)"/>
      <use xlink:href="#DejaVuSans-73" transform="translate(775.236328 0)"/>
      <use xlink:href="#DejaVuSans-75" transform="translate(827.335938 0)"/>
      <use xlink:href="#DejaVuSans-6c" transform="translate(890.714844 0)"/>
      <use xlink:href="#DejaVuSans-74" transform="translate(918.498047 0)"/>
      <use xlink:href="#DejaVuSans-73" transform="translate(957.707031 0)"/>
     </g>
    </g>
    <g id="line2d_37">
     <path d="M 59.002685 84.310687 
L 69.002685 84.310687 
L 79.002685 84.310687 
" style="fill: none; stroke: #2ca02c; stroke-width: 1.5; stroke-linecap: square"/>
    </g>
    <g id="text_15">
     <!-- Multi Results -->
     <g transform="translate(87.002685 87.810687) scale(0.1 -0.1)">
      <use xlink:href="#DejaVuSans-4d"/>
      <use xlink:href="#DejaVuSans-75" transform="translate(86.279297 0)"/>
      <use xlink:href="#DejaVuSans-6c" transform="translate(149.658203 0)"/>
      <use xlink:href="#DejaVuSans-74" transform="translate(177.441406 0)"/>
      <use xlink:href="#DejaVuSans-69" transform="translate(216.650391 0)"/>
      <use xlink:href="#DejaVuSans-20" transform="translate(244.433594 0)"/>
      <use xlink:href="#DejaVuSans-52" transform="translate(276.220703 0)"/>
      <use xlink:href="#DejaVuSans-65" transform="translate(341.203125 0)"/>
      <use xlink:href="#DejaVuSans-73" transform="translate(402.726562 0)"/>
      <use xlink:href="#DejaVuSans-75" transform="translate(454.826172 0)"/>
      <use xlink:href="#DejaVuSans-6c" transform="translate(518.205078 0)"/>
      <use xlink:href="#DejaVuSans-74" transform="translate(545.988281 0)"/>
      <use xlink:href="#DejaVuSans-73" transform="translate(585.197266 0)"/>
     </g>
    </g>
   </g>
  </g>
 </g>
 <defs>
  <clipPath id="pf05f2bcf22">
   <rect x="50.002685" y="41.856" width="803.197315" height="348.184"/>
  </clipPath>
 </defs>
</svg>
