<?xml version="1.0" encoding="utf-8" standalone="no"?>
<!DOCTYPE svg PUBLIC "-//W3C//DTD SVG 1.1//EN"
  "http://www.w3.org/Graphics/SVG/1.1/DTD/svg11.dtd">
<svg xmlns:xlink="http://www.w3.org/1999/xlink" width="864pt" height="432pt" viewBox="0 0 864 432" xmlns="http://www.w3.org/2000/svg" version="1.1">
 <metadata>
  <rdf:RDF xmlns:dc="http://purl.org/dc/elements/1.1/" xmlns:cc="http://creativecommons.org/ns#" xmlns:rdf="http://www.w3.org/1999/02/22-rdf-syntax-ns#">
   <cc:Work>
    <dc:type rdf:resource="http://purl.org/dc/dcmitype/StillImage"/>
    <dc:date>2025-05-31T16:14:29.296528</dc:date>
    <dc:format>image/svg+xml</dc:format>
    <dc:creator>
     <cc:Agent>
      <dc:title>Matplotlib v3.10.1, https://matplotlib.org/</dc:title>
     </cc:Agent>
    </dc:creator>
   </cc:Work>
  </rdf:RDF>
 </metadata>
 <defs>
  <style type="text/css">*{stroke-linejoin: round; stroke-linecap: butt}</style>
 </defs>
 <g id="figure_1">
  <g id="patch_1">
   <path d="M 0 432 
L 864 432 
L 864 0 
L 0 0 
z
" style="fill: #ffffff"/>
  </g>
  <g id="axes_1">
   <g id="patch_2">
    <path d="M 50.002685 390.04 
L 853.2 390.04 
L 853.2 41.856 
L 50.002685 41.856 
z
" style="fill: #ffffff"/>
   </g>
   <g id="matplotlib.axis_1">
    <g id="xtick_1">
     <g id="line2d_1">
      <defs>
       <path id="mb016d7ab79" d="M 0 0 
L 0 3.5 
" style="stroke: #000000; stroke-width: 0.8"/>
      </defs>
      <g>
       <use xlink:href="#mb016d7ab79" x="86.511654" y="390.04" style="stroke: #000000; stroke-width: 0.8"/>
      </g>
     </g>
     <g id="text_1">
      <!-- 0 -->
      <g transform="translate(83.330404 404.638438) scale(0.1 -0.1)">
       <defs>
        <path id="DejaVuSans-30" d="M 2034 4250 
Q 1547 4250 1301 3770 
Q 1056 3291 1056 2328 
Q 1056 1369 1301 889 
Q 1547 409 2034 409 
Q 2525 409 2770 889 
Q 3016 1369 3016 2328 
Q 3016 3291 2770 3770 
Q 2525 4250 2034 4250 
z
M 2034 4750 
Q 2819 4750 3233 4129 
Q 3647 3509 3647 2328 
Q 3647 1150 3233 529 
Q 2819 -91 2034 -91 
Q 1250 -91 836 529 
Q 422 1150 422 2328 
Q 422 3509 836 4129 
Q 1250 4750 2034 4750 
z
" transform="scale(0.015625)"/>
       </defs>
       <use xlink:href="#DejaVuSans-30"/>
      </g>
     </g>
    </g>
    <g id="xtick_2">
     <g id="line2d_2">
      <g>
       <use xlink:href="#mb016d7ab79" x="232.558873" y="390.04" style="stroke: #000000; stroke-width: 0.8"/>
      </g>
     </g>
     <g id="text_2">
      <!-- 20 -->
      <g transform="translate(226.196373 404.638438) scale(0.1 -0.1)">
       <defs>
        <path id="DejaVuSans-32" d="M 1228 531 
L 3431 531 
L 3431 0 
L 469 0 
L 469 531 
Q 828 903 1448 1529 
Q 2069 2156 2228 2338 
Q 2531 2678 2651 2914 
Q 2772 3150 2772 3378 
Q 2772 3750 2511 3984 
Q 2250 4219 1831 4219 
Q 1534 4219 1204 4116 
Q 875 4013 500 3803 
L 500 4441 
Q 881 4594 1212 4672 
Q 1544 4750 1819 4750 
Q 2544 4750 2975 4387 
Q 3406 4025 3406 3419 
Q 3406 3131 3298 2873 
Q 3191 2616 2906 2266 
Q 2828 2175 2409 1742 
Q 1991 1309 1228 531 
z
" transform="scale(0.015625)"/>
       </defs>
       <use xlink:href="#DejaVuSans-32"/>
       <use xlink:href="#DejaVuSans-30" transform="translate(63.623047 0)"/>
      </g>
     </g>
    </g>
    <g id="xtick_3">
     <g id="line2d_3">
      <g>
       <use xlink:href="#mb016d7ab79" x="378.606093" y="390.04" style="stroke: #000000; stroke-width: 0.8"/>
      </g>
     </g>
     <g id="text_3">
      <!-- 40 -->
      <g transform="translate(372.243593 404.638438) scale(0.1 -0.1)">
       <defs>
        <path id="DejaVuSans-34" d="M 2419 4116 
L 825 1625 
L 2419 1625 
L 2419 4116 
z
M 2253 4666 
L 3047 4666 
L 3047 1625 
L 3713 1625 
L 3713 1100 
L 3047 1100 
L 3047 0 
L 2419 0 
L 2419 1100 
L 313 1100 
L 313 1709 
L 2253 4666 
z
" transform="scale(0.015625)"/>
       </defs>
       <use xlink:href="#DejaVuSans-34"/>
       <use xlink:href="#DejaVuSans-30" transform="translate(63.623047 0)"/>
      </g>
     </g>
    </g>
    <g id="xtick_4">
     <g id="line2d_4">
      <g>
       <use xlink:href="#mb016d7ab79" x="524.653313" y="390.04" style="stroke: #000000; stroke-width: 0.8"/>
      </g>
     </g>
     <g id="text_4">
      <!-- 60 -->
      <g transform="translate(518.290813 404.638438) scale(0.1 -0.1)">
       <defs>
        <path id="DejaVuSans-36" d="M 2113 2584 
Q 1688 2584 1439 2293 
Q 1191 2003 1191 1497 
Q 1191 994 1439 701 
Q 1688 409 2113 409 
Q 2538 409 2786 701 
Q 3034 994 3034 1497 
Q 3034 2003 2786 2293 
Q 2538 2584 2113 2584 
z
M 3366 4563 
L 3366 3988 
Q 3128 4100 2886 4159 
Q 2644 4219 2406 4219 
Q 1781 4219 1451 3797 
Q 1122 3375 1075 2522 
Q 1259 2794 1537 2939 
Q 1816 3084 2150 3084 
Q 2853 3084 3261 2657 
Q 3669 2231 3669 1497 
Q 3669 778 3244 343 
Q 2819 -91 2113 -91 
Q 1303 -91 875 529 
Q 447 1150 447 2328 
Q 447 3434 972 4092 
Q 1497 4750 2381 4750 
Q 2619 4750 2861 4703 
Q 3103 4656 3366 4563 
z
" transform="scale(0.015625)"/>
       </defs>
       <use xlink:href="#DejaVuSans-36"/>
       <use xlink:href="#DejaVuSans-30" transform="translate(63.623047 0)"/>
      </g>
     </g>
    </g>
    <g id="xtick_5">
     <g id="line2d_5">
      <g>
       <use xlink:href="#mb016d7ab79" x="670.700533" y="390.04" style="stroke: #000000; stroke-width: 0.8"/>
      </g>
     </g>
     <g id="text_5">
      <!-- 80 -->
      <g transform="translate(664.338033 404.638438) scale(0.1 -0.1)">
       <defs>
        <path id="DejaVuSans-38" d="M 2034 2216 
Q 1584 2216 1326 1975 
Q 1069 1734 1069 1313 
Q 1069 891 1326 650 
Q 1584 409 2034 409 
Q 2484 409 2743 651 
Q 3003 894 3003 1313 
Q 3003 1734 2745 1975 
Q 2488 2216 2034 2216 
z
M 1403 2484 
Q 997 2584 770 2862 
Q 544 3141 544 3541 
Q 544 4100 942 4425 
Q 1341 4750 2034 4750 
Q 2731 4750 3128 4425 
Q 3525 4100 3525 3541 
Q 3525 3141 3298 2862 
Q 3072 2584 2669 2484 
Q 3125 2378 3379 2068 
Q 3634 1759 3634 1313 
Q 3634 634 3220 271 
Q 2806 -91 2034 -91 
Q 1263 -91 848 271 
Q 434 634 434 1313 
Q 434 1759 690 2068 
Q 947 2378 1403 2484 
z
M 1172 3481 
Q 1172 3119 1398 2916 
Q 1625 2713 2034 2713 
Q 2441 2713 2670 2916 
Q 2900 3119 2900 3481 
Q 2900 3844 2670 4047 
Q 2441 4250 2034 4250 
Q 1625 4250 1398 4047 
Q 1172 3844 1172 3481 
z
" transform="scale(0.015625)"/>
       </defs>
       <use xlink:href="#DejaVuSans-38"/>
       <use xlink:href="#DejaVuSans-30" transform="translate(63.623047 0)"/>
      </g>
     </g>
    </g>
    <g id="xtick_6">
     <g id="line2d_6">
      <g>
       <use xlink:href="#mb016d7ab79" x="816.747753" y="390.04" style="stroke: #000000; stroke-width: 0.8"/>
      </g>
     </g>
     <g id="text_6">
      <!-- 100 -->
      <g transform="translate(807.204003 404.638438) scale(0.1 -0.1)">
       <defs>
        <path id="DejaVuSans-31" d="M 794 531 
L 1825 531 
L 1825 4091 
L 703 3866 
L 703 4441 
L 1819 4666 
L 2450 4666 
L 2450 531 
L 3481 531 
L 3481 0 
L 794 0 
L 794 531 
z
" transform="scale(0.015625)"/>
       </defs>
       <use xlink:href="#DejaVuSans-31"/>
       <use xlink:href="#DejaVuSans-30" transform="translate(63.623047 0)"/>
       <use xlink:href="#DejaVuSans-30" transform="translate(127.246094 0)"/>
      </g>
     </g>
    </g>
    <g id="text_7">
     <!-- Percentile (%) -->
     <g transform="translate(416.697436 418.316562) scale(0.1 -0.1)">
      <defs>
       <path id="DejaVuSans-50" d="M 1259 4147 
L 1259 2394 
L 2053 2394 
Q 2494 2394 2734 2622 
Q 2975 2850 2975 3272 
Q 2975 3691 2734 3919 
Q 2494 4147 2053 4147 
L 1259 4147 
z
M 628 4666 
L 2053 4666 
Q 2838 4666 3239 4311 
Q 3641 3956 3641 3272 
Q 3641 2581 3239 2228 
Q 2838 1875 2053 1875 
L 1259 1875 
L 1259 0 
L 628 0 
L 628 4666 
z
" transform="scale(0.015625)"/>
       <path id="DejaVuSans-65" d="M 3597 1894 
L 3597 1613 
L 953 1613 
Q 991 1019 1311 708 
Q 1631 397 2203 397 
Q 2534 397 2845 478 
Q 3156 559 3463 722 
L 3463 178 
Q 3153 47 2828 -22 
Q 2503 -91 2169 -91 
Q 1331 -91 842 396 
Q 353 884 353 1716 
Q 353 2575 817 3079 
Q 1281 3584 2069 3584 
Q 2775 3584 3186 3129 
Q 3597 2675 3597 1894 
z
M 3022 2063 
Q 3016 2534 2758 2815 
Q 2500 3097 2075 3097 
Q 1594 3097 1305 2825 
Q 1016 2553 972 2059 
L 3022 2063 
z
" transform="scale(0.015625)"/>
       <path id="DejaVuSans-72" d="M 2631 2963 
Q 2534 3019 2420 3045 
Q 2306 3072 2169 3072 
Q 1681 3072 1420 2755 
Q 1159 2438 1159 1844 
L 1159 0 
L 581 0 
L 581 3500 
L 1159 3500 
L 1159 2956 
Q 1341 3275 1631 3429 
Q 1922 3584 2338 3584 
Q 2397 3584 2469 3576 
Q 2541 3569 2628 3553 
L 2631 2963 
z
" transform="scale(0.015625)"/>
       <path id="DejaVuSans-63" d="M 3122 3366 
L 3122 2828 
Q 2878 2963 2633 3030 
Q 2388 3097 2138 3097 
Q 1578 3097 1268 2742 
Q 959 2388 959 1747 
Q 959 1106 1268 751 
Q 1578 397 2138 397 
Q 2388 397 2633 464 
Q 2878 531 3122 666 
L 3122 134 
Q 2881 22 2623 -34 
Q 2366 -91 2075 -91 
Q 1284 -91 818 406 
Q 353 903 353 1747 
Q 353 2603 823 3093 
Q 1294 3584 2113 3584 
Q 2378 3584 2631 3529 
Q 2884 3475 3122 3366 
z
" transform="scale(0.015625)"/>
       <path id="DejaVuSans-6e" d="M 3513 2113 
L 3513 0 
L 2938 0 
L 2938 2094 
Q 2938 2591 2744 2837 
Q 2550 3084 2163 3084 
Q 1697 3084 1428 2787 
Q 1159 2491 1159 1978 
L 1159 0 
L 581 0 
L 581 3500 
L 1159 3500 
L 1159 2956 
Q 1366 3272 1645 3428 
Q 1925 3584 2291 3584 
Q 2894 3584 3203 3211 
Q 3513 2838 3513 2113 
z
" transform="scale(0.015625)"/>
       <path id="DejaVuSans-74" d="M 1172 4494 
L 1172 3500 
L 2356 3500 
L 2356 3053 
L 1172 3053 
L 1172 1153 
Q 1172 725 1289 603 
Q 1406 481 1766 481 
L 2356 481 
L 2356 0 
L 1766 0 
Q 1100 0 847 248 
Q 594 497 594 1153 
L 594 3053 
L 172 3053 
L 172 3500 
L 594 3500 
L 594 4494 
L 1172 4494 
z
" transform="scale(0.015625)"/>
       <path id="DejaVuSans-69" d="M 603 3500 
L 1178 3500 
L 1178 0 
L 603 0 
L 603 3500 
z
M 603 4863 
L 1178 4863 
L 1178 4134 
L 603 4134 
L 603 4863 
z
" transform="scale(0.015625)"/>
       <path id="DejaVuSans-6c" d="M 603 4863 
L 1178 4863 
L 1178 0 
L 603 0 
L 603 4863 
z
" transform="scale(0.015625)"/>
       <path id="DejaVuSans-20" transform="scale(0.015625)"/>
       <path id="DejaVuSans-28" d="M 1984 4856 
Q 1566 4138 1362 3434 
Q 1159 2731 1159 2009 
Q 1159 1288 1364 580 
Q 1569 -128 1984 -844 
L 1484 -844 
Q 1016 -109 783 600 
Q 550 1309 550 2009 
Q 550 2706 781 3412 
Q 1013 4119 1484 4856 
L 1984 4856 
z
" transform="scale(0.015625)"/>
       <path id="DejaVuSans-25" d="M 4653 2053 
Q 4381 2053 4226 1822 
Q 4072 1591 4072 1178 
Q 4072 772 4226 539 
Q 4381 306 4653 306 
Q 4919 306 5073 539 
Q 5228 772 5228 1178 
Q 5228 1588 5073 1820 
Q 4919 2053 4653 2053 
z
M 4653 2450 
Q 5147 2450 5437 2106 
Q 5728 1763 5728 1178 
Q 5728 594 5436 251 
Q 5144 -91 4653 -91 
Q 4153 -91 3862 251 
Q 3572 594 3572 1178 
Q 3572 1766 3864 2108 
Q 4156 2450 4653 2450 
z
M 1428 4353 
Q 1159 4353 1004 4120 
Q 850 3888 850 3481 
Q 850 3069 1003 2837 
Q 1156 2606 1428 2606 
Q 1700 2606 1854 2837 
Q 2009 3069 2009 3481 
Q 2009 3884 1853 4118 
Q 1697 4353 1428 4353 
z
M 4250 4750 
L 4750 4750 
L 1831 -91 
L 1331 -91 
L 4250 4750 
z
M 1428 4750 
Q 1922 4750 2215 4408 
Q 2509 4066 2509 3481 
Q 2509 2891 2217 2550 
Q 1925 2209 1428 2209 
Q 931 2209 642 2551 
Q 353 2894 353 3481 
Q 353 4063 643 4406 
Q 934 4750 1428 4750 
z
" transform="scale(0.015625)"/>
       <path id="DejaVuSans-29" d="M 513 4856 
L 1013 4856 
Q 1481 4119 1714 3412 
Q 1947 2706 1947 2009 
Q 1947 1309 1714 600 
Q 1481 -109 1013 -844 
L 513 -844 
Q 928 -128 1133 580 
Q 1338 1288 1338 2009 
Q 1338 2731 1133 3434 
Q 928 4138 513 4856 
z
" transform="scale(0.015625)"/>
      </defs>
      <use xlink:href="#DejaVuSans-50"/>
      <use xlink:href="#DejaVuSans-65" transform="translate(56.677734 0)"/>
      <use xlink:href="#DejaVuSans-72" transform="translate(118.201172 0)"/>
      <use xlink:href="#DejaVuSans-63" transform="translate(157.064453 0)"/>
      <use xlink:href="#DejaVuSans-65" transform="translate(212.044922 0)"/>
      <use xlink:href="#DejaVuSans-6e" transform="translate(273.568359 0)"/>
      <use xlink:href="#DejaVuSans-74" transform="translate(336.947266 0)"/>
      <use xlink:href="#DejaVuSans-69" transform="translate(376.15625 0)"/>
      <use xlink:href="#DejaVuSans-6c" transform="translate(403.939453 0)"/>
      <use xlink:href="#DejaVuSans-65" transform="translate(431.722656 0)"/>
      <use xlink:href="#DejaVuSans-20" transform="translate(493.246094 0)"/>
      <use xlink:href="#DejaVuSans-28" transform="translate(525.033203 0)"/>
      <use xlink:href="#DejaVuSans-25" transform="translate(564.046875 0)"/>
      <use xlink:href="#DejaVuSans-29" transform="translate(659.066406 0)"/>
     </g>
    </g>
   </g>
   <g id="matplotlib.axis_2">
    <g id="ytick_1">
     <g id="line2d_7">
      <defs>
       <path id="m89f36665d6" d="M 0 0 
L -3.5 0 
" style="stroke: #000000; stroke-width: 0.8"/>
      </defs>
      <g>
       <use xlink:href="#m89f36665d6" x="50.002685" y="283.887198" style="stroke: #000000; stroke-width: 0.8"/>
      </g>
     </g>
     <g id="text_8">
      <!-- $\mathdefault{10^{2}}$ -->
      <g transform="translate(25.402685 287.686416) scale(0.1 -0.1)">
       <use xlink:href="#DejaVuSans-31" transform="translate(0 0.765625)"/>
       <use xlink:href="#DejaVuSans-30" transform="translate(63.623047 0.765625)"/>
       <use xlink:href="#DejaVuSans-32" transform="translate(128.203125 39.046875) scale(0.7)"/>
      </g>
     </g>
    </g>
    <g id="ytick_2">
     <g id="line2d_8">
      <g>
       <use xlink:href="#m89f36665d6" x="50.002685" y="152.219243" style="stroke: #000000; stroke-width: 0.8"/>
      </g>
     </g>
     <g id="text_9">
      <!-- $\mathdefault{10^{3}}$ -->
      <g transform="translate(25.402685 156.018462) scale(0.1 -0.1)">
       <defs>
        <path id="DejaVuSans-33" d="M 2597 2516 
Q 3050 2419 3304 2112 
Q 3559 1806 3559 1356 
Q 3559 666 3084 287 
Q 2609 -91 1734 -91 
Q 1441 -91 1130 -33 
Q 819 25 488 141 
L 488 750 
Q 750 597 1062 519 
Q 1375 441 1716 441 
Q 2309 441 2620 675 
Q 2931 909 2931 1356 
Q 2931 1769 2642 2001 
Q 2353 2234 1838 2234 
L 1294 2234 
L 1294 2753 
L 1863 2753 
Q 2328 2753 2575 2939 
Q 2822 3125 2822 3475 
Q 2822 3834 2567 4026 
Q 2313 4219 1838 4219 
Q 1578 4219 1281 4162 
Q 984 4106 628 3988 
L 628 4550 
Q 988 4650 1302 4700 
Q 1616 4750 1894 4750 
Q 2613 4750 3031 4423 
Q 3450 4097 3450 3541 
Q 3450 3153 3228 2886 
Q 3006 2619 2597 2516 
z
" transform="scale(0.015625)"/>
       </defs>
       <use xlink:href="#DejaVuSans-31" transform="translate(0 0.765625)"/>
       <use xlink:href="#DejaVuSans-30" transform="translate(63.623047 0.765625)"/>
       <use xlink:href="#DejaVuSans-33" transform="translate(128.203125 39.046875) scale(0.7)"/>
      </g>
     </g>
    </g>
    <g id="ytick_3">
     <g id="line2d_9">
      <defs>
       <path id="m8c3aedb9b9" d="M 0 0 
L -2 0 
" style="stroke: #000000; stroke-width: 0.6"/>
      </defs>
      <g>
       <use xlink:href="#m8c3aedb9b9" x="50.002685" y="375.919148" style="stroke: #000000; stroke-width: 0.6"/>
      </g>
     </g>
    </g>
    <g id="ytick_4">
     <g id="line2d_10">
      <g>
       <use xlink:href="#m8c3aedb9b9" x="50.002685" y="352.733573" style="stroke: #000000; stroke-width: 0.6"/>
      </g>
     </g>
    </g>
    <g id="ytick_5">
     <g id="line2d_11">
      <g>
       <use xlink:href="#m8c3aedb9b9" x="50.002685" y="336.283145" style="stroke: #000000; stroke-width: 0.6"/>
      </g>
     </g>
    </g>
    <g id="ytick_6">
     <g id="line2d_12">
      <g>
       <use xlink:href="#m8c3aedb9b9" x="50.002685" y="323.523202" style="stroke: #000000; stroke-width: 0.6"/>
      </g>
     </g>
    </g>
    <g id="ytick_7">
     <g id="line2d_13">
      <g>
       <use xlink:href="#m8c3aedb9b9" x="50.002685" y="313.097569" style="stroke: #000000; stroke-width: 0.6"/>
      </g>
     </g>
    </g>
    <g id="ytick_8">
     <g id="line2d_14">
      <g>
       <use xlink:href="#m8c3aedb9b9" x="50.002685" y="304.282822" style="stroke: #000000; stroke-width: 0.6"/>
      </g>
     </g>
    </g>
    <g id="ytick_9">
     <g id="line2d_15">
      <g>
       <use xlink:href="#m8c3aedb9b9" x="50.002685" y="296.647141" style="stroke: #000000; stroke-width: 0.6"/>
      </g>
     </g>
    </g>
    <g id="ytick_10">
     <g id="line2d_16">
      <g>
       <use xlink:href="#m8c3aedb9b9" x="50.002685" y="289.911993" style="stroke: #000000; stroke-width: 0.6"/>
      </g>
     </g>
    </g>
    <g id="ytick_11">
     <g id="line2d_17">
      <g>
       <use xlink:href="#m8c3aedb9b9" x="50.002685" y="244.251194" style="stroke: #000000; stroke-width: 0.6"/>
      </g>
     </g>
    </g>
    <g id="ytick_12">
     <g id="line2d_18">
      <g>
       <use xlink:href="#m8c3aedb9b9" x="50.002685" y="221.065618" style="stroke: #000000; stroke-width: 0.6"/>
      </g>
     </g>
    </g>
    <g id="ytick_13">
     <g id="line2d_19">
      <g>
       <use xlink:href="#m8c3aedb9b9" x="50.002685" y="204.61519" style="stroke: #000000; stroke-width: 0.6"/>
      </g>
     </g>
    </g>
    <g id="ytick_14">
     <g id="line2d_20">
      <g>
       <use xlink:href="#m8c3aedb9b9" x="50.002685" y="191.855247" style="stroke: #000000; stroke-width: 0.6"/>
      </g>
     </g>
    </g>
    <g id="ytick_15">
     <g id="line2d_21">
      <g>
       <use xlink:href="#m8c3aedb9b9" x="50.002685" y="181.429614" style="stroke: #000000; stroke-width: 0.6"/>
      </g>
     </g>
    </g>
    <g id="ytick_16">
     <g id="line2d_22">
      <g>
       <use xlink:href="#m8c3aedb9b9" x="50.002685" y="172.614867" style="stroke: #000000; stroke-width: 0.6"/>
      </g>
     </g>
    </g>
    <g id="ytick_17">
     <g id="line2d_23">
      <g>
       <use xlink:href="#m8c3aedb9b9" x="50.002685" y="164.979186" style="stroke: #000000; stroke-width: 0.6"/>
      </g>
     </g>
    </g>
    <g id="ytick_18">
     <g id="line2d_24">
      <g>
       <use xlink:href="#m8c3aedb9b9" x="50.002685" y="158.244038" style="stroke: #000000; stroke-width: 0.6"/>
      </g>
     </g>
    </g>
    <g id="ytick_19">
     <g id="line2d_25">
      <g>
       <use xlink:href="#m8c3aedb9b9" x="50.002685" y="112.58324" style="stroke: #000000; stroke-width: 0.6"/>
      </g>
     </g>
    </g>
    <g id="ytick_20">
     <g id="line2d_26">
      <g>
       <use xlink:href="#m8c3aedb9b9" x="50.002685" y="89.397664" style="stroke: #000000; stroke-width: 0.6"/>
      </g>
     </g>
    </g>
    <g id="ytick_21">
     <g id="line2d_27">
      <g>
       <use xlink:href="#m8c3aedb9b9" x="50.002685" y="72.947236" style="stroke: #000000; stroke-width: 0.6"/>
      </g>
     </g>
    </g>
    <g id="ytick_22">
     <g id="line2d_28">
      <g>
       <use xlink:href="#m8c3aedb9b9" x="50.002685" y="60.187293" style="stroke: #000000; stroke-width: 0.6"/>
      </g>
     </g>
    </g>
    <g id="ytick_23">
     <g id="line2d_29">
      <g>
       <use xlink:href="#m8c3aedb9b9" x="50.002685" y="49.76166" style="stroke: #000000; stroke-width: 0.6"/>
      </g>
     </g>
    </g>
    <g id="text_10">
     <!-- Duration (ms) -->
     <g transform="translate(19.322997 250.62925) rotate(-90) scale(0.1 -0.1)">
      <defs>
       <path id="DejaVuSans-44" d="M 1259 4147 
L 1259 519 
L 2022 519 
Q 2988 519 3436 956 
Q 3884 1394 3884 2338 
Q 3884 3275 3436 3711 
Q 2988 4147 2022 4147 
L 1259 4147 
z
M 628 4666 
L 1925 4666 
Q 3281 4666 3915 4102 
Q 4550 3538 4550 2338 
Q 4550 1131 3912 565 
Q 3275 0 1925 0 
L 628 0 
L 628 4666 
z
" transform="scale(0.015625)"/>
       <path id="DejaVuSans-75" d="M 544 1381 
L 544 3500 
L 1119 3500 
L 1119 1403 
Q 1119 906 1312 657 
Q 1506 409 1894 409 
Q 2359 409 2629 706 
Q 2900 1003 2900 1516 
L 2900 3500 
L 3475 3500 
L 3475 0 
L 2900 0 
L 2900 538 
Q 2691 219 2414 64 
Q 2138 -91 1772 -91 
Q 1169 -91 856 284 
Q 544 659 544 1381 
z
M 1991 3584 
L 1991 3584 
z
" transform="scale(0.015625)"/>
       <path id="DejaVuSans-61" d="M 2194 1759 
Q 1497 1759 1228 1600 
Q 959 1441 959 1056 
Q 959 750 1161 570 
Q 1363 391 1709 391 
Q 2188 391 2477 730 
Q 2766 1069 2766 1631 
L 2766 1759 
L 2194 1759 
z
M 3341 1997 
L 3341 0 
L 2766 0 
L 2766 531 
Q 2569 213 2275 61 
Q 1981 -91 1556 -91 
Q 1019 -91 701 211 
Q 384 513 384 1019 
Q 384 1609 779 1909 
Q 1175 2209 1959 2209 
L 2766 2209 
L 2766 2266 
Q 2766 2663 2505 2880 
Q 2244 3097 1772 3097 
Q 1472 3097 1187 3025 
Q 903 2953 641 2809 
L 641 3341 
Q 956 3463 1253 3523 
Q 1550 3584 1831 3584 
Q 2591 3584 2966 3190 
Q 3341 2797 3341 1997 
z
" transform="scale(0.015625)"/>
       <path id="DejaVuSans-6f" d="M 1959 3097 
Q 1497 3097 1228 2736 
Q 959 2375 959 1747 
Q 959 1119 1226 758 
Q 1494 397 1959 397 
Q 2419 397 2687 759 
Q 2956 1122 2956 1747 
Q 2956 2369 2687 2733 
Q 2419 3097 1959 3097 
z
M 1959 3584 
Q 2709 3584 3137 3096 
Q 3566 2609 3566 1747 
Q 3566 888 3137 398 
Q 2709 -91 1959 -91 
Q 1206 -91 779 398 
Q 353 888 353 1747 
Q 353 2609 779 3096 
Q 1206 3584 1959 3584 
z
" transform="scale(0.015625)"/>
       <path id="DejaVuSans-6d" d="M 3328 2828 
Q 3544 3216 3844 3400 
Q 4144 3584 4550 3584 
Q 5097 3584 5394 3201 
Q 5691 2819 5691 2113 
L 5691 0 
L 5113 0 
L 5113 2094 
Q 5113 2597 4934 2840 
Q 4756 3084 4391 3084 
Q 3944 3084 3684 2787 
Q 3425 2491 3425 1978 
L 3425 0 
L 2847 0 
L 2847 2094 
Q 2847 2600 2669 2842 
Q 2491 3084 2119 3084 
Q 1678 3084 1418 2786 
Q 1159 2488 1159 1978 
L 1159 0 
L 581 0 
L 581 3500 
L 1159 3500 
L 1159 2956 
Q 1356 3278 1631 3431 
Q 1906 3584 2284 3584 
Q 2666 3584 2933 3390 
Q 3200 3197 3328 2828 
z
" transform="scale(0.015625)"/>
       <path id="DejaVuSans-73" d="M 2834 3397 
L 2834 2853 
Q 2591 2978 2328 3040 
Q 2066 3103 1784 3103 
Q 1356 3103 1142 2972 
Q 928 2841 928 2578 
Q 928 2378 1081 2264 
Q 1234 2150 1697 2047 
L 1894 2003 
Q 2506 1872 2764 1633 
Q 3022 1394 3022 966 
Q 3022 478 2636 193 
Q 2250 -91 1575 -91 
Q 1294 -91 989 -36 
Q 684 19 347 128 
L 347 722 
Q 666 556 975 473 
Q 1284 391 1588 391 
Q 1994 391 2212 530 
Q 2431 669 2431 922 
Q 2431 1156 2273 1281 
Q 2116 1406 1581 1522 
L 1381 1569 
Q 847 1681 609 1914 
Q 372 2147 372 2553 
Q 372 3047 722 3315 
Q 1072 3584 1716 3584 
Q 2034 3584 2315 3537 
Q 2597 3491 2834 3397 
z
" transform="scale(0.015625)"/>
      </defs>
      <use xlink:href="#DejaVuSans-44"/>
      <use xlink:href="#DejaVuSans-75" transform="translate(77.001953 0)"/>
      <use xlink:href="#DejaVuSans-72" transform="translate(140.380859 0)"/>
      <use xlink:href="#DejaVuSans-61" transform="translate(181.494141 0)"/>
      <use xlink:href="#DejaVuSans-74" transform="translate(242.773438 0)"/>
      <use xlink:href="#DejaVuSans-69" transform="translate(281.982422 0)"/>
      <use xlink:href="#DejaVuSans-6f" transform="translate(309.765625 0)"/>
      <use xlink:href="#DejaVuSans-6e" transform="translate(370.947266 0)"/>
      <use xlink:href="#DejaVuSans-20" transform="translate(434.326172 0)"/>
      <use xlink:href="#DejaVuSans-28" transform="translate(466.113281 0)"/>
      <use xlink:href="#DejaVuSans-6d" transform="translate(505.126953 0)"/>
      <use xlink:href="#DejaVuSans-73" transform="translate(602.539062 0)"/>
      <use xlink:href="#DejaVuSans-29" transform="translate(654.638672 0)"/>
     </g>
    </g>
   </g>
   <g id="line2d_30">
    <path d="M 86.511654 374.213455 
L 86.568375 374.205094 
L 86.795263 373.286057 
L 86.965428 372.972842 
L 87.02215 372.971495 
L 87.249037 372.519518 
L 87.305758 372.519386 
L 87.532646 372.181259 
L 87.759533 372.062932 
L 88.043141 371.842429 
L 88.553637 371.35109 
L 88.837246 370.807851 
L 89.177577 370.583392 
L 89.801516 370.362227 
L 91.276283 369.394104 
L 91.559891 369.275482 
L 91.956944 369.036008 
L 92.070387 368.912219 
L 92.297274 368.777853 
L 93.43171 368.339959 
L 93.601875 368.111626 
L 94.055649 368.017999 
L 94.452702 367.903681 
L 95.700581 367.520895 
L 96.211077 367.245471 
L 96.608129 367.107574 
L 98.253061 366.650042 
L 98.933722 366.46616 
L 99.217331 366.422385 
L 101.656367 365.898715 
L 102.223585 365.78939 
L 102.450472 365.691321 
L 108.292814 364.415479 
L 109.143641 364.294479 
L 109.654137 364.108948 
L 110.788572 363.928208 
L 111.185625 363.811253 
L 112.036451 363.706601 
L 112.773834 363.613676 
L 113.454496 363.480878 
L 114.2486 363.371033 
L 115.553201 363.219849 
L 118.38929 362.67674 
L 119.580447 362.469224 
L 119.807334 362.410967 
L 120.487995 362.317467 
L 121.452266 362.182245 
L 122.019483 362.112324 
L 122.87031 361.999366 
L 123.267362 361.911685 
L 123.664415 361.836137 
L 123.83458 361.740035 
L 126.103451 361.354362 
L 126.613947 361.252076 
L 127.010999 361.185744 
L 127.748382 361.01918 
L 128.485765 360.809398 
L 129.166427 360.669882 
L 129.450035 360.550539 
L 132.342846 359.787382 
L 132.739898 359.633426 
L 133.363838 359.512818 
L 133.647447 359.407949 
L 134.157943 359.279599 
L 137.220918 358.453479 
L 137.958301 358.350468 
L 138.298632 358.255823 
L 138.922571 358.094005 
L 139.83012 357.910438 
L 140.057007 357.802734 
L 140.397338 357.689878 
L 143.119983 356.569607 
L 143.34687 356.482648 
L 144.084253 356.223474 
L 144.254418 356.102083 
L 144.424583 356.044028 
L 144.878358 355.652171 
L 145.27541 355.485104 
L 145.899349 355.160409 
L 146.409845 354.928652 
L 146.636732 354.856203 
L 147.714446 354.3517 
L 148.281664 354.024433 
L 148.678716 353.7966 
L 149.359378 353.619415 
L 149.813152 353.380539 
L 150.210204 353.164232 
L 150.663978 352.763992 
L 151.174474 352.565938 
L 152.195466 351.72665 
L 152.819406 351.386868 
L 152.989571 351.234063 
L 154.350894 350.708663 
L 154.521059 350.566861 
L 156.16599 349.449856 
L 156.279434 349.32717 
L 157.413869 347.924885 
L 157.584035 347.62441 
L 157.697478 347.463718 
L 158.151252 347.094757 
L 158.378139 346.841901 
L 158.491583 346.832087 
L 158.661748 346.594855 
L 158.888635 346.378239 
L 159.058801 346.147753 
L 159.399131 345.834479 
L 159.569297 345.74474 
L 159.796184 345.212827 
L 159.909627 345.07944 
L 160.079793 344.651806 
L 160.136514 344.649753 
L 160.30668 344.434318 
L 160.476845 344.311092 
L 160.64701 344.192138 
L 160.703732 344.181091 
L 160.987341 343.697645 
L 161.214228 343.508942 
L 161.327672 343.271457 
L 161.668002 342.611316 
L 161.894889 342.467349 
L 162.065055 342.174124 
L 162.518829 341.901307 
L 162.688994 341.589482 
L 163.086047 341.146656 
L 163.142768 341.110034 
L 163.312934 340.784896 
L 163.483099 340.7114 
L 163.596542 340.637705 
L 163.766708 340.329101 
L 163.993595 339.923197 
L 164.107038 339.848083 
L 164.277204 339.433514 
L 164.390647 339.355242 
L 164.730978 338.95706 
L 164.957865 338.812225 
L 165.184752 338.636528 
L 165.298196 338.550834 
L 165.468361 338.279427 
L 165.75197 338.118685 
L 165.978857 337.825813 
L 166.205744 336.88049 
L 166.489353 336.757722 
L 166.546075 336.712188 
L 166.886405 335.902437 
L 167.056571 335.765572 
L 167.283458 335.499624 
L 167.396901 335.419097 
L 167.567067 335.00016 
L 167.793954 334.645552 
L 167.964119 334.390022 
L 168.020841 334.376122 
L 168.191006 333.861884 
L 168.361171 333.60668 
L 169.722494 331.215336 
L 169.892659 331.025642 
L 170.743486 329.792502 
L 170.856929 329.757987 
L 171.027095 329.050662 
L 171.083816 329.020936 
L 171.253982 328.545785 
L 171.594312 328.313395 
L 171.877921 328.10844 
L 171.934643 328.057554 
L 172.104808 327.682747 
L 172.501861 327.303723 
L 172.728748 326.993717 
L 172.78547 326.923015 
L 172.955635 326.543699 
L 173.1258 326.226749 
L 174.316957 324.835953 
L 174.543845 324.008457 
L 174.657288 323.794516 
L 175.621558 322.388326 
L 176.585828 321.402999 
L 176.755994 321.229658 
L 176.812715 321.180363 
L 177.153046 320.28436 
L 177.720264 319.552392 
L 177.833707 319.485269 
L 178.23076 318.875302 
L 179.19503 317.90314 
L 179.421917 317.688147 
L 179.762248 316.77243 
L 180.839961 315.483131 
L 181.010127 315.056753 
L 181.180292 314.909549 
L 181.293735 314.865832 
L 181.520623 314.581599 
L 182.598336 313.573908 
L 182.938667 313.385253 
L 183.562606 312.535277 
L 183.846215 312.162918 
L 184.980651 310.944719 
L 185.037372 310.938544 
L 185.26426 310.497813 
L 185.377703 310.387011 
L 185.60459 310.142927 
L 185.831477 309.935087 
L 186.115086 309.831269 
L 186.341973 309.780788 
L 186.512139 309.672833 
L 188.894453 308.403528 
L 189.064618 308.114731 
L 189.915445 307.762835 
L 190.312497 307.434276 
L 192.524646 306.416724 
L 192.63809 306.34427 
L 192.921699 306.136058 
L 193.942691 305.692938 
L 194.169578 305.574547 
L 194.509908 305.403563 
L 194.906961 305.222178 
L 195.077126 305.002456 
L 195.474179 304.872925 
L 195.757787 304.648022 
L 196.835501 304.168232 
L 197.11911 304.047957 
L 197.459441 303.87461 
L 199.04765 302.60729 
L 199.444703 302.45097 
L 200.01192 302.142257 
L 202.337513 300.743708 
L 202.677844 300.618323 
L 203.301783 300.468513 
L 203.471949 300.170626 
L 207.272307 297.813109 
L 207.555916 297.586832 
L 208.236577 297.287673 
L 208.406743 297.188519 
L 209.087404 296.940131 
L 210.108396 296.409112 
L 210.278561 296.232909 
L 210.56217 296.091978 
L 210.732335 295.830959 
L 211.015944 295.67757 
L 211.299553 295.392795 
L 211.980214 295.096577 
L 212.263823 294.900805 
L 212.377267 294.878392 
L 212.547432 294.718537 
L 212.774319 294.606231 
L 213.228093 294.428198 
L 213.454981 294.372888 
L 213.795311 294.086243 
L 214.135642 293.890135 
L 214.646138 293.520639 
L 215.553686 292.467305 
L 216.234347 292.082793 
L 216.404513 291.72704 
L 216.858287 291.46433 
L 217.028452 291.105493 
L 217.538948 290.625395 
L 217.936001 290.182225 
L 218.049444 290.082821 
L 218.389775 289.292397 
L 218.503218 289.183262 
L 218.843549 288.773483 
L 218.900271 288.772078 
L 219.070436 288.58065 
L 220.034706 287.590503 
L 220.375037 287.338046 
L 220.715367 287.176308 
L 220.998976 287.058266 
L 221.169142 286.877619 
L 221.622916 286.644394 
L 221.793081 286.304313 
L 222.530464 285.692208 
L 222.700629 285.458757 
L 222.984238 285.208594 
L 223.154404 285.131485 
L 223.438012 284.844295 
L 224.118674 284.460416 
L 224.345561 284.396272 
L 224.62917 284.242763 
L 225.309831 283.879975 
L 225.536718 283.769307 
L 227.238371 283.043327 
L 228.429528 282.524673 
L 228.713137 282.467622 
L 228.883303 282.33108 
L 229.337077 282.21405 
L 230.301347 281.821323 
L 230.698399 281.557199 
L 231.03873 281.455268 
L 231.492504 281.303215 
L 231.719391 281.189523 
L 233.080714 280.692387 
L 233.307601 280.615455 
L 233.59121 280.522986 
L 233.818097 280.472719 
L 234.385315 280.355898 
L 235.179419 280.100184 
L 235.633194 279.957753 
L 236.313855 279.82085 
L 239.320109 278.916353 
L 239.603718 278.80121 
L 240.738153 278.331102 
L 241.305371 278.075457 
L 241.58898 277.997242 
L 243.630963 277.427462 
L 249.756915 275.265901 
L 250.380854 275.183473 
L 250.721185 275.09055 
L 251.118237 274.980407 
L 251.458568 274.792759 
L 252.082508 274.617112 
L 252.47956 274.482684 
L 252.933334 274.337832 
L 253.784161 274.058356 
L 254.464822 273.94682 
L 254.805153 273.851006 
L 256.109753 273.500897 
L 256.506806 273.438999 
L 257.300911 273.187111 
L 257.641241 273.006022 
L 258.492068 272.848766 
L 258.832399 272.80676 
L 261.271435 272.424924 
L 262.178983 272.136967 
L 262.973088 272.005837 
L 263.143253 271.93529 
L 264.447854 271.762321 
L 265.582289 271.419071 
L 265.979342 271.282869 
L 266.092785 271.224928 
L 266.262951 271.099996 
L 267.057056 270.988047 
L 268.134769 270.727405 
L 268.418378 270.610779 
L 269.325926 270.374933 
L 270.573805 270.020995 
L 274.374164 269.157728 
L 275.338434 268.92454 
L 275.792208 268.844676 
L 276.302704 268.738358 
L 276.47287 268.62723 
L 279.082071 268.068743 
L 279.649289 267.868024 
L 281.350942 267.260689 
L 281.577829 267.072894 
L 281.974882 266.920567 
L 282.258491 266.776232 
L 282.825708 266.655663 
L 285.548353 265.773539 
L 285.718519 265.657879 
L 286.058849 265.522995 
L 286.285736 265.32107 
L 286.739511 265.157153 
L 287.476894 264.955107 
L 288.497886 264.603916 
L 288.668051 264.48917 
L 289.178547 264.432111 
L 289.405434 264.296453 
L 291.560861 263.528195 
L 291.731027 263.463231 
L 292.071357 263.385379 
L 292.581853 263.122339 
L 292.922184 263.010071 
L 293.149071 262.955024 
L 295.474664 261.982778 
L 295.814994 261.827114 
L 296.32549 261.624249 
L 296.779264 261.500911 
L 298.083865 260.923178 
L 298.367474 260.800555 
L 299.388466 260.448256 
L 299.615353 260.28939 
L 301.543893 259.231757 
L 301.77078 259.117698 
L 303.585877 258.40466 
L 303.926208 258.286711 
L 304.379982 258.077292 
L 305.117365 257.850633 
L 305.514417 257.724215 
L 305.968191 257.59288 
L 306.365244 257.474141 
L 306.87574 257.365867 
L 308.80428 256.920018 
L 309.031167 256.863896 
L 309.371498 256.791779 
L 309.938716 256.674981 
L 310.959707 256.549115 
L 311.35676 256.453563 
L 313.058413 256.231575 
L 313.625631 256.155063 
L 315.497449 255.925672 
L 315.894502 255.867091 
L 317.42599 255.659021 
L 319.241086 255.376425 
L 320.035191 255.264871 
L 321.453235 255.101594 
L 321.850288 255.035344 
L 326.501473 254.53498 
L 327.976239 254.413998 
L 329.394284 254.27494 
L 330.074945 254.13425 
L 334.612687 253.518967 
L 335.6904 253.389924 
L 343.518005 252.276537 
L 343.971779 252.219868 
L 345.162936 252.104397 
L 345.900319 252.023979 
L 350.72167 251.379119 
L 351.062001 251.342267 
L 352.026271 251.232272 
L 359.910597 249.925269 
L 361.158476 249.775225 
L 361.555529 249.719035 
L 365.072278 249.063105 
L 367.68148 248.767412 
L 368.589028 248.631046 
L 369.326411 248.504425 
L 372.275944 248.018886 
L 374.828423 247.625241 
L 375.112032 247.565369 
L 375.395641 247.454981 
L 376.813685 247.095485 
L 377.551068 246.970566 
L 377.777955 246.910536 
L 379.819939 246.490018 
L 380.557322 246.158045 
L 381.578314 245.926683 
L 381.861923 245.78979 
L 382.315697 245.657234 
L 382.656028 245.454555 
L 383.109802 245.360016 
L 383.279967 245.286743 
L 383.506854 245.197613 
L 383.960629 244.832792 
L 384.244238 244.689526 
L 384.414403 244.58112 
L 387.477379 243.757343 
L 387.647544 243.656791 
L 388.781979 243.501968 
L 389.632806 243.235308 
L 390.313467 243.047092 
L 390.483633 242.968503 
L 390.937407 242.803522 
L 391.221016 242.751528 
L 391.561346 242.621078 
L 391.731512 242.538126 
L 393.433165 242.043647 
L 394.113826 241.926491 
L 394.283991 241.792275 
L 395.078096 241.635903 
L 398.08435 241.040946 
L 398.367959 240.925044 
L 399.275507 240.673293 
L 399.502394 240.574667 
L 401.147326 240.144089 
L 401.544378 240.041857 
L 402.338483 239.798427 
L 403.472918 239.551246 
L 404.323745 239.362658 
L 404.947684 239.233333 
L 405.288015 239.090972 
L 405.911955 238.988095 
L 406.706059 238.82879 
L 406.932947 238.714624 
L 407.613608 238.567897 
L 407.897217 238.445996 
L 409.088374 238.329231 
L 410.166088 238.136871 
L 411.187079 237.987128 
L 411.413967 237.917111 
L 414.533664 237.317763 
L 414.930716 237.183366 
L 415.441212 237.067603 
L 416.121874 236.925167 
L 416.9727 236.795427 
L 419.922232 236.201331 
L 420.205841 236.15667 
L 420.886503 235.969289 
L 422.07766 235.791142 
L 422.815043 235.511051 
L 423.892757 235.328376 
L 424.119644 235.267865 
L 424.97047 235.107572 
L 425.254079 235.053693 
L 425.878019 234.890012 
L 426.104906 234.786774 
L 427.125898 234.519064 
L 427.352785 234.411238 
L 427.749837 234.212738 
L 428.373777 234.037623 
L 428.940994 233.739093 
L 429.508212 233.57063 
L 429.848543 233.470598 
L 430.302317 233.275356 
L 430.529204 233.065026 
L 430.812813 232.982917 
L 430.982978 232.802433 
L 431.266587 232.746711 
L 432.060692 232.445111 
L 432.287579 232.265563 
L 433.648901 231.833014 
L 433.93251 231.592053 
L 434.329563 231.493015 
L 434.726615 231.236882 
L 435.066946 231.105195 
L 435.577442 231.004744 
L 435.917772 230.878563 
L 439.491244 229.344869 
L 439.945018 229.253392 
L 440.398792 229.10206 
L 441.419784 228.918897 
L 441.873558 228.785486 
L 442.440776 228.717436 
L 442.667663 228.606195 
L 446.921796 228.05016 
L 449.530998 227.684432 
L 449.92805 227.622154 
L 455.259897 227.02491 
L 456.054002 226.985845 
L 456.848106 226.862507 
L 457.301881 226.824005 
L 461.44257 226.396391 
L 461.953066 226.307845 
L 465.92359 225.848749 
L 466.320642 225.799556 
L 467.284912 225.643015 
L 468.47607 225.502151 
L 470.40461 225.299089 
L 472.786924 224.99527 
L 474.602021 224.758141 
L 475.793178 224.628153 
L 477.835162 224.401103 
L 484.925384 223.602064 
L 485.662767 223.518925 
L 488.669021 223.146611 
L 490.030343 222.973364 
L 499.729766 221.817882 
L 500.183541 221.695063 
L 500.580593 221.588724 
L 502.055359 221.337697 
L 502.73602 221.256369 
L 503.35996 221.18996 
L 503.530125 221.085032 
L 503.983899 220.842854 
L 504.551117 220.717588 
L 505.004891 220.3036 
L 505.742274 220.045983 
L 505.91244 219.954838 
L 506.933431 219.733041 
L 507.160319 219.602816 
L 507.670815 219.491906 
L 510.450181 218.769559 
L 510.677068 218.712538 
L 513.059383 217.609231 
L 513.229548 217.393855 
L 513.683322 217.26417 
L 514.023653 217.162423 
L 514.193818 217.011151 
L 514.761036 216.897692 
L 515.044645 216.754021 
L 515.498419 216.555557 
L 515.895472 216.27947 
L 516.349246 216.149189 
L 516.859742 215.887815 
L 517.313516 215.645598 
L 517.597125 215.519956 
L 517.880734 215.366322 
L 518.221064 215.26254 
L 518.618117 215.139393 
L 519.298778 214.950756 
L 520.31977 214.568215 
L 521.057153 214.170551 
L 522.191588 213.459395 
L 522.815528 213.236092 
L 523.042415 212.939908 
L 523.893241 212.476696 
L 524.063407 212.396062 
L 524.290294 212.190514 
L 524.573903 212.104818 
L 524.80079 211.949026 
L 525.027677 211.794435 
L 525.481451 211.551436 
L 527.183104 210.468438 
L 527.636878 210.371032 
L 528.884757 209.986105 
L 529.28181 209.862087 
L 530.359524 209.528701 
L 532.79856 208.933644 
L 533.082169 208.84025 
L 534.7271 208.524149 
L 538.697624 207.88639 
L 538.924511 207.810486 
L 540.17239 207.648808 
L 545.901289 207.132604 
L 547.319333 207.044906 
L 558.266636 206.212225 
L 558.947297 206.156929 
L 561.159446 205.993334 
L 562.123716 205.940507 
L 564.1657 205.791504 
L 567.512285 205.509034 
L 568.930329 205.393923 
L 570.064764 205.290911 
L 570.405095 205.250589 
L 571.312643 205.159959 
L 572.276913 205.041475 
L 572.617244 204.997445 
L 576.077272 204.711809 
L 576.757933 204.64377 
L 581.182232 204.137415 
L 581.636006 204.049296 
L 582.430111 203.922946 
L 583.564546 203.357941 
L 583.904877 203.109828 
L 584.01832 203.065041 
L 584.188486 202.832053 
L 584.585538 202.385448 
L 584.98259 201.955641 
L 585.60653 201.322373 
L 586.457357 200.960713 
L 587.53507 200.374539 
L 587.591792 200.374359 
L 587.761957 200.194563 
L 587.988844 200.065657 
L 588.215731 199.878044 
L 589.46361 199.014553 
L 589.577054 198.934708 
L 589.974106 198.78183 
L 590.314437 198.671779 
L 590.938377 198.349187 
L 591.108542 198.237341 
L 592.186256 197.438922 
L 592.356421 197.15806 
L 592.923639 196.53607 
L 593.263969 196.460731 
L 593.490856 196.267502 
L 593.661022 196.154675 
L 594.001352 195.940061 
L 594.171518 195.900145 
L 594.455126 195.670524 
L 594.56857 195.564694 
L 594.795457 195.299543 
L 595.362675 194.985574 
L 597.518102 194.30482 
L 599.389921 193.975598 
L 601.545348 193.700699 
L 613.570364 192.867694 
L 616.236287 192.730964 
L 618.958932 192.583798 
L 626.729815 192.124929 
L 628.885242 191.986185 
L 630.0764 191.888359 
L 631.210835 191.771669 
L 632.572158 191.679935 
L 637.677117 191.215891 
L 638.4145 191.143326 
L 643.576181 190.332044 
L 643.973234 190.113737 
L 644.200121 189.975582 
L 644.427008 189.59704 
L 645.221113 188.824401 
L 645.391278 188.811129 
L 645.561443 188.632425 
L 645.788331 188.595113 
L 645.958496 188.169802 
L 646.185383 188.035474 
L 646.468992 187.752869 
L 646.866044 187.506491 
L 647.092931 187.214132 
L 647.37654 187.087303 
L 648.908028 186.181009 
L 649.134915 186.079854 
L 649.30508 185.952973 
L 649.475246 185.866996 
L 649.872298 185.643357 
L 650.099185 185.569385 
L 650.269351 185.399325 
L 650.836568 184.863596 
L 651.006734 184.713465 
L 651.460508 184.417666 
L 652.084447 184.116114 
L 652.254613 183.843813 
L 652.538221 183.638144 
L 652.708387 183.457563 
L 653.048717 183.226037 
L 653.218883 183.130137 
L 653.899544 182.939513 
L 655.260867 182.62658 
L 655.771363 182.51048 
L 657.643181 182.302503 
L 658.096955 182.265489 
L 660.933044 181.942192 
L 665.130455 181.694839 
L 667.569491 181.545102 
L 670.348858 181.363458 
L 671.086241 181.324708 
L 672.107233 181.206439 
L 673.241668 181.097966 
L 674.376104 180.997038 
L 676.247922 180.814993 
L 678.063019 180.56466 
L 678.913846 180.448785 
L 680.33189 180.325046 
L 683.338144 179.980006 
L 684.699467 179.818199 
L 685.323406 179.625295 
L 685.890624 179.511504 
L 686.174233 179.309057 
L 686.571285 179.242063 
L 686.74145 178.925304 
L 687.081781 178.639229 
L 687.36539 178.325539 
L 687.535555 178.223373 
L 687.70572 178.111221 
L 687.875886 177.802257 
L 687.932608 177.798914 
L 688.102773 177.516648 
L 689.067043 176.954463 
L 689.237208 176.787905 
L 690.031313 176.391065 
L 690.2582 176.298459 
L 690.485087 176.094057 
L 690.655253 176.056086 
L 690.825418 175.937922 
L 691.165749 175.852278 
L 692.300184 174.533642 
L 693.207732 173.899077 
L 693.377898 173.6285 
L 693.604785 173.452267 
L 693.945115 173.322546 
L 694.73922 173.160342 
L 695.136273 173.107504 
L 697.008091 172.815469 
L 698.539579 172.694216 
L 703.077321 172.301668 
L 704.608809 172.193371 
L 706.820958 172.000026 
L 708.522611 171.890891 
L 709.373438 171.861886 
L 714.478397 171.445437 
L 714.932171 171.377834 
L 720.717792 170.917561 
L 721.398453 170.870021 
L 724.858481 170.5629 
L 726.787022 169.918597 
L 727.070631 169.746333 
L 727.410961 169.627022 
L 727.467683 169.592439 
L 727.637848 169.23442 
L 728.545397 167.996987 
L 728.65884 167.920659 
L 729.112614 167.587022 
L 729.28278 167.402444 
L 729.452945 167.181355 
L 729.849997 166.844096 
L 730.473937 166.256207 
L 730.757546 166.1469 
L 730.814268 166.131295 
L 730.984433 165.985163 
L 731.097876 165.930978 
L 731.268042 165.258371 
L 732.005425 165.098986 
L 732.459199 164.975244 
L 733.593634 164.838116 
L 735.522175 164.644638 
L 737.961211 164.461229 
L 740.059916 164.238285 
L 741.251074 164.121982 
L 743.06617 163.940853 
L 744.200606 163.835066 
L 745.164876 163.689521 
L 746.356033 163.563135 
L 750.440001 163.090019 
L 751.574436 162.986895 
L 752.141654 162.947232 
L 753.61642 162.828431 
L 754.353803 162.753485 
L 755.147908 162.64494 
L 755.601682 162.523678 
L 755.771847 162.433158 
L 756.112178 161.839749 
L 756.282343 161.501532 
L 756.50923 161.267985 
L 756.849561 160.859187 
L 756.963005 160.753834 
L 757.13317 160.379144 
L 758.437771 159.333993 
L 758.551214 159.318171 
L 758.891545 158.40595 
L 759.004988 158.296329 
L 759.68565 157.810716 
L 760.479755 157.652371 
L 760.706642 157.576249 
L 761.330581 157.461049 
L 762.124686 157.354376 
L 763.656174 157.104288 
L 763.996504 157.055825 
L 766.322097 156.829164 
L 772.788379 155.960597 
L 774.319867 155.793607 
L 774.773641 155.689476 
L 774.943807 155.566972 
L 775.284137 154.820129 
L 775.567746 154.618732 
L 776.02152 154.341303 
L 776.191686 154.12969 
L 776.361851 154.041915 
L 776.588738 153.450738 
L 776.815625 153.337881 
L 776.98579 153.203792 
L 777.212677 153.174275 
L 777.382843 153.01 
L 777.60973 152.80234 
L 777.893339 152.423039 
L 778.120226 152.108794 
L 778.290391 151.929387 
L 778.347113 151.927957 
L 778.517278 151.735065 
L 778.630722 151.628371 
L 779.141218 151.409507 
L 779.424827 151.212097 
L 779.878601 151.108395 
L 782.487802 150.409421 
L 782.941576 150.260248 
L 785.153726 149.735199 
L 787.025544 149.517997 
L 787.592762 149.379805 
L 787.819649 149.184056 
L 787.876371 149.136575 
L 788.103258 148.473962 
L 788.330145 148.206286 
L 788.783919 147.053924 
L 788.954084 146.860055 
L 789.180971 145.95134 
L 789.407859 145.853044 
L 789.861633 145.637778 
L 790.145242 145.538735 
L 790.315407 145.477884 
L 791.393121 145.265052 
L 791.903617 145.161224 
L 792.243947 145.069392 
L 793.208217 144.828031 
L 793.435104 144.668613 
L 793.60527 144.490459 
L 793.832157 144.366018 
L 794.002322 144.288157 
L 794.342653 144.145193 
L 795.760697 143.934803 
L 796.214471 143.62295 
L 796.384637 143.263764 
L 796.49808 143.13436 
L 796.781689 142.811816 
L 796.951854 142.035891 
L 797.235463 141.545348 
L 797.292185 141.524636 
L 797.519072 141.040337 
L 797.859403 140.906743 
L 798.143012 140.573746 
L 799.504334 140.243547 
L 800.468604 140.082572 
L 800.63877 139.953066 
L 800.808935 139.852038 
L 801.092544 139.748263 
L 801.262709 139.727523 
L 801.489596 139.442621 
L 801.94337 139.301026 
L 802.624032 138.961188 
L 803.021084 138.905374 
L 803.361415 138.798344 
L 803.701745 138.332332 
L 803.985354 137.795653 
L 804.155519 137.520484 
L 804.439128 137.201347 
L 804.609294 136.856843 
L 804.666015 136.844008 
L 804.779459 136.11883 
L 804.836181 136.117071 
L 805.11979 135.536437 
L 805.46012 135.420612 
L 806.367669 134.965933 
L 806.537834 134.786974 
L 807.502104 134.198363 
L 807.842435 134.148164 
L 808.749983 131.322215 
L 808.863427 131.253131 
L 809.033592 131.12138 
L 809.770975 130.628797 
L 810.054584 130.462208 
L 810.281471 130.189551 
L 810.338193 130.17416 
L 810.508358 129.96695 
L 810.735245 129.829627 
L 811.075576 129.110201 
L 811.189019 129.031241 
L 811.359185 127.345974 
L 811.642793 127.236057 
L 811.812959 127.040483 
L 811.926402 126.933246 
L 812.096568 126.631886 
L 812.266733 126.309965 
L 812.49362 126.19063 
L 812.607064 126.13828 
L 812.890672 125.796152 
L 813.004116 125.454287 
L 813.174281 123.639445 
L 813.287725 123.43297 
L 813.344447 123.364326 
L 813.571334 122.460228 
L 813.911664 121.755402 
L 814.08183 119.813075 
L 814.195273 119.685414 
L 814.365438 118.742464 
L 814.42216 118.69834 
L 814.819213 107.862896 
L 814.989378 68.866838 
L 815.0461 68.841171 
L 815.272987 65.700293 
L 815.443152 63.394315 
L 815.726761 61.665944 
L 816.180535 60.993821 
L 816.407422 59.595429 
L 816.464144 59.514952 
L 816.691031 57.682545 
L 816.691031 57.682545 
" clip-path="url(#p23378c7521)" style="fill: none; stroke: #1f77b4; stroke-width: 1.5; stroke-linecap: square"/>
   </g>
   <g id="line2d_31">
    <path d="M 86.511654 373.088903 
L 87.444267 372.513348 
L 87.910573 370.366985 
L 88.843187 369.389337 
L 89.309493 369.377297 
L 89.7758 369.104036 
L 90.708413 368.223904 
L 92.573639 367.485528 
L 93.039946 367.454555 
L 93.972559 367.108865 
L 94.905172 367.082012 
L 95.371479 366.93402 
L 95.837785 366.633054 
L 98.635625 366.467922 
L 99.101931 366.020213 
L 99.568238 365.78865 
L 101.433464 365.636687 
L 102.832384 364.628764 
L 103.29869 364.497182 
L 105.163917 364.349146 
L 107.029143 363.855093 
L 107.961756 363.810966 
L 108.428063 363.57129 
L 110.759596 363.346545 
L 113.091129 362.926206 
L 114.956355 362.69383 
L 115.422661 362.50933 
L 117.754194 362.323758 
L 118.220501 362.0976 
L 118.686807 362.066306 
L 119.153114 361.907033 
L 119.619421 361.272114 
L 121.01834 361.150618 
L 121.484647 360.712546 
L 122.41726 360.314848 
L 124.282486 360.149832 
L 124.748793 359.574562 
L 125.2151 359.537923 
L 126.147713 359.053794 
L 126.614019 358.62474 
L 128.012939 358.493291 
L 128.479246 358.141921 
L 129.411859 357.995675 
L 129.878165 357.623397 
L 130.344472 356.433378 
L 131.277085 356.173012 
L 131.743392 355.540159 
L 133.142311 354.160261 
L 133.608618 353.961927 
L 134.541231 352.816299 
L 135.473844 352.712465 
L 135.940151 351.728487 
L 136.872764 350.290179 
L 137.339071 348.283436 
L 137.805377 347.955588 
L 138.271684 346.937934 
L 138.73799 346.492285 
L 139.670603 342.670329 
L 140.603217 340.013014 
L 141.069523 339.53331 
L 141.53583 338.758637 
L 142.002136 330.686287 
L 142.468443 328.906226 
L 143.401056 328.037111 
L 143.867363 327.819613 
L 144.799976 326.370441 
L 145.266282 326.062835 
L 145.732589 325.199033 
L 146.198895 323.779013 
L 146.665202 321.76461 
L 147.597815 320.136389 
L 148.064122 320.117718 
L 148.530428 319.452322 
L 148.996735 318.041425 
L 149.463042 317.793098 
L 149.929348 317.70634 
L 150.395655 317.501979 
L 150.861961 316.611415 
L 151.328268 316.008957 
L 152.260881 314.228344 
L 152.727188 314.198538 
L 153.193494 312.376545 
L 154.126107 312.038282 
L 154.592414 311.973802 
L 155.05872 310.866629 
L 155.525027 310.362087 
L 155.991334 309.638494 
L 156.45764 309.326344 
L 156.923947 309.302944 
L 157.390253 307.541419 
L 157.85656 306.407265 
L 158.322866 305.892233 
L 158.789173 304.972489 
L 159.25548 304.415662 
L 159.721786 304.192979 
L 160.188093 302.691936 
L 160.654399 302.304604 
L 161.120706 302.265849 
L 161.587013 301.899848 
L 162.053319 301.899215 
L 162.519626 301.371431 
L 162.985932 301.096635 
L 163.452239 300.006381 
L 163.918545 299.807558 
L 164.384852 299.753103 
L 164.851159 299.295135 
L 165.317465 299.148797 
L 165.783772 299.139448 
L 166.716385 298.612753 
L 167.182691 297.706913 
L 167.648998 297.689906 
L 168.581611 297.183806 
L 169.047918 297.147608 
L 169.980531 296.629821 
L 170.446837 295.580748 
L 170.913144 295.140195 
L 171.379451 294.944605 
L 172.312064 293.980673 
L 173.244677 293.859725 
L 174.17729 293.697452 
L 174.643597 293.329066 
L 177.441436 292.793865 
L 178.374049 291.278349 
L 180.705582 291.114386 
L 181.171889 290.852142 
L 182.104502 289.941016 
L 183.969728 289.449969 
L 185.368648 289.254016 
L 186.301261 289.098857 
L 186.767568 288.682093 
L 188.632794 288.368401 
L 189.565407 288.26788 
L 190.031714 288.068642 
L 190.49802 288.060544 
L 191.430633 287.81544 
L 192.829553 287.726261 
L 193.29586 287.489546 
L 194.228473 287.31754 
L 194.694779 287.11719 
L 196.560006 286.993296 
L 198.891539 286.714497 
L 199.357845 286.459692 
L 200.290458 286.259583 
L 200.756765 285.920034 
L 201.689378 285.788536 
L 202.621991 285.657161 
L 204.487218 284.670145 
L 204.953524 284.192184 
L 206.352444 283.813234 
L 206.81875 283.582797 
L 208.683977 283.440185 
L 210.082896 283.11098 
L 210.549203 282.697052 
L 211.01551 282.642642 
L 211.481816 282.426857 
L 211.948123 282.421482 
L 212.880736 282.167502 
L 213.347043 282.164914 
L 215.678575 281.550455 
L 216.611189 281.285665 
L 217.543802 281.043222 
L 218.476415 280.797174 
L 218.942721 280.556013 
L 219.409028 280.525739 
L 219.875335 280.33273 
L 222.206867 280.073727 
L 222.673174 279.990893 
L 223.139481 279.617189 
L 224.072094 279.606816 
L 224.5384 279.411747 
L 225.004707 279.396864 
L 225.93732 279.07763 
L 228.268853 278.939611 
L 228.73516 278.919521 
L 229.201466 278.515601 
L 231.532999 278.24131 
L 234.330838 278.158838 
L 234.797145 278.074753 
L 235.263452 277.162718 
L 235.729758 276.843384 
L 236.662371 276.735841 
L 237.594985 276.011047 
L 238.527598 275.940006 
L 238.993904 275.570785 
L 239.460211 275.569584 
L 240.859131 274.571262 
L 241.791744 274.45585 
L 242.25805 274.380874 
L 243.190663 274.04642 
L 244.123277 273.979595 
L 244.589583 273.701275 
L 245.988503 273.597773 
L 246.454809 273.070408 
L 246.921116 272.034462 
L 247.387423 271.928341 
L 247.853729 271.573101 
L 248.320036 271.556025 
L 248.786342 271.191677 
L 249.252649 271.025774 
L 249.718956 271.023111 
L 251.117875 269.912832 
L 251.584182 269.414792 
L 253.449408 268.587984 
L 254.848328 268.219538 
L 255.314634 267.399896 
L 255.780941 267.289217 
L 256.247248 266.811915 
L 257.179861 266.31674 
L 258.112474 265.386605 
L 258.57878 262.354972 
L 259.045087 260.460382 
L 259.511394 259.649924 
L 259.9777 259.436791 
L 260.444007 258.446183 
L 261.37662 258.145625 
L 261.842927 258.090149 
L 262.309233 257.865568 
L 262.77554 257.277123 
L 263.708153 256.989331 
L 264.174459 255.7943 
L 264.640766 255.375409 
L 265.573379 255.256126 
L 266.039686 254.96979 
L 266.505992 254.022762 
L 266.972299 253.433983 
L 267.438605 253.391212 
L 268.371219 253.122676 
L 269.770138 250.371088 
L 270.236445 248.787387 
L 270.702751 248.135369 
L 271.169058 248.102515 
L 271.635365 247.908515 
L 272.567978 247.752776 
L 273.034284 247.529617 
L 273.500591 247.528659 
L 273.966898 247.32352 
L 277.231044 247.157736 
L 277.69735 247.037646 
L 279.09627 246.969993 
L 279.562576 246.660139 
L 280.49519 246.561276 
L 283.293029 246.393534 
L 284.225642 246.1717 
L 284.691949 246.162937 
L 285.158255 245.903549 
L 287.489788 245.478 
L 287.956095 245.173431 
L 290.287628 244.70187 
L 290.753934 244.208215 
L 291.220241 244.067032 
L 291.686547 243.769733 
L 294.01808 243.189037 
L 294.484387 242.759791 
L 295.417 242.537316 
L 295.883307 242.484318 
L 296.81592 242.080578 
L 297.748533 241.810587 
L 299.613759 241.576884 
L 302.877905 241.354919 
L 304.743132 241.037443 
L 307.074664 240.873528 
L 308.939891 240.743729 
L 311.271424 240.617184 
L 315.001876 240.416103 
L 318.732329 240.298497 
L 319.664942 240.187839 
L 323.861701 240.007007 
L 327.592154 239.881304 
L 329.923687 239.758472 
L 360.233614 238.25935 
L 361.166227 238.126091 
L 361.632534 238.105193 
L 363.964067 237.423658 
L 365.362987 237.370317 
L 366.2956 236.724596 
L 366.761906 236.557466 
L 367.228213 236.525202 
L 368.160826 236.279509 
L 368.627133 235.826101 
L 369.559746 235.689265 
L 370.026052 235.154583 
L 371.424972 234.881346 
L 372.823892 234.359745 
L 375.621731 234.200425 
L 376.088038 234.197145 
L 376.554344 233.959995 
L 378.419571 233.847352 
L 381.683717 233.605896 
L 382.61633 233.494342 
L 387.279396 233.201902 
L 388.212009 233.105075 
L 388.678315 233.09395 
L 389.144622 232.761761 
L 390.543542 232.652581 
L 391.942461 232.568506 
L 393.807688 232.308621 
L 394.273994 232.038547 
L 395.672914 231.947274 
L 396.139221 231.711589 
L 396.605527 231.668564 
L 397.071834 229.313592 
L 397.53814 229.090614 
L 398.004447 229.084278 
L 401.7349 228.056449 
L 402.201206 227.700756 
L 402.667513 226.393914 
L 403.133819 225.601604 
L 406.397965 224.61495 
L 406.864272 224.526081 
L 407.330578 223.990964 
L 407.796885 222.237197 
L 408.729498 222.08582 
L 409.195805 221.547379 
L 411.993644 221.196702 
L 413.392564 221.067187 
L 415.25779 220.863431 
L 416.190403 220.717634 
L 424.583922 220.039886 
L 425.982842 219.893456 
L 426.449148 219.887157 
L 427.381761 219.731253 
L 435.77528 219.046849 
L 436.241586 218.74899 
L 437.174199 218.728843 
L 438.573119 218.47238 
L 439.972039 218.247853 
L 440.438345 217.487906 
L 442.303572 217.376274 
L 443.236185 217.248977 
L 445.567718 217.150571 
L 446.966638 216.943304 
L 447.432944 216.934797 
L 447.899251 216.750314 
L 450.230784 216.625851 
L 453.49493 216.378868 
L 456.759076 216.226425 
L 460.023222 215.89201 
L 470.748273 215.647285 
L 472.613499 215.54266 
L 477.742872 215.354597 
L 483.33855 215.110972 
L 484.73747 214.941664 
L 487.069003 214.63245 
L 487.53531 214.538866 
L 488.001616 213.969081 
L 488.934229 213.958099 
L 489.866843 213.700481 
L 490.333149 213.695251 
L 490.799456 213.39897 
L 507.586492 211.431111 
L 509.918025 211.278837 
L 511.316945 210.810801 
L 512.249558 210.627678 
L 512.715865 210.622442 
L 513.182171 209.682845 
L 515.047398 209.395016 
L 515.513704 209.257993 
L 515.980011 208.956352 
L 516.446317 208.814675 
L 516.912624 208.462278 
L 517.378931 207.852805 
L 517.845237 207.743451 
L 518.311544 206.373222 
L 518.77785 205.578071 
L 519.244157 204.500727 
L 519.710463 203.986545 
L 520.17677 203.928189 
L 520.643077 203.605988 
L 522.041996 203.508187 
L 522.508303 203.324607 
L 523.440916 203.205004 
L 526.705062 202.561365 
L 528.103982 202.383619 
L 529.502902 202.285363 
L 530.435515 202.024401 
L 531.834434 201.941045 
L 532.300741 201.461084 
L 533.233354 201.346573 
L 535.098581 200.651255 
L 535.564887 200.105476 
L 538.362727 199.943886 
L 541.626873 199.755013 
L 543.025792 199.646765 
L 545.823632 199.254714 
L 551.885617 199.058317 
L 553.284537 198.914491 
L 555.61607 198.788836 
L 557.481296 198.596587 
L 561.678055 198.471375 
L 562.144362 198.286069 
L 562.610669 198.285747 
L 563.076975 197.198549 
L 564.009588 196.726774 
L 569.138961 196.29188 
L 569.605267 195.996931 
L 571.004187 195.727072 
L 571.470494 195.339194 
L 572.403107 195.294364 
L 572.869413 194.76513 
L 573.33572 194.635555 
L 573.802026 194.632942 
L 574.268333 194.326894 
L 574.73464 194.306451 
L 575.200946 193.540775 
L 576.133559 193.453558 
L 576.599866 192.355827 
L 577.066172 191.935764 
L 577.532479 191.773613 
L 577.998786 191.768307 
L 578.465092 191.268419 
L 579.864012 190.95519 
L 580.330318 190.244085 
L 583.128158 189.615355 
L 583.594465 189.093872 
L 587.791224 188.556005 
L 590.589063 188.387973 
L 592.454289 188.229113 
L 592.920596 187.268894 
L 602.246728 186.614205 
L 618.567458 186.238113 
L 621.831604 185.983361 
L 623.230524 185.945551 
L 623.69683 185.806105 
L 624.629443 185.677618 
L 626.028363 185.397575 
L 626.49467 185.395887 
L 626.960976 185.070331 
L 628.359896 184.864669 
L 635.354495 184.159673 
L 636.287108 184.120425 
L 637.219721 184.006267 
L 640.483867 183.8108 
L 646.079546 183.478439 
L 647.012159 183.321971 
L 647.478466 182.924739 
L 647.944772 182.898198 
L 648.411079 182.603282 
L 648.877385 181.813047 
L 649.343692 179.96584 
L 650.276305 179.817716 
L 651.675225 179.633853 
L 652.141531 179.313696 
L 652.607838 179.168879 
L 653.540451 178.484496 
L 654.006758 178.196305 
L 656.33829 177.975056 
L 657.270904 177.814349 
L 658.669823 177.591887 
L 659.13613 177.549452 
L 659.602437 177.354894 
L 661.933969 177.121652 
L 662.866583 177.029728 
L 663.332889 177.005329 
L 663.799196 176.801284 
L 665.198115 176.671747 
L 665.664422 176.544773 
L 667.063342 176.443356 
L 671.726408 175.789097 
L 678.2547 175.286101 
L 679.187313 174.922867 
L 680.586232 174.684137 
L 681.518846 174.448537 
L 686.648218 173.870509 
L 687.580831 173.814063 
L 688.513444 173.647928 
L 694.57543 173.228878 
L 695.041736 173.217086 
L 695.508043 171.90853 
L 696.906963 171.74997 
L 697.373269 170.028824 
L 697.839576 169.829348 
L 698.305882 169.824668 
L 698.772189 169.254052 
L 706.233094 168.214272 
L 706.699401 167.955719 
L 707.165707 167.953049 
L 707.632014 167.674441 
L 709.030934 167.401817 
L 713.227693 167.199786 
L 727.683197 166.159672 
L 728.61581 165.998145 
L 729.548423 165.529412 
L 732.346262 165.301064 
L 732.812569 165.167665 
L 735.144102 165.040993 
L 735.610409 164.971686 
L 736.076715 164.179723 
L 739.807168 163.605546 
L 740.273474 163.131905 
L 740.739781 163.103374 
L 741.206087 162.02529 
L 742.605007 161.575098 
L 743.071314 161.536238 
L 743.53762 161.027105 
L 744.003927 160.992377 
L 744.470233 160.765317 
L 748.666993 160.281126 
L 749.133299 159.883722 
L 749.599606 159.687723 
L 750.998526 159.582155 
L 752.397445 159.328683 
L 754.728978 159.166426 
L 756.127898 159.109675 
L 757.060511 158.958889 
L 760.324657 158.731928 
L 763.122497 158.053556 
L 765.454029 157.945739 
L 767.319256 157.788645 
L 768.718175 157.658242 
L 769.184482 156.940261 
L 769.650789 156.859721 
L 770.117095 156.587221 
L 770.583402 155.308316 
L 771.982322 155.152537 
L 772.448628 153.87483 
L 773.381241 153.854158 
L 774.313854 153.616885 
L 774.780161 153.570655 
L 775.246468 152.683999 
L 776.179081 152.565467 
L 778.510614 152.378038 
L 778.97692 152.142616 
L 779.909533 152.127717 
L 780.37584 151.630369 
L 781.308453 151.524906 
L 782.241066 151.418145 
L 784.106293 151.064887 
L 785.038906 151.000419 
L 785.505212 149.834682 
L 785.971519 149.698128 
L 786.437825 149.18513 
L 787.836745 148.768569 
L 788.769358 148.001441 
L 789.235665 147.906476 
L 789.701971 147.681249 
L 790.168278 147.66427 
L 790.634585 147.531868 
L 791.100891 146.883532 
L 792.033504 146.761733 
L 792.499811 146.450911 
L 794.831344 146.277432 
L 796.230264 146.024597 
L 796.69657 145.977948 
L 797.162877 145.664345 
L 798.09549 145.626453 
L 798.561796 145.350563 
L 800.427023 145.226189 
L 800.893329 144.350391 
L 801.359636 144.239528 
L 801.825942 143.159516 
L 802.292249 143.159439 
L 802.758556 141.017214 
L 803.224862 140.943864 
L 803.691169 140.718309 
L 804.623782 140.675398 
L 806.489008 139.783777 
L 806.955315 139.782475 
L 807.421621 138.069529 
L 808.820541 138.003254 
L 810.219461 137.986749 
L 810.685767 137.220688 
L 811.152074 136.05614 
L 811.618381 135.893932 
L 812.084687 135.354205 
L 812.550994 134.999836 
L 813.0173 131.720082 
L 813.483607 131.720015 
L 813.949913 131.341548 
L 814.41622 129.94917 
L 814.882527 129.919405 
L 815.348833 127.247812 
L 815.81514 127.156831 
L 816.281446 123.988105 
L 816.281446 123.988105 
" clip-path="url(#p23378c7521)" style="fill: none; stroke: #ff7f0e; stroke-width: 1.5; stroke-linecap: square"/>
   </g>
   <g id="line2d_32">
    <path d="M 86.511654 327.703762 
L 88.408371 323.856531 
L 90.305088 323.819218 
L 92.201805 323.162708 
L 94.098522 323.097188 
L 95.995239 322.511949 
L 97.891956 322.427554 
L 99.788674 320.914845 
L 101.685391 320.573074 
L 103.582108 320.087261 
L 109.272259 319.459462 
L 111.168976 319.116874 
L 114.962411 317.748937 
L 116.859128 316.459525 
L 120.652562 315.237802 
L 122.549279 315.189196 
L 124.445996 307.011376 
L 130.136148 304.835934 
L 132.032865 302.084882 
L 133.929582 301.278067 
L 135.826299 299.112772 
L 137.723016 298.574231 
L 139.619734 298.550289 
L 143.413168 298.129376 
L 145.309885 297.821349 
L 147.206602 297.174012 
L 149.103319 296.21654 
L 151.000036 296.056582 
L 152.896754 295.346264 
L 154.793471 294.76588 
L 156.690188 294.577935 
L 158.586905 293.355032 
L 162.380339 293.138467 
L 164.277056 292.098701 
L 166.173774 290.46611 
L 168.070491 289.339801 
L 169.967208 288.850067 
L 171.863925 288.215298 
L 173.760642 287.353285 
L 177.554076 287.121419 
L 183.244228 285.600363 
L 185.140945 284.737206 
L 187.037662 284.307764 
L 188.934379 283.638267 
L 190.831096 283.124521 
L 192.727814 283.038795 
L 198.417965 281.825066 
L 200.314682 281.381511 
L 202.211399 281.266209 
L 204.108116 280.405316 
L 206.004834 279.209606 
L 209.798268 279.128685 
L 211.694985 277.900633 
L 213.591702 277.860665 
L 215.488419 277.414578 
L 217.385136 276.738506 
L 219.281854 275.24803 
L 224.972005 273.846519 
L 226.868722 273.002368 
L 228.765439 272.598094 
L 230.662156 271.610468 
L 232.558873 271.385454 
L 236.352308 270.686013 
L 240.145742 270.371399 
L 243.939176 270.138875 
L 245.835893 269.735655 
L 255.319479 268.746764 
L 257.216196 267.901088 
L 259.112913 267.437241 
L 261.009631 266.695203 
L 270.493216 265.890214 
L 272.389933 265.427273 
L 279.976802 264.969815 
L 281.873519 264.631782 
L 283.770236 263.189769 
L 285.666953 262.924146 
L 287.563671 262.804651 
L 289.460388 260.162435 
L 291.357105 260.011866 
L 293.253822 258.546335 
L 295.150539 257.894433 
L 298.943973 257.778604 
L 300.840691 257.13393 
L 302.737408 256.898691 
L 304.634125 256.455888 
L 306.530842 255.861732 
L 310.324276 255.673812 
L 314.117711 255.56886 
L 316.014428 254.966821 
L 317.911145 254.509196 
L 319.807862 254.414706 
L 321.704579 254.084663 
L 323.601296 252.547327 
L 325.498013 252.445189 
L 327.394731 252.090125 
L 329.291448 251.537733 
L 331.188165 251.501147 
L 334.981599 251.118584 
L 336.878316 249.467105 
L 338.775033 248.701663 
L 340.671751 247.201329 
L 342.568468 246.632622 
L 344.465185 246.38968 
L 346.361902 245.8792 
L 348.258619 245.537095 
L 350.155336 244.840133 
L 352.052053 243.807223 
L 353.948771 243.029887 
L 355.845488 242.975801 
L 357.742205 242.693985 
L 361.535639 242.535517 
L 363.432356 242.118734 
L 365.329073 241.50004 
L 371.019225 240.090189 
L 372.915942 239.974296 
L 374.812659 239.651083 
L 376.709376 239.619289 
L 378.606093 239.273165 
L 380.50281 237.954323 
L 382.399528 237.493131 
L 388.089679 237.197365 
L 391.883113 234.819917 
L 393.77983 233.209784 
L 395.676548 232.396298 
L 397.573265 230.714836 
L 399.469982 230.560174 
L 403.263416 229.018695 
L 407.05685 228.607886 
L 408.953568 228.225396 
L 412.747002 228.07988 
L 420.33387 227.367468 
L 422.230588 227.331729 
L 424.127305 226.974172 
L 426.024022 226.42341 
L 431.714173 225.636571 
L 433.61089 223.788032 
L 435.507608 223.185773 
L 437.404325 222.038382 
L 439.301042 221.714251 
L 441.197759 221.02164 
L 443.094476 220.007858 
L 444.991193 219.830662 
L 446.88791 218.84378 
L 448.784628 218.403641 
L 450.681345 218.248172 
L 452.578062 218.24301 
L 456.371496 217.870543 
L 460.16493 217.588741 
L 462.061648 215.435213 
L 463.958365 215.351725 
L 465.855082 214.377564 
L 467.751799 213.583588 
L 469.648516 213.245342 
L 471.545233 213.153444 
L 473.44195 212.837666 
L 475.338668 212.168876 
L 477.235385 210.636932 
L 479.132102 210.227847 
L 481.028819 209.179101 
L 482.925536 209.175237 
L 484.822253 208.837596 
L 486.71897 208.378208 
L 488.615688 208.376562 
L 490.512405 208.235246 
L 492.409122 208.227755 
L 494.305839 207.491561 
L 498.099273 207.375996 
L 499.99599 206.03233 
L 501.892708 205.613916 
L 503.789425 205.593241 
L 505.686142 205.442477 
L 507.582859 204.783665 
L 509.479576 203.992439 
L 511.376293 202.999958 
L 513.27301 202.996592 
L 515.169727 202.526798 
L 517.066445 202.408558 
L 518.963162 202.407864 
L 520.859879 202.206307 
L 524.653313 201.216683 
L 526.55003 201.201744 
L 528.446747 200.524213 
L 532.240182 199.893919 
L 534.136899 199.833536 
L 536.033616 199.612654 
L 537.930333 199.06735 
L 539.82705 198.360741 
L 541.723767 196.759456 
L 543.620485 196.534878 
L 545.517202 195.982454 
L 547.413919 195.151669 
L 549.310636 194.898073 
L 551.207353 194.266828 
L 558.794222 194.078255 
L 566.38109 193.902293 
L 570.174525 193.57903 
L 585.348262 193.243989 
L 587.244979 193.001788 
L 589.141696 192.129501 
L 592.93513 191.946134 
L 594.831847 191.734202 
L 596.728565 191.10183 
L 598.625282 190.652623 
L 600.521999 190.557332 
L 602.418716 190.274043 
L 604.315433 189.866711 
L 606.21215 189.730315 
L 608.108867 189.725919 
L 610.005585 189.506011 
L 617.592453 189.085124 
L 623.282605 188.287014 
L 627.076039 187.720071 
L 628.972756 187.555661 
L 630.869473 187.141329 
L 634.662907 187.04004 
L 636.559625 186.346649 
L 638.456342 186.131339 
L 642.249776 185.189843 
L 644.146493 184.351287 
L 646.04321 183.904047 
L 647.939927 183.2006 
L 653.630079 183.082784 
L 661.216947 182.74827 
L 663.113664 182.33761 
L 668.803816 182.148981 
L 670.700533 181.930017 
L 672.59725 180.583905 
L 674.493967 179.932611 
L 678.287402 179.759146 
L 680.184119 178.963514 
L 683.977553 177.999601 
L 685.87427 177.896747 
L 687.770987 177.395923 
L 691.564422 177.035933 
L 693.461139 174.757872 
L 695.357856 173.822938 
L 699.15129 173.64801 
L 701.048007 173.350093 
L 706.738159 173.051415 
L 708.634876 172.576047 
L 710.531593 171.575987 
L 712.42831 171.357146 
L 714.325027 170.236552 
L 716.221744 169.564958 
L 721.911896 168.1785 
L 725.70533 168.071305 
L 727.602047 167.990351 
L 729.498764 166.096005 
L 733.292199 165.552564 
L 735.188916 165.513785 
L 737.085633 165.32817 
L 740.879067 165.201818 
L 742.775784 164.971631 
L 744.672502 163.343332 
L 746.569219 162.347904 
L 750.362653 160.773858 
L 752.25937 160.340723 
L 754.156087 159.535839 
L 756.052804 159.471364 
L 757.949522 158.568892 
L 761.742956 158.414213 
L 763.639673 158.059813 
L 767.433107 157.614455 
L 769.329824 157.11682 
L 771.226542 155.768691 
L 773.123259 155.34823 
L 775.019976 151.9913 
L 776.916693 151.625221 
L 782.606844 151.367755 
L 786.400279 150.399414 
L 788.296996 146.993557 
L 792.09043 144.932426 
L 795.883864 144.917205 
L 797.780581 144.030364 
L 799.677299 141.594698 
L 801.574016 140.868683 
L 803.470733 137.510139 
L 805.36745 137.051183 
L 807.264167 135.974959 
L 809.160884 133.11389 
L 811.057601 132.726465 
L 814.851036 131.605557 
L 814.851036 131.605557 
" clip-path="url(#p23378c7521)" style="fill: none; stroke: #2ca02c; stroke-width: 1.5; stroke-linecap: square"/>
   </g>
   <g id="patch_3">
    <path d="M 50.002685 390.04 
L 50.002685 41.856 
" style="fill: none; stroke: #000000; stroke-width: 0.8; stroke-linejoin: miter; stroke-linecap: square"/>
   </g>
   <g id="patch_4">
    <path d="M 853.2 390.04 
L 853.2 41.856 
" style="fill: none; stroke: #000000; stroke-width: 0.8; stroke-linejoin: miter; stroke-linecap: square"/>
   </g>
   <g id="patch_5">
    <path d="M 50.002685 390.04 
L 853.2 390.04 
" style="fill: none; stroke: #000000; stroke-width: 0.8; stroke-linejoin: miter; stroke-linecap: square"/>
   </g>
   <g id="patch_6">
    <path d="M 50.002685 41.856 
L 853.2 41.856 
" style="fill: none; stroke: #000000; stroke-width: 0.8; stroke-linejoin: miter; stroke-linecap: square"/>
   </g>
   <g id="text_11">
    <!-- HTTP Request Duration Percentiles -->
    <g transform="translate(347.37478 22.355625) scale(0.12 -0.12)">
     <defs>
      <path id="DejaVuSans-48" d="M 628 4666 
L 1259 4666 
L 1259 2753 
L 3553 2753 
L 3553 4666 
L 4184 4666 
L 4184 0 
L 3553 0 
L 3553 2222 
L 1259 2222 
L 1259 0 
L 628 0 
L 628 4666 
z
" transform="scale(0.015625)"/>
      <path id="DejaVuSans-54" d="M -19 4666 
L 3928 4666 
L 3928 4134 
L 2272 4134 
L 2272 0 
L 1638 0 
L 1638 4134 
L -19 4134 
L -19 4666 
z
" transform="scale(0.015625)"/>
      <path id="DejaVuSans-52" d="M 2841 2188 
Q 3044 2119 3236 1894 
Q 3428 1669 3622 1275 
L 4263 0 
L 3584 0 
L 2988 1197 
Q 2756 1666 2539 1819 
Q 2322 1972 1947 1972 
L 1259 1972 
L 1259 0 
L 628 0 
L 628 4666 
L 2053 4666 
Q 2853 4666 3247 4331 
Q 3641 3997 3641 3322 
Q 3641 2881 3436 2590 
Q 3231 2300 2841 2188 
z
M 1259 4147 
L 1259 2491 
L 2053 2491 
Q 2509 2491 2742 2702 
Q 2975 2913 2975 3322 
Q 2975 3731 2742 3939 
Q 2509 4147 2053 4147 
L 1259 4147 
z
" transform="scale(0.015625)"/>
      <path id="DejaVuSans-71" d="M 947 1747 
Q 947 1113 1208 752 
Q 1469 391 1925 391 
Q 2381 391 2643 752 
Q 2906 1113 2906 1747 
Q 2906 2381 2643 2742 
Q 2381 3103 1925 3103 
Q 1469 3103 1208 2742 
Q 947 2381 947 1747 
z
M 2906 525 
Q 2725 213 2448 61 
Q 2172 -91 1784 -91 
Q 1150 -91 751 415 
Q 353 922 353 1747 
Q 353 2572 751 3078 
Q 1150 3584 1784 3584 
Q 2172 3584 2448 3432 
Q 2725 3281 2906 2969 
L 2906 3500 
L 3481 3500 
L 3481 -1331 
L 2906 -1331 
L 2906 525 
z
" transform="scale(0.015625)"/>
     </defs>
     <use xlink:href="#DejaVuSans-48"/>
     <use xlink:href="#DejaVuSans-54" transform="translate(75.195312 0)"/>
     <use xlink:href="#DejaVuSans-54" transform="translate(134.529297 0)"/>
     <use xlink:href="#DejaVuSans-50" transform="translate(195.613281 0)"/>
     <use xlink:href="#DejaVuSans-20" transform="translate(255.916016 0)"/>
     <use xlink:href="#DejaVuSans-52" transform="translate(287.703125 0)"/>
     <use xlink:href="#DejaVuSans-65" transform="translate(352.685547 0)"/>
     <use xlink:href="#DejaVuSans-71" transform="translate(414.208984 0)"/>
     <use xlink:href="#DejaVuSans-75" transform="translate(477.685547 0)"/>
     <use xlink:href="#DejaVuSans-65" transform="translate(541.064453 0)"/>
     <use xlink:href="#DejaVuSans-73" transform="translate(602.587891 0)"/>
     <use xlink:href="#DejaVuSans-74" transform="translate(654.6875 0)"/>
     <use xlink:href="#DejaVuSans-20" transform="translate(693.896484 0)"/>
     <use xlink:href="#DejaVuSans-44" transform="translate(725.683594 0)"/>
     <use xlink:href="#DejaVuSans-75" transform="translate(802.685547 0)"/>
     <use xlink:href="#DejaVuSans-72" transform="translate(866.064453 0)"/>
     <use xlink:href="#DejaVuSans-61" transform="translate(907.177734 0)"/>
     <use xlink:href="#DejaVuSans-74" transform="translate(968.457031 0)"/>
     <use xlink:href="#DejaVuSans-69" transform="translate(1007.666016 0)"/>
     <use xlink:href="#DejaVuSans-6f" transform="translate(1035.449219 0)"/>
     <use xlink:href="#DejaVuSans-6e" transform="translate(1096.630859 0)"/>
     <use xlink:href="#DejaVuSans-20" transform="translate(1160.009766 0)"/>
     <use xlink:href="#DejaVuSans-50" transform="translate(1191.796875 0)"/>
     <use xlink:href="#DejaVuSans-65" transform="translate(1248.474609 0)"/>
     <use xlink:href="#DejaVuSans-72" transform="translate(1309.998047 0)"/>
     <use xlink:href="#DejaVuSans-63" transform="translate(1348.861328 0)"/>
     <use xlink:href="#DejaVuSans-65" transform="translate(1403.841797 0)"/>
     <use xlink:href="#DejaVuSans-6e" transform="translate(1465.365234 0)"/>
     <use xlink:href="#DejaVuSans-74" transform="translate(1528.744141 0)"/>
     <use xlink:href="#DejaVuSans-69" transform="translate(1567.953125 0)"/>
     <use xlink:href="#DejaVuSans-6c" transform="translate(1595.736328 0)"/>
     <use xlink:href="#DejaVuSans-65" transform="translate(1623.519531 0)"/>
     <use xlink:href="#DejaVuSans-73" transform="translate(1685.042969 0)"/>
    </g>
    <!-- Test: breakpoint | Endpoint: PostWaypoint -->
    <g transform="translate(326.47603 35.856) scale(0.12 -0.12)">
     <defs>
      <path id="DejaVuSans-3a" d="M 750 794 
L 1409 794 
L 1409 0 
L 750 0 
L 750 794 
z
M 750 3309 
L 1409 3309 
L 1409 2516 
L 750 2516 
L 750 3309 
z
" transform="scale(0.015625)"/>
      <path id="DejaVuSans-62" d="M 3116 1747 
Q 3116 2381 2855 2742 
Q 2594 3103 2138 3103 
Q 1681 3103 1420 2742 
Q 1159 2381 1159 1747 
Q 1159 1113 1420 752 
Q 1681 391 2138 391 
Q 2594 391 2855 752 
Q 3116 1113 3116 1747 
z
M 1159 2969 
Q 1341 3281 1617 3432 
Q 1894 3584 2278 3584 
Q 2916 3584 3314 3078 
Q 3713 2572 3713 1747 
Q 3713 922 3314 415 
Q 2916 -91 2278 -91 
Q 1894 -91 1617 61 
Q 1341 213 1159 525 
L 1159 0 
L 581 0 
L 581 4863 
L 1159 4863 
L 1159 2969 
z
" transform="scale(0.015625)"/>
      <path id="DejaVuSans-6b" d="M 581 4863 
L 1159 4863 
L 1159 1991 
L 2875 3500 
L 3609 3500 
L 1753 1863 
L 3688 0 
L 2938 0 
L 1159 1709 
L 1159 0 
L 581 0 
L 581 4863 
z
" transform="scale(0.015625)"/>
      <path id="DejaVuSans-70" d="M 1159 525 
L 1159 -1331 
L 581 -1331 
L 581 3500 
L 1159 3500 
L 1159 2969 
Q 1341 3281 1617 3432 
Q 1894 3584 2278 3584 
Q 2916 3584 3314 3078 
Q 3713 2572 3713 1747 
Q 3713 922 3314 415 
Q 2916 -91 2278 -91 
Q 1894 -91 1617 61 
Q 1341 213 1159 525 
z
M 3116 1747 
Q 3116 2381 2855 2742 
Q 2594 3103 2138 3103 
Q 1681 3103 1420 2742 
Q 1159 2381 1159 1747 
Q 1159 1113 1420 752 
Q 1681 391 2138 391 
Q 2594 391 2855 752 
Q 3116 1113 3116 1747 
z
" transform="scale(0.015625)"/>
      <path id="DejaVuSans-7c" d="M 1344 4891 
L 1344 -1509 
L 813 -1509 
L 813 4891 
L 1344 4891 
z
" transform="scale(0.015625)"/>
      <path id="DejaVuSans-45" d="M 628 4666 
L 3578 4666 
L 3578 4134 
L 1259 4134 
L 1259 2753 
L 3481 2753 
L 3481 2222 
L 1259 2222 
L 1259 531 
L 3634 531 
L 3634 0 
L 628 0 
L 628 4666 
z
" transform="scale(0.015625)"/>
      <path id="DejaVuSans-64" d="M 2906 2969 
L 2906 4863 
L 3481 4863 
L 3481 0 
L 2906 0 
L 2906 525 
Q 2725 213 2448 61 
Q 2172 -91 1784 -91 
Q 1150 -91 751 415 
Q 353 922 353 1747 
Q 353 2572 751 3078 
Q 1150 3584 1784 3584 
Q 2172 3584 2448 3432 
Q 2725 3281 2906 2969 
z
M 947 1747 
Q 947 1113 1208 752 
Q 1469 391 1925 391 
Q 2381 391 2643 752 
Q 2906 1113 2906 1747 
Q 2906 2381 2643 2742 
Q 2381 3103 1925 3103 
Q 1469 3103 1208 2742 
Q 947 2381 947 1747 
z
" transform="scale(0.015625)"/>
      <path id="DejaVuSans-57" d="M 213 4666 
L 850 4666 
L 1831 722 
L 2809 4666 
L 3519 4666 
L 4500 722 
L 5478 4666 
L 6119 4666 
L 4947 0 
L 4153 0 
L 3169 4050 
L 2175 0 
L 1381 0 
L 213 4666 
z
" transform="scale(0.015625)"/>
      <path id="DejaVuSans-79" d="M 2059 -325 
Q 1816 -950 1584 -1140 
Q 1353 -1331 966 -1331 
L 506 -1331 
L 506 -850 
L 844 -850 
Q 1081 -850 1212 -737 
Q 1344 -625 1503 -206 
L 1606 56 
L 191 3500 
L 800 3500 
L 1894 763 
L 2988 3500 
L 3597 3500 
L 2059 -325 
z
" transform="scale(0.015625)"/>
     </defs>
     <use xlink:href="#DejaVuSans-54"/>
     <use xlink:href="#DejaVuSans-65" transform="translate(44.083984 0)"/>
     <use xlink:href="#DejaVuSans-73" transform="translate(105.607422 0)"/>
     <use xlink:href="#DejaVuSans-74" transform="translate(157.707031 0)"/>
     <use xlink:href="#DejaVuSans-3a" transform="translate(196.916016 0)"/>
     <use xlink:href="#DejaVuSans-20" transform="translate(230.607422 0)"/>
     <use xlink:href="#DejaVuSans-62" transform="translate(262.394531 0)"/>
     <use xlink:href="#DejaVuSans-72" transform="translate(325.871094 0)"/>
     <use xlink:href="#DejaVuSans-65" transform="translate(364.734375 0)"/>
     <use xlink:href="#DejaVuSans-61" transform="translate(426.257812 0)"/>
     <use xlink:href="#DejaVuSans-6b" transform="translate(487.537109 0)"/>
     <use xlink:href="#DejaVuSans-70" transform="translate(545.447266 0)"/>
     <use xlink:href="#DejaVuSans-6f" transform="translate(608.923828 0)"/>
     <use xlink:href="#DejaVuSans-69" transform="translate(670.105469 0)"/>
     <use xlink:href="#DejaVuSans-6e" transform="translate(697.888672 0)"/>
     <use xlink:href="#DejaVuSans-74" transform="translate(761.267578 0)"/>
     <use xlink:href="#DejaVuSans-20" transform="translate(800.476562 0)"/>
     <use xlink:href="#DejaVuSans-7c" transform="translate(832.263672 0)"/>
     <use xlink:href="#DejaVuSans-20" transform="translate(865.955078 0)"/>
     <use xlink:href="#DejaVuSans-45" transform="translate(897.742188 0)"/>
     <use xlink:href="#DejaVuSans-6e" transform="translate(960.925781 0)"/>
     <use xlink:href="#DejaVuSans-64" transform="translate(1024.304688 0)"/>
     <use xlink:href="#DejaVuSans-70" transform="translate(1087.78125 0)"/>
     <use xlink:href="#DejaVuSans-6f" transform="translate(1151.257812 0)"/>
     <use xlink:href="#DejaVuSans-69" transform="translate(1212.439453 0)"/>
     <use xlink:href="#DejaVuSans-6e" transform="translate(1240.222656 0)"/>
     <use xlink:href="#DejaVuSans-74" transform="translate(1303.601562 0)"/>
     <use xlink:href="#DejaVuSans-3a" transform="translate(1342.810547 0)"/>
     <use xlink:href="#DejaVuSans-20" transform="translate(1376.501953 0)"/>
     <use xlink:href="#DejaVuSans-50" transform="translate(1408.289062 0)"/>
     <use xlink:href="#DejaVuSans-6f" transform="translate(1464.966797 0)"/>
     <use xlink:href="#DejaVuSans-73" transform="translate(1526.148438 0)"/>
     <use xlink:href="#DejaVuSans-74" transform="translate(1578.248047 0)"/>
     <use xlink:href="#DejaVuSans-57" transform="translate(1617.457031 0)"/>
     <use xlink:href="#DejaVuSans-61" transform="translate(1709.958984 0)"/>
     <use xlink:href="#DejaVuSans-79" transform="translate(1771.238281 0)"/>
     <use xlink:href="#DejaVuSans-70" transform="translate(1830.417969 0)"/>
     <use xlink:href="#DejaVuSans-6f" transform="translate(1893.894531 0)"/>
     <use xlink:href="#DejaVuSans-69" transform="translate(1955.076172 0)"/>
     <use xlink:href="#DejaVuSans-6e" transform="translate(1982.859375 0)"/>
     <use xlink:href="#DejaVuSans-74" transform="translate(2046.238281 0)"/>
    </g>
   </g>
   <g id="legend_1">
    <g id="patch_7">
     <path d="M 57.002685 93.890375 
L 190.346435 93.890375 
Q 192.346435 93.890375 192.346435 91.890375 
L 192.346435 48.856 
Q 192.346435 46.856 190.346435 46.856 
L 57.002685 46.856 
Q 55.002685 46.856 55.002685 48.856 
L 55.002685 91.890375 
Q 55.002685 93.890375 57.002685 93.890375 
z
" style="fill: #ffffff; opacity: 0.8; stroke: #cccccc; stroke-linejoin: miter"/>
    </g>
    <g id="line2d_33">
     <path d="M 59.002685 54.954437 
L 69.002685 54.954437 
L 79.002685 54.954437 
" style="fill: none; stroke: #1f77b4; stroke-width: 1.5; stroke-linecap: square"/>
    </g>
    <g id="text_12">
     <!-- Single Large Results -->
     <g transform="translate(87.002685 58.454437) scale(0.1 -0.1)">
      <defs>
       <path id="DejaVuSans-53" d="M 3425 4513 
L 3425 3897 
Q 3066 4069 2747 4153 
Q 2428 4238 2131 4238 
Q 1616 4238 1336 4038 
Q 1056 3838 1056 3469 
Q 1056 3159 1242 3001 
Q 1428 2844 1947 2747 
L 2328 2669 
Q 3034 2534 3370 2195 
Q 3706 1856 3706 1288 
Q 3706 609 3251 259 
Q 2797 -91 1919 -91 
Q 1588 -91 1214 -16 
Q 841 59 441 206 
L 441 856 
Q 825 641 1194 531 
Q 1563 422 1919 422 
Q 2459 422 2753 634 
Q 3047 847 3047 1241 
Q 3047 1584 2836 1778 
Q 2625 1972 2144 2069 
L 1759 2144 
Q 1053 2284 737 2584 
Q 422 2884 422 3419 
Q 422 4038 858 4394 
Q 1294 4750 2059 4750 
Q 2388 4750 2728 4690 
Q 3069 4631 3425 4513 
z
" transform="scale(0.015625)"/>
       <path id="DejaVuSans-67" d="M 2906 1791 
Q 2906 2416 2648 2759 
Q 2391 3103 1925 3103 
Q 1463 3103 1205 2759 
Q 947 2416 947 1791 
Q 947 1169 1205 825 
Q 1463 481 1925 481 
Q 2391 481 2648 825 
Q 2906 1169 2906 1791 
z
M 3481 434 
Q 3481 -459 3084 -895 
Q 2688 -1331 1869 -1331 
Q 1566 -1331 1297 -1286 
Q 1028 -1241 775 -1147 
L 775 -588 
Q 1028 -725 1275 -790 
Q 1522 -856 1778 -856 
Q 2344 -856 2625 -561 
Q 2906 -266 2906 331 
L 2906 616 
Q 2728 306 2450 153 
Q 2172 0 1784 0 
Q 1141 0 747 490 
Q 353 981 353 1791 
Q 353 2603 747 3093 
Q 1141 3584 1784 3584 
Q 2172 3584 2450 3431 
Q 2728 3278 2906 2969 
L 2906 3500 
L 3481 3500 
L 3481 434 
z
" transform="scale(0.015625)"/>
       <path id="DejaVuSans-4c" d="M 628 4666 
L 1259 4666 
L 1259 531 
L 3531 531 
L 3531 0 
L 628 0 
L 628 4666 
z
" transform="scale(0.015625)"/>
      </defs>
      <use xlink:href="#DejaVuSans-53"/>
      <use xlink:href="#DejaVuSans-69" transform="translate(63.476562 0)"/>
      <use xlink:href="#DejaVuSans-6e" transform="translate(91.259766 0)"/>
      <use xlink:href="#DejaVuSans-67" transform="translate(154.638672 0)"/>
      <use xlink:href="#DejaVuSans-6c" transform="translate(218.115234 0)"/>
      <use xlink:href="#DejaVuSans-65" transform="translate(245.898438 0)"/>
      <use xlink:href="#DejaVuSans-20" transform="translate(307.421875 0)"/>
      <use xlink:href="#DejaVuSans-4c" transform="translate(339.208984 0)"/>
      <use xlink:href="#DejaVuSans-61" transform="translate(394.921875 0)"/>
      <use xlink:href="#DejaVuSans-72" transform="translate(456.201172 0)"/>
      <use xlink:href="#DejaVuSans-67" transform="translate(495.564453 0)"/>
      <use xlink:href="#DejaVuSans-65" transform="translate(559.041016 0)"/>
      <use xlink:href="#DejaVuSans-20" transform="translate(620.564453 0)"/>
      <use xlink:href="#DejaVuSans-52" transform="translate(652.351562 0)"/>
      <use xlink:href="#DejaVuSans-65" transform="translate(717.333984 0)"/>
      <use xlink:href="#DejaVuSans-73" transform="translate(778.857422 0)"/>
      <use xlink:href="#DejaVuSans-75" transform="translate(830.957031 0)"/>
      <use xlink:href="#DejaVuSans-6c" transform="translate(894.335938 0)"/>
      <use xlink:href="#DejaVuSans-74" transform="translate(922.119141 0)"/>
      <use xlink:href="#DejaVuSans-73" transform="translate(961.328125 0)"/>
     </g>
    </g>
    <g id="line2d_34">
     <path d="M 59.002685 69.632562 
L 69.002685 69.632562 
L 79.002685 69.632562 
" style="fill: none; stroke: #ff7f0e; stroke-width: 1.5; stroke-linecap: square"/>
    </g>
    <g id="text_13">
     <!-- Single Small Results -->
     <g transform="translate(87.002685 73.132562) scale(0.1 -0.1)">
      <use xlink:href="#DejaVuSans-53"/>
      <use xlink:href="#DejaVuSans-69" transform="translate(63.476562 0)"/>
      <use xlink:href="#DejaVuSans-6e" transform="translate(91.259766 0)"/>
      <use xlink:href="#DejaVuSans-67" transform="translate(154.638672 0)"/>
      <use xlink:href="#DejaVuSans-6c" transform="translate(218.115234 0)"/>
      <use xlink:href="#DejaVuSans-65" transform="translate(245.898438 0)"/>
      <use xlink:href="#DejaVuSans-20" transform="translate(307.421875 0)"/>
      <use xlink:href="#DejaVuSans-53" transform="translate(339.208984 0)"/>
      <use xlink:href="#DejaVuSans-6d" transform="translate(402.685547 0)"/>
      <use xlink:href="#DejaVuSans-61" transform="translate(500.097656 0)"/>
      <use xlink:href="#DejaVuSans-6c" transform="translate(561.376953 0)"/>
      <use xlink:href="#DejaVuSans-6c" transform="translate(589.160156 0)"/>
      <use xlink:href="#DejaVuSans-20" transform="translate(616.943359 0)"/>
      <use xlink:href="#DejaVuSans-52" transform="translate(648.730469 0)"/>
      <use xlink:href="#DejaVuSans-65" transform="translate(713.712891 0)"/>
      <use xlink:href="#DejaVuSans-73" transform="translate(775.236328 0)"/>
      <use xlink:href="#DejaVuSans-75" transform="translate(827.335938 0)"/>
      <use xlink:href="#DejaVuSans-6c" transform="translate(890.714844 0)"/>
      <use xlink:href="#DejaVuSans-74" transform="translate(918.498047 0)"/>
      <use xlink:href="#DejaVuSans-73" transform="translate(957.707031 0)"/>
     </g>
    </g>
    <g id="line2d_35">
     <path d="M 59.002685 84.310687 
L 69.002685 84.310687 
L 79.002685 84.310687 
" style="fill: none; stroke: #2ca02c; stroke-width: 1.5; stroke-linecap: square"/>
    </g>
    <g id="text_14">
     <!-- Multi Results -->
     <g transform="translate(87.002685 87.810687) scale(0.1 -0.1)">
      <defs>
       <path id="DejaVuSans-4d" d="M 628 4666 
L 1569 4666 
L 2759 1491 
L 3956 4666 
L 4897 4666 
L 4897 0 
L 4281 0 
L 4281 4097 
L 3078 897 
L 2444 897 
L 1241 4097 
L 1241 0 
L 628 0 
L 628 4666 
z
" transform="scale(0.015625)"/>
      </defs>
      <use xlink:href="#DejaVuSans-4d"/>
      <use xlink:href="#DejaVuSans-75" transform="translate(86.279297 0)"/>
      <use xlink:href="#DejaVuSans-6c" transform="translate(149.658203 0)"/>
      <use xlink:href="#DejaVuSans-74" transform="translate(177.441406 0)"/>
      <use xlink:href="#DejaVuSans-69" transform="translate(216.650391 0)"/>
      <use xlink:href="#DejaVuSans-20" transform="translate(244.433594 0)"/>
      <use xlink:href="#DejaVuSans-52" transform="translate(276.220703 0)"/>
      <use xlink:href="#DejaVuSans-65" transform="translate(341.203125 0)"/>
      <use xlink:href="#DejaVuSans-73" transform="translate(402.726562 0)"/>
      <use xlink:href="#DejaVuSans-75" transform="translate(454.826172 0)"/>
      <use xlink:href="#DejaVuSans-6c" transform="translate(518.205078 0)"/>
      <use xlink:href="#DejaVuSans-74" transform="translate(545.988281 0)"/>
      <use xlink:href="#DejaVuSans-73" transform="translate(585.197266 0)"/>
     </g>
    </g>
   </g>
  </g>
 </g>
 <defs>
  <clipPath id="p23378c7521">
   <rect x="50.002685" y="41.856" width="803.197315" height="348.184"/>
  </clipPath>
 </defs>
</svg>
