<?xml version="1.0" encoding="utf-8" standalone="no"?>
<!DOCTYPE svg PUBLIC "-//W3C//DTD SVG 1.1//EN"
  "http://www.w3.org/Graphics/SVG/1.1/DTD/svg11.dtd">
<svg xmlns:xlink="http://www.w3.org/1999/xlink" width="1008pt" height="288pt" viewBox="0 0 1008 288" xmlns="http://www.w3.org/2000/svg" version="1.1">
 <metadata>
  <rdf:RDF xmlns:dc="http://purl.org/dc/elements/1.1/" xmlns:cc="http://creativecommons.org/ns#" xmlns:rdf="http://www.w3.org/1999/02/22-rdf-syntax-ns#">
   <cc:Work>
    <dc:type rdf:resource="http://purl.org/dc/dcmitype/StillImage"/>
    <dc:date>2025-05-31T22:11:24.683452</dc:date>
    <dc:format>image/svg+xml</dc:format>
    <dc:creator>
     <cc:Agent>
      <dc:title>Matplotlib v3.10.1, https://matplotlib.org/</dc:title>
     </cc:Agent>
    </dc:creator>
   </cc:Work>
  </rdf:RDF>
 </metadata>
 <defs>
  <style type="text/css">*{stroke-linejoin: round; stroke-linecap: butt}</style>
 </defs>
 <g id="figure_1">
  <g id="patch_1">
   <path d="M 0 288 
L 1008 288 
L 1008 0 
L 0 0 
z
" style="fill: #ffffff"/>
  </g>
  <g id="axes_1">
   <g id="patch_2">
    <path d="M 50.002685 246.04 
L 997.2 246.04 
L 997.2 26.88 
L 50.002685 26.88 
z
" style="fill: #ffffff"/>
   </g>
   <g id="matplotlib.axis_1">
    <g id="xtick_1">
     <g id="line2d_1">
      <defs>
       <path id="m7cfaa15f06" d="M 0 0 
L 0 3.5 
" style="stroke: #000000; stroke-width: 0.8"/>
      </defs>
      <g>
       <use xlink:href="#m7cfaa15f06" x="93.057108" y="246.04" style="stroke: #000000; stroke-width: 0.8"/>
      </g>
     </g>
     <g id="text_1">
      <!-- 0 -->
      <g transform="translate(89.875858 260.638438) scale(0.1 -0.1)">
       <defs>
        <path id="DejaVuSans-30" d="M 2034 4250 
Q 1547 4250 1301 3770 
Q 1056 3291 1056 2328 
Q 1056 1369 1301 889 
Q 1547 409 2034 409 
Q 2525 409 2770 889 
Q 3016 1369 3016 2328 
Q 3016 3291 2770 3770 
Q 2525 4250 2034 4250 
z
M 2034 4750 
Q 2819 4750 3233 4129 
Q 3647 3509 3647 2328 
Q 3647 1150 3233 529 
Q 2819 -91 2034 -91 
Q 1250 -91 836 529 
Q 422 1150 422 2328 
Q 422 3509 836 4129 
Q 1250 4750 2034 4750 
z
" transform="scale(0.015625)"/>
       </defs>
       <use xlink:href="#DejaVuSans-30"/>
      </g>
     </g>
    </g>
    <g id="xtick_2">
     <g id="line2d_2">
      <g>
       <use xlink:href="#m7cfaa15f06" x="260.258753" y="246.04" style="stroke: #000000; stroke-width: 0.8"/>
      </g>
     </g>
     <g id="text_2">
      <!-- 100 -->
      <g transform="translate(250.715003 260.638438) scale(0.1 -0.1)">
       <defs>
        <path id="DejaVuSans-31" d="M 794 531 
L 1825 531 
L 1825 4091 
L 703 3866 
L 703 4441 
L 1819 4666 
L 2450 4666 
L 2450 531 
L 3481 531 
L 3481 0 
L 794 0 
L 794 531 
z
" transform="scale(0.015625)"/>
       </defs>
       <use xlink:href="#DejaVuSans-31"/>
       <use xlink:href="#DejaVuSans-30" transform="translate(63.623047 0)"/>
       <use xlink:href="#DejaVuSans-30" transform="translate(127.246094 0)"/>
      </g>
     </g>
    </g>
    <g id="xtick_3">
     <g id="line2d_3">
      <g>
       <use xlink:href="#m7cfaa15f06" x="427.460397" y="246.04" style="stroke: #000000; stroke-width: 0.8"/>
      </g>
     </g>
     <g id="text_3">
      <!-- 200 -->
      <g transform="translate(417.916647 260.638438) scale(0.1 -0.1)">
       <defs>
        <path id="DejaVuSans-32" d="M 1228 531 
L 3431 531 
L 3431 0 
L 469 0 
L 469 531 
Q 828 903 1448 1529 
Q 2069 2156 2228 2338 
Q 2531 2678 2651 2914 
Q 2772 3150 2772 3378 
Q 2772 3750 2511 3984 
Q 2250 4219 1831 4219 
Q 1534 4219 1204 4116 
Q 875 4013 500 3803 
L 500 4441 
Q 881 4594 1212 4672 
Q 1544 4750 1819 4750 
Q 2544 4750 2975 4387 
Q 3406 4025 3406 3419 
Q 3406 3131 3298 2873 
Q 3191 2616 2906 2266 
Q 2828 2175 2409 1742 
Q 1991 1309 1228 531 
z
" transform="scale(0.015625)"/>
       </defs>
       <use xlink:href="#DejaVuSans-32"/>
       <use xlink:href="#DejaVuSans-30" transform="translate(63.623047 0)"/>
       <use xlink:href="#DejaVuSans-30" transform="translate(127.246094 0)"/>
      </g>
     </g>
    </g>
    <g id="xtick_4">
     <g id="line2d_4">
      <g>
       <use xlink:href="#m7cfaa15f06" x="594.662041" y="246.04" style="stroke: #000000; stroke-width: 0.8"/>
      </g>
     </g>
     <g id="text_4">
      <!-- 300 -->
      <g transform="translate(585.118291 260.638438) scale(0.1 -0.1)">
       <defs>
        <path id="DejaVuSans-33" d="M 2597 2516 
Q 3050 2419 3304 2112 
Q 3559 1806 3559 1356 
Q 3559 666 3084 287 
Q 2609 -91 1734 -91 
Q 1441 -91 1130 -33 
Q 819 25 488 141 
L 488 750 
Q 750 597 1062 519 
Q 1375 441 1716 441 
Q 2309 441 2620 675 
Q 2931 909 2931 1356 
Q 2931 1769 2642 2001 
Q 2353 2234 1838 2234 
L 1294 2234 
L 1294 2753 
L 1863 2753 
Q 2328 2753 2575 2939 
Q 2822 3125 2822 3475 
Q 2822 3834 2567 4026 
Q 2313 4219 1838 4219 
Q 1578 4219 1281 4162 
Q 984 4106 628 3988 
L 628 4550 
Q 988 4650 1302 4700 
Q 1616 4750 1894 4750 
Q 2613 4750 3031 4423 
Q 3450 4097 3450 3541 
Q 3450 3153 3228 2886 
Q 3006 2619 2597 2516 
z
" transform="scale(0.015625)"/>
       </defs>
       <use xlink:href="#DejaVuSans-33"/>
       <use xlink:href="#DejaVuSans-30" transform="translate(63.623047 0)"/>
       <use xlink:href="#DejaVuSans-30" transform="translate(127.246094 0)"/>
      </g>
     </g>
    </g>
    <g id="xtick_5">
     <g id="line2d_5">
      <g>
       <use xlink:href="#m7cfaa15f06" x="761.863686" y="246.04" style="stroke: #000000; stroke-width: 0.8"/>
      </g>
     </g>
     <g id="text_5">
      <!-- 400 -->
      <g transform="translate(752.319936 260.638438) scale(0.1 -0.1)">
       <defs>
        <path id="DejaVuSans-34" d="M 2419 4116 
L 825 1625 
L 2419 1625 
L 2419 4116 
z
M 2253 4666 
L 3047 4666 
L 3047 1625 
L 3713 1625 
L 3713 1100 
L 3047 1100 
L 3047 0 
L 2419 0 
L 2419 1100 
L 313 1100 
L 313 1709 
L 2253 4666 
z
" transform="scale(0.015625)"/>
       </defs>
       <use xlink:href="#DejaVuSans-34"/>
       <use xlink:href="#DejaVuSans-30" transform="translate(63.623047 0)"/>
       <use xlink:href="#DejaVuSans-30" transform="translate(127.246094 0)"/>
      </g>
     </g>
    </g>
    <g id="xtick_6">
     <g id="line2d_6">
      <g>
       <use xlink:href="#m7cfaa15f06" x="929.06533" y="246.04" style="stroke: #000000; stroke-width: 0.8"/>
      </g>
     </g>
     <g id="text_6">
      <!-- 500 -->
      <g transform="translate(919.52158 260.638438) scale(0.1 -0.1)">
       <defs>
        <path id="DejaVuSans-35" d="M 691 4666 
L 3169 4666 
L 3169 4134 
L 1269 4134 
L 1269 2991 
Q 1406 3038 1543 3061 
Q 1681 3084 1819 3084 
Q 2600 3084 3056 2656 
Q 3513 2228 3513 1497 
Q 3513 744 3044 326 
Q 2575 -91 1722 -91 
Q 1428 -91 1123 -41 
Q 819 9 494 109 
L 494 744 
Q 775 591 1075 516 
Q 1375 441 1709 441 
Q 2250 441 2565 725 
Q 2881 1009 2881 1497 
Q 2881 1984 2565 2268 
Q 2250 2553 1709 2553 
Q 1456 2553 1204 2497 
Q 953 2441 691 2322 
L 691 4666 
z
" transform="scale(0.015625)"/>
       </defs>
       <use xlink:href="#DejaVuSans-35"/>
       <use xlink:href="#DejaVuSans-30" transform="translate(63.623047 0)"/>
       <use xlink:href="#DejaVuSans-30" transform="translate(127.246094 0)"/>
      </g>
     </g>
    </g>
    <g id="text_7">
     <!-- Timestamp (Seconds) -->
     <g transform="translate(469.196655 274.316562) scale(0.1 -0.1)">
      <defs>
       <path id="DejaVuSans-54" d="M -19 4666 
L 3928 4666 
L 3928 4134 
L 2272 4134 
L 2272 0 
L 1638 0 
L 1638 4134 
L -19 4134 
L -19 4666 
z
" transform="scale(0.015625)"/>
       <path id="DejaVuSans-69" d="M 603 3500 
L 1178 3500 
L 1178 0 
L 603 0 
L 603 3500 
z
M 603 4863 
L 1178 4863 
L 1178 4134 
L 603 4134 
L 603 4863 
z
" transform="scale(0.015625)"/>
       <path id="DejaVuSans-6d" d="M 3328 2828 
Q 3544 3216 3844 3400 
Q 4144 3584 4550 3584 
Q 5097 3584 5394 3201 
Q 5691 2819 5691 2113 
L 5691 0 
L 5113 0 
L 5113 2094 
Q 5113 2597 4934 2840 
Q 4756 3084 4391 3084 
Q 3944 3084 3684 2787 
Q 3425 2491 3425 1978 
L 3425 0 
L 2847 0 
L 2847 2094 
Q 2847 2600 2669 2842 
Q 2491 3084 2119 3084 
Q 1678 3084 1418 2786 
Q 1159 2488 1159 1978 
L 1159 0 
L 581 0 
L 581 3500 
L 1159 3500 
L 1159 2956 
Q 1356 3278 1631 3431 
Q 1906 3584 2284 3584 
Q 2666 3584 2933 3390 
Q 3200 3197 3328 2828 
z
" transform="scale(0.015625)"/>
       <path id="DejaVuSans-65" d="M 3597 1894 
L 3597 1613 
L 953 1613 
Q 991 1019 1311 708 
Q 1631 397 2203 397 
Q 2534 397 2845 478 
Q 3156 559 3463 722 
L 3463 178 
Q 3153 47 2828 -22 
Q 2503 -91 2169 -91 
Q 1331 -91 842 396 
Q 353 884 353 1716 
Q 353 2575 817 3079 
Q 1281 3584 2069 3584 
Q 2775 3584 3186 3129 
Q 3597 2675 3597 1894 
z
M 3022 2063 
Q 3016 2534 2758 2815 
Q 2500 3097 2075 3097 
Q 1594 3097 1305 2825 
Q 1016 2553 972 2059 
L 3022 2063 
z
" transform="scale(0.015625)"/>
       <path id="DejaVuSans-73" d="M 2834 3397 
L 2834 2853 
Q 2591 2978 2328 3040 
Q 2066 3103 1784 3103 
Q 1356 3103 1142 2972 
Q 928 2841 928 2578 
Q 928 2378 1081 2264 
Q 1234 2150 1697 2047 
L 1894 2003 
Q 2506 1872 2764 1633 
Q 3022 1394 3022 966 
Q 3022 478 2636 193 
Q 2250 -91 1575 -91 
Q 1294 -91 989 -36 
Q 684 19 347 128 
L 347 722 
Q 666 556 975 473 
Q 1284 391 1588 391 
Q 1994 391 2212 530 
Q 2431 669 2431 922 
Q 2431 1156 2273 1281 
Q 2116 1406 1581 1522 
L 1381 1569 
Q 847 1681 609 1914 
Q 372 2147 372 2553 
Q 372 3047 722 3315 
Q 1072 3584 1716 3584 
Q 2034 3584 2315 3537 
Q 2597 3491 2834 3397 
z
" transform="scale(0.015625)"/>
       <path id="DejaVuSans-74" d="M 1172 4494 
L 1172 3500 
L 2356 3500 
L 2356 3053 
L 1172 3053 
L 1172 1153 
Q 1172 725 1289 603 
Q 1406 481 1766 481 
L 2356 481 
L 2356 0 
L 1766 0 
Q 1100 0 847 248 
Q 594 497 594 1153 
L 594 3053 
L 172 3053 
L 172 3500 
L 594 3500 
L 594 4494 
L 1172 4494 
z
" transform="scale(0.015625)"/>
       <path id="DejaVuSans-61" d="M 2194 1759 
Q 1497 1759 1228 1600 
Q 959 1441 959 1056 
Q 959 750 1161 570 
Q 1363 391 1709 391 
Q 2188 391 2477 730 
Q 2766 1069 2766 1631 
L 2766 1759 
L 2194 1759 
z
M 3341 1997 
L 3341 0 
L 2766 0 
L 2766 531 
Q 2569 213 2275 61 
Q 1981 -91 1556 -91 
Q 1019 -91 701 211 
Q 384 513 384 1019 
Q 384 1609 779 1909 
Q 1175 2209 1959 2209 
L 2766 2209 
L 2766 2266 
Q 2766 2663 2505 2880 
Q 2244 3097 1772 3097 
Q 1472 3097 1187 3025 
Q 903 2953 641 2809 
L 641 3341 
Q 956 3463 1253 3523 
Q 1550 3584 1831 3584 
Q 2591 3584 2966 3190 
Q 3341 2797 3341 1997 
z
" transform="scale(0.015625)"/>
       <path id="DejaVuSans-70" d="M 1159 525 
L 1159 -1331 
L 581 -1331 
L 581 3500 
L 1159 3500 
L 1159 2969 
Q 1341 3281 1617 3432 
Q 1894 3584 2278 3584 
Q 2916 3584 3314 3078 
Q 3713 2572 3713 1747 
Q 3713 922 3314 415 
Q 2916 -91 2278 -91 
Q 1894 -91 1617 61 
Q 1341 213 1159 525 
z
M 3116 1747 
Q 3116 2381 2855 2742 
Q 2594 3103 2138 3103 
Q 1681 3103 1420 2742 
Q 1159 2381 1159 1747 
Q 1159 1113 1420 752 
Q 1681 391 2138 391 
Q 2594 391 2855 752 
Q 3116 1113 3116 1747 
z
" transform="scale(0.015625)"/>
       <path id="DejaVuSans-20" transform="scale(0.015625)"/>
       <path id="DejaVuSans-28" d="M 1984 4856 
Q 1566 4138 1362 3434 
Q 1159 2731 1159 2009 
Q 1159 1288 1364 580 
Q 1569 -128 1984 -844 
L 1484 -844 
Q 1016 -109 783 600 
Q 550 1309 550 2009 
Q 550 2706 781 3412 
Q 1013 4119 1484 4856 
L 1984 4856 
z
" transform="scale(0.015625)"/>
       <path id="DejaVuSans-53" d="M 3425 4513 
L 3425 3897 
Q 3066 4069 2747 4153 
Q 2428 4238 2131 4238 
Q 1616 4238 1336 4038 
Q 1056 3838 1056 3469 
Q 1056 3159 1242 3001 
Q 1428 2844 1947 2747 
L 2328 2669 
Q 3034 2534 3370 2195 
Q 3706 1856 3706 1288 
Q 3706 609 3251 259 
Q 2797 -91 1919 -91 
Q 1588 -91 1214 -16 
Q 841 59 441 206 
L 441 856 
Q 825 641 1194 531 
Q 1563 422 1919 422 
Q 2459 422 2753 634 
Q 3047 847 3047 1241 
Q 3047 1584 2836 1778 
Q 2625 1972 2144 2069 
L 1759 2144 
Q 1053 2284 737 2584 
Q 422 2884 422 3419 
Q 422 4038 858 4394 
Q 1294 4750 2059 4750 
Q 2388 4750 2728 4690 
Q 3069 4631 3425 4513 
z
" transform="scale(0.015625)"/>
       <path id="DejaVuSans-63" d="M 3122 3366 
L 3122 2828 
Q 2878 2963 2633 3030 
Q 2388 3097 2138 3097 
Q 1578 3097 1268 2742 
Q 959 2388 959 1747 
Q 959 1106 1268 751 
Q 1578 397 2138 397 
Q 2388 397 2633 464 
Q 2878 531 3122 666 
L 3122 134 
Q 2881 22 2623 -34 
Q 2366 -91 2075 -91 
Q 1284 -91 818 406 
Q 353 903 353 1747 
Q 353 2603 823 3093 
Q 1294 3584 2113 3584 
Q 2378 3584 2631 3529 
Q 2884 3475 3122 3366 
z
" transform="scale(0.015625)"/>
       <path id="DejaVuSans-6f" d="M 1959 3097 
Q 1497 3097 1228 2736 
Q 959 2375 959 1747 
Q 959 1119 1226 758 
Q 1494 397 1959 397 
Q 2419 397 2687 759 
Q 2956 1122 2956 1747 
Q 2956 2369 2687 2733 
Q 2419 3097 1959 3097 
z
M 1959 3584 
Q 2709 3584 3137 3096 
Q 3566 2609 3566 1747 
Q 3566 888 3137 398 
Q 2709 -91 1959 -91 
Q 1206 -91 779 398 
Q 353 888 353 1747 
Q 353 2609 779 3096 
Q 1206 3584 1959 3584 
z
" transform="scale(0.015625)"/>
       <path id="DejaVuSans-6e" d="M 3513 2113 
L 3513 0 
L 2938 0 
L 2938 2094 
Q 2938 2591 2744 2837 
Q 2550 3084 2163 3084 
Q 1697 3084 1428 2787 
Q 1159 2491 1159 1978 
L 1159 0 
L 581 0 
L 581 3500 
L 1159 3500 
L 1159 2956 
Q 1366 3272 1645 3428 
Q 1925 3584 2291 3584 
Q 2894 3584 3203 3211 
Q 3513 2838 3513 2113 
z
" transform="scale(0.015625)"/>
       <path id="DejaVuSans-64" d="M 2906 2969 
L 2906 4863 
L 3481 4863 
L 3481 0 
L 2906 0 
L 2906 525 
Q 2725 213 2448 61 
Q 2172 -91 1784 -91 
Q 1150 -91 751 415 
Q 353 922 353 1747 
Q 353 2572 751 3078 
Q 1150 3584 1784 3584 
Q 2172 3584 2448 3432 
Q 2725 3281 2906 2969 
z
M 947 1747 
Q 947 1113 1208 752 
Q 1469 391 1925 391 
Q 2381 391 2643 752 
Q 2906 1113 2906 1747 
Q 2906 2381 2643 2742 
Q 2381 3103 1925 3103 
Q 1469 3103 1208 2742 
Q 947 2381 947 1747 
z
" transform="scale(0.015625)"/>
       <path id="DejaVuSans-29" d="M 513 4856 
L 1013 4856 
Q 1481 4119 1714 3412 
Q 1947 2706 1947 2009 
Q 1947 1309 1714 600 
Q 1481 -109 1013 -844 
L 513 -844 
Q 928 -128 1133 580 
Q 1338 1288 1338 2009 
Q 1338 2731 1133 3434 
Q 928 4138 513 4856 
z
" transform="scale(0.015625)"/>
      </defs>
      <use xlink:href="#DejaVuSans-54"/>
      <use xlink:href="#DejaVuSans-69" transform="translate(57.958984 0)"/>
      <use xlink:href="#DejaVuSans-6d" transform="translate(85.742188 0)"/>
      <use xlink:href="#DejaVuSans-65" transform="translate(183.154297 0)"/>
      <use xlink:href="#DejaVuSans-73" transform="translate(244.677734 0)"/>
      <use xlink:href="#DejaVuSans-74" transform="translate(296.777344 0)"/>
      <use xlink:href="#DejaVuSans-61" transform="translate(335.986328 0)"/>
      <use xlink:href="#DejaVuSans-6d" transform="translate(397.265625 0)"/>
      <use xlink:href="#DejaVuSans-70" transform="translate(494.677734 0)"/>
      <use xlink:href="#DejaVuSans-20" transform="translate(558.154297 0)"/>
      <use xlink:href="#DejaVuSans-28" transform="translate(589.941406 0)"/>
      <use xlink:href="#DejaVuSans-53" transform="translate(628.955078 0)"/>
      <use xlink:href="#DejaVuSans-65" transform="translate(692.431641 0)"/>
      <use xlink:href="#DejaVuSans-63" transform="translate(753.955078 0)"/>
      <use xlink:href="#DejaVuSans-6f" transform="translate(808.935547 0)"/>
      <use xlink:href="#DejaVuSans-6e" transform="translate(870.117188 0)"/>
      <use xlink:href="#DejaVuSans-64" transform="translate(933.496094 0)"/>
      <use xlink:href="#DejaVuSans-73" transform="translate(996.972656 0)"/>
      <use xlink:href="#DejaVuSans-29" transform="translate(1049.072266 0)"/>
     </g>
    </g>
   </g>
   <g id="matplotlib.axis_2">
    <g id="ytick_1">
     <g id="line2d_7">
      <defs>
       <path id="m0d031fe165" d="M 0 0 
L -3.5 0 
" style="stroke: #000000; stroke-width: 0.8"/>
      </defs>
      <g>
       <use xlink:href="#m0d031fe165" x="50.002685" y="145.409075" style="stroke: #000000; stroke-width: 0.8"/>
      </g>
     </g>
     <g id="text_8">
      <!-- $\mathdefault{10^{2}}$ -->
      <g transform="translate(25.402685 149.208294) scale(0.1 -0.1)">
       <use xlink:href="#DejaVuSans-31" transform="translate(0 0.765625)"/>
       <use xlink:href="#DejaVuSans-30" transform="translate(63.623047 0.765625)"/>
       <use xlink:href="#DejaVuSans-32" transform="translate(128.203125 39.046875) scale(0.7)"/>
      </g>
     </g>
    </g>
    <g id="ytick_2">
     <g id="line2d_8">
      <g>
       <use xlink:href="#m0d031fe165" x="50.002685" y="40.28576" style="stroke: #000000; stroke-width: 0.8"/>
      </g>
     </g>
     <g id="text_9">
      <!-- $\mathdefault{10^{3}}$ -->
      <g transform="translate(25.402685 44.084979) scale(0.1 -0.1)">
       <use xlink:href="#DejaVuSans-31" transform="translate(0 0.765625)"/>
       <use xlink:href="#DejaVuSans-30" transform="translate(63.623047 0.765625)"/>
       <use xlink:href="#DejaVuSans-33" transform="translate(128.203125 39.046875) scale(0.7)"/>
      </g>
     </g>
    </g>
    <g id="ytick_3">
     <g id="line2d_9">
      <defs>
       <path id="m0b8d79461e" d="M 0 0 
L -2 0 
" style="stroke: #000000; stroke-width: 0.6"/>
      </defs>
      <g>
       <use xlink:href="#m0b8d79461e" x="50.002685" y="218.887119" style="stroke: #000000; stroke-width: 0.6"/>
      </g>
     </g>
    </g>
    <g id="ytick_4">
     <g id="line2d_10">
      <g>
       <use xlink:href="#m0b8d79461e" x="50.002685" y="200.375822" style="stroke: #000000; stroke-width: 0.6"/>
      </g>
     </g>
    </g>
    <g id="ytick_5">
     <g id="line2d_11">
      <g>
       <use xlink:href="#m0b8d79461e" x="50.002685" y="187.241848" style="stroke: #000000; stroke-width: 0.6"/>
      </g>
     </g>
    </g>
    <g id="ytick_6">
     <g id="line2d_12">
      <g>
       <use xlink:href="#m0b8d79461e" x="50.002685" y="177.054346" style="stroke: #000000; stroke-width: 0.6"/>
      </g>
     </g>
    </g>
    <g id="ytick_7">
     <g id="line2d_13">
      <g>
       <use xlink:href="#m0b8d79461e" x="50.002685" y="168.730551" style="stroke: #000000; stroke-width: 0.6"/>
      </g>
     </g>
    </g>
    <g id="ytick_8">
     <g id="line2d_14">
      <g>
       <use xlink:href="#m0b8d79461e" x="50.002685" y="161.692882" style="stroke: #000000; stroke-width: 0.6"/>
      </g>
     </g>
    </g>
    <g id="ytick_9">
     <g id="line2d_15">
      <g>
       <use xlink:href="#m0b8d79461e" x="50.002685" y="155.596577" style="stroke: #000000; stroke-width: 0.6"/>
      </g>
     </g>
    </g>
    <g id="ytick_10">
     <g id="line2d_16">
      <g>
       <use xlink:href="#m0b8d79461e" x="50.002685" y="150.219254" style="stroke: #000000; stroke-width: 0.6"/>
      </g>
     </g>
    </g>
    <g id="ytick_11">
     <g id="line2d_17">
      <g>
       <use xlink:href="#m0b8d79461e" x="50.002685" y="113.763804" style="stroke: #000000; stroke-width: 0.6"/>
      </g>
     </g>
    </g>
    <g id="ytick_12">
     <g id="line2d_18">
      <g>
       <use xlink:href="#m0b8d79461e" x="50.002685" y="95.252507" style="stroke: #000000; stroke-width: 0.6"/>
      </g>
     </g>
    </g>
    <g id="ytick_13">
     <g id="line2d_19">
      <g>
       <use xlink:href="#m0b8d79461e" x="50.002685" y="82.118533" style="stroke: #000000; stroke-width: 0.6"/>
      </g>
     </g>
    </g>
    <g id="ytick_14">
     <g id="line2d_20">
      <g>
       <use xlink:href="#m0b8d79461e" x="50.002685" y="71.931031" style="stroke: #000000; stroke-width: 0.6"/>
      </g>
     </g>
    </g>
    <g id="ytick_15">
     <g id="line2d_21">
      <g>
       <use xlink:href="#m0b8d79461e" x="50.002685" y="63.607236" style="stroke: #000000; stroke-width: 0.6"/>
      </g>
     </g>
    </g>
    <g id="ytick_16">
     <g id="line2d_22">
      <g>
       <use xlink:href="#m0b8d79461e" x="50.002685" y="56.569568" style="stroke: #000000; stroke-width: 0.6"/>
      </g>
     </g>
    </g>
    <g id="ytick_17">
     <g id="line2d_23">
      <g>
       <use xlink:href="#m0b8d79461e" x="50.002685" y="50.473262" style="stroke: #000000; stroke-width: 0.6"/>
      </g>
     </g>
    </g>
    <g id="ytick_18">
     <g id="line2d_24">
      <g>
       <use xlink:href="#m0b8d79461e" x="50.002685" y="45.095939" style="stroke: #000000; stroke-width: 0.6"/>
      </g>
     </g>
    </g>
    <g id="text_10">
     <!-- Avg Duration (ms) -->
     <g transform="translate(19.322997 181.990469) rotate(-90) scale(0.1 -0.1)">
      <defs>
       <path id="DejaVuSans-41" d="M 2188 4044 
L 1331 1722 
L 3047 1722 
L 2188 4044 
z
M 1831 4666 
L 2547 4666 
L 4325 0 
L 3669 0 
L 3244 1197 
L 1141 1197 
L 716 0 
L 50 0 
L 1831 4666 
z
" transform="scale(0.015625)"/>
       <path id="DejaVuSans-76" d="M 191 3500 
L 800 3500 
L 1894 563 
L 2988 3500 
L 3597 3500 
L 2284 0 
L 1503 0 
L 191 3500 
z
" transform="scale(0.015625)"/>
       <path id="DejaVuSans-67" d="M 2906 1791 
Q 2906 2416 2648 2759 
Q 2391 3103 1925 3103 
Q 1463 3103 1205 2759 
Q 947 2416 947 1791 
Q 947 1169 1205 825 
Q 1463 481 1925 481 
Q 2391 481 2648 825 
Q 2906 1169 2906 1791 
z
M 3481 434 
Q 3481 -459 3084 -895 
Q 2688 -1331 1869 -1331 
Q 1566 -1331 1297 -1286 
Q 1028 -1241 775 -1147 
L 775 -588 
Q 1028 -725 1275 -790 
Q 1522 -856 1778 -856 
Q 2344 -856 2625 -561 
Q 2906 -266 2906 331 
L 2906 616 
Q 2728 306 2450 153 
Q 2172 0 1784 0 
Q 1141 0 747 490 
Q 353 981 353 1791 
Q 353 2603 747 3093 
Q 1141 3584 1784 3584 
Q 2172 3584 2450 3431 
Q 2728 3278 2906 2969 
L 2906 3500 
L 3481 3500 
L 3481 434 
z
" transform="scale(0.015625)"/>
       <path id="DejaVuSans-44" d="M 1259 4147 
L 1259 519 
L 2022 519 
Q 2988 519 3436 956 
Q 3884 1394 3884 2338 
Q 3884 3275 3436 3711 
Q 2988 4147 2022 4147 
L 1259 4147 
z
M 628 4666 
L 1925 4666 
Q 3281 4666 3915 4102 
Q 4550 3538 4550 2338 
Q 4550 1131 3912 565 
Q 3275 0 1925 0 
L 628 0 
L 628 4666 
z
" transform="scale(0.015625)"/>
       <path id="DejaVuSans-75" d="M 544 1381 
L 544 3500 
L 1119 3500 
L 1119 1403 
Q 1119 906 1312 657 
Q 1506 409 1894 409 
Q 2359 409 2629 706 
Q 2900 1003 2900 1516 
L 2900 3500 
L 3475 3500 
L 3475 0 
L 2900 0 
L 2900 538 
Q 2691 219 2414 64 
Q 2138 -91 1772 -91 
Q 1169 -91 856 284 
Q 544 659 544 1381 
z
M 1991 3584 
L 1991 3584 
z
" transform="scale(0.015625)"/>
       <path id="DejaVuSans-72" d="M 2631 2963 
Q 2534 3019 2420 3045 
Q 2306 3072 2169 3072 
Q 1681 3072 1420 2755 
Q 1159 2438 1159 1844 
L 1159 0 
L 581 0 
L 581 3500 
L 1159 3500 
L 1159 2956 
Q 1341 3275 1631 3429 
Q 1922 3584 2338 3584 
Q 2397 3584 2469 3576 
Q 2541 3569 2628 3553 
L 2631 2963 
z
" transform="scale(0.015625)"/>
      </defs>
      <use xlink:href="#DejaVuSans-41"/>
      <use xlink:href="#DejaVuSans-76" transform="translate(62.533203 0)"/>
      <use xlink:href="#DejaVuSans-67" transform="translate(121.712891 0)"/>
      <use xlink:href="#DejaVuSans-20" transform="translate(185.189453 0)"/>
      <use xlink:href="#DejaVuSans-44" transform="translate(216.976562 0)"/>
      <use xlink:href="#DejaVuSans-75" transform="translate(293.978516 0)"/>
      <use xlink:href="#DejaVuSans-72" transform="translate(357.357422 0)"/>
      <use xlink:href="#DejaVuSans-61" transform="translate(398.470703 0)"/>
      <use xlink:href="#DejaVuSans-74" transform="translate(459.75 0)"/>
      <use xlink:href="#DejaVuSans-69" transform="translate(498.958984 0)"/>
      <use xlink:href="#DejaVuSans-6f" transform="translate(526.742188 0)"/>
      <use xlink:href="#DejaVuSans-6e" transform="translate(587.923828 0)"/>
      <use xlink:href="#DejaVuSans-20" transform="translate(651.302734 0)"/>
      <use xlink:href="#DejaVuSans-28" transform="translate(683.089844 0)"/>
      <use xlink:href="#DejaVuSans-6d" transform="translate(722.103516 0)"/>
      <use xlink:href="#DejaVuSans-73" transform="translate(819.515625 0)"/>
      <use xlink:href="#DejaVuSans-29" transform="translate(871.615234 0)"/>
     </g>
    </g>
   </g>
   <g id="line2d_25">
    <path d="M 93.057108 206.826051 
L 94.729125 230.969467 
L 96.401141 227.665225 
L 98.073158 228.999173 
L 99.745174 229.507426 
L 101.41719 228.985418 
L 103.089207 228.760874 
L 104.761223 232.278072 
L 106.43324 231.633795 
L 108.105256 228.525464 
L 109.777273 230.108499 
L 111.449289 231.537597 
L 113.121306 228.665649 
L 114.793322 230.403692 
L 116.465338 231.144015 
L 118.137355 230.736248 
L 119.809371 230.739648 
L 121.481388 231.24928 
L 123.153404 231.084717 
L 124.825421 231.11039 
L 126.497437 231.409695 
L 128.169453 225.451018 
L 129.84147 230.728182 
L 131.513486 231.459943 
L 133.185503 230.088908 
L 134.857519 236.078182 
L 136.529536 235.515115 
L 138.201552 233.922955 
L 139.873569 234.381937 
L 141.545585 233.001459 
L 143.217601 235.18622 
L 144.889618 233.996893 
L 146.561634 235.376259 
L 148.233651 234.827447 
L 149.905667 232.697588 
L 151.577684 207.924493 
L 153.2497 223.47323 
L 154.921717 230.559398 
L 156.593733 228.810411 
L 158.265749 229.117102 
L 159.937766 232.747647 
L 161.609782 228.762149 
L 163.281799 228.833205 
L 164.953815 226.791729 
L 166.625832 227.667539 
L 168.297848 228.811141 
L 169.969865 226.893523 
L 171.641881 226.994637 
L 173.313897 230.853544 
L 174.985914 232.266158 
L 176.65793 232.48172 
L 178.329947 232.490039 
L 180.001963 232.344066 
L 181.67398 233.442286 
L 183.345996 231.355447 
L 185.018013 233.366035 
L 186.690029 233.054714 
L 188.362045 233.54398 
L 190.034062 229.436375 
L 191.706078 233.06416 
L 193.378095 233.349304 
L 195.050111 232.86595 
L 196.722128 233.621999 
L 198.394144 231.293936 
L 200.066161 232.189126 
L 201.738177 220.102092 
L 203.410193 229.789222 
L 205.08221 227.837517 
L 206.754226 229.436862 
L 208.426243 227.478327 
L 210.098259 228.707328 
L 211.770276 228.900813 
L 213.442292 226.717222 
L 215.114309 207.777925 
L 216.786325 226.827621 
L 218.458341 228.817641 
L 220.130358 230.143487 
L 221.802374 230.087961 
L 223.474391 230.369222 
L 225.146407 230.825177 
L 226.818424 230.127044 
L 228.49044 226.987601 
L 230.162457 226.593161 
L 231.834473 229.198363 
L 233.506489 230.673013 
L 236.850522 231.898253 
L 238.522539 231.368302 
L 240.194555 231.942568 
L 241.866572 231.366082 
L 243.538588 219.225357 
L 245.210605 222.888074 
L 248.554637 216.66023 
L 250.226654 218.245272 
L 251.89867 224.078974 
L 253.570687 225.007161 
L 255.242703 223.150311 
L 256.91472 222.811794 
L 258.586736 226.892845 
L 260.258753 223.660081 
L 261.930769 225.549654 
L 263.602785 219.241407 
L 265.274802 217.540798 
L 266.946818 217.769919 
L 268.618835 219.36673 
L 270.290851 219.571455 
L 271.962868 220.345021 
L 273.634884 218.233636 
L 275.306901 220.942475 
L 276.978917 222.031607 
L 278.650933 220.069002 
L 280.32295 224.81694 
L 281.994966 225.808078 
L 283.666983 223.946809 
L 285.338999 218.923102 
L 287.011016 224.120541 
L 288.683032 223.009162 
L 290.355049 212.616562 
L 292.027065 219.238262 
L 293.699081 222.701354 
L 295.371098 221.280926 
L 297.043114 214.933018 
L 298.715131 219.408866 
L 300.387147 212.334984 
L 302.059164 221.064368 
L 303.73118 221.963898 
L 305.403197 222.124187 
L 307.075213 223.107354 
L 308.747229 217.968936 
L 310.419246 208.328147 
L 312.091262 224.432672 
L 313.763279 213.333838 
L 315.435295 222.391895 
L 317.107312 221.169009 
L 318.779328 207.990618 
L 320.451344 222.009871 
L 322.123361 222.469533 
L 323.795377 221.976666 
L 325.467394 221.155653 
L 327.13941 219.1263 
L 328.811427 222.411094 
L 330.483443 219.237292 
L 332.15546 220.267371 
L 333.827476 218.802997 
L 335.499492 210.772881 
L 337.171509 215.106603 
L 338.843525 214.328596 
L 340.515542 215.892443 
L 342.187558 212.810669 
L 343.859575 219.665105 
L 345.531591 219.465128 
L 347.203608 213.913955 
L 348.875624 210.606744 
L 350.54764 213.252504 
L 352.219657 216.682745 
L 353.891673 199.103613 
L 355.56369 214.37268 
L 357.235706 215.65691 
L 358.907723 215.684693 
L 360.579739 214.907915 
L 362.251756 217.103418 
L 363.923772 218.421537 
L 365.595788 211.919616 
L 367.267805 215.293537 
L 368.939821 217.700004 
L 370.611838 216.150345 
L 372.283854 219.089204 
L 373.955871 217.191669 
L 375.627887 214.73304 
L 377.299904 215.009698 
L 378.97192 212.618409 
L 380.643936 213.832639 
L 382.315953 215.349584 
L 383.987969 218.121134 
L 385.659986 213.429613 
L 387.332002 213.524322 
L 389.004019 213.02173 
L 390.676035 211.864893 
L 392.348052 213.092585 
L 394.020068 205.216612 
L 395.692084 215.039031 
L 397.364101 211.501011 
L 399.036117 205.74271 
L 400.708134 210.985344 
L 402.38015 207.091469 
L 404.052167 201.744361 
L 405.724183 209.011541 
L 407.3962 213.020941 
L 409.068216 209.751095 
L 410.740232 204.715363 
L 412.412249 199.309272 
L 414.084265 188.37312 
L 415.756282 202.53327 
L 417.428298 187.364747 
L 419.100315 214.179331 
L 420.772331 211.619015 
L 422.444348 214.251778 
L 424.116364 215.740949 
L 425.78838 213.45832 
L 427.460397 212.330571 
L 429.132413 216.170084 
L 430.80443 215.668337 
L 432.476446 216.130421 
L 434.148463 214.365908 
L 435.820479 189.395625 
L 437.492496 209.120794 
L 439.164512 176.924367 
L 440.836528 192.462224 
L 442.508545 200.662019 
L 444.180561 188.989951 
L 445.852578 189.001411 
L 447.524594 201.028506 
L 449.196611 205.497711 
L 450.868627 207.613972 
L 452.540644 212.339647 
L 454.21266 210.513239 
L 455.884676 208.926488 
L 457.556693 174.634913 
L 459.228709 217.483788 
L 460.900726 197.207706 
L 462.572742 173.927541 
L 464.244759 185.005707 
L 465.916775 193.27507 
L 467.588792 204.241716 
L 469.260808 206.406694 
L 470.932824 200.703723 
L 472.604841 200.268798 
L 474.276857 206.836919 
L 475.948874 169.65302 
L 477.62089 205.256549 
L 479.292907 208.272992 
L 480.964923 207.177744 
L 482.63694 209.493683 
L 484.308956 210.893415 
L 485.980972 210.081497 
L 487.652989 192.742862 
L 489.325005 208.804263 
L 490.997022 191.514824 
L 492.669038 197.38258 
L 494.341055 200.057821 
L 496.013071 186.290191 
L 497.685088 209.49027 
L 499.357104 213.236416 
L 501.02912 214.684533 
L 504.373153 215.623368 
L 506.04517 210.902303 
L 507.717186 209.451689 
L 509.389203 211.146905 
L 511.061219 203.102821 
L 512.733236 207.018243 
L 514.405252 202.514258 
L 516.077268 161.303108 
L 517.749285 195.652117 
L 519.421301 197.174794 
L 521.093318 149.697152 
L 522.765334 162.846598 
L 524.437351 185.299634 
L 526.109367 193.186883 
L 527.781383 191.433518 
L 529.4534 197.513076 
L 531.125416 182.453324 
L 532.797433 197.552017 
L 534.469449 176.26787 
L 536.141466 181.808309 
L 537.813482 185.088171 
L 539.485499 189.267747 
L 541.157515 172.096778 
L 542.829531 176.416003 
L 544.501548 181.462457 
L 546.173564 185.897958 
L 547.845581 191.452365 
L 549.517597 181.936508 
L 551.189614 189.427103 
L 552.86163 199.616835 
L 554.533647 184.655567 
L 556.205663 193.72487 
L 557.877679 192.148216 
L 559.549696 190.383369 
L 561.221712 136.434708 
L 562.893729 169.798536 
L 564.565745 184.139451 
L 566.237762 181.541829 
L 567.909778 173.959078 
L 569.581795 159.615387 
L 571.253811 160.850451 
L 572.925827 117.676104 
L 574.597844 149.324834 
L 576.26986 148.831235 
L 577.941877 132.208305 
L 579.613893 179.059718 
L 581.28591 179.98915 
L 582.957926 136.929014 
L 584.629943 174.064199 
L 586.301959 172.098378 
L 587.973975 166.211087 
L 589.645992 168.409983 
L 591.318008 169.598983 
L 592.990025 157.292406 
L 594.662041 163.331302 
L 596.334058 159.585172 
L 598.006074 154.462811 
L 599.678091 154.956744 
L 601.350107 155.311745 
L 603.022123 121.73173 
L 604.69414 143.340414 
L 606.366156 149.440303 
L 608.038173 142.950072 
L 609.710189 144.792203 
L 611.382206 143.799149 
L 613.054222 138.458765 
L 614.726239 120.593318 
L 616.398255 111.851518 
L 618.070271 104.222965 
L 619.742288 132.373358 
L 621.414304 134.186984 
L 623.086321 130.874293 
L 624.758337 133.346485 
L 626.430354 121.49062 
L 628.10237 105.076872 
L 629.774387 121.547421 
L 631.446403 112.637564 
L 633.118419 106.31089 
L 634.790436 105.726426 
L 636.462452 121.215727 
L 638.134469 108.091161 
L 639.806485 101.290074 
L 641.478502 124.110674 
L 643.150518 121.702945 
L 644.822535 116.136622 
L 646.494551 118.94074 
L 648.166567 118.595185 
L 649.838584 114.334336 
L 651.5106 117.288846 
L 653.182617 115.461574 
L 654.854633 109.94115 
L 656.52665 100.585443 
L 658.198666 112.149928 
L 659.870683 108.843824 
L 661.542699 113.282153 
L 664.886732 107.228277 
L 666.558748 110.644449 
L 668.230765 107.747419 
L 669.902781 105.897043 
L 671.574798 97.578397 
L 673.246814 95.525467 
L 674.918831 91.353978 
L 676.590847 82.944703 
L 678.262863 91.832904 
L 679.93488 104.144838 
L 681.606896 100.437473 
L 683.278913 103.6135 
L 684.950929 98.582641 
L 686.622946 101.548063 
L 688.294962 101.016448 
L 689.966979 102.714793 
L 691.638995 99.745738 
L 694.983028 84.941847 
L 696.655044 92.590706 
L 698.327061 98.824192 
L 699.999077 96.987371 
L 701.671094 89.979183 
L 703.34311 78.8942 
L 705.015127 92.480972 
L 706.687143 93.202476 
L 708.359159 94.646928 
L 710.031176 93.754998 
L 711.703192 90.545758 
L 713.375209 93.121912 
L 715.047225 91.552672 
L 716.719242 89.817813 
L 720.063274 91.893103 
L 723.407307 87.548075 
L 725.079324 89.732683 
L 726.75134 88.866061 
L 728.423357 85.421943 
L 730.095373 88.459342 
L 731.76739 79.393338 
L 733.439406 83.143397 
L 735.111422 87.1998 
L 736.783439 83.168542 
L 738.455455 85.631855 
L 740.127472 79.480479 
L 741.799488 80.426686 
L 743.471505 81.080743 
L 745.143521 85.230331 
L 746.815538 84.152605 
L 748.487554 79.671181 
L 750.15957 84.046377 
L 751.831587 75.406342 
L 753.503603 75.105099 
L 755.17562 81.873892 
L 756.847636 82.961251 
L 758.519653 75.48731 
L 760.191669 83.38342 
L 761.863686 78.677051 
L 763.535702 80.950739 
L 765.207718 70.525928 
L 766.879735 76.820951 
L 768.551751 76.081697 
L 770.223768 78.101235 
L 771.895784 75.220181 
L 773.567801 72.912629 
L 775.239817 71.130052 
L 776.911834 68.833856 
L 778.58385 65.059393 
L 780.255866 78.411505 
L 781.927883 72.60359 
L 783.599899 67.362728 
L 785.271916 72.67571 
L 788.615949 64.679295 
L 790.287965 72.277703 
L 791.959982 73.947501 
L 793.631998 73.540498 
L 795.304014 68.636903 
L 796.976031 67.838933 
L 798.648047 67.999733 
L 800.320064 57.878276 
L 801.99208 69.313277 
L 803.664097 70.964789 
L 805.336113 63.016427 
L 807.00813 68.948791 
L 808.680146 67.236954 
L 810.352162 66.188626 
L 812.024179 66.595664 
L 813.696195 61.693578 
L 815.368212 63.353163 
L 817.040228 65.618842 
L 818.712245 69.828813 
L 820.384261 66.994022 
L 822.056278 65.370506 
L 823.728294 64.124174 
L 825.40031 64.134001 
L 827.072327 59.997092 
L 828.744343 62.567164 
L 830.41636 61.626692 
L 832.088376 57.739197 
L 833.760393 62.520635 
L 835.432409 64.925844 
L 837.104426 62.338312 
L 838.776442 66.939508 
L 840.448458 63.669104 
L 842.120475 62.033925 
L 845.464508 53.237259 
L 847.136524 48.090889 
L 848.808541 60.294801 
L 850.480557 64.52057 
L 852.152574 63.853532 
L 853.82459 57.421559 
L 855.496606 59.367049 
L 857.168623 57.210221 
L 858.840639 54.473563 
L 860.512656 62.803448 
L 862.184672 64.031166 
L 863.856689 52.13954 
L 865.528705 53.578149 
L 867.200722 58.619509 
L 868.872738 60.586002 
L 870.544754 58.860565 
L 872.216771 58.542144 
L 873.888787 59.795586 
L 875.560804 56.496856 
L 877.23282 55.82759 
L 878.904837 50.907412 
L 880.576853 52.305342 
L 882.24887 56.280954 
L 883.920886 55.160329 
L 885.592902 58.158259 
L 887.264919 55.311793 
L 888.936935 46.727936 
L 890.608952 56.514131 
L 892.280968 52.921786 
L 893.952985 49.623 
L 895.625001 52.198881 
L 897.297018 53.158317 
L 898.969034 50.965094 
L 900.64105 49.068418 
L 902.313067 55.754365 
L 903.985083 49.268881 
L 905.6571 50.870226 
L 907.329116 51.769193 
L 909.001133 50.602152 
L 910.673149 55.601068 
L 912.345165 52.213884 
L 914.017182 47.780755 
L 915.689198 53.529581 
L 917.361215 49.632213 
L 919.033231 46.86519 
L 920.705248 49.982287 
L 922.377264 51.050422 
L 924.049281 48.860259 
L 925.721297 44.698704 
L 927.393313 49.86466 
L 929.06533 49.82097 
L 930.737346 48.791336 
L 932.409363 52.013643 
L 934.081379 52.724246 
L 935.753396 48.272145 
L 937.425412 51.783459 
L 939.097429 50.446279 
L 940.769445 41.651523 
L 942.441461 46.289825 
L 944.113478 45.249417 
L 945.785494 40.306913 
L 947.457511 44.038767 
L 949.129527 45.511558 
L 950.801544 48.022443 
L 952.47356 46.631644 
L 954.145577 39.528447 
L 954.145577 39.528447 
" clip-path="url(#pe6470cec65)" style="fill: none; stroke: #1f77b4; stroke-width: 1.5; stroke-linecap: square"/>
   </g>
   <g id="line2d_26">
    <path d="M 93.057108 222.211606 
L 94.729125 226.647098 
L 96.401141 228.621677 
L 98.073158 187.659577 
L 99.745174 228.818437 
L 101.41719 230.635671 
L 103.089207 230.599835 
L 104.761223 231.04736 
L 106.43324 221.865184 
L 108.105256 227.569578 
L 109.777273 209.338701 
L 111.449289 230.957432 
L 113.121306 228.974357 
L 114.793322 230.85641 
L 116.465338 228.913249 
L 118.137355 230.678311 
L 121.481388 230.865749 
L 123.153404 224.266765 
L 124.825421 149.676987 
L 126.497437 233.622539 
L 128.169453 234.336426 
L 129.84147 235.764557 
L 131.513486 235.297335 
L 133.185503 233.701263 
L 134.857519 234.309998 
L 136.529536 235.688728 
L 138.201552 230.936158 
L 139.873569 231.074248 
L 141.545585 223.225766 
L 143.217601 230.793038 
L 144.889618 215.082912 
L 146.561634 225.965484 
L 148.233651 225.4288 
L 149.905667 215.084392 
L 151.577684 211.434518 
L 153.2497 221.099729 
L 154.921717 226.251796 
L 156.593733 225.735934 
L 158.265749 223.340502 
L 159.937766 228.528623 
L 161.609782 230.348215 
L 163.281799 227.551587 
L 164.953815 230.968112 
L 166.625832 232.632035 
L 168.297848 152.5598 
L 169.969865 200.571233 
L 171.641881 206.983539 
L 173.313897 214.896987 
L 174.985914 211.840568 
L 176.65793 155.298177 
L 178.329947 190.278733 
L 180.001963 212.810424 
L 181.67398 225.987575 
L 183.345996 224.128547 
L 185.018013 228.015131 
L 186.690029 204.623906 
L 190.034062 227.341834 
L 191.706078 224.946556 
L 193.378095 205.483947 
L 195.050111 218.405448 
L 196.722128 222.601968 
L 198.394144 180.339935 
L 201.738177 125.315959 
L 203.410193 154.241053 
L 205.08221 165.698091 
L 206.754226 186.480005 
L 208.426243 203.572765 
L 210.098259 206.629559 
L 211.770276 216.150129 
L 213.442292 188.756626 
L 215.114309 191.990221 
L 216.786325 198.5453 
L 218.458341 203.293719 
L 220.130358 215.768701 
L 221.802374 219.181293 
L 223.474391 212.730194 
L 225.146407 223.743644 
L 226.818424 112.959989 
L 228.49044 183.346563 
L 230.162457 174.349967 
L 231.834473 143.293958 
L 233.506489 157.638425 
L 235.178506 164.708701 
L 236.850522 164.648966 
L 238.522539 169.318862 
L 240.194555 167.13297 
L 241.866572 199.336202 
L 243.538588 199.595197 
L 245.210605 166.847807 
L 246.882621 171.721878 
L 248.554637 125.698072 
L 250.226654 164.050106 
L 251.89867 164.68406 
L 253.570687 167.26711 
L 255.242703 181.985366 
L 256.91472 202.816011 
L 258.586736 159.149326 
L 261.930769 132.56718 
L 263.602785 154.126285 
L 265.274802 148.648143 
L 266.946818 150.841977 
L 268.618835 97.913337 
L 270.290851 118.238524 
L 271.962868 131.176558 
L 273.634884 103.80648 
L 275.306901 120.522125 
L 276.978917 82.835266 
L 278.650933 75.191007 
L 280.32295 140.678892 
L 281.994966 160.444999 
L 283.666983 101.042077 
L 285.338999 128.490987 
L 287.011016 117.070338 
L 288.683032 148.801449 
L 290.355049 99.823901 
L 292.027065 135.401848 
L 293.699081 149.919821 
L 295.371098 138.453717 
L 297.043114 113.7605 
L 298.715131 107.72822 
L 300.387147 116.48966 
L 302.059164 69.068383 
L 303.73118 118.446089 
L 305.403197 75.253948 
L 307.075213 116.878511 
L 308.747229 70.679002 
L 310.419246 94.371257 
L 312.091262 80.263723 
L 315.435295 57.623889 
L 317.107312 76.519645 
L 318.779328 47.859173 
L 320.451344 80.774695 
L 322.123361 55.135992 
L 323.795377 60.979977 
L 325.467394 37.037134 
L 327.13941 58.237942 
L 328.811427 36.841818 
L 330.483443 41.975751 
L 332.15546 47.763015 
L 333.827476 40.120926 
L 335.499492 121.743116 
L 335.499492 121.743116 
" clip-path="url(#pe6470cec65)" style="fill: none; stroke: #ff7f0e; stroke-width: 1.5; stroke-linecap: square"/>
   </g>
   <g id="line2d_27">
    <path d="M 93.057108 226.670475 
L 96.401141 229.035845 
L 98.073158 228.133591 
L 99.745174 226.625263 
L 101.41719 230.916566 
L 103.089207 228.954992 
L 104.761223 226.137108 
L 106.43324 232.263537 
L 108.105256 231.158843 
L 109.777273 229.071958 
L 111.449289 230.175499 
L 113.121306 230.411202 
L 114.793322 214.190614 
L 116.465338 212.341466 
L 118.137355 229.973506 
L 119.809371 230.820105 
L 121.481388 230.68465 
L 123.153404 228.228971 
L 124.825421 230.408027 
L 126.497437 230.894097 
L 128.169453 227.771069 
L 129.84147 177.881313 
L 131.513486 233.326642 
L 133.185503 225.698908 
L 134.857519 226.241687 
L 136.529536 232.058906 
L 138.201552 231.312442 
L 139.873569 231.16674 
L 141.545585 229.807374 
L 143.217601 227.393527 
L 144.889618 232.659742 
L 146.561634 234.984263 
L 148.233651 182.636275 
L 149.905667 170.842903 
L 151.577684 219.018344 
L 153.2497 224.849257 
L 154.921717 221.858946 
L 156.593733 224.238679 
L 158.265749 224.095866 
L 159.937766 225.328977 
L 161.609782 214.274743 
L 163.281799 213.296455 
L 164.953815 225.212189 
L 166.625832 228.7748 
L 168.297848 199.052501 
L 169.969865 185.185462 
L 171.641881 223.027599 
L 173.313897 227.465279 
L 174.985914 217.310377 
L 176.65793 200.040457 
L 178.329947 227.392039 
L 180.001963 194.846719 
L 181.67398 230.695206 
L 183.345996 228.123662 
L 185.018013 197.156555 
L 186.690029 191.662865 
L 188.362045 194.047185 
L 190.034062 229.240138 
L 191.706078 212.484743 
L 193.378095 229.918512 
L 195.050111 201.708701 
L 196.722128 229.631417 
L 198.394144 229.791536 
L 200.066161 225.169475 
L 201.738177 233.234778 
L 203.410193 234.731178 
L 205.08221 217.502748 
L 206.754226 228.865032 
L 208.426243 226.046051 
L 210.098259 213.887505 
L 211.770276 230.328255 
L 213.442292 222.572107 
L 215.114309 226.150863 
L 216.786325 227.265197 
L 218.458341 221.148868 
L 220.130358 228.150998 
L 221.802374 232.238917 
L 223.474391 231.617099 
L 225.146407 206.368647 
L 226.818424 227.342469 
L 228.49044 227.163373 
L 230.162457 201.857859 
L 231.834473 223.951831 
L 233.506489 213.105533 
L 235.178506 195.653839 
L 236.850522 202.176181 
L 238.522539 198.857844 
L 240.194555 196.978173 
L 241.866572 211.416623 
L 243.538588 208.49072 
L 245.210605 206.410593 
L 246.882621 210.853611 
L 248.554637 215.699329 
L 250.226654 217.444225 
L 251.89867 186.241799 
L 253.570687 212.054395 
L 255.242703 215.208416 
L 256.91472 207.679834 
L 258.586736 192.793149 
L 260.258753 206.248916 
L 261.930769 201.049309 
L 263.602785 203.476521 
L 265.274802 220.057924 
L 266.946818 218.757523 
L 268.618835 180.257142 
L 270.290851 220.471482 
L 271.962868 195.240858 
L 273.634884 152.813278 
L 275.306901 208.434435 
L 276.978917 143.146169 
L 278.650933 198.866598 
L 280.32295 188.536449 
L 281.994966 203.136886 
L 283.666983 168.506719 
L 285.338999 206.235753 
L 287.011016 213.098233 
L 288.683032 198.511531 
L 290.355049 221.296477 
L 292.027065 205.552911 
L 293.699081 207.860362 
L 295.371098 213.773551 
L 297.043114 175.152662 
L 298.715131 206.121104 
L 300.387147 190.91603 
L 302.059164 192.62834 
L 303.73118 199.638842 
L 305.403197 211.239498 
L 307.075213 189.040055 
L 308.747229 217.253085 
L 310.419246 208.067882 
L 312.091262 205.187869 
L 313.763279 187.640241 
L 315.435295 198.846195 
L 317.107312 213.59613 
L 318.779328 196.897118 
L 320.451344 211.955638 
L 322.123361 210.025377 
L 323.795377 191.963415 
L 325.467394 201.79224 
L 327.13941 206.248015 
L 328.811427 204.592695 
L 330.483443 183.644942 
L 332.15546 210.51071 
L 333.827476 213.607398 
L 335.499492 210.473936 
L 337.171509 204.819838 
L 338.843525 221.670138 
L 340.515542 221.257398 
L 342.187558 216.121079 
L 343.859575 214.870951 
L 345.531591 214.914301 
L 347.203608 201.256194 
L 348.875624 208.24316 
L 350.54764 197.989643 
L 352.219657 212.131439 
L 355.56369 163.186899 
L 357.235706 197.681067 
L 358.907723 212.484341 
L 360.579739 180.111435 
L 362.251756 204.730083 
L 363.923772 214.149608 
L 365.595788 178.477796 
L 367.267805 164.780899 
L 368.939821 204.188542 
L 370.611838 201.140316 
L 372.283854 170.991013 
L 373.955871 208.418605 
L 375.627887 190.702845 
L 377.299904 195.882364 
L 378.97192 209.929153 
L 380.643936 172.791278 
L 382.315953 198.44292 
L 383.987969 214.229184 
L 385.659986 199.805916 
L 387.332002 204.207379 
L 389.004019 180.944938 
L 390.676035 208.772115 
L 392.348052 183.923981 
L 394.020068 169.838782 
L 395.692084 186.320315 
L 397.364101 205.009582 
L 399.036117 214.755102 
L 400.708134 192.171794 
L 402.38015 187.162081 
L 404.052167 197.214097 
L 405.724183 172.195828 
L 407.3962 173.569622 
L 409.068216 199.681765 
L 410.740232 183.077774 
L 412.412249 164.628614 
L 414.084265 189.46225 
L 415.756282 191.257301 
L 417.428298 182.336736 
L 419.100315 199.707796 
L 420.772331 190.943841 
L 422.444348 191.634849 
L 424.116364 212.141282 
L 425.78838 182.372124 
L 427.460397 188.137662 
L 430.80443 189.101887 
L 432.476446 154.473485 
L 434.148463 167.028945 
L 435.820479 189.194753 
L 437.492496 169.680544 
L 439.164512 191.834009 
L 440.836528 204.796856 
L 442.508545 170.922418 
L 444.180561 206.66118 
L 445.852578 195.800822 
L 447.524594 198.785916 
L 449.196611 158.162045 
L 450.868627 151.960454 
L 452.540644 168.324529 
L 454.21266 204.642932 
L 455.884676 171.941592 
L 457.556693 157.798216 
L 459.228709 198.050827 
L 460.900726 196.747134 
L 462.572742 174.330588 
L 464.244759 148.727852 
L 465.916775 176.458394 
L 467.588792 198.801934 
L 469.260808 136.741879 
L 470.932824 191.279101 
L 472.604841 180.460102 
L 474.276857 171.335672 
L 475.948874 164.928349 
L 477.62089 165.971677 
L 479.292907 177.71792 
L 480.964923 152.95611 
L 482.63694 151.659491 
L 484.308956 176.890243 
L 485.980972 181.587357 
L 487.652989 167.516123 
L 489.325005 162.208399 
L 490.997022 196.385295 
L 492.669038 170.445558 
L 494.341055 139.630455 
L 496.013071 162.767884 
L 497.685088 147.740196 
L 499.357104 176.511336 
L 501.02912 192.942835 
L 502.701137 148.79157 
L 504.373153 143.393416 
L 506.04517 134.72548 
L 507.717186 159.814648 
L 509.389203 155.940283 
L 511.061219 125.157825 
L 512.733236 157.481724 
L 514.405252 146.309402 
L 516.077268 182.938712 
L 517.749285 155.764243 
L 519.421301 170.174515 
L 521.093318 132.42189 
L 522.765334 146.825158 
L 524.437351 176.545233 
L 526.109367 129.986154 
L 527.781383 162.600959 
L 529.4534 156.278095 
L 531.125416 159.181738 
L 532.797433 114.368589 
L 534.469449 120.920162 
L 536.141466 162.979628 
L 537.813482 187.336662 
L 539.485499 141.627399 
L 541.157515 137.688052 
L 542.829531 162.283998 
L 544.501548 142.082942 
L 546.173564 134.458745 
L 547.845581 112.1347 
L 549.517597 101.986387 
L 551.189614 109.828432 
L 552.86163 142.158727 
L 554.533647 132.991615 
L 556.205663 131.17788 
L 557.877679 112.604064 
L 559.549696 140.356359 
L 561.221712 129.71544 
L 562.893729 149.466174 
L 564.565745 132.097866 
L 566.237762 146.683818 
L 567.909778 132.143252 
L 569.581795 135.062661 
L 571.253811 110.825165 
L 572.925827 146.35648 
L 576.26986 110.252365 
L 577.941877 122.329022 
L 579.613893 100.353074 
L 581.28591 109.720847 
L 582.957926 116.075804 
L 584.629943 140.221096 
L 586.301959 128.234648 
L 587.973975 125.922089 
L 589.645992 126.367288 
L 591.318008 117.940492 
L 592.990025 107.689309 
L 594.662041 86.3986 
L 596.334058 80.518699 
L 598.006074 124.794492 
L 599.678091 122.11866 
L 601.350107 129.773292 
L 603.022123 122.329974 
L 604.69414 97.710513 
L 606.366156 117.945562 
L 608.038173 101.179013 
L 609.710189 91.78196 
L 611.382206 101.175077 
L 613.054222 101.717614 
L 614.726239 106.360737 
L 616.398255 102.074289 
L 618.070271 101.407315 
L 619.742288 98.444935 
L 621.414304 129.920793 
L 624.758337 104.888148 
L 626.430354 117.068578 
L 628.10237 108.752071 
L 629.774387 107.250537 
L 631.446403 127.736342 
L 633.118419 98.982033 
L 634.790436 86.729418 
L 636.462452 85.287028 
L 638.134469 95.387736 
L 639.806485 107.325355 
L 641.478502 116.930199 
L 643.150518 105.5514 
L 646.494551 86.637643 
L 648.166567 95.631378 
L 649.838584 110.673543 
L 651.5106 93.80026 
L 653.182617 99.085093 
L 654.854633 101.468174 
L 656.52665 90.548252 
L 658.198666 81.440686 
L 661.542699 99.658774 
L 663.214715 103.811653 
L 664.886732 94.595317 
L 666.558748 96.300971 
L 668.230765 92.433459 
L 669.902781 89.56637 
L 671.574798 83.537616 
L 673.246814 78.026354 
L 674.918831 81.375463 
L 676.590847 81.194874 
L 678.262863 83.436562 
L 679.93488 97.679838 
L 681.606896 79.747714 
L 683.278913 65.417924 
L 684.950929 82.812129 
L 686.622946 84.479481 
L 688.294962 78.389039 
L 689.966979 81.992664 
L 691.638995 81.928716 
L 693.311011 86.98052 
L 694.983028 96.105505 
L 696.655044 84.103325 
L 698.327061 86.533759 
L 699.999077 80.174732 
L 701.671094 80.302579 
L 703.34311 82.991948 
L 705.015127 73.111784 
L 706.687143 76.429026 
L 708.359159 81.48469 
L 710.031176 87.073393 
L 711.703192 76.40316 
L 715.047225 81.37992 
L 716.719242 65.658331 
L 718.391258 68.2093 
L 720.063274 74.025771 
L 721.735291 76.009863 
L 723.407307 75.547844 
L 725.079324 72.044214 
L 726.75134 65.657617 
L 728.423357 71.274338 
L 730.095373 61.835941 
L 731.76739 64.865362 
L 733.439406 55.300414 
L 735.111422 68.511311 
L 736.783439 70.288219 
L 738.455455 59.22526 
L 740.127472 61.862357 
L 741.799488 69.250059 
L 743.471505 73.39886 
L 745.143521 78.06144 
L 746.815538 73.140759 
L 748.487554 63.711696 
L 750.15957 69.362866 
L 751.831587 65.719838 
L 753.503603 68.495977 
L 755.17562 65.69155 
L 756.847636 66.228192 
L 758.519653 60.954419 
L 760.191669 70.327302 
L 761.863686 58.716487 
L 763.535702 55.433838 
L 765.207718 62.523572 
L 766.879735 59.050179 
L 768.551751 66.844793 
L 770.223768 55.826991 
L 771.895784 56.593135 
L 775.239817 50.084546 
L 776.911834 47.191053 
L 778.58385 55.444189 
L 780.255866 58.471688 
L 781.927883 68.016564 
L 783.599899 59.635697 
L 785.271916 56.553114 
L 786.943932 57.651238 
L 788.615949 65.06522 
L 790.287965 64.773683 
L 791.959982 59.292813 
L 793.631998 61.889844 
L 795.304014 68.780296 
L 796.976031 54.779854 
L 798.648047 60.716591 
L 800.320064 68.812574 
L 801.99208 55.394591 
L 803.664097 56.284006 
L 805.336113 62.52678 
L 807.00813 50.415839 
L 808.680146 48.847814 
L 810.352162 58.485505 
L 812.024179 50.951864 
L 813.696195 63.367292 
L 815.368212 47.97285 
L 817.040228 52.093004 
L 818.712245 50.674597 
L 820.384261 60.404326 
L 822.056278 61.11893 
L 823.728294 63.760185 
L 825.40031 60.8154 
L 827.072327 59.887729 
L 828.744343 57.219148 
L 830.41636 55.449306 
L 832.088376 61.407332 
L 833.760393 59.414155 
L 835.432409 61.180727 
L 837.104426 50.439371 
L 838.776442 52.240657 
L 840.448458 53.011117 
L 842.120475 50.449831 
L 843.792491 54.198977 
L 845.464508 42.911622 
L 847.136524 50.0483 
L 848.808541 47.220471 
L 850.480557 45.14398 
L 852.152574 50.28218 
L 853.82459 45.81852 
L 855.496606 46.929341 
L 857.168623 51.808382 
L 858.840639 49.008468 
L 860.512656 43.541016 
L 862.184672 51.629265 
L 863.856689 55.12662 
L 865.528705 50.479334 
L 867.200722 51.751878 
L 868.872738 48.038017 
L 868.872738 48.038017 
" clip-path="url(#pe6470cec65)" style="fill: none; stroke: #2ca02c; stroke-width: 1.5; stroke-linecap: square"/>
   </g>
   <g id="patch_3">
    <path d="M 50.002685 246.04 
L 50.002685 26.88 
" style="fill: none; stroke: #000000; stroke-width: 0.8; stroke-linejoin: miter; stroke-linecap: square"/>
   </g>
   <g id="patch_4">
    <path d="M 997.2 246.04 
L 997.2 26.88 
" style="fill: none; stroke: #000000; stroke-width: 0.8; stroke-linejoin: miter; stroke-linecap: square"/>
   </g>
   <g id="patch_5">
    <path d="M 50.002685 246.04 
L 997.2 246.04 
" style="fill: none; stroke: #000000; stroke-width: 0.8; stroke-linejoin: miter; stroke-linecap: square"/>
   </g>
   <g id="patch_6">
    <path d="M 50.002685 26.88 
L 997.2 26.88 
" style="fill: none; stroke: #000000; stroke-width: 0.8; stroke-linejoin: miter; stroke-linecap: square"/>
   </g>
   <g id="text_11">
    <!-- Average HTTP Request Duration (log scale) -->
    <g transform="translate(394.352905 20.88) scale(0.12 -0.12)">
     <defs>
      <path id="DejaVuSans-48" d="M 628 4666 
L 1259 4666 
L 1259 2753 
L 3553 2753 
L 3553 4666 
L 4184 4666 
L 4184 0 
L 3553 0 
L 3553 2222 
L 1259 2222 
L 1259 0 
L 628 0 
L 628 4666 
z
" transform="scale(0.015625)"/>
      <path id="DejaVuSans-50" d="M 1259 4147 
L 1259 2394 
L 2053 2394 
Q 2494 2394 2734 2622 
Q 2975 2850 2975 3272 
Q 2975 3691 2734 3919 
Q 2494 4147 2053 4147 
L 1259 4147 
z
M 628 4666 
L 2053 4666 
Q 2838 4666 3239 4311 
Q 3641 3956 3641 3272 
Q 3641 2581 3239 2228 
Q 2838 1875 2053 1875 
L 1259 1875 
L 1259 0 
L 628 0 
L 628 4666 
z
" transform="scale(0.015625)"/>
      <path id="DejaVuSans-52" d="M 2841 2188 
Q 3044 2119 3236 1894 
Q 3428 1669 3622 1275 
L 4263 0 
L 3584 0 
L 2988 1197 
Q 2756 1666 2539 1819 
Q 2322 1972 1947 1972 
L 1259 1972 
L 1259 0 
L 628 0 
L 628 4666 
L 2053 4666 
Q 2853 4666 3247 4331 
Q 3641 3997 3641 3322 
Q 3641 2881 3436 2590 
Q 3231 2300 2841 2188 
z
M 1259 4147 
L 1259 2491 
L 2053 2491 
Q 2509 2491 2742 2702 
Q 2975 2913 2975 3322 
Q 2975 3731 2742 3939 
Q 2509 4147 2053 4147 
L 1259 4147 
z
" transform="scale(0.015625)"/>
      <path id="DejaVuSans-71" d="M 947 1747 
Q 947 1113 1208 752 
Q 1469 391 1925 391 
Q 2381 391 2643 752 
Q 2906 1113 2906 1747 
Q 2906 2381 2643 2742 
Q 2381 3103 1925 3103 
Q 1469 3103 1208 2742 
Q 947 2381 947 1747 
z
M 2906 525 
Q 2725 213 2448 61 
Q 2172 -91 1784 -91 
Q 1150 -91 751 415 
Q 353 922 353 1747 
Q 353 2572 751 3078 
Q 1150 3584 1784 3584 
Q 2172 3584 2448 3432 
Q 2725 3281 2906 2969 
L 2906 3500 
L 3481 3500 
L 3481 -1331 
L 2906 -1331 
L 2906 525 
z
" transform="scale(0.015625)"/>
      <path id="DejaVuSans-6c" d="M 603 4863 
L 1178 4863 
L 1178 0 
L 603 0 
L 603 4863 
z
" transform="scale(0.015625)"/>
     </defs>
     <use xlink:href="#DejaVuSans-41"/>
     <use xlink:href="#DejaVuSans-76" transform="translate(62.533203 0)"/>
     <use xlink:href="#DejaVuSans-65" transform="translate(121.712891 0)"/>
     <use xlink:href="#DejaVuSans-72" transform="translate(183.236328 0)"/>
     <use xlink:href="#DejaVuSans-61" transform="translate(224.349609 0)"/>
     <use xlink:href="#DejaVuSans-67" transform="translate(285.628906 0)"/>
     <use xlink:href="#DejaVuSans-65" transform="translate(349.105469 0)"/>
     <use xlink:href="#DejaVuSans-20" transform="translate(410.628906 0)"/>
     <use xlink:href="#DejaVuSans-48" transform="translate(442.416016 0)"/>
     <use xlink:href="#DejaVuSans-54" transform="translate(517.611328 0)"/>
     <use xlink:href="#DejaVuSans-54" transform="translate(576.945312 0)"/>
     <use xlink:href="#DejaVuSans-50" transform="translate(638.029297 0)"/>
     <use xlink:href="#DejaVuSans-20" transform="translate(698.332031 0)"/>
     <use xlink:href="#DejaVuSans-52" transform="translate(730.119141 0)"/>
     <use xlink:href="#DejaVuSans-65" transform="translate(795.101562 0)"/>
     <use xlink:href="#DejaVuSans-71" transform="translate(856.625 0)"/>
     <use xlink:href="#DejaVuSans-75" transform="translate(920.101562 0)"/>
     <use xlink:href="#DejaVuSans-65" transform="translate(983.480469 0)"/>
     <use xlink:href="#DejaVuSans-73" transform="translate(1045.003906 0)"/>
     <use xlink:href="#DejaVuSans-74" transform="translate(1097.103516 0)"/>
     <use xlink:href="#DejaVuSans-20" transform="translate(1136.3125 0)"/>
     <use xlink:href="#DejaVuSans-44" transform="translate(1168.099609 0)"/>
     <use xlink:href="#DejaVuSans-75" transform="translate(1245.101562 0)"/>
     <use xlink:href="#DejaVuSans-72" transform="translate(1308.480469 0)"/>
     <use xlink:href="#DejaVuSans-61" transform="translate(1349.59375 0)"/>
     <use xlink:href="#DejaVuSans-74" transform="translate(1410.873047 0)"/>
     <use xlink:href="#DejaVuSans-69" transform="translate(1450.082031 0)"/>
     <use xlink:href="#DejaVuSans-6f" transform="translate(1477.865234 0)"/>
     <use xlink:href="#DejaVuSans-6e" transform="translate(1539.046875 0)"/>
     <use xlink:href="#DejaVuSans-20" transform="translate(1602.425781 0)"/>
     <use xlink:href="#DejaVuSans-28" transform="translate(1634.212891 0)"/>
     <use xlink:href="#DejaVuSans-6c" transform="translate(1673.226562 0)"/>
     <use xlink:href="#DejaVuSans-6f" transform="translate(1701.009766 0)"/>
     <use xlink:href="#DejaVuSans-67" transform="translate(1762.191406 0)"/>
     <use xlink:href="#DejaVuSans-20" transform="translate(1825.667969 0)"/>
     <use xlink:href="#DejaVuSans-73" transform="translate(1857.455078 0)"/>
     <use xlink:href="#DejaVuSans-63" transform="translate(1909.554688 0)"/>
     <use xlink:href="#DejaVuSans-61" transform="translate(1964.535156 0)"/>
     <use xlink:href="#DejaVuSans-6c" transform="translate(2025.814453 0)"/>
     <use xlink:href="#DejaVuSans-65" transform="translate(2053.597656 0)"/>
     <use xlink:href="#DejaVuSans-29" transform="translate(2115.121094 0)"/>
    </g>
   </g>
   <g id="legend_1">
    <g id="patch_7">
     <path d="M 57.002685 78.914375 
L 190.346435 78.914375 
Q 192.346435 78.914375 192.346435 76.914375 
L 192.346435 33.88 
Q 192.346435 31.88 190.346435 31.88 
L 57.002685 31.88 
Q 55.002685 31.88 55.002685 33.88 
L 55.002685 76.914375 
Q 55.002685 78.914375 57.002685 78.914375 
z
" style="fill: #ffffff; opacity: 0.8; stroke: #cccccc; stroke-linejoin: miter"/>
    </g>
    <g id="line2d_28">
     <path d="M 59.002685 39.978438 
L 69.002685 39.978438 
L 79.002685 39.978438 
" style="fill: none; stroke: #1f77b4; stroke-width: 1.5; stroke-linecap: square"/>
    </g>
    <g id="text_12">
     <!-- Single Large Results -->
     <g transform="translate(87.002685 43.478438) scale(0.1 -0.1)">
      <defs>
       <path id="DejaVuSans-4c" d="M 628 4666 
L 1259 4666 
L 1259 531 
L 3531 531 
L 3531 0 
L 628 0 
L 628 4666 
z
" transform="scale(0.015625)"/>
      </defs>
      <use xlink:href="#DejaVuSans-53"/>
      <use xlink:href="#DejaVuSans-69" transform="translate(63.476562 0)"/>
      <use xlink:href="#DejaVuSans-6e" transform="translate(91.259766 0)"/>
      <use xlink:href="#DejaVuSans-67" transform="translate(154.638672 0)"/>
      <use xlink:href="#DejaVuSans-6c" transform="translate(218.115234 0)"/>
      <use xlink:href="#DejaVuSans-65" transform="translate(245.898438 0)"/>
      <use xlink:href="#DejaVuSans-20" transform="translate(307.421875 0)"/>
      <use xlink:href="#DejaVuSans-4c" transform="translate(339.208984 0)"/>
      <use xlink:href="#DejaVuSans-61" transform="translate(394.921875 0)"/>
      <use xlink:href="#DejaVuSans-72" transform="translate(456.201172 0)"/>
      <use xlink:href="#DejaVuSans-67" transform="translate(495.564453 0)"/>
      <use xlink:href="#DejaVuSans-65" transform="translate(559.041016 0)"/>
      <use xlink:href="#DejaVuSans-20" transform="translate(620.564453 0)"/>
      <use xlink:href="#DejaVuSans-52" transform="translate(652.351562 0)"/>
      <use xlink:href="#DejaVuSans-65" transform="translate(717.333984 0)"/>
      <use xlink:href="#DejaVuSans-73" transform="translate(778.857422 0)"/>
      <use xlink:href="#DejaVuSans-75" transform="translate(830.957031 0)"/>
      <use xlink:href="#DejaVuSans-6c" transform="translate(894.335938 0)"/>
      <use xlink:href="#DejaVuSans-74" transform="translate(922.119141 0)"/>
      <use xlink:href="#DejaVuSans-73" transform="translate(961.328125 0)"/>
     </g>
    </g>
    <g id="line2d_29">
     <path d="M 59.002685 54.656563 
L 69.002685 54.656563 
L 79.002685 54.656563 
" style="fill: none; stroke: #ff7f0e; stroke-width: 1.5; stroke-linecap: square"/>
    </g>
    <g id="text_13">
     <!-- Single Small Results -->
     <g transform="translate(87.002685 58.156563) scale(0.1 -0.1)">
      <use xlink:href="#DejaVuSans-53"/>
      <use xlink:href="#DejaVuSans-69" transform="translate(63.476562 0)"/>
      <use xlink:href="#DejaVuSans-6e" transform="translate(91.259766 0)"/>
      <use xlink:href="#DejaVuSans-67" transform="translate(154.638672 0)"/>
      <use xlink:href="#DejaVuSans-6c" transform="translate(218.115234 0)"/>
      <use xlink:href="#DejaVuSans-65" transform="translate(245.898438 0)"/>
      <use xlink:href="#DejaVuSans-20" transform="translate(307.421875 0)"/>
      <use xlink:href="#DejaVuSans-53" transform="translate(339.208984 0)"/>
      <use xlink:href="#DejaVuSans-6d" transform="translate(402.685547 0)"/>
      <use xlink:href="#DejaVuSans-61" transform="translate(500.097656 0)"/>
      <use xlink:href="#DejaVuSans-6c" transform="translate(561.376953 0)"/>
      <use xlink:href="#DejaVuSans-6c" transform="translate(589.160156 0)"/>
      <use xlink:href="#DejaVuSans-20" transform="translate(616.943359 0)"/>
      <use xlink:href="#DejaVuSans-52" transform="translate(648.730469 0)"/>
      <use xlink:href="#DejaVuSans-65" transform="translate(713.712891 0)"/>
      <use xlink:href="#DejaVuSans-73" transform="translate(775.236328 0)"/>
      <use xlink:href="#DejaVuSans-75" transform="translate(827.335938 0)"/>
      <use xlink:href="#DejaVuSans-6c" transform="translate(890.714844 0)"/>
      <use xlink:href="#DejaVuSans-74" transform="translate(918.498047 0)"/>
      <use xlink:href="#DejaVuSans-73" transform="translate(957.707031 0)"/>
     </g>
    </g>
    <g id="line2d_30">
     <path d="M 59.002685 69.334688 
L 69.002685 69.334688 
L 79.002685 69.334688 
" style="fill: none; stroke: #2ca02c; stroke-width: 1.5; stroke-linecap: square"/>
    </g>
    <g id="text_14">
     <!-- Multi Results -->
     <g transform="translate(87.002685 72.834688) scale(0.1 -0.1)">
      <defs>
       <path id="DejaVuSans-4d" d="M 628 4666 
L 1569 4666 
L 2759 1491 
L 3956 4666 
L 4897 4666 
L 4897 0 
L 4281 0 
L 4281 4097 
L 3078 897 
L 2444 897 
L 1241 4097 
L 1241 0 
L 628 0 
L 628 4666 
z
" transform="scale(0.015625)"/>
      </defs>
      <use xlink:href="#DejaVuSans-4d"/>
      <use xlink:href="#DejaVuSans-75" transform="translate(86.279297 0)"/>
      <use xlink:href="#DejaVuSans-6c" transform="translate(149.658203 0)"/>
      <use xlink:href="#DejaVuSans-74" transform="translate(177.441406 0)"/>
      <use xlink:href="#DejaVuSans-69" transform="translate(216.650391 0)"/>
      <use xlink:href="#DejaVuSans-20" transform="translate(244.433594 0)"/>
      <use xlink:href="#DejaVuSans-52" transform="translate(276.220703 0)"/>
      <use xlink:href="#DejaVuSans-65" transform="translate(341.203125 0)"/>
      <use xlink:href="#DejaVuSans-73" transform="translate(402.726562 0)"/>
      <use xlink:href="#DejaVuSans-75" transform="translate(454.826172 0)"/>
      <use xlink:href="#DejaVuSans-6c" transform="translate(518.205078 0)"/>
      <use xlink:href="#DejaVuSans-74" transform="translate(545.988281 0)"/>
      <use xlink:href="#DejaVuSans-73" transform="translate(585.197266 0)"/>
     </g>
    </g>
   </g>
  </g>
 </g>
 <defs>
  <clipPath id="pe6470cec65">
   <rect x="50.002685" y="26.88" width="947.197315" height="219.16"/>
  </clipPath>
 </defs>
</svg>
