<?xml version="1.0" encoding="utf-8" standalone="no"?>
<!DOCTYPE svg PUBLIC "-//W3C//DTD SVG 1.1//EN"
  "http://www.w3.org/Graphics/SVG/1.1/DTD/svg11.dtd">
<svg xmlns:xlink="http://www.w3.org/1999/xlink" width="864pt" height="432pt" viewBox="0 0 864 432" xmlns="http://www.w3.org/2000/svg" version="1.1">
 <metadata>
  <rdf:RDF xmlns:dc="http://purl.org/dc/elements/1.1/" xmlns:cc="http://creativecommons.org/ns#" xmlns:rdf="http://www.w3.org/1999/02/22-rdf-syntax-ns#">
   <cc:Work>
    <dc:type rdf:resource="http://purl.org/dc/dcmitype/StillImage"/>
    <dc:date>2025-05-31T16:14:33.721980</dc:date>
    <dc:format>image/svg+xml</dc:format>
    <dc:creator>
     <cc:Agent>
      <dc:title>Matplotlib v3.10.1, https://matplotlib.org/</dc:title>
     </cc:Agent>
    </dc:creator>
   </cc:Work>
  </rdf:RDF>
 </metadata>
 <defs>
  <style type="text/css">*{stroke-linejoin: round; stroke-linecap: butt}</style>
 </defs>
 <g id="figure_1">
  <g id="patch_1">
   <path d="M 0 432 
L 864 432 
L 864 0 
L 0 0 
z
" style="fill: #ffffff"/>
  </g>
  <g id="axes_1">
   <g id="patch_2">
    <path d="M 50.137685 390.04 
L 853.2 390.04 
L 853.2 41.856 
L 50.137685 41.856 
z
" style="fill: #ffffff"/>
   </g>
   <g id="matplotlib.axis_1">
    <g id="xtick_1">
     <g id="line2d_1">
      <defs>
       <path id="m0de22f2856" d="M 0 0 
L 0 3.5 
" style="stroke: #000000; stroke-width: 0.8"/>
      </defs>
      <g>
       <use xlink:href="#m0de22f2856" x="86.640517" y="390.04" style="stroke: #000000; stroke-width: 0.8"/>
      </g>
     </g>
     <g id="text_1">
      <!-- 0 -->
      <g transform="translate(83.459267 404.638438) scale(0.1 -0.1)">
       <defs>
        <path id="DejaVuSans-30" d="M 2034 4250 
Q 1547 4250 1301 3770 
Q 1056 3291 1056 2328 
Q 1056 1369 1301 889 
Q 1547 409 2034 409 
Q 2525 409 2770 889 
Q 3016 1369 3016 2328 
Q 3016 3291 2770 3770 
Q 2525 4250 2034 4250 
z
M 2034 4750 
Q 2819 4750 3233 4129 
Q 3647 3509 3647 2328 
Q 3647 1150 3233 529 
Q 2819 -91 2034 -91 
Q 1250 -91 836 529 
Q 422 1150 422 2328 
Q 422 3509 836 4129 
Q 1250 4750 2034 4750 
z
" transform="scale(0.015625)"/>
       </defs>
       <use xlink:href="#DejaVuSans-30"/>
      </g>
     </g>
    </g>
    <g id="xtick_2">
     <g id="line2d_2">
      <g>
       <use xlink:href="#m0de22f2856" x="232.691385" y="390.04" style="stroke: #000000; stroke-width: 0.8"/>
      </g>
     </g>
     <g id="text_2">
      <!-- 20 -->
      <g transform="translate(226.328885 404.638438) scale(0.1 -0.1)">
       <defs>
        <path id="DejaVuSans-32" d="M 1228 531 
L 3431 531 
L 3431 0 
L 469 0 
L 469 531 
Q 828 903 1448 1529 
Q 2069 2156 2228 2338 
Q 2531 2678 2651 2914 
Q 2772 3150 2772 3378 
Q 2772 3750 2511 3984 
Q 2250 4219 1831 4219 
Q 1534 4219 1204 4116 
Q 875 4013 500 3803 
L 500 4441 
Q 881 4594 1212 4672 
Q 1544 4750 1819 4750 
Q 2544 4750 2975 4387 
Q 3406 4025 3406 3419 
Q 3406 3131 3298 2873 
Q 3191 2616 2906 2266 
Q 2828 2175 2409 1742 
Q 1991 1309 1228 531 
z
" transform="scale(0.015625)"/>
       </defs>
       <use xlink:href="#DejaVuSans-32"/>
       <use xlink:href="#DejaVuSans-30" transform="translate(63.623047 0)"/>
      </g>
     </g>
    </g>
    <g id="xtick_3">
     <g id="line2d_3">
      <g>
       <use xlink:href="#m0de22f2856" x="378.742252" y="390.04" style="stroke: #000000; stroke-width: 0.8"/>
      </g>
     </g>
     <g id="text_3">
      <!-- 40 -->
      <g transform="translate(372.379752 404.638438) scale(0.1 -0.1)">
       <defs>
        <path id="DejaVuSans-34" d="M 2419 4116 
L 825 1625 
L 2419 1625 
L 2419 4116 
z
M 2253 4666 
L 3047 4666 
L 3047 1625 
L 3713 1625 
L 3713 1100 
L 3047 1100 
L 3047 0 
L 2419 0 
L 2419 1100 
L 313 1100 
L 313 1709 
L 2253 4666 
z
" transform="scale(0.015625)"/>
       </defs>
       <use xlink:href="#DejaVuSans-34"/>
       <use xlink:href="#DejaVuSans-30" transform="translate(63.623047 0)"/>
      </g>
     </g>
    </g>
    <g id="xtick_4">
     <g id="line2d_4">
      <g>
       <use xlink:href="#m0de22f2856" x="524.793119" y="390.04" style="stroke: #000000; stroke-width: 0.8"/>
      </g>
     </g>
     <g id="text_4">
      <!-- 60 -->
      <g transform="translate(518.430619 404.638438) scale(0.1 -0.1)">
       <defs>
        <path id="DejaVuSans-36" d="M 2113 2584 
Q 1688 2584 1439 2293 
Q 1191 2003 1191 1497 
Q 1191 994 1439 701 
Q 1688 409 2113 409 
Q 2538 409 2786 701 
Q 3034 994 3034 1497 
Q 3034 2003 2786 2293 
Q 2538 2584 2113 2584 
z
M 3366 4563 
L 3366 3988 
Q 3128 4100 2886 4159 
Q 2644 4219 2406 4219 
Q 1781 4219 1451 3797 
Q 1122 3375 1075 2522 
Q 1259 2794 1537 2939 
Q 1816 3084 2150 3084 
Q 2853 3084 3261 2657 
Q 3669 2231 3669 1497 
Q 3669 778 3244 343 
Q 2819 -91 2113 -91 
Q 1303 -91 875 529 
Q 447 1150 447 2328 
Q 447 3434 972 4092 
Q 1497 4750 2381 4750 
Q 2619 4750 2861 4703 
Q 3103 4656 3366 4563 
z
" transform="scale(0.015625)"/>
       </defs>
       <use xlink:href="#DejaVuSans-36"/>
       <use xlink:href="#DejaVuSans-30" transform="translate(63.623047 0)"/>
      </g>
     </g>
    </g>
    <g id="xtick_5">
     <g id="line2d_5">
      <g>
       <use xlink:href="#m0de22f2856" x="670.843987" y="390.04" style="stroke: #000000; stroke-width: 0.8"/>
      </g>
     </g>
     <g id="text_5">
      <!-- 80 -->
      <g transform="translate(664.481487 404.638438) scale(0.1 -0.1)">
       <defs>
        <path id="DejaVuSans-38" d="M 2034 2216 
Q 1584 2216 1326 1975 
Q 1069 1734 1069 1313 
Q 1069 891 1326 650 
Q 1584 409 2034 409 
Q 2484 409 2743 651 
Q 3003 894 3003 1313 
Q 3003 1734 2745 1975 
Q 2488 2216 2034 2216 
z
M 1403 2484 
Q 997 2584 770 2862 
Q 544 3141 544 3541 
Q 544 4100 942 4425 
Q 1341 4750 2034 4750 
Q 2731 4750 3128 4425 
Q 3525 4100 3525 3541 
Q 3525 3141 3298 2862 
Q 3072 2584 2669 2484 
Q 3125 2378 3379 2068 
Q 3634 1759 3634 1313 
Q 3634 634 3220 271 
Q 2806 -91 2034 -91 
Q 1263 -91 848 271 
Q 434 634 434 1313 
Q 434 1759 690 2068 
Q 947 2378 1403 2484 
z
M 1172 3481 
Q 1172 3119 1398 2916 
Q 1625 2713 2034 2713 
Q 2441 2713 2670 2916 
Q 2900 3119 2900 3481 
Q 2900 3844 2670 4047 
Q 2441 4250 2034 4250 
Q 1625 4250 1398 4047 
Q 1172 3844 1172 3481 
z
" transform="scale(0.015625)"/>
       </defs>
       <use xlink:href="#DejaVuSans-38"/>
       <use xlink:href="#DejaVuSans-30" transform="translate(63.623047 0)"/>
      </g>
     </g>
    </g>
    <g id="xtick_6">
     <g id="line2d_6">
      <g>
       <use xlink:href="#m0de22f2856" x="816.894854" y="390.04" style="stroke: #000000; stroke-width: 0.8"/>
      </g>
     </g>
     <g id="text_6">
      <!-- 100 -->
      <g transform="translate(807.351104 404.638438) scale(0.1 -0.1)">
       <defs>
        <path id="DejaVuSans-31" d="M 794 531 
L 1825 531 
L 1825 4091 
L 703 3866 
L 703 4441 
L 1819 4666 
L 2450 4666 
L 2450 531 
L 3481 531 
L 3481 0 
L 794 0 
L 794 531 
z
" transform="scale(0.015625)"/>
       </defs>
       <use xlink:href="#DejaVuSans-31"/>
       <use xlink:href="#DejaVuSans-30" transform="translate(63.623047 0)"/>
       <use xlink:href="#DejaVuSans-30" transform="translate(127.246094 0)"/>
      </g>
     </g>
    </g>
    <g id="text_7">
     <!-- Percentile (%) -->
     <g transform="translate(416.764936 418.316562) scale(0.1 -0.1)">
      <defs>
       <path id="DejaVuSans-50" d="M 1259 4147 
L 1259 2394 
L 2053 2394 
Q 2494 2394 2734 2622 
Q 2975 2850 2975 3272 
Q 2975 3691 2734 3919 
Q 2494 4147 2053 4147 
L 1259 4147 
z
M 628 4666 
L 2053 4666 
Q 2838 4666 3239 4311 
Q 3641 3956 3641 3272 
Q 3641 2581 3239 2228 
Q 2838 1875 2053 1875 
L 1259 1875 
L 1259 0 
L 628 0 
L 628 4666 
z
" transform="scale(0.015625)"/>
       <path id="DejaVuSans-65" d="M 3597 1894 
L 3597 1613 
L 953 1613 
Q 991 1019 1311 708 
Q 1631 397 2203 397 
Q 2534 397 2845 478 
Q 3156 559 3463 722 
L 3463 178 
Q 3153 47 2828 -22 
Q 2503 -91 2169 -91 
Q 1331 -91 842 396 
Q 353 884 353 1716 
Q 353 2575 817 3079 
Q 1281 3584 2069 3584 
Q 2775 3584 3186 3129 
Q 3597 2675 3597 1894 
z
M 3022 2063 
Q 3016 2534 2758 2815 
Q 2500 3097 2075 3097 
Q 1594 3097 1305 2825 
Q 1016 2553 972 2059 
L 3022 2063 
z
" transform="scale(0.015625)"/>
       <path id="DejaVuSans-72" d="M 2631 2963 
Q 2534 3019 2420 3045 
Q 2306 3072 2169 3072 
Q 1681 3072 1420 2755 
Q 1159 2438 1159 1844 
L 1159 0 
L 581 0 
L 581 3500 
L 1159 3500 
L 1159 2956 
Q 1341 3275 1631 3429 
Q 1922 3584 2338 3584 
Q 2397 3584 2469 3576 
Q 2541 3569 2628 3553 
L 2631 2963 
z
" transform="scale(0.015625)"/>
       <path id="DejaVuSans-63" d="M 3122 3366 
L 3122 2828 
Q 2878 2963 2633 3030 
Q 2388 3097 2138 3097 
Q 1578 3097 1268 2742 
Q 959 2388 959 1747 
Q 959 1106 1268 751 
Q 1578 397 2138 397 
Q 2388 397 2633 464 
Q 2878 531 3122 666 
L 3122 134 
Q 2881 22 2623 -34 
Q 2366 -91 2075 -91 
Q 1284 -91 818 406 
Q 353 903 353 1747 
Q 353 2603 823 3093 
Q 1294 3584 2113 3584 
Q 2378 3584 2631 3529 
Q 2884 3475 3122 3366 
z
" transform="scale(0.015625)"/>
       <path id="DejaVuSans-6e" d="M 3513 2113 
L 3513 0 
L 2938 0 
L 2938 2094 
Q 2938 2591 2744 2837 
Q 2550 3084 2163 3084 
Q 1697 3084 1428 2787 
Q 1159 2491 1159 1978 
L 1159 0 
L 581 0 
L 581 3500 
L 1159 3500 
L 1159 2956 
Q 1366 3272 1645 3428 
Q 1925 3584 2291 3584 
Q 2894 3584 3203 3211 
Q 3513 2838 3513 2113 
z
" transform="scale(0.015625)"/>
       <path id="DejaVuSans-74" d="M 1172 4494 
L 1172 3500 
L 2356 3500 
L 2356 3053 
L 1172 3053 
L 1172 1153 
Q 1172 725 1289 603 
Q 1406 481 1766 481 
L 2356 481 
L 2356 0 
L 1766 0 
Q 1100 0 847 248 
Q 594 497 594 1153 
L 594 3053 
L 172 3053 
L 172 3500 
L 594 3500 
L 594 4494 
L 1172 4494 
z
" transform="scale(0.015625)"/>
       <path id="DejaVuSans-69" d="M 603 3500 
L 1178 3500 
L 1178 0 
L 603 0 
L 603 3500 
z
M 603 4863 
L 1178 4863 
L 1178 4134 
L 603 4134 
L 603 4863 
z
" transform="scale(0.015625)"/>
       <path id="DejaVuSans-6c" d="M 603 4863 
L 1178 4863 
L 1178 0 
L 603 0 
L 603 4863 
z
" transform="scale(0.015625)"/>
       <path id="DejaVuSans-20" transform="scale(0.015625)"/>
       <path id="DejaVuSans-28" d="M 1984 4856 
Q 1566 4138 1362 3434 
Q 1159 2731 1159 2009 
Q 1159 1288 1364 580 
Q 1569 -128 1984 -844 
L 1484 -844 
Q 1016 -109 783 600 
Q 550 1309 550 2009 
Q 550 2706 781 3412 
Q 1013 4119 1484 4856 
L 1984 4856 
z
" transform="scale(0.015625)"/>
       <path id="DejaVuSans-25" d="M 4653 2053 
Q 4381 2053 4226 1822 
Q 4072 1591 4072 1178 
Q 4072 772 4226 539 
Q 4381 306 4653 306 
Q 4919 306 5073 539 
Q 5228 772 5228 1178 
Q 5228 1588 5073 1820 
Q 4919 2053 4653 2053 
z
M 4653 2450 
Q 5147 2450 5437 2106 
Q 5728 1763 5728 1178 
Q 5728 594 5436 251 
Q 5144 -91 4653 -91 
Q 4153 -91 3862 251 
Q 3572 594 3572 1178 
Q 3572 1766 3864 2108 
Q 4156 2450 4653 2450 
z
M 1428 4353 
Q 1159 4353 1004 4120 
Q 850 3888 850 3481 
Q 850 3069 1003 2837 
Q 1156 2606 1428 2606 
Q 1700 2606 1854 2837 
Q 2009 3069 2009 3481 
Q 2009 3884 1853 4118 
Q 1697 4353 1428 4353 
z
M 4250 4750 
L 4750 4750 
L 1831 -91 
L 1331 -91 
L 4250 4750 
z
M 1428 4750 
Q 1922 4750 2215 4408 
Q 2509 4066 2509 3481 
Q 2509 2891 2217 2550 
Q 1925 2209 1428 2209 
Q 931 2209 642 2551 
Q 353 2894 353 3481 
Q 353 4063 643 4406 
Q 934 4750 1428 4750 
z
" transform="scale(0.015625)"/>
       <path id="DejaVuSans-29" d="M 513 4856 
L 1013 4856 
Q 1481 4119 1714 3412 
Q 1947 2706 1947 2009 
Q 1947 1309 1714 600 
Q 1481 -109 1013 -844 
L 513 -844 
Q 928 -128 1133 580 
Q 1338 1288 1338 2009 
Q 1338 2731 1133 3434 
Q 928 4138 513 4856 
z
" transform="scale(0.015625)"/>
      </defs>
      <use xlink:href="#DejaVuSans-50"/>
      <use xlink:href="#DejaVuSans-65" transform="translate(56.677734 0)"/>
      <use xlink:href="#DejaVuSans-72" transform="translate(118.201172 0)"/>
      <use xlink:href="#DejaVuSans-63" transform="translate(157.064453 0)"/>
      <use xlink:href="#DejaVuSans-65" transform="translate(212.044922 0)"/>
      <use xlink:href="#DejaVuSans-6e" transform="translate(273.568359 0)"/>
      <use xlink:href="#DejaVuSans-74" transform="translate(336.947266 0)"/>
      <use xlink:href="#DejaVuSans-69" transform="translate(376.15625 0)"/>
      <use xlink:href="#DejaVuSans-6c" transform="translate(403.939453 0)"/>
      <use xlink:href="#DejaVuSans-65" transform="translate(431.722656 0)"/>
      <use xlink:href="#DejaVuSans-20" transform="translate(493.246094 0)"/>
      <use xlink:href="#DejaVuSans-28" transform="translate(525.033203 0)"/>
      <use xlink:href="#DejaVuSans-25" transform="translate(564.046875 0)"/>
      <use xlink:href="#DejaVuSans-29" transform="translate(659.066406 0)"/>
     </g>
    </g>
   </g>
   <g id="matplotlib.axis_2">
    <g id="ytick_1">
     <g id="line2d_7">
      <defs>
       <path id="m2946973acb" d="M 0 0 
L -3.5 0 
" style="stroke: #000000; stroke-width: 0.8"/>
      </defs>
      <g>
       <use xlink:href="#m2946973acb" x="50.137685" y="385.613251" style="stroke: #000000; stroke-width: 0.8"/>
      </g>
     </g>
     <g id="text_8">
      <!-- $\mathdefault{10^{1}}$ -->
      <g transform="translate(25.537685 389.41247) scale(0.1 -0.1)">
       <use xlink:href="#DejaVuSans-31" transform="translate(0 0.684375)"/>
       <use xlink:href="#DejaVuSans-30" transform="translate(63.623047 0.684375)"/>
       <use xlink:href="#DejaVuSans-31" transform="translate(128.203125 38.965625) scale(0.7)"/>
      </g>
     </g>
    </g>
    <g id="ytick_2">
     <g id="line2d_8">
      <g>
       <use xlink:href="#m2946973acb" x="50.137685" y="284.156563" style="stroke: #000000; stroke-width: 0.8"/>
      </g>
     </g>
     <g id="text_9">
      <!-- $\mathdefault{10^{2}}$ -->
      <g transform="translate(25.537685 287.955782) scale(0.1 -0.1)">
       <use xlink:href="#DejaVuSans-31" transform="translate(0 0.765625)"/>
       <use xlink:href="#DejaVuSans-30" transform="translate(63.623047 0.765625)"/>
       <use xlink:href="#DejaVuSans-32" transform="translate(128.203125 39.046875) scale(0.7)"/>
      </g>
     </g>
    </g>
    <g id="ytick_3">
     <g id="line2d_9">
      <g>
       <use xlink:href="#m2946973acb" x="50.137685" y="182.699876" style="stroke: #000000; stroke-width: 0.8"/>
      </g>
     </g>
     <g id="text_10">
      <!-- $\mathdefault{10^{3}}$ -->
      <g transform="translate(25.537685 186.499095) scale(0.1 -0.1)">
       <defs>
        <path id="DejaVuSans-33" d="M 2597 2516 
Q 3050 2419 3304 2112 
Q 3559 1806 3559 1356 
Q 3559 666 3084 287 
Q 2609 -91 1734 -91 
Q 1441 -91 1130 -33 
Q 819 25 488 141 
L 488 750 
Q 750 597 1062 519 
Q 1375 441 1716 441 
Q 2309 441 2620 675 
Q 2931 909 2931 1356 
Q 2931 1769 2642 2001 
Q 2353 2234 1838 2234 
L 1294 2234 
L 1294 2753 
L 1863 2753 
Q 2328 2753 2575 2939 
Q 2822 3125 2822 3475 
Q 2822 3834 2567 4026 
Q 2313 4219 1838 4219 
Q 1578 4219 1281 4162 
Q 984 4106 628 3988 
L 628 4550 
Q 988 4650 1302 4700 
Q 1616 4750 1894 4750 
Q 2613 4750 3031 4423 
Q 3450 4097 3450 3541 
Q 3450 3153 3228 2886 
Q 3006 2619 2597 2516 
z
" transform="scale(0.015625)"/>
       </defs>
       <use xlink:href="#DejaVuSans-31" transform="translate(0 0.765625)"/>
       <use xlink:href="#DejaVuSans-30" transform="translate(63.623047 0.765625)"/>
       <use xlink:href="#DejaVuSans-33" transform="translate(128.203125 39.046875) scale(0.7)"/>
      </g>
     </g>
    </g>
    <g id="ytick_4">
     <g id="line2d_10">
      <g>
       <use xlink:href="#m2946973acb" x="50.137685" y="81.243188" style="stroke: #000000; stroke-width: 0.8"/>
      </g>
     </g>
     <g id="text_11">
      <!-- $\mathdefault{10^{4}}$ -->
      <g transform="translate(25.537685 85.042407) scale(0.1 -0.1)">
       <use xlink:href="#DejaVuSans-31" transform="translate(0 0.684375)"/>
       <use xlink:href="#DejaVuSans-30" transform="translate(63.623047 0.684375)"/>
       <use xlink:href="#DejaVuSans-34" transform="translate(128.203125 38.965625) scale(0.7)"/>
      </g>
     </g>
    </g>
    <g id="ytick_5">
     <g id="line2d_11">
      <defs>
       <path id="md93e1a32f9" d="M 0 0 
L -2 0 
" style="stroke: #000000; stroke-width: 0.6"/>
      </defs>
      <g>
       <use xlink:href="#md93e1a32f9" x="50.137685" y="355.071745" style="stroke: #000000; stroke-width: 0.6"/>
      </g>
     </g>
    </g>
    <g id="ytick_6">
     <g id="line2d_12">
      <g>
       <use xlink:href="#md93e1a32f9" x="50.137685" y="337.206109" style="stroke: #000000; stroke-width: 0.6"/>
      </g>
     </g>
    </g>
    <g id="ytick_7">
     <g id="line2d_13">
      <g>
       <use xlink:href="#md93e1a32f9" x="50.137685" y="324.530239" style="stroke: #000000; stroke-width: 0.6"/>
      </g>
     </g>
    </g>
    <g id="ytick_8">
     <g id="line2d_14">
      <g>
       <use xlink:href="#md93e1a32f9" x="50.137685" y="314.69807" style="stroke: #000000; stroke-width: 0.6"/>
      </g>
     </g>
    </g>
    <g id="ytick_9">
     <g id="line2d_15">
      <g>
       <use xlink:href="#md93e1a32f9" x="50.137685" y="306.664603" style="stroke: #000000; stroke-width: 0.6"/>
      </g>
     </g>
    </g>
    <g id="ytick_10">
     <g id="line2d_16">
      <g>
       <use xlink:href="#md93e1a32f9" x="50.137685" y="299.872403" style="stroke: #000000; stroke-width: 0.6"/>
      </g>
     </g>
    </g>
    <g id="ytick_11">
     <g id="line2d_17">
      <g>
       <use xlink:href="#md93e1a32f9" x="50.137685" y="293.988732" style="stroke: #000000; stroke-width: 0.6"/>
      </g>
     </g>
    </g>
    <g id="ytick_12">
     <g id="line2d_18">
      <g>
       <use xlink:href="#md93e1a32f9" x="50.137685" y="288.798967" style="stroke: #000000; stroke-width: 0.6"/>
      </g>
     </g>
    </g>
    <g id="ytick_13">
     <g id="line2d_19">
      <g>
       <use xlink:href="#md93e1a32f9" x="50.137685" y="253.615057" style="stroke: #000000; stroke-width: 0.6"/>
      </g>
     </g>
    </g>
    <g id="ytick_14">
     <g id="line2d_20">
      <g>
       <use xlink:href="#md93e1a32f9" x="50.137685" y="235.749421" style="stroke: #000000; stroke-width: 0.6"/>
      </g>
     </g>
    </g>
    <g id="ytick_15">
     <g id="line2d_21">
      <g>
       <use xlink:href="#md93e1a32f9" x="50.137685" y="223.073551" style="stroke: #000000; stroke-width: 0.6"/>
      </g>
     </g>
    </g>
    <g id="ytick_16">
     <g id="line2d_22">
      <g>
       <use xlink:href="#md93e1a32f9" x="50.137685" y="213.241382" style="stroke: #000000; stroke-width: 0.6"/>
      </g>
     </g>
    </g>
    <g id="ytick_17">
     <g id="line2d_23">
      <g>
       <use xlink:href="#md93e1a32f9" x="50.137685" y="205.207915" style="stroke: #000000; stroke-width: 0.6"/>
      </g>
     </g>
    </g>
    <g id="ytick_18">
     <g id="line2d_24">
      <g>
       <use xlink:href="#md93e1a32f9" x="50.137685" y="198.415716" style="stroke: #000000; stroke-width: 0.6"/>
      </g>
     </g>
    </g>
    <g id="ytick_19">
     <g id="line2d_25">
      <g>
       <use xlink:href="#md93e1a32f9" x="50.137685" y="192.532045" style="stroke: #000000; stroke-width: 0.6"/>
      </g>
     </g>
    </g>
    <g id="ytick_20">
     <g id="line2d_26">
      <g>
       <use xlink:href="#md93e1a32f9" x="50.137685" y="187.342279" style="stroke: #000000; stroke-width: 0.6"/>
      </g>
     </g>
    </g>
    <g id="ytick_21">
     <g id="line2d_27">
      <g>
       <use xlink:href="#md93e1a32f9" x="50.137685" y="152.15837" style="stroke: #000000; stroke-width: 0.6"/>
      </g>
     </g>
    </g>
    <g id="ytick_22">
     <g id="line2d_28">
      <g>
       <use xlink:href="#md93e1a32f9" x="50.137685" y="134.292734" style="stroke: #000000; stroke-width: 0.6"/>
      </g>
     </g>
    </g>
    <g id="ytick_23">
     <g id="line2d_29">
      <g>
       <use xlink:href="#md93e1a32f9" x="50.137685" y="121.616863" style="stroke: #000000; stroke-width: 0.6"/>
      </g>
     </g>
    </g>
    <g id="ytick_24">
     <g id="line2d_30">
      <g>
       <use xlink:href="#md93e1a32f9" x="50.137685" y="111.784695" style="stroke: #000000; stroke-width: 0.6"/>
      </g>
     </g>
    </g>
    <g id="ytick_25">
     <g id="line2d_31">
      <g>
       <use xlink:href="#md93e1a32f9" x="50.137685" y="103.751228" style="stroke: #000000; stroke-width: 0.6"/>
      </g>
     </g>
    </g>
    <g id="ytick_26">
     <g id="line2d_32">
      <g>
       <use xlink:href="#md93e1a32f9" x="50.137685" y="96.959028" style="stroke: #000000; stroke-width: 0.6"/>
      </g>
     </g>
    </g>
    <g id="ytick_27">
     <g id="line2d_33">
      <g>
       <use xlink:href="#md93e1a32f9" x="50.137685" y="91.075357" style="stroke: #000000; stroke-width: 0.6"/>
      </g>
     </g>
    </g>
    <g id="ytick_28">
     <g id="line2d_34">
      <g>
       <use xlink:href="#md93e1a32f9" x="50.137685" y="85.885592" style="stroke: #000000; stroke-width: 0.6"/>
      </g>
     </g>
    </g>
    <g id="ytick_29">
     <g id="line2d_35">
      <g>
       <use xlink:href="#md93e1a32f9" x="50.137685" y="50.701682" style="stroke: #000000; stroke-width: 0.6"/>
      </g>
     </g>
    </g>
    <g id="text_12">
     <!-- Duration (ms) -->
     <g transform="translate(19.457997 250.62925) rotate(-90) scale(0.1 -0.1)">
      <defs>
       <path id="DejaVuSans-44" d="M 1259 4147 
L 1259 519 
L 2022 519 
Q 2988 519 3436 956 
Q 3884 1394 3884 2338 
Q 3884 3275 3436 3711 
Q 2988 4147 2022 4147 
L 1259 4147 
z
M 628 4666 
L 1925 4666 
Q 3281 4666 3915 4102 
Q 4550 3538 4550 2338 
Q 4550 1131 3912 565 
Q 3275 0 1925 0 
L 628 0 
L 628 4666 
z
" transform="scale(0.015625)"/>
       <path id="DejaVuSans-75" d="M 544 1381 
L 544 3500 
L 1119 3500 
L 1119 1403 
Q 1119 906 1312 657 
Q 1506 409 1894 409 
Q 2359 409 2629 706 
Q 2900 1003 2900 1516 
L 2900 3500 
L 3475 3500 
L 3475 0 
L 2900 0 
L 2900 538 
Q 2691 219 2414 64 
Q 2138 -91 1772 -91 
Q 1169 -91 856 284 
Q 544 659 544 1381 
z
M 1991 3584 
L 1991 3584 
z
" transform="scale(0.015625)"/>
       <path id="DejaVuSans-61" d="M 2194 1759 
Q 1497 1759 1228 1600 
Q 959 1441 959 1056 
Q 959 750 1161 570 
Q 1363 391 1709 391 
Q 2188 391 2477 730 
Q 2766 1069 2766 1631 
L 2766 1759 
L 2194 1759 
z
M 3341 1997 
L 3341 0 
L 2766 0 
L 2766 531 
Q 2569 213 2275 61 
Q 1981 -91 1556 -91 
Q 1019 -91 701 211 
Q 384 513 384 1019 
Q 384 1609 779 1909 
Q 1175 2209 1959 2209 
L 2766 2209 
L 2766 2266 
Q 2766 2663 2505 2880 
Q 2244 3097 1772 3097 
Q 1472 3097 1187 3025 
Q 903 2953 641 2809 
L 641 3341 
Q 956 3463 1253 3523 
Q 1550 3584 1831 3584 
Q 2591 3584 2966 3190 
Q 3341 2797 3341 1997 
z
" transform="scale(0.015625)"/>
       <path id="DejaVuSans-6f" d="M 1959 3097 
Q 1497 3097 1228 2736 
Q 959 2375 959 1747 
Q 959 1119 1226 758 
Q 1494 397 1959 397 
Q 2419 397 2687 759 
Q 2956 1122 2956 1747 
Q 2956 2369 2687 2733 
Q 2419 3097 1959 3097 
z
M 1959 3584 
Q 2709 3584 3137 3096 
Q 3566 2609 3566 1747 
Q 3566 888 3137 398 
Q 2709 -91 1959 -91 
Q 1206 -91 779 398 
Q 353 888 353 1747 
Q 353 2609 779 3096 
Q 1206 3584 1959 3584 
z
" transform="scale(0.015625)"/>
       <path id="DejaVuSans-6d" d="M 3328 2828 
Q 3544 3216 3844 3400 
Q 4144 3584 4550 3584 
Q 5097 3584 5394 3201 
Q 5691 2819 5691 2113 
L 5691 0 
L 5113 0 
L 5113 2094 
Q 5113 2597 4934 2840 
Q 4756 3084 4391 3084 
Q 3944 3084 3684 2787 
Q 3425 2491 3425 1978 
L 3425 0 
L 2847 0 
L 2847 2094 
Q 2847 2600 2669 2842 
Q 2491 3084 2119 3084 
Q 1678 3084 1418 2786 
Q 1159 2488 1159 1978 
L 1159 0 
L 581 0 
L 581 3500 
L 1159 3500 
L 1159 2956 
Q 1356 3278 1631 3431 
Q 1906 3584 2284 3584 
Q 2666 3584 2933 3390 
Q 3200 3197 3328 2828 
z
" transform="scale(0.015625)"/>
       <path id="DejaVuSans-73" d="M 2834 3397 
L 2834 2853 
Q 2591 2978 2328 3040 
Q 2066 3103 1784 3103 
Q 1356 3103 1142 2972 
Q 928 2841 928 2578 
Q 928 2378 1081 2264 
Q 1234 2150 1697 2047 
L 1894 2003 
Q 2506 1872 2764 1633 
Q 3022 1394 3022 966 
Q 3022 478 2636 193 
Q 2250 -91 1575 -91 
Q 1294 -91 989 -36 
Q 684 19 347 128 
L 347 722 
Q 666 556 975 473 
Q 1284 391 1588 391 
Q 1994 391 2212 530 
Q 2431 669 2431 922 
Q 2431 1156 2273 1281 
Q 2116 1406 1581 1522 
L 1381 1569 
Q 847 1681 609 1914 
Q 372 2147 372 2553 
Q 372 3047 722 3315 
Q 1072 3584 1716 3584 
Q 2034 3584 2315 3537 
Q 2597 3491 2834 3397 
z
" transform="scale(0.015625)"/>
      </defs>
      <use xlink:href="#DejaVuSans-44"/>
      <use xlink:href="#DejaVuSans-75" transform="translate(77.001953 0)"/>
      <use xlink:href="#DejaVuSans-72" transform="translate(140.380859 0)"/>
      <use xlink:href="#DejaVuSans-61" transform="translate(181.494141 0)"/>
      <use xlink:href="#DejaVuSans-74" transform="translate(242.773438 0)"/>
      <use xlink:href="#DejaVuSans-69" transform="translate(281.982422 0)"/>
      <use xlink:href="#DejaVuSans-6f" transform="translate(309.765625 0)"/>
      <use xlink:href="#DejaVuSans-6e" transform="translate(370.947266 0)"/>
      <use xlink:href="#DejaVuSans-20" transform="translate(434.326172 0)"/>
      <use xlink:href="#DejaVuSans-28" transform="translate(466.113281 0)"/>
      <use xlink:href="#DejaVuSans-6d" transform="translate(505.126953 0)"/>
      <use xlink:href="#DejaVuSans-73" transform="translate(602.539062 0)"/>
      <use xlink:href="#DejaVuSans-29" transform="translate(654.638672 0)"/>
     </g>
    </g>
   </g>
   <g id="line2d_36">
    <path d="M 86.640517 374.213455 
L 87.03589 373.141616 
L 87.233577 372.942517 
L 87.431264 372.929388 
L 87.826637 372.792411 
L 89.210443 372.673845 
L 91.187309 372.464216 
L 92.175742 372.39499 
L 94.547982 372.291729 
L 96.524848 372.189926 
L 100.083207 372.012695 
L 102.060073 371.92093 
L 106.211492 371.769919 
L 119.258808 371.367317 
L 126.375526 371.218017 
L 129.538512 371.131874 
L 140.806648 370.872773 
L 144.562694 370.787584 
L 150.690979 370.655555 
L 153.458591 370.533385 
L 157.412324 370.394484 
L 160.772996 370.254968 
L 171.448073 369.774654 
L 181.134717 368.784543 
L 182.518523 368.612204 
L 183.309269 368.436531 
L 185.879195 368.297085 
L 186.867628 368.19854 
L 188.449121 368.079234 
L 194.182033 367.729941 
L 196.356586 367.563308 
L 197.147332 367.460551 
L 203.473304 367.050275 
L 205.054797 366.812469 
L 207.229349 366.701462 
L 208.810842 366.425579 
L 210.392335 366.281762 
L 216.718307 365.602827 
L 217.11368 365.477592 
L 222.451218 365.022625 
L 222.846591 364.873378 
L 224.032711 364.745413 
L 226.207264 364.395082 
L 226.99801 364.29823 
L 227.393383 364.18075 
L 230.754056 363.737698 
L 231.742489 363.634368 
L 232.533235 363.46853 
L 234.312415 363.190259 
L 235.300848 363.007612 
L 235.696221 362.90411 
L 236.684654 362.800712 
L 237.277714 362.705618 
L 237.870774 362.610484 
L 244.789805 361.19675 
L 248.150478 360.850391 
L 251.313463 360.351938 
L 251.708837 360.248086 
L 252.499583 360.100371 
L 255.860255 359.843479 
L 257.639435 359.708979 
L 258.232495 359.628191 
L 260.011674 359.491252 
L 260.802421 359.394072 
L 262.976973 359.15863 
L 263.372346 359.066999 
L 278.198842 357.815476 
L 279.780335 357.714315 
L 293.223025 356.608899 
L 295.199891 356.434987 
L 296.38601 356.328074 
L 299.351309 356.117793 
L 302.316609 355.995116 
L 303.898102 355.893358 
L 305.874968 355.792544 
L 309.23564 355.527962 
L 311.410193 355.41161 
L 312.596312 355.30572 
L 314.375492 355.17496 
L 316.154671 355.025442 
L 318.526911 354.772511 
L 319.11997 354.692138 
L 322.08527 354.560862 
L 322.678329 354.489001 
L 324.062136 354.293115 
L 326.632062 354.098943 
L 330.388107 353.695465 
L 333.15572 353.416826 
L 333.946466 353.313386 
L 335.725646 353.193955 
L 338.295572 353.052522 
L 345.609976 352.456651 
L 353.912814 351.916509 
L 356.087367 351.799292 
L 361.622592 351.499919 
L 362.215651 351.386152 
L 362.808711 351.283137 
L 365.378637 351.116836 
L 370.913862 350.776603 
L 374.669908 350.654569 
L 378.821327 350.460179 
L 380.798193 350.349112 
L 385.740358 350.098213 
L 387.914911 349.98739 
L 390.089463 349.894677 
L 390.682523 349.83431 
L 397.008495 349.539193 
L 403.927526 349.0833 
L 410.648871 348.824186 
L 413.218797 348.726304 
L 416.974842 348.603657 
L 417.963275 348.536468 
L 436.94119 347.801919 
L 438.720369 347.732631 
L 451.767686 347.116421 
L 457.105224 346.953155 
L 460.86127 346.836324 
L 474.106273 346.324429 
L 478.060005 346.200109 
L 483.397543 346.082924 
L 491.700381 345.918716 
L 504.747697 345.582233 
L 520.760313 345.187298 
L 521.748746 345.147339 
L 524.714045 345.030796 
L 530.84233 344.870749 
L 535.389122 344.745822 
L 537.365988 344.674004 
L 542.110466 344.482344 
L 546.064199 344.317445 
L 553.971663 343.972313 
L 558.123082 343.793486 
L 559.111515 343.742888 
L 560.890694 343.652088 
L 562.076814 343.574108 
L 566.821293 343.387669 
L 568.007412 343.321999 
L 570.775025 343.216261 
L 573.147264 343.061819 
L 584.415401 342.534187 
L 587.97376 342.409124 
L 588.764506 342.337762 
L 598.253464 341.558932 
L 599.834956 341.438339 
L 604.381748 341.13308 
L 605.765555 340.913844 
L 607.544734 340.797908 
L 630.476381 338.107104 
L 631.267127 337.919229 
L 632.057874 337.839687 
L 632.453247 337.759717 
L 634.6278 337.621055 
L 635.418546 337.456271 
L 636.802353 337.252631 
L 637.395412 337.095742 
L 639.569965 336.893815 
L 640.953771 336.654079 
L 641.942204 336.500702 
L 644.51213 336.124127 
L 645.10519 335.990013 
L 646.093623 335.889913 
L 650.442729 335.265 
L 652.419595 335.046987 
L 655.58258 334.572996 
L 655.977954 334.466427 
L 657.164073 334.345668 
L 658.152506 334.117893 
L 659.140939 333.956169 
L 660.327059 333.629369 
L 661.117806 333.460274 
L 665.466911 332.85601 
L 665.664598 332.68811 
L 667.048404 332.478066 
L 667.83915 332.395335 
L 668.43221 332.343707 
L 669.222957 332.137356 
L 670.013703 332.064691 
L 670.804449 331.941481 
L 671.595196 331.751567 
L 673.176689 331.619671 
L 673.572062 331.412854 
L 674.362808 331.346185 
L 674.955868 331.189687 
L 676.932734 331.002589 
L 678.711914 330.157181 
L 679.107287 330.014435 
L 680.293407 329.787779 
L 680.68878 329.570759 
L 685.828632 328.589172 
L 686.224005 328.346993 
L 687.410125 328.20177 
L 688.793931 327.648604 
L 688.991618 327.456244 
L 690.57311 327.256517 
L 692.747663 326.386263 
L 692.94535 326.386159 
L 693.340723 326.123265 
L 694.131469 326.015587 
L 694.526843 325.831227 
L 694.922216 325.79418 
L 695.317589 325.34352 
L 695.515276 325.167269 
L 696.701395 325.022608 
L 698.085202 324.612616 
L 698.282888 324.347948 
L 699.864381 323.981888 
L 700.259754 323.631688 
L 700.457441 323.61556 
L 701.248187 323.157632 
L 702.23662 322.981108 
L 702.82968 322.919254 
L 703.225053 322.805021 
L 704.806546 322.515137 
L 706.585726 322.229874 
L 707.376472 321.905313 
L 708.364905 321.707894 
L 709.946398 321.42328 
L 710.737145 321.269813 
L 711.527891 320.933716 
L 711.725578 320.855829 
L 712.120951 320.602657 
L 713.702444 320.265778 
L 714.295504 320.075999 
L 714.888563 319.953477 
L 716.470056 319.161069 
L 716.667743 318.879017 
L 717.063116 318.832298 
L 718.051549 318.19322 
L 720.423788 317.639121 
L 720.621475 317.320332 
L 721.016848 317.306021 
L 721.412222 316.876685 
L 722.005281 316.738517 
L 722.400655 316.562518 
L 722.993714 316.299322 
L 724.772894 315.294876 
L 725.168267 315.211259 
L 725.365954 314.840722 
L 725.56364 314.720312 
L 726.1567 313.93152 
L 726.74976 313.78679 
L 727.93588 313.121696 
L 729.517373 312.701084 
L 729.715059 312.666942 
L 729.912746 312.512025 
L 730.505806 312.399486 
L 731.098865 312.044003 
L 731.494239 311.990112 
L 731.691925 311.728183 
L 731.889612 311.206696 
L 732.284985 311.026957 
L 732.680358 310.865489 
L 732.878045 310.700044 
L 733.075732 310.689711 
L 733.273418 310.530924 
L 734.064165 310.443033 
L 734.657224 310.187559 
L 735.447971 309.964311 
L 736.041031 309.630447 
L 738.808643 309.155242 
L 739.59939 308.771439 
L 739.994763 308.68218 
L 740.390136 308.441684 
L 741.180883 308.27608 
L 741.576256 308.257293 
L 741.773942 308.044254 
L 742.367002 307.910514 
L 743.553122 307.542081 
L 743.948495 307.322304 
L 744.146182 307.303956 
L 744.541555 307.123989 
L 744.739242 307.122786 
L 745.727675 306.41133 
L 746.913794 306.239679 
L 747.309167 306.093299 
L 747.902227 305.988498 
L 749.088347 305.315798 
L 749.681407 305.207889 
L 750.66984 305.084636 
L 750.867526 304.837412 
L 751.658273 304.545111 
L 751.855959 304.149333 
L 752.251333 304.021074 
L 752.646706 303.868761 
L 755.216632 303.139572 
L 755.612005 303.00587 
L 757.193498 302.495425 
L 757.588871 302.473134 
L 757.786558 302.211367 
L 758.181931 302.141805 
L 758.577304 301.96406 
L 760.55417 301.387782 
L 760.751857 301.100013 
L 760.949544 301.081733 
L 761.344917 300.790595 
L 761.542603 300.471206 
L 762.135663 300.308241 
L 762.92641 299.63922 
L 763.321783 299.248878 
L 763.717156 299.231069 
L 764.310216 298.276785 
L 764.705589 297.956184 
L 766.089395 297.785849 
L 767.473202 297.398159 
L 768.066261 297.298328 
L 768.461635 297.098706 
L 768.857008 297.060407 
L 769.450068 296.475892 
L 769.647754 296.440122 
L 770.043128 296.183838 
L 770.636187 295.972706 
L 771.031561 295.86798 
L 771.426934 295.775027 
L 772.415367 295.630805 
L 773.206113 295.420255 
L 773.601487 295.28778 
L 773.99686 295.131734 
L 775.182979 294.520088 
L 776.369099 294.194728 
L 776.566786 293.799532 
L 777.159846 293.501759 
L 778.543652 292.454971 
L 779.729771 292.272986 
L 780.125145 291.95832 
L 780.520518 291.891788 
L 780.915891 291.633732 
L 781.113578 291.311479 
L 781.508951 291.21554 
L 782.892757 291.050723 
L 783.28813 290.798846 
L 784.078877 290.422949 
L 784.47425 290.096864 
L 785.264997 290.004724 
L 785.66037 289.814364 
L 785.858056 289.744497 
L 786.055743 289.44996 
L 786.25343 288.913206 
L 786.451116 288.906747 
L 786.846489 288.544729 
L 787.241863 288.235375 
L 788.032609 287.921183 
L 788.230296 287.711869 
L 788.427982 287.304125 
L 789.218729 287.042398 
L 789.416415 286.640332 
L 789.614102 286.607277 
L 790.009475 286.001891 
L 790.207162 285.27733 
L 790.602535 285.060293 
L 790.800222 285.027256 
L 790.997908 284.735122 
L 791.195595 284.707524 
L 791.393281 284.289009 
L 791.590968 284.274103 
L 791.788655 284.101671 
L 792.184028 283.381754 
L 792.381714 283.318499 
L 792.777088 282.846831 
L 793.172461 282.352308 
L 793.567834 282.208545 
L 793.765521 281.836414 
L 794.358581 281.584951 
L 794.556267 281.542948 
L 794.753954 281.371492 
L 795.347014 281.261166 
L 795.742387 281.066625 
L 796.13776 280.90152 
L 797.32388 280.741677 
L 797.719253 280.125148 
L 797.91694 280.018004 
L 798.114626 279.693706 
L 798.707686 279.405777 
L 799.498432 279.040449 
L 799.893806 278.622452 
L 800.289179 278.255076 
L 800.684552 277.015405 
L 801.277612 276.611293 
L 801.475299 275.836855 
L 801.672985 275.757988 
L 801.870672 275.053749 
L 802.661418 274.507538 
L 802.859105 273.488998 
L 803.056791 273.344771 
L 803.254478 272.953754 
L 803.452165 270.605103 
L 803.649851 269.625457 
L 804.045224 265.62235 
L 804.242911 265.185078 
L 804.440598 263.905051 
L 804.835971 263.781715 
L 805.033658 263.467701 
L 805.231344 263.451992 
L 805.824404 263.001113 
L 806.022091 262.38201 
L 806.812837 261.792493 
L 807.20821 260.628481 
L 807.405897 260.055021 
L 807.603583 259.983986 
L 808.39433 259.246027 
L 808.592016 259.229783 
L 808.98739 257.249542 
L 809.185076 256.946004 
L 809.382763 254.091425 
L 809.58045 254.085729 
L 809.975823 253.802119 
L 810.173509 252.112574 
L 810.371196 249.392861 
L 811.161942 249.266891 
L 812.941122 249.004901 
L 813.138809 248.238544 
L 813.336495 246.067946 
L 813.534182 241.744642 
L 813.731868 239.913484 
L 813.929555 239.83624 
L 814.127242 239.319082 
L 814.324928 232.388603 
L 814.522615 231.749338 
L 815.115675 227.832854 
L 815.313361 226.958429 
L 815.511048 225.193371 
L 815.708734 224.488167 
L 816.104108 224.338711 
L 816.301794 217.261321 
L 816.697167 168.208332 
L 816.697167 168.208332 
" clip-path="url(#p727fa2b339)" style="fill: none; stroke: #1f77b4; stroke-width: 1.5; stroke-linecap: square"/>
   </g>
   <g id="line2d_37">
    <path d="M 86.640517 372.82993 
L 87.720775 372.271 
L 88.260904 371.647134 
L 88.801033 371.399592 
L 89.881291 371.297976 
L 90.961549 370.559732 
L 96.362838 370.118946 
L 96.902967 370.08959 
L 97.443096 369.21566 
L 97.983225 368.871354 
L 98.523354 368.853428 
L 99.063483 368.373914 
L 99.603612 368.138583 
L 100.143741 368.10975 
L 100.68387 367.869436 
L 102.844386 367.656527 
L 105.004901 367.535717 
L 106.085159 367.372509 
L 110.406191 366.86557 
L 112.566707 366.661321 
L 114.187094 366.470217 
L 114.727223 366.333454 
L 115.267351 365.60703 
L 115.80748 365.093955 
L 117.427867 364.139526 
L 117.967996 363.641192 
L 118.508125 363.634481 
L 119.048254 363.320964 
L 119.588383 363.283353 
L 120.128512 362.223008 
L 120.668641 362.039983 
L 121.748899 361.377915 
L 122.289028 360.743414 
L 124.989673 360.190303 
L 126.06993 359.746683 
L 126.610059 359.697804 
L 127.150188 359.194119 
L 128.230446 358.91294 
L 128.770575 357.534505 
L 129.310704 356.631467 
L 129.850833 356.527087 
L 130.390962 352.967805 
L 131.47122 352.728935 
L 132.011349 352.691802 
L 132.551478 352.350294 
L 133.091607 352.266101 
L 133.631736 351.967469 
L 134.171865 350.670878 
L 134.711994 350.503837 
L 135.252123 348.126751 
L 135.792251 347.642621 
L 136.33238 347.60394 
L 136.872509 346.923817 
L 143.354057 345.920816 
L 144.434315 345.912239 
L 145.514573 345.594842 
L 148.215217 344.667842 
L 148.755346 343.892931 
L 149.835604 343.602789 
L 150.915862 343.458299 
L 151.455991 342.336732 
L 152.536249 341.940381 
L 153.076378 337.416047 
L 153.616507 335.783278 
L 154.156636 335.780106 
L 154.696765 335.630662 
L 155.236894 334.597755 
L 155.777023 334.027463 
L 156.317151 333.733493 
L 156.85728 333.069852 
L 157.397409 332.960623 
L 157.937538 332.518619 
L 158.477667 332.383094 
L 159.017796 331.796329 
L 160.098054 331.25331 
L 160.638183 327.571188 
L 161.178312 327.149135 
L 161.718441 326.525775 
L 162.798699 324.934236 
L 163.338828 323.401521 
L 163.878957 322.645548 
L 164.419086 318.884276 
L 164.959215 317.32115 
L 165.499344 316.260631 
L 166.579601 315.047512 
L 167.11973 314.913103 
L 167.659859 314.513109 
L 168.199988 313.339504 
L 168.740117 312.968365 
L 169.280246 312.931558 
L 169.820375 310.709347 
L 170.360504 305.34449 
L 170.900633 304.919758 
L 171.440762 304.644392 
L 171.980891 302.850508 
L 172.52102 291.650489 
L 173.061149 289.817423 
L 173.601278 286.551208 
L 174.681536 285.693234 
L 175.221665 285.668381 
L 175.761794 281.595718 
L 176.842051 280.649439 
L 177.38218 278.415242 
L 177.922309 270.643214 
L 178.462438 265.456771 
L 179.002567 261.774174 
L 179.542696 259.331482 
L 180.082825 258.939745 
L 181.163083 257.908983 
L 181.703212 257.788137 
L 182.243341 256.530175 
L 182.78347 253.786952 
L 183.863728 253.288059 
L 184.403857 252.11169 
L 184.943986 251.204412 
L 186.024244 247.69487 
L 186.564373 247.051873 
L 187.104501 245.084246 
L 187.64463 244.122264 
L 188.724888 243.799643 
L 189.805146 242.790511 
L 190.345275 236.780506 
L 192.505791 236.298183 
L 193.04592 236.25305 
L 194.126178 235.121112 
L 195.206436 234.870496 
L 195.746565 234.289159 
L 196.286694 233.919427 
L 196.826823 233.754283 
L 197.366951 233.407124 
L 197.90708 232.005494 
L 198.447209 229.248638 
L 198.987338 228.074381 
L 199.527467 227.872003 
L 200.607725 221.381216 
L 201.147854 220.225984 
L 201.687983 219.900764 
L 202.228112 219.827874 
L 202.768241 218.037422 
L 203.848499 216.98949 
L 204.928757 214.511224 
L 205.468886 213.772468 
L 206.549144 213.174441 
L 211.410304 212.72008 
L 211.950433 212.514086 
L 212.490562 211.364848 
L 213.030691 210.791267 
L 213.57082 210.021038 
L 214.110949 209.877735 
L 214.651078 208.107549 
L 215.191207 208.083188 
L 215.731336 207.884438 
L 216.811594 207.755897 
L 217.351723 207.493277 
L 217.891851 207.369655 
L 218.43198 206.801647 
L 218.972109 205.850544 
L 219.512238 205.388427 
L 220.052367 205.28854 
L 220.592496 204.797907 
L 221.672754 202.886023 
L 225.453657 202.18413 
L 225.993786 201.98411 
L 227.074044 200.483761 
L 227.614173 200.117734 
L 228.69443 198.753778 
L 229.234559 198.489499 
L 229.774688 197.978866 
L 230.314817 197.858391 
L 230.854946 197.456149 
L 231.395075 197.255072 
L 231.935204 196.481443 
L 234.09572 196.177805 
L 237.876623 196.060195 
L 239.497009 195.97255 
L 240.037138 195.671944 
L 241.657525 195.552993 
L 242.197654 195.33991 
L 242.737783 194.969166 
L 243.277912 194.887757 
L 243.818041 193.415571 
L 244.35817 193.164462 
L 245.438428 193.049376 
L 248.139073 192.243161 
L 248.679201 191.064694 
L 249.21933 191.037032 
L 249.759459 190.796887 
L 250.299588 190.789272 
L 250.839717 190.598803 
L 251.919975 190.552841 
L 252.460104 189.987264 
L 253.000233 189.756096 
L 253.540362 189.065382 
L 254.62062 188.928057 
L 256.241007 188.702085 
L 256.781136 187.780047 
L 258.401523 187.714419 
L 259.48178 187.584335 
L 262.182425 187.282553 
L 264.88307 187.143411 
L 268.663973 186.704416 
L 269.204101 186.257308 
L 269.74423 186.174297 
L 270.284359 185.234179 
L 272.444875 184.863829 
L 274.065262 184.437554 
L 274.605391 184.156689 
L 276.225778 183.932407 
L 277.306036 183.886223 
L 278.386294 183.516341 
L 281.627067 182.499202 
L 286.488228 181.586847 
L 287.028357 181.569484 
L 287.568486 181.418434 
L 289.729001 181.310644 
L 290.26913 180.35073 
L 290.809259 180.073795 
L 291.349388 180.062069 
L 292.429646 179.579219 
L 292.969775 179.572159 
L 293.509904 179.410154 
L 294.050033 179.082537 
L 294.590162 179.041358 
L 295.130291 178.883568 
L 298.911194 178.753485 
L 303.232225 178.518637 
L 303.772354 178.262539 
L 305.392741 178.14657 
L 305.93287 177.749804 
L 308.633515 177.387224 
L 309.173644 177.047914 
L 312.954546 176.131012 
L 313.494675 175.769008 
L 314.574933 175.684597 
L 315.655191 175.369963 
L 321.05648 175.00061 
L 323.757125 174.88857 
L 326.45777 174.642441 
L 326.997899 174.623319 
L 327.538028 174.11876 
L 330.778801 173.841867 
L 333.479446 173.353431 
L 334.019575 173.139775 
L 338.880736 172.891355 
L 339.960994 172.763135 
L 342.661638 172.316172 
L 345.902412 171.828153 
L 346.98267 171.7152 
L 348.603057 171.637895 
L 349.143186 170.676953 
L 349.683315 170.60849 
L 350.223444 170.378245 
L 351.84383 170.124407 
L 352.383959 168.945074 
L 352.924088 168.713851 
L 354.004346 167.864 
L 355.084604 167.722089 
L 355.624733 167.458527 
L 356.704991 167.357366 
L 357.24512 166.899971 
L 359.405636 166.203248 
L 359.945765 165.708635 
L 361.566151 165.298854 
L 363.186538 164.910521 
L 364.806925 164.650293 
L 365.887183 164.58901 
L 366.427312 164.236268 
L 366.967441 163.4462 
L 368.047699 163.198941 
L 372.36873 162.249103 
L 372.908859 161.849159 
L 376.689762 161.710376 
L 381.010794 161.48323 
L 382.63118 161.236617 
L 384.791696 161.096743 
L 385.331825 160.690877 
L 385.871954 160.017811 
L 391.273244 159.542554 
L 392.353501 159.356811 
L 392.89363 159.348275 
L 393.433759 158.3504 
L 395.594275 158.016324 
L 403.15608 157.783628 
L 405.856725 157.681245 
L 406.936983 157.580602 
L 407.477112 157.33862 
L 411.258015 156.768329 
L 411.798144 156.548192 
L 413.41853 156.233128 
L 413.958659 156.046023 
L 415.579046 155.027653 
L 416.119175 154.965983 
L 416.659304 154.777892 
L 417.199433 154.758293 
L 417.739562 154.510285 
L 419.900078 154.333164 
L 420.440207 154.060337 
L 426.921754 153.756616 
L 431.782915 153.636019 
L 439.34472 153.446369 
L 444.20588 153.342628 
L 448.526912 153.147501 
L 450.687428 152.933895 
L 451.767686 152.394224 
L 454.46833 152.264996 
L 455.008459 152.062663 
L 456.628846 151.935662 
L 459.329491 151.465984 
L 459.86962 151.138143 
L 462.030136 150.694254 
L 462.570265 150.657011 
L 463.110394 150.502497 
L 464.190651 150.389067 
L 480.934649 149.625761 
L 483.095165 149.504185 
L 492.277357 148.870443 
L 492.817486 148.690454 
L 494.437873 148.562625 
L 496.058259 148.499391 
L 497.678646 148.153187 
L 498.758904 148.007426 
L 503.079936 147.908343 
L 504.700323 147.833799 
L 507.941096 147.724487 
L 517.123288 147.418581 
L 518.203546 147.286135 
L 519.823933 147.114556 
L 524.144965 146.870053 
L 526.845609 146.628024 
L 527.385738 146.44674 
L 529.006125 146.336703 
L 530.086383 146.219303 
L 533.327157 146.083292 
L 535.487673 145.947633 
L 545.209994 145.62461 
L 545.750123 145.424617 
L 550.071154 145.305512 
L 552.771799 145.235683 
L 558.713217 145.067228 
L 559.253346 144.936341 
L 561.413862 144.819402 
L 561.953991 144.79047 
L 562.49412 144.643886 
L 565.734894 144.526731 
L 567.35528 144.396692 
L 569.515796 144.262174 
L 571.136183 144.184413 
L 575.997344 144.037154 
L 577.077601 143.957481 
L 578.697988 143.878297 
L 581.398633 143.663889 
L 582.478891 143.563073 
L 584.639407 143.44644 
L 585.719665 143.42718 
L 586.799923 143.231835 
L 588.420309 143.175877 
L 589.500567 143.066472 
L 592.741341 142.847973 
L 593.28147 142.629714 
L 596.522244 142.413929 
L 598.682759 142.312423 
L 605.704436 141.875318 
L 606.784694 141.767119 
L 609.485338 141.600147 
L 610.565596 141.485274 
L 612.185983 141.365312 
L 613.266241 140.71186 
L 618.66753 140.577618 
L 623.528691 140.321651 
L 625.689207 140.107 
L 627.309594 139.998987 
L 627.849723 139.92034 
L 628.389851 139.641546 
L 629.470109 139.47118 
L 630.010238 139.315487 
L 632.710883 139.198442 
L 634.33127 138.763605 
L 635.411528 138.633916 
L 638.652301 138.453017 
L 641.352946 137.911236 
L 652.695654 137.052855 
L 653.235783 136.874948 
L 654.316041 136.734541 
L 655.396299 136.593592 
L 658.096944 136.427069 
L 661.877846 135.71654 
L 662.417975 135.690663 
L 662.958104 135.541643 
L 666.198878 135.441666 
L 671.060038 135.184912 
L 677.001457 134.761298 
L 681.322488 134.558958 
L 682.402746 134.001899 
L 682.942875 133.992976 
L 683.483004 133.710028 
L 695.90597 133.092454 
L 698.066486 133.026092 
L 699.146744 132.951423 
L 700.76713 132.876221 
L 702.387517 132.801491 
L 704.007904 132.735597 
L 706.708549 132.365702 
L 707.788807 132.257372 
L 708.869065 132.04966 
L 713.190096 131.840493 
L 714.810483 131.383184 
L 717.511128 131.201011 
L 719.131515 131.066771 
L 721.29203 131.001489 
L 721.832159 130.50005 
L 731.55448 130.00458 
L 740.736673 129.727542 
L 741.276801 129.516798 
L 742.897188 129.313387 
L 743.437317 129.179091 
L 743.977446 129.167779 
L 744.517575 128.999437 
L 749.378736 128.707555 
L 749.918865 128.554098 
L 753.159638 128.446618 
L 756.940541 128.380923 
L 757.48067 128.099578 
L 758.560928 128.032346 
L 759.101057 127.768532 
L 760.721444 127.533101 
L 761.261573 127.313703 
L 761.801701 127.256095 
L 762.881959 126.894765 
L 763.422088 126.864854 
L 763.962217 126.348006 
L 765.582604 126.296512 
L 766.122733 126.069923 
L 767.202991 125.964492 
L 768.283249 125.875383 
L 768.823378 125.173091 
L 769.363507 125.17014 
L 769.903636 124.932223 
L 772.064151 124.645402 
L 772.60428 124.305258 
L 773.144409 124.234479 
L 774.224667 123.83416 
L 775.304925 123.686557 
L 775.845054 123.563334 
L 776.385183 123.324993 
L 778.545699 123.105065 
L 779.085828 122.747898 
L 779.625957 122.525829 
L 780.706215 122.408407 
L 783.406859 122.235637 
L 783.946988 122.00694 
L 784.487117 121.987579 
L 785.027246 121.779071 
L 786.647633 121.573781 
L 787.727891 121.318863 
L 790.968665 121.141541 
L 792.589051 120.70474 
L 794.209438 120.272308 
L 797.990341 120.088668 
L 799.070599 119.925464 
L 799.610728 119.537195 
L 800.690986 119.334166 
L 804.471888 119.194941 
L 805.552146 118.95938 
L 807.712662 118.808398 
L 808.252791 118.586524 
L 808.79292 118.224637 
L 809.333049 118.196436 
L 809.873178 117.981599 
L 812.033694 117.794734 
L 812.573823 117.391092 
L 813.113951 117.227032 
L 813.65408 116.453663 
L 814.194209 110.736267 
L 814.734338 73.830772 
L 815.274467 73.559329 
L 815.814596 58.58383 
L 816.354725 57.682545 
L 816.354725 57.682545 
" clip-path="url(#p727fa2b339)" style="fill: none; stroke: #ff7f0e; stroke-width: 1.5; stroke-linecap: square"/>
   </g>
   <g id="line2d_38">
    <path d="M 86.640517 373.989143 
L 87.308229 373.065978 
L 87.975941 372.674969 
L 91.314501 372.405178 
L 92.204784 372.276215 
L 96.656197 372.032336 
L 97.991621 371.978125 
L 100.88504 371.840123 
L 102.443034 371.806632 
L 105.781594 371.652981 
L 108.007301 371.585315 
L 115.129562 371.438118 
L 126.480665 371.210616 
L 197.480706 369.658705 
L 198.593559 369.60161 
L 203.712685 369.482146 
L 205.49325 369.410912 
L 207.718957 369.296436 
L 210.389804 369.165791 
L 211.947799 369.114853 
L 214.173506 368.982886 
L 215.286359 368.903352 
L 219.960343 368.65336 
L 221.963479 368.378425 
L 223.521473 368.269602 
L 227.972887 367.859899 
L 233.537153 367.440556 
L 233.982294 367.346394 
L 237.098284 367.153991 
L 242.217409 366.952486 
L 244.220545 366.853111 
L 245.110827 366.779956 
L 245.778539 366.718864 
L 250.229953 366.41495 
L 252.233089 366.305164 
L 252.900801 366.230633 
L 258.242496 365.83288 
L 258.687638 365.71913 
L 260.245632 365.571328 
L 260.690774 365.406558 
L 261.358486 365.322308 
L 262.248768 365.12241 
L 263.139051 364.966 
L 264.029334 364.824728 
L 265.364758 364.640093 
L 266.700182 364.501479 
L 270.261312 364.115848 
L 270.706453 363.982717 
L 271.596736 363.8206 
L 272.041877 363.716392 
L 272.709589 363.63831 
L 274.045013 363.230349 
L 276.048149 362.937408 
L 277.383573 362.821771 
L 278.273856 362.576792 
L 279.164139 362.48414 
L 279.831851 362.350389 
L 280.499562 362.262629 
L 282.057557 362.053972 
L 283.17041 361.848379 
L 283.615552 361.752089 
L 288.734677 360.837756 
L 289.62496 360.723069 
L 291.628096 360.538879 
L 292.073237 360.327879 
L 292.963519 360.146774 
L 293.408661 359.953393 
L 294.744085 359.764199 
L 295.189226 359.667572 
L 297.637503 359.300614 
L 298.305215 359.180313 
L 302.534058 358.539055 
L 302.756629 358.372503 
L 302.979199 358.348238 
L 303.20177 358.156616 
L 306.985471 357.842209 
L 307.875754 357.60152 
L 308.988607 357.428175 
L 310.10146 357.234995 
L 312.327167 356.930642 
L 312.772308 356.797497 
L 314.998015 356.506327 
L 316.333439 356.34174 
L 316.77858 356.181448 
L 317.891433 356.029351 
L 319.004287 355.838075 
L 319.449428 355.611319 
L 320.11714 355.483499 
L 320.339711 355.294255 
L 321.675135 355.175541 
L 322.120276 355.05361 
L 323.010559 354.982798 
L 323.900841 354.699412 
L 324.791124 354.671545 
L 325.013695 354.506816 
L 325.903977 354.315359 
L 326.349119 354.212742 
L 327.016831 354.093192 
L 327.684543 353.901461 
L 328.797396 353.802822 
L 330.13282 353.607018 
L 333.69395 352.946011 
L 334.361662 352.918627 
L 334.584233 352.754648 
L 341.929065 352.026971 
L 342.819347 351.945739 
L 343.264489 351.821051 
L 343.70963 351.714608 
L 344.599913 351.589333 
L 345.712766 351.456791 
L 349.719038 350.971734 
L 350.164179 350.804121 
L 351.944744 350.638782 
L 352.612456 350.428132 
L 353.280168 350.365122 
L 356.173587 350.047829 
L 357.06387 349.860991 
L 362.850707 349.095359 
L 367.969832 348.652402 
L 369.082685 348.508896 
L 370.863251 348.312113 
L 371.308392 348.17619 
L 372.866387 348.026067 
L 373.088957 348.017324 
L 373.534099 347.861132 
L 377.3178 347.347301 
L 378.430653 347.233844 
L 379.098365 347.149594 
L 388.668903 346.305697 
L 401.13286 345.634329 
L 401.800572 345.580741 
L 411.371111 345.221188 
L 419.383655 344.663388 
L 420.941649 344.475226 
L 421.609361 344.361334 
L 424.72535 344.064383 
L 426.060774 343.954116 
L 427.84134 343.749021 
L 430.512188 343.559511 
L 434.51846 343.100134 
L 436.299025 342.999934 
L 438.969873 342.575114 
L 439.637585 342.452752 
L 440.973009 342.233069 
L 442.753574 342.07568 
L 449.430694 341.228928 
L 449.875835 341.106078 
L 450.320976 341.045087 
L 450.543547 340.828973 
L 453.882107 340.509672 
L 454.99496 340.331397 
L 455.662672 340.164915 
L 457.443238 339.846393 
L 458.11095 339.799827 
L 458.778661 339.522109 
L 461.894651 338.865927 
L 462.339792 338.759725 
L 466.346064 338.276155 
L 466.791205 338.133935 
L 467.904059 337.960806 
L 468.3492 337.79483 
L 469.016912 337.614535 
L 470.574906 337.483028 
L 471.020048 337.347127 
L 472.578042 337.232761 
L 473.023184 337.13087 
L 473.913466 336.953567 
L 474.581178 336.783149 
L 475.02632 336.682179 
L 475.471461 336.594893 
L 477.697168 336.293325 
L 479.032592 336.084071 
L 479.700304 335.746649 
L 482.371151 335.300666 
L 485.709711 334.668308 
L 489.493413 334.05589 
L 490.383695 333.936753 
L 493.722255 333.307758 
L 493.944826 333.110601 
L 494.389967 333.066754 
L 494.835108 332.949131 
L 495.947962 332.861814 
L 498.173668 332.355873 
L 499.286522 332.259309 
L 499.954234 332.085718 
L 502.625082 331.48641 
L 503.737935 331.405652 
L 504.405647 331.267815 
L 505.29593 331.154363 
L 505.963641 331.06104 
L 506.853924 330.876183 
L 507.299065 330.851012 
L 507.744207 330.690855 
L 509.302201 330.289618 
L 509.969913 330.229944 
L 510.415055 330.097939 
L 512.640761 329.867967 
L 513.753615 329.688268 
L 514.198756 329.520188 
L 515.311609 329.365603 
L 515.756751 329.072689 
L 516.424463 328.922976 
L 517.982457 328.744119 
L 519.540452 328.341075 
L 520.208164 328.253167 
L 525.327289 327.407202 
L 525.995001 327.288492 
L 526.885284 327.090888 
L 531.781838 326.353962 
L 532.226979 326.219717 
L 533.562403 325.984473 
L 533.784974 325.725815 
L 535.565539 325.457836 
L 538.013817 324.855468 
L 539.12667 324.729284 
L 545.136078 323.54141 
L 546.471502 323.373423 
L 546.916643 323.294914 
L 547.806926 323.151926 
L 548.919779 322.765506 
L 549.810062 322.669697 
L 550.477774 322.547576 
L 551.368056 322.445449 
L 552.70348 322.307895 
L 552.926051 322.118728 
L 553.371192 322.105709 
L 553.816333 321.922295 
L 554.261475 321.863204 
L 555.151757 321.532807 
L 557.600035 321.209479 
L 558.045176 321.021419 
L 558.267747 320.995606 
L 558.712888 320.71285 
L 559.825741 320.567623 
L 560.716024 320.424567 
L 561.161165 320.359769 
L 561.828877 320.069484 
L 564.722296 319.315973 
L 566.948002 318.998977 
L 567.838285 318.554734 
L 568.283426 318.499177 
L 570.063992 317.950307 
L 571.176845 317.826295 
L 572.95741 317.579919 
L 574.960546 316.613868 
L 579.857101 315.811144 
L 580.969954 315.675863 
L 582.97309 315.24492 
L 583.195661 314.987772 
L 584.308514 314.874264 
L 585.198797 314.557707 
L 586.089079 314.421219 
L 586.31165 314.249969 
L 586.979362 314.111502 
L 587.647074 313.951389 
L 589.427639 313.541046 
L 589.65021 313.236468 
L 591.430775 312.74114 
L 591.653346 312.727836 
L 592.543628 312.275766 
L 593.656482 312.176889 
L 594.324194 311.872154 
L 595.214476 311.325597 
L 595.659618 311.291457 
L 595.882188 311.152273 
L 596.32733 311.089036 
L 596.995042 310.847661 
L 597.217612 310.777348 
L 597.440183 310.475531 
L 598.330466 310.346154 
L 599.88846 309.906596 
L 600.333602 309.729708 
L 601.001313 309.674997 
L 601.223884 309.458787 
L 601.669025 309.351769 
L 601.891596 309.098352 
L 602.114167 309.059836 
L 602.559308 308.83532 
L 606.56558 307.868108 
L 607.678433 307.742835 
L 608.123575 307.38317 
L 608.568716 307.233358 
L 609.681569 307.001727 
L 610.126711 306.839418 
L 612.797558 306.24499 
L 613.2427 305.88353 
L 613.687841 305.83378 
L 614.355553 305.599061 
L 615.023265 305.480422 
L 615.468406 305.326438 
L 616.358689 305.037377 
L 616.80383 304.922839 
L 617.694113 304.720069 
L 617.916684 304.719333 
L 618.361825 304.375959 
L 619.91982 304.187169 
L 620.14239 303.93084 
L 621.700385 303.530669 
L 621.922956 303.234031 
L 622.145526 303.147878 
L 622.368097 302.94178 
L 622.590668 302.543003 
L 623.703521 302.185534 
L 624.148662 302.11235 
L 624.593804 301.905129 
L 625.038945 301.778853 
L 626.151798 301.566751 
L 626.596939 301.442893 
L 627.709793 301.276678 
L 627.932363 301.233906 
L 628.154934 300.94979 
L 628.377505 300.463202 
L 628.822646 300.324929 
L 629.490358 300.267478 
L 631.048353 299.523631 
L 631.493494 299.404115 
L 631.938635 299.298731 
L 632.828918 298.899182 
L 633.051489 298.638239 
L 633.274059 298.628749 
L 633.719201 298.265927 
L 635.054625 297.715717 
L 637.05776 297.543417 
L 637.725472 297.253357 
L 637.948043 297.227511 
L 638.393184 296.968789 
L 639.060896 296.713002 
L 639.506038 296.334883 
L 639.951179 295.804494 
L 643.957451 294.692782 
L 644.180022 294.402849 
L 645.070304 294.176758 
L 645.292875 293.64535 
L 645.960587 293.409549 
L 646.628299 292.985382 
L 646.85087 292.294971 
L 647.963723 291.741436 
L 648.631435 291.617413 
L 649.076576 291.542093 
L 649.521717 291.01837 
L 649.744288 290.875356 
L 649.966859 290.87292 
L 650.412 290.680711 
L 651.079712 290.467449 
L 651.524853 290.384433 
L 652.415136 290.049595 
L 652.637707 289.731021 
L 653.527989 289.607238 
L 653.75056 289.04404 
L 654.418272 288.575677 
L 654.640843 288.52548 
L 654.863413 288.061748 
L 655.308555 287.985211 
L 655.531125 287.753513 
L 656.198837 287.599943 
L 656.421408 287.343007 
L 656.866549 287.205753 
L 657.08912 287.13667 
L 657.534261 286.732807 
L 657.979403 286.569234 
L 659.314827 286.032628 
L 659.759968 285.979424 
L 659.982539 285.723855 
L 660.205109 285.20726 
L 661.317962 285.05048 
L 661.540533 284.970496 
L 662.208245 284.288782 
L 662.653386 284.251983 
L 663.098528 284.02512 
L 663.76624 283.86288 
L 663.98881 283.690122 
L 664.211381 283.286346 
L 665.769376 283.027383 
L 665.991946 282.525896 
L 666.437088 282.45588 
L 666.882229 282.133933 
L 667.772512 282.028743 
L 668.440224 281.835315 
L 670.888501 280.87917 
L 671.556213 280.1084 
L 672.446495 279.259369 
L 672.891637 279.1994 
L 674.449631 278.237275 
L 675.117343 277.991697 
L 675.339914 277.452296 
L 676.007626 277.269933 
L 676.230197 277.088563 
L 676.452767 276.710454 
L 676.675338 276.64314 
L 676.897909 276.371998 
L 677.120479 276.322328 
L 677.34305 275.702704 
L 678.010762 275.561032 
L 678.233333 275.31705 
L 678.455903 275.307068 
L 678.901045 274.674007 
L 679.123615 274.612721 
L 679.791327 274.164966 
L 680.013898 274.157726 
L 681.126751 273.490523 
L 681.349322 273.465048 
L 681.571893 273.212858 
L 681.794463 272.774588 
L 682.239605 272.641368 
L 683.352458 272.474083 
L 683.797599 271.84025 
L 684.02017 271.561026 
L 684.465311 270.709833 
L 684.910452 270.484427 
L 685.133023 270.162655 
L 685.355594 270.115435 
L 686.023306 269.227074 
L 686.245876 268.01335 
L 686.691018 267.940844 
L 687.35873 267.582712 
L 688.249012 267.363859 
L 688.471583 267.232836 
L 688.694154 266.838773 
L 689.139295 266.822159 
L 689.584436 266.427009 
L 690.69729 266.03807 
L 690.91986 265.804138 
L 691.142431 265.313294 
L 692.255284 264.849594 
L 692.700426 264.786499 
L 693.590708 264.481716 
L 694.25842 264.35246 
L 694.703562 264.220184 
L 694.926132 264.038427 
L 695.148703 264.035139 
L 695.816415 263.432763 
L 696.038985 263.430686 
L 696.261556 263.152554 
L 696.706697 263.093411 
L 697.151839 262.928115 
L 697.59698 262.614703 
L 697.819551 262.498184 
L 698.042121 262.216368 
L 698.487263 262.092789 
L 698.709833 261.722138 
L 698.932404 261.629303 
L 699.154975 261.1197 
L 700.045257 260.756193 
L 700.267828 260.746932 
L 700.490399 260.578111 
L 700.712969 260.565692 
L 700.93554 260.102431 
L 701.603252 259.967321 
L 701.825823 259.679288 
L 702.270964 259.534853 
L 702.493535 259.511902 
L 702.716105 258.563032 
L 703.828959 258.473774 
L 704.051529 257.688792 
L 704.496671 257.30455 
L 704.941812 256.425968 
L 706.054665 256.240889 
L 706.277236 255.826038 
L 706.499807 255.823343 
L 707.83523 254.315188 
L 708.057801 254.264797 
L 708.502942 253.978269 
L 708.725513 253.8626 
L 708.948084 253.447022 
L 709.838366 252.989536 
L 710.060937 252.970871 
L 710.283508 252.312323 
L 710.95122 252.031636 
L 711.396361 251.593213 
L 711.841502 251.561357 
L 712.731785 250.811918 
L 713.399497 250.300853 
L 713.622068 249.849428 
L 714.067209 249.429829 
L 714.28978 249.195868 
L 714.734921 249.074201 
L 714.957492 248.835238 
L 715.402633 248.707442 
L 715.847774 247.978391 
L 716.292916 247.834353 
L 716.738057 247.24558 
L 716.960628 247.122315 
L 717.405769 246.491229 
L 717.85091 246.008221 
L 718.296052 245.59016 
L 718.518622 245.464446 
L 718.741193 244.288224 
L 720.076617 243.425562 
L 721.18947 241.713467 
L 721.634611 241.366782 
L 722.079753 240.623366 
L 723.415177 239.475031 
L 723.637747 239.461847 
L 723.860318 239.296271 
L 724.305459 238.316027 
L 724.52803 237.366152 
L 724.973171 236.426299 
L 725.418313 234.878949 
L 725.863454 234.83378 
L 726.531166 234.021076 
L 726.753737 232.529007 
L 727.198878 232.393736 
L 727.644019 231.083741 
L 727.86659 231.015428 
L 728.311731 230.214177 
L 728.534302 230.133776 
L 728.979443 229.080372 
L 729.202014 228.986361 
L 729.424585 228.302655 
L 730.092297 228.123154 
L 730.314867 226.616679 
L 730.537438 226.379826 
L 730.760009 225.929872 
L 731.20515 224.724604 
L 731.42772 224.62807 
L 731.650291 223.875568 
L 731.872862 223.870153 
L 732.095432 223.685927 
L 732.318003 223.31974 
L 732.540574 222.691228 
L 733.653427 221.341075 
L 734.54371 221.049655 
L 734.988851 220.907515 
L 735.211422 220.296269 
L 735.433992 220.203632 
L 735.656563 218.379602 
L 735.879134 217.812461 
L 736.101704 217.783495 
L 736.769416 216.071874 
L 738.327411 214.568777 
L 738.549982 213.681006 
L 738.772552 213.54196 
L 738.995123 212.85935 
L 739.217694 212.841018 
L 739.662835 211.118669 
L 739.885406 211.040542 
L 740.553118 210.36578 
L 740.775688 210.345958 
L 740.998259 209.410653 
L 741.22083 209.329585 
L 741.665971 208.905242 
L 741.888542 208.846676 
L 742.111112 208.140439 
L 743.446536 207.170929 
L 743.669107 206.208025 
L 743.891677 206.136674 
L 744.114248 205.641413 
L 744.336819 205.583613 
L 745.004531 202.471853 
L 745.227101 202.193691 
L 745.449672 202.174219 
L 745.672243 201.652028 
L 745.894813 201.431888 
L 746.339955 200.288147 
L 747.452808 198.94993 
L 747.675379 197.360469 
L 748.12052 197.230144 
L 748.565661 196.004798 
L 749.010803 195.764462 
L 749.455944 194.998473 
L 749.901085 194.469116 
L 750.123656 194.225708 
L 750.568797 194.063994 
L 750.791368 193.657173 
L 751.013939 193.556616 
L 751.236509 192.654777 
L 751.45908 192.637713 
L 751.904221 192.09705 
L 753.017075 191.711517 
L 753.239645 191.552918 
L 753.462216 191.164247 
L 753.684787 191.132375 
L 753.907357 190.976642 
L 754.575069 190.20148 
L 754.79764 190.102561 
L 755.020211 189.645566 
L 755.242781 189.616743 
L 755.465352 188.871751 
L 755.687922 188.555828 
L 757.468488 188.219737 
L 759.249053 187.460119 
L 759.916765 187.36498 
L 760.807048 187.058281 
L 761.47476 186.981729 
L 761.69733 186.691184 
L 762.142472 186.629397 
L 762.587613 186.527794 
L 763.032754 186.477221 
L 763.255325 185.906637 
L 764.368178 185.348159 
L 765.258461 185.310779 
L 765.926173 185.077413 
L 767.039026 184.78599 
L 767.706738 184.62431 
L 768.151879 184.074933 
L 768.597021 183.945325 
L 769.042162 183.834101 
L 770.377586 183.584669 
L 771.045298 183.294007 
L 771.71301 183.127951 
L 772.158151 182.747028 
L 773.493575 182.426988 
L 773.716146 182.145469 
L 773.938717 182.13521 
L 774.161287 181.947314 
L 774.606429 181.235325 
L 775.941853 180.830755 
L 776.386994 180.676052 
L 776.609565 180.630112 
L 777.054706 180.370988 
L 777.722418 180.307703 
L 777.944989 180.271669 
L 778.612701 179.705964 
L 779.057842 179.634507 
L 779.725554 179.274712 
L 780.615836 178.90373 
L 780.838407 178.490102 
L 781.506119 178.027315 
L 782.396402 177.843737 
L 782.618972 177.623035 
L 783.509255 177.518195 
L 783.954396 177.039013 
L 784.399538 176.772937 
L 784.622108 176.49095 
L 785.512391 176.273732 
L 786.180103 176.185752 
L 786.625244 176.094892 
L 787.515527 175.812274 
L 788.40581 175.697943 
L 790.631516 175.252999 
L 791.744369 175.060554 
L 792.412081 174.787893 
L 793.079793 174.699507 
L 793.747505 174.46647 
L 795.082929 174.208242 
L 795.973212 173.4685 
L 797.086065 173.179766 
L 797.308636 172.933749 
L 799.089201 172.69266 
L 799.311772 172.504313 
L 799.756913 172.437039 
L 800.424625 172.20516 
L 801.092337 171.925563 
L 801.98262 171.796572 
L 802.650332 171.534859 
L 803.540614 171.373091 
L 805.54375 170.469425 
L 805.988892 170.437911 
L 806.434033 170.042611 
L 807.101745 169.767638 
L 807.769457 169.390859 
L 808.214598 169.355862 
L 808.437169 169.210238 
L 808.88231 169.115688 
L 809.104881 168.59856 
L 809.772593 168.197825 
L 809.995164 168.162758 
L 810.440305 167.928527 
L 810.885446 167.707948 
L 811.108017 167.692917 
L 811.330588 167.119889 
L 811.775729 166.862658 
L 812.22087 166.177494 
L 812.443441 165.445379 
L 813.111153 164.746467 
L 813.333724 164.672532 
L 813.556294 164.143691 
L 813.778865 164.047365 
L 814.001436 163.620176 
L 814.224006 162.461003 
L 814.446577 162.148471 
L 814.891718 158.639054 
L 815.114289 148.236329 
L 815.55943 119.759971 
L 815.782001 119.443041 
L 816.004571 100.694989 
L 816.227142 97.178413 
L 816.449713 96.265271 
L 816.672283 90.361759 
L 816.672283 90.361759 
" clip-path="url(#p727fa2b339)" style="fill: none; stroke: #2ca02c; stroke-width: 1.5; stroke-linecap: square"/>
   </g>
   <g id="patch_3">
    <path d="M 50.137685 390.04 
L 50.137685 41.856 
" style="fill: none; stroke: #000000; stroke-width: 0.8; stroke-linejoin: miter; stroke-linecap: square"/>
   </g>
   <g id="patch_4">
    <path d="M 853.2 390.04 
L 853.2 41.856 
" style="fill: none; stroke: #000000; stroke-width: 0.8; stroke-linejoin: miter; stroke-linecap: square"/>
   </g>
   <g id="patch_5">
    <path d="M 50.137685 390.04 
L 853.2 390.04 
" style="fill: none; stroke: #000000; stroke-width: 0.8; stroke-linejoin: miter; stroke-linecap: square"/>
   </g>
   <g id="patch_6">
    <path d="M 50.137685 41.856 
L 853.2 41.856 
" style="fill: none; stroke: #000000; stroke-width: 0.8; stroke-linejoin: miter; stroke-linecap: square"/>
   </g>
   <g id="text_13">
    <!-- HTTP Request Duration Percentiles -->
    <g transform="translate(347.44228 22.355625) scale(0.12 -0.12)">
     <defs>
      <path id="DejaVuSans-48" d="M 628 4666 
L 1259 4666 
L 1259 2753 
L 3553 2753 
L 3553 4666 
L 4184 4666 
L 4184 0 
L 3553 0 
L 3553 2222 
L 1259 2222 
L 1259 0 
L 628 0 
L 628 4666 
z
" transform="scale(0.015625)"/>
      <path id="DejaVuSans-54" d="M -19 4666 
L 3928 4666 
L 3928 4134 
L 2272 4134 
L 2272 0 
L 1638 0 
L 1638 4134 
L -19 4134 
L -19 4666 
z
" transform="scale(0.015625)"/>
      <path id="DejaVuSans-52" d="M 2841 2188 
Q 3044 2119 3236 1894 
Q 3428 1669 3622 1275 
L 4263 0 
L 3584 0 
L 2988 1197 
Q 2756 1666 2539 1819 
Q 2322 1972 1947 1972 
L 1259 1972 
L 1259 0 
L 628 0 
L 628 4666 
L 2053 4666 
Q 2853 4666 3247 4331 
Q 3641 3997 3641 3322 
Q 3641 2881 3436 2590 
Q 3231 2300 2841 2188 
z
M 1259 4147 
L 1259 2491 
L 2053 2491 
Q 2509 2491 2742 2702 
Q 2975 2913 2975 3322 
Q 2975 3731 2742 3939 
Q 2509 4147 2053 4147 
L 1259 4147 
z
" transform="scale(0.015625)"/>
      <path id="DejaVuSans-71" d="M 947 1747 
Q 947 1113 1208 752 
Q 1469 391 1925 391 
Q 2381 391 2643 752 
Q 2906 1113 2906 1747 
Q 2906 2381 2643 2742 
Q 2381 3103 1925 3103 
Q 1469 3103 1208 2742 
Q 947 2381 947 1747 
z
M 2906 525 
Q 2725 213 2448 61 
Q 2172 -91 1784 -91 
Q 1150 -91 751 415 
Q 353 922 353 1747 
Q 353 2572 751 3078 
Q 1150 3584 1784 3584 
Q 2172 3584 2448 3432 
Q 2725 3281 2906 2969 
L 2906 3500 
L 3481 3500 
L 3481 -1331 
L 2906 -1331 
L 2906 525 
z
" transform="scale(0.015625)"/>
     </defs>
     <use xlink:href="#DejaVuSans-48"/>
     <use xlink:href="#DejaVuSans-54" transform="translate(75.195312 0)"/>
     <use xlink:href="#DejaVuSans-54" transform="translate(134.529297 0)"/>
     <use xlink:href="#DejaVuSans-50" transform="translate(195.613281 0)"/>
     <use xlink:href="#DejaVuSans-20" transform="translate(255.916016 0)"/>
     <use xlink:href="#DejaVuSans-52" transform="translate(287.703125 0)"/>
     <use xlink:href="#DejaVuSans-65" transform="translate(352.685547 0)"/>
     <use xlink:href="#DejaVuSans-71" transform="translate(414.208984 0)"/>
     <use xlink:href="#DejaVuSans-75" transform="translate(477.685547 0)"/>
     <use xlink:href="#DejaVuSans-65" transform="translate(541.064453 0)"/>
     <use xlink:href="#DejaVuSans-73" transform="translate(602.587891 0)"/>
     <use xlink:href="#DejaVuSans-74" transform="translate(654.6875 0)"/>
     <use xlink:href="#DejaVuSans-20" transform="translate(693.896484 0)"/>
     <use xlink:href="#DejaVuSans-44" transform="translate(725.683594 0)"/>
     <use xlink:href="#DejaVuSans-75" transform="translate(802.685547 0)"/>
     <use xlink:href="#DejaVuSans-72" transform="translate(866.064453 0)"/>
     <use xlink:href="#DejaVuSans-61" transform="translate(907.177734 0)"/>
     <use xlink:href="#DejaVuSans-74" transform="translate(968.457031 0)"/>
     <use xlink:href="#DejaVuSans-69" transform="translate(1007.666016 0)"/>
     <use xlink:href="#DejaVuSans-6f" transform="translate(1035.449219 0)"/>
     <use xlink:href="#DejaVuSans-6e" transform="translate(1096.630859 0)"/>
     <use xlink:href="#DejaVuSans-20" transform="translate(1160.009766 0)"/>
     <use xlink:href="#DejaVuSans-50" transform="translate(1191.796875 0)"/>
     <use xlink:href="#DejaVuSans-65" transform="translate(1248.474609 0)"/>
     <use xlink:href="#DejaVuSans-72" transform="translate(1309.998047 0)"/>
     <use xlink:href="#DejaVuSans-63" transform="translate(1348.861328 0)"/>
     <use xlink:href="#DejaVuSans-65" transform="translate(1403.841797 0)"/>
     <use xlink:href="#DejaVuSans-6e" transform="translate(1465.365234 0)"/>
     <use xlink:href="#DejaVuSans-74" transform="translate(1528.744141 0)"/>
     <use xlink:href="#DejaVuSans-69" transform="translate(1567.953125 0)"/>
     <use xlink:href="#DejaVuSans-6c" transform="translate(1595.736328 0)"/>
     <use xlink:href="#DejaVuSans-65" transform="translate(1623.519531 0)"/>
     <use xlink:href="#DejaVuSans-73" transform="translate(1685.042969 0)"/>
    </g>
    <!-- Test: spike | Endpoint: GetImageById -->
    <g transform="translate(341.17603 35.856) scale(0.12 -0.12)">
     <defs>
      <path id="DejaVuSans-3a" d="M 750 794 
L 1409 794 
L 1409 0 
L 750 0 
L 750 794 
z
M 750 3309 
L 1409 3309 
L 1409 2516 
L 750 2516 
L 750 3309 
z
" transform="scale(0.015625)"/>
      <path id="DejaVuSans-70" d="M 1159 525 
L 1159 -1331 
L 581 -1331 
L 581 3500 
L 1159 3500 
L 1159 2969 
Q 1341 3281 1617 3432 
Q 1894 3584 2278 3584 
Q 2916 3584 3314 3078 
Q 3713 2572 3713 1747 
Q 3713 922 3314 415 
Q 2916 -91 2278 -91 
Q 1894 -91 1617 61 
Q 1341 213 1159 525 
z
M 3116 1747 
Q 3116 2381 2855 2742 
Q 2594 3103 2138 3103 
Q 1681 3103 1420 2742 
Q 1159 2381 1159 1747 
Q 1159 1113 1420 752 
Q 1681 391 2138 391 
Q 2594 391 2855 752 
Q 3116 1113 3116 1747 
z
" transform="scale(0.015625)"/>
      <path id="DejaVuSans-6b" d="M 581 4863 
L 1159 4863 
L 1159 1991 
L 2875 3500 
L 3609 3500 
L 1753 1863 
L 3688 0 
L 2938 0 
L 1159 1709 
L 1159 0 
L 581 0 
L 581 4863 
z
" transform="scale(0.015625)"/>
      <path id="DejaVuSans-7c" d="M 1344 4891 
L 1344 -1509 
L 813 -1509 
L 813 4891 
L 1344 4891 
z
" transform="scale(0.015625)"/>
      <path id="DejaVuSans-45" d="M 628 4666 
L 3578 4666 
L 3578 4134 
L 1259 4134 
L 1259 2753 
L 3481 2753 
L 3481 2222 
L 1259 2222 
L 1259 531 
L 3634 531 
L 3634 0 
L 628 0 
L 628 4666 
z
" transform="scale(0.015625)"/>
      <path id="DejaVuSans-64" d="M 2906 2969 
L 2906 4863 
L 3481 4863 
L 3481 0 
L 2906 0 
L 2906 525 
Q 2725 213 2448 61 
Q 2172 -91 1784 -91 
Q 1150 -91 751 415 
Q 353 922 353 1747 
Q 353 2572 751 3078 
Q 1150 3584 1784 3584 
Q 2172 3584 2448 3432 
Q 2725 3281 2906 2969 
z
M 947 1747 
Q 947 1113 1208 752 
Q 1469 391 1925 391 
Q 2381 391 2643 752 
Q 2906 1113 2906 1747 
Q 2906 2381 2643 2742 
Q 2381 3103 1925 3103 
Q 1469 3103 1208 2742 
Q 947 2381 947 1747 
z
" transform="scale(0.015625)"/>
      <path id="DejaVuSans-47" d="M 3809 666 
L 3809 1919 
L 2778 1919 
L 2778 2438 
L 4434 2438 
L 4434 434 
Q 4069 175 3628 42 
Q 3188 -91 2688 -91 
Q 1594 -91 976 548 
Q 359 1188 359 2328 
Q 359 3472 976 4111 
Q 1594 4750 2688 4750 
Q 3144 4750 3555 4637 
Q 3966 4525 4313 4306 
L 4313 3634 
Q 3963 3931 3569 4081 
Q 3175 4231 2741 4231 
Q 1884 4231 1454 3753 
Q 1025 3275 1025 2328 
Q 1025 1384 1454 906 
Q 1884 428 2741 428 
Q 3075 428 3337 486 
Q 3600 544 3809 666 
z
" transform="scale(0.015625)"/>
      <path id="DejaVuSans-49" d="M 628 4666 
L 1259 4666 
L 1259 0 
L 628 0 
L 628 4666 
z
" transform="scale(0.015625)"/>
      <path id="DejaVuSans-67" d="M 2906 1791 
Q 2906 2416 2648 2759 
Q 2391 3103 1925 3103 
Q 1463 3103 1205 2759 
Q 947 2416 947 1791 
Q 947 1169 1205 825 
Q 1463 481 1925 481 
Q 2391 481 2648 825 
Q 2906 1169 2906 1791 
z
M 3481 434 
Q 3481 -459 3084 -895 
Q 2688 -1331 1869 -1331 
Q 1566 -1331 1297 -1286 
Q 1028 -1241 775 -1147 
L 775 -588 
Q 1028 -725 1275 -790 
Q 1522 -856 1778 -856 
Q 2344 -856 2625 -561 
Q 2906 -266 2906 331 
L 2906 616 
Q 2728 306 2450 153 
Q 2172 0 1784 0 
Q 1141 0 747 490 
Q 353 981 353 1791 
Q 353 2603 747 3093 
Q 1141 3584 1784 3584 
Q 2172 3584 2450 3431 
Q 2728 3278 2906 2969 
L 2906 3500 
L 3481 3500 
L 3481 434 
z
" transform="scale(0.015625)"/>
      <path id="DejaVuSans-42" d="M 1259 2228 
L 1259 519 
L 2272 519 
Q 2781 519 3026 730 
Q 3272 941 3272 1375 
Q 3272 1813 3026 2020 
Q 2781 2228 2272 2228 
L 1259 2228 
z
M 1259 4147 
L 1259 2741 
L 2194 2741 
Q 2656 2741 2882 2914 
Q 3109 3088 3109 3444 
Q 3109 3797 2882 3972 
Q 2656 4147 2194 4147 
L 1259 4147 
z
M 628 4666 
L 2241 4666 
Q 2963 4666 3353 4366 
Q 3744 4066 3744 3513 
Q 3744 3084 3544 2831 
Q 3344 2578 2956 2516 
Q 3422 2416 3680 2098 
Q 3938 1781 3938 1306 
Q 3938 681 3513 340 
Q 3088 0 2303 0 
L 628 0 
L 628 4666 
z
" transform="scale(0.015625)"/>
      <path id="DejaVuSans-79" d="M 2059 -325 
Q 1816 -950 1584 -1140 
Q 1353 -1331 966 -1331 
L 506 -1331 
L 506 -850 
L 844 -850 
Q 1081 -850 1212 -737 
Q 1344 -625 1503 -206 
L 1606 56 
L 191 3500 
L 800 3500 
L 1894 763 
L 2988 3500 
L 3597 3500 
L 2059 -325 
z
" transform="scale(0.015625)"/>
     </defs>
     <use xlink:href="#DejaVuSans-54"/>
     <use xlink:href="#DejaVuSans-65" transform="translate(44.083984 0)"/>
     <use xlink:href="#DejaVuSans-73" transform="translate(105.607422 0)"/>
     <use xlink:href="#DejaVuSans-74" transform="translate(157.707031 0)"/>
     <use xlink:href="#DejaVuSans-3a" transform="translate(196.916016 0)"/>
     <use xlink:href="#DejaVuSans-20" transform="translate(230.607422 0)"/>
     <use xlink:href="#DejaVuSans-73" transform="translate(262.394531 0)"/>
     <use xlink:href="#DejaVuSans-70" transform="translate(314.494141 0)"/>
     <use xlink:href="#DejaVuSans-69" transform="translate(377.970703 0)"/>
     <use xlink:href="#DejaVuSans-6b" transform="translate(405.753906 0)"/>
     <use xlink:href="#DejaVuSans-65" transform="translate(460.039062 0)"/>
     <use xlink:href="#DejaVuSans-20" transform="translate(521.5625 0)"/>
     <use xlink:href="#DejaVuSans-7c" transform="translate(553.349609 0)"/>
     <use xlink:href="#DejaVuSans-20" transform="translate(587.041016 0)"/>
     <use xlink:href="#DejaVuSans-45" transform="translate(618.828125 0)"/>
     <use xlink:href="#DejaVuSans-6e" transform="translate(682.011719 0)"/>
     <use xlink:href="#DejaVuSans-64" transform="translate(745.390625 0)"/>
     <use xlink:href="#DejaVuSans-70" transform="translate(808.867188 0)"/>
     <use xlink:href="#DejaVuSans-6f" transform="translate(872.34375 0)"/>
     <use xlink:href="#DejaVuSans-69" transform="translate(933.525391 0)"/>
     <use xlink:href="#DejaVuSans-6e" transform="translate(961.308594 0)"/>
     <use xlink:href="#DejaVuSans-74" transform="translate(1024.6875 0)"/>
     <use xlink:href="#DejaVuSans-3a" transform="translate(1063.896484 0)"/>
     <use xlink:href="#DejaVuSans-20" transform="translate(1097.587891 0)"/>
     <use xlink:href="#DejaVuSans-47" transform="translate(1129.375 0)"/>
     <use xlink:href="#DejaVuSans-65" transform="translate(1206.865234 0)"/>
     <use xlink:href="#DejaVuSans-74" transform="translate(1268.388672 0)"/>
     <use xlink:href="#DejaVuSans-49" transform="translate(1307.597656 0)"/>
     <use xlink:href="#DejaVuSans-6d" transform="translate(1337.089844 0)"/>
     <use xlink:href="#DejaVuSans-61" transform="translate(1434.501953 0)"/>
     <use xlink:href="#DejaVuSans-67" transform="translate(1495.78125 0)"/>
     <use xlink:href="#DejaVuSans-65" transform="translate(1559.257812 0)"/>
     <use xlink:href="#DejaVuSans-42" transform="translate(1620.78125 0)"/>
     <use xlink:href="#DejaVuSans-79" transform="translate(1689.384766 0)"/>
     <use xlink:href="#DejaVuSans-49" transform="translate(1748.564453 0)"/>
     <use xlink:href="#DejaVuSans-64" transform="translate(1778.056641 0)"/>
    </g>
   </g>
   <g id="legend_1">
    <g id="patch_7">
     <path d="M 57.137685 93.890375 
L 190.481435 93.890375 
Q 192.481435 93.890375 192.481435 91.890375 
L 192.481435 48.856 
Q 192.481435 46.856 190.481435 46.856 
L 57.137685 46.856 
Q 55.137685 46.856 55.137685 48.856 
L 55.137685 91.890375 
Q 55.137685 93.890375 57.137685 93.890375 
z
" style="fill: #ffffff; opacity: 0.8; stroke: #cccccc; stroke-linejoin: miter"/>
    </g>
    <g id="line2d_39">
     <path d="M 59.137685 54.954437 
L 69.137685 54.954437 
L 79.137685 54.954437 
" style="fill: none; stroke: #1f77b4; stroke-width: 1.5; stroke-linecap: square"/>
    </g>
    <g id="text_14">
     <!-- Single Large Results -->
     <g transform="translate(87.137685 58.454437) scale(0.1 -0.1)">
      <defs>
       <path id="DejaVuSans-53" d="M 3425 4513 
L 3425 3897 
Q 3066 4069 2747 4153 
Q 2428 4238 2131 4238 
Q 1616 4238 1336 4038 
Q 1056 3838 1056 3469 
Q 1056 3159 1242 3001 
Q 1428 2844 1947 2747 
L 2328 2669 
Q 3034 2534 3370 2195 
Q 3706 1856 3706 1288 
Q 3706 609 3251 259 
Q 2797 -91 1919 -91 
Q 1588 -91 1214 -16 
Q 841 59 441 206 
L 441 856 
Q 825 641 1194 531 
Q 1563 422 1919 422 
Q 2459 422 2753 634 
Q 3047 847 3047 1241 
Q 3047 1584 2836 1778 
Q 2625 1972 2144 2069 
L 1759 2144 
Q 1053 2284 737 2584 
Q 422 2884 422 3419 
Q 422 4038 858 4394 
Q 1294 4750 2059 4750 
Q 2388 4750 2728 4690 
Q 3069 4631 3425 4513 
z
" transform="scale(0.015625)"/>
       <path id="DejaVuSans-4c" d="M 628 4666 
L 1259 4666 
L 1259 531 
L 3531 531 
L 3531 0 
L 628 0 
L 628 4666 
z
" transform="scale(0.015625)"/>
      </defs>
      <use xlink:href="#DejaVuSans-53"/>
      <use xlink:href="#DejaVuSans-69" transform="translate(63.476562 0)"/>
      <use xlink:href="#DejaVuSans-6e" transform="translate(91.259766 0)"/>
      <use xlink:href="#DejaVuSans-67" transform="translate(154.638672 0)"/>
      <use xlink:href="#DejaVuSans-6c" transform="translate(218.115234 0)"/>
      <use xlink:href="#DejaVuSans-65" transform="translate(245.898438 0)"/>
      <use xlink:href="#DejaVuSans-20" transform="translate(307.421875 0)"/>
      <use xlink:href="#DejaVuSans-4c" transform="translate(339.208984 0)"/>
      <use xlink:href="#DejaVuSans-61" transform="translate(394.921875 0)"/>
      <use xlink:href="#DejaVuSans-72" transform="translate(456.201172 0)"/>
      <use xlink:href="#DejaVuSans-67" transform="translate(495.564453 0)"/>
      <use xlink:href="#DejaVuSans-65" transform="translate(559.041016 0)"/>
      <use xlink:href="#DejaVuSans-20" transform="translate(620.564453 0)"/>
      <use xlink:href="#DejaVuSans-52" transform="translate(652.351562 0)"/>
      <use xlink:href="#DejaVuSans-65" transform="translate(717.333984 0)"/>
      <use xlink:href="#DejaVuSans-73" transform="translate(778.857422 0)"/>
      <use xlink:href="#DejaVuSans-75" transform="translate(830.957031 0)"/>
      <use xlink:href="#DejaVuSans-6c" transform="translate(894.335938 0)"/>
      <use xlink:href="#DejaVuSans-74" transform="translate(922.119141 0)"/>
      <use xlink:href="#DejaVuSans-73" transform="translate(961.328125 0)"/>
     </g>
    </g>
    <g id="line2d_40">
     <path d="M 59.137685 69.632562 
L 69.137685 69.632562 
L 79.137685 69.632562 
" style="fill: none; stroke: #ff7f0e; stroke-width: 1.5; stroke-linecap: square"/>
    </g>
    <g id="text_15">
     <!-- Single Small Results -->
     <g transform="translate(87.137685 73.132562) scale(0.1 -0.1)">
      <use xlink:href="#DejaVuSans-53"/>
      <use xlink:href="#DejaVuSans-69" transform="translate(63.476562 0)"/>
      <use xlink:href="#DejaVuSans-6e" transform="translate(91.259766 0)"/>
      <use xlink:href="#DejaVuSans-67" transform="translate(154.638672 0)"/>
      <use xlink:href="#DejaVuSans-6c" transform="translate(218.115234 0)"/>
      <use xlink:href="#DejaVuSans-65" transform="translate(245.898438 0)"/>
      <use xlink:href="#DejaVuSans-20" transform="translate(307.421875 0)"/>
      <use xlink:href="#DejaVuSans-53" transform="translate(339.208984 0)"/>
      <use xlink:href="#DejaVuSans-6d" transform="translate(402.685547 0)"/>
      <use xlink:href="#DejaVuSans-61" transform="translate(500.097656 0)"/>
      <use xlink:href="#DejaVuSans-6c" transform="translate(561.376953 0)"/>
      <use xlink:href="#DejaVuSans-6c" transform="translate(589.160156 0)"/>
      <use xlink:href="#DejaVuSans-20" transform="translate(616.943359 0)"/>
      <use xlink:href="#DejaVuSans-52" transform="translate(648.730469 0)"/>
      <use xlink:href="#DejaVuSans-65" transform="translate(713.712891 0)"/>
      <use xlink:href="#DejaVuSans-73" transform="translate(775.236328 0)"/>
      <use xlink:href="#DejaVuSans-75" transform="translate(827.335938 0)"/>
      <use xlink:href="#DejaVuSans-6c" transform="translate(890.714844 0)"/>
      <use xlink:href="#DejaVuSans-74" transform="translate(918.498047 0)"/>
      <use xlink:href="#DejaVuSans-73" transform="translate(957.707031 0)"/>
     </g>
    </g>
    <g id="line2d_41">
     <path d="M 59.137685 84.310687 
L 69.137685 84.310687 
L 79.137685 84.310687 
" style="fill: none; stroke: #2ca02c; stroke-width: 1.5; stroke-linecap: square"/>
    </g>
    <g id="text_16">
     <!-- Multi Results -->
     <g transform="translate(87.137685 87.810687) scale(0.1 -0.1)">
      <defs>
       <path id="DejaVuSans-4d" d="M 628 4666 
L 1569 4666 
L 2759 1491 
L 3956 4666 
L 4897 4666 
L 4897 0 
L 4281 0 
L 4281 4097 
L 3078 897 
L 2444 897 
L 1241 4097 
L 1241 0 
L 628 0 
L 628 4666 
z
" transform="scale(0.015625)"/>
      </defs>
      <use xlink:href="#DejaVuSans-4d"/>
      <use xlink:href="#DejaVuSans-75" transform="translate(86.279297 0)"/>
      <use xlink:href="#DejaVuSans-6c" transform="translate(149.658203 0)"/>
      <use xlink:href="#DejaVuSans-74" transform="translate(177.441406 0)"/>
      <use xlink:href="#DejaVuSans-69" transform="translate(216.650391 0)"/>
      <use xlink:href="#DejaVuSans-20" transform="translate(244.433594 0)"/>
      <use xlink:href="#DejaVuSans-52" transform="translate(276.220703 0)"/>
      <use xlink:href="#DejaVuSans-65" transform="translate(341.203125 0)"/>
      <use xlink:href="#DejaVuSans-73" transform="translate(402.726562 0)"/>
      <use xlink:href="#DejaVuSans-75" transform="translate(454.826172 0)"/>
      <use xlink:href="#DejaVuSans-6c" transform="translate(518.205078 0)"/>
      <use xlink:href="#DejaVuSans-74" transform="translate(545.988281 0)"/>
      <use xlink:href="#DejaVuSans-73" transform="translate(585.197266 0)"/>
     </g>
    </g>
   </g>
  </g>
 </g>
 <defs>
  <clipPath id="p727fa2b339">
   <rect x="50.137685" y="41.856" width="803.062315" height="348.184"/>
  </clipPath>
 </defs>
</svg>
