<?xml version="1.0" encoding="utf-8" standalone="no"?>
<!DOCTYPE svg PUBLIC "-//W3C//DTD SVG 1.1//EN"
  "http://www.w3.org/Graphics/SVG/1.1/DTD/svg11.dtd">
<svg xmlns:xlink="http://www.w3.org/1999/xlink" width="864pt" height="432pt" viewBox="0 0 864 432" xmlns="http://www.w3.org/2000/svg" version="1.1">
 <metadata>
  <rdf:RDF xmlns:dc="http://purl.org/dc/elements/1.1/" xmlns:cc="http://creativecommons.org/ns#" xmlns:rdf="http://www.w3.org/1999/02/22-rdf-syntax-ns#">
   <cc:Work>
    <dc:type rdf:resource="http://purl.org/dc/dcmitype/StillImage"/>
    <dc:date>2025-05-31T16:14:33.396781</dc:date>
    <dc:format>image/svg+xml</dc:format>
    <dc:creator>
     <cc:Agent>
      <dc:title>Matplotlib v3.10.1, https://matplotlib.org/</dc:title>
     </cc:Agent>
    </dc:creator>
   </cc:Work>
  </rdf:RDF>
 </metadata>
 <defs>
  <style type="text/css">*{stroke-linejoin: round; stroke-linecap: butt}</style>
 </defs>
 <g id="figure_1">
  <g id="patch_1">
   <path d="M 0 432 
L 864 432 
L 864 0 
L 0 0 
z
" style="fill: #ffffff"/>
  </g>
  <g id="axes_1">
   <g id="patch_2">
    <path d="M 50.137685 390.04 
L 853.2 390.04 
L 853.2 41.856 
L 50.137685 41.856 
z
" style="fill: #ffffff"/>
   </g>
   <g id="matplotlib.axis_1">
    <g id="xtick_1">
     <g id="line2d_1">
      <defs>
       <path id="m9e79c3b3c5" d="M 0 0 
L 0 3.5 
" style="stroke: #000000; stroke-width: 0.8"/>
      </defs>
      <g>
       <use xlink:href="#m9e79c3b3c5" x="86.640517" y="390.04" style="stroke: #000000; stroke-width: 0.8"/>
      </g>
     </g>
     <g id="text_1">
      <!-- 0 -->
      <g transform="translate(83.459267 404.638438) scale(0.1 -0.1)">
       <defs>
        <path id="DejaVuSans-30" d="M 2034 4250 
Q 1547 4250 1301 3770 
Q 1056 3291 1056 2328 
Q 1056 1369 1301 889 
Q 1547 409 2034 409 
Q 2525 409 2770 889 
Q 3016 1369 3016 2328 
Q 3016 3291 2770 3770 
Q 2525 4250 2034 4250 
z
M 2034 4750 
Q 2819 4750 3233 4129 
Q 3647 3509 3647 2328 
Q 3647 1150 3233 529 
Q 2819 -91 2034 -91 
Q 1250 -91 836 529 
Q 422 1150 422 2328 
Q 422 3509 836 4129 
Q 1250 4750 2034 4750 
z
" transform="scale(0.015625)"/>
       </defs>
       <use xlink:href="#DejaVuSans-30"/>
      </g>
     </g>
    </g>
    <g id="xtick_2">
     <g id="line2d_2">
      <g>
       <use xlink:href="#m9e79c3b3c5" x="232.753527" y="390.04" style="stroke: #000000; stroke-width: 0.8"/>
      </g>
     </g>
     <g id="text_2">
      <!-- 20 -->
      <g transform="translate(226.391027 404.638438) scale(0.1 -0.1)">
       <defs>
        <path id="DejaVuSans-32" d="M 1228 531 
L 3431 531 
L 3431 0 
L 469 0 
L 469 531 
Q 828 903 1448 1529 
Q 2069 2156 2228 2338 
Q 2531 2678 2651 2914 
Q 2772 3150 2772 3378 
Q 2772 3750 2511 3984 
Q 2250 4219 1831 4219 
Q 1534 4219 1204 4116 
Q 875 4013 500 3803 
L 500 4441 
Q 881 4594 1212 4672 
Q 1544 4750 1819 4750 
Q 2544 4750 2975 4387 
Q 3406 4025 3406 3419 
Q 3406 3131 3298 2873 
Q 3191 2616 2906 2266 
Q 2828 2175 2409 1742 
Q 1991 1309 1228 531 
z
" transform="scale(0.015625)"/>
       </defs>
       <use xlink:href="#DejaVuSans-32"/>
       <use xlink:href="#DejaVuSans-30" transform="translate(63.623047 0)"/>
      </g>
     </g>
    </g>
    <g id="xtick_3">
     <g id="line2d_3">
      <g>
       <use xlink:href="#m9e79c3b3c5" x="378.866536" y="390.04" style="stroke: #000000; stroke-width: 0.8"/>
      </g>
     </g>
     <g id="text_3">
      <!-- 40 -->
      <g transform="translate(372.504036 404.638438) scale(0.1 -0.1)">
       <defs>
        <path id="DejaVuSans-34" d="M 2419 4116 
L 825 1625 
L 2419 1625 
L 2419 4116 
z
M 2253 4666 
L 3047 4666 
L 3047 1625 
L 3713 1625 
L 3713 1100 
L 3047 1100 
L 3047 0 
L 2419 0 
L 2419 1100 
L 313 1100 
L 313 1709 
L 2253 4666 
z
" transform="scale(0.015625)"/>
       </defs>
       <use xlink:href="#DejaVuSans-34"/>
       <use xlink:href="#DejaVuSans-30" transform="translate(63.623047 0)"/>
      </g>
     </g>
    </g>
    <g id="xtick_4">
     <g id="line2d_4">
      <g>
       <use xlink:href="#m9e79c3b3c5" x="524.979545" y="390.04" style="stroke: #000000; stroke-width: 0.8"/>
      </g>
     </g>
     <g id="text_4">
      <!-- 60 -->
      <g transform="translate(518.617045 404.638438) scale(0.1 -0.1)">
       <defs>
        <path id="DejaVuSans-36" d="M 2113 2584 
Q 1688 2584 1439 2293 
Q 1191 2003 1191 1497 
Q 1191 994 1439 701 
Q 1688 409 2113 409 
Q 2538 409 2786 701 
Q 3034 994 3034 1497 
Q 3034 2003 2786 2293 
Q 2538 2584 2113 2584 
z
M 3366 4563 
L 3366 3988 
Q 3128 4100 2886 4159 
Q 2644 4219 2406 4219 
Q 1781 4219 1451 3797 
Q 1122 3375 1075 2522 
Q 1259 2794 1537 2939 
Q 1816 3084 2150 3084 
Q 2853 3084 3261 2657 
Q 3669 2231 3669 1497 
Q 3669 778 3244 343 
Q 2819 -91 2113 -91 
Q 1303 -91 875 529 
Q 447 1150 447 2328 
Q 447 3434 972 4092 
Q 1497 4750 2381 4750 
Q 2619 4750 2861 4703 
Q 3103 4656 3366 4563 
z
" transform="scale(0.015625)"/>
       </defs>
       <use xlink:href="#DejaVuSans-36"/>
       <use xlink:href="#DejaVuSans-30" transform="translate(63.623047 0)"/>
      </g>
     </g>
    </g>
    <g id="xtick_5">
     <g id="line2d_5">
      <g>
       <use xlink:href="#m9e79c3b3c5" x="671.092554" y="390.04" style="stroke: #000000; stroke-width: 0.8"/>
      </g>
     </g>
     <g id="text_5">
      <!-- 80 -->
      <g transform="translate(664.730054 404.638438) scale(0.1 -0.1)">
       <defs>
        <path id="DejaVuSans-38" d="M 2034 2216 
Q 1584 2216 1326 1975 
Q 1069 1734 1069 1313 
Q 1069 891 1326 650 
Q 1584 409 2034 409 
Q 2484 409 2743 651 
Q 3003 894 3003 1313 
Q 3003 1734 2745 1975 
Q 2488 2216 2034 2216 
z
M 1403 2484 
Q 997 2584 770 2862 
Q 544 3141 544 3541 
Q 544 4100 942 4425 
Q 1341 4750 2034 4750 
Q 2731 4750 3128 4425 
Q 3525 4100 3525 3541 
Q 3525 3141 3298 2862 
Q 3072 2584 2669 2484 
Q 3125 2378 3379 2068 
Q 3634 1759 3634 1313 
Q 3634 634 3220 271 
Q 2806 -91 2034 -91 
Q 1263 -91 848 271 
Q 434 634 434 1313 
Q 434 1759 690 2068 
Q 947 2378 1403 2484 
z
M 1172 3481 
Q 1172 3119 1398 2916 
Q 1625 2713 2034 2713 
Q 2441 2713 2670 2916 
Q 2900 3119 2900 3481 
Q 2900 3844 2670 4047 
Q 2441 4250 2034 4250 
Q 1625 4250 1398 4047 
Q 1172 3844 1172 3481 
z
" transform="scale(0.015625)"/>
       </defs>
       <use xlink:href="#DejaVuSans-38"/>
       <use xlink:href="#DejaVuSans-30" transform="translate(63.623047 0)"/>
      </g>
     </g>
    </g>
    <g id="xtick_6">
     <g id="line2d_6">
      <g>
       <use xlink:href="#m9e79c3b3c5" x="817.205563" y="390.04" style="stroke: #000000; stroke-width: 0.8"/>
      </g>
     </g>
     <g id="text_6">
      <!-- 100 -->
      <g transform="translate(807.661813 404.638438) scale(0.1 -0.1)">
       <defs>
        <path id="DejaVuSans-31" d="M 794 531 
L 1825 531 
L 1825 4091 
L 703 3866 
L 703 4441 
L 1819 4666 
L 2450 4666 
L 2450 531 
L 3481 531 
L 3481 0 
L 794 0 
L 794 531 
z
" transform="scale(0.015625)"/>
       </defs>
       <use xlink:href="#DejaVuSans-31"/>
       <use xlink:href="#DejaVuSans-30" transform="translate(63.623047 0)"/>
       <use xlink:href="#DejaVuSans-30" transform="translate(127.246094 0)"/>
      </g>
     </g>
    </g>
    <g id="text_7">
     <!-- Percentile (%) -->
     <g transform="translate(416.764936 418.316562) scale(0.1 -0.1)">
      <defs>
       <path id="DejaVuSans-50" d="M 1259 4147 
L 1259 2394 
L 2053 2394 
Q 2494 2394 2734 2622 
Q 2975 2850 2975 3272 
Q 2975 3691 2734 3919 
Q 2494 4147 2053 4147 
L 1259 4147 
z
M 628 4666 
L 2053 4666 
Q 2838 4666 3239 4311 
Q 3641 3956 3641 3272 
Q 3641 2581 3239 2228 
Q 2838 1875 2053 1875 
L 1259 1875 
L 1259 0 
L 628 0 
L 628 4666 
z
" transform="scale(0.015625)"/>
       <path id="DejaVuSans-65" d="M 3597 1894 
L 3597 1613 
L 953 1613 
Q 991 1019 1311 708 
Q 1631 397 2203 397 
Q 2534 397 2845 478 
Q 3156 559 3463 722 
L 3463 178 
Q 3153 47 2828 -22 
Q 2503 -91 2169 -91 
Q 1331 -91 842 396 
Q 353 884 353 1716 
Q 353 2575 817 3079 
Q 1281 3584 2069 3584 
Q 2775 3584 3186 3129 
Q 3597 2675 3597 1894 
z
M 3022 2063 
Q 3016 2534 2758 2815 
Q 2500 3097 2075 3097 
Q 1594 3097 1305 2825 
Q 1016 2553 972 2059 
L 3022 2063 
z
" transform="scale(0.015625)"/>
       <path id="DejaVuSans-72" d="M 2631 2963 
Q 2534 3019 2420 3045 
Q 2306 3072 2169 3072 
Q 1681 3072 1420 2755 
Q 1159 2438 1159 1844 
L 1159 0 
L 581 0 
L 581 3500 
L 1159 3500 
L 1159 2956 
Q 1341 3275 1631 3429 
Q 1922 3584 2338 3584 
Q 2397 3584 2469 3576 
Q 2541 3569 2628 3553 
L 2631 2963 
z
" transform="scale(0.015625)"/>
       <path id="DejaVuSans-63" d="M 3122 3366 
L 3122 2828 
Q 2878 2963 2633 3030 
Q 2388 3097 2138 3097 
Q 1578 3097 1268 2742 
Q 959 2388 959 1747 
Q 959 1106 1268 751 
Q 1578 397 2138 397 
Q 2388 397 2633 464 
Q 2878 531 3122 666 
L 3122 134 
Q 2881 22 2623 -34 
Q 2366 -91 2075 -91 
Q 1284 -91 818 406 
Q 353 903 353 1747 
Q 353 2603 823 3093 
Q 1294 3584 2113 3584 
Q 2378 3584 2631 3529 
Q 2884 3475 3122 3366 
z
" transform="scale(0.015625)"/>
       <path id="DejaVuSans-6e" d="M 3513 2113 
L 3513 0 
L 2938 0 
L 2938 2094 
Q 2938 2591 2744 2837 
Q 2550 3084 2163 3084 
Q 1697 3084 1428 2787 
Q 1159 2491 1159 1978 
L 1159 0 
L 581 0 
L 581 3500 
L 1159 3500 
L 1159 2956 
Q 1366 3272 1645 3428 
Q 1925 3584 2291 3584 
Q 2894 3584 3203 3211 
Q 3513 2838 3513 2113 
z
" transform="scale(0.015625)"/>
       <path id="DejaVuSans-74" d="M 1172 4494 
L 1172 3500 
L 2356 3500 
L 2356 3053 
L 1172 3053 
L 1172 1153 
Q 1172 725 1289 603 
Q 1406 481 1766 481 
L 2356 481 
L 2356 0 
L 1766 0 
Q 1100 0 847 248 
Q 594 497 594 1153 
L 594 3053 
L 172 3053 
L 172 3500 
L 594 3500 
L 594 4494 
L 1172 4494 
z
" transform="scale(0.015625)"/>
       <path id="DejaVuSans-69" d="M 603 3500 
L 1178 3500 
L 1178 0 
L 603 0 
L 603 3500 
z
M 603 4863 
L 1178 4863 
L 1178 4134 
L 603 4134 
L 603 4863 
z
" transform="scale(0.015625)"/>
       <path id="DejaVuSans-6c" d="M 603 4863 
L 1178 4863 
L 1178 0 
L 603 0 
L 603 4863 
z
" transform="scale(0.015625)"/>
       <path id="DejaVuSans-20" transform="scale(0.015625)"/>
       <path id="DejaVuSans-28" d="M 1984 4856 
Q 1566 4138 1362 3434 
Q 1159 2731 1159 2009 
Q 1159 1288 1364 580 
Q 1569 -128 1984 -844 
L 1484 -844 
Q 1016 -109 783 600 
Q 550 1309 550 2009 
Q 550 2706 781 3412 
Q 1013 4119 1484 4856 
L 1984 4856 
z
" transform="scale(0.015625)"/>
       <path id="DejaVuSans-25" d="M 4653 2053 
Q 4381 2053 4226 1822 
Q 4072 1591 4072 1178 
Q 4072 772 4226 539 
Q 4381 306 4653 306 
Q 4919 306 5073 539 
Q 5228 772 5228 1178 
Q 5228 1588 5073 1820 
Q 4919 2053 4653 2053 
z
M 4653 2450 
Q 5147 2450 5437 2106 
Q 5728 1763 5728 1178 
Q 5728 594 5436 251 
Q 5144 -91 4653 -91 
Q 4153 -91 3862 251 
Q 3572 594 3572 1178 
Q 3572 1766 3864 2108 
Q 4156 2450 4653 2450 
z
M 1428 4353 
Q 1159 4353 1004 4120 
Q 850 3888 850 3481 
Q 850 3069 1003 2837 
Q 1156 2606 1428 2606 
Q 1700 2606 1854 2837 
Q 2009 3069 2009 3481 
Q 2009 3884 1853 4118 
Q 1697 4353 1428 4353 
z
M 4250 4750 
L 4750 4750 
L 1831 -91 
L 1331 -91 
L 4250 4750 
z
M 1428 4750 
Q 1922 4750 2215 4408 
Q 2509 4066 2509 3481 
Q 2509 2891 2217 2550 
Q 1925 2209 1428 2209 
Q 931 2209 642 2551 
Q 353 2894 353 3481 
Q 353 4063 643 4406 
Q 934 4750 1428 4750 
z
" transform="scale(0.015625)"/>
       <path id="DejaVuSans-29" d="M 513 4856 
L 1013 4856 
Q 1481 4119 1714 3412 
Q 1947 2706 1947 2009 
Q 1947 1309 1714 600 
Q 1481 -109 1013 -844 
L 513 -844 
Q 928 -128 1133 580 
Q 1338 1288 1338 2009 
Q 1338 2731 1133 3434 
Q 928 4138 513 4856 
z
" transform="scale(0.015625)"/>
      </defs>
      <use xlink:href="#DejaVuSans-50"/>
      <use xlink:href="#DejaVuSans-65" transform="translate(56.677734 0)"/>
      <use xlink:href="#DejaVuSans-72" transform="translate(118.201172 0)"/>
      <use xlink:href="#DejaVuSans-63" transform="translate(157.064453 0)"/>
      <use xlink:href="#DejaVuSans-65" transform="translate(212.044922 0)"/>
      <use xlink:href="#DejaVuSans-6e" transform="translate(273.568359 0)"/>
      <use xlink:href="#DejaVuSans-74" transform="translate(336.947266 0)"/>
      <use xlink:href="#DejaVuSans-69" transform="translate(376.15625 0)"/>
      <use xlink:href="#DejaVuSans-6c" transform="translate(403.939453 0)"/>
      <use xlink:href="#DejaVuSans-65" transform="translate(431.722656 0)"/>
      <use xlink:href="#DejaVuSans-20" transform="translate(493.246094 0)"/>
      <use xlink:href="#DejaVuSans-28" transform="translate(525.033203 0)"/>
      <use xlink:href="#DejaVuSans-25" transform="translate(564.046875 0)"/>
      <use xlink:href="#DejaVuSans-29" transform="translate(659.066406 0)"/>
     </g>
    </g>
   </g>
   <g id="matplotlib.axis_2">
    <g id="ytick_1">
     <g id="line2d_7">
      <defs>
       <path id="mbfc94b5a22" d="M 0 0 
L -3.5 0 
" style="stroke: #000000; stroke-width: 0.8"/>
      </defs>
      <g>
       <use xlink:href="#mbfc94b5a22" x="50.137685" y="311.690882" style="stroke: #000000; stroke-width: 0.8"/>
      </g>
     </g>
     <g id="text_8">
      <!-- $\mathdefault{10^{2}}$ -->
      <g transform="translate(25.537685 315.490101) scale(0.1 -0.1)">
       <use xlink:href="#DejaVuSans-31" transform="translate(0 0.765625)"/>
       <use xlink:href="#DejaVuSans-30" transform="translate(63.623047 0.765625)"/>
       <use xlink:href="#DejaVuSans-32" transform="translate(128.203125 39.046875) scale(0.7)"/>
      </g>
     </g>
    </g>
    <g id="ytick_2">
     <g id="line2d_8">
      <g>
       <use xlink:href="#mbfc94b5a22" x="50.137685" y="220.260475" style="stroke: #000000; stroke-width: 0.8"/>
      </g>
     </g>
     <g id="text_9">
      <!-- $\mathdefault{10^{3}}$ -->
      <g transform="translate(25.537685 224.059693) scale(0.1 -0.1)">
       <defs>
        <path id="DejaVuSans-33" d="M 2597 2516 
Q 3050 2419 3304 2112 
Q 3559 1806 3559 1356 
Q 3559 666 3084 287 
Q 2609 -91 1734 -91 
Q 1441 -91 1130 -33 
Q 819 25 488 141 
L 488 750 
Q 750 597 1062 519 
Q 1375 441 1716 441 
Q 2309 441 2620 675 
Q 2931 909 2931 1356 
Q 2931 1769 2642 2001 
Q 2353 2234 1838 2234 
L 1294 2234 
L 1294 2753 
L 1863 2753 
Q 2328 2753 2575 2939 
Q 2822 3125 2822 3475 
Q 2822 3834 2567 4026 
Q 2313 4219 1838 4219 
Q 1578 4219 1281 4162 
Q 984 4106 628 3988 
L 628 4550 
Q 988 4650 1302 4700 
Q 1616 4750 1894 4750 
Q 2613 4750 3031 4423 
Q 3450 4097 3450 3541 
Q 3450 3153 3228 2886 
Q 3006 2619 2597 2516 
z
" transform="scale(0.015625)"/>
       </defs>
       <use xlink:href="#DejaVuSans-31" transform="translate(0 0.765625)"/>
       <use xlink:href="#DejaVuSans-30" transform="translate(63.623047 0.765625)"/>
       <use xlink:href="#DejaVuSans-33" transform="translate(128.203125 39.046875) scale(0.7)"/>
      </g>
     </g>
    </g>
    <g id="ytick_3">
     <g id="line2d_9">
      <g>
       <use xlink:href="#mbfc94b5a22" x="50.137685" y="128.830067" style="stroke: #000000; stroke-width: 0.8"/>
      </g>
     </g>
     <g id="text_10">
      <!-- $\mathdefault{10^{4}}$ -->
      <g transform="translate(25.537685 132.629286) scale(0.1 -0.1)">
       <use xlink:href="#DejaVuSans-31" transform="translate(0 0.684375)"/>
       <use xlink:href="#DejaVuSans-30" transform="translate(63.623047 0.684375)"/>
       <use xlink:href="#DejaVuSans-34" transform="translate(128.203125 38.965625) scale(0.7)"/>
      </g>
     </g>
    </g>
    <g id="ytick_4">
     <g id="line2d_10">
      <defs>
       <path id="me4bddc261b" d="M 0 0 
L -2 0 
" style="stroke: #000000; stroke-width: 0.6"/>
      </defs>
      <g>
       <use xlink:href="#me4bddc261b" x="50.137685" y="375.597994" style="stroke: #000000; stroke-width: 0.6"/>
      </g>
     </g>
    </g>
    <g id="ytick_5">
     <g id="line2d_11">
      <g>
       <use xlink:href="#me4bddc261b" x="50.137685" y="359.497899" style="stroke: #000000; stroke-width: 0.6"/>
      </g>
     </g>
    </g>
    <g id="ytick_6">
     <g id="line2d_12">
      <g>
       <use xlink:href="#me4bddc261b" x="50.137685" y="348.074699" style="stroke: #000000; stroke-width: 0.6"/>
      </g>
     </g>
    </g>
    <g id="ytick_7">
     <g id="line2d_13">
      <g>
       <use xlink:href="#me4bddc261b" x="50.137685" y="339.214177" style="stroke: #000000; stroke-width: 0.6"/>
      </g>
     </g>
    </g>
    <g id="ytick_8">
     <g id="line2d_14">
      <g>
       <use xlink:href="#me4bddc261b" x="50.137685" y="331.974604" style="stroke: #000000; stroke-width: 0.6"/>
      </g>
     </g>
    </g>
    <g id="ytick_9">
     <g id="line2d_15">
      <g>
       <use xlink:href="#me4bddc261b" x="50.137685" y="325.853631" style="stroke: #000000; stroke-width: 0.6"/>
      </g>
     </g>
    </g>
    <g id="ytick_10">
     <g id="line2d_16">
      <g>
       <use xlink:href="#me4bddc261b" x="50.137685" y="320.551404" style="stroke: #000000; stroke-width: 0.6"/>
      </g>
     </g>
    </g>
    <g id="ytick_11">
     <g id="line2d_17">
      <g>
       <use xlink:href="#me4bddc261b" x="50.137685" y="315.874508" style="stroke: #000000; stroke-width: 0.6"/>
      </g>
     </g>
    </g>
    <g id="ytick_12">
     <g id="line2d_18">
      <g>
       <use xlink:href="#me4bddc261b" x="50.137685" y="284.167587" style="stroke: #000000; stroke-width: 0.6"/>
      </g>
     </g>
    </g>
    <g id="ytick_13">
     <g id="line2d_19">
      <g>
       <use xlink:href="#me4bddc261b" x="50.137685" y="268.067491" style="stroke: #000000; stroke-width: 0.6"/>
      </g>
     </g>
    </g>
    <g id="ytick_14">
     <g id="line2d_20">
      <g>
       <use xlink:href="#me4bddc261b" x="50.137685" y="256.644292" style="stroke: #000000; stroke-width: 0.6"/>
      </g>
     </g>
    </g>
    <g id="ytick_15">
     <g id="line2d_21">
      <g>
       <use xlink:href="#me4bddc261b" x="50.137685" y="247.78377" style="stroke: #000000; stroke-width: 0.6"/>
      </g>
     </g>
    </g>
    <g id="ytick_16">
     <g id="line2d_22">
      <g>
       <use xlink:href="#me4bddc261b" x="50.137685" y="240.544196" style="stroke: #000000; stroke-width: 0.6"/>
      </g>
     </g>
    </g>
    <g id="ytick_17">
     <g id="line2d_23">
      <g>
       <use xlink:href="#me4bddc261b" x="50.137685" y="234.423224" style="stroke: #000000; stroke-width: 0.6"/>
      </g>
     </g>
    </g>
    <g id="ytick_18">
     <g id="line2d_24">
      <g>
       <use xlink:href="#me4bddc261b" x="50.137685" y="229.120996" style="stroke: #000000; stroke-width: 0.6"/>
      </g>
     </g>
    </g>
    <g id="ytick_19">
     <g id="line2d_25">
      <g>
       <use xlink:href="#me4bddc261b" x="50.137685" y="224.444101" style="stroke: #000000; stroke-width: 0.6"/>
      </g>
     </g>
    </g>
    <g id="ytick_20">
     <g id="line2d_26">
      <g>
       <use xlink:href="#me4bddc261b" x="50.137685" y="192.737179" style="stroke: #000000; stroke-width: 0.6"/>
      </g>
     </g>
    </g>
    <g id="ytick_21">
     <g id="line2d_27">
      <g>
       <use xlink:href="#me4bddc261b" x="50.137685" y="176.637084" style="stroke: #000000; stroke-width: 0.6"/>
      </g>
     </g>
    </g>
    <g id="ytick_22">
     <g id="line2d_28">
      <g>
       <use xlink:href="#me4bddc261b" x="50.137685" y="165.213884" style="stroke: #000000; stroke-width: 0.6"/>
      </g>
     </g>
    </g>
    <g id="ytick_23">
     <g id="line2d_29">
      <g>
       <use xlink:href="#me4bddc261b" x="50.137685" y="156.353362" style="stroke: #000000; stroke-width: 0.6"/>
      </g>
     </g>
    </g>
    <g id="ytick_24">
     <g id="line2d_30">
      <g>
       <use xlink:href="#me4bddc261b" x="50.137685" y="149.113789" style="stroke: #000000; stroke-width: 0.6"/>
      </g>
     </g>
    </g>
    <g id="ytick_25">
     <g id="line2d_31">
      <g>
       <use xlink:href="#me4bddc261b" x="50.137685" y="142.992816" style="stroke: #000000; stroke-width: 0.6"/>
      </g>
     </g>
    </g>
    <g id="ytick_26">
     <g id="line2d_32">
      <g>
       <use xlink:href="#me4bddc261b" x="50.137685" y="137.690589" style="stroke: #000000; stroke-width: 0.6"/>
      </g>
     </g>
    </g>
    <g id="ytick_27">
     <g id="line2d_33">
      <g>
       <use xlink:href="#me4bddc261b" x="50.137685" y="133.013693" style="stroke: #000000; stroke-width: 0.6"/>
      </g>
     </g>
    </g>
    <g id="ytick_28">
     <g id="line2d_34">
      <g>
       <use xlink:href="#me4bddc261b" x="50.137685" y="101.306772" style="stroke: #000000; stroke-width: 0.6"/>
      </g>
     </g>
    </g>
    <g id="ytick_29">
     <g id="line2d_35">
      <g>
       <use xlink:href="#me4bddc261b" x="50.137685" y="85.206676" style="stroke: #000000; stroke-width: 0.6"/>
      </g>
     </g>
    </g>
    <g id="ytick_30">
     <g id="line2d_36">
      <g>
       <use xlink:href="#me4bddc261b" x="50.137685" y="73.783477" style="stroke: #000000; stroke-width: 0.6"/>
      </g>
     </g>
    </g>
    <g id="ytick_31">
     <g id="line2d_37">
      <g>
       <use xlink:href="#me4bddc261b" x="50.137685" y="64.922955" style="stroke: #000000; stroke-width: 0.6"/>
      </g>
     </g>
    </g>
    <g id="ytick_32">
     <g id="line2d_38">
      <g>
       <use xlink:href="#me4bddc261b" x="50.137685" y="57.683381" style="stroke: #000000; stroke-width: 0.6"/>
      </g>
     </g>
    </g>
    <g id="ytick_33">
     <g id="line2d_39">
      <g>
       <use xlink:href="#me4bddc261b" x="50.137685" y="51.562409" style="stroke: #000000; stroke-width: 0.6"/>
      </g>
     </g>
    </g>
    <g id="ytick_34">
     <g id="line2d_40">
      <g>
       <use xlink:href="#me4bddc261b" x="50.137685" y="46.260182" style="stroke: #000000; stroke-width: 0.6"/>
      </g>
     </g>
    </g>
    <g id="text_11">
     <!-- Duration (ms) -->
     <g transform="translate(19.457997 250.62925) rotate(-90) scale(0.1 -0.1)">
      <defs>
       <path id="DejaVuSans-44" d="M 1259 4147 
L 1259 519 
L 2022 519 
Q 2988 519 3436 956 
Q 3884 1394 3884 2338 
Q 3884 3275 3436 3711 
Q 2988 4147 2022 4147 
L 1259 4147 
z
M 628 4666 
L 1925 4666 
Q 3281 4666 3915 4102 
Q 4550 3538 4550 2338 
Q 4550 1131 3912 565 
Q 3275 0 1925 0 
L 628 0 
L 628 4666 
z
" transform="scale(0.015625)"/>
       <path id="DejaVuSans-75" d="M 544 1381 
L 544 3500 
L 1119 3500 
L 1119 1403 
Q 1119 906 1312 657 
Q 1506 409 1894 409 
Q 2359 409 2629 706 
Q 2900 1003 2900 1516 
L 2900 3500 
L 3475 3500 
L 3475 0 
L 2900 0 
L 2900 538 
Q 2691 219 2414 64 
Q 2138 -91 1772 -91 
Q 1169 -91 856 284 
Q 544 659 544 1381 
z
M 1991 3584 
L 1991 3584 
z
" transform="scale(0.015625)"/>
       <path id="DejaVuSans-61" d="M 2194 1759 
Q 1497 1759 1228 1600 
Q 959 1441 959 1056 
Q 959 750 1161 570 
Q 1363 391 1709 391 
Q 2188 391 2477 730 
Q 2766 1069 2766 1631 
L 2766 1759 
L 2194 1759 
z
M 3341 1997 
L 3341 0 
L 2766 0 
L 2766 531 
Q 2569 213 2275 61 
Q 1981 -91 1556 -91 
Q 1019 -91 701 211 
Q 384 513 384 1019 
Q 384 1609 779 1909 
Q 1175 2209 1959 2209 
L 2766 2209 
L 2766 2266 
Q 2766 2663 2505 2880 
Q 2244 3097 1772 3097 
Q 1472 3097 1187 3025 
Q 903 2953 641 2809 
L 641 3341 
Q 956 3463 1253 3523 
Q 1550 3584 1831 3584 
Q 2591 3584 2966 3190 
Q 3341 2797 3341 1997 
z
" transform="scale(0.015625)"/>
       <path id="DejaVuSans-6f" d="M 1959 3097 
Q 1497 3097 1228 2736 
Q 959 2375 959 1747 
Q 959 1119 1226 758 
Q 1494 397 1959 397 
Q 2419 397 2687 759 
Q 2956 1122 2956 1747 
Q 2956 2369 2687 2733 
Q 2419 3097 1959 3097 
z
M 1959 3584 
Q 2709 3584 3137 3096 
Q 3566 2609 3566 1747 
Q 3566 888 3137 398 
Q 2709 -91 1959 -91 
Q 1206 -91 779 398 
Q 353 888 353 1747 
Q 353 2609 779 3096 
Q 1206 3584 1959 3584 
z
" transform="scale(0.015625)"/>
       <path id="DejaVuSans-6d" d="M 3328 2828 
Q 3544 3216 3844 3400 
Q 4144 3584 4550 3584 
Q 5097 3584 5394 3201 
Q 5691 2819 5691 2113 
L 5691 0 
L 5113 0 
L 5113 2094 
Q 5113 2597 4934 2840 
Q 4756 3084 4391 3084 
Q 3944 3084 3684 2787 
Q 3425 2491 3425 1978 
L 3425 0 
L 2847 0 
L 2847 2094 
Q 2847 2600 2669 2842 
Q 2491 3084 2119 3084 
Q 1678 3084 1418 2786 
Q 1159 2488 1159 1978 
L 1159 0 
L 581 0 
L 581 3500 
L 1159 3500 
L 1159 2956 
Q 1356 3278 1631 3431 
Q 1906 3584 2284 3584 
Q 2666 3584 2933 3390 
Q 3200 3197 3328 2828 
z
" transform="scale(0.015625)"/>
       <path id="DejaVuSans-73" d="M 2834 3397 
L 2834 2853 
Q 2591 2978 2328 3040 
Q 2066 3103 1784 3103 
Q 1356 3103 1142 2972 
Q 928 2841 928 2578 
Q 928 2378 1081 2264 
Q 1234 2150 1697 2047 
L 1894 2003 
Q 2506 1872 2764 1633 
Q 3022 1394 3022 966 
Q 3022 478 2636 193 
Q 2250 -91 1575 -91 
Q 1294 -91 989 -36 
Q 684 19 347 128 
L 347 722 
Q 666 556 975 473 
Q 1284 391 1588 391 
Q 1994 391 2212 530 
Q 2431 669 2431 922 
Q 2431 1156 2273 1281 
Q 2116 1406 1581 1522 
L 1381 1569 
Q 847 1681 609 1914 
Q 372 2147 372 2553 
Q 372 3047 722 3315 
Q 1072 3584 1716 3584 
Q 2034 3584 2315 3537 
Q 2597 3491 2834 3397 
z
" transform="scale(0.015625)"/>
      </defs>
      <use xlink:href="#DejaVuSans-44"/>
      <use xlink:href="#DejaVuSans-75" transform="translate(77.001953 0)"/>
      <use xlink:href="#DejaVuSans-72" transform="translate(140.380859 0)"/>
      <use xlink:href="#DejaVuSans-61" transform="translate(181.494141 0)"/>
      <use xlink:href="#DejaVuSans-74" transform="translate(242.773438 0)"/>
      <use xlink:href="#DejaVuSans-69" transform="translate(281.982422 0)"/>
      <use xlink:href="#DejaVuSans-6f" transform="translate(309.765625 0)"/>
      <use xlink:href="#DejaVuSans-6e" transform="translate(370.947266 0)"/>
      <use xlink:href="#DejaVuSans-20" transform="translate(434.326172 0)"/>
      <use xlink:href="#DejaVuSans-28" transform="translate(466.113281 0)"/>
      <use xlink:href="#DejaVuSans-6d" transform="translate(505.126953 0)"/>
      <use xlink:href="#DejaVuSans-73" transform="translate(602.539062 0)"/>
      <use xlink:href="#DejaVuSans-29" transform="translate(654.638672 0)"/>
     </g>
    </g>
   </g>
   <g id="line2d_41">
    <path d="M 86.640517 374.213455 
L 87.148913 373.818886 
L 88.165705 373.426234 
L 88.674101 372.833073 
L 89.182497 372.472474 
L 90.199289 372.248459 
L 90.707685 372.033817 
L 91.724477 371.917524 
L 92.232873 371.786145 
L 94.266457 371.627916 
L 94.774853 371.501038 
L 95.791645 371.47212 
L 96.300041 371.1573 
L 96.808437 371.088158 
L 97.316833 370.878225 
L 98.333625 370.702932 
L 99.858813 370.389125 
L 100.875605 370.330853 
L 102.400793 369.585068 
L 102.909189 369.574351 
L 103.417585 369.313802 
L 104.942773 369.208378 
L 105.959565 369.08952 
L 106.976357 368.987574 
L 110.026733 368.783313 
L 113.077109 368.663574 
L 114.093901 368.413126 
L 117.144277 368.314981 
L 118.669465 368.089971 
L 119.686257 368.00456 
L 124.261821 367.576952 
L 129.854177 367.292067 
L 132.904553 366.792564 
L 134.429741 366.597888 
L 135.954929 366.501907 
L 137.988513 366.423938 
L 140.530493 366.320889 
L 141.547285 366.180985 
L 145.614453 365.954117 
L 146.631245 365.822071 
L 147.648037 365.715941 
L 150.698413 365.396395 
L 151.206809 365.15585 
L 153.748789 364.781854 
L 156.290769 364.305198 
L 157.307561 364.247784 
L 159.341145 363.606734 
L 159.849541 363.60102 
L 160.357937 363.478892 
L 160.866333 363.122833 
L 161.883125 363.042465 
L 164.425105 362.229689 
L 164.933501 362.184767 
L 165.441897 362.011276 
L 165.950293 361.547846 
L 167.983877 361.403055 
L 168.492273 361.159295 
L 170.017461 361.084162 
L 171.034253 360.896423 
L 172.051045 360.67128 
L 174.084629 360.359845 
L 174.593025 359.884018 
L 177.135005 359.597181 
L 178.151797 359.114324 
L 179.676985 359.013035 
L 180.185381 358.736265 
L 182.218965 358.670363 
L 184.252549 358.268528 
L 184.760944 357.984871 
L 185.777736 357.951308 
L 187.81132 357.279853 
L 188.319716 357.277906 
L 189.336508 356.294826 
L 189.844904 355.936975 
L 190.3533 355.913728 
L 190.861696 355.682283 
L 191.370092 355.622417 
L 192.386884 354.905983 
L 192.89528 354.900896 
L 193.403676 354.374083 
L 193.912072 354.094845 
L 194.420468 353.566365 
L 195.43726 353.214669 
L 195.945656 352.588248 
L 198.487636 352.010393 
L 199.504428 350.762887 
L 200.52122 350.637015 
L 201.029616 349.457731 
L 201.538012 349.438684 
L 202.554804 348.620215 
L 203.0632 348.051085 
L 204.079992 347.523921 
L 205.60518 347.230739 
L 206.113576 346.880709 
L 207.130368 346.534344 
L 207.638764 346.483075 
L 208.14716 346.03608 
L 209.163952 345.649694 
L 211.197536 344.958568 
L 212.214328 344.865233 
L 212.722724 344.552022 
L 213.739516 344.165307 
L 214.247912 343.808157 
L 214.756308 343.670098 
L 215.7731 342.691459 
L 216.281496 342.622689 
L 217.298288 342.118629 
L 217.806684 342.044227 
L 218.31508 341.831807 
L 218.823476 341.145962 
L 219.331872 341.045955 
L 220.348664 340.602393 
L 222.382248 339.927264 
L 223.39904 339.183921 
L 223.907436 339.180741 
L 224.415832 338.676611 
L 225.94102 338.489558 
L 226.449416 338.151371 
L 226.957812 336.909857 
L 227.466208 336.780633 
L 227.974604 336.408552 
L 230.516584 336.070896 
L 231.02498 336.061404 
L 231.533376 335.700542 
L 232.041772 335.694511 
L 232.550168 335.329041 
L 233.058564 335.155178 
L 233.56696 335.123238 
L 234.075356 334.907527 
L 235.600544 334.712737 
L 236.10894 334.243466 
L 236.617336 333.975248 
L 237.125732 333.838004 
L 237.634128 333.832214 
L 239.159316 333.273725 
L 244.243276 332.662783 
L 244.751672 332.12993 
L 246.27686 331.944852 
L 246.785256 331.643452 
L 247.293652 331.539935 
L 247.802048 331.263499 
L 248.310444 330.629393 
L 248.81884 330.592436 
L 250.852424 329.670205 
L 251.36082 329.515031 
L 251.869216 329.504063 
L 252.377612 329.219752 
L 253.394404 329.180316 
L 253.9028 329.042 
L 254.411196 328.700992 
L 254.919592 328.096197 
L 255.427988 327.860071 
L 256.44478 327.800352 
L 256.953176 327.254973 
L 257.969968 327.151074 
L 258.478364 326.546317 
L 259.495156 326.371462 
L 262.037136 325.383405 
L 263.053928 325.21015 
L 264.579116 324.772368 
L 266.104304 324.659603 
L 266.6127 324.466035 
L 267.629492 324.350885 
L 268.137888 324.29213 
L 268.646284 324.089286 
L 269.663076 323.97972 
L 270.171472 323.872529 
L 270.679868 323.456305 
L 272.205056 323.276346 
L 272.713452 322.973627 
L 273.221848 322.8936 
L 273.730244 322.52035 
L 277.289016 321.900896 
L 277.797412 321.687706 
L 278.814204 321.573307 
L 279.3226 321.311069 
L 280.339392 321.271598 
L 281.356184 321.050065 
L 284.914956 320.605089 
L 285.931748 320.016271 
L 286.94854 319.913027 
L 287.456936 319.666571 
L 287.965332 319.656809 
L 288.982124 319.520564 
L 289.998916 319.4489 
L 290.507312 319.138043 
L 293.049292 318.730967 
L 294.066084 318.56327 
L 294.57448 318.400706 
L 296.099668 318.28136 
L 300.675232 317.567985 
L 301.183628 317.317488 
L 301.692024 316.74487 
L 303.217212 316.429401 
L 303.725608 316.402703 
L 304.7424 315.958817 
L 305.250796 315.480069 
L 306.267588 315.431762 
L 306.775984 315.062509 
L 307.28438 315.044873 
L 308.301172 314.459257 
L 309.317964 314.417729 
L 309.82636 314.166761 
L 311.351547 314.047911 
L 311.859943 313.794962 
L 312.876735 313.670904 
L 313.385131 313.032766 
L 314.910319 312.654853 
L 318.469091 312.306521 
L 319.994279 312.241955 
L 320.502675 311.999272 
L 321.519467 311.907269 
L 322.536259 311.679685 
L 325.586635 311.314971 
L 327.111823 311.258492 
L 327.620219 311.106154 
L 328.128615 310.79847 
L 330.670595 310.602797 
L 331.687387 310.264602 
L 332.195783 310.202113 
L 332.704179 309.957804 
L 333.212575 309.902775 
L 333.720971 309.699357 
L 336.771347 309.401766 
L 339.313327 309.016757 
L 339.821723 308.826942 
L 340.838515 308.800257 
L 341.855307 308.583137 
L 342.872099 308.422551 
L 343.888891 307.973208 
L 344.905683 307.852572 
L 345.414079 307.762792 
L 345.922475 307.511642 
L 347.956059 307.177674 
L 349.989643 307.019539 
L 351.514831 306.890437 
L 352.531623 306.681309 
L 353.548415 306.533026 
L 354.565207 306.093553 
L 357.107187 305.62125 
L 357.615583 305.423705 
L 359.649167 305.279809 
L 360.157563 305.143562 
L 361.174355 305.057127 
L 363.716335 304.890054 
L 364.224731 304.877523 
L 364.733127 304.592355 
L 367.275107 304.379638 
L 368.291899 303.995432 
L 370.325483 303.673094 
L 370.833879 303.143126 
L 371.342275 302.890389 
L 373.884255 302.49347 
L 374.392651 302.249588 
L 376.934631 301.976077 
L 387.102551 300.985538 
L 391.169719 300.647081 
L 398.795659 300.145167 
L 399.304055 300.133243 
L 401.337639 299.676794 
L 402.354431 299.061133 
L 403.371223 298.929009 
L 403.879619 298.710323 
L 404.388015 298.691323 
L 405.404807 298.418945 
L 406.929995 298.31743 
L 407.946787 298.104482 
L 408.455183 298.066524 
L 409.471975 297.51901 
L 410.488767 297.419038 
L 411.505559 297.322038 
L 412.013955 296.960842 
L 413.030747 296.702019 
L 413.539143 296.307537 
L 414.047539 296.164764 
L 414.555935 294.947056 
L 415.572727 294.791301 
L 416.589519 294.330833 
L 418.114707 294.309744 
L 418.623103 294.128902 
L 421.673479 293.917487 
L 422.690271 293.691895 
L 424.723855 293.507005 
L 425.740647 293.309727 
L 427.265835 293.129323 
L 429.807815 293.005385 
L 433.366587 292.905638 
L 434.383379 292.79311 
L 434.891775 292.793094 
L 435.908567 292.654901 
L 437.94215 292.567692 
L 439.975734 292.448275 
L 443.02611 292.329784 
L 443.534506 292.080807 
L 448.11007 291.796395 
L 449.635258 291.65226 
L 454.719218 291.411929 
L 457.769594 291.287991 
L 459.294782 291.179622 
L 470.98789 290.818265 
L 476.07185 290.562979 
L 480.647414 290.341419 
L 482.172602 290.18361 
L 484.206186 290.030264 
L 486.23977 289.895067 
L 487.256562 289.79486 
L 490.306938 289.652844 
L 492.848918 289.481303 
L 495.390898 289.171073 
L 498.94967 288.897595 
L 501.49165 288.752537 
L 503.525234 288.394975 
L 507.084006 287.579798 
L 508.100798 286.891325 
L 508.609194 286.875795 
L 509.625986 286.237449 
L 510.134382 286.041828 
L 510.642778 286.039186 
L 511.151174 285.802811 
L 513.184758 285.607878 
L 514.20155 285.302966 
L 515.218342 285.29855 
L 515.726738 285.136438 
L 516.235134 284.582718 
L 517.251926 284.477474 
L 518.777114 284.33398 
L 519.793906 284.163762 
L 520.810698 284.051891 
L 521.319094 283.809595 
L 523.861074 283.690584 
L 527.419846 283.517677 
L 528.436638 283.26819 
L 530.978618 283.17121 
L 533.012202 283.027919 
L 534.53739 282.97072 
L 535.045786 282.760221 
L 538.604558 282.452866 
L 539.62135 282.044593 
L 541.654934 281.837662 
L 544.196914 281.70489 
L 544.70531 281.535184 
L 548.264082 281.251525 
L 549.78927 281.160368 
L 550.297666 281.134645 
L 550.806062 280.964864 
L 553.856438 280.846651 
L 555.890022 280.763811 
L 556.906814 280.621801 
L 560.465586 280.379959 
L 566.057941 279.858641 
L 567.074733 279.701114 
L 571.650297 279.363445 
L 572.158693 279.360797 
L 572.667089 279.068749 
L 574.192277 278.859175 
L 575.717465 278.740321 
L 577.751049 278.014512 
L 578.767841 277.798899 
L 579.276237 277.62081 
L 580.293029 277.52782 
L 581.818217 276.918767 
L 584.360197 276.691436 
L 584.868593 276.453163 
L 585.376989 276.376887 
L 585.885385 276.074526 
L 587.410573 275.901653 
L 587.918969 275.890355 
L 588.427365 275.695378 
L 589.444157 275.511411 
L 589.952553 275.394733 
L 590.969345 274.933678 
L 593.002929 274.731465 
L 593.511325 274.359172 
L 595.544909 274.078896 
L 597.578493 273.781565 
L 598.086889 273.297612 
L 598.595285 273.296555 
L 599.103681 273.133351 
L 601.645661 272.974493 
L 603.170849 272.680919 
L 605.204433 272.626478 
L 605.712829 272.455686 
L 608.254809 272.293511 
L 608.763205 272.046793 
L 610.288393 271.970667 
L 614.863957 271.77634 
L 618.422729 271.562105 
L 631.132629 270.952156 
L 632.657817 270.743602 
L 633.166213 270.245613 
L 633.674609 270.171945 
L 634.183005 269.964447 
L 634.691401 269.949661 
L 636.216589 269.599915 
L 636.724985 269.015204 
L 637.233381 268.786121 
L 640.283757 268.221362 
L 640.792153 267.945596 
L 642.317341 267.900761 
L 642.825737 267.750466 
L 644.859321 267.597225 
L 647.401301 266.891193 
L 647.909697 266.884726 
L 651.468469 265.955334 
L 651.976865 265.374389 
L 652.485261 265.336955 
L 652.993657 265.076835 
L 656.044033 264.55946 
L 657.060825 264.32791 
L 657.569221 263.548088 
L 658.586013 263.399981 
L 661.127993 263.279198 
L 664.178369 262.83108 
L 664.686765 262.611269 
L 665.195161 262.600458 
L 665.703557 262.232248 
L 666.211953 262.121047 
L 666.720349 260.820024 
L 667.228745 260.543849 
L 667.737141 260.462424 
L 668.245537 260.21899 
L 669.262329 260.137592 
L 675.363081 259.323005 
L 678.413457 259.148171 
L 679.938645 258.958817 
L 681.972229 258.870261 
L 683.497417 258.742225 
L 690.106564 258.530593 
L 691.123356 258.42352 
L 692.648544 258.285822 
L 694.173732 258.052973 
L 694.682128 258.049739 
L 696.207316 257.718225 
L 696.715712 257.450035 
L 697.224108 256.817852 
L 698.749296 256.641892 
L 699.257692 255.980579 
L 699.766088 255.923613 
L 700.274484 255.428632 
L 700.78288 255.239044 
L 701.291276 254.638364 
L 702.308068 254.40066 
L 702.816464 254.215147 
L 703.833256 254.020087 
L 704.850048 253.760527 
L 706.375236 253.662056 
L 706.883632 253.580354 
L 707.392028 253.252126 
L 708.40882 253.194499 
L 710.442404 252.479053 
L 711.967592 252.383768 
L 712.475988 252.177743 
L 712.984384 252.150252 
L 713.49278 251.620082 
L 714.001176 250.900692 
L 715.017968 250.613969 
L 715.526364 250.152597 
L 716.03476 249.964679 
L 716.543156 249.551367 
L 717.051552 249.540816 
L 717.559948 249.162264 
L 719.593532 249.094334 
L 720.610324 248.972077 
L 723.152304 248.730589 
L 724.677492 248.126405 
L 725.185888 246.97334 
L 726.20268 245.956335 
L 726.711076 245.881173 
L 727.219472 243.906218 
L 728.236264 243.473361 
L 728.74466 241.694616 
L 729.253056 241.230062 
L 731.28664 240.979808 
L 731.795036 238.92724 
L 732.303432 238.755623 
L 732.811828 238.452944 
L 733.320224 238.343653 
L 733.82862 237.839124 
L 734.337016 237.504937 
L 734.845412 237.318805 
L 735.353808 236.89767 
L 735.862204 236.858638 
L 736.3706 236.500349 
L 736.878996 236.390675 
L 737.387392 234.740099 
L 738.91258 234.633286 
L 742.471352 234.042767 
L 742.979748 232.208105 
L 745.013332 232.05675 
L 746.030124 232.047795 
L 746.53852 230.959164 
L 747.046916 229.342872 
L 748.063708 229.307616 
L 748.572104 229.017249 
L 749.588896 228.847538 
L 750.097292 228.767603 
L 750.605688 228.437817 
L 751.114084 227.495145 
L 751.62248 227.194077 
L 752.130876 227.13605 
L 752.639272 225.46384 
L 753.147668 224.761165 
L 753.656064 224.740777 
L 754.16446 224.326029 
L 755.689648 224.315842 
L 756.198044 222.570376 
L 756.70644 222.550427 
L 757.214836 222.061609 
L 757.723232 222.025527 
L 759.24842 219.770126 
L 759.756816 217.886949 
L 760.265212 217.881462 
L 760.773608 216.541572 
L 762.298796 216.512706 
L 762.807192 216.328233 
L 763.315588 210.636654 
L 763.823984 209.798337 
L 764.33238 207.9565 
L 764.840776 206.807783 
L 765.349172 206.765585 
L 765.857568 130.927884 
L 766.365964 108.954877 
L 766.87436 105.059476 
L 767.382756 103.50588 
L 768.399548 103.189814 
L 768.907944 101.965541 
L 770.941528 101.583664 
L 771.449924 101.189295 
L 771.95832 101.070663 
L 772.466716 100.482771 
L 772.975112 100.182352 
L 773.483508 99.399562 
L 773.991904 99.286531 
L 774.5003 99.00689 
L 775.517092 98.746773 
L 776.533884 98.187574 
L 777.04228 98.099197 
L 777.550676 97.715355 
L 778.059072 97.589815 
L 778.567468 97.579956 
L 779.075864 96.980987 
L 779.58426 96.815932 
L 780.601052 96.730646 
L 781.109448 96.286792 
L 781.617844 96.216696 
L 783.651428 95.316739 
L 784.159824 95.301075 
L 785.176616 95.003114 
L 785.685012 94.407301 
L 786.193408 94.240119 
L 787.2102 93.511641 
L 787.718596 93.390677 
L 788.226992 92.716411 
L 789.75218 92.530572 
L 790.260576 92.394066 
L 790.768972 92.388319 
L 791.277368 92.124034 
L 795.344536 91.833383 
L 796.361328 91.646695 
L 799.411704 91.223445 
L 801.953684 91.116399 
L 802.46208 90.615713 
L 804.495664 90.49135 
L 805.512456 90.211735 
L 814.663584 89.281094 
L 815.17198 88.922066 
L 816.697167 88.37415 
L 816.697167 88.37415 
" clip-path="url(#pf9f48e683d)" style="fill: none; stroke: #1f77b4; stroke-width: 1.5; stroke-linecap: square"/>
   </g>
   <g id="line2d_42">
    <path d="M 86.640517 354.402413 
L 92.728559 315.192369 
L 98.816601 311.592974 
L 104.904643 310.46788 
L 110.992685 308.087719 
L 117.080728 307.915826 
L 123.16877 307.364627 
L 129.256812 306.969271 
L 135.344854 289.609086 
L 141.432896 288.359405 
L 147.520938 286.052028 
L 153.60898 286.019795 
L 159.697022 285.663631 
L 165.785064 285.497409 
L 171.873106 285.377965 
L 177.961148 283.71568 
L 184.04919 268.962039 
L 190.137232 268.771304 
L 196.225274 268.655157 
L 202.313316 268.509589 
L 208.401358 267.986861 
L 214.4894 267.930739 
L 220.577442 267.768142 
L 226.665484 218.455324 
L 232.753527 207.536267 
L 238.841569 184.280648 
L 244.929611 182.69655 
L 251.017653 181.26285 
L 257.105695 180.639783 
L 263.193737 178.304726 
L 269.281779 177.108253 
L 275.369821 175.714129 
L 281.457863 170.822004 
L 287.545905 169.747266 
L 293.633947 169.436943 
L 299.721989 164.77684 
L 305.810031 160.74622 
L 311.898073 158.950436 
L 317.986115 156.710419 
L 324.074157 154.963339 
L 330.162199 151.22502 
L 336.250241 147.5711 
L 342.338283 145.938043 
L 348.426326 140.207958 
L 354.514368 130.111039 
L 360.60241 116.487941 
L 366.690452 116.050283 
L 372.778494 115.618742 
L 378.866536 115.189335 
L 384.954578 67.228328 
L 391.04262 67.029781 
L 397.130662 66.632226 
L 403.218704 65.481836 
L 409.306746 65.448182 
L 415.394788 65.432726 
L 421.48283 64.692056 
L 427.570872 63.843489 
L 433.658914 63.650112 
L 439.746956 63.213189 
L 445.834998 63.112294 
L 451.92304 62.744142 
L 458.011082 62.737985 
L 464.099124 62.548912 
L 470.187167 62.511338 
L 476.275209 62.334262 
L 482.363251 62.320763 
L 488.451293 61.931623 
L 494.539335 61.928319 
L 500.627377 61.92556 
L 506.715419 61.855383 
L 512.803461 61.694342 
L 518.891503 61.586165 
L 524.979545 61.437727 
L 531.067587 61.284639 
L 537.155629 61.138979 
L 543.243671 60.941787 
L 549.331713 60.667508 
L 555.419755 60.665698 
L 561.507797 59.997719 
L 567.595839 59.965385 
L 573.683881 59.958965 
L 579.771923 59.460996 
L 585.859966 59.401487 
L 591.948008 59.251247 
L 598.03605 59.227168 
L 604.124092 58.67076 
L 610.212134 58.595605 
L 616.300176 58.333613 
L 622.388218 58.322963 
L 628.47626 58.194753 
L 634.564302 58.120366 
L 640.652344 58.02781 
L 646.740386 57.95672 
L 652.828428 57.750628 
L 658.91647 57.694496 
L 665.004512 57.690703 
L 671.092554 57.683515 
L 677.180596 57.683489 
L 683.268638 57.68346 
L 689.35668 57.68345 
L 695.444722 57.683398 
L 701.532765 57.683363 
L 707.620807 57.683302 
L 713.708849 57.683294 
L 719.796891 57.683282 
L 725.884933 57.683279 
L 731.972975 57.683237 
L 738.061017 57.683231 
L 744.149059 57.683225 
L 750.237101 57.683203 
L 756.325143 57.683196 
L 762.413185 57.683177 
L 768.501227 57.683174 
L 774.589269 57.683114 
L 780.677311 57.683091 
L 786.765353 57.683047 
L 792.853395 57.683031 
L 798.941437 57.683023 
L 805.029479 57.682975 
L 811.117521 57.682968 
" clip-path="url(#pf9f48e683d)" style="fill: none; stroke: #ff7f0e; stroke-width: 1.5; stroke-linecap: square"/>
   </g>
   <g id="line2d_43">
    <path d="M 86.640517 326.115789 
L 90.610979 309.163564 
L 94.581442 309.072455 
L 98.551904 304.015461 
L 102.522366 302.442015 
L 106.492828 298.055727 
L 110.463291 288.01026 
L 114.433753 264.407196 
L 118.404215 259.079508 
L 122.374677 251.361349 
L 126.345139 249.618881 
L 130.315602 237.046594 
L 134.286064 232.961733 
L 138.256526 230.734916 
L 142.226988 230.403135 
L 146.19745 230.359368 
L 150.167913 229.707597 
L 154.138375 227.778379 
L 162.079299 227.459823 
L 166.049761 226.410931 
L 170.020224 225.089305 
L 173.990686 224.381801 
L 177.961148 223.936384 
L 181.93161 223.339605 
L 185.902072 223.187185 
L 193.842997 214.282817 
L 197.813459 213.395784 
L 201.783921 206.153045 
L 205.754384 206.002786 
L 209.724846 198.040285 
L 213.695308 197.641668 
L 217.66577 195.509608 
L 221.636232 195.16143 
L 225.606695 195.075412 
L 229.577157 194.847351 
L 233.547619 192.734928 
L 237.518081 189.705051 
L 241.488543 185.978388 
L 245.459006 185.042497 
L 249.429468 184.681857 
L 253.39993 180.203707 
L 257.370392 179.101372 
L 261.340854 176.048836 
L 265.311317 173.5912 
L 269.281779 172.923072 
L 273.252241 171.165826 
L 277.222703 170.319649 
L 281.193165 168.772044 
L 285.163628 167.003283 
L 289.13409 163.399912 
L 297.075014 161.337056 
L 301.045476 160.64063 
L 305.015939 160.588654 
L 308.986401 159.858274 
L 312.956863 159.62879 
L 316.927325 156.414792 
L 320.897788 154.377015 
L 324.86825 153.912524 
L 328.838712 152.597137 
L 340.750099 151.953202 
L 344.720561 150.659934 
L 348.691023 150.068379 
L 352.661485 149.913659 
L 356.631947 148.903676 
L 360.60241 148.458997 
L 364.572872 146.802135 
L 368.543334 146.482738 
L 376.484258 144.550795 
L 380.454721 142.891411 
L 384.425183 141.888856 
L 388.395645 141.092591 
L 392.366107 140.985553 
L 396.336569 140.654721 
L 400.307032 140.452322 
L 404.277494 139.500586 
L 412.218418 139.392633 
L 416.188881 138.867879 
L 420.159343 138.729879 
L 424.129805 137.920177 
L 428.100267 136.990753 
L 432.070729 136.507395 
L 436.041192 135.564149 
L 440.011654 135.561722 
L 443.982116 135.31166 
L 447.952578 134.581977 
L 451.92304 134.173988 
L 455.893503 134.142658 
L 463.834427 133.831554 
L 471.775351 133.626431 
L 479.716276 133.456154 
L 483.686738 133.060463 
L 495.598125 132.53255 
L 503.539049 131.868954 
L 535.302747 131.434548 
L 547.214133 130.845529 
L 563.095982 129.834529 
L 567.066444 129.728883 
L 571.036907 129.402755 
L 575.007369 128.647621 
L 594.85968 128.1856 
L 598.830142 127.719377 
L 602.800604 127.49082 
L 606.771066 127.488628 
L 614.711991 126.706386 
L 618.682453 126.704624 
L 622.652915 126.33304 
L 626.623378 57.683282 
L 813.235101 57.682545 
L 813.235101 57.682545 
" clip-path="url(#pf9f48e683d)" style="fill: none; stroke: #2ca02c; stroke-width: 1.5; stroke-linecap: square"/>
   </g>
   <g id="patch_3">
    <path d="M 50.137685 390.04 
L 50.137685 41.856 
" style="fill: none; stroke: #000000; stroke-width: 0.8; stroke-linejoin: miter; stroke-linecap: square"/>
   </g>
   <g id="patch_4">
    <path d="M 853.2 390.04 
L 853.2 41.856 
" style="fill: none; stroke: #000000; stroke-width: 0.8; stroke-linejoin: miter; stroke-linecap: square"/>
   </g>
   <g id="patch_5">
    <path d="M 50.137685 390.04 
L 853.2 390.04 
" style="fill: none; stroke: #000000; stroke-width: 0.8; stroke-linejoin: miter; stroke-linecap: square"/>
   </g>
   <g id="patch_6">
    <path d="M 50.137685 41.856 
L 853.2 41.856 
" style="fill: none; stroke: #000000; stroke-width: 0.8; stroke-linejoin: miter; stroke-linecap: square"/>
   </g>
   <g id="text_12">
    <!-- HTTP Request Duration Percentiles -->
    <g transform="translate(347.44228 22.355625) scale(0.12 -0.12)">
     <defs>
      <path id="DejaVuSans-48" d="M 628 4666 
L 1259 4666 
L 1259 2753 
L 3553 2753 
L 3553 4666 
L 4184 4666 
L 4184 0 
L 3553 0 
L 3553 2222 
L 1259 2222 
L 1259 0 
L 628 0 
L 628 4666 
z
" transform="scale(0.015625)"/>
      <path id="DejaVuSans-54" d="M -19 4666 
L 3928 4666 
L 3928 4134 
L 2272 4134 
L 2272 0 
L 1638 0 
L 1638 4134 
L -19 4134 
L -19 4666 
z
" transform="scale(0.015625)"/>
      <path id="DejaVuSans-52" d="M 2841 2188 
Q 3044 2119 3236 1894 
Q 3428 1669 3622 1275 
L 4263 0 
L 3584 0 
L 2988 1197 
Q 2756 1666 2539 1819 
Q 2322 1972 1947 1972 
L 1259 1972 
L 1259 0 
L 628 0 
L 628 4666 
L 2053 4666 
Q 2853 4666 3247 4331 
Q 3641 3997 3641 3322 
Q 3641 2881 3436 2590 
Q 3231 2300 2841 2188 
z
M 1259 4147 
L 1259 2491 
L 2053 2491 
Q 2509 2491 2742 2702 
Q 2975 2913 2975 3322 
Q 2975 3731 2742 3939 
Q 2509 4147 2053 4147 
L 1259 4147 
z
" transform="scale(0.015625)"/>
      <path id="DejaVuSans-71" d="M 947 1747 
Q 947 1113 1208 752 
Q 1469 391 1925 391 
Q 2381 391 2643 752 
Q 2906 1113 2906 1747 
Q 2906 2381 2643 2742 
Q 2381 3103 1925 3103 
Q 1469 3103 1208 2742 
Q 947 2381 947 1747 
z
M 2906 525 
Q 2725 213 2448 61 
Q 2172 -91 1784 -91 
Q 1150 -91 751 415 
Q 353 922 353 1747 
Q 353 2572 751 3078 
Q 1150 3584 1784 3584 
Q 2172 3584 2448 3432 
Q 2725 3281 2906 2969 
L 2906 3500 
L 3481 3500 
L 3481 -1331 
L 2906 -1331 
L 2906 525 
z
" transform="scale(0.015625)"/>
     </defs>
     <use xlink:href="#DejaVuSans-48"/>
     <use xlink:href="#DejaVuSans-54" transform="translate(75.195312 0)"/>
     <use xlink:href="#DejaVuSans-54" transform="translate(134.529297 0)"/>
     <use xlink:href="#DejaVuSans-50" transform="translate(195.613281 0)"/>
     <use xlink:href="#DejaVuSans-20" transform="translate(255.916016 0)"/>
     <use xlink:href="#DejaVuSans-52" transform="translate(287.703125 0)"/>
     <use xlink:href="#DejaVuSans-65" transform="translate(352.685547 0)"/>
     <use xlink:href="#DejaVuSans-71" transform="translate(414.208984 0)"/>
     <use xlink:href="#DejaVuSans-75" transform="translate(477.685547 0)"/>
     <use xlink:href="#DejaVuSans-65" transform="translate(541.064453 0)"/>
     <use xlink:href="#DejaVuSans-73" transform="translate(602.587891 0)"/>
     <use xlink:href="#DejaVuSans-74" transform="translate(654.6875 0)"/>
     <use xlink:href="#DejaVuSans-20" transform="translate(693.896484 0)"/>
     <use xlink:href="#DejaVuSans-44" transform="translate(725.683594 0)"/>
     <use xlink:href="#DejaVuSans-75" transform="translate(802.685547 0)"/>
     <use xlink:href="#DejaVuSans-72" transform="translate(866.064453 0)"/>
     <use xlink:href="#DejaVuSans-61" transform="translate(907.177734 0)"/>
     <use xlink:href="#DejaVuSans-74" transform="translate(968.457031 0)"/>
     <use xlink:href="#DejaVuSans-69" transform="translate(1007.666016 0)"/>
     <use xlink:href="#DejaVuSans-6f" transform="translate(1035.449219 0)"/>
     <use xlink:href="#DejaVuSans-6e" transform="translate(1096.630859 0)"/>
     <use xlink:href="#DejaVuSans-20" transform="translate(1160.009766 0)"/>
     <use xlink:href="#DejaVuSans-50" transform="translate(1191.796875 0)"/>
     <use xlink:href="#DejaVuSans-65" transform="translate(1248.474609 0)"/>
     <use xlink:href="#DejaVuSans-72" transform="translate(1309.998047 0)"/>
     <use xlink:href="#DejaVuSans-63" transform="translate(1348.861328 0)"/>
     <use xlink:href="#DejaVuSans-65" transform="translate(1403.841797 0)"/>
     <use xlink:href="#DejaVuSans-6e" transform="translate(1465.365234 0)"/>
     <use xlink:href="#DejaVuSans-74" transform="translate(1528.744141 0)"/>
     <use xlink:href="#DejaVuSans-69" transform="translate(1567.953125 0)"/>
     <use xlink:href="#DejaVuSans-6c" transform="translate(1595.736328 0)"/>
     <use xlink:href="#DejaVuSans-65" transform="translate(1623.519531 0)"/>
     <use xlink:href="#DejaVuSans-73" transform="translate(1685.042969 0)"/>
    </g>
    <!-- Test: spike | Endpoint: PostWaypoint -->
    <g transform="translate(343.278842 35.856) scale(0.12 -0.12)">
     <defs>
      <path id="DejaVuSans-3a" d="M 750 794 
L 1409 794 
L 1409 0 
L 750 0 
L 750 794 
z
M 750 3309 
L 1409 3309 
L 1409 2516 
L 750 2516 
L 750 3309 
z
" transform="scale(0.015625)"/>
      <path id="DejaVuSans-70" d="M 1159 525 
L 1159 -1331 
L 581 -1331 
L 581 3500 
L 1159 3500 
L 1159 2969 
Q 1341 3281 1617 3432 
Q 1894 3584 2278 3584 
Q 2916 3584 3314 3078 
Q 3713 2572 3713 1747 
Q 3713 922 3314 415 
Q 2916 -91 2278 -91 
Q 1894 -91 1617 61 
Q 1341 213 1159 525 
z
M 3116 1747 
Q 3116 2381 2855 2742 
Q 2594 3103 2138 3103 
Q 1681 3103 1420 2742 
Q 1159 2381 1159 1747 
Q 1159 1113 1420 752 
Q 1681 391 2138 391 
Q 2594 391 2855 752 
Q 3116 1113 3116 1747 
z
" transform="scale(0.015625)"/>
      <path id="DejaVuSans-6b" d="M 581 4863 
L 1159 4863 
L 1159 1991 
L 2875 3500 
L 3609 3500 
L 1753 1863 
L 3688 0 
L 2938 0 
L 1159 1709 
L 1159 0 
L 581 0 
L 581 4863 
z
" transform="scale(0.015625)"/>
      <path id="DejaVuSans-7c" d="M 1344 4891 
L 1344 -1509 
L 813 -1509 
L 813 4891 
L 1344 4891 
z
" transform="scale(0.015625)"/>
      <path id="DejaVuSans-45" d="M 628 4666 
L 3578 4666 
L 3578 4134 
L 1259 4134 
L 1259 2753 
L 3481 2753 
L 3481 2222 
L 1259 2222 
L 1259 531 
L 3634 531 
L 3634 0 
L 628 0 
L 628 4666 
z
" transform="scale(0.015625)"/>
      <path id="DejaVuSans-64" d="M 2906 2969 
L 2906 4863 
L 3481 4863 
L 3481 0 
L 2906 0 
L 2906 525 
Q 2725 213 2448 61 
Q 2172 -91 1784 -91 
Q 1150 -91 751 415 
Q 353 922 353 1747 
Q 353 2572 751 3078 
Q 1150 3584 1784 3584 
Q 2172 3584 2448 3432 
Q 2725 3281 2906 2969 
z
M 947 1747 
Q 947 1113 1208 752 
Q 1469 391 1925 391 
Q 2381 391 2643 752 
Q 2906 1113 2906 1747 
Q 2906 2381 2643 2742 
Q 2381 3103 1925 3103 
Q 1469 3103 1208 2742 
Q 947 2381 947 1747 
z
" transform="scale(0.015625)"/>
      <path id="DejaVuSans-57" d="M 213 4666 
L 850 4666 
L 1831 722 
L 2809 4666 
L 3519 4666 
L 4500 722 
L 5478 4666 
L 6119 4666 
L 4947 0 
L 4153 0 
L 3169 4050 
L 2175 0 
L 1381 0 
L 213 4666 
z
" transform="scale(0.015625)"/>
      <path id="DejaVuSans-79" d="M 2059 -325 
Q 1816 -950 1584 -1140 
Q 1353 -1331 966 -1331 
L 506 -1331 
L 506 -850 
L 844 -850 
Q 1081 -850 1212 -737 
Q 1344 -625 1503 -206 
L 1606 56 
L 191 3500 
L 800 3500 
L 1894 763 
L 2988 3500 
L 3597 3500 
L 2059 -325 
z
" transform="scale(0.015625)"/>
     </defs>
     <use xlink:href="#DejaVuSans-54"/>
     <use xlink:href="#DejaVuSans-65" transform="translate(44.083984 0)"/>
     <use xlink:href="#DejaVuSans-73" transform="translate(105.607422 0)"/>
     <use xlink:href="#DejaVuSans-74" transform="translate(157.707031 0)"/>
     <use xlink:href="#DejaVuSans-3a" transform="translate(196.916016 0)"/>
     <use xlink:href="#DejaVuSans-20" transform="translate(230.607422 0)"/>
     <use xlink:href="#DejaVuSans-73" transform="translate(262.394531 0)"/>
     <use xlink:href="#DejaVuSans-70" transform="translate(314.494141 0)"/>
     <use xlink:href="#DejaVuSans-69" transform="translate(377.970703 0)"/>
     <use xlink:href="#DejaVuSans-6b" transform="translate(405.753906 0)"/>
     <use xlink:href="#DejaVuSans-65" transform="translate(460.039062 0)"/>
     <use xlink:href="#DejaVuSans-20" transform="translate(521.5625 0)"/>
     <use xlink:href="#DejaVuSans-7c" transform="translate(553.349609 0)"/>
     <use xlink:href="#DejaVuSans-20" transform="translate(587.041016 0)"/>
     <use xlink:href="#DejaVuSans-45" transform="translate(618.828125 0)"/>
     <use xlink:href="#DejaVuSans-6e" transform="translate(682.011719 0)"/>
     <use xlink:href="#DejaVuSans-64" transform="translate(745.390625 0)"/>
     <use xlink:href="#DejaVuSans-70" transform="translate(808.867188 0)"/>
     <use xlink:href="#DejaVuSans-6f" transform="translate(872.34375 0)"/>
     <use xlink:href="#DejaVuSans-69" transform="translate(933.525391 0)"/>
     <use xlink:href="#DejaVuSans-6e" transform="translate(961.308594 0)"/>
     <use xlink:href="#DejaVuSans-74" transform="translate(1024.6875 0)"/>
     <use xlink:href="#DejaVuSans-3a" transform="translate(1063.896484 0)"/>
     <use xlink:href="#DejaVuSans-20" transform="translate(1097.587891 0)"/>
     <use xlink:href="#DejaVuSans-50" transform="translate(1129.375 0)"/>
     <use xlink:href="#DejaVuSans-6f" transform="translate(1186.052734 0)"/>
     <use xlink:href="#DejaVuSans-73" transform="translate(1247.234375 0)"/>
     <use xlink:href="#DejaVuSans-74" transform="translate(1299.333984 0)"/>
     <use xlink:href="#DejaVuSans-57" transform="translate(1338.542969 0)"/>
     <use xlink:href="#DejaVuSans-61" transform="translate(1431.044922 0)"/>
     <use xlink:href="#DejaVuSans-79" transform="translate(1492.324219 0)"/>
     <use xlink:href="#DejaVuSans-70" transform="translate(1551.503906 0)"/>
     <use xlink:href="#DejaVuSans-6f" transform="translate(1614.980469 0)"/>
     <use xlink:href="#DejaVuSans-69" transform="translate(1676.162109 0)"/>
     <use xlink:href="#DejaVuSans-6e" transform="translate(1703.945312 0)"/>
     <use xlink:href="#DejaVuSans-74" transform="translate(1767.324219 0)"/>
    </g>
   </g>
   <g id="legend_1">
    <g id="patch_7">
     <path d="M 57.137685 93.890375 
L 190.481435 93.890375 
Q 192.481435 93.890375 192.481435 91.890375 
L 192.481435 48.856 
Q 192.481435 46.856 190.481435 46.856 
L 57.137685 46.856 
Q 55.137685 46.856 55.137685 48.856 
L 55.137685 91.890375 
Q 55.137685 93.890375 57.137685 93.890375 
z
" style="fill: #ffffff; opacity: 0.8; stroke: #cccccc; stroke-linejoin: miter"/>
    </g>
    <g id="line2d_44">
     <path d="M 59.137685 54.954437 
L 69.137685 54.954437 
L 79.137685 54.954437 
" style="fill: none; stroke: #1f77b4; stroke-width: 1.5; stroke-linecap: square"/>
    </g>
    <g id="text_13">
     <!-- Single Large Results -->
     <g transform="translate(87.137685 58.454437) scale(0.1 -0.1)">
      <defs>
       <path id="DejaVuSans-53" d="M 3425 4513 
L 3425 3897 
Q 3066 4069 2747 4153 
Q 2428 4238 2131 4238 
Q 1616 4238 1336 4038 
Q 1056 3838 1056 3469 
Q 1056 3159 1242 3001 
Q 1428 2844 1947 2747 
L 2328 2669 
Q 3034 2534 3370 2195 
Q 3706 1856 3706 1288 
Q 3706 609 3251 259 
Q 2797 -91 1919 -91 
Q 1588 -91 1214 -16 
Q 841 59 441 206 
L 441 856 
Q 825 641 1194 531 
Q 1563 422 1919 422 
Q 2459 422 2753 634 
Q 3047 847 3047 1241 
Q 3047 1584 2836 1778 
Q 2625 1972 2144 2069 
L 1759 2144 
Q 1053 2284 737 2584 
Q 422 2884 422 3419 
Q 422 4038 858 4394 
Q 1294 4750 2059 4750 
Q 2388 4750 2728 4690 
Q 3069 4631 3425 4513 
z
" transform="scale(0.015625)"/>
       <path id="DejaVuSans-67" d="M 2906 1791 
Q 2906 2416 2648 2759 
Q 2391 3103 1925 3103 
Q 1463 3103 1205 2759 
Q 947 2416 947 1791 
Q 947 1169 1205 825 
Q 1463 481 1925 481 
Q 2391 481 2648 825 
Q 2906 1169 2906 1791 
z
M 3481 434 
Q 3481 -459 3084 -895 
Q 2688 -1331 1869 -1331 
Q 1566 -1331 1297 -1286 
Q 1028 -1241 775 -1147 
L 775 -588 
Q 1028 -725 1275 -790 
Q 1522 -856 1778 -856 
Q 2344 -856 2625 -561 
Q 2906 -266 2906 331 
L 2906 616 
Q 2728 306 2450 153 
Q 2172 0 1784 0 
Q 1141 0 747 490 
Q 353 981 353 1791 
Q 353 2603 747 3093 
Q 1141 3584 1784 3584 
Q 2172 3584 2450 3431 
Q 2728 3278 2906 2969 
L 2906 3500 
L 3481 3500 
L 3481 434 
z
" transform="scale(0.015625)"/>
       <path id="DejaVuSans-4c" d="M 628 4666 
L 1259 4666 
L 1259 531 
L 3531 531 
L 3531 0 
L 628 0 
L 628 4666 
z
" transform="scale(0.015625)"/>
      </defs>
      <use xlink:href="#DejaVuSans-53"/>
      <use xlink:href="#DejaVuSans-69" transform="translate(63.476562 0)"/>
      <use xlink:href="#DejaVuSans-6e" transform="translate(91.259766 0)"/>
      <use xlink:href="#DejaVuSans-67" transform="translate(154.638672 0)"/>
      <use xlink:href="#DejaVuSans-6c" transform="translate(218.115234 0)"/>
      <use xlink:href="#DejaVuSans-65" transform="translate(245.898438 0)"/>
      <use xlink:href="#DejaVuSans-20" transform="translate(307.421875 0)"/>
      <use xlink:href="#DejaVuSans-4c" transform="translate(339.208984 0)"/>
      <use xlink:href="#DejaVuSans-61" transform="translate(394.921875 0)"/>
      <use xlink:href="#DejaVuSans-72" transform="translate(456.201172 0)"/>
      <use xlink:href="#DejaVuSans-67" transform="translate(495.564453 0)"/>
      <use xlink:href="#DejaVuSans-65" transform="translate(559.041016 0)"/>
      <use xlink:href="#DejaVuSans-20" transform="translate(620.564453 0)"/>
      <use xlink:href="#DejaVuSans-52" transform="translate(652.351562 0)"/>
      <use xlink:href="#DejaVuSans-65" transform="translate(717.333984 0)"/>
      <use xlink:href="#DejaVuSans-73" transform="translate(778.857422 0)"/>
      <use xlink:href="#DejaVuSans-75" transform="translate(830.957031 0)"/>
      <use xlink:href="#DejaVuSans-6c" transform="translate(894.335938 0)"/>
      <use xlink:href="#DejaVuSans-74" transform="translate(922.119141 0)"/>
      <use xlink:href="#DejaVuSans-73" transform="translate(961.328125 0)"/>
     </g>
    </g>
    <g id="line2d_45">
     <path d="M 59.137685 69.632562 
L 69.137685 69.632562 
L 79.137685 69.632562 
" style="fill: none; stroke: #ff7f0e; stroke-width: 1.5; stroke-linecap: square"/>
    </g>
    <g id="text_14">
     <!-- Single Small Results -->
     <g transform="translate(87.137685 73.132562) scale(0.1 -0.1)">
      <use xlink:href="#DejaVuSans-53"/>
      <use xlink:href="#DejaVuSans-69" transform="translate(63.476562 0)"/>
      <use xlink:href="#DejaVuSans-6e" transform="translate(91.259766 0)"/>
      <use xlink:href="#DejaVuSans-67" transform="translate(154.638672 0)"/>
      <use xlink:href="#DejaVuSans-6c" transform="translate(218.115234 0)"/>
      <use xlink:href="#DejaVuSans-65" transform="translate(245.898438 0)"/>
      <use xlink:href="#DejaVuSans-20" transform="translate(307.421875 0)"/>
      <use xlink:href="#DejaVuSans-53" transform="translate(339.208984 0)"/>
      <use xlink:href="#DejaVuSans-6d" transform="translate(402.685547 0)"/>
      <use xlink:href="#DejaVuSans-61" transform="translate(500.097656 0)"/>
      <use xlink:href="#DejaVuSans-6c" transform="translate(561.376953 0)"/>
      <use xlink:href="#DejaVuSans-6c" transform="translate(589.160156 0)"/>
      <use xlink:href="#DejaVuSans-20" transform="translate(616.943359 0)"/>
      <use xlink:href="#DejaVuSans-52" transform="translate(648.730469 0)"/>
      <use xlink:href="#DejaVuSans-65" transform="translate(713.712891 0)"/>
      <use xlink:href="#DejaVuSans-73" transform="translate(775.236328 0)"/>
      <use xlink:href="#DejaVuSans-75" transform="translate(827.335938 0)"/>
      <use xlink:href="#DejaVuSans-6c" transform="translate(890.714844 0)"/>
      <use xlink:href="#DejaVuSans-74" transform="translate(918.498047 0)"/>
      <use xlink:href="#DejaVuSans-73" transform="translate(957.707031 0)"/>
     </g>
    </g>
    <g id="line2d_46">
     <path d="M 59.137685 84.310687 
L 69.137685 84.310687 
L 79.137685 84.310687 
" style="fill: none; stroke: #2ca02c; stroke-width: 1.5; stroke-linecap: square"/>
    </g>
    <g id="text_15">
     <!-- Multi Results -->
     <g transform="translate(87.137685 87.810687) scale(0.1 -0.1)">
      <defs>
       <path id="DejaVuSans-4d" d="M 628 4666 
L 1569 4666 
L 2759 1491 
L 3956 4666 
L 4897 4666 
L 4897 0 
L 4281 0 
L 4281 4097 
L 3078 897 
L 2444 897 
L 1241 4097 
L 1241 0 
L 628 0 
L 628 4666 
z
" transform="scale(0.015625)"/>
      </defs>
      <use xlink:href="#DejaVuSans-4d"/>
      <use xlink:href="#DejaVuSans-75" transform="translate(86.279297 0)"/>
      <use xlink:href="#DejaVuSans-6c" transform="translate(149.658203 0)"/>
      <use xlink:href="#DejaVuSans-74" transform="translate(177.441406 0)"/>
      <use xlink:href="#DejaVuSans-69" transform="translate(216.650391 0)"/>
      <use xlink:href="#DejaVuSans-20" transform="translate(244.433594 0)"/>
      <use xlink:href="#DejaVuSans-52" transform="translate(276.220703 0)"/>
      <use xlink:href="#DejaVuSans-65" transform="translate(341.203125 0)"/>
      <use xlink:href="#DejaVuSans-73" transform="translate(402.726562 0)"/>
      <use xlink:href="#DejaVuSans-75" transform="translate(454.826172 0)"/>
      <use xlink:href="#DejaVuSans-6c" transform="translate(518.205078 0)"/>
      <use xlink:href="#DejaVuSans-74" transform="translate(545.988281 0)"/>
      <use xlink:href="#DejaVuSans-73" transform="translate(585.197266 0)"/>
     </g>
    </g>
   </g>
  </g>
 </g>
 <defs>
  <clipPath id="pf9f48e683d">
   <rect x="50.137685" y="41.856" width="803.062315" height="348.184"/>
  </clipPath>
 </defs>
</svg>
