<?xml version="1.0" encoding="utf-8" standalone="no"?>
<!DOCTYPE svg PUBLIC "-//W3C//DTD SVG 1.1//EN"
  "http://www.w3.org/Graphics/SVG/1.1/DTD/svg11.dtd">
<svg xmlns:xlink="http://www.w3.org/1999/xlink" width="864pt" height="432pt" viewBox="0 0 864 432" xmlns="http://www.w3.org/2000/svg" version="1.1">
 <metadata>
  <rdf:RDF xmlns:dc="http://purl.org/dc/elements/1.1/" xmlns:cc="http://creativecommons.org/ns#" xmlns:rdf="http://www.w3.org/1999/02/22-rdf-syntax-ns#">
   <cc:Work>
    <dc:type rdf:resource="http://purl.org/dc/dcmitype/StillImage"/>
    <dc:date>2025-05-31T16:14:32.845999</dc:date>
    <dc:format>image/svg+xml</dc:format>
    <dc:creator>
     <cc:Agent>
      <dc:title>Matplotlib v3.10.1, https://matplotlib.org/</dc:title>
     </cc:Agent>
    </dc:creator>
   </cc:Work>
  </rdf:RDF>
 </metadata>
 <defs>
  <style type="text/css">*{stroke-linejoin: round; stroke-linecap: butt}</style>
 </defs>
 <g id="figure_1">
  <g id="patch_1">
   <path d="M 0 432 
L 864 432 
L 864 0 
L 0 0 
z
" style="fill: #ffffff"/>
  </g>
  <g id="axes_1">
   <g id="patch_2">
    <path d="M 55.772054 390.04 
L 853.2 390.04 
L 853.2 41.856 
L 55.772054 41.856 
z
" style="fill: #ffffff"/>
   </g>
   <g id="matplotlib.axis_1">
    <g id="xtick_1">
     <g id="line2d_1">
      <defs>
       <path id="m0f91660adc" d="M 0 0 
L 0 3.5 
" style="stroke: #000000; stroke-width: 0.8"/>
      </defs>
      <g>
       <use xlink:href="#m0f91660adc" x="92.018779" y="390.04" style="stroke: #000000; stroke-width: 0.8"/>
      </g>
     </g>
     <g id="text_1">
      <!-- 0 -->
      <g transform="translate(88.837529 404.638438) scale(0.1 -0.1)">
       <defs>
        <path id="DejaVuSans-30" d="M 2034 4250 
Q 1547 4250 1301 3770 
Q 1056 3291 1056 2328 
Q 1056 1369 1301 889 
Q 1547 409 2034 409 
Q 2525 409 2770 889 
Q 3016 1369 3016 2328 
Q 3016 3291 2770 3770 
Q 2525 4250 2034 4250 
z
M 2034 4750 
Q 2819 4750 3233 4129 
Q 3647 3509 3647 2328 
Q 3647 1150 3233 529 
Q 2819 -91 2034 -91 
Q 1250 -91 836 529 
Q 422 1150 422 2328 
Q 422 3509 836 4129 
Q 1250 4750 2034 4750 
z
" transform="scale(0.015625)"/>
       </defs>
       <use xlink:href="#DejaVuSans-30"/>
      </g>
     </g>
    </g>
    <g id="xtick_2">
     <g id="line2d_2">
      <g>
       <use xlink:href="#m0f91660adc" x="237.010614" y="390.04" style="stroke: #000000; stroke-width: 0.8"/>
      </g>
     </g>
     <g id="text_2">
      <!-- 20 -->
      <g transform="translate(230.648114 404.638438) scale(0.1 -0.1)">
       <defs>
        <path id="DejaVuSans-32" d="M 1228 531 
L 3431 531 
L 3431 0 
L 469 0 
L 469 531 
Q 828 903 1448 1529 
Q 2069 2156 2228 2338 
Q 2531 2678 2651 2914 
Q 2772 3150 2772 3378 
Q 2772 3750 2511 3984 
Q 2250 4219 1831 4219 
Q 1534 4219 1204 4116 
Q 875 4013 500 3803 
L 500 4441 
Q 881 4594 1212 4672 
Q 1544 4750 1819 4750 
Q 2544 4750 2975 4387 
Q 3406 4025 3406 3419 
Q 3406 3131 3298 2873 
Q 3191 2616 2906 2266 
Q 2828 2175 2409 1742 
Q 1991 1309 1228 531 
z
" transform="scale(0.015625)"/>
       </defs>
       <use xlink:href="#DejaVuSans-32"/>
       <use xlink:href="#DejaVuSans-30" transform="translate(63.623047 0)"/>
      </g>
     </g>
    </g>
    <g id="xtick_3">
     <g id="line2d_3">
      <g>
       <use xlink:href="#m0f91660adc" x="382.002449" y="390.04" style="stroke: #000000; stroke-width: 0.8"/>
      </g>
     </g>
     <g id="text_3">
      <!-- 40 -->
      <g transform="translate(375.639949 404.638438) scale(0.1 -0.1)">
       <defs>
        <path id="DejaVuSans-34" d="M 2419 4116 
L 825 1625 
L 2419 1625 
L 2419 4116 
z
M 2253 4666 
L 3047 4666 
L 3047 1625 
L 3713 1625 
L 3713 1100 
L 3047 1100 
L 3047 0 
L 2419 0 
L 2419 1100 
L 313 1100 
L 313 1709 
L 2253 4666 
z
" transform="scale(0.015625)"/>
       </defs>
       <use xlink:href="#DejaVuSans-34"/>
       <use xlink:href="#DejaVuSans-30" transform="translate(63.623047 0)"/>
      </g>
     </g>
    </g>
    <g id="xtick_4">
     <g id="line2d_4">
      <g>
       <use xlink:href="#m0f91660adc" x="526.994284" y="390.04" style="stroke: #000000; stroke-width: 0.8"/>
      </g>
     </g>
     <g id="text_4">
      <!-- 60 -->
      <g transform="translate(520.631784 404.638438) scale(0.1 -0.1)">
       <defs>
        <path id="DejaVuSans-36" d="M 2113 2584 
Q 1688 2584 1439 2293 
Q 1191 2003 1191 1497 
Q 1191 994 1439 701 
Q 1688 409 2113 409 
Q 2538 409 2786 701 
Q 3034 994 3034 1497 
Q 3034 2003 2786 2293 
Q 2538 2584 2113 2584 
z
M 3366 4563 
L 3366 3988 
Q 3128 4100 2886 4159 
Q 2644 4219 2406 4219 
Q 1781 4219 1451 3797 
Q 1122 3375 1075 2522 
Q 1259 2794 1537 2939 
Q 1816 3084 2150 3084 
Q 2853 3084 3261 2657 
Q 3669 2231 3669 1497 
Q 3669 778 3244 343 
Q 2819 -91 2113 -91 
Q 1303 -91 875 529 
Q 447 1150 447 2328 
Q 447 3434 972 4092 
Q 1497 4750 2381 4750 
Q 2619 4750 2861 4703 
Q 3103 4656 3366 4563 
z
" transform="scale(0.015625)"/>
       </defs>
       <use xlink:href="#DejaVuSans-36"/>
       <use xlink:href="#DejaVuSans-30" transform="translate(63.623047 0)"/>
      </g>
     </g>
    </g>
    <g id="xtick_5">
     <g id="line2d_5">
      <g>
       <use xlink:href="#m0f91660adc" x="671.986119" y="390.04" style="stroke: #000000; stroke-width: 0.8"/>
      </g>
     </g>
     <g id="text_5">
      <!-- 80 -->
      <g transform="translate(665.623619 404.638438) scale(0.1 -0.1)">
       <defs>
        <path id="DejaVuSans-38" d="M 2034 2216 
Q 1584 2216 1326 1975 
Q 1069 1734 1069 1313 
Q 1069 891 1326 650 
Q 1584 409 2034 409 
Q 2484 409 2743 651 
Q 3003 894 3003 1313 
Q 3003 1734 2745 1975 
Q 2488 2216 2034 2216 
z
M 1403 2484 
Q 997 2584 770 2862 
Q 544 3141 544 3541 
Q 544 4100 942 4425 
Q 1341 4750 2034 4750 
Q 2731 4750 3128 4425 
Q 3525 4100 3525 3541 
Q 3525 3141 3298 2862 
Q 3072 2584 2669 2484 
Q 3125 2378 3379 2068 
Q 3634 1759 3634 1313 
Q 3634 634 3220 271 
Q 2806 -91 2034 -91 
Q 1263 -91 848 271 
Q 434 634 434 1313 
Q 434 1759 690 2068 
Q 947 2378 1403 2484 
z
M 1172 3481 
Q 1172 3119 1398 2916 
Q 1625 2713 2034 2713 
Q 2441 2713 2670 2916 
Q 2900 3119 2900 3481 
Q 2900 3844 2670 4047 
Q 2441 4250 2034 4250 
Q 1625 4250 1398 4047 
Q 1172 3844 1172 3481 
z
" transform="scale(0.015625)"/>
       </defs>
       <use xlink:href="#DejaVuSans-38"/>
       <use xlink:href="#DejaVuSans-30" transform="translate(63.623047 0)"/>
      </g>
     </g>
    </g>
    <g id="xtick_6">
     <g id="line2d_6">
      <g>
       <use xlink:href="#m0f91660adc" x="816.977954" y="390.04" style="stroke: #000000; stroke-width: 0.8"/>
      </g>
     </g>
     <g id="text_6">
      <!-- 100 -->
      <g transform="translate(807.434204 404.638438) scale(0.1 -0.1)">
       <defs>
        <path id="DejaVuSans-31" d="M 794 531 
L 1825 531 
L 1825 4091 
L 703 3866 
L 703 4441 
L 1819 4666 
L 2450 4666 
L 2450 531 
L 3481 531 
L 3481 0 
L 794 0 
L 794 531 
z
" transform="scale(0.015625)"/>
       </defs>
       <use xlink:href="#DejaVuSans-31"/>
       <use xlink:href="#DejaVuSans-30" transform="translate(63.623047 0)"/>
       <use xlink:href="#DejaVuSans-30" transform="translate(127.246094 0)"/>
      </g>
     </g>
    </g>
    <g id="text_7">
     <!-- Percentile (%) -->
     <g transform="translate(419.582121 418.316562) scale(0.1 -0.1)">
      <defs>
       <path id="DejaVuSans-50" d="M 1259 4147 
L 1259 2394 
L 2053 2394 
Q 2494 2394 2734 2622 
Q 2975 2850 2975 3272 
Q 2975 3691 2734 3919 
Q 2494 4147 2053 4147 
L 1259 4147 
z
M 628 4666 
L 2053 4666 
Q 2838 4666 3239 4311 
Q 3641 3956 3641 3272 
Q 3641 2581 3239 2228 
Q 2838 1875 2053 1875 
L 1259 1875 
L 1259 0 
L 628 0 
L 628 4666 
z
" transform="scale(0.015625)"/>
       <path id="DejaVuSans-65" d="M 3597 1894 
L 3597 1613 
L 953 1613 
Q 991 1019 1311 708 
Q 1631 397 2203 397 
Q 2534 397 2845 478 
Q 3156 559 3463 722 
L 3463 178 
Q 3153 47 2828 -22 
Q 2503 -91 2169 -91 
Q 1331 -91 842 396 
Q 353 884 353 1716 
Q 353 2575 817 3079 
Q 1281 3584 2069 3584 
Q 2775 3584 3186 3129 
Q 3597 2675 3597 1894 
z
M 3022 2063 
Q 3016 2534 2758 2815 
Q 2500 3097 2075 3097 
Q 1594 3097 1305 2825 
Q 1016 2553 972 2059 
L 3022 2063 
z
" transform="scale(0.015625)"/>
       <path id="DejaVuSans-72" d="M 2631 2963 
Q 2534 3019 2420 3045 
Q 2306 3072 2169 3072 
Q 1681 3072 1420 2755 
Q 1159 2438 1159 1844 
L 1159 0 
L 581 0 
L 581 3500 
L 1159 3500 
L 1159 2956 
Q 1341 3275 1631 3429 
Q 1922 3584 2338 3584 
Q 2397 3584 2469 3576 
Q 2541 3569 2628 3553 
L 2631 2963 
z
" transform="scale(0.015625)"/>
       <path id="DejaVuSans-63" d="M 3122 3366 
L 3122 2828 
Q 2878 2963 2633 3030 
Q 2388 3097 2138 3097 
Q 1578 3097 1268 2742 
Q 959 2388 959 1747 
Q 959 1106 1268 751 
Q 1578 397 2138 397 
Q 2388 397 2633 464 
Q 2878 531 3122 666 
L 3122 134 
Q 2881 22 2623 -34 
Q 2366 -91 2075 -91 
Q 1284 -91 818 406 
Q 353 903 353 1747 
Q 353 2603 823 3093 
Q 1294 3584 2113 3584 
Q 2378 3584 2631 3529 
Q 2884 3475 3122 3366 
z
" transform="scale(0.015625)"/>
       <path id="DejaVuSans-6e" d="M 3513 2113 
L 3513 0 
L 2938 0 
L 2938 2094 
Q 2938 2591 2744 2837 
Q 2550 3084 2163 3084 
Q 1697 3084 1428 2787 
Q 1159 2491 1159 1978 
L 1159 0 
L 581 0 
L 581 3500 
L 1159 3500 
L 1159 2956 
Q 1366 3272 1645 3428 
Q 1925 3584 2291 3584 
Q 2894 3584 3203 3211 
Q 3513 2838 3513 2113 
z
" transform="scale(0.015625)"/>
       <path id="DejaVuSans-74" d="M 1172 4494 
L 1172 3500 
L 2356 3500 
L 2356 3053 
L 1172 3053 
L 1172 1153 
Q 1172 725 1289 603 
Q 1406 481 1766 481 
L 2356 481 
L 2356 0 
L 1766 0 
Q 1100 0 847 248 
Q 594 497 594 1153 
L 594 3053 
L 172 3053 
L 172 3500 
L 594 3500 
L 594 4494 
L 1172 4494 
z
" transform="scale(0.015625)"/>
       <path id="DejaVuSans-69" d="M 603 3500 
L 1178 3500 
L 1178 0 
L 603 0 
L 603 3500 
z
M 603 4863 
L 1178 4863 
L 1178 4134 
L 603 4134 
L 603 4863 
z
" transform="scale(0.015625)"/>
       <path id="DejaVuSans-6c" d="M 603 4863 
L 1178 4863 
L 1178 0 
L 603 0 
L 603 4863 
z
" transform="scale(0.015625)"/>
       <path id="DejaVuSans-20" transform="scale(0.015625)"/>
       <path id="DejaVuSans-28" d="M 1984 4856 
Q 1566 4138 1362 3434 
Q 1159 2731 1159 2009 
Q 1159 1288 1364 580 
Q 1569 -128 1984 -844 
L 1484 -844 
Q 1016 -109 783 600 
Q 550 1309 550 2009 
Q 550 2706 781 3412 
Q 1013 4119 1484 4856 
L 1984 4856 
z
" transform="scale(0.015625)"/>
       <path id="DejaVuSans-25" d="M 4653 2053 
Q 4381 2053 4226 1822 
Q 4072 1591 4072 1178 
Q 4072 772 4226 539 
Q 4381 306 4653 306 
Q 4919 306 5073 539 
Q 5228 772 5228 1178 
Q 5228 1588 5073 1820 
Q 4919 2053 4653 2053 
z
M 4653 2450 
Q 5147 2450 5437 2106 
Q 5728 1763 5728 1178 
Q 5728 594 5436 251 
Q 5144 -91 4653 -91 
Q 4153 -91 3862 251 
Q 3572 594 3572 1178 
Q 3572 1766 3864 2108 
Q 4156 2450 4653 2450 
z
M 1428 4353 
Q 1159 4353 1004 4120 
Q 850 3888 850 3481 
Q 850 3069 1003 2837 
Q 1156 2606 1428 2606 
Q 1700 2606 1854 2837 
Q 2009 3069 2009 3481 
Q 2009 3884 1853 4118 
Q 1697 4353 1428 4353 
z
M 4250 4750 
L 4750 4750 
L 1831 -91 
L 1331 -91 
L 4250 4750 
z
M 1428 4750 
Q 1922 4750 2215 4408 
Q 2509 4066 2509 3481 
Q 2509 2891 2217 2550 
Q 1925 2209 1428 2209 
Q 931 2209 642 2551 
Q 353 2894 353 3481 
Q 353 4063 643 4406 
Q 934 4750 1428 4750 
z
" transform="scale(0.015625)"/>
       <path id="DejaVuSans-29" d="M 513 4856 
L 1013 4856 
Q 1481 4119 1714 3412 
Q 1947 2706 1947 2009 
Q 1947 1309 1714 600 
Q 1481 -109 1013 -844 
L 513 -844 
Q 928 -128 1133 580 
Q 1338 1288 1338 2009 
Q 1338 2731 1133 3434 
Q 928 4138 513 4856 
z
" transform="scale(0.015625)"/>
      </defs>
      <use xlink:href="#DejaVuSans-50"/>
      <use xlink:href="#DejaVuSans-65" transform="translate(56.677734 0)"/>
      <use xlink:href="#DejaVuSans-72" transform="translate(118.201172 0)"/>
      <use xlink:href="#DejaVuSans-63" transform="translate(157.064453 0)"/>
      <use xlink:href="#DejaVuSans-65" transform="translate(212.044922 0)"/>
      <use xlink:href="#DejaVuSans-6e" transform="translate(273.568359 0)"/>
      <use xlink:href="#DejaVuSans-74" transform="translate(336.947266 0)"/>
      <use xlink:href="#DejaVuSans-69" transform="translate(376.15625 0)"/>
      <use xlink:href="#DejaVuSans-6c" transform="translate(403.939453 0)"/>
      <use xlink:href="#DejaVuSans-65" transform="translate(431.722656 0)"/>
      <use xlink:href="#DejaVuSans-20" transform="translate(493.246094 0)"/>
      <use xlink:href="#DejaVuSans-28" transform="translate(525.033203 0)"/>
      <use xlink:href="#DejaVuSans-25" transform="translate(564.046875 0)"/>
      <use xlink:href="#DejaVuSans-29" transform="translate(659.066406 0)"/>
     </g>
    </g>
   </g>
   <g id="matplotlib.axis_2">
    <g id="ytick_1">
     <g id="line2d_7">
      <defs>
       <path id="m4e796d86cd" d="M 0 0 
L -3.5 0 
" style="stroke: #000000; stroke-width: 0.8"/>
      </defs>
      <g>
       <use xlink:href="#m4e796d86cd" x="55.772054" y="362.698205" style="stroke: #000000; stroke-width: 0.8"/>
      </g>
     </g>
     <g id="text_8">
      <!-- $\mathdefault{10^{-1}}$ -->
      <g transform="translate(25.272054 366.497423) scale(0.1 -0.1)">
       <defs>
        <path id="DejaVuSans-2212" d="M 678 2272 
L 4684 2272 
L 4684 1741 
L 678 1741 
L 678 2272 
z
" transform="scale(0.015625)"/>
       </defs>
       <use xlink:href="#DejaVuSans-31" transform="translate(0 0.684375)"/>
       <use xlink:href="#DejaVuSans-30" transform="translate(63.623047 0.684375)"/>
       <use xlink:href="#DejaVuSans-2212" transform="translate(128.203125 38.965625) scale(0.7)"/>
       <use xlink:href="#DejaVuSans-31" transform="translate(186.855469 38.965625) scale(0.7)"/>
      </g>
     </g>
    </g>
    <g id="ytick_2">
     <g id="line2d_8">
      <g>
       <use xlink:href="#m4e796d86cd" x="55.772054" y="294.007039" style="stroke: #000000; stroke-width: 0.8"/>
      </g>
     </g>
     <g id="text_9">
      <!-- $\mathdefault{10^{0}}$ -->
      <g transform="translate(31.172054 297.806258) scale(0.1 -0.1)">
       <use xlink:href="#DejaVuSans-31" transform="translate(0 0.765625)"/>
       <use xlink:href="#DejaVuSans-30" transform="translate(63.623047 0.765625)"/>
       <use xlink:href="#DejaVuSans-30" transform="translate(128.203125 39.046875) scale(0.7)"/>
      </g>
     </g>
    </g>
    <g id="ytick_3">
     <g id="line2d_9">
      <g>
       <use xlink:href="#m4e796d86cd" x="55.772054" y="225.315874" style="stroke: #000000; stroke-width: 0.8"/>
      </g>
     </g>
     <g id="text_10">
      <!-- $\mathdefault{10^{1}}$ -->
      <g transform="translate(31.172054 229.115092) scale(0.1 -0.1)">
       <use xlink:href="#DejaVuSans-31" transform="translate(0 0.684375)"/>
       <use xlink:href="#DejaVuSans-30" transform="translate(63.623047 0.684375)"/>
       <use xlink:href="#DejaVuSans-31" transform="translate(128.203125 38.965625) scale(0.7)"/>
      </g>
     </g>
    </g>
    <g id="ytick_4">
     <g id="line2d_10">
      <g>
       <use xlink:href="#m4e796d86cd" x="55.772054" y="156.624708" style="stroke: #000000; stroke-width: 0.8"/>
      </g>
     </g>
     <g id="text_11">
      <!-- $\mathdefault{10^{2}}$ -->
      <g transform="translate(31.172054 160.423927) scale(0.1 -0.1)">
       <use xlink:href="#DejaVuSans-31" transform="translate(0 0.765625)"/>
       <use xlink:href="#DejaVuSans-30" transform="translate(63.623047 0.765625)"/>
       <use xlink:href="#DejaVuSans-32" transform="translate(128.203125 39.046875) scale(0.7)"/>
      </g>
     </g>
    </g>
    <g id="ytick_5">
     <g id="line2d_11">
      <g>
       <use xlink:href="#m4e796d86cd" x="55.772054" y="87.933543" style="stroke: #000000; stroke-width: 0.8"/>
      </g>
     </g>
     <g id="text_12">
      <!-- $\mathdefault{10^{3}}$ -->
      <g transform="translate(31.172054 91.732761) scale(0.1 -0.1)">
       <defs>
        <path id="DejaVuSans-33" d="M 2597 2516 
Q 3050 2419 3304 2112 
Q 3559 1806 3559 1356 
Q 3559 666 3084 287 
Q 2609 -91 1734 -91 
Q 1441 -91 1130 -33 
Q 819 25 488 141 
L 488 750 
Q 750 597 1062 519 
Q 1375 441 1716 441 
Q 2309 441 2620 675 
Q 2931 909 2931 1356 
Q 2931 1769 2642 2001 
Q 2353 2234 1838 2234 
L 1294 2234 
L 1294 2753 
L 1863 2753 
Q 2328 2753 2575 2939 
Q 2822 3125 2822 3475 
Q 2822 3834 2567 4026 
Q 2313 4219 1838 4219 
Q 1578 4219 1281 4162 
Q 984 4106 628 3988 
L 628 4550 
Q 988 4650 1302 4700 
Q 1616 4750 1894 4750 
Q 2613 4750 3031 4423 
Q 3450 4097 3450 3541 
Q 3450 3153 3228 2886 
Q 3006 2619 2597 2516 
z
" transform="scale(0.015625)"/>
       </defs>
       <use xlink:href="#DejaVuSans-31" transform="translate(0 0.765625)"/>
       <use xlink:href="#DejaVuSans-30" transform="translate(63.623047 0.765625)"/>
       <use xlink:href="#DejaVuSans-33" transform="translate(128.203125 39.046875) scale(0.7)"/>
      </g>
     </g>
    </g>
    <g id="ytick_6">
     <g id="line2d_12">
      <defs>
       <path id="mbd21a872d6" d="M 0 0 
L -2 0 
" style="stroke: #000000; stroke-width: 0.6"/>
      </defs>
      <g>
       <use xlink:href="#mbd21a872d6" x="55.772054" y="390.033168" style="stroke: #000000; stroke-width: 0.6"/>
      </g>
     </g>
    </g>
    <g id="ytick_7">
     <g id="line2d_13">
      <g>
       <use xlink:href="#mbd21a872d6" x="55.772054" y="383.376306" style="stroke: #000000; stroke-width: 0.6"/>
      </g>
     </g>
    </g>
    <g id="ytick_8">
     <g id="line2d_14">
      <g>
       <use xlink:href="#mbd21a872d6" x="55.772054" y="377.937254" style="stroke: #000000; stroke-width: 0.6"/>
      </g>
     </g>
    </g>
    <g id="ytick_9">
     <g id="line2d_15">
      <g>
       <use xlink:href="#mbd21a872d6" x="55.772054" y="373.338601" style="stroke: #000000; stroke-width: 0.6"/>
      </g>
     </g>
    </g>
    <g id="ytick_10">
     <g id="line2d_16">
      <g>
       <use xlink:href="#mbd21a872d6" x="55.772054" y="369.355066" style="stroke: #000000; stroke-width: 0.6"/>
      </g>
     </g>
    </g>
    <g id="ytick_11">
     <g id="line2d_17">
      <g>
       <use xlink:href="#mbd21a872d6" x="55.772054" y="365.84134" style="stroke: #000000; stroke-width: 0.6"/>
      </g>
     </g>
    </g>
    <g id="ytick_12">
     <g id="line2d_18">
      <g>
       <use xlink:href="#mbd21a872d6" x="55.772054" y="342.020103" style="stroke: #000000; stroke-width: 0.6"/>
      </g>
     </g>
    </g>
    <g id="ytick_13">
     <g id="line2d_19">
      <g>
       <use xlink:href="#mbd21a872d6" x="55.772054" y="329.924189" style="stroke: #000000; stroke-width: 0.6"/>
      </g>
     </g>
    </g>
    <g id="ytick_14">
     <g id="line2d_20">
      <g>
       <use xlink:href="#mbd21a872d6" x="55.772054" y="321.342002" style="stroke: #000000; stroke-width: 0.6"/>
      </g>
     </g>
    </g>
    <g id="ytick_15">
     <g id="line2d_21">
      <g>
       <use xlink:href="#mbd21a872d6" x="55.772054" y="314.68514" style="stroke: #000000; stroke-width: 0.6"/>
      </g>
     </g>
    </g>
    <g id="ytick_16">
     <g id="line2d_22">
      <g>
       <use xlink:href="#mbd21a872d6" x="55.772054" y="309.246088" style="stroke: #000000; stroke-width: 0.6"/>
      </g>
     </g>
    </g>
    <g id="ytick_17">
     <g id="line2d_23">
      <g>
       <use xlink:href="#mbd21a872d6" x="55.772054" y="304.647435" style="stroke: #000000; stroke-width: 0.6"/>
      </g>
     </g>
    </g>
    <g id="ytick_18">
     <g id="line2d_24">
      <g>
       <use xlink:href="#mbd21a872d6" x="55.772054" y="300.663901" style="stroke: #000000; stroke-width: 0.6"/>
      </g>
     </g>
    </g>
    <g id="ytick_19">
     <g id="line2d_25">
      <g>
       <use xlink:href="#mbd21a872d6" x="55.772054" y="297.150174" style="stroke: #000000; stroke-width: 0.6"/>
      </g>
     </g>
    </g>
    <g id="ytick_20">
     <g id="line2d_26">
      <g>
       <use xlink:href="#mbd21a872d6" x="55.772054" y="273.328938" style="stroke: #000000; stroke-width: 0.6"/>
      </g>
     </g>
    </g>
    <g id="ytick_21">
     <g id="line2d_27">
      <g>
       <use xlink:href="#mbd21a872d6" x="55.772054" y="261.233024" style="stroke: #000000; stroke-width: 0.6"/>
      </g>
     </g>
    </g>
    <g id="ytick_22">
     <g id="line2d_28">
      <g>
       <use xlink:href="#mbd21a872d6" x="55.772054" y="252.650837" style="stroke: #000000; stroke-width: 0.6"/>
      </g>
     </g>
    </g>
    <g id="ytick_23">
     <g id="line2d_29">
      <g>
       <use xlink:href="#mbd21a872d6" x="55.772054" y="245.993975" style="stroke: #000000; stroke-width: 0.6"/>
      </g>
     </g>
    </g>
    <g id="ytick_24">
     <g id="line2d_30">
      <g>
       <use xlink:href="#mbd21a872d6" x="55.772054" y="240.554923" style="stroke: #000000; stroke-width: 0.6"/>
      </g>
     </g>
    </g>
    <g id="ytick_25">
     <g id="line2d_31">
      <g>
       <use xlink:href="#mbd21a872d6" x="55.772054" y="235.95627" style="stroke: #000000; stroke-width: 0.6"/>
      </g>
     </g>
    </g>
    <g id="ytick_26">
     <g id="line2d_32">
      <g>
       <use xlink:href="#mbd21a872d6" x="55.772054" y="231.972735" style="stroke: #000000; stroke-width: 0.6"/>
      </g>
     </g>
    </g>
    <g id="ytick_27">
     <g id="line2d_33">
      <g>
       <use xlink:href="#mbd21a872d6" x="55.772054" y="228.459009" style="stroke: #000000; stroke-width: 0.6"/>
      </g>
     </g>
    </g>
    <g id="ytick_28">
     <g id="line2d_34">
      <g>
       <use xlink:href="#mbd21a872d6" x="55.772054" y="204.637772" style="stroke: #000000; stroke-width: 0.6"/>
      </g>
     </g>
    </g>
    <g id="ytick_29">
     <g id="line2d_35">
      <g>
       <use xlink:href="#mbd21a872d6" x="55.772054" y="192.541858" style="stroke: #000000; stroke-width: 0.6"/>
      </g>
     </g>
    </g>
    <g id="ytick_30">
     <g id="line2d_36">
      <g>
       <use xlink:href="#mbd21a872d6" x="55.772054" y="183.959671" style="stroke: #000000; stroke-width: 0.6"/>
      </g>
     </g>
    </g>
    <g id="ytick_31">
     <g id="line2d_37">
      <g>
       <use xlink:href="#mbd21a872d6" x="55.772054" y="177.302809" style="stroke: #000000; stroke-width: 0.6"/>
      </g>
     </g>
    </g>
    <g id="ytick_32">
     <g id="line2d_38">
      <g>
       <use xlink:href="#mbd21a872d6" x="55.772054" y="171.863757" style="stroke: #000000; stroke-width: 0.6"/>
      </g>
     </g>
    </g>
    <g id="ytick_33">
     <g id="line2d_39">
      <g>
       <use xlink:href="#mbd21a872d6" x="55.772054" y="167.265104" style="stroke: #000000; stroke-width: 0.6"/>
      </g>
     </g>
    </g>
    <g id="ytick_34">
     <g id="line2d_40">
      <g>
       <use xlink:href="#mbd21a872d6" x="55.772054" y="163.28157" style="stroke: #000000; stroke-width: 0.6"/>
      </g>
     </g>
    </g>
    <g id="ytick_35">
     <g id="line2d_41">
      <g>
       <use xlink:href="#mbd21a872d6" x="55.772054" y="159.767843" style="stroke: #000000; stroke-width: 0.6"/>
      </g>
     </g>
    </g>
    <g id="ytick_36">
     <g id="line2d_42">
      <g>
       <use xlink:href="#mbd21a872d6" x="55.772054" y="135.946607" style="stroke: #000000; stroke-width: 0.6"/>
      </g>
     </g>
    </g>
    <g id="ytick_37">
     <g id="line2d_43">
      <g>
       <use xlink:href="#mbd21a872d6" x="55.772054" y="123.850693" style="stroke: #000000; stroke-width: 0.6"/>
      </g>
     </g>
    </g>
    <g id="ytick_38">
     <g id="line2d_44">
      <g>
       <use xlink:href="#mbd21a872d6" x="55.772054" y="115.268506" style="stroke: #000000; stroke-width: 0.6"/>
      </g>
     </g>
    </g>
    <g id="ytick_39">
     <g id="line2d_45">
      <g>
       <use xlink:href="#mbd21a872d6" x="55.772054" y="108.611644" style="stroke: #000000; stroke-width: 0.6"/>
      </g>
     </g>
    </g>
    <g id="ytick_40">
     <g id="line2d_46">
      <g>
       <use xlink:href="#mbd21a872d6" x="55.772054" y="103.172592" style="stroke: #000000; stroke-width: 0.6"/>
      </g>
     </g>
    </g>
    <g id="ytick_41">
     <g id="line2d_47">
      <g>
       <use xlink:href="#mbd21a872d6" x="55.772054" y="98.573939" style="stroke: #000000; stroke-width: 0.6"/>
      </g>
     </g>
    </g>
    <g id="ytick_42">
     <g id="line2d_48">
      <g>
       <use xlink:href="#mbd21a872d6" x="55.772054" y="94.590404" style="stroke: #000000; stroke-width: 0.6"/>
      </g>
     </g>
    </g>
    <g id="ytick_43">
     <g id="line2d_49">
      <g>
       <use xlink:href="#mbd21a872d6" x="55.772054" y="91.076678" style="stroke: #000000; stroke-width: 0.6"/>
      </g>
     </g>
    </g>
    <g id="ytick_44">
     <g id="line2d_50">
      <g>
       <use xlink:href="#mbd21a872d6" x="55.772054" y="67.255441" style="stroke: #000000; stroke-width: 0.6"/>
      </g>
     </g>
    </g>
    <g id="ytick_45">
     <g id="line2d_51">
      <g>
       <use xlink:href="#mbd21a872d6" x="55.772054" y="55.159528" style="stroke: #000000; stroke-width: 0.6"/>
      </g>
     </g>
    </g>
    <g id="ytick_46">
     <g id="line2d_52">
      <g>
       <use xlink:href="#mbd21a872d6" x="55.772054" y="46.57734" style="stroke: #000000; stroke-width: 0.6"/>
      </g>
     </g>
    </g>
    <g id="text_13">
     <!-- Duration (ms) -->
     <g transform="translate(19.192366 250.62925) rotate(-90) scale(0.1 -0.1)">
      <defs>
       <path id="DejaVuSans-44" d="M 1259 4147 
L 1259 519 
L 2022 519 
Q 2988 519 3436 956 
Q 3884 1394 3884 2338 
Q 3884 3275 3436 3711 
Q 2988 4147 2022 4147 
L 1259 4147 
z
M 628 4666 
L 1925 4666 
Q 3281 4666 3915 4102 
Q 4550 3538 4550 2338 
Q 4550 1131 3912 565 
Q 3275 0 1925 0 
L 628 0 
L 628 4666 
z
" transform="scale(0.015625)"/>
       <path id="DejaVuSans-75" d="M 544 1381 
L 544 3500 
L 1119 3500 
L 1119 1403 
Q 1119 906 1312 657 
Q 1506 409 1894 409 
Q 2359 409 2629 706 
Q 2900 1003 2900 1516 
L 2900 3500 
L 3475 3500 
L 3475 0 
L 2900 0 
L 2900 538 
Q 2691 219 2414 64 
Q 2138 -91 1772 -91 
Q 1169 -91 856 284 
Q 544 659 544 1381 
z
M 1991 3584 
L 1991 3584 
z
" transform="scale(0.015625)"/>
       <path id="DejaVuSans-61" d="M 2194 1759 
Q 1497 1759 1228 1600 
Q 959 1441 959 1056 
Q 959 750 1161 570 
Q 1363 391 1709 391 
Q 2188 391 2477 730 
Q 2766 1069 2766 1631 
L 2766 1759 
L 2194 1759 
z
M 3341 1997 
L 3341 0 
L 2766 0 
L 2766 531 
Q 2569 213 2275 61 
Q 1981 -91 1556 -91 
Q 1019 -91 701 211 
Q 384 513 384 1019 
Q 384 1609 779 1909 
Q 1175 2209 1959 2209 
L 2766 2209 
L 2766 2266 
Q 2766 2663 2505 2880 
Q 2244 3097 1772 3097 
Q 1472 3097 1187 3025 
Q 903 2953 641 2809 
L 641 3341 
Q 956 3463 1253 3523 
Q 1550 3584 1831 3584 
Q 2591 3584 2966 3190 
Q 3341 2797 3341 1997 
z
" transform="scale(0.015625)"/>
       <path id="DejaVuSans-6f" d="M 1959 3097 
Q 1497 3097 1228 2736 
Q 959 2375 959 1747 
Q 959 1119 1226 758 
Q 1494 397 1959 397 
Q 2419 397 2687 759 
Q 2956 1122 2956 1747 
Q 2956 2369 2687 2733 
Q 2419 3097 1959 3097 
z
M 1959 3584 
Q 2709 3584 3137 3096 
Q 3566 2609 3566 1747 
Q 3566 888 3137 398 
Q 2709 -91 1959 -91 
Q 1206 -91 779 398 
Q 353 888 353 1747 
Q 353 2609 779 3096 
Q 1206 3584 1959 3584 
z
" transform="scale(0.015625)"/>
       <path id="DejaVuSans-6d" d="M 3328 2828 
Q 3544 3216 3844 3400 
Q 4144 3584 4550 3584 
Q 5097 3584 5394 3201 
Q 5691 2819 5691 2113 
L 5691 0 
L 5113 0 
L 5113 2094 
Q 5113 2597 4934 2840 
Q 4756 3084 4391 3084 
Q 3944 3084 3684 2787 
Q 3425 2491 3425 1978 
L 3425 0 
L 2847 0 
L 2847 2094 
Q 2847 2600 2669 2842 
Q 2491 3084 2119 3084 
Q 1678 3084 1418 2786 
Q 1159 2488 1159 1978 
L 1159 0 
L 581 0 
L 581 3500 
L 1159 3500 
L 1159 2956 
Q 1356 3278 1631 3431 
Q 1906 3584 2284 3584 
Q 2666 3584 2933 3390 
Q 3200 3197 3328 2828 
z
" transform="scale(0.015625)"/>
       <path id="DejaVuSans-73" d="M 2834 3397 
L 2834 2853 
Q 2591 2978 2328 3040 
Q 2066 3103 1784 3103 
Q 1356 3103 1142 2972 
Q 928 2841 928 2578 
Q 928 2378 1081 2264 
Q 1234 2150 1697 2047 
L 1894 2003 
Q 2506 1872 2764 1633 
Q 3022 1394 3022 966 
Q 3022 478 2636 193 
Q 2250 -91 1575 -91 
Q 1294 -91 989 -36 
Q 684 19 347 128 
L 347 722 
Q 666 556 975 473 
Q 1284 391 1588 391 
Q 1994 391 2212 530 
Q 2431 669 2431 922 
Q 2431 1156 2273 1281 
Q 2116 1406 1581 1522 
L 1381 1569 
Q 847 1681 609 1914 
Q 372 2147 372 2553 
Q 372 3047 722 3315 
Q 1072 3584 1716 3584 
Q 2034 3584 2315 3537 
Q 2597 3491 2834 3397 
z
" transform="scale(0.015625)"/>
      </defs>
      <use xlink:href="#DejaVuSans-44"/>
      <use xlink:href="#DejaVuSans-75" transform="translate(77.001953 0)"/>
      <use xlink:href="#DejaVuSans-72" transform="translate(140.380859 0)"/>
      <use xlink:href="#DejaVuSans-61" transform="translate(181.494141 0)"/>
      <use xlink:href="#DejaVuSans-74" transform="translate(242.773438 0)"/>
      <use xlink:href="#DejaVuSans-69" transform="translate(281.982422 0)"/>
      <use xlink:href="#DejaVuSans-6f" transform="translate(309.765625 0)"/>
      <use xlink:href="#DejaVuSans-6e" transform="translate(370.947266 0)"/>
      <use xlink:href="#DejaVuSans-20" transform="translate(434.326172 0)"/>
      <use xlink:href="#DejaVuSans-28" transform="translate(466.113281 0)"/>
      <use xlink:href="#DejaVuSans-6d" transform="translate(505.126953 0)"/>
      <use xlink:href="#DejaVuSans-73" transform="translate(602.539062 0)"/>
      <use xlink:href="#DejaVuSans-29" transform="translate(654.638672 0)"/>
     </g>
    </g>
   </g>
   <g id="line2d_53">
    <path d="M 92.487647 433 
L 92.586387 352.222008 
L 92.70978 348.982251 
L 92.931888 325.017306 
L 92.981245 321.939366 
L 93.153995 303.859164 
L 93.351424 301.331616 
L 93.400782 301.274964 
L 93.573532 300.758731 
L 94.338569 298.605757 
L 94.511319 298.470362 
L 95.029571 297.968625 
L 95.202321 297.638222 
L 95.769929 297.124629 
L 96.28818 296.763415 
L 96.485609 296.519604 
L 96.781753 296.283306 
L 97.250646 295.927815 
L 97.37404 295.873078 
L 97.522111 295.747992 
L 98.311827 295.231344 
L 98.756042 295.04395 
L 99.027507 294.833241 
L 99.397686 294.620234 
L 99.545758 294.521035 
L 101.964263 292.920819 
L 102.161692 292.794203 
L 102.507193 292.46417 
L 102.7293 292.32932 
L 103.025444 292.156668 
L 103.321587 291.933425 
L 103.617731 291.64176 
L 103.913874 291.530907 
L 110.749852 285.152382 
L 110.947281 284.67001 
L 111.14471 284.268275 
L 111.194067 284.219951 
L 111.712318 281.622379 
L 111.86039 279.362615 
L 111.909747 279.264831 
L 112.082498 277.848268 
L 112.600749 276.537627 
L 113.069643 276.259203 
L 113.464501 276.049916 
L 114.229538 275.811822 
L 114.747789 275.703327 
L 115.019254 275.664943 
L 118.449582 275.021796 
L 120.004335 274.865882 
L 120.497908 274.822646 
L 122.472197 274.65376 
L 122.867055 274.608978 
L 124.347772 274.486166 
L 125.927204 274.327789 
L 127.333886 274.219586 
L 128.271673 274.138813 
L 130.517428 273.989889 
L 133.602255 273.811022 
L 136.73644 273.646033 
L 144.510206 273.279398 
L 147.200176 273.155477 
L 155.418156 272.809557 
L 156.775481 272.755589 
L 161.563133 272.57582 
L 162.747707 272.530113 
L 232.464812 270.384355 
L 238.831896 270.256071 
L 244.384586 270.170197 
L 260.993298 269.942155 
L 263.757303 269.913914 
L 275.134148 269.784666 
L 284.289916 269.6941 
L 295.765475 269.583463 
L 302.626132 269.518804 
L 319.925845 269.361935 
L 341.618353 269.174465 
L 362.718574 268.974731 
L 376.020351 268.849314 
L 389.4702 268.710594 
L 402.475833 268.565788 
L 477.770306 267.368649 
L 485.075178 267.211578 
L 490.331724 267.100751 
L 518.761496 266.391887 
L 520.094141 266.358912 
L 525.12858 266.236147 
L 554.002567 265.387163 
L 554.520818 265.360315 
L 558.814898 265.2346 
L 561.677618 265.121701 
L 564.86116 264.98565 
L 567.945988 264.872811 
L 571.400995 264.749353 
L 573.029784 264.682033 
L 637.021448 261.562685 
L 637.959236 261.481213 
L 639.760775 261.355078 
L 640.353062 261.312025 
L 668.239904 259.162982 
L 670.090801 259.016757 
L 673.718558 258.691143 
L 674.92781 258.518885 
L 676.161741 258.388926 
L 676.852743 258.302486 
L 678.407496 258.127746 
L 678.752997 258.079458 
L 680.036285 257.93809 
L 682.059932 257.753286 
L 682.553504 257.69092 
L 685.885118 257.321154 
L 686.724191 257.212789 
L 687.6373 257.095275 
L 688.106194 257.036548 
L 690.623413 256.740592 
L 691.092307 256.666983 
L 694.004385 256.296486 
L 694.62135 256.22625 
L 706.689196 254.717879 
L 706.985339 254.668028 
L 709.946774 254.237928 
L 710.316953 254.187882 
L 711.945742 253.924922 
L 712.241886 253.871894 
L 713.722603 253.665386 
L 714.857819 253.496313 
L 715.302035 253.409733 
L 717.054217 253.149752 
L 717.745218 253.041568 
L 718.806399 252.904193 
L 719.398686 252.770232 
L 722.261406 252.233964 
L 723.44598 252.06441 
L 723.643409 252.017264 
L 724.531839 251.85838 
L 725.494305 251.721918 
L 726.284021 251.581089 
L 726.678879 251.499261 
L 727.271166 251.384978 
L 738.401224 249.489372 
L 738.771403 249.380898 
L 742.177053 248.682704 
L 743.213555 248.493821 
L 745.558024 247.980727 
L 746.643884 247.744695 
L 747.334885 247.575138 
L 747.902493 247.456809 
L 752.517395 246.535834 
L 753.825362 246.265842 
L 756.36726 245.732162 
L 756.564689 245.658986 
L 757.354405 245.505672 
L 758.218157 245.281093 
L 758.489622 245.18548 
L 759.94566 244.831658 
L 760.167768 244.758078 
L 760.883448 244.612761 
L 764.06699 243.801623 
L 764.683956 243.668561 
L 765.251564 243.529761 
L 768.410427 242.717642 
L 768.657214 242.65268 
L 769.372894 242.528597 
L 769.644358 242.446023 
L 770.779575 242.172084 
L 771.026361 242.114469 
L 771.544612 241.985797 
L 778.972877 239.828772 
L 779.219663 239.742722 
L 780.256166 239.40684 
L 780.404237 239.336655 
L 780.947167 239.198423 
L 782.033026 238.869731 
L 782.32917 238.754323 
L 783.118886 238.351297 
L 783.711172 238.225064 
L 784.155388 238.080241 
L 784.797032 237.88867 
L 785.167211 237.686684 
L 785.512712 237.546221 
L 785.685462 237.435427 
L 786.055641 237.314925 
L 786.647928 237.074972 
L 787.116822 236.895345 
L 787.462323 236.826893 
L 787.610395 236.758139 
L 788.671575 236.277927 
L 789.066433 236.056046 
L 789.387255 235.93401 
L 789.65872 235.833117 
L 789.905506 235.722875 
L 790.127614 235.604874 
L 790.596508 235.398916 
L 790.843294 235.249291 
L 791.879796 234.674646 
L 791.978511 234.562786 
L 792.447404 234.373715 
L 796.692127 232.488606 
L 796.914235 232.291361 
L 797.161021 232.167206 
L 797.309093 232.042811 
L 797.703951 231.865874 
L 798.148166 231.534355 
L 798.444309 231.38652 
L 798.78981 231.059309 
L 799.085953 230.89374 
L 802.170781 228.548743 
L 802.392889 228.25898 
L 802.491603 228.164784 
L 802.787747 227.74722 
L 802.935818 227.639109 
L 803.97232 226.680236 
L 804.095714 226.471126 
L 804.293143 226.355305 
L 805.280287 225.283651 
L 805.379002 225.212603 
L 805.551752 225.031501 
L 805.971289 224.490085 
L 806.292111 224.12331 
L 806.341468 224.071195 
L 806.538897 223.721446 
L 806.612933 223.646314 
L 806.761005 223.401532 
L 807.057148 223.258703 
L 807.37797 222.777399 
L 807.501363 222.655303 
L 807.698792 222.514076 
L 807.846864 222.394331 
L 808.09365 221.937148 
L 808.365115 221.705541 
L 808.562544 221.411077 
L 808.710616 221.219556 
L 808.957402 221.096592 
L 809.302903 220.719104 
L 809.475653 220.580794 
L 809.673082 220.250939 
L 809.969225 219.597721 
L 810.166654 219.287606 
L 810.438119 219.002935 
L 811.030406 217.920063 
L 811.178478 217.677288 
L 811.375907 217.511297 
L 811.474621 217.249144 
L 811.770765 216.460973 
L 811.894158 216.329556 
L 812.21498 215.537593 
L 812.609838 214.601687 
L 813.177446 213.270088 
L 813.325518 213.138655 
L 813.498268 212.604909 
L 813.695697 212.176007 
L 813.917805 211.518606 
L 813.991841 211.390044 
L 814.312663 210.39898 
L 814.36202 210.235354 
L 814.584128 209.094271 
L 814.855592 208.182753 
L 814.90495 208.129172 
L 815.398522 204.6854 
L 815.719344 203.858945 
L 815.892094 202.161396 
L 815.990809 201.853084 
L 816.138881 199.057697 
L 816.262274 196.73644 
L 816.410346 194.82367 
L 816.484381 194.519108 
L 816.632453 192.387593 
L 816.68181 191.991388 
L 816.854561 187.817507 
L 816.903918 187.095228 
L 816.953275 181.748221 
L 816.953275 181.748221 
" clip-path="url(#p08bfe1444b)" style="fill: none; stroke: #1f77b4; stroke-width: 1.5; stroke-linecap: square"/>
   </g>
   <g id="line2d_54">
    <path d="M 93.256061 433 
L 93.362147 367.195848 
L 93.538906 365.544828 
L 93.715665 365.006236 
L 93.751016 364.477195 
L 94.069183 348.414112 
L 94.21059 339.597531 
L 94.528756 299.535734 
L 94.705515 299.212681 
L 94.882274 298.949895 
L 95.023681 298.400285 
L 95.624661 297.677872 
L 96.048883 297.304874 
L 96.367049 297.001253 
L 98.770971 295.741478 
L 99.089137 295.625003 
L 100.008283 295.315415 
L 101.245596 294.98153 
L 102.058687 294.59923 
L 102.553612 294.423889 
L 102.90713 294.338821 
L 103.083889 294.267354 
L 104.003036 294.052807 
L 104.462609 293.918004 
L 104.922182 293.756519 
L 105.204997 293.642047 
L 105.841329 293.478059 
L 106.088791 293.401079 
L 106.760476 293.165811 
L 107.007938 293.042284 
L 107.255401 292.94361 
L 107.43216 292.850886 
L 108.245251 292.673058 
L 108.492713 292.601966 
L 108.987638 292.48463 
L 110.154247 292.185364 
L 111.674374 291.739006 
L 112.487466 291.481033 
L 112.982391 291.331803 
L 113.76013 291.133829 
L 114.184352 291.033402 
L 114.856036 290.857678 
L 115.280257 290.770859 
L 115.987293 290.541507 
L 116.270107 290.459707 
L 116.623625 290.35859 
L 116.800384 290.261524 
L 117.11855 290.154468 
L 117.330661 290.011738 
L 117.931641 289.858524 
L 118.320511 289.714926 
L 118.603325 289.590277 
L 118.88614 289.501343 
L 119.062899 289.430299 
L 119.239658 289.361442 
L 119.451768 289.151658 
L 120.052749 288.961875 
L 120.370915 288.710552 
L 120.86584 288.519673 
L 121.113303 288.34281 
L 121.466821 288.186079 
L 122.810189 287.094315 
L 123.057651 287.014303 
L 123.764687 286.413116 
L 124.082853 286.038085 
L 124.22426 285.904639 
L 124.401019 285.754975 
L 124.683833 285.647122 
L 124.754537 285.525287 
L 124.895944 285.149766 
L 125.072703 284.93068 
L 125.496925 284.222895 
L 125.779739 283.386476 
L 125.956498 282.794602 
L 126.027202 282.676081 
L 126.062553 282.65342 
L 126.628182 278.280791 
L 126.804941 276.629638 
L 126.9817 275.939462 
L 127.476625 275.001643 
L 127.58268 274.920474 
L 127.724087 274.786459 
L 127.830143 274.70228 
L 128.006902 274.471718 
L 128.254364 274.285758 
L 131.542081 273.157212 
L 131.824895 273.065877 
L 132.037006 273.017495 
L 132.567283 272.908859 
L 132.744042 272.855577 
L 133.521781 272.636808 
L 133.69854 272.517917 
L 140.945657 271.056869 
L 147.167572 270.001627 
L 148.122071 269.889872 
L 148.581644 269.853872 
L 158.161979 269.133966 
L 158.833663 269.08872 
L 160.424494 268.980881 
L 161.060826 268.939201 
L 163.782914 268.788993 
L 168.802868 268.463152 
L 169.863422 268.363912 
L 171.701715 268.226042 
L 172.125937 268.190124 
L 178.100389 267.650303 
L 178.70137 267.555225 
L 184.42836 266.987248 
L 184.852582 266.929153 
L 187.680725 266.508081 
L 187.892836 266.444041 
L 188.741279 266.336922 
L 189.483666 266.221686 
L 190.190702 266.103393 
L 199.700334 264.650648 
L 200.61948 264.523529 
L 201.043702 264.458377 
L 201.892145 264.345934 
L 205.462676 263.792575 
L 205.74549 263.715336 
L 208.50293 263.178425 
L 209.033206 263.05511 
L 210.058408 262.916296 
L 210.800796 262.755136 
L 212.250219 262.575373 
L 213.982457 262.284466 
L 214.760197 262.159081 
L 215.891454 262.016728 
L 217.729747 261.737906 
L 218.012561 261.677295 
L 219.56804 261.480521 
L 224.587994 260.515235 
L 225.401086 260.330036 
L 228.123174 259.876828 
L 228.759506 259.685019 
L 229.749356 259.530527 
L 230.385688 259.306375 
L 230.951317 259.183371 
L 231.41089 259.12419 
L 232.931017 258.821346 
L 234.733958 258.317669 
L 235.971271 258.109972 
L 236.183382 258.036233 
L 237.349991 257.733948 
L 237.774212 257.631424 
L 238.163082 257.518205 
L 239.365043 257.275982 
L 239.89532 257.115173 
L 240.142782 257.012619 
L 240.637707 256.867923 
L 240.849818 256.720232 
L 241.167984 256.570471 
L 241.698261 256.461166 
L 242.016427 256.300161 
L 242.405297 256.181353 
L 242.617408 256.061495 
L 243.147685 255.911993 
L 243.430499 255.816661 
L 245.905124 254.959464 
L 246.258642 254.819036 
L 246.753567 254.678722 
L 246.965678 254.582376 
L 247.354548 254.457064 
L 247.637362 254.373555 
L 247.99088 254.29664 
L 248.167639 254.203623 
L 248.521157 254.090523 
L 248.874675 254.021484 
L 249.016082 253.91991 
L 251.490707 253.069593 
L 251.808873 252.976179 
L 252.020984 252.864039 
L 252.268447 252.77713 
L 252.975482 252.339239 
L 253.293649 252.235237 
L 254.248147 251.773638 
L 254.672368 251.65393 
L 254.955183 251.510909 
L 255.450108 251.43155 
L 255.626867 251.35355 
L 256.08644 251.217566 
L 256.369254 250.950925 
L 256.722772 250.844426 
L 256.970235 250.705036 
L 257.217697 250.583951 
L 257.500512 250.41645 
L 259.091342 249.835879 
L 259.515564 249.679278 
L 261.81343 248.56714 
L 261.990189 248.471322 
L 266.55057 246.117611 
L 266.833385 246.007593 
L 271.499821 244.032997 
L 271.641228 243.921535 
L 272.030098 243.76988 
L 272.772485 243.31828 
L 272.949244 243.17652 
L 273.126003 243.086593 
L 273.302762 243.014252 
L 273.479521 242.790209 
L 273.903743 242.63995 
L 274.186557 242.437776 
L 274.469371 242.328752 
L 275.176407 241.96374 
L 276.272313 241.390235 
L 276.484423 241.300174 
L 277.085404 241.05805 
L 277.368218 240.890406 
L 277.827791 240.655198 
L 278.145958 240.489101 
L 278.534827 240.381185 
L 279.453974 239.757633 
L 279.630733 239.584006 
L 280.231713 239.280028 
L 280.302417 239.181861 
L 280.514528 239.024686 
L 280.76199 238.918664 
L 280.938749 238.852608 
L 281.115508 238.688378 
L 281.504378 238.539895 
L 282.034655 238.244204 
L 282.388172 238.048467 
L 283.448726 237.686833 
L 283.696189 237.477374 
L 283.837596 237.397148 
L 283.979003 237.287315 
L 284.579984 236.841105 
L 284.827446 236.588024 
L 285.074909 236.469802 
L 285.357723 236.315434 
L 287.903052 235.019891 
L 287.938404 235.01235 
L 288.115163 234.714735 
L 288.610088 234.470254 
L 288.822198 234.272488 
L 290.62514 233.277948 
L 290.907954 233.141735 
L 291.190768 233.044179 
L 291.402879 232.836505 
L 291.862452 232.458428 
L 292.00386 232.351863 
L 292.286674 232.222094 
L 292.675544 231.877414 
L 292.923006 231.773274 
L 293.135117 231.624836 
L 293.382579 231.499991 
L 293.736097 231.31003 
L 294.089615 230.997173 
L 294.266374 230.875597 
L 294.407781 230.777295 
L 294.690596 230.479607 
L 296.175371 229.365548 
L 296.741 228.630256 
L 296.988462 228.12687 
L 297.235925 228.014117 
L 297.695498 227.684204 
L 297.907609 227.548259 
L 298.296478 227.340765 
L 298.543941 227.11925 
L 299.038866 226.787714 
L 299.463087 226.551125 
L 299.604495 226.293454 
L 299.887309 226.182692 
L 300.09942 225.737574 
L 300.205475 225.492498 
L 300.558993 224.897351 
L 300.806456 224.675278 
L 301.159973 224.395108 
L 301.513491 224.00552 
L 301.725602 223.864882 
L 302.043768 223.593954 
L 302.185175 223.503448 
L 302.538693 223.016231 
L 302.750804 222.90512 
L 302.962915 222.623465 
L 303.033618 222.478974 
L 303.387136 221.959673 
L 303.563895 221.82688 
L 303.84671 221.442414 
L 304.235579 220.912423 
L 304.376986 220.76613 
L 304.695153 220.288759 
L 304.83656 220.206201 
L 305.225429 219.821085 
L 305.402188 219.581133 
L 305.82641 218.772767 
L 306.109224 218.522193 
L 306.321335 218.060735 
L 306.993019 216.904606 
L 309.609051 212.598765 
L 309.821162 212.402551 
L 310.068625 211.830588 
L 310.210032 211.513843 
L 310.316087 211.297017 
L 310.775661 210.285011 
L 310.811012 210.281952 
L 311.129178 209.577198 
L 311.270586 209.427159 
L 311.411993 209.015643 
L 311.765511 208.673156 
L 311.977621 208.348148 
L 312.083677 208.260309 
L 312.401843 207.62015 
L 312.578602 207.408272 
L 312.613954 207.379602 
L 312.755361 207.132227 
L 313.073527 206.663374 
L 313.214934 206.485476 
L 313.320989 206.324678 
L 313.497748 206.030491 
L 313.745211 205.919557 
L 314.098729 205.228046 
L 314.275488 204.627816 
L 314.346191 204.489755 
L 314.593654 204.159258 
L 314.664358 204.058364 
L 314.805765 203.926628 
L 315.017875 203.109193 
L 315.159283 202.918368 
L 315.760263 202.076786 
L 315.90167 201.791072 
L 315.972374 201.767483 
L 316.184485 201.430064 
L 316.255188 201.316081 
L 316.396595 200.77366 
L 316.502651 200.687574 
L 316.785465 200.183864 
L 317.174335 199.641881 
L 317.386445 199.199249 
L 318.765165 196.952523 
L 319.118683 196.008932 
L 319.684312 195.445585 
L 319.861071 195.057767 
L 320.002478 195.008973 
L 320.179237 194.286168 
L 320.462051 193.692518 
L 320.532755 193.612268 
L 320.815569 193.111883 
L 320.921625 193.024677 
L 321.02768 192.872631 
L 321.169087 192.408093 
L 321.310494 192.313773 
L 321.593309 191.787969 
L 321.911475 191.510849 
L 322.052882 191.221995 
L 322.088234 191.19714 
L 322.264993 190.819707 
L 322.335696 190.756474 
L 322.689214 190.006625 
L 322.972028 189.80994 
L 323.219491 189.646842 
L 323.360898 189.568257 
L 323.573009 188.963697 
L 323.679064 188.811746 
L 324.280045 188.052252 
L 324.456804 187.441345 
L 324.527507 187.36534 
L 324.739618 186.96736 
L 325.128488 186.511157 
L 325.234543 186.377391 
L 325.588061 185.392675 
L 325.76482 184.945551 
L 325.906227 184.908575 
L 326.047634 184.613893 
L 326.613263 184.074271 
L 326.790022 183.704117 
L 326.931429 183.1982 
L 327.072836 182.891302 
L 327.249595 182.381368 
L 327.391002 182.262728 
L 327.497058 182.145565 
L 327.638465 181.553582 
L 327.673817 181.545798 
L 328.027334 180.551312 
L 328.098038 180.538278 
L 328.380852 179.714983 
L 328.451556 179.655038 
L 328.592963 179.238759 
L 328.805074 178.935982 
L 329.547461 178.030248 
L 329.688869 177.728141 
L 330.289849 177.069288 
L 330.714071 176.602202 
L 330.961533 176.47869 
L 331.244347 175.828602 
L 331.562514 175.749273 
L 331.774624 175.567806 
L 332.234198 174.877686 
L 332.48166 174.666026 
L 333.577566 173.840365 
L 333.683621 173.735844 
L 333.825028 173.187081 
L 334.24925 172.971965 
L 334.496712 172.92387 
L 334.779527 172.761306 
L 335.2391 172.452498 
L 335.380507 172.336228 
L 335.804728 172.012215 
L 335.946136 171.865281 
L 336.158246 171.667048 
L 337.678373 170.450804 
L 337.925836 170.346977 
L 339.304556 169.827431 
L 339.516667 169.69808 
L 340.294406 169.074877 
L 340.400461 168.992218 
L 340.57722 168.821735 
L 343.405364 167.261382 
L 343.72353 167.079787 
L 343.900289 166.956558 
L 347.506171 165.896917 
L 348.036448 165.714191 
L 348.283911 165.637333 
L 348.814188 165.455342 
L 349.097002 165.31892 
L 349.379816 165.197964 
L 350.899943 164.597472 
L 351.324165 164.49648 
L 352.914995 163.856057 
L 353.091754 163.695427 
L 354.046253 163.279815 
L 354.329067 163.173763 
L 354.930047 162.886525 
L 355.283565 162.75575 
L 355.601731 162.685412 
L 355.955249 162.55532 
L 356.450174 162.398655 
L 356.909748 162.257547 
L 357.440024 162.008348 
L 358.571282 161.621697 
L 359.561132 161.340273 
L 359.985353 161.235457 
L 360.621686 161.006803 
L 361.010555 160.898233 
L 361.364073 160.766399 
L 361.540832 160.664112 
L 362.67209 160.377515 
L 363.096311 160.269704 
L 363.803347 159.998201 
L 364.050809 159.883988 
L 365.535585 159.484577 
L 366.348676 159.167629 
L 366.490083 159.061645 
L 366.63149 158.984898 
L 366.914304 158.860102 
L 368.964708 158.303552 
L 370.131317 157.872459 
L 370.803001 157.73791 
L 371.085816 157.652687 
L 371.651444 157.380693 
L 371.863555 157.30499 
L 372.217073 157.199147 
L 372.429184 157.069101 
L 372.818053 156.933025 
L 373.984663 156.362868 
L 374.585643 156.235032 
L 374.833106 156.090301 
L 374.974513 155.914481 
L 375.186623 155.764779 
L 375.363382 155.663381 
L 375.610845 155.615019 
L 376.459288 155.379702 
L 376.777454 155.252584 
L 379.923763 154.127397 
L 380.171226 153.965121 
L 382.080223 153.175582 
L 382.575148 153.013138 
L 382.857962 152.852272 
L 383.034721 152.685315 
L 383.105425 152.641672 
L 383.246832 152.460778 
L 383.352887 152.27274 
L 383.529646 151.777495 
L 383.918516 151.309142 
L 384.095275 150.984009 
L 384.696255 149.981661 
L 385.085125 149.437007 
L 385.261884 148.776517 
L 385.297236 148.766486 
L 385.544698 148.121508 
L 385.615402 148.097008 
L 385.827513 147.649652 
L 387.100177 146.584694 
L 387.241584 146.164995 
L 387.595102 146.014403 
L 387.771861 145.830533 
L 387.983972 145.304956 
L 388.160731 145.176849 
L 388.266786 145.126038 
L 388.478897 144.829579 
L 388.726359 144.607476 
L 388.867767 144.414537 
L 389.610154 143.723053 
L 389.963672 143.405071 
L 390.387894 143.229985 
L 390.670708 142.745366 
L 390.847467 142.575743 
L 391.024226 142.398173 
L 391.165633 142.301017 
L 391.342392 142.121511 
L 392.226187 141.425573 
L 392.650408 141.231022 
L 393.003926 141.064089 
L 394.135183 140.603242 
L 394.700812 140.429424 
L 395.018978 140.290878 
L 395.513903 140.143779 
L 395.761366 140.033426 
L 396.256291 139.922282 
L 396.680512 139.779888 
L 397.175437 139.72988 
L 399.897525 139.403427 
L 401.311597 139.173854 
L 402.053985 139.072393 
L 402.336799 139.024982 
L 403.326649 138.895436 
L 403.609463 138.834864 
L 404.634665 138.721124 
L 405.765923 138.499941 
L 415.98259 137.502179 
L 417.467365 137.354012 
L 419.447066 137.108901 
L 422.982245 136.862409 
L 423.371114 136.802894 
L 424.820538 136.669766 
L 436.69874 135.372591 
L 436.981554 135.324731 
L 439.809697 135.077374 
L 441.04701 134.95439 
L 442.63784 134.797841 
L 443.698394 134.684285 
L 444.688244 134.531575 
L 446.420482 134.411203 
L 449.001163 134.140512 
L 449.354681 134.094098 
L 451.935361 133.874998 
L 452.324231 133.830155 
L 453.066619 133.720198 
L 453.561544 133.650517 
L 454.303931 133.524828 
L 455.187726 133.385178 
L 455.470541 133.338339 
L 456.425039 133.176695 
L 457.132075 133.052795 
L 457.945166 132.877088 
L 458.440091 132.552011 
L 459.288534 132.157578 
L 459.571348 131.923557 
L 460.561198 131.587351 
L 460.773309 131.403862 
L 461.126827 131.179714 
L 461.621752 130.690095 
L 461.97527 130.496668 
L 462.116677 130.315294 
L 463.106527 129.177891 
L 463.35399 128.643986 
L 463.813563 128.258261 
L 463.990322 128.036724 
L 464.34384 127.777678 
L 464.449895 127.719046 
L 464.626654 127.422792 
L 465.404394 126.728501 
L 466.182133 126.612721 
L 466.358892 126.514698 
L 466.747762 126.387504 
L 467.065928 126.268995 
L 467.419446 126.203065 
L 469.151684 125.793778 
L 469.399146 125.692772 
L 470.247589 125.550405 
L 472.898973 125.018547 
L 473.81812 124.888348 
L 474.454452 124.776385 
L 475.974579 124.630189 
L 476.328097 124.551338 
L 477.812872 124.414857 
L 482.585364 123.939876 
L 483.716621 123.829176 
L 484.070139 123.797145 
L 485.484211 123.655092 
L 491.77683 122.883104 
L 492.165699 122.847912 
L 492.872735 122.750669 
L 493.226253 122.67046 
L 494.322159 122.528844 
L 494.640325 122.481374 
L 495.73623 122.286658 
L 497.11495 122.078037 
L 497.928041 121.968892 
L 498.88254 121.846668 
L 500.685481 121.686223 
L 504.715585 121.135487 
L 508.816393 120.291378 
L 508.9578 120.119624 
L 509.558781 119.908586 
L 509.700188 119.700468 
L 510.018354 119.649384 
L 510.230465 118.711444 
L 510.513279 118.190419 
L 510.654686 117.712604 
L 510.831445 117.586312 
L 511.998054 116.721386 
L 512.669738 116.374721 
L 513.836347 116.177569 
L 514.260569 116.097185 
L 515.851399 115.796467 
L 516.204917 115.723304 
L 517.406878 115.558841 
L 518.184617 115.445107 
L 518.679543 115.384266 
L 520.659243 115.134994 
L 549.400249 112.599614 
L 552.334447 112.340435 
L 553.218242 112.26702 
L 554.208092 112.15284 
L 556.258496 111.768201 
L 556.93018 111.637375 
L 558.980584 111.170309 
L 559.157343 111.046536 
L 560.182545 110.709515 
L 560.465359 110.595291 
L 561.914783 110.041058 
L 562.126894 109.935453 
L 564.566167 109.163727 
L 564.884333 109.0636 
L 565.131796 108.96958 
L 565.308555 108.913937 
L 565.838832 108.703581 
L 566.40446 108.391491 
L 573.545522 107.70981 
L 575.27776 107.593547 
L 575.949444 107.535361 
L 578.388717 107.381957 
L 582.029952 107.134052 
L 584.645984 106.942126 
L 591.963805 106.406384 
L 592.953655 106.286776 
L 595.251522 106.141967 
L 596.524186 106.06924 
L 599.423033 105.866912 
L 600.448235 105.768288 
L 603.134971 105.609447 
L 603.91271 105.565171 
L 605.892411 105.424727 
L 610.735606 105.000208 
L 611.442642 104.837457 
L 611.690104 104.366135 
L 612.220381 104.152779 
L 613.634453 103.807043 
L 614.094026 103.601154 
L 614.447544 103.439248 
L 614.76571 103.306341 
L 615.790912 103.072282 
L 616.497948 102.959138 
L 616.816114 102.876931 
L 619.396795 102.551039 
L 619.927072 102.442766 
L 623.780417 101.966294 
L 624.62886 101.837011 
L 634.032436 101.22432 
L 636.47171 101.093563 
L 648.597374 100.449711 
L 651.001296 100.315365 
L 652.167905 100.249801 
L 655.066752 100.091385 
L 660.546279 99.501342 
L 663.409774 99.046451 
L 663.798644 98.972445 
L 665.071308 98.815283 
L 665.248067 98.700704 
L 665.849048 98.589726 
L 666.308621 98.39517 
L 668.146914 98.158416 
L 668.429729 98.092215 
L 674.474885 97.091019 
L 675.323328 96.917933 
L 676.34853 96.787953 
L 676.666696 96.729214 
L 677.479787 96.597328 
L 677.974712 96.557888 
L 679.848357 96.382136 
L 682.358334 96.215078 
L 683.312833 96.075748 
L 685.82281 95.69801 
L 687.696455 95.462855 
L 689.110526 95.324369 
L 689.499396 95.277393 
L 690.135728 95.176261 
L 690.489246 95.057314 
L 691.443744 94.828289 
L 692.221484 94.612994 
L 693.105279 94.491539 
L 693.388093 94.429077 
L 694.413295 94.175168 
L 694.978924 94.052306 
L 695.191034 93.958634 
L 696.145533 93.650811 
L 696.534402 93.539614 
L 696.746513 93.448266 
L 696.923272 93.33563 
L 697.842419 93.060853 
L 697.983826 92.938369 
L 698.690862 92.845048 
L 701.766467 92.537343 
L 703.00378 92.432205 
L 703.428002 92.362858 
L 704.135037 92.296562 
L 706.645015 92.091342 
L 714.210298 91.479137 
L 714.351705 91.339604 
L 714.669871 91.239843 
L 714.811278 91.029577 
L 716.543516 90.780641 
L 716.82633 90.70966 
L 717.285904 90.602541 
L 717.780829 90.384304 
L 717.992939 90.271205 
L 718.947438 89.98998 
L 719.58377 89.71217 
L 719.760529 89.44066 
L 721.35136 89.273877 
L 722.235154 89.174588 
L 726.159203 88.879648 
L 726.760184 88.832009 
L 728.209607 88.657686 
L 729.093402 88.534294 
L 730.648881 88.413001 
L 732.381118 88.108556 
L 732.840692 88.033414 
L 734.502226 87.842135 
L 734.997151 87.721299 
L 735.598131 87.561901 
L 735.880946 87.455941 
L 737.188962 87.081355 
L 737.789942 86.91626 
L 738.14346 86.830272 
L 738.815144 86.709402 
L 740.405975 86.339066 
L 740.794845 86.217666 
L 743.234118 85.765924 
L 743.622988 85.680892 
L 744.330024 85.553138 
L 746.557186 85.162993 
L 750.092366 84.865355 
L 751.046864 84.614993 
L 751.188271 84.192036 
L 751.435734 83.368441 
L 752.001362 83.24053 
L 753.203323 82.897884 
L 753.34473 82.782399 
L 754.405284 82.601651 
L 754.794154 82.257328 
L 755.076968 82.188614 
L 755.253727 82.090255 
L 755.430486 82.022439 
L 755.536541 81.311747 
L 755.7133 80.621768 
L 757.693001 80.281622 
L 758.046518 80.173599 
L 759.036369 79.867276 
L 759.46059 79.724159 
L 759.814108 79.471431 
L 760.026219 79.417444 
L 760.273681 77.510711 
L 760.415088 77.438902 
L 761.581698 77.274507 
L 762.642251 77.102765 
L 763.59675 76.970981 
L 763.844212 76.924252 
L 764.975469 76.812943 
L 765.152228 76.756257 
L 765.541098 76.699403 
L 765.682505 76.477354 
L 765.823912 76.456506 
L 765.96532 76.226144 
L 766.495596 76.151375 
L 766.637004 75.739662 
L 766.743059 75.64676 
L 766.884466 75.381742 
L 767.344039 75.229453 
L 767.520798 75.22231 
L 767.697557 74.894467 
L 768.970222 74.671423 
L 770.490349 74.468979 
L 771.586254 74.169857 
L 775.227489 73.662542 
L 777.383948 73.521818 
L 778.833371 73.396418 
L 781.131238 73.282812 
L 781.732218 73.252323 
L 785.868378 72.978687 
L 786.11584 72.95243 
L 786.469358 72.80893 
L 786.646117 72.753616 
L 787.600616 72.664642 
L 787.918782 71.946518 
L 789.651019 71.78074 
L 797.322358 71.06295 
L 797.640524 70.977455 
L 800.291909 70.497188 
L 800.468667 70.434758 
L 800.786834 70.35546 
L 800.963593 70.232398 
L 801.387814 70.04046 
L 801.529221 69.789681 
L 801.635277 69.773727 
L 801.741332 68.822167 
L 801.882739 67.591565 
L 802.165553 67.521896 
L 802.306961 67.470756 
L 802.554423 67.394339 
L 802.69583 67.324755 
L 803.013996 64.512837 
L 803.544273 64.458415 
L 805.170456 64.221935 
L 805.559325 64.124723 
L 806.337065 63.971542 
L 806.513824 63.319665 
L 808.21071 63.017735 
L 808.387469 62.971422 
L 809.094504 62.870136 
L 809.235912 62.761017 
L 809.377319 62.673909 
L 809.554078 62.150337 
L 810.57928 62.039898 
L 810.79139 61.491121 
L 810.862094 61.486528 
L 811.074205 60.408258 
L 813.513478 59.919928 
L 813.619534 59.738938 
L 813.796293 59.001264 
L 814.185162 58.898132 
L 814.326569 58.816182 
L 815.245716 58.686608 
L 815.422475 58.628769 
L 815.52853 58.62401 
L 815.705289 57.971666 
L 816.765843 57.811826 
L 816.90725 57.689978 
L 816.942602 57.682545 
L 816.942602 57.682545 
" clip-path="url(#p08bfe1444b)" style="fill: none; stroke: #ff7f0e; stroke-width: 1.5; stroke-linecap: square"/>
   </g>
   <g id="line2d_55">
    <path d="M 92.375665 433 
L 92.477662 359.186069 
L 92.503156 359.089168 
L 92.834571 333.544233 
L 92.987532 300.904796 
L 93.216974 299.178814 
L 93.267961 298.809044 
L 93.54839 297.414227 
L 93.828819 296.507047 
L 93.854312 296.501468 
L 94.109247 295.66424 
L 94.211221 295.578931 
L 94.415169 295.139793 
L 94.542637 294.997933 
L 94.772079 294.658476 
L 94.950533 294.543321 
L 95.383923 293.758974 
L 95.562378 293.639395 
L 96.072248 292.926659 
L 96.30169 292.774217 
L 97.780314 291.574924 
L 97.933275 291.377521 
L 98.239197 291.170644 
L 98.723574 290.816475 
L 99.004003 290.681596 
L 99.386405 290.212702 
L 99.615847 290.067342 
L 99.845289 289.914414 
L 102.547602 287.863336 
L 102.802537 287.624579 
L 103.006485 287.481513 
L 103.18494 287.333476 
L 103.490862 287.20799 
L 103.720304 287.018079 
L 105.300902 286.017605 
L 105.479356 285.795566 
L 105.785279 285.55089 
L 105.989227 285.30025 
L 106.116694 285.140323 
L 106.346136 284.767618 
L 107.646305 282.802183 
L 107.82476 282.110572 
L 107.875747 282.067757 
L 108.283643 280.720955 
L 108.436604 280.449414 
L 108.793514 278.944869 
L 108.869994 278.654004 
L 108.997462 278.103517 
L 109.379865 275.344405 
L 109.660293 272.253133 
L 109.762267 270.915182 
L 110.042696 265.399029 
L 110.246644 264.423885 
L 110.450592 263.794493 
L 110.476086 263.794222 
L 110.680034 263.329506 
L 110.756515 263.236551 
L 111.113424 262.809014 
L 111.572307 262.480318 
L 112.974451 261.817994 
L 113.356853 261.702933 
L 113.917711 261.482948 
L 114.580542 261.290247 
L 114.860971 261.237509 
L 115.906205 261.073738 
L 116.288608 260.990552 
L 116.900452 260.863523 
L 117.53779 260.763158 
L 118.353583 260.639646 
L 119.041908 260.549786 
L 120.21461 260.414301 
L 134.006603 259.148948 
L 146.192505 258.553115 
L 146.702375 258.525577 
L 158.964757 258.03743 
L 162.839772 257.90647 
L 166.995216 257.751879 
L 183.515015 257.214788 
L 187.542991 257.101846 
L 196.51671 256.846866 
L 201.538933 256.698929 
L 203.629401 256.632888 
L 212.093249 256.395209 
L 214.948523 256.309931 
L 225.834255 255.989106 
L 233.431324 255.758774 
L 236.312091 255.684903 
L 243.756199 255.471011 
L 245.489758 255.424338 
L 252.398501 255.214129 
L 253.749658 255.182596 
L 270.957782 254.661796 
L 272.155978 254.6281 
L 276.770305 254.502595 
L 281.639567 254.351653 
L 284.622308 254.246613 
L 288.930713 254.113307 
L 291.378091 254.029599 
L 295.100144 253.908247 
L 299.255588 253.774629 
L 301.550004 253.673551 
L 306.725188 253.475766 
L 307.362526 253.44293 
L 311.619944 253.28678 
L 322.046793 252.833438 
L 325.004041 252.714761 
L 326.916055 252.637005 
L 329.745835 252.497721 
L 331.887291 252.413106 
L 334.844539 252.285041 
L 336.88402 252.205031 
L 354.117639 251.187706 
L 356.182614 251.042961 
L 366.023112 250.324213 
L 366.481995 250.27993 
L 368.62345 250.109602 
L 369.311775 250.006257 
L 371.147309 249.879772 
L 372.651426 249.719244 
L 373.875115 249.59804 
L 375.124298 249.451428 
L 376.042064 249.343586 
L 378.158026 249.081833 
L 379.075793 248.949882 
L 380.707378 248.754985 
L 382.058534 248.541942 
L 382.440937 248.498667 
L 383.486172 248.358691 
L 385.806082 248.054138 
L 386.112004 248.005992 
L 386.902303 247.894363 
L 388.355433 247.707762 
L 390.420408 247.465627 
L 390.751824 247.396244 
L 402.963219 245.215087 
L 403.269142 245.155949 
L 404.696779 244.850566 
L 405.691026 244.70753 
L 406.812741 244.557033 
L 408.418832 244.247384 
L 409.183638 244.099689 
L 411.631016 243.521341 
L 412.064405 243.407804 
L 413.466549 243.09697 
L 413.746978 243.019598 
L 414.537277 242.868547 
L 421.267565 241.465407 
L 421.853916 241.313488 
L 422.593228 241.199515 
L 424.479749 240.809329 
L 425.754425 240.586228 
L 432.306259 239.075894 
L 432.561194 238.968785 
L 433.173038 238.787589 
L 433.555441 238.673982 
L 436.104793 237.979045 
L 436.691144 237.747019 
L 437.073547 237.63532 
L 437.889339 237.371008 
L 438.169768 237.2396 
L 438.526677 237.145797 
L 438.781612 237.05961 
L 439.164015 236.930959 
L 440.107275 236.613186 
L 440.71912 236.498141 
L 440.923068 236.410202 
L 441.432938 236.259512 
L 441.713367 236.134413 
L 442.121263 236.009359 
L 443.268472 235.625755 
L 444.84907 235.043342 
L 445.078511 234.975864 
L 445.690356 234.845753 
L 448.341682 233.998558 
L 450.610605 233.283141 
L 451.145969 233.134712 
L 452.905021 232.44992 
L 454.205191 232.115304 
L 454.383645 232.055347 
L 456.678062 231.311354 
L 456.932997 231.16868 
L 457.289906 231.046076 
L 457.646816 230.880705 
L 458.386128 230.676416 
L 458.615569 230.609991 
L 461.623805 229.694613 
L 461.87874 229.603978 
L 472.127134 225.885418 
L 472.433056 225.651137 
L 472.713485 225.545325 
L 473.274342 225.397561 
L 473.809706 225.267784 
L 474.396057 225.100924 
L 474.752966 224.897227 
L 474.905928 224.802542 
L 476.282578 224.331357 
L 476.715967 224.194221 
L 477.123864 224.085413 
L 477.327812 224.011333 
L 477.710215 223.899513 
L 477.939656 223.7845 
L 478.500514 223.622121 
L 478.678968 223.508412 
L 479.061371 223.326399 
L 479.290813 223.235186 
L 482.936386 221.926031 
L 487.142816 220.449992 
L 491.578688 219.095375 
L 491.884611 218.934261 
L 492.776884 218.697912 
L 493.235767 218.545843 
L 493.439715 218.451345 
L 493.61817 218.407049 
L 495.836106 217.736381 
L 496.549924 217.436371 
L 497.467691 217.186554 
L 497.722626 217.11834 
L 498.308977 216.955826 
L 498.69138 216.862111 
L 498.971809 216.744075 
L 499.379705 216.602403 
L 500.170004 216.373326 
L 500.603394 216.205354 
L 500.781848 216.117877 
L 501.01129 216.06312 
L 502.464421 215.433945 
L 502.948797 215.234513 
L 503.25472 215.120895 
L 503.458668 214.975871 
L 503.866564 214.866264 
L 506.543384 213.899439 
L 506.95128 213.780311 
L 507.180721 213.696777 
L 507.614111 213.574693 
L 508.633852 213.289345 
L 509.067242 213.040934 
L 509.398658 212.951662 
L 509.577112 212.877962 
L 510.392905 212.596428 
L 510.673333 212.517236 
L 511.820542 212.145672 
L 512.381399 211.986941 
L 512.840283 211.820054 
L 513.171698 211.735111 
L 519.009714 210.14322 
L 519.647052 209.964804 
L 520.513831 209.791044 
L 520.896234 209.628153 
L 522.323871 209.254381 
L 525.026184 208.308981 
L 526.861717 207.804644 
L 528.161887 207.606786 
L 528.875705 207.378333 
L 529.079654 207.308245 
L 529.615017 207.188701 
L 536.141358 205.217136 
L 536.421787 205.024162 
L 537.492515 204.656404 
L 537.900411 204.529367 
L 538.18084 204.44115 
L 538.869165 204.256174 
L 540.169334 203.952423 
L 540.653711 203.84562 
L 541.061607 203.72922 
L 543.636452 202.770259 
L 543.840401 202.712679 
L 544.834648 202.458301 
L 546.670181 201.863213 
L 547.078077 201.73275 
L 553.273002 199.864591 
L 554.088795 199.660426 
L 554.573172 199.51758 
L 555.083042 199.40386 
L 555.414458 199.287537 
L 555.796861 199.178103 
L 556.485186 198.983534 
L 556.969562 198.875858 
L 557.581407 198.740401 
L 557.912823 198.657165 
L 558.244238 198.532173 
L 560.105265 198.063902 
L 560.997538 197.850684 
L 561.711357 197.642797 
L 562.272214 197.51581 
L 562.960539 197.283807 
L 563.138994 197.170291 
L 563.699851 197.049612 
L 564.133241 196.913182 
L 567.396411 196.110442 
L 567.67684 196.045952 
L 568.161217 195.896978 
L 568.875035 195.719015 
L 569.614347 195.572796 
L 570.226192 195.451721 
L 570.710569 195.300875 
L 571.857777 194.995899 
L 572.087219 194.916487 
L 572.520608 194.748695 
L 572.699063 194.697581 
L 573.18344 194.563122 
L 578.537079 193.16003 
L 579.429352 192.970672 
L 579.6333 192.891381 
L 580.117677 192.753665 
L 581.672781 192.424275 
L 581.851236 192.337927 
L 582.361106 192.211917 
L 583.533808 191.893479 
L 584.400588 191.699136 
L 584.961445 191.56966 
L 585.675264 191.351207 
L 585.930199 191.292061 
L 587.02642 191.073023 
L 587.485304 190.970578 
L 591.105383 190.091446 
L 591.58976 189.962101 
L 592.380059 189.778124 
L 593.042891 189.637859 
L 593.297826 189.566055 
L 594.980398 189.284018 
L 595.770697 189.107535 
L 596.433528 188.992822 
L 597.402282 188.793073 
L 597.886659 188.681762 
L 598.396529 188.570949 
L 601.30279 187.942322 
L 601.787167 187.821527 
L 602.373518 187.729443 
L 603.087337 187.607205 
L 603.520726 187.519139 
L 604.234545 187.388328 
L 604.744415 187.279378 
L 605.101325 187.202333 
L 605.636688 187.080042 
L 606.044585 187.000873 
L 618.154006 185.073737 
L 619.352201 184.94398 
L 625.955022 183.883941 
L 627.000257 183.727582 
L 627.943517 183.613244 
L 630.798791 183.190724 
L 632.073467 183.045973 
L 632.45587 182.979429 
L 634.367883 182.675001 
L 635.20917 182.566825 
L 635.846507 182.472926 
L 647.446058 180.758975 
L 647.828461 180.694889 
L 651.779956 180.169359 
L 652.493775 180.095594 
L 653.335061 179.978428 
L 653.972399 179.881319 
L 656.01188 179.653339 
L 656.419777 179.613836 
L 658.025868 179.445893 
L 658.969128 179.347314 
L 660.14183 179.217117 
L 674.163265 177.558573 
L 675.157512 177.430689 
L 676.304721 177.328168 
L 677.426436 177.183821 
L 726.7309 171.787679 
L 727.011328 171.751732 
L 728.438965 171.545922 
L 728.719394 171.483127 
L 729.688148 171.347483 
L 729.943083 171.310621 
L 731.778616 171.065782 
L 732.874837 170.902936 
L 735.551657 170.530648 
L 745.494129 168.831601 
L 745.927519 168.753803 
L 749.190689 168.112247 
L 749.471118 168.019549 
L 749.930001 167.9018 
L 750.133949 167.829729 
L 750.592833 167.736812 
L 750.822274 167.623495 
L 753.677548 166.913554 
L 753.98347 166.806598 
L 754.391367 166.684769 
L 754.875744 166.563007 
L 755.207159 166.446987 
L 755.462095 166.308853 
L 757.654537 165.646084 
L 757.832992 165.59869 
L 759.311616 165.033615 
L 759.49007 164.972099 
L 760.076421 164.815541 
L 760.280369 164.696287 
L 760.560798 164.618813 
L 761.070669 164.505868 
L 761.529552 164.320605 
L 761.886461 164.180366 
L 762.039422 164.089722 
L 762.574786 163.857383 
L 762.880708 163.743853 
L 764.716242 163.171386 
L 765.404567 162.829147 
L 765.608515 162.692001 
L 766.016411 162.553284 
L 766.424307 162.426818 
L 766.602762 162.368725 
L 766.857697 162.254899 
L 767.2401 162.100857 
L 767.469542 162.033035 
L 767.724477 161.923956 
L 767.979412 161.815721 
L 768.259841 161.667474 
L 769.840439 160.920439 
L 770.273829 160.742988 
L 771.523011 160.311699 
L 773.307557 159.47354 
L 774.429272 159.103817 
L 774.582233 159.025939 
L 774.888155 158.910624 
L 776.290299 158.420723 
L 777.182572 157.972291 
L 777.335533 157.857716 
L 777.590468 157.721875 
L 778.074845 157.544833 
L 778.661196 157.274604 
L 778.865144 157.173812 
L 779.247547 157.052157 
L 781.312522 156.048728 
L 781.465483 155.990016 
L 781.822392 155.87343 
L 782.077327 155.779098 
L 782.510717 155.609927 
L 782.740159 155.375057 
L 782.969601 155.236083 
L 783.199042 155.091555 
L 783.810887 154.79429 
L 783.938354 154.686805 
L 785.748394 153.570804 
L 785.875862 153.356836 
L 786.5132 152.839928 
L 787.150538 152.362546 
L 787.227018 152.291866 
L 787.430966 151.995402 
L 787.660408 151.837139 
L 787.88985 151.499687 
L 788.272252 150.762491 
L 788.39972 150.637756 
L 788.654655 150.349785 
L 789.393967 149.339334 
L 789.572422 149.211288 
L 789.929331 148.988551 
L 790.337227 148.462696 
L 790.541175 148.193563 
L 790.71963 147.96036 
L 791.254994 147.010756 
L 791.637397 146.174809 
L 791.790358 145.653445 
L 792.376709 145.110093 
L 792.555163 144.65566 
L 792.682631 144.525815 
L 792.96306 144.048184 
L 793.90632 142.990561 
L 793.9828 142.88273 
L 794.135762 142.606255 
L 794.263229 142.513976 
L 794.441684 142.229556 
L 794.569151 142.117266 
L 794.747606 141.777925 
L 794.977048 141.647794 
L 795.435931 141.407906 
L 795.665373 141.146263 
L 795.818334 141.001013 
L 796.175243 140.723802 
L 796.328204 140.417075 
L 796.583139 140.072415 
L 797.526399 138.56626 
L 797.730348 138.178739 
L 797.781335 138.120469 
L 797.934296 137.594998 
L 798.265711 137.006495 
L 798.367686 136.887101 
L 798.520647 136.700258 
L 798.648114 136.58282 
L 798.826569 136.324799 
L 799.030517 135.96716 
L 799.565881 134.410366 
L 799.718842 133.768261 
L 799.769829 133.638897 
L 799.999271 133.085711 
L 800.611115 132.559047 
L 800.764076 132.104965 
L 800.78957 132.103518 
L 800.993518 131.570344 
L 801.273947 130.988761 
L 801.528882 129.881152 
L 801.630856 129.773084 
L 801.834804 129.315179 
L 801.987765 129.086512 
L 802.140726 128.632894 
L 802.2427 128.548803 
L 802.446648 127.726498 
L 803.032999 126.650045 
L 803.262441 125.952746 
L 803.415402 125.802262 
L 804.129221 124.324964 
L 804.282182 123.853612 
L 804.409649 123.66092 
L 804.511623 123.301479 
L 804.766559 121.584838 
L 805.556858 119.276811 
L 805.811793 119.094093 
L 806.194196 117.717062 
L 806.576598 116.918899 
L 806.627585 116.801483 
L 806.755053 116.2836 
L 806.882521 114.181261 
L 807.341404 112.62688 
L 807.468872 112.418055 
L 807.647326 111.086055 
L 807.800287 110.339595 
L 808.080716 109.958722 
L 808.157197 109.931088 
L 808.310158 109.514453 
L 808.794534 108.834859 
L 808.998483 107.424402 
L 809.202431 107.016461 
L 809.278911 106.852476 
L 809.55934 106.065201 
L 809.584834 106.01278 
L 809.712301 105.488169 
L 809.814275 105.361616 
L 809.99273 104.970436 
L 810.06921 104.848195 
L 810.400626 104.401233 
L 810.579081 104.192214 
L 810.961484 103.960866 
L 811.190925 103.4989 
L 811.36938 103.423551 
L 811.522341 103.207077 
L 811.675302 103.103343 
L 812.032211 102.52143 
L 812.236159 102.293049 
L 812.465601 101.639398 
L 812.491095 101.61605 
L 812.669549 100.875779 
L 812.949978 100.378299 
L 813.051952 100.231995 
L 813.204913 100.020931 
L 813.536329 99.722011 
L 813.842251 99.184493 
L 814.020706 98.80247 
L 814.19916 98.498337 
L 814.326628 98.397385 
L 814.55607 97.741675 
L 814.785511 96.05208 
L 814.989459 95.735934 
L 815.652291 94.277869 
L 815.805252 93.137669 
L 816.315122 91.644501 
L 816.468083 90.575789 
L 816.570058 90.494223 
L 816.748512 90.035752 
L 816.95246 87.637622 
L 816.95246 87.637622 
" clip-path="url(#p08bfe1444b)" style="fill: none; stroke: #2ca02c; stroke-width: 1.5; stroke-linecap: square"/>
   </g>
   <g id="patch_3">
    <path d="M 55.772054 390.04 
L 55.772054 41.856 
" style="fill: none; stroke: #000000; stroke-width: 0.8; stroke-linejoin: miter; stroke-linecap: square"/>
   </g>
   <g id="patch_4">
    <path d="M 853.2 390.04 
L 853.2 41.856 
" style="fill: none; stroke: #000000; stroke-width: 0.8; stroke-linejoin: miter; stroke-linecap: square"/>
   </g>
   <g id="patch_5">
    <path d="M 55.772054 390.04 
L 853.2 390.04 
" style="fill: none; stroke: #000000; stroke-width: 0.8; stroke-linejoin: miter; stroke-linecap: square"/>
   </g>
   <g id="patch_6">
    <path d="M 55.772054 41.856 
L 853.2 41.856 
" style="fill: none; stroke: #000000; stroke-width: 0.8; stroke-linejoin: miter; stroke-linecap: square"/>
   </g>
   <g id="text_14">
    <!-- HTTP Request Duration Percentiles -->
    <g transform="translate(350.259464 22.355625) scale(0.12 -0.12)">
     <defs>
      <path id="DejaVuSans-48" d="M 628 4666 
L 1259 4666 
L 1259 2753 
L 3553 2753 
L 3553 4666 
L 4184 4666 
L 4184 0 
L 3553 0 
L 3553 2222 
L 1259 2222 
L 1259 0 
L 628 0 
L 628 4666 
z
" transform="scale(0.015625)"/>
      <path id="DejaVuSans-54" d="M -19 4666 
L 3928 4666 
L 3928 4134 
L 2272 4134 
L 2272 0 
L 1638 0 
L 1638 4134 
L -19 4134 
L -19 4666 
z
" transform="scale(0.015625)"/>
      <path id="DejaVuSans-52" d="M 2841 2188 
Q 3044 2119 3236 1894 
Q 3428 1669 3622 1275 
L 4263 0 
L 3584 0 
L 2988 1197 
Q 2756 1666 2539 1819 
Q 2322 1972 1947 1972 
L 1259 1972 
L 1259 0 
L 628 0 
L 628 4666 
L 2053 4666 
Q 2853 4666 3247 4331 
Q 3641 3997 3641 3322 
Q 3641 2881 3436 2590 
Q 3231 2300 2841 2188 
z
M 1259 4147 
L 1259 2491 
L 2053 2491 
Q 2509 2491 2742 2702 
Q 2975 2913 2975 3322 
Q 2975 3731 2742 3939 
Q 2509 4147 2053 4147 
L 1259 4147 
z
" transform="scale(0.015625)"/>
      <path id="DejaVuSans-71" d="M 947 1747 
Q 947 1113 1208 752 
Q 1469 391 1925 391 
Q 2381 391 2643 752 
Q 2906 1113 2906 1747 
Q 2906 2381 2643 2742 
Q 2381 3103 1925 3103 
Q 1469 3103 1208 2742 
Q 947 2381 947 1747 
z
M 2906 525 
Q 2725 213 2448 61 
Q 2172 -91 1784 -91 
Q 1150 -91 751 415 
Q 353 922 353 1747 
Q 353 2572 751 3078 
Q 1150 3584 1784 3584 
Q 2172 3584 2448 3432 
Q 2725 3281 2906 2969 
L 2906 3500 
L 3481 3500 
L 3481 -1331 
L 2906 -1331 
L 2906 525 
z
" transform="scale(0.015625)"/>
     </defs>
     <use xlink:href="#DejaVuSans-48"/>
     <use xlink:href="#DejaVuSans-54" transform="translate(75.195312 0)"/>
     <use xlink:href="#DejaVuSans-54" transform="translate(134.529297 0)"/>
     <use xlink:href="#DejaVuSans-50" transform="translate(195.613281 0)"/>
     <use xlink:href="#DejaVuSans-20" transform="translate(255.916016 0)"/>
     <use xlink:href="#DejaVuSans-52" transform="translate(287.703125 0)"/>
     <use xlink:href="#DejaVuSans-65" transform="translate(352.685547 0)"/>
     <use xlink:href="#DejaVuSans-71" transform="translate(414.208984 0)"/>
     <use xlink:href="#DejaVuSans-75" transform="translate(477.685547 0)"/>
     <use xlink:href="#DejaVuSans-65" transform="translate(541.064453 0)"/>
     <use xlink:href="#DejaVuSans-73" transform="translate(602.587891 0)"/>
     <use xlink:href="#DejaVuSans-74" transform="translate(654.6875 0)"/>
     <use xlink:href="#DejaVuSans-20" transform="translate(693.896484 0)"/>
     <use xlink:href="#DejaVuSans-44" transform="translate(725.683594 0)"/>
     <use xlink:href="#DejaVuSans-75" transform="translate(802.685547 0)"/>
     <use xlink:href="#DejaVuSans-72" transform="translate(866.064453 0)"/>
     <use xlink:href="#DejaVuSans-61" transform="translate(907.177734 0)"/>
     <use xlink:href="#DejaVuSans-74" transform="translate(968.457031 0)"/>
     <use xlink:href="#DejaVuSans-69" transform="translate(1007.666016 0)"/>
     <use xlink:href="#DejaVuSans-6f" transform="translate(1035.449219 0)"/>
     <use xlink:href="#DejaVuSans-6e" transform="translate(1096.630859 0)"/>
     <use xlink:href="#DejaVuSans-20" transform="translate(1160.009766 0)"/>
     <use xlink:href="#DejaVuSans-50" transform="translate(1191.796875 0)"/>
     <use xlink:href="#DejaVuSans-65" transform="translate(1248.474609 0)"/>
     <use xlink:href="#DejaVuSans-72" transform="translate(1309.998047 0)"/>
     <use xlink:href="#DejaVuSans-63" transform="translate(1348.861328 0)"/>
     <use xlink:href="#DejaVuSans-65" transform="translate(1403.841797 0)"/>
     <use xlink:href="#DejaVuSans-6e" transform="translate(1465.365234 0)"/>
     <use xlink:href="#DejaVuSans-74" transform="translate(1528.744141 0)"/>
     <use xlink:href="#DejaVuSans-69" transform="translate(1567.953125 0)"/>
     <use xlink:href="#DejaVuSans-6c" transform="translate(1595.736328 0)"/>
     <use xlink:href="#DejaVuSans-65" transform="translate(1623.519531 0)"/>
     <use xlink:href="#DejaVuSans-73" transform="translate(1685.042969 0)"/>
    </g>
    <!-- Test: spike | Endpoint: GetMapById -->
    <g transform="translate(350.122589 35.856) scale(0.12 -0.12)">
     <defs>
      <path id="DejaVuSans-3a" d="M 750 794 
L 1409 794 
L 1409 0 
L 750 0 
L 750 794 
z
M 750 3309 
L 1409 3309 
L 1409 2516 
L 750 2516 
L 750 3309 
z
" transform="scale(0.015625)"/>
      <path id="DejaVuSans-70" d="M 1159 525 
L 1159 -1331 
L 581 -1331 
L 581 3500 
L 1159 3500 
L 1159 2969 
Q 1341 3281 1617 3432 
Q 1894 3584 2278 3584 
Q 2916 3584 3314 3078 
Q 3713 2572 3713 1747 
Q 3713 922 3314 415 
Q 2916 -91 2278 -91 
Q 1894 -91 1617 61 
Q 1341 213 1159 525 
z
M 3116 1747 
Q 3116 2381 2855 2742 
Q 2594 3103 2138 3103 
Q 1681 3103 1420 2742 
Q 1159 2381 1159 1747 
Q 1159 1113 1420 752 
Q 1681 391 2138 391 
Q 2594 391 2855 752 
Q 3116 1113 3116 1747 
z
" transform="scale(0.015625)"/>
      <path id="DejaVuSans-6b" d="M 581 4863 
L 1159 4863 
L 1159 1991 
L 2875 3500 
L 3609 3500 
L 1753 1863 
L 3688 0 
L 2938 0 
L 1159 1709 
L 1159 0 
L 581 0 
L 581 4863 
z
" transform="scale(0.015625)"/>
      <path id="DejaVuSans-7c" d="M 1344 4891 
L 1344 -1509 
L 813 -1509 
L 813 4891 
L 1344 4891 
z
" transform="scale(0.015625)"/>
      <path id="DejaVuSans-45" d="M 628 4666 
L 3578 4666 
L 3578 4134 
L 1259 4134 
L 1259 2753 
L 3481 2753 
L 3481 2222 
L 1259 2222 
L 1259 531 
L 3634 531 
L 3634 0 
L 628 0 
L 628 4666 
z
" transform="scale(0.015625)"/>
      <path id="DejaVuSans-64" d="M 2906 2969 
L 2906 4863 
L 3481 4863 
L 3481 0 
L 2906 0 
L 2906 525 
Q 2725 213 2448 61 
Q 2172 -91 1784 -91 
Q 1150 -91 751 415 
Q 353 922 353 1747 
Q 353 2572 751 3078 
Q 1150 3584 1784 3584 
Q 2172 3584 2448 3432 
Q 2725 3281 2906 2969 
z
M 947 1747 
Q 947 1113 1208 752 
Q 1469 391 1925 391 
Q 2381 391 2643 752 
Q 2906 1113 2906 1747 
Q 2906 2381 2643 2742 
Q 2381 3103 1925 3103 
Q 1469 3103 1208 2742 
Q 947 2381 947 1747 
z
" transform="scale(0.015625)"/>
      <path id="DejaVuSans-47" d="M 3809 666 
L 3809 1919 
L 2778 1919 
L 2778 2438 
L 4434 2438 
L 4434 434 
Q 4069 175 3628 42 
Q 3188 -91 2688 -91 
Q 1594 -91 976 548 
Q 359 1188 359 2328 
Q 359 3472 976 4111 
Q 1594 4750 2688 4750 
Q 3144 4750 3555 4637 
Q 3966 4525 4313 4306 
L 4313 3634 
Q 3963 3931 3569 4081 
Q 3175 4231 2741 4231 
Q 1884 4231 1454 3753 
Q 1025 3275 1025 2328 
Q 1025 1384 1454 906 
Q 1884 428 2741 428 
Q 3075 428 3337 486 
Q 3600 544 3809 666 
z
" transform="scale(0.015625)"/>
      <path id="DejaVuSans-4d" d="M 628 4666 
L 1569 4666 
L 2759 1491 
L 3956 4666 
L 4897 4666 
L 4897 0 
L 4281 0 
L 4281 4097 
L 3078 897 
L 2444 897 
L 1241 4097 
L 1241 0 
L 628 0 
L 628 4666 
z
" transform="scale(0.015625)"/>
      <path id="DejaVuSans-42" d="M 1259 2228 
L 1259 519 
L 2272 519 
Q 2781 519 3026 730 
Q 3272 941 3272 1375 
Q 3272 1813 3026 2020 
Q 2781 2228 2272 2228 
L 1259 2228 
z
M 1259 4147 
L 1259 2741 
L 2194 2741 
Q 2656 2741 2882 2914 
Q 3109 3088 3109 3444 
Q 3109 3797 2882 3972 
Q 2656 4147 2194 4147 
L 1259 4147 
z
M 628 4666 
L 2241 4666 
Q 2963 4666 3353 4366 
Q 3744 4066 3744 3513 
Q 3744 3084 3544 2831 
Q 3344 2578 2956 2516 
Q 3422 2416 3680 2098 
Q 3938 1781 3938 1306 
Q 3938 681 3513 340 
Q 3088 0 2303 0 
L 628 0 
L 628 4666 
z
" transform="scale(0.015625)"/>
      <path id="DejaVuSans-79" d="M 2059 -325 
Q 1816 -950 1584 -1140 
Q 1353 -1331 966 -1331 
L 506 -1331 
L 506 -850 
L 844 -850 
Q 1081 -850 1212 -737 
Q 1344 -625 1503 -206 
L 1606 56 
L 191 3500 
L 800 3500 
L 1894 763 
L 2988 3500 
L 3597 3500 
L 2059 -325 
z
" transform="scale(0.015625)"/>
      <path id="DejaVuSans-49" d="M 628 4666 
L 1259 4666 
L 1259 0 
L 628 0 
L 628 4666 
z
" transform="scale(0.015625)"/>
     </defs>
     <use xlink:href="#DejaVuSans-54"/>
     <use xlink:href="#DejaVuSans-65" transform="translate(44.083984 0)"/>
     <use xlink:href="#DejaVuSans-73" transform="translate(105.607422 0)"/>
     <use xlink:href="#DejaVuSans-74" transform="translate(157.707031 0)"/>
     <use xlink:href="#DejaVuSans-3a" transform="translate(196.916016 0)"/>
     <use xlink:href="#DejaVuSans-20" transform="translate(230.607422 0)"/>
     <use xlink:href="#DejaVuSans-73" transform="translate(262.394531 0)"/>
     <use xlink:href="#DejaVuSans-70" transform="translate(314.494141 0)"/>
     <use xlink:href="#DejaVuSans-69" transform="translate(377.970703 0)"/>
     <use xlink:href="#DejaVuSans-6b" transform="translate(405.753906 0)"/>
     <use xlink:href="#DejaVuSans-65" transform="translate(460.039062 0)"/>
     <use xlink:href="#DejaVuSans-20" transform="translate(521.5625 0)"/>
     <use xlink:href="#DejaVuSans-7c" transform="translate(553.349609 0)"/>
     <use xlink:href="#DejaVuSans-20" transform="translate(587.041016 0)"/>
     <use xlink:href="#DejaVuSans-45" transform="translate(618.828125 0)"/>
     <use xlink:href="#DejaVuSans-6e" transform="translate(682.011719 0)"/>
     <use xlink:href="#DejaVuSans-64" transform="translate(745.390625 0)"/>
     <use xlink:href="#DejaVuSans-70" transform="translate(808.867188 0)"/>
     <use xlink:href="#DejaVuSans-6f" transform="translate(872.34375 0)"/>
     <use xlink:href="#DejaVuSans-69" transform="translate(933.525391 0)"/>
     <use xlink:href="#DejaVuSans-6e" transform="translate(961.308594 0)"/>
     <use xlink:href="#DejaVuSans-74" transform="translate(1024.6875 0)"/>
     <use xlink:href="#DejaVuSans-3a" transform="translate(1063.896484 0)"/>
     <use xlink:href="#DejaVuSans-20" transform="translate(1097.587891 0)"/>
     <use xlink:href="#DejaVuSans-47" transform="translate(1129.375 0)"/>
     <use xlink:href="#DejaVuSans-65" transform="translate(1206.865234 0)"/>
     <use xlink:href="#DejaVuSans-74" transform="translate(1268.388672 0)"/>
     <use xlink:href="#DejaVuSans-4d" transform="translate(1307.597656 0)"/>
     <use xlink:href="#DejaVuSans-61" transform="translate(1393.876953 0)"/>
     <use xlink:href="#DejaVuSans-70" transform="translate(1455.15625 0)"/>
     <use xlink:href="#DejaVuSans-42" transform="translate(1518.632812 0)"/>
     <use xlink:href="#DejaVuSans-79" transform="translate(1587.236328 0)"/>
     <use xlink:href="#DejaVuSans-49" transform="translate(1646.416016 0)"/>
     <use xlink:href="#DejaVuSans-64" transform="translate(1675.908203 0)"/>
    </g>
   </g>
   <g id="legend_1">
    <g id="patch_7">
     <path d="M 62.772054 93.890375 
L 196.115804 93.890375 
Q 198.115804 93.890375 198.115804 91.890375 
L 198.115804 48.856 
Q 198.115804 46.856 196.115804 46.856 
L 62.772054 46.856 
Q 60.772054 46.856 60.772054 48.856 
L 60.772054 91.890375 
Q 60.772054 93.890375 62.772054 93.890375 
z
" style="fill: #ffffff; opacity: 0.8; stroke: #cccccc; stroke-linejoin: miter"/>
    </g>
    <g id="line2d_56">
     <path d="M 64.772054 54.954437 
L 74.772054 54.954437 
L 84.772054 54.954437 
" style="fill: none; stroke: #1f77b4; stroke-width: 1.5; stroke-linecap: square"/>
    </g>
    <g id="text_15">
     <!-- Single Large Results -->
     <g transform="translate(92.772054 58.454437) scale(0.1 -0.1)">
      <defs>
       <path id="DejaVuSans-53" d="M 3425 4513 
L 3425 3897 
Q 3066 4069 2747 4153 
Q 2428 4238 2131 4238 
Q 1616 4238 1336 4038 
Q 1056 3838 1056 3469 
Q 1056 3159 1242 3001 
Q 1428 2844 1947 2747 
L 2328 2669 
Q 3034 2534 3370 2195 
Q 3706 1856 3706 1288 
Q 3706 609 3251 259 
Q 2797 -91 1919 -91 
Q 1588 -91 1214 -16 
Q 841 59 441 206 
L 441 856 
Q 825 641 1194 531 
Q 1563 422 1919 422 
Q 2459 422 2753 634 
Q 3047 847 3047 1241 
Q 3047 1584 2836 1778 
Q 2625 1972 2144 2069 
L 1759 2144 
Q 1053 2284 737 2584 
Q 422 2884 422 3419 
Q 422 4038 858 4394 
Q 1294 4750 2059 4750 
Q 2388 4750 2728 4690 
Q 3069 4631 3425 4513 
z
" transform="scale(0.015625)"/>
       <path id="DejaVuSans-67" d="M 2906 1791 
Q 2906 2416 2648 2759 
Q 2391 3103 1925 3103 
Q 1463 3103 1205 2759 
Q 947 2416 947 1791 
Q 947 1169 1205 825 
Q 1463 481 1925 481 
Q 2391 481 2648 825 
Q 2906 1169 2906 1791 
z
M 3481 434 
Q 3481 -459 3084 -895 
Q 2688 -1331 1869 -1331 
Q 1566 -1331 1297 -1286 
Q 1028 -1241 775 -1147 
L 775 -588 
Q 1028 -725 1275 -790 
Q 1522 -856 1778 -856 
Q 2344 -856 2625 -561 
Q 2906 -266 2906 331 
L 2906 616 
Q 2728 306 2450 153 
Q 2172 0 1784 0 
Q 1141 0 747 490 
Q 353 981 353 1791 
Q 353 2603 747 3093 
Q 1141 3584 1784 3584 
Q 2172 3584 2450 3431 
Q 2728 3278 2906 2969 
L 2906 3500 
L 3481 3500 
L 3481 434 
z
" transform="scale(0.015625)"/>
       <path id="DejaVuSans-4c" d="M 628 4666 
L 1259 4666 
L 1259 531 
L 3531 531 
L 3531 0 
L 628 0 
L 628 4666 
z
" transform="scale(0.015625)"/>
      </defs>
      <use xlink:href="#DejaVuSans-53"/>
      <use xlink:href="#DejaVuSans-69" transform="translate(63.476562 0)"/>
      <use xlink:href="#DejaVuSans-6e" transform="translate(91.259766 0)"/>
      <use xlink:href="#DejaVuSans-67" transform="translate(154.638672 0)"/>
      <use xlink:href="#DejaVuSans-6c" transform="translate(218.115234 0)"/>
      <use xlink:href="#DejaVuSans-65" transform="translate(245.898438 0)"/>
      <use xlink:href="#DejaVuSans-20" transform="translate(307.421875 0)"/>
      <use xlink:href="#DejaVuSans-4c" transform="translate(339.208984 0)"/>
      <use xlink:href="#DejaVuSans-61" transform="translate(394.921875 0)"/>
      <use xlink:href="#DejaVuSans-72" transform="translate(456.201172 0)"/>
      <use xlink:href="#DejaVuSans-67" transform="translate(495.564453 0)"/>
      <use xlink:href="#DejaVuSans-65" transform="translate(559.041016 0)"/>
      <use xlink:href="#DejaVuSans-20" transform="translate(620.564453 0)"/>
      <use xlink:href="#DejaVuSans-52" transform="translate(652.351562 0)"/>
      <use xlink:href="#DejaVuSans-65" transform="translate(717.333984 0)"/>
      <use xlink:href="#DejaVuSans-73" transform="translate(778.857422 0)"/>
      <use xlink:href="#DejaVuSans-75" transform="translate(830.957031 0)"/>
      <use xlink:href="#DejaVuSans-6c" transform="translate(894.335938 0)"/>
      <use xlink:href="#DejaVuSans-74" transform="translate(922.119141 0)"/>
      <use xlink:href="#DejaVuSans-73" transform="translate(961.328125 0)"/>
     </g>
    </g>
    <g id="line2d_57">
     <path d="M 64.772054 69.632562 
L 74.772054 69.632562 
L 84.772054 69.632562 
" style="fill: none; stroke: #ff7f0e; stroke-width: 1.5; stroke-linecap: square"/>
    </g>
    <g id="text_16">
     <!-- Single Small Results -->
     <g transform="translate(92.772054 73.132562) scale(0.1 -0.1)">
      <use xlink:href="#DejaVuSans-53"/>
      <use xlink:href="#DejaVuSans-69" transform="translate(63.476562 0)"/>
      <use xlink:href="#DejaVuSans-6e" transform="translate(91.259766 0)"/>
      <use xlink:href="#DejaVuSans-67" transform="translate(154.638672 0)"/>
      <use xlink:href="#DejaVuSans-6c" transform="translate(218.115234 0)"/>
      <use xlink:href="#DejaVuSans-65" transform="translate(245.898438 0)"/>
      <use xlink:href="#DejaVuSans-20" transform="translate(307.421875 0)"/>
      <use xlink:href="#DejaVuSans-53" transform="translate(339.208984 0)"/>
      <use xlink:href="#DejaVuSans-6d" transform="translate(402.685547 0)"/>
      <use xlink:href="#DejaVuSans-61" transform="translate(500.097656 0)"/>
      <use xlink:href="#DejaVuSans-6c" transform="translate(561.376953 0)"/>
      <use xlink:href="#DejaVuSans-6c" transform="translate(589.160156 0)"/>
      <use xlink:href="#DejaVuSans-20" transform="translate(616.943359 0)"/>
      <use xlink:href="#DejaVuSans-52" transform="translate(648.730469 0)"/>
      <use xlink:href="#DejaVuSans-65" transform="translate(713.712891 0)"/>
      <use xlink:href="#DejaVuSans-73" transform="translate(775.236328 0)"/>
      <use xlink:href="#DejaVuSans-75" transform="translate(827.335938 0)"/>
      <use xlink:href="#DejaVuSans-6c" transform="translate(890.714844 0)"/>
      <use xlink:href="#DejaVuSans-74" transform="translate(918.498047 0)"/>
      <use xlink:href="#DejaVuSans-73" transform="translate(957.707031 0)"/>
     </g>
    </g>
    <g id="line2d_58">
     <path d="M 64.772054 84.310687 
L 74.772054 84.310687 
L 84.772054 84.310687 
" style="fill: none; stroke: #2ca02c; stroke-width: 1.5; stroke-linecap: square"/>
    </g>
    <g id="text_17">
     <!-- Multi Results -->
     <g transform="translate(92.772054 87.810687) scale(0.1 -0.1)">
      <use xlink:href="#DejaVuSans-4d"/>
      <use xlink:href="#DejaVuSans-75" transform="translate(86.279297 0)"/>
      <use xlink:href="#DejaVuSans-6c" transform="translate(149.658203 0)"/>
      <use xlink:href="#DejaVuSans-74" transform="translate(177.441406 0)"/>
      <use xlink:href="#DejaVuSans-69" transform="translate(216.650391 0)"/>
      <use xlink:href="#DejaVuSans-20" transform="translate(244.433594 0)"/>
      <use xlink:href="#DejaVuSans-52" transform="translate(276.220703 0)"/>
      <use xlink:href="#DejaVuSans-65" transform="translate(341.203125 0)"/>
      <use xlink:href="#DejaVuSans-73" transform="translate(402.726562 0)"/>
      <use xlink:href="#DejaVuSans-75" transform="translate(454.826172 0)"/>
      <use xlink:href="#DejaVuSans-6c" transform="translate(518.205078 0)"/>
      <use xlink:href="#DejaVuSans-74" transform="translate(545.988281 0)"/>
      <use xlink:href="#DejaVuSans-73" transform="translate(585.197266 0)"/>
     </g>
    </g>
   </g>
  </g>
 </g>
 <defs>
  <clipPath id="p08bfe1444b">
   <rect x="55.772054" y="41.856" width="797.427946" height="348.184"/>
  </clipPath>
 </defs>
</svg>
