<?xml version="1.0" encoding="utf-8" standalone="no"?>
<!DOCTYPE svg PUBLIC "-//W3C//DTD SVG 1.1//EN"
  "http://www.w3.org/Graphics/SVG/1.1/DTD/svg11.dtd">
<svg xmlns:xlink="http://www.w3.org/1999/xlink" width="864pt" height="432pt" viewBox="0 0 864 432" xmlns="http://www.w3.org/2000/svg" version="1.1">
 <metadata>
  <rdf:RDF xmlns:dc="http://purl.org/dc/elements/1.1/" xmlns:cc="http://creativecommons.org/ns#" xmlns:rdf="http://www.w3.org/1999/02/22-rdf-syntax-ns#">
   <cc:Work>
    <dc:type rdf:resource="http://purl.org/dc/dcmitype/StillImage"/>
    <dc:date>2025-05-31T16:14:33.221099</dc:date>
    <dc:format>image/svg+xml</dc:format>
    <dc:creator>
     <cc:Agent>
      <dc:title>Matplotlib v3.10.1, https://matplotlib.org/</dc:title>
     </cc:Agent>
    </dc:creator>
   </cc:Work>
  </rdf:RDF>
 </metadata>
 <defs>
  <style type="text/css">*{stroke-linejoin: round; stroke-linecap: butt}</style>
 </defs>
 <g id="figure_1">
  <g id="patch_1">
   <path d="M 0 432 
L 864 432 
L 864 0 
L 0 0 
z
" style="fill: #ffffff"/>
  </g>
  <g id="axes_1">
   <g id="patch_2">
    <path d="M 50.137685 390.04 
L 853.2 390.04 
L 853.2 41.856 
L 50.137685 41.856 
z
" style="fill: #ffffff"/>
   </g>
   <g id="matplotlib.axis_1">
    <g id="xtick_1">
     <g id="line2d_1">
      <defs>
       <path id="m314d27f39c" d="M 0 0 
L 0 3.5 
" style="stroke: #000000; stroke-width: 0.8"/>
      </defs>
      <g>
       <use xlink:href="#m314d27f39c" x="86.640517" y="390.04" style="stroke: #000000; stroke-width: 0.8"/>
      </g>
     </g>
     <g id="text_1">
      <!-- 0 -->
      <g transform="translate(83.459267 404.638438) scale(0.1 -0.1)">
       <defs>
        <path id="DejaVuSans-30" d="M 2034 4250 
Q 1547 4250 1301 3770 
Q 1056 3291 1056 2328 
Q 1056 1369 1301 889 
Q 1547 409 2034 409 
Q 2525 409 2770 889 
Q 3016 1369 3016 2328 
Q 3016 3291 2770 3770 
Q 2525 4250 2034 4250 
z
M 2034 4750 
Q 2819 4750 3233 4129 
Q 3647 3509 3647 2328 
Q 3647 1150 3233 529 
Q 2819 -91 2034 -91 
Q 1250 -91 836 529 
Q 422 1150 422 2328 
Q 422 3509 836 4129 
Q 1250 4750 2034 4750 
z
" transform="scale(0.015625)"/>
       </defs>
       <use xlink:href="#DejaVuSans-30"/>
      </g>
     </g>
    </g>
    <g id="xtick_2">
     <g id="line2d_2">
      <g>
       <use xlink:href="#m314d27f39c" x="232.678482" y="390.04" style="stroke: #000000; stroke-width: 0.8"/>
      </g>
     </g>
     <g id="text_2">
      <!-- 20 -->
      <g transform="translate(226.315982 404.638438) scale(0.1 -0.1)">
       <defs>
        <path id="DejaVuSans-32" d="M 1228 531 
L 3431 531 
L 3431 0 
L 469 0 
L 469 531 
Q 828 903 1448 1529 
Q 2069 2156 2228 2338 
Q 2531 2678 2651 2914 
Q 2772 3150 2772 3378 
Q 2772 3750 2511 3984 
Q 2250 4219 1831 4219 
Q 1534 4219 1204 4116 
Q 875 4013 500 3803 
L 500 4441 
Q 881 4594 1212 4672 
Q 1544 4750 1819 4750 
Q 2544 4750 2975 4387 
Q 3406 4025 3406 3419 
Q 3406 3131 3298 2873 
Q 3191 2616 2906 2266 
Q 2828 2175 2409 1742 
Q 1991 1309 1228 531 
z
" transform="scale(0.015625)"/>
       </defs>
       <use xlink:href="#DejaVuSans-32"/>
       <use xlink:href="#DejaVuSans-30" transform="translate(63.623047 0)"/>
      </g>
     </g>
    </g>
    <g id="xtick_3">
     <g id="line2d_3">
      <g>
       <use xlink:href="#m314d27f39c" x="378.716447" y="390.04" style="stroke: #000000; stroke-width: 0.8"/>
      </g>
     </g>
     <g id="text_3">
      <!-- 40 -->
      <g transform="translate(372.353947 404.638438) scale(0.1 -0.1)">
       <defs>
        <path id="DejaVuSans-34" d="M 2419 4116 
L 825 1625 
L 2419 1625 
L 2419 4116 
z
M 2253 4666 
L 3047 4666 
L 3047 1625 
L 3713 1625 
L 3713 1100 
L 3047 1100 
L 3047 0 
L 2419 0 
L 2419 1100 
L 313 1100 
L 313 1709 
L 2253 4666 
z
" transform="scale(0.015625)"/>
       </defs>
       <use xlink:href="#DejaVuSans-34"/>
       <use xlink:href="#DejaVuSans-30" transform="translate(63.623047 0)"/>
      </g>
     </g>
    </g>
    <g id="xtick_4">
     <g id="line2d_4">
      <g>
       <use xlink:href="#m314d27f39c" x="524.754411" y="390.04" style="stroke: #000000; stroke-width: 0.8"/>
      </g>
     </g>
     <g id="text_4">
      <!-- 60 -->
      <g transform="translate(518.391911 404.638438) scale(0.1 -0.1)">
       <defs>
        <path id="DejaVuSans-36" d="M 2113 2584 
Q 1688 2584 1439 2293 
Q 1191 2003 1191 1497 
Q 1191 994 1439 701 
Q 1688 409 2113 409 
Q 2538 409 2786 701 
Q 3034 994 3034 1497 
Q 3034 2003 2786 2293 
Q 2538 2584 2113 2584 
z
M 3366 4563 
L 3366 3988 
Q 3128 4100 2886 4159 
Q 2644 4219 2406 4219 
Q 1781 4219 1451 3797 
Q 1122 3375 1075 2522 
Q 1259 2794 1537 2939 
Q 1816 3084 2150 3084 
Q 2853 3084 3261 2657 
Q 3669 2231 3669 1497 
Q 3669 778 3244 343 
Q 2819 -91 2113 -91 
Q 1303 -91 875 529 
Q 447 1150 447 2328 
Q 447 3434 972 4092 
Q 1497 4750 2381 4750 
Q 2619 4750 2861 4703 
Q 3103 4656 3366 4563 
z
" transform="scale(0.015625)"/>
       </defs>
       <use xlink:href="#DejaVuSans-36"/>
       <use xlink:href="#DejaVuSans-30" transform="translate(63.623047 0)"/>
      </g>
     </g>
    </g>
    <g id="xtick_5">
     <g id="line2d_5">
      <g>
       <use xlink:href="#m314d27f39c" x="670.792376" y="390.04" style="stroke: #000000; stroke-width: 0.8"/>
      </g>
     </g>
     <g id="text_5">
      <!-- 80 -->
      <g transform="translate(664.429876 404.638438) scale(0.1 -0.1)">
       <defs>
        <path id="DejaVuSans-38" d="M 2034 2216 
Q 1584 2216 1326 1975 
Q 1069 1734 1069 1313 
Q 1069 891 1326 650 
Q 1584 409 2034 409 
Q 2484 409 2743 651 
Q 3003 894 3003 1313 
Q 3003 1734 2745 1975 
Q 2488 2216 2034 2216 
z
M 1403 2484 
Q 997 2584 770 2862 
Q 544 3141 544 3541 
Q 544 4100 942 4425 
Q 1341 4750 2034 4750 
Q 2731 4750 3128 4425 
Q 3525 4100 3525 3541 
Q 3525 3141 3298 2862 
Q 3072 2584 2669 2484 
Q 3125 2378 3379 2068 
Q 3634 1759 3634 1313 
Q 3634 634 3220 271 
Q 2806 -91 2034 -91 
Q 1263 -91 848 271 
Q 434 634 434 1313 
Q 434 1759 690 2068 
Q 947 2378 1403 2484 
z
M 1172 3481 
Q 1172 3119 1398 2916 
Q 1625 2713 2034 2713 
Q 2441 2713 2670 2916 
Q 2900 3119 2900 3481 
Q 2900 3844 2670 4047 
Q 2441 4250 2034 4250 
Q 1625 4250 1398 4047 
Q 1172 3844 1172 3481 
z
" transform="scale(0.015625)"/>
       </defs>
       <use xlink:href="#DejaVuSans-38"/>
       <use xlink:href="#DejaVuSans-30" transform="translate(63.623047 0)"/>
      </g>
     </g>
    </g>
    <g id="xtick_6">
     <g id="line2d_6">
      <g>
       <use xlink:href="#m314d27f39c" x="816.830341" y="390.04" style="stroke: #000000; stroke-width: 0.8"/>
      </g>
     </g>
     <g id="text_6">
      <!-- 100 -->
      <g transform="translate(807.286591 404.638438) scale(0.1 -0.1)">
       <defs>
        <path id="DejaVuSans-31" d="M 794 531 
L 1825 531 
L 1825 4091 
L 703 3866 
L 703 4441 
L 1819 4666 
L 2450 4666 
L 2450 531 
L 3481 531 
L 3481 0 
L 794 0 
L 794 531 
z
" transform="scale(0.015625)"/>
       </defs>
       <use xlink:href="#DejaVuSans-31"/>
       <use xlink:href="#DejaVuSans-30" transform="translate(63.623047 0)"/>
       <use xlink:href="#DejaVuSans-30" transform="translate(127.246094 0)"/>
      </g>
     </g>
    </g>
    <g id="text_7">
     <!-- Percentile (%) -->
     <g transform="translate(416.764936 418.316562) scale(0.1 -0.1)">
      <defs>
       <path id="DejaVuSans-50" d="M 1259 4147 
L 1259 2394 
L 2053 2394 
Q 2494 2394 2734 2622 
Q 2975 2850 2975 3272 
Q 2975 3691 2734 3919 
Q 2494 4147 2053 4147 
L 1259 4147 
z
M 628 4666 
L 2053 4666 
Q 2838 4666 3239 4311 
Q 3641 3956 3641 3272 
Q 3641 2581 3239 2228 
Q 2838 1875 2053 1875 
L 1259 1875 
L 1259 0 
L 628 0 
L 628 4666 
z
" transform="scale(0.015625)"/>
       <path id="DejaVuSans-65" d="M 3597 1894 
L 3597 1613 
L 953 1613 
Q 991 1019 1311 708 
Q 1631 397 2203 397 
Q 2534 397 2845 478 
Q 3156 559 3463 722 
L 3463 178 
Q 3153 47 2828 -22 
Q 2503 -91 2169 -91 
Q 1331 -91 842 396 
Q 353 884 353 1716 
Q 353 2575 817 3079 
Q 1281 3584 2069 3584 
Q 2775 3584 3186 3129 
Q 3597 2675 3597 1894 
z
M 3022 2063 
Q 3016 2534 2758 2815 
Q 2500 3097 2075 3097 
Q 1594 3097 1305 2825 
Q 1016 2553 972 2059 
L 3022 2063 
z
" transform="scale(0.015625)"/>
       <path id="DejaVuSans-72" d="M 2631 2963 
Q 2534 3019 2420 3045 
Q 2306 3072 2169 3072 
Q 1681 3072 1420 2755 
Q 1159 2438 1159 1844 
L 1159 0 
L 581 0 
L 581 3500 
L 1159 3500 
L 1159 2956 
Q 1341 3275 1631 3429 
Q 1922 3584 2338 3584 
Q 2397 3584 2469 3576 
Q 2541 3569 2628 3553 
L 2631 2963 
z
" transform="scale(0.015625)"/>
       <path id="DejaVuSans-63" d="M 3122 3366 
L 3122 2828 
Q 2878 2963 2633 3030 
Q 2388 3097 2138 3097 
Q 1578 3097 1268 2742 
Q 959 2388 959 1747 
Q 959 1106 1268 751 
Q 1578 397 2138 397 
Q 2388 397 2633 464 
Q 2878 531 3122 666 
L 3122 134 
Q 2881 22 2623 -34 
Q 2366 -91 2075 -91 
Q 1284 -91 818 406 
Q 353 903 353 1747 
Q 353 2603 823 3093 
Q 1294 3584 2113 3584 
Q 2378 3584 2631 3529 
Q 2884 3475 3122 3366 
z
" transform="scale(0.015625)"/>
       <path id="DejaVuSans-6e" d="M 3513 2113 
L 3513 0 
L 2938 0 
L 2938 2094 
Q 2938 2591 2744 2837 
Q 2550 3084 2163 3084 
Q 1697 3084 1428 2787 
Q 1159 2491 1159 1978 
L 1159 0 
L 581 0 
L 581 3500 
L 1159 3500 
L 1159 2956 
Q 1366 3272 1645 3428 
Q 1925 3584 2291 3584 
Q 2894 3584 3203 3211 
Q 3513 2838 3513 2113 
z
" transform="scale(0.015625)"/>
       <path id="DejaVuSans-74" d="M 1172 4494 
L 1172 3500 
L 2356 3500 
L 2356 3053 
L 1172 3053 
L 1172 1153 
Q 1172 725 1289 603 
Q 1406 481 1766 481 
L 2356 481 
L 2356 0 
L 1766 0 
Q 1100 0 847 248 
Q 594 497 594 1153 
L 594 3053 
L 172 3053 
L 172 3500 
L 594 3500 
L 594 4494 
L 1172 4494 
z
" transform="scale(0.015625)"/>
       <path id="DejaVuSans-69" d="M 603 3500 
L 1178 3500 
L 1178 0 
L 603 0 
L 603 3500 
z
M 603 4863 
L 1178 4863 
L 1178 4134 
L 603 4134 
L 603 4863 
z
" transform="scale(0.015625)"/>
       <path id="DejaVuSans-6c" d="M 603 4863 
L 1178 4863 
L 1178 0 
L 603 0 
L 603 4863 
z
" transform="scale(0.015625)"/>
       <path id="DejaVuSans-20" transform="scale(0.015625)"/>
       <path id="DejaVuSans-28" d="M 1984 4856 
Q 1566 4138 1362 3434 
Q 1159 2731 1159 2009 
Q 1159 1288 1364 580 
Q 1569 -128 1984 -844 
L 1484 -844 
Q 1016 -109 783 600 
Q 550 1309 550 2009 
Q 550 2706 781 3412 
Q 1013 4119 1484 4856 
L 1984 4856 
z
" transform="scale(0.015625)"/>
       <path id="DejaVuSans-25" d="M 4653 2053 
Q 4381 2053 4226 1822 
Q 4072 1591 4072 1178 
Q 4072 772 4226 539 
Q 4381 306 4653 306 
Q 4919 306 5073 539 
Q 5228 772 5228 1178 
Q 5228 1588 5073 1820 
Q 4919 2053 4653 2053 
z
M 4653 2450 
Q 5147 2450 5437 2106 
Q 5728 1763 5728 1178 
Q 5728 594 5436 251 
Q 5144 -91 4653 -91 
Q 4153 -91 3862 251 
Q 3572 594 3572 1178 
Q 3572 1766 3864 2108 
Q 4156 2450 4653 2450 
z
M 1428 4353 
Q 1159 4353 1004 4120 
Q 850 3888 850 3481 
Q 850 3069 1003 2837 
Q 1156 2606 1428 2606 
Q 1700 2606 1854 2837 
Q 2009 3069 2009 3481 
Q 2009 3884 1853 4118 
Q 1697 4353 1428 4353 
z
M 4250 4750 
L 4750 4750 
L 1831 -91 
L 1331 -91 
L 4250 4750 
z
M 1428 4750 
Q 1922 4750 2215 4408 
Q 2509 4066 2509 3481 
Q 2509 2891 2217 2550 
Q 1925 2209 1428 2209 
Q 931 2209 642 2551 
Q 353 2894 353 3481 
Q 353 4063 643 4406 
Q 934 4750 1428 4750 
z
" transform="scale(0.015625)"/>
       <path id="DejaVuSans-29" d="M 513 4856 
L 1013 4856 
Q 1481 4119 1714 3412 
Q 1947 2706 1947 2009 
Q 1947 1309 1714 600 
Q 1481 -109 1013 -844 
L 513 -844 
Q 928 -128 1133 580 
Q 1338 1288 1338 2009 
Q 1338 2731 1133 3434 
Q 928 4138 513 4856 
z
" transform="scale(0.015625)"/>
      </defs>
      <use xlink:href="#DejaVuSans-50"/>
      <use xlink:href="#DejaVuSans-65" transform="translate(56.677734 0)"/>
      <use xlink:href="#DejaVuSans-72" transform="translate(118.201172 0)"/>
      <use xlink:href="#DejaVuSans-63" transform="translate(157.064453 0)"/>
      <use xlink:href="#DejaVuSans-65" transform="translate(212.044922 0)"/>
      <use xlink:href="#DejaVuSans-6e" transform="translate(273.568359 0)"/>
      <use xlink:href="#DejaVuSans-74" transform="translate(336.947266 0)"/>
      <use xlink:href="#DejaVuSans-69" transform="translate(376.15625 0)"/>
      <use xlink:href="#DejaVuSans-6c" transform="translate(403.939453 0)"/>
      <use xlink:href="#DejaVuSans-65" transform="translate(431.722656 0)"/>
      <use xlink:href="#DejaVuSans-20" transform="translate(493.246094 0)"/>
      <use xlink:href="#DejaVuSans-28" transform="translate(525.033203 0)"/>
      <use xlink:href="#DejaVuSans-25" transform="translate(564.046875 0)"/>
      <use xlink:href="#DejaVuSans-29" transform="translate(659.066406 0)"/>
     </g>
    </g>
   </g>
   <g id="matplotlib.axis_2">
    <g id="ytick_1">
     <g id="line2d_7">
      <defs>
       <path id="m42976e3747" d="M 0 0 
L -3.5 0 
" style="stroke: #000000; stroke-width: 0.8"/>
      </defs>
      <g>
       <use xlink:href="#m42976e3747" x="50.137685" y="331.432359" style="stroke: #000000; stroke-width: 0.8"/>
      </g>
     </g>
     <g id="text_8">
      <!-- $\mathdefault{10^{0}}$ -->
      <g transform="translate(25.537685 335.231578) scale(0.1 -0.1)">
       <use xlink:href="#DejaVuSans-31" transform="translate(0 0.765625)"/>
       <use xlink:href="#DejaVuSans-30" transform="translate(63.623047 0.765625)"/>
       <use xlink:href="#DejaVuSans-30" transform="translate(128.203125 39.046875) scale(0.7)"/>
      </g>
     </g>
    </g>
    <g id="ytick_2">
     <g id="line2d_8">
      <g>
       <use xlink:href="#m42976e3747" x="50.137685" y="272.107641" style="stroke: #000000; stroke-width: 0.8"/>
      </g>
     </g>
     <g id="text_9">
      <!-- $\mathdefault{10^{1}}$ -->
      <g transform="translate(25.537685 275.90686) scale(0.1 -0.1)">
       <use xlink:href="#DejaVuSans-31" transform="translate(0 0.684375)"/>
       <use xlink:href="#DejaVuSans-30" transform="translate(63.623047 0.684375)"/>
       <use xlink:href="#DejaVuSans-31" transform="translate(128.203125 38.965625) scale(0.7)"/>
      </g>
     </g>
    </g>
    <g id="ytick_3">
     <g id="line2d_9">
      <g>
       <use xlink:href="#m42976e3747" x="50.137685" y="212.782923" style="stroke: #000000; stroke-width: 0.8"/>
      </g>
     </g>
     <g id="text_10">
      <!-- $\mathdefault{10^{2}}$ -->
      <g transform="translate(25.537685 216.582142) scale(0.1 -0.1)">
       <use xlink:href="#DejaVuSans-31" transform="translate(0 0.765625)"/>
       <use xlink:href="#DejaVuSans-30" transform="translate(63.623047 0.765625)"/>
       <use xlink:href="#DejaVuSans-32" transform="translate(128.203125 39.046875) scale(0.7)"/>
      </g>
     </g>
    </g>
    <g id="ytick_4">
     <g id="line2d_10">
      <g>
       <use xlink:href="#m42976e3747" x="50.137685" y="153.458206" style="stroke: #000000; stroke-width: 0.8"/>
      </g>
     </g>
     <g id="text_11">
      <!-- $\mathdefault{10^{3}}$ -->
      <g transform="translate(25.537685 157.257424) scale(0.1 -0.1)">
       <defs>
        <path id="DejaVuSans-33" d="M 2597 2516 
Q 3050 2419 3304 2112 
Q 3559 1806 3559 1356 
Q 3559 666 3084 287 
Q 2609 -91 1734 -91 
Q 1441 -91 1130 -33 
Q 819 25 488 141 
L 488 750 
Q 750 597 1062 519 
Q 1375 441 1716 441 
Q 2309 441 2620 675 
Q 2931 909 2931 1356 
Q 2931 1769 2642 2001 
Q 2353 2234 1838 2234 
L 1294 2234 
L 1294 2753 
L 1863 2753 
Q 2328 2753 2575 2939 
Q 2822 3125 2822 3475 
Q 2822 3834 2567 4026 
Q 2313 4219 1838 4219 
Q 1578 4219 1281 4162 
Q 984 4106 628 3988 
L 628 4550 
Q 988 4650 1302 4700 
Q 1616 4750 1894 4750 
Q 2613 4750 3031 4423 
Q 3450 4097 3450 3541 
Q 3450 3153 3228 2886 
Q 3006 2619 2597 2516 
z
" transform="scale(0.015625)"/>
       </defs>
       <use xlink:href="#DejaVuSans-31" transform="translate(0 0.765625)"/>
       <use xlink:href="#DejaVuSans-30" transform="translate(63.623047 0.765625)"/>
       <use xlink:href="#DejaVuSans-33" transform="translate(128.203125 39.046875) scale(0.7)"/>
      </g>
     </g>
    </g>
    <g id="ytick_5">
     <g id="line2d_11">
      <g>
       <use xlink:href="#m42976e3747" x="50.137685" y="94.133488" style="stroke: #000000; stroke-width: 0.8"/>
      </g>
     </g>
     <g id="text_12">
      <!-- $\mathdefault{10^{4}}$ -->
      <g transform="translate(25.537685 97.932707) scale(0.1 -0.1)">
       <use xlink:href="#DejaVuSans-31" transform="translate(0 0.684375)"/>
       <use xlink:href="#DejaVuSans-30" transform="translate(63.623047 0.684375)"/>
       <use xlink:href="#DejaVuSans-34" transform="translate(128.203125 38.965625) scale(0.7)"/>
      </g>
     </g>
    </g>
    <g id="ytick_6">
     <g id="line2d_12">
      <defs>
       <path id="mbf8fd95fa7" d="M 0 0 
L -2 0 
" style="stroke: #000000; stroke-width: 0.6"/>
      </defs>
      <g>
       <use xlink:href="#mbf8fd95fa7" x="50.137685" y="372.898557" style="stroke: #000000; stroke-width: 0.6"/>
      </g>
     </g>
    </g>
    <g id="ytick_7">
     <g id="line2d_13">
      <g>
       <use xlink:href="#mbf8fd95fa7" x="50.137685" y="362.451993" style="stroke: #000000; stroke-width: 0.6"/>
      </g>
     </g>
    </g>
    <g id="ytick_8">
     <g id="line2d_14">
      <g>
       <use xlink:href="#mbf8fd95fa7" x="50.137685" y="355.040038" style="stroke: #000000; stroke-width: 0.6"/>
      </g>
     </g>
    </g>
    <g id="ytick_9">
     <g id="line2d_15">
      <g>
       <use xlink:href="#mbf8fd95fa7" x="50.137685" y="349.290879" style="stroke: #000000; stroke-width: 0.6"/>
      </g>
     </g>
    </g>
    <g id="ytick_10">
     <g id="line2d_16">
      <g>
       <use xlink:href="#mbf8fd95fa7" x="50.137685" y="344.593474" style="stroke: #000000; stroke-width: 0.6"/>
      </g>
     </g>
    </g>
    <g id="ytick_11">
     <g id="line2d_17">
      <g>
       <use xlink:href="#mbf8fd95fa7" x="50.137685" y="340.621874" style="stroke: #000000; stroke-width: 0.6"/>
      </g>
     </g>
    </g>
    <g id="ytick_12">
     <g id="line2d_18">
      <g>
       <use xlink:href="#mbf8fd95fa7" x="50.137685" y="337.181518" style="stroke: #000000; stroke-width: 0.6"/>
      </g>
     </g>
    </g>
    <g id="ytick_13">
     <g id="line2d_19">
      <g>
       <use xlink:href="#mbf8fd95fa7" x="50.137685" y="334.146909" style="stroke: #000000; stroke-width: 0.6"/>
      </g>
     </g>
    </g>
    <g id="ytick_14">
     <g id="line2d_20">
      <g>
       <use xlink:href="#mbf8fd95fa7" x="50.137685" y="313.57384" style="stroke: #000000; stroke-width: 0.6"/>
      </g>
     </g>
    </g>
    <g id="ytick_15">
     <g id="line2d_21">
      <g>
       <use xlink:href="#mbf8fd95fa7" x="50.137685" y="303.127275" style="stroke: #000000; stroke-width: 0.6"/>
      </g>
     </g>
    </g>
    <g id="ytick_16">
     <g id="line2d_22">
      <g>
       <use xlink:href="#mbf8fd95fa7" x="50.137685" y="295.71532" style="stroke: #000000; stroke-width: 0.6"/>
      </g>
     </g>
    </g>
    <g id="ytick_17">
     <g id="line2d_23">
      <g>
       <use xlink:href="#mbf8fd95fa7" x="50.137685" y="289.966161" style="stroke: #000000; stroke-width: 0.6"/>
      </g>
     </g>
    </g>
    <g id="ytick_18">
     <g id="line2d_24">
      <g>
       <use xlink:href="#mbf8fd95fa7" x="50.137685" y="285.268756" style="stroke: #000000; stroke-width: 0.6"/>
      </g>
     </g>
    </g>
    <g id="ytick_19">
     <g id="line2d_25">
      <g>
       <use xlink:href="#mbf8fd95fa7" x="50.137685" y="281.297156" style="stroke: #000000; stroke-width: 0.6"/>
      </g>
     </g>
    </g>
    <g id="ytick_20">
     <g id="line2d_26">
      <g>
       <use xlink:href="#mbf8fd95fa7" x="50.137685" y="277.8568" style="stroke: #000000; stroke-width: 0.6"/>
      </g>
     </g>
    </g>
    <g id="ytick_21">
     <g id="line2d_27">
      <g>
       <use xlink:href="#mbf8fd95fa7" x="50.137685" y="274.822192" style="stroke: #000000; stroke-width: 0.6"/>
      </g>
     </g>
    </g>
    <g id="ytick_22">
     <g id="line2d_28">
      <g>
       <use xlink:href="#mbf8fd95fa7" x="50.137685" y="254.249122" style="stroke: #000000; stroke-width: 0.6"/>
      </g>
     </g>
    </g>
    <g id="ytick_23">
     <g id="line2d_29">
      <g>
       <use xlink:href="#mbf8fd95fa7" x="50.137685" y="243.802558" style="stroke: #000000; stroke-width: 0.6"/>
      </g>
     </g>
    </g>
    <g id="ytick_24">
     <g id="line2d_30">
      <g>
       <use xlink:href="#mbf8fd95fa7" x="50.137685" y="236.390602" style="stroke: #000000; stroke-width: 0.6"/>
      </g>
     </g>
    </g>
    <g id="ytick_25">
     <g id="line2d_31">
      <g>
       <use xlink:href="#mbf8fd95fa7" x="50.137685" y="230.641443" style="stroke: #000000; stroke-width: 0.6"/>
      </g>
     </g>
    </g>
    <g id="ytick_26">
     <g id="line2d_32">
      <g>
       <use xlink:href="#mbf8fd95fa7" x="50.137685" y="225.944038" style="stroke: #000000; stroke-width: 0.6"/>
      </g>
     </g>
    </g>
    <g id="ytick_27">
     <g id="line2d_33">
      <g>
       <use xlink:href="#mbf8fd95fa7" x="50.137685" y="221.972439" style="stroke: #000000; stroke-width: 0.6"/>
      </g>
     </g>
    </g>
    <g id="ytick_28">
     <g id="line2d_34">
      <g>
       <use xlink:href="#mbf8fd95fa7" x="50.137685" y="218.532083" style="stroke: #000000; stroke-width: 0.6"/>
      </g>
     </g>
    </g>
    <g id="ytick_29">
     <g id="line2d_35">
      <g>
       <use xlink:href="#mbf8fd95fa7" x="50.137685" y="215.497474" style="stroke: #000000; stroke-width: 0.6"/>
      </g>
     </g>
    </g>
    <g id="ytick_30">
     <g id="line2d_36">
      <g>
       <use xlink:href="#mbf8fd95fa7" x="50.137685" y="194.924404" style="stroke: #000000; stroke-width: 0.6"/>
      </g>
     </g>
    </g>
    <g id="ytick_31">
     <g id="line2d_37">
      <g>
       <use xlink:href="#mbf8fd95fa7" x="50.137685" y="184.47784" style="stroke: #000000; stroke-width: 0.6"/>
      </g>
     </g>
    </g>
    <g id="ytick_32">
     <g id="line2d_38">
      <g>
       <use xlink:href="#mbf8fd95fa7" x="50.137685" y="177.065884" style="stroke: #000000; stroke-width: 0.6"/>
      </g>
     </g>
    </g>
    <g id="ytick_33">
     <g id="line2d_39">
      <g>
       <use xlink:href="#mbf8fd95fa7" x="50.137685" y="171.316725" style="stroke: #000000; stroke-width: 0.6"/>
      </g>
     </g>
    </g>
    <g id="ytick_34">
     <g id="line2d_40">
      <g>
       <use xlink:href="#mbf8fd95fa7" x="50.137685" y="166.61932" style="stroke: #000000; stroke-width: 0.6"/>
      </g>
     </g>
    </g>
    <g id="ytick_35">
     <g id="line2d_41">
      <g>
       <use xlink:href="#mbf8fd95fa7" x="50.137685" y="162.647721" style="stroke: #000000; stroke-width: 0.6"/>
      </g>
     </g>
    </g>
    <g id="ytick_36">
     <g id="line2d_42">
      <g>
       <use xlink:href="#mbf8fd95fa7" x="50.137685" y="159.207365" style="stroke: #000000; stroke-width: 0.6"/>
      </g>
     </g>
    </g>
    <g id="ytick_37">
     <g id="line2d_43">
      <g>
       <use xlink:href="#mbf8fd95fa7" x="50.137685" y="156.172756" style="stroke: #000000; stroke-width: 0.6"/>
      </g>
     </g>
    </g>
    <g id="ytick_38">
     <g id="line2d_44">
      <g>
       <use xlink:href="#mbf8fd95fa7" x="50.137685" y="135.599686" style="stroke: #000000; stroke-width: 0.6"/>
      </g>
     </g>
    </g>
    <g id="ytick_39">
     <g id="line2d_45">
      <g>
       <use xlink:href="#mbf8fd95fa7" x="50.137685" y="125.153122" style="stroke: #000000; stroke-width: 0.6"/>
      </g>
     </g>
    </g>
    <g id="ytick_40">
     <g id="line2d_46">
      <g>
       <use xlink:href="#mbf8fd95fa7" x="50.137685" y="117.741167" style="stroke: #000000; stroke-width: 0.6"/>
      </g>
     </g>
    </g>
    <g id="ytick_41">
     <g id="line2d_47">
      <g>
       <use xlink:href="#mbf8fd95fa7" x="50.137685" y="111.992007" style="stroke: #000000; stroke-width: 0.6"/>
      </g>
     </g>
    </g>
    <g id="ytick_42">
     <g id="line2d_48">
      <g>
       <use xlink:href="#mbf8fd95fa7" x="50.137685" y="107.294602" style="stroke: #000000; stroke-width: 0.6"/>
      </g>
     </g>
    </g>
    <g id="ytick_43">
     <g id="line2d_49">
      <g>
       <use xlink:href="#mbf8fd95fa7" x="50.137685" y="103.323003" style="stroke: #000000; stroke-width: 0.6"/>
      </g>
     </g>
    </g>
    <g id="ytick_44">
     <g id="line2d_50">
      <g>
       <use xlink:href="#mbf8fd95fa7" x="50.137685" y="99.882647" style="stroke: #000000; stroke-width: 0.6"/>
      </g>
     </g>
    </g>
    <g id="ytick_45">
     <g id="line2d_51">
      <g>
       <use xlink:href="#mbf8fd95fa7" x="50.137685" y="96.848038" style="stroke: #000000; stroke-width: 0.6"/>
      </g>
     </g>
    </g>
    <g id="ytick_46">
     <g id="line2d_52">
      <g>
       <use xlink:href="#mbf8fd95fa7" x="50.137685" y="76.274968" style="stroke: #000000; stroke-width: 0.6"/>
      </g>
     </g>
    </g>
    <g id="ytick_47">
     <g id="line2d_53">
      <g>
       <use xlink:href="#mbf8fd95fa7" x="50.137685" y="65.828404" style="stroke: #000000; stroke-width: 0.6"/>
      </g>
     </g>
    </g>
    <g id="ytick_48">
     <g id="line2d_54">
      <g>
       <use xlink:href="#mbf8fd95fa7" x="50.137685" y="58.416449" style="stroke: #000000; stroke-width: 0.6"/>
      </g>
     </g>
    </g>
    <g id="ytick_49">
     <g id="line2d_55">
      <g>
       <use xlink:href="#mbf8fd95fa7" x="50.137685" y="52.66729" style="stroke: #000000; stroke-width: 0.6"/>
      </g>
     </g>
    </g>
    <g id="ytick_50">
     <g id="line2d_56">
      <g>
       <use xlink:href="#mbf8fd95fa7" x="50.137685" y="47.969885" style="stroke: #000000; stroke-width: 0.6"/>
      </g>
     </g>
    </g>
    <g id="ytick_51">
     <g id="line2d_57">
      <g>
       <use xlink:href="#mbf8fd95fa7" x="50.137685" y="43.998285" style="stroke: #000000; stroke-width: 0.6"/>
      </g>
     </g>
    </g>
    <g id="text_13">
     <!-- Duration (ms) -->
     <g transform="translate(19.457997 250.62925) rotate(-90) scale(0.1 -0.1)">
      <defs>
       <path id="DejaVuSans-44" d="M 1259 4147 
L 1259 519 
L 2022 519 
Q 2988 519 3436 956 
Q 3884 1394 3884 2338 
Q 3884 3275 3436 3711 
Q 2988 4147 2022 4147 
L 1259 4147 
z
M 628 4666 
L 1925 4666 
Q 3281 4666 3915 4102 
Q 4550 3538 4550 2338 
Q 4550 1131 3912 565 
Q 3275 0 1925 0 
L 628 0 
L 628 4666 
z
" transform="scale(0.015625)"/>
       <path id="DejaVuSans-75" d="M 544 1381 
L 544 3500 
L 1119 3500 
L 1119 1403 
Q 1119 906 1312 657 
Q 1506 409 1894 409 
Q 2359 409 2629 706 
Q 2900 1003 2900 1516 
L 2900 3500 
L 3475 3500 
L 3475 0 
L 2900 0 
L 2900 538 
Q 2691 219 2414 64 
Q 2138 -91 1772 -91 
Q 1169 -91 856 284 
Q 544 659 544 1381 
z
M 1991 3584 
L 1991 3584 
z
" transform="scale(0.015625)"/>
       <path id="DejaVuSans-61" d="M 2194 1759 
Q 1497 1759 1228 1600 
Q 959 1441 959 1056 
Q 959 750 1161 570 
Q 1363 391 1709 391 
Q 2188 391 2477 730 
Q 2766 1069 2766 1631 
L 2766 1759 
L 2194 1759 
z
M 3341 1997 
L 3341 0 
L 2766 0 
L 2766 531 
Q 2569 213 2275 61 
Q 1981 -91 1556 -91 
Q 1019 -91 701 211 
Q 384 513 384 1019 
Q 384 1609 779 1909 
Q 1175 2209 1959 2209 
L 2766 2209 
L 2766 2266 
Q 2766 2663 2505 2880 
Q 2244 3097 1772 3097 
Q 1472 3097 1187 3025 
Q 903 2953 641 2809 
L 641 3341 
Q 956 3463 1253 3523 
Q 1550 3584 1831 3584 
Q 2591 3584 2966 3190 
Q 3341 2797 3341 1997 
z
" transform="scale(0.015625)"/>
       <path id="DejaVuSans-6f" d="M 1959 3097 
Q 1497 3097 1228 2736 
Q 959 2375 959 1747 
Q 959 1119 1226 758 
Q 1494 397 1959 397 
Q 2419 397 2687 759 
Q 2956 1122 2956 1747 
Q 2956 2369 2687 2733 
Q 2419 3097 1959 3097 
z
M 1959 3584 
Q 2709 3584 3137 3096 
Q 3566 2609 3566 1747 
Q 3566 888 3137 398 
Q 2709 -91 1959 -91 
Q 1206 -91 779 398 
Q 353 888 353 1747 
Q 353 2609 779 3096 
Q 1206 3584 1959 3584 
z
" transform="scale(0.015625)"/>
       <path id="DejaVuSans-6d" d="M 3328 2828 
Q 3544 3216 3844 3400 
Q 4144 3584 4550 3584 
Q 5097 3584 5394 3201 
Q 5691 2819 5691 2113 
L 5691 0 
L 5113 0 
L 5113 2094 
Q 5113 2597 4934 2840 
Q 4756 3084 4391 3084 
Q 3944 3084 3684 2787 
Q 3425 2491 3425 1978 
L 3425 0 
L 2847 0 
L 2847 2094 
Q 2847 2600 2669 2842 
Q 2491 3084 2119 3084 
Q 1678 3084 1418 2786 
Q 1159 2488 1159 1978 
L 1159 0 
L 581 0 
L 581 3500 
L 1159 3500 
L 1159 2956 
Q 1356 3278 1631 3431 
Q 1906 3584 2284 3584 
Q 2666 3584 2933 3390 
Q 3200 3197 3328 2828 
z
" transform="scale(0.015625)"/>
       <path id="DejaVuSans-73" d="M 2834 3397 
L 2834 2853 
Q 2591 2978 2328 3040 
Q 2066 3103 1784 3103 
Q 1356 3103 1142 2972 
Q 928 2841 928 2578 
Q 928 2378 1081 2264 
Q 1234 2150 1697 2047 
L 1894 2003 
Q 2506 1872 2764 1633 
Q 3022 1394 3022 966 
Q 3022 478 2636 193 
Q 2250 -91 1575 -91 
Q 1294 -91 989 -36 
Q 684 19 347 128 
L 347 722 
Q 666 556 975 473 
Q 1284 391 1588 391 
Q 1994 391 2212 530 
Q 2431 669 2431 922 
Q 2431 1156 2273 1281 
Q 2116 1406 1581 1522 
L 1381 1569 
Q 847 1681 609 1914 
Q 372 2147 372 2553 
Q 372 3047 722 3315 
Q 1072 3584 1716 3584 
Q 2034 3584 2315 3537 
Q 2597 3491 2834 3397 
z
" transform="scale(0.015625)"/>
      </defs>
      <use xlink:href="#DejaVuSans-44"/>
      <use xlink:href="#DejaVuSans-75" transform="translate(77.001953 0)"/>
      <use xlink:href="#DejaVuSans-72" transform="translate(140.380859 0)"/>
      <use xlink:href="#DejaVuSans-61" transform="translate(181.494141 0)"/>
      <use xlink:href="#DejaVuSans-74" transform="translate(242.773438 0)"/>
      <use xlink:href="#DejaVuSans-69" transform="translate(281.982422 0)"/>
      <use xlink:href="#DejaVuSans-6f" transform="translate(309.765625 0)"/>
      <use xlink:href="#DejaVuSans-6e" transform="translate(370.947266 0)"/>
      <use xlink:href="#DejaVuSans-20" transform="translate(434.326172 0)"/>
      <use xlink:href="#DejaVuSans-28" transform="translate(466.113281 0)"/>
      <use xlink:href="#DejaVuSans-6d" transform="translate(505.126953 0)"/>
      <use xlink:href="#DejaVuSans-73" transform="translate(602.539062 0)"/>
      <use xlink:href="#DejaVuSans-29" transform="translate(654.638672 0)"/>
     </g>
    </g>
   </g>
   <g id="line2d_58">
    <path d="M 86.640517 338.026912 
L 86.901672 336.858883 
L 87.162828 336.819984 
L 87.423983 336.584539 
L 88.468603 336.382335 
L 88.990914 335.980445 
L 89.252069 335.889649 
L 89.513224 335.4589 
L 90.557845 335.242835 
L 91.34131 335.113876 
L 92.385931 334.946935 
L 93.430551 334.720844 
L 93.691707 334.523344 
L 98.91481 333.767883 
L 100.742896 333.405836 
L 123.985705 331.2366 
L 125.813791 330.967916 
L 126.858412 330.846565 
L 128.164188 330.701004 
L 128.686498 330.691865 
L 129.208808 330.564754 
L 131.559205 330.325327 
L 133.648446 329.934839 
L 135.215377 329.809053 
L 136.259997 329.639956 
L 140.96079 329.212775 
L 141.483101 329.030935 
L 144.355807 328.809404 
L 144.878118 328.675875 
L 145.922738 328.530785 
L 146.706204 328.426485 
L 147.489669 328.350616 
L 148.01198 328.242487 
L 152.973928 327.957042 
L 155.585479 327.802391 
L 159.241651 327.607408 
L 159.763962 327.518411 
L 161.592048 327.416556 
L 163.681289 327.141508 
L 165.77053 326.834813 
L 167.337461 326.557108 
L 170.210168 326.287323 
L 170.993634 326.217217 
L 172.038254 326.094072 
L 172.560564 325.98029 
L 174.127495 325.703263 
L 177.522512 325.406232 
L 178.044823 325.266099 
L 178.567133 325.163017 
L 179.350599 325.036113 
L 181.96215 324.70336 
L 183.529081 324.540947 
L 185.357167 324.218207 
L 186.140633 324.109587 
L 186.924098 323.964086 
L 189.013339 323.633445 
L 189.796805 323.273745 
L 190.841426 323.132784 
L 192.147201 322.957297 
L 193.452977 322.492145 
L 193.714132 321.891518 
L 194.236443 321.683249 
L 194.497598 321.66469 
L 194.758753 321.377473 
L 197.109149 320.630424 
L 198.15377 320.318254 
L 198.414925 320.039788 
L 199.459546 319.917557 
L 199.720701 319.703207 
L 199.981856 319.683114 
L 200.504166 318.743867 
L 201.548787 318.331351 
L 202.593408 318.051476 
L 202.854563 317.793814 
L 203.115718 317.702714 
L 203.376873 317.129791 
L 203.638028 317.123876 
L 203.899184 316.697263 
L 204.160339 316.546275 
L 204.421494 316.542849 
L 205.466114 315.700114 
L 205.72727 315.128556 
L 205.988425 313.480343 
L 206.510735 312.621178 
L 207.033045 312.46234 
L 207.294201 311.973053 
L 208.077666 311.738406 
L 208.338821 308.654957 
L 208.599976 307.387307 
L 208.861132 307.338869 
L 209.905752 299.165557 
L 210.166907 297.902385 
L 210.689218 292.256443 
L 210.950373 290.960846 
L 211.211528 288.021418 
L 211.472683 287.822832 
L 211.733838 287.777026 
L 211.994993 287.179881 
L 212.517304 281.477393 
L 212.778459 281.233406 
L 213.039614 280.081275 
L 213.300769 278.122824 
L 213.82308 277.102556 
L 214.084235 275.586292 
L 214.34539 271.99198 
L 214.606545 271.807364 
L 215.39001 265.759158 
L 216.173476 262.027108 
L 216.695786 261.313549 
L 216.956941 260.977623 
L 217.218097 259.938288 
L 217.479252 257.924619 
L 217.740407 257.679632 
L 218.001562 256.073833 
L 218.262717 255.481543 
L 218.523872 255.447563 
L 219.568493 252.947867 
L 219.829648 251.62399 
L 220.090803 251.523035 
L 220.351959 250.850713 
L 220.613114 249.393893 
L 220.874269 248.6125 
L 221.135424 248.318573 
L 221.396579 247.416484 
L 221.657734 245.468273 
L 221.918889 245.402111 
L 222.702355 244.003923 
L 222.96351 243.266389 
L 223.224665 242.99729 
L 223.48582 242.299086 
L 224.530441 241.948894 
L 225.575062 240.18577 
L 225.836217 239.660982 
L 226.097372 239.641902 
L 227.403148 239.00841 
L 227.664303 238.455533 
L 227.925458 237.012415 
L 228.708924 235.939901 
L 229.231234 235.607872 
L 229.492389 234.521473 
L 229.753544 234.432381 
L 230.275855 233.616517 
L 230.53701 232.963809 
L 230.798165 232.843593 
L 231.05932 232.129241 
L 231.320475 223.570992 
L 231.58163 188.641907 
L 232.103941 186.384466 
L 232.365096 186.303413 
L 232.626251 185.340413 
L 232.887406 185.200836 
L 233.148561 184.494305 
L 233.409716 183.405703 
L 233.932027 182.889365 
L 234.193182 181.99084 
L 234.454337 181.814989 
L 234.715492 180.802401 
L 234.976647 180.685983 
L 235.237803 180.220338 
L 235.760113 179.868043 
L 236.021268 178.905128 
L 236.282423 178.870625 
L 236.804734 178.265968 
L 237.588199 178.045765 
L 237.849354 177.690511 
L 238.893975 177.401316 
L 239.416285 176.98686 
L 239.938595 176.483031 
L 241.505526 175.9667 
L 241.766682 175.581823 
L 242.027837 175.558492 
L 242.550147 175.372965 
L 242.811302 175.293354 
L 243.072457 174.764838 
L 243.855923 174.592936 
L 244.117078 174.381867 
L 245.161699 174.328836 
L 245.422854 174.22026 
L 245.945164 173.632135 
L 246.206319 173.523111 
L 246.467474 173.236806 
L 248.034405 172.796069 
L 248.29556 172.462191 
L 248.817871 172.431267 
L 249.862491 172.02469 
L 250.123647 171.998702 
L 250.384802 171.779578 
L 250.645957 171.763611 
L 251.168267 171.429404 
L 252.474043 170.427824 
L 252.735198 170.405871 
L 253.257509 170.179277 
L 253.779819 170.068496 
L 254.563284 169.866533 
L 254.824439 169.574751 
L 255.34675 169.409298 
L 256.130215 169.216594 
L 256.913681 169.023972 
L 257.435991 168.438202 
L 257.958301 168.408219 
L 258.219457 167.591188 
L 258.480612 167.468311 
L 258.741767 167.186757 
L 259.786387 166.899085 
L 260.047543 166.501865 
L 260.569853 166.343843 
L 261.092163 165.255474 
L 261.353318 165.248663 
L 261.614474 164.23798 
L 261.875629 164.191345 
L 262.136784 163.931786 
L 262.397939 163.338099 
L 262.659094 163.063485 
L 263.181405 162.849278 
L 263.44256 162.771384 
L 263.703715 161.888218 
L 263.96487 161.563605 
L 264.226025 160.438553 
L 264.48718 160.223484 
L 265.009491 151.291767 
L 265.270646 150.84743 
L 265.531801 148.096066 
L 265.792956 146.911075 
L 266.315266 139.420089 
L 266.576422 138.385881 
L 266.837577 133.564108 
L 267.359887 131.68073 
L 267.621042 131.183735 
L 267.882197 130.984725 
L 268.143353 129.891483 
L 268.665663 129.011914 
L 268.926818 126.76547 
L 269.187973 126.741038 
L 269.449128 126.582337 
L 269.971439 123.689878 
L 270.232594 121.622685 
L 270.493749 121.279345 
L 270.754904 121.255417 
L 271.016059 118.936554 
L 271.277214 118.37104 
L 271.53837 118.312538 
L 273.105301 115.304961 
L 273.366456 115.228889 
L 273.627611 115.005626 
L 273.888766 114.487394 
L 274.149921 114.351987 
L 274.411076 113.651108 
L 274.672232 113.449474 
L 274.933387 112.981532 
L 275.194542 112.775574 
L 275.455697 111.577316 
L 275.716852 111.316852 
L 276.500318 111.148715 
L 276.761473 110.90007 
L 277.022628 109.517702 
L 277.283783 109.220316 
L 277.806093 108.112463 
L 278.328404 107.940465 
L 278.850714 107.667163 
L 279.63418 107.096002 
L 280.6788 106.810993 
L 280.939955 106.157024 
L 281.462266 105.837947 
L 281.723421 105.673332 
L 281.984576 105.666214 
L 282.245731 105.277052 
L 282.506886 105.229223 
L 282.768041 104.557514 
L 283.290352 104.314406 
L 284.334972 104.065772 
L 284.596128 103.729159 
L 284.857283 103.12022 
L 285.379593 102.960136 
L 285.901903 102.402142 
L 286.424214 102.221645 
L 287.468834 101.649653 
L 288.2523 101.283337 
L 288.513455 101.261305 
L 289.035765 100.990108 
L 289.29692 100.983985 
L 289.558076 100.399585 
L 290.080386 100.209857 
L 291.386162 100.060819 
L 291.647317 99.667378 
L 293.475403 99.293403 
L 295.303489 98.91672 
L 295.564644 98.597373 
L 295.825799 98.483462 
L 296.086955 98.225782 
L 297.131575 98.036472 
L 298.959661 97.887381 
L 300.265437 97.65399 
L 301.048903 97.538374 
L 302.876989 97.30149 
L 307.577782 97.019952 
L 310.711643 96.893536 
L 311.233954 96.817335 
L 313.06204 96.712879 
L 313.845505 96.66219 
L 316.718212 96.538511 
L 350.407228 95.242974 
L 354.58571 95.128206 
L 363.464985 94.809233 
L 370.25502 94.572657 
L 375.739278 94.458399 
L 377.306209 94.406352 
L 383.312778 94.184114 
L 384.096243 94.118012 
L 398.982087 93.665394 
L 405.249811 93.55702 
L 410.472914 93.478084 
L 413.345621 93.351136 
L 414.912552 93.325802 
L 419.613345 93.130818 
L 430.059551 92.780513 
L 432.932258 92.674332 
L 434.238033 92.61658 
L 437.894206 92.312516 
L 438.938826 92.245904 
L 440.505757 91.906277 
L 441.550378 91.637951 
L 442.072688 91.444133 
L 443.117309 90.810331 
L 443.378464 90.783843 
L 444.161929 90.084031 
L 444.945395 89.876421 
L 445.72886 89.857395 
L 445.990016 89.723218 
L 446.251171 89.211544 
L 446.773481 88.962403 
L 447.295791 88.947671 
L 447.818102 88.538965 
L 448.340412 88.324569 
L 448.862722 87.939975 
L 450.429653 87.78796 
L 450.951964 87.654047 
L 451.474274 87.492632 
L 451.735429 87.374893 
L 451.996584 87.024947 
L 452.78005 86.675497 
L 453.30236 86.566792 
L 453.563515 86.565282 
L 454.346981 86.099941 
L 455.391601 85.695343 
L 458.786618 85.544064 
L 459.570084 85.473114 
L 466.621273 85.264144 
L 468.710514 85.103334 
L 470.799756 84.971251 
L 473.150152 84.739039 
L 473.672462 84.540596 
L 475.761704 84.366009 
L 476.545169 84.301884 
L 484.379824 83.790386 
L 484.902134 83.726473 
L 487.513686 83.648206 
L 487.774841 83.47213 
L 490.908703 83.136491 
L 491.692168 82.967421 
L 492.214479 82.859998 
L 492.997944 82.73144 
L 494.82603 82.63312 
L 497.176427 82.482754 
L 499.526823 82.361525 
L 500.310289 82.274929 
L 502.138375 82.235681 
L 504.227616 82.094176 
L 505.533392 82.004351 
L 511.01765 81.8942 
L 517.546529 81.676624 
L 528.515046 81.48041 
L 538.961252 81.406835 
L 726.470656 80.792147 
L 729.865673 80.762715 
L 743.445741 80.558874 
L 744.229207 80.405027 
L 744.751517 80.139318 
L 745.012672 80.076814 
L 745.273827 79.889936 
L 745.534983 79.889481 
L 745.796138 79.736698 
L 746.057293 79.411909 
L 746.579603 79.313889 
L 747.624224 79.222814 
L 751.019241 78.871887 
L 751.280396 78.725434 
L 752.586172 78.597685 
L 753.369637 78.144389 
L 753.630793 77.86161 
L 754.414258 77.844621 
L 754.675413 77.676186 
L 754.936568 77.672713 
L 756.764654 76.750987 
L 757.286965 76.328992 
L 757.54812 76.319211 
L 757.809275 76.166516 
L 758.592741 76.040619 
L 759.376206 75.993234 
L 760.159671 75.98575 
L 761.465447 75.342069 
L 761.726602 75.051134 
L 762.510068 74.911397 
L 763.554689 74.749685 
L 765.64393 74.613391 
L 766.16624 74.540667 
L 766.949706 74.470432 
L 767.733171 74.411079 
L 767.994326 74.402633 
L 768.255481 74.237821 
L 768.516637 74.219404 
L 768.777792 73.909372 
L 769.561257 73.873111 
L 770.083568 73.738789 
L 771.911654 73.591434 
L 772.956274 73.454731 
L 773.478585 73.273268 
L 774.523205 73.216992 
L 774.78436 73.004036 
L 778.701688 72.498677 
L 783.924791 72.167568 
L 786.797498 72.075033 
L 789.670204 71.555228 
L 790.45367 71.147138 
L 792.281756 71.04258 
L 794.109842 70.993117 
L 796.982549 70.911041 
L 797.766014 70.818968 
L 805.600669 70.47947 
L 806.64529 70.438809 
L 811.084927 70.298014 
L 813.174169 70.147121 
L 815.26341 70.018781 
L 815.78572 69.667947 
L 816.569186 69.476518 
L 816.569186 69.476518 
" clip-path="url(#p4a5183c3d4)" style="fill: none; stroke: #1f77b4; stroke-width: 1.5; stroke-linecap: square"/>
   </g>
   <g id="line2d_59">
    <path d="M 86.640517 374.213455 
L 86.892742 338.456623 
L 87.144966 337.967643 
L 88.406089 337.345417 
L 88.910537 336.821032 
L 89.414986 336.678673 
L 89.667211 336.578183 
L 89.919435 336.149693 
L 90.423884 336.032415 
L 90.928333 335.820914 
L 91.685007 335.566178 
L 93.955027 335.379138 
L 94.459476 335.198932 
L 96.98172 334.952044 
L 97.486169 334.856555 
L 98.495067 334.740083 
L 101.773985 334.414584 
L 105.809577 334.255348 
L 106.56625 334.178734 
L 110.349617 333.99176 
L 111.862964 333.921004 
L 114.385208 333.778294 
L 115.898555 333.699482 
L 155.245572 331.975331 
L 159.785612 331.829758 
L 166.343448 331.501552 
L 168.109019 331.398321 
L 188.034752 330.802026 
L 190.809221 330.718841 
L 208.969382 330.135443 
L 214.518321 330.003922 
L 216.031667 329.934985 
L 220.067259 329.81999 
L 224.607299 329.671603 
L 228.390666 329.571697 
L 230.408462 329.503475 
L 235.452951 329.381295 
L 240.49744 329.251499 
L 241.758563 329.190188 
L 248.064174 329.006396 
L 256.639806 328.685021 
L 259.414275 328.576152 
L 260.423173 328.526665 
L 263.197642 328.413809 
L 264.458764 328.276588 
L 279.340008 327.89379 
L 281.610028 327.793463 
L 284.888946 327.695888 
L 286.654517 327.610806 
L 288.672313 327.503077 
L 292.960129 327.274203 
L 294.977925 327.159334 
L 295.734598 327.082944 
L 297.752394 326.958915 
L 307.841372 326.519458 
L 309.102495 326.382239 
L 317.930351 325.786609 
L 318.4348 325.692064 
L 321.461493 325.453154 
L 324.235962 325.134854 
L 324.992636 325.025944 
L 328.019329 324.765263 
L 329.280452 324.670264 
L 330.037125 324.581617 
L 331.802696 324.46607 
L 332.55937 324.384921 
L 334.82939 324.236206 
L 336.847186 323.970739 
L 341.387226 323.493176 
L 341.891675 323.369149 
L 345.170593 322.90706 
L 345.675042 322.762766 
L 346.179491 322.662464 
L 349.206184 322.059601 
L 349.710633 321.799934 
L 355.259572 320.28771 
L 355.76402 320.214777 
L 356.016245 319.916123 
L 356.520694 319.823947 
L 356.772918 319.5052 
L 357.277367 319.489604 
L 357.781816 318.878427 
L 358.790714 318.721913 
L 360.051836 317.671084 
L 360.304061 317.367399 
L 360.556285 317.309001 
L 360.80851 316.783514 
L 361.565183 316.589453 
L 361.817408 316.192895 
L 362.826305 315.672931 
L 363.07853 315.141463 
L 363.330754 314.215226 
L 364.087428 313.24279 
L 364.339652 313.233572 
L 365.096326 312.609002 
L 366.357448 308.538665 
L 366.861897 307.504194 
L 367.114121 307.355339 
L 367.366346 305.621833 
L 367.61857 305.226982 
L 367.870795 305.10282 
L 368.375244 303.992396 
L 368.627468 303.385097 
L 369.131917 302.789063 
L 369.384142 301.647783 
L 369.636366 299.805045 
L 369.88859 296.913474 
L 370.393039 296.485406 
L 370.645264 294.84617 
L 370.897488 294.551141 
L 371.401937 293.629405 
L 371.654162 290.758043 
L 371.906386 290.030813 
L 372.158611 288.793083 
L 372.410835 288.511335 
L 372.66306 276.907044 
L 372.915284 274.56803 
L 373.167509 256.586603 
L 373.419733 207.350472 
L 373.671957 204.424381 
L 374.176406 190.954294 
L 374.93308 177.441877 
L 375.437529 176.188654 
L 375.941978 173.648855 
L 376.194202 168.069922 
L 376.446427 159.135967 
L 376.698651 158.341483 
L 377.455324 153.85968 
L 377.707549 153.680871 
L 377.959773 152.887515 
L 378.211998 150.970738 
L 378.464222 147.872276 
L 378.716447 147.486961 
L 378.968671 146.42954 
L 379.220896 144.64835 
L 379.47312 144.284656 
L 379.725345 142.801417 
L 379.977569 142.442618 
L 380.229794 142.398422 
L 381.238691 138.234468 
L 381.490916 138.211117 
L 381.995365 136.797294 
L 382.247589 136.521314 
L 382.499814 135.692067 
L 382.752038 135.640946 
L 383.004263 133.394196 
L 383.256487 133.333996 
L 384.265385 130.888892 
L 384.769834 127.140017 
L 385.022058 127.13166 
L 385.274283 125.835489 
L 385.526507 118.728263 
L 385.778732 118.063873 
L 386.030956 115.702227 
L 386.283181 115.661632 
L 386.535405 115.077593 
L 386.78763 115.031305 
L 387.039854 114.784744 
L 387.292079 113.788774 
L 387.796527 113.132789 
L 388.553201 112.212276 
L 388.805425 112.10234 
L 389.562099 111.098216 
L 390.066548 110.923215 
L 390.318772 108.822552 
L 390.823221 108.729922 
L 391.075445 108.456807 
L 391.32767 108.455508 
L 392.841017 107.798397 
L 393.093241 107.449385 
L 393.345466 107.381038 
L 393.849915 107.030063 
L 395.363261 106.502969 
L 395.86771 106.433453 
L 396.119935 105.827806 
L 396.372159 105.575805 
L 396.624384 105.54076 
L 397.381057 104.672672 
L 398.13773 104.273344 
L 398.389955 104.228501 
L 399.146628 103.627855 
L 399.651077 101.418205 
L 399.903302 101.410296 
L 400.155526 99.324025 
L 400.9122 98.837813 
L 401.164424 97.569233 
L 401.668873 97.345169 
L 402.173322 95.39453 
L 402.425546 95.329197 
L 402.677771 95.024318 
L 402.929995 95.014199 
L 403.686669 94.411115 
L 403.938893 94.276189 
L 404.191118 93.297184 
L 404.443342 93.02209 
L 404.695567 93.011902 
L 404.947791 92.674196 
L 405.200015 92.631394 
L 405.704464 92.252319 
L 405.956689 92.23585 
L 406.461138 91.894194 
L 406.713362 91.466781 
L 406.965587 91.355683 
L 407.217811 91.0829 
L 408.226709 90.793106 
L 408.478933 90.497634 
L 409.235607 90.366759 
L 411.505627 89.715548 
L 413.271198 89.576163 
L 413.775647 89.391515 
L 414.280096 89.341599 
L 414.784545 89.21366 
L 415.541218 89.161009 
L 416.297892 88.922222 
L 417.054565 88.811598 
L 417.30679 88.001184 
L 418.063463 87.375511 
L 419.324585 87.035655 
L 420.585708 86.86966 
L 421.84683 86.762681 
L 422.099055 86.422087 
L 422.855728 86.249118 
L 423.360177 85.886987 
L 426.639095 85.260533 
L 426.891319 85.143962 
L 427.395768 84.726629 
L 428.404666 84.330651 
L 428.909115 84.086517 
L 429.16134 83.855372 
L 430.422462 83.720954 
L 433.449155 83.492503 
L 435.466951 83.382965 
L 447.82595 82.735048 
L 448.330399 82.624522 
L 449.591521 82.538693 
L 450.348195 82.482176 
L 452.36599 82.367618 
L 461.446071 81.777328 
L 463.211642 81.670325 
L 464.977213 81.575139 
L 465.481662 81.511568 
L 469.012805 81.336369 
L 470.526152 81.269959 
L 479.101783 81.055465 
L 480.61513 81.01909 
L 501.045312 80.829623 
L 511.890964 80.691395 
L 527.781105 80.519375 
L 530.051125 80.492803 
L 536.608961 80.380413 
L 541.401226 80.246656 
L 548.211287 80.071915 
L 549.220184 80.022039 
L 557.291367 79.898519 
L 559.813612 79.859409 
L 608.745158 79.460041 
L 613.032974 79.415932 
L 624.383075 79.306626 
L 628.418666 79.26365 
L 639.012094 79.156987 
L 641.282114 79.098691 
L 658.433377 78.895611 
L 659.6945 78.850595 
L 670.287927 78.6628 
L 675.332417 78.534832 
L 705.094903 78.001873 
L 711.652739 77.867477 
L 726.281758 77.486806 
L 727.795105 77.280019 
L 728.804003 77.182118 
L 729.560676 77.038733 
L 730.569574 76.929424 
L 730.821799 76.61033 
L 731.074023 76.609193 
L 731.830696 76.281684 
L 733.091819 76.092557 
L 733.596268 75.973006 
L 733.848492 75.503965 
L 739.39743 74.921953 
L 739.901879 74.792553 
L 740.406328 74.693687 
L 740.910777 74.451431 
L 741.415226 74.409516 
L 741.667451 74.279549 
L 743.180797 74.158745 
L 744.44192 73.994199 
L 745.955266 73.903278 
L 746.459715 73.797648 
L 747.216389 73.732988 
L 749.234185 73.660911 
L 751.504205 73.325572 
L 753.269776 73.205514 
L 755.035347 73.059639 
L 755.792021 72.868405 
L 757.809816 72.728091 
L 758.314265 72.481694 
L 758.56649 72.478608 
L 759.575388 72.080875 
L 760.584285 71.93253 
L 761.088734 71.72543 
L 762.097632 71.656029 
L 762.349857 71.588761 
L 762.602081 70.569698 
L 766.133224 69.936279 
L 767.142121 69.847779 
L 767.898795 69.664117 
L 768.907693 69.534379 
L 771.934386 69.174387 
L 772.943284 68.963467 
L 773.952182 68.667659 
L 774.96108 68.560965 
L 775.717753 67.750422 
L 776.978876 67.519254 
L 778.492222 67.436263 
L 779.248896 67.269816 
L 780.257794 67.262263 
L 780.510018 67.0877 
L 781.266691 67.009554 
L 782.023365 66.835732 
L 784.293385 66.739659 
L 784.797834 66.6624 
L 786.563405 66.461319 
L 787.067854 66.384532 
L 787.320079 65.991276 
L 787.824528 65.873976 
L 788.581201 65.676978 
L 789.590099 65.58733 
L 790.851221 65.364176 
L 791.860119 65.192107 
L 792.364568 65.070949 
L 792.869017 64.654465 
L 793.373466 64.585083 
L 794.130139 64.522417 
L 794.382364 64.438974 
L 794.634588 63.444869 
L 795.139037 63.282675 
L 795.391261 63.020785 
L 796.400159 62.859959 
L 797.661282 62.778716 
L 799.174628 62.547708 
L 800.687975 62.462124 
L 801.192424 62.39449 
L 802.201322 62.31521 
L 803.714669 61.925648 
L 804.723567 61.834076 
L 804.975791 61.700113 
L 807.75026 61.549078 
L 808.254709 61.444958 
L 809.263607 61.348498 
L 810.02028 60.831225 
L 811.281403 60.694418 
L 811.533627 60.078749 
L 811.785852 59.994537 
L 812.038076 59.734993 
L 814.560321 59.522125 
L 815.316994 59.355964 
L 815.569219 58.516196 
L 815.821443 58.503797 
L 816.325892 57.81993 
L 816.578116 57.682545 
L 816.578116 57.682545 
" clip-path="url(#p4a5183c3d4)" style="fill: none; stroke: #ff7f0e; stroke-width: 1.5; stroke-linecap: square"/>
   </g>
   <g id="line2d_60">
    <path d="M 86.640517 370.263109 
L 86.773691 337.759208 
L 87.040038 336.121645 
L 87.439558 335.543865 
L 87.572731 335.20779 
L 87.839078 335.11887 
L 88.238598 334.640472 
L 89.570332 333.827473 
L 90.502546 333.378592 
L 90.768893 333.13988 
L 91.03524 333.005938 
L 91.168413 332.999092 
L 91.567934 332.655721 
L 92.633321 332.456136 
L 93.432361 332.2429 
L 93.965055 332.124775 
L 97.560737 331.243837 
L 98.226604 331.040921 
L 98.892471 330.899256 
L 99.425165 330.779434 
L 100.623726 330.613301 
L 105.018448 329.618624 
L 105.417969 329.527105 
L 105.950662 329.400336 
L 106.350182 329.328743 
L 106.882876 329.234271 
L 108.480957 328.857409 
L 109.413171 328.688866 
L 109.945865 328.432515 
L 115.139628 327.44009 
L 115.539148 327.32 
L 116.737709 327.138193 
L 117.137229 327.045432 
L 118.33579 326.862977 
L 120.333391 326.353537 
L 120.732911 326.291628 
L 122.064645 326.139768 
L 122.863686 325.965178 
L 125.527154 325.140282 
L 125.793501 324.941254 
L 126.858888 324.780901 
L 127.125235 324.632798 
L 127.524755 324.538601 
L 127.791102 324.501404 
L 128.057449 324.404371 
L 128.456969 324.340158 
L 129.256009 324.076257 
L 130.05505 323.993719 
L 130.587744 323.895864 
L 131.386784 323.766654 
L 131.786304 323.644468 
L 132.984865 323.42141 
L 133.384385 323.204797 
L 133.650732 323.183931 
L 134.050252 322.871664 
L 134.582946 322.771877 
L 135.381986 322.556234 
L 135.648333 322.428033 
L 136.181027 322.336298 
L 136.713721 322.237568 
L 136.980067 322.0861 
L 138.178628 321.486718 
L 138.311802 321.447832 
L 138.444975 321.282325 
L 138.578148 320.927684 
L 139.110842 320.856491 
L 139.643536 320.522955 
L 141.37479 320.067006 
L 141.77431 319.912268 
L 144.304605 318.877715 
L 144.837299 318.300473 
L 145.503166 317.873605 
L 145.769513 317.767848 
L 146.035859 317.639479 
L 146.302206 317.011104 
L 146.568553 316.764129 
L 147.101247 316.565685 
L 147.63394 315.288202 
L 148.299808 314.412765 
L 148.699328 313.00616 
L 148.832501 312.996396 
L 148.965675 312.805659 
L 149.232021 311.839229 
L 149.631542 308.796143 
L 150.031062 307.6187 
L 150.164235 305.030226 
L 150.430582 304.004833 
L 150.696929 301.136358 
L 150.963276 299.965935 
L 152.29501 285.898343 
L 152.428183 285.519197 
L 152.69453 284.38649 
L 152.960877 276.21307 
L 153.360397 275.549104 
L 153.493571 275.37544 
L 153.759917 273.271351 
L 154.292611 272.533392 
L 154.558958 272.049343 
L 154.692131 272.045398 
L 154.958478 271.71378 
L 155.224825 271.298858 
L 155.624345 271.048949 
L 156.290212 270.732922 
L 156.556559 270.608704 
L 157.089253 270.007988 
L 157.488773 269.845269 
L 157.75512 269.458388 
L 158.15464 269.216452 
L 158.287813 269.215775 
L 158.820507 268.825631 
L 159.220027 268.660317 
L 159.353201 268.415495 
L 160.418588 268.27688 
L 161.350802 267.754936 
L 162.549363 267.401375 
L 163.481577 267.284077 
L 163.881097 267.154786 
L 164.813311 266.994795 
L 165.212831 266.881266 
L 165.479178 266.737524 
L 165.612351 266.731036 
L 165.878698 266.571234 
L 166.810912 266.326735 
L 167.077259 266.175604 
L 167.743126 266.090205 
L 168.275819 265.830129 
L 169.607554 265.566558 
L 170.273421 265.445387 
L 170.806114 265.044909 
L 171.338808 264.927647 
L 171.605155 264.719316 
L 172.137848 264.62038 
L 172.537369 264.254121 
L 172.803716 264.004376 
L 173.336409 263.695133 
L 174.002276 263.576092 
L 174.401796 263.30085 
L 174.93449 263.165384 
L 175.467184 263.121179 
L 175.733531 262.910753 
L 176.266224 262.811969 
L 176.532571 262.606291 
L 176.932091 262.491493 
L 177.331612 262.053165 
L 178.263825 261.712699 
L 178.396999 261.712404 
L 178.663346 261.537943 
L 178.929693 261.508156 
L 179.062866 261.22202 
L 179.99508 261.083557 
L 180.3946 260.855825 
L 180.660947 260.613038 
L 180.79412 260.605768 
L 181.060467 260.385777 
L 181.459987 260.263895 
L 181.859508 259.879984 
L 182.924895 259.334005 
L 183.191242 258.950588 
L 184.389802 258.465834 
L 184.522976 258.108586 
L 184.656149 258.102592 
L 184.789323 257.634849 
L 185.45519 257.398464 
L 185.85471 256.766411 
L 185.987883 256.75157 
L 186.121057 256.166523 
L 186.25423 256.113395 
L 186.520577 255.7371 
L 186.786924 255.56885 
L 187.053271 254.623617 
L 187.186444 254.600567 
L 187.452791 254.317762 
L 187.985485 254.033072 
L 188.385005 253.926562 
L 188.651352 253.691564 
L 188.784525 253.682321 
L 188.917698 253.058255 
L 189.317219 252.886036 
L 189.583566 252.295361 
L 190.249433 251.813557 
L 190.515779 251.453455 
L 191.980687 250.737681 
L 192.247034 250.424211 
L 193.046074 249.644063 
L 193.179248 248.875735 
L 193.312421 248.865007 
L 193.578768 248.31121 
L 193.711941 248.164792 
L 194.111462 246.953289 
L 194.377808 246.893173 
L 195.043675 244.661355 
L 195.310022 244.383712 
L 196.109063 243.85025 
L 196.508583 243.496574 
L 197.307624 242.769458 
L 198.239837 240.731791 
L 198.373011 240.722852 
L 198.506184 240.577673 
L 198.772531 239.872161 
L 199.704745 238.878246 
L 199.971092 238.70705 
L 200.104265 238.363988 
L 200.237439 237.340512 
L 200.370612 237.246886 
L 200.503785 236.791145 
L 200.636959 236.777835 
L 200.903306 236.5184 
L 201.169652 236.420339 
L 201.702346 236.098858 
L 201.968693 235.647581 
L 202.23504 235.531901 
L 202.368213 235.403873 
L 202.63456 234.946705 
L 203.300427 234.468327 
L 203.699947 234.114225 
L 204.099468 234.002423 
L 204.498988 233.655317 
L 204.898508 233.451494 
L 205.164855 233.367277 
L 205.298028 232.807246 
L 205.431202 232.784441 
L 206.896109 231.341158 
L 207.162456 231.264251 
L 207.428803 231.051458 
L 208.227843 230.738512 
L 209.959098 230.135026 
L 210.225445 229.638236 
L 210.491791 229.442376 
L 210.891312 229.004595 
L 211.157658 228.829905 
L 211.290832 228.820267 
L 212.089872 227.850411 
L 212.489393 227.675662 
L 212.755739 227.424485 
L 213.15526 227.278466 
L 213.687953 227.091777 
L 214.220647 226.728367 
L 214.886514 226.60275 
L 215.152861 226.372005 
L 216.617768 226.012189 
L 217.150462 225.896828 
L 217.416809 225.682211 
L 217.949503 225.563793 
L 218.61537 224.972156 
L 219.01489 224.854575 
L 219.547583 224.591076 
L 219.680757 224.489851 
L 220.213451 223.625886 
L 220.479797 223.530562 
L 220.746144 223.38636 
L 221.012491 223.205261 
L 221.545185 222.915957 
L 221.811531 222.511754 
L 222.211052 222.339989 
L 222.743745 222.144396 
L 223.143266 221.92962 
L 225.007693 220.514036 
L 225.27404 220.285547 
L 225.939907 219.924152 
L 226.206254 219.706646 
L 226.738948 219.433939 
L 227.005295 219.154294 
L 227.271641 218.988452 
L 227.537988 218.673838 
L 227.804335 218.59993 
L 227.937508 218.59158 
L 228.203855 217.967762 
L 228.869722 217.761054 
L 230.201457 217.116582 
L 232.199058 215.568041 
L 232.598578 215.238508 
L 233.530792 214.907649 
L 233.797139 214.658383 
L 233.930312 214.638659 
L 234.196659 214.26787 
L 234.463006 214.153921 
L 235.927913 213.654031 
L 236.327434 213.471363 
L 237.525994 213.155031 
L 237.925514 212.834238 
L 238.591382 212.566828 
L 238.857728 212.369366 
L 238.990902 212.247791 
L 239.257249 211.927517 
L 239.523595 211.839891 
L 240.588983 210.874311 
L 241.121676 210.774547 
L 241.25485 210.514796 
L 241.388023 210.500404 
L 241.65437 210.299606 
L 241.920717 210.208138 
L 242.453411 209.72152 
L 243.385624 209.466409 
L 243.918318 209.22466 
L 244.184665 209.059091 
L 244.983705 208.323302 
L 245.116879 208.320163 
L 245.383226 208.144921 
L 245.782746 208.031822 
L 246.182266 207.776316 
L 247.91352 207.253337 
L 248.046694 207.249478 
L 248.446214 206.969 
L 248.579388 206.96524 
L 248.845734 206.733776 
L 251.376029 205.494262 
L 251.642376 205.419393 
L 251.908723 205.132069 
L 254.572191 204.349836 
L 254.838538 204.174212 
L 255.371232 204.082543 
L 255.637578 203.930331 
L 255.903925 203.860649 
L 256.303445 203.795677 
L 256.569792 203.715865 
L 256.836139 203.404735 
L 257.235659 203.104827 
L 258.167873 202.650493 
L 259.100087 202.311399 
L 260.298648 201.825974 
L 260.564995 201.541539 
L 262.029902 201.19657 
L 262.429422 200.921416 
L 263.09529 200.798619 
L 263.361636 200.682623 
L 270.286654 199.356367 
L 270.553001 199.13334 
L 271.085694 199.018627 
L 271.751561 198.857178 
L 272.417428 198.664962 
L 274.015509 198.309553 
L 275.21407 197.578608 
L 275.347244 197.56497 
L 275.61359 197.322364 
L 275.879937 197.142141 
L 276.412631 196.964062 
L 276.812151 196.541146 
L 277.078498 196.329947 
L 277.344845 196.129834 
L 279.342446 195.131437 
L 279.87514 195.072049 
L 280.141486 194.951588 
L 280.407833 194.816342 
L 280.67418 194.480454 
L 281.473221 193.980855 
L 281.606394 193.96379 
L 281.739567 193.730512 
L 282.139088 193.681055 
L 282.671781 192.951189 
L 282.804955 192.907426 
L 283.071301 192.25392 
L 283.204475 192.15266 
L 283.603995 191.415423 
L 284.136689 191.283224 
L 284.536209 191.034217 
L 286.001117 190.467862 
L 286.267463 190.115868 
L 286.53381 189.793493 
L 286.93333 189.673735 
L 287.199677 189.398663 
L 287.599198 189.249908 
L 287.732371 188.971349 
L 287.865544 188.955006 
L 288.265065 188.598617 
L 288.531411 188.439245 
L 289.330452 188.267675 
L 289.863146 188.169278 
L 290.129492 188.032558 
L 290.662186 187.945092 
L 290.928533 187.785392 
L 291.5944 187.707971 
L 291.99392 187.622199 
L 292.39344 187.514913 
L 293.458828 187.40858 
L 293.725175 187.308317 
L 295.722776 186.893143 
L 296.921336 186.574103 
L 297.187683 186.464452 
L 297.587204 186.372024 
L 297.85355 186.194916 
L 298.386244 185.965714 
L 298.785764 185.340337 
L 299.451631 184.99925 
L 299.984325 184.893882 
L 300.250672 184.855262 
L 300.517019 184.674579 
L 301.182886 184.604125 
L 301.582406 184.267597 
L 302.248273 184.14354 
L 303.047313 183.245157 
L 303.446834 183.034429 
L 303.979527 182.594418 
L 304.245874 182.281069 
L 304.645394 182.041176 
L 304.778568 182.020991 
L 305.044915 181.676643 
L 305.178088 181.510488 
L 305.311261 180.755104 
L 305.444435 180.688311 
L 305.577608 180.052429 
L 305.843955 179.93925 
L 306.110302 179.797174 
L 307.442036 179.536277 
L 307.708383 179.362657 
L 307.841556 179.351475 
L 308.37425 178.844264 
L 308.507423 178.82384 
L 308.906944 178.433908 
L 309.572811 178.147445 
L 309.705984 177.811853 
L 310.105504 177.695975 
L 310.371851 177.526072 
L 310.638198 176.975014 
L 311.437238 176.483552 
L 311.570412 176.475715 
L 312.236279 175.975825 
L 312.902146 175.798037 
L 313.301666 175.303762 
L 313.568013 175.127541 
L 313.967533 174.430302 
L 314.23388 174.254968 
L 314.500227 174.148734 
L 315.032921 173.696137 
L 315.965135 173.472578 
L 316.231481 173.223022 
L 316.497828 173.02832 
L 318.362256 172.585664 
L 320.09351 172.002305 
L 320.359857 171.966745 
L 320.626204 171.642972 
L 320.892551 171.542065 
L 321.025724 171.430445 
L 321.292071 170.857123 
L 321.691591 170.464343 
L 321.957938 170.34942 
L 322.091112 170.078233 
L 322.224285 170.071018 
L 322.490632 169.021475 
L 322.756979 168.741339 
L 324.088713 168.231552 
L 324.488233 168.085998 
L 324.75458 167.950022 
L 325.1541 167.92679 
L 325.420447 167.766281 
L 326.219487 167.654083 
L 326.752181 167.507484 
L 328.749782 166.909708 
L 329.548823 166.842853 
L 329.948343 166.735865 
L 330.347863 166.663841 
L 330.747383 166.164227 
L 331.546424 165.868911 
L 332.212291 164.733372 
L 332.744985 163.648811 
L 334.609412 162.977811 
L 335.008933 162.922448 
L 335.541626 162.550722 
L 335.807973 162.460645 
L 336.207493 161.961793 
L 336.47384 161.934999 
L 336.740187 161.636112 
L 336.87336 161.579037 
L 337.139707 161.222927 
L 337.272881 161.194858 
L 337.406054 160.268786 
L 337.672401 160.170107 
L 337.805574 159.725287 
L 337.938748 159.717402 
L 338.071921 159.3382 
L 339.270482 159.072443 
L 339.536829 158.885613 
L 339.670002 158.876158 
L 339.936349 158.742423 
L 341.268083 157.967348 
L 341.53443 157.779162 
L 341.667603 157.469617 
L 341.800777 156.688762 
L 343.132511 156.380927 
L 343.665204 155.989079 
L 343.798378 155.951722 
L 343.931551 155.505594 
L 344.996939 155.061212 
L 345.263285 154.831583 
L 345.529632 154.092232 
L 345.795979 153.961952 
L 346.062326 153.626344 
L 346.461846 153.454819 
L 347.260887 153.323018 
L 347.926754 152.893733 
L 348.592621 152.664557 
L 348.992141 152.140304 
L 349.524835 151.7651 
L 349.658008 151.638457 
L 349.924355 151.053096 
L 351.122916 150.776103 
L 351.522436 150.597694 
L 352.85417 150.199847 
L 353.120517 149.838851 
L 353.65321 149.632744 
L 353.919557 149.579339 
L 354.185904 149.054041 
L 354.585424 148.733602 
L 354.851771 148.482063 
L 355.251291 148.360973 
L 356.583025 147.922853 
L 356.982546 147.783026 
L 357.115719 147.774593 
L 357.515239 147.218198 
L 357.781586 147.050235 
L 358.047933 146.795762 
L 358.447453 146.595988 
L 358.846974 146.500863 
L 359.11332 146.370289 
L 359.379667 146.293574 
L 359.779187 146.126757 
L 360.445054 145.931152 
L 360.977748 145.641307 
L 361.377268 145.55999 
L 361.643615 144.74814 
L 362.975349 144.310439 
L 365.239297 144.051098 
L 366.704205 143.787345 
L 367.103725 143.46427 
L 367.236899 143.007966 
L 367.902766 142.702294 
L 368.302286 142.383867 
L 369.500847 141.904351 
L 369.767193 141.712924 
L 370.299887 141.513824 
L 370.566234 141.223842 
L 371.098928 141.063381 
L 372.031141 140.863813 
L 373.496049 140.705638 
L 373.895569 140.646002 
L 375.89317 140.369866 
L 376.425864 140.171852 
L 376.825384 140.130769 
L 377.091731 139.94125 
L 377.224905 139.921853 
L 377.757598 139.413578 
L 379.089332 139.262762 
L 382.951361 138.742165 
L 383.484055 138.529977 
L 383.617228 138.117179 
L 384.016749 138.031764 
L 384.416269 137.779853 
L 384.948962 137.656042 
L 386.547043 137.495261 
L 387.346084 136.870418 
L 387.612431 136.622163 
L 388.278298 136.498165 
L 388.677818 136.298963 
L 389.077338 135.903062 
L 389.743205 135.773071 
L 390.142726 135.688128 
L 390.941766 135.121494 
L 392.939367 134.688774 
L 393.205714 134.488728 
L 393.871581 134.381339 
L 394.137928 134.259893 
L 394.404275 134.227103 
L 394.803795 134.027211 
L 394.936968 134.025948 
L 395.203315 133.898907 
L 395.336489 133.894886 
L 395.602835 133.730526 
L 395.869182 133.707757 
L 396.268703 133.451741 
L 397.200916 133.364324 
L 397.600437 133.15247 
L 398.532651 132.982908 
L 398.665824 132.913847 
L 398.932171 132.69174 
L 399.198518 132.544964 
L 401.196119 132.122594 
L 402.39468 132.046437 
L 403.726414 131.585625 
L 404.392281 131.448368 
L 405.324495 131.068098 
L 407.455269 130.6416 
L 407.854789 130.465358 
L 408.387483 130.375904 
L 408.787003 130.191698 
L 409.186524 130.024115 
L 409.45287 129.917172 
L 413.181726 129.394512 
L 413.448073 129.320856 
L 413.71442 129.151476 
L 414.380287 128.954499 
L 414.646634 128.825909 
L 415.445674 128.721055 
L 417.576449 128.403636 
L 418.908183 127.939419 
L 419.440876 127.745823 
L 420.639437 127.442972 
L 420.905784 127.272793 
L 421.038957 127.267676 
L 421.305304 127.062501 
L 422.503865 126.646816 
L 422.903385 126.601248 
L 423.436079 126.373272 
L 424.501466 126.166651 
L 424.900986 126.062611 
L 428.097148 125.719835 
L 428.496669 125.628167 
L 429.961576 125.395757 
L 430.760617 125.168767 
L 431.69283 125.033418 
L 432.358697 124.954687 
L 436.3539 124.38383 
L 440.082755 123.858617 
L 448.339507 122.981236 
L 449.538068 122.827359 
L 453.93279 122.254812 
L 454.865004 122.152553 
L 457.794819 121.620399 
L 459.659247 121.338952 
L 461.257328 120.907861 
L 462.056369 120.769318 
L 462.589062 120.680454 
L 464.45349 120.50367 
L 464.719837 120.331831 
L 465.385704 120.255201 
L 465.785224 120.169926 
L 466.051571 120.005141 
L 467.915999 119.728806 
L 468.315519 119.676525 
L 468.581866 119.570553 
L 469.247733 119.434749 
L 471.511681 118.842423 
L 471.778028 118.667716 
L 475.107363 118.208091 
L 475.506883 118.135573 
L 476.305924 118.039077 
L 476.572271 117.942327 
L 477.637658 117.784363 
L 478.836219 117.617458 
L 479.635259 117.494452 
L 480.301126 117.406304 
L 480.567473 117.279886 
L 481.23334 117.207721 
L 482.698248 117.085314 
L 483.630462 116.961964 
L 484.029982 116.847527 
L 484.829022 116.665926 
L 485.761236 116.53529 
L 486.69345 116.402938 
L 487.09297 116.338607 
L 488.025184 116.235992 
L 488.291531 116.044744 
L 490.688652 115.859377 
L 491.887213 115.706378 
L 492.286733 115.677872 
L 492.819427 115.307782 
L 495.749242 114.813638 
L 496.148762 114.673298 
L 496.947803 114.577106 
L 498.41271 114.281434 
L 501.209352 113.925076 
L 502.541086 113.695723 
L 502.807433 113.500433 
L 503.07378 113.4249 
L 503.4733 113.320069 
L 504.005994 113.11993 
L 505.870421 112.750222 
L 506.669462 112.607681 
L 507.202156 112.519084 
L 507.601676 112.309395 
L 508.400716 112.163261 
L 508.800237 112.069566 
L 509.466104 111.969967 
L 509.73245 111.831966 
L 510.931011 111.627718 
L 511.463705 111.497035 
L 512.129572 111.312029 
L 513.594479 111.173773 
L 515.059387 111.00108 
L 515.592081 110.901639 
L 515.858427 110.788194 
L 516.391121 110.732746 
L 520.25315 110.337043 
L 520.919017 110.1867 
L 524.91422 109.864333 
L 525.180566 109.751485 
L 527.444514 109.616301 
L 528.643075 109.549428 
L 531.17337 109.363337 
L 532.904624 109.207936 
L 536.500306 108.968145 
L 538.231561 108.709647 
L 542.759457 108.405915 
L 543.025804 108.318595 
L 544.890232 108.152969 
L 547.686873 107.957033 
L 549.950821 107.682024 
L 551.149382 107.589655 
L 552.081596 107.514896 
L 553.546503 107.400591 
L 557.808053 106.990637 
L 558.074399 106.909267 
L 560.338347 106.786149 
L 562.069602 106.667841 
L 562.469122 106.531414 
L 564.200376 106.382834 
L 565.665284 106.243127 
L 566.597498 105.985217 
L 570.459527 105.472462 
L 570.859047 105.402622 
L 571.125394 105.325986 
L 571.658088 105.178409 
L 573.922036 104.930056 
L 574.188382 104.815821 
L 577.650891 104.317621 
L 577.917238 104.180143 
L 579.648492 103.994328 
L 581.379747 103.764782 
L 582.045614 103.665561 
L 588.038417 102.433712 
L 588.304764 102.273409 
L 589.236978 102.016938 
L 589.503325 101.89931 
L 590.968232 101.659833 
L 591.367753 101.510217 
L 592.43314 101.333353 
L 594.297568 100.833617 
L 595.629302 100.571832 
L 596.561516 100.168556 
L 597.360556 100.066127 
L 597.89325 99.978228 
L 598.026423 99.974945 
L 598.29277 99.786005 
L 599.224984 99.665311 
L 599.757678 99.564732 
L 602.95384 99.159496 
L 604.685094 99.003373 
L 607.481736 98.773791 
L 607.881256 98.595911 
L 609.61251 98.416284 
L 610.01203 98.347265 
L 613.341366 98.082214 
L 614.939447 97.975304 
L 615.338967 97.884707 
L 618.801476 97.622799 
L 631.45295 96.334742 
L 634.782285 96.180481 
L 635.847673 96.087873 
L 638.511141 95.886555 
L 639.842875 95.766988 
L 659.15302 94.417734 
L 659.685714 94.359305 
L 668.075639 93.627628 
L 669.141026 93.544172 
L 671.804494 93.411214 
L 673.269402 93.289781 
L 687.65213 92.489207 
L 694.843495 92.12981 
L 696.042055 92.041812 
L 699.105044 91.813831 
L 699.904084 91.748679 
L 703.23342 91.637713 
L 706.829102 91.451907 
L 708.560356 91.286485 
L 712.821905 91.045701 
L 715.618547 90.936454 
L 725.606553 90.40639 
L 727.337807 90.27681 
L 728.136848 90.235351 
L 732.265224 90.031133 
L 733.596958 89.982717 
L 738.124854 89.832427 
L 745.049871 89.476749 
L 745.582565 89.405769 
L 749.977288 89.288628 
L 754.904704 89.112361 
L 758.367213 88.99061 
L 774.081675 88.166867 
L 774.747542 88.129292 
L 780.207652 87.853024 
L 781.006693 87.757566 
L 793.125473 87.044325 
L 794.856728 86.935389 
L 795.389421 86.872704 
L 797.120676 86.765491 
L 797.520196 86.716022 
L 804.71156 86.141263 
L 805.643774 86.043311 
L 806.309641 85.934706 
L 810.038497 85.584001 
L 810.57119 85.501618 
L 812.435618 85.270959 
L 814.033699 84.932106 
L 814.300046 84.730047 
L 814.433219 84.718438 
L 814.83274 84.42093 
L 816.697167 83.988857 
L 816.697167 83.988857 
" clip-path="url(#p4a5183c3d4)" style="fill: none; stroke: #2ca02c; stroke-width: 1.5; stroke-linecap: square"/>
   </g>
   <g id="patch_3">
    <path d="M 50.137685 390.04 
L 50.137685 41.856 
" style="fill: none; stroke: #000000; stroke-width: 0.8; stroke-linejoin: miter; stroke-linecap: square"/>
   </g>
   <g id="patch_4">
    <path d="M 853.2 390.04 
L 853.2 41.856 
" style="fill: none; stroke: #000000; stroke-width: 0.8; stroke-linejoin: miter; stroke-linecap: square"/>
   </g>
   <g id="patch_5">
    <path d="M 50.137685 390.04 
L 853.2 390.04 
" style="fill: none; stroke: #000000; stroke-width: 0.8; stroke-linejoin: miter; stroke-linecap: square"/>
   </g>
   <g id="patch_6">
    <path d="M 50.137685 41.856 
L 853.2 41.856 
" style="fill: none; stroke: #000000; stroke-width: 0.8; stroke-linejoin: miter; stroke-linecap: square"/>
   </g>
   <g id="text_14">
    <!-- HTTP Request Duration Percentiles -->
    <g transform="translate(347.44228 22.355625) scale(0.12 -0.12)">
     <defs>
      <path id="DejaVuSans-48" d="M 628 4666 
L 1259 4666 
L 1259 2753 
L 3553 2753 
L 3553 4666 
L 4184 4666 
L 4184 0 
L 3553 0 
L 3553 2222 
L 1259 2222 
L 1259 0 
L 628 0 
L 628 4666 
z
" transform="scale(0.015625)"/>
      <path id="DejaVuSans-54" d="M -19 4666 
L 3928 4666 
L 3928 4134 
L 2272 4134 
L 2272 0 
L 1638 0 
L 1638 4134 
L -19 4134 
L -19 4666 
z
" transform="scale(0.015625)"/>
      <path id="DejaVuSans-52" d="M 2841 2188 
Q 3044 2119 3236 1894 
Q 3428 1669 3622 1275 
L 4263 0 
L 3584 0 
L 2988 1197 
Q 2756 1666 2539 1819 
Q 2322 1972 1947 1972 
L 1259 1972 
L 1259 0 
L 628 0 
L 628 4666 
L 2053 4666 
Q 2853 4666 3247 4331 
Q 3641 3997 3641 3322 
Q 3641 2881 3436 2590 
Q 3231 2300 2841 2188 
z
M 1259 4147 
L 1259 2491 
L 2053 2491 
Q 2509 2491 2742 2702 
Q 2975 2913 2975 3322 
Q 2975 3731 2742 3939 
Q 2509 4147 2053 4147 
L 1259 4147 
z
" transform="scale(0.015625)"/>
      <path id="DejaVuSans-71" d="M 947 1747 
Q 947 1113 1208 752 
Q 1469 391 1925 391 
Q 2381 391 2643 752 
Q 2906 1113 2906 1747 
Q 2906 2381 2643 2742 
Q 2381 3103 1925 3103 
Q 1469 3103 1208 2742 
Q 947 2381 947 1747 
z
M 2906 525 
Q 2725 213 2448 61 
Q 2172 -91 1784 -91 
Q 1150 -91 751 415 
Q 353 922 353 1747 
Q 353 2572 751 3078 
Q 1150 3584 1784 3584 
Q 2172 3584 2448 3432 
Q 2725 3281 2906 2969 
L 2906 3500 
L 3481 3500 
L 3481 -1331 
L 2906 -1331 
L 2906 525 
z
" transform="scale(0.015625)"/>
     </defs>
     <use xlink:href="#DejaVuSans-48"/>
     <use xlink:href="#DejaVuSans-54" transform="translate(75.195312 0)"/>
     <use xlink:href="#DejaVuSans-54" transform="translate(134.529297 0)"/>
     <use xlink:href="#DejaVuSans-50" transform="translate(195.613281 0)"/>
     <use xlink:href="#DejaVuSans-20" transform="translate(255.916016 0)"/>
     <use xlink:href="#DejaVuSans-52" transform="translate(287.703125 0)"/>
     <use xlink:href="#DejaVuSans-65" transform="translate(352.685547 0)"/>
     <use xlink:href="#DejaVuSans-71" transform="translate(414.208984 0)"/>
     <use xlink:href="#DejaVuSans-75" transform="translate(477.685547 0)"/>
     <use xlink:href="#DejaVuSans-65" transform="translate(541.064453 0)"/>
     <use xlink:href="#DejaVuSans-73" transform="translate(602.587891 0)"/>
     <use xlink:href="#DejaVuSans-74" transform="translate(654.6875 0)"/>
     <use xlink:href="#DejaVuSans-20" transform="translate(693.896484 0)"/>
     <use xlink:href="#DejaVuSans-44" transform="translate(725.683594 0)"/>
     <use xlink:href="#DejaVuSans-75" transform="translate(802.685547 0)"/>
     <use xlink:href="#DejaVuSans-72" transform="translate(866.064453 0)"/>
     <use xlink:href="#DejaVuSans-61" transform="translate(907.177734 0)"/>
     <use xlink:href="#DejaVuSans-74" transform="translate(968.457031 0)"/>
     <use xlink:href="#DejaVuSans-69" transform="translate(1007.666016 0)"/>
     <use xlink:href="#DejaVuSans-6f" transform="translate(1035.449219 0)"/>
     <use xlink:href="#DejaVuSans-6e" transform="translate(1096.630859 0)"/>
     <use xlink:href="#DejaVuSans-20" transform="translate(1160.009766 0)"/>
     <use xlink:href="#DejaVuSans-50" transform="translate(1191.796875 0)"/>
     <use xlink:href="#DejaVuSans-65" transform="translate(1248.474609 0)"/>
     <use xlink:href="#DejaVuSans-72" transform="translate(1309.998047 0)"/>
     <use xlink:href="#DejaVuSans-63" transform="translate(1348.861328 0)"/>
     <use xlink:href="#DejaVuSans-65" transform="translate(1403.841797 0)"/>
     <use xlink:href="#DejaVuSans-6e" transform="translate(1465.365234 0)"/>
     <use xlink:href="#DejaVuSans-74" transform="translate(1528.744141 0)"/>
     <use xlink:href="#DejaVuSans-69" transform="translate(1567.953125 0)"/>
     <use xlink:href="#DejaVuSans-6c" transform="translate(1595.736328 0)"/>
     <use xlink:href="#DejaVuSans-65" transform="translate(1623.519531 0)"/>
     <use xlink:href="#DejaVuSans-73" transform="translate(1685.042969 0)"/>
    </g>
    <!-- Test: spike | Endpoint: GetWaypointsByMapId -->
    <g transform="translate(316.09978 35.856) scale(0.12 -0.12)">
     <defs>
      <path id="DejaVuSans-3a" d="M 750 794 
L 1409 794 
L 1409 0 
L 750 0 
L 750 794 
z
M 750 3309 
L 1409 3309 
L 1409 2516 
L 750 2516 
L 750 3309 
z
" transform="scale(0.015625)"/>
      <path id="DejaVuSans-70" d="M 1159 525 
L 1159 -1331 
L 581 -1331 
L 581 3500 
L 1159 3500 
L 1159 2969 
Q 1341 3281 1617 3432 
Q 1894 3584 2278 3584 
Q 2916 3584 3314 3078 
Q 3713 2572 3713 1747 
Q 3713 922 3314 415 
Q 2916 -91 2278 -91 
Q 1894 -91 1617 61 
Q 1341 213 1159 525 
z
M 3116 1747 
Q 3116 2381 2855 2742 
Q 2594 3103 2138 3103 
Q 1681 3103 1420 2742 
Q 1159 2381 1159 1747 
Q 1159 1113 1420 752 
Q 1681 391 2138 391 
Q 2594 391 2855 752 
Q 3116 1113 3116 1747 
z
" transform="scale(0.015625)"/>
      <path id="DejaVuSans-6b" d="M 581 4863 
L 1159 4863 
L 1159 1991 
L 2875 3500 
L 3609 3500 
L 1753 1863 
L 3688 0 
L 2938 0 
L 1159 1709 
L 1159 0 
L 581 0 
L 581 4863 
z
" transform="scale(0.015625)"/>
      <path id="DejaVuSans-7c" d="M 1344 4891 
L 1344 -1509 
L 813 -1509 
L 813 4891 
L 1344 4891 
z
" transform="scale(0.015625)"/>
      <path id="DejaVuSans-45" d="M 628 4666 
L 3578 4666 
L 3578 4134 
L 1259 4134 
L 1259 2753 
L 3481 2753 
L 3481 2222 
L 1259 2222 
L 1259 531 
L 3634 531 
L 3634 0 
L 628 0 
L 628 4666 
z
" transform="scale(0.015625)"/>
      <path id="DejaVuSans-64" d="M 2906 2969 
L 2906 4863 
L 3481 4863 
L 3481 0 
L 2906 0 
L 2906 525 
Q 2725 213 2448 61 
Q 2172 -91 1784 -91 
Q 1150 -91 751 415 
Q 353 922 353 1747 
Q 353 2572 751 3078 
Q 1150 3584 1784 3584 
Q 2172 3584 2448 3432 
Q 2725 3281 2906 2969 
z
M 947 1747 
Q 947 1113 1208 752 
Q 1469 391 1925 391 
Q 2381 391 2643 752 
Q 2906 1113 2906 1747 
Q 2906 2381 2643 2742 
Q 2381 3103 1925 3103 
Q 1469 3103 1208 2742 
Q 947 2381 947 1747 
z
" transform="scale(0.015625)"/>
      <path id="DejaVuSans-47" d="M 3809 666 
L 3809 1919 
L 2778 1919 
L 2778 2438 
L 4434 2438 
L 4434 434 
Q 4069 175 3628 42 
Q 3188 -91 2688 -91 
Q 1594 -91 976 548 
Q 359 1188 359 2328 
Q 359 3472 976 4111 
Q 1594 4750 2688 4750 
Q 3144 4750 3555 4637 
Q 3966 4525 4313 4306 
L 4313 3634 
Q 3963 3931 3569 4081 
Q 3175 4231 2741 4231 
Q 1884 4231 1454 3753 
Q 1025 3275 1025 2328 
Q 1025 1384 1454 906 
Q 1884 428 2741 428 
Q 3075 428 3337 486 
Q 3600 544 3809 666 
z
" transform="scale(0.015625)"/>
      <path id="DejaVuSans-57" d="M 213 4666 
L 850 4666 
L 1831 722 
L 2809 4666 
L 3519 4666 
L 4500 722 
L 5478 4666 
L 6119 4666 
L 4947 0 
L 4153 0 
L 3169 4050 
L 2175 0 
L 1381 0 
L 213 4666 
z
" transform="scale(0.015625)"/>
      <path id="DejaVuSans-79" d="M 2059 -325 
Q 1816 -950 1584 -1140 
Q 1353 -1331 966 -1331 
L 506 -1331 
L 506 -850 
L 844 -850 
Q 1081 -850 1212 -737 
Q 1344 -625 1503 -206 
L 1606 56 
L 191 3500 
L 800 3500 
L 1894 763 
L 2988 3500 
L 3597 3500 
L 2059 -325 
z
" transform="scale(0.015625)"/>
      <path id="DejaVuSans-42" d="M 1259 2228 
L 1259 519 
L 2272 519 
Q 2781 519 3026 730 
Q 3272 941 3272 1375 
Q 3272 1813 3026 2020 
Q 2781 2228 2272 2228 
L 1259 2228 
z
M 1259 4147 
L 1259 2741 
L 2194 2741 
Q 2656 2741 2882 2914 
Q 3109 3088 3109 3444 
Q 3109 3797 2882 3972 
Q 2656 4147 2194 4147 
L 1259 4147 
z
M 628 4666 
L 2241 4666 
Q 2963 4666 3353 4366 
Q 3744 4066 3744 3513 
Q 3744 3084 3544 2831 
Q 3344 2578 2956 2516 
Q 3422 2416 3680 2098 
Q 3938 1781 3938 1306 
Q 3938 681 3513 340 
Q 3088 0 2303 0 
L 628 0 
L 628 4666 
z
" transform="scale(0.015625)"/>
      <path id="DejaVuSans-4d" d="M 628 4666 
L 1569 4666 
L 2759 1491 
L 3956 4666 
L 4897 4666 
L 4897 0 
L 4281 0 
L 4281 4097 
L 3078 897 
L 2444 897 
L 1241 4097 
L 1241 0 
L 628 0 
L 628 4666 
z
" transform="scale(0.015625)"/>
      <path id="DejaVuSans-49" d="M 628 4666 
L 1259 4666 
L 1259 0 
L 628 0 
L 628 4666 
z
" transform="scale(0.015625)"/>
     </defs>
     <use xlink:href="#DejaVuSans-54"/>
     <use xlink:href="#DejaVuSans-65" transform="translate(44.083984 0)"/>
     <use xlink:href="#DejaVuSans-73" transform="translate(105.607422 0)"/>
     <use xlink:href="#DejaVuSans-74" transform="translate(157.707031 0)"/>
     <use xlink:href="#DejaVuSans-3a" transform="translate(196.916016 0)"/>
     <use xlink:href="#DejaVuSans-20" transform="translate(230.607422 0)"/>
     <use xlink:href="#DejaVuSans-73" transform="translate(262.394531 0)"/>
     <use xlink:href="#DejaVuSans-70" transform="translate(314.494141 0)"/>
     <use xlink:href="#DejaVuSans-69" transform="translate(377.970703 0)"/>
     <use xlink:href="#DejaVuSans-6b" transform="translate(405.753906 0)"/>
     <use xlink:href="#DejaVuSans-65" transform="translate(460.039062 0)"/>
     <use xlink:href="#DejaVuSans-20" transform="translate(521.5625 0)"/>
     <use xlink:href="#DejaVuSans-7c" transform="translate(553.349609 0)"/>
     <use xlink:href="#DejaVuSans-20" transform="translate(587.041016 0)"/>
     <use xlink:href="#DejaVuSans-45" transform="translate(618.828125 0)"/>
     <use xlink:href="#DejaVuSans-6e" transform="translate(682.011719 0)"/>
     <use xlink:href="#DejaVuSans-64" transform="translate(745.390625 0)"/>
     <use xlink:href="#DejaVuSans-70" transform="translate(808.867188 0)"/>
     <use xlink:href="#DejaVuSans-6f" transform="translate(872.34375 0)"/>
     <use xlink:href="#DejaVuSans-69" transform="translate(933.525391 0)"/>
     <use xlink:href="#DejaVuSans-6e" transform="translate(961.308594 0)"/>
     <use xlink:href="#DejaVuSans-74" transform="translate(1024.6875 0)"/>
     <use xlink:href="#DejaVuSans-3a" transform="translate(1063.896484 0)"/>
     <use xlink:href="#DejaVuSans-20" transform="translate(1097.587891 0)"/>
     <use xlink:href="#DejaVuSans-47" transform="translate(1129.375 0)"/>
     <use xlink:href="#DejaVuSans-65" transform="translate(1206.865234 0)"/>
     <use xlink:href="#DejaVuSans-74" transform="translate(1268.388672 0)"/>
     <use xlink:href="#DejaVuSans-57" transform="translate(1307.597656 0)"/>
     <use xlink:href="#DejaVuSans-61" transform="translate(1400.099609 0)"/>
     <use xlink:href="#DejaVuSans-79" transform="translate(1461.378906 0)"/>
     <use xlink:href="#DejaVuSans-70" transform="translate(1520.558594 0)"/>
     <use xlink:href="#DejaVuSans-6f" transform="translate(1584.035156 0)"/>
     <use xlink:href="#DejaVuSans-69" transform="translate(1645.216797 0)"/>
     <use xlink:href="#DejaVuSans-6e" transform="translate(1673 0)"/>
     <use xlink:href="#DejaVuSans-74" transform="translate(1736.378906 0)"/>
     <use xlink:href="#DejaVuSans-73" transform="translate(1775.587891 0)"/>
     <use xlink:href="#DejaVuSans-42" transform="translate(1827.6875 0)"/>
     <use xlink:href="#DejaVuSans-79" transform="translate(1896.291016 0)"/>
     <use xlink:href="#DejaVuSans-4d" transform="translate(1955.470703 0)"/>
     <use xlink:href="#DejaVuSans-61" transform="translate(2041.75 0)"/>
     <use xlink:href="#DejaVuSans-70" transform="translate(2103.029297 0)"/>
     <use xlink:href="#DejaVuSans-49" transform="translate(2166.505859 0)"/>
     <use xlink:href="#DejaVuSans-64" transform="translate(2195.998047 0)"/>
    </g>
   </g>
   <g id="legend_1">
    <g id="patch_7">
     <path d="M 57.137685 93.890375 
L 190.481435 93.890375 
Q 192.481435 93.890375 192.481435 91.890375 
L 192.481435 48.856 
Q 192.481435 46.856 190.481435 46.856 
L 57.137685 46.856 
Q 55.137685 46.856 55.137685 48.856 
L 55.137685 91.890375 
Q 55.137685 93.890375 57.137685 93.890375 
z
" style="fill: #ffffff; opacity: 0.8; stroke: #cccccc; stroke-linejoin: miter"/>
    </g>
    <g id="line2d_61">
     <path d="M 59.137685 54.954437 
L 69.137685 54.954437 
L 79.137685 54.954437 
" style="fill: none; stroke: #1f77b4; stroke-width: 1.5; stroke-linecap: square"/>
    </g>
    <g id="text_15">
     <!-- Single Large Results -->
     <g transform="translate(87.137685 58.454437) scale(0.1 -0.1)">
      <defs>
       <path id="DejaVuSans-53" d="M 3425 4513 
L 3425 3897 
Q 3066 4069 2747 4153 
Q 2428 4238 2131 4238 
Q 1616 4238 1336 4038 
Q 1056 3838 1056 3469 
Q 1056 3159 1242 3001 
Q 1428 2844 1947 2747 
L 2328 2669 
Q 3034 2534 3370 2195 
Q 3706 1856 3706 1288 
Q 3706 609 3251 259 
Q 2797 -91 1919 -91 
Q 1588 -91 1214 -16 
Q 841 59 441 206 
L 441 856 
Q 825 641 1194 531 
Q 1563 422 1919 422 
Q 2459 422 2753 634 
Q 3047 847 3047 1241 
Q 3047 1584 2836 1778 
Q 2625 1972 2144 2069 
L 1759 2144 
Q 1053 2284 737 2584 
Q 422 2884 422 3419 
Q 422 4038 858 4394 
Q 1294 4750 2059 4750 
Q 2388 4750 2728 4690 
Q 3069 4631 3425 4513 
z
" transform="scale(0.015625)"/>
       <path id="DejaVuSans-67" d="M 2906 1791 
Q 2906 2416 2648 2759 
Q 2391 3103 1925 3103 
Q 1463 3103 1205 2759 
Q 947 2416 947 1791 
Q 947 1169 1205 825 
Q 1463 481 1925 481 
Q 2391 481 2648 825 
Q 2906 1169 2906 1791 
z
M 3481 434 
Q 3481 -459 3084 -895 
Q 2688 -1331 1869 -1331 
Q 1566 -1331 1297 -1286 
Q 1028 -1241 775 -1147 
L 775 -588 
Q 1028 -725 1275 -790 
Q 1522 -856 1778 -856 
Q 2344 -856 2625 -561 
Q 2906 -266 2906 331 
L 2906 616 
Q 2728 306 2450 153 
Q 2172 0 1784 0 
Q 1141 0 747 490 
Q 353 981 353 1791 
Q 353 2603 747 3093 
Q 1141 3584 1784 3584 
Q 2172 3584 2450 3431 
Q 2728 3278 2906 2969 
L 2906 3500 
L 3481 3500 
L 3481 434 
z
" transform="scale(0.015625)"/>
       <path id="DejaVuSans-4c" d="M 628 4666 
L 1259 4666 
L 1259 531 
L 3531 531 
L 3531 0 
L 628 0 
L 628 4666 
z
" transform="scale(0.015625)"/>
      </defs>
      <use xlink:href="#DejaVuSans-53"/>
      <use xlink:href="#DejaVuSans-69" transform="translate(63.476562 0)"/>
      <use xlink:href="#DejaVuSans-6e" transform="translate(91.259766 0)"/>
      <use xlink:href="#DejaVuSans-67" transform="translate(154.638672 0)"/>
      <use xlink:href="#DejaVuSans-6c" transform="translate(218.115234 0)"/>
      <use xlink:href="#DejaVuSans-65" transform="translate(245.898438 0)"/>
      <use xlink:href="#DejaVuSans-20" transform="translate(307.421875 0)"/>
      <use xlink:href="#DejaVuSans-4c" transform="translate(339.208984 0)"/>
      <use xlink:href="#DejaVuSans-61" transform="translate(394.921875 0)"/>
      <use xlink:href="#DejaVuSans-72" transform="translate(456.201172 0)"/>
      <use xlink:href="#DejaVuSans-67" transform="translate(495.564453 0)"/>
      <use xlink:href="#DejaVuSans-65" transform="translate(559.041016 0)"/>
      <use xlink:href="#DejaVuSans-20" transform="translate(620.564453 0)"/>
      <use xlink:href="#DejaVuSans-52" transform="translate(652.351562 0)"/>
      <use xlink:href="#DejaVuSans-65" transform="translate(717.333984 0)"/>
      <use xlink:href="#DejaVuSans-73" transform="translate(778.857422 0)"/>
      <use xlink:href="#DejaVuSans-75" transform="translate(830.957031 0)"/>
      <use xlink:href="#DejaVuSans-6c" transform="translate(894.335938 0)"/>
      <use xlink:href="#DejaVuSans-74" transform="translate(922.119141 0)"/>
      <use xlink:href="#DejaVuSans-73" transform="translate(961.328125 0)"/>
     </g>
    </g>
    <g id="line2d_62">
     <path d="M 59.137685 69.632562 
L 69.137685 69.632562 
L 79.137685 69.632562 
" style="fill: none; stroke: #ff7f0e; stroke-width: 1.5; stroke-linecap: square"/>
    </g>
    <g id="text_16">
     <!-- Single Small Results -->
     <g transform="translate(87.137685 73.132562) scale(0.1 -0.1)">
      <use xlink:href="#DejaVuSans-53"/>
      <use xlink:href="#DejaVuSans-69" transform="translate(63.476562 0)"/>
      <use xlink:href="#DejaVuSans-6e" transform="translate(91.259766 0)"/>
      <use xlink:href="#DejaVuSans-67" transform="translate(154.638672 0)"/>
      <use xlink:href="#DejaVuSans-6c" transform="translate(218.115234 0)"/>
      <use xlink:href="#DejaVuSans-65" transform="translate(245.898438 0)"/>
      <use xlink:href="#DejaVuSans-20" transform="translate(307.421875 0)"/>
      <use xlink:href="#DejaVuSans-53" transform="translate(339.208984 0)"/>
      <use xlink:href="#DejaVuSans-6d" transform="translate(402.685547 0)"/>
      <use xlink:href="#DejaVuSans-61" transform="translate(500.097656 0)"/>
      <use xlink:href="#DejaVuSans-6c" transform="translate(561.376953 0)"/>
      <use xlink:href="#DejaVuSans-6c" transform="translate(589.160156 0)"/>
      <use xlink:href="#DejaVuSans-20" transform="translate(616.943359 0)"/>
      <use xlink:href="#DejaVuSans-52" transform="translate(648.730469 0)"/>
      <use xlink:href="#DejaVuSans-65" transform="translate(713.712891 0)"/>
      <use xlink:href="#DejaVuSans-73" transform="translate(775.236328 0)"/>
      <use xlink:href="#DejaVuSans-75" transform="translate(827.335938 0)"/>
      <use xlink:href="#DejaVuSans-6c" transform="translate(890.714844 0)"/>
      <use xlink:href="#DejaVuSans-74" transform="translate(918.498047 0)"/>
      <use xlink:href="#DejaVuSans-73" transform="translate(957.707031 0)"/>
     </g>
    </g>
    <g id="line2d_63">
     <path d="M 59.137685 84.310687 
L 69.137685 84.310687 
L 79.137685 84.310687 
" style="fill: none; stroke: #2ca02c; stroke-width: 1.5; stroke-linecap: square"/>
    </g>
    <g id="text_17">
     <!-- Multi Results -->
     <g transform="translate(87.137685 87.810687) scale(0.1 -0.1)">
      <use xlink:href="#DejaVuSans-4d"/>
      <use xlink:href="#DejaVuSans-75" transform="translate(86.279297 0)"/>
      <use xlink:href="#DejaVuSans-6c" transform="translate(149.658203 0)"/>
      <use xlink:href="#DejaVuSans-74" transform="translate(177.441406 0)"/>
      <use xlink:href="#DejaVuSans-69" transform="translate(216.650391 0)"/>
      <use xlink:href="#DejaVuSans-20" transform="translate(244.433594 0)"/>
      <use xlink:href="#DejaVuSans-52" transform="translate(276.220703 0)"/>
      <use xlink:href="#DejaVuSans-65" transform="translate(341.203125 0)"/>
      <use xlink:href="#DejaVuSans-73" transform="translate(402.726562 0)"/>
      <use xlink:href="#DejaVuSans-75" transform="translate(454.826172 0)"/>
      <use xlink:href="#DejaVuSans-6c" transform="translate(518.205078 0)"/>
      <use xlink:href="#DejaVuSans-74" transform="translate(545.988281 0)"/>
      <use xlink:href="#DejaVuSans-73" transform="translate(585.197266 0)"/>
     </g>
    </g>
   </g>
  </g>
 </g>
 <defs>
  <clipPath id="p4a5183c3d4">
   <rect x="50.137685" y="41.856" width="803.062315" height="348.184"/>
  </clipPath>
 </defs>
</svg>
