<?xml version="1.0" encoding="utf-8" standalone="no"?>
<!DOCTYPE svg PUBLIC "-//W3C//DTD SVG 1.1//EN"
  "http://www.w3.org/Graphics/SVG/1.1/DTD/svg11.dtd">
<svg xmlns:xlink="http://www.w3.org/1999/xlink" width="864pt" height="432pt" viewBox="0 0 864 432" xmlns="http://www.w3.org/2000/svg" version="1.1">
 <metadata>
  <rdf:RDF xmlns:dc="http://purl.org/dc/elements/1.1/" xmlns:cc="http://creativecommons.org/ns#" xmlns:rdf="http://www.w3.org/1999/02/22-rdf-syntax-ns#">
   <cc:Work>
    <dc:type rdf:resource="http://purl.org/dc/dcmitype/StillImage"/>
    <dc:date>2025-05-31T16:12:01.759625</dc:date>
    <dc:format>image/svg+xml</dc:format>
    <dc:creator>
     <cc:Agent>
      <dc:title>Matplotlib v3.10.1, https://matplotlib.org/</dc:title>
     </cc:Agent>
    </dc:creator>
   </cc:Work>
  </rdf:RDF>
 </metadata>
 <defs>
  <style type="text/css">*{stroke-linejoin: round; stroke-linecap: butt}</style>
 </defs>
 <g id="figure_1">
  <g id="patch_1">
   <path d="M 0 432 
L 864 432 
L 864 0 
L 0 0 
z
" style="fill: #ffffff"/>
  </g>
  <g id="axes_1">
   <g id="patch_2">
    <path d="M 49.912685 390.04 
L 853.2 390.04 
L 853.2 41.856 
L 49.912685 41.856 
z
" style="fill: #ffffff"/>
   </g>
   <g id="matplotlib.axis_1">
    <g id="xtick_1">
     <g id="line2d_1">
      <defs>
       <path id="m8672da140f" d="M 0 0 
L 0 3.5 
" style="stroke: #000000; stroke-width: 0.8"/>
      </defs>
      <g>
       <use xlink:href="#m8672da140f" x="86.425745" y="390.04" style="stroke: #000000; stroke-width: 0.8"/>
      </g>
     </g>
     <g id="text_1">
      <!-- 0 -->
      <g transform="translate(83.244495 404.638438) scale(0.1 -0.1)">
       <defs>
        <path id="DejaVuSans-30" d="M 2034 4250 
Q 1547 4250 1301 3770 
Q 1056 3291 1056 2328 
Q 1056 1369 1301 889 
Q 1547 409 2034 409 
Q 2525 409 2770 889 
Q 3016 1369 3016 2328 
Q 3016 3291 2770 3770 
Q 2525 4250 2034 4250 
z
M 2034 4750 
Q 2819 4750 3233 4129 
Q 3647 3509 3647 2328 
Q 3647 1150 3233 529 
Q 2819 -91 2034 -91 
Q 1250 -91 836 529 
Q 422 1150 422 2328 
Q 422 3509 836 4129 
Q 1250 4750 2034 4750 
z
" transform="scale(0.015625)"/>
       </defs>
       <use xlink:href="#DejaVuSans-30"/>
      </g>
     </g>
    </g>
    <g id="xtick_2">
     <g id="line2d_2">
      <g>
       <use xlink:href="#m8672da140f" x="187.850911" y="390.04" style="stroke: #000000; stroke-width: 0.8"/>
      </g>
     </g>
     <g id="text_2">
      <!-- 50 -->
      <g transform="translate(181.488411 404.638438) scale(0.1 -0.1)">
       <defs>
        <path id="DejaVuSans-35" d="M 691 4666 
L 3169 4666 
L 3169 4134 
L 1269 4134 
L 1269 2991 
Q 1406 3038 1543 3061 
Q 1681 3084 1819 3084 
Q 2600 3084 3056 2656 
Q 3513 2228 3513 1497 
Q 3513 744 3044 326 
Q 2575 -91 1722 -91 
Q 1428 -91 1123 -41 
Q 819 9 494 109 
L 494 744 
Q 775 591 1075 516 
Q 1375 441 1709 441 
Q 2250 441 2565 725 
Q 2881 1009 2881 1497 
Q 2881 1984 2565 2268 
Q 2250 2553 1709 2553 
Q 1456 2553 1204 2497 
Q 953 2441 691 2322 
L 691 4666 
z
" transform="scale(0.015625)"/>
       </defs>
       <use xlink:href="#DejaVuSans-35"/>
       <use xlink:href="#DejaVuSans-30" transform="translate(63.623047 0)"/>
      </g>
     </g>
    </g>
    <g id="xtick_3">
     <g id="line2d_3">
      <g>
       <use xlink:href="#m8672da140f" x="289.276077" y="390.04" style="stroke: #000000; stroke-width: 0.8"/>
      </g>
     </g>
     <g id="text_3">
      <!-- 100 -->
      <g transform="translate(279.732327 404.638438) scale(0.1 -0.1)">
       <defs>
        <path id="DejaVuSans-31" d="M 794 531 
L 1825 531 
L 1825 4091 
L 703 3866 
L 703 4441 
L 1819 4666 
L 2450 4666 
L 2450 531 
L 3481 531 
L 3481 0 
L 794 0 
L 794 531 
z
" transform="scale(0.015625)"/>
       </defs>
       <use xlink:href="#DejaVuSans-31"/>
       <use xlink:href="#DejaVuSans-30" transform="translate(63.623047 0)"/>
       <use xlink:href="#DejaVuSans-30" transform="translate(127.246094 0)"/>
      </g>
     </g>
    </g>
    <g id="xtick_4">
     <g id="line2d_4">
      <g>
       <use xlink:href="#m8672da140f" x="390.701243" y="390.04" style="stroke: #000000; stroke-width: 0.8"/>
      </g>
     </g>
     <g id="text_4">
      <!-- 150 -->
      <g transform="translate(381.157493 404.638438) scale(0.1 -0.1)">
       <use xlink:href="#DejaVuSans-31"/>
       <use xlink:href="#DejaVuSans-35" transform="translate(63.623047 0)"/>
       <use xlink:href="#DejaVuSans-30" transform="translate(127.246094 0)"/>
      </g>
     </g>
    </g>
    <g id="xtick_5">
     <g id="line2d_5">
      <g>
       <use xlink:href="#m8672da140f" x="492.126409" y="390.04" style="stroke: #000000; stroke-width: 0.8"/>
      </g>
     </g>
     <g id="text_5">
      <!-- 200 -->
      <g transform="translate(482.582659 404.638438) scale(0.1 -0.1)">
       <defs>
        <path id="DejaVuSans-32" d="M 1228 531 
L 3431 531 
L 3431 0 
L 469 0 
L 469 531 
Q 828 903 1448 1529 
Q 2069 2156 2228 2338 
Q 2531 2678 2651 2914 
Q 2772 3150 2772 3378 
Q 2772 3750 2511 3984 
Q 2250 4219 1831 4219 
Q 1534 4219 1204 4116 
Q 875 4013 500 3803 
L 500 4441 
Q 881 4594 1212 4672 
Q 1544 4750 1819 4750 
Q 2544 4750 2975 4387 
Q 3406 4025 3406 3419 
Q 3406 3131 3298 2873 
Q 3191 2616 2906 2266 
Q 2828 2175 2409 1742 
Q 1991 1309 1228 531 
z
" transform="scale(0.015625)"/>
       </defs>
       <use xlink:href="#DejaVuSans-32"/>
       <use xlink:href="#DejaVuSans-30" transform="translate(63.623047 0)"/>
       <use xlink:href="#DejaVuSans-30" transform="translate(127.246094 0)"/>
      </g>
     </g>
    </g>
    <g id="xtick_6">
     <g id="line2d_6">
      <g>
       <use xlink:href="#m8672da140f" x="593.551575" y="390.04" style="stroke: #000000; stroke-width: 0.8"/>
      </g>
     </g>
     <g id="text_6">
      <!-- 250 -->
      <g transform="translate(584.007825 404.638438) scale(0.1 -0.1)">
       <use xlink:href="#DejaVuSans-32"/>
       <use xlink:href="#DejaVuSans-35" transform="translate(63.623047 0)"/>
       <use xlink:href="#DejaVuSans-30" transform="translate(127.246094 0)"/>
      </g>
     </g>
    </g>
    <g id="xtick_7">
     <g id="line2d_7">
      <g>
       <use xlink:href="#m8672da140f" x="694.976741" y="390.04" style="stroke: #000000; stroke-width: 0.8"/>
      </g>
     </g>
     <g id="text_7">
      <!-- 300 -->
      <g transform="translate(685.432991 404.638438) scale(0.1 -0.1)">
       <defs>
        <path id="DejaVuSans-33" d="M 2597 2516 
Q 3050 2419 3304 2112 
Q 3559 1806 3559 1356 
Q 3559 666 3084 287 
Q 2609 -91 1734 -91 
Q 1441 -91 1130 -33 
Q 819 25 488 141 
L 488 750 
Q 750 597 1062 519 
Q 1375 441 1716 441 
Q 2309 441 2620 675 
Q 2931 909 2931 1356 
Q 2931 1769 2642 2001 
Q 2353 2234 1838 2234 
L 1294 2234 
L 1294 2753 
L 1863 2753 
Q 2328 2753 2575 2939 
Q 2822 3125 2822 3475 
Q 2822 3834 2567 4026 
Q 2313 4219 1838 4219 
Q 1578 4219 1281 4162 
Q 984 4106 628 3988 
L 628 4550 
Q 988 4650 1302 4700 
Q 1616 4750 1894 4750 
Q 2613 4750 3031 4423 
Q 3450 4097 3450 3541 
Q 3450 3153 3228 2886 
Q 3006 2619 2597 2516 
z
" transform="scale(0.015625)"/>
       </defs>
       <use xlink:href="#DejaVuSans-33"/>
       <use xlink:href="#DejaVuSans-30" transform="translate(63.623047 0)"/>
       <use xlink:href="#DejaVuSans-30" transform="translate(127.246094 0)"/>
      </g>
     </g>
    </g>
    <g id="xtick_8">
     <g id="line2d_8">
      <g>
       <use xlink:href="#m8672da140f" x="796.401907" y="390.04" style="stroke: #000000; stroke-width: 0.8"/>
      </g>
     </g>
     <g id="text_8">
      <!-- 350 -->
      <g transform="translate(786.858157 404.638438) scale(0.1 -0.1)">
       <use xlink:href="#DejaVuSans-33"/>
       <use xlink:href="#DejaVuSans-35" transform="translate(63.623047 0)"/>
       <use xlink:href="#DejaVuSans-30" transform="translate(127.246094 0)"/>
      </g>
     </g>
    </g>
    <g id="text_9">
     <!-- Timestamp (Seconds) -->
     <g transform="translate(397.151655 418.316562) scale(0.1 -0.1)">
      <defs>
       <path id="DejaVuSans-54" d="M -19 4666 
L 3928 4666 
L 3928 4134 
L 2272 4134 
L 2272 0 
L 1638 0 
L 1638 4134 
L -19 4134 
L -19 4666 
z
" transform="scale(0.015625)"/>
       <path id="DejaVuSans-69" d="M 603 3500 
L 1178 3500 
L 1178 0 
L 603 0 
L 603 3500 
z
M 603 4863 
L 1178 4863 
L 1178 4134 
L 603 4134 
L 603 4863 
z
" transform="scale(0.015625)"/>
       <path id="DejaVuSans-6d" d="M 3328 2828 
Q 3544 3216 3844 3400 
Q 4144 3584 4550 3584 
Q 5097 3584 5394 3201 
Q 5691 2819 5691 2113 
L 5691 0 
L 5113 0 
L 5113 2094 
Q 5113 2597 4934 2840 
Q 4756 3084 4391 3084 
Q 3944 3084 3684 2787 
Q 3425 2491 3425 1978 
L 3425 0 
L 2847 0 
L 2847 2094 
Q 2847 2600 2669 2842 
Q 2491 3084 2119 3084 
Q 1678 3084 1418 2786 
Q 1159 2488 1159 1978 
L 1159 0 
L 581 0 
L 581 3500 
L 1159 3500 
L 1159 2956 
Q 1356 3278 1631 3431 
Q 1906 3584 2284 3584 
Q 2666 3584 2933 3390 
Q 3200 3197 3328 2828 
z
" transform="scale(0.015625)"/>
       <path id="DejaVuSans-65" d="M 3597 1894 
L 3597 1613 
L 953 1613 
Q 991 1019 1311 708 
Q 1631 397 2203 397 
Q 2534 397 2845 478 
Q 3156 559 3463 722 
L 3463 178 
Q 3153 47 2828 -22 
Q 2503 -91 2169 -91 
Q 1331 -91 842 396 
Q 353 884 353 1716 
Q 353 2575 817 3079 
Q 1281 3584 2069 3584 
Q 2775 3584 3186 3129 
Q 3597 2675 3597 1894 
z
M 3022 2063 
Q 3016 2534 2758 2815 
Q 2500 3097 2075 3097 
Q 1594 3097 1305 2825 
Q 1016 2553 972 2059 
L 3022 2063 
z
" transform="scale(0.015625)"/>
       <path id="DejaVuSans-73" d="M 2834 3397 
L 2834 2853 
Q 2591 2978 2328 3040 
Q 2066 3103 1784 3103 
Q 1356 3103 1142 2972 
Q 928 2841 928 2578 
Q 928 2378 1081 2264 
Q 1234 2150 1697 2047 
L 1894 2003 
Q 2506 1872 2764 1633 
Q 3022 1394 3022 966 
Q 3022 478 2636 193 
Q 2250 -91 1575 -91 
Q 1294 -91 989 -36 
Q 684 19 347 128 
L 347 722 
Q 666 556 975 473 
Q 1284 391 1588 391 
Q 1994 391 2212 530 
Q 2431 669 2431 922 
Q 2431 1156 2273 1281 
Q 2116 1406 1581 1522 
L 1381 1569 
Q 847 1681 609 1914 
Q 372 2147 372 2553 
Q 372 3047 722 3315 
Q 1072 3584 1716 3584 
Q 2034 3584 2315 3537 
Q 2597 3491 2834 3397 
z
" transform="scale(0.015625)"/>
       <path id="DejaVuSans-74" d="M 1172 4494 
L 1172 3500 
L 2356 3500 
L 2356 3053 
L 1172 3053 
L 1172 1153 
Q 1172 725 1289 603 
Q 1406 481 1766 481 
L 2356 481 
L 2356 0 
L 1766 0 
Q 1100 0 847 248 
Q 594 497 594 1153 
L 594 3053 
L 172 3053 
L 172 3500 
L 594 3500 
L 594 4494 
L 1172 4494 
z
" transform="scale(0.015625)"/>
       <path id="DejaVuSans-61" d="M 2194 1759 
Q 1497 1759 1228 1600 
Q 959 1441 959 1056 
Q 959 750 1161 570 
Q 1363 391 1709 391 
Q 2188 391 2477 730 
Q 2766 1069 2766 1631 
L 2766 1759 
L 2194 1759 
z
M 3341 1997 
L 3341 0 
L 2766 0 
L 2766 531 
Q 2569 213 2275 61 
Q 1981 -91 1556 -91 
Q 1019 -91 701 211 
Q 384 513 384 1019 
Q 384 1609 779 1909 
Q 1175 2209 1959 2209 
L 2766 2209 
L 2766 2266 
Q 2766 2663 2505 2880 
Q 2244 3097 1772 3097 
Q 1472 3097 1187 3025 
Q 903 2953 641 2809 
L 641 3341 
Q 956 3463 1253 3523 
Q 1550 3584 1831 3584 
Q 2591 3584 2966 3190 
Q 3341 2797 3341 1997 
z
" transform="scale(0.015625)"/>
       <path id="DejaVuSans-70" d="M 1159 525 
L 1159 -1331 
L 581 -1331 
L 581 3500 
L 1159 3500 
L 1159 2969 
Q 1341 3281 1617 3432 
Q 1894 3584 2278 3584 
Q 2916 3584 3314 3078 
Q 3713 2572 3713 1747 
Q 3713 922 3314 415 
Q 2916 -91 2278 -91 
Q 1894 -91 1617 61 
Q 1341 213 1159 525 
z
M 3116 1747 
Q 3116 2381 2855 2742 
Q 2594 3103 2138 3103 
Q 1681 3103 1420 2742 
Q 1159 2381 1159 1747 
Q 1159 1113 1420 752 
Q 1681 391 2138 391 
Q 2594 391 2855 752 
Q 3116 1113 3116 1747 
z
" transform="scale(0.015625)"/>
       <path id="DejaVuSans-20" transform="scale(0.015625)"/>
       <path id="DejaVuSans-28" d="M 1984 4856 
Q 1566 4138 1362 3434 
Q 1159 2731 1159 2009 
Q 1159 1288 1364 580 
Q 1569 -128 1984 -844 
L 1484 -844 
Q 1016 -109 783 600 
Q 550 1309 550 2009 
Q 550 2706 781 3412 
Q 1013 4119 1484 4856 
L 1984 4856 
z
" transform="scale(0.015625)"/>
       <path id="DejaVuSans-53" d="M 3425 4513 
L 3425 3897 
Q 3066 4069 2747 4153 
Q 2428 4238 2131 4238 
Q 1616 4238 1336 4038 
Q 1056 3838 1056 3469 
Q 1056 3159 1242 3001 
Q 1428 2844 1947 2747 
L 2328 2669 
Q 3034 2534 3370 2195 
Q 3706 1856 3706 1288 
Q 3706 609 3251 259 
Q 2797 -91 1919 -91 
Q 1588 -91 1214 -16 
Q 841 59 441 206 
L 441 856 
Q 825 641 1194 531 
Q 1563 422 1919 422 
Q 2459 422 2753 634 
Q 3047 847 3047 1241 
Q 3047 1584 2836 1778 
Q 2625 1972 2144 2069 
L 1759 2144 
Q 1053 2284 737 2584 
Q 422 2884 422 3419 
Q 422 4038 858 4394 
Q 1294 4750 2059 4750 
Q 2388 4750 2728 4690 
Q 3069 4631 3425 4513 
z
" transform="scale(0.015625)"/>
       <path id="DejaVuSans-63" d="M 3122 3366 
L 3122 2828 
Q 2878 2963 2633 3030 
Q 2388 3097 2138 3097 
Q 1578 3097 1268 2742 
Q 959 2388 959 1747 
Q 959 1106 1268 751 
Q 1578 397 2138 397 
Q 2388 397 2633 464 
Q 2878 531 3122 666 
L 3122 134 
Q 2881 22 2623 -34 
Q 2366 -91 2075 -91 
Q 1284 -91 818 406 
Q 353 903 353 1747 
Q 353 2603 823 3093 
Q 1294 3584 2113 3584 
Q 2378 3584 2631 3529 
Q 2884 3475 3122 3366 
z
" transform="scale(0.015625)"/>
       <path id="DejaVuSans-6f" d="M 1959 3097 
Q 1497 3097 1228 2736 
Q 959 2375 959 1747 
Q 959 1119 1226 758 
Q 1494 397 1959 397 
Q 2419 397 2687 759 
Q 2956 1122 2956 1747 
Q 2956 2369 2687 2733 
Q 2419 3097 1959 3097 
z
M 1959 3584 
Q 2709 3584 3137 3096 
Q 3566 2609 3566 1747 
Q 3566 888 3137 398 
Q 2709 -91 1959 -91 
Q 1206 -91 779 398 
Q 353 888 353 1747 
Q 353 2609 779 3096 
Q 1206 3584 1959 3584 
z
" transform="scale(0.015625)"/>
       <path id="DejaVuSans-6e" d="M 3513 2113 
L 3513 0 
L 2938 0 
L 2938 2094 
Q 2938 2591 2744 2837 
Q 2550 3084 2163 3084 
Q 1697 3084 1428 2787 
Q 1159 2491 1159 1978 
L 1159 0 
L 581 0 
L 581 3500 
L 1159 3500 
L 1159 2956 
Q 1366 3272 1645 3428 
Q 1925 3584 2291 3584 
Q 2894 3584 3203 3211 
Q 3513 2838 3513 2113 
z
" transform="scale(0.015625)"/>
       <path id="DejaVuSans-64" d="M 2906 2969 
L 2906 4863 
L 3481 4863 
L 3481 0 
L 2906 0 
L 2906 525 
Q 2725 213 2448 61 
Q 2172 -91 1784 -91 
Q 1150 -91 751 415 
Q 353 922 353 1747 
Q 353 2572 751 3078 
Q 1150 3584 1784 3584 
Q 2172 3584 2448 3432 
Q 2725 3281 2906 2969 
z
M 947 1747 
Q 947 1113 1208 752 
Q 1469 391 1925 391 
Q 2381 391 2643 752 
Q 2906 1113 2906 1747 
Q 2906 2381 2643 2742 
Q 2381 3103 1925 3103 
Q 1469 3103 1208 2742 
Q 947 2381 947 1747 
z
" transform="scale(0.015625)"/>
       <path id="DejaVuSans-29" d="M 513 4856 
L 1013 4856 
Q 1481 4119 1714 3412 
Q 1947 2706 1947 2009 
Q 1947 1309 1714 600 
Q 1481 -109 1013 -844 
L 513 -844 
Q 928 -128 1133 580 
Q 1338 1288 1338 2009 
Q 1338 2731 1133 3434 
Q 928 4138 513 4856 
z
" transform="scale(0.015625)"/>
      </defs>
      <use xlink:href="#DejaVuSans-54"/>
      <use xlink:href="#DejaVuSans-69" transform="translate(57.958984 0)"/>
      <use xlink:href="#DejaVuSans-6d" transform="translate(85.742188 0)"/>
      <use xlink:href="#DejaVuSans-65" transform="translate(183.154297 0)"/>
      <use xlink:href="#DejaVuSans-73" transform="translate(244.677734 0)"/>
      <use xlink:href="#DejaVuSans-74" transform="translate(296.777344 0)"/>
      <use xlink:href="#DejaVuSans-61" transform="translate(335.986328 0)"/>
      <use xlink:href="#DejaVuSans-6d" transform="translate(397.265625 0)"/>
      <use xlink:href="#DejaVuSans-70" transform="translate(494.677734 0)"/>
      <use xlink:href="#DejaVuSans-20" transform="translate(558.154297 0)"/>
      <use xlink:href="#DejaVuSans-28" transform="translate(589.941406 0)"/>
      <use xlink:href="#DejaVuSans-53" transform="translate(628.955078 0)"/>
      <use xlink:href="#DejaVuSans-65" transform="translate(692.431641 0)"/>
      <use xlink:href="#DejaVuSans-63" transform="translate(753.955078 0)"/>
      <use xlink:href="#DejaVuSans-6f" transform="translate(808.935547 0)"/>
      <use xlink:href="#DejaVuSans-6e" transform="translate(870.117188 0)"/>
      <use xlink:href="#DejaVuSans-64" transform="translate(933.496094 0)"/>
      <use xlink:href="#DejaVuSans-73" transform="translate(996.972656 0)"/>
      <use xlink:href="#DejaVuSans-29" transform="translate(1049.072266 0)"/>
     </g>
    </g>
   </g>
   <g id="matplotlib.axis_2">
    <g id="ytick_1">
     <g id="line2d_9">
      <defs>
       <path id="mb8d01b4131" d="M 0 0 
L -3.5 0 
" style="stroke: #000000; stroke-width: 0.8"/>
      </defs>
      <g>
       <use xlink:href="#mb8d01b4131" x="49.912685" y="284.924248" style="stroke: #000000; stroke-width: 0.8"/>
      </g>
     </g>
     <g id="text_10">
      <!-- $\mathdefault{10^{1}}$ -->
      <g transform="translate(25.312685 288.723467) scale(0.1 -0.1)">
       <use xlink:href="#DejaVuSans-31" transform="translate(0 0.684375)"/>
       <use xlink:href="#DejaVuSans-30" transform="translate(63.623047 0.684375)"/>
       <use xlink:href="#DejaVuSans-31" transform="translate(128.203125 38.965625) scale(0.7)"/>
      </g>
     </g>
    </g>
    <g id="ytick_2">
     <g id="line2d_10">
      <g>
       <use xlink:href="#mb8d01b4131" x="49.912685" y="145.185835" style="stroke: #000000; stroke-width: 0.8"/>
      </g>
     </g>
     <g id="text_11">
      <!-- $\mathdefault{10^{2}}$ -->
      <g transform="translate(25.312685 148.985053) scale(0.1 -0.1)">
       <use xlink:href="#DejaVuSans-31" transform="translate(0 0.765625)"/>
       <use xlink:href="#DejaVuSans-30" transform="translate(63.623047 0.765625)"/>
       <use xlink:href="#DejaVuSans-32" transform="translate(128.203125 39.046875) scale(0.7)"/>
      </g>
     </g>
    </g>
    <g id="ytick_3">
     <g id="line2d_11">
      <defs>
       <path id="m6e6526d155" d="M 0 0 
L -2 0 
" style="stroke: #000000; stroke-width: 0.6"/>
      </defs>
      <g>
       <use xlink:href="#m6e6526d155" x="49.912685" y="382.597208" style="stroke: #000000; stroke-width: 0.6"/>
      </g>
     </g>
    </g>
    <g id="ytick_4">
     <g id="line2d_12">
      <g>
       <use xlink:href="#m6e6526d155" x="49.912685" y="357.990495" style="stroke: #000000; stroke-width: 0.6"/>
      </g>
     </g>
    </g>
    <g id="ytick_5">
     <g id="line2d_13">
      <g>
       <use xlink:href="#m6e6526d155" x="49.912685" y="340.531754" style="stroke: #000000; stroke-width: 0.6"/>
      </g>
     </g>
    </g>
    <g id="ytick_6">
     <g id="line2d_14">
      <g>
       <use xlink:href="#m6e6526d155" x="49.912685" y="326.989703" style="stroke: #000000; stroke-width: 0.6"/>
      </g>
     </g>
    </g>
    <g id="ytick_7">
     <g id="line2d_15">
      <g>
       <use xlink:href="#m6e6526d155" x="49.912685" y="315.925041" style="stroke: #000000; stroke-width: 0.6"/>
      </g>
     </g>
    </g>
    <g id="ytick_8">
     <g id="line2d_16">
      <g>
       <use xlink:href="#m6e6526d155" x="49.912685" y="306.570003" style="stroke: #000000; stroke-width: 0.6"/>
      </g>
     </g>
    </g>
    <g id="ytick_9">
     <g id="line2d_17">
      <g>
       <use xlink:href="#m6e6526d155" x="49.912685" y="298.4663" style="stroke: #000000; stroke-width: 0.6"/>
      </g>
     </g>
    </g>
    <g id="ytick_10">
     <g id="line2d_18">
      <g>
       <use xlink:href="#m6e6526d155" x="49.912685" y="291.318328" style="stroke: #000000; stroke-width: 0.6"/>
      </g>
     </g>
    </g>
    <g id="ytick_11">
     <g id="line2d_19">
      <g>
       <use xlink:href="#m6e6526d155" x="49.912685" y="242.858794" style="stroke: #000000; stroke-width: 0.6"/>
      </g>
     </g>
    </g>
    <g id="ytick_12">
     <g id="line2d_20">
      <g>
       <use xlink:href="#m6e6526d155" x="49.912685" y="218.252081" style="stroke: #000000; stroke-width: 0.6"/>
      </g>
     </g>
    </g>
    <g id="ytick_13">
     <g id="line2d_21">
      <g>
       <use xlink:href="#m6e6526d155" x="49.912685" y="200.79334" style="stroke: #000000; stroke-width: 0.6"/>
      </g>
     </g>
    </g>
    <g id="ytick_14">
     <g id="line2d_22">
      <g>
       <use xlink:href="#m6e6526d155" x="49.912685" y="187.251289" style="stroke: #000000; stroke-width: 0.6"/>
      </g>
     </g>
    </g>
    <g id="ytick_15">
     <g id="line2d_23">
      <g>
       <use xlink:href="#m6e6526d155" x="49.912685" y="176.186627" style="stroke: #000000; stroke-width: 0.6"/>
      </g>
     </g>
    </g>
    <g id="ytick_16">
     <g id="line2d_24">
      <g>
       <use xlink:href="#m6e6526d155" x="49.912685" y="166.831589" style="stroke: #000000; stroke-width: 0.6"/>
      </g>
     </g>
    </g>
    <g id="ytick_17">
     <g id="line2d_25">
      <g>
       <use xlink:href="#m6e6526d155" x="49.912685" y="158.727886" style="stroke: #000000; stroke-width: 0.6"/>
      </g>
     </g>
    </g>
    <g id="ytick_18">
     <g id="line2d_26">
      <g>
       <use xlink:href="#m6e6526d155" x="49.912685" y="151.579914" style="stroke: #000000; stroke-width: 0.6"/>
      </g>
     </g>
    </g>
    <g id="ytick_19">
     <g id="line2d_27">
      <g>
       <use xlink:href="#m6e6526d155" x="49.912685" y="103.12038" style="stroke: #000000; stroke-width: 0.6"/>
      </g>
     </g>
    </g>
    <g id="ytick_20">
     <g id="line2d_28">
      <g>
       <use xlink:href="#m6e6526d155" x="49.912685" y="78.513667" style="stroke: #000000; stroke-width: 0.6"/>
      </g>
     </g>
    </g>
    <g id="ytick_21">
     <g id="line2d_29">
      <g>
       <use xlink:href="#m6e6526d155" x="49.912685" y="61.054926" style="stroke: #000000; stroke-width: 0.6"/>
      </g>
     </g>
    </g>
    <g id="ytick_22">
     <g id="line2d_30">
      <g>
       <use xlink:href="#m6e6526d155" x="49.912685" y="47.512875" style="stroke: #000000; stroke-width: 0.6"/>
      </g>
     </g>
    </g>
    <g id="text_12">
     <!-- Avg Duration (ms) -->
     <g transform="translate(19.232997 261.478469) rotate(-90) scale(0.1 -0.1)">
      <defs>
       <path id="DejaVuSans-41" d="M 2188 4044 
L 1331 1722 
L 3047 1722 
L 2188 4044 
z
M 1831 4666 
L 2547 4666 
L 4325 0 
L 3669 0 
L 3244 1197 
L 1141 1197 
L 716 0 
L 50 0 
L 1831 4666 
z
" transform="scale(0.015625)"/>
       <path id="DejaVuSans-76" d="M 191 3500 
L 800 3500 
L 1894 563 
L 2988 3500 
L 3597 3500 
L 2284 0 
L 1503 0 
L 191 3500 
z
" transform="scale(0.015625)"/>
       <path id="DejaVuSans-67" d="M 2906 1791 
Q 2906 2416 2648 2759 
Q 2391 3103 1925 3103 
Q 1463 3103 1205 2759 
Q 947 2416 947 1791 
Q 947 1169 1205 825 
Q 1463 481 1925 481 
Q 2391 481 2648 825 
Q 2906 1169 2906 1791 
z
M 3481 434 
Q 3481 -459 3084 -895 
Q 2688 -1331 1869 -1331 
Q 1566 -1331 1297 -1286 
Q 1028 -1241 775 -1147 
L 775 -588 
Q 1028 -725 1275 -790 
Q 1522 -856 1778 -856 
Q 2344 -856 2625 -561 
Q 2906 -266 2906 331 
L 2906 616 
Q 2728 306 2450 153 
Q 2172 0 1784 0 
Q 1141 0 747 490 
Q 353 981 353 1791 
Q 353 2603 747 3093 
Q 1141 3584 1784 3584 
Q 2172 3584 2450 3431 
Q 2728 3278 2906 2969 
L 2906 3500 
L 3481 3500 
L 3481 434 
z
" transform="scale(0.015625)"/>
       <path id="DejaVuSans-44" d="M 1259 4147 
L 1259 519 
L 2022 519 
Q 2988 519 3436 956 
Q 3884 1394 3884 2338 
Q 3884 3275 3436 3711 
Q 2988 4147 2022 4147 
L 1259 4147 
z
M 628 4666 
L 1925 4666 
Q 3281 4666 3915 4102 
Q 4550 3538 4550 2338 
Q 4550 1131 3912 565 
Q 3275 0 1925 0 
L 628 0 
L 628 4666 
z
" transform="scale(0.015625)"/>
       <path id="DejaVuSans-75" d="M 544 1381 
L 544 3500 
L 1119 3500 
L 1119 1403 
Q 1119 906 1312 657 
Q 1506 409 1894 409 
Q 2359 409 2629 706 
Q 2900 1003 2900 1516 
L 2900 3500 
L 3475 3500 
L 3475 0 
L 2900 0 
L 2900 538 
Q 2691 219 2414 64 
Q 2138 -91 1772 -91 
Q 1169 -91 856 284 
Q 544 659 544 1381 
z
M 1991 3584 
L 1991 3584 
z
" transform="scale(0.015625)"/>
       <path id="DejaVuSans-72" d="M 2631 2963 
Q 2534 3019 2420 3045 
Q 2306 3072 2169 3072 
Q 1681 3072 1420 2755 
Q 1159 2438 1159 1844 
L 1159 0 
L 581 0 
L 581 3500 
L 1159 3500 
L 1159 2956 
Q 1341 3275 1631 3429 
Q 1922 3584 2338 3584 
Q 2397 3584 2469 3576 
Q 2541 3569 2628 3553 
L 2631 2963 
z
" transform="scale(0.015625)"/>
      </defs>
      <use xlink:href="#DejaVuSans-41"/>
      <use xlink:href="#DejaVuSans-76" transform="translate(62.533203 0)"/>
      <use xlink:href="#DejaVuSans-67" transform="translate(121.712891 0)"/>
      <use xlink:href="#DejaVuSans-20" transform="translate(185.189453 0)"/>
      <use xlink:href="#DejaVuSans-44" transform="translate(216.976562 0)"/>
      <use xlink:href="#DejaVuSans-75" transform="translate(293.978516 0)"/>
      <use xlink:href="#DejaVuSans-72" transform="translate(357.357422 0)"/>
      <use xlink:href="#DejaVuSans-61" transform="translate(398.470703 0)"/>
      <use xlink:href="#DejaVuSans-74" transform="translate(459.75 0)"/>
      <use xlink:href="#DejaVuSans-69" transform="translate(498.958984 0)"/>
      <use xlink:href="#DejaVuSans-6f" transform="translate(526.742188 0)"/>
      <use xlink:href="#DejaVuSans-6e" transform="translate(587.923828 0)"/>
      <use xlink:href="#DejaVuSans-20" transform="translate(651.302734 0)"/>
      <use xlink:href="#DejaVuSans-28" transform="translate(683.089844 0)"/>
      <use xlink:href="#DejaVuSans-6d" transform="translate(722.103516 0)"/>
      <use xlink:href="#DejaVuSans-73" transform="translate(819.515625 0)"/>
      <use xlink:href="#DejaVuSans-29" transform="translate(871.615234 0)"/>
     </g>
    </g>
   </g>
   <g id="line2d_31">
    <path d="M 86.425745 346.503454 
L 88.454248 320.917241 
L 90.482751 354.361922 
L 92.511255 362.822294 
L 94.539758 362.257789 
L 96.568261 365.991435 
L 98.596764 367.010277 
L 100.625268 369.864281 
L 102.653771 370.548727 
L 104.682274 368.559526 
L 106.710778 364.193388 
L 108.739281 369.497822 
L 110.767784 365.245506 
L 112.796288 365.470922 
L 114.824791 367.516365 
L 116.853294 370.701534 
L 118.881798 371.466919 
L 120.910301 370.387876 
L 122.938804 372.726768 
L 124.967308 373.031859 
L 126.995811 366.821705 
L 129.024314 370.732009 
L 131.052818 368.65877 
L 133.081321 363.858708 
L 135.109824 369.570906 
L 137.138328 364.788463 
L 139.166831 370.504134 
L 141.195334 366.153744 
L 143.223838 370.29455 
L 145.252341 370.676633 
L 147.280844 369.057194 
L 149.309348 368.84691 
L 151.337851 363.438259 
L 153.366354 370.784885 
L 155.394857 374.213455 
L 157.423361 370.972192 
L 159.451864 371.751569 
L 161.480367 370.916429 
L 163.508871 373.243721 
L 165.537374 370.393552 
L 167.565877 373.307403 
L 169.594381 372.001557 
L 171.622884 368.972551 
L 173.651387 368.537701 
L 175.679891 367.858168 
L 177.708394 371.716734 
L 179.736897 356.602881 
L 181.765401 370.173762 
L 183.793904 366.760096 
L 185.822407 367.542696 
L 187.850911 368.196215 
L 189.879414 371.439651 
L 191.907917 370.445626 
L 193.936421 371.866518 
L 195.964924 369.538828 
L 197.993427 367.883163 
L 200.021931 371.391287 
L 202.050434 372.226767 
L 204.078937 372.057499 
L 206.107441 369.239979 
L 208.135944 359.103797 
L 210.164447 368.124981 
L 212.19295 367.734467 
L 214.221454 371.035692 
L 216.249957 371.355813 
L 218.27846 370.218209 
L 220.306964 369.821237 
L 222.335467 369.827918 
L 226.392474 365.129033 
L 228.420977 364.918359 
L 230.44948 353.265459 
L 232.477984 358.696929 
L 234.506487 361.016574 
L 236.53499 364.008405 
L 238.563494 364.772949 
L 240.591997 358.541913 
L 242.6205 365.807523 
L 244.649004 363.684295 
L 246.677507 365.525036 
L 248.70601 368.850997 
L 250.734514 368.850728 
L 252.763017 365.861156 
L 254.79152 358.058778 
L 256.820024 364.295767 
L 258.848527 365.316582 
L 260.87703 370.278799 
L 262.905534 365.31081 
L 264.934037 368.815934 
L 266.96254 363.207879 
L 268.991043 361.474468 
L 271.019547 369.076782 
L 273.04805 361.22536 
L 275.076553 356.425761 
L 277.105057 367.180728 
L 279.13356 365.522547 
L 281.162063 367.362382 
L 283.190567 365.193398 
L 285.21907 370.874805 
L 287.247573 362.33357 
L 289.276077 367.251927 
L 291.30458 366.177966 
L 293.333083 361.741582 
L 295.361587 365.172357 
L 297.39009 367.180477 
L 299.418593 364.145243 
L 301.447097 365.049589 
L 303.4756 365.540503 
L 305.504103 355.976578 
L 309.56111 366.800991 
L 311.589613 366.127812 
L 313.618117 363.396832 
L 315.64662 360.054107 
L 317.675123 359.776012 
L 319.703626 357.907256 
L 321.73213 363.853094 
L 323.760633 363.002858 
L 325.789136 359.428836 
L 327.81764 57.682545 
L 329.846143 189.572954 
L 331.874646 201.275191 
L 333.90315 265.58422 
L 335.931653 296.535626 
L 337.960156 335.828751 
L 339.98866 329.484545 
L 342.017163 333.641111 
L 344.045666 307.199585 
L 346.07417 317.229578 
L 348.102673 322.186652 
L 350.131176 330.776453 
L 352.15968 317.291984 
L 354.188183 300.805156 
L 356.216686 337.824984 
L 358.24519 334.276892 
L 360.273693 351.129862 
L 362.302196 319.793094 
L 364.3307 323.838324 
L 366.359203 339.43928 
L 368.387706 357.626896 
L 370.41621 333.092499 
L 372.444713 335.919985 
L 374.473216 343.717508 
L 376.501719 350.445904 
L 378.530223 355.684878 
L 380.558726 352.721214 
L 382.587229 346.907321 
L 384.615733 348.218868 
L 386.644236 353.189986 
L 388.672739 333.613904 
L 390.701243 338.038884 
L 392.729746 324.943553 
L 394.758249 339.840357 
L 396.786753 343.019788 
L 398.815256 351.496893 
L 400.843759 336.55033 
L 402.872263 347.911602 
L 404.900766 343.214105 
L 406.929269 340.35006 
L 408.957773 312.806666 
L 410.986276 344.56213 
L 413.014779 347.077859 
L 415.043283 336.580489 
L 417.071786 331.408516 
L 419.100289 339.514049 
L 421.128793 334.444372 
L 423.157296 338.063805 
L 425.185799 323.121954 
L 427.214303 340.13095 
L 429.242806 338.064018 
L 431.271309 346.870567 
L 433.299812 352.161095 
L 435.328316 355.519569 
L 437.356819 349.353672 
L 439.385322 353.923486 
L 441.413826 337.030633 
L 443.442329 350.882321 
L 445.470832 348.739004 
L 447.499336 338.858974 
L 449.527839 354.08393 
L 451.556342 356.79522 
L 453.584846 346.36359 
L 455.613349 344.347541 
L 457.641852 351.247542 
L 459.670356 344.503685 
L 461.698859 355.052779 
L 463.727362 353.695359 
L 465.755866 346.84574 
L 467.784369 353.895542 
L 469.812872 332.019065 
L 471.841376 355.89238 
L 473.869879 341.333777 
L 475.898382 349.056676 
L 477.926886 343.065907 
L 479.955389 349.13235 
L 481.983892 348.475722 
L 484.012396 351.349917 
L 486.040899 337.618969 
L 488.069402 345.933467 
L 490.097905 348.572819 
L 492.126409 346.112004 
L 494.154912 337.726023 
L 496.183415 326.837678 
L 498.211919 334.192127 
L 500.240422 343.919051 
L 502.268925 352.397234 
L 504.297429 349.151014 
L 506.325932 350.105238 
L 508.354435 339.453738 
L 510.382939 349.063547 
L 512.411442 340.028934 
L 514.439945 350.027929 
L 516.468449 329.852562 
L 518.496952 344.007439 
L 520.525455 344.337412 
L 522.553959 311.79482 
L 524.582462 350.299297 
L 526.610965 350.74228 
L 528.639469 342.972957 
L 530.667972 353.167619 
L 532.696475 355.881074 
L 534.724979 347.991169 
L 536.753482 355.834772 
L 538.781985 350.328097 
L 540.810489 356.907486 
L 542.838992 356.428614 
L 544.867495 351.119807 
L 546.895998 352.330857 
L 548.924502 352.866268 
L 550.953005 361.244013 
L 552.981508 359.750055 
L 555.010012 354.777122 
L 557.038515 353.723343 
L 559.067018 353.213681 
L 561.095522 346.018003 
L 563.124025 345.146287 
L 565.152528 351.010463 
L 567.181032 354.194941 
L 569.209535 354.812567 
L 571.238038 340.424029 
L 573.266542 342.513434 
L 575.295045 355.06861 
L 577.323548 344.131503 
L 579.352052 348.373666 
L 581.380555 358.716542 
L 583.409058 350.868664 
L 585.437562 353.514889 
L 587.466065 345.790836 
L 589.494568 342.312779 
L 591.523072 354.673344 
L 593.551575 344.789272 
L 595.580078 348.462682 
L 597.608582 351.710571 
L 599.637085 352.044279 
L 601.665588 354.768193 
L 603.694091 359.788763 
L 605.722595 358.894407 
L 607.751098 350.219293 
L 609.779601 359.944515 
L 611.808105 361.225697 
L 613.836608 359.22416 
L 615.865111 354.450575 
L 617.893615 353.883956 
L 619.922118 358.370428 
L 621.950621 355.079238 
L 623.979125 341.907465 
L 626.007628 350.390183 
L 628.036131 354.818253 
L 630.064635 356.662319 
L 632.093138 362.154425 
L 634.121641 352.407288 
L 636.150145 357.481849 
L 638.178648 343.335475 
L 640.207151 359.301085 
L 642.235655 361.801542 
L 644.264158 358.274566 
L 646.292661 361.698128 
L 648.321165 356.887232 
L 650.349668 352.639541 
L 652.378171 355.76593 
L 654.406675 354.175329 
L 656.435178 358.002655 
L 658.463681 358.596476 
L 660.492184 356.339109 
L 662.520688 361.488626 
L 664.549191 361.286442 
L 666.577694 364.083059 
L 668.606198 355.596119 
L 670.634701 360.048253 
L 672.663204 361.511919 
L 674.691708 358.426226 
L 676.720211 361.870084 
L 678.748714 360.773007 
L 680.777218 361.851037 
L 682.805721 355.367297 
L 684.834224 352.373352 
L 686.862728 359.79391 
L 688.891231 356.533477 
L 690.919734 355.151231 
L 692.948238 350.242004 
L 697.005244 359.585667 
L 699.033748 356.182473 
L 701.062251 351.844097 
L 703.090754 360.500698 
L 705.119258 356.740666 
L 707.147761 363.742716 
L 709.176264 361.825668 
L 711.204768 363.167912 
L 713.233271 362.944343 
L 715.261774 359.526944 
L 717.290277 359.879094 
L 719.318781 364.222074 
L 721.347284 348.0685 
L 723.375787 345.102993 
L 725.404291 357.056942 
L 727.432794 368.336052 
L 729.461297 367.736144 
L 731.489801 360.117481 
L 733.518304 369.562491 
L 735.546807 364.583139 
L 737.575311 366.834386 
L 739.603814 368.591536 
L 741.632317 369.975529 
L 743.660821 365.906686 
L 745.689324 372.280124 
L 747.717827 363.396522 
L 751.774834 369.917556 
L 753.803337 370.891229 
L 755.831841 368.736478 
L 757.860344 371.97793 
L 759.888847 367.846892 
L 761.917351 371.928944 
L 763.945854 362.451545 
L 765.974357 371.276641 
L 768.002861 370.161694 
L 770.031364 370.143568 
L 772.059867 370.628143 
L 774.08837 372.081781 
L 776.116874 367.960677 
L 778.145377 368.982041 
L 780.17388 368.645998 
L 782.202384 368.593594 
L 784.230887 362.484179 
L 786.25939 365.3421 
L 788.287894 365.224653 
L 790.316397 364.782738 
L 792.3449 366.294311 
L 794.373404 370.169603 
L 796.401907 370.569001 
L 798.43041 368.332715 
L 800.458914 365.870707 
L 802.487417 367.90965 
L 804.51592 366.430239 
L 806.544424 359.600403 
L 808.572927 367.357473 
L 810.60143 361.874216 
L 812.629934 368.281685 
L 814.658437 357.889146 
L 816.68694 357.083971 
L 816.68694 357.083971 
" clip-path="url(#p67360de3b7)" style="fill: none; stroke: #1f77b4; stroke-width: 1.5; stroke-linecap: square"/>
   </g>
   <g id="line2d_32">
    <path d="M 86.425745 348.660717 
L 88.454248 354.853212 
L 90.482751 363.935931 
L 92.511255 366.069529 
L 94.539758 352.910019 
L 96.568261 362.695427 
L 98.596764 368.540185 
L 100.625268 366.54235 
L 102.653771 369.355113 
L 106.710778 374.162428 
L 108.739281 370.686398 
L 110.767784 370.258037 
L 112.796288 372.630336 
L 114.824791 362.00763 
L 116.853294 308.188727 
L 118.881798 370.159137 
L 120.910301 353.731493 
L 122.938804 349.089827 
L 124.967308 363.87314 
L 126.995811 330.782334 
L 129.024314 320.420122 
L 131.052818 239.791507 
L 133.081321 263.603147 
L 135.109824 248.678588 
L 137.138328 309.419941 
L 139.166831 334.170393 
L 141.195334 336.14702 
L 143.223838 329.763375 
L 145.252341 326.117971 
L 147.280844 303.179444 
L 149.309348 288.772957 
L 151.337851 290.736532 
L 153.366354 276.522279 
L 155.394857 287.82564 
L 157.423361 204.439718 
L 159.451864 155.532827 
L 161.480367 259.23259 
L 163.508871 241.934546 
L 165.537374 219.149995 
L 167.565877 234.857523 
L 169.594381 202.144233 
L 171.622884 210.468408 
L 173.651387 173.801069 
L 175.679891 159.502816 
L 177.708394 131.755113 
L 179.736897 136.101684 
L 181.765401 170.574006 
L 183.793904 183.72933 
L 185.822407 142.650704 
L 187.850911 164.834134 
L 189.879414 127.369051 
L 191.907917 144.855919 
L 193.936421 140.914599 
L 195.964924 151.266118 
L 197.993427 160.658529 
L 200.021931 127.536225 
L 202.050434 141.653864 
L 204.078937 154.307678 
L 206.107441 116.867973 
L 208.135944 111.685672 
L 210.164447 127.046632 
L 214.221454 143.291216 
L 216.249957 137.06177 
L 218.27846 124.498196 
L 220.306964 126.349579 
L 222.335467 131.430755 
L 224.36397 122.444826 
L 226.392474 117.757044 
L 228.420977 118.458403 
L 230.44948 127.953584 
L 232.477984 108.514185 
L 234.506487 111.922601 
L 236.53499 118.074321 
L 238.563494 109.228267 
L 240.591997 135.663294 
L 242.6205 126.284943 
L 244.649004 106.859519 
L 246.677507 130.460835 
L 248.70601 128.692694 
L 250.734514 129.70892 
L 252.763017 109.351915 
L 256.820024 132.700934 
L 258.848527 116.477765 
L 260.87703 131.067809 
L 262.905534 143.716308 
L 264.934037 137.706513 
L 266.96254 144.735651 
L 268.991043 137.474776 
L 271.019547 141.430392 
L 273.04805 144.70929 
L 275.076553 126.744663 
L 277.105057 134.508968 
L 281.162063 119.609053 
L 283.190567 128.836944 
L 285.21907 122.386772 
L 287.247573 125.108042 
L 289.276077 146.12612 
L 291.30458 91.731563 
L 293.333083 131.384642 
L 295.361587 125.715912 
L 297.39009 135.586358 
L 299.418593 127.186558 
L 301.447097 129.322092 
L 303.4756 124.012026 
L 305.504103 118.048274 
L 307.532607 140.244438 
L 309.56111 132.716295 
L 311.589613 131.548287 
L 313.618117 119.68666 
L 315.64662 132.955609 
L 317.675123 131.013715 
L 319.703626 138.926307 
L 321.73213 133.526945 
L 323.760633 142.211352 
L 325.789136 141.256202 
L 327.81764 139.568571 
L 329.846143 131.819722 
L 331.874646 135.146939 
L 333.90315 124.66723 
L 335.931653 119.887382 
L 337.960156 140.785472 
L 339.98866 146.097941 
L 342.017163 136.120465 
L 344.045666 136.883211 
L 346.07417 159.937183 
L 348.102673 153.644549 
L 350.131176 156.77677 
L 352.15968 154.213354 
L 354.188183 162.955844 
L 356.216686 141.060536 
L 358.24519 148.378956 
L 360.273693 144.760958 
L 362.302196 159.47109 
L 364.3307 152.967045 
L 366.359203 170.608311 
L 368.387706 167.609411 
L 370.41621 162.688214 
L 372.444713 163.814976 
L 374.473216 158.728355 
L 376.501719 157.548091 
L 378.530223 167.289629 
L 380.558726 174.305836 
L 382.587229 202.431962 
L 384.615733 173.753428 
L 386.644236 157.285275 
L 388.672739 169.341302 
L 390.701243 178.910373 
L 392.729746 167.856971 
L 394.758249 179.319206 
L 396.786753 169.208946 
L 398.815256 171.819627 
L 400.843759 206.484736 
L 402.872263 221.130501 
L 404.900766 219.072253 
L 406.929269 223.879672 
L 408.957773 245.4604 
L 410.986276 218.391439 
L 413.014779 256.188608 
L 415.043283 246.376663 
L 417.071786 264.458185 
L 419.100289 221.073228 
L 421.128793 216.798946 
L 423.157296 281.242554 
L 425.185799 209.602602 
L 427.214303 249.485806 
L 429.242806 236.182467 
L 431.271309 207.418979 
L 433.299812 231.250977 
L 435.328316 179.326319 
L 437.356819 198.656799 
L 439.385322 180.250513 
L 441.413826 170.079049 
L 443.442329 206.112055 
L 445.470832 187.854417 
L 447.499336 195.211428 
L 449.527839 284.823676 
L 451.556342 259.427462 
L 453.584846 215.774743 
L 455.613349 205.787705 
L 457.641852 232.839096 
L 459.670356 185.715677 
L 461.698859 257.283865 
L 463.727362 212.11934 
L 465.755866 294.758248 
L 467.784369 242.431839 
L 469.812872 251.01533 
L 471.841376 242.100738 
L 473.869879 237.223781 
L 475.898382 227.808353 
L 477.926886 252.661039 
L 479.955389 233.939122 
L 481.983892 218.657918 
L 484.012396 221.072258 
L 486.040899 200.189837 
L 488.069402 215.024028 
L 490.097905 246.790601 
L 492.126409 250.545031 
L 494.154912 238.744678 
L 496.183415 212.14688 
L 498.211919 222.846223 
L 500.240422 214.077852 
L 502.268925 199.988111 
L 504.297429 277.001828 
L 506.325932 222.480141 
L 508.354435 260.143773 
L 510.382939 270.574931 
L 512.411442 219.053925 
L 514.439945 255.190382 
L 516.468449 268.087329 
L 518.496952 224.800609 
L 520.525455 276.159792 
L 522.553959 192.357061 
L 524.582462 274.45882 
L 526.610965 253.885963 
L 528.639469 274.146397 
L 530.667972 240.330707 
L 532.696475 250.9393 
L 534.724979 218.05344 
L 536.753482 178.73692 
L 538.781985 231.360738 
L 540.810489 227.250833 
L 542.838992 210.513352 
L 544.867495 209.007374 
L 546.895998 242.218823 
L 548.924502 286.749806 
L 550.953005 235.588313 
L 552.981508 206.384734 
L 555.010012 221.280186 
L 557.038515 193.673692 
L 559.067018 157.948556 
L 561.095522 181.532563 
L 563.124025 194.631903 
L 565.152528 261.260535 
L 567.181032 197.322965 
L 569.209535 254.676948 
L 571.238038 243.606168 
L 573.266542 229.525287 
L 575.295045 207.93658 
L 577.323548 207.178476 
L 579.352052 224.269226 
L 581.380555 253.140259 
L 583.409058 224.124435 
L 585.437562 206.360392 
L 587.466065 217.074515 
L 589.494568 266.746212 
L 591.523072 224.067945 
L 593.551575 228.280076 
L 595.580078 263.089035 
L 597.608582 237.990159 
L 599.637085 245.191984 
L 601.665588 241.892624 
L 603.694091 224.561267 
L 605.722595 211.701977 
L 607.751098 205.604455 
L 609.779601 246.333182 
L 611.808105 226.342217 
L 613.836608 227.367711 
L 615.865111 205.723649 
L 617.893615 228.356113 
L 619.922118 184.07776 
L 621.950621 258.052962 
L 623.979125 213.341549 
L 626.007628 215.599087 
L 628.036131 213.478713 
L 630.064635 289.691453 
L 632.093138 237.158111 
L 634.121641 204.769213 
L 636.150145 221.575328 
L 638.178648 206.701428 
L 640.207151 268.672053 
L 642.235655 263.224285 
L 644.264158 212.351147 
L 646.292661 250.250127 
L 648.321165 207.830197 
L 650.349668 229.449695 
L 652.378171 209.085274 
L 654.406675 244.312624 
L 656.435178 255.315023 
L 658.463681 202.20189 
L 660.492184 191.341487 
L 662.520688 267.094586 
L 664.549191 196.431689 
L 666.577694 218.025503 
L 668.606198 215.083236 
L 670.634701 217.908342 
L 672.663204 232.61758 
L 674.691708 263.49287 
L 676.720211 197.55129 
L 678.748714 233.59153 
L 680.777218 200.74969 
L 682.805721 217.096394 
L 684.834224 228.462875 
L 686.862728 215.432075 
L 688.891231 215.150924 
L 690.919734 237.586403 
L 692.948238 217.067818 
L 694.976741 237.252434 
L 697.005244 224.68866 
L 699.033748 226.426791 
L 701.062251 251.500116 
L 703.090754 247.931611 
L 705.119258 263.779063 
L 707.147761 257.006451 
L 709.176264 243.145953 
L 711.204768 316.884319 
L 713.233271 280.966849 
L 715.261774 292.205307 
L 717.290277 302.565679 
L 719.318781 267.304938 
L 721.347284 337.12143 
L 723.375787 302.365172 
L 725.404291 348.604858 
L 727.432794 312.914491 
L 729.461297 299.674743 
L 731.489801 335.468855 
L 733.518304 330.003063 
L 735.546807 349.720448 
L 737.575311 345.134629 
L 739.603814 338.324114 
L 741.632317 348.684736 
L 743.660821 319.566357 
L 745.689324 351.165441 
L 747.717827 365.947151 
L 749.746331 365.193052 
L 751.774834 362.84531 
L 753.803337 362.930881 
L 755.831841 366.108929 
L 757.860344 356.929702 
L 759.888847 365.091602 
L 761.917351 356.216873 
L 763.945854 368.215556 
L 765.974357 366.647133 
L 768.002861 368.37503 
L 770.031364 362.863113 
L 772.059867 370.105696 
L 774.08837 366.388823 
L 776.116874 369.794241 
L 778.145377 368.733925 
L 780.17388 367.006048 
L 782.202384 369.35021 
L 784.230887 367.014999 
L 786.25939 367.113369 
L 788.287894 370.398097 
L 790.316397 369.555746 
L 792.3449 364.800259 
L 794.373404 367.424581 
L 796.401907 368.973081 
L 798.43041 358.17723 
L 800.458914 366.817056 
L 802.487417 368.730999 
L 804.51592 368.312639 
L 806.544424 364.064341 
L 808.572927 366.667928 
L 810.60143 362.911681 
L 812.629934 362.210175 
L 814.658437 356.868196 
L 816.68694 356.852814 
L 816.68694 356.852814 
" clip-path="url(#p67360de3b7)" style="fill: none; stroke: #ff7f0e; stroke-width: 1.5; stroke-linecap: square"/>
   </g>
   <g id="line2d_33">
    <path d="M 86.425745 336.131778 
L 88.454248 340.285332 
L 90.482751 343.776523 
L 92.511255 344.499344 
L 94.539758 344.066754 
L 96.568261 347.573853 
L 98.596764 348.354531 
L 100.625268 343.284002 
L 102.653771 341.729728 
L 104.682274 347.241764 
L 106.710778 344.732013 
L 108.739281 346.16411 
L 110.767784 347.414966 
L 112.796288 346.785024 
L 114.824791 331.703474 
L 116.853294 345.080498 
L 118.881798 340.892837 
L 120.910301 349.564009 
L 122.938804 346.894859 
L 124.967308 332.326361 
L 126.995811 337.129156 
L 129.024314 97.396575 
L 131.052818 300.35869 
L 133.081321 329.71607 
L 135.109824 176.191924 
L 137.138328 303.313544 
L 139.166831 332.103656 
L 141.195334 326.734116 
L 143.223838 327.717266 
L 145.252341 336.450824 
L 147.280844 270.237584 
L 149.309348 338.089068 
L 151.337851 325.622745 
L 153.366354 331.604692 
L 155.394857 342.828674 
L 157.423361 335.13148 
L 159.451864 333.388459 
L 161.480367 295.390772 
L 163.508871 333.661295 
L 165.537374 316.26515 
L 167.565877 257.516831 
L 169.594381 322.111167 
L 171.622884 326.864227 
L 173.651387 326.375958 
L 175.679891 271.243202 
L 177.708394 286.161447 
L 179.736897 332.187891 
L 181.765401 309.897161 
L 183.793904 331.229545 
L 185.822407 303.043602 
L 187.850911 314.298177 
L 189.879414 299.91715 
L 191.907917 300.698937 
L 193.936421 316.101346 
L 195.964924 313.129009 
L 197.993427 312.26846 
L 200.021931 324.681906 
L 202.050434 323.243457 
L 204.078937 306.491307 
L 206.107441 322.436081 
L 208.135944 317.910666 
L 210.164447 287.849757 
L 212.19295 304.568484 
L 214.221454 317.763528 
L 216.249957 308.887037 
L 218.27846 331.32476 
L 220.306964 320.158611 
L 222.335467 323.001254 
L 224.36397 326.829908 
L 226.392474 319.717399 
L 228.420977 334.426196 
L 230.44948 317.753273 
L 232.477984 288.514252 
L 234.506487 316.058039 
L 236.53499 301.467557 
L 238.563494 325.497678 
L 240.591997 309.808413 
L 242.6205 326.449242 
L 244.649004 298.924365 
L 246.677507 325.714734 
L 248.70601 314.087284 
L 250.734514 329.109856 
L 252.763017 316.532702 
L 254.79152 310.976834 
L 256.820024 333.310462 
L 258.848527 302.180968 
L 260.87703 325.305254 
L 262.905534 324.177782 
L 264.934037 309.899219 
L 266.96254 327.327067 
L 268.991043 320.208412 
L 271.019547 334.436302 
L 273.04805 334.156566 
L 275.076553 295.564909 
L 277.105057 327.652959 
L 279.13356 331.449426 
L 281.162063 332.387143 
L 283.190567 329.631714 
L 285.21907 300.078401 
L 287.247573 324.7816 
L 289.276077 323.386551 
L 291.30458 318.403128 
L 293.333083 333.458461 
L 295.361587 327.819042 
L 297.39009 284.896584 
L 299.418593 321.769707 
L 301.447097 329.420856 
L 303.4756 335.516824 
L 305.504103 327.607726 
L 307.532607 331.132336 
L 309.56111 140.234614 
L 311.589613 250.899092 
L 313.618117 257.351003 
L 315.64662 285.597921 
L 317.675123 281.117782 
L 319.703626 301.21249 
L 321.73213 282.236417 
L 323.760633 309.623711 
L 325.789136 319.709334 
L 327.81764 308.222601 
L 329.846143 303.524852 
L 331.874646 312.027424 
L 333.90315 321.286169 
L 335.931653 326.246763 
L 337.960156 319.317161 
L 339.98866 255.999001 
L 342.017163 322.613828 
L 344.045666 312.689177 
L 346.07417 325.770853 
L 348.102673 327.80546 
L 350.131176 316.01657 
L 352.15968 321.735121 
L 354.188183 310.975479 
L 356.216686 323.956454 
L 358.24519 321.736767 
L 360.273693 300.407366 
L 362.302196 291.07013 
L 364.3307 333.510863 
L 366.359203 305.255593 
L 368.387706 326.229776 
L 370.41621 334.611509 
L 372.444713 317.118449 
L 374.473216 333.578999 
L 376.501719 317.442024 
L 378.530223 331.937657 
L 380.558726 325.162082 
L 382.587229 312.392359 
L 384.615733 330.460156 
L 386.644236 315.594026 
L 388.672739 330.34486 
L 390.701243 325.031856 
L 392.729746 322.015648 
L 394.758249 328.596348 
L 396.786753 323.944027 
L 398.815256 323.566892 
L 400.843759 321.276786 
L 402.872263 307.716211 
L 404.900766 296.344155 
L 406.929269 337.011951 
L 408.957773 321.650241 
L 410.986276 318.392991 
L 413.014779 324.015907 
L 415.043283 329.252472 
L 417.071786 329.215396 
L 419.100289 324.485693 
L 421.128793 324.882461 
L 423.157296 338.414162 
L 425.185799 321.548005 
L 427.214303 329.229768 
L 429.242806 323.484564 
L 431.271309 321.181582 
L 433.299812 333.794589 
L 435.328316 325.97693 
L 437.356819 288.544868 
L 439.385322 329.057888 
L 441.413826 320.368324 
L 443.442329 333.387718 
L 445.470832 331.285833 
L 447.499336 308.864287 
L 449.527839 306.013414 
L 451.556342 331.35329 
L 453.584846 322.918061 
L 455.613349 333.527961 
L 457.641852 325.288961 
L 459.670356 344.983507 
L 461.698859 336.927871 
L 463.727362 340.876246 
L 465.755866 338.232351 
L 467.784369 311.999371 
L 469.812872 331.354856 
L 471.841376 345.738427 
L 473.869879 339.820666 
L 475.898382 337.537976 
L 477.926886 334.979715 
L 479.955389 312.559522 
L 481.983892 334.76131 
L 484.012396 336.444197 
L 486.040899 330.833691 
L 488.069402 335.804769 
L 490.097905 300.765781 
L 492.126409 322.785809 
L 494.154912 334.155764 
L 496.183415 330.063174 
L 498.211919 344.131123 
L 500.240422 316.658898 
L 502.268925 330.70485 
L 504.297429 289.703975 
L 506.325932 306.113744 
L 508.354435 330.299057 
L 510.382939 315.53364 
L 512.411442 310.938766 
L 514.439945 333.162858 
L 516.468449 326.738541 
L 518.496952 332.229596 
L 520.525455 253.22904 
L 522.553959 287.510769 
L 524.582462 297.010288 
L 526.610965 308.583819 
L 528.639469 308.278192 
L 530.667972 319.696491 
L 532.696475 264.573837 
L 534.724979 332.335227 
L 536.753482 305.7171 
L 538.781985 326.862911 
L 540.810489 256.140453 
L 542.838992 289.017171 
L 544.867495 294.019822 
L 548.924502 301.628124 
L 550.953005 302.621172 
L 552.981508 303.985905 
L 555.010012 288.937973 
L 557.038515 304.405814 
L 559.067018 274.858037 
L 561.095522 308.612338 
L 563.124025 320.954205 
L 565.152528 136.349896 
L 567.181032 222.449209 
L 569.209535 226.199881 
L 571.238038 169.538317 
L 573.266542 239.139364 
L 575.295045 236.024405 
L 577.323548 248.457409 
L 579.352052 276.002939 
L 581.380555 279.717838 
L 583.409058 297.891269 
L 585.437562 307.443086 
L 587.466065 298.194474 
L 589.494568 326.118699 
L 591.523072 323.336133 
L 593.551575 304.245102 
L 595.580078 326.895971 
L 597.608582 257.065127 
L 599.637085 312.590588 
L 601.665588 306.154153 
L 603.694091 313.591325 
L 605.722595 332.071537 
L 607.751098 291.783075 
L 609.779601 295.36613 
L 611.808105 307.616468 
L 613.836608 330.204889 
L 615.865111 315.81874 
L 617.893615 292.776559 
L 619.922118 294.221951 
L 621.950621 335.496565 
L 623.979125 312.152215 
L 626.007628 323.525258 
L 628.036131 329.831733 
L 630.064635 293.023939 
L 632.093138 321.714304 
L 634.121641 321.11673 
L 636.150145 327.248016 
L 638.178648 311.725497 
L 640.207151 259.020162 
L 642.235655 312.005903 
L 644.264158 316.946052 
L 646.292661 294.587121 
L 648.321165 306.536008 
L 650.349668 308.754163 
L 652.378171 317.533817 
L 654.406675 322.502658 
L 656.435178 316.849412 
L 658.463681 319.335133 
L 660.492184 312.260517 
L 662.520688 282.233006 
L 664.549191 333.451819 
L 666.577694 319.557464 
L 668.606198 321.520874 
L 670.634701 331.260776 
L 672.663204 299.897775 
L 674.691708 314.132017 
L 676.720211 324.809969 
L 678.748714 329.850262 
L 680.777218 336.535436 
L 682.805721 267.932141 
L 684.834224 310.542819 
L 686.862728 301.374041 
L 688.891231 316.728756 
L 690.919734 336.094015 
L 692.948238 308.793679 
L 694.976741 311.792935 
L 697.005244 328.686783 
L 699.033748 333.06026 
L 701.062251 334.508597 
L 703.090754 336.319451 
L 705.119258 259.366772 
L 707.147761 336.101361 
L 709.176264 339.504308 
L 711.204768 332.373953 
L 713.233271 332.885548 
L 715.261774 313.782798 
L 717.290277 336.505301 
L 719.318781 335.959114 
L 721.347284 332.202897 
L 723.375787 342.778155 
L 725.404291 288.075941 
L 727.432794 331.210543 
L 729.461297 339.643366 
L 731.489801 345.909549 
L 733.518304 345.268773 
L 735.546807 345.487659 
L 737.575311 330.184906 
L 739.603814 346.255148 
L 741.632317 344.388967 
L 743.660821 348.002452 
L 745.689324 348.426788 
L 747.717827 296.473002 
L 749.746331 333.331252 
L 751.774834 345.568809 
L 753.803337 348.425674 
L 755.831841 346.16136 
L 757.860344 337.051452 
L 759.888847 339.766532 
L 761.917351 346.935363 
L 763.945854 348.855559 
L 765.974357 348.684777 
L 768.002861 300.318079 
L 770.031364 341.824848 
L 772.059867 347.888331 
L 774.08837 339.616017 
L 776.116874 346.250973 
L 778.145377 348.937888 
L 780.17388 346.813986 
L 782.202384 348.836105 
L 784.230887 343.62743 
L 786.25939 347.164744 
L 788.287894 345.558766 
L 790.316397 281.654866 
L 792.3449 347.182204 
L 794.373404 347.99527 
L 796.401907 348.150657 
L 798.43041 347.61037 
L 800.458914 328.689695 
L 802.487417 346.681585 
L 804.51592 347.206105 
L 806.544424 348.530356 
L 808.572927 344.99994 
L 810.60143 341.043775 
L 812.629934 305.065607 
L 814.658437 346.272706 
L 816.68694 344.755863 
L 816.68694 344.755863 
" clip-path="url(#p67360de3b7)" style="fill: none; stroke: #2ca02c; stroke-width: 1.5; stroke-linecap: square"/>
   </g>
   <g id="patch_3">
    <path d="M 49.912685 390.04 
L 49.912685 41.856 
" style="fill: none; stroke: #000000; stroke-width: 0.8; stroke-linejoin: miter; stroke-linecap: square"/>
   </g>
   <g id="patch_4">
    <path d="M 853.2 390.04 
L 853.2 41.856 
" style="fill: none; stroke: #000000; stroke-width: 0.8; stroke-linejoin: miter; stroke-linecap: square"/>
   </g>
   <g id="patch_5">
    <path d="M 49.912685 390.04 
L 853.2 390.04 
" style="fill: none; stroke: #000000; stroke-width: 0.8; stroke-linejoin: miter; stroke-linecap: square"/>
   </g>
   <g id="patch_6">
    <path d="M 49.912685 41.856 
L 853.2 41.856 
" style="fill: none; stroke: #000000; stroke-width: 0.8; stroke-linejoin: miter; stroke-linecap: square"/>
   </g>
   <g id="text_13">
    <!-- Average HTTP Request Duration Over Time -->
    <g transform="translate(322.484155 22.355625) scale(0.12 -0.12)">
     <defs>
      <path id="DejaVuSans-48" d="M 628 4666 
L 1259 4666 
L 1259 2753 
L 3553 2753 
L 3553 4666 
L 4184 4666 
L 4184 0 
L 3553 0 
L 3553 2222 
L 1259 2222 
L 1259 0 
L 628 0 
L 628 4666 
z
" transform="scale(0.015625)"/>
      <path id="DejaVuSans-50" d="M 1259 4147 
L 1259 2394 
L 2053 2394 
Q 2494 2394 2734 2622 
Q 2975 2850 2975 3272 
Q 2975 3691 2734 3919 
Q 2494 4147 2053 4147 
L 1259 4147 
z
M 628 4666 
L 2053 4666 
Q 2838 4666 3239 4311 
Q 3641 3956 3641 3272 
Q 3641 2581 3239 2228 
Q 2838 1875 2053 1875 
L 1259 1875 
L 1259 0 
L 628 0 
L 628 4666 
z
" transform="scale(0.015625)"/>
      <path id="DejaVuSans-52" d="M 2841 2188 
Q 3044 2119 3236 1894 
Q 3428 1669 3622 1275 
L 4263 0 
L 3584 0 
L 2988 1197 
Q 2756 1666 2539 1819 
Q 2322 1972 1947 1972 
L 1259 1972 
L 1259 0 
L 628 0 
L 628 4666 
L 2053 4666 
Q 2853 4666 3247 4331 
Q 3641 3997 3641 3322 
Q 3641 2881 3436 2590 
Q 3231 2300 2841 2188 
z
M 1259 4147 
L 1259 2491 
L 2053 2491 
Q 2509 2491 2742 2702 
Q 2975 2913 2975 3322 
Q 2975 3731 2742 3939 
Q 2509 4147 2053 4147 
L 1259 4147 
z
" transform="scale(0.015625)"/>
      <path id="DejaVuSans-71" d="M 947 1747 
Q 947 1113 1208 752 
Q 1469 391 1925 391 
Q 2381 391 2643 752 
Q 2906 1113 2906 1747 
Q 2906 2381 2643 2742 
Q 2381 3103 1925 3103 
Q 1469 3103 1208 2742 
Q 947 2381 947 1747 
z
M 2906 525 
Q 2725 213 2448 61 
Q 2172 -91 1784 -91 
Q 1150 -91 751 415 
Q 353 922 353 1747 
Q 353 2572 751 3078 
Q 1150 3584 1784 3584 
Q 2172 3584 2448 3432 
Q 2725 3281 2906 2969 
L 2906 3500 
L 3481 3500 
L 3481 -1331 
L 2906 -1331 
L 2906 525 
z
" transform="scale(0.015625)"/>
      <path id="DejaVuSans-4f" d="M 2522 4238 
Q 1834 4238 1429 3725 
Q 1025 3213 1025 2328 
Q 1025 1447 1429 934 
Q 1834 422 2522 422 
Q 3209 422 3611 934 
Q 4013 1447 4013 2328 
Q 4013 3213 3611 3725 
Q 3209 4238 2522 4238 
z
M 2522 4750 
Q 3503 4750 4090 4092 
Q 4678 3434 4678 2328 
Q 4678 1225 4090 567 
Q 3503 -91 2522 -91 
Q 1538 -91 948 565 
Q 359 1222 359 2328 
Q 359 3434 948 4092 
Q 1538 4750 2522 4750 
z
" transform="scale(0.015625)"/>
     </defs>
     <use xlink:href="#DejaVuSans-41"/>
     <use xlink:href="#DejaVuSans-76" transform="translate(62.533203 0)"/>
     <use xlink:href="#DejaVuSans-65" transform="translate(121.712891 0)"/>
     <use xlink:href="#DejaVuSans-72" transform="translate(183.236328 0)"/>
     <use xlink:href="#DejaVuSans-61" transform="translate(224.349609 0)"/>
     <use xlink:href="#DejaVuSans-67" transform="translate(285.628906 0)"/>
     <use xlink:href="#DejaVuSans-65" transform="translate(349.105469 0)"/>
     <use xlink:href="#DejaVuSans-20" transform="translate(410.628906 0)"/>
     <use xlink:href="#DejaVuSans-48" transform="translate(442.416016 0)"/>
     <use xlink:href="#DejaVuSans-54" transform="translate(517.611328 0)"/>
     <use xlink:href="#DejaVuSans-54" transform="translate(576.945312 0)"/>
     <use xlink:href="#DejaVuSans-50" transform="translate(638.029297 0)"/>
     <use xlink:href="#DejaVuSans-20" transform="translate(698.332031 0)"/>
     <use xlink:href="#DejaVuSans-52" transform="translate(730.119141 0)"/>
     <use xlink:href="#DejaVuSans-65" transform="translate(795.101562 0)"/>
     <use xlink:href="#DejaVuSans-71" transform="translate(856.625 0)"/>
     <use xlink:href="#DejaVuSans-75" transform="translate(920.101562 0)"/>
     <use xlink:href="#DejaVuSans-65" transform="translate(983.480469 0)"/>
     <use xlink:href="#DejaVuSans-73" transform="translate(1045.003906 0)"/>
     <use xlink:href="#DejaVuSans-74" transform="translate(1097.103516 0)"/>
     <use xlink:href="#DejaVuSans-20" transform="translate(1136.3125 0)"/>
     <use xlink:href="#DejaVuSans-44" transform="translate(1168.099609 0)"/>
     <use xlink:href="#DejaVuSans-75" transform="translate(1245.101562 0)"/>
     <use xlink:href="#DejaVuSans-72" transform="translate(1308.480469 0)"/>
     <use xlink:href="#DejaVuSans-61" transform="translate(1349.59375 0)"/>
     <use xlink:href="#DejaVuSans-74" transform="translate(1410.873047 0)"/>
     <use xlink:href="#DejaVuSans-69" transform="translate(1450.082031 0)"/>
     <use xlink:href="#DejaVuSans-6f" transform="translate(1477.865234 0)"/>
     <use xlink:href="#DejaVuSans-6e" transform="translate(1539.046875 0)"/>
     <use xlink:href="#DejaVuSans-20" transform="translate(1602.425781 0)"/>
     <use xlink:href="#DejaVuSans-4f" transform="translate(1634.212891 0)"/>
     <use xlink:href="#DejaVuSans-76" transform="translate(1712.923828 0)"/>
     <use xlink:href="#DejaVuSans-65" transform="translate(1772.103516 0)"/>
     <use xlink:href="#DejaVuSans-72" transform="translate(1833.626953 0)"/>
     <use xlink:href="#DejaVuSans-20" transform="translate(1874.740234 0)"/>
     <use xlink:href="#DejaVuSans-54" transform="translate(1906.527344 0)"/>
     <use xlink:href="#DejaVuSans-69" transform="translate(1964.486328 0)"/>
     <use xlink:href="#DejaVuSans-6d" transform="translate(1992.269531 0)"/>
     <use xlink:href="#DejaVuSans-65" transform="translate(2089.681641 0)"/>
    </g>
    <!-- Test: stress | Endpoint: GetMapById -->
    <g transform="translate(344.990717 35.856) scale(0.12 -0.12)">
     <defs>
      <path id="DejaVuSans-3a" d="M 750 794 
L 1409 794 
L 1409 0 
L 750 0 
L 750 794 
z
M 750 3309 
L 1409 3309 
L 1409 2516 
L 750 2516 
L 750 3309 
z
" transform="scale(0.015625)"/>
      <path id="DejaVuSans-7c" d="M 1344 4891 
L 1344 -1509 
L 813 -1509 
L 813 4891 
L 1344 4891 
z
" transform="scale(0.015625)"/>
      <path id="DejaVuSans-45" d="M 628 4666 
L 3578 4666 
L 3578 4134 
L 1259 4134 
L 1259 2753 
L 3481 2753 
L 3481 2222 
L 1259 2222 
L 1259 531 
L 3634 531 
L 3634 0 
L 628 0 
L 628 4666 
z
" transform="scale(0.015625)"/>
      <path id="DejaVuSans-47" d="M 3809 666 
L 3809 1919 
L 2778 1919 
L 2778 2438 
L 4434 2438 
L 4434 434 
Q 4069 175 3628 42 
Q 3188 -91 2688 -91 
Q 1594 -91 976 548 
Q 359 1188 359 2328 
Q 359 3472 976 4111 
Q 1594 4750 2688 4750 
Q 3144 4750 3555 4637 
Q 3966 4525 4313 4306 
L 4313 3634 
Q 3963 3931 3569 4081 
Q 3175 4231 2741 4231 
Q 1884 4231 1454 3753 
Q 1025 3275 1025 2328 
Q 1025 1384 1454 906 
Q 1884 428 2741 428 
Q 3075 428 3337 486 
Q 3600 544 3809 666 
z
" transform="scale(0.015625)"/>
      <path id="DejaVuSans-4d" d="M 628 4666 
L 1569 4666 
L 2759 1491 
L 3956 4666 
L 4897 4666 
L 4897 0 
L 4281 0 
L 4281 4097 
L 3078 897 
L 2444 897 
L 1241 4097 
L 1241 0 
L 628 0 
L 628 4666 
z
" transform="scale(0.015625)"/>
      <path id="DejaVuSans-42" d="M 1259 2228 
L 1259 519 
L 2272 519 
Q 2781 519 3026 730 
Q 3272 941 3272 1375 
Q 3272 1813 3026 2020 
Q 2781 2228 2272 2228 
L 1259 2228 
z
M 1259 4147 
L 1259 2741 
L 2194 2741 
Q 2656 2741 2882 2914 
Q 3109 3088 3109 3444 
Q 3109 3797 2882 3972 
Q 2656 4147 2194 4147 
L 1259 4147 
z
M 628 4666 
L 2241 4666 
Q 2963 4666 3353 4366 
Q 3744 4066 3744 3513 
Q 3744 3084 3544 2831 
Q 3344 2578 2956 2516 
Q 3422 2416 3680 2098 
Q 3938 1781 3938 1306 
Q 3938 681 3513 340 
Q 3088 0 2303 0 
L 628 0 
L 628 4666 
z
" transform="scale(0.015625)"/>
      <path id="DejaVuSans-79" d="M 2059 -325 
Q 1816 -950 1584 -1140 
Q 1353 -1331 966 -1331 
L 506 -1331 
L 506 -850 
L 844 -850 
Q 1081 -850 1212 -737 
Q 1344 -625 1503 -206 
L 1606 56 
L 191 3500 
L 800 3500 
L 1894 763 
L 2988 3500 
L 3597 3500 
L 2059 -325 
z
" transform="scale(0.015625)"/>
      <path id="DejaVuSans-49" d="M 628 4666 
L 1259 4666 
L 1259 0 
L 628 0 
L 628 4666 
z
" transform="scale(0.015625)"/>
     </defs>
     <use xlink:href="#DejaVuSans-54"/>
     <use xlink:href="#DejaVuSans-65" transform="translate(44.083984 0)"/>
     <use xlink:href="#DejaVuSans-73" transform="translate(105.607422 0)"/>
     <use xlink:href="#DejaVuSans-74" transform="translate(157.707031 0)"/>
     <use xlink:href="#DejaVuSans-3a" transform="translate(196.916016 0)"/>
     <use xlink:href="#DejaVuSans-20" transform="translate(230.607422 0)"/>
     <use xlink:href="#DejaVuSans-73" transform="translate(262.394531 0)"/>
     <use xlink:href="#DejaVuSans-74" transform="translate(314.494141 0)"/>
     <use xlink:href="#DejaVuSans-72" transform="translate(353.703125 0)"/>
     <use xlink:href="#DejaVuSans-65" transform="translate(392.566406 0)"/>
     <use xlink:href="#DejaVuSans-73" transform="translate(454.089844 0)"/>
     <use xlink:href="#DejaVuSans-73" transform="translate(506.189453 0)"/>
     <use xlink:href="#DejaVuSans-20" transform="translate(558.289062 0)"/>
     <use xlink:href="#DejaVuSans-7c" transform="translate(590.076172 0)"/>
     <use xlink:href="#DejaVuSans-20" transform="translate(623.767578 0)"/>
     <use xlink:href="#DejaVuSans-45" transform="translate(655.554688 0)"/>
     <use xlink:href="#DejaVuSans-6e" transform="translate(718.738281 0)"/>
     <use xlink:href="#DejaVuSans-64" transform="translate(782.117188 0)"/>
     <use xlink:href="#DejaVuSans-70" transform="translate(845.59375 0)"/>
     <use xlink:href="#DejaVuSans-6f" transform="translate(909.070312 0)"/>
     <use xlink:href="#DejaVuSans-69" transform="translate(970.251953 0)"/>
     <use xlink:href="#DejaVuSans-6e" transform="translate(998.035156 0)"/>
     <use xlink:href="#DejaVuSans-74" transform="translate(1061.414062 0)"/>
     <use xlink:href="#DejaVuSans-3a" transform="translate(1100.623047 0)"/>
     <use xlink:href="#DejaVuSans-20" transform="translate(1134.314453 0)"/>
     <use xlink:href="#DejaVuSans-47" transform="translate(1166.101562 0)"/>
     <use xlink:href="#DejaVuSans-65" transform="translate(1243.591797 0)"/>
     <use xlink:href="#DejaVuSans-74" transform="translate(1305.115234 0)"/>
     <use xlink:href="#DejaVuSans-4d" transform="translate(1344.324219 0)"/>
     <use xlink:href="#DejaVuSans-61" transform="translate(1430.603516 0)"/>
     <use xlink:href="#DejaVuSans-70" transform="translate(1491.882812 0)"/>
     <use xlink:href="#DejaVuSans-42" transform="translate(1555.359375 0)"/>
     <use xlink:href="#DejaVuSans-79" transform="translate(1623.962891 0)"/>
     <use xlink:href="#DejaVuSans-49" transform="translate(1683.142578 0)"/>
     <use xlink:href="#DejaVuSans-64" transform="translate(1712.634766 0)"/>
    </g>
   </g>
   <g id="legend_1">
    <g id="patch_7">
     <path d="M 712.85625 93.890375 
L 846.2 93.890375 
Q 848.2 93.890375 848.2 91.890375 
L 848.2 48.856 
Q 848.2 46.856 846.2 46.856 
L 712.85625 46.856 
Q 710.85625 46.856 710.85625 48.856 
L 710.85625 91.890375 
Q 710.85625 93.890375 712.85625 93.890375 
z
" style="fill: #ffffff; opacity: 0.8; stroke: #cccccc; stroke-linejoin: miter"/>
    </g>
    <g id="line2d_34">
     <path d="M 714.85625 54.954437 
L 724.85625 54.954437 
L 734.85625 54.954437 
" style="fill: none; stroke: #1f77b4; stroke-width: 1.5; stroke-linecap: square"/>
    </g>
    <g id="text_14">
     <!-- Single Large Results -->
     <g transform="translate(742.85625 58.454437) scale(0.1 -0.1)">
      <defs>
       <path id="DejaVuSans-6c" d="M 603 4863 
L 1178 4863 
L 1178 0 
L 603 0 
L 603 4863 
z
" transform="scale(0.015625)"/>
       <path id="DejaVuSans-4c" d="M 628 4666 
L 1259 4666 
L 1259 531 
L 3531 531 
L 3531 0 
L 628 0 
L 628 4666 
z
" transform="scale(0.015625)"/>
      </defs>
      <use xlink:href="#DejaVuSans-53"/>
      <use xlink:href="#DejaVuSans-69" transform="translate(63.476562 0)"/>
      <use xlink:href="#DejaVuSans-6e" transform="translate(91.259766 0)"/>
      <use xlink:href="#DejaVuSans-67" transform="translate(154.638672 0)"/>
      <use xlink:href="#DejaVuSans-6c" transform="translate(218.115234 0)"/>
      <use xlink:href="#DejaVuSans-65" transform="translate(245.898438 0)"/>
      <use xlink:href="#DejaVuSans-20" transform="translate(307.421875 0)"/>
      <use xlink:href="#DejaVuSans-4c" transform="translate(339.208984 0)"/>
      <use xlink:href="#DejaVuSans-61" transform="translate(394.921875 0)"/>
      <use xlink:href="#DejaVuSans-72" transform="translate(456.201172 0)"/>
      <use xlink:href="#DejaVuSans-67" transform="translate(495.564453 0)"/>
      <use xlink:href="#DejaVuSans-65" transform="translate(559.041016 0)"/>
      <use xlink:href="#DejaVuSans-20" transform="translate(620.564453 0)"/>
      <use xlink:href="#DejaVuSans-52" transform="translate(652.351562 0)"/>
      <use xlink:href="#DejaVuSans-65" transform="translate(717.333984 0)"/>
      <use xlink:href="#DejaVuSans-73" transform="translate(778.857422 0)"/>
      <use xlink:href="#DejaVuSans-75" transform="translate(830.957031 0)"/>
      <use xlink:href="#DejaVuSans-6c" transform="translate(894.335938 0)"/>
      <use xlink:href="#DejaVuSans-74" transform="translate(922.119141 0)"/>
      <use xlink:href="#DejaVuSans-73" transform="translate(961.328125 0)"/>
     </g>
    </g>
    <g id="line2d_35">
     <path d="M 714.85625 69.632562 
L 724.85625 69.632562 
L 734.85625 69.632562 
" style="fill: none; stroke: #ff7f0e; stroke-width: 1.5; stroke-linecap: square"/>
    </g>
    <g id="text_15">
     <!-- Single Small Results -->
     <g transform="translate(742.85625 73.132562) scale(0.1 -0.1)">
      <use xlink:href="#DejaVuSans-53"/>
      <use xlink:href="#DejaVuSans-69" transform="translate(63.476562 0)"/>
      <use xlink:href="#DejaVuSans-6e" transform="translate(91.259766 0)"/>
      <use xlink:href="#DejaVuSans-67" transform="translate(154.638672 0)"/>
      <use xlink:href="#DejaVuSans-6c" transform="translate(218.115234 0)"/>
      <use xlink:href="#DejaVuSans-65" transform="translate(245.898438 0)"/>
      <use xlink:href="#DejaVuSans-20" transform="translate(307.421875 0)"/>
      <use xlink:href="#DejaVuSans-53" transform="translate(339.208984 0)"/>
      <use xlink:href="#DejaVuSans-6d" transform="translate(402.685547 0)"/>
      <use xlink:href="#DejaVuSans-61" transform="translate(500.097656 0)"/>
      <use xlink:href="#DejaVuSans-6c" transform="translate(561.376953 0)"/>
      <use xlink:href="#DejaVuSans-6c" transform="translate(589.160156 0)"/>
      <use xlink:href="#DejaVuSans-20" transform="translate(616.943359 0)"/>
      <use xlink:href="#DejaVuSans-52" transform="translate(648.730469 0)"/>
      <use xlink:href="#DejaVuSans-65" transform="translate(713.712891 0)"/>
      <use xlink:href="#DejaVuSans-73" transform="translate(775.236328 0)"/>
      <use xlink:href="#DejaVuSans-75" transform="translate(827.335938 0)"/>
      <use xlink:href="#DejaVuSans-6c" transform="translate(890.714844 0)"/>
      <use xlink:href="#DejaVuSans-74" transform="translate(918.498047 0)"/>
      <use xlink:href="#DejaVuSans-73" transform="translate(957.707031 0)"/>
     </g>
    </g>
    <g id="line2d_36">
     <path d="M 714.85625 84.310687 
L 724.85625 84.310687 
L 734.85625 84.310687 
" style="fill: none; stroke: #2ca02c; stroke-width: 1.5; stroke-linecap: square"/>
    </g>
    <g id="text_16">
     <!-- Multi Results -->
     <g transform="translate(742.85625 87.810687) scale(0.1 -0.1)">
      <use xlink:href="#DejaVuSans-4d"/>
      <use xlink:href="#DejaVuSans-75" transform="translate(86.279297 0)"/>
      <use xlink:href="#DejaVuSans-6c" transform="translate(149.658203 0)"/>
      <use xlink:href="#DejaVuSans-74" transform="translate(177.441406 0)"/>
      <use xlink:href="#DejaVuSans-69" transform="translate(216.650391 0)"/>
      <use xlink:href="#DejaVuSans-20" transform="translate(244.433594 0)"/>
      <use xlink:href="#DejaVuSans-52" transform="translate(276.220703 0)"/>
      <use xlink:href="#DejaVuSans-65" transform="translate(341.203125 0)"/>
      <use xlink:href="#DejaVuSans-73" transform="translate(402.726562 0)"/>
      <use xlink:href="#DejaVuSans-75" transform="translate(454.826172 0)"/>
      <use xlink:href="#DejaVuSans-6c" transform="translate(518.205078 0)"/>
      <use xlink:href="#DejaVuSans-74" transform="translate(545.988281 0)"/>
      <use xlink:href="#DejaVuSans-73" transform="translate(585.197266 0)"/>
     </g>
    </g>
   </g>
  </g>
 </g>
 <defs>
  <clipPath id="p67360de3b7">
   <rect x="49.912685" y="41.856" width="803.287315" height="348.184"/>
  </clipPath>
 </defs>
</svg>
