<?xml version="1.0" encoding="utf-8" standalone="no"?>
<!DOCTYPE svg PUBLIC "-//W3C//DTD SVG 1.1//EN"
  "http://www.w3.org/Graphics/SVG/1.1/DTD/svg11.dtd">
<svg xmlns:xlink="http://www.w3.org/1999/xlink" width="1008pt" height="288pt" viewBox="0 0 1008 288" xmlns="http://www.w3.org/2000/svg" version="1.1">
 <metadata>
  <rdf:RDF xmlns:dc="http://purl.org/dc/elements/1.1/" xmlns:cc="http://creativecommons.org/ns#" xmlns:rdf="http://www.w3.org/1999/02/22-rdf-syntax-ns#">
   <cc:Work>
    <dc:type rdf:resource="http://purl.org/dc/dcmitype/StillImage"/>
    <dc:date>2025-05-31T22:12:25.706437</dc:date>
    <dc:format>image/svg+xml</dc:format>
    <dc:creator>
     <cc:Agent>
      <dc:title>Matplotlib v3.10.1, https://matplotlib.org/</dc:title>
     </cc:Agent>
    </dc:creator>
   </cc:Work>
  </rdf:RDF>
 </metadata>
 <defs>
  <style type="text/css">*{stroke-linejoin: round; stroke-linecap: butt}</style>
 </defs>
 <g id="figure_1">
  <g id="patch_1">
   <path d="M 0 288 
L 1008 288 
L 1008 0 
L 0 0 
z
" style="fill: #ffffff"/>
  </g>
  <g id="axes_1">
   <g id="patch_2">
    <path d="M 50.002685 246.04 
L 997.2 246.04 
L 997.2 26.88 
L 50.002685 26.88 
z
" style="fill: #ffffff"/>
   </g>
   <g id="matplotlib.axis_1">
    <g id="xtick_1">
     <g id="line2d_1">
      <defs>
       <path id="m4d9732d927" d="M 0 0 
L 0 3.5 
" style="stroke: #000000; stroke-width: 0.8"/>
      </defs>
      <g>
       <use xlink:href="#m4d9732d927" x="93.057108" y="246.04" style="stroke: #000000; stroke-width: 0.8"/>
      </g>
     </g>
     <g id="text_1">
      <!-- 0 -->
      <g transform="translate(89.875858 260.638438) scale(0.1 -0.1)">
       <defs>
        <path id="DejaVuSans-30" d="M 2034 4250 
Q 1547 4250 1301 3770 
Q 1056 3291 1056 2328 
Q 1056 1369 1301 889 
Q 1547 409 2034 409 
Q 2525 409 2770 889 
Q 3016 1369 3016 2328 
Q 3016 3291 2770 3770 
Q 2525 4250 2034 4250 
z
M 2034 4750 
Q 2819 4750 3233 4129 
Q 3647 3509 3647 2328 
Q 3647 1150 3233 529 
Q 2819 -91 2034 -91 
Q 1250 -91 836 529 
Q 422 1150 422 2328 
Q 422 3509 836 4129 
Q 1250 4750 2034 4750 
z
" transform="scale(0.015625)"/>
       </defs>
       <use xlink:href="#DejaVuSans-30"/>
      </g>
     </g>
    </g>
    <g id="xtick_2">
     <g id="line2d_2">
      <g>
       <use xlink:href="#m4d9732d927" x="212.652729" y="246.04" style="stroke: #000000; stroke-width: 0.8"/>
      </g>
     </g>
     <g id="text_2">
      <!-- 50 -->
      <g transform="translate(206.290229 260.638438) scale(0.1 -0.1)">
       <defs>
        <path id="DejaVuSans-35" d="M 691 4666 
L 3169 4666 
L 3169 4134 
L 1269 4134 
L 1269 2991 
Q 1406 3038 1543 3061 
Q 1681 3084 1819 3084 
Q 2600 3084 3056 2656 
Q 3513 2228 3513 1497 
Q 3513 744 3044 326 
Q 2575 -91 1722 -91 
Q 1428 -91 1123 -41 
Q 819 9 494 109 
L 494 744 
Q 775 591 1075 516 
Q 1375 441 1709 441 
Q 2250 441 2565 725 
Q 2881 1009 2881 1497 
Q 2881 1984 2565 2268 
Q 2250 2553 1709 2553 
Q 1456 2553 1204 2497 
Q 953 2441 691 2322 
L 691 4666 
z
" transform="scale(0.015625)"/>
       </defs>
       <use xlink:href="#DejaVuSans-35"/>
       <use xlink:href="#DejaVuSans-30" transform="translate(63.623047 0)"/>
      </g>
     </g>
    </g>
    <g id="xtick_3">
     <g id="line2d_3">
      <g>
       <use xlink:href="#m4d9732d927" x="332.248349" y="246.04" style="stroke: #000000; stroke-width: 0.8"/>
      </g>
     </g>
     <g id="text_3">
      <!-- 100 -->
      <g transform="translate(322.704599 260.638438) scale(0.1 -0.1)">
       <defs>
        <path id="DejaVuSans-31" d="M 794 531 
L 1825 531 
L 1825 4091 
L 703 3866 
L 703 4441 
L 1819 4666 
L 2450 4666 
L 2450 531 
L 3481 531 
L 3481 0 
L 794 0 
L 794 531 
z
" transform="scale(0.015625)"/>
       </defs>
       <use xlink:href="#DejaVuSans-31"/>
       <use xlink:href="#DejaVuSans-30" transform="translate(63.623047 0)"/>
       <use xlink:href="#DejaVuSans-30" transform="translate(127.246094 0)"/>
      </g>
     </g>
    </g>
    <g id="xtick_4">
     <g id="line2d_4">
      <g>
       <use xlink:href="#m4d9732d927" x="451.84397" y="246.04" style="stroke: #000000; stroke-width: 0.8"/>
      </g>
     </g>
     <g id="text_4">
      <!-- 150 -->
      <g transform="translate(442.30022 260.638438) scale(0.1 -0.1)">
       <use xlink:href="#DejaVuSans-31"/>
       <use xlink:href="#DejaVuSans-35" transform="translate(63.623047 0)"/>
       <use xlink:href="#DejaVuSans-30" transform="translate(127.246094 0)"/>
      </g>
     </g>
    </g>
    <g id="xtick_5">
     <g id="line2d_5">
      <g>
       <use xlink:href="#m4d9732d927" x="571.439591" y="246.04" style="stroke: #000000; stroke-width: 0.8"/>
      </g>
     </g>
     <g id="text_5">
      <!-- 200 -->
      <g transform="translate(561.895841 260.638438) scale(0.1 -0.1)">
       <defs>
        <path id="DejaVuSans-32" d="M 1228 531 
L 3431 531 
L 3431 0 
L 469 0 
L 469 531 
Q 828 903 1448 1529 
Q 2069 2156 2228 2338 
Q 2531 2678 2651 2914 
Q 2772 3150 2772 3378 
Q 2772 3750 2511 3984 
Q 2250 4219 1831 4219 
Q 1534 4219 1204 4116 
Q 875 4013 500 3803 
L 500 4441 
Q 881 4594 1212 4672 
Q 1544 4750 1819 4750 
Q 2544 4750 2975 4387 
Q 3406 4025 3406 3419 
Q 3406 3131 3298 2873 
Q 3191 2616 2906 2266 
Q 2828 2175 2409 1742 
Q 1991 1309 1228 531 
z
" transform="scale(0.015625)"/>
       </defs>
       <use xlink:href="#DejaVuSans-32"/>
       <use xlink:href="#DejaVuSans-30" transform="translate(63.623047 0)"/>
       <use xlink:href="#DejaVuSans-30" transform="translate(127.246094 0)"/>
      </g>
     </g>
    </g>
    <g id="xtick_6">
     <g id="line2d_6">
      <g>
       <use xlink:href="#m4d9732d927" x="691.035211" y="246.04" style="stroke: #000000; stroke-width: 0.8"/>
      </g>
     </g>
     <g id="text_6">
      <!-- 250 -->
      <g transform="translate(681.491461 260.638438) scale(0.1 -0.1)">
       <use xlink:href="#DejaVuSans-32"/>
       <use xlink:href="#DejaVuSans-35" transform="translate(63.623047 0)"/>
       <use xlink:href="#DejaVuSans-30" transform="translate(127.246094 0)"/>
      </g>
     </g>
    </g>
    <g id="xtick_7">
     <g id="line2d_7">
      <g>
       <use xlink:href="#m4d9732d927" x="810.630832" y="246.04" style="stroke: #000000; stroke-width: 0.8"/>
      </g>
     </g>
     <g id="text_7">
      <!-- 300 -->
      <g transform="translate(801.087082 260.638438) scale(0.1 -0.1)">
       <defs>
        <path id="DejaVuSans-33" d="M 2597 2516 
Q 3050 2419 3304 2112 
Q 3559 1806 3559 1356 
Q 3559 666 3084 287 
Q 2609 -91 1734 -91 
Q 1441 -91 1130 -33 
Q 819 25 488 141 
L 488 750 
Q 750 597 1062 519 
Q 1375 441 1716 441 
Q 2309 441 2620 675 
Q 2931 909 2931 1356 
Q 2931 1769 2642 2001 
Q 2353 2234 1838 2234 
L 1294 2234 
L 1294 2753 
L 1863 2753 
Q 2328 2753 2575 2939 
Q 2822 3125 2822 3475 
Q 2822 3834 2567 4026 
Q 2313 4219 1838 4219 
Q 1578 4219 1281 4162 
Q 984 4106 628 3988 
L 628 4550 
Q 988 4650 1302 4700 
Q 1616 4750 1894 4750 
Q 2613 4750 3031 4423 
Q 3450 4097 3450 3541 
Q 3450 3153 3228 2886 
Q 3006 2619 2597 2516 
z
" transform="scale(0.015625)"/>
       </defs>
       <use xlink:href="#DejaVuSans-33"/>
       <use xlink:href="#DejaVuSans-30" transform="translate(63.623047 0)"/>
       <use xlink:href="#DejaVuSans-30" transform="translate(127.246094 0)"/>
      </g>
     </g>
    </g>
    <g id="xtick_8">
     <g id="line2d_8">
      <g>
       <use xlink:href="#m4d9732d927" x="930.226452" y="246.04" style="stroke: #000000; stroke-width: 0.8"/>
      </g>
     </g>
     <g id="text_8">
      <!-- 350 -->
      <g transform="translate(920.682702 260.638438) scale(0.1 -0.1)">
       <use xlink:href="#DejaVuSans-33"/>
       <use xlink:href="#DejaVuSans-35" transform="translate(63.623047 0)"/>
       <use xlink:href="#DejaVuSans-30" transform="translate(127.246094 0)"/>
      </g>
     </g>
    </g>
    <g id="text_9">
     <!-- Timestamp (Seconds) -->
     <g transform="translate(469.196655 274.316562) scale(0.1 -0.1)">
      <defs>
       <path id="DejaVuSans-54" d="M -19 4666 
L 3928 4666 
L 3928 4134 
L 2272 4134 
L 2272 0 
L 1638 0 
L 1638 4134 
L -19 4134 
L -19 4666 
z
" transform="scale(0.015625)"/>
       <path id="DejaVuSans-69" d="M 603 3500 
L 1178 3500 
L 1178 0 
L 603 0 
L 603 3500 
z
M 603 4863 
L 1178 4863 
L 1178 4134 
L 603 4134 
L 603 4863 
z
" transform="scale(0.015625)"/>
       <path id="DejaVuSans-6d" d="M 3328 2828 
Q 3544 3216 3844 3400 
Q 4144 3584 4550 3584 
Q 5097 3584 5394 3201 
Q 5691 2819 5691 2113 
L 5691 0 
L 5113 0 
L 5113 2094 
Q 5113 2597 4934 2840 
Q 4756 3084 4391 3084 
Q 3944 3084 3684 2787 
Q 3425 2491 3425 1978 
L 3425 0 
L 2847 0 
L 2847 2094 
Q 2847 2600 2669 2842 
Q 2491 3084 2119 3084 
Q 1678 3084 1418 2786 
Q 1159 2488 1159 1978 
L 1159 0 
L 581 0 
L 581 3500 
L 1159 3500 
L 1159 2956 
Q 1356 3278 1631 3431 
Q 1906 3584 2284 3584 
Q 2666 3584 2933 3390 
Q 3200 3197 3328 2828 
z
" transform="scale(0.015625)"/>
       <path id="DejaVuSans-65" d="M 3597 1894 
L 3597 1613 
L 953 1613 
Q 991 1019 1311 708 
Q 1631 397 2203 397 
Q 2534 397 2845 478 
Q 3156 559 3463 722 
L 3463 178 
Q 3153 47 2828 -22 
Q 2503 -91 2169 -91 
Q 1331 -91 842 396 
Q 353 884 353 1716 
Q 353 2575 817 3079 
Q 1281 3584 2069 3584 
Q 2775 3584 3186 3129 
Q 3597 2675 3597 1894 
z
M 3022 2063 
Q 3016 2534 2758 2815 
Q 2500 3097 2075 3097 
Q 1594 3097 1305 2825 
Q 1016 2553 972 2059 
L 3022 2063 
z
" transform="scale(0.015625)"/>
       <path id="DejaVuSans-73" d="M 2834 3397 
L 2834 2853 
Q 2591 2978 2328 3040 
Q 2066 3103 1784 3103 
Q 1356 3103 1142 2972 
Q 928 2841 928 2578 
Q 928 2378 1081 2264 
Q 1234 2150 1697 2047 
L 1894 2003 
Q 2506 1872 2764 1633 
Q 3022 1394 3022 966 
Q 3022 478 2636 193 
Q 2250 -91 1575 -91 
Q 1294 -91 989 -36 
Q 684 19 347 128 
L 347 722 
Q 666 556 975 473 
Q 1284 391 1588 391 
Q 1994 391 2212 530 
Q 2431 669 2431 922 
Q 2431 1156 2273 1281 
Q 2116 1406 1581 1522 
L 1381 1569 
Q 847 1681 609 1914 
Q 372 2147 372 2553 
Q 372 3047 722 3315 
Q 1072 3584 1716 3584 
Q 2034 3584 2315 3537 
Q 2597 3491 2834 3397 
z
" transform="scale(0.015625)"/>
       <path id="DejaVuSans-74" d="M 1172 4494 
L 1172 3500 
L 2356 3500 
L 2356 3053 
L 1172 3053 
L 1172 1153 
Q 1172 725 1289 603 
Q 1406 481 1766 481 
L 2356 481 
L 2356 0 
L 1766 0 
Q 1100 0 847 248 
Q 594 497 594 1153 
L 594 3053 
L 172 3053 
L 172 3500 
L 594 3500 
L 594 4494 
L 1172 4494 
z
" transform="scale(0.015625)"/>
       <path id="DejaVuSans-61" d="M 2194 1759 
Q 1497 1759 1228 1600 
Q 959 1441 959 1056 
Q 959 750 1161 570 
Q 1363 391 1709 391 
Q 2188 391 2477 730 
Q 2766 1069 2766 1631 
L 2766 1759 
L 2194 1759 
z
M 3341 1997 
L 3341 0 
L 2766 0 
L 2766 531 
Q 2569 213 2275 61 
Q 1981 -91 1556 -91 
Q 1019 -91 701 211 
Q 384 513 384 1019 
Q 384 1609 779 1909 
Q 1175 2209 1959 2209 
L 2766 2209 
L 2766 2266 
Q 2766 2663 2505 2880 
Q 2244 3097 1772 3097 
Q 1472 3097 1187 3025 
Q 903 2953 641 2809 
L 641 3341 
Q 956 3463 1253 3523 
Q 1550 3584 1831 3584 
Q 2591 3584 2966 3190 
Q 3341 2797 3341 1997 
z
" transform="scale(0.015625)"/>
       <path id="DejaVuSans-70" d="M 1159 525 
L 1159 -1331 
L 581 -1331 
L 581 3500 
L 1159 3500 
L 1159 2969 
Q 1341 3281 1617 3432 
Q 1894 3584 2278 3584 
Q 2916 3584 3314 3078 
Q 3713 2572 3713 1747 
Q 3713 922 3314 415 
Q 2916 -91 2278 -91 
Q 1894 -91 1617 61 
Q 1341 213 1159 525 
z
M 3116 1747 
Q 3116 2381 2855 2742 
Q 2594 3103 2138 3103 
Q 1681 3103 1420 2742 
Q 1159 2381 1159 1747 
Q 1159 1113 1420 752 
Q 1681 391 2138 391 
Q 2594 391 2855 752 
Q 3116 1113 3116 1747 
z
" transform="scale(0.015625)"/>
       <path id="DejaVuSans-20" transform="scale(0.015625)"/>
       <path id="DejaVuSans-28" d="M 1984 4856 
Q 1566 4138 1362 3434 
Q 1159 2731 1159 2009 
Q 1159 1288 1364 580 
Q 1569 -128 1984 -844 
L 1484 -844 
Q 1016 -109 783 600 
Q 550 1309 550 2009 
Q 550 2706 781 3412 
Q 1013 4119 1484 4856 
L 1984 4856 
z
" transform="scale(0.015625)"/>
       <path id="DejaVuSans-53" d="M 3425 4513 
L 3425 3897 
Q 3066 4069 2747 4153 
Q 2428 4238 2131 4238 
Q 1616 4238 1336 4038 
Q 1056 3838 1056 3469 
Q 1056 3159 1242 3001 
Q 1428 2844 1947 2747 
L 2328 2669 
Q 3034 2534 3370 2195 
Q 3706 1856 3706 1288 
Q 3706 609 3251 259 
Q 2797 -91 1919 -91 
Q 1588 -91 1214 -16 
Q 841 59 441 206 
L 441 856 
Q 825 641 1194 531 
Q 1563 422 1919 422 
Q 2459 422 2753 634 
Q 3047 847 3047 1241 
Q 3047 1584 2836 1778 
Q 2625 1972 2144 2069 
L 1759 2144 
Q 1053 2284 737 2584 
Q 422 2884 422 3419 
Q 422 4038 858 4394 
Q 1294 4750 2059 4750 
Q 2388 4750 2728 4690 
Q 3069 4631 3425 4513 
z
" transform="scale(0.015625)"/>
       <path id="DejaVuSans-63" d="M 3122 3366 
L 3122 2828 
Q 2878 2963 2633 3030 
Q 2388 3097 2138 3097 
Q 1578 3097 1268 2742 
Q 959 2388 959 1747 
Q 959 1106 1268 751 
Q 1578 397 2138 397 
Q 2388 397 2633 464 
Q 2878 531 3122 666 
L 3122 134 
Q 2881 22 2623 -34 
Q 2366 -91 2075 -91 
Q 1284 -91 818 406 
Q 353 903 353 1747 
Q 353 2603 823 3093 
Q 1294 3584 2113 3584 
Q 2378 3584 2631 3529 
Q 2884 3475 3122 3366 
z
" transform="scale(0.015625)"/>
       <path id="DejaVuSans-6f" d="M 1959 3097 
Q 1497 3097 1228 2736 
Q 959 2375 959 1747 
Q 959 1119 1226 758 
Q 1494 397 1959 397 
Q 2419 397 2687 759 
Q 2956 1122 2956 1747 
Q 2956 2369 2687 2733 
Q 2419 3097 1959 3097 
z
M 1959 3584 
Q 2709 3584 3137 3096 
Q 3566 2609 3566 1747 
Q 3566 888 3137 398 
Q 2709 -91 1959 -91 
Q 1206 -91 779 398 
Q 353 888 353 1747 
Q 353 2609 779 3096 
Q 1206 3584 1959 3584 
z
" transform="scale(0.015625)"/>
       <path id="DejaVuSans-6e" d="M 3513 2113 
L 3513 0 
L 2938 0 
L 2938 2094 
Q 2938 2591 2744 2837 
Q 2550 3084 2163 3084 
Q 1697 3084 1428 2787 
Q 1159 2491 1159 1978 
L 1159 0 
L 581 0 
L 581 3500 
L 1159 3500 
L 1159 2956 
Q 1366 3272 1645 3428 
Q 1925 3584 2291 3584 
Q 2894 3584 3203 3211 
Q 3513 2838 3513 2113 
z
" transform="scale(0.015625)"/>
       <path id="DejaVuSans-64" d="M 2906 2969 
L 2906 4863 
L 3481 4863 
L 3481 0 
L 2906 0 
L 2906 525 
Q 2725 213 2448 61 
Q 2172 -91 1784 -91 
Q 1150 -91 751 415 
Q 353 922 353 1747 
Q 353 2572 751 3078 
Q 1150 3584 1784 3584 
Q 2172 3584 2448 3432 
Q 2725 3281 2906 2969 
z
M 947 1747 
Q 947 1113 1208 752 
Q 1469 391 1925 391 
Q 2381 391 2643 752 
Q 2906 1113 2906 1747 
Q 2906 2381 2643 2742 
Q 2381 3103 1925 3103 
Q 1469 3103 1208 2742 
Q 947 2381 947 1747 
z
" transform="scale(0.015625)"/>
       <path id="DejaVuSans-29" d="M 513 4856 
L 1013 4856 
Q 1481 4119 1714 3412 
Q 1947 2706 1947 2009 
Q 1947 1309 1714 600 
Q 1481 -109 1013 -844 
L 513 -844 
Q 928 -128 1133 580 
Q 1338 1288 1338 2009 
Q 1338 2731 1133 3434 
Q 928 4138 513 4856 
z
" transform="scale(0.015625)"/>
      </defs>
      <use xlink:href="#DejaVuSans-54"/>
      <use xlink:href="#DejaVuSans-69" transform="translate(57.958984 0)"/>
      <use xlink:href="#DejaVuSans-6d" transform="translate(85.742188 0)"/>
      <use xlink:href="#DejaVuSans-65" transform="translate(183.154297 0)"/>
      <use xlink:href="#DejaVuSans-73" transform="translate(244.677734 0)"/>
      <use xlink:href="#DejaVuSans-74" transform="translate(296.777344 0)"/>
      <use xlink:href="#DejaVuSans-61" transform="translate(335.986328 0)"/>
      <use xlink:href="#DejaVuSans-6d" transform="translate(397.265625 0)"/>
      <use xlink:href="#DejaVuSans-70" transform="translate(494.677734 0)"/>
      <use xlink:href="#DejaVuSans-20" transform="translate(558.154297 0)"/>
      <use xlink:href="#DejaVuSans-28" transform="translate(589.941406 0)"/>
      <use xlink:href="#DejaVuSans-53" transform="translate(628.955078 0)"/>
      <use xlink:href="#DejaVuSans-65" transform="translate(692.431641 0)"/>
      <use xlink:href="#DejaVuSans-63" transform="translate(753.955078 0)"/>
      <use xlink:href="#DejaVuSans-6f" transform="translate(808.935547 0)"/>
      <use xlink:href="#DejaVuSans-6e" transform="translate(870.117188 0)"/>
      <use xlink:href="#DejaVuSans-64" transform="translate(933.496094 0)"/>
      <use xlink:href="#DejaVuSans-73" transform="translate(996.972656 0)"/>
      <use xlink:href="#DejaVuSans-29" transform="translate(1049.072266 0)"/>
     </g>
    </g>
   </g>
   <g id="matplotlib.axis_2">
    <g id="ytick_1">
     <g id="line2d_9">
      <defs>
       <path id="m9554d7596c" d="M 0 0 
L -3.5 0 
" style="stroke: #000000; stroke-width: 0.8"/>
      </defs>
      <g>
       <use xlink:href="#m9554d7596c" x="50.002685" y="197.947199" style="stroke: #000000; stroke-width: 0.8"/>
      </g>
     </g>
     <g id="text_10">
      <!-- $\mathdefault{10^{1}}$ -->
      <g transform="translate(25.402685 201.746417) scale(0.1 -0.1)">
       <use xlink:href="#DejaVuSans-31" transform="translate(0 0.684375)"/>
       <use xlink:href="#DejaVuSans-30" transform="translate(63.623047 0.684375)"/>
       <use xlink:href="#DejaVuSans-31" transform="translate(128.203125 38.965625) scale(0.7)"/>
      </g>
     </g>
    </g>
    <g id="ytick_2">
     <g id="line2d_10">
      <g>
       <use xlink:href="#m9554d7596c" x="50.002685" y="132.707474" style="stroke: #000000; stroke-width: 0.8"/>
      </g>
     </g>
     <g id="text_11">
      <!-- $\mathdefault{10^{2}}$ -->
      <g transform="translate(25.402685 136.506693) scale(0.1 -0.1)">
       <use xlink:href="#DejaVuSans-31" transform="translate(0 0.765625)"/>
       <use xlink:href="#DejaVuSans-30" transform="translate(63.623047 0.765625)"/>
       <use xlink:href="#DejaVuSans-32" transform="translate(128.203125 39.046875) scale(0.7)"/>
      </g>
     </g>
    </g>
    <g id="ytick_3">
     <g id="line2d_11">
      <g>
       <use xlink:href="#m9554d7596c" x="50.002685" y="67.46775" style="stroke: #000000; stroke-width: 0.8"/>
      </g>
     </g>
     <g id="text_12">
      <!-- $\mathdefault{10^{3}}$ -->
      <g transform="translate(25.402685 71.266969) scale(0.1 -0.1)">
       <use xlink:href="#DejaVuSans-31" transform="translate(0 0.765625)"/>
       <use xlink:href="#DejaVuSans-30" transform="translate(63.623047 0.765625)"/>
       <use xlink:href="#DejaVuSans-33" transform="translate(128.203125 39.046875) scale(0.7)"/>
      </g>
     </g>
    </g>
    <g id="ytick_4">
     <g id="line2d_12">
      <defs>
       <path id="m72c51d61d5" d="M 0 0 
L -2 0 
" style="stroke: #000000; stroke-width: 0.6"/>
      </defs>
      <g>
       <use xlink:href="#m72c51d61d5" x="50.002685" y="243.547809" style="stroke: #000000; stroke-width: 0.6"/>
      </g>
     </g>
    </g>
    <g id="ytick_5">
     <g id="line2d_13">
      <g>
       <use xlink:href="#m72c51d61d5" x="50.002685" y="232.059664" style="stroke: #000000; stroke-width: 0.6"/>
      </g>
     </g>
    </g>
    <g id="ytick_6">
     <g id="line2d_14">
      <g>
       <use xlink:href="#m72c51d61d5" x="50.002685" y="223.908695" style="stroke: #000000; stroke-width: 0.6"/>
      </g>
     </g>
    </g>
    <g id="ytick_7">
     <g id="line2d_15">
      <g>
       <use xlink:href="#m72c51d61d5" x="50.002685" y="217.586313" style="stroke: #000000; stroke-width: 0.6"/>
      </g>
     </g>
    </g>
    <g id="ytick_8">
     <g id="line2d_16">
      <g>
       <use xlink:href="#m72c51d61d5" x="50.002685" y="212.42055" style="stroke: #000000; stroke-width: 0.6"/>
      </g>
     </g>
    </g>
    <g id="ytick_9">
     <g id="line2d_17">
      <g>
       <use xlink:href="#m72c51d61d5" x="50.002685" y="208.05296" style="stroke: #000000; stroke-width: 0.6"/>
      </g>
     </g>
    </g>
    <g id="ytick_10">
     <g id="line2d_18">
      <g>
       <use xlink:href="#m72c51d61d5" x="50.002685" y="204.269581" style="stroke: #000000; stroke-width: 0.6"/>
      </g>
     </g>
    </g>
    <g id="ytick_11">
     <g id="line2d_19">
      <g>
       <use xlink:href="#m72c51d61d5" x="50.002685" y="200.932405" style="stroke: #000000; stroke-width: 0.6"/>
      </g>
     </g>
    </g>
    <g id="ytick_12">
     <g id="line2d_20">
      <g>
       <use xlink:href="#m72c51d61d5" x="50.002685" y="178.308085" style="stroke: #000000; stroke-width: 0.6"/>
      </g>
     </g>
    </g>
    <g id="ytick_13">
     <g id="line2d_21">
      <g>
       <use xlink:href="#m72c51d61d5" x="50.002685" y="166.81994" style="stroke: #000000; stroke-width: 0.6"/>
      </g>
     </g>
    </g>
    <g id="ytick_14">
     <g id="line2d_22">
      <g>
       <use xlink:href="#m72c51d61d5" x="50.002685" y="158.668971" style="stroke: #000000; stroke-width: 0.6"/>
      </g>
     </g>
    </g>
    <g id="ytick_15">
     <g id="line2d_23">
      <g>
       <use xlink:href="#m72c51d61d5" x="50.002685" y="152.346588" style="stroke: #000000; stroke-width: 0.6"/>
      </g>
     </g>
    </g>
    <g id="ytick_16">
     <g id="line2d_24">
      <g>
       <use xlink:href="#m72c51d61d5" x="50.002685" y="147.180826" style="stroke: #000000; stroke-width: 0.6"/>
      </g>
     </g>
    </g>
    <g id="ytick_17">
     <g id="line2d_25">
      <g>
       <use xlink:href="#m72c51d61d5" x="50.002685" y="142.813236" style="stroke: #000000; stroke-width: 0.6"/>
      </g>
     </g>
    </g>
    <g id="ytick_18">
     <g id="line2d_26">
      <g>
       <use xlink:href="#m72c51d61d5" x="50.002685" y="139.029857" style="stroke: #000000; stroke-width: 0.6"/>
      </g>
     </g>
    </g>
    <g id="ytick_19">
     <g id="line2d_27">
      <g>
       <use xlink:href="#m72c51d61d5" x="50.002685" y="135.69268" style="stroke: #000000; stroke-width: 0.6"/>
      </g>
     </g>
    </g>
    <g id="ytick_20">
     <g id="line2d_28">
      <g>
       <use xlink:href="#m72c51d61d5" x="50.002685" y="113.068361" style="stroke: #000000; stroke-width: 0.6"/>
      </g>
     </g>
    </g>
    <g id="ytick_21">
     <g id="line2d_29">
      <g>
       <use xlink:href="#m72c51d61d5" x="50.002685" y="101.580215" style="stroke: #000000; stroke-width: 0.6"/>
      </g>
     </g>
    </g>
    <g id="ytick_22">
     <g id="line2d_30">
      <g>
       <use xlink:href="#m72c51d61d5" x="50.002685" y="93.429247" style="stroke: #000000; stroke-width: 0.6"/>
      </g>
     </g>
    </g>
    <g id="ytick_23">
     <g id="line2d_31">
      <g>
       <use xlink:href="#m72c51d61d5" x="50.002685" y="87.106864" style="stroke: #000000; stroke-width: 0.6"/>
      </g>
     </g>
    </g>
    <g id="ytick_24">
     <g id="line2d_32">
      <g>
       <use xlink:href="#m72c51d61d5" x="50.002685" y="81.941101" style="stroke: #000000; stroke-width: 0.6"/>
      </g>
     </g>
    </g>
    <g id="ytick_25">
     <g id="line2d_33">
      <g>
       <use xlink:href="#m72c51d61d5" x="50.002685" y="77.573511" style="stroke: #000000; stroke-width: 0.6"/>
      </g>
     </g>
    </g>
    <g id="ytick_26">
     <g id="line2d_34">
      <g>
       <use xlink:href="#m72c51d61d5" x="50.002685" y="73.790133" style="stroke: #000000; stroke-width: 0.6"/>
      </g>
     </g>
    </g>
    <g id="ytick_27">
     <g id="line2d_35">
      <g>
       <use xlink:href="#m72c51d61d5" x="50.002685" y="70.452956" style="stroke: #000000; stroke-width: 0.6"/>
      </g>
     </g>
    </g>
    <g id="ytick_28">
     <g id="line2d_36">
      <g>
       <use xlink:href="#m72c51d61d5" x="50.002685" y="47.828636" style="stroke: #000000; stroke-width: 0.6"/>
      </g>
     </g>
    </g>
    <g id="ytick_29">
     <g id="line2d_37">
      <g>
       <use xlink:href="#m72c51d61d5" x="50.002685" y="36.340491" style="stroke: #000000; stroke-width: 0.6"/>
      </g>
     </g>
    </g>
    <g id="ytick_30">
     <g id="line2d_38">
      <g>
       <use xlink:href="#m72c51d61d5" x="50.002685" y="28.189522" style="stroke: #000000; stroke-width: 0.6"/>
      </g>
     </g>
    </g>
    <g id="text_13">
     <!-- Avg Duration (ms) -->
     <g transform="translate(19.322997 181.990469) rotate(-90) scale(0.1 -0.1)">
      <defs>
       <path id="DejaVuSans-41" d="M 2188 4044 
L 1331 1722 
L 3047 1722 
L 2188 4044 
z
M 1831 4666 
L 2547 4666 
L 4325 0 
L 3669 0 
L 3244 1197 
L 1141 1197 
L 716 0 
L 50 0 
L 1831 4666 
z
" transform="scale(0.015625)"/>
       <path id="DejaVuSans-76" d="M 191 3500 
L 800 3500 
L 1894 563 
L 2988 3500 
L 3597 3500 
L 2284 0 
L 1503 0 
L 191 3500 
z
" transform="scale(0.015625)"/>
       <path id="DejaVuSans-67" d="M 2906 1791 
Q 2906 2416 2648 2759 
Q 2391 3103 1925 3103 
Q 1463 3103 1205 2759 
Q 947 2416 947 1791 
Q 947 1169 1205 825 
Q 1463 481 1925 481 
Q 2391 481 2648 825 
Q 2906 1169 2906 1791 
z
M 3481 434 
Q 3481 -459 3084 -895 
Q 2688 -1331 1869 -1331 
Q 1566 -1331 1297 -1286 
Q 1028 -1241 775 -1147 
L 775 -588 
Q 1028 -725 1275 -790 
Q 1522 -856 1778 -856 
Q 2344 -856 2625 -561 
Q 2906 -266 2906 331 
L 2906 616 
Q 2728 306 2450 153 
Q 2172 0 1784 0 
Q 1141 0 747 490 
Q 353 981 353 1791 
Q 353 2603 747 3093 
Q 1141 3584 1784 3584 
Q 2172 3584 2450 3431 
Q 2728 3278 2906 2969 
L 2906 3500 
L 3481 3500 
L 3481 434 
z
" transform="scale(0.015625)"/>
       <path id="DejaVuSans-44" d="M 1259 4147 
L 1259 519 
L 2022 519 
Q 2988 519 3436 956 
Q 3884 1394 3884 2338 
Q 3884 3275 3436 3711 
Q 2988 4147 2022 4147 
L 1259 4147 
z
M 628 4666 
L 1925 4666 
Q 3281 4666 3915 4102 
Q 4550 3538 4550 2338 
Q 4550 1131 3912 565 
Q 3275 0 1925 0 
L 628 0 
L 628 4666 
z
" transform="scale(0.015625)"/>
       <path id="DejaVuSans-75" d="M 544 1381 
L 544 3500 
L 1119 3500 
L 1119 1403 
Q 1119 906 1312 657 
Q 1506 409 1894 409 
Q 2359 409 2629 706 
Q 2900 1003 2900 1516 
L 2900 3500 
L 3475 3500 
L 3475 0 
L 2900 0 
L 2900 538 
Q 2691 219 2414 64 
Q 2138 -91 1772 -91 
Q 1169 -91 856 284 
Q 544 659 544 1381 
z
M 1991 3584 
L 1991 3584 
z
" transform="scale(0.015625)"/>
       <path id="DejaVuSans-72" d="M 2631 2963 
Q 2534 3019 2420 3045 
Q 2306 3072 2169 3072 
Q 1681 3072 1420 2755 
Q 1159 2438 1159 1844 
L 1159 0 
L 581 0 
L 581 3500 
L 1159 3500 
L 1159 2956 
Q 1341 3275 1631 3429 
Q 1922 3584 2338 3584 
Q 2397 3584 2469 3576 
Q 2541 3569 2628 3553 
L 2631 2963 
z
" transform="scale(0.015625)"/>
      </defs>
      <use xlink:href="#DejaVuSans-41"/>
      <use xlink:href="#DejaVuSans-76" transform="translate(62.533203 0)"/>
      <use xlink:href="#DejaVuSans-67" transform="translate(121.712891 0)"/>
      <use xlink:href="#DejaVuSans-20" transform="translate(185.189453 0)"/>
      <use xlink:href="#DejaVuSans-44" transform="translate(216.976562 0)"/>
      <use xlink:href="#DejaVuSans-75" transform="translate(293.978516 0)"/>
      <use xlink:href="#DejaVuSans-72" transform="translate(357.357422 0)"/>
      <use xlink:href="#DejaVuSans-61" transform="translate(398.470703 0)"/>
      <use xlink:href="#DejaVuSans-74" transform="translate(459.75 0)"/>
      <use xlink:href="#DejaVuSans-69" transform="translate(498.958984 0)"/>
      <use xlink:href="#DejaVuSans-6f" transform="translate(526.742188 0)"/>
      <use xlink:href="#DejaVuSans-6e" transform="translate(587.923828 0)"/>
      <use xlink:href="#DejaVuSans-20" transform="translate(651.302734 0)"/>
      <use xlink:href="#DejaVuSans-28" transform="translate(683.089844 0)"/>
      <use xlink:href="#DejaVuSans-6d" transform="translate(722.103516 0)"/>
      <use xlink:href="#DejaVuSans-73" transform="translate(819.515625 0)"/>
      <use xlink:href="#DejaVuSans-29" transform="translate(871.615234 0)"/>
     </g>
    </g>
   </g>
   <g id="line2d_39">
    <path d="M 93.057108 222.537497 
L 95.449021 228.7907 
L 97.840933 229.417161 
L 100.232845 230.851629 
L 105.01667 232.898118 
L 107.408583 233.493221 
L 109.800495 231.852627 
L 112.192407 232.832178 
L 114.58432 233.528819 
L 116.976232 232.50917 
L 119.368145 232.512983 
L 121.760057 233.213659 
L 124.15197 230.101403 
L 126.543882 233.521777 
L 128.935794 233.039038 
L 131.327707 233.223211 
L 133.719619 232.509594 
L 136.111532 231.997847 
L 140.895356 233.193238 
L 143.287269 232.390392 
L 145.679181 233.107157 
L 148.071094 232.561012 
L 152.854918 232.776471 
L 155.246831 233.564426 
L 160.030656 231.737185 
L 162.422568 232.542176 
L 164.814481 230.133491 
L 169.598305 232.600681 
L 171.990218 233.335385 
L 174.38213 233.402311 
L 176.774043 233.34425 
L 179.165955 232.809452 
L 181.557867 233.230186 
L 183.94978 230.781245 
L 186.341692 232.917165 
L 188.733605 231.101514 
L 191.125517 230.746288 
L 193.517429 232.741161 
L 195.909342 232.465155 
L 198.301254 231.512724 
L 200.693167 232.115345 
L 203.085079 230.854919 
L 205.476992 223.516513 
L 207.868904 232.698532 
L 212.652729 231.770586 
L 215.044641 230.796775 
L 217.436554 231.488629 
L 219.828466 230.772745 
L 222.220378 231.105791 
L 224.612291 231.825547 
L 227.004203 230.889046 
L 229.396116 231.431544 
L 231.788028 230.31413 
L 234.179941 232.091589 
L 236.571853 231.59747 
L 238.963765 231.384228 
L 241.355678 230.624389 
L 243.74759 231.642391 
L 246.139503 231.014615 
L 248.531415 230.689635 
L 250.923327 230.687552 
L 253.31524 231.998209 
L 255.707152 231.752893 
L 258.099065 231.02546 
L 260.490977 231.351935 
L 267.666714 229.182601 
L 270.058627 230.597781 
L 272.450539 229.373642 
L 274.842452 230.440766 
L 277.234364 230.995578 
L 279.626276 231.055793 
L 282.018189 228.575662 
L 284.410101 228.981888 
L 286.802014 229.072885 
L 289.193926 231.760622 
L 291.585838 227.794966 
L 293.977751 230.774302 
L 296.369663 229.1764 
L 298.761576 230.101319 
L 301.153488 226.567932 
L 303.5454 228.662995 
L 305.937313 225.698717 
L 308.329225 228.678572 
L 310.721138 228.583599 
L 313.11305 229.013639 
L 315.504963 227.518757 
L 317.896875 229.636278 
L 320.288787 227.527831 
L 322.6807 228.238057 
L 325.072612 227.441894 
L 327.464525 228.684828 
L 329.856437 228.6275 
L 332.248349 227.782842 
L 334.640262 228.551707 
L 337.032174 227.914448 
L 339.424087 227.623747 
L 341.815999 223.976019 
L 344.207911 228.546461 
L 346.599824 226.778514 
L 348.991736 228.659918 
L 351.383649 222.656387 
L 353.775561 226.802146 
L 356.167474 220.879851 
L 358.559386 214.37545 
L 360.951298 227.020653 
L 363.343211 226.769763 
L 365.735123 219.812787 
L 368.127036 224.620674 
L 370.518948 223.483512 
L 372.91086 223.921973 
L 375.302773 223.756133 
L 377.694685 224.094192 
L 380.086598 225.150612 
L 382.47851 224.81395 
L 384.870422 221.914234 
L 387.262335 226.090939 
L 389.654247 224.240112 
L 392.04616 223.045774 
L 394.438072 224.226337 
L 396.829985 224.363554 
L 399.221897 220.516918 
L 401.613809 221.579825 
L 404.005722 224.510786 
L 406.397634 226.818045 
L 408.789547 225.205583 
L 411.181459 221.522876 
L 413.573371 222.48132 
L 415.965284 226.630964 
L 418.357196 222.226399 
L 420.749109 228.155459 
L 423.141021 225.425308 
L 425.532933 224.340003 
L 427.924846 225.800192 
L 430.316758 222.945223 
L 432.708671 227.19188 
L 435.100583 225.960296 
L 437.492496 225.519691 
L 439.884408 225.730883 
L 442.27632 227.506172 
L 444.668233 223.457892 
L 447.060145 226.819834 
L 449.452058 226.688529 
L 451.84397 228.474687 
L 454.235882 226.027815 
L 456.627795 227.897551 
L 459.019707 225.846969 
L 461.41162 226.001524 
L 463.803532 227.460835 
L 466.195444 226.647373 
L 468.587357 223.976663 
L 470.979269 227.124809 
L 473.371182 225.4203 
L 475.763094 221.492665 
L 478.155007 225.726653 
L 480.546919 227.203336 
L 482.938831 215.086245 
L 485.330744 224.323212 
L 487.722656 223.755385 
L 490.114569 216.701687 
L 492.506481 219.429445 
L 494.898393 220.824591 
L 497.290306 225.588392 
L 499.682218 225.096571 
L 502.074131 220.313439 
L 504.466043 224.317844 
L 506.857955 215.803873 
L 509.249868 224.121026 
L 511.64178 221.512614 
L 514.033693 221.658555 
L 516.425605 224.946731 
L 518.817518 222.649646 
L 521.20943 227.119094 
L 523.601342 218.571005 
L 525.993255 224.498193 
L 528.385167 223.230888 
L 530.77708 219.819146 
L 533.168992 226.276506 
L 535.560904 222.3144 
L 537.952817 224.73127 
L 540.344729 225.738347 
L 542.736642 214.437337 
L 545.128554 225.940252 
L 547.520467 225.136919 
L 549.912379 226.828945 
L 552.304291 224.785373 
L 554.696204 226.216946 
L 557.088116 221.468682 
L 559.480029 223.457074 
L 561.871941 228.703057 
L 564.263853 224.697001 
L 566.655766 226.6813 
L 569.047678 227.020598 
L 571.439591 226.793501 
L 573.831503 221.695739 
L 578.615328 228.62511 
L 581.00724 226.658254 
L 583.399153 214.080305 
L 585.791065 225.816183 
L 588.182978 227.248037 
L 590.57489 208.446165 
L 592.966802 223.687117 
L 595.358715 221.170654 
L 597.750627 219.410498 
L 600.14254 224.706446 
L 602.534452 224.86125 
L 604.926364 224.261834 
L 607.318277 224.13777 
L 609.710189 221.073971 
L 612.102102 213.955046 
L 614.494014 218.024548 
L 616.885926 222.41354 
L 619.277839 219.673849 
L 621.669751 222.116501 
L 624.061664 222.725547 
L 626.453576 220.024053 
L 628.845489 217.655184 
L 631.237401 219.906989 
L 633.629313 221.979104 
L 636.021226 219.359739 
L 638.413138 213.743733 
L 640.805051 220.84517 
L 643.196963 223.359827 
L 645.588875 220.029388 
L 647.980788 221.57162 
L 650.3727 222.943391 
L 652.764613 222.536045 
L 655.156525 216.675411 
L 657.548437 223.782934 
L 659.94035 216.974888 
L 662.332262 219.527429 
L 664.724175 212.776569 
L 667.116087 221.310252 
L 669.508 211.87565 
L 671.899912 219.794932 
L 674.291824 222.229536 
L 676.683737 223.646263 
L 679.075649 223.331194 
L 681.467562 220.377149 
L 683.859474 225.03964 
L 686.251386 221.129297 
L 688.643299 220.662415 
L 691.035211 225.218942 
L 693.427124 223.270295 
L 695.819036 223.110605 
L 698.210948 221.558693 
L 700.602861 219.24738 
L 702.994773 225.267972 
L 705.386686 217.575447 
L 707.778598 223.129969 
L 710.170511 224.744878 
L 712.562423 222.963462 
L 714.954335 225.855155 
L 717.346248 227.56985 
L 719.73816 225.517603 
L 722.130073 227.981348 
L 724.521985 226.306864 
L 726.913897 223.756669 
L 729.30581 222.481436 
L 731.697722 223.443599 
L 734.089635 225.119466 
L 736.481547 226.491762 
L 738.873459 227.059612 
L 741.265372 226.508259 
L 743.657284 226.760382 
L 746.049197 226.29283 
L 748.441109 228.478947 
L 750.833022 224.772969 
L 753.224934 223.255257 
L 755.616846 224.121947 
L 758.008759 225.51007 
L 760.400671 225.916438 
L 762.792584 226.701497 
L 765.184496 227.318433 
L 767.576408 228.48782 
L 769.968321 227.962645 
L 772.360233 229.475164 
L 774.752146 225.096813 
L 777.144058 227.7266 
L 779.53597 226.335013 
L 781.927883 220.873031 
L 786.711708 230.363011 
L 789.10362 219.980986 
L 791.495533 224.673014 
L 793.887445 225.226912 
L 796.279357 222.650084 
L 798.67127 226.513409 
L 801.063182 227.587995 
L 803.455095 219.54678 
L 805.847007 224.856197 
L 808.238919 228.717379 
L 810.630832 228.90852 
L 813.022744 227.180252 
L 815.414657 227.493924 
L 817.806569 229.445223 
L 820.198481 228.491164 
L 822.590394 227.152768 
L 824.982306 227.361254 
L 827.374219 230.806982 
L 829.766131 230.733777 
L 832.158044 231.405385 
L 834.549956 231.010016 
L 836.941868 231.738752 
L 839.333781 230.220828 
L 841.725693 230.994099 
L 844.117606 230.022589 
L 846.509518 230.203745 
L 848.90143 226.735733 
L 851.293343 229.693341 
L 853.685255 229.454237 
L 856.077168 230.19571 
L 858.46908 222.859463 
L 860.860993 230.399126 
L 863.252905 229.345322 
L 865.644817 231.475985 
L 868.03673 231.337272 
L 870.428642 232.134378 
L 872.820555 230.027186 
L 875.212467 232.021049 
L 877.604379 231.597829 
L 879.996292 232.368709 
L 882.388204 231.549205 
L 884.780117 232.051653 
L 887.172029 226.2271 
L 889.563941 231.416494 
L 894.347766 232.245288 
L 896.739679 230.960557 
L 899.131591 233.047712 
L 901.523504 231.626833 
L 903.915416 231.898276 
L 906.307328 232.567037 
L 908.699241 230.815339 
L 911.091153 230.988813 
L 913.483066 228.72349 
L 915.874978 231.547712 
L 918.26689 231.559719 
L 920.658803 231.259069 
L 923.050715 230.248963 
L 925.442628 229.369544 
L 927.83454 229.902856 
L 930.226452 230.598732 
L 932.618365 228.539058 
L 937.40219 227.771452 
L 939.794102 232.121898 
L 942.186015 228.755214 
L 944.577927 231.321574 
L 946.969839 230.278012 
L 949.361752 227.980749 
L 951.753664 230.569898 
L 954.145577 227.127898 
L 954.145577 227.127898 
" clip-path="url(#pb8e508d9a8)" style="fill: none; stroke: #1f77b4; stroke-width: 1.5; stroke-linecap: square"/>
   </g>
   <g id="line2d_40">
    <path d="M 93.057108 224.215938 
L 95.449021 231.063996 
L 97.840933 233.474034 
L 102.624758 233.260598 
L 105.01667 234.680549 
L 107.408583 230.879422 
L 109.800495 234.705007 
L 112.192407 236.078182 
L 114.58432 234.075563 
L 116.976232 235.596615 
L 119.368145 234.972871 
L 121.760057 234.538595 
L 124.15197 235.806755 
L 126.543882 228.171612 
L 128.935794 235.783158 
L 131.327707 206.400282 
L 133.719619 212.443015 
L 136.111532 225.443329 
L 138.503444 230.936263 
L 140.895356 235.217408 
L 143.287269 234.13751 
L 145.679181 211.639531 
L 148.071094 220.235509 
L 150.463006 212.160074 
L 152.854918 218.740559 
L 155.246831 207.736869 
L 157.638743 223.130264 
L 160.030656 220.771603 
L 162.422568 224.771242 
L 164.814481 233.255818 
L 167.206393 232.646712 
L 169.598305 219.793974 
L 171.990218 223.927817 
L 174.38213 221.04625 
L 176.774043 215.869559 
L 179.165955 207.141207 
L 181.557867 221.452155 
L 183.94978 129.810888 
L 186.341692 71.363435 
L 188.733605 59.090575 
L 191.125517 68.252535 
L 193.517429 67.497648 
L 195.909342 53.719249 
L 198.301254 62.227542 
L 200.693167 48.131219 
L 203.085079 50.979549 
L 205.476992 50.318287 
L 207.868904 55.641215 
L 210.260816 52.352248 
L 212.652729 48.284479 
L 215.044641 46.573814 
L 217.436554 44.072545 
L 219.828466 42.674784 
L 222.220378 45.259071 
L 224.612291 40.725664 
L 227.004203 42.862489 
L 229.396116 42.478733 
L 231.788028 36.841818 
L 234.179941 39.294503 
L 236.571853 37.729375 
L 238.963765 44.033216 
L 241.355678 53.564899 
L 243.74759 80.01244 
L 246.139503 76.084497 
L 248.531415 73.271072 
L 250.923327 69.344762 
L 253.31524 90.876071 
L 255.707152 78.072687 
L 258.099065 77.420177 
L 260.490977 82.141777 
L 262.882889 76.061836 
L 265.274802 80.998232 
L 267.666714 82.577312 
L 270.058627 75.632249 
L 272.450539 70.904152 
L 274.842452 56.993804 
L 277.234364 79.625321 
L 279.626276 72.72352 
L 282.018189 73.095821 
L 284.410101 81.076578 
L 286.802014 70.984437 
L 289.193926 82.864837 
L 291.585838 87.581692 
L 293.977751 77.110002 
L 296.369663 69.066164 
L 298.761576 76.411412 
L 301.153488 66.879762 
L 303.5454 78.720116 
L 305.937313 75.672662 
L 308.329225 75.134185 
L 310.721138 78.75279 
L 313.11305 64.109685 
L 315.504963 67.330099 
L 317.896875 80.386484 
L 320.288787 70.104064 
L 322.6807 86.413876 
L 325.072612 68.679004 
L 327.464525 71.705617 
L 329.856437 66.569763 
L 332.248349 72.854994 
L 334.640262 97.97946 
L 337.032174 82.142197 
L 339.424087 74.008474 
L 341.815999 70.454718 
L 344.207911 80.958207 
L 346.599824 75.446587 
L 348.991736 82.826411 
L 351.383649 82.329249 
L 353.775561 70.878441 
L 356.167474 83.16714 
L 358.559386 68.760403 
L 360.951298 71.01379 
L 363.343211 74.005453 
L 365.735123 66.828735 
L 368.127036 76.672021 
L 370.518948 82.676256 
L 372.91086 59.158256 
L 375.302773 49.328165 
L 377.694685 67.145304 
L 380.086598 89.933852 
L 382.47851 85.514757 
L 384.870422 66.859586 
L 387.262335 77.440365 
L 389.654247 75.229125 
L 392.04616 60.380107 
L 394.438072 96.126337 
L 396.829985 72.219881 
L 399.221897 62.620114 
L 401.613809 62.755781 
L 404.005722 67.278474 
L 406.397634 72.471538 
L 408.789547 76.928721 
L 411.181459 98.536132 
L 413.573371 82.930715 
L 415.965284 85.631715 
L 418.357196 72.932692 
L 420.749109 59.477957 
L 423.141021 48.81481 
L 425.532933 64.129986 
L 427.924846 61.407634 
L 430.316758 77.059821 
L 432.708671 67.517881 
L 435.100583 69.257284 
L 437.492496 74.679551 
L 439.884408 72.543638 
L 442.27632 79.01652 
L 444.668233 80.530228 
L 447.060145 71.337839 
L 449.452058 69.20164 
L 451.84397 61.998647 
L 454.235882 75.940159 
L 456.627795 95.394694 
L 459.019707 77.954544 
L 461.41162 87.327404 
L 463.803532 82.372534 
L 466.195444 84.611993 
L 468.587357 63.220236 
L 470.979269 71.008513 
L 473.371182 78.056695 
L 475.763094 74.905481 
L 478.155007 82.575389 
L 480.546919 77.350306 
L 482.938831 63.445344 
L 485.330744 70.28893 
L 487.722656 84.029836 
L 490.114569 76.233247 
L 492.506481 79.743918 
L 494.898393 74.158655 
L 497.290306 73.997882 
L 499.682218 71.385054 
L 502.074131 72.964829 
L 504.466043 85.40214 
L 506.857955 79.25337 
L 511.64178 75.81759 
L 514.033693 71.841634 
L 516.425605 69.02566 
L 518.817518 77.382985 
L 521.20943 83.064634 
L 523.601342 82.126837 
L 525.993255 73.263253 
L 528.385167 70.508449 
L 530.77708 69.535384 
L 533.168992 91.613183 
L 535.560904 79.277689 
L 537.952817 79.641135 
L 540.344729 74.988371 
L 542.736642 76.6388 
L 545.128554 74.99903 
L 547.520467 76.486985 
L 549.912379 78.800875 
L 552.304291 75.931188 
L 554.696204 68.644549 
L 557.088116 72.367891 
L 559.480029 66.220814 
L 561.871941 77.156245 
L 564.263853 71.096874 
L 566.655766 77.480319 
L 569.047678 78.968642 
L 571.439591 78.643521 
L 573.831503 66.442682 
L 576.223415 70.53829 
L 578.615328 81.165023 
L 581.00724 73.154199 
L 583.399153 83.985299 
L 585.791065 80.084032 
L 590.57489 68.061458 
L 592.966802 80.746861 
L 595.358715 82.996027 
L 597.750627 76.841955 
L 600.14254 79.301 
L 602.534452 80.843903 
L 604.926364 68.861075 
L 607.318277 65.58957 
L 609.710189 84.587944 
L 612.102102 75.537235 
L 614.494014 81.605098 
L 616.885926 98.345811 
L 619.277839 92.330366 
L 621.669751 88.77908 
L 624.061664 80.94759 
L 626.453576 68.023703 
L 628.845489 76.853948 
L 631.237401 78.587058 
L 633.629313 80.716149 
L 636.021226 81.837478 
L 638.413138 61.759484 
L 640.805051 66.634413 
L 643.196963 70.103989 
L 645.588875 74.242679 
L 647.980788 86.176088 
L 650.3727 74.049883 
L 652.764613 66.32342 
L 655.156525 83.996703 
L 657.548437 73.439088 
L 659.94035 78.441101 
L 662.332262 72.390551 
L 664.724175 76.861182 
L 667.116087 98.898852 
L 669.508 80.089991 
L 671.899912 69.868867 
L 674.291824 79.930959 
L 676.683737 84.867481 
L 679.075649 73.804966 
L 681.467562 91.039888 
L 683.859474 84.035102 
L 686.251386 67.801461 
L 688.643299 77.530245 
L 691.035211 61.568012 
L 693.427124 63.602451 
L 695.819036 88.298253 
L 698.210948 65.315255 
L 700.602861 68.051393 
L 702.994773 82.163678 
L 705.386686 66.070119 
L 707.778598 70.946241 
L 710.170511 72.727401 
L 712.562423 72.405102 
L 714.954335 90.239084 
L 717.346248 79.943667 
L 719.73816 73.855319 
L 722.130073 80.893785 
L 724.521985 65.905075 
L 726.913897 65.732627 
L 729.30581 89.841756 
L 731.697722 79.394397 
L 734.089635 74.930605 
L 736.481547 68.627355 
L 738.873459 76.671185 
L 741.265372 83.031048 
L 743.657284 58.831416 
L 746.049197 85.122396 
L 748.441109 75.586193 
L 750.833022 95.016965 
L 753.224934 77.680198 
L 755.616846 74.167359 
L 758.008759 69.581249 
L 760.400671 74.742509 
L 762.792584 62.1127 
L 765.184496 71.557713 
L 767.576408 86.411241 
L 769.968321 93.824963 
L 772.360233 85.28769 
L 774.752146 77.8014 
L 777.144058 65.002238 
L 779.53597 56.277988 
L 781.927883 94.872027 
L 784.319795 88.073559 
L 786.711708 97.74123 
L 789.10362 76.52766 
L 791.495533 80.205219 
L 793.887445 87.752853 
L 796.279357 80.839766 
L 798.67127 74.587193 
L 801.063182 73.850009 
L 803.455095 75.846723 
L 805.847007 65.219438 
L 808.238919 71.701729 
L 810.630832 79.896277 
L 813.022744 79.328207 
L 815.414657 82.503231 
L 817.806569 69.976981 
L 820.198481 79.234865 
L 822.590394 80.057523 
L 824.982306 88.372837 
L 827.374219 80.944838 
L 829.766131 69.208277 
L 832.158044 69.101812 
L 834.549956 81.298231 
L 836.941868 65.734505 
L 839.333781 88.969267 
L 841.725693 76.798992 
L 844.117606 68.834112 
L 846.509518 76.373361 
L 848.90143 90.090072 
L 851.293343 81.714794 
L 853.685255 80.865272 
L 856.077168 79.752726 
L 858.46908 74.510468 
L 860.860993 91.637926 
L 863.252905 93.668125 
L 865.644817 77.099573 
L 868.03673 77.607779 
L 870.428642 87.950482 
L 872.820555 75.682593 
L 875.212467 78.356766 
L 877.604379 80.826816 
L 879.996292 82.1453 
L 882.388204 93.183991 
L 884.780117 75.855875 
L 887.172029 85.076296 
L 889.563941 100.657227 
L 891.955854 161.270025 
L 894.347766 216.375689 
L 896.739679 221.612117 
L 899.131591 228.860779 
L 901.523504 219.49091 
L 903.915416 225.309147 
L 906.307328 227.543585 
L 908.699241 215.402027 
L 911.091153 227.701587 
L 913.483066 230.948503 
L 915.874978 232.017239 
L 918.26689 231.380018 
L 920.658803 232.858844 
L 923.050715 233.137044 
L 925.442628 231.414474 
L 927.83454 232.026444 
L 930.226452 231.6705 
L 932.618365 230.037874 
L 935.010277 231.482015 
L 937.40219 231.215737 
L 939.794102 230.825305 
L 942.186015 230.830304 
L 944.577927 229.749271 
L 946.969839 231.004509 
L 949.361752 229.834009 
L 951.753664 229.322911 
L 951.753664 229.322911 
" clip-path="url(#pb8e508d9a8)" style="fill: none; stroke: #ff7f0e; stroke-width: 1.5; stroke-linecap: square"/>
   </g>
   <g id="line2d_41">
    <path d="M 93.057108 214.756356 
L 97.840933 220.477959 
L 100.232845 222.827583 
L 102.624758 219.979182 
L 105.01667 222.386395 
L 107.408583 219.754834 
L 109.800495 221.011158 
L 112.192407 221.820777 
L 114.58432 220.296697 
L 116.976232 215.091396 
L 119.368145 223.925029 
L 121.760057 224.166058 
L 124.15197 223.318113 
L 126.543882 223.745315 
L 128.935794 217.80947 
L 131.327707 220.312234 
L 133.719619 223.554149 
L 136.111532 223.161917 
L 138.503444 222.519101 
L 140.895356 219.803503 
L 145.679181 223.187098 
L 148.071094 221.744064 
L 150.463006 222.614641 
L 152.854918 222.841007 
L 155.246831 221.192356 
L 157.638743 223.923817 
L 160.030656 219.906127 
L 162.422568 216.692066 
L 164.814481 211.777019 
L 167.206393 206.251845 
L 169.598305 221.996722 
L 171.990218 223.504099 
L 174.38213 220.533879 
L 176.774043 223.533211 
L 179.165955 208.869376 
L 181.557867 209.554084 
L 183.94978 218.680753 
L 186.341692 218.330836 
L 188.733605 216.247427 
L 191.125517 204.881476 
L 193.517429 202.445866 
L 195.909342 214.46876 
L 198.301254 209.77783 
L 200.693167 216.418398 
L 203.085079 202.341958 
L 205.476992 200.793716 
L 207.868904 203.664413 
L 210.260816 202.021741 
L 212.652729 196.687809 
L 215.044641 200.397916 
L 217.436554 175.970522 
L 219.828466 186.277231 
L 222.220378 186.968767 
L 224.612291 176.562991 
L 227.004203 181.755442 
L 229.396116 175.568286 
L 231.788028 180.470132 
L 234.179941 169.197792 
L 236.571853 150.018194 
L 238.963765 177.223208 
L 241.355678 178.509358 
L 243.74759 165.486134 
L 246.139503 177.295916 
L 248.531415 176.262797 
L 250.923327 178.118638 
L 253.31524 193.244044 
L 255.707152 169.936578 
L 258.099065 184.185692 
L 260.490977 185.369764 
L 262.882889 182.612964 
L 265.274802 182.506497 
L 267.666714 175.149255 
L 270.058627 174.239066 
L 272.450539 179.826123 
L 274.842452 186.331502 
L 277.234364 198.173383 
L 279.626276 195.206754 
L 282.018189 194.840995 
L 284.410101 209.603802 
L 286.802014 203.218519 
L 289.193926 211.230053 
L 291.585838 206.238385 
L 293.977751 190.201541 
L 296.369663 201.284035 
L 298.761576 209.979277 
L 301.153488 206.197597 
L 303.5454 208.936354 
L 305.937313 196.584852 
L 308.329225 197.39717 
L 310.721138 187.896162 
L 313.11305 198.668747 
L 315.504963 190.42023 
L 317.896875 200.55802 
L 320.288787 190.565503 
L 322.6807 206.006035 
L 325.072612 198.510768 
L 327.464525 193.660453 
L 329.856437 203.350009 
L 332.248349 178.017253 
L 334.640262 187.063976 
L 337.032174 185.670322 
L 339.424087 197.248449 
L 341.815999 201.135904 
L 344.207911 184.575951 
L 346.599824 200.55254 
L 348.991736 191.134581 
L 351.383649 208.326089 
L 353.775561 206.626742 
L 356.167474 158.631613 
L 358.559386 124.312985 
L 360.951298 99.344221 
L 363.343211 80.137949 
L 365.735123 90.687942 
L 368.127036 100.356835 
L 370.518948 195.91126 
L 372.91086 192.740253 
L 375.302773 204.418713 
L 377.694685 208.062576 
L 380.086598 200.289653 
L 382.47851 197.338196 
L 384.870422 202.555045 
L 387.262335 188.111359 
L 389.654247 185.720975 
L 392.04616 203.180305 
L 394.438072 192.2374 
L 396.829985 189.508421 
L 399.221897 200.612643 
L 401.613809 200.480946 
L 404.005722 195.139872 
L 406.397634 204.849433 
L 408.789547 163.692448 
L 411.181459 190.078716 
L 413.573371 200.137618 
L 415.965284 193.223084 
L 418.357196 198.020494 
L 420.749109 181.362252 
L 423.141021 200.560189 
L 425.532933 199.059592 
L 427.924846 193.75429 
L 430.316758 196.686529 
L 432.708671 198.904357 
L 435.100583 197.21777 
L 437.492496 203.611971 
L 439.884408 201.983708 
L 442.27632 205.301536 
L 444.668233 199.394059 
L 447.060145 194.576171 
L 449.452058 195.461695 
L 451.84397 207.74833 
L 454.235882 202.718906 
L 456.627795 205.705844 
L 459.019707 197.189638 
L 461.41162 196.496989 
L 463.803532 196.907649 
L 466.195444 203.020689 
L 468.587357 194.521439 
L 470.979269 193.12914 
L 475.763094 203.122032 
L 478.155007 201.935796 
L 480.546919 189.287318 
L 482.938831 197.926407 
L 485.330744 191.120895 
L 487.722656 201.827349 
L 490.114569 205.156775 
L 492.506481 209.569781 
L 494.898393 191.43553 
L 497.290306 184.111203 
L 499.682218 200.260697 
L 502.074131 192.682017 
L 504.466043 195.750193 
L 506.857955 185.320005 
L 509.249868 183.834002 
L 511.64178 182.602495 
L 514.033693 184.670612 
L 516.425605 189.538696 
L 518.817518 168.542534 
L 521.20943 174.798012 
L 523.601342 173.191826 
L 525.993255 179.436481 
L 528.385167 178.404 
L 530.77708 180.724114 
L 533.168992 190.630051 
L 535.560904 184.308081 
L 537.952817 182.673922 
L 540.344729 183.465312 
L 542.736642 187.053936 
L 545.128554 183.985576 
L 547.520467 179.152816 
L 549.912379 186.787404 
L 552.304291 192.938752 
L 554.696204 186.888345 
L 557.088116 185.501454 
L 559.480029 192.802981 
L 561.871941 203.757145 
L 564.263853 190.869111 
L 566.655766 190.150866 
L 569.047678 197.54351 
L 571.439591 187.484911 
L 573.831503 190.410939 
L 576.223415 206.164702 
L 578.615328 202.545754 
L 581.00724 203.833338 
L 583.399153 202.251837 
L 585.791065 197.648729 
L 588.182978 199.064966 
L 590.57489 194.780966 
L 592.966802 195.067885 
L 595.358715 197.685311 
L 597.750627 194.981222 
L 600.14254 194.391259 
L 602.534452 202.093578 
L 604.926364 190.181789 
L 607.318277 199.226928 
L 609.710189 187.856848 
L 612.102102 199.83589 
L 614.494014 205.853796 
L 616.885926 196.035244 
L 621.669751 192.276196 
L 624.061664 192.883448 
L 626.453576 192.3392 
L 628.845489 202.078893 
L 631.237401 204.000079 
L 633.629313 176.002133 
L 636.021226 196.696696 
L 638.413138 196.168246 
L 640.805051 199.808076 
L 643.196963 201.09971 
L 645.588875 190.10267 
L 647.980788 182.647856 
L 650.3727 194.351642 
L 652.764613 196.896804 
L 655.156525 198.209106 
L 657.548437 207.388676 
L 659.94035 191.53665 
L 662.332262 195.197989 
L 664.724175 186.131197 
L 667.116087 203.978264 
L 669.508 192.845043 
L 671.899912 189.162751 
L 674.291824 188.135098 
L 676.683737 202.74039 
L 679.075649 210.724392 
L 681.467562 201.570216 
L 683.859474 200.43069 
L 686.251386 198.754498 
L 688.643299 197.467757 
L 691.035211 195.733778 
L 693.427124 198.561301 
L 695.819036 198.153675 
L 698.210948 190.412673 
L 700.602861 196.854121 
L 702.994773 199.051876 
L 705.386686 190.059419 
L 707.778598 193.807958 
L 710.170511 194.45566 
L 712.562423 194.940863 
L 714.954335 202.500342 
L 717.346248 205.109166 
L 719.73816 198.591269 
L 722.130073 201.097905 
L 724.521985 186.10241 
L 726.913897 204.360948 
L 729.30581 209.094142 
L 731.697722 204.144679 
L 734.089635 201.038123 
L 736.481547 199.82031 
L 738.873459 207.019105 
L 741.265372 186.467954 
L 743.657284 194.595881 
L 746.049197 209.213595 
L 748.441109 195.789612 
L 750.833022 197.403363 
L 753.224934 206.585365 
L 755.616846 203.43741 
L 758.008759 210.289101 
L 760.400671 191.016899 
L 762.792584 198.314424 
L 765.184496 199.366195 
L 767.576408 199.44241 
L 769.968321 202.061368 
L 772.360233 208.444896 
L 774.752146 192.379281 
L 777.144058 208.117183 
L 779.53597 203.126818 
L 781.927883 193.848646 
L 784.319795 198.016827 
L 786.711708 188.866752 
L 789.10362 204.706234 
L 793.887445 193.066188 
L 796.279357 203.063473 
L 798.67127 189.77627 
L 801.063182 190.677336 
L 803.455095 190.255949 
L 805.847007 193.434161 
L 808.238919 189.487468 
L 810.630832 193.768884 
L 813.022744 185.904932 
L 815.414657 186.289416 
L 817.806569 199.125398 
L 820.198481 199.804797 
L 822.590394 197.318265 
L 824.982306 200.681454 
L 827.374219 206.328105 
L 829.766131 205.084518 
L 832.158044 216.437805 
L 834.549956 209.616851 
L 836.941868 207.775058 
L 839.333781 214.76953 
L 841.725693 213.272711 
L 844.117606 208.950641 
L 846.509518 215.107253 
L 848.90143 205.216679 
L 851.293343 206.833878 
L 853.685255 214.773516 
L 856.077168 215.08762 
L 858.46908 205.109432 
L 860.860993 216.525361 
L 863.252905 215.778507 
L 865.644817 213.792644 
L 868.03673 209.694232 
L 870.428642 220.614284 
L 872.820555 216.599166 
L 875.212467 209.926937 
L 877.604379 221.84647 
L 879.996292 222.699574 
L 882.388204 221.428687 
L 884.780117 221.378692 
L 889.563941 220.981576 
L 891.955854 221.393381 
L 894.347766 220.406866 
L 896.739679 222.231728 
L 899.131591 221.865125 
L 901.523504 212.554278 
L 903.915416 219.302987 
L 906.307328 221.012923 
L 908.699241 221.85013 
L 911.091153 222.983325 
L 913.483066 214.465264 
L 915.874978 220.559148 
L 918.26689 220.061325 
L 923.050715 220.412342 
L 925.442628 220.403362 
L 927.83454 218.345589 
L 930.226452 221.77419 
L 932.618365 222.03248 
L 935.010277 222.558097 
L 937.40219 222.221192 
L 939.794102 219.975903 
L 942.186015 222.213099 
L 944.577927 222.25789 
L 946.969839 222.130149 
L 949.361752 220.849883 
L 951.753664 218.247195 
L 954.145577 224.959738 
L 954.145577 224.959738 
" clip-path="url(#pb8e508d9a8)" style="fill: none; stroke: #2ca02c; stroke-width: 1.5; stroke-linecap: square"/>
   </g>
   <g id="patch_3">
    <path d="M 50.002685 246.04 
L 50.002685 26.88 
" style="fill: none; stroke: #000000; stroke-width: 0.8; stroke-linejoin: miter; stroke-linecap: square"/>
   </g>
   <g id="patch_4">
    <path d="M 997.2 246.04 
L 997.2 26.88 
" style="fill: none; stroke: #000000; stroke-width: 0.8; stroke-linejoin: miter; stroke-linecap: square"/>
   </g>
   <g id="patch_5">
    <path d="M 50.002685 246.04 
L 997.2 246.04 
" style="fill: none; stroke: #000000; stroke-width: 0.8; stroke-linejoin: miter; stroke-linecap: square"/>
   </g>
   <g id="patch_6">
    <path d="M 50.002685 26.88 
L 997.2 26.88 
" style="fill: none; stroke: #000000; stroke-width: 0.8; stroke-linejoin: miter; stroke-linecap: square"/>
   </g>
   <g id="text_14">
    <!-- Average HTTP Request Duration (log scale) -->
    <g transform="translate(394.352905 20.88) scale(0.12 -0.12)">
     <defs>
      <path id="DejaVuSans-48" d="M 628 4666 
L 1259 4666 
L 1259 2753 
L 3553 2753 
L 3553 4666 
L 4184 4666 
L 4184 0 
L 3553 0 
L 3553 2222 
L 1259 2222 
L 1259 0 
L 628 0 
L 628 4666 
z
" transform="scale(0.015625)"/>
      <path id="DejaVuSans-50" d="M 1259 4147 
L 1259 2394 
L 2053 2394 
Q 2494 2394 2734 2622 
Q 2975 2850 2975 3272 
Q 2975 3691 2734 3919 
Q 2494 4147 2053 4147 
L 1259 4147 
z
M 628 4666 
L 2053 4666 
Q 2838 4666 3239 4311 
Q 3641 3956 3641 3272 
Q 3641 2581 3239 2228 
Q 2838 1875 2053 1875 
L 1259 1875 
L 1259 0 
L 628 0 
L 628 4666 
z
" transform="scale(0.015625)"/>
      <path id="DejaVuSans-52" d="M 2841 2188 
Q 3044 2119 3236 1894 
Q 3428 1669 3622 1275 
L 4263 0 
L 3584 0 
L 2988 1197 
Q 2756 1666 2539 1819 
Q 2322 1972 1947 1972 
L 1259 1972 
L 1259 0 
L 628 0 
L 628 4666 
L 2053 4666 
Q 2853 4666 3247 4331 
Q 3641 3997 3641 3322 
Q 3641 2881 3436 2590 
Q 3231 2300 2841 2188 
z
M 1259 4147 
L 1259 2491 
L 2053 2491 
Q 2509 2491 2742 2702 
Q 2975 2913 2975 3322 
Q 2975 3731 2742 3939 
Q 2509 4147 2053 4147 
L 1259 4147 
z
" transform="scale(0.015625)"/>
      <path id="DejaVuSans-71" d="M 947 1747 
Q 947 1113 1208 752 
Q 1469 391 1925 391 
Q 2381 391 2643 752 
Q 2906 1113 2906 1747 
Q 2906 2381 2643 2742 
Q 2381 3103 1925 3103 
Q 1469 3103 1208 2742 
Q 947 2381 947 1747 
z
M 2906 525 
Q 2725 213 2448 61 
Q 2172 -91 1784 -91 
Q 1150 -91 751 415 
Q 353 922 353 1747 
Q 353 2572 751 3078 
Q 1150 3584 1784 3584 
Q 2172 3584 2448 3432 
Q 2725 3281 2906 2969 
L 2906 3500 
L 3481 3500 
L 3481 -1331 
L 2906 -1331 
L 2906 525 
z
" transform="scale(0.015625)"/>
      <path id="DejaVuSans-6c" d="M 603 4863 
L 1178 4863 
L 1178 0 
L 603 0 
L 603 4863 
z
" transform="scale(0.015625)"/>
     </defs>
     <use xlink:href="#DejaVuSans-41"/>
     <use xlink:href="#DejaVuSans-76" transform="translate(62.533203 0)"/>
     <use xlink:href="#DejaVuSans-65" transform="translate(121.712891 0)"/>
     <use xlink:href="#DejaVuSans-72" transform="translate(183.236328 0)"/>
     <use xlink:href="#DejaVuSans-61" transform="translate(224.349609 0)"/>
     <use xlink:href="#DejaVuSans-67" transform="translate(285.628906 0)"/>
     <use xlink:href="#DejaVuSans-65" transform="translate(349.105469 0)"/>
     <use xlink:href="#DejaVuSans-20" transform="translate(410.628906 0)"/>
     <use xlink:href="#DejaVuSans-48" transform="translate(442.416016 0)"/>
     <use xlink:href="#DejaVuSans-54" transform="translate(517.611328 0)"/>
     <use xlink:href="#DejaVuSans-54" transform="translate(576.945312 0)"/>
     <use xlink:href="#DejaVuSans-50" transform="translate(638.029297 0)"/>
     <use xlink:href="#DejaVuSans-20" transform="translate(698.332031 0)"/>
     <use xlink:href="#DejaVuSans-52" transform="translate(730.119141 0)"/>
     <use xlink:href="#DejaVuSans-65" transform="translate(795.101562 0)"/>
     <use xlink:href="#DejaVuSans-71" transform="translate(856.625 0)"/>
     <use xlink:href="#DejaVuSans-75" transform="translate(920.101562 0)"/>
     <use xlink:href="#DejaVuSans-65" transform="translate(983.480469 0)"/>
     <use xlink:href="#DejaVuSans-73" transform="translate(1045.003906 0)"/>
     <use xlink:href="#DejaVuSans-74" transform="translate(1097.103516 0)"/>
     <use xlink:href="#DejaVuSans-20" transform="translate(1136.3125 0)"/>
     <use xlink:href="#DejaVuSans-44" transform="translate(1168.099609 0)"/>
     <use xlink:href="#DejaVuSans-75" transform="translate(1245.101562 0)"/>
     <use xlink:href="#DejaVuSans-72" transform="translate(1308.480469 0)"/>
     <use xlink:href="#DejaVuSans-61" transform="translate(1349.59375 0)"/>
     <use xlink:href="#DejaVuSans-74" transform="translate(1410.873047 0)"/>
     <use xlink:href="#DejaVuSans-69" transform="translate(1450.082031 0)"/>
     <use xlink:href="#DejaVuSans-6f" transform="translate(1477.865234 0)"/>
     <use xlink:href="#DejaVuSans-6e" transform="translate(1539.046875 0)"/>
     <use xlink:href="#DejaVuSans-20" transform="translate(1602.425781 0)"/>
     <use xlink:href="#DejaVuSans-28" transform="translate(1634.212891 0)"/>
     <use xlink:href="#DejaVuSans-6c" transform="translate(1673.226562 0)"/>
     <use xlink:href="#DejaVuSans-6f" transform="translate(1701.009766 0)"/>
     <use xlink:href="#DejaVuSans-67" transform="translate(1762.191406 0)"/>
     <use xlink:href="#DejaVuSans-20" transform="translate(1825.667969 0)"/>
     <use xlink:href="#DejaVuSans-73" transform="translate(1857.455078 0)"/>
     <use xlink:href="#DejaVuSans-63" transform="translate(1909.554688 0)"/>
     <use xlink:href="#DejaVuSans-61" transform="translate(1964.535156 0)"/>
     <use xlink:href="#DejaVuSans-6c" transform="translate(2025.814453 0)"/>
     <use xlink:href="#DejaVuSans-65" transform="translate(2053.597656 0)"/>
     <use xlink:href="#DejaVuSans-29" transform="translate(2115.121094 0)"/>
    </g>
   </g>
   <g id="legend_1">
    <g id="patch_7">
     <path d="M 456.929467 159.977188 
L 590.273217 159.977188 
Q 592.273217 159.977188 592.273217 157.977188 
L 592.273217 114.942813 
Q 592.273217 112.942813 590.273217 112.942813 
L 456.929467 112.942813 
Q 454.929467 112.942813 454.929467 114.942813 
L 454.929467 157.977188 
Q 454.929467 159.977188 456.929467 159.977188 
z
" style="fill: #ffffff; opacity: 0.8; stroke: #cccccc; stroke-linejoin: miter"/>
    </g>
    <g id="line2d_42">
     <path d="M 458.929467 121.04125 
L 468.929467 121.04125 
L 478.929467 121.04125 
" style="fill: none; stroke: #1f77b4; stroke-width: 1.5; stroke-linecap: square"/>
    </g>
    <g id="text_15">
     <!-- Single Large Results -->
     <g transform="translate(486.929467 124.54125) scale(0.1 -0.1)">
      <defs>
       <path id="DejaVuSans-4c" d="M 628 4666 
L 1259 4666 
L 1259 531 
L 3531 531 
L 3531 0 
L 628 0 
L 628 4666 
z
" transform="scale(0.015625)"/>
      </defs>
      <use xlink:href="#DejaVuSans-53"/>
      <use xlink:href="#DejaVuSans-69" transform="translate(63.476562 0)"/>
      <use xlink:href="#DejaVuSans-6e" transform="translate(91.259766 0)"/>
      <use xlink:href="#DejaVuSans-67" transform="translate(154.638672 0)"/>
      <use xlink:href="#DejaVuSans-6c" transform="translate(218.115234 0)"/>
      <use xlink:href="#DejaVuSans-65" transform="translate(245.898438 0)"/>
      <use xlink:href="#DejaVuSans-20" transform="translate(307.421875 0)"/>
      <use xlink:href="#DejaVuSans-4c" transform="translate(339.208984 0)"/>
      <use xlink:href="#DejaVuSans-61" transform="translate(394.921875 0)"/>
      <use xlink:href="#DejaVuSans-72" transform="translate(456.201172 0)"/>
      <use xlink:href="#DejaVuSans-67" transform="translate(495.564453 0)"/>
      <use xlink:href="#DejaVuSans-65" transform="translate(559.041016 0)"/>
      <use xlink:href="#DejaVuSans-20" transform="translate(620.564453 0)"/>
      <use xlink:href="#DejaVuSans-52" transform="translate(652.351562 0)"/>
      <use xlink:href="#DejaVuSans-65" transform="translate(717.333984 0)"/>
      <use xlink:href="#DejaVuSans-73" transform="translate(778.857422 0)"/>
      <use xlink:href="#DejaVuSans-75" transform="translate(830.957031 0)"/>
      <use xlink:href="#DejaVuSans-6c" transform="translate(894.335938 0)"/>
      <use xlink:href="#DejaVuSans-74" transform="translate(922.119141 0)"/>
      <use xlink:href="#DejaVuSans-73" transform="translate(961.328125 0)"/>
     </g>
    </g>
    <g id="line2d_43">
     <path d="M 458.929467 135.719375 
L 468.929467 135.719375 
L 478.929467 135.719375 
" style="fill: none; stroke: #ff7f0e; stroke-width: 1.5; stroke-linecap: square"/>
    </g>
    <g id="text_16">
     <!-- Single Small Results -->
     <g transform="translate(486.929467 139.219375) scale(0.1 -0.1)">
      <use xlink:href="#DejaVuSans-53"/>
      <use xlink:href="#DejaVuSans-69" transform="translate(63.476562 0)"/>
      <use xlink:href="#DejaVuSans-6e" transform="translate(91.259766 0)"/>
      <use xlink:href="#DejaVuSans-67" transform="translate(154.638672 0)"/>
      <use xlink:href="#DejaVuSans-6c" transform="translate(218.115234 0)"/>
      <use xlink:href="#DejaVuSans-65" transform="translate(245.898438 0)"/>
      <use xlink:href="#DejaVuSans-20" transform="translate(307.421875 0)"/>
      <use xlink:href="#DejaVuSans-53" transform="translate(339.208984 0)"/>
      <use xlink:href="#DejaVuSans-6d" transform="translate(402.685547 0)"/>
      <use xlink:href="#DejaVuSans-61" transform="translate(500.097656 0)"/>
      <use xlink:href="#DejaVuSans-6c" transform="translate(561.376953 0)"/>
      <use xlink:href="#DejaVuSans-6c" transform="translate(589.160156 0)"/>
      <use xlink:href="#DejaVuSans-20" transform="translate(616.943359 0)"/>
      <use xlink:href="#DejaVuSans-52" transform="translate(648.730469 0)"/>
      <use xlink:href="#DejaVuSans-65" transform="translate(713.712891 0)"/>
      <use xlink:href="#DejaVuSans-73" transform="translate(775.236328 0)"/>
      <use xlink:href="#DejaVuSans-75" transform="translate(827.335938 0)"/>
      <use xlink:href="#DejaVuSans-6c" transform="translate(890.714844 0)"/>
      <use xlink:href="#DejaVuSans-74" transform="translate(918.498047 0)"/>
      <use xlink:href="#DejaVuSans-73" transform="translate(957.707031 0)"/>
     </g>
    </g>
    <g id="line2d_44">
     <path d="M 458.929467 150.3975 
L 468.929467 150.3975 
L 478.929467 150.3975 
" style="fill: none; stroke: #2ca02c; stroke-width: 1.5; stroke-linecap: square"/>
    </g>
    <g id="text_17">
     <!-- Multi Results -->
     <g transform="translate(486.929467 153.8975) scale(0.1 -0.1)">
      <defs>
       <path id="DejaVuSans-4d" d="M 628 4666 
L 1569 4666 
L 2759 1491 
L 3956 4666 
L 4897 4666 
L 4897 0 
L 4281 0 
L 4281 4097 
L 3078 897 
L 2444 897 
L 1241 4097 
L 1241 0 
L 628 0 
L 628 4666 
z
" transform="scale(0.015625)"/>
      </defs>
      <use xlink:href="#DejaVuSans-4d"/>
      <use xlink:href="#DejaVuSans-75" transform="translate(86.279297 0)"/>
      <use xlink:href="#DejaVuSans-6c" transform="translate(149.658203 0)"/>
      <use xlink:href="#DejaVuSans-74" transform="translate(177.441406 0)"/>
      <use xlink:href="#DejaVuSans-69" transform="translate(216.650391 0)"/>
      <use xlink:href="#DejaVuSans-20" transform="translate(244.433594 0)"/>
      <use xlink:href="#DejaVuSans-52" transform="translate(276.220703 0)"/>
      <use xlink:href="#DejaVuSans-65" transform="translate(341.203125 0)"/>
      <use xlink:href="#DejaVuSans-73" transform="translate(402.726562 0)"/>
      <use xlink:href="#DejaVuSans-75" transform="translate(454.826172 0)"/>
      <use xlink:href="#DejaVuSans-6c" transform="translate(518.205078 0)"/>
      <use xlink:href="#DejaVuSans-74" transform="translate(545.988281 0)"/>
      <use xlink:href="#DejaVuSans-73" transform="translate(585.197266 0)"/>
     </g>
    </g>
   </g>
  </g>
 </g>
 <defs>
  <clipPath id="pb8e508d9a8">
   <rect x="50.002685" y="26.88" width="947.197315" height="219.16"/>
  </clipPath>
 </defs>
</svg>
