<?xml version="1.0" encoding="utf-8" standalone="no"?>
<!DOCTYPE svg PUBLIC "-//W3C//DTD SVG 1.1//EN"
  "http://www.w3.org/Graphics/SVG/1.1/DTD/svg11.dtd">
<svg xmlns:xlink="http://www.w3.org/1999/xlink" width="864pt" height="432pt" viewBox="0 0 864 432" xmlns="http://www.w3.org/2000/svg" version="1.1">
 <metadata>
  <rdf:RDF xmlns:dc="http://purl.org/dc/elements/1.1/" xmlns:cc="http://creativecommons.org/ns#" xmlns:rdf="http://www.w3.org/1999/02/22-rdf-syntax-ns#">
   <cc:Work>
    <dc:type rdf:resource="http://purl.org/dc/dcmitype/StillImage"/>
    <dc:date>2025-05-31T16:14:41.186927</dc:date>
    <dc:format>image/svg+xml</dc:format>
    <dc:creator>
     <cc:Agent>
      <dc:title>Matplotlib v3.10.1, https://matplotlib.org/</dc:title>
     </cc:Agent>
    </dc:creator>
   </cc:Work>
  </rdf:RDF>
 </metadata>
 <defs>
  <style type="text/css">*{stroke-linejoin: round; stroke-linecap: butt}</style>
 </defs>
 <g id="figure_1">
  <g id="patch_1">
   <path d="M 0 432 
L 864 432 
L 864 0 
L 0 0 
z
" style="fill: #ffffff"/>
  </g>
  <g id="axes_1">
   <g id="patch_2">
    <path d="M 50.002685 390.04 
L 853.2 390.04 
L 853.2 41.856 
L 50.002685 41.856 
z
" style="fill: #ffffff"/>
   </g>
   <g id="matplotlib.axis_1">
    <g id="xtick_1">
     <g id="line2d_1">
      <defs>
       <path id="mcd062cca31" d="M 0 0 
L 0 3.5 
" style="stroke: #000000; stroke-width: 0.8"/>
      </defs>
      <g>
       <use xlink:href="#mcd062cca31" x="86.511654" y="390.04" style="stroke: #000000; stroke-width: 0.8"/>
      </g>
     </g>
     <g id="text_1">
      <!-- 0 -->
      <g transform="translate(83.330404 404.638438) scale(0.1 -0.1)">
       <defs>
        <path id="DejaVuSans-30" d="M 2034 4250 
Q 1547 4250 1301 3770 
Q 1056 3291 1056 2328 
Q 1056 1369 1301 889 
Q 1547 409 2034 409 
Q 2525 409 2770 889 
Q 3016 1369 3016 2328 
Q 3016 3291 2770 3770 
Q 2525 4250 2034 4250 
z
M 2034 4750 
Q 2819 4750 3233 4129 
Q 3647 3509 3647 2328 
Q 3647 1150 3233 529 
Q 2819 -91 2034 -91 
Q 1250 -91 836 529 
Q 422 1150 422 2328 
Q 422 3509 836 4129 
Q 1250 4750 2034 4750 
z
" transform="scale(0.015625)"/>
       </defs>
       <use xlink:href="#DejaVuSans-30"/>
      </g>
     </g>
    </g>
    <g id="xtick_2">
     <g id="line2d_2">
      <g>
       <use xlink:href="#mcd062cca31" x="232.549165" y="390.04" style="stroke: #000000; stroke-width: 0.8"/>
      </g>
     </g>
     <g id="text_2">
      <!-- 20 -->
      <g transform="translate(226.186665 404.638438) scale(0.1 -0.1)">
       <defs>
        <path id="DejaVuSans-32" d="M 1228 531 
L 3431 531 
L 3431 0 
L 469 0 
L 469 531 
Q 828 903 1448 1529 
Q 2069 2156 2228 2338 
Q 2531 2678 2651 2914 
Q 2772 3150 2772 3378 
Q 2772 3750 2511 3984 
Q 2250 4219 1831 4219 
Q 1534 4219 1204 4116 
Q 875 4013 500 3803 
L 500 4441 
Q 881 4594 1212 4672 
Q 1544 4750 1819 4750 
Q 2544 4750 2975 4387 
Q 3406 4025 3406 3419 
Q 3406 3131 3298 2873 
Q 3191 2616 2906 2266 
Q 2828 2175 2409 1742 
Q 1991 1309 1228 531 
z
" transform="scale(0.015625)"/>
       </defs>
       <use xlink:href="#DejaVuSans-32"/>
       <use xlink:href="#DejaVuSans-30" transform="translate(63.623047 0)"/>
      </g>
     </g>
    </g>
    <g id="xtick_3">
     <g id="line2d_3">
      <g>
       <use xlink:href="#mcd062cca31" x="378.586677" y="390.04" style="stroke: #000000; stroke-width: 0.8"/>
      </g>
     </g>
     <g id="text_3">
      <!-- 40 -->
      <g transform="translate(372.224177 404.638438) scale(0.1 -0.1)">
       <defs>
        <path id="DejaVuSans-34" d="M 2419 4116 
L 825 1625 
L 2419 1625 
L 2419 4116 
z
M 2253 4666 
L 3047 4666 
L 3047 1625 
L 3713 1625 
L 3713 1100 
L 3047 1100 
L 3047 0 
L 2419 0 
L 2419 1100 
L 313 1100 
L 313 1709 
L 2253 4666 
z
" transform="scale(0.015625)"/>
       </defs>
       <use xlink:href="#DejaVuSans-34"/>
       <use xlink:href="#DejaVuSans-30" transform="translate(63.623047 0)"/>
      </g>
     </g>
    </g>
    <g id="xtick_4">
     <g id="line2d_4">
      <g>
       <use xlink:href="#mcd062cca31" x="524.624188" y="390.04" style="stroke: #000000; stroke-width: 0.8"/>
      </g>
     </g>
     <g id="text_4">
      <!-- 60 -->
      <g transform="translate(518.261688 404.638438) scale(0.1 -0.1)">
       <defs>
        <path id="DejaVuSans-36" d="M 2113 2584 
Q 1688 2584 1439 2293 
Q 1191 2003 1191 1497 
Q 1191 994 1439 701 
Q 1688 409 2113 409 
Q 2538 409 2786 701 
Q 3034 994 3034 1497 
Q 3034 2003 2786 2293 
Q 2538 2584 2113 2584 
z
M 3366 4563 
L 3366 3988 
Q 3128 4100 2886 4159 
Q 2644 4219 2406 4219 
Q 1781 4219 1451 3797 
Q 1122 3375 1075 2522 
Q 1259 2794 1537 2939 
Q 1816 3084 2150 3084 
Q 2853 3084 3261 2657 
Q 3669 2231 3669 1497 
Q 3669 778 3244 343 
Q 2819 -91 2113 -91 
Q 1303 -91 875 529 
Q 447 1150 447 2328 
Q 447 3434 972 4092 
Q 1497 4750 2381 4750 
Q 2619 4750 2861 4703 
Q 3103 4656 3366 4563 
z
" transform="scale(0.015625)"/>
       </defs>
       <use xlink:href="#DejaVuSans-36"/>
       <use xlink:href="#DejaVuSans-30" transform="translate(63.623047 0)"/>
      </g>
     </g>
    </g>
    <g id="xtick_5">
     <g id="line2d_5">
      <g>
       <use xlink:href="#mcd062cca31" x="670.6617" y="390.04" style="stroke: #000000; stroke-width: 0.8"/>
      </g>
     </g>
     <g id="text_5">
      <!-- 80 -->
      <g transform="translate(664.2992 404.638438) scale(0.1 -0.1)">
       <defs>
        <path id="DejaVuSans-38" d="M 2034 2216 
Q 1584 2216 1326 1975 
Q 1069 1734 1069 1313 
Q 1069 891 1326 650 
Q 1584 409 2034 409 
Q 2484 409 2743 651 
Q 3003 894 3003 1313 
Q 3003 1734 2745 1975 
Q 2488 2216 2034 2216 
z
M 1403 2484 
Q 997 2584 770 2862 
Q 544 3141 544 3541 
Q 544 4100 942 4425 
Q 1341 4750 2034 4750 
Q 2731 4750 3128 4425 
Q 3525 4100 3525 3541 
Q 3525 3141 3298 2862 
Q 3072 2584 2669 2484 
Q 3125 2378 3379 2068 
Q 3634 1759 3634 1313 
Q 3634 634 3220 271 
Q 2806 -91 2034 -91 
Q 1263 -91 848 271 
Q 434 634 434 1313 
Q 434 1759 690 2068 
Q 947 2378 1403 2484 
z
M 1172 3481 
Q 1172 3119 1398 2916 
Q 1625 2713 2034 2713 
Q 2441 2713 2670 2916 
Q 2900 3119 2900 3481 
Q 2900 3844 2670 4047 
Q 2441 4250 2034 4250 
Q 1625 4250 1398 4047 
Q 1172 3844 1172 3481 
z
" transform="scale(0.015625)"/>
       </defs>
       <use xlink:href="#DejaVuSans-38"/>
       <use xlink:href="#DejaVuSans-30" transform="translate(63.623047 0)"/>
      </g>
     </g>
    </g>
    <g id="xtick_6">
     <g id="line2d_6">
      <g>
       <use xlink:href="#mcd062cca31" x="816.699211" y="390.04" style="stroke: #000000; stroke-width: 0.8"/>
      </g>
     </g>
     <g id="text_6">
      <!-- 100 -->
      <g transform="translate(807.155461 404.638438) scale(0.1 -0.1)">
       <defs>
        <path id="DejaVuSans-31" d="M 794 531 
L 1825 531 
L 1825 4091 
L 703 3866 
L 703 4441 
L 1819 4666 
L 2450 4666 
L 2450 531 
L 3481 531 
L 3481 0 
L 794 0 
L 794 531 
z
" transform="scale(0.015625)"/>
       </defs>
       <use xlink:href="#DejaVuSans-31"/>
       <use xlink:href="#DejaVuSans-30" transform="translate(63.623047 0)"/>
       <use xlink:href="#DejaVuSans-30" transform="translate(127.246094 0)"/>
      </g>
     </g>
    </g>
    <g id="text_7">
     <!-- Percentile (%) -->
     <g transform="translate(416.697436 418.316562) scale(0.1 -0.1)">
      <defs>
       <path id="DejaVuSans-50" d="M 1259 4147 
L 1259 2394 
L 2053 2394 
Q 2494 2394 2734 2622 
Q 2975 2850 2975 3272 
Q 2975 3691 2734 3919 
Q 2494 4147 2053 4147 
L 1259 4147 
z
M 628 4666 
L 2053 4666 
Q 2838 4666 3239 4311 
Q 3641 3956 3641 3272 
Q 3641 2581 3239 2228 
Q 2838 1875 2053 1875 
L 1259 1875 
L 1259 0 
L 628 0 
L 628 4666 
z
" transform="scale(0.015625)"/>
       <path id="DejaVuSans-65" d="M 3597 1894 
L 3597 1613 
L 953 1613 
Q 991 1019 1311 708 
Q 1631 397 2203 397 
Q 2534 397 2845 478 
Q 3156 559 3463 722 
L 3463 178 
Q 3153 47 2828 -22 
Q 2503 -91 2169 -91 
Q 1331 -91 842 396 
Q 353 884 353 1716 
Q 353 2575 817 3079 
Q 1281 3584 2069 3584 
Q 2775 3584 3186 3129 
Q 3597 2675 3597 1894 
z
M 3022 2063 
Q 3016 2534 2758 2815 
Q 2500 3097 2075 3097 
Q 1594 3097 1305 2825 
Q 1016 2553 972 2059 
L 3022 2063 
z
" transform="scale(0.015625)"/>
       <path id="DejaVuSans-72" d="M 2631 2963 
Q 2534 3019 2420 3045 
Q 2306 3072 2169 3072 
Q 1681 3072 1420 2755 
Q 1159 2438 1159 1844 
L 1159 0 
L 581 0 
L 581 3500 
L 1159 3500 
L 1159 2956 
Q 1341 3275 1631 3429 
Q 1922 3584 2338 3584 
Q 2397 3584 2469 3576 
Q 2541 3569 2628 3553 
L 2631 2963 
z
" transform="scale(0.015625)"/>
       <path id="DejaVuSans-63" d="M 3122 3366 
L 3122 2828 
Q 2878 2963 2633 3030 
Q 2388 3097 2138 3097 
Q 1578 3097 1268 2742 
Q 959 2388 959 1747 
Q 959 1106 1268 751 
Q 1578 397 2138 397 
Q 2388 397 2633 464 
Q 2878 531 3122 666 
L 3122 134 
Q 2881 22 2623 -34 
Q 2366 -91 2075 -91 
Q 1284 -91 818 406 
Q 353 903 353 1747 
Q 353 2603 823 3093 
Q 1294 3584 2113 3584 
Q 2378 3584 2631 3529 
Q 2884 3475 3122 3366 
z
" transform="scale(0.015625)"/>
       <path id="DejaVuSans-6e" d="M 3513 2113 
L 3513 0 
L 2938 0 
L 2938 2094 
Q 2938 2591 2744 2837 
Q 2550 3084 2163 3084 
Q 1697 3084 1428 2787 
Q 1159 2491 1159 1978 
L 1159 0 
L 581 0 
L 581 3500 
L 1159 3500 
L 1159 2956 
Q 1366 3272 1645 3428 
Q 1925 3584 2291 3584 
Q 2894 3584 3203 3211 
Q 3513 2838 3513 2113 
z
" transform="scale(0.015625)"/>
       <path id="DejaVuSans-74" d="M 1172 4494 
L 1172 3500 
L 2356 3500 
L 2356 3053 
L 1172 3053 
L 1172 1153 
Q 1172 725 1289 603 
Q 1406 481 1766 481 
L 2356 481 
L 2356 0 
L 1766 0 
Q 1100 0 847 248 
Q 594 497 594 1153 
L 594 3053 
L 172 3053 
L 172 3500 
L 594 3500 
L 594 4494 
L 1172 4494 
z
" transform="scale(0.015625)"/>
       <path id="DejaVuSans-69" d="M 603 3500 
L 1178 3500 
L 1178 0 
L 603 0 
L 603 3500 
z
M 603 4863 
L 1178 4863 
L 1178 4134 
L 603 4134 
L 603 4863 
z
" transform="scale(0.015625)"/>
       <path id="DejaVuSans-6c" d="M 603 4863 
L 1178 4863 
L 1178 0 
L 603 0 
L 603 4863 
z
" transform="scale(0.015625)"/>
       <path id="DejaVuSans-20" transform="scale(0.015625)"/>
       <path id="DejaVuSans-28" d="M 1984 4856 
Q 1566 4138 1362 3434 
Q 1159 2731 1159 2009 
Q 1159 1288 1364 580 
Q 1569 -128 1984 -844 
L 1484 -844 
Q 1016 -109 783 600 
Q 550 1309 550 2009 
Q 550 2706 781 3412 
Q 1013 4119 1484 4856 
L 1984 4856 
z
" transform="scale(0.015625)"/>
       <path id="DejaVuSans-25" d="M 4653 2053 
Q 4381 2053 4226 1822 
Q 4072 1591 4072 1178 
Q 4072 772 4226 539 
Q 4381 306 4653 306 
Q 4919 306 5073 539 
Q 5228 772 5228 1178 
Q 5228 1588 5073 1820 
Q 4919 2053 4653 2053 
z
M 4653 2450 
Q 5147 2450 5437 2106 
Q 5728 1763 5728 1178 
Q 5728 594 5436 251 
Q 5144 -91 4653 -91 
Q 4153 -91 3862 251 
Q 3572 594 3572 1178 
Q 3572 1766 3864 2108 
Q 4156 2450 4653 2450 
z
M 1428 4353 
Q 1159 4353 1004 4120 
Q 850 3888 850 3481 
Q 850 3069 1003 2837 
Q 1156 2606 1428 2606 
Q 1700 2606 1854 2837 
Q 2009 3069 2009 3481 
Q 2009 3884 1853 4118 
Q 1697 4353 1428 4353 
z
M 4250 4750 
L 4750 4750 
L 1831 -91 
L 1331 -91 
L 4250 4750 
z
M 1428 4750 
Q 1922 4750 2215 4408 
Q 2509 4066 2509 3481 
Q 2509 2891 2217 2550 
Q 1925 2209 1428 2209 
Q 931 2209 642 2551 
Q 353 2894 353 3481 
Q 353 4063 643 4406 
Q 934 4750 1428 4750 
z
" transform="scale(0.015625)"/>
       <path id="DejaVuSans-29" d="M 513 4856 
L 1013 4856 
Q 1481 4119 1714 3412 
Q 1947 2706 1947 2009 
Q 1947 1309 1714 600 
Q 1481 -109 1013 -844 
L 513 -844 
Q 928 -128 1133 580 
Q 1338 1288 1338 2009 
Q 1338 2731 1133 3434 
Q 928 4138 513 4856 
z
" transform="scale(0.015625)"/>
      </defs>
      <use xlink:href="#DejaVuSans-50"/>
      <use xlink:href="#DejaVuSans-65" transform="translate(56.677734 0)"/>
      <use xlink:href="#DejaVuSans-72" transform="translate(118.201172 0)"/>
      <use xlink:href="#DejaVuSans-63" transform="translate(157.064453 0)"/>
      <use xlink:href="#DejaVuSans-65" transform="translate(212.044922 0)"/>
      <use xlink:href="#DejaVuSans-6e" transform="translate(273.568359 0)"/>
      <use xlink:href="#DejaVuSans-74" transform="translate(336.947266 0)"/>
      <use xlink:href="#DejaVuSans-69" transform="translate(376.15625 0)"/>
      <use xlink:href="#DejaVuSans-6c" transform="translate(403.939453 0)"/>
      <use xlink:href="#DejaVuSans-65" transform="translate(431.722656 0)"/>
      <use xlink:href="#DejaVuSans-20" transform="translate(493.246094 0)"/>
      <use xlink:href="#DejaVuSans-28" transform="translate(525.033203 0)"/>
      <use xlink:href="#DejaVuSans-25" transform="translate(564.046875 0)"/>
      <use xlink:href="#DejaVuSans-29" transform="translate(659.066406 0)"/>
     </g>
    </g>
   </g>
   <g id="matplotlib.axis_2">
    <g id="ytick_1">
     <g id="line2d_7">
      <defs>
       <path id="mc5376bcb3c" d="M 0 0 
L -3.5 0 
" style="stroke: #000000; stroke-width: 0.8"/>
      </defs>
      <g>
       <use xlink:href="#mc5376bcb3c" x="50.002685" y="287.152073" style="stroke: #000000; stroke-width: 0.8"/>
      </g>
     </g>
     <g id="text_8">
      <!-- $\mathdefault{10^{1}}$ -->
      <g transform="translate(25.402685 290.951291) scale(0.1 -0.1)">
       <use xlink:href="#DejaVuSans-31" transform="translate(0 0.684375)"/>
       <use xlink:href="#DejaVuSans-30" transform="translate(63.623047 0.684375)"/>
       <use xlink:href="#DejaVuSans-31" transform="translate(128.203125 38.965625) scale(0.7)"/>
      </g>
     </g>
    </g>
    <g id="ytick_2">
     <g id="line2d_8">
      <g>
       <use xlink:href="#mc5376bcb3c" x="50.002685" y="174.413198" style="stroke: #000000; stroke-width: 0.8"/>
      </g>
     </g>
     <g id="text_9">
      <!-- $\mathdefault{10^{2}}$ -->
      <g transform="translate(25.402685 178.212417) scale(0.1 -0.1)">
       <use xlink:href="#DejaVuSans-31" transform="translate(0 0.765625)"/>
       <use xlink:href="#DejaVuSans-30" transform="translate(63.623047 0.765625)"/>
       <use xlink:href="#DejaVuSans-32" transform="translate(128.203125 39.046875) scale(0.7)"/>
      </g>
     </g>
    </g>
    <g id="ytick_3">
     <g id="line2d_9">
      <g>
       <use xlink:href="#mc5376bcb3c" x="50.002685" y="61.674324" style="stroke: #000000; stroke-width: 0.8"/>
      </g>
     </g>
     <g id="text_10">
      <!-- $\mathdefault{10^{3}}$ -->
      <g transform="translate(25.402685 65.473543) scale(0.1 -0.1)">
       <defs>
        <path id="DejaVuSans-33" d="M 2597 2516 
Q 3050 2419 3304 2112 
Q 3559 1806 3559 1356 
Q 3559 666 3084 287 
Q 2609 -91 1734 -91 
Q 1441 -91 1130 -33 
Q 819 25 488 141 
L 488 750 
Q 750 597 1062 519 
Q 1375 441 1716 441 
Q 2309 441 2620 675 
Q 2931 909 2931 1356 
Q 2931 1769 2642 2001 
Q 2353 2234 1838 2234 
L 1294 2234 
L 1294 2753 
L 1863 2753 
Q 2328 2753 2575 2939 
Q 2822 3125 2822 3475 
Q 2822 3834 2567 4026 
Q 2313 4219 1838 4219 
Q 1578 4219 1281 4162 
Q 984 4106 628 3988 
L 628 4550 
Q 988 4650 1302 4700 
Q 1616 4750 1894 4750 
Q 2613 4750 3031 4423 
Q 3450 4097 3450 3541 
Q 3450 3153 3228 2886 
Q 3006 2619 2597 2516 
z
" transform="scale(0.015625)"/>
       </defs>
       <use xlink:href="#DejaVuSans-31" transform="translate(0 0.765625)"/>
       <use xlink:href="#DejaVuSans-30" transform="translate(63.623047 0.765625)"/>
       <use xlink:href="#DejaVuSans-33" transform="translate(128.203125 39.046875) scale(0.7)"/>
      </g>
     </g>
    </g>
    <g id="ytick_4">
     <g id="line2d_10">
      <defs>
       <path id="m79362fe6e1" d="M 0 0 
L -2 0 
" style="stroke: #000000; stroke-width: 0.6"/>
      </defs>
      <g>
       <use xlink:href="#m79362fe6e1" x="50.002685" y="365.953164" style="stroke: #000000; stroke-width: 0.6"/>
      </g>
     </g>
    </g>
    <g id="ytick_5">
     <g id="line2d_11">
      <g>
       <use xlink:href="#m79362fe6e1" x="50.002685" y="346.100834" style="stroke: #000000; stroke-width: 0.6"/>
      </g>
     </g>
    </g>
    <g id="ytick_6">
     <g id="line2d_12">
      <g>
       <use xlink:href="#m79362fe6e1" x="50.002685" y="332.015381" style="stroke: #000000; stroke-width: 0.6"/>
      </g>
     </g>
    </g>
    <g id="ytick_7">
     <g id="line2d_13">
      <g>
       <use xlink:href="#m79362fe6e1" x="50.002685" y="321.089856" style="stroke: #000000; stroke-width: 0.6"/>
      </g>
     </g>
    </g>
    <g id="ytick_8">
     <g id="line2d_14">
      <g>
       <use xlink:href="#m79362fe6e1" x="50.002685" y="312.163051" style="stroke: #000000; stroke-width: 0.6"/>
      </g>
     </g>
    </g>
    <g id="ytick_9">
     <g id="line2d_15">
      <g>
       <use xlink:href="#m79362fe6e1" x="50.002685" y="304.615545" style="stroke: #000000; stroke-width: 0.6"/>
      </g>
     </g>
    </g>
    <g id="ytick_10">
     <g id="line2d_16">
      <g>
       <use xlink:href="#m79362fe6e1" x="50.002685" y="298.077598" style="stroke: #000000; stroke-width: 0.6"/>
      </g>
     </g>
    </g>
    <g id="ytick_11">
     <g id="line2d_17">
      <g>
       <use xlink:href="#m79362fe6e1" x="50.002685" y="292.310721" style="stroke: #000000; stroke-width: 0.6"/>
      </g>
     </g>
    </g>
    <g id="ytick_12">
     <g id="line2d_18">
      <g>
       <use xlink:href="#m79362fe6e1" x="50.002685" y="253.21429" style="stroke: #000000; stroke-width: 0.6"/>
      </g>
     </g>
    </g>
    <g id="ytick_13">
     <g id="line2d_19">
      <g>
       <use xlink:href="#m79362fe6e1" x="50.002685" y="233.36196" style="stroke: #000000; stroke-width: 0.6"/>
      </g>
     </g>
    </g>
    <g id="ytick_14">
     <g id="line2d_20">
      <g>
       <use xlink:href="#m79362fe6e1" x="50.002685" y="219.276507" style="stroke: #000000; stroke-width: 0.6"/>
      </g>
     </g>
    </g>
    <g id="ytick_15">
     <g id="line2d_21">
      <g>
       <use xlink:href="#m79362fe6e1" x="50.002685" y="208.350981" style="stroke: #000000; stroke-width: 0.6"/>
      </g>
     </g>
    </g>
    <g id="ytick_16">
     <g id="line2d_22">
      <g>
       <use xlink:href="#m79362fe6e1" x="50.002685" y="199.424177" style="stroke: #000000; stroke-width: 0.6"/>
      </g>
     </g>
    </g>
    <g id="ytick_17">
     <g id="line2d_23">
      <g>
       <use xlink:href="#m79362fe6e1" x="50.002685" y="191.876671" style="stroke: #000000; stroke-width: 0.6"/>
      </g>
     </g>
    </g>
    <g id="ytick_18">
     <g id="line2d_24">
      <g>
       <use xlink:href="#m79362fe6e1" x="50.002685" y="185.338724" style="stroke: #000000; stroke-width: 0.6"/>
      </g>
     </g>
    </g>
    <g id="ytick_19">
     <g id="line2d_25">
      <g>
       <use xlink:href="#m79362fe6e1" x="50.002685" y="179.571846" style="stroke: #000000; stroke-width: 0.6"/>
      </g>
     </g>
    </g>
    <g id="ytick_20">
     <g id="line2d_26">
      <g>
       <use xlink:href="#m79362fe6e1" x="50.002685" y="140.475416" style="stroke: #000000; stroke-width: 0.6"/>
      </g>
     </g>
    </g>
    <g id="ytick_21">
     <g id="line2d_27">
      <g>
       <use xlink:href="#m79362fe6e1" x="50.002685" y="120.623085" style="stroke: #000000; stroke-width: 0.6"/>
      </g>
     </g>
    </g>
    <g id="ytick_22">
     <g id="line2d_28">
      <g>
       <use xlink:href="#m79362fe6e1" x="50.002685" y="106.537633" style="stroke: #000000; stroke-width: 0.6"/>
      </g>
     </g>
    </g>
    <g id="ytick_23">
     <g id="line2d_29">
      <g>
       <use xlink:href="#m79362fe6e1" x="50.002685" y="95.612107" style="stroke: #000000; stroke-width: 0.6"/>
      </g>
     </g>
    </g>
    <g id="ytick_24">
     <g id="line2d_30">
      <g>
       <use xlink:href="#m79362fe6e1" x="50.002685" y="86.685303" style="stroke: #000000; stroke-width: 0.6"/>
      </g>
     </g>
    </g>
    <g id="ytick_25">
     <g id="line2d_31">
      <g>
       <use xlink:href="#m79362fe6e1" x="50.002685" y="79.137797" style="stroke: #000000; stroke-width: 0.6"/>
      </g>
     </g>
    </g>
    <g id="ytick_26">
     <g id="line2d_32">
      <g>
       <use xlink:href="#m79362fe6e1" x="50.002685" y="72.59985" style="stroke: #000000; stroke-width: 0.6"/>
      </g>
     </g>
    </g>
    <g id="ytick_27">
     <g id="line2d_33">
      <g>
       <use xlink:href="#m79362fe6e1" x="50.002685" y="66.832972" style="stroke: #000000; stroke-width: 0.6"/>
      </g>
     </g>
    </g>
    <g id="text_11">
     <!-- Duration (ms) -->
     <g transform="translate(19.322997 250.62925) rotate(-90) scale(0.1 -0.1)">
      <defs>
       <path id="DejaVuSans-44" d="M 1259 4147 
L 1259 519 
L 2022 519 
Q 2988 519 3436 956 
Q 3884 1394 3884 2338 
Q 3884 3275 3436 3711 
Q 2988 4147 2022 4147 
L 1259 4147 
z
M 628 4666 
L 1925 4666 
Q 3281 4666 3915 4102 
Q 4550 3538 4550 2338 
Q 4550 1131 3912 565 
Q 3275 0 1925 0 
L 628 0 
L 628 4666 
z
" transform="scale(0.015625)"/>
       <path id="DejaVuSans-75" d="M 544 1381 
L 544 3500 
L 1119 3500 
L 1119 1403 
Q 1119 906 1312 657 
Q 1506 409 1894 409 
Q 2359 409 2629 706 
Q 2900 1003 2900 1516 
L 2900 3500 
L 3475 3500 
L 3475 0 
L 2900 0 
L 2900 538 
Q 2691 219 2414 64 
Q 2138 -91 1772 -91 
Q 1169 -91 856 284 
Q 544 659 544 1381 
z
M 1991 3584 
L 1991 3584 
z
" transform="scale(0.015625)"/>
       <path id="DejaVuSans-61" d="M 2194 1759 
Q 1497 1759 1228 1600 
Q 959 1441 959 1056 
Q 959 750 1161 570 
Q 1363 391 1709 391 
Q 2188 391 2477 730 
Q 2766 1069 2766 1631 
L 2766 1759 
L 2194 1759 
z
M 3341 1997 
L 3341 0 
L 2766 0 
L 2766 531 
Q 2569 213 2275 61 
Q 1981 -91 1556 -91 
Q 1019 -91 701 211 
Q 384 513 384 1019 
Q 384 1609 779 1909 
Q 1175 2209 1959 2209 
L 2766 2209 
L 2766 2266 
Q 2766 2663 2505 2880 
Q 2244 3097 1772 3097 
Q 1472 3097 1187 3025 
Q 903 2953 641 2809 
L 641 3341 
Q 956 3463 1253 3523 
Q 1550 3584 1831 3584 
Q 2591 3584 2966 3190 
Q 3341 2797 3341 1997 
z
" transform="scale(0.015625)"/>
       <path id="DejaVuSans-6f" d="M 1959 3097 
Q 1497 3097 1228 2736 
Q 959 2375 959 1747 
Q 959 1119 1226 758 
Q 1494 397 1959 397 
Q 2419 397 2687 759 
Q 2956 1122 2956 1747 
Q 2956 2369 2687 2733 
Q 2419 3097 1959 3097 
z
M 1959 3584 
Q 2709 3584 3137 3096 
Q 3566 2609 3566 1747 
Q 3566 888 3137 398 
Q 2709 -91 1959 -91 
Q 1206 -91 779 398 
Q 353 888 353 1747 
Q 353 2609 779 3096 
Q 1206 3584 1959 3584 
z
" transform="scale(0.015625)"/>
       <path id="DejaVuSans-6d" d="M 3328 2828 
Q 3544 3216 3844 3400 
Q 4144 3584 4550 3584 
Q 5097 3584 5394 3201 
Q 5691 2819 5691 2113 
L 5691 0 
L 5113 0 
L 5113 2094 
Q 5113 2597 4934 2840 
Q 4756 3084 4391 3084 
Q 3944 3084 3684 2787 
Q 3425 2491 3425 1978 
L 3425 0 
L 2847 0 
L 2847 2094 
Q 2847 2600 2669 2842 
Q 2491 3084 2119 3084 
Q 1678 3084 1418 2786 
Q 1159 2488 1159 1978 
L 1159 0 
L 581 0 
L 581 3500 
L 1159 3500 
L 1159 2956 
Q 1356 3278 1631 3431 
Q 1906 3584 2284 3584 
Q 2666 3584 2933 3390 
Q 3200 3197 3328 2828 
z
" transform="scale(0.015625)"/>
       <path id="DejaVuSans-73" d="M 2834 3397 
L 2834 2853 
Q 2591 2978 2328 3040 
Q 2066 3103 1784 3103 
Q 1356 3103 1142 2972 
Q 928 2841 928 2578 
Q 928 2378 1081 2264 
Q 1234 2150 1697 2047 
L 1894 2003 
Q 2506 1872 2764 1633 
Q 3022 1394 3022 966 
Q 3022 478 2636 193 
Q 2250 -91 1575 -91 
Q 1294 -91 989 -36 
Q 684 19 347 128 
L 347 722 
Q 666 556 975 473 
Q 1284 391 1588 391 
Q 1994 391 2212 530 
Q 2431 669 2431 922 
Q 2431 1156 2273 1281 
Q 2116 1406 1581 1522 
L 1381 1569 
Q 847 1681 609 1914 
Q 372 2147 372 2553 
Q 372 3047 722 3315 
Q 1072 3584 1716 3584 
Q 2034 3584 2315 3537 
Q 2597 3491 2834 3397 
z
" transform="scale(0.015625)"/>
      </defs>
      <use xlink:href="#DejaVuSans-44"/>
      <use xlink:href="#DejaVuSans-75" transform="translate(77.001953 0)"/>
      <use xlink:href="#DejaVuSans-72" transform="translate(140.380859 0)"/>
      <use xlink:href="#DejaVuSans-61" transform="translate(181.494141 0)"/>
      <use xlink:href="#DejaVuSans-74" transform="translate(242.773438 0)"/>
      <use xlink:href="#DejaVuSans-69" transform="translate(281.982422 0)"/>
      <use xlink:href="#DejaVuSans-6f" transform="translate(309.765625 0)"/>
      <use xlink:href="#DejaVuSans-6e" transform="translate(370.947266 0)"/>
      <use xlink:href="#DejaVuSans-20" transform="translate(434.326172 0)"/>
      <use xlink:href="#DejaVuSans-28" transform="translate(466.113281 0)"/>
      <use xlink:href="#DejaVuSans-6d" transform="translate(505.126953 0)"/>
      <use xlink:href="#DejaVuSans-73" transform="translate(602.539062 0)"/>
      <use xlink:href="#DejaVuSans-29" transform="translate(654.638672 0)"/>
     </g>
    </g>
   </g>
   <g id="line2d_34">
    <path d="M 86.511654 374.094925 
L 86.675254 371.995891 
L 86.822494 371.339469 
L 87.624133 370.191011 
L 88.024953 369.855575 
L 88.188553 369.769196 
L 88.319433 369.663818 
L 88.491213 369.55374 
L 89.121073 369.320449 
L 89.538253 369.123067 
L 89.800013 369.042767 
L 90.143573 368.935532 
L 90.380793 368.849252 
L 91.542353 368.526336 
L 91.681413 368.475997 
L 92.532132 368.27074 
L 92.769352 368.211612 
L 93.783672 368.026711 
L 94.086332 367.970326 
L 95.313332 367.794975 
L 95.558732 367.754447 
L 96.352192 367.633548 
L 97.382872 367.481062 
L 103.33791 366.74682 
L 105.14569 366.54825 
L 106.42177 366.436074 
L 108.524029 366.255136 
L 115.215268 365.701755 
L 150.945501 363.472414 
L 153.734881 363.338067 
L 157.39952 363.147901 
L 160.172539 362.997659 
L 161.980319 362.90542 
L 166.569298 362.69406 
L 171.117377 362.455725 
L 175.526396 362.23497 
L 178.054016 362.117143 
L 180.769775 361.995195 
L 184.033595 361.857179 
L 191.600093 361.559139 
L 193.195193 361.491912 
L 198.454932 361.29479 
L 209.14619 360.911148 
L 213.637009 360.775995 
L 215.444788 360.721603 
L 308.88491 358.822174 
L 317.228509 358.66797 
L 407.838351 356.687859 
L 409.368011 356.647781 
L 413.76885 356.536769 
L 422.619608 356.298049 
L 427.372187 356.164007 
L 429.834367 356.088157 
L 501.499333 353.522729 
L 503.274392 353.448887 
L 509.147631 353.18838 
L 513.09039 352.99974 
L 519.274469 352.698803 
L 522.341969 352.538907 
L 525.245868 352.385804 
L 534.366566 351.88168 
L 535.462686 351.811792 
L 538.227525 351.64396 
L 540.771505 351.49501 
L 541.164145 351.470636 
L 543.160065 351.337357 
L 562.587561 349.934671 
L 562.931121 349.899789 
L 564.46896 349.782518 
L 566.13768 349.663982 
L 567.87184 349.534352 
L 570.301299 349.334089 
L 603.904733 346.429834 
L 605.025392 346.315545 
L 606.350552 346.178811 
L 606.661392 346.147533 
L 609.761612 345.831957 
L 614.906831 345.250931 
L 616.69007 345.065654 
L 618.74325 344.804262 
L 619.01319 344.774168 
L 620.00297 344.657541 
L 620.232009 344.625177 
L 621.516269 344.489097 
L 624.714649 344.1233 
L 624.943689 344.094076 
L 626.800548 343.865911 
L 627.495848 343.772462 
L 630.538807 343.359834 
L 631.569487 343.202387 
L 633.933507 342.909367 
L 634.906927 342.795523 
L 659.201522 339.243936 
L 659.496002 339.174946 
L 660.076782 339.075928 
L 661.156541 338.882969 
L 661.655521 338.789684 
L 665.132021 338.190109 
L 665.524661 338.106394 
L 666.91526 337.841971 
L 668.39584 337.54752 
L 670.0073 337.271492 
L 672.780319 336.744497 
L 673.148419 336.644672 
L 673.974599 336.466526 
L 676.101399 336.036312 
L 676.813058 335.88885 
L 677.189338 335.807309 
L 677.990978 335.653071 
L 680.960318 335.01918 
L 682.424537 334.686518 
L 682.915337 334.55314 
L 692.772235 332.111809 
L 693.099435 332.005847 
L 693.532975 331.895327 
L 693.721115 331.827118 
L 703.815233 329.155383 
L 705.107673 328.796663 
L 705.892953 328.613961 
L 706.277413 328.513783 
L 707.029973 328.342385 
L 710.989092 327.172737 
L 713.524891 326.480544 
L 713.811191 326.393253 
L 714.383791 326.172845 
L 714.531031 326.119349 
L 715.749851 325.78194 
L 716.281551 325.62072 
L 716.535131 325.515349 
L 716.952311 325.392549 
L 719.68443 324.507411 
L 720.01981 324.427317 
L 720.70693 324.24879 
L 720.90325 324.180694 
L 721.41041 324.042082 
L 721.97483 323.846125 
L 722.49017 323.710552 
L 722.637409 323.667812 
L 723.144569 323.514896 
L 723.422689 323.433963 
L 726.678329 322.61736 
L 727.128229 322.517616 
L 727.872608 322.348348 
L 728.142548 322.264324 
L 729.099608 322.045575 
L 730.424768 321.700491 
L 731.193688 321.516443 
L 731.758108 321.362046 
L 732.813327 321.102372 
L 733.148707 321.037132 
L 734.261187 320.78612 
L 734.457507 320.733917 
L 739.471846 319.620407 
L 740.298026 319.387543 
L 741.132386 319.185715 
L 741.435046 319.108663 
L 741.893126 318.98011 
L 742.089446 318.900469 
L 742.367566 318.820826 
L 746.760225 317.785792 
L 746.972905 317.722391 
L 748.486204 317.235348 
L 749.058804 317.111921 
L 749.296024 317.040668 
L 753.304223 315.899513 
L 753.623243 315.80372 
L 754.122223 315.648538 
L 754.645743 315.487382 
L 755.087463 315.338874 
L 756.404443 314.839747 
L 756.559863 314.769381 
L 760.968882 312.934394 
L 761.631462 312.679382 
L 762.097722 312.479952 
L 762.277682 312.386664 
L 762.703042 312.191278 
L 763.218382 311.897201 
L 763.701001 311.692931 
L 765.770541 310.634768 
L 765.983221 310.512134 
L 766.474021 310.294907 
L 766.891201 310.095268 
L 767.136601 309.972322 
L 768.70716 309.052494 
L 769.14888 308.827285 
L 769.90962 308.339172 
L 770.84214 307.804705 
L 771.01392 307.703125 
L 771.4311 307.438182 
L 771.6765 307.234943 
L 772.33908 306.832282 
L 772.70718 306.634358 
L 774.784899 305.213544 
L 774.915779 305.126956 
L 777.647899 303.189762 
L 777.917839 303.01935 
L 778.187779 302.83699 
L 778.400459 302.687653 
L 778.564059 302.575403 
L 778.809459 302.446014 
L 779.022138 302.281509 
L 781.786978 300.433036 
L 781.934218 300.339059 
L 782.056918 300.229002 
L 782.220518 300.092388 
L 782.498638 299.923152 
L 782.678598 299.793015 
L 783.153038 299.335413 
L 783.308458 299.1818 
L 786.343237 296.795769 
L 786.539557 296.572492 
L 786.629537 296.456216 
L 789.410736 293.190003 
L 789.549796 293.039579 
L 789.639776 292.926596 
L 790.204196 292.367631 
L 790.637736 291.69967 
L 790.768616 291.519949 
L 791.684776 290.389732 
L 792.134676 289.964429 
L 792.290096 289.705774 
L 792.429156 289.597038 
L 792.829976 289.180716 
L 793.173536 288.700059 
L 793.296236 288.573003 
L 793.647976 288.25618 
L 793.795216 288.119192 
L 795.136735 286.728257 
L 796.510975 284.899603 
L 796.740015 284.408147 
L 797.206275 283.542646 
L 797.345335 283.28928 
L 797.492575 283.167449 
L 797.885215 282.553327 
L 798.016095 282.23924 
L 798.294215 281.773723 
L 798.433275 281.369373 
L 798.899535 280.256459 
L 798.948615 280.145514 
L 799.578474 278.617378 
L 799.766614 278.033985 
L 799.987474 277.5766 
L 800.142894 277.342391 
L 800.461914 276.534981 
L 800.592794 276.026826 
L 800.862734 275.498881 
L 801.001794 275.328929 
L 801.181754 275.048319 
L 801.590754 273.754709 
L 801.607114 273.633855 
L 801.819794 273.04855 
L 802.040654 272.072446 
L 802.220614 271.524696 
L 802.449654 270.734189 
L 802.555994 270.404584 
L 802.727774 269.805943 
L 802.785034 269.629817 
L 803.472154 267.722754 
L 803.513054 267.602307 
L 804.020214 266.133048 
L 804.093834 265.870533 
L 804.322874 265.261388 
L 804.429214 265.062837 
L 804.609173 264.275699 
L 804.756413 263.816914 
L 804.944553 263.213174 
L 805.001813 262.91342 
L 805.149053 262.368034 
L 805.189953 262.294164 
L 805.337193 261.692486 
L 805.402633 261.366448 
L 805.533513 260.842651 
L 806.081573 258.366573 
L 806.236993 257.420168 
L 806.392413 256.932006 
L 806.825953 254.19468 
L 806.899573 253.958358 
L 806.989553 253.544961 
L 807.144973 252.733886 
L 807.472173 251.495302 
L 807.570333 251.280315 
L 807.783013 250.085183 
L 807.889353 249.703038 
L 808.085673 248.301568 
L 808.134753 248.159768 
L 808.200193 247.924489 
L 808.339253 246.90906 
L 808.870953 244.056407 
L 808.920033 243.83171 
L 809.958892 235.006964 
L 810.523312 229.646975 
L 810.547852 229.54297 
L 810.768712 227.351733 
L 810.965032 224.561779 
L 811.905732 203.224422 
L 812.020252 201.902992 
L 812.282012 198.150607 
L 812.322912 197.650063 
L 813.230892 184.2238 
L 813.656252 182.033153 
L 813.819852 181.00987 
L 813.893472 180.591792 
L 814.065252 179.047196 
L 814.089792 178.946334 
L 814.367912 171.423564 
L 814.646032 144.889784 
L 814.809631 134.512468 
L 815.014131 121.247765 
L 815.815771 97.511196 
L 815.930291 88.222302 
L 816.224771 83.553433 
L 816.273851 83.263973 
L 816.306571 82.237559 
L 816.421091 76.638202 
L 816.470171 75.157504 
L 816.609231 73.832563 
L 816.625591 73.764319 
L 816.691031 73.275348 
L 816.691031 73.275348 
" clip-path="url(#p7142b13971)" style="fill: none; stroke: #1f77b4; stroke-width: 1.5; stroke-linecap: square"/>
   </g>
   <g id="line2d_35">
    <path d="M 86.511654 374.213455 
L 86.675043 370.656253 
L 86.769637 370.422972 
L 86.915828 369.941124 
L 87.03622 369.647818 
L 87.3458 368.932253 
L 87.577985 368.739874 
L 87.81017 368.431194 
L 88.403532 367.940539 
L 88.58412 367.82943 
L 88.730311 367.681938 
L 89.633253 367.205629 
L 89.839639 367.098704 
L 90.355606 366.833906 
L 91.026363 366.577425 
L 91.163954 366.531303 
L 91.748716 366.285221 
L 92.385075 366.045324 
L 92.987036 365.788172 
L 93.39121 365.624049 
L 94.225357 365.354123 
L 94.474741 365.239677 
L 95.437879 364.981646 
L 105.980799 362.271402 
L 110.065536 361.450785 
L 110.237525 361.408711 
L 111.346854 361.208456 
L 112.911953 360.933834 
L 113.617107 360.815523 
L 114.717836 360.673512 
L 116.067949 360.462294 
L 118.492993 360.202871 
L 118.957363 360.166423 
L 120.86644 359.988012 
L 122.345545 359.840296 
L 125.647732 359.562133 
L 128.717735 359.320998 
L 131.245972 359.130748 
L 134.401968 358.895495 
L 135.640289 358.811953 
L 148.376068 357.732024 
L 148.616852 357.705581 
L 150.009963 357.552848 
L 150.457134 357.501837 
L 152.753186 357.243169 
L 153.31215 357.156383 
L 155.33302 356.931384 
L 155.668398 356.896029 
L 157.990249 356.588078 
L 158.936188 356.438686 
L 167.002468 355.227005 
L 168.008603 355.063002 
L 168.593366 354.975708 
L 170.863619 354.622213 
L 171.259194 354.568576 
L 172.850091 354.332076 
L 186.402818 351.888586 
L 187.563743 351.657249 
L 187.847525 351.611748 
L 188.784865 351.425508 
L 189.576014 351.284967 
L 191.863466 350.874743 
L 192.026856 350.834601 
L 192.654615 350.72395 
L 192.8954 350.671208 
L 194.271311 350.379131 
L 214.798189 346.239805 
L 215.348553 346.130579 
L 217.317826 345.732463 
L 217.868191 345.594567 
L 218.203569 345.526724 
L 220.36203 345.059326 
L 220.620014 345.004412 
L 223.062256 344.460474 
L 223.31164 344.396611 
L 223.879204 344.288003 
L 224.592958 344.140561 
L 226.390242 343.794893 
L 226.914808 343.674717 
L 227.361979 343.574206 
L 228.024137 343.436344 
L 232.642039 342.329579 
L 233.123608 342.202165 
L 234.387727 341.922081 
L 234.594113 341.866262 
L 237.070754 341.280977 
L 237.578121 341.158 
L 237.982295 341.038569 
L 238.773444 340.840402 
L 238.936834 340.788511 
L 244.664065 339.144311 
L 245.111236 339.022045 
L 246.143169 338.717289 
L 246.375354 338.646781 
L 247.2181 338.385662 
L 247.863059 338.180459 
L 248.241434 338.083333 
L 249.161575 337.829619 
L 249.479754 337.745926 
L 250.030119 337.604331 
L 250.460091 337.453062 
L 250.847066 337.317494 
L 251.10505 337.256722 
L 251.56082 337.128747 
L 252.850737 336.767961 
L 253.220513 336.637273 
L 253.478497 336.560883 
L 254.390038 336.243566 
L 255.43917 335.908686 
L 255.636958 335.870955 
L 256.049731 335.753204 
L 257.92441 335.256469 
L 258.104999 335.181393 
L 258.973543 334.909145 
L 259.377717 334.773904 
L 259.79909 334.659509 
L 260.10007 334.541333 
L 260.822424 334.351955 
L 261.880155 334.045925 
L 262.189736 333.935088 
L 269.783046 331.722865 
L 270.385008 331.56664 
L 270.668789 331.464961 
L 271.339546 331.250386 
L 273.317419 330.657136 
L 273.695794 330.526848 
L 280.669945 328.456951 
L 281.05692 328.328669 
L 281.332102 328.236402 
L 281.822271 328.11507 
L 282.338237 327.987059 
L 282.940199 327.82702 
L 284.109723 327.522862 
L 284.806278 327.313799 
L 288.443844 326.444274 
L 288.633032 326.399135 
L 289.217794 326.267113 
L 290.473313 325.938514 
L 290.757095 325.862275 
L 291.290261 325.726501 
L 291.46225 325.67477 
L 297.834439 323.862143 
L 298.453599 323.660763 
L 298.728781 323.566804 
L 299.150154 323.445203 
L 299.451135 323.358005 
L 300.723853 323.015607 
L 300.938839 322.953964 
L 301.927775 322.698602 
L 302.31475 322.599956 
L 302.839317 322.478524 
L 303.037104 322.436885 
L 303.527272 322.308838 
L 303.759457 322.258256 
L 304.206629 322.150564 
L 305.100971 321.931635 
L 305.814725 321.769192 
L 306.657471 321.574818 
L 307.250832 321.446675 
L 307.560413 321.348685 
L 308.652542 321.129737 
L 309.022318 321.030501 
L 311.189379 320.570258 
L 311.516158 320.482767 
L 312.281508 320.302721 
L 321.517313 318.087371 
L 322.067678 317.959254 
L 323.58978 317.60375 
L 323.74457 317.559796 
L 325.45586 317.167377 
L 325.731042 317.09969 
L 326.496393 316.955882 
L 326.883368 316.880524 
L 327.863704 316.679774 
L 328.310876 316.557755 
L 328.938635 316.423718 
L 329.102025 316.382411 
L 329.4804 316.261841 
L 330.151157 316.081929 
L 330.890709 315.909449 
L 331.097096 315.845333 
L 332.5934 315.539253 
L 333.040571 315.427855 
L 333.315753 315.35171 
L 335.577408 314.782568 
L 336.755532 314.516035 
L 336.910322 314.479609 
L 337.495084 314.323119 
L 338.33783 314.087307 
L 339.601948 313.74706 
L 339.902929 313.652431 
L 342.250578 313.050133 
L 342.448365 312.987146 
L 343.067525 312.816157 
L 343.703884 312.613254 
L 344.486434 312.435981 
L 344.744417 312.385983 
L 346.421309 311.955445 
L 346.739488 311.869882 
L 347.229657 311.741846 
L 347.48764 311.672988 
L 348.545372 311.445985 
L 366.784797 306.151007 
L 367.04278 306.051155 
L 367.464153 305.889843 
L 367.756534 305.807892 
L 370.413763 304.947496 
L 370.92973 304.759874 
L 371.505893 304.588372 
L 371.996061 304.410357 
L 372.408835 304.255124 
L 372.615221 304.197785 
L 373.337575 303.930591 
L 374.102926 303.731957 
L 375.083262 303.430002 
L 375.332646 303.324083 
L 376.424776 302.93556 
L 376.67416 302.841071 
L 388.713384 297.665506 
L 388.962768 297.526688 
L 390.321481 296.930859 
L 390.768652 296.707502 
L 391.078232 296.571032 
L 391.250221 296.466513 
L 391.473806 296.353472 
L 391.809185 296.169621 
L 392.35095 295.934188 
L 392.514339 295.795115 
L 392.755124 295.682306 
L 393.219494 295.412676 
L 393.59787 295.202068 
L 393.830055 295.065563 
L 394.337422 294.824101 
L 394.543809 294.672308 
L 394.82759 294.507002 
L 395.008179 294.37171 
L 395.180168 294.2641 
L 395.850924 293.925659 
L 396.160504 293.786926 
L 396.418488 293.598387 
L 396.650673 293.451566 
L 396.805463 293.320183 
L 397.295631 293.090854 
L 397.484819 292.979583 
L 397.725604 292.841692 
L 398.723139 292.290721 
L 398.86933 292.198097 
L 399.221907 292.003439 
L 399.411095 291.880754 
L 399.64328 291.771809 
L 400.288239 291.327772 
L 400.503225 291.196981 
L 400.761208 290.993427 
L 400.976194 290.812229 
L 401.621153 290.488916 
L 402.498296 289.987604 
L 402.704683 289.843788 
L 403.005663 289.652491 
L 403.246448 289.505473 
L 405.07813 288.580313 
L 405.293116 288.46466 
L 406.282052 287.879157 
L 406.720624 287.646297 
L 408.001942 287.004201 
L 408.345919 286.858965 
L 408.664099 286.703615 
L 409.025276 286.494688 
L 412.129676 285.008985 
L 412.293065 284.896432 
L 412.611245 284.735142 
L 413.290601 284.381128 
L 413.539985 284.259992 
L 413.815167 284.096751 
L 414.408529 283.803517 
L 414.735308 283.628355 
L 415.208277 283.356809 
L 417.203349 281.829296 
L 417.358139 281.717616 
L 417.659119 281.562907 
L 418.381473 281.069784 
L 418.630857 280.852698 
L 418.828644 280.66876 
L 419.095227 280.487399 
L 419.318812 280.315317 
L 419.568196 280.056899 
L 420.084163 279.647467 
L 420.410942 279.393899 
L 420.565732 279.228168 
L 420.961307 278.874128 
L 421.365481 278.64305 
L 421.520271 278.51772 
L 421.915845 278.213429 
L 422.053436 278.059101 
L 422.320019 277.877263 
L 423.609936 276.649973 
L 423.721729 276.52192 
L 423.85072 276.406041 
L 425.544811 274.643366 
L 425.708201 274.47483 
L 425.948985 274.176023 
L 426.02638 274.085246 
L 426.301563 273.656673 
L 426.49935 273.478438 
L 426.757333 273.171875 
L 426.998118 272.854904 
L 427.350695 272.478581 
L 427.488286 272.330596 
L 428.270836 271.614758 
L 428.468623 271.380846 
L 428.597615 271.246089 
L 428.8212 271.017101 
L 429.147979 270.768156 
L 429.319968 270.51514 
L 429.732742 270.128564 
L 429.973526 269.954784 
L 430.171313 269.661632 
L 431.039857 268.790574 
L 431.375236 268.408137 
L 431.521426 268.255962 
L 431.607421 268.143003 
L 431.813807 268.007902 
L 431.917001 267.856739 
L 432.054592 267.710768 
L 432.260979 267.522037 
L 433.17252 266.458316 
L 433.335909 266.195144 
L 433.688487 265.693221 
L 433.79168 265.493074 
L 433.929271 265.398057 
L 434.084061 265.201084 
L 434.221652 265.031227 
L 434.428039 264.820102 
L 434.617227 264.53419 
L 434.772017 264.271167 
L 434.918207 264.096812 
L 436.818685 261.624854 
L 437.016472 261.305063 
L 437.085268 261.192351 
L 437.317453 260.905962 
L 437.437845 260.767591 
L 437.652831 260.488488 
L 437.781823 260.367868 
L 438.306389 259.644388 
L 438.392384 259.546612 
L 438.813756 258.975913 
L 439.054541 258.722541 
L 439.209331 258.515799 
L 439.596306 258.048365 
L 440.16387 257.343947 
L 440.335858 257.078676 
L 440.430452 256.981068 
L 440.593842 256.677682 
L 441.144206 255.933453 
L 441.324795 255.625457 
L 441.427988 255.507377 
L 441.943955 254.968693 
L 442.244935 254.59778 
L 442.305132 254.516983 
L 442.442723 254.341334 
L 442.803899 253.870485 
L 442.984488 253.724789 
L 443.242471 253.360778 
L 443.42306 253.187192 
L 444.523789 252.23069 
L 444.876366 251.928791 
L 445.099951 251.685463 
L 445.676114 251.144287 
L 447.258412 249.365678 
L 447.413202 249.269613 
L 447.696984 248.907415 
L 448.238749 248.413425 
L 450.629395 246.471859 
L 451.007771 246.273759 
L 451.17976 246.111548 
L 451.583934 245.802363 
L 452.091301 245.504322 
L 453.054439 244.921 
L 453.252226 244.807165 
L 454.034776 244.24877 
L 454.447549 243.906562 
L 454.59374 243.783225 
L 455.109707 243.301534 
L 455.273096 243.164762 
L 455.625673 242.861449 
L 456.176038 242.473501 
L 456.373825 242.278117 
L 457.551949 241.38527 
L 457.784134 241.188658 
L 457.938924 241.009718 
L 458.136712 240.817892 
L 458.824667 240.162407 
L 458.927861 240.028665 
L 459.177245 239.817535 
L 459.306236 239.687248 
L 459.615816 239.397802 
L 459.8738 239.140716 
L 460.045789 238.946817 
L 460.406965 238.625942 
L 460.621951 238.36097 
L 460.776742 238.241464 
L 461.094921 237.896655 
L 461.344305 237.644549 
L 461.481896 237.525559 
L 461.688283 237.328175 
L 462.006462 237.074096 
L 462.144053 236.861516 
L 463.150189 235.754494 
L 463.304979 235.603557 
L 463.476968 235.42947 
L 463.640357 235.317812 
L 467.802489 229.556066 
L 467.983077 229.354934 
L 468.112069 229.19273 
L 468.335655 228.840003 
L 468.430248 228.744772 
L 468.619436 228.317038 
L 468.679632 228.153637 
L 468.817224 227.978005 
L 468.989212 227.700646 
L 469.195599 227.322451 
L 469.883555 226.07785 
L 470.021146 225.687447 
L 470.356524 224.842975 
L 470.459718 224.708326 
L 470.640306 224.374912 
L 471.04448 223.463675 
L 471.147673 223.319519 
L 471.577646 222.494568 
L 471.732436 222.140966 
L 471.809831 222.018586 
L 471.97322 221.599821 
L 472.042016 221.513435 
L 472.257002 220.901817 
L 472.299999 220.788641 
L 472.506386 220.438813 
L 472.575181 220.291906 
L 472.824565 219.830326 
L 476.083755 215.088888 
L 476.135352 215.002255 
L 476.281543 214.861446 
L 476.522327 214.512438 
L 476.608322 214.390109 
L 476.849106 214.075432 
L 477.029694 213.867848 
L 477.227482 213.623699 
L 477.322076 213.535669 
L 477.468266 213.395925 
L 477.605857 213.275612 
L 477.87244 212.970153 
L 477.984233 212.832059 
L 478.121824 212.678136 
L 478.233617 212.558052 
L 478.414205 212.33313 
L 478.611992 212.111795 
L 478.818379 211.831953 
L 478.947371 211.699789 
L 479.11936 211.568071 
L 481.596 209.021716 
L 481.793787 208.90184 
L 482.283956 208.2981 
L 482.67953 207.988023 
L 482.946113 207.712326 
L 483.195497 207.55884 
L 483.358887 207.436475 
L 486.540682 205.047876 
L 486.712671 204.928135 
L 486.893259 204.816665 
L 487.082447 204.645016 
L 487.761803 204.109523 
L 487.933792 204.008743 
L 488.329366 203.772454 
L 488.475557 203.652748 
L 489.309703 203.216302 
L 489.524689 203.095481 
L 489.920264 202.805344 
L 490.14385 202.624038 
L 490.479228 202.454475 
L 491.502562 201.85467 
L 491.743346 201.694712 
L 492.130322 201.476692 
L 492.448501 201.339287 
L 499.45705 198.36344 
L 500.041812 198.200728 
L 500.351392 198.104976 
L 500.772765 197.938619 
L 501.228535 197.75761 
L 501.735903 197.591362 
L 502.071281 197.480604 
L 502.587248 197.306644 
L 503.008621 197.14914 
L 505.433664 196.406325 
L 505.915233 196.294831 
L 511.418879 194.731984 
L 513.181765 194.271272 
L 513.379553 194.202317 
L 513.680533 194.083465 
L 516.21737 193.356028 
L 517.567483 193.02933 
L 517.76527 192.981911 
L 518.418828 192.853739 
L 519.459361 192.583965 
L 519.897933 192.463604 
L 520.749278 192.259713 
L 521.144852 192.167881 
L 521.738214 192.040024 
L 522.770148 191.825942 
L 523.810681 191.625206 
L 524.404042 191.507224 
L 525.246788 191.345904 
L 525.771354 191.23216 
L 526.338918 191.127136 
L 530.139873 190.33997 
L 530.458052 190.286801 
L 532.401527 189.914433 
L 532.960491 189.790957 
L 535.428532 189.325661 
L 536.718449 189.101875 
L 536.899037 189.05166 
L 537.612791 188.93405 
L 537.93957 188.882226 
L 538.937106 188.718012 
L 539.530468 188.60511 
L 540.73439 188.38289 
L 541.50834 188.22264 
L 542.858453 188.003825 
L 545.627475 187.461977 
L 545.902657 187.415545 
L 547.674143 187.113552 
L 548.439494 186.999682 
L 549.514425 186.828352 
L 550.898935 186.613491 
L 551.466499 186.502051 
L 552.051261 186.416286 
L 555.80062 185.817646 
L 565.294408 184.465595 
L 566.515529 184.293925 
L 566.885305 184.236064 
L 567.753849 184.112502 
L 568.226819 184.034192 
L 569.370545 183.856465 
L 570.006904 183.760246 
L 570.952843 183.599398 
L 571.511807 183.528127 
L 572.603937 183.375326 
L 573.051108 183.309442 
L 575.785732 182.90697 
L 576.12971 182.861468 
L 577.282036 182.720136 
L 580.051057 182.402753 
L 581.813944 182.202672 
L 582.579294 182.08333 
L 583.232852 182.003838 
L 585.554703 181.706865 
L 586.982211 181.544146 
L 587.566973 181.478494 
L 589.329859 181.260913 
L 589.923221 181.192745 
L 597.989502 180.32188 
L 599.674993 180.106556 
L 600.939112 179.979585 
L 608.988193 179.268055 
L 613.674891 178.881473 
L 614.93901 178.786131 
L 616.246125 178.674494 
L 616.968479 178.619539 
L 618.860357 178.469909 
L 622.876298 178.158056 
L 623.332069 178.126035 
L 625.567925 177.948069 
L 627.597394 177.791578 
L 631.114567 177.511314 
L 633.09244 177.375922 
L 650.385926 176.175393 
L 653.464528 175.979649 
L 655.322008 175.863618 
L 659.63893 175.565384 
L 661.453413 175.44167 
L 663.98165 175.25125 
L 665.013584 175.16908 
L 666.604481 175.056617 
L 669.614287 174.838493 
L 671.12779 174.736816 
L 674.662162 174.461854 
L 675.745692 174.382237 
L 677.276393 174.269587 
L 680.389393 174.053288 
L 680.862362 174.023039 
L 691.198897 173.329958 
L 691.818057 173.284999 
L 693.658338 173.157699 
L 693.907722 173.132657 
L 696.676744 172.927443 
L 697.381898 172.868501 
L 699.548959 172.708384 
L 700.486298 172.620892 
L 702.102994 172.485927 
L 702.541566 172.452599 
L 704.201259 172.332138 
L 704.734424 172.286644 
L 706.789692 172.137749 
L 708.303195 172.004905 
L 708.655772 171.971754 
L 711.063617 171.796337 
L 712.301937 171.715422 
L 714.554992 171.561492 
L 717.134826 171.389698 
L 729.354638 170.453848 
L 729.836207 170.401193 
L 731.169121 170.247511 
L 733.000803 170.02761 
L 736.595372 169.436276 
L 736.896352 169.39076 
L 737.515513 169.278895 
L 737.7133 169.228751 
L 738.530247 169.054338 
L 740.103946 168.765696 
L 741.299269 168.499305 
L 743.965097 167.769743 
L 744.214481 167.706861 
L 747.361878 166.475232 
L 750.999444 164.255159 
L 751.197231 164.139085 
L 751.506811 163.916543 
L 751.695999 163.806688 
L 751.885187 163.6641 
L 752.469949 163.172942 
L 752.77093 162.861835 
L 753.252499 162.549628 
L 753.415888 162.395757 
L 753.579278 162.289517 
L 754.069446 161.963476 
L 756.752473 160.206431 
L 756.924462 160.101849 
L 757.10505 159.981997 
L 758.377768 159.082684 
L 758.584155 158.588963 
L 758.627152 158.498504 
L 758.773343 158.236608 
L 758.81634 158.150767 
L 758.962531 157.78083 
L 759.12592 157.353896 
L 759.478498 155.738362 
L 759.512895 155.539138 
L 759.796677 151.007631 
L 759.822475 150.903842 
L 759.960067 150.492953 
L 760.742616 148.968225 
L 760.854409 148.840565 
L 761.026398 148.630984 
L 761.206986 148.462611 
L 761.550964 148.159255 
L 761.783149 147.958586 
L 762.006735 147.819086 
L 762.178724 147.620628 
L 766.796626 144.614929 
L 766.994413 144.501578 
L 767.192201 144.401893 
L 767.381388 144.272775 
L 767.561977 144.190631 
L 767.768364 144.07633 
L 768.000549 143.938067 
L 768.791698 143.428728 
L 768.980885 143.314631 
L 769.436656 143.159904 
L 769.711838 143.064125 
L 770.640578 142.735542 
L 771.302736 142.561336 
L 771.448926 142.497621 
L 772.455062 142.073448 
L 772.94523 141.914449 
L 773.959965 141.650627 
L 774.923103 141.496784 
L 775.791647 141.347987 
L 776.67739 141.148109 
L 776.97837 141.067618 
L 778.603665 140.756222 
L 789.731349 139.182762 
L 790.935271 139.015714 
L 792.164992 138.852692 
L 794.168663 138.572515 
L 794.392248 138.529697 
L 798.519982 137.895758 
L 799.18214 137.776586 
L 800.88483 137.48559 
L 801.675979 137.350172 
L 802.13175 137.273913 
L 804.341807 136.861772 
L 804.556793 136.794263 
L 805.029763 136.657965 
L 805.468335 136.569356 
L 808.211558 136.055009 
L 808.968309 135.79224 
L 809.131699 135.701306 
L 810.834389 134.70788 
L 811.014977 134.520246 
L 811.608339 133.79843 
L 811.892121 133.30974 
L 812.012513 133.081518 
L 812.167303 132.64034 
L 812.296295 132.371179 
L 812.37369 131.761204 
L 812.605875 130.753949 
L 812.657472 130.704662 
L 812.820861 130.207926 
L 812.863858 130.000806 
L 813.13904 126.705573 
L 813.259433 124.44064 
L 813.328228 124.137122 
L 813.990386 120.019769 
L 814.342963 119.34445 
L 814.403159 119.228068 
L 814.557949 119.042237 
L 814.979322 118.464411 
L 815.039518 118.378691 
L 815.211507 118.073743 
L 815.460891 117.748255 
L 816.123048 116.426495 
L 816.191844 116.241164 
L 816.363833 115.543739 
L 816.467026 113.402874 
L 816.690612 82.95824 
L 816.690612 82.95824 
" clip-path="url(#p7142b13971)" style="fill: none; stroke: #ff7f0e; stroke-width: 1.5; stroke-linecap: square"/>
   </g>
   <g id="line2d_36">
    <path d="M 86.511654 357.267314 
L 86.650957 353.35401 
L 86.67554 353.208416 
L 86.896787 352.137173 
L 86.97873 351.924546 
L 87.372057 351.076272 
L 88.027603 350.377367 
L 89.86313 349.174559 
L 93.591545 348.025217 
L 94.07501 347.906909 
L 98.909658 346.970369 
L 100.237138 346.790399 
L 100.745185 346.724599 
L 102.490575 346.511991 
L 104.268743 346.317594 
L 106.636901 346.088513 
L 107.177726 346.029907 
L 109.218111 345.841826 
L 112.569588 345.561061 
L 114.52803 345.435092 
L 117.035491 345.280758 
L 118.920185 345.163032 
L 119.805171 345.111599 
L 121.607921 344.993593 
L 124.0908 344.829779 
L 128.515732 344.571949 
L 152.787304 343.464776 
L 156.900852 343.30727 
L 157.720284 343.275201 
L 162.669653 343.090039 
L 163.636583 343.055198 
L 170.863972 342.795477 
L 174.117116 342.688335 
L 177.968446 342.570872 
L 179.66467 342.509516 
L 190.981025 342.168071 
L 210.204897 341.607857 
L 224.95467 341.228794 
L 241.810384 340.82327 
L 260.87037 340.371617 
L 263.648244 340.310431 
L 445.619482 336.335248 
L 447.0371 336.300901 
L 463.14713 335.901238 
L 465.220293 335.84474 
L 471.923246 335.668816 
L 500.267395 334.913028 
L 505.233152 334.762639 
L 508.248661 334.678453 
L 512.968589 334.537621 
L 576.47456 332.229703 
L 578.088841 332.159664 
L 581.743507 331.990185 
L 582.194195 331.970039 
L 583.759309 331.892311 
L 611.595411 330.330018 
L 612.849141 330.239595 
L 615.08619 330.090119 
L 615.790902 330.035861 
L 618.63433 329.847256 
L 620.895962 329.681042 
L 625.230757 329.323005 
L 628.336404 329.070017 
L 629.508192 328.954159 
L 629.917907 328.922869 
L 635.252409 328.450441 
L 636.645443 328.314889 
L 637.456681 328.24608 
L 643.881027 327.63013 
L 644.421852 327.568312 
L 646.06891 327.410815 
L 646.601541 327.350931 
L 648.445262 327.115392 
L 649.61705 326.984331 
L 652.099929 326.629502 
L 652.321175 326.582253 
L 652.870195 326.483671 
L 654.689333 326.19824 
L 655.074466 326.136791 
L 655.787372 326.019052 
L 656.614998 325.87211 
L 657.467207 325.749231 
L 660.154944 325.303267 
L 661.03993 325.133732 
L 662.195329 324.926015 
L 662.441159 324.865771 
L 663.490032 324.691754 
L 664.563488 324.491621 
L 664.8339 324.432737 
L 665.661526 324.266947 
L 667.882187 323.811971 
L 670.283122 323.325246 
L 670.479786 323.276952 
L 671.061582 323.150686 
L 671.553242 323.048485 
L 673.528072 322.677407 
L 673.913205 322.608723 
L 675.625818 322.271486 
L 675.896231 322.208338 
L 676.609136 322.070146 
L 677.330236 321.895466 
L 677.871061 321.760624 
L 678.49383 321.634044 
L 678.821602 321.556307 
L 679.38701 321.445215 
L 682.902373 320.595466 
L 683.770971 320.376552 
L 684.229853 320.230156 
L 687.966462 319.256973 
L 688.392567 319.140582 
L 688.802283 319.018918 
L 689.211999 318.892425 
L 689.908516 318.697538 
L 690.69517 318.494303 
L 692.342228 318.022925 
L 692.579864 317.956158 
L 697.684924 316.355619 
L 698.061863 316.218374 
L 698.528939 316.040061 
L 698.684631 315.977486 
L 698.955044 315.860432 
L 699.872807 315.546195 
L 700.798765 315.259208 
L 700.938069 315.184731 
L 701.355979 315.029998 
L 701.519866 314.916903 
L 701.970553 314.767075 
L 707.255889 312.467305 
L 707.427969 312.373615 
L 708.083515 312.038463 
L 708.435871 311.889922 
L 710.1239 311.022019 
L 710.402507 310.837735 
L 710.664725 310.722722 
L 710.935138 310.554804 
L 711.213745 310.423195 
L 711.377631 310.318611 
L 712.59039 309.687832 
L 712.942746 309.515156 
L 713.147604 309.34838 
L 713.483571 309.236086 
L 714.163699 308.91437 
L 714.499667 308.750674 
L 716.794076 307.413233 
L 716.941574 307.305382 
L 722.710374 303.763278 
L 722.866066 303.648152 
L 723.029952 303.5334 
L 723.23481 303.407873 
L 723.636332 303.090672 
L 724.693399 302.317875 
L 724.914646 302.158907 
L 725.078532 302.045385 
L 725.7013 301.546915 
L 725.914353 301.393289 
L 726.315874 301.149278 
L 726.569898 300.944346 
L 726.774756 300.823095 
L 726.938643 300.674856 
L 727.602382 300.052884 
L 727.774463 299.897216 
L 727.938349 299.773294 
L 728.175985 299.576043 
L 728.397231 299.445975 
L 728.544729 299.330069 
L 728.897085 299.043328 
L 729.02 298.934399 
L 729.159303 298.782131 
L 730.027901 297.980347 
L 730.322896 297.683582 
L 730.609697 297.481647 
L 730.88011 297.275983 
L 731.003025 297.177058 
L 731.199688 296.988089 
L 731.445518 296.818299 
L 732.666471 295.402071 
L 732.781192 295.292521 
L 733.10077 294.997234 
L 733.223685 294.892818 
L 733.420349 294.702369 
L 733.584235 294.570564 
L 734.583942 293.523753 
L 735.223099 292.927268 
L 735.346014 292.78219 
L 736.616133 291.507109 
L 736.755437 291.386012 
L 736.89474 291.188526 
L 737.320845 290.908334 
L 737.492925 290.63706 
L 737.607646 290.444048 
L 737.886253 290.080034 
L 738.312357 289.706449 
L 738.541798 289.473514 
L 738.722073 289.309524 
L 739.164566 288.614962 
L 739.549699 288.105062 
L 739.713586 287.891791 
L 740.270799 287.328786 
L 740.483852 287.00981 
L 740.934539 286.418921 
L 741.442587 285.640796 
L 741.590085 285.438389 
L 741.786748 285.28943 
L 741.983412 285.06024 
L 742.171881 284.891182 
L 742.368545 284.643652 
L 743.466584 283.449501 
L 743.63047 283.192158 
L 743.728802 283.077789 
L 744.04838 282.674947 
L 744.113935 282.566995 
L 747.096667 279.162914 
L 747.23597 279.04779 
L 747.432634 278.821981 
L 748.219289 277.953238 
L 748.538867 277.535024 
L 748.891223 277.18396 
L 749.292744 276.768468 
L 749.497602 276.49 
L 749.604128 276.378317 
L 749.808986 276.025414 
L 750.095788 275.735769 
L 750.194119 275.630222 
L 750.603835 275.104243 
L 750.693973 274.98771 
L 750.841471 274.762662 
L 750.956191 274.637742 
L 751.193826 274.374271 
L 751.537988 274.043511 
L 751.685485 273.912747 
L 752.177145 273.446172 
L 752.349225 273.085037 
L 753.037548 272.307682 
L 753.119491 272.156236 
L 753.316155 271.863 
L 753.430875 271.740215 
L 753.79962 271.238157 
L 753.922534 271.057856 
L 754.209336 270.635624 
L 754.389611 270.352393 
L 754.553497 270.196598 
L 754.82391 269.92722 
L 754.955019 269.770463 
L 755.135294 269.545896 
L 755.340152 269.258087 
L 755.495844 269.075086 
L 755.610564 268.959717 
L 757.962334 266.444085 
L 758.12622 266.294168 
L 758.748988 265.594754 
L 758.921069 265.315839 
L 759.486477 264.640094 
L 759.633975 264.474504 
L 761.625194 262.11691 
L 761.748109 262.00096 
L 761.895607 261.814396 
L 762.428237 261.297627 
L 762.592124 261.148589 
L 762.682261 261.056228 
L 762.870731 260.815812 
L 763.11656 260.525533 
L 763.30503 260.352328 
L 763.649191 259.962847 
L 765.034031 258.473146 
L 765.189723 258.336899 
L 765.353609 258.1659 
L 765.689576 257.820636 
L 765.820685 257.680772 
L 766.082904 257.396783 
L 768.278981 255.060717 
L 768.729669 254.612292 
L 769.721181 253.615529 
L 769.917845 253.359501 
L 770.147286 253.175501 
L 770.483253 252.839811 
L 770.720888 252.601549 
L 772.294197 250.865149 
L 772.449889 250.620485 
L 772.646553 250.352638 
L 772.957937 250.095486 
L 773.097241 249.859756 
L 774.25264 248.692631 
L 774.400137 248.536799 
L 775.309707 247.519742 
L 775.522759 247.282545 
L 775.604702 247.194981 
L 775.817754 246.753128 
L 775.924281 246.642251 
L 776.088167 246.519069 
L 776.252053 246.402335 
L 776.391357 246.226339 
L 776.547049 246.104512 
L 776.981348 245.6019 
L 777.055097 245.516697 
L 777.210789 245.280397 
L 777.636893 244.851042 
L 777.825363 244.575336 
L 777.981055 244.410692 
L 778.210496 244.117872 
L 778.497297 243.628213 
L 779.333117 242.481404 
L 779.751027 242.138398 
L 779.882137 241.956808 
L 780.005051 241.822982 
L 780.717957 241.020127 
L 780.890038 240.77885 
L 781.078507 240.594287 
L 781.217811 240.406499 
L 781.34892 240.236405 
L 781.545583 239.964033 
L 782.438764 238.936428 
L 782.578067 238.786683 
L 782.799314 238.521317 
L 782.971395 238.342016 
L 783.26639 237.97928 
L 783.430277 237.743172 
L 786.773559 233.033753 
L 787.388133 232.225917 
L 787.486464 232.162073 
L 787.633962 231.8946 
L 787.879792 231.605004 
L 788.019095 231.450638 
L 788.248536 231.181404 
L 788.576309 230.769923 
L 788.895887 230.305396 
L 789.002413 230.21135 
L 789.1663 229.909997 
L 789.338381 229.690925 
L 789.444907 229.554845 
L 789.879206 229.102426 
L 789.952954 228.99103 
L 790.043092 228.92148 
L 790.19059 228.599827 
L 790.346282 228.26609 
L 790.477391 227.961541 
L 790.633083 227.81428 
L 790.928078 227.46474 
L 791.091965 227.144694 
L 791.38696 226.672087 
L 791.731122 226.374724 
L 791.895008 226.179891 
L 791.976951 226.071296 
L 792.362084 225.596297 
L 792.476805 225.491593 
L 792.763606 225.056285 
L 792.943881 224.786726 
L 793.140544 224.611049 
L 793.4929 224.122048 
L 793.673175 223.80274 
L 793.812479 223.664509 
L 793.91081 223.48297 
L 794.214 223.031238 
L 794.328721 222.889844 
L 794.926906 222.111739 
L 794.984266 222.007186 
L 795.221901 221.738824 
L 795.328428 221.614173 
L 795.525091 221.30502 
L 795.820087 220.85863 
L 796.065916 220.526652 
L 796.221608 220.303223 
L 796.295357 220.184716 
L 796.369106 219.997921 
L 796.582158 219.614236 
L 797.237704 218.749856 
L 797.327841 218.602068 
L 797.680197 218.039041 
L 797.770335 217.937352 
L 797.991581 217.488653 
L 798.073524 217.337323 
L 798.42588 216.727043 
L 798.589766 216.403921 
L 798.720876 216.054277 
L 798.892956 215.726385 
L 799.319061 215.02368 
L 799.409198 214.874796 
L 799.92544 213.923807 
L 800.245019 213.313028 
L 800.400711 213.05985 
L 800.646541 212.514011 
L 800.818621 212.24588 
L 800.916953 212.019436 
L 802.023186 209.952923 
L 802.21985 209.569811 
L 802.555817 209.056186 
L 802.719703 208.827717 
L 803.039282 208.136264 
L 803.235945 207.8265 
L 803.473581 207.548197 
L 803.703021 207.29356 
L 804.030794 206.839265 
L 804.170098 206.688732 
L 804.358567 206.292574 
L 805.186193 204.794188 
L 805.35008 204.573005 
L 805.817156 203.761813 
L 806.341592 202.771766 
L 806.530061 202.393189 
L 806.693948 202.113149 
L 806.751308 202.002264 
L 806.84964 201.770308 
L 807.832958 199.399516 
L 807.98865 199.00261 
L 808.062399 198.833176 
L 808.226285 198.44597 
L 808.373783 197.93473 
L 808.603224 197.230115 
L 810.143756 192.988501 
L 810.356808 192.062993 
L 810.487917 191.621393 
L 811.569568 185.884678 
L 811.717065 184.906566 
L 812.036644 183.291888 
L 812.069421 183.168651 
L 812.20053 182.63667 
L 812.470943 181.452777 
L 812.692189 179.576338 
L 812.765938 178.916562 
L 813.290374 174.540772 
L 813.323152 174.418887 
L 813.413289 172.921344 
L 813.70009 168.0437 
L 813.929531 163.718647 
L 814.126195 158.614511 
L 815.338954 130.441832 
L 815.478258 126.397758 
L 815.527424 125.267673 
L 815.666727 119.196966 
L 815.830613 114.700489 
L 816.207552 97.099793 
L 816.535325 86.234449 
L 816.691017 57.682545 
L 816.691017 57.682545 
" clip-path="url(#p7142b13971)" style="fill: none; stroke: #2ca02c; stroke-width: 1.5; stroke-linecap: square"/>
   </g>
   <g id="patch_3">
    <path d="M 50.002685 390.04 
L 50.002685 41.856 
" style="fill: none; stroke: #000000; stroke-width: 0.8; stroke-linejoin: miter; stroke-linecap: square"/>
   </g>
   <g id="patch_4">
    <path d="M 853.2 390.04 
L 853.2 41.856 
" style="fill: none; stroke: #000000; stroke-width: 0.8; stroke-linejoin: miter; stroke-linecap: square"/>
   </g>
   <g id="patch_5">
    <path d="M 50.002685 390.04 
L 853.2 390.04 
" style="fill: none; stroke: #000000; stroke-width: 0.8; stroke-linejoin: miter; stroke-linecap: square"/>
   </g>
   <g id="patch_6">
    <path d="M 50.002685 41.856 
L 853.2 41.856 
" style="fill: none; stroke: #000000; stroke-width: 0.8; stroke-linejoin: miter; stroke-linecap: square"/>
   </g>
   <g id="text_12">
    <!-- HTTP Request Duration Percentiles -->
    <g transform="translate(347.37478 22.355625) scale(0.12 -0.12)">
     <defs>
      <path id="DejaVuSans-48" d="M 628 4666 
L 1259 4666 
L 1259 2753 
L 3553 2753 
L 3553 4666 
L 4184 4666 
L 4184 0 
L 3553 0 
L 3553 2222 
L 1259 2222 
L 1259 0 
L 628 0 
L 628 4666 
z
" transform="scale(0.015625)"/>
      <path id="DejaVuSans-54" d="M -19 4666 
L 3928 4666 
L 3928 4134 
L 2272 4134 
L 2272 0 
L 1638 0 
L 1638 4134 
L -19 4134 
L -19 4666 
z
" transform="scale(0.015625)"/>
      <path id="DejaVuSans-52" d="M 2841 2188 
Q 3044 2119 3236 1894 
Q 3428 1669 3622 1275 
L 4263 0 
L 3584 0 
L 2988 1197 
Q 2756 1666 2539 1819 
Q 2322 1972 1947 1972 
L 1259 1972 
L 1259 0 
L 628 0 
L 628 4666 
L 2053 4666 
Q 2853 4666 3247 4331 
Q 3641 3997 3641 3322 
Q 3641 2881 3436 2590 
Q 3231 2300 2841 2188 
z
M 1259 4147 
L 1259 2491 
L 2053 2491 
Q 2509 2491 2742 2702 
Q 2975 2913 2975 3322 
Q 2975 3731 2742 3939 
Q 2509 4147 2053 4147 
L 1259 4147 
z
" transform="scale(0.015625)"/>
      <path id="DejaVuSans-71" d="M 947 1747 
Q 947 1113 1208 752 
Q 1469 391 1925 391 
Q 2381 391 2643 752 
Q 2906 1113 2906 1747 
Q 2906 2381 2643 2742 
Q 2381 3103 1925 3103 
Q 1469 3103 1208 2742 
Q 947 2381 947 1747 
z
M 2906 525 
Q 2725 213 2448 61 
Q 2172 -91 1784 -91 
Q 1150 -91 751 415 
Q 353 922 353 1747 
Q 353 2572 751 3078 
Q 1150 3584 1784 3584 
Q 2172 3584 2448 3432 
Q 2725 3281 2906 2969 
L 2906 3500 
L 3481 3500 
L 3481 -1331 
L 2906 -1331 
L 2906 525 
z
" transform="scale(0.015625)"/>
     </defs>
     <use xlink:href="#DejaVuSans-48"/>
     <use xlink:href="#DejaVuSans-54" transform="translate(75.195312 0)"/>
     <use xlink:href="#DejaVuSans-54" transform="translate(134.529297 0)"/>
     <use xlink:href="#DejaVuSans-50" transform="translate(195.613281 0)"/>
     <use xlink:href="#DejaVuSans-20" transform="translate(255.916016 0)"/>
     <use xlink:href="#DejaVuSans-52" transform="translate(287.703125 0)"/>
     <use xlink:href="#DejaVuSans-65" transform="translate(352.685547 0)"/>
     <use xlink:href="#DejaVuSans-71" transform="translate(414.208984 0)"/>
     <use xlink:href="#DejaVuSans-75" transform="translate(477.685547 0)"/>
     <use xlink:href="#DejaVuSans-65" transform="translate(541.064453 0)"/>
     <use xlink:href="#DejaVuSans-73" transform="translate(602.587891 0)"/>
     <use xlink:href="#DejaVuSans-74" transform="translate(654.6875 0)"/>
     <use xlink:href="#DejaVuSans-20" transform="translate(693.896484 0)"/>
     <use xlink:href="#DejaVuSans-44" transform="translate(725.683594 0)"/>
     <use xlink:href="#DejaVuSans-75" transform="translate(802.685547 0)"/>
     <use xlink:href="#DejaVuSans-72" transform="translate(866.064453 0)"/>
     <use xlink:href="#DejaVuSans-61" transform="translate(907.177734 0)"/>
     <use xlink:href="#DejaVuSans-74" transform="translate(968.457031 0)"/>
     <use xlink:href="#DejaVuSans-69" transform="translate(1007.666016 0)"/>
     <use xlink:href="#DejaVuSans-6f" transform="translate(1035.449219 0)"/>
     <use xlink:href="#DejaVuSans-6e" transform="translate(1096.630859 0)"/>
     <use xlink:href="#DejaVuSans-20" transform="translate(1160.009766 0)"/>
     <use xlink:href="#DejaVuSans-50" transform="translate(1191.796875 0)"/>
     <use xlink:href="#DejaVuSans-65" transform="translate(1248.474609 0)"/>
     <use xlink:href="#DejaVuSans-72" transform="translate(1309.998047 0)"/>
     <use xlink:href="#DejaVuSans-63" transform="translate(1348.861328 0)"/>
     <use xlink:href="#DejaVuSans-65" transform="translate(1403.841797 0)"/>
     <use xlink:href="#DejaVuSans-6e" transform="translate(1465.365234 0)"/>
     <use xlink:href="#DejaVuSans-74" transform="translate(1528.744141 0)"/>
     <use xlink:href="#DejaVuSans-69" transform="translate(1567.953125 0)"/>
     <use xlink:href="#DejaVuSans-6c" transform="translate(1595.736328 0)"/>
     <use xlink:href="#DejaVuSans-65" transform="translate(1623.519531 0)"/>
     <use xlink:href="#DejaVuSans-73" transform="translate(1685.042969 0)"/>
    </g>
    <!-- Test: stress | Endpoint: GetMapById -->
    <g transform="translate(345.035717 35.856) scale(0.12 -0.12)">
     <defs>
      <path id="DejaVuSans-3a" d="M 750 794 
L 1409 794 
L 1409 0 
L 750 0 
L 750 794 
z
M 750 3309 
L 1409 3309 
L 1409 2516 
L 750 2516 
L 750 3309 
z
" transform="scale(0.015625)"/>
      <path id="DejaVuSans-7c" d="M 1344 4891 
L 1344 -1509 
L 813 -1509 
L 813 4891 
L 1344 4891 
z
" transform="scale(0.015625)"/>
      <path id="DejaVuSans-45" d="M 628 4666 
L 3578 4666 
L 3578 4134 
L 1259 4134 
L 1259 2753 
L 3481 2753 
L 3481 2222 
L 1259 2222 
L 1259 531 
L 3634 531 
L 3634 0 
L 628 0 
L 628 4666 
z
" transform="scale(0.015625)"/>
      <path id="DejaVuSans-64" d="M 2906 2969 
L 2906 4863 
L 3481 4863 
L 3481 0 
L 2906 0 
L 2906 525 
Q 2725 213 2448 61 
Q 2172 -91 1784 -91 
Q 1150 -91 751 415 
Q 353 922 353 1747 
Q 353 2572 751 3078 
Q 1150 3584 1784 3584 
Q 2172 3584 2448 3432 
Q 2725 3281 2906 2969 
z
M 947 1747 
Q 947 1113 1208 752 
Q 1469 391 1925 391 
Q 2381 391 2643 752 
Q 2906 1113 2906 1747 
Q 2906 2381 2643 2742 
Q 2381 3103 1925 3103 
Q 1469 3103 1208 2742 
Q 947 2381 947 1747 
z
" transform="scale(0.015625)"/>
      <path id="DejaVuSans-70" d="M 1159 525 
L 1159 -1331 
L 581 -1331 
L 581 3500 
L 1159 3500 
L 1159 2969 
Q 1341 3281 1617 3432 
Q 1894 3584 2278 3584 
Q 2916 3584 3314 3078 
Q 3713 2572 3713 1747 
Q 3713 922 3314 415 
Q 2916 -91 2278 -91 
Q 1894 -91 1617 61 
Q 1341 213 1159 525 
z
M 3116 1747 
Q 3116 2381 2855 2742 
Q 2594 3103 2138 3103 
Q 1681 3103 1420 2742 
Q 1159 2381 1159 1747 
Q 1159 1113 1420 752 
Q 1681 391 2138 391 
Q 2594 391 2855 752 
Q 3116 1113 3116 1747 
z
" transform="scale(0.015625)"/>
      <path id="DejaVuSans-47" d="M 3809 666 
L 3809 1919 
L 2778 1919 
L 2778 2438 
L 4434 2438 
L 4434 434 
Q 4069 175 3628 42 
Q 3188 -91 2688 -91 
Q 1594 -91 976 548 
Q 359 1188 359 2328 
Q 359 3472 976 4111 
Q 1594 4750 2688 4750 
Q 3144 4750 3555 4637 
Q 3966 4525 4313 4306 
L 4313 3634 
Q 3963 3931 3569 4081 
Q 3175 4231 2741 4231 
Q 1884 4231 1454 3753 
Q 1025 3275 1025 2328 
Q 1025 1384 1454 906 
Q 1884 428 2741 428 
Q 3075 428 3337 486 
Q 3600 544 3809 666 
z
" transform="scale(0.015625)"/>
      <path id="DejaVuSans-4d" d="M 628 4666 
L 1569 4666 
L 2759 1491 
L 3956 4666 
L 4897 4666 
L 4897 0 
L 4281 0 
L 4281 4097 
L 3078 897 
L 2444 897 
L 1241 4097 
L 1241 0 
L 628 0 
L 628 4666 
z
" transform="scale(0.015625)"/>
      <path id="DejaVuSans-42" d="M 1259 2228 
L 1259 519 
L 2272 519 
Q 2781 519 3026 730 
Q 3272 941 3272 1375 
Q 3272 1813 3026 2020 
Q 2781 2228 2272 2228 
L 1259 2228 
z
M 1259 4147 
L 1259 2741 
L 2194 2741 
Q 2656 2741 2882 2914 
Q 3109 3088 3109 3444 
Q 3109 3797 2882 3972 
Q 2656 4147 2194 4147 
L 1259 4147 
z
M 628 4666 
L 2241 4666 
Q 2963 4666 3353 4366 
Q 3744 4066 3744 3513 
Q 3744 3084 3544 2831 
Q 3344 2578 2956 2516 
Q 3422 2416 3680 2098 
Q 3938 1781 3938 1306 
Q 3938 681 3513 340 
Q 3088 0 2303 0 
L 628 0 
L 628 4666 
z
" transform="scale(0.015625)"/>
      <path id="DejaVuSans-79" d="M 2059 -325 
Q 1816 -950 1584 -1140 
Q 1353 -1331 966 -1331 
L 506 -1331 
L 506 -850 
L 844 -850 
Q 1081 -850 1212 -737 
Q 1344 -625 1503 -206 
L 1606 56 
L 191 3500 
L 800 3500 
L 1894 763 
L 2988 3500 
L 3597 3500 
L 2059 -325 
z
" transform="scale(0.015625)"/>
      <path id="DejaVuSans-49" d="M 628 4666 
L 1259 4666 
L 1259 0 
L 628 0 
L 628 4666 
z
" transform="scale(0.015625)"/>
     </defs>
     <use xlink:href="#DejaVuSans-54"/>
     <use xlink:href="#DejaVuSans-65" transform="translate(44.083984 0)"/>
     <use xlink:href="#DejaVuSans-73" transform="translate(105.607422 0)"/>
     <use xlink:href="#DejaVuSans-74" transform="translate(157.707031 0)"/>
     <use xlink:href="#DejaVuSans-3a" transform="translate(196.916016 0)"/>
     <use xlink:href="#DejaVuSans-20" transform="translate(230.607422 0)"/>
     <use xlink:href="#DejaVuSans-73" transform="translate(262.394531 0)"/>
     <use xlink:href="#DejaVuSans-74" transform="translate(314.494141 0)"/>
     <use xlink:href="#DejaVuSans-72" transform="translate(353.703125 0)"/>
     <use xlink:href="#DejaVuSans-65" transform="translate(392.566406 0)"/>
     <use xlink:href="#DejaVuSans-73" transform="translate(454.089844 0)"/>
     <use xlink:href="#DejaVuSans-73" transform="translate(506.189453 0)"/>
     <use xlink:href="#DejaVuSans-20" transform="translate(558.289062 0)"/>
     <use xlink:href="#DejaVuSans-7c" transform="translate(590.076172 0)"/>
     <use xlink:href="#DejaVuSans-20" transform="translate(623.767578 0)"/>
     <use xlink:href="#DejaVuSans-45" transform="translate(655.554688 0)"/>
     <use xlink:href="#DejaVuSans-6e" transform="translate(718.738281 0)"/>
     <use xlink:href="#DejaVuSans-64" transform="translate(782.117188 0)"/>
     <use xlink:href="#DejaVuSans-70" transform="translate(845.59375 0)"/>
     <use xlink:href="#DejaVuSans-6f" transform="translate(909.070312 0)"/>
     <use xlink:href="#DejaVuSans-69" transform="translate(970.251953 0)"/>
     <use xlink:href="#DejaVuSans-6e" transform="translate(998.035156 0)"/>
     <use xlink:href="#DejaVuSans-74" transform="translate(1061.414062 0)"/>
     <use xlink:href="#DejaVuSans-3a" transform="translate(1100.623047 0)"/>
     <use xlink:href="#DejaVuSans-20" transform="translate(1134.314453 0)"/>
     <use xlink:href="#DejaVuSans-47" transform="translate(1166.101562 0)"/>
     <use xlink:href="#DejaVuSans-65" transform="translate(1243.591797 0)"/>
     <use xlink:href="#DejaVuSans-74" transform="translate(1305.115234 0)"/>
     <use xlink:href="#DejaVuSans-4d" transform="translate(1344.324219 0)"/>
     <use xlink:href="#DejaVuSans-61" transform="translate(1430.603516 0)"/>
     <use xlink:href="#DejaVuSans-70" transform="translate(1491.882812 0)"/>
     <use xlink:href="#DejaVuSans-42" transform="translate(1555.359375 0)"/>
     <use xlink:href="#DejaVuSans-79" transform="translate(1623.962891 0)"/>
     <use xlink:href="#DejaVuSans-49" transform="translate(1683.142578 0)"/>
     <use xlink:href="#DejaVuSans-64" transform="translate(1712.634766 0)"/>
    </g>
   </g>
   <g id="legend_1">
    <g id="patch_7">
     <path d="M 57.002685 93.890375 
L 190.346435 93.890375 
Q 192.346435 93.890375 192.346435 91.890375 
L 192.346435 48.856 
Q 192.346435 46.856 190.346435 46.856 
L 57.002685 46.856 
Q 55.002685 46.856 55.002685 48.856 
L 55.002685 91.890375 
Q 55.002685 93.890375 57.002685 93.890375 
z
" style="fill: #ffffff; opacity: 0.8; stroke: #cccccc; stroke-linejoin: miter"/>
    </g>
    <g id="line2d_37">
     <path d="M 59.002685 54.954437 
L 69.002685 54.954437 
L 79.002685 54.954437 
" style="fill: none; stroke: #1f77b4; stroke-width: 1.5; stroke-linecap: square"/>
    </g>
    <g id="text_13">
     <!-- Single Large Results -->
     <g transform="translate(87.002685 58.454437) scale(0.1 -0.1)">
      <defs>
       <path id="DejaVuSans-53" d="M 3425 4513 
L 3425 3897 
Q 3066 4069 2747 4153 
Q 2428 4238 2131 4238 
Q 1616 4238 1336 4038 
Q 1056 3838 1056 3469 
Q 1056 3159 1242 3001 
Q 1428 2844 1947 2747 
L 2328 2669 
Q 3034 2534 3370 2195 
Q 3706 1856 3706 1288 
Q 3706 609 3251 259 
Q 2797 -91 1919 -91 
Q 1588 -91 1214 -16 
Q 841 59 441 206 
L 441 856 
Q 825 641 1194 531 
Q 1563 422 1919 422 
Q 2459 422 2753 634 
Q 3047 847 3047 1241 
Q 3047 1584 2836 1778 
Q 2625 1972 2144 2069 
L 1759 2144 
Q 1053 2284 737 2584 
Q 422 2884 422 3419 
Q 422 4038 858 4394 
Q 1294 4750 2059 4750 
Q 2388 4750 2728 4690 
Q 3069 4631 3425 4513 
z
" transform="scale(0.015625)"/>
       <path id="DejaVuSans-67" d="M 2906 1791 
Q 2906 2416 2648 2759 
Q 2391 3103 1925 3103 
Q 1463 3103 1205 2759 
Q 947 2416 947 1791 
Q 947 1169 1205 825 
Q 1463 481 1925 481 
Q 2391 481 2648 825 
Q 2906 1169 2906 1791 
z
M 3481 434 
Q 3481 -459 3084 -895 
Q 2688 -1331 1869 -1331 
Q 1566 -1331 1297 -1286 
Q 1028 -1241 775 -1147 
L 775 -588 
Q 1028 -725 1275 -790 
Q 1522 -856 1778 -856 
Q 2344 -856 2625 -561 
Q 2906 -266 2906 331 
L 2906 616 
Q 2728 306 2450 153 
Q 2172 0 1784 0 
Q 1141 0 747 490 
Q 353 981 353 1791 
Q 353 2603 747 3093 
Q 1141 3584 1784 3584 
Q 2172 3584 2450 3431 
Q 2728 3278 2906 2969 
L 2906 3500 
L 3481 3500 
L 3481 434 
z
" transform="scale(0.015625)"/>
       <path id="DejaVuSans-4c" d="M 628 4666 
L 1259 4666 
L 1259 531 
L 3531 531 
L 3531 0 
L 628 0 
L 628 4666 
z
" transform="scale(0.015625)"/>
      </defs>
      <use xlink:href="#DejaVuSans-53"/>
      <use xlink:href="#DejaVuSans-69" transform="translate(63.476562 0)"/>
      <use xlink:href="#DejaVuSans-6e" transform="translate(91.259766 0)"/>
      <use xlink:href="#DejaVuSans-67" transform="translate(154.638672 0)"/>
      <use xlink:href="#DejaVuSans-6c" transform="translate(218.115234 0)"/>
      <use xlink:href="#DejaVuSans-65" transform="translate(245.898438 0)"/>
      <use xlink:href="#DejaVuSans-20" transform="translate(307.421875 0)"/>
      <use xlink:href="#DejaVuSans-4c" transform="translate(339.208984 0)"/>
      <use xlink:href="#DejaVuSans-61" transform="translate(394.921875 0)"/>
      <use xlink:href="#DejaVuSans-72" transform="translate(456.201172 0)"/>
      <use xlink:href="#DejaVuSans-67" transform="translate(495.564453 0)"/>
      <use xlink:href="#DejaVuSans-65" transform="translate(559.041016 0)"/>
      <use xlink:href="#DejaVuSans-20" transform="translate(620.564453 0)"/>
      <use xlink:href="#DejaVuSans-52" transform="translate(652.351562 0)"/>
      <use xlink:href="#DejaVuSans-65" transform="translate(717.333984 0)"/>
      <use xlink:href="#DejaVuSans-73" transform="translate(778.857422 0)"/>
      <use xlink:href="#DejaVuSans-75" transform="translate(830.957031 0)"/>
      <use xlink:href="#DejaVuSans-6c" transform="translate(894.335938 0)"/>
      <use xlink:href="#DejaVuSans-74" transform="translate(922.119141 0)"/>
      <use xlink:href="#DejaVuSans-73" transform="translate(961.328125 0)"/>
     </g>
    </g>
    <g id="line2d_38">
     <path d="M 59.002685 69.632562 
L 69.002685 69.632562 
L 79.002685 69.632562 
" style="fill: none; stroke: #ff7f0e; stroke-width: 1.5; stroke-linecap: square"/>
    </g>
    <g id="text_14">
     <!-- Single Small Results -->
     <g transform="translate(87.002685 73.132562) scale(0.1 -0.1)">
      <use xlink:href="#DejaVuSans-53"/>
      <use xlink:href="#DejaVuSans-69" transform="translate(63.476562 0)"/>
      <use xlink:href="#DejaVuSans-6e" transform="translate(91.259766 0)"/>
      <use xlink:href="#DejaVuSans-67" transform="translate(154.638672 0)"/>
      <use xlink:href="#DejaVuSans-6c" transform="translate(218.115234 0)"/>
      <use xlink:href="#DejaVuSans-65" transform="translate(245.898438 0)"/>
      <use xlink:href="#DejaVuSans-20" transform="translate(307.421875 0)"/>
      <use xlink:href="#DejaVuSans-53" transform="translate(339.208984 0)"/>
      <use xlink:href="#DejaVuSans-6d" transform="translate(402.685547 0)"/>
      <use xlink:href="#DejaVuSans-61" transform="translate(500.097656 0)"/>
      <use xlink:href="#DejaVuSans-6c" transform="translate(561.376953 0)"/>
      <use xlink:href="#DejaVuSans-6c" transform="translate(589.160156 0)"/>
      <use xlink:href="#DejaVuSans-20" transform="translate(616.943359 0)"/>
      <use xlink:href="#DejaVuSans-52" transform="translate(648.730469 0)"/>
      <use xlink:href="#DejaVuSans-65" transform="translate(713.712891 0)"/>
      <use xlink:href="#DejaVuSans-73" transform="translate(775.236328 0)"/>
      <use xlink:href="#DejaVuSans-75" transform="translate(827.335938 0)"/>
      <use xlink:href="#DejaVuSans-6c" transform="translate(890.714844 0)"/>
      <use xlink:href="#DejaVuSans-74" transform="translate(918.498047 0)"/>
      <use xlink:href="#DejaVuSans-73" transform="translate(957.707031 0)"/>
     </g>
    </g>
    <g id="line2d_39">
     <path d="M 59.002685 84.310687 
L 69.002685 84.310687 
L 79.002685 84.310687 
" style="fill: none; stroke: #2ca02c; stroke-width: 1.5; stroke-linecap: square"/>
    </g>
    <g id="text_15">
     <!-- Multi Results -->
     <g transform="translate(87.002685 87.810687) scale(0.1 -0.1)">
      <use xlink:href="#DejaVuSans-4d"/>
      <use xlink:href="#DejaVuSans-75" transform="translate(86.279297 0)"/>
      <use xlink:href="#DejaVuSans-6c" transform="translate(149.658203 0)"/>
      <use xlink:href="#DejaVuSans-74" transform="translate(177.441406 0)"/>
      <use xlink:href="#DejaVuSans-69" transform="translate(216.650391 0)"/>
      <use xlink:href="#DejaVuSans-20" transform="translate(244.433594 0)"/>
      <use xlink:href="#DejaVuSans-52" transform="translate(276.220703 0)"/>
      <use xlink:href="#DejaVuSans-65" transform="translate(341.203125 0)"/>
      <use xlink:href="#DejaVuSans-73" transform="translate(402.726562 0)"/>
      <use xlink:href="#DejaVuSans-75" transform="translate(454.826172 0)"/>
      <use xlink:href="#DejaVuSans-6c" transform="translate(518.205078 0)"/>
      <use xlink:href="#DejaVuSans-74" transform="translate(545.988281 0)"/>
      <use xlink:href="#DejaVuSans-73" transform="translate(585.197266 0)"/>
     </g>
    </g>
   </g>
  </g>
 </g>
 <defs>
  <clipPath id="p7142b13971">
   <rect x="50.002685" y="41.856" width="803.197315" height="348.184"/>
  </clipPath>
 </defs>
</svg>
