<?xml version="1.0" encoding="utf-8" standalone="no"?>
<!DOCTYPE svg PUBLIC "-//W3C//DTD SVG 1.1//EN"
  "http://www.w3.org/Graphics/SVG/1.1/DTD/svg11.dtd">
<svg xmlns:xlink="http://www.w3.org/1999/xlink" width="864pt" height="432pt" viewBox="0 0 864 432" xmlns="http://www.w3.org/2000/svg" version="1.1">
 <metadata>
  <rdf:RDF xmlns:dc="http://purl.org/dc/elements/1.1/" xmlns:cc="http://creativecommons.org/ns#" xmlns:rdf="http://www.w3.org/1999/02/22-rdf-syntax-ns#">
   <cc:Work>
    <dc:type rdf:resource="http://purl.org/dc/dcmitype/StillImage"/>
    <dc:date>2025-05-31T16:12:07.646959</dc:date>
    <dc:format>image/svg+xml</dc:format>
    <dc:creator>
     <cc:Agent>
      <dc:title>Matplotlib v3.10.1, https://matplotlib.org/</dc:title>
     </cc:Agent>
    </dc:creator>
   </cc:Work>
  </rdf:RDF>
 </metadata>
 <defs>
  <style type="text/css">*{stroke-linejoin: round; stroke-linecap: butt}</style>
 </defs>
 <g id="figure_1">
  <g id="patch_1">
   <path d="M 0 432 
L 864 432 
L 864 0 
L 0 0 
z
" style="fill: #ffffff"/>
  </g>
  <g id="axes_1">
   <g id="patch_2">
    <path d="M 50.137685 390.04 
L 853.2 390.04 
L 853.2 41.856 
L 50.137685 41.856 
z
" style="fill: #ffffff"/>
   </g>
   <g id="matplotlib.axis_1">
    <g id="xtick_1">
     <g id="line2d_1">
      <defs>
       <path id="m66206a5325" d="M 0 0 
L 0 3.5 
" style="stroke: #000000; stroke-width: 0.8"/>
      </defs>
      <g>
       <use xlink:href="#m66206a5325" x="86.640517" y="390.04" style="stroke: #000000; stroke-width: 0.8"/>
      </g>
     </g>
     <g id="text_1">
      <!-- 0 -->
      <g transform="translate(83.459267 404.638438) scale(0.1 -0.1)">
       <defs>
        <path id="DejaVuSans-30" d="M 2034 4250 
Q 1547 4250 1301 3770 
Q 1056 3291 1056 2328 
Q 1056 1369 1301 889 
Q 1547 409 2034 409 
Q 2525 409 2770 889 
Q 3016 1369 3016 2328 
Q 3016 3291 2770 3770 
Q 2525 4250 2034 4250 
z
M 2034 4750 
Q 2819 4750 3233 4129 
Q 3647 3509 3647 2328 
Q 3647 1150 3233 529 
Q 2819 -91 2034 -91 
Q 1250 -91 836 529 
Q 422 1150 422 2328 
Q 422 3509 836 4129 
Q 1250 4750 2034 4750 
z
" transform="scale(0.015625)"/>
       </defs>
       <use xlink:href="#DejaVuSans-30"/>
      </g>
     </g>
    </g>
    <g id="xtick_2">
     <g id="line2d_2">
      <g>
       <use xlink:href="#m66206a5325" x="188.037274" y="390.04" style="stroke: #000000; stroke-width: 0.8"/>
      </g>
     </g>
     <g id="text_2">
      <!-- 50 -->
      <g transform="translate(181.674774 404.638438) scale(0.1 -0.1)">
       <defs>
        <path id="DejaVuSans-35" d="M 691 4666 
L 3169 4666 
L 3169 4134 
L 1269 4134 
L 1269 2991 
Q 1406 3038 1543 3061 
Q 1681 3084 1819 3084 
Q 2600 3084 3056 2656 
Q 3513 2228 3513 1497 
Q 3513 744 3044 326 
Q 2575 -91 1722 -91 
Q 1428 -91 1123 -41 
Q 819 9 494 109 
L 494 744 
Q 775 591 1075 516 
Q 1375 441 1709 441 
Q 2250 441 2565 725 
Q 2881 1009 2881 1497 
Q 2881 1984 2565 2268 
Q 2250 2553 1709 2553 
Q 1456 2553 1204 2497 
Q 953 2441 691 2322 
L 691 4666 
z
" transform="scale(0.015625)"/>
       </defs>
       <use xlink:href="#DejaVuSans-35"/>
       <use xlink:href="#DejaVuSans-30" transform="translate(63.623047 0)"/>
      </g>
     </g>
    </g>
    <g id="xtick_3">
     <g id="line2d_3">
      <g>
       <use xlink:href="#m66206a5325" x="289.434031" y="390.04" style="stroke: #000000; stroke-width: 0.8"/>
      </g>
     </g>
     <g id="text_3">
      <!-- 100 -->
      <g transform="translate(279.890281 404.638438) scale(0.1 -0.1)">
       <defs>
        <path id="DejaVuSans-31" d="M 794 531 
L 1825 531 
L 1825 4091 
L 703 3866 
L 703 4441 
L 1819 4666 
L 2450 4666 
L 2450 531 
L 3481 531 
L 3481 0 
L 794 0 
L 794 531 
z
" transform="scale(0.015625)"/>
       </defs>
       <use xlink:href="#DejaVuSans-31"/>
       <use xlink:href="#DejaVuSans-30" transform="translate(63.623047 0)"/>
       <use xlink:href="#DejaVuSans-30" transform="translate(127.246094 0)"/>
      </g>
     </g>
    </g>
    <g id="xtick_4">
     <g id="line2d_4">
      <g>
       <use xlink:href="#m66206a5325" x="390.830788" y="390.04" style="stroke: #000000; stroke-width: 0.8"/>
      </g>
     </g>
     <g id="text_4">
      <!-- 150 -->
      <g transform="translate(381.287038 404.638438) scale(0.1 -0.1)">
       <use xlink:href="#DejaVuSans-31"/>
       <use xlink:href="#DejaVuSans-35" transform="translate(63.623047 0)"/>
       <use xlink:href="#DejaVuSans-30" transform="translate(127.246094 0)"/>
      </g>
     </g>
    </g>
    <g id="xtick_5">
     <g id="line2d_5">
      <g>
       <use xlink:href="#m66206a5325" x="492.227545" y="390.04" style="stroke: #000000; stroke-width: 0.8"/>
      </g>
     </g>
     <g id="text_5">
      <!-- 200 -->
      <g transform="translate(482.683795 404.638438) scale(0.1 -0.1)">
       <defs>
        <path id="DejaVuSans-32" d="M 1228 531 
L 3431 531 
L 3431 0 
L 469 0 
L 469 531 
Q 828 903 1448 1529 
Q 2069 2156 2228 2338 
Q 2531 2678 2651 2914 
Q 2772 3150 2772 3378 
Q 2772 3750 2511 3984 
Q 2250 4219 1831 4219 
Q 1534 4219 1204 4116 
Q 875 4013 500 3803 
L 500 4441 
Q 881 4594 1212 4672 
Q 1544 4750 1819 4750 
Q 2544 4750 2975 4387 
Q 3406 4025 3406 3419 
Q 3406 3131 3298 2873 
Q 3191 2616 2906 2266 
Q 2828 2175 2409 1742 
Q 1991 1309 1228 531 
z
" transform="scale(0.015625)"/>
       </defs>
       <use xlink:href="#DejaVuSans-32"/>
       <use xlink:href="#DejaVuSans-30" transform="translate(63.623047 0)"/>
       <use xlink:href="#DejaVuSans-30" transform="translate(127.246094 0)"/>
      </g>
     </g>
    </g>
    <g id="xtick_6">
     <g id="line2d_6">
      <g>
       <use xlink:href="#m66206a5325" x="593.624302" y="390.04" style="stroke: #000000; stroke-width: 0.8"/>
      </g>
     </g>
     <g id="text_6">
      <!-- 250 -->
      <g transform="translate(584.080552 404.638438) scale(0.1 -0.1)">
       <use xlink:href="#DejaVuSans-32"/>
       <use xlink:href="#DejaVuSans-35" transform="translate(63.623047 0)"/>
       <use xlink:href="#DejaVuSans-30" transform="translate(127.246094 0)"/>
      </g>
     </g>
    </g>
    <g id="xtick_7">
     <g id="line2d_7">
      <g>
       <use xlink:href="#m66206a5325" x="695.021059" y="390.04" style="stroke: #000000; stroke-width: 0.8"/>
      </g>
     </g>
     <g id="text_7">
      <!-- 300 -->
      <g transform="translate(685.477309 404.638438) scale(0.1 -0.1)">
       <defs>
        <path id="DejaVuSans-33" d="M 2597 2516 
Q 3050 2419 3304 2112 
Q 3559 1806 3559 1356 
Q 3559 666 3084 287 
Q 2609 -91 1734 -91 
Q 1441 -91 1130 -33 
Q 819 25 488 141 
L 488 750 
Q 750 597 1062 519 
Q 1375 441 1716 441 
Q 2309 441 2620 675 
Q 2931 909 2931 1356 
Q 2931 1769 2642 2001 
Q 2353 2234 1838 2234 
L 1294 2234 
L 1294 2753 
L 1863 2753 
Q 2328 2753 2575 2939 
Q 2822 3125 2822 3475 
Q 2822 3834 2567 4026 
Q 2313 4219 1838 4219 
Q 1578 4219 1281 4162 
Q 984 4106 628 3988 
L 628 4550 
Q 988 4650 1302 4700 
Q 1616 4750 1894 4750 
Q 2613 4750 3031 4423 
Q 3450 4097 3450 3541 
Q 3450 3153 3228 2886 
Q 3006 2619 2597 2516 
z
" transform="scale(0.015625)"/>
       </defs>
       <use xlink:href="#DejaVuSans-33"/>
       <use xlink:href="#DejaVuSans-30" transform="translate(63.623047 0)"/>
       <use xlink:href="#DejaVuSans-30" transform="translate(127.246094 0)"/>
      </g>
     </g>
    </g>
    <g id="xtick_8">
     <g id="line2d_8">
      <g>
       <use xlink:href="#m66206a5325" x="796.417816" y="390.04" style="stroke: #000000; stroke-width: 0.8"/>
      </g>
     </g>
     <g id="text_8">
      <!-- 350 -->
      <g transform="translate(786.874066 404.638438) scale(0.1 -0.1)">
       <use xlink:href="#DejaVuSans-33"/>
       <use xlink:href="#DejaVuSans-35" transform="translate(63.623047 0)"/>
       <use xlink:href="#DejaVuSans-30" transform="translate(127.246094 0)"/>
      </g>
     </g>
    </g>
    <g id="text_9">
     <!-- Timestamp (Seconds) -->
     <g transform="translate(397.264155 418.316562) scale(0.1 -0.1)">
      <defs>
       <path id="DejaVuSans-54" d="M -19 4666 
L 3928 4666 
L 3928 4134 
L 2272 4134 
L 2272 0 
L 1638 0 
L 1638 4134 
L -19 4134 
L -19 4666 
z
" transform="scale(0.015625)"/>
       <path id="DejaVuSans-69" d="M 603 3500 
L 1178 3500 
L 1178 0 
L 603 0 
L 603 3500 
z
M 603 4863 
L 1178 4863 
L 1178 4134 
L 603 4134 
L 603 4863 
z
" transform="scale(0.015625)"/>
       <path id="DejaVuSans-6d" d="M 3328 2828 
Q 3544 3216 3844 3400 
Q 4144 3584 4550 3584 
Q 5097 3584 5394 3201 
Q 5691 2819 5691 2113 
L 5691 0 
L 5113 0 
L 5113 2094 
Q 5113 2597 4934 2840 
Q 4756 3084 4391 3084 
Q 3944 3084 3684 2787 
Q 3425 2491 3425 1978 
L 3425 0 
L 2847 0 
L 2847 2094 
Q 2847 2600 2669 2842 
Q 2491 3084 2119 3084 
Q 1678 3084 1418 2786 
Q 1159 2488 1159 1978 
L 1159 0 
L 581 0 
L 581 3500 
L 1159 3500 
L 1159 2956 
Q 1356 3278 1631 3431 
Q 1906 3584 2284 3584 
Q 2666 3584 2933 3390 
Q 3200 3197 3328 2828 
z
" transform="scale(0.015625)"/>
       <path id="DejaVuSans-65" d="M 3597 1894 
L 3597 1613 
L 953 1613 
Q 991 1019 1311 708 
Q 1631 397 2203 397 
Q 2534 397 2845 478 
Q 3156 559 3463 722 
L 3463 178 
Q 3153 47 2828 -22 
Q 2503 -91 2169 -91 
Q 1331 -91 842 396 
Q 353 884 353 1716 
Q 353 2575 817 3079 
Q 1281 3584 2069 3584 
Q 2775 3584 3186 3129 
Q 3597 2675 3597 1894 
z
M 3022 2063 
Q 3016 2534 2758 2815 
Q 2500 3097 2075 3097 
Q 1594 3097 1305 2825 
Q 1016 2553 972 2059 
L 3022 2063 
z
" transform="scale(0.015625)"/>
       <path id="DejaVuSans-73" d="M 2834 3397 
L 2834 2853 
Q 2591 2978 2328 3040 
Q 2066 3103 1784 3103 
Q 1356 3103 1142 2972 
Q 928 2841 928 2578 
Q 928 2378 1081 2264 
Q 1234 2150 1697 2047 
L 1894 2003 
Q 2506 1872 2764 1633 
Q 3022 1394 3022 966 
Q 3022 478 2636 193 
Q 2250 -91 1575 -91 
Q 1294 -91 989 -36 
Q 684 19 347 128 
L 347 722 
Q 666 556 975 473 
Q 1284 391 1588 391 
Q 1994 391 2212 530 
Q 2431 669 2431 922 
Q 2431 1156 2273 1281 
Q 2116 1406 1581 1522 
L 1381 1569 
Q 847 1681 609 1914 
Q 372 2147 372 2553 
Q 372 3047 722 3315 
Q 1072 3584 1716 3584 
Q 2034 3584 2315 3537 
Q 2597 3491 2834 3397 
z
" transform="scale(0.015625)"/>
       <path id="DejaVuSans-74" d="M 1172 4494 
L 1172 3500 
L 2356 3500 
L 2356 3053 
L 1172 3053 
L 1172 1153 
Q 1172 725 1289 603 
Q 1406 481 1766 481 
L 2356 481 
L 2356 0 
L 1766 0 
Q 1100 0 847 248 
Q 594 497 594 1153 
L 594 3053 
L 172 3053 
L 172 3500 
L 594 3500 
L 594 4494 
L 1172 4494 
z
" transform="scale(0.015625)"/>
       <path id="DejaVuSans-61" d="M 2194 1759 
Q 1497 1759 1228 1600 
Q 959 1441 959 1056 
Q 959 750 1161 570 
Q 1363 391 1709 391 
Q 2188 391 2477 730 
Q 2766 1069 2766 1631 
L 2766 1759 
L 2194 1759 
z
M 3341 1997 
L 3341 0 
L 2766 0 
L 2766 531 
Q 2569 213 2275 61 
Q 1981 -91 1556 -91 
Q 1019 -91 701 211 
Q 384 513 384 1019 
Q 384 1609 779 1909 
Q 1175 2209 1959 2209 
L 2766 2209 
L 2766 2266 
Q 2766 2663 2505 2880 
Q 2244 3097 1772 3097 
Q 1472 3097 1187 3025 
Q 903 2953 641 2809 
L 641 3341 
Q 956 3463 1253 3523 
Q 1550 3584 1831 3584 
Q 2591 3584 2966 3190 
Q 3341 2797 3341 1997 
z
" transform="scale(0.015625)"/>
       <path id="DejaVuSans-70" d="M 1159 525 
L 1159 -1331 
L 581 -1331 
L 581 3500 
L 1159 3500 
L 1159 2969 
Q 1341 3281 1617 3432 
Q 1894 3584 2278 3584 
Q 2916 3584 3314 3078 
Q 3713 2572 3713 1747 
Q 3713 922 3314 415 
Q 2916 -91 2278 -91 
Q 1894 -91 1617 61 
Q 1341 213 1159 525 
z
M 3116 1747 
Q 3116 2381 2855 2742 
Q 2594 3103 2138 3103 
Q 1681 3103 1420 2742 
Q 1159 2381 1159 1747 
Q 1159 1113 1420 752 
Q 1681 391 2138 391 
Q 2594 391 2855 752 
Q 3116 1113 3116 1747 
z
" transform="scale(0.015625)"/>
       <path id="DejaVuSans-20" transform="scale(0.015625)"/>
       <path id="DejaVuSans-28" d="M 1984 4856 
Q 1566 4138 1362 3434 
Q 1159 2731 1159 2009 
Q 1159 1288 1364 580 
Q 1569 -128 1984 -844 
L 1484 -844 
Q 1016 -109 783 600 
Q 550 1309 550 2009 
Q 550 2706 781 3412 
Q 1013 4119 1484 4856 
L 1984 4856 
z
" transform="scale(0.015625)"/>
       <path id="DejaVuSans-53" d="M 3425 4513 
L 3425 3897 
Q 3066 4069 2747 4153 
Q 2428 4238 2131 4238 
Q 1616 4238 1336 4038 
Q 1056 3838 1056 3469 
Q 1056 3159 1242 3001 
Q 1428 2844 1947 2747 
L 2328 2669 
Q 3034 2534 3370 2195 
Q 3706 1856 3706 1288 
Q 3706 609 3251 259 
Q 2797 -91 1919 -91 
Q 1588 -91 1214 -16 
Q 841 59 441 206 
L 441 856 
Q 825 641 1194 531 
Q 1563 422 1919 422 
Q 2459 422 2753 634 
Q 3047 847 3047 1241 
Q 3047 1584 2836 1778 
Q 2625 1972 2144 2069 
L 1759 2144 
Q 1053 2284 737 2584 
Q 422 2884 422 3419 
Q 422 4038 858 4394 
Q 1294 4750 2059 4750 
Q 2388 4750 2728 4690 
Q 3069 4631 3425 4513 
z
" transform="scale(0.015625)"/>
       <path id="DejaVuSans-63" d="M 3122 3366 
L 3122 2828 
Q 2878 2963 2633 3030 
Q 2388 3097 2138 3097 
Q 1578 3097 1268 2742 
Q 959 2388 959 1747 
Q 959 1106 1268 751 
Q 1578 397 2138 397 
Q 2388 397 2633 464 
Q 2878 531 3122 666 
L 3122 134 
Q 2881 22 2623 -34 
Q 2366 -91 2075 -91 
Q 1284 -91 818 406 
Q 353 903 353 1747 
Q 353 2603 823 3093 
Q 1294 3584 2113 3584 
Q 2378 3584 2631 3529 
Q 2884 3475 3122 3366 
z
" transform="scale(0.015625)"/>
       <path id="DejaVuSans-6f" d="M 1959 3097 
Q 1497 3097 1228 2736 
Q 959 2375 959 1747 
Q 959 1119 1226 758 
Q 1494 397 1959 397 
Q 2419 397 2687 759 
Q 2956 1122 2956 1747 
Q 2956 2369 2687 2733 
Q 2419 3097 1959 3097 
z
M 1959 3584 
Q 2709 3584 3137 3096 
Q 3566 2609 3566 1747 
Q 3566 888 3137 398 
Q 2709 -91 1959 -91 
Q 1206 -91 779 398 
Q 353 888 353 1747 
Q 353 2609 779 3096 
Q 1206 3584 1959 3584 
z
" transform="scale(0.015625)"/>
       <path id="DejaVuSans-6e" d="M 3513 2113 
L 3513 0 
L 2938 0 
L 2938 2094 
Q 2938 2591 2744 2837 
Q 2550 3084 2163 3084 
Q 1697 3084 1428 2787 
Q 1159 2491 1159 1978 
L 1159 0 
L 581 0 
L 581 3500 
L 1159 3500 
L 1159 2956 
Q 1366 3272 1645 3428 
Q 1925 3584 2291 3584 
Q 2894 3584 3203 3211 
Q 3513 2838 3513 2113 
z
" transform="scale(0.015625)"/>
       <path id="DejaVuSans-64" d="M 2906 2969 
L 2906 4863 
L 3481 4863 
L 3481 0 
L 2906 0 
L 2906 525 
Q 2725 213 2448 61 
Q 2172 -91 1784 -91 
Q 1150 -91 751 415 
Q 353 922 353 1747 
Q 353 2572 751 3078 
Q 1150 3584 1784 3584 
Q 2172 3584 2448 3432 
Q 2725 3281 2906 2969 
z
M 947 1747 
Q 947 1113 1208 752 
Q 1469 391 1925 391 
Q 2381 391 2643 752 
Q 2906 1113 2906 1747 
Q 2906 2381 2643 2742 
Q 2381 3103 1925 3103 
Q 1469 3103 1208 2742 
Q 947 2381 947 1747 
z
" transform="scale(0.015625)"/>
       <path id="DejaVuSans-29" d="M 513 4856 
L 1013 4856 
Q 1481 4119 1714 3412 
Q 1947 2706 1947 2009 
Q 1947 1309 1714 600 
Q 1481 -109 1013 -844 
L 513 -844 
Q 928 -128 1133 580 
Q 1338 1288 1338 2009 
Q 1338 2731 1133 3434 
Q 928 4138 513 4856 
z
" transform="scale(0.015625)"/>
      </defs>
      <use xlink:href="#DejaVuSans-54"/>
      <use xlink:href="#DejaVuSans-69" transform="translate(57.958984 0)"/>
      <use xlink:href="#DejaVuSans-6d" transform="translate(85.742188 0)"/>
      <use xlink:href="#DejaVuSans-65" transform="translate(183.154297 0)"/>
      <use xlink:href="#DejaVuSans-73" transform="translate(244.677734 0)"/>
      <use xlink:href="#DejaVuSans-74" transform="translate(296.777344 0)"/>
      <use xlink:href="#DejaVuSans-61" transform="translate(335.986328 0)"/>
      <use xlink:href="#DejaVuSans-6d" transform="translate(397.265625 0)"/>
      <use xlink:href="#DejaVuSans-70" transform="translate(494.677734 0)"/>
      <use xlink:href="#DejaVuSans-20" transform="translate(558.154297 0)"/>
      <use xlink:href="#DejaVuSans-28" transform="translate(589.941406 0)"/>
      <use xlink:href="#DejaVuSans-53" transform="translate(628.955078 0)"/>
      <use xlink:href="#DejaVuSans-65" transform="translate(692.431641 0)"/>
      <use xlink:href="#DejaVuSans-63" transform="translate(753.955078 0)"/>
      <use xlink:href="#DejaVuSans-6f" transform="translate(808.935547 0)"/>
      <use xlink:href="#DejaVuSans-6e" transform="translate(870.117188 0)"/>
      <use xlink:href="#DejaVuSans-64" transform="translate(933.496094 0)"/>
      <use xlink:href="#DejaVuSans-73" transform="translate(996.972656 0)"/>
      <use xlink:href="#DejaVuSans-29" transform="translate(1049.072266 0)"/>
     </g>
    </g>
   </g>
   <g id="matplotlib.axis_2">
    <g id="ytick_1">
     <g id="line2d_9">
      <defs>
       <path id="m3febf72224" d="M 0 0 
L -3.5 0 
" style="stroke: #000000; stroke-width: 0.8"/>
      </defs>
      <g>
       <use xlink:href="#m3febf72224" x="50.137685" y="340.556447" style="stroke: #000000; stroke-width: 0.8"/>
      </g>
     </g>
     <g id="text_10">
      <!-- $\mathdefault{10^{1}}$ -->
      <g transform="translate(25.537685 344.355666) scale(0.1 -0.1)">
       <use xlink:href="#DejaVuSans-31" transform="translate(0 0.684375)"/>
       <use xlink:href="#DejaVuSans-30" transform="translate(63.623047 0.684375)"/>
       <use xlink:href="#DejaVuSans-31" transform="translate(128.203125 38.965625) scale(0.7)"/>
      </g>
     </g>
    </g>
    <g id="ytick_2">
     <g id="line2d_10">
      <g>
       <use xlink:href="#m3febf72224" x="50.137685" y="243.231307" style="stroke: #000000; stroke-width: 0.8"/>
      </g>
     </g>
     <g id="text_11">
      <!-- $\mathdefault{10^{2}}$ -->
      <g transform="translate(25.537685 247.030526) scale(0.1 -0.1)">
       <use xlink:href="#DejaVuSans-31" transform="translate(0 0.765625)"/>
       <use xlink:href="#DejaVuSans-30" transform="translate(63.623047 0.765625)"/>
       <use xlink:href="#DejaVuSans-32" transform="translate(128.203125 39.046875) scale(0.7)"/>
      </g>
     </g>
    </g>
    <g id="ytick_3">
     <g id="line2d_11">
      <g>
       <use xlink:href="#m3febf72224" x="50.137685" y="145.906168" style="stroke: #000000; stroke-width: 0.8"/>
      </g>
     </g>
     <g id="text_12">
      <!-- $\mathdefault{10^{3}}$ -->
      <g transform="translate(25.537685 149.705386) scale(0.1 -0.1)">
       <use xlink:href="#DejaVuSans-31" transform="translate(0 0.765625)"/>
       <use xlink:href="#DejaVuSans-30" transform="translate(63.623047 0.765625)"/>
       <use xlink:href="#DejaVuSans-33" transform="translate(128.203125 39.046875) scale(0.7)"/>
      </g>
     </g>
    </g>
    <g id="ytick_4">
     <g id="line2d_12">
      <g>
       <use xlink:href="#m3febf72224" x="50.137685" y="48.581028" style="stroke: #000000; stroke-width: 0.8"/>
      </g>
     </g>
     <g id="text_13">
      <!-- $\mathdefault{10^{4}}$ -->
      <g transform="translate(25.537685 52.380246) scale(0.1 -0.1)">
       <defs>
        <path id="DejaVuSans-34" d="M 2419 4116 
L 825 1625 
L 2419 1625 
L 2419 4116 
z
M 2253 4666 
L 3047 4666 
L 3047 1625 
L 3713 1625 
L 3713 1100 
L 3047 1100 
L 3047 0 
L 2419 0 
L 2419 1100 
L 313 1100 
L 313 1709 
L 2253 4666 
z
" transform="scale(0.015625)"/>
       </defs>
       <use xlink:href="#DejaVuSans-31" transform="translate(0 0.684375)"/>
       <use xlink:href="#DejaVuSans-30" transform="translate(63.623047 0.684375)"/>
       <use xlink:href="#DejaVuSans-34" transform="translate(128.203125 38.965625) scale(0.7)"/>
      </g>
     </g>
    </g>
    <g id="ytick_5">
     <g id="line2d_13">
      <defs>
       <path id="m2402efc54e" d="M 0 0 
L -2 0 
" style="stroke: #000000; stroke-width: 0.6"/>
      </defs>
      <g>
       <use xlink:href="#m2402efc54e" x="50.137685" y="379.286014" style="stroke: #000000; stroke-width: 0.6"/>
      </g>
     </g>
    </g>
    <g id="ytick_6">
     <g id="line2d_14">
      <g>
       <use xlink:href="#m2402efc54e" x="50.137685" y="369.854234" style="stroke: #000000; stroke-width: 0.6"/>
      </g>
     </g>
    </g>
    <g id="ytick_7">
     <g id="line2d_15">
      <g>
       <use xlink:href="#m2402efc54e" x="50.137685" y="362.147908" style="stroke: #000000; stroke-width: 0.6"/>
      </g>
     </g>
    </g>
    <g id="ytick_8">
     <g id="line2d_16">
      <g>
       <use xlink:href="#m2402efc54e" x="50.137685" y="355.632302" style="stroke: #000000; stroke-width: 0.6"/>
      </g>
     </g>
    </g>
    <g id="ytick_9">
     <g id="line2d_17">
      <g>
       <use xlink:href="#m2402efc54e" x="50.137685" y="349.988228" style="stroke: #000000; stroke-width: 0.6"/>
      </g>
     </g>
    </g>
    <g id="ytick_10">
     <g id="line2d_18">
      <g>
       <use xlink:href="#m2402efc54e" x="50.137685" y="345.009802" style="stroke: #000000; stroke-width: 0.6"/>
      </g>
     </g>
    </g>
    <g id="ytick_11">
     <g id="line2d_19">
      <g>
       <use xlink:href="#m2402efc54e" x="50.137685" y="311.258661" style="stroke: #000000; stroke-width: 0.6"/>
      </g>
     </g>
    </g>
    <g id="ytick_12">
     <g id="line2d_20">
      <g>
       <use xlink:href="#m2402efc54e" x="50.137685" y="294.120555" style="stroke: #000000; stroke-width: 0.6"/>
      </g>
     </g>
    </g>
    <g id="ytick_13">
     <g id="line2d_21">
      <g>
       <use xlink:href="#m2402efc54e" x="50.137685" y="281.960874" style="stroke: #000000; stroke-width: 0.6"/>
      </g>
     </g>
    </g>
    <g id="ytick_14">
     <g id="line2d_22">
      <g>
       <use xlink:href="#m2402efc54e" x="50.137685" y="272.529094" style="stroke: #000000; stroke-width: 0.6"/>
      </g>
     </g>
    </g>
    <g id="ytick_15">
     <g id="line2d_23">
      <g>
       <use xlink:href="#m2402efc54e" x="50.137685" y="264.822768" style="stroke: #000000; stroke-width: 0.6"/>
      </g>
     </g>
    </g>
    <g id="ytick_16">
     <g id="line2d_24">
      <g>
       <use xlink:href="#m2402efc54e" x="50.137685" y="258.307162" style="stroke: #000000; stroke-width: 0.6"/>
      </g>
     </g>
    </g>
    <g id="ytick_17">
     <g id="line2d_25">
      <g>
       <use xlink:href="#m2402efc54e" x="50.137685" y="252.663088" style="stroke: #000000; stroke-width: 0.6"/>
      </g>
     </g>
    </g>
    <g id="ytick_18">
     <g id="line2d_26">
      <g>
       <use xlink:href="#m2402efc54e" x="50.137685" y="247.684662" style="stroke: #000000; stroke-width: 0.6"/>
      </g>
     </g>
    </g>
    <g id="ytick_19">
     <g id="line2d_27">
      <g>
       <use xlink:href="#m2402efc54e" x="50.137685" y="213.933521" style="stroke: #000000; stroke-width: 0.6"/>
      </g>
     </g>
    </g>
    <g id="ytick_20">
     <g id="line2d_28">
      <g>
       <use xlink:href="#m2402efc54e" x="50.137685" y="196.795415" style="stroke: #000000; stroke-width: 0.6"/>
      </g>
     </g>
    </g>
    <g id="ytick_21">
     <g id="line2d_29">
      <g>
       <use xlink:href="#m2402efc54e" x="50.137685" y="184.635735" style="stroke: #000000; stroke-width: 0.6"/>
      </g>
     </g>
    </g>
    <g id="ytick_22">
     <g id="line2d_30">
      <g>
       <use xlink:href="#m2402efc54e" x="50.137685" y="175.203954" style="stroke: #000000; stroke-width: 0.6"/>
      </g>
     </g>
    </g>
    <g id="ytick_23">
     <g id="line2d_31">
      <g>
       <use xlink:href="#m2402efc54e" x="50.137685" y="167.497628" style="stroke: #000000; stroke-width: 0.6"/>
      </g>
     </g>
    </g>
    <g id="ytick_24">
     <g id="line2d_32">
      <g>
       <use xlink:href="#m2402efc54e" x="50.137685" y="160.982022" style="stroke: #000000; stroke-width: 0.6"/>
      </g>
     </g>
    </g>
    <g id="ytick_25">
     <g id="line2d_33">
      <g>
       <use xlink:href="#m2402efc54e" x="50.137685" y="155.337948" style="stroke: #000000; stroke-width: 0.6"/>
      </g>
     </g>
    </g>
    <g id="ytick_26">
     <g id="line2d_34">
      <g>
       <use xlink:href="#m2402efc54e" x="50.137685" y="150.359522" style="stroke: #000000; stroke-width: 0.6"/>
      </g>
     </g>
    </g>
    <g id="ytick_27">
     <g id="line2d_35">
      <g>
       <use xlink:href="#m2402efc54e" x="50.137685" y="116.608381" style="stroke: #000000; stroke-width: 0.6"/>
      </g>
     </g>
    </g>
    <g id="ytick_28">
     <g id="line2d_36">
      <g>
       <use xlink:href="#m2402efc54e" x="50.137685" y="99.470275" style="stroke: #000000; stroke-width: 0.6"/>
      </g>
     </g>
    </g>
    <g id="ytick_29">
     <g id="line2d_37">
      <g>
       <use xlink:href="#m2402efc54e" x="50.137685" y="87.310595" style="stroke: #000000; stroke-width: 0.6"/>
      </g>
     </g>
    </g>
    <g id="ytick_30">
     <g id="line2d_38">
      <g>
       <use xlink:href="#m2402efc54e" x="50.137685" y="77.878814" style="stroke: #000000; stroke-width: 0.6"/>
      </g>
     </g>
    </g>
    <g id="ytick_31">
     <g id="line2d_39">
      <g>
       <use xlink:href="#m2402efc54e" x="50.137685" y="70.172488" style="stroke: #000000; stroke-width: 0.6"/>
      </g>
     </g>
    </g>
    <g id="ytick_32">
     <g id="line2d_40">
      <g>
       <use xlink:href="#m2402efc54e" x="50.137685" y="63.656883" style="stroke: #000000; stroke-width: 0.6"/>
      </g>
     </g>
    </g>
    <g id="ytick_33">
     <g id="line2d_41">
      <g>
       <use xlink:href="#m2402efc54e" x="50.137685" y="58.012808" style="stroke: #000000; stroke-width: 0.6"/>
      </g>
     </g>
    </g>
    <g id="ytick_34">
     <g id="line2d_42">
      <g>
       <use xlink:href="#m2402efc54e" x="50.137685" y="53.034382" style="stroke: #000000; stroke-width: 0.6"/>
      </g>
     </g>
    </g>
    <g id="text_14">
     <!-- Avg Duration (ms) -->
     <g transform="translate(19.457997 261.478469) rotate(-90) scale(0.1 -0.1)">
      <defs>
       <path id="DejaVuSans-41" d="M 2188 4044 
L 1331 1722 
L 3047 1722 
L 2188 4044 
z
M 1831 4666 
L 2547 4666 
L 4325 0 
L 3669 0 
L 3244 1197 
L 1141 1197 
L 716 0 
L 50 0 
L 1831 4666 
z
" transform="scale(0.015625)"/>
       <path id="DejaVuSans-76" d="M 191 3500 
L 800 3500 
L 1894 563 
L 2988 3500 
L 3597 3500 
L 2284 0 
L 1503 0 
L 191 3500 
z
" transform="scale(0.015625)"/>
       <path id="DejaVuSans-67" d="M 2906 1791 
Q 2906 2416 2648 2759 
Q 2391 3103 1925 3103 
Q 1463 3103 1205 2759 
Q 947 2416 947 1791 
Q 947 1169 1205 825 
Q 1463 481 1925 481 
Q 2391 481 2648 825 
Q 2906 1169 2906 1791 
z
M 3481 434 
Q 3481 -459 3084 -895 
Q 2688 -1331 1869 -1331 
Q 1566 -1331 1297 -1286 
Q 1028 -1241 775 -1147 
L 775 -588 
Q 1028 -725 1275 -790 
Q 1522 -856 1778 -856 
Q 2344 -856 2625 -561 
Q 2906 -266 2906 331 
L 2906 616 
Q 2728 306 2450 153 
Q 2172 0 1784 0 
Q 1141 0 747 490 
Q 353 981 353 1791 
Q 353 2603 747 3093 
Q 1141 3584 1784 3584 
Q 2172 3584 2450 3431 
Q 2728 3278 2906 2969 
L 2906 3500 
L 3481 3500 
L 3481 434 
z
" transform="scale(0.015625)"/>
       <path id="DejaVuSans-44" d="M 1259 4147 
L 1259 519 
L 2022 519 
Q 2988 519 3436 956 
Q 3884 1394 3884 2338 
Q 3884 3275 3436 3711 
Q 2988 4147 2022 4147 
L 1259 4147 
z
M 628 4666 
L 1925 4666 
Q 3281 4666 3915 4102 
Q 4550 3538 4550 2338 
Q 4550 1131 3912 565 
Q 3275 0 1925 0 
L 628 0 
L 628 4666 
z
" transform="scale(0.015625)"/>
       <path id="DejaVuSans-75" d="M 544 1381 
L 544 3500 
L 1119 3500 
L 1119 1403 
Q 1119 906 1312 657 
Q 1506 409 1894 409 
Q 2359 409 2629 706 
Q 2900 1003 2900 1516 
L 2900 3500 
L 3475 3500 
L 3475 0 
L 2900 0 
L 2900 538 
Q 2691 219 2414 64 
Q 2138 -91 1772 -91 
Q 1169 -91 856 284 
Q 544 659 544 1381 
z
M 1991 3584 
L 1991 3584 
z
" transform="scale(0.015625)"/>
       <path id="DejaVuSans-72" d="M 2631 2963 
Q 2534 3019 2420 3045 
Q 2306 3072 2169 3072 
Q 1681 3072 1420 2755 
Q 1159 2438 1159 1844 
L 1159 0 
L 581 0 
L 581 3500 
L 1159 3500 
L 1159 2956 
Q 1341 3275 1631 3429 
Q 1922 3584 2338 3584 
Q 2397 3584 2469 3576 
Q 2541 3569 2628 3553 
L 2631 2963 
z
" transform="scale(0.015625)"/>
      </defs>
      <use xlink:href="#DejaVuSans-41"/>
      <use xlink:href="#DejaVuSans-76" transform="translate(62.533203 0)"/>
      <use xlink:href="#DejaVuSans-67" transform="translate(121.712891 0)"/>
      <use xlink:href="#DejaVuSans-20" transform="translate(185.189453 0)"/>
      <use xlink:href="#DejaVuSans-44" transform="translate(216.976562 0)"/>
      <use xlink:href="#DejaVuSans-75" transform="translate(293.978516 0)"/>
      <use xlink:href="#DejaVuSans-72" transform="translate(357.357422 0)"/>
      <use xlink:href="#DejaVuSans-61" transform="translate(398.470703 0)"/>
      <use xlink:href="#DejaVuSans-74" transform="translate(459.75 0)"/>
      <use xlink:href="#DejaVuSans-69" transform="translate(498.958984 0)"/>
      <use xlink:href="#DejaVuSans-6f" transform="translate(526.742188 0)"/>
      <use xlink:href="#DejaVuSans-6e" transform="translate(587.923828 0)"/>
      <use xlink:href="#DejaVuSans-20" transform="translate(651.302734 0)"/>
      <use xlink:href="#DejaVuSans-28" transform="translate(683.089844 0)"/>
      <use xlink:href="#DejaVuSans-6d" transform="translate(722.103516 0)"/>
      <use xlink:href="#DejaVuSans-73" transform="translate(819.515625 0)"/>
      <use xlink:href="#DejaVuSans-29" transform="translate(871.615234 0)"/>
     </g>
    </g>
   </g>
   <g id="line2d_43">
    <path d="M 86.640517 335.297147 
L 88.668452 321.133549 
L 90.696388 322.603841 
L 92.724323 253.437959 
L 94.752258 278.530902 
L 96.780193 289.846202 
L 98.808128 270.428024 
L 100.836063 327.934375 
L 102.863998 290.981261 
L 104.891934 286.67701 
L 106.919869 274.658797 
L 108.947804 295.305829 
L 110.975739 279.908823 
L 113.003674 286.540768 
L 115.031609 265.633083 
L 117.059544 287.152562 
L 119.08748 297.66518 
L 121.115415 278.695144 
L 123.14335 278.239173 
L 125.171285 281.926551 
L 127.19922 294.314543 
L 129.227155 270.496787 
L 131.25509 260.868646 
L 133.283025 261.316506 
L 135.310961 268.009056 
L 137.338896 283.382406 
L 139.366831 247.598129 
L 141.394766 233.64515 
L 143.422701 258.665148 
L 145.450636 239.112531 
L 147.478571 229.878389 
L 149.506507 249.853469 
L 151.534442 259.230631 
L 153.562377 225.084382 
L 155.590312 254.315135 
L 157.618247 224.699586 
L 159.646182 217.824407 
L 161.674117 256.345402 
L 163.702053 267.730699 
L 165.729988 192.588155 
L 167.757923 237.297323 
L 169.785858 218.01495 
L 171.813793 245.841468 
L 173.841728 235.481158 
L 175.869663 246.427604 
L 177.897599 209.1263 
L 179.925534 211.570223 
L 181.953469 199.662355 
L 183.981404 222.604316 
L 186.009339 172.947536 
L 188.037274 181.157828 
L 190.065209 210.746929 
L 192.093145 198.288373 
L 194.12108 209.931743 
L 196.149015 198.643691 
L 198.17695 194.024374 
L 200.204885 205.160209 
L 202.23282 185.089039 
L 204.260755 201.868375 
L 206.288691 228.427115 
L 208.316626 197.496743 
L 210.344561 162.677399 
L 212.372496 189.443053 
L 214.400431 193.1166 
L 216.428366 183.017192 
L 218.456301 163.507716 
L 220.484236 162.762832 
L 222.512172 210.651107 
L 224.540107 171.825847 
L 226.568042 186.061106 
L 228.595977 194.297887 
L 230.623912 162.979381 
L 232.651847 154.434731 
L 234.679782 164.228945 
L 236.707718 169.579503 
L 238.735653 180.644494 
L 240.763588 170.551563 
L 242.791523 205.978743 
L 244.819458 181.207415 
L 246.847393 174.535798 
L 248.875328 166.595959 
L 250.903264 173.642741 
L 252.931199 168.886757 
L 254.959134 156.594972 
L 256.987069 176.86255 
L 259.015004 182.461514 
L 261.042939 175.410316 
L 263.070874 166.839769 
L 265.09881 161.958972 
L 267.126745 179.651808 
L 269.15468 168.582259 
L 271.182615 194.154681 
L 273.21055 173.568581 
L 275.238485 167.597938 
L 277.26642 162.673827 
L 279.294356 160.757854 
L 281.322291 157.851497 
L 283.350226 163.458265 
L 285.378161 163.17312 
L 287.406096 170.726993 
L 289.434031 173.898628 
L 291.461966 166.070108 
L 293.489902 146.065365 
L 295.517837 167.697202 
L 297.545772 166.502287 
L 301.601642 146.335232 
L 303.629577 143.714029 
L 305.657512 184.093028 
L 307.685447 177.427147 
L 309.713383 190.402486 
L 311.741318 205.378065 
L 313.769253 206.87983 
L 315.797188 174.419787 
L 317.825123 177.166065 
L 319.853058 199.150644 
L 321.880993 179.167488 
L 323.908929 168.877807 
L 325.936864 162.598219 
L 327.964799 162.037389 
L 329.992734 162.156442 
L 332.020669 161.574648 
L 334.048604 181.136142 
L 336.076539 165.982772 
L 338.104475 172.653207 
L 340.13241 173.880549 
L 342.160345 179.653222 
L 344.18828 197.003626 
L 346.216215 199.266963 
L 348.24415 181.246885 
L 350.272085 191.882901 
L 352.300021 156.025859 
L 354.327956 151.36916 
L 356.355891 150.607127 
L 358.383826 152.054352 
L 360.411761 180.641591 
L 362.439696 191.313841 
L 364.467631 195.381388 
L 366.495567 200.482934 
L 368.523502 198.516316 
L 370.551437 181.3633 
L 372.579372 162.90024 
L 374.607307 151.080426 
L 376.635242 167.567872 
L 378.663177 182.555774 
L 380.691113 170.415652 
L 382.719048 192.443878 
L 384.746983 225.087259 
L 386.774918 183.083736 
L 388.802853 187.182515 
L 390.830788 201.181881 
L 392.858723 186.031404 
L 394.886658 165.767926 
L 396.914594 169.393045 
L 398.942529 173.830699 
L 400.970464 164.780291 
L 402.998399 181.881958 
L 405.026334 172.360053 
L 407.054269 175.664341 
L 409.082204 165.734861 
L 411.11014 185.461617 
L 413.138075 193.492481 
L 415.16601 169.853819 
L 417.193945 157.872826 
L 419.22188 169.211817 
L 421.249815 160.065865 
L 423.27775 172.210624 
L 425.305686 160.021412 
L 427.333621 158.72087 
L 429.361556 165.282973 
L 431.389491 191.875629 
L 433.417426 176.301726 
L 435.445361 159.551827 
L 437.473296 175.836846 
L 439.501232 171.769473 
L 441.529167 174.217925 
L 443.557102 153.397165 
L 445.585037 158.852307 
L 447.612972 169.31421 
L 449.640907 209.887115 
L 451.668842 175.731283 
L 453.696778 168.884282 
L 455.724713 176.416442 
L 457.752648 162.904867 
L 459.780583 160.37073 
L 461.808518 170.114333 
L 463.836453 183.070509 
L 465.864388 161.760973 
L 467.892323 169.536097 
L 469.920259 167.808697 
L 471.948194 169.271168 
L 473.976129 168.956478 
L 476.004064 180.14729 
L 478.031999 166.98488 
L 480.059934 183.47929 
L 482.087869 206.962677 
L 484.115805 183.670731 
L 486.14374 165.612571 
L 488.171675 185.023773 
L 490.19961 199.794652 
L 492.227545 175.890872 
L 494.25548 177.394561 
L 496.283415 159.481181 
L 498.311351 181.885531 
L 500.339286 171.597732 
L 502.367221 160.378856 
L 504.395156 166.000174 
L 506.423091 165.816931 
L 508.451026 174.328671 
L 510.478961 179.974848 
L 512.506897 177.616043 
L 514.534832 195.679167 
L 516.562767 177.625571 
L 518.590702 174.684794 
L 520.618637 196.024225 
L 522.646572 178.355027 
L 524.674507 182.174259 
L 526.702443 185.319993 
L 528.730378 160.778779 
L 530.758313 170.33867 
L 532.786248 173.043374 
L 534.814183 170.844969 
L 536.842118 171.590118 
L 538.870053 153.070303 
L 540.897989 157.596397 
L 542.925924 169.939943 
L 544.953859 193.367944 
L 546.981794 159.813455 
L 549.009729 169.196956 
L 551.037664 166.804142 
L 553.065599 186.753956 
L 555.093534 179.802436 
L 557.12147 151.207258 
L 559.149405 180.487819 
L 561.17734 152.864387 
L 563.205275 153.214189 
L 565.23321 157.391584 
L 567.261145 162.659729 
L 569.28908 171.165941 
L 571.317016 152.642191 
L 573.344951 145.25875 
L 575.372886 153.201226 
L 577.400821 175.58786 
L 579.428756 190.796674 
L 581.456691 228.251747 
L 583.484626 188.74038 
L 585.512562 161.526959 
L 587.540497 152.478508 
L 589.568432 161.978269 
L 591.596367 168.580869 
L 593.624302 171.801463 
L 595.652237 172.551576 
L 597.680172 177.774949 
L 599.708108 187.455234 
L 601.736043 193.258528 
L 603.763978 158.995183 
L 605.791913 179.295425 
L 607.819848 205.120516 
L 609.847783 191.768535 
L 611.875718 158.821649 
L 613.903654 150.936026 
L 615.931589 156.63989 
L 617.959524 159.101753 
L 619.987459 158.769756 
L 622.015394 153.505397 
L 624.043329 168.663315 
L 626.071264 160.744403 
L 628.0992 177.178501 
L 630.127135 177.035911 
L 632.15507 176.472862 
L 634.183005 177.607465 
L 636.21094 167.521136 
L 638.238875 160.17037 
L 640.26681 165.976355 
L 642.294745 161.474094 
L 644.322681 181.578544 
L 646.350616 184.557215 
L 648.378551 194.761202 
L 650.406486 181.202178 
L 652.434421 155.708612 
L 654.462356 139.889475 
L 656.490291 172.411945 
L 658.518227 188.42436 
L 660.546162 162.878895 
L 662.574097 156.294194 
L 664.602032 161.63981 
L 666.629967 157.928222 
L 668.657902 163.212793 
L 670.685837 146.899057 
L 672.713773 158.544564 
L 674.741708 205.04115 
L 676.769643 184.071898 
L 678.797578 158.252277 
L 680.825513 162.649732 
L 682.853448 161.503975 
L 684.881383 162.170981 
L 686.909319 171.44133 
L 688.937254 185.814769 
L 690.965189 189.65393 
L 692.993124 179.38182 
L 695.021059 187.331821 
L 697.048994 178.945482 
L 699.076929 189.537979 
L 701.104865 175.449353 
L 703.1328 179.176018 
L 705.160735 211.694221 
L 707.18867 172.407627 
L 709.216605 173.927491 
L 711.24454 177.198432 
L 713.272475 216.299189 
L 715.300411 203.36215 
L 717.328346 191.979705 
L 719.356281 205.785892 
L 721.384216 230.44186 
L 723.412151 226.213715 
L 725.440086 207.800801 
L 727.468021 220.847524 
L 729.495956 230.527319 
L 731.523892 213.348597 
L 733.551827 198.50101 
L 735.579762 219.962218 
L 737.607697 200.702113 
L 739.635632 201.817966 
L 741.663567 261.182572 
L 743.691502 261.363079 
L 745.719438 243.441367 
L 747.747373 231.75149 
L 749.775308 231.647578 
L 751.803243 243.743061 
L 753.831178 262.92517 
L 755.859113 225.490211 
L 757.887048 237.752769 
L 759.914984 259.813864 
L 761.942919 232.82426 
L 763.970854 248.594173 
L 765.998789 241.886501 
L 768.026724 264.579722 
L 770.054659 237.334091 
L 772.082594 240.202725 
L 774.11053 282.566855 
L 776.138465 282.909579 
L 778.1664 279.000341 
L 780.194335 259.249722 
L 782.22227 273.786673 
L 784.250205 260.758294 
L 786.27814 288.169878 
L 788.306076 273.192592 
L 790.334011 291.295385 
L 792.361946 284.219569 
L 794.389881 274.016279 
L 796.417816 309.994397 
L 800.473686 250.087095 
L 802.501622 287.083037 
L 804.529557 271.632965 
L 806.557492 285.223782 
L 808.585427 296.051785 
L 810.613362 270.073182 
L 812.641297 250.450529 
L 814.669232 327.630424 
L 816.697167 252.330679 
L 816.697167 252.330679 
" clip-path="url(#pff72690811)" style="fill: none; stroke: #1f77b4; stroke-width: 1.5; stroke-linecap: square"/>
   </g>
   <g id="line2d_44">
    <path d="M 86.640517 275.167326 
L 88.668452 228.652847 
L 90.696388 325.674424 
L 92.724323 228.921795 
L 94.752258 228.427846 
L 96.780193 236.507417 
L 98.808128 207.039813 
L 100.836063 286.590761 
L 102.863998 240.663719 
L 104.891934 236.054096 
L 106.919869 226.164402 
L 108.947804 187.976122 
L 110.975739 196.200419 
L 113.003674 221.88565 
L 115.031609 143.937637 
L 117.059544 194.3585 
L 119.08748 178.936115 
L 121.115415 179.278936 
L 123.14335 198.10835 
L 125.171285 165.47758 
L 127.19922 128.48923 
L 129.227155 146.978264 
L 131.25509 149.438382 
L 133.283025 137.05843 
L 135.310961 137.380838 
L 137.338896 125.521749 
L 139.366831 134.707938 
L 141.394766 106.405 
L 143.422701 112.249464 
L 145.450636 127.5621 
L 147.478571 117.790275 
L 149.506507 121.471122 
L 151.534442 110.822111 
L 153.562377 101.184695 
L 155.590312 104.589833 
L 157.618247 123.849538 
L 159.646182 107.196996 
L 161.674117 102.758142 
L 163.702053 114.395872 
L 165.729988 112.061325 
L 167.757923 113.49828 
L 169.785858 113.997143 
L 171.813793 123.914995 
L 175.869663 99.87291 
L 177.897599 89.291909 
L 179.925534 91.677655 
L 181.953469 77.930986 
L 183.981404 92.123581 
L 186.009339 158.308661 
L 188.037274 86.425394 
L 190.065209 92.230325 
L 192.093145 101.577756 
L 194.12108 96.050838 
L 196.149015 97.9932 
L 198.17695 74.121397 
L 200.204885 80.799575 
L 202.23282 88.554739 
L 204.260755 82.030987 
L 206.288691 71.983832 
L 208.316626 82.25331 
L 210.344561 71.303402 
L 212.372496 140.841596 
L 214.400431 61.060866 
L 216.428366 68.271322 
L 218.456301 78.856794 
L 220.484236 65.874036 
L 222.512172 69.095026 
L 224.540107 87.891781 
L 226.568042 71.447059 
L 228.595977 69.456288 
L 230.623912 112.352915 
L 232.651847 69.201412 
L 234.679782 84.035083 
L 236.707718 71.491449 
L 238.735653 73.451135 
L 240.763588 73.004376 
L 242.791523 69.980564 
L 244.819458 83.055869 
L 246.847393 67.70598 
L 248.875328 92.218073 
L 250.903264 80.894729 
L 252.931199 75.204537 
L 254.959134 78.008219 
L 256.987069 77.057837 
L 259.015004 99.044975 
L 261.042939 86.357997 
L 263.070874 95.933187 
L 265.09881 116.524306 
L 267.126745 82.40703 
L 269.15468 83.049313 
L 271.182615 102.661641 
L 273.21055 96.822157 
L 275.238485 75.010482 
L 277.26642 69.139804 
L 279.294356 65.2567 
L 281.322291 76.44098 
L 283.350226 78.629004 
L 285.378161 80.121272 
L 287.406096 80.734681 
L 289.434031 71.516 
L 291.461966 74.945537 
L 293.489902 74.156094 
L 295.517837 86.444959 
L 297.545772 74.71159 
L 299.573707 97.122065 
L 301.601642 76.665665 
L 303.629577 66.860159 
L 305.657512 81.304734 
L 307.685447 89.747801 
L 309.713383 75.810993 
L 311.741318 84.276127 
L 313.769253 86.864684 
L 315.797188 63.119806 
L 317.825123 63.816033 
L 319.853058 79.348994 
L 321.880993 64.222444 
L 323.908929 69.496406 
L 325.936864 59.183226 
L 327.964799 76.604277 
L 329.992734 86.193026 
L 332.020669 86.977543 
L 334.048604 89.380364 
L 336.076539 100.134807 
L 338.104475 69.153758 
L 340.13241 73.218157 
L 342.160345 76.645705 
L 344.18828 85.066765 
L 346.216215 78.266716 
L 348.24415 70.163322 
L 350.272085 83.909398 
L 352.300021 75.85375 
L 354.327956 97.212359 
L 356.355891 95.747719 
L 358.383826 90.747871 
L 360.411761 73.04946 
L 362.439696 88.658688 
L 364.467631 77.155085 
L 366.495567 79.156316 
L 368.523502 59.144035 
L 370.551437 85.190185 
L 372.579372 68.347026 
L 374.607307 74.056914 
L 376.635242 67.373628 
L 378.663177 64.226919 
L 380.691113 95.707188 
L 382.719048 71.191258 
L 384.746983 72.414104 
L 386.774918 84.85968 
L 390.830788 76.371417 
L 392.858723 68.743714 
L 394.886658 76.635697 
L 396.914594 76.512167 
L 398.942529 74.189878 
L 400.970464 93.141974 
L 402.998399 83.481773 
L 405.026334 74.691011 
L 407.054269 61.380171 
L 409.082204 66.162156 
L 411.11014 85.186772 
L 413.138075 79.47078 
L 415.16601 66.614697 
L 417.193945 75.229222 
L 419.22188 88.346197 
L 421.249815 86.825845 
L 423.27775 60.718902 
L 425.305686 78.654294 
L 427.333621 75.196283 
L 429.361556 76.385032 
L 431.389491 72.499426 
L 433.417426 138.091117 
L 435.445361 85.962171 
L 437.473296 74.004906 
L 439.501232 73.873411 
L 441.529167 66.450234 
L 443.557102 71.687647 
L 445.585037 91.475021 
L 447.612972 65.223918 
L 449.640907 119.326316 
L 451.668842 94.449333 
L 453.696778 91.856637 
L 455.724713 77.825256 
L 457.752648 61.181396 
L 459.780583 87.786031 
L 461.808518 77.305271 
L 463.836453 62.366004 
L 465.864388 99.858852 
L 467.892323 75.19576 
L 469.920259 60.995501 
L 471.948194 78.631989 
L 473.976129 63.368019 
L 476.004064 91.701016 
L 478.031999 82.947645 
L 480.059934 82.716757 
L 482.087869 71.999249 
L 484.115805 81.582521 
L 486.14374 76.462573 
L 488.171675 79.609498 
L 490.19961 78.061271 
L 492.227545 73.203531 
L 494.25548 75.290432 
L 496.283415 67.189651 
L 498.311351 79.043786 
L 500.339286 71.112962 
L 502.367221 68.009135 
L 504.395156 72.519952 
L 506.423091 78.401059 
L 508.451026 70.155298 
L 510.478961 74.700132 
L 512.506897 77.241788 
L 514.534832 74.285053 
L 516.562767 90.970795 
L 518.590702 74.060715 
L 520.618637 68.972681 
L 522.646572 65.88881 
L 524.674507 83.360514 
L 526.702443 82.255985 
L 528.730378 77.111899 
L 530.758313 69.649895 
L 532.786248 80.512228 
L 534.814183 76.9451 
L 536.842118 68.895775 
L 538.870053 84.122884 
L 540.897989 71.755002 
L 542.925924 81.450764 
L 544.953859 68.538004 
L 546.981794 69.924043 
L 549.009729 64.423118 
L 551.037664 74.238791 
L 553.065599 79.109339 
L 555.093534 67.026546 
L 557.12147 76.704028 
L 559.149405 84.823169 
L 561.17734 77.250138 
L 563.205275 96.258881 
L 565.23321 92.624782 
L 567.261145 71.370144 
L 569.28908 81.092672 
L 571.317016 83.041163 
L 573.344951 86.444973 
L 575.372886 71.220634 
L 577.400821 68.499044 
L 579.428756 60.749385 
L 581.456691 65.155857 
L 583.484626 80.131859 
L 585.512562 74.978975 
L 587.540497 64.756752 
L 589.568432 73.930765 
L 591.596367 65.701663 
L 593.624302 70.181936 
L 595.652237 91.958218 
L 597.680172 85.96544 
L 599.708108 80.924298 
L 601.736043 90.430977 
L 603.763978 81.853754 
L 605.791913 77.492577 
L 607.819848 102.212934 
L 609.847783 98.097592 
L 611.875718 68.674382 
L 613.903654 85.273341 
L 615.931589 68.637809 
L 617.959524 83.810856 
L 619.987459 89.385607 
L 622.015394 87.138236 
L 624.043329 87.291666 
L 626.071264 79.803879 
L 628.0992 84.67006 
L 630.127135 70.92478 
L 632.15507 72.05913 
L 634.183005 68.858362 
L 636.21094 86.284663 
L 638.238875 80.425008 
L 640.26681 83.827086 
L 642.294745 58.703902 
L 644.322681 78.130521 
L 646.350616 61.993041 
L 648.378551 66.338052 
L 650.406486 85.392774 
L 652.434421 68.134027 
L 654.462356 62.576564 
L 656.490291 63.315012 
L 658.518227 92.525078 
L 660.546162 84.831105 
L 662.574097 79.12876 
L 664.602032 72.968015 
L 666.629967 57.682545 
L 668.657902 80.685115 
L 670.685837 64.895804 
L 672.713773 70.254402 
L 674.741708 66.243633 
L 676.769643 91.001914 
L 678.797578 83.680573 
L 680.825513 72.123424 
L 682.853448 92.300366 
L 684.881383 97.48005 
L 686.909319 85.057281 
L 688.937254 76.007828 
L 690.965189 75.661059 
L 692.993124 83.452211 
L 695.021059 69.157469 
L 697.048994 132.890593 
L 699.076929 64.827304 
L 701.104865 63.053132 
L 703.1328 72.021866 
L 705.160735 75.266941 
L 707.18867 67.526555 
L 711.24454 88.719678 
L 715.300411 76.222073 
L 717.328346 81.456249 
L 719.356281 74.853089 
L 721.384216 79.087149 
L 723.412151 72.286178 
L 725.440086 74.587166 
L 727.468021 97.068398 
L 729.495956 92.222001 
L 731.523892 83.325826 
L 733.551827 93.049101 
L 735.579762 75.902731 
L 737.607697 92.797036 
L 739.635632 76.152218 
L 741.663567 81.772809 
L 743.691502 100.02117 
L 745.719438 100.665521 
L 747.747373 99.932942 
L 749.775308 88.519556 
L 751.803243 109.403609 
L 753.831178 102.907665 
L 755.859113 121.605992 
L 757.887048 142.970237 
L 759.914984 105.991252 
L 761.942919 92.928892 
L 763.970854 93.181116 
L 765.998789 114.857394 
L 768.026724 161.989564 
L 770.054659 171.455483 
L 772.082594 137.607776 
L 774.11053 162.597121 
L 776.138465 134.354362 
L 778.1664 158.204388 
L 780.194335 186.17157 
L 782.22227 162.293459 
L 784.250205 167.777586 
L 786.27814 178.77651 
L 788.306076 176.41158 
L 790.334011 219.070374 
L 792.361946 199.01251 
L 794.389881 150.867741 
L 796.417816 172.443684 
L 798.445751 175.233237 
L 800.473686 265.68235 
L 802.501622 210.696157 
L 804.529557 241.020226 
L 806.557492 231.573531 
L 808.585427 194.148314 
L 810.613362 258.648634 
L 812.641297 256.248861 
L 814.669232 250.361494 
L 816.697167 252.585449 
L 816.697167 252.585449 
" clip-path="url(#pff72690811)" style="fill: none; stroke: #ff7f0e; stroke-width: 1.5; stroke-linecap: square"/>
   </g>
   <g id="line2d_45">
    <path d="M 86.640517 374.213455 
L 88.668452 239.453141 
L 90.696388 317.88729 
L 92.724323 270.675511 
L 94.752258 242.240553 
L 96.780193 295.658774 
L 98.808128 243.465372 
L 100.836063 259.358987 
L 102.863998 253.317021 
L 104.891934 300.691814 
L 106.919869 259.507907 
L 108.947804 238.331596 
L 110.975739 261.633372 
L 113.003674 267.94233 
L 115.031609 252.529005 
L 117.059544 232.212175 
L 119.08748 246.946523 
L 121.115415 267.581027 
L 123.14335 236.591882 
L 125.171285 270.818192 
L 127.19922 254.532603 
L 129.227155 221.613242 
L 131.25509 236.842336 
L 133.283025 247.404531 
L 135.310961 239.631666 
L 137.338896 253.244499 
L 139.366831 202.17628 
L 141.394766 223.385229 
L 143.422701 216.09132 
L 145.450636 212.809145 
L 147.478571 205.559372 
L 149.506507 273.450499 
L 151.534442 270.369584 
L 153.562377 232.910584 
L 155.590312 219.483823 
L 157.618247 221.600205 
L 159.646182 209.439114 
L 161.674117 232.981496 
L 163.702053 232.887558 
L 165.729988 260.225475 
L 167.757923 176.71747 
L 169.785858 192.513009 
L 171.813793 174.633193 
L 173.841728 193.91312 
L 175.869663 175.916325 
L 177.897599 173.739571 
L 179.925534 194.783365 
L 181.953469 167.517933 
L 183.981404 195.825794 
L 186.009339 196.265343 
L 188.037274 171.298023 
L 190.065209 157.614612 
L 192.093145 180.535204 
L 194.12108 185.862184 
L 196.149015 165.483004 
L 198.17695 153.999985 
L 200.204885 162.973253 
L 202.23282 137.458888 
L 204.260755 173.356924 
L 206.288691 158.768022 
L 208.316626 138.82239 
L 212.372496 139.019124 
L 214.400431 155.541813 
L 216.428366 167.027522 
L 218.456301 138.624896 
L 220.484236 205.937651 
L 222.512172 152.846363 
L 224.540107 131.781863 
L 226.568042 142.433627 
L 228.595977 158.791826 
L 230.623912 135.389449 
L 232.651847 139.642152 
L 234.679782 140.973576 
L 236.707718 165.974797 
L 238.735653 160.148918 
L 240.763588 161.524444 
L 242.791523 137.109376 
L 244.819458 133.058056 
L 246.847393 137.858906 
L 248.875328 136.768557 
L 250.903264 154.904428 
L 252.931199 157.216419 
L 254.959134 184.236529 
L 256.987069 202.778 
L 259.015004 180.966527 
L 261.042939 156.373975 
L 263.070874 149.34906 
L 265.09881 156.951416 
L 267.126745 157.512503 
L 269.15468 183.405057 
L 271.182615 156.268185 
L 273.21055 163.672236 
L 275.238485 177.837862 
L 277.26642 163.643964 
L 279.294356 144.989529 
L 281.322291 135.081167 
L 283.350226 181.068524 
L 285.378161 131.154284 
L 287.406096 155.167632 
L 289.434031 144.541991 
L 291.461966 166.084169 
L 293.489902 159.433591 
L 295.517837 132.665006 
L 297.545772 172.336361 
L 299.573707 172.144015 
L 301.601642 194.806983 
L 303.629577 173.036114 
L 305.657512 141.597331 
L 307.685447 143.689263 
L 309.713383 127.68272 
L 311.741318 206.155837 
L 313.769253 134.456172 
L 315.797188 155.693467 
L 317.825123 157.807142 
L 319.853058 129.658186 
L 321.880993 138.717674 
L 323.908929 161.316652 
L 325.936864 186.204468 
L 327.964799 161.609724 
L 329.992734 108.604063 
L 332.020669 244.443571 
L 334.048604 130.413233 
L 336.076539 125.51416 
L 338.104475 171.032076 
L 340.13241 109.155562 
L 342.160345 130.514398 
L 344.18828 107.611073 
L 346.216215 112.10244 
L 348.24415 102.265356 
L 350.272085 138.774707 
L 352.300021 151.809123 
L 354.327956 101.14059 
L 356.355891 103.761342 
L 358.383826 171.122052 
L 360.411761 182.387884 
L 362.439696 138.64752 
L 364.467631 140.154951 
L 368.523502 163.629151 
L 370.551437 157.859201 
L 372.579372 184.825115 
L 376.635242 151.422547 
L 378.663177 124.276554 
L 380.691113 180.06802 
L 382.719048 125.599434 
L 384.746983 131.543096 
L 386.774918 126.804426 
L 388.802853 128.198642 
L 390.830788 160.606402 
L 392.858723 131.307492 
L 394.886658 129.845914 
L 396.914594 137.759546 
L 398.942529 167.061811 
L 400.970464 167.623369 
L 402.998399 146.729068 
L 405.026334 145.699953 
L 407.054269 157.037717 
L 409.082204 158.656575 
L 411.11014 163.036886 
L 413.138075 161.563933 
L 415.16601 166.433341 
L 417.193945 179.847891 
L 419.22188 168.284225 
L 421.249815 176.111494 
L 423.27775 183.292804 
L 425.305686 182.790751 
L 427.333621 163.747789 
L 429.361556 157.511474 
L 431.389491 174.676527 
L 433.417426 169.98774 
L 435.445361 182.547129 
L 437.473296 197.017092 
L 439.501232 175.12592 
L 441.529167 169.119095 
L 443.557102 165.854203 
L 447.612972 156.351144 
L 449.640907 157.649543 
L 451.668842 170.170369 
L 453.696778 166.494732 
L 455.724713 155.274336 
L 457.752648 162.372435 
L 459.780583 173.411105 
L 461.808518 170.600098 
L 463.836453 145.681242 
L 465.864388 158.573675 
L 469.920259 175.231804 
L 471.948194 156.62943 
L 473.976129 156.596262 
L 476.004064 175.13618 
L 478.031999 177.194251 
L 480.059934 170.351535 
L 482.087869 180.185137 
L 484.115805 177.013816 
L 486.14374 154.536528 
L 488.171675 147.248004 
L 490.19961 162.401988 
L 492.227545 176.631304 
L 494.25548 189.066362 
L 496.283415 168.582334 
L 498.311351 150.324197 
L 500.339286 156.878519 
L 502.367221 165.028217 
L 504.395156 172.716416 
L 506.423091 160.781026 
L 508.451026 160.463168 
L 510.478961 170.358574 
L 512.506897 170.11214 
L 514.534832 172.572808 
L 516.562767 162.806255 
L 518.590702 176.723606 
L 520.618637 175.131902 
L 522.646572 176.28805 
L 524.674507 174.988557 
L 526.702443 176.361648 
L 528.730378 171.951471 
L 530.758313 190.472329 
L 532.786248 198.522687 
L 534.814183 203.163256 
L 536.842118 217.52908 
L 538.870053 184.728538 
L 540.897989 165.353546 
L 542.925924 159.686874 
L 544.953859 177.528716 
L 546.981794 171.28287 
L 549.009729 158.988218 
L 551.037664 153.059267 
L 553.065599 153.91687 
L 555.093534 158.232384 
L 557.12147 157.8129 
L 559.149405 154.276725 
L 561.17734 159.935859 
L 563.205275 142.419234 
L 565.23321 160.839859 
L 567.261145 186.771101 
L 569.28908 184.286128 
L 571.317016 169.733969 
L 573.344951 142.855921 
L 575.372886 143.378032 
L 577.400821 180.883373 
L 579.428756 166.326355 
L 581.456691 174.534465 
L 583.484626 197.524292 
L 585.512562 165.649069 
L 587.540497 163.741859 
L 589.568432 164.796995 
L 591.596367 163.273717 
L 595.652237 168.11831 
L 597.680172 160.587131 
L 599.708108 172.00551 
L 601.736043 180.369627 
L 603.763978 173.604218 
L 605.791913 152.98692 
L 607.819848 146.608857 
L 609.847783 168.823968 
L 611.875718 199.026498 
L 613.903654 171.779079 
L 615.931589 171.943229 
L 617.959524 144.92752 
L 619.987459 166.536774 
L 622.015394 168.424476 
L 624.043329 186.582375 
L 626.071264 179.427116 
L 628.0992 156.766392 
L 630.127135 150.303784 
L 632.15507 179.454728 
L 634.183005 158.886004 
L 636.21094 144.898853 
L 638.238875 155.507136 
L 640.26681 170.851126 
L 642.294745 180.515676 
L 644.322681 153.524571 
L 646.350616 182.668312 
L 648.378551 151.234785 
L 650.406486 151.992283 
L 652.434421 153.831602 
L 654.462356 152.099974 
L 656.490291 156.428915 
L 658.518227 164.509462 
L 660.546162 181.498295 
L 662.574097 157.808121 
L 664.602032 180.367423 
L 666.629967 145.856326 
L 668.657902 158.574202 
L 670.685837 172.243308 
L 672.713773 153.189563 
L 674.741708 160.778359 
L 676.769643 143.650435 
L 678.797578 168.399254 
L 680.825513 181.268779 
L 682.853448 176.512718 
L 684.881383 164.859851 
L 686.909319 167.754766 
L 688.937254 165.395443 
L 690.965189 164.83436 
L 692.993124 160.977158 
L 695.021059 159.23171 
L 697.048994 154.684657 
L 699.076929 166.559173 
L 701.104865 172.422401 
L 703.1328 152.368913 
L 705.160735 156.636349 
L 707.18867 163.893954 
L 709.216605 144.076101 
L 711.24454 152.257467 
L 713.272475 161.181063 
L 715.300411 160.959535 
L 717.328346 173.358883 
L 719.356281 209.307216 
L 721.384216 219.797585 
L 723.412151 177.437989 
L 725.440086 177.320966 
L 727.468021 248.268937 
L 729.495956 192.621702 
L 731.523892 193.032277 
L 733.551827 169.33349 
L 735.579762 197.899834 
L 737.607697 209.93651 
L 739.635632 232.236073 
L 741.663567 248.735138 
L 743.691502 217.650146 
L 745.719438 229.443714 
L 747.747373 257.797167 
L 749.775308 238.510222 
L 751.803243 237.676351 
L 753.831178 226.327498 
L 755.859113 222.36618 
L 757.887048 231.150126 
L 759.914984 260.46151 
L 761.942919 232.752452 
L 763.970854 256.732143 
L 765.998789 256.851851 
L 768.026724 235.314613 
L 770.054659 259.781359 
L 772.082594 260.720813 
L 774.11053 267.351382 
L 776.138465 251.738786 
L 778.1664 253.788529 
L 780.194335 264.654068 
L 782.22227 239.166352 
L 784.250205 275.553556 
L 786.27814 219.641356 
L 788.306076 279.001483 
L 790.334011 236.083302 
L 792.361946 287.049592 
L 794.389881 262.075115 
L 796.417816 226.672019 
L 798.445751 232.733046 
L 800.473686 295.835675 
L 802.501622 265.250692 
L 804.529557 300.552709 
L 806.557492 298.333572 
L 808.585427 243.545661 
L 810.613362 248.221879 
L 812.641297 268.51073 
L 814.669232 327.312399 
L 816.697167 251.699643 
L 816.697167 251.699643 
" clip-path="url(#pff72690811)" style="fill: none; stroke: #2ca02c; stroke-width: 1.5; stroke-linecap: square"/>
   </g>
   <g id="patch_3">
    <path d="M 50.137685 390.04 
L 50.137685 41.856 
" style="fill: none; stroke: #000000; stroke-width: 0.8; stroke-linejoin: miter; stroke-linecap: square"/>
   </g>
   <g id="patch_4">
    <path d="M 853.2 390.04 
L 853.2 41.856 
" style="fill: none; stroke: #000000; stroke-width: 0.8; stroke-linejoin: miter; stroke-linecap: square"/>
   </g>
   <g id="patch_5">
    <path d="M 50.137685 390.04 
L 853.2 390.04 
" style="fill: none; stroke: #000000; stroke-width: 0.8; stroke-linejoin: miter; stroke-linecap: square"/>
   </g>
   <g id="patch_6">
    <path d="M 50.137685 41.856 
L 853.2 41.856 
" style="fill: none; stroke: #000000; stroke-width: 0.8; stroke-linejoin: miter; stroke-linecap: square"/>
   </g>
   <g id="text_15">
    <!-- Average HTTP Request Duration Over Time -->
    <g transform="translate(322.596655 22.355625) scale(0.12 -0.12)">
     <defs>
      <path id="DejaVuSans-48" d="M 628 4666 
L 1259 4666 
L 1259 2753 
L 3553 2753 
L 3553 4666 
L 4184 4666 
L 4184 0 
L 3553 0 
L 3553 2222 
L 1259 2222 
L 1259 0 
L 628 0 
L 628 4666 
z
" transform="scale(0.015625)"/>
      <path id="DejaVuSans-50" d="M 1259 4147 
L 1259 2394 
L 2053 2394 
Q 2494 2394 2734 2622 
Q 2975 2850 2975 3272 
Q 2975 3691 2734 3919 
Q 2494 4147 2053 4147 
L 1259 4147 
z
M 628 4666 
L 2053 4666 
Q 2838 4666 3239 4311 
Q 3641 3956 3641 3272 
Q 3641 2581 3239 2228 
Q 2838 1875 2053 1875 
L 1259 1875 
L 1259 0 
L 628 0 
L 628 4666 
z
" transform="scale(0.015625)"/>
      <path id="DejaVuSans-52" d="M 2841 2188 
Q 3044 2119 3236 1894 
Q 3428 1669 3622 1275 
L 4263 0 
L 3584 0 
L 2988 1197 
Q 2756 1666 2539 1819 
Q 2322 1972 1947 1972 
L 1259 1972 
L 1259 0 
L 628 0 
L 628 4666 
L 2053 4666 
Q 2853 4666 3247 4331 
Q 3641 3997 3641 3322 
Q 3641 2881 3436 2590 
Q 3231 2300 2841 2188 
z
M 1259 4147 
L 1259 2491 
L 2053 2491 
Q 2509 2491 2742 2702 
Q 2975 2913 2975 3322 
Q 2975 3731 2742 3939 
Q 2509 4147 2053 4147 
L 1259 4147 
z
" transform="scale(0.015625)"/>
      <path id="DejaVuSans-71" d="M 947 1747 
Q 947 1113 1208 752 
Q 1469 391 1925 391 
Q 2381 391 2643 752 
Q 2906 1113 2906 1747 
Q 2906 2381 2643 2742 
Q 2381 3103 1925 3103 
Q 1469 3103 1208 2742 
Q 947 2381 947 1747 
z
M 2906 525 
Q 2725 213 2448 61 
Q 2172 -91 1784 -91 
Q 1150 -91 751 415 
Q 353 922 353 1747 
Q 353 2572 751 3078 
Q 1150 3584 1784 3584 
Q 2172 3584 2448 3432 
Q 2725 3281 2906 2969 
L 2906 3500 
L 3481 3500 
L 3481 -1331 
L 2906 -1331 
L 2906 525 
z
" transform="scale(0.015625)"/>
      <path id="DejaVuSans-4f" d="M 2522 4238 
Q 1834 4238 1429 3725 
Q 1025 3213 1025 2328 
Q 1025 1447 1429 934 
Q 1834 422 2522 422 
Q 3209 422 3611 934 
Q 4013 1447 4013 2328 
Q 4013 3213 3611 3725 
Q 3209 4238 2522 4238 
z
M 2522 4750 
Q 3503 4750 4090 4092 
Q 4678 3434 4678 2328 
Q 4678 1225 4090 567 
Q 3503 -91 2522 -91 
Q 1538 -91 948 565 
Q 359 1222 359 2328 
Q 359 3434 948 4092 
Q 1538 4750 2522 4750 
z
" transform="scale(0.015625)"/>
     </defs>
     <use xlink:href="#DejaVuSans-41"/>
     <use xlink:href="#DejaVuSans-76" transform="translate(62.533203 0)"/>
     <use xlink:href="#DejaVuSans-65" transform="translate(121.712891 0)"/>
     <use xlink:href="#DejaVuSans-72" transform="translate(183.236328 0)"/>
     <use xlink:href="#DejaVuSans-61" transform="translate(224.349609 0)"/>
     <use xlink:href="#DejaVuSans-67" transform="translate(285.628906 0)"/>
     <use xlink:href="#DejaVuSans-65" transform="translate(349.105469 0)"/>
     <use xlink:href="#DejaVuSans-20" transform="translate(410.628906 0)"/>
     <use xlink:href="#DejaVuSans-48" transform="translate(442.416016 0)"/>
     <use xlink:href="#DejaVuSans-54" transform="translate(517.611328 0)"/>
     <use xlink:href="#DejaVuSans-54" transform="translate(576.945312 0)"/>
     <use xlink:href="#DejaVuSans-50" transform="translate(638.029297 0)"/>
     <use xlink:href="#DejaVuSans-20" transform="translate(698.332031 0)"/>
     <use xlink:href="#DejaVuSans-52" transform="translate(730.119141 0)"/>
     <use xlink:href="#DejaVuSans-65" transform="translate(795.101562 0)"/>
     <use xlink:href="#DejaVuSans-71" transform="translate(856.625 0)"/>
     <use xlink:href="#DejaVuSans-75" transform="translate(920.101562 0)"/>
     <use xlink:href="#DejaVuSans-65" transform="translate(983.480469 0)"/>
     <use xlink:href="#DejaVuSans-73" transform="translate(1045.003906 0)"/>
     <use xlink:href="#DejaVuSans-74" transform="translate(1097.103516 0)"/>
     <use xlink:href="#DejaVuSans-20" transform="translate(1136.3125 0)"/>
     <use xlink:href="#DejaVuSans-44" transform="translate(1168.099609 0)"/>
     <use xlink:href="#DejaVuSans-75" transform="translate(1245.101562 0)"/>
     <use xlink:href="#DejaVuSans-72" transform="translate(1308.480469 0)"/>
     <use xlink:href="#DejaVuSans-61" transform="translate(1349.59375 0)"/>
     <use xlink:href="#DejaVuSans-74" transform="translate(1410.873047 0)"/>
     <use xlink:href="#DejaVuSans-69" transform="translate(1450.082031 0)"/>
     <use xlink:href="#DejaVuSans-6f" transform="translate(1477.865234 0)"/>
     <use xlink:href="#DejaVuSans-6e" transform="translate(1539.046875 0)"/>
     <use xlink:href="#DejaVuSans-20" transform="translate(1602.425781 0)"/>
     <use xlink:href="#DejaVuSans-4f" transform="translate(1634.212891 0)"/>
     <use xlink:href="#DejaVuSans-76" transform="translate(1712.923828 0)"/>
     <use xlink:href="#DejaVuSans-65" transform="translate(1772.103516 0)"/>
     <use xlink:href="#DejaVuSans-72" transform="translate(1833.626953 0)"/>
     <use xlink:href="#DejaVuSans-20" transform="translate(1874.740234 0)"/>
     <use xlink:href="#DejaVuSans-54" transform="translate(1906.527344 0)"/>
     <use xlink:href="#DejaVuSans-69" transform="translate(1964.486328 0)"/>
     <use xlink:href="#DejaVuSans-6d" transform="translate(1992.269531 0)"/>
     <use xlink:href="#DejaVuSans-65" transform="translate(2089.681641 0)"/>
    </g>
    <!-- Test: stress | Endpoint: GetImageById -->
    <g transform="translate(338.973842 35.856) scale(0.12 -0.12)">
     <defs>
      <path id="DejaVuSans-3a" d="M 750 794 
L 1409 794 
L 1409 0 
L 750 0 
L 750 794 
z
M 750 3309 
L 1409 3309 
L 1409 2516 
L 750 2516 
L 750 3309 
z
" transform="scale(0.015625)"/>
      <path id="DejaVuSans-7c" d="M 1344 4891 
L 1344 -1509 
L 813 -1509 
L 813 4891 
L 1344 4891 
z
" transform="scale(0.015625)"/>
      <path id="DejaVuSans-45" d="M 628 4666 
L 3578 4666 
L 3578 4134 
L 1259 4134 
L 1259 2753 
L 3481 2753 
L 3481 2222 
L 1259 2222 
L 1259 531 
L 3634 531 
L 3634 0 
L 628 0 
L 628 4666 
z
" transform="scale(0.015625)"/>
      <path id="DejaVuSans-47" d="M 3809 666 
L 3809 1919 
L 2778 1919 
L 2778 2438 
L 4434 2438 
L 4434 434 
Q 4069 175 3628 42 
Q 3188 -91 2688 -91 
Q 1594 -91 976 548 
Q 359 1188 359 2328 
Q 359 3472 976 4111 
Q 1594 4750 2688 4750 
Q 3144 4750 3555 4637 
Q 3966 4525 4313 4306 
L 4313 3634 
Q 3963 3931 3569 4081 
Q 3175 4231 2741 4231 
Q 1884 4231 1454 3753 
Q 1025 3275 1025 2328 
Q 1025 1384 1454 906 
Q 1884 428 2741 428 
Q 3075 428 3337 486 
Q 3600 544 3809 666 
z
" transform="scale(0.015625)"/>
      <path id="DejaVuSans-49" d="M 628 4666 
L 1259 4666 
L 1259 0 
L 628 0 
L 628 4666 
z
" transform="scale(0.015625)"/>
      <path id="DejaVuSans-42" d="M 1259 2228 
L 1259 519 
L 2272 519 
Q 2781 519 3026 730 
Q 3272 941 3272 1375 
Q 3272 1813 3026 2020 
Q 2781 2228 2272 2228 
L 1259 2228 
z
M 1259 4147 
L 1259 2741 
L 2194 2741 
Q 2656 2741 2882 2914 
Q 3109 3088 3109 3444 
Q 3109 3797 2882 3972 
Q 2656 4147 2194 4147 
L 1259 4147 
z
M 628 4666 
L 2241 4666 
Q 2963 4666 3353 4366 
Q 3744 4066 3744 3513 
Q 3744 3084 3544 2831 
Q 3344 2578 2956 2516 
Q 3422 2416 3680 2098 
Q 3938 1781 3938 1306 
Q 3938 681 3513 340 
Q 3088 0 2303 0 
L 628 0 
L 628 4666 
z
" transform="scale(0.015625)"/>
      <path id="DejaVuSans-79" d="M 2059 -325 
Q 1816 -950 1584 -1140 
Q 1353 -1331 966 -1331 
L 506 -1331 
L 506 -850 
L 844 -850 
Q 1081 -850 1212 -737 
Q 1344 -625 1503 -206 
L 1606 56 
L 191 3500 
L 800 3500 
L 1894 763 
L 2988 3500 
L 3597 3500 
L 2059 -325 
z
" transform="scale(0.015625)"/>
     </defs>
     <use xlink:href="#DejaVuSans-54"/>
     <use xlink:href="#DejaVuSans-65" transform="translate(44.083984 0)"/>
     <use xlink:href="#DejaVuSans-73" transform="translate(105.607422 0)"/>
     <use xlink:href="#DejaVuSans-74" transform="translate(157.707031 0)"/>
     <use xlink:href="#DejaVuSans-3a" transform="translate(196.916016 0)"/>
     <use xlink:href="#DejaVuSans-20" transform="translate(230.607422 0)"/>
     <use xlink:href="#DejaVuSans-73" transform="translate(262.394531 0)"/>
     <use xlink:href="#DejaVuSans-74" transform="translate(314.494141 0)"/>
     <use xlink:href="#DejaVuSans-72" transform="translate(353.703125 0)"/>
     <use xlink:href="#DejaVuSans-65" transform="translate(392.566406 0)"/>
     <use xlink:href="#DejaVuSans-73" transform="translate(454.089844 0)"/>
     <use xlink:href="#DejaVuSans-73" transform="translate(506.189453 0)"/>
     <use xlink:href="#DejaVuSans-20" transform="translate(558.289062 0)"/>
     <use xlink:href="#DejaVuSans-7c" transform="translate(590.076172 0)"/>
     <use xlink:href="#DejaVuSans-20" transform="translate(623.767578 0)"/>
     <use xlink:href="#DejaVuSans-45" transform="translate(655.554688 0)"/>
     <use xlink:href="#DejaVuSans-6e" transform="translate(718.738281 0)"/>
     <use xlink:href="#DejaVuSans-64" transform="translate(782.117188 0)"/>
     <use xlink:href="#DejaVuSans-70" transform="translate(845.59375 0)"/>
     <use xlink:href="#DejaVuSans-6f" transform="translate(909.070312 0)"/>
     <use xlink:href="#DejaVuSans-69" transform="translate(970.251953 0)"/>
     <use xlink:href="#DejaVuSans-6e" transform="translate(998.035156 0)"/>
     <use xlink:href="#DejaVuSans-74" transform="translate(1061.414062 0)"/>
     <use xlink:href="#DejaVuSans-3a" transform="translate(1100.623047 0)"/>
     <use xlink:href="#DejaVuSans-20" transform="translate(1134.314453 0)"/>
     <use xlink:href="#DejaVuSans-47" transform="translate(1166.101562 0)"/>
     <use xlink:href="#DejaVuSans-65" transform="translate(1243.591797 0)"/>
     <use xlink:href="#DejaVuSans-74" transform="translate(1305.115234 0)"/>
     <use xlink:href="#DejaVuSans-49" transform="translate(1344.324219 0)"/>
     <use xlink:href="#DejaVuSans-6d" transform="translate(1373.816406 0)"/>
     <use xlink:href="#DejaVuSans-61" transform="translate(1471.228516 0)"/>
     <use xlink:href="#DejaVuSans-67" transform="translate(1532.507812 0)"/>
     <use xlink:href="#DejaVuSans-65" transform="translate(1595.984375 0)"/>
     <use xlink:href="#DejaVuSans-42" transform="translate(1657.507812 0)"/>
     <use xlink:href="#DejaVuSans-79" transform="translate(1726.111328 0)"/>
     <use xlink:href="#DejaVuSans-49" transform="translate(1785.291016 0)"/>
     <use xlink:href="#DejaVuSans-64" transform="translate(1814.783203 0)"/>
    </g>
   </g>
   <g id="legend_1">
    <g id="patch_7">
     <path d="M 712.85625 385.04 
L 846.2 385.04 
Q 848.2 385.04 848.2 383.04 
L 848.2 340.005625 
Q 848.2 338.005625 846.2 338.005625 
L 712.85625 338.005625 
Q 710.85625 338.005625 710.85625 340.005625 
L 710.85625 383.04 
Q 710.85625 385.04 712.85625 385.04 
z
" style="fill: #ffffff; opacity: 0.8; stroke: #cccccc; stroke-linejoin: miter"/>
    </g>
    <g id="line2d_46">
     <path d="M 714.85625 346.104062 
L 724.85625 346.104062 
L 734.85625 346.104062 
" style="fill: none; stroke: #1f77b4; stroke-width: 1.5; stroke-linecap: square"/>
    </g>
    <g id="text_16">
     <!-- Single Large Results -->
     <g transform="translate(742.85625 349.604062) scale(0.1 -0.1)">
      <defs>
       <path id="DejaVuSans-6c" d="M 603 4863 
L 1178 4863 
L 1178 0 
L 603 0 
L 603 4863 
z
" transform="scale(0.015625)"/>
       <path id="DejaVuSans-4c" d="M 628 4666 
L 1259 4666 
L 1259 531 
L 3531 531 
L 3531 0 
L 628 0 
L 628 4666 
z
" transform="scale(0.015625)"/>
      </defs>
      <use xlink:href="#DejaVuSans-53"/>
      <use xlink:href="#DejaVuSans-69" transform="translate(63.476562 0)"/>
      <use xlink:href="#DejaVuSans-6e" transform="translate(91.259766 0)"/>
      <use xlink:href="#DejaVuSans-67" transform="translate(154.638672 0)"/>
      <use xlink:href="#DejaVuSans-6c" transform="translate(218.115234 0)"/>
      <use xlink:href="#DejaVuSans-65" transform="translate(245.898438 0)"/>
      <use xlink:href="#DejaVuSans-20" transform="translate(307.421875 0)"/>
      <use xlink:href="#DejaVuSans-4c" transform="translate(339.208984 0)"/>
      <use xlink:href="#DejaVuSans-61" transform="translate(394.921875 0)"/>
      <use xlink:href="#DejaVuSans-72" transform="translate(456.201172 0)"/>
      <use xlink:href="#DejaVuSans-67" transform="translate(495.564453 0)"/>
      <use xlink:href="#DejaVuSans-65" transform="translate(559.041016 0)"/>
      <use xlink:href="#DejaVuSans-20" transform="translate(620.564453 0)"/>
      <use xlink:href="#DejaVuSans-52" transform="translate(652.351562 0)"/>
      <use xlink:href="#DejaVuSans-65" transform="translate(717.333984 0)"/>
      <use xlink:href="#DejaVuSans-73" transform="translate(778.857422 0)"/>
      <use xlink:href="#DejaVuSans-75" transform="translate(830.957031 0)"/>
      <use xlink:href="#DejaVuSans-6c" transform="translate(894.335938 0)"/>
      <use xlink:href="#DejaVuSans-74" transform="translate(922.119141 0)"/>
      <use xlink:href="#DejaVuSans-73" transform="translate(961.328125 0)"/>
     </g>
    </g>
    <g id="line2d_47">
     <path d="M 714.85625 360.782187 
L 724.85625 360.782187 
L 734.85625 360.782187 
" style="fill: none; stroke: #ff7f0e; stroke-width: 1.5; stroke-linecap: square"/>
    </g>
    <g id="text_17">
     <!-- Single Small Results -->
     <g transform="translate(742.85625 364.282187) scale(0.1 -0.1)">
      <use xlink:href="#DejaVuSans-53"/>
      <use xlink:href="#DejaVuSans-69" transform="translate(63.476562 0)"/>
      <use xlink:href="#DejaVuSans-6e" transform="translate(91.259766 0)"/>
      <use xlink:href="#DejaVuSans-67" transform="translate(154.638672 0)"/>
      <use xlink:href="#DejaVuSans-6c" transform="translate(218.115234 0)"/>
      <use xlink:href="#DejaVuSans-65" transform="translate(245.898438 0)"/>
      <use xlink:href="#DejaVuSans-20" transform="translate(307.421875 0)"/>
      <use xlink:href="#DejaVuSans-53" transform="translate(339.208984 0)"/>
      <use xlink:href="#DejaVuSans-6d" transform="translate(402.685547 0)"/>
      <use xlink:href="#DejaVuSans-61" transform="translate(500.097656 0)"/>
      <use xlink:href="#DejaVuSans-6c" transform="translate(561.376953 0)"/>
      <use xlink:href="#DejaVuSans-6c" transform="translate(589.160156 0)"/>
      <use xlink:href="#DejaVuSans-20" transform="translate(616.943359 0)"/>
      <use xlink:href="#DejaVuSans-52" transform="translate(648.730469 0)"/>
      <use xlink:href="#DejaVuSans-65" transform="translate(713.712891 0)"/>
      <use xlink:href="#DejaVuSans-73" transform="translate(775.236328 0)"/>
      <use xlink:href="#DejaVuSans-75" transform="translate(827.335938 0)"/>
      <use xlink:href="#DejaVuSans-6c" transform="translate(890.714844 0)"/>
      <use xlink:href="#DejaVuSans-74" transform="translate(918.498047 0)"/>
      <use xlink:href="#DejaVuSans-73" transform="translate(957.707031 0)"/>
     </g>
    </g>
    <g id="line2d_48">
     <path d="M 714.85625 375.460312 
L 724.85625 375.460312 
L 734.85625 375.460312 
" style="fill: none; stroke: #2ca02c; stroke-width: 1.5; stroke-linecap: square"/>
    </g>
    <g id="text_18">
     <!-- Multi Results -->
     <g transform="translate(742.85625 378.960312) scale(0.1 -0.1)">
      <defs>
       <path id="DejaVuSans-4d" d="M 628 4666 
L 1569 4666 
L 2759 1491 
L 3956 4666 
L 4897 4666 
L 4897 0 
L 4281 0 
L 4281 4097 
L 3078 897 
L 2444 897 
L 1241 4097 
L 1241 0 
L 628 0 
L 628 4666 
z
" transform="scale(0.015625)"/>
      </defs>
      <use xlink:href="#DejaVuSans-4d"/>
      <use xlink:href="#DejaVuSans-75" transform="translate(86.279297 0)"/>
      <use xlink:href="#DejaVuSans-6c" transform="translate(149.658203 0)"/>
      <use xlink:href="#DejaVuSans-74" transform="translate(177.441406 0)"/>
      <use xlink:href="#DejaVuSans-69" transform="translate(216.650391 0)"/>
      <use xlink:href="#DejaVuSans-20" transform="translate(244.433594 0)"/>
      <use xlink:href="#DejaVuSans-52" transform="translate(276.220703 0)"/>
      <use xlink:href="#DejaVuSans-65" transform="translate(341.203125 0)"/>
      <use xlink:href="#DejaVuSans-73" transform="translate(402.726562 0)"/>
      <use xlink:href="#DejaVuSans-75" transform="translate(454.826172 0)"/>
      <use xlink:href="#DejaVuSans-6c" transform="translate(518.205078 0)"/>
      <use xlink:href="#DejaVuSans-74" transform="translate(545.988281 0)"/>
      <use xlink:href="#DejaVuSans-73" transform="translate(585.197266 0)"/>
     </g>
    </g>
   </g>
  </g>
 </g>
 <defs>
  <clipPath id="pff72690811">
   <rect x="50.137685" y="41.856" width="803.062315" height="348.184"/>
  </clipPath>
 </defs>
</svg>
