<?xml version="1.0" encoding="utf-8" standalone="no"?>
<!DOCTYPE svg PUBLIC "-//W3C//DTD SVG 1.1//EN"
  "http://www.w3.org/Graphics/SVG/1.1/DTD/svg11.dtd">
<svg xmlns:xlink="http://www.w3.org/1999/xlink" width="864pt" height="432pt" viewBox="0 0 864 432" xmlns="http://www.w3.org/2000/svg" version="1.1">
 <metadata>
  <rdf:RDF xmlns:dc="http://purl.org/dc/elements/1.1/" xmlns:cc="http://creativecommons.org/ns#" xmlns:rdf="http://www.w3.org/1999/02/22-rdf-syntax-ns#">
   <cc:Work>
    <dc:type rdf:resource="http://purl.org/dc/dcmitype/StillImage"/>
    <dc:date>2025-05-31T16:11:56.642808</dc:date>
    <dc:format>image/svg+xml</dc:format>
    <dc:creator>
     <cc:Agent>
      <dc:title>Matplotlib v3.10.1, https://matplotlib.org/</dc:title>
     </cc:Agent>
    </dc:creator>
   </cc:Work>
  </rdf:RDF>
 </metadata>
 <defs>
  <style type="text/css">*{stroke-linejoin: round; stroke-linecap: butt}</style>
 </defs>
 <g id="figure_1">
  <g id="patch_1">
   <path d="M 0 432 
L 864 432 
L 864 0 
L 0 0 
z
" style="fill: #ffffff"/>
  </g>
  <g id="axes_1">
   <g id="patch_2">
    <path d="M 50.137685 390.04 
L 853.2 390.04 
L 853.2 41.856 
L 50.137685 41.856 
z
" style="fill: #ffffff"/>
   </g>
   <g id="matplotlib.axis_1">
    <g id="xtick_1">
     <g id="line2d_1">
      <defs>
       <path id="m463cf34af0" d="M 0 0 
L 0 3.5 
" style="stroke: #000000; stroke-width: 0.8"/>
      </defs>
      <g>
       <use xlink:href="#m463cf34af0" x="86.640517" y="390.04" style="stroke: #000000; stroke-width: 0.8"/>
      </g>
     </g>
     <g id="text_1">
      <!-- 0 -->
      <g transform="translate(83.459267 404.638438) scale(0.1 -0.1)">
       <defs>
        <path id="DejaVuSans-30" d="M 2034 4250 
Q 1547 4250 1301 3770 
Q 1056 3291 1056 2328 
Q 1056 1369 1301 889 
Q 1547 409 2034 409 
Q 2525 409 2770 889 
Q 3016 1369 3016 2328 
Q 3016 3291 2770 3770 
Q 2525 4250 2034 4250 
z
M 2034 4750 
Q 2819 4750 3233 4129 
Q 3647 3509 3647 2328 
Q 3647 1150 3233 529 
Q 2819 -91 2034 -91 
Q 1250 -91 836 529 
Q 422 1150 422 2328 
Q 422 3509 836 4129 
Q 1250 4750 2034 4750 
z
" transform="scale(0.015625)"/>
       </defs>
       <use xlink:href="#DejaVuSans-30"/>
      </g>
     </g>
    </g>
    <g id="xtick_2">
     <g id="line2d_2">
      <g>
       <use xlink:href="#m463cf34af0" x="187.477071" y="390.04" style="stroke: #000000; stroke-width: 0.8"/>
      </g>
     </g>
     <g id="text_2">
      <!-- 50 -->
      <g transform="translate(181.114571 404.638438) scale(0.1 -0.1)">
       <defs>
        <path id="DejaVuSans-35" d="M 691 4666 
L 3169 4666 
L 3169 4134 
L 1269 4134 
L 1269 2991 
Q 1406 3038 1543 3061 
Q 1681 3084 1819 3084 
Q 2600 3084 3056 2656 
Q 3513 2228 3513 1497 
Q 3513 744 3044 326 
Q 2575 -91 1722 -91 
Q 1428 -91 1123 -41 
Q 819 9 494 109 
L 494 744 
Q 775 591 1075 516 
Q 1375 441 1709 441 
Q 2250 441 2565 725 
Q 2881 1009 2881 1497 
Q 2881 1984 2565 2268 
Q 2250 2553 1709 2553 
Q 1456 2553 1204 2497 
Q 953 2441 691 2322 
L 691 4666 
z
" transform="scale(0.015625)"/>
       </defs>
       <use xlink:href="#DejaVuSans-35"/>
       <use xlink:href="#DejaVuSans-30" transform="translate(63.623047 0)"/>
      </g>
     </g>
    </g>
    <g id="xtick_3">
     <g id="line2d_3">
      <g>
       <use xlink:href="#m463cf34af0" x="288.313625" y="390.04" style="stroke: #000000; stroke-width: 0.8"/>
      </g>
     </g>
     <g id="text_3">
      <!-- 100 -->
      <g transform="translate(278.769875 404.638438) scale(0.1 -0.1)">
       <defs>
        <path id="DejaVuSans-31" d="M 794 531 
L 1825 531 
L 1825 4091 
L 703 3866 
L 703 4441 
L 1819 4666 
L 2450 4666 
L 2450 531 
L 3481 531 
L 3481 0 
L 794 0 
L 794 531 
z
" transform="scale(0.015625)"/>
       </defs>
       <use xlink:href="#DejaVuSans-31"/>
       <use xlink:href="#DejaVuSans-30" transform="translate(63.623047 0)"/>
       <use xlink:href="#DejaVuSans-30" transform="translate(127.246094 0)"/>
      </g>
     </g>
    </g>
    <g id="xtick_4">
     <g id="line2d_4">
      <g>
       <use xlink:href="#m463cf34af0" x="389.150179" y="390.04" style="stroke: #000000; stroke-width: 0.8"/>
      </g>
     </g>
     <g id="text_4">
      <!-- 150 -->
      <g transform="translate(379.606429 404.638438) scale(0.1 -0.1)">
       <use xlink:href="#DejaVuSans-31"/>
       <use xlink:href="#DejaVuSans-35" transform="translate(63.623047 0)"/>
       <use xlink:href="#DejaVuSans-30" transform="translate(127.246094 0)"/>
      </g>
     </g>
    </g>
    <g id="xtick_5">
     <g id="line2d_5">
      <g>
       <use xlink:href="#m463cf34af0" x="489.986733" y="390.04" style="stroke: #000000; stroke-width: 0.8"/>
      </g>
     </g>
     <g id="text_5">
      <!-- 200 -->
      <g transform="translate(480.442983 404.638438) scale(0.1 -0.1)">
       <defs>
        <path id="DejaVuSans-32" d="M 1228 531 
L 3431 531 
L 3431 0 
L 469 0 
L 469 531 
Q 828 903 1448 1529 
Q 2069 2156 2228 2338 
Q 2531 2678 2651 2914 
Q 2772 3150 2772 3378 
Q 2772 3750 2511 3984 
Q 2250 4219 1831 4219 
Q 1534 4219 1204 4116 
Q 875 4013 500 3803 
L 500 4441 
Q 881 4594 1212 4672 
Q 1544 4750 1819 4750 
Q 2544 4750 2975 4387 
Q 3406 4025 3406 3419 
Q 3406 3131 3298 2873 
Q 3191 2616 2906 2266 
Q 2828 2175 2409 1742 
Q 1991 1309 1228 531 
z
" transform="scale(0.015625)"/>
       </defs>
       <use xlink:href="#DejaVuSans-32"/>
       <use xlink:href="#DejaVuSans-30" transform="translate(63.623047 0)"/>
       <use xlink:href="#DejaVuSans-30" transform="translate(127.246094 0)"/>
      </g>
     </g>
    </g>
    <g id="xtick_6">
     <g id="line2d_6">
      <g>
       <use xlink:href="#m463cf34af0" x="590.823287" y="390.04" style="stroke: #000000; stroke-width: 0.8"/>
      </g>
     </g>
     <g id="text_6">
      <!-- 250 -->
      <g transform="translate(581.279537 404.638438) scale(0.1 -0.1)">
       <use xlink:href="#DejaVuSans-32"/>
       <use xlink:href="#DejaVuSans-35" transform="translate(63.623047 0)"/>
       <use xlink:href="#DejaVuSans-30" transform="translate(127.246094 0)"/>
      </g>
     </g>
    </g>
    <g id="xtick_7">
     <g id="line2d_7">
      <g>
       <use xlink:href="#m463cf34af0" x="691.659841" y="390.04" style="stroke: #000000; stroke-width: 0.8"/>
      </g>
     </g>
     <g id="text_7">
      <!-- 300 -->
      <g transform="translate(682.116091 404.638438) scale(0.1 -0.1)">
       <defs>
        <path id="DejaVuSans-33" d="M 2597 2516 
Q 3050 2419 3304 2112 
Q 3559 1806 3559 1356 
Q 3559 666 3084 287 
Q 2609 -91 1734 -91 
Q 1441 -91 1130 -33 
Q 819 25 488 141 
L 488 750 
Q 750 597 1062 519 
Q 1375 441 1716 441 
Q 2309 441 2620 675 
Q 2931 909 2931 1356 
Q 2931 1769 2642 2001 
Q 2353 2234 1838 2234 
L 1294 2234 
L 1294 2753 
L 1863 2753 
Q 2328 2753 2575 2939 
Q 2822 3125 2822 3475 
Q 2822 3834 2567 4026 
Q 2313 4219 1838 4219 
Q 1578 4219 1281 4162 
Q 984 4106 628 3988 
L 628 4550 
Q 988 4650 1302 4700 
Q 1616 4750 1894 4750 
Q 2613 4750 3031 4423 
Q 3450 4097 3450 3541 
Q 3450 3153 3228 2886 
Q 3006 2619 2597 2516 
z
" transform="scale(0.015625)"/>
       </defs>
       <use xlink:href="#DejaVuSans-33"/>
       <use xlink:href="#DejaVuSans-30" transform="translate(63.623047 0)"/>
       <use xlink:href="#DejaVuSans-30" transform="translate(127.246094 0)"/>
      </g>
     </g>
    </g>
    <g id="xtick_8">
     <g id="line2d_8">
      <g>
       <use xlink:href="#m463cf34af0" x="792.496395" y="390.04" style="stroke: #000000; stroke-width: 0.8"/>
      </g>
     </g>
     <g id="text_8">
      <!-- 350 -->
      <g transform="translate(782.952645 404.638438) scale(0.1 -0.1)">
       <use xlink:href="#DejaVuSans-33"/>
       <use xlink:href="#DejaVuSans-35" transform="translate(63.623047 0)"/>
       <use xlink:href="#DejaVuSans-30" transform="translate(127.246094 0)"/>
      </g>
     </g>
    </g>
    <g id="text_9">
     <!-- Timestamp (Seconds) -->
     <g transform="translate(397.264155 418.316562) scale(0.1 -0.1)">
      <defs>
       <path id="DejaVuSans-54" d="M -19 4666 
L 3928 4666 
L 3928 4134 
L 2272 4134 
L 2272 0 
L 1638 0 
L 1638 4134 
L -19 4134 
L -19 4666 
z
" transform="scale(0.015625)"/>
       <path id="DejaVuSans-69" d="M 603 3500 
L 1178 3500 
L 1178 0 
L 603 0 
L 603 3500 
z
M 603 4863 
L 1178 4863 
L 1178 4134 
L 603 4134 
L 603 4863 
z
" transform="scale(0.015625)"/>
       <path id="DejaVuSans-6d" d="M 3328 2828 
Q 3544 3216 3844 3400 
Q 4144 3584 4550 3584 
Q 5097 3584 5394 3201 
Q 5691 2819 5691 2113 
L 5691 0 
L 5113 0 
L 5113 2094 
Q 5113 2597 4934 2840 
Q 4756 3084 4391 3084 
Q 3944 3084 3684 2787 
Q 3425 2491 3425 1978 
L 3425 0 
L 2847 0 
L 2847 2094 
Q 2847 2600 2669 2842 
Q 2491 3084 2119 3084 
Q 1678 3084 1418 2786 
Q 1159 2488 1159 1978 
L 1159 0 
L 581 0 
L 581 3500 
L 1159 3500 
L 1159 2956 
Q 1356 3278 1631 3431 
Q 1906 3584 2284 3584 
Q 2666 3584 2933 3390 
Q 3200 3197 3328 2828 
z
" transform="scale(0.015625)"/>
       <path id="DejaVuSans-65" d="M 3597 1894 
L 3597 1613 
L 953 1613 
Q 991 1019 1311 708 
Q 1631 397 2203 397 
Q 2534 397 2845 478 
Q 3156 559 3463 722 
L 3463 178 
Q 3153 47 2828 -22 
Q 2503 -91 2169 -91 
Q 1331 -91 842 396 
Q 353 884 353 1716 
Q 353 2575 817 3079 
Q 1281 3584 2069 3584 
Q 2775 3584 3186 3129 
Q 3597 2675 3597 1894 
z
M 3022 2063 
Q 3016 2534 2758 2815 
Q 2500 3097 2075 3097 
Q 1594 3097 1305 2825 
Q 1016 2553 972 2059 
L 3022 2063 
z
" transform="scale(0.015625)"/>
       <path id="DejaVuSans-73" d="M 2834 3397 
L 2834 2853 
Q 2591 2978 2328 3040 
Q 2066 3103 1784 3103 
Q 1356 3103 1142 2972 
Q 928 2841 928 2578 
Q 928 2378 1081 2264 
Q 1234 2150 1697 2047 
L 1894 2003 
Q 2506 1872 2764 1633 
Q 3022 1394 3022 966 
Q 3022 478 2636 193 
Q 2250 -91 1575 -91 
Q 1294 -91 989 -36 
Q 684 19 347 128 
L 347 722 
Q 666 556 975 473 
Q 1284 391 1588 391 
Q 1994 391 2212 530 
Q 2431 669 2431 922 
Q 2431 1156 2273 1281 
Q 2116 1406 1581 1522 
L 1381 1569 
Q 847 1681 609 1914 
Q 372 2147 372 2553 
Q 372 3047 722 3315 
Q 1072 3584 1716 3584 
Q 2034 3584 2315 3537 
Q 2597 3491 2834 3397 
z
" transform="scale(0.015625)"/>
       <path id="DejaVuSans-74" d="M 1172 4494 
L 1172 3500 
L 2356 3500 
L 2356 3053 
L 1172 3053 
L 1172 1153 
Q 1172 725 1289 603 
Q 1406 481 1766 481 
L 2356 481 
L 2356 0 
L 1766 0 
Q 1100 0 847 248 
Q 594 497 594 1153 
L 594 3053 
L 172 3053 
L 172 3500 
L 594 3500 
L 594 4494 
L 1172 4494 
z
" transform="scale(0.015625)"/>
       <path id="DejaVuSans-61" d="M 2194 1759 
Q 1497 1759 1228 1600 
Q 959 1441 959 1056 
Q 959 750 1161 570 
Q 1363 391 1709 391 
Q 2188 391 2477 730 
Q 2766 1069 2766 1631 
L 2766 1759 
L 2194 1759 
z
M 3341 1997 
L 3341 0 
L 2766 0 
L 2766 531 
Q 2569 213 2275 61 
Q 1981 -91 1556 -91 
Q 1019 -91 701 211 
Q 384 513 384 1019 
Q 384 1609 779 1909 
Q 1175 2209 1959 2209 
L 2766 2209 
L 2766 2266 
Q 2766 2663 2505 2880 
Q 2244 3097 1772 3097 
Q 1472 3097 1187 3025 
Q 903 2953 641 2809 
L 641 3341 
Q 956 3463 1253 3523 
Q 1550 3584 1831 3584 
Q 2591 3584 2966 3190 
Q 3341 2797 3341 1997 
z
" transform="scale(0.015625)"/>
       <path id="DejaVuSans-70" d="M 1159 525 
L 1159 -1331 
L 581 -1331 
L 581 3500 
L 1159 3500 
L 1159 2969 
Q 1341 3281 1617 3432 
Q 1894 3584 2278 3584 
Q 2916 3584 3314 3078 
Q 3713 2572 3713 1747 
Q 3713 922 3314 415 
Q 2916 -91 2278 -91 
Q 1894 -91 1617 61 
Q 1341 213 1159 525 
z
M 3116 1747 
Q 3116 2381 2855 2742 
Q 2594 3103 2138 3103 
Q 1681 3103 1420 2742 
Q 1159 2381 1159 1747 
Q 1159 1113 1420 752 
Q 1681 391 2138 391 
Q 2594 391 2855 752 
Q 3116 1113 3116 1747 
z
" transform="scale(0.015625)"/>
       <path id="DejaVuSans-20" transform="scale(0.015625)"/>
       <path id="DejaVuSans-28" d="M 1984 4856 
Q 1566 4138 1362 3434 
Q 1159 2731 1159 2009 
Q 1159 1288 1364 580 
Q 1569 -128 1984 -844 
L 1484 -844 
Q 1016 -109 783 600 
Q 550 1309 550 2009 
Q 550 2706 781 3412 
Q 1013 4119 1484 4856 
L 1984 4856 
z
" transform="scale(0.015625)"/>
       <path id="DejaVuSans-53" d="M 3425 4513 
L 3425 3897 
Q 3066 4069 2747 4153 
Q 2428 4238 2131 4238 
Q 1616 4238 1336 4038 
Q 1056 3838 1056 3469 
Q 1056 3159 1242 3001 
Q 1428 2844 1947 2747 
L 2328 2669 
Q 3034 2534 3370 2195 
Q 3706 1856 3706 1288 
Q 3706 609 3251 259 
Q 2797 -91 1919 -91 
Q 1588 -91 1214 -16 
Q 841 59 441 206 
L 441 856 
Q 825 641 1194 531 
Q 1563 422 1919 422 
Q 2459 422 2753 634 
Q 3047 847 3047 1241 
Q 3047 1584 2836 1778 
Q 2625 1972 2144 2069 
L 1759 2144 
Q 1053 2284 737 2584 
Q 422 2884 422 3419 
Q 422 4038 858 4394 
Q 1294 4750 2059 4750 
Q 2388 4750 2728 4690 
Q 3069 4631 3425 4513 
z
" transform="scale(0.015625)"/>
       <path id="DejaVuSans-63" d="M 3122 3366 
L 3122 2828 
Q 2878 2963 2633 3030 
Q 2388 3097 2138 3097 
Q 1578 3097 1268 2742 
Q 959 2388 959 1747 
Q 959 1106 1268 751 
Q 1578 397 2138 397 
Q 2388 397 2633 464 
Q 2878 531 3122 666 
L 3122 134 
Q 2881 22 2623 -34 
Q 2366 -91 2075 -91 
Q 1284 -91 818 406 
Q 353 903 353 1747 
Q 353 2603 823 3093 
Q 1294 3584 2113 3584 
Q 2378 3584 2631 3529 
Q 2884 3475 3122 3366 
z
" transform="scale(0.015625)"/>
       <path id="DejaVuSans-6f" d="M 1959 3097 
Q 1497 3097 1228 2736 
Q 959 2375 959 1747 
Q 959 1119 1226 758 
Q 1494 397 1959 397 
Q 2419 397 2687 759 
Q 2956 1122 2956 1747 
Q 2956 2369 2687 2733 
Q 2419 3097 1959 3097 
z
M 1959 3584 
Q 2709 3584 3137 3096 
Q 3566 2609 3566 1747 
Q 3566 888 3137 398 
Q 2709 -91 1959 -91 
Q 1206 -91 779 398 
Q 353 888 353 1747 
Q 353 2609 779 3096 
Q 1206 3584 1959 3584 
z
" transform="scale(0.015625)"/>
       <path id="DejaVuSans-6e" d="M 3513 2113 
L 3513 0 
L 2938 0 
L 2938 2094 
Q 2938 2591 2744 2837 
Q 2550 3084 2163 3084 
Q 1697 3084 1428 2787 
Q 1159 2491 1159 1978 
L 1159 0 
L 581 0 
L 581 3500 
L 1159 3500 
L 1159 2956 
Q 1366 3272 1645 3428 
Q 1925 3584 2291 3584 
Q 2894 3584 3203 3211 
Q 3513 2838 3513 2113 
z
" transform="scale(0.015625)"/>
       <path id="DejaVuSans-64" d="M 2906 2969 
L 2906 4863 
L 3481 4863 
L 3481 0 
L 2906 0 
L 2906 525 
Q 2725 213 2448 61 
Q 2172 -91 1784 -91 
Q 1150 -91 751 415 
Q 353 922 353 1747 
Q 353 2572 751 3078 
Q 1150 3584 1784 3584 
Q 2172 3584 2448 3432 
Q 2725 3281 2906 2969 
z
M 947 1747 
Q 947 1113 1208 752 
Q 1469 391 1925 391 
Q 2381 391 2643 752 
Q 2906 1113 2906 1747 
Q 2906 2381 2643 2742 
Q 2381 3103 1925 3103 
Q 1469 3103 1208 2742 
Q 947 2381 947 1747 
z
" transform="scale(0.015625)"/>
       <path id="DejaVuSans-29" d="M 513 4856 
L 1013 4856 
Q 1481 4119 1714 3412 
Q 1947 2706 1947 2009 
Q 1947 1309 1714 600 
Q 1481 -109 1013 -844 
L 513 -844 
Q 928 -128 1133 580 
Q 1338 1288 1338 2009 
Q 1338 2731 1133 3434 
Q 928 4138 513 4856 
z
" transform="scale(0.015625)"/>
      </defs>
      <use xlink:href="#DejaVuSans-54"/>
      <use xlink:href="#DejaVuSans-69" transform="translate(57.958984 0)"/>
      <use xlink:href="#DejaVuSans-6d" transform="translate(85.742188 0)"/>
      <use xlink:href="#DejaVuSans-65" transform="translate(183.154297 0)"/>
      <use xlink:href="#DejaVuSans-73" transform="translate(244.677734 0)"/>
      <use xlink:href="#DejaVuSans-74" transform="translate(296.777344 0)"/>
      <use xlink:href="#DejaVuSans-61" transform="translate(335.986328 0)"/>
      <use xlink:href="#DejaVuSans-6d" transform="translate(397.265625 0)"/>
      <use xlink:href="#DejaVuSans-70" transform="translate(494.677734 0)"/>
      <use xlink:href="#DejaVuSans-20" transform="translate(558.154297 0)"/>
      <use xlink:href="#DejaVuSans-28" transform="translate(589.941406 0)"/>
      <use xlink:href="#DejaVuSans-53" transform="translate(628.955078 0)"/>
      <use xlink:href="#DejaVuSans-65" transform="translate(692.431641 0)"/>
      <use xlink:href="#DejaVuSans-63" transform="translate(753.955078 0)"/>
      <use xlink:href="#DejaVuSans-6f" transform="translate(808.935547 0)"/>
      <use xlink:href="#DejaVuSans-6e" transform="translate(870.117188 0)"/>
      <use xlink:href="#DejaVuSans-64" transform="translate(933.496094 0)"/>
      <use xlink:href="#DejaVuSans-73" transform="translate(996.972656 0)"/>
      <use xlink:href="#DejaVuSans-29" transform="translate(1049.072266 0)"/>
     </g>
    </g>
   </g>
   <g id="matplotlib.axis_2">
    <g id="ytick_1">
     <g id="line2d_9">
      <defs>
       <path id="m742b6b49a2" d="M 0 0 
L -3.5 0 
" style="stroke: #000000; stroke-width: 0.8"/>
      </defs>
      <g>
       <use xlink:href="#m742b6b49a2" x="50.137685" y="336.615699" style="stroke: #000000; stroke-width: 0.8"/>
      </g>
     </g>
     <g id="text_10">
      <!-- $\mathdefault{10^{1}}$ -->
      <g transform="translate(25.537685 340.414917) scale(0.1 -0.1)">
       <use xlink:href="#DejaVuSans-31" transform="translate(0 0.684375)"/>
       <use xlink:href="#DejaVuSans-30" transform="translate(63.623047 0.684375)"/>
       <use xlink:href="#DejaVuSans-31" transform="translate(128.203125 38.965625) scale(0.7)"/>
      </g>
     </g>
    </g>
    <g id="ytick_2">
     <g id="line2d_10">
      <g>
       <use xlink:href="#m742b6b49a2" x="50.137685" y="260.053524" style="stroke: #000000; stroke-width: 0.8"/>
      </g>
     </g>
     <g id="text_11">
      <!-- $\mathdefault{10^{2}}$ -->
      <g transform="translate(25.537685 263.852743) scale(0.1 -0.1)">
       <use xlink:href="#DejaVuSans-31" transform="translate(0 0.765625)"/>
       <use xlink:href="#DejaVuSans-30" transform="translate(63.623047 0.765625)"/>
       <use xlink:href="#DejaVuSans-32" transform="translate(128.203125 39.046875) scale(0.7)"/>
      </g>
     </g>
    </g>
    <g id="ytick_3">
     <g id="line2d_11">
      <g>
       <use xlink:href="#m742b6b49a2" x="50.137685" y="183.491349" style="stroke: #000000; stroke-width: 0.8"/>
      </g>
     </g>
     <g id="text_12">
      <!-- $\mathdefault{10^{3}}$ -->
      <g transform="translate(25.537685 187.290568) scale(0.1 -0.1)">
       <use xlink:href="#DejaVuSans-31" transform="translate(0 0.765625)"/>
       <use xlink:href="#DejaVuSans-30" transform="translate(63.623047 0.765625)"/>
       <use xlink:href="#DejaVuSans-33" transform="translate(128.203125 39.046875) scale(0.7)"/>
      </g>
     </g>
    </g>
    <g id="ytick_4">
     <g id="line2d_12">
      <g>
       <use xlink:href="#m742b6b49a2" x="50.137685" y="106.929175" style="stroke: #000000; stroke-width: 0.8"/>
      </g>
     </g>
     <g id="text_13">
      <!-- $\mathdefault{10^{4}}$ -->
      <g transform="translate(25.537685 110.728393) scale(0.1 -0.1)">
       <defs>
        <path id="DejaVuSans-34" d="M 2419 4116 
L 825 1625 
L 2419 1625 
L 2419 4116 
z
M 2253 4666 
L 3047 4666 
L 3047 1625 
L 3713 1625 
L 3713 1100 
L 3047 1100 
L 3047 0 
L 2419 0 
L 2419 1100 
L 313 1100 
L 313 1709 
L 2253 4666 
z
" transform="scale(0.015625)"/>
       </defs>
       <use xlink:href="#DejaVuSans-31" transform="translate(0 0.684375)"/>
       <use xlink:href="#DejaVuSans-30" transform="translate(63.623047 0.684375)"/>
       <use xlink:href="#DejaVuSans-34" transform="translate(128.203125 38.965625) scale(0.7)"/>
      </g>
     </g>
    </g>
    <g id="ytick_5">
     <g id="line2d_13">
      <defs>
       <path id="m5a254b9953" d="M 0 0 
L -2 0 
" style="stroke: #000000; stroke-width: 0.6"/>
      </defs>
      <g>
       <use xlink:href="#m5a254b9953" x="50.137685" y="376.648433" style="stroke: #000000; stroke-width: 0.6"/>
      </g>
     </g>
    </g>
    <g id="ytick_6">
     <g id="line2d_14">
      <g>
       <use xlink:href="#m5a254b9953" x="50.137685" y="367.082851" style="stroke: #000000; stroke-width: 0.6"/>
      </g>
     </g>
    </g>
    <g id="ytick_7">
     <g id="line2d_15">
      <g>
       <use xlink:href="#m5a254b9953" x="50.137685" y="359.66321" style="stroke: #000000; stroke-width: 0.6"/>
      </g>
     </g>
    </g>
    <g id="ytick_8">
     <g id="line2d_16">
      <g>
       <use xlink:href="#m5a254b9953" x="50.137685" y="353.600921" style="stroke: #000000; stroke-width: 0.6"/>
      </g>
     </g>
    </g>
    <g id="ytick_9">
     <g id="line2d_17">
      <g>
       <use xlink:href="#m5a254b9953" x="50.137685" y="348.47533" style="stroke: #000000; stroke-width: 0.6"/>
      </g>
     </g>
    </g>
    <g id="ytick_10">
     <g id="line2d_18">
      <g>
       <use xlink:href="#m5a254b9953" x="50.137685" y="344.03534" style="stroke: #000000; stroke-width: 0.6"/>
      </g>
     </g>
    </g>
    <g id="ytick_11">
     <g id="line2d_19">
      <g>
       <use xlink:href="#m5a254b9953" x="50.137685" y="340.118992" style="stroke: #000000; stroke-width: 0.6"/>
      </g>
     </g>
    </g>
    <g id="ytick_12">
     <g id="line2d_20">
      <g>
       <use xlink:href="#m5a254b9953" x="50.137685" y="313.568188" style="stroke: #000000; stroke-width: 0.6"/>
      </g>
     </g>
    </g>
    <g id="ytick_13">
     <g id="line2d_21">
      <g>
       <use xlink:href="#m5a254b9953" x="50.137685" y="300.086258" style="stroke: #000000; stroke-width: 0.6"/>
      </g>
     </g>
    </g>
    <g id="ytick_14">
     <g id="line2d_22">
      <g>
       <use xlink:href="#m5a254b9953" x="50.137685" y="290.520676" style="stroke: #000000; stroke-width: 0.6"/>
      </g>
     </g>
    </g>
    <g id="ytick_15">
     <g id="line2d_23">
      <g>
       <use xlink:href="#m5a254b9953" x="50.137685" y="283.101035" style="stroke: #000000; stroke-width: 0.6"/>
      </g>
     </g>
    </g>
    <g id="ytick_16">
     <g id="line2d_24">
      <g>
       <use xlink:href="#m5a254b9953" x="50.137685" y="277.038747" style="stroke: #000000; stroke-width: 0.6"/>
      </g>
     </g>
    </g>
    <g id="ytick_17">
     <g id="line2d_25">
      <g>
       <use xlink:href="#m5a254b9953" x="50.137685" y="271.913155" style="stroke: #000000; stroke-width: 0.6"/>
      </g>
     </g>
    </g>
    <g id="ytick_18">
     <g id="line2d_26">
      <g>
       <use xlink:href="#m5a254b9953" x="50.137685" y="267.473165" style="stroke: #000000; stroke-width: 0.6"/>
      </g>
     </g>
    </g>
    <g id="ytick_19">
     <g id="line2d_27">
      <g>
       <use xlink:href="#m5a254b9953" x="50.137685" y="263.556817" style="stroke: #000000; stroke-width: 0.6"/>
      </g>
     </g>
    </g>
    <g id="ytick_20">
     <g id="line2d_28">
      <g>
       <use xlink:href="#m5a254b9953" x="50.137685" y="237.006013" style="stroke: #000000; stroke-width: 0.6"/>
      </g>
     </g>
    </g>
    <g id="ytick_21">
     <g id="line2d_29">
      <g>
       <use xlink:href="#m5a254b9953" x="50.137685" y="223.524083" style="stroke: #000000; stroke-width: 0.6"/>
      </g>
     </g>
    </g>
    <g id="ytick_22">
     <g id="line2d_30">
      <g>
       <use xlink:href="#m5a254b9953" x="50.137685" y="213.958502" style="stroke: #000000; stroke-width: 0.6"/>
      </g>
     </g>
    </g>
    <g id="ytick_23">
     <g id="line2d_31">
      <g>
       <use xlink:href="#m5a254b9953" x="50.137685" y="206.53886" style="stroke: #000000; stroke-width: 0.6"/>
      </g>
     </g>
    </g>
    <g id="ytick_24">
     <g id="line2d_32">
      <g>
       <use xlink:href="#m5a254b9953" x="50.137685" y="200.476572" style="stroke: #000000; stroke-width: 0.6"/>
      </g>
     </g>
    </g>
    <g id="ytick_25">
     <g id="line2d_33">
      <g>
       <use xlink:href="#m5a254b9953" x="50.137685" y="195.35098" style="stroke: #000000; stroke-width: 0.6"/>
      </g>
     </g>
    </g>
    <g id="ytick_26">
     <g id="line2d_34">
      <g>
       <use xlink:href="#m5a254b9953" x="50.137685" y="190.910991" style="stroke: #000000; stroke-width: 0.6"/>
      </g>
     </g>
    </g>
    <g id="ytick_27">
     <g id="line2d_35">
      <g>
       <use xlink:href="#m5a254b9953" x="50.137685" y="186.994642" style="stroke: #000000; stroke-width: 0.6"/>
      </g>
     </g>
    </g>
    <g id="ytick_28">
     <g id="line2d_36">
      <g>
       <use xlink:href="#m5a254b9953" x="50.137685" y="160.443838" style="stroke: #000000; stroke-width: 0.6"/>
      </g>
     </g>
    </g>
    <g id="ytick_29">
     <g id="line2d_37">
      <g>
       <use xlink:href="#m5a254b9953" x="50.137685" y="146.961908" style="stroke: #000000; stroke-width: 0.6"/>
      </g>
     </g>
    </g>
    <g id="ytick_30">
     <g id="line2d_38">
      <g>
       <use xlink:href="#m5a254b9953" x="50.137685" y="137.396327" style="stroke: #000000; stroke-width: 0.6"/>
      </g>
     </g>
    </g>
    <g id="ytick_31">
     <g id="line2d_39">
      <g>
       <use xlink:href="#m5a254b9953" x="50.137685" y="129.976686" style="stroke: #000000; stroke-width: 0.6"/>
      </g>
     </g>
    </g>
    <g id="ytick_32">
     <g id="line2d_40">
      <g>
       <use xlink:href="#m5a254b9953" x="50.137685" y="123.914397" style="stroke: #000000; stroke-width: 0.6"/>
      </g>
     </g>
    </g>
    <g id="ytick_33">
     <g id="line2d_41">
      <g>
       <use xlink:href="#m5a254b9953" x="50.137685" y="118.788806" style="stroke: #000000; stroke-width: 0.6"/>
      </g>
     </g>
    </g>
    <g id="ytick_34">
     <g id="line2d_42">
      <g>
       <use xlink:href="#m5a254b9953" x="50.137685" y="114.348816" style="stroke: #000000; stroke-width: 0.6"/>
      </g>
     </g>
    </g>
    <g id="ytick_35">
     <g id="line2d_43">
      <g>
       <use xlink:href="#m5a254b9953" x="50.137685" y="110.432468" style="stroke: #000000; stroke-width: 0.6"/>
      </g>
     </g>
    </g>
    <g id="ytick_36">
     <g id="line2d_44">
      <g>
       <use xlink:href="#m5a254b9953" x="50.137685" y="83.881663" style="stroke: #000000; stroke-width: 0.6"/>
      </g>
     </g>
    </g>
    <g id="ytick_37">
     <g id="line2d_45">
      <g>
       <use xlink:href="#m5a254b9953" x="50.137685" y="70.399734" style="stroke: #000000; stroke-width: 0.6"/>
      </g>
     </g>
    </g>
    <g id="ytick_38">
     <g id="line2d_46">
      <g>
       <use xlink:href="#m5a254b9953" x="50.137685" y="60.834152" style="stroke: #000000; stroke-width: 0.6"/>
      </g>
     </g>
    </g>
    <g id="ytick_39">
     <g id="line2d_47">
      <g>
       <use xlink:href="#m5a254b9953" x="50.137685" y="53.414511" style="stroke: #000000; stroke-width: 0.6"/>
      </g>
     </g>
    </g>
    <g id="ytick_40">
     <g id="line2d_48">
      <g>
       <use xlink:href="#m5a254b9953" x="50.137685" y="47.352223" style="stroke: #000000; stroke-width: 0.6"/>
      </g>
     </g>
    </g>
    <g id="ytick_41">
     <g id="line2d_49">
      <g>
       <use xlink:href="#m5a254b9953" x="50.137685" y="42.226631" style="stroke: #000000; stroke-width: 0.6"/>
      </g>
     </g>
    </g>
    <g id="text_14">
     <!-- Avg Duration (ms) -->
     <g transform="translate(19.457997 261.478469) rotate(-90) scale(0.1 -0.1)">
      <defs>
       <path id="DejaVuSans-41" d="M 2188 4044 
L 1331 1722 
L 3047 1722 
L 2188 4044 
z
M 1831 4666 
L 2547 4666 
L 4325 0 
L 3669 0 
L 3244 1197 
L 1141 1197 
L 716 0 
L 50 0 
L 1831 4666 
z
" transform="scale(0.015625)"/>
       <path id="DejaVuSans-76" d="M 191 3500 
L 800 3500 
L 1894 563 
L 2988 3500 
L 3597 3500 
L 2284 0 
L 1503 0 
L 191 3500 
z
" transform="scale(0.015625)"/>
       <path id="DejaVuSans-67" d="M 2906 1791 
Q 2906 2416 2648 2759 
Q 2391 3103 1925 3103 
Q 1463 3103 1205 2759 
Q 947 2416 947 1791 
Q 947 1169 1205 825 
Q 1463 481 1925 481 
Q 2391 481 2648 825 
Q 2906 1169 2906 1791 
z
M 3481 434 
Q 3481 -459 3084 -895 
Q 2688 -1331 1869 -1331 
Q 1566 -1331 1297 -1286 
Q 1028 -1241 775 -1147 
L 775 -588 
Q 1028 -725 1275 -790 
Q 1522 -856 1778 -856 
Q 2344 -856 2625 -561 
Q 2906 -266 2906 331 
L 2906 616 
Q 2728 306 2450 153 
Q 2172 0 1784 0 
Q 1141 0 747 490 
Q 353 981 353 1791 
Q 353 2603 747 3093 
Q 1141 3584 1784 3584 
Q 2172 3584 2450 3431 
Q 2728 3278 2906 2969 
L 2906 3500 
L 3481 3500 
L 3481 434 
z
" transform="scale(0.015625)"/>
       <path id="DejaVuSans-44" d="M 1259 4147 
L 1259 519 
L 2022 519 
Q 2988 519 3436 956 
Q 3884 1394 3884 2338 
Q 3884 3275 3436 3711 
Q 2988 4147 2022 4147 
L 1259 4147 
z
M 628 4666 
L 1925 4666 
Q 3281 4666 3915 4102 
Q 4550 3538 4550 2338 
Q 4550 1131 3912 565 
Q 3275 0 1925 0 
L 628 0 
L 628 4666 
z
" transform="scale(0.015625)"/>
       <path id="DejaVuSans-75" d="M 544 1381 
L 544 3500 
L 1119 3500 
L 1119 1403 
Q 1119 906 1312 657 
Q 1506 409 1894 409 
Q 2359 409 2629 706 
Q 2900 1003 2900 1516 
L 2900 3500 
L 3475 3500 
L 3475 0 
L 2900 0 
L 2900 538 
Q 2691 219 2414 64 
Q 2138 -91 1772 -91 
Q 1169 -91 856 284 
Q 544 659 544 1381 
z
M 1991 3584 
L 1991 3584 
z
" transform="scale(0.015625)"/>
       <path id="DejaVuSans-72" d="M 2631 2963 
Q 2534 3019 2420 3045 
Q 2306 3072 2169 3072 
Q 1681 3072 1420 2755 
Q 1159 2438 1159 1844 
L 1159 0 
L 581 0 
L 581 3500 
L 1159 3500 
L 1159 2956 
Q 1341 3275 1631 3429 
Q 1922 3584 2338 3584 
Q 2397 3584 2469 3576 
Q 2541 3569 2628 3553 
L 2631 2963 
z
" transform="scale(0.015625)"/>
      </defs>
      <use xlink:href="#DejaVuSans-41"/>
      <use xlink:href="#DejaVuSans-76" transform="translate(62.533203 0)"/>
      <use xlink:href="#DejaVuSans-67" transform="translate(121.712891 0)"/>
      <use xlink:href="#DejaVuSans-20" transform="translate(185.189453 0)"/>
      <use xlink:href="#DejaVuSans-44" transform="translate(216.976562 0)"/>
      <use xlink:href="#DejaVuSans-75" transform="translate(293.978516 0)"/>
      <use xlink:href="#DejaVuSans-72" transform="translate(357.357422 0)"/>
      <use xlink:href="#DejaVuSans-61" transform="translate(398.470703 0)"/>
      <use xlink:href="#DejaVuSans-74" transform="translate(459.75 0)"/>
      <use xlink:href="#DejaVuSans-69" transform="translate(498.958984 0)"/>
      <use xlink:href="#DejaVuSans-6f" transform="translate(526.742188 0)"/>
      <use xlink:href="#DejaVuSans-6e" transform="translate(587.923828 0)"/>
      <use xlink:href="#DejaVuSans-20" transform="translate(651.302734 0)"/>
      <use xlink:href="#DejaVuSans-28" transform="translate(683.089844 0)"/>
      <use xlink:href="#DejaVuSans-6d" transform="translate(722.103516 0)"/>
      <use xlink:href="#DejaVuSans-73" transform="translate(819.515625 0)"/>
      <use xlink:href="#DejaVuSans-29" transform="translate(871.615234 0)"/>
     </g>
    </g>
   </g>
   <g id="line2d_50">
    <path d="M 86.640517 338.329919 
L 88.657248 293.682712 
L 90.673979 331.199632 
L 92.690711 316.776489 
L 94.707442 343.632701 
L 96.724173 315.146073 
L 98.740904 349.572054 
L 100.757635 319.703687 
L 102.774366 341.483779 
L 104.791097 310.937127 
L 106.807828 298.025809 
L 108.824559 343.86004 
L 110.84129 332.227236 
L 112.858021 292.114252 
L 114.874752 328.71902 
L 116.891483 325.383945 
L 118.908215 330.782352 
L 120.924946 338.546267 
L 122.941677 323.339688 
L 124.958408 321.626464 
L 126.975139 330.798249 
L 128.99187 298.701314 
L 131.008601 291.246227 
L 133.025332 286.909632 
L 135.042063 325.610227 
L 137.058794 301.500324 
L 139.075525 323.927293 
L 141.092256 270.469508 
L 143.108987 285.869997 
L 145.125719 291.27635 
L 147.14245 302.812022 
L 149.159181 291.397557 
L 151.175912 260.245641 
L 153.192643 256.320693 
L 155.209374 290.810229 
L 157.226105 276.565786 
L 159.242836 257.377547 
L 161.259567 269.815469 
L 163.276298 244.544036 
L 165.293029 229.763473 
L 167.30976 231.937648 
L 169.326491 250.838607 
L 171.343223 240.239126 
L 173.359954 236.491144 
L 175.376685 251.312101 
L 177.393416 247.678243 
L 179.410147 254.526277 
L 181.426878 233.373551 
L 183.443609 231.633832 
L 185.46034 232.657582 
L 187.477071 289.651513 
L 189.493802 259.218701 
L 191.510533 247.638477 
L 193.527264 286.607247 
L 195.543995 246.410368 
L 197.560727 253.344003 
L 199.577458 231.001597 
L 201.594189 236.791594 
L 203.61092 220.515026 
L 205.627651 222.295784 
L 207.644382 206.587613 
L 209.661113 209.063534 
L 211.677844 211.965362 
L 213.694575 209.91727 
L 215.711306 198.925468 
L 217.728037 189.589101 
L 219.744768 194.020553 
L 221.761499 201.685582 
L 223.778231 190.813375 
L 225.794962 196.083662 
L 227.811693 191.765711 
L 229.828424 190.596867 
L 231.845155 187.013789 
L 233.861886 206.847762 
L 237.895348 186.686747 
L 239.912079 193.035942 
L 241.92881 187.220599 
L 243.945541 195.982439 
L 245.962272 189.749596 
L 247.979004 193.884274 
L 249.995735 206.187206 
L 252.012466 201.448835 
L 254.029197 201.199626 
L 256.045928 208.167504 
L 258.062659 212.189287 
L 260.07939 206.852172 
L 262.096121 198.984114 
L 264.112852 203.25427 
L 266.129583 205.918925 
L 268.146314 209.941288 
L 270.163045 219.257448 
L 272.179776 205.308344 
L 274.196508 211.269453 
L 276.213239 211.731615 
L 278.22997 219.817463 
L 280.246701 202.302561 
L 282.263432 209.639108 
L 284.280163 198.641727 
L 286.296894 192.148523 
L 288.313625 189.901474 
L 290.330356 190.685463 
L 292.347087 191.642282 
L 294.363818 193.512179 
L 296.380549 193.199776 
L 298.39728 191.675617 
L 300.414012 209.31886 
L 302.430743 219.528632 
L 306.464205 202.495524 
L 308.480936 199.958385 
L 310.497667 209.104866 
L 312.514398 208.496037 
L 314.531129 206.853163 
L 316.54786 195.854509 
L 318.564591 187.75972 
L 320.581322 192.223857 
L 322.598053 191.962187 
L 324.614784 198.874802 
L 326.631516 194.940004 
L 328.648247 190.292672 
L 330.664978 191.116257 
L 332.681709 194.9954 
L 334.69844 197.120439 
L 336.715171 202.067283 
L 338.731902 197.469227 
L 340.748633 209.691123 
L 342.765364 207.735419 
L 344.782095 194.017608 
L 346.798826 186.152789 
L 348.815557 193.505835 
L 350.832288 195.787207 
L 352.84902 185.359552 
L 354.865751 186.913394 
L 356.882482 187.484318 
L 358.899213 185.369864 
L 360.915944 182.60578 
L 362.932675 200.733427 
L 364.949406 209.595809 
L 366.966137 204.49907 
L 368.982868 190.744744 
L 370.999599 190.587795 
L 373.01633 178.884634 
L 375.033061 181.371251 
L 377.049792 188.181343 
L 379.066524 196.548398 
L 381.083255 195.452311 
L 383.099986 186.313581 
L 385.116717 183.87477 
L 387.133448 191.022024 
L 389.150179 201.41117 
L 391.16691 203.538892 
L 393.183641 202.594542 
L 395.200372 194.572206 
L 397.217103 191.786042 
L 399.233834 190.076033 
L 403.267297 177.965586 
L 405.284028 181.774029 
L 407.300759 187.555297 
L 409.31749 186.733285 
L 411.334221 191.810232 
L 413.350952 186.641896 
L 415.367683 190.5444 
L 417.384414 195.801809 
L 419.401145 180.613336 
L 421.417876 181.219982 
L 423.434607 192.755363 
L 425.451338 207.500892 
L 427.468069 208.065946 
L 429.484801 209.161732 
L 431.501532 211.008219 
L 433.518263 219.125663 
L 435.534994 234.282714 
L 437.551725 213.925599 
L 439.568456 211.953826 
L 441.585187 219.596059 
L 443.601918 205.823444 
L 445.618649 206.294475 
L 447.63538 200.724024 
L 449.652111 192.079991 
L 451.668842 186.635062 
L 453.685573 178.61552 
L 455.702305 182.480565 
L 457.719036 191.647465 
L 459.735767 194.152258 
L 461.752498 191.953421 
L 463.769229 191.797271 
L 465.78596 193.699915 
L 467.802691 190.259453 
L 469.819422 183.286343 
L 471.836153 179.03849 
L 473.852884 181.04565 
L 475.869615 183.501384 
L 477.886346 189.861631 
L 479.903077 191.598623 
L 481.919809 197.367429 
L 483.93654 188.085296 
L 485.953271 181.962839 
L 487.970002 181.740021 
L 489.986733 185.051424 
L 492.003464 196.280031 
L 494.020195 212.142211 
L 496.036926 200.979077 
L 498.053657 200.961617 
L 500.070388 187.069253 
L 502.087119 179.882174 
L 504.10385 178.637762 
L 506.120581 184.056798 
L 508.137313 179.799365 
L 510.154044 180.370716 
L 512.170775 208.539592 
L 514.187506 220.355495 
L 516.204237 212.324004 
L 518.220968 198.984223 
L 520.237699 195.502116 
L 522.25443 197.827824 
L 524.271161 197.707637 
L 526.287892 194.683465 
L 528.304623 204.486393 
L 530.321354 196.648376 
L 532.338086 196.837224 
L 534.354817 191.073327 
L 536.371548 187.480114 
L 538.388279 186.536408 
L 540.40501 188.273748 
L 542.421741 206.919101 
L 544.438472 251.783169 
L 546.455203 221.551769 
L 548.471934 203.27899 
L 550.488665 188.735331 
L 552.505396 189.479638 
L 554.522127 199.061778 
L 556.538858 192.682035 
L 558.55559 187.699363 
L 560.572321 188.296987 
L 562.589052 186.048578 
L 564.605783 201.13095 
L 566.622514 191.062107 
L 568.639245 180.375027 
L 570.655976 184.042875 
L 572.672707 189.974812 
L 574.689438 191.516085 
L 576.706169 185.332503 
L 578.7229 179.718736 
L 580.739631 180.257376 
L 582.756362 183.576994 
L 584.773094 187.128871 
L 586.789825 194.418719 
L 588.806556 197.284986 
L 590.823287 201.621251 
L 592.840018 199.934803 
L 594.856749 192.677933 
L 596.87348 203.450532 
L 598.890211 199.765199 
L 600.906942 192.435018 
L 602.923673 195.156037 
L 604.940404 200.377711 
L 606.957135 195.211867 
L 608.973866 203.743706 
L 610.990598 196.516372 
L 613.007329 209.866787 
L 615.02406 204.941058 
L 617.040791 211.112156 
L 619.057522 202.413026 
L 621.074253 190.051457 
L 623.090984 181.929076 
L 625.107715 183.182351 
L 627.124446 188.166604 
L 629.141177 187.798035 
L 631.157908 180.451673 
L 633.174639 187.391683 
L 635.19137 188.36717 
L 637.208102 177.924504 
L 639.224833 178.704208 
L 643.258295 206.238369 
L 645.275026 193.060335 
L 647.291757 184.301629 
L 649.308488 207.73671 
L 651.325219 199.478002 
L 653.34195 187.354568 
L 655.358681 186.890595 
L 657.375412 179.89108 
L 659.392143 182.325435 
L 661.408874 194.531385 
L 663.425606 221.705558 
L 665.442337 226.755095 
L 667.459068 212.631605 
L 669.475799 206.271011 
L 671.49253 197.359088 
L 673.509261 196.668173 
L 675.525992 203.097212 
L 677.542723 200.559537 
L 679.559454 198.282833 
L 681.576185 199.723063 
L 683.592916 198.800662 
L 685.609647 215.244964 
L 687.626379 228.12333 
L 689.64311 268.986408 
L 691.659841 227.727347 
L 693.676572 201.824625 
L 695.693303 190.06179 
L 697.710034 190.662236 
L 699.726765 198.018064 
L 701.743496 188.919182 
L 703.760227 193.578917 
L 705.776958 197.933655 
L 707.793689 200.082717 
L 709.81042 208.074037 
L 711.827151 211.469136 
L 713.843883 210.56168 
L 715.860614 206.1035 
L 717.877345 224.603575 
L 719.894076 236.662348 
L 721.910807 237.023152 
L 723.927538 229.707911 
L 725.944269 210.508845 
L 727.961 224.255301 
L 729.977731 292.918392 
L 731.994462 221.310232 
L 734.011193 204.782875 
L 738.044655 293.176898 
L 740.061387 265.466903 
L 742.078118 322.917578 
L 744.094849 255.612725 
L 746.11158 241.338727 
L 748.128311 238.770281 
L 750.145042 294.044732 
L 752.161773 293.828095 
L 754.178504 328.189967 
L 756.195235 288.482496 
L 760.228697 273.30622 
L 762.245428 283.03808 
L 764.262159 268.842446 
L 766.278891 320.965286 
L 768.295622 321.864428 
L 770.312353 293.059946 
L 772.329084 320.68617 
L 774.345815 245.555347 
L 776.362546 257.704042 
L 778.379277 290.331653 
L 780.396008 320.664106 
L 782.412739 353.773213 
L 784.42947 337.977392 
L 786.446201 325.435656 
L 788.462932 336.929485 
L 790.479663 335.735233 
L 792.496395 291.098421 
L 794.513126 341.347146 
L 796.529857 317.063162 
L 798.546588 309.786229 
L 800.563319 348.059537 
L 802.58005 305.817734 
L 804.596781 325.68616 
L 806.613512 333.906004 
L 808.630243 331.744443 
L 810.646974 367.359236 
L 810.646974 367.359236 
" clip-path="url(#p9704fa435d)" style="fill: none; stroke: #1f77b4; stroke-width: 1.5; stroke-linecap: square"/>
   </g>
   <g id="line2d_51">
    <path d="M 86.640517 196.432335 
L 88.657248 292.73705 
L 90.673979 279.676935 
L 92.690711 331.552745 
L 94.707442 314.437024 
L 96.724173 328.330294 
L 98.740904 300.095534 
L 100.757635 343.267156 
L 102.774366 299.374256 
L 104.791097 285.044071 
L 106.807828 309.805761 
L 108.824559 270.653495 
L 110.84129 227.3874 
L 112.858021 259.757344 
L 114.874752 260.260868 
L 116.891483 265.767646 
L 118.908215 276.308283 
L 120.924946 264.242603 
L 122.941677 254.636659 
L 124.958408 264.111726 
L 126.975139 248.680548 
L 128.99187 251.21743 
L 131.008601 218.597107 
L 133.025332 246.699065 
L 135.042063 227.4271 
L 137.058794 219.249063 
L 139.075525 258.468635 
L 141.092256 236.00673 
L 143.108987 238.587108 
L 145.125719 220.205422 
L 147.14245 255.637347 
L 149.159181 210.363487 
L 151.175912 204.115863 
L 153.192643 259.396462 
L 155.209374 216.717965 
L 157.226105 207.597395 
L 159.242836 214.977826 
L 161.259567 210.387552 
L 163.276298 190.466918 
L 165.293029 192.389788 
L 167.30976 189.354518 
L 169.326491 220.073116 
L 171.343223 216.295621 
L 173.359954 228.17202 
L 175.376685 200.503385 
L 177.393416 200.051042 
L 179.410147 207.378296 
L 181.426878 199.902456 
L 183.443609 189.238146 
L 185.46034 166.378477 
L 187.477071 187.787808 
L 189.493802 194.825689 
L 191.510533 182.515991 
L 193.527264 189.59809 
L 195.543995 233.857949 
L 197.560727 213.13138 
L 199.577458 205.421434 
L 201.594189 228.903698 
L 203.61092 219.740461 
L 205.627651 195.176085 
L 207.644382 222.537063 
L 209.661113 199.200437 
L 211.677844 207.516091 
L 213.694575 281.849409 
L 215.711306 168.681801 
L 217.728037 193.669872 
L 219.744768 213.065931 
L 221.761499 314.771383 
L 223.778231 183.331373 
L 225.794962 197.082251 
L 227.811693 201.516745 
L 229.828424 168.150706 
L 231.845155 191.664164 
L 233.861886 159.670855 
L 235.878617 324.407275 
L 237.895348 269.955759 
L 239.912079 374.066156 
L 241.92881 349.675536 
L 243.945541 178.154866 
L 245.962272 369.488921 
L 247.979004 359.698332 
L 249.995735 165.79978 
L 252.012466 371.556462 
L 254.029197 119.845463 
L 256.045928 162.715589 
L 258.062659 140.442259 
L 260.07939 374.213455 
L 262.096121 153.571811 
L 264.112852 146.304999 
L 266.129583 152.036015 
L 268.146314 109.017854 
L 270.163045 154.981958 
L 272.179776 361.51131 
L 274.196508 153.258279 
L 276.213239 367.171836 
L 278.22997 148.65427 
L 280.246701 123.553176 
L 282.263432 109.65401 
L 284.280163 369.642319 
L 286.296894 145.380337 
L 288.313625 111.742267 
L 290.330356 109.014474 
L 292.347087 114.156221 
L 294.363818 90.166755 
L 296.380549 99.888611 
L 298.39728 128.051408 
L 300.414012 90.544409 
L 302.430743 100.180621 
L 304.447474 106.35718 
L 306.464205 124.980493 
L 308.480936 113.583804 
L 310.497667 129.007709 
L 312.514398 120.844022 
L 314.531129 122.187021 
L 316.54786 143.873501 
L 318.564591 109.575287 
L 320.581322 113.722834 
L 322.598053 132.61298 
L 324.614784 136.467771 
L 326.631516 127.492722 
L 328.648247 137.81052 
L 330.664978 121.206887 
L 332.681709 131.117071 
L 334.69844 128.167445 
L 336.715171 121.481902 
L 338.731902 137.722279 
L 340.748633 151.555104 
L 342.765364 128.534638 
L 344.782095 142.193473 
L 346.798826 129.030734 
L 348.815557 129.153663 
L 350.832288 144.77534 
L 352.84902 144.784486 
L 354.865751 353.006116 
L 356.882482 186.537163 
L 358.899213 118.496493 
L 360.915944 136.808341 
L 362.932675 146.92624 
L 364.949406 146.918431 
L 366.966137 180.503742 
L 368.982868 128.824895 
L 370.999599 145.793965 
L 373.01633 159.831616 
L 375.033061 369.128817 
L 377.049792 144.024888 
L 379.066524 156.258978 
L 381.083255 131.296172 
L 383.099986 141.520989 
L 385.116717 150.833915 
L 387.133448 372.904511 
L 389.150179 168.910845 
L 391.16691 370.881113 
L 393.183641 372.834961 
L 395.200372 137.370536 
L 401.250565 140.535527 
L 403.267297 124.98907 
L 405.284028 373.276984 
L 407.300759 159.26061 
L 409.31749 152.972768 
L 411.334221 112.038717 
L 413.350952 359.502441 
L 415.367683 152.977752 
L 417.384414 128.530469 
L 419.401145 116.085065 
L 421.417876 153.667535 
L 423.434607 109.576172 
L 425.451338 136.224564 
L 427.468069 123.889286 
L 429.484801 114.3279 
L 431.501532 137.361179 
L 433.518263 105.979236 
L 435.534994 113.887191 
L 437.551725 111.238313 
L 439.568456 106.215381 
L 441.585187 110.206255 
L 445.618649 110.583148 
L 447.63538 158.645529 
L 449.652111 121.429043 
L 451.668842 144.029525 
L 453.685573 177.320143 
L 455.702305 117.833767 
L 457.719036 119.770744 
L 459.735767 108.713266 
L 461.752498 137.242349 
L 463.769229 130.502946 
L 465.78596 105.503289 
L 467.802691 106.488953 
L 469.819422 127.491421 
L 471.836153 116.892124 
L 473.852884 155.636 
L 475.869615 140.73646 
L 477.886346 130.347424 
L 479.903077 135.072094 
L 481.919809 114.332706 
L 483.93654 159.644178 
L 485.953271 171.936752 
L 487.970002 133.812176 
L 489.986733 156.193174 
L 492.003464 153.426814 
L 494.020195 188.952293 
L 496.036926 135.543704 
L 498.053657 162.821249 
L 500.070388 140.806635 
L 502.087119 127.534137 
L 504.10385 148.534846 
L 506.120581 124.983735 
L 508.137313 124.441308 
L 510.154044 160.944454 
L 512.170775 138.459662 
L 514.187506 182.260563 
L 516.204237 119.323025 
L 518.220968 181.667236 
L 520.237699 372.412996 
L 522.25443 154.964416 
L 524.271161 124.554085 
L 526.287892 175.286361 
L 528.304623 151.558017 
L 530.321354 114.333109 
L 532.338086 362.357429 
L 534.354817 169.886266 
L 536.371548 132.601946 
L 538.388279 131.722496 
L 540.40501 165.498837 
L 542.421741 163.540918 
L 544.438472 127.064684 
L 546.455203 373.053931 
L 548.471934 136.239779 
L 550.488665 156.73315 
L 552.505396 114.336071 
L 554.522127 136.714849 
L 556.538858 123.894705 
L 558.55559 137.363196 
L 560.572321 136.233069 
L 562.589052 132.606118 
L 564.605783 125.499744 
L 566.622514 113.58849 
L 568.639245 86.24711 
L 570.655976 95.451368 
L 572.672707 107.825442 
L 574.689438 109.574677 
L 576.706169 115.777618 
L 578.7229 137.367431 
L 580.739631 129.044594 
L 582.756362 151.556057 
L 584.773094 137.364892 
L 586.789825 135.068501 
L 588.806556 119.642293 
L 590.823287 111.353573 
L 592.840018 108.258041 
L 594.856749 116.479829 
L 596.87348 281.340277 
L 598.890211 124.714072 
L 600.906942 109.942597 
L 602.923673 111.356761 
L 604.940404 123.891764 
L 606.957135 125.196823 
L 608.973866 106.914312 
L 610.990598 129.38816 
L 613.007329 115.296184 
L 615.02406 131.038544 
L 617.040791 129.392332 
L 619.057522 121.934269 
L 621.074253 148.006633 
L 623.090984 125.517226 
L 625.107715 121.937206 
L 627.124446 126.041749 
L 629.141177 127.385442 
L 631.157908 141.030917 
L 633.174639 151.078232 
L 635.19137 134.108982 
L 637.208102 150.083754 
L 639.224833 126.027533 
L 641.241564 125.510455 
L 643.258295 159.249089 
L 645.275026 129.392421 
L 647.291757 128.24496 
L 649.308488 144.028862 
L 651.325219 124.553355 
L 653.34195 129.956536 
L 655.358681 131.969484 
L 657.375412 132.607104 
L 659.392143 141.520163 
L 661.408874 131.304135 
L 663.425606 128.532621 
L 665.442337 135.841929 
L 667.459068 130.634942 
L 669.475799 152.281199 
L 671.49253 148.544328 
L 673.509261 169.930523 
L 675.525992 133.457585 
L 677.542723 132.615791 
L 679.559454 141.526 
L 681.576185 127.061039 
L 683.592916 115.64085 
L 685.609647 108.464581 
L 687.626379 149.322072 
L 689.64311 173.084573 
L 691.659841 127.80546 
L 693.676572 135.0651 
L 695.693303 169.095596 
L 697.710034 370.568052 
L 699.726765 112.035844 
L 701.743496 128.617011 
L 703.760227 129.017106 
L 705.776958 121.307129 
L 707.793689 112.622576 
L 709.81042 148.527227 
L 711.827151 128.532737 
L 713.843883 121.83332 
L 715.860614 104.773653 
L 717.877345 147.699158 
L 719.894076 100.856001 
L 721.910807 147.304918 
L 723.927538 118.882637 
L 727.961 147.740038 
L 729.977731 116.479557 
L 731.994462 144.329522 
L 734.011193 108.705576 
L 736.027924 114.776964 
L 738.044655 100.614543 
L 740.061387 371.279336 
L 742.078118 107.697829 
L 744.094849 114.768861 
L 746.11158 129.013323 
L 748.128311 96.417598 
L 750.145042 124.981656 
L 752.161773 113.208262 
L 754.178504 117.83671 
L 756.195235 103.402759 
L 758.211966 104.624204 
L 760.228697 103.416483 
L 762.245428 91.294476 
L 764.262159 100.858363 
L 766.278891 108.272729 
L 768.295622 115.062172 
L 770.312353 106.917811 
L 772.329084 82.621485 
L 774.345815 104.019393 
L 776.362546 141.516489 
L 778.379277 139.502869 
L 780.396008 135.048974 
L 782.412739 96.093994 
L 784.42947 78.746873 
L 786.446201 104.019984 
L 788.462932 123.887578 
L 790.479663 90.535741 
L 792.496395 79.115894 
L 794.513126 109.572493 
L 796.529857 93.432375 
L 798.546588 83.87305 
L 800.563319 70.395642 
L 802.58005 84.025281 
L 804.596781 69.201632 
L 806.613512 62.458532 
L 808.630243 57.682545 
L 810.646974 58.933226 
L 812.663705 62.320018 
L 814.680436 70.79641 
L 816.697167 96.438494 
L 816.697167 96.438494 
" clip-path="url(#p9704fa435d)" style="fill: none; stroke: #ff7f0e; stroke-width: 1.5; stroke-linecap: square"/>
   </g>
   <g id="line2d_52">
    <path d="M 86.640517 181.663215 
L 88.657248 293.262113 
L 92.690711 355.721498 
L 94.707442 253.110172 
L 96.724173 156.555898 
L 98.740904 164.139658 
L 100.757635 243.705325 
L 102.774366 295.864026 
L 104.791097 305.858341 
L 106.807828 304.23699 
L 108.824559 303.894947 
L 110.84129 290.872202 
L 112.858021 284.109533 
L 114.874752 300.34018 
L 116.891483 335.647753 
L 118.908215 297.742748 
L 120.924946 270.600224 
L 122.941677 261.164716 
L 124.958408 281.939717 
L 126.975139 298.939468 
L 128.99187 309.820696 
L 131.008601 280.334886 
L 133.025332 295.197161 
L 135.042063 285.033447 
L 137.058794 293.614494 
L 139.075525 249.227908 
L 141.092256 250.658634 
L 143.108987 268.933466 
L 145.125719 260.283098 
L 147.14245 265.592082 
L 149.159181 270.138011 
L 151.175912 252.054088 
L 153.192643 266.943087 
L 155.209374 253.27113 
L 157.226105 281.624612 
L 159.242836 245.278535 
L 161.259567 254.2941 
L 163.276298 262.776311 
L 165.293029 255.104828 
L 167.30976 244.196122 
L 169.326491 252.654151 
L 171.343223 249.673012 
L 173.359954 231.284459 
L 175.376685 243.96195 
L 177.393416 228.837116 
L 179.410147 232.118546 
L 181.426878 222.014472 
L 183.443609 219.426674 
L 185.46034 216.571814 
L 187.477071 211.578315 
L 189.493802 208.184502 
L 191.510533 209.166198 
L 193.527264 202.647074 
L 195.543995 202.197395 
L 197.560727 197.649811 
L 199.577458 204.534195 
L 201.594189 196.304324 
L 203.61092 195.857969 
L 205.627651 196.345276 
L 207.644382 189.226426 
L 209.661113 200.627681 
L 211.677844 197.636621 
L 213.694575 189.285564 
L 215.711306 187.395386 
L 217.728037 192.312048 
L 219.744768 186.980229 
L 221.761499 189.860849 
L 223.778231 182.466879 
L 225.794962 183.923673 
L 227.811693 192.806017 
L 229.828424 193.813139 
L 231.845155 185.622162 
L 233.861886 185.444925 
L 235.878617 181.495004 
L 237.895348 190.498912 
L 239.912079 189.219625 
L 241.92881 180.512066 
L 243.945541 190.918389 
L 245.962272 199.297592 
L 247.979004 190.089534 
L 249.995735 188.513915 
L 252.012466 198.713035 
L 254.029197 195.512079 
L 256.045928 189.32146 
L 258.062659 191.201321 
L 260.07939 191.759025 
L 262.096121 182.300447 
L 264.112852 178.352581 
L 266.129583 181.10412 
L 268.146314 162.400069 
L 270.163045 169.935099 
L 272.179776 165.736773 
L 274.196508 168.271156 
L 276.213239 159.224332 
L 278.22997 175.784728 
L 280.246701 172.996026 
L 282.263432 189.419553 
L 284.280163 187.560629 
L 286.296894 184.722758 
L 288.313625 180.37811 
L 290.330356 177.157463 
L 292.347087 184.937917 
L 294.363818 194.329377 
L 296.380549 193.335293 
L 298.39728 199.033961 
L 300.414012 201.384319 
L 302.430743 188.266055 
L 304.447474 181.426967 
L 306.464205 179.564629 
L 308.480936 187.106862 
L 310.497667 189.534766 
L 312.514398 194.214587 
L 314.531129 193.319879 
L 316.54786 189.004194 
L 318.564591 189.146126 
L 320.581322 200.604975 
L 322.598053 200.997595 
L 324.614784 191.084241 
L 326.631516 196.23182 
L 328.648247 191.708548 
L 330.664978 183.023852 
L 332.681709 193.989266 
L 334.69844 194.371196 
L 336.715171 191.269144 
L 338.731902 184.743733 
L 340.748633 186.819517 
L 344.782095 206.925234 
L 346.798826 203.55159 
L 348.815557 194.982358 
L 350.832288 187.61384 
L 352.84902 190.710328 
L 354.865751 207.375043 
L 356.882482 198.824187 
L 358.899213 197.293972 
L 360.915944 191.279834 
L 362.932675 195.620332 
L 364.949406 198.823503 
L 366.966137 187.945375 
L 368.982868 192.550674 
L 370.999599 200.745968 
L 373.01633 195.4549 
L 375.033061 189.750857 
L 377.049792 197.702523 
L 379.066524 194.295105 
L 381.083255 182.237782 
L 383.099986 193.670574 
L 385.116717 206.406025 
L 387.133448 194.724573 
L 389.150179 189.149958 
L 391.16691 181.359432 
L 393.183641 179.816916 
L 395.200372 169.875079 
L 397.217103 175.196874 
L 399.233834 174.938895 
L 401.250565 186.026395 
L 403.267297 193.494104 
L 405.284028 184.346202 
L 407.300759 187.600134 
L 409.31749 188.030212 
L 411.334221 182.899594 
L 413.350952 187.272132 
L 415.367683 192.736804 
L 417.384414 181.021221 
L 419.401145 176.660072 
L 421.417876 185.454677 
L 423.434607 183.403134 
L 425.451338 178.888963 
L 427.468069 179.750249 
L 429.484801 175.295711 
L 431.501532 179.473926 
L 433.518263 201.395461 
L 435.534994 222.069248 
L 437.551725 206.528544 
L 439.568456 206.142061 
L 441.585187 206.194301 
L 443.601918 191.667732 
L 445.618649 184.745998 
L 447.63538 182.913234 
L 449.652111 193.050007 
L 451.668842 200.923547 
L 453.685573 195.198916 
L 455.702305 189.11024 
L 457.719036 208.845891 
L 459.735767 205.136231 
L 461.752498 203.727654 
L 463.769229 191.644909 
L 465.78596 207.759617 
L 467.802691 198.281787 
L 469.819422 201.869868 
L 471.836153 199.343723 
L 473.852884 191.127224 
L 475.869615 181.098412 
L 479.903077 184.864265 
L 481.919809 182.067609 
L 483.93654 182.115873 
L 485.953271 181.743995 
L 487.970002 174.116613 
L 489.986733 180.302725 
L 492.003464 183.952241 
L 494.020195 187.354262 
L 496.036926 197.134754 
L 500.070388 197.897334 
L 502.087119 196.241789 
L 504.10385 183.988241 
L 506.120581 184.579692 
L 508.137313 190.293858 
L 510.154044 192.94803 
L 512.170775 192.106831 
L 514.187506 189.772758 
L 516.204237 191.241929 
L 518.220968 191.54565 
L 520.237699 205.701952 
L 522.25443 201.773923 
L 524.271161 186.351186 
L 526.287892 178.533142 
L 528.304623 179.218307 
L 532.338086 190.152676 
L 534.354817 196.106616 
L 536.371548 197.66008 
L 538.388279 189.166783 
L 540.40501 190.812378 
L 542.421741 192.111798 
L 544.438472 192.333901 
L 546.455203 193.563725 
L 548.471934 187.021904 
L 550.488665 186.248684 
L 552.505396 185.062751 
L 554.522127 187.945998 
L 556.538858 193.72386 
L 558.55559 206.967985 
L 560.572321 195.850027 
L 562.589052 195.445233 
L 568.639245 190.463612 
L 570.655976 191.300641 
L 572.672707 193.00092 
L 574.689438 198.177551 
L 576.706169 200.207953 
L 578.7229 218.175137 
L 580.739631 258.377849 
L 582.756362 172.436528 
L 584.773094 288.859922 
L 586.789825 306.063466 
L 588.806556 293.296033 
L 590.823287 328.124788 
L 592.840018 298.580548 
L 594.856749 365.843446 
L 596.87348 320.408801 
L 598.890211 290.588557 
L 600.906942 330.912189 
L 602.923673 292.506079 
L 604.940404 98.285351 
L 606.957135 292.925792 
L 608.973866 302.6818 
L 610.990598 268.262285 
L 613.007329 364.117947 
L 615.02406 282.054118 
L 617.040791 364.159416 
L 627.124446 78.807099 
L 629.141177 280.623733 
L 631.157908 106.351542 
L 633.174639 363.980091 
L 635.19137 73.598603 
L 637.208102 86.541274 
L 639.224833 187.661797 
L 641.241564 264.988143 
L 643.258295 278.248789 
L 645.275026 296.87231 
L 647.291757 299.020294 
L 649.308488 316.482513 
L 651.325219 306.426328 
L 653.34195 311.070047 
L 655.358681 257.082114 
L 657.375412 367.07372 
L 659.392143 268.222125 
L 661.408874 64.786495 
L 663.425606 74.818062 
L 665.442337 129.422576 
L 667.459068 98.645797 
L 669.475799 145.272469 
L 671.49253 147.403025 
L 673.509261 262.909599 
L 675.525992 147.864751 
L 677.542723 250.99216 
L 679.559454 306.042318 
L 681.576185 334.377478 
L 683.592916 154.762634 
L 685.609647 99.328028 
L 687.626379 272.009424 
L 689.64311 280.976729 
L 691.659841 332.803465 
L 693.676572 289.322906 
L 695.693303 103.31462 
L 697.710034 109.987011 
L 699.726765 85.76732 
L 701.743496 102.059682 
L 703.760227 115.07878 
L 705.776958 114.571059 
L 707.793689 127.650745 
L 709.81042 132.908453 
L 711.827151 123.188962 
L 713.843883 143.522925 
L 715.860614 154.442958 
L 717.877345 168.289609 
L 719.894076 164.635049 
L 721.910807 181.684846 
L 723.927538 236.464671 
L 725.944269 284.480518 
L 727.961 255.838228 
L 729.977731 238.431183 
L 731.994462 265.130184 
L 734.011193 279.08528 
L 736.027924 235.447944 
L 738.044655 238.391221 
L 740.061387 256.960118 
L 742.078118 240.201845 
L 744.094849 245.420217 
L 746.11158 252.830749 
L 748.128311 254.802081 
L 750.145042 271.194156 
L 752.161773 256.888391 
L 754.178504 284.305034 
L 756.195235 288.727373 
L 758.211966 264.178652 
L 760.228697 296.80575 
L 762.245428 290.937656 
L 764.262159 279.134203 
L 766.278891 288.320906 
L 768.295622 327.654439 
L 770.312353 310.372873 
L 772.329084 263.888473 
L 774.345815 313.612274 
L 776.362546 297.43191 
L 778.379277 303.882618 
L 780.396008 310.745508 
L 782.412739 290.018019 
L 784.42947 299.823127 
L 786.446201 302.472226 
L 788.462932 332.889627 
L 790.479663 308.521254 
L 792.496395 331.232624 
L 794.513126 314.343354 
L 796.529857 337.638927 
L 798.546588 307.583725 
L 802.58005 338.323055 
L 804.596781 309.526822 
L 806.613512 292.008656 
L 808.630243 317.640661 
L 810.646974 365.472585 
L 810.646974 365.472585 
" clip-path="url(#p9704fa435d)" style="fill: none; stroke: #2ca02c; stroke-width: 1.5; stroke-linecap: square"/>
   </g>
   <g id="patch_3">
    <path d="M 50.137685 390.04 
L 50.137685 41.856 
" style="fill: none; stroke: #000000; stroke-width: 0.8; stroke-linejoin: miter; stroke-linecap: square"/>
   </g>
   <g id="patch_4">
    <path d="M 853.2 390.04 
L 853.2 41.856 
" style="fill: none; stroke: #000000; stroke-width: 0.8; stroke-linejoin: miter; stroke-linecap: square"/>
   </g>
   <g id="patch_5">
    <path d="M 50.137685 390.04 
L 853.2 390.04 
" style="fill: none; stroke: #000000; stroke-width: 0.8; stroke-linejoin: miter; stroke-linecap: square"/>
   </g>
   <g id="patch_6">
    <path d="M 50.137685 41.856 
L 853.2 41.856 
" style="fill: none; stroke: #000000; stroke-width: 0.8; stroke-linejoin: miter; stroke-linecap: square"/>
   </g>
   <g id="text_15">
    <!-- Average HTTP Request Duration Over Time -->
    <g transform="translate(322.596655 22.355625) scale(0.12 -0.12)">
     <defs>
      <path id="DejaVuSans-48" d="M 628 4666 
L 1259 4666 
L 1259 2753 
L 3553 2753 
L 3553 4666 
L 4184 4666 
L 4184 0 
L 3553 0 
L 3553 2222 
L 1259 2222 
L 1259 0 
L 628 0 
L 628 4666 
z
" transform="scale(0.015625)"/>
      <path id="DejaVuSans-50" d="M 1259 4147 
L 1259 2394 
L 2053 2394 
Q 2494 2394 2734 2622 
Q 2975 2850 2975 3272 
Q 2975 3691 2734 3919 
Q 2494 4147 2053 4147 
L 1259 4147 
z
M 628 4666 
L 2053 4666 
Q 2838 4666 3239 4311 
Q 3641 3956 3641 3272 
Q 3641 2581 3239 2228 
Q 2838 1875 2053 1875 
L 1259 1875 
L 1259 0 
L 628 0 
L 628 4666 
z
" transform="scale(0.015625)"/>
      <path id="DejaVuSans-52" d="M 2841 2188 
Q 3044 2119 3236 1894 
Q 3428 1669 3622 1275 
L 4263 0 
L 3584 0 
L 2988 1197 
Q 2756 1666 2539 1819 
Q 2322 1972 1947 1972 
L 1259 1972 
L 1259 0 
L 628 0 
L 628 4666 
L 2053 4666 
Q 2853 4666 3247 4331 
Q 3641 3997 3641 3322 
Q 3641 2881 3436 2590 
Q 3231 2300 2841 2188 
z
M 1259 4147 
L 1259 2491 
L 2053 2491 
Q 2509 2491 2742 2702 
Q 2975 2913 2975 3322 
Q 2975 3731 2742 3939 
Q 2509 4147 2053 4147 
L 1259 4147 
z
" transform="scale(0.015625)"/>
      <path id="DejaVuSans-71" d="M 947 1747 
Q 947 1113 1208 752 
Q 1469 391 1925 391 
Q 2381 391 2643 752 
Q 2906 1113 2906 1747 
Q 2906 2381 2643 2742 
Q 2381 3103 1925 3103 
Q 1469 3103 1208 2742 
Q 947 2381 947 1747 
z
M 2906 525 
Q 2725 213 2448 61 
Q 2172 -91 1784 -91 
Q 1150 -91 751 415 
Q 353 922 353 1747 
Q 353 2572 751 3078 
Q 1150 3584 1784 3584 
Q 2172 3584 2448 3432 
Q 2725 3281 2906 2969 
L 2906 3500 
L 3481 3500 
L 3481 -1331 
L 2906 -1331 
L 2906 525 
z
" transform="scale(0.015625)"/>
      <path id="DejaVuSans-4f" d="M 2522 4238 
Q 1834 4238 1429 3725 
Q 1025 3213 1025 2328 
Q 1025 1447 1429 934 
Q 1834 422 2522 422 
Q 3209 422 3611 934 
Q 4013 1447 4013 2328 
Q 4013 3213 3611 3725 
Q 3209 4238 2522 4238 
z
M 2522 4750 
Q 3503 4750 4090 4092 
Q 4678 3434 4678 2328 
Q 4678 1225 4090 567 
Q 3503 -91 2522 -91 
Q 1538 -91 948 565 
Q 359 1222 359 2328 
Q 359 3434 948 4092 
Q 1538 4750 2522 4750 
z
" transform="scale(0.015625)"/>
     </defs>
     <use xlink:href="#DejaVuSans-41"/>
     <use xlink:href="#DejaVuSans-76" transform="translate(62.533203 0)"/>
     <use xlink:href="#DejaVuSans-65" transform="translate(121.712891 0)"/>
     <use xlink:href="#DejaVuSans-72" transform="translate(183.236328 0)"/>
     <use xlink:href="#DejaVuSans-61" transform="translate(224.349609 0)"/>
     <use xlink:href="#DejaVuSans-67" transform="translate(285.628906 0)"/>
     <use xlink:href="#DejaVuSans-65" transform="translate(349.105469 0)"/>
     <use xlink:href="#DejaVuSans-20" transform="translate(410.628906 0)"/>
     <use xlink:href="#DejaVuSans-48" transform="translate(442.416016 0)"/>
     <use xlink:href="#DejaVuSans-54" transform="translate(517.611328 0)"/>
     <use xlink:href="#DejaVuSans-54" transform="translate(576.945312 0)"/>
     <use xlink:href="#DejaVuSans-50" transform="translate(638.029297 0)"/>
     <use xlink:href="#DejaVuSans-20" transform="translate(698.332031 0)"/>
     <use xlink:href="#DejaVuSans-52" transform="translate(730.119141 0)"/>
     <use xlink:href="#DejaVuSans-65" transform="translate(795.101562 0)"/>
     <use xlink:href="#DejaVuSans-71" transform="translate(856.625 0)"/>
     <use xlink:href="#DejaVuSans-75" transform="translate(920.101562 0)"/>
     <use xlink:href="#DejaVuSans-65" transform="translate(983.480469 0)"/>
     <use xlink:href="#DejaVuSans-73" transform="translate(1045.003906 0)"/>
     <use xlink:href="#DejaVuSans-74" transform="translate(1097.103516 0)"/>
     <use xlink:href="#DejaVuSans-20" transform="translate(1136.3125 0)"/>
     <use xlink:href="#DejaVuSans-44" transform="translate(1168.099609 0)"/>
     <use xlink:href="#DejaVuSans-75" transform="translate(1245.101562 0)"/>
     <use xlink:href="#DejaVuSans-72" transform="translate(1308.480469 0)"/>
     <use xlink:href="#DejaVuSans-61" transform="translate(1349.59375 0)"/>
     <use xlink:href="#DejaVuSans-74" transform="translate(1410.873047 0)"/>
     <use xlink:href="#DejaVuSans-69" transform="translate(1450.082031 0)"/>
     <use xlink:href="#DejaVuSans-6f" transform="translate(1477.865234 0)"/>
     <use xlink:href="#DejaVuSans-6e" transform="translate(1539.046875 0)"/>
     <use xlink:href="#DejaVuSans-20" transform="translate(1602.425781 0)"/>
     <use xlink:href="#DejaVuSans-4f" transform="translate(1634.212891 0)"/>
     <use xlink:href="#DejaVuSans-76" transform="translate(1712.923828 0)"/>
     <use xlink:href="#DejaVuSans-65" transform="translate(1772.103516 0)"/>
     <use xlink:href="#DejaVuSans-72" transform="translate(1833.626953 0)"/>
     <use xlink:href="#DejaVuSans-20" transform="translate(1874.740234 0)"/>
     <use xlink:href="#DejaVuSans-54" transform="translate(1906.527344 0)"/>
     <use xlink:href="#DejaVuSans-69" transform="translate(1964.486328 0)"/>
     <use xlink:href="#DejaVuSans-6d" transform="translate(1992.269531 0)"/>
     <use xlink:href="#DejaVuSans-65" transform="translate(2089.681641 0)"/>
    </g>
    <!-- Test: stress | Endpoint: Combined -->
    <g transform="translate(351.221342 35.856) scale(0.12 -0.12)">
     <defs>
      <path id="DejaVuSans-3a" d="M 750 794 
L 1409 794 
L 1409 0 
L 750 0 
L 750 794 
z
M 750 3309 
L 1409 3309 
L 1409 2516 
L 750 2516 
L 750 3309 
z
" transform="scale(0.015625)"/>
      <path id="DejaVuSans-7c" d="M 1344 4891 
L 1344 -1509 
L 813 -1509 
L 813 4891 
L 1344 4891 
z
" transform="scale(0.015625)"/>
      <path id="DejaVuSans-45" d="M 628 4666 
L 3578 4666 
L 3578 4134 
L 1259 4134 
L 1259 2753 
L 3481 2753 
L 3481 2222 
L 1259 2222 
L 1259 531 
L 3634 531 
L 3634 0 
L 628 0 
L 628 4666 
z
" transform="scale(0.015625)"/>
      <path id="DejaVuSans-43" d="M 4122 4306 
L 4122 3641 
Q 3803 3938 3442 4084 
Q 3081 4231 2675 4231 
Q 1875 4231 1450 3742 
Q 1025 3253 1025 2328 
Q 1025 1406 1450 917 
Q 1875 428 2675 428 
Q 3081 428 3442 575 
Q 3803 722 4122 1019 
L 4122 359 
Q 3791 134 3420 21 
Q 3050 -91 2638 -91 
Q 1578 -91 968 557 
Q 359 1206 359 2328 
Q 359 3453 968 4101 
Q 1578 4750 2638 4750 
Q 3056 4750 3426 4639 
Q 3797 4528 4122 4306 
z
" transform="scale(0.015625)"/>
      <path id="DejaVuSans-62" d="M 3116 1747 
Q 3116 2381 2855 2742 
Q 2594 3103 2138 3103 
Q 1681 3103 1420 2742 
Q 1159 2381 1159 1747 
Q 1159 1113 1420 752 
Q 1681 391 2138 391 
Q 2594 391 2855 752 
Q 3116 1113 3116 1747 
z
M 1159 2969 
Q 1341 3281 1617 3432 
Q 1894 3584 2278 3584 
Q 2916 3584 3314 3078 
Q 3713 2572 3713 1747 
Q 3713 922 3314 415 
Q 2916 -91 2278 -91 
Q 1894 -91 1617 61 
Q 1341 213 1159 525 
L 1159 0 
L 581 0 
L 581 4863 
L 1159 4863 
L 1159 2969 
z
" transform="scale(0.015625)"/>
     </defs>
     <use xlink:href="#DejaVuSans-54"/>
     <use xlink:href="#DejaVuSans-65" transform="translate(44.083984 0)"/>
     <use xlink:href="#DejaVuSans-73" transform="translate(105.607422 0)"/>
     <use xlink:href="#DejaVuSans-74" transform="translate(157.707031 0)"/>
     <use xlink:href="#DejaVuSans-3a" transform="translate(196.916016 0)"/>
     <use xlink:href="#DejaVuSans-20" transform="translate(230.607422 0)"/>
     <use xlink:href="#DejaVuSans-73" transform="translate(262.394531 0)"/>
     <use xlink:href="#DejaVuSans-74" transform="translate(314.494141 0)"/>
     <use xlink:href="#DejaVuSans-72" transform="translate(353.703125 0)"/>
     <use xlink:href="#DejaVuSans-65" transform="translate(392.566406 0)"/>
     <use xlink:href="#DejaVuSans-73" transform="translate(454.089844 0)"/>
     <use xlink:href="#DejaVuSans-73" transform="translate(506.189453 0)"/>
     <use xlink:href="#DejaVuSans-20" transform="translate(558.289062 0)"/>
     <use xlink:href="#DejaVuSans-7c" transform="translate(590.076172 0)"/>
     <use xlink:href="#DejaVuSans-20" transform="translate(623.767578 0)"/>
     <use xlink:href="#DejaVuSans-45" transform="translate(655.554688 0)"/>
     <use xlink:href="#DejaVuSans-6e" transform="translate(718.738281 0)"/>
     <use xlink:href="#DejaVuSans-64" transform="translate(782.117188 0)"/>
     <use xlink:href="#DejaVuSans-70" transform="translate(845.59375 0)"/>
     <use xlink:href="#DejaVuSans-6f" transform="translate(909.070312 0)"/>
     <use xlink:href="#DejaVuSans-69" transform="translate(970.251953 0)"/>
     <use xlink:href="#DejaVuSans-6e" transform="translate(998.035156 0)"/>
     <use xlink:href="#DejaVuSans-74" transform="translate(1061.414062 0)"/>
     <use xlink:href="#DejaVuSans-3a" transform="translate(1100.623047 0)"/>
     <use xlink:href="#DejaVuSans-20" transform="translate(1134.314453 0)"/>
     <use xlink:href="#DejaVuSans-43" transform="translate(1166.101562 0)"/>
     <use xlink:href="#DejaVuSans-6f" transform="translate(1235.925781 0)"/>
     <use xlink:href="#DejaVuSans-6d" transform="translate(1297.107422 0)"/>
     <use xlink:href="#DejaVuSans-62" transform="translate(1394.519531 0)"/>
     <use xlink:href="#DejaVuSans-69" transform="translate(1457.996094 0)"/>
     <use xlink:href="#DejaVuSans-6e" transform="translate(1485.779297 0)"/>
     <use xlink:href="#DejaVuSans-65" transform="translate(1549.158203 0)"/>
     <use xlink:href="#DejaVuSans-64" transform="translate(1610.681641 0)"/>
    </g>
   </g>
   <g id="legend_1">
    <g id="patch_7">
     <path d="M 57.137685 93.890375 
L 190.481435 93.890375 
Q 192.481435 93.890375 192.481435 91.890375 
L 192.481435 48.856 
Q 192.481435 46.856 190.481435 46.856 
L 57.137685 46.856 
Q 55.137685 46.856 55.137685 48.856 
L 55.137685 91.890375 
Q 55.137685 93.890375 57.137685 93.890375 
z
" style="fill: #ffffff; opacity: 0.8; stroke: #cccccc; stroke-linejoin: miter"/>
    </g>
    <g id="line2d_53">
     <path d="M 59.137685 54.954437 
L 69.137685 54.954437 
L 79.137685 54.954437 
" style="fill: none; stroke: #1f77b4; stroke-width: 1.5; stroke-linecap: square"/>
    </g>
    <g id="text_16">
     <!-- Single Large Results -->
     <g transform="translate(87.137685 58.454437) scale(0.1 -0.1)">
      <defs>
       <path id="DejaVuSans-6c" d="M 603 4863 
L 1178 4863 
L 1178 0 
L 603 0 
L 603 4863 
z
" transform="scale(0.015625)"/>
       <path id="DejaVuSans-4c" d="M 628 4666 
L 1259 4666 
L 1259 531 
L 3531 531 
L 3531 0 
L 628 0 
L 628 4666 
z
" transform="scale(0.015625)"/>
      </defs>
      <use xlink:href="#DejaVuSans-53"/>
      <use xlink:href="#DejaVuSans-69" transform="translate(63.476562 0)"/>
      <use xlink:href="#DejaVuSans-6e" transform="translate(91.259766 0)"/>
      <use xlink:href="#DejaVuSans-67" transform="translate(154.638672 0)"/>
      <use xlink:href="#DejaVuSans-6c" transform="translate(218.115234 0)"/>
      <use xlink:href="#DejaVuSans-65" transform="translate(245.898438 0)"/>
      <use xlink:href="#DejaVuSans-20" transform="translate(307.421875 0)"/>
      <use xlink:href="#DejaVuSans-4c" transform="translate(339.208984 0)"/>
      <use xlink:href="#DejaVuSans-61" transform="translate(394.921875 0)"/>
      <use xlink:href="#DejaVuSans-72" transform="translate(456.201172 0)"/>
      <use xlink:href="#DejaVuSans-67" transform="translate(495.564453 0)"/>
      <use xlink:href="#DejaVuSans-65" transform="translate(559.041016 0)"/>
      <use xlink:href="#DejaVuSans-20" transform="translate(620.564453 0)"/>
      <use xlink:href="#DejaVuSans-52" transform="translate(652.351562 0)"/>
      <use xlink:href="#DejaVuSans-65" transform="translate(717.333984 0)"/>
      <use xlink:href="#DejaVuSans-73" transform="translate(778.857422 0)"/>
      <use xlink:href="#DejaVuSans-75" transform="translate(830.957031 0)"/>
      <use xlink:href="#DejaVuSans-6c" transform="translate(894.335938 0)"/>
      <use xlink:href="#DejaVuSans-74" transform="translate(922.119141 0)"/>
      <use xlink:href="#DejaVuSans-73" transform="translate(961.328125 0)"/>
     </g>
    </g>
    <g id="line2d_54">
     <path d="M 59.137685 69.632562 
L 69.137685 69.632562 
L 79.137685 69.632562 
" style="fill: none; stroke: #ff7f0e; stroke-width: 1.5; stroke-linecap: square"/>
    </g>
    <g id="text_17">
     <!-- Single Small Results -->
     <g transform="translate(87.137685 73.132562) scale(0.1 -0.1)">
      <use xlink:href="#DejaVuSans-53"/>
      <use xlink:href="#DejaVuSans-69" transform="translate(63.476562 0)"/>
      <use xlink:href="#DejaVuSans-6e" transform="translate(91.259766 0)"/>
      <use xlink:href="#DejaVuSans-67" transform="translate(154.638672 0)"/>
      <use xlink:href="#DejaVuSans-6c" transform="translate(218.115234 0)"/>
      <use xlink:href="#DejaVuSans-65" transform="translate(245.898438 0)"/>
      <use xlink:href="#DejaVuSans-20" transform="translate(307.421875 0)"/>
      <use xlink:href="#DejaVuSans-53" transform="translate(339.208984 0)"/>
      <use xlink:href="#DejaVuSans-6d" transform="translate(402.685547 0)"/>
      <use xlink:href="#DejaVuSans-61" transform="translate(500.097656 0)"/>
      <use xlink:href="#DejaVuSans-6c" transform="translate(561.376953 0)"/>
      <use xlink:href="#DejaVuSans-6c" transform="translate(589.160156 0)"/>
      <use xlink:href="#DejaVuSans-20" transform="translate(616.943359 0)"/>
      <use xlink:href="#DejaVuSans-52" transform="translate(648.730469 0)"/>
      <use xlink:href="#DejaVuSans-65" transform="translate(713.712891 0)"/>
      <use xlink:href="#DejaVuSans-73" transform="translate(775.236328 0)"/>
      <use xlink:href="#DejaVuSans-75" transform="translate(827.335938 0)"/>
      <use xlink:href="#DejaVuSans-6c" transform="translate(890.714844 0)"/>
      <use xlink:href="#DejaVuSans-74" transform="translate(918.498047 0)"/>
      <use xlink:href="#DejaVuSans-73" transform="translate(957.707031 0)"/>
     </g>
    </g>
    <g id="line2d_55">
     <path d="M 59.137685 84.310687 
L 69.137685 84.310687 
L 79.137685 84.310687 
" style="fill: none; stroke: #2ca02c; stroke-width: 1.5; stroke-linecap: square"/>
    </g>
    <g id="text_18">
     <!-- Multi Results -->
     <g transform="translate(87.137685 87.810687) scale(0.1 -0.1)">
      <defs>
       <path id="DejaVuSans-4d" d="M 628 4666 
L 1569 4666 
L 2759 1491 
L 3956 4666 
L 4897 4666 
L 4897 0 
L 4281 0 
L 4281 4097 
L 3078 897 
L 2444 897 
L 1241 4097 
L 1241 0 
L 628 0 
L 628 4666 
z
" transform="scale(0.015625)"/>
      </defs>
      <use xlink:href="#DejaVuSans-4d"/>
      <use xlink:href="#DejaVuSans-75" transform="translate(86.279297 0)"/>
      <use xlink:href="#DejaVuSans-6c" transform="translate(149.658203 0)"/>
      <use xlink:href="#DejaVuSans-74" transform="translate(177.441406 0)"/>
      <use xlink:href="#DejaVuSans-69" transform="translate(216.650391 0)"/>
      <use xlink:href="#DejaVuSans-20" transform="translate(244.433594 0)"/>
      <use xlink:href="#DejaVuSans-52" transform="translate(276.220703 0)"/>
      <use xlink:href="#DejaVuSans-65" transform="translate(341.203125 0)"/>
      <use xlink:href="#DejaVuSans-73" transform="translate(402.726562 0)"/>
      <use xlink:href="#DejaVuSans-75" transform="translate(454.826172 0)"/>
      <use xlink:href="#DejaVuSans-6c" transform="translate(518.205078 0)"/>
      <use xlink:href="#DejaVuSans-74" transform="translate(545.988281 0)"/>
      <use xlink:href="#DejaVuSans-73" transform="translate(585.197266 0)"/>
     </g>
    </g>
   </g>
  </g>
 </g>
 <defs>
  <clipPath id="p9704fa435d">
   <rect x="50.137685" y="41.856" width="803.062315" height="348.184"/>
  </clipPath>
 </defs>
</svg>
