<?xml version="1.0" encoding="utf-8" standalone="no"?>
<!DOCTYPE svg PUBLIC "-//W3C//DTD SVG 1.1//EN"
  "http://www.w3.org/Graphics/SVG/1.1/DTD/svg11.dtd">
<svg xmlns:xlink="http://www.w3.org/1999/xlink" width="864pt" height="432pt" viewBox="0 0 864 432" xmlns="http://www.w3.org/2000/svg" version="1.1">
 <metadata>
  <rdf:RDF xmlns:dc="http://purl.org/dc/elements/1.1/" xmlns:cc="http://creativecommons.org/ns#" xmlns:rdf="http://www.w3.org/1999/02/22-rdf-syntax-ns#">
   <cc:Work>
    <dc:type rdf:resource="http://purl.org/dc/dcmitype/StillImage"/>
    <dc:date>2025-05-31T16:14:47.146656</dc:date>
    <dc:format>image/svg+xml</dc:format>
    <dc:creator>
     <cc:Agent>
      <dc:title>Matplotlib v3.10.1, https://matplotlib.org/</dc:title>
     </cc:Agent>
    </dc:creator>
   </cc:Work>
  </rdf:RDF>
 </metadata>
 <defs>
  <style type="text/css">*{stroke-linejoin: round; stroke-linecap: butt}</style>
 </defs>
 <g id="figure_1">
  <g id="patch_1">
   <path d="M 0 432 
L 864 432 
L 864 0 
L 0 0 
z
" style="fill: #ffffff"/>
  </g>
  <g id="axes_1">
   <g id="patch_2">
    <path d="M 50.137685 390.04 
L 853.2 390.04 
L 853.2 41.856 
L 50.137685 41.856 
z
" style="fill: #ffffff"/>
   </g>
   <g id="matplotlib.axis_1">
    <g id="xtick_1">
     <g id="line2d_1">
      <defs>
       <path id="m27f41eaf11" d="M 0 0 
L 0 3.5 
" style="stroke: #000000; stroke-width: 0.8"/>
      </defs>
      <g>
       <use xlink:href="#m27f41eaf11" x="86.640517" y="390.04" style="stroke: #000000; stroke-width: 0.8"/>
      </g>
     </g>
     <g id="text_1">
      <!-- 0 -->
      <g transform="translate(83.459267 404.638438) scale(0.1 -0.1)">
       <defs>
        <path id="DejaVuSans-30" d="M 2034 4250 
Q 1547 4250 1301 3770 
Q 1056 3291 1056 2328 
Q 1056 1369 1301 889 
Q 1547 409 2034 409 
Q 2525 409 2770 889 
Q 3016 1369 3016 2328 
Q 3016 3291 2770 3770 
Q 2525 4250 2034 4250 
z
M 2034 4750 
Q 2819 4750 3233 4129 
Q 3647 3509 3647 2328 
Q 3647 1150 3233 529 
Q 2819 -91 2034 -91 
Q 1250 -91 836 529 
Q 422 1150 422 2328 
Q 422 3509 836 4129 
Q 1250 4750 2034 4750 
z
" transform="scale(0.015625)"/>
       </defs>
       <use xlink:href="#DejaVuSans-30"/>
      </g>
     </g>
    </g>
    <g id="xtick_2">
     <g id="line2d_2">
      <g>
       <use xlink:href="#m27f41eaf11" x="232.666023" y="390.04" style="stroke: #000000; stroke-width: 0.8"/>
      </g>
     </g>
     <g id="text_2">
      <!-- 20 -->
      <g transform="translate(226.303523 404.638438) scale(0.1 -0.1)">
       <defs>
        <path id="DejaVuSans-32" d="M 1228 531 
L 3431 531 
L 3431 0 
L 469 0 
L 469 531 
Q 828 903 1448 1529 
Q 2069 2156 2228 2338 
Q 2531 2678 2651 2914 
Q 2772 3150 2772 3378 
Q 2772 3750 2511 3984 
Q 2250 4219 1831 4219 
Q 1534 4219 1204 4116 
Q 875 4013 500 3803 
L 500 4441 
Q 881 4594 1212 4672 
Q 1544 4750 1819 4750 
Q 2544 4750 2975 4387 
Q 3406 4025 3406 3419 
Q 3406 3131 3298 2873 
Q 3191 2616 2906 2266 
Q 2828 2175 2409 1742 
Q 1991 1309 1228 531 
z
" transform="scale(0.015625)"/>
       </defs>
       <use xlink:href="#DejaVuSans-32"/>
       <use xlink:href="#DejaVuSans-30" transform="translate(63.623047 0)"/>
      </g>
     </g>
    </g>
    <g id="xtick_3">
     <g id="line2d_3">
      <g>
       <use xlink:href="#m27f41eaf11" x="378.691529" y="390.04" style="stroke: #000000; stroke-width: 0.8"/>
      </g>
     </g>
     <g id="text_3">
      <!-- 40 -->
      <g transform="translate(372.329029 404.638438) scale(0.1 -0.1)">
       <defs>
        <path id="DejaVuSans-34" d="M 2419 4116 
L 825 1625 
L 2419 1625 
L 2419 4116 
z
M 2253 4666 
L 3047 4666 
L 3047 1625 
L 3713 1625 
L 3713 1100 
L 3047 1100 
L 3047 0 
L 2419 0 
L 2419 1100 
L 313 1100 
L 313 1709 
L 2253 4666 
z
" transform="scale(0.015625)"/>
       </defs>
       <use xlink:href="#DejaVuSans-34"/>
       <use xlink:href="#DejaVuSans-30" transform="translate(63.623047 0)"/>
      </g>
     </g>
    </g>
    <g id="xtick_4">
     <g id="line2d_4">
      <g>
       <use xlink:href="#m27f41eaf11" x="524.717035" y="390.04" style="stroke: #000000; stroke-width: 0.8"/>
      </g>
     </g>
     <g id="text_4">
      <!-- 60 -->
      <g transform="translate(518.354535 404.638438) scale(0.1 -0.1)">
       <defs>
        <path id="DejaVuSans-36" d="M 2113 2584 
Q 1688 2584 1439 2293 
Q 1191 2003 1191 1497 
Q 1191 994 1439 701 
Q 1688 409 2113 409 
Q 2538 409 2786 701 
Q 3034 994 3034 1497 
Q 3034 2003 2786 2293 
Q 2538 2584 2113 2584 
z
M 3366 4563 
L 3366 3988 
Q 3128 4100 2886 4159 
Q 2644 4219 2406 4219 
Q 1781 4219 1451 3797 
Q 1122 3375 1075 2522 
Q 1259 2794 1537 2939 
Q 1816 3084 2150 3084 
Q 2853 3084 3261 2657 
Q 3669 2231 3669 1497 
Q 3669 778 3244 343 
Q 2819 -91 2113 -91 
Q 1303 -91 875 529 
Q 447 1150 447 2328 
Q 447 3434 972 4092 
Q 1497 4750 2381 4750 
Q 2619 4750 2861 4703 
Q 3103 4656 3366 4563 
z
" transform="scale(0.015625)"/>
       </defs>
       <use xlink:href="#DejaVuSans-36"/>
       <use xlink:href="#DejaVuSans-30" transform="translate(63.623047 0)"/>
      </g>
     </g>
    </g>
    <g id="xtick_5">
     <g id="line2d_5">
      <g>
       <use xlink:href="#m27f41eaf11" x="670.742541" y="390.04" style="stroke: #000000; stroke-width: 0.8"/>
      </g>
     </g>
     <g id="text_5">
      <!-- 80 -->
      <g transform="translate(664.380041 404.638438) scale(0.1 -0.1)">
       <defs>
        <path id="DejaVuSans-38" d="M 2034 2216 
Q 1584 2216 1326 1975 
Q 1069 1734 1069 1313 
Q 1069 891 1326 650 
Q 1584 409 2034 409 
Q 2484 409 2743 651 
Q 3003 894 3003 1313 
Q 3003 1734 2745 1975 
Q 2488 2216 2034 2216 
z
M 1403 2484 
Q 997 2584 770 2862 
Q 544 3141 544 3541 
Q 544 4100 942 4425 
Q 1341 4750 2034 4750 
Q 2731 4750 3128 4425 
Q 3525 4100 3525 3541 
Q 3525 3141 3298 2862 
Q 3072 2584 2669 2484 
Q 3125 2378 3379 2068 
Q 3634 1759 3634 1313 
Q 3634 634 3220 271 
Q 2806 -91 2034 -91 
Q 1263 -91 848 271 
Q 434 634 434 1313 
Q 434 1759 690 2068 
Q 947 2378 1403 2484 
z
M 1172 3481 
Q 1172 3119 1398 2916 
Q 1625 2713 2034 2713 
Q 2441 2713 2670 2916 
Q 2900 3119 2900 3481 
Q 2900 3844 2670 4047 
Q 2441 4250 2034 4250 
Q 1625 4250 1398 4047 
Q 1172 3844 1172 3481 
z
" transform="scale(0.015625)"/>
       </defs>
       <use xlink:href="#DejaVuSans-38"/>
       <use xlink:href="#DejaVuSans-30" transform="translate(63.623047 0)"/>
      </g>
     </g>
    </g>
    <g id="xtick_6">
     <g id="line2d_6">
      <g>
       <use xlink:href="#m27f41eaf11" x="816.768047" y="390.04" style="stroke: #000000; stroke-width: 0.8"/>
      </g>
     </g>
     <g id="text_6">
      <!-- 100 -->
      <g transform="translate(807.224297 404.638438) scale(0.1 -0.1)">
       <defs>
        <path id="DejaVuSans-31" d="M 794 531 
L 1825 531 
L 1825 4091 
L 703 3866 
L 703 4441 
L 1819 4666 
L 2450 4666 
L 2450 531 
L 3481 531 
L 3481 0 
L 794 0 
L 794 531 
z
" transform="scale(0.015625)"/>
       </defs>
       <use xlink:href="#DejaVuSans-31"/>
       <use xlink:href="#DejaVuSans-30" transform="translate(63.623047 0)"/>
       <use xlink:href="#DejaVuSans-30" transform="translate(127.246094 0)"/>
      </g>
     </g>
    </g>
    <g id="text_7">
     <!-- Percentile (%) -->
     <g transform="translate(416.764936 418.316562) scale(0.1 -0.1)">
      <defs>
       <path id="DejaVuSans-50" d="M 1259 4147 
L 1259 2394 
L 2053 2394 
Q 2494 2394 2734 2622 
Q 2975 2850 2975 3272 
Q 2975 3691 2734 3919 
Q 2494 4147 2053 4147 
L 1259 4147 
z
M 628 4666 
L 2053 4666 
Q 2838 4666 3239 4311 
Q 3641 3956 3641 3272 
Q 3641 2581 3239 2228 
Q 2838 1875 2053 1875 
L 1259 1875 
L 1259 0 
L 628 0 
L 628 4666 
z
" transform="scale(0.015625)"/>
       <path id="DejaVuSans-65" d="M 3597 1894 
L 3597 1613 
L 953 1613 
Q 991 1019 1311 708 
Q 1631 397 2203 397 
Q 2534 397 2845 478 
Q 3156 559 3463 722 
L 3463 178 
Q 3153 47 2828 -22 
Q 2503 -91 2169 -91 
Q 1331 -91 842 396 
Q 353 884 353 1716 
Q 353 2575 817 3079 
Q 1281 3584 2069 3584 
Q 2775 3584 3186 3129 
Q 3597 2675 3597 1894 
z
M 3022 2063 
Q 3016 2534 2758 2815 
Q 2500 3097 2075 3097 
Q 1594 3097 1305 2825 
Q 1016 2553 972 2059 
L 3022 2063 
z
" transform="scale(0.015625)"/>
       <path id="DejaVuSans-72" d="M 2631 2963 
Q 2534 3019 2420 3045 
Q 2306 3072 2169 3072 
Q 1681 3072 1420 2755 
Q 1159 2438 1159 1844 
L 1159 0 
L 581 0 
L 581 3500 
L 1159 3500 
L 1159 2956 
Q 1341 3275 1631 3429 
Q 1922 3584 2338 3584 
Q 2397 3584 2469 3576 
Q 2541 3569 2628 3553 
L 2631 2963 
z
" transform="scale(0.015625)"/>
       <path id="DejaVuSans-63" d="M 3122 3366 
L 3122 2828 
Q 2878 2963 2633 3030 
Q 2388 3097 2138 3097 
Q 1578 3097 1268 2742 
Q 959 2388 959 1747 
Q 959 1106 1268 751 
Q 1578 397 2138 397 
Q 2388 397 2633 464 
Q 2878 531 3122 666 
L 3122 134 
Q 2881 22 2623 -34 
Q 2366 -91 2075 -91 
Q 1284 -91 818 406 
Q 353 903 353 1747 
Q 353 2603 823 3093 
Q 1294 3584 2113 3584 
Q 2378 3584 2631 3529 
Q 2884 3475 3122 3366 
z
" transform="scale(0.015625)"/>
       <path id="DejaVuSans-6e" d="M 3513 2113 
L 3513 0 
L 2938 0 
L 2938 2094 
Q 2938 2591 2744 2837 
Q 2550 3084 2163 3084 
Q 1697 3084 1428 2787 
Q 1159 2491 1159 1978 
L 1159 0 
L 581 0 
L 581 3500 
L 1159 3500 
L 1159 2956 
Q 1366 3272 1645 3428 
Q 1925 3584 2291 3584 
Q 2894 3584 3203 3211 
Q 3513 2838 3513 2113 
z
" transform="scale(0.015625)"/>
       <path id="DejaVuSans-74" d="M 1172 4494 
L 1172 3500 
L 2356 3500 
L 2356 3053 
L 1172 3053 
L 1172 1153 
Q 1172 725 1289 603 
Q 1406 481 1766 481 
L 2356 481 
L 2356 0 
L 1766 0 
Q 1100 0 847 248 
Q 594 497 594 1153 
L 594 3053 
L 172 3053 
L 172 3500 
L 594 3500 
L 594 4494 
L 1172 4494 
z
" transform="scale(0.015625)"/>
       <path id="DejaVuSans-69" d="M 603 3500 
L 1178 3500 
L 1178 0 
L 603 0 
L 603 3500 
z
M 603 4863 
L 1178 4863 
L 1178 4134 
L 603 4134 
L 603 4863 
z
" transform="scale(0.015625)"/>
       <path id="DejaVuSans-6c" d="M 603 4863 
L 1178 4863 
L 1178 0 
L 603 0 
L 603 4863 
z
" transform="scale(0.015625)"/>
       <path id="DejaVuSans-20" transform="scale(0.015625)"/>
       <path id="DejaVuSans-28" d="M 1984 4856 
Q 1566 4138 1362 3434 
Q 1159 2731 1159 2009 
Q 1159 1288 1364 580 
Q 1569 -128 1984 -844 
L 1484 -844 
Q 1016 -109 783 600 
Q 550 1309 550 2009 
Q 550 2706 781 3412 
Q 1013 4119 1484 4856 
L 1984 4856 
z
" transform="scale(0.015625)"/>
       <path id="DejaVuSans-25" d="M 4653 2053 
Q 4381 2053 4226 1822 
Q 4072 1591 4072 1178 
Q 4072 772 4226 539 
Q 4381 306 4653 306 
Q 4919 306 5073 539 
Q 5228 772 5228 1178 
Q 5228 1588 5073 1820 
Q 4919 2053 4653 2053 
z
M 4653 2450 
Q 5147 2450 5437 2106 
Q 5728 1763 5728 1178 
Q 5728 594 5436 251 
Q 5144 -91 4653 -91 
Q 4153 -91 3862 251 
Q 3572 594 3572 1178 
Q 3572 1766 3864 2108 
Q 4156 2450 4653 2450 
z
M 1428 4353 
Q 1159 4353 1004 4120 
Q 850 3888 850 3481 
Q 850 3069 1003 2837 
Q 1156 2606 1428 2606 
Q 1700 2606 1854 2837 
Q 2009 3069 2009 3481 
Q 2009 3884 1853 4118 
Q 1697 4353 1428 4353 
z
M 4250 4750 
L 4750 4750 
L 1831 -91 
L 1331 -91 
L 4250 4750 
z
M 1428 4750 
Q 1922 4750 2215 4408 
Q 2509 4066 2509 3481 
Q 2509 2891 2217 2550 
Q 1925 2209 1428 2209 
Q 931 2209 642 2551 
Q 353 2894 353 3481 
Q 353 4063 643 4406 
Q 934 4750 1428 4750 
z
" transform="scale(0.015625)"/>
       <path id="DejaVuSans-29" d="M 513 4856 
L 1013 4856 
Q 1481 4119 1714 3412 
Q 1947 2706 1947 2009 
Q 1947 1309 1714 600 
Q 1481 -109 1013 -844 
L 513 -844 
Q 928 -128 1133 580 
Q 1338 1288 1338 2009 
Q 1338 2731 1133 3434 
Q 928 4138 513 4856 
z
" transform="scale(0.015625)"/>
      </defs>
      <use xlink:href="#DejaVuSans-50"/>
      <use xlink:href="#DejaVuSans-65" transform="translate(56.677734 0)"/>
      <use xlink:href="#DejaVuSans-72" transform="translate(118.201172 0)"/>
      <use xlink:href="#DejaVuSans-63" transform="translate(157.064453 0)"/>
      <use xlink:href="#DejaVuSans-65" transform="translate(212.044922 0)"/>
      <use xlink:href="#DejaVuSans-6e" transform="translate(273.568359 0)"/>
      <use xlink:href="#DejaVuSans-74" transform="translate(336.947266 0)"/>
      <use xlink:href="#DejaVuSans-69" transform="translate(376.15625 0)"/>
      <use xlink:href="#DejaVuSans-6c" transform="translate(403.939453 0)"/>
      <use xlink:href="#DejaVuSans-65" transform="translate(431.722656 0)"/>
      <use xlink:href="#DejaVuSans-20" transform="translate(493.246094 0)"/>
      <use xlink:href="#DejaVuSans-28" transform="translate(525.033203 0)"/>
      <use xlink:href="#DejaVuSans-25" transform="translate(564.046875 0)"/>
      <use xlink:href="#DejaVuSans-29" transform="translate(659.066406 0)"/>
     </g>
    </g>
   </g>
   <g id="matplotlib.axis_2">
    <g id="ytick_1">
     <g id="line2d_7">
      <defs>
       <path id="mf9f985a39f" d="M 0 0 
L -3.5 0 
" style="stroke: #000000; stroke-width: 0.8"/>
      </defs>
      <g>
       <use xlink:href="#mf9f985a39f" x="50.137685" y="335.97061" style="stroke: #000000; stroke-width: 0.8"/>
      </g>
     </g>
     <g id="text_8">
      <!-- $\mathdefault{10^{1}}$ -->
      <g transform="translate(25.537685 339.769829) scale(0.1 -0.1)">
       <use xlink:href="#DejaVuSans-31" transform="translate(0 0.684375)"/>
       <use xlink:href="#DejaVuSans-30" transform="translate(63.623047 0.684375)"/>
       <use xlink:href="#DejaVuSans-31" transform="translate(128.203125 38.965625) scale(0.7)"/>
      </g>
     </g>
    </g>
    <g id="ytick_2">
     <g id="line2d_8">
      <g>
       <use xlink:href="#mf9f985a39f" x="50.137685" y="247.397771" style="stroke: #000000; stroke-width: 0.8"/>
      </g>
     </g>
     <g id="text_9">
      <!-- $\mathdefault{10^{2}}$ -->
      <g transform="translate(25.537685 251.19699) scale(0.1 -0.1)">
       <use xlink:href="#DejaVuSans-31" transform="translate(0 0.765625)"/>
       <use xlink:href="#DejaVuSans-30" transform="translate(63.623047 0.765625)"/>
       <use xlink:href="#DejaVuSans-32" transform="translate(128.203125 39.046875) scale(0.7)"/>
      </g>
     </g>
    </g>
    <g id="ytick_3">
     <g id="line2d_9">
      <g>
       <use xlink:href="#mf9f985a39f" x="50.137685" y="158.824933" style="stroke: #000000; stroke-width: 0.8"/>
      </g>
     </g>
     <g id="text_10">
      <!-- $\mathdefault{10^{3}}$ -->
      <g transform="translate(25.537685 162.624151) scale(0.1 -0.1)">
       <defs>
        <path id="DejaVuSans-33" d="M 2597 2516 
Q 3050 2419 3304 2112 
Q 3559 1806 3559 1356 
Q 3559 666 3084 287 
Q 2609 -91 1734 -91 
Q 1441 -91 1130 -33 
Q 819 25 488 141 
L 488 750 
Q 750 597 1062 519 
Q 1375 441 1716 441 
Q 2309 441 2620 675 
Q 2931 909 2931 1356 
Q 2931 1769 2642 2001 
Q 2353 2234 1838 2234 
L 1294 2234 
L 1294 2753 
L 1863 2753 
Q 2328 2753 2575 2939 
Q 2822 3125 2822 3475 
Q 2822 3834 2567 4026 
Q 2313 4219 1838 4219 
Q 1578 4219 1281 4162 
Q 984 4106 628 3988 
L 628 4550 
Q 988 4650 1302 4700 
Q 1616 4750 1894 4750 
Q 2613 4750 3031 4423 
Q 3450 4097 3450 3541 
Q 3450 3153 3228 2886 
Q 3006 2619 2597 2516 
z
" transform="scale(0.015625)"/>
       </defs>
       <use xlink:href="#DejaVuSans-31" transform="translate(0 0.765625)"/>
       <use xlink:href="#DejaVuSans-30" transform="translate(63.623047 0.765625)"/>
       <use xlink:href="#DejaVuSans-33" transform="translate(128.203125 39.046875) scale(0.7)"/>
      </g>
     </g>
    </g>
    <g id="ytick_4">
     <g id="line2d_10">
      <g>
       <use xlink:href="#mf9f985a39f" x="50.137685" y="70.252094" style="stroke: #000000; stroke-width: 0.8"/>
      </g>
     </g>
     <g id="text_11">
      <!-- $\mathdefault{10^{4}}$ -->
      <g transform="translate(25.537685 74.051312) scale(0.1 -0.1)">
       <use xlink:href="#DejaVuSans-31" transform="translate(0 0.684375)"/>
       <use xlink:href="#DejaVuSans-30" transform="translate(63.623047 0.684375)"/>
       <use xlink:href="#DejaVuSans-34" transform="translate(128.203125 38.965625) scale(0.7)"/>
      </g>
     </g>
    </g>
    <g id="ytick_5">
     <g id="line2d_11">
      <defs>
       <path id="m9cbf8534cc" d="M 0 0 
L -2 0 
" style="stroke: #000000; stroke-width: 0.6"/>
      </defs>
      <g>
       <use xlink:href="#m9cbf8534cc" x="50.137685" y="382.283465" style="stroke: #000000; stroke-width: 0.6"/>
      </g>
     </g>
    </g>
    <g id="ytick_6">
     <g id="line2d_12">
      <g>
       <use xlink:href="#m9cbf8534cc" x="50.137685" y="371.217287" style="stroke: #000000; stroke-width: 0.6"/>
      </g>
     </g>
    </g>
    <g id="ytick_7">
     <g id="line2d_13">
      <g>
       <use xlink:href="#m9cbf8534cc" x="50.137685" y="362.633692" style="stroke: #000000; stroke-width: 0.6"/>
      </g>
     </g>
    </g>
    <g id="ytick_8">
     <g id="line2d_14">
      <g>
       <use xlink:href="#m9cbf8534cc" x="50.137685" y="355.620384" style="stroke: #000000; stroke-width: 0.6"/>
      </g>
     </g>
    </g>
    <g id="ytick_9">
     <g id="line2d_15">
      <g>
       <use xlink:href="#m9cbf8534cc" x="50.137685" y="349.690717" style="stroke: #000000; stroke-width: 0.6"/>
      </g>
     </g>
    </g>
    <g id="ytick_10">
     <g id="line2d_16">
      <g>
       <use xlink:href="#m9cbf8534cc" x="50.137685" y="344.554205" style="stroke: #000000; stroke-width: 0.6"/>
      </g>
     </g>
    </g>
    <g id="ytick_11">
     <g id="line2d_17">
      <g>
       <use xlink:href="#m9cbf8534cc" x="50.137685" y="340.023481" style="stroke: #000000; stroke-width: 0.6"/>
      </g>
     </g>
    </g>
    <g id="ytick_12">
     <g id="line2d_18">
      <g>
       <use xlink:href="#m9cbf8534cc" x="50.137685" y="309.307529" style="stroke: #000000; stroke-width: 0.6"/>
      </g>
     </g>
    </g>
    <g id="ytick_13">
     <g id="line2d_19">
      <g>
       <use xlink:href="#m9cbf8534cc" x="50.137685" y="293.710626" style="stroke: #000000; stroke-width: 0.6"/>
      </g>
     </g>
    </g>
    <g id="ytick_14">
     <g id="line2d_20">
      <g>
       <use xlink:href="#m9cbf8534cc" x="50.137685" y="282.644448" style="stroke: #000000; stroke-width: 0.6"/>
      </g>
     </g>
    </g>
    <g id="ytick_15">
     <g id="line2d_21">
      <g>
       <use xlink:href="#m9cbf8534cc" x="50.137685" y="274.060853" style="stroke: #000000; stroke-width: 0.6"/>
      </g>
     </g>
    </g>
    <g id="ytick_16">
     <g id="line2d_22">
      <g>
       <use xlink:href="#m9cbf8534cc" x="50.137685" y="267.047545" style="stroke: #000000; stroke-width: 0.6"/>
      </g>
     </g>
    </g>
    <g id="ytick_17">
     <g id="line2d_23">
      <g>
       <use xlink:href="#m9cbf8534cc" x="50.137685" y="261.117878" style="stroke: #000000; stroke-width: 0.6"/>
      </g>
     </g>
    </g>
    <g id="ytick_18">
     <g id="line2d_24">
      <g>
       <use xlink:href="#m9cbf8534cc" x="50.137685" y="255.981366" style="stroke: #000000; stroke-width: 0.6"/>
      </g>
     </g>
    </g>
    <g id="ytick_19">
     <g id="line2d_25">
      <g>
       <use xlink:href="#m9cbf8534cc" x="50.137685" y="251.450642" style="stroke: #000000; stroke-width: 0.6"/>
      </g>
     </g>
    </g>
    <g id="ytick_20">
     <g id="line2d_26">
      <g>
       <use xlink:href="#m9cbf8534cc" x="50.137685" y="220.73469" style="stroke: #000000; stroke-width: 0.6"/>
      </g>
     </g>
    </g>
    <g id="ytick_21">
     <g id="line2d_27">
      <g>
       <use xlink:href="#m9cbf8534cc" x="50.137685" y="205.137787" style="stroke: #000000; stroke-width: 0.6"/>
      </g>
     </g>
    </g>
    <g id="ytick_22">
     <g id="line2d_28">
      <g>
       <use xlink:href="#m9cbf8534cc" x="50.137685" y="194.071609" style="stroke: #000000; stroke-width: 0.6"/>
      </g>
     </g>
    </g>
    <g id="ytick_23">
     <g id="line2d_29">
      <g>
       <use xlink:href="#m9cbf8534cc" x="50.137685" y="185.488014" style="stroke: #000000; stroke-width: 0.6"/>
      </g>
     </g>
    </g>
    <g id="ytick_24">
     <g id="line2d_30">
      <g>
       <use xlink:href="#m9cbf8534cc" x="50.137685" y="178.474706" style="stroke: #000000; stroke-width: 0.6"/>
      </g>
     </g>
    </g>
    <g id="ytick_25">
     <g id="line2d_31">
      <g>
       <use xlink:href="#m9cbf8534cc" x="50.137685" y="172.545039" style="stroke: #000000; stroke-width: 0.6"/>
      </g>
     </g>
    </g>
    <g id="ytick_26">
     <g id="line2d_32">
      <g>
       <use xlink:href="#m9cbf8534cc" x="50.137685" y="167.408528" style="stroke: #000000; stroke-width: 0.6"/>
      </g>
     </g>
    </g>
    <g id="ytick_27">
     <g id="line2d_33">
      <g>
       <use xlink:href="#m9cbf8534cc" x="50.137685" y="162.877803" style="stroke: #000000; stroke-width: 0.6"/>
      </g>
     </g>
    </g>
    <g id="ytick_28">
     <g id="line2d_34">
      <g>
       <use xlink:href="#m9cbf8534cc" x="50.137685" y="132.161851" style="stroke: #000000; stroke-width: 0.6"/>
      </g>
     </g>
    </g>
    <g id="ytick_29">
     <g id="line2d_35">
      <g>
       <use xlink:href="#m9cbf8534cc" x="50.137685" y="116.564949" style="stroke: #000000; stroke-width: 0.6"/>
      </g>
     </g>
    </g>
    <g id="ytick_30">
     <g id="line2d_36">
      <g>
       <use xlink:href="#m9cbf8534cc" x="50.137685" y="105.49877" style="stroke: #000000; stroke-width: 0.6"/>
      </g>
     </g>
    </g>
    <g id="ytick_31">
     <g id="line2d_37">
      <g>
       <use xlink:href="#m9cbf8534cc" x="50.137685" y="96.915175" style="stroke: #000000; stroke-width: 0.6"/>
      </g>
     </g>
    </g>
    <g id="ytick_32">
     <g id="line2d_38">
      <g>
       <use xlink:href="#m9cbf8534cc" x="50.137685" y="89.901867" style="stroke: #000000; stroke-width: 0.6"/>
      </g>
     </g>
    </g>
    <g id="ytick_33">
     <g id="line2d_39">
      <g>
       <use xlink:href="#m9cbf8534cc" x="50.137685" y="83.9722" style="stroke: #000000; stroke-width: 0.6"/>
      </g>
     </g>
    </g>
    <g id="ytick_34">
     <g id="line2d_40">
      <g>
       <use xlink:href="#m9cbf8534cc" x="50.137685" y="78.835689" style="stroke: #000000; stroke-width: 0.6"/>
      </g>
     </g>
    </g>
    <g id="ytick_35">
     <g id="line2d_41">
      <g>
       <use xlink:href="#m9cbf8534cc" x="50.137685" y="74.304964" style="stroke: #000000; stroke-width: 0.6"/>
      </g>
     </g>
    </g>
    <g id="ytick_36">
     <g id="line2d_42">
      <g>
       <use xlink:href="#m9cbf8534cc" x="50.137685" y="43.589012" style="stroke: #000000; stroke-width: 0.6"/>
      </g>
     </g>
    </g>
    <g id="text_12">
     <!-- Duration (ms) -->
     <g transform="translate(19.457997 250.62925) rotate(-90) scale(0.1 -0.1)">
      <defs>
       <path id="DejaVuSans-44" d="M 1259 4147 
L 1259 519 
L 2022 519 
Q 2988 519 3436 956 
Q 3884 1394 3884 2338 
Q 3884 3275 3436 3711 
Q 2988 4147 2022 4147 
L 1259 4147 
z
M 628 4666 
L 1925 4666 
Q 3281 4666 3915 4102 
Q 4550 3538 4550 2338 
Q 4550 1131 3912 565 
Q 3275 0 1925 0 
L 628 0 
L 628 4666 
z
" transform="scale(0.015625)"/>
       <path id="DejaVuSans-75" d="M 544 1381 
L 544 3500 
L 1119 3500 
L 1119 1403 
Q 1119 906 1312 657 
Q 1506 409 1894 409 
Q 2359 409 2629 706 
Q 2900 1003 2900 1516 
L 2900 3500 
L 3475 3500 
L 3475 0 
L 2900 0 
L 2900 538 
Q 2691 219 2414 64 
Q 2138 -91 1772 -91 
Q 1169 -91 856 284 
Q 544 659 544 1381 
z
M 1991 3584 
L 1991 3584 
z
" transform="scale(0.015625)"/>
       <path id="DejaVuSans-61" d="M 2194 1759 
Q 1497 1759 1228 1600 
Q 959 1441 959 1056 
Q 959 750 1161 570 
Q 1363 391 1709 391 
Q 2188 391 2477 730 
Q 2766 1069 2766 1631 
L 2766 1759 
L 2194 1759 
z
M 3341 1997 
L 3341 0 
L 2766 0 
L 2766 531 
Q 2569 213 2275 61 
Q 1981 -91 1556 -91 
Q 1019 -91 701 211 
Q 384 513 384 1019 
Q 384 1609 779 1909 
Q 1175 2209 1959 2209 
L 2766 2209 
L 2766 2266 
Q 2766 2663 2505 2880 
Q 2244 3097 1772 3097 
Q 1472 3097 1187 3025 
Q 903 2953 641 2809 
L 641 3341 
Q 956 3463 1253 3523 
Q 1550 3584 1831 3584 
Q 2591 3584 2966 3190 
Q 3341 2797 3341 1997 
z
" transform="scale(0.015625)"/>
       <path id="DejaVuSans-6f" d="M 1959 3097 
Q 1497 3097 1228 2736 
Q 959 2375 959 1747 
Q 959 1119 1226 758 
Q 1494 397 1959 397 
Q 2419 397 2687 759 
Q 2956 1122 2956 1747 
Q 2956 2369 2687 2733 
Q 2419 3097 1959 3097 
z
M 1959 3584 
Q 2709 3584 3137 3096 
Q 3566 2609 3566 1747 
Q 3566 888 3137 398 
Q 2709 -91 1959 -91 
Q 1206 -91 779 398 
Q 353 888 353 1747 
Q 353 2609 779 3096 
Q 1206 3584 1959 3584 
z
" transform="scale(0.015625)"/>
       <path id="DejaVuSans-6d" d="M 3328 2828 
Q 3544 3216 3844 3400 
Q 4144 3584 4550 3584 
Q 5097 3584 5394 3201 
Q 5691 2819 5691 2113 
L 5691 0 
L 5113 0 
L 5113 2094 
Q 5113 2597 4934 2840 
Q 4756 3084 4391 3084 
Q 3944 3084 3684 2787 
Q 3425 2491 3425 1978 
L 3425 0 
L 2847 0 
L 2847 2094 
Q 2847 2600 2669 2842 
Q 2491 3084 2119 3084 
Q 1678 3084 1418 2786 
Q 1159 2488 1159 1978 
L 1159 0 
L 581 0 
L 581 3500 
L 1159 3500 
L 1159 2956 
Q 1356 3278 1631 3431 
Q 1906 3584 2284 3584 
Q 2666 3584 2933 3390 
Q 3200 3197 3328 2828 
z
" transform="scale(0.015625)"/>
       <path id="DejaVuSans-73" d="M 2834 3397 
L 2834 2853 
Q 2591 2978 2328 3040 
Q 2066 3103 1784 3103 
Q 1356 3103 1142 2972 
Q 928 2841 928 2578 
Q 928 2378 1081 2264 
Q 1234 2150 1697 2047 
L 1894 2003 
Q 2506 1872 2764 1633 
Q 3022 1394 3022 966 
Q 3022 478 2636 193 
Q 2250 -91 1575 -91 
Q 1294 -91 989 -36 
Q 684 19 347 128 
L 347 722 
Q 666 556 975 473 
Q 1284 391 1588 391 
Q 1994 391 2212 530 
Q 2431 669 2431 922 
Q 2431 1156 2273 1281 
Q 2116 1406 1581 1522 
L 1381 1569 
Q 847 1681 609 1914 
Q 372 2147 372 2553 
Q 372 3047 722 3315 
Q 1072 3584 1716 3584 
Q 2034 3584 2315 3537 
Q 2597 3491 2834 3397 
z
" transform="scale(0.015625)"/>
      </defs>
      <use xlink:href="#DejaVuSans-44"/>
      <use xlink:href="#DejaVuSans-75" transform="translate(77.001953 0)"/>
      <use xlink:href="#DejaVuSans-72" transform="translate(140.380859 0)"/>
      <use xlink:href="#DejaVuSans-61" transform="translate(181.494141 0)"/>
      <use xlink:href="#DejaVuSans-74" transform="translate(242.773438 0)"/>
      <use xlink:href="#DejaVuSans-69" transform="translate(281.982422 0)"/>
      <use xlink:href="#DejaVuSans-6f" transform="translate(309.765625 0)"/>
      <use xlink:href="#DejaVuSans-6e" transform="translate(370.947266 0)"/>
      <use xlink:href="#DejaVuSans-20" transform="translate(434.326172 0)"/>
      <use xlink:href="#DejaVuSans-28" transform="translate(466.113281 0)"/>
      <use xlink:href="#DejaVuSans-6d" transform="translate(505.126953 0)"/>
      <use xlink:href="#DejaVuSans-73" transform="translate(602.539062 0)"/>
      <use xlink:href="#DejaVuSans-29" transform="translate(654.638672 0)"/>
     </g>
    </g>
   </g>
   <g id="line2d_43">
    <path d="M 86.640517 362.673572 
L 86.782276 326.143395 
L 86.994914 326.040649 
L 87.561948 325.948409 
L 88.34162 325.835925 
L 89.33393 325.586633 
L 89.759206 325.497323 
L 90.467999 325.308468 
L 93.30317 324.759438 
L 96.067462 324.556387 
L 96.563617 324.51292 
L 103.509787 323.976627 
L 104.785615 323.782277 
L 105.28177 323.71105 
L 105.494407 323.618437 
L 106.132321 323.462644 
L 106.344959 323.320661 
L 106.628476 323.211108 
L 107.19551 322.566708 
L 107.479027 322.012642 
L 107.904303 321.804949 
L 108.116941 321.461549 
L 108.2587 321.361411 
L 108.471337 321.026633 
L 108.613096 320.927 
L 108.754855 320.759762 
L 109.038372 320.366997 
L 109.321889 320.137564 
L 109.818044 319.824696 
L 110.101561 319.25569 
L 110.24332 319.222626 
L 110.385078 318.900938 
L 111.022992 318.51936 
L 111.16475 317.947471 
L 111.23563 317.855213 
L 111.377388 317.523519 
L 111.731785 317.213316 
L 112.015302 316.482247 
L 112.369698 315.484145 
L 112.865853 315.01147 
L 113.14937 314.549954 
L 113.362008 314.303117 
L 113.645525 313.728092 
L 113.716405 313.692336 
L 113.787284 313.518998 
L 113.999922 312.579189 
L 114.283439 312.160166 
L 114.425198 311.451673 
L 114.566956 311.386044 
L 114.921353 310.69287 
L 115.488387 309.994511 
L 115.701025 309.070802 
L 116.055421 307.684931 
L 116.480697 307.121485 
L 116.764214 306.261588 
L 117.047731 304.176656 
L 117.18949 303.836013 
L 117.473007 303.428297 
L 117.614765 302.678882 
L 117.898283 302.543803 
L 118.11092 302.387886 
L 119.10323 302.194609 
L 127.11259 301.524108 
L 127.892262 301.458195 
L 130.727433 301.111865 
L 131.010951 301.041688 
L 132.145019 300.863079 
L 132.428536 300.766468 
L 133.06645 300.523276 
L 133.279088 300.390436 
L 133.491726 300.194032 
L 133.917001 299.915804 
L 134.129639 299.750307 
L 134.200518 299.71758 
L 134.413156 299.355481 
L 134.554915 299.325788 
L 134.767553 299.136994 
L 136.752173 298.017602 
L 137.03569 297.695373 
L 137.957121 296.536121 
L 138.098879 296.05205 
L 138.311517 295.900327 
L 138.665914 295.086025 
L 138.807672 295.006382 
L 139.02031 294.575398 
L 139.232948 294.484866 
L 139.374706 294.188622 
L 139.516465 294.159298 
L 139.658224 293.105052 
L 140.01262 292.36009 
L 140.296137 292.324883 
L 140.508775 291.999067 
L 140.650534 291.810686 
L 140.863171 291.036684 
L 141.00493 290.988924 
L 141.571964 289.856316 
L 141.784602 289.759737 
L 141.855481 289.704466 
L 142.138999 289.045454 
L 142.847791 288.052925 
L 142.918671 288.04861 
L 143.202188 287.550768 
L 143.343946 287.464398 
L 143.556584 287.281618 
L 144.407136 286.234369 
L 144.619774 286.132077 
L 144.903291 285.769221 
L 145.186808 285.457546 
L 145.257687 285.36606 
L 145.399446 285.001008 
L 145.682963 284.688926 
L 146.037359 284.099414 
L 146.179118 283.671622 
L 146.817031 283.396426 
L 147.384066 282.783425 
L 147.596704 282.565316 
L 147.667583 282.500157 
L 147.9511 281.588469 
L 148.163738 281.46872 
L 148.659893 280.747392 
L 148.872531 280.64035 
L 149.014289 280.53822 
L 149.226927 280.21478 
L 149.439565 279.640689 
L 149.652203 279.530823 
L 149.864841 279.093754 
L 150.431875 278.59295 
L 150.715392 278.382309 
L 150.92803 278.296004 
L 151.282426 277.885584 
L 151.495064 277.594059 
L 151.565944 277.592939 
L 151.991219 276.996382 
L 152.132978 276.8771 
L 152.345616 276.354126 
L 152.558254 276.219704 
L 152.841771 275.879959 
L 153.267047 275.691611 
L 153.408805 275.403679 
L 153.763202 275.22746 
L 154.046719 274.836951 
L 154.471994 274.727485 
L 154.542874 274.701417 
L 154.684632 274.523153 
L 154.968149 274.414076 
L 155.180787 274.157969 
L 155.393425 273.653522 
L 155.606063 273.449477 
L 156.173097 272.826512 
L 156.740132 272.500574 
L 157.519804 272.00412 
L 157.803321 271.895226 
L 158.015959 271.677478 
L 158.299476 271.543485 
L 158.512114 271.510549 
L 158.653872 271.186042 
L 158.795631 270.744616 
L 159.079148 270.591517 
L 159.291786 270.170718 
L 159.646182 269.925423 
L 160.284096 269.527644 
L 160.922009 269.068023 
L 161.205527 268.610289 
L 161.489044 268.391894 
L 162.623112 267.953457 
L 162.764871 267.696339 
L 163.544543 267.297359 
L 163.82806 266.969775 
L 164.749491 266.603616 
L 164.962129 266.328597 
L 165.174767 266.204251 
L 165.88356 265.957962 
L 166.096197 265.715819 
L 167.442904 264.898824 
L 168.222576 264.115741 
L 168.576972 264.051489 
L 169.002248 263.760883 
L 169.214886 263.680366 
L 169.427524 263.50405 
L 169.8528 263.244562 
L 170.632472 262.756251 
L 170.77423 262.733475 
L 170.986868 262.484153 
L 171.128627 262.447706 
L 171.341265 262.129317 
L 171.483023 262.0174 
L 171.624782 261.968711 
L 171.979178 261.311688 
L 172.333575 261.06188 
L 172.687971 260.93791 
L 174.247315 260.218743 
L 174.601712 259.992465 
L 176.940728 258.811973 
L 177.224245 258.642537 
L 177.862159 258.498693 
L 178.287435 258.276161 
L 178.500072 258.247209 
L 178.641831 258.048709 
L 178.78359 257.989653 
L 178.996227 257.835756 
L 179.279745 257.575942 
L 179.846779 257.422097 
L 180.626451 256.979302 
L 180.909968 256.870413 
L 184.73745 255.564452 
L 185.020967 255.378046 
L 185.233605 255.277156 
L 185.517122 255.186592 
L 186.084156 255.082146 
L 186.296794 255.020581 
L 186.934708 254.82891 
L 188.423173 253.971407 
L 188.70669 253.809312 
L 189.061086 253.660175 
L 189.202845 253.554943 
L 189.840758 253.347878 
L 189.982517 253.210405 
L 190.195155 253.137415 
L 190.407793 253.011662 
L 190.762189 252.884738 
L 191.187465 252.723569 
L 192.250654 252.314924 
L 192.959447 252.138951 
L 193.455602 251.893979 
L 193.526481 251.884532 
L 193.66824 251.731233 
L 194.093516 251.560118 
L 194.306153 251.447901 
L 195.014946 251.252087 
L 195.298463 251.142941 
L 195.723739 251.014142 
L 196.219894 250.70939 
L 196.574291 250.570944 
L 196.786928 250.371367 
L 197.424842 250.239501 
L 197.779238 250.07015 
L 197.920997 250.014936 
L 198.133635 249.886212 
L 199.409462 249.39591 
L 199.692979 249.291011 
L 200.61441 249.059296 
L 201.039686 248.914133 
L 202.244633 248.694854 
L 202.528151 248.577584 
L 203.378702 248.365399 
L 205.292443 247.730297 
L 205.859477 247.576391 
L 206.710028 247.359384 
L 207.206183 247.240886 
L 208.056735 247.066972 
L 208.482011 246.991456 
L 208.836407 246.876503 
L 209.5452 246.659913 
L 209.899596 246.570609 
L 211.104544 246.241902 
L 211.52982 246.093545 
L 211.742458 246.01326 
L 212.451251 245.887543 
L 213.089164 245.696869 
L 213.372681 245.613388 
L 213.585319 245.501192 
L 213.868836 245.417827 
L 214.223233 245.247792 
L 215.569939 244.913915 
L 216.704008 244.48673 
L 216.987525 244.310686 
L 217.838076 244.040086 
L 218.192473 243.958664 
L 218.546869 243.835434 
L 219.043024 243.531774 
L 219.680938 243.374169 
L 219.964455 243.254097 
L 220.318851 243.175886 
L 220.531489 243.036409 
L 221.098524 242.923039 
L 222.232592 242.421485 
L 225.493039 241.256977 
L 225.847436 241.162515 
L 226.130953 241.040366 
L 226.556229 240.870008 
L 227.973814 240.507971 
L 228.328211 240.378971 
L 229.887555 239.843014 
L 230.312831 239.73139 
L 230.525469 239.688497 
L 230.738107 239.503919 
L 233.715037 238.653562 
L 234.423829 238.509252 
L 234.919984 238.335512 
L 238.534828 237.428867 
L 238.747466 237.304978 
L 239.668897 237.16936 
L 240.519448 237.011968 
L 242.220551 236.598174 
L 242.929344 236.482812 
L 243.141982 236.377472 
L 243.709016 236.277258 
L 244.134292 236.089766 
L 244.488688 235.951306 
L 245.410119 235.731775 
L 247.607377 235.328903 
L 249.875514 234.927999 
L 250.159031 234.792148 
L 250.726065 234.687325 
L 251.22222 234.524586 
L 252.568927 234.206749 
L 253.348599 233.992755 
L 254.766185 233.671792 
L 256.042012 233.491807 
L 256.538167 233.387107 
L 257.034322 233.270164 
L 258.097511 233.125614 
L 258.593666 232.936063 
L 261.924993 232.415336 
L 262.492027 232.323763 
L 263.20082 232.212862 
L 263.980492 231.939689 
L 267.311818 231.178822 
L 267.524456 231.101256 
L 269.083801 230.817487 
L 269.296438 230.708751 
L 271.706334 230.291782 
L 271.918972 230.215079 
L 273.194799 229.948252 
L 273.407437 229.867314 
L 274.187109 229.719291 
L 274.470626 229.65663 
L 279.573935 228.771915 
L 280.495366 228.591762 
L 281.487676 228.45384 
L 284.181089 227.918038 
L 285.173399 227.758405 
L 298.994859 225.027304 
L 299.420135 224.934316 
L 299.845411 224.823655 
L 300.554204 224.706664 
L 301.050359 224.622386 
L 305.515754 223.847555 
L 305.728392 223.748578 
L 306.437184 223.602526 
L 306.720702 223.545483 
L 308.776201 223.376299 
L 309.130597 223.274423 
L 310.90258 223.076438 
L 312.674562 222.779887 
L 313.241596 222.658269 
L 315.79325 222.359456 
L 316.147647 222.279055 
L 317.352595 222.141474 
L 320.116887 221.68454 
L 320.896559 221.556128 
L 321.180076 221.404266 
L 322.314145 221.265244 
L 323.164696 221.067761 
L 326.850419 220.430903 
L 328.409763 220.153671 
L 328.69328 220.048596 
L 329.969108 219.879111 
L 330.394383 219.81423 
L 332.308124 219.543493 
L 333.513072 219.337369 
L 334.576261 219.223751 
L 335.63945 219.058973 
L 336.135606 218.984666 
L 336.844398 218.909021 
L 337.127916 218.848434 
L 338.829018 218.613902 
L 339.821328 218.463997 
L 341.451552 218.215235 
L 345.491671 217.597142 
L 345.775188 217.524884 
L 348.185084 217.181272 
L 352.296083 216.4223 
L 353.075755 216.31652 
L 353.359272 216.220932 
L 354.351582 216.089283 
L 360.659839 215.184981 
L 362.644459 214.901732 
L 362.998855 214.815491 
L 363.565889 214.707789 
L 364.274682 214.534945 
L 367.960405 214.16202 
L 369.732387 213.913592 
L 377.245592 212.891885 
L 378.025264 212.78386 
L 380.860435 212.383016 
L 381.569228 212.25765 
L 383.553848 212.058703 
L 402.549497 209.36014 
L 403.045652 209.248722 
L 404.604996 209.039113 
L 405.597306 208.918206 
L 406.589616 208.781146 
L 408.928633 208.400381 
L 410.346218 208.272431 
L 412.543476 208.079668 
L 413.252269 207.96022 
L 414.315458 207.848272 
L 414.740734 207.732153 
L 415.733044 207.623156 
L 416.016561 207.574196 
L 419.206129 207.047381 
L 421.474266 206.861629 
L 423.742404 206.608632 
L 424.663834 206.415998 
L 425.443506 206.30914 
L 426.294058 206.167567 
L 430.192419 205.822119 
L 431.610004 205.648033 
L 433.240228 205.5007 
L 443.801242 204.270837 
L 444.793552 204.147053 
L 445.218827 204.096942 
L 448.195757 203.840597 
L 448.621033 203.781881 
L 451.597963 203.383508 
L 453.369945 203.245812 
L 454.220497 203.164418 
L 455.283686 203.060966 
L 455.638082 202.989117 
L 457.126547 202.875936 
L 457.90622 202.779008 
L 459.252926 202.643701 
L 459.89084 202.557847 
L 461.166667 202.451624 
L 462.442494 202.327027 
L 462.938649 202.28401 
L 464.356235 202.091559 
L 466.340855 201.92976 
L 467.191406 201.808071 
L 473.641421 201.056651 
L 474.846369 200.937264 
L 476.051317 200.847665 
L 483.493642 200.05306 
L 484.202435 199.932899 
L 486.257934 199.761568 
L 492.566191 198.968558 
L 492.849708 198.891295 
L 493.912897 198.794361 
L 494.763449 198.658517 
L 495.968396 198.526257 
L 496.535431 198.435568 
L 498.874447 198.118189 
L 501.780498 197.780113 
L 502.772808 197.618909 
L 504.54479 197.460608 
L 506.316772 197.238144 
L 508.655789 197.017084 
L 509.364582 196.922566 
L 510.356892 196.797013 
L 512.199753 196.563171 
L 515.105804 196.332462 
L 516.239872 196.211429 
L 516.806907 196.113693 
L 517.019544 196.025855 
L 518.578889 195.847056 
L 519.004164 195.79162 
L 520.634388 195.611643 
L 533.038263 194.277873 
L 533.534418 194.202798 
L 534.739366 194.103523 
L 535.731676 193.982251 
L 538.212451 193.718195 
L 538.637727 193.652002 
L 544.30807 193.092606 
L 547.781155 192.799147 
L 549.482258 192.592658 
L 550.687206 192.481 
L 551.325119 192.350258 
L 552.033912 192.276675 
L 556.286669 191.816 
L 557.2081 191.702821 
L 560.893823 191.29774 
L 561.248219 191.245687 
L 567.981751 190.527379 
L 568.265269 190.480848 
L 569.044941 190.366023 
L 571.313078 190.128985 
L 572.021871 190.02417 
L 572.518026 189.952791 
L 576.629024 189.549008 
L 577.408697 189.440365 
L 578.188369 189.336888 
L 578.401007 189.264522 
L 580.456506 188.956634 
L 581.094419 188.898204 
L 582.441126 188.759601 
L 587.119159 188.143437 
L 588.820262 187.968855 
L 589.670813 187.835552 
L 593.852691 187.261268 
L 595.624673 187.046749 
L 596.120828 186.958058 
L 597.113138 186.84827 
L 600.160947 186.483327 
L 600.515344 186.334624 
L 617.880769 184.116289 
L 618.235165 184.038381 
L 618.873079 183.91562 
L 619.510993 183.816878 
L 624.330784 183.187696 
L 624.897818 183.059204 
L 628.158266 182.626535 
L 628.7253 182.52406 
L 629.504972 182.355842 
L 630.426403 182.194644 
L 632.481902 181.818383 
L 635.387953 181.278599 
L 635.67147 181.135872 
L 636.592901 180.98982 
L 638.6484 180.724207 
L 639.286314 180.609409 
L 640.065986 180.408683 
L 641.554451 180.165341 
L 641.979726 180.098917 
L 642.688519 179.989052 
L 644.60226 179.503721 
L 645.381932 179.367985 
L 651.406672 178.350364 
L 651.690189 178.293161 
L 652.328102 178.185698 
L 652.54074 178.092385 
L 653.320412 177.94777 
L 659.132514 176.900698 
L 659.345152 176.755849 
L 659.912186 176.621907 
L 660.195703 176.491668 
L 661.400651 176.267306 
L 662.605599 175.833152 
L 662.818237 175.746384 
L 663.385271 175.640043 
L 664.944615 175.245968 
L 665.51165 175.143279 
L 666.078684 175.042162 
L 666.787477 174.912276 
L 667.212752 174.78198 
L 667.992425 174.646736 
L 670.189682 174.259716 
L 670.4732 174.163183 
L 671.111113 174.008953 
L 671.39463 173.901086 
L 672.103423 173.775458 
L 672.38694 173.608831 
L 672.953975 173.468578 
L 673.662767 173.326506 
L 674.796836 172.928622 
L 675.789146 172.745519 
L 676.143543 172.672807 
L 679.971024 171.558996 
L 680.750696 171.401524 
L 681.38861 171.268422 
L 681.672127 171.205018 
L 681.813885 171.103124 
L 682.593558 170.931532 
L 682.947954 170.814895 
L 684.436419 170.557245 
L 684.861695 170.378453 
L 685.641367 170.197099 
L 685.995763 170.126997 
L 686.208401 170.043042 
L 686.704556 169.941311 
L 686.988073 169.890624 
L 688.193021 169.571198 
L 688.618297 169.411052 
L 689.32709 169.228358 
L 689.539728 169.118195 
L 690.035883 169.003792 
L 692.020503 168.535555 
L 692.445778 168.388218 
L 693.083692 168.25387 
L 694.501278 167.857582 
L 695.351829 167.673755 
L 695.493588 167.538823 
L 696.27326 167.323907 
L 696.840294 167.245373 
L 696.982053 167.109326 
L 698.683156 166.75478 
L 698.966673 166.548843 
L 700.526017 166.137769 
L 700.809534 166.007386 
L 701.23481 165.919418 
L 702.22712 165.816141 
L 708.18098 164.165889 
L 708.393618 164.029075 
L 709.244169 163.821088 
L 709.527686 163.749355 
L 709.952962 163.652792 
L 711.087031 163.491751 
L 711.937582 163.241774 
L 712.362858 163.12537 
L 713.14253 162.90609 
L 713.426047 162.700112 
L 717.182649 161.705181 
L 717.466166 161.609027 
L 718.174959 161.423749 
L 718.883752 161.213805 
L 719.734304 161.032659 
L 721.577165 160.555538 
L 721.931562 160.402332 
L 722.994751 160.240668 
L 723.420027 160.108645 
L 724.270578 159.803876 
L 724.908492 159.664573 
L 725.829922 159.41055 
L 727.03487 158.96763 
L 727.531025 158.798054 
L 727.885422 158.662724 
L 731.216748 157.888934 
L 732.067299 157.735458 
L 732.705213 157.580418 
L 733.130489 157.467578 
L 734.264557 157.267844 
L 735.185988 156.995498 
L 735.682143 156.773469 
L 741.91952 154.967254 
L 742.273917 154.794607 
L 743.337106 154.586932 
L 743.620623 154.463316 
L 744.400295 154.249473 
L 744.96733 154.045113 
L 746.739312 153.768288 
L 747.306346 153.554659 
L 747.94426 153.435357 
L 748.156898 153.330254 
L 748.794811 153.200932 
L 753.118448 152.319527 
L 753.401965 152.178284 
L 754.81955 151.777886 
L 755.457464 151.677508 
L 756.662412 151.317297 
L 761.056928 150.521065 
L 761.482203 150.418522 
L 762.049238 150.327671 
L 762.545393 150.126088 
L 763.466823 149.917506 
L 764.317375 149.733622 
L 764.884409 149.629752 
L 767.436063 148.782774 
L 767.719581 148.714119 
L 769.845959 148.125954 
L 770.058597 148.017979 
L 771.192666 147.438282 
L 774.73663 146.698455 
L 775.232785 146.51572 
L 775.445423 146.421046 
L 775.587181 146.286267 
L 776.225095 146.164432 
L 778.776749 145.485013 
L 779.131146 145.28425 
L 779.556421 145.209567 
L 779.839939 145.083818 
L 780.194335 145.003321 
L 780.406973 144.89519 
L 781.399283 144.513815 
L 781.611921 144.256986 
L 783.171265 143.925609 
L 784.092696 143.610058 
L 784.872368 143.43265 
L 785.65204 143.282551 
L 786.148195 143.10461 
L 786.856988 142.814966 
L 787.140505 142.651856 
L 787.849298 142.380025 
L 787.991056 142.19332 
L 788.841608 141.977815 
L 789.337763 141.756198 
L 789.904797 141.605239 
L 790.117435 141.469146 
L 790.330073 141.267063 
L 790.826228 141.041939 
L 791.109745 140.926912 
L 791.535021 140.734985 
L 792.243814 140.37227 
L 792.739969 139.826712 
L 792.881727 139.728273 
L 793.094365 139.608746 
L 794.58283 138.848585 
L 795.149864 138.722431 
L 795.433382 138.407819 
L 796.142174 138.119937 
L 796.921847 137.64711 
L 797.347122 137.481942 
L 797.488881 137.258114 
L 797.843277 137.138916 
L 798.126794 137.000503 
L 798.268553 136.902256 
L 798.410312 136.749676 
L 798.622949 136.390819 
L 798.977346 136.24527 
L 799.473501 135.874811 
L 800.53669 135.149156 
L 800.820207 134.930579 
L 800.961966 134.838916 
L 801.741638 134.321224 
L 802.166914 134.208537 
L 803.088344 133.603051 
L 803.300982 133.516226 
L 803.655379 133.261236 
L 803.868017 133.194043 
L 804.080655 132.999727 
L 804.57681 132.755271 
L 804.789447 132.481979 
L 804.860327 132.474973 
L 805.072965 132.284066 
L 805.285602 132.130354 
L 805.427361 131.998172 
L 805.49824 131.976829 
L 805.710878 131.749918 
L 806.207033 131.370043 
L 808.262532 129.658858 
L 808.404291 129.221054 
L 808.47517 129.156199 
L 808.758687 128.413281 
L 809.042205 128.086407 
L 809.396601 127.738142 
L 809.892756 126.951745 
L 810.176273 126.786127 
L 810.388911 126.185657 
L 811.097704 125.412182 
L 811.168583 125.40634 
L 811.381221 125.169681 
L 811.948255 124.697741 
L 812.302652 123.680208 
L 813.861996 119.974896 
L 814.287272 119.647121 
L 814.49991 119.164804 
L 814.570789 119.095332 
L 814.783427 118.123341 
L 814.854306 118.088523 
L 814.925185 117.904287 
L 815.137823 116.734649 
L 815.208702 116.718793 
L 815.42134 116.404436 
L 815.633978 113.781535 
L 815.775737 113.44721 
L 815.988375 111.599338 
L 816.342771 107.368969 
L 816.697167 98.792208 
L 816.697167 98.792208 
" clip-path="url(#p9a385b2d78)" style="fill: none; stroke: #1f77b4; stroke-width: 1.5; stroke-linecap: square"/>
   </g>
   <g id="line2d_44">
    <path d="M 86.640517 374.213455 
L 86.893157 325.91992 
L 88.156353 324.445509 
L 88.408992 324.356564 
L 88.661632 324.055077 
L 88.914271 322.979198 
L 89.16691 322.931742 
L 89.672189 322.484578 
L 89.924828 321.882428 
L 90.177467 321.581096 
L 90.430107 318.590787 
L 90.682746 318.209194 
L 91.188024 317.995988 
L 91.693303 314.191689 
L 91.945942 309.929523 
L 92.198582 286.940253 
L 92.451221 285.700069 
L 92.70386 281.065331 
L 93.461778 275.879825 
L 93.714417 275.864781 
L 94.472335 264.166086 
L 94.977614 260.121914 
L 95.230253 260.004202 
L 95.482892 258.44242 
L 95.988171 258.251633 
L 96.493449 257.020807 
L 96.746089 256.593484 
L 97.251367 255.403719 
L 97.504006 255.361119 
L 97.756646 255.175025 
L 98.009285 254.159379 
L 98.261924 254.107412 
L 98.514564 253.886751 
L 98.767203 253.500348 
L 99.019842 251.594554 
L 99.77776 250.928592 
L 100.030399 248.010945 
L 100.535678 247.087124 
L 100.788317 246.827453 
L 101.040956 246.085068 
L 101.546235 245.717968 
L 101.798874 245.155827 
L 102.304153 244.649964 
L 102.556792 243.97914 
L 102.809431 243.93433 
L 103.062071 243.370482 
L 103.31471 243.273194 
L 103.567349 242.976541 
L 103.819989 242.961886 
L 104.325267 241.161968 
L 105.083185 239.943937 
L 105.335824 239.916549 
L 106.093742 238.808587 
L 106.599021 238.697363 
L 107.356939 237.770031 
L 107.609578 237.677242 
L 108.114856 236.515862 
L 108.367496 235.722965 
L 108.620135 235.512426 
L 108.872774 234.777513 
L 109.125414 234.751847 
L 109.378053 234.593583 
L 109.630692 233.954759 
L 109.883331 233.67259 
L 110.135971 232.967406 
L 110.641249 232.35135 
L 111.146528 229.668726 
L 111.399167 229.192184 
L 111.651806 229.181364 
L 111.904446 228.443066 
L 112.157085 228.385656 
L 112.662363 226.501029 
L 112.915003 225.568819 
L 113.672921 224.403878 
L 113.92556 224.26125 
L 114.178199 223.68435 
L 114.683478 223.59362 
L 115.441396 222.297098 
L 115.946674 221.943618 
L 116.199313 221.368607 
L 116.704592 221.02573 
L 116.957231 220.802828 
L 117.209871 220.753122 
L 117.46251 220.345997 
L 117.967788 219.99725 
L 118.725706 218.877197 
L 119.230985 218.532819 
L 119.736263 218.102468 
L 120.241542 217.595762 
L 120.494181 216.849444 
L 120.746821 216.845332 
L 120.99946 216.626596 
L 121.252099 216.619461 
L 121.757378 216.219403 
L 122.262656 216.048937 
L 122.767935 215.571379 
L 123.020574 214.316128 
L 123.273213 214.287841 
L 123.525853 213.715731 
L 123.778492 213.548703 
L 124.031131 212.485139 
L 124.53641 211.426229 
L 124.789049 211.417399 
L 125.041688 210.739542 
L 125.799606 209.769753 
L 126.304885 208.361007 
L 126.557524 206.812302 
L 128.325999 205.6788 
L 128.578638 205.166755 
L 129.083917 204.86619 
L 129.336556 204.858733 
L 129.841835 203.920138 
L 130.852392 203.254281 
L 131.105031 203.245377 
L 131.35767 203.029049 
L 131.61031 202.521193 
L 132.368228 202.325808 
L 132.873506 202.171116 
L 133.378785 201.728832 
L 133.631424 200.941598 
L 133.884063 200.907178 
L 134.389342 200.149707 
L 134.641981 200.135296 
L 134.89462 199.316664 
L 135.14726 199.178469 
L 135.399899 199.171489 
L 135.652538 198.311718 
L 135.905178 198.272165 
L 136.915735 197.302151 
L 137.168374 196.579121 
L 137.673653 196.403996 
L 137.926292 196.077638 
L 138.178931 195.943251 
L 138.43157 195.596287 
L 138.936849 195.424999 
L 139.694767 195.006715 
L 139.947406 194.963833 
L 141.210603 193.876439 
L 141.463242 192.638456 
L 141.715881 192.362987 
L 142.22116 190.722094 
L 142.473799 190.507716 
L 142.726438 190.12558 
L 143.736995 189.99991 
L 145.50547 187.17576 
L 145.75811 186.941718 
L 146.010749 186.900543 
L 146.263388 186.47102 
L 147.021306 186.099861 
L 147.273945 185.729916 
L 148.031863 185.373116 
L 148.284502 183.94665 
L 148.789781 183.049145 
L 149.29506 183.018969 
L 150.052977 182.474261 
L 151.316174 181.961581 
L 151.821452 181.257226 
L 152.326731 181.225924 
L 152.57937 180.975436 
L 152.83201 180.946185 
L 153.337288 180.270533 
L 153.589927 180.249665 
L 154.095206 179.853753 
L 154.347845 179.839572 
L 154.600485 179.501829 
L 155.105763 179.446673 
L 155.358402 178.974548 
L 155.611042 178.95683 
L 156.621599 178.395134 
L 156.874238 178.377017 
L 157.379517 178.156117 
L 157.884795 177.937885 
L 158.390074 177.465836 
L 159.147992 177.350826 
L 159.400631 177.278642 
L 159.65327 176.755727 
L 159.90591 176.570972 
L 161.169106 176.263778 
L 161.421745 176.188528 
L 161.674384 175.845531 
L 163.19022 175.198255 
L 163.442859 175.178795 
L 163.948138 174.983775 
L 165.716613 174.44078 
L 165.969252 174.435095 
L 166.979809 173.98804 
L 167.485088 173.784581 
L 167.737727 173.502851 
L 167.990367 173.411544 
L 168.495645 172.46017 
L 169.000924 172.210813 
L 169.758842 171.876229 
L 170.011481 171.813669 
L 170.26412 171.528166 
L 170.769399 171.382398 
L 171.274677 171.09862 
L 171.527317 170.762283 
L 171.779956 170.188481 
L 172.032595 170.17737 
L 172.537874 169.638521 
L 173.043152 169.006617 
L 173.548431 168.855976 
L 173.80107 168.491306 
L 174.811627 168.235521 
L 175.064267 167.845069 
L 175.316906 167.736987 
L 175.569545 167.231588 
L 175.822184 167.171808 
L 176.074824 166.657372 
L 176.327463 166.534034 
L 176.580102 166.204457 
L 176.832742 166.103282 
L 177.33802 165.602071 
L 178.853856 165.071644 
L 179.106495 164.78495 
L 180.369691 164.609635 
L 181.127609 164.239306 
L 181.885527 164.141402 
L 182.138166 163.801491 
L 182.390806 163.755286 
L 182.896084 163.519191 
L 183.654002 163.41648 
L 184.664559 163.247212 
L 184.917199 163.049642 
L 185.927756 162.769873 
L 186.938313 161.72292 
L 187.696231 161.55005 
L 188.706788 161.359738 
L 189.717345 161.145999 
L 191.991099 160.404543 
L 192.243738 160.223597 
L 194.517491 159.987436 
L 195.02277 159.842787 
L 197.549163 159.453466 
L 198.812359 159.389892 
L 199.317638 159.283207 
L 200.833473 159.149883 
L 202.601948 159.039215 
L 203.612506 158.941419 
L 210.686406 158.169161 
L 214.728634 157.546116 
L 215.739191 157.430527 
L 218.770863 157.01773 
L 220.034059 156.941048 
L 220.791977 156.766994 
L 222.307813 156.651003 
L 225.339484 156.43388 
L 226.097402 156.320856 
L 229.129073 156.054169 
L 229.634352 155.950969 
L 230.39227 155.892797 
L 232.160745 155.786639 
L 233.171302 155.694007 
L 235.697695 155.546538 
L 237.971448 155.36298 
L 242.013677 155.244311 
L 244.034791 155.14275 
L 253.382444 154.875791 
L 259.193148 154.729647 
L 263.993294 154.533769 
L 277.888455 153.70376 
L 280.667487 153.580207 
L 283.699158 153.487846 
L 285.720273 153.386288 
L 291.530976 153.172743 
L 295.825844 153.041178 
L 296.836401 152.985554 
L 301.131269 152.872771 
L 302.141826 152.838769 
L 315.02643 152.383871 
L 316.036987 152.332901 
L 317.552822 152.193722 
L 318.816019 152.108279 
L 321.089772 151.984974 
L 327.658394 151.667161 
L 334.732294 151.454876 
L 355.448715 150.801447 
L 358.227747 150.532954 
L 365.049008 149.838626 
L 368.585958 149.709126 
L 382.986397 148.846017 
L 384.502233 148.74133 
L 385.007511 148.551016 
L 385.51279 148.422614 
L 393.091968 147.707634 
L 393.597247 147.599216 
L 394.355165 146.775422 
L 394.607804 146.52013 
L 395.365722 146.299448 
L 395.618361 146.051016 
L 396.628918 145.91638 
L 397.386836 145.709966 
L 397.892115 145.276595 
L 398.144754 145.224452 
L 398.650032 144.938595 
L 399.155311 144.716162 
L 399.40795 144.379906 
L 399.66059 144.330227 
L 399.913229 144.01442 
L 400.418507 143.767619 
L 400.671147 142.784759 
L 400.923786 142.749207 
L 401.429065 142.508882 
L 402.186982 142.150084 
L 402.439622 141.266903 
L 403.702818 140.636012 
L 403.955457 140.172098 
L 404.460736 140.028332 
L 405.471293 139.749002 
L 405.976572 139.128564 
L 406.229211 138.736018 
L 406.48185 137.903751 
L 406.987129 137.608843 
L 407.239768 137.177209 
L 407.745047 136.951989 
L 407.997686 136.897942 
L 408.250325 136.674972 
L 409.008243 136.447199 
L 409.260882 136.167819 
L 409.513522 136.103337 
L 409.766161 135.383272 
L 410.0188 135.202941 
L 410.27144 135.192276 
L 410.776718 134.17852 
L 411.029357 134.024228 
L 411.281997 133.70415 
L 411.787275 131.407295 
L 412.039915 130.318553 
L 412.292554 130.293239 
L 412.545193 128.651832 
L 412.797832 128.218892 
L 413.050472 128.059354 
L 413.303111 127.360224 
L 413.55575 125.700555 
L 414.313668 124.471348 
L 414.566307 124.281742 
L 414.818947 123.530358 
L 415.324225 123.267611 
L 416.334782 121.226226 
L 416.587422 121.219898 
L 417.0927 121.002287 
L 417.597979 120.975013 
L 418.103257 120.374453 
L 418.355897 120.166623 
L 418.608536 119.638749 
L 418.861175 119.425095 
L 419.871732 119.274609 
L 420.124372 119.101057 
L 420.62965 117.753774 
L 420.882289 117.238654 
L 421.387568 117.040688 
L 421.640207 116.708412 
L 422.398125 116.632608 
L 422.903404 116.31443 
L 423.156043 115.782194 
L 423.408682 115.762572 
L 423.661322 115.329156 
L 425.429797 115.089425 
L 425.935075 114.825986 
L 426.187714 114.785374 
L 426.692993 114.212776 
L 427.198272 113.986131 
L 427.70355 113.71781 
L 428.208829 113.561646 
L 428.461468 113.429502 
L 428.966747 112.829436 
L 429.219386 112.626105 
L 430.735221 112.360832 
L 431.493139 112.255238 
L 432.503696 111.480822 
L 433.008975 111.380932 
L 433.766893 110.617972 
L 434.524811 110.365046 
L 435.030089 110.233587 
L 435.535368 110.144472 
L 436.040646 109.874758 
L 437.051204 109.551906 
L 437.556482 109.426007 
L 437.809121 109.13646 
L 438.3144 109.047391 
L 439.324957 108.95336 
L 440.335514 108.405067 
L 440.588154 108.403631 
L 441.346071 108.022027 
L 441.598711 107.739029 
L 441.85135 107.730885 
L 442.356629 107.534273 
L 443.367186 107.475467 
L 443.619825 107.308866 
L 444.377743 107.276081 
L 444.630382 106.900857 
L 444.883021 106.872227 
L 445.135661 106.668152 
L 446.651496 106.293035 
L 446.904136 106.180119 
L 447.156775 105.562636 
L 447.409414 105.440987 
L 447.662053 105.182782 
L 447.914693 104.150481 
L 448.672611 103.880023 
L 448.92525 103.767267 
L 449.177889 103.510878 
L 449.430528 103.49368 
L 449.935807 102.961835 
L 450.441086 102.903138 
L 450.693725 102.530903 
L 450.946364 102.471355 
L 451.199003 101.587519 
L 451.451643 101.473671 
L 451.704282 100.997844 
L 451.956921 100.986569 
L 452.209561 100.595439 
L 452.714839 100.498386 
L 452.967478 99.693872 
L 453.472757 99.508784 
L 453.725396 99.187423 
L 453.978036 99.050529 
L 454.483314 98.994826 
L 454.735953 98.728089 
L 455.493871 98.597605 
L 455.746511 98.428347 
L 455.99915 97.975196 
L 456.251789 97.932995 
L 456.504428 97.719089 
L 457.767625 97.423033 
L 458.272903 97.08658 
L 459.030821 96.931387 
L 459.283461 96.314512 
L 460.041378 96.12846 
L 461.557214 95.655963 
L 461.809853 95.438743 
L 462.567771 95.38197 
L 463.07305 95.258254 
L 465.852082 94.639224 
L 466.104721 94.486228 
L 466.61 94.410154 
L 467.620557 93.48939 
L 468.125835 93.317431 
L 468.883753 93.251327 
L 469.641671 92.887633 
L 469.89431 92.823725 
L 470.14695 92.458671 
L 470.399589 92.449144 
L 470.904868 92.195688 
L 471.662785 92.042187 
L 471.915425 92.028229 
L 472.420703 91.742751 
L 472.925982 91.668399 
L 473.178621 91.668359 
L 473.936539 91.34012 
L 474.441818 91.238228 
L 477.22085 90.530333 
L 477.726128 90.511565 
L 477.978768 90.018629 
L 478.484046 89.901769 
L 479.747243 89.554166 
L 480.50516 89.478506 
L 481.263078 89.13521 
L 481.768357 89.031882 
L 482.273635 88.862537 
L 483.284192 88.652263 
L 485.052667 88.509252 
L 485.305307 88.22638 
L 486.315864 88.11921 
L 487.073782 88.040384 
L 487.57906 87.920889 
L 489.347535 87.75853 
L 489.852814 87.684518 
L 493.389764 87.473468 
L 494.147682 87.402241 
L 494.400321 87.395068 
L 494.65296 87.236086 
L 500.716303 86.960616 
L 501.72686 86.904184 
L 506.021728 86.70001 
L 506.779646 86.631153 
L 508.80076 86.515648 
L 512.085071 86.36602 
L 514.106185 86.232591 
L 524.464396 85.831214 
L 548.212488 85.095332 
L 549.728324 85.008826 
L 556.296945 84.763639 
L 570.950024 84.228238 
L 576.00281 84.058535 
L 578.276563 84.002576 
L 585.097824 83.840268 
L 588.887413 83.702747 
L 592.677002 83.55887 
L 593.687559 83.483422 
L 601.772016 83.285365 
L 613.140784 82.949369 
L 615.667177 82.859196 
L 628.80442 82.556503 
L 659.373773 81.647614 
L 673.521573 81.248364 
L 676.047966 81.09024 
L 683.374505 80.954265 
L 690.195766 80.780011 
L 701.311894 80.538581 
L 711.164826 80.235289 
L 718.491365 80.075817 
L 723.544151 79.861353 
L 729.607494 79.617483 
L 732.639165 79.493444 
L 736.428755 79.355639 
L 738.19723 79.237854 
L 738.702508 79.166234 
L 742.744737 79.030902 
L 747.039605 78.864669 
L 750.829194 78.760032 
L 751.587112 78.698012 
L 753.860865 78.632227 
L 756.892537 78.514825 
L 760.429487 78.3441 
L 765.482272 78.121919 
L 766.998108 78.037755 
L 792.514676 76.751284 
L 794.030511 76.610193 
L 799.335936 76.205344 
L 799.841215 76.061889 
L 801.35705 75.951492 
L 801.862329 75.815194 
L 803.630804 75.717422 
L 806.915115 75.307766 
L 807.673033 75.251518 
L 808.178311 75.240983 
L 808.68359 75.020103 
L 809.694147 74.773086 
L 810.452065 74.496045 
L 812.22054 74.253351 
L 812.725818 73.906777 
L 814.241654 73.612621 
L 814.746933 73.216518 
L 815.252211 73.035613 
L 815.50485 72.871857 
L 816.010129 71.829627 
L 816.515407 70.696424 
L 816.515407 70.696424 
" clip-path="url(#p9a385b2d78)" style="fill: none; stroke: #ff7f0e; stroke-width: 1.5; stroke-linecap: square"/>
   </g>
   <g id="line2d_45">
    <path d="M 86.640517 366.600894 
L 86.800985 326.004192 
L 87.202154 325.688858 
L 87.844024 325.359319 
L 88.004492 325.029782 
L 88.80683 324.794593 
L 90.331272 324.491808 
L 90.892908 324.399664 
L 91.13361 324.292964 
L 92.978987 324.045179 
L 93.299922 323.923164 
L 93.861559 323.855297 
L 94.10226 323.781142 
L 95.065066 323.687546 
L 96.830209 323.481784 
L 97.311612 323.439192 
L 99.477924 323.148106 
L 101.0826 322.980995 
L 108.544343 322.227772 
L 109.74785 322.078642 
L 115.283982 321.055755 
L 115.604917 320.97621 
L 116.08632 320.879075 
L 116.246787 320.632433 
L 116.72819 320.497711 
L 116.968892 320.389418 
L 117.610762 320.041018 
L 118.734035 319.387317 
L 119.295672 319.215887 
L 119.456139 319.031515 
L 119.696841 318.982665 
L 120.09801 318.610256 
L 120.659646 318.319432 
L 120.980581 318.242041 
L 121.141049 318.018033 
L 121.221283 317.988416 
L 121.38175 317.620174 
L 121.622452 317.528394 
L 121.863153 317.395777 
L 122.103854 316.837193 
L 122.184088 316.766862 
L 122.42479 316.154011 
L 122.745725 315.667162 
L 123.548063 314.748314 
L 123.949232 314.244982 
L 124.029465 314.224323 
L 124.270167 313.643356 
L 124.350401 313.595724 
L 124.510868 313.208928 
L 125.313206 312.484603 
L 126.195778 311.618594 
L 126.436479 311.387195 
L 126.837648 311.078095 
L 126.998116 310.870929 
L 127.559752 310.525751 
L 128.201623 309.677801 
L 129.244662 308.481878 
L 129.485364 308.29368 
L 130.367935 307.709359 
L 131.090039 307.330741 
L 131.330741 307.200334 
L 131.892377 306.305133 
L 132.052845 306.23187 
L 132.293546 305.872412 
L 132.534248 305.526179 
L 132.855183 304.880751 
L 133.095884 304.644536 
L 133.336586 304.46911 
L 133.817988 304.103229 
L 133.978456 303.610655 
L 134.379625 303.030018 
L 134.540093 303.004405 
L 134.780794 302.698781 
L 135.342431 302.325682 
L 135.904067 302.161171 
L 137.428509 301.913633 
L 137.669211 301.808156 
L 140.076224 301.508139 
L 140.39716 301.452463 
L 141.440199 301.327214 
L 142.001835 301.279331 
L 144.328615 301.018246 
L 144.649551 300.921184 
L 146.173993 300.755973 
L 152.03106 299.846813 
L 152.67293 299.692969 
L 153.154333 299.601576 
L 153.475268 299.517059 
L 154.35784 299.387763 
L 154.678775 299.246994 
L 157.085789 298.308985 
L 157.486958 298.054265 
L 157.968361 297.821629 
L 158.36953 297.659943 
L 158.529997 297.565711 
L 158.850932 297.392253 
L 159.091634 297.265364 
L 159.492803 296.969515 
L 159.813738 296.567078 
L 161.578881 295.812883 
L 161.819583 295.557466 
L 162.060284 295.379098 
L 162.220752 295.220225 
L 162.942856 294.944169 
L 163.02309 294.934593 
L 163.263791 294.745044 
L 163.584726 294.554618 
L 163.66496 294.513738 
L 163.825428 294.230286 
L 164.30683 294.057205 
L 164.627765 293.853086 
L 164.948701 293.747768 
L 165.189402 293.423604 
L 165.911506 292.896154 
L 166.473143 292.61937 
L 166.713844 292.341771 
L 167.275481 292.029329 
L 167.67665 291.927906 
L 167.997585 291.805944 
L 168.31852 291.647964 
L 168.398754 291.646674 
L 168.719689 291.343535 
L 168.880157 291.2165 
L 169.120858 290.959497 
L 170.163897 290.149904 
L 170.805768 289.421637 
L 171.447638 289.190735 
L 171.929041 288.898158 
L 172.089508 288.857082 
L 172.33021 288.685152 
L 174.416288 287.366743 
L 175.138393 286.938134 
L 175.459328 286.845054 
L 175.860497 286.679646 
L 176.101198 286.538936 
L 176.743068 286.06331 
L 176.903536 285.940708 
L 177.465173 285.581032 
L 177.786108 285.258051 
L 177.946575 285.219725 
L 178.267511 285.034177 
L 179.551251 284.468608 
L 179.791953 284.192818 
L 180.273355 283.954355 
L 181.557096 283.4598 
L 181.717564 283.074224 
L 182.118733 282.751377 
L 182.359434 282.676509 
L 182.519902 282.412311 
L 182.760603 282.306331 
L 183.081538 282.152446 
L 183.643175 281.880663 
L 184.60598 281.480931 
L 185.007149 281.101975 
L 185.488552 280.70127 
L 187.735098 278.940217 
L 189.018839 278.411806 
L 189.25954 278.180439 
L 189.821177 277.665499 
L 190.30258 277.504325 
L 190.543281 277.282861 
L 191.425853 276.865132 
L 191.58632 276.707191 
L 192.308425 276.562402 
L 193.351464 276.042235 
L 194.153802 275.745883 
L 195.196841 275.014827 
L 195.59801 274.842076 
L 195.999179 274.52641 
L 196.560816 274.240256 
L 197.28292 273.750521 
L 197.523621 273.679168 
L 197.844556 273.400223 
L 198.005024 273.362407 
L 198.165492 273.228519 
L 198.486427 273.148979 
L 198.807362 272.885797 
L 199.048063 272.859534 
L 199.288765 272.659044 
L 200.010869 272.405936 
L 200.973674 271.822863 
L 201.695779 271.333583 
L 201.93648 271.231337 
L 202.257415 270.947789 
L 202.498116 270.73634 
L 202.658584 270.503423 
L 202.979519 269.993582 
L 203.862091 269.424529 
L 204.102792 269.2057 
L 204.423728 269.14104 
L 204.824897 268.992402 
L 205.226065 268.544584 
L 206.188871 268.168978 
L 206.509806 267.523227 
L 206.59004 267.520968 
L 206.910975 267.187454 
L 207.633079 266.979595 
L 208.676119 266.627929 
L 208.91682 266.414425 
L 209.398223 266.282751 
L 209.638924 266.106336 
L 209.879626 266.018551 
L 210.120327 265.855559 
L 210.521496 265.747364 
L 210.762197 265.603789 
L 212.206406 264.709372 
L 212.607575 264.094653 
L 213.008744 263.829373 
L 213.409913 263.658042 
L 213.811081 263.541003 
L 213.891315 263.540481 
L 214.051783 263.41715 
L 215.415757 262.990184 
L 217.903005 261.930286 
L 218.384408 261.620137 
L 219.186746 261.311497 
L 219.427447 261.103329 
L 219.748382 260.952792 
L 220.470486 260.48609 
L 220.711188 260.427095 
L 221.032123 260.199464 
L 221.754227 259.976101 
L 221.994929 259.821757 
L 223.439137 259.025117 
L 223.840306 258.776295 
L 224.883345 258.352455 
L 225.124046 258.140849 
L 225.444982 257.991215 
L 226.327553 257.678299 
L 226.808956 257.46052 
L 227.129891 257.314005 
L 227.290359 257.042343 
L 227.53106 256.925351 
L 227.691528 256.824884 
L 228.092697 256.722517 
L 228.895035 256.508764 
L 229.21597 256.409777 
L 229.938074 255.966094 
L 230.499711 255.704825 
L 231.061347 255.465748 
L 231.302049 255.34362 
L 232.906725 254.778744 
L 233.067192 254.609281 
L 233.789296 254.465689 
L 234.110231 254.392076 
L 234.5114 254.227891 
L 234.671868 254.078126 
L 235.073037 254.032148 
L 235.474206 253.693159 
L 236.035843 253.553762 
L 236.356778 253.451744 
L 236.918414 253.294902 
L 237.159116 253.185813 
L 238.202155 252.806358 
L 238.52309 252.366503 
L 238.924259 252.262264 
L 239.325428 251.881717 
L 239.806831 251.703472 
L 240.127766 251.550336 
L 241.090572 251.249919 
L 242.133611 250.98129 
L 242.374312 250.851253 
L 242.53478 250.783916 
L 242.775481 250.690095 
L 243.898754 250.394258 
L 244.059222 250.249339 
L 244.620859 250.132778 
L 244.86156 250.073025 
L 245.50343 249.93833 
L 245.984833 249.787103 
L 246.626703 249.524697 
L 246.787171 249.268384 
L 246.867405 249.26591 
L 247.108106 249.085726 
L 247.83021 248.789458 
L 249.194185 248.199941 
L 249.434886 248.086986 
L 249.675588 248.002209 
L 249.916289 247.860837 
L 251.681432 247.304111 
L 252.082601 247.185948 
L 252.243069 247.005837 
L 253.045407 246.811806 
L 261.550189 243.973292 
L 263.074631 243.78192 
L 263.315333 243.6215 
L 263.636268 243.486449 
L 264.037437 243.367844 
L 264.197904 243.190492 
L 265.16071 242.95107 
L 265.401411 242.794195 
L 268.209594 241.894817 
L 268.450296 241.828065 
L 268.690997 241.718782 
L 269.413101 241.575383 
L 271.017777 241.0861 
L 271.418946 240.964744 
L 271.980582 240.756322 
L 272.301518 240.643157 
L 273.82596 240.183858 
L 274.307362 240.111596 
L 274.548064 240.025048 
L 275.189934 239.875827 
L 275.751571 239.715246 
L 276.473675 239.499788 
L 277.757416 239.292803 
L 278.158585 239.165931 
L 278.47952 239.042821 
L 281.44817 238.203381 
L 281.769105 238.07718 
L 283.13308 237.71095 
L 283.454015 237.604502 
L 283.935418 237.421322 
L 284.497054 237.275091 
L 285.219159 237.10575 
L 285.540094 237.018859 
L 285.780795 236.953345 
L 286.502899 236.852217 
L 286.984302 236.709738 
L 288.268043 236.518924 
L 288.829679 236.341376 
L 289.150614 236.276894 
L 291.236693 235.62121 
L 293.723941 235.061123 
L 294.044876 234.959338 
L 294.76698 234.839376 
L 296.050721 234.632949 
L 296.371656 234.526684 
L 296.853059 234.421133 
L 301.907788 232.968868 
L 302.950827 232.748192 
L 303.512464 232.554916 
L 303.672931 232.41329 
L 304.395035 232.222032 
L 304.635737 232.160507 
L 305.438075 231.967712 
L 305.75901 231.891561 
L 306.802049 231.651851 
L 306.962517 231.513766 
L 308.246258 231.332493 
L 308.72766 231.20252 
L 309.529998 231.008715 
L 311.535843 230.415118 
L 312.338181 230.205597 
L 313.702156 229.766313 
L 314.103325 229.527697 
L 314.905662 229.33914 
L 315.868468 229.229728 
L 320.040625 228.166068 
L 321.565067 227.88318 
L 321.805769 227.759912 
L 332.236162 225.074706 
L 333.68037 224.721938 
L 334.322241 224.551147 
L 335.044345 224.442858 
L 340.420009 223.505098 
L 340.821178 223.392257 
L 341.142113 223.321786 
L 341.543282 223.224883 
L 341.783984 223.120613 
L 342.34562 222.993767 
L 342.666555 222.840994 
L 343.549127 222.70799 
L 344.592166 222.385815 
L 349.967831 221.427387 
L 350.369 221.228438 
L 351.492273 221.098237 
L 352.214377 220.892941 
L 352.776013 220.703355 
L 353.498118 220.538924 
L 354.220222 220.332108 
L 354.862092 220.192581 
L 355.102794 220.081119 
L 355.985365 219.924071 
L 358.63308 219.28491 
L 359.274951 219.180173 
L 359.916821 218.98074 
L 360.398224 218.772031 
L 360.799393 218.645202 
L 361.280796 218.480294 
L 362.163367 218.238161 
L 362.404069 218.124848 
L 363.607576 217.962249 
L 364.249446 217.813621 
L 364.97155 217.708599 
L 365.693654 217.515488 
L 365.934356 217.478016 
L 366.175057 217.365174 
L 366.897161 217.25413 
L 367.940201 217.069497 
L 369.143708 216.884054 
L 369.865812 216.705978 
L 370.908851 216.576487 
L 372.914696 216.212875 
L 373.155397 216.106449 
L 382.542751 214.403894 
L 382.783453 214.276251 
L 384.067193 214.046067 
L 385.110233 213.837156 
L 386.714909 213.516556 
L 387.59748 213.322015 
L 387.838182 213.25931 
L 388.961455 213.091734 
L 389.523091 212.959286 
L 391.127767 212.708858 
L 391.368469 212.640493 
L 391.528936 212.619274 
L 391.769638 212.483325 
L 392.973144 212.356304 
L 393.374313 212.237279 
L 393.695249 212.137521 
L 394.417353 211.980401 
L 394.658054 211.85104 
L 396.342964 211.564897 
L 403.162836 210.616007 
L 411.988554 209.140926 
L 412.871126 208.99324 
L 413.192061 208.855956 
L 414.395568 208.632107 
L 416.56188 208.149735 
L 417.283984 208.030559 
L 417.765387 207.921903 
L 419.129361 207.740799 
L 420.814271 207.512144 
L 421.054973 207.45968 
L 422.659648 207.245033 
L 423.461986 207.094902 
L 423.782922 207.071451 
L 423.943389 206.928934 
L 424.665493 206.815925 
L 433.972613 205.152291 
L 434.694718 204.998606 
L 437.181965 204.503777 
L 438.385472 204.398466 
L 438.866875 204.3461 
L 440.070382 204.164228 
L 440.87272 204.042398 
L 441.273889 203.959439 
L 442.236694 203.862184 
L 443.1995 203.747798 
L 444.082072 203.599978 
L 444.804176 203.520058 
L 445.125111 203.442728 
L 445.606514 203.369781 
L 445.927449 203.266961 
L 446.408852 203.169059 
L 446.970488 203.080434 
L 447.451891 202.984542 
L 449.939139 202.526468 
L 451.463581 202.34596 
L 451.704282 202.283409 
L 454.512465 201.853447 
L 454.913634 201.765394 
L 457.079946 201.452592 
L 457.481115 201.377493 
L 458.443921 201.27227 
L 459.567194 201.152184 
L 462.535844 200.791493 
L 464.541689 200.452256 
L 465.985897 200.258895 
L 466.226599 200.194549 
L 471.12086 199.65268 
L 471.682497 199.521056 
L 473.848809 199.23642 
L 474.49068 199.14077 
L 474.811615 199.073128 
L 475.293018 198.977368 
L 475.694187 198.895739 
L 478.020967 198.545437 
L 478.662837 198.495307 
L 480.42798 198.193287 
L 480.989617 198.121788 
L 481.711721 198.01249 
L 485.723411 197.456703 
L 486.686216 197.350613 
L 487.247853 197.204037 
L 487.568788 197.104727 
L 488.45136 196.946835 
L 489.574633 196.801529 
L 491.580478 196.565031 
L 492.061881 196.499683 
L 495.110765 196.121462 
L 495.993337 195.96853 
L 498.721286 195.453484 
L 499.764325 195.305385 
L 503.294612 194.8498 
L 503.776015 194.768825 
L 504.498119 194.653 
L 505.059755 194.522273 
L 506.183028 194.316606 
L 506.905133 194.167365 
L 508.10864 193.972665 
L 508.509808 193.837965 
L 514.04594 192.970684 
L 514.366875 192.900417 
L 519.261137 192.198631 
L 519.822774 192.137505 
L 522.470489 191.739005 
L 523.513528 191.596849 
L 524.957736 191.427022 
L 528.969426 190.819483 
L 529.851998 190.706934 
L 530.895037 190.567581 
L 532.579947 190.370686 
L 532.900882 190.288176 
L 538.437014 189.526912 
L 540.121924 189.361103 
L 540.523092 189.256994 
L 541.967301 189.047032 
L 552.076759 187.713406 
L 552.638395 187.608207 
L 557.452423 186.889936 
L 557.853592 186.793864 
L 558.334995 186.674661 
L 560.34084 186.322609 
L 560.581541 186.2136 
L 562.507152 185.92331 
L 563.389724 185.831608 
L 564.272296 185.727453 
L 565.63627 185.529571 
L 571.653805 184.644382 
L 571.97474 184.551975 
L 573.178247 184.439558 
L 573.579416 184.366552 
L 574.702689 184.144243 
L 575.184092 184.072012 
L 584.009809 182.499342 
L 584.410978 182.384229 
L 586.176122 182.125674 
L 587.299395 182.013296 
L 587.62033 181.902755 
L 588.663369 181.722837 
L 592.434357 181.032445 
L 592.91576 180.916486 
L 594.119267 180.727596 
L 594.520436 180.6771 
L 595.162307 180.59967 
L 595.483242 180.536665 
L 599.655399 179.838973 
L 611.369533 177.754052 
L 611.850936 177.658905 
L 612.492806 177.549108 
L 612.974209 177.441675 
L 613.856781 177.336534 
L 614.177716 177.23867 
L 614.89982 177.091694 
L 617.547535 176.537744 
L 618.590574 176.358203 
L 618.91151 176.275994 
L 620.115017 176.099599 
L 620.837121 175.957342 
L 621.318523 175.839285 
L 622.842966 175.502917 
L 625.731382 174.941206 
L 626.694188 174.818206 
L 627.255824 174.643607 
L 628.619799 174.358376 
L 629.101202 174.257332 
L 629.662838 174.087787 
L 630.625644 173.979556 
L 631.989618 173.76313 
L 632.471021 173.666005 
L 632.952424 173.552406 
L 633.915229 173.414935 
L 635.19897 173.199256 
L 636.643178 172.970856 
L 637.445516 172.783266 
L 641.858375 172.056788 
L 642.901414 171.800864 
L 643.623518 171.696042 
L 647.47474 171.019883 
L 648.437546 170.831683 
L 649.239884 170.645344 
L 649.881754 170.549592 
L 651.165495 170.355765 
L 651.887599 170.233907 
L 652.128301 170.147443 
L 653.331807 169.985867 
L 655.257419 169.590442 
L 655.899289 169.48304 
L 657.343497 169.186806 
L 657.985368 169.064335 
L 658.46677 168.925393 
L 664.002902 167.803806 
L 664.965708 167.593055 
L 665.527344 167.42844 
L 665.848279 167.350243 
L 666.570384 167.232925 
L 667.613423 167.016761 
L 668.255293 166.874793 
L 669.378566 166.664383 
L 669.940203 166.466072 
L 670.742541 166.352997 
L 671.063476 166.243093 
L 673.630957 165.76148 
L 673.871659 165.66125 
L 674.673997 165.453621 
L 675.476335 165.218851 
L 675.717036 165.092372 
L 677.000777 164.897594 
L 680.531064 163.983283 
L 681.172934 163.869016 
L 681.333402 163.741829 
L 686.468365 162.450684 
L 687.671872 162.249402 
L 689.918418 161.80393 
L 690.560288 161.474657 
L 693.047536 160.808251 
L 693.368471 160.72531 
L 694.010341 160.515599 
L 694.331276 160.326577 
L 694.652212 160.243906 
L 695.133614 160.119946 
L 709.094295 156.808574 
L 709.575697 156.705635 
L 710.698971 156.414218 
L 711.340841 156.249669 
L 711.74201 156.030354 
L 712.223413 155.893317 
L 712.704815 155.702722 
L 713.346686 155.588197 
L 714.309491 155.416841 
L 714.951362 155.190772 
L 715.352531 155.031045 
L 715.593232 154.962138 
L 716.235102 154.864942 
L 716.636271 154.688164 
L 717.117674 154.602287 
L 718.240947 154.357363 
L 718.802584 154.211632 
L 722.493338 153.495786 
L 722.653806 153.364808 
L 723.054975 153.260872 
L 723.456144 153.102719 
L 723.857313 152.907569 
L 724.900352 152.74377 
L 725.301521 152.559265 
L 725.622456 152.474576 
L 725.943391 152.376697 
L 726.264327 152.294008 
L 726.585262 152.197111 
L 726.825963 152.008063 
L 727.146898 151.950292 
L 727.548067 151.855702 
L 727.708535 151.749136 
L 728.430639 151.655707 
L 730.596952 151.000623 
L 731.880692 150.759088 
L 732.121394 150.625491 
L 733.485368 150.35554 
L 735.491213 149.797403 
L 736.213317 149.630171 
L 736.935421 149.294488 
L 737.416824 149.210729 
L 737.657525 149.066802 
L 738.780799 148.85556 
L 739.0215 148.748551 
L 739.342435 148.639498 
L 742.230852 147.808531 
L 742.471553 147.71703 
L 742.952956 147.541689 
L 743.193657 147.434231 
L 743.514592 147.327115 
L 743.995995 147.167237 
L 745.119268 146.914081 
L 745.921606 146.744668 
L 747.847217 146.271746 
L 748.087919 146.157753 
L 748.32862 146.073444 
L 748.729789 145.93345 
L 749.371659 145.81426 
L 749.451893 145.801243 
L 749.692595 145.519548 
L 749.933296 145.407085 
L 750.093764 145.208826 
L 750.494933 145.09668 
L 751.056569 144.933123 
L 752.260076 144.508843 
L 753.784518 144.172261 
L 754.265921 143.845589 
L 755.068259 143.652385 
L 755.30896 143.50943 
L 758.598546 142.611736 
L 758.839247 142.530511 
L 759.240416 142.442525 
L 759.96252 142.330614 
L 760.203222 142.189783 
L 761.166027 142.003029 
L 761.326495 141.841607 
L 761.64743 141.711336 
L 761.888131 141.402425 
L 762.209067 141.268446 
L 763.412573 140.714755 
L 764.214911 140.560199 
L 765.498652 140.044359 
L 765.980055 139.911595 
L 766.220756 139.809529 
L 767.504497 139.513972 
L 767.905666 139.283274 
L 768.306835 139.119576 
L 768.948705 138.926471 
L 769.430108 138.750451 
L 769.751043 138.604124 
L 769.991745 138.386734 
L 771.034784 138.072085 
L 771.195252 137.897334 
L 771.837122 137.706215 
L 772.398758 137.5928 
L 773.842967 137.131005 
L 774.565071 136.703001 
L 774.725538 136.580143 
L 774.96624 136.475062 
L 775.046474 136.47331 
L 775.206941 136.205317 
L 776.490682 135.558541 
L 777.453487 134.989296 
L 777.854656 134.839823 
L 778.095358 134.725852 
L 779.218631 134.318213 
L 779.379099 134.117238 
L 782.748918 132.654283 
L 782.909386 132.490622 
L 783.230321 132.329455 
L 784.193126 131.661824 
L 784.353594 131.466283 
L 785.075698 131.046456 
L 785.316399 130.892916 
L 785.797802 130.690371 
L 786.921075 129.693422 
L 787.081543 129.397208 
L 788.124582 128.530391 
L 788.204816 128.52177 
L 788.365284 128.371217 
L 788.605985 128.245778 
L 789.087388 127.866533 
L 789.408323 127.716954 
L 790.852531 126.860718 
L 791.012999 126.581843 
L 791.89557 126.218359 
L 792.136272 126.088856 
L 792.216506 126.077836 
L 793.901415 123.494161 
L 793.981649 123.487627 
L 794.142117 123.216101 
L 794.62352 122.604684 
L 794.944455 120.951248 
L 795.024688 120.945696 
L 795.425857 119.919279 
L 795.586325 119.782599 
L 795.746793 119.636653 
L 796.067728 118.359909 
L 796.308429 118.138123 
L 796.629364 117.359084 
L 796.789832 116.968416 
L 796.9503 115.94402 
L 797.351469 112.906473 
L 797.59217 112.761256 
L 797.752637 112.306194 
L 797.993339 109.366725 
L 798.073573 109.191091 
L 798.23404 107.435089 
L 798.394508 106.896014 
L 798.956144 102.209342 
L 799.036378 102.09647 
L 799.357313 98.860807 
L 799.437547 98.825645 
L 799.999184 97.342639 
L 800.239885 95.209315 
L 800.641054 94.653312 
L 800.721288 94.582619 
L 800.881755 93.946578 
L 801.042223 93.601306 
L 801.202691 93.308319 
L 801.443392 92.678631 
L 801.523626 92.655453 
L 801.684093 92.349081 
L 801.764327 92.334901 
L 802.005029 91.715297 
L 802.165496 91.637083 
L 802.406198 90.950059 
L 802.566665 90.852391 
L 802.727133 90.658304 
L 802.8876 90.572974 
L 803.529471 89.704265 
L 804.412042 88.675764 
L 804.57251 88.368724 
L 804.652744 88.347489 
L 804.813211 88.043001 
L 805.134147 87.875777 
L 805.455082 87.466877 
L 806.417887 86.86615 
L 806.578355 86.293756 
L 807.059758 85.90473 
L 807.220225 85.499302 
L 807.460927 85.410179 
L 807.621394 85.133235 
L 807.942329 85.030273 
L 808.022563 85.026452 
L 808.183031 84.866061 
L 808.503966 84.490958 
L 808.824901 83.807123 
L 809.145836 83.420995 
L 809.306304 82.719963 
L 809.547005 82.489258 
L 809.948174 81.190274 
L 810.108642 80.993629 
L 810.269109 80.452513 
L 810.429577 80.200207 
L 810.509811 80.13352 
L 810.750512 79.528353 
L 810.991214 78.668548 
L 811.071447 78.665335 
L 811.312149 78.239419 
L 811.713318 77.638006 
L 811.873785 76.680585 
L 812.114487 76.410086 
L 812.355188 75.803687 
L 812.435422 75.643026 
L 812.595889 74.922562 
L 812.756357 73.326907 
L 813.157526 72.748965 
L 813.317994 72.203292 
L 813.558695 72.083161 
L 813.719163 71.618892 
L 814.521501 67.276074 
L 814.681968 66.785144 
L 814.842436 65.836954 
L 814.92267 65.757313 
L 815.002903 65.349663 
L 815.163371 64.155209 
L 815.323838 64.019695 
L 815.56454 62.624921 
L 816.045943 61.804723 
L 816.286644 60.907334 
L 816.527345 60.443429 
L 816.687813 57.682545 
L 816.687813 57.682545 
" clip-path="url(#p9a385b2d78)" style="fill: none; stroke: #2ca02c; stroke-width: 1.5; stroke-linecap: square"/>
   </g>
   <g id="patch_3">
    <path d="M 50.137685 390.04 
L 50.137685 41.856 
" style="fill: none; stroke: #000000; stroke-width: 0.8; stroke-linejoin: miter; stroke-linecap: square"/>
   </g>
   <g id="patch_4">
    <path d="M 853.2 390.04 
L 853.2 41.856 
" style="fill: none; stroke: #000000; stroke-width: 0.8; stroke-linejoin: miter; stroke-linecap: square"/>
   </g>
   <g id="patch_5">
    <path d="M 50.137685 390.04 
L 853.2 390.04 
" style="fill: none; stroke: #000000; stroke-width: 0.8; stroke-linejoin: miter; stroke-linecap: square"/>
   </g>
   <g id="patch_6">
    <path d="M 50.137685 41.856 
L 853.2 41.856 
" style="fill: none; stroke: #000000; stroke-width: 0.8; stroke-linejoin: miter; stroke-linecap: square"/>
   </g>
   <g id="text_13">
    <!-- HTTP Request Duration Percentiles -->
    <g transform="translate(347.44228 22.355625) scale(0.12 -0.12)">
     <defs>
      <path id="DejaVuSans-48" d="M 628 4666 
L 1259 4666 
L 1259 2753 
L 3553 2753 
L 3553 4666 
L 4184 4666 
L 4184 0 
L 3553 0 
L 3553 2222 
L 1259 2222 
L 1259 0 
L 628 0 
L 628 4666 
z
" transform="scale(0.015625)"/>
      <path id="DejaVuSans-54" d="M -19 4666 
L 3928 4666 
L 3928 4134 
L 2272 4134 
L 2272 0 
L 1638 0 
L 1638 4134 
L -19 4134 
L -19 4666 
z
" transform="scale(0.015625)"/>
      <path id="DejaVuSans-52" d="M 2841 2188 
Q 3044 2119 3236 1894 
Q 3428 1669 3622 1275 
L 4263 0 
L 3584 0 
L 2988 1197 
Q 2756 1666 2539 1819 
Q 2322 1972 1947 1972 
L 1259 1972 
L 1259 0 
L 628 0 
L 628 4666 
L 2053 4666 
Q 2853 4666 3247 4331 
Q 3641 3997 3641 3322 
Q 3641 2881 3436 2590 
Q 3231 2300 2841 2188 
z
M 1259 4147 
L 1259 2491 
L 2053 2491 
Q 2509 2491 2742 2702 
Q 2975 2913 2975 3322 
Q 2975 3731 2742 3939 
Q 2509 4147 2053 4147 
L 1259 4147 
z
" transform="scale(0.015625)"/>
      <path id="DejaVuSans-71" d="M 947 1747 
Q 947 1113 1208 752 
Q 1469 391 1925 391 
Q 2381 391 2643 752 
Q 2906 1113 2906 1747 
Q 2906 2381 2643 2742 
Q 2381 3103 1925 3103 
Q 1469 3103 1208 2742 
Q 947 2381 947 1747 
z
M 2906 525 
Q 2725 213 2448 61 
Q 2172 -91 1784 -91 
Q 1150 -91 751 415 
Q 353 922 353 1747 
Q 353 2572 751 3078 
Q 1150 3584 1784 3584 
Q 2172 3584 2448 3432 
Q 2725 3281 2906 2969 
L 2906 3500 
L 3481 3500 
L 3481 -1331 
L 2906 -1331 
L 2906 525 
z
" transform="scale(0.015625)"/>
     </defs>
     <use xlink:href="#DejaVuSans-48"/>
     <use xlink:href="#DejaVuSans-54" transform="translate(75.195312 0)"/>
     <use xlink:href="#DejaVuSans-54" transform="translate(134.529297 0)"/>
     <use xlink:href="#DejaVuSans-50" transform="translate(195.613281 0)"/>
     <use xlink:href="#DejaVuSans-20" transform="translate(255.916016 0)"/>
     <use xlink:href="#DejaVuSans-52" transform="translate(287.703125 0)"/>
     <use xlink:href="#DejaVuSans-65" transform="translate(352.685547 0)"/>
     <use xlink:href="#DejaVuSans-71" transform="translate(414.208984 0)"/>
     <use xlink:href="#DejaVuSans-75" transform="translate(477.685547 0)"/>
     <use xlink:href="#DejaVuSans-65" transform="translate(541.064453 0)"/>
     <use xlink:href="#DejaVuSans-73" transform="translate(602.587891 0)"/>
     <use xlink:href="#DejaVuSans-74" transform="translate(654.6875 0)"/>
     <use xlink:href="#DejaVuSans-20" transform="translate(693.896484 0)"/>
     <use xlink:href="#DejaVuSans-44" transform="translate(725.683594 0)"/>
     <use xlink:href="#DejaVuSans-75" transform="translate(802.685547 0)"/>
     <use xlink:href="#DejaVuSans-72" transform="translate(866.064453 0)"/>
     <use xlink:href="#DejaVuSans-61" transform="translate(907.177734 0)"/>
     <use xlink:href="#DejaVuSans-74" transform="translate(968.457031 0)"/>
     <use xlink:href="#DejaVuSans-69" transform="translate(1007.666016 0)"/>
     <use xlink:href="#DejaVuSans-6f" transform="translate(1035.449219 0)"/>
     <use xlink:href="#DejaVuSans-6e" transform="translate(1096.630859 0)"/>
     <use xlink:href="#DejaVuSans-20" transform="translate(1160.009766 0)"/>
     <use xlink:href="#DejaVuSans-50" transform="translate(1191.796875 0)"/>
     <use xlink:href="#DejaVuSans-65" transform="translate(1248.474609 0)"/>
     <use xlink:href="#DejaVuSans-72" transform="translate(1309.998047 0)"/>
     <use xlink:href="#DejaVuSans-63" transform="translate(1348.861328 0)"/>
     <use xlink:href="#DejaVuSans-65" transform="translate(1403.841797 0)"/>
     <use xlink:href="#DejaVuSans-6e" transform="translate(1465.365234 0)"/>
     <use xlink:href="#DejaVuSans-74" transform="translate(1528.744141 0)"/>
     <use xlink:href="#DejaVuSans-69" transform="translate(1567.953125 0)"/>
     <use xlink:href="#DejaVuSans-6c" transform="translate(1595.736328 0)"/>
     <use xlink:href="#DejaVuSans-65" transform="translate(1623.519531 0)"/>
     <use xlink:href="#DejaVuSans-73" transform="translate(1685.042969 0)"/>
    </g>
    <!-- Test: stress | Endpoint: GetImageById -->
    <g transform="translate(338.973842 35.856) scale(0.12 -0.12)">
     <defs>
      <path id="DejaVuSans-3a" d="M 750 794 
L 1409 794 
L 1409 0 
L 750 0 
L 750 794 
z
M 750 3309 
L 1409 3309 
L 1409 2516 
L 750 2516 
L 750 3309 
z
" transform="scale(0.015625)"/>
      <path id="DejaVuSans-7c" d="M 1344 4891 
L 1344 -1509 
L 813 -1509 
L 813 4891 
L 1344 4891 
z
" transform="scale(0.015625)"/>
      <path id="DejaVuSans-45" d="M 628 4666 
L 3578 4666 
L 3578 4134 
L 1259 4134 
L 1259 2753 
L 3481 2753 
L 3481 2222 
L 1259 2222 
L 1259 531 
L 3634 531 
L 3634 0 
L 628 0 
L 628 4666 
z
" transform="scale(0.015625)"/>
      <path id="DejaVuSans-64" d="M 2906 2969 
L 2906 4863 
L 3481 4863 
L 3481 0 
L 2906 0 
L 2906 525 
Q 2725 213 2448 61 
Q 2172 -91 1784 -91 
Q 1150 -91 751 415 
Q 353 922 353 1747 
Q 353 2572 751 3078 
Q 1150 3584 1784 3584 
Q 2172 3584 2448 3432 
Q 2725 3281 2906 2969 
z
M 947 1747 
Q 947 1113 1208 752 
Q 1469 391 1925 391 
Q 2381 391 2643 752 
Q 2906 1113 2906 1747 
Q 2906 2381 2643 2742 
Q 2381 3103 1925 3103 
Q 1469 3103 1208 2742 
Q 947 2381 947 1747 
z
" transform="scale(0.015625)"/>
      <path id="DejaVuSans-70" d="M 1159 525 
L 1159 -1331 
L 581 -1331 
L 581 3500 
L 1159 3500 
L 1159 2969 
Q 1341 3281 1617 3432 
Q 1894 3584 2278 3584 
Q 2916 3584 3314 3078 
Q 3713 2572 3713 1747 
Q 3713 922 3314 415 
Q 2916 -91 2278 -91 
Q 1894 -91 1617 61 
Q 1341 213 1159 525 
z
M 3116 1747 
Q 3116 2381 2855 2742 
Q 2594 3103 2138 3103 
Q 1681 3103 1420 2742 
Q 1159 2381 1159 1747 
Q 1159 1113 1420 752 
Q 1681 391 2138 391 
Q 2594 391 2855 752 
Q 3116 1113 3116 1747 
z
" transform="scale(0.015625)"/>
      <path id="DejaVuSans-47" d="M 3809 666 
L 3809 1919 
L 2778 1919 
L 2778 2438 
L 4434 2438 
L 4434 434 
Q 4069 175 3628 42 
Q 3188 -91 2688 -91 
Q 1594 -91 976 548 
Q 359 1188 359 2328 
Q 359 3472 976 4111 
Q 1594 4750 2688 4750 
Q 3144 4750 3555 4637 
Q 3966 4525 4313 4306 
L 4313 3634 
Q 3963 3931 3569 4081 
Q 3175 4231 2741 4231 
Q 1884 4231 1454 3753 
Q 1025 3275 1025 2328 
Q 1025 1384 1454 906 
Q 1884 428 2741 428 
Q 3075 428 3337 486 
Q 3600 544 3809 666 
z
" transform="scale(0.015625)"/>
      <path id="DejaVuSans-49" d="M 628 4666 
L 1259 4666 
L 1259 0 
L 628 0 
L 628 4666 
z
" transform="scale(0.015625)"/>
      <path id="DejaVuSans-67" d="M 2906 1791 
Q 2906 2416 2648 2759 
Q 2391 3103 1925 3103 
Q 1463 3103 1205 2759 
Q 947 2416 947 1791 
Q 947 1169 1205 825 
Q 1463 481 1925 481 
Q 2391 481 2648 825 
Q 2906 1169 2906 1791 
z
M 3481 434 
Q 3481 -459 3084 -895 
Q 2688 -1331 1869 -1331 
Q 1566 -1331 1297 -1286 
Q 1028 -1241 775 -1147 
L 775 -588 
Q 1028 -725 1275 -790 
Q 1522 -856 1778 -856 
Q 2344 -856 2625 -561 
Q 2906 -266 2906 331 
L 2906 616 
Q 2728 306 2450 153 
Q 2172 0 1784 0 
Q 1141 0 747 490 
Q 353 981 353 1791 
Q 353 2603 747 3093 
Q 1141 3584 1784 3584 
Q 2172 3584 2450 3431 
Q 2728 3278 2906 2969 
L 2906 3500 
L 3481 3500 
L 3481 434 
z
" transform="scale(0.015625)"/>
      <path id="DejaVuSans-42" d="M 1259 2228 
L 1259 519 
L 2272 519 
Q 2781 519 3026 730 
Q 3272 941 3272 1375 
Q 3272 1813 3026 2020 
Q 2781 2228 2272 2228 
L 1259 2228 
z
M 1259 4147 
L 1259 2741 
L 2194 2741 
Q 2656 2741 2882 2914 
Q 3109 3088 3109 3444 
Q 3109 3797 2882 3972 
Q 2656 4147 2194 4147 
L 1259 4147 
z
M 628 4666 
L 2241 4666 
Q 2963 4666 3353 4366 
Q 3744 4066 3744 3513 
Q 3744 3084 3544 2831 
Q 3344 2578 2956 2516 
Q 3422 2416 3680 2098 
Q 3938 1781 3938 1306 
Q 3938 681 3513 340 
Q 3088 0 2303 0 
L 628 0 
L 628 4666 
z
" transform="scale(0.015625)"/>
      <path id="DejaVuSans-79" d="M 2059 -325 
Q 1816 -950 1584 -1140 
Q 1353 -1331 966 -1331 
L 506 -1331 
L 506 -850 
L 844 -850 
Q 1081 -850 1212 -737 
Q 1344 -625 1503 -206 
L 1606 56 
L 191 3500 
L 800 3500 
L 1894 763 
L 2988 3500 
L 3597 3500 
L 2059 -325 
z
" transform="scale(0.015625)"/>
     </defs>
     <use xlink:href="#DejaVuSans-54"/>
     <use xlink:href="#DejaVuSans-65" transform="translate(44.083984 0)"/>
     <use xlink:href="#DejaVuSans-73" transform="translate(105.607422 0)"/>
     <use xlink:href="#DejaVuSans-74" transform="translate(157.707031 0)"/>
     <use xlink:href="#DejaVuSans-3a" transform="translate(196.916016 0)"/>
     <use xlink:href="#DejaVuSans-20" transform="translate(230.607422 0)"/>
     <use xlink:href="#DejaVuSans-73" transform="translate(262.394531 0)"/>
     <use xlink:href="#DejaVuSans-74" transform="translate(314.494141 0)"/>
     <use xlink:href="#DejaVuSans-72" transform="translate(353.703125 0)"/>
     <use xlink:href="#DejaVuSans-65" transform="translate(392.566406 0)"/>
     <use xlink:href="#DejaVuSans-73" transform="translate(454.089844 0)"/>
     <use xlink:href="#DejaVuSans-73" transform="translate(506.189453 0)"/>
     <use xlink:href="#DejaVuSans-20" transform="translate(558.289062 0)"/>
     <use xlink:href="#DejaVuSans-7c" transform="translate(590.076172 0)"/>
     <use xlink:href="#DejaVuSans-20" transform="translate(623.767578 0)"/>
     <use xlink:href="#DejaVuSans-45" transform="translate(655.554688 0)"/>
     <use xlink:href="#DejaVuSans-6e" transform="translate(718.738281 0)"/>
     <use xlink:href="#DejaVuSans-64" transform="translate(782.117188 0)"/>
     <use xlink:href="#DejaVuSans-70" transform="translate(845.59375 0)"/>
     <use xlink:href="#DejaVuSans-6f" transform="translate(909.070312 0)"/>
     <use xlink:href="#DejaVuSans-69" transform="translate(970.251953 0)"/>
     <use xlink:href="#DejaVuSans-6e" transform="translate(998.035156 0)"/>
     <use xlink:href="#DejaVuSans-74" transform="translate(1061.414062 0)"/>
     <use xlink:href="#DejaVuSans-3a" transform="translate(1100.623047 0)"/>
     <use xlink:href="#DejaVuSans-20" transform="translate(1134.314453 0)"/>
     <use xlink:href="#DejaVuSans-47" transform="translate(1166.101562 0)"/>
     <use xlink:href="#DejaVuSans-65" transform="translate(1243.591797 0)"/>
     <use xlink:href="#DejaVuSans-74" transform="translate(1305.115234 0)"/>
     <use xlink:href="#DejaVuSans-49" transform="translate(1344.324219 0)"/>
     <use xlink:href="#DejaVuSans-6d" transform="translate(1373.816406 0)"/>
     <use xlink:href="#DejaVuSans-61" transform="translate(1471.228516 0)"/>
     <use xlink:href="#DejaVuSans-67" transform="translate(1532.507812 0)"/>
     <use xlink:href="#DejaVuSans-65" transform="translate(1595.984375 0)"/>
     <use xlink:href="#DejaVuSans-42" transform="translate(1657.507812 0)"/>
     <use xlink:href="#DejaVuSans-79" transform="translate(1726.111328 0)"/>
     <use xlink:href="#DejaVuSans-49" transform="translate(1785.291016 0)"/>
     <use xlink:href="#DejaVuSans-64" transform="translate(1814.783203 0)"/>
    </g>
   </g>
   <g id="legend_1">
    <g id="patch_7">
     <path d="M 57.137685 93.890375 
L 190.481435 93.890375 
Q 192.481435 93.890375 192.481435 91.890375 
L 192.481435 48.856 
Q 192.481435 46.856 190.481435 46.856 
L 57.137685 46.856 
Q 55.137685 46.856 55.137685 48.856 
L 55.137685 91.890375 
Q 55.137685 93.890375 57.137685 93.890375 
z
" style="fill: #ffffff; opacity: 0.8; stroke: #cccccc; stroke-linejoin: miter"/>
    </g>
    <g id="line2d_46">
     <path d="M 59.137685 54.954437 
L 69.137685 54.954437 
L 79.137685 54.954437 
" style="fill: none; stroke: #1f77b4; stroke-width: 1.5; stroke-linecap: square"/>
    </g>
    <g id="text_14">
     <!-- Single Large Results -->
     <g transform="translate(87.137685 58.454437) scale(0.1 -0.1)">
      <defs>
       <path id="DejaVuSans-53" d="M 3425 4513 
L 3425 3897 
Q 3066 4069 2747 4153 
Q 2428 4238 2131 4238 
Q 1616 4238 1336 4038 
Q 1056 3838 1056 3469 
Q 1056 3159 1242 3001 
Q 1428 2844 1947 2747 
L 2328 2669 
Q 3034 2534 3370 2195 
Q 3706 1856 3706 1288 
Q 3706 609 3251 259 
Q 2797 -91 1919 -91 
Q 1588 -91 1214 -16 
Q 841 59 441 206 
L 441 856 
Q 825 641 1194 531 
Q 1563 422 1919 422 
Q 2459 422 2753 634 
Q 3047 847 3047 1241 
Q 3047 1584 2836 1778 
Q 2625 1972 2144 2069 
L 1759 2144 
Q 1053 2284 737 2584 
Q 422 2884 422 3419 
Q 422 4038 858 4394 
Q 1294 4750 2059 4750 
Q 2388 4750 2728 4690 
Q 3069 4631 3425 4513 
z
" transform="scale(0.015625)"/>
       <path id="DejaVuSans-4c" d="M 628 4666 
L 1259 4666 
L 1259 531 
L 3531 531 
L 3531 0 
L 628 0 
L 628 4666 
z
" transform="scale(0.015625)"/>
      </defs>
      <use xlink:href="#DejaVuSans-53"/>
      <use xlink:href="#DejaVuSans-69" transform="translate(63.476562 0)"/>
      <use xlink:href="#DejaVuSans-6e" transform="translate(91.259766 0)"/>
      <use xlink:href="#DejaVuSans-67" transform="translate(154.638672 0)"/>
      <use xlink:href="#DejaVuSans-6c" transform="translate(218.115234 0)"/>
      <use xlink:href="#DejaVuSans-65" transform="translate(245.898438 0)"/>
      <use xlink:href="#DejaVuSans-20" transform="translate(307.421875 0)"/>
      <use xlink:href="#DejaVuSans-4c" transform="translate(339.208984 0)"/>
      <use xlink:href="#DejaVuSans-61" transform="translate(394.921875 0)"/>
      <use xlink:href="#DejaVuSans-72" transform="translate(456.201172 0)"/>
      <use xlink:href="#DejaVuSans-67" transform="translate(495.564453 0)"/>
      <use xlink:href="#DejaVuSans-65" transform="translate(559.041016 0)"/>
      <use xlink:href="#DejaVuSans-20" transform="translate(620.564453 0)"/>
      <use xlink:href="#DejaVuSans-52" transform="translate(652.351562 0)"/>
      <use xlink:href="#DejaVuSans-65" transform="translate(717.333984 0)"/>
      <use xlink:href="#DejaVuSans-73" transform="translate(778.857422 0)"/>
      <use xlink:href="#DejaVuSans-75" transform="translate(830.957031 0)"/>
      <use xlink:href="#DejaVuSans-6c" transform="translate(894.335938 0)"/>
      <use xlink:href="#DejaVuSans-74" transform="translate(922.119141 0)"/>
      <use xlink:href="#DejaVuSans-73" transform="translate(961.328125 0)"/>
     </g>
    </g>
    <g id="line2d_47">
     <path d="M 59.137685 69.632562 
L 69.137685 69.632562 
L 79.137685 69.632562 
" style="fill: none; stroke: #ff7f0e; stroke-width: 1.5; stroke-linecap: square"/>
    </g>
    <g id="text_15">
     <!-- Single Small Results -->
     <g transform="translate(87.137685 73.132562) scale(0.1 -0.1)">
      <use xlink:href="#DejaVuSans-53"/>
      <use xlink:href="#DejaVuSans-69" transform="translate(63.476562 0)"/>
      <use xlink:href="#DejaVuSans-6e" transform="translate(91.259766 0)"/>
      <use xlink:href="#DejaVuSans-67" transform="translate(154.638672 0)"/>
      <use xlink:href="#DejaVuSans-6c" transform="translate(218.115234 0)"/>
      <use xlink:href="#DejaVuSans-65" transform="translate(245.898438 0)"/>
      <use xlink:href="#DejaVuSans-20" transform="translate(307.421875 0)"/>
      <use xlink:href="#DejaVuSans-53" transform="translate(339.208984 0)"/>
      <use xlink:href="#DejaVuSans-6d" transform="translate(402.685547 0)"/>
      <use xlink:href="#DejaVuSans-61" transform="translate(500.097656 0)"/>
      <use xlink:href="#DejaVuSans-6c" transform="translate(561.376953 0)"/>
      <use xlink:href="#DejaVuSans-6c" transform="translate(589.160156 0)"/>
      <use xlink:href="#DejaVuSans-20" transform="translate(616.943359 0)"/>
      <use xlink:href="#DejaVuSans-52" transform="translate(648.730469 0)"/>
      <use xlink:href="#DejaVuSans-65" transform="translate(713.712891 0)"/>
      <use xlink:href="#DejaVuSans-73" transform="translate(775.236328 0)"/>
      <use xlink:href="#DejaVuSans-75" transform="translate(827.335938 0)"/>
      <use xlink:href="#DejaVuSans-6c" transform="translate(890.714844 0)"/>
      <use xlink:href="#DejaVuSans-74" transform="translate(918.498047 0)"/>
      <use xlink:href="#DejaVuSans-73" transform="translate(957.707031 0)"/>
     </g>
    </g>
    <g id="line2d_48">
     <path d="M 59.137685 84.310687 
L 69.137685 84.310687 
L 79.137685 84.310687 
" style="fill: none; stroke: #2ca02c; stroke-width: 1.5; stroke-linecap: square"/>
    </g>
    <g id="text_16">
     <!-- Multi Results -->
     <g transform="translate(87.137685 87.810687) scale(0.1 -0.1)">
      <defs>
       <path id="DejaVuSans-4d" d="M 628 4666 
L 1569 4666 
L 2759 1491 
L 3956 4666 
L 4897 4666 
L 4897 0 
L 4281 0 
L 4281 4097 
L 3078 897 
L 2444 897 
L 1241 4097 
L 1241 0 
L 628 0 
L 628 4666 
z
" transform="scale(0.015625)"/>
      </defs>
      <use xlink:href="#DejaVuSans-4d"/>
      <use xlink:href="#DejaVuSans-75" transform="translate(86.279297 0)"/>
      <use xlink:href="#DejaVuSans-6c" transform="translate(149.658203 0)"/>
      <use xlink:href="#DejaVuSans-74" transform="translate(177.441406 0)"/>
      <use xlink:href="#DejaVuSans-69" transform="translate(216.650391 0)"/>
      <use xlink:href="#DejaVuSans-20" transform="translate(244.433594 0)"/>
      <use xlink:href="#DejaVuSans-52" transform="translate(276.220703 0)"/>
      <use xlink:href="#DejaVuSans-65" transform="translate(341.203125 0)"/>
      <use xlink:href="#DejaVuSans-73" transform="translate(402.726562 0)"/>
      <use xlink:href="#DejaVuSans-75" transform="translate(454.826172 0)"/>
      <use xlink:href="#DejaVuSans-6c" transform="translate(518.205078 0)"/>
      <use xlink:href="#DejaVuSans-74" transform="translate(545.988281 0)"/>
      <use xlink:href="#DejaVuSans-73" transform="translate(585.197266 0)"/>
     </g>
    </g>
   </g>
  </g>
 </g>
 <defs>
  <clipPath id="p9a385b2d78">
   <rect x="50.137685" y="41.856" width="803.062315" height="348.184"/>
  </clipPath>
 </defs>
</svg>
