<?xml version="1.0" encoding="utf-8" standalone="no"?>
<!DOCTYPE svg PUBLIC "-//W3C//DTD SVG 1.1//EN"
  "http://www.w3.org/Graphics/SVG/1.1/DTD/svg11.dtd">
<svg xmlns:xlink="http://www.w3.org/1999/xlink" width="1008pt" height="288pt" viewBox="0 0 1008 288" xmlns="http://www.w3.org/2000/svg" version="1.1">
 <metadata>
  <rdf:RDF xmlns:dc="http://purl.org/dc/elements/1.1/" xmlns:cc="http://creativecommons.org/ns#" xmlns:rdf="http://www.w3.org/1999/02/22-rdf-syntax-ns#">
   <cc:Work>
    <dc:type rdf:resource="http://purl.org/dc/dcmitype/StillImage"/>
    <dc:date>2025-05-31T22:12:40.041950</dc:date>
    <dc:format>image/svg+xml</dc:format>
    <dc:creator>
     <cc:Agent>
      <dc:title>Matplotlib v3.10.1, https://matplotlib.org/</dc:title>
     </cc:Agent>
    </dc:creator>
   </cc:Work>
  </rdf:RDF>
 </metadata>
 <defs>
  <style type="text/css">*{stroke-linejoin: round; stroke-linecap: butt}</style>
 </defs>
 <g id="figure_1">
  <g id="patch_1">
   <path d="M 0 288 
L 1008 288 
L 1008 0 
L 0 0 
z
" style="fill: #ffffff"/>
  </g>
  <g id="axes_1">
   <g id="patch_2">
    <path d="M 50.137685 246.04 
L 997.2 246.04 
L 997.2 26.88 
L 50.137685 26.88 
z
" style="fill: #ffffff"/>
   </g>
   <g id="matplotlib.axis_1">
    <g id="xtick_1">
     <g id="line2d_1">
      <defs>
       <path id="mf3358ce523" d="M 0 0 
L 0 3.5 
" style="stroke: #000000; stroke-width: 0.8"/>
      </defs>
      <g>
       <use xlink:href="#mf3358ce523" x="93.185972" y="246.04" style="stroke: #000000; stroke-width: 0.8"/>
      </g>
     </g>
     <g id="text_1">
      <!-- 0 -->
      <g transform="translate(90.004722 260.638438) scale(0.1 -0.1)">
       <defs>
        <path id="DejaVuSans-30" d="M 2034 4250 
Q 1547 4250 1301 3770 
Q 1056 3291 1056 2328 
Q 1056 1369 1301 889 
Q 1547 409 2034 409 
Q 2525 409 2770 889 
Q 3016 1369 3016 2328 
Q 3016 3291 2770 3770 
Q 2525 4250 2034 4250 
z
M 2034 4750 
Q 2819 4750 3233 4129 
Q 3647 3509 3647 2328 
Q 3647 1150 3233 529 
Q 2819 -91 2034 -91 
Q 1250 -91 836 529 
Q 422 1150 422 2328 
Q 422 3509 836 4129 
Q 1250 4750 2034 4750 
z
" transform="scale(0.015625)"/>
       </defs>
       <use xlink:href="#DejaVuSans-30"/>
      </g>
     </g>
    </g>
    <g id="xtick_2">
     <g id="line2d_2">
      <g>
       <use xlink:href="#mf3358ce523" x="212.764547" y="246.04" style="stroke: #000000; stroke-width: 0.8"/>
      </g>
     </g>
     <g id="text_2">
      <!-- 50 -->
      <g transform="translate(206.402047 260.638438) scale(0.1 -0.1)">
       <defs>
        <path id="DejaVuSans-35" d="M 691 4666 
L 3169 4666 
L 3169 4134 
L 1269 4134 
L 1269 2991 
Q 1406 3038 1543 3061 
Q 1681 3084 1819 3084 
Q 2600 3084 3056 2656 
Q 3513 2228 3513 1497 
Q 3513 744 3044 326 
Q 2575 -91 1722 -91 
Q 1428 -91 1123 -41 
Q 819 9 494 109 
L 494 744 
Q 775 591 1075 516 
Q 1375 441 1709 441 
Q 2250 441 2565 725 
Q 2881 1009 2881 1497 
Q 2881 1984 2565 2268 
Q 2250 2553 1709 2553 
Q 1456 2553 1204 2497 
Q 953 2441 691 2322 
L 691 4666 
z
" transform="scale(0.015625)"/>
       </defs>
       <use xlink:href="#DejaVuSans-35"/>
       <use xlink:href="#DejaVuSans-30" transform="translate(63.623047 0)"/>
      </g>
     </g>
    </g>
    <g id="xtick_3">
     <g id="line2d_3">
      <g>
       <use xlink:href="#mf3358ce523" x="332.343122" y="246.04" style="stroke: #000000; stroke-width: 0.8"/>
      </g>
     </g>
     <g id="text_3">
      <!-- 100 -->
      <g transform="translate(322.799372 260.638438) scale(0.1 -0.1)">
       <defs>
        <path id="DejaVuSans-31" d="M 794 531 
L 1825 531 
L 1825 4091 
L 703 3866 
L 703 4441 
L 1819 4666 
L 2450 4666 
L 2450 531 
L 3481 531 
L 3481 0 
L 794 0 
L 794 531 
z
" transform="scale(0.015625)"/>
       </defs>
       <use xlink:href="#DejaVuSans-31"/>
       <use xlink:href="#DejaVuSans-30" transform="translate(63.623047 0)"/>
       <use xlink:href="#DejaVuSans-30" transform="translate(127.246094 0)"/>
      </g>
     </g>
    </g>
    <g id="xtick_4">
     <g id="line2d_4">
      <g>
       <use xlink:href="#mf3358ce523" x="451.921697" y="246.04" style="stroke: #000000; stroke-width: 0.8"/>
      </g>
     </g>
     <g id="text_4">
      <!-- 150 -->
      <g transform="translate(442.377947 260.638438) scale(0.1 -0.1)">
       <use xlink:href="#DejaVuSans-31"/>
       <use xlink:href="#DejaVuSans-35" transform="translate(63.623047 0)"/>
       <use xlink:href="#DejaVuSans-30" transform="translate(127.246094 0)"/>
      </g>
     </g>
    </g>
    <g id="xtick_5">
     <g id="line2d_5">
      <g>
       <use xlink:href="#mf3358ce523" x="571.500272" y="246.04" style="stroke: #000000; stroke-width: 0.8"/>
      </g>
     </g>
     <g id="text_5">
      <!-- 200 -->
      <g transform="translate(561.956522 260.638438) scale(0.1 -0.1)">
       <defs>
        <path id="DejaVuSans-32" d="M 1228 531 
L 3431 531 
L 3431 0 
L 469 0 
L 469 531 
Q 828 903 1448 1529 
Q 2069 2156 2228 2338 
Q 2531 2678 2651 2914 
Q 2772 3150 2772 3378 
Q 2772 3750 2511 3984 
Q 2250 4219 1831 4219 
Q 1534 4219 1204 4116 
Q 875 4013 500 3803 
L 500 4441 
Q 881 4594 1212 4672 
Q 1544 4750 1819 4750 
Q 2544 4750 2975 4387 
Q 3406 4025 3406 3419 
Q 3406 3131 3298 2873 
Q 3191 2616 2906 2266 
Q 2828 2175 2409 1742 
Q 1991 1309 1228 531 
z
" transform="scale(0.015625)"/>
       </defs>
       <use xlink:href="#DejaVuSans-32"/>
       <use xlink:href="#DejaVuSans-30" transform="translate(63.623047 0)"/>
       <use xlink:href="#DejaVuSans-30" transform="translate(127.246094 0)"/>
      </g>
     </g>
    </g>
    <g id="xtick_6">
     <g id="line2d_6">
      <g>
       <use xlink:href="#mf3358ce523" x="691.078848" y="246.04" style="stroke: #000000; stroke-width: 0.8"/>
      </g>
     </g>
     <g id="text_6">
      <!-- 250 -->
      <g transform="translate(681.535098 260.638438) scale(0.1 -0.1)">
       <use xlink:href="#DejaVuSans-32"/>
       <use xlink:href="#DejaVuSans-35" transform="translate(63.623047 0)"/>
       <use xlink:href="#DejaVuSans-30" transform="translate(127.246094 0)"/>
      </g>
     </g>
    </g>
    <g id="xtick_7">
     <g id="line2d_7">
      <g>
       <use xlink:href="#mf3358ce523" x="810.657423" y="246.04" style="stroke: #000000; stroke-width: 0.8"/>
      </g>
     </g>
     <g id="text_7">
      <!-- 300 -->
      <g transform="translate(801.113673 260.638438) scale(0.1 -0.1)">
       <defs>
        <path id="DejaVuSans-33" d="M 2597 2516 
Q 3050 2419 3304 2112 
Q 3559 1806 3559 1356 
Q 3559 666 3084 287 
Q 2609 -91 1734 -91 
Q 1441 -91 1130 -33 
Q 819 25 488 141 
L 488 750 
Q 750 597 1062 519 
Q 1375 441 1716 441 
Q 2309 441 2620 675 
Q 2931 909 2931 1356 
Q 2931 1769 2642 2001 
Q 2353 2234 1838 2234 
L 1294 2234 
L 1294 2753 
L 1863 2753 
Q 2328 2753 2575 2939 
Q 2822 3125 2822 3475 
Q 2822 3834 2567 4026 
Q 2313 4219 1838 4219 
Q 1578 4219 1281 4162 
Q 984 4106 628 3988 
L 628 4550 
Q 988 4650 1302 4700 
Q 1616 4750 1894 4750 
Q 2613 4750 3031 4423 
Q 3450 4097 3450 3541 
Q 3450 3153 3228 2886 
Q 3006 2619 2597 2516 
z
" transform="scale(0.015625)"/>
       </defs>
       <use xlink:href="#DejaVuSans-33"/>
       <use xlink:href="#DejaVuSans-30" transform="translate(63.623047 0)"/>
       <use xlink:href="#DejaVuSans-30" transform="translate(127.246094 0)"/>
      </g>
     </g>
    </g>
    <g id="xtick_8">
     <g id="line2d_8">
      <g>
       <use xlink:href="#mf3358ce523" x="930.235998" y="246.04" style="stroke: #000000; stroke-width: 0.8"/>
      </g>
     </g>
     <g id="text_8">
      <!-- 350 -->
      <g transform="translate(920.692248 260.638438) scale(0.1 -0.1)">
       <use xlink:href="#DejaVuSans-33"/>
       <use xlink:href="#DejaVuSans-35" transform="translate(63.623047 0)"/>
       <use xlink:href="#DejaVuSans-30" transform="translate(127.246094 0)"/>
      </g>
     </g>
    </g>
    <g id="text_9">
     <!-- Timestamp (Seconds) -->
     <g transform="translate(469.264155 274.316562) scale(0.1 -0.1)">
      <defs>
       <path id="DejaVuSans-54" d="M -19 4666 
L 3928 4666 
L 3928 4134 
L 2272 4134 
L 2272 0 
L 1638 0 
L 1638 4134 
L -19 4134 
L -19 4666 
z
" transform="scale(0.015625)"/>
       <path id="DejaVuSans-69" d="M 603 3500 
L 1178 3500 
L 1178 0 
L 603 0 
L 603 3500 
z
M 603 4863 
L 1178 4863 
L 1178 4134 
L 603 4134 
L 603 4863 
z
" transform="scale(0.015625)"/>
       <path id="DejaVuSans-6d" d="M 3328 2828 
Q 3544 3216 3844 3400 
Q 4144 3584 4550 3584 
Q 5097 3584 5394 3201 
Q 5691 2819 5691 2113 
L 5691 0 
L 5113 0 
L 5113 2094 
Q 5113 2597 4934 2840 
Q 4756 3084 4391 3084 
Q 3944 3084 3684 2787 
Q 3425 2491 3425 1978 
L 3425 0 
L 2847 0 
L 2847 2094 
Q 2847 2600 2669 2842 
Q 2491 3084 2119 3084 
Q 1678 3084 1418 2786 
Q 1159 2488 1159 1978 
L 1159 0 
L 581 0 
L 581 3500 
L 1159 3500 
L 1159 2956 
Q 1356 3278 1631 3431 
Q 1906 3584 2284 3584 
Q 2666 3584 2933 3390 
Q 3200 3197 3328 2828 
z
" transform="scale(0.015625)"/>
       <path id="DejaVuSans-65" d="M 3597 1894 
L 3597 1613 
L 953 1613 
Q 991 1019 1311 708 
Q 1631 397 2203 397 
Q 2534 397 2845 478 
Q 3156 559 3463 722 
L 3463 178 
Q 3153 47 2828 -22 
Q 2503 -91 2169 -91 
Q 1331 -91 842 396 
Q 353 884 353 1716 
Q 353 2575 817 3079 
Q 1281 3584 2069 3584 
Q 2775 3584 3186 3129 
Q 3597 2675 3597 1894 
z
M 3022 2063 
Q 3016 2534 2758 2815 
Q 2500 3097 2075 3097 
Q 1594 3097 1305 2825 
Q 1016 2553 972 2059 
L 3022 2063 
z
" transform="scale(0.015625)"/>
       <path id="DejaVuSans-73" d="M 2834 3397 
L 2834 2853 
Q 2591 2978 2328 3040 
Q 2066 3103 1784 3103 
Q 1356 3103 1142 2972 
Q 928 2841 928 2578 
Q 928 2378 1081 2264 
Q 1234 2150 1697 2047 
L 1894 2003 
Q 2506 1872 2764 1633 
Q 3022 1394 3022 966 
Q 3022 478 2636 193 
Q 2250 -91 1575 -91 
Q 1294 -91 989 -36 
Q 684 19 347 128 
L 347 722 
Q 666 556 975 473 
Q 1284 391 1588 391 
Q 1994 391 2212 530 
Q 2431 669 2431 922 
Q 2431 1156 2273 1281 
Q 2116 1406 1581 1522 
L 1381 1569 
Q 847 1681 609 1914 
Q 372 2147 372 2553 
Q 372 3047 722 3315 
Q 1072 3584 1716 3584 
Q 2034 3584 2315 3537 
Q 2597 3491 2834 3397 
z
" transform="scale(0.015625)"/>
       <path id="DejaVuSans-74" d="M 1172 4494 
L 1172 3500 
L 2356 3500 
L 2356 3053 
L 1172 3053 
L 1172 1153 
Q 1172 725 1289 603 
Q 1406 481 1766 481 
L 2356 481 
L 2356 0 
L 1766 0 
Q 1100 0 847 248 
Q 594 497 594 1153 
L 594 3053 
L 172 3053 
L 172 3500 
L 594 3500 
L 594 4494 
L 1172 4494 
z
" transform="scale(0.015625)"/>
       <path id="DejaVuSans-61" d="M 2194 1759 
Q 1497 1759 1228 1600 
Q 959 1441 959 1056 
Q 959 750 1161 570 
Q 1363 391 1709 391 
Q 2188 391 2477 730 
Q 2766 1069 2766 1631 
L 2766 1759 
L 2194 1759 
z
M 3341 1997 
L 3341 0 
L 2766 0 
L 2766 531 
Q 2569 213 2275 61 
Q 1981 -91 1556 -91 
Q 1019 -91 701 211 
Q 384 513 384 1019 
Q 384 1609 779 1909 
Q 1175 2209 1959 2209 
L 2766 2209 
L 2766 2266 
Q 2766 2663 2505 2880 
Q 2244 3097 1772 3097 
Q 1472 3097 1187 3025 
Q 903 2953 641 2809 
L 641 3341 
Q 956 3463 1253 3523 
Q 1550 3584 1831 3584 
Q 2591 3584 2966 3190 
Q 3341 2797 3341 1997 
z
" transform="scale(0.015625)"/>
       <path id="DejaVuSans-70" d="M 1159 525 
L 1159 -1331 
L 581 -1331 
L 581 3500 
L 1159 3500 
L 1159 2969 
Q 1341 3281 1617 3432 
Q 1894 3584 2278 3584 
Q 2916 3584 3314 3078 
Q 3713 2572 3713 1747 
Q 3713 922 3314 415 
Q 2916 -91 2278 -91 
Q 1894 -91 1617 61 
Q 1341 213 1159 525 
z
M 3116 1747 
Q 3116 2381 2855 2742 
Q 2594 3103 2138 3103 
Q 1681 3103 1420 2742 
Q 1159 2381 1159 1747 
Q 1159 1113 1420 752 
Q 1681 391 2138 391 
Q 2594 391 2855 752 
Q 3116 1113 3116 1747 
z
" transform="scale(0.015625)"/>
       <path id="DejaVuSans-20" transform="scale(0.015625)"/>
       <path id="DejaVuSans-28" d="M 1984 4856 
Q 1566 4138 1362 3434 
Q 1159 2731 1159 2009 
Q 1159 1288 1364 580 
Q 1569 -128 1984 -844 
L 1484 -844 
Q 1016 -109 783 600 
Q 550 1309 550 2009 
Q 550 2706 781 3412 
Q 1013 4119 1484 4856 
L 1984 4856 
z
" transform="scale(0.015625)"/>
       <path id="DejaVuSans-53" d="M 3425 4513 
L 3425 3897 
Q 3066 4069 2747 4153 
Q 2428 4238 2131 4238 
Q 1616 4238 1336 4038 
Q 1056 3838 1056 3469 
Q 1056 3159 1242 3001 
Q 1428 2844 1947 2747 
L 2328 2669 
Q 3034 2534 3370 2195 
Q 3706 1856 3706 1288 
Q 3706 609 3251 259 
Q 2797 -91 1919 -91 
Q 1588 -91 1214 -16 
Q 841 59 441 206 
L 441 856 
Q 825 641 1194 531 
Q 1563 422 1919 422 
Q 2459 422 2753 634 
Q 3047 847 3047 1241 
Q 3047 1584 2836 1778 
Q 2625 1972 2144 2069 
L 1759 2144 
Q 1053 2284 737 2584 
Q 422 2884 422 3419 
Q 422 4038 858 4394 
Q 1294 4750 2059 4750 
Q 2388 4750 2728 4690 
Q 3069 4631 3425 4513 
z
" transform="scale(0.015625)"/>
       <path id="DejaVuSans-63" d="M 3122 3366 
L 3122 2828 
Q 2878 2963 2633 3030 
Q 2388 3097 2138 3097 
Q 1578 3097 1268 2742 
Q 959 2388 959 1747 
Q 959 1106 1268 751 
Q 1578 397 2138 397 
Q 2388 397 2633 464 
Q 2878 531 3122 666 
L 3122 134 
Q 2881 22 2623 -34 
Q 2366 -91 2075 -91 
Q 1284 -91 818 406 
Q 353 903 353 1747 
Q 353 2603 823 3093 
Q 1294 3584 2113 3584 
Q 2378 3584 2631 3529 
Q 2884 3475 3122 3366 
z
" transform="scale(0.015625)"/>
       <path id="DejaVuSans-6f" d="M 1959 3097 
Q 1497 3097 1228 2736 
Q 959 2375 959 1747 
Q 959 1119 1226 758 
Q 1494 397 1959 397 
Q 2419 397 2687 759 
Q 2956 1122 2956 1747 
Q 2956 2369 2687 2733 
Q 2419 3097 1959 3097 
z
M 1959 3584 
Q 2709 3584 3137 3096 
Q 3566 2609 3566 1747 
Q 3566 888 3137 398 
Q 2709 -91 1959 -91 
Q 1206 -91 779 398 
Q 353 888 353 1747 
Q 353 2609 779 3096 
Q 1206 3584 1959 3584 
z
" transform="scale(0.015625)"/>
       <path id="DejaVuSans-6e" d="M 3513 2113 
L 3513 0 
L 2938 0 
L 2938 2094 
Q 2938 2591 2744 2837 
Q 2550 3084 2163 3084 
Q 1697 3084 1428 2787 
Q 1159 2491 1159 1978 
L 1159 0 
L 581 0 
L 581 3500 
L 1159 3500 
L 1159 2956 
Q 1366 3272 1645 3428 
Q 1925 3584 2291 3584 
Q 2894 3584 3203 3211 
Q 3513 2838 3513 2113 
z
" transform="scale(0.015625)"/>
       <path id="DejaVuSans-64" d="M 2906 2969 
L 2906 4863 
L 3481 4863 
L 3481 0 
L 2906 0 
L 2906 525 
Q 2725 213 2448 61 
Q 2172 -91 1784 -91 
Q 1150 -91 751 415 
Q 353 922 353 1747 
Q 353 2572 751 3078 
Q 1150 3584 1784 3584 
Q 2172 3584 2448 3432 
Q 2725 3281 2906 2969 
z
M 947 1747 
Q 947 1113 1208 752 
Q 1469 391 1925 391 
Q 2381 391 2643 752 
Q 2906 1113 2906 1747 
Q 2906 2381 2643 2742 
Q 2381 3103 1925 3103 
Q 1469 3103 1208 2742 
Q 947 2381 947 1747 
z
" transform="scale(0.015625)"/>
       <path id="DejaVuSans-29" d="M 513 4856 
L 1013 4856 
Q 1481 4119 1714 3412 
Q 1947 2706 1947 2009 
Q 1947 1309 1714 600 
Q 1481 -109 1013 -844 
L 513 -844 
Q 928 -128 1133 580 
Q 1338 1288 1338 2009 
Q 1338 2731 1133 3434 
Q 928 4138 513 4856 
z
" transform="scale(0.015625)"/>
      </defs>
      <use xlink:href="#DejaVuSans-54"/>
      <use xlink:href="#DejaVuSans-69" transform="translate(57.958984 0)"/>
      <use xlink:href="#DejaVuSans-6d" transform="translate(85.742188 0)"/>
      <use xlink:href="#DejaVuSans-65" transform="translate(183.154297 0)"/>
      <use xlink:href="#DejaVuSans-73" transform="translate(244.677734 0)"/>
      <use xlink:href="#DejaVuSans-74" transform="translate(296.777344 0)"/>
      <use xlink:href="#DejaVuSans-61" transform="translate(335.986328 0)"/>
      <use xlink:href="#DejaVuSans-6d" transform="translate(397.265625 0)"/>
      <use xlink:href="#DejaVuSans-70" transform="translate(494.677734 0)"/>
      <use xlink:href="#DejaVuSans-20" transform="translate(558.154297 0)"/>
      <use xlink:href="#DejaVuSans-28" transform="translate(589.941406 0)"/>
      <use xlink:href="#DejaVuSans-53" transform="translate(628.955078 0)"/>
      <use xlink:href="#DejaVuSans-65" transform="translate(692.431641 0)"/>
      <use xlink:href="#DejaVuSans-63" transform="translate(753.955078 0)"/>
      <use xlink:href="#DejaVuSans-6f" transform="translate(808.935547 0)"/>
      <use xlink:href="#DejaVuSans-6e" transform="translate(870.117188 0)"/>
      <use xlink:href="#DejaVuSans-64" transform="translate(933.496094 0)"/>
      <use xlink:href="#DejaVuSans-73" transform="translate(996.972656 0)"/>
      <use xlink:href="#DejaVuSans-29" transform="translate(1049.072266 0)"/>
     </g>
    </g>
   </g>
   <g id="matplotlib.axis_2">
    <g id="ytick_1">
     <g id="line2d_9">
      <defs>
       <path id="ma16389cfeb" d="M 0 0 
L -3.5 0 
" style="stroke: #000000; stroke-width: 0.8"/>
      </defs>
      <g>
       <use xlink:href="#ma16389cfeb" x="50.137685" y="188.790135" style="stroke: #000000; stroke-width: 0.8"/>
      </g>
     </g>
     <g id="text_10">
      <!-- $\mathdefault{10^{2}}$ -->
      <g transform="translate(25.537685 192.589354) scale(0.1 -0.1)">
       <use xlink:href="#DejaVuSans-31" transform="translate(0 0.765625)"/>
       <use xlink:href="#DejaVuSans-30" transform="translate(63.623047 0.765625)"/>
       <use xlink:href="#DejaVuSans-32" transform="translate(128.203125 39.046875) scale(0.7)"/>
      </g>
     </g>
    </g>
    <g id="ytick_2">
     <g id="line2d_10">
      <g>
       <use xlink:href="#ma16389cfeb" x="50.137685" y="118.357189" style="stroke: #000000; stroke-width: 0.8"/>
      </g>
     </g>
     <g id="text_11">
      <!-- $\mathdefault{10^{3}}$ -->
      <g transform="translate(25.537685 122.156408) scale(0.1 -0.1)">
       <use xlink:href="#DejaVuSans-31" transform="translate(0 0.765625)"/>
       <use xlink:href="#DejaVuSans-30" transform="translate(63.623047 0.765625)"/>
       <use xlink:href="#DejaVuSans-33" transform="translate(128.203125 39.046875) scale(0.7)"/>
      </g>
     </g>
    </g>
    <g id="ytick_3">
     <g id="line2d_11">
      <g>
       <use xlink:href="#ma16389cfeb" x="50.137685" y="47.924244" style="stroke: #000000; stroke-width: 0.8"/>
      </g>
     </g>
     <g id="text_12">
      <!-- $\mathdefault{10^{4}}$ -->
      <g transform="translate(25.537685 51.723462) scale(0.1 -0.1)">
       <defs>
        <path id="DejaVuSans-34" d="M 2419 4116 
L 825 1625 
L 2419 1625 
L 2419 4116 
z
M 2253 4666 
L 3047 4666 
L 3047 1625 
L 3713 1625 
L 3713 1100 
L 3047 1100 
L 3047 0 
L 2419 0 
L 2419 1100 
L 313 1100 
L 313 1709 
L 2253 4666 
z
" transform="scale(0.015625)"/>
       </defs>
       <use xlink:href="#DejaVuSans-31" transform="translate(0 0.684375)"/>
       <use xlink:href="#DejaVuSans-30" transform="translate(63.623047 0.684375)"/>
       <use xlink:href="#DejaVuSans-34" transform="translate(128.203125 38.965625) scale(0.7)"/>
      </g>
     </g>
    </g>
    <g id="ytick_4">
     <g id="line2d_12">
      <defs>
       <path id="m2a448d951a" d="M 0 0 
L -2 0 
" style="stroke: #000000; stroke-width: 0.6"/>
      </defs>
      <g>
       <use xlink:href="#m2a448d951a" x="50.137685" y="238.020652" style="stroke: #000000; stroke-width: 0.6"/>
      </g>
     </g>
    </g>
    <g id="ytick_5">
     <g id="line2d_13">
      <g>
       <use xlink:href="#m2a448d951a" x="50.137685" y="225.618026" style="stroke: #000000; stroke-width: 0.6"/>
      </g>
     </g>
    </g>
    <g id="ytick_6">
     <g id="line2d_14">
      <g>
       <use xlink:href="#m2a448d951a" x="50.137685" y="216.818223" style="stroke: #000000; stroke-width: 0.6"/>
      </g>
     </g>
    </g>
    <g id="ytick_7">
     <g id="line2d_15">
      <g>
       <use xlink:href="#m2a448d951a" x="50.137685" y="209.992565" style="stroke: #000000; stroke-width: 0.6"/>
      </g>
     </g>
    </g>
    <g id="ytick_8">
     <g id="line2d_16">
      <g>
       <use xlink:href="#m2a448d951a" x="50.137685" y="204.415596" style="stroke: #000000; stroke-width: 0.6"/>
      </g>
     </g>
    </g>
    <g id="ytick_9">
     <g id="line2d_17">
      <g>
       <use xlink:href="#m2a448d951a" x="50.137685" y="199.700337" style="stroke: #000000; stroke-width: 0.6"/>
      </g>
     </g>
    </g>
    <g id="ytick_10">
     <g id="line2d_18">
      <g>
       <use xlink:href="#m2a448d951a" x="50.137685" y="195.615793" style="stroke: #000000; stroke-width: 0.6"/>
      </g>
     </g>
    </g>
    <g id="ytick_11">
     <g id="line2d_19">
      <g>
       <use xlink:href="#m2a448d951a" x="50.137685" y="192.01297" style="stroke: #000000; stroke-width: 0.6"/>
      </g>
     </g>
    </g>
    <g id="ytick_12">
     <g id="line2d_20">
      <g>
       <use xlink:href="#m2a448d951a" x="50.137685" y="167.587706" style="stroke: #000000; stroke-width: 0.6"/>
      </g>
     </g>
    </g>
    <g id="ytick_13">
     <g id="line2d_21">
      <g>
       <use xlink:href="#m2a448d951a" x="50.137685" y="155.18508" style="stroke: #000000; stroke-width: 0.6"/>
      </g>
     </g>
    </g>
    <g id="ytick_14">
     <g id="line2d_22">
      <g>
       <use xlink:href="#m2a448d951a" x="50.137685" y="146.385277" style="stroke: #000000; stroke-width: 0.6"/>
      </g>
     </g>
    </g>
    <g id="ytick_15">
     <g id="line2d_23">
      <g>
       <use xlink:href="#m2a448d951a" x="50.137685" y="139.559619" style="stroke: #000000; stroke-width: 0.6"/>
      </g>
     </g>
    </g>
    <g id="ytick_16">
     <g id="line2d_24">
      <g>
       <use xlink:href="#m2a448d951a" x="50.137685" y="133.98265" style="stroke: #000000; stroke-width: 0.6"/>
      </g>
     </g>
    </g>
    <g id="ytick_17">
     <g id="line2d_25">
      <g>
       <use xlink:href="#m2a448d951a" x="50.137685" y="129.267391" style="stroke: #000000; stroke-width: 0.6"/>
      </g>
     </g>
    </g>
    <g id="ytick_18">
     <g id="line2d_26">
      <g>
       <use xlink:href="#m2a448d951a" x="50.137685" y="125.182847" style="stroke: #000000; stroke-width: 0.6"/>
      </g>
     </g>
    </g>
    <g id="ytick_19">
     <g id="line2d_27">
      <g>
       <use xlink:href="#m2a448d951a" x="50.137685" y="121.580024" style="stroke: #000000; stroke-width: 0.6"/>
      </g>
     </g>
    </g>
    <g id="ytick_20">
     <g id="line2d_28">
      <g>
       <use xlink:href="#m2a448d951a" x="50.137685" y="97.15476" style="stroke: #000000; stroke-width: 0.6"/>
      </g>
     </g>
    </g>
    <g id="ytick_21">
     <g id="line2d_29">
      <g>
       <use xlink:href="#m2a448d951a" x="50.137685" y="84.752134" style="stroke: #000000; stroke-width: 0.6"/>
      </g>
     </g>
    </g>
    <g id="ytick_22">
     <g id="line2d_30">
      <g>
       <use xlink:href="#m2a448d951a" x="50.137685" y="75.952331" style="stroke: #000000; stroke-width: 0.6"/>
      </g>
     </g>
    </g>
    <g id="ytick_23">
     <g id="line2d_31">
      <g>
       <use xlink:href="#m2a448d951a" x="50.137685" y="69.126673" style="stroke: #000000; stroke-width: 0.6"/>
      </g>
     </g>
    </g>
    <g id="ytick_24">
     <g id="line2d_32">
      <g>
       <use xlink:href="#m2a448d951a" x="50.137685" y="63.549705" style="stroke: #000000; stroke-width: 0.6"/>
      </g>
     </g>
    </g>
    <g id="ytick_25">
     <g id="line2d_33">
      <g>
       <use xlink:href="#m2a448d951a" x="50.137685" y="58.834445" style="stroke: #000000; stroke-width: 0.6"/>
      </g>
     </g>
    </g>
    <g id="ytick_26">
     <g id="line2d_34">
      <g>
       <use xlink:href="#m2a448d951a" x="50.137685" y="54.749901" style="stroke: #000000; stroke-width: 0.6"/>
      </g>
     </g>
    </g>
    <g id="ytick_27">
     <g id="line2d_35">
      <g>
       <use xlink:href="#m2a448d951a" x="50.137685" y="51.147078" style="stroke: #000000; stroke-width: 0.6"/>
      </g>
     </g>
    </g>
    <g id="text_13">
     <!-- Avg Duration (ms) -->
     <g transform="translate(19.457997 181.990469) rotate(-90) scale(0.1 -0.1)">
      <defs>
       <path id="DejaVuSans-41" d="M 2188 4044 
L 1331 1722 
L 3047 1722 
L 2188 4044 
z
M 1831 4666 
L 2547 4666 
L 4325 0 
L 3669 0 
L 3244 1197 
L 1141 1197 
L 716 0 
L 50 0 
L 1831 4666 
z
" transform="scale(0.015625)"/>
       <path id="DejaVuSans-76" d="M 191 3500 
L 800 3500 
L 1894 563 
L 2988 3500 
L 3597 3500 
L 2284 0 
L 1503 0 
L 191 3500 
z
" transform="scale(0.015625)"/>
       <path id="DejaVuSans-67" d="M 2906 1791 
Q 2906 2416 2648 2759 
Q 2391 3103 1925 3103 
Q 1463 3103 1205 2759 
Q 947 2416 947 1791 
Q 947 1169 1205 825 
Q 1463 481 1925 481 
Q 2391 481 2648 825 
Q 2906 1169 2906 1791 
z
M 3481 434 
Q 3481 -459 3084 -895 
Q 2688 -1331 1869 -1331 
Q 1566 -1331 1297 -1286 
Q 1028 -1241 775 -1147 
L 775 -588 
Q 1028 -725 1275 -790 
Q 1522 -856 1778 -856 
Q 2344 -856 2625 -561 
Q 2906 -266 2906 331 
L 2906 616 
Q 2728 306 2450 153 
Q 2172 0 1784 0 
Q 1141 0 747 490 
Q 353 981 353 1791 
Q 353 2603 747 3093 
Q 1141 3584 1784 3584 
Q 2172 3584 2450 3431 
Q 2728 3278 2906 2969 
L 2906 3500 
L 3481 3500 
L 3481 434 
z
" transform="scale(0.015625)"/>
       <path id="DejaVuSans-44" d="M 1259 4147 
L 1259 519 
L 2022 519 
Q 2988 519 3436 956 
Q 3884 1394 3884 2338 
Q 3884 3275 3436 3711 
Q 2988 4147 2022 4147 
L 1259 4147 
z
M 628 4666 
L 1925 4666 
Q 3281 4666 3915 4102 
Q 4550 3538 4550 2338 
Q 4550 1131 3912 565 
Q 3275 0 1925 0 
L 628 0 
L 628 4666 
z
" transform="scale(0.015625)"/>
       <path id="DejaVuSans-75" d="M 544 1381 
L 544 3500 
L 1119 3500 
L 1119 1403 
Q 1119 906 1312 657 
Q 1506 409 1894 409 
Q 2359 409 2629 706 
Q 2900 1003 2900 1516 
L 2900 3500 
L 3475 3500 
L 3475 0 
L 2900 0 
L 2900 538 
Q 2691 219 2414 64 
Q 2138 -91 1772 -91 
Q 1169 -91 856 284 
Q 544 659 544 1381 
z
M 1991 3584 
L 1991 3584 
z
" transform="scale(0.015625)"/>
       <path id="DejaVuSans-72" d="M 2631 2963 
Q 2534 3019 2420 3045 
Q 2306 3072 2169 3072 
Q 1681 3072 1420 2755 
Q 1159 2438 1159 1844 
L 1159 0 
L 581 0 
L 581 3500 
L 1159 3500 
L 1159 2956 
Q 1341 3275 1631 3429 
Q 1922 3584 2338 3584 
Q 2397 3584 2469 3576 
Q 2541 3569 2628 3553 
L 2631 2963 
z
" transform="scale(0.015625)"/>
      </defs>
      <use xlink:href="#DejaVuSans-41"/>
      <use xlink:href="#DejaVuSans-76" transform="translate(62.533203 0)"/>
      <use xlink:href="#DejaVuSans-67" transform="translate(121.712891 0)"/>
      <use xlink:href="#DejaVuSans-20" transform="translate(185.189453 0)"/>
      <use xlink:href="#DejaVuSans-44" transform="translate(216.976562 0)"/>
      <use xlink:href="#DejaVuSans-75" transform="translate(293.978516 0)"/>
      <use xlink:href="#DejaVuSans-72" transform="translate(357.357422 0)"/>
      <use xlink:href="#DejaVuSans-61" transform="translate(398.470703 0)"/>
      <use xlink:href="#DejaVuSans-74" transform="translate(459.75 0)"/>
      <use xlink:href="#DejaVuSans-69" transform="translate(498.958984 0)"/>
      <use xlink:href="#DejaVuSans-6f" transform="translate(526.742188 0)"/>
      <use xlink:href="#DejaVuSans-6e" transform="translate(587.923828 0)"/>
      <use xlink:href="#DejaVuSans-20" transform="translate(651.302734 0)"/>
      <use xlink:href="#DejaVuSans-28" transform="translate(683.089844 0)"/>
      <use xlink:href="#DejaVuSans-6d" transform="translate(722.103516 0)"/>
      <use xlink:href="#DejaVuSans-73" transform="translate(819.515625 0)"/>
      <use xlink:href="#DejaVuSans-29" transform="translate(871.615234 0)"/>
     </g>
    </g>
   </g>
   <g id="line2d_36">
    <path d="M 93.185972 229.795647 
L 95.577543 231.215477 
L 97.969115 236.078182 
L 100.360686 234.969333 
L 102.752258 235.025586 
L 105.143829 234.189028 
L 107.535401 233.526964 
L 109.926972 233.710968 
L 112.318544 232.969961 
L 114.710115 234.666882 
L 117.101687 230.760458 
L 119.493258 228.641898 
L 121.88483 225.40268 
L 124.276401 225.455502 
L 126.667973 231.916048 
L 129.059544 233.395926 
L 131.451116 233.386054 
L 133.842687 229.206388 
L 136.234259 231.286329 
L 138.62583 230.269197 
L 141.017402 227.439247 
L 143.408973 230.810939 
L 145.800545 230.601565 
L 148.192116 229.567996 
L 150.583688 229.12516 
L 152.975259 229.889027 
L 155.366831 224.489528 
L 157.758402 228.379084 
L 160.149974 222.738076 
L 162.541545 222.051997 
L 164.933117 222.386513 
L 167.324688 223.506115 
L 169.71626 221.875691 
L 172.107831 217.72391 
L 174.499403 224.289357 
L 176.890974 216.166113 
L 179.282546 216.954336 
L 181.674117 218.865429 
L 184.065689 214.508288 
L 186.45726 224.757074 
L 188.848832 224.245829 
L 191.240403 214.788566 
L 193.631975 214.65385 
L 196.023546 217.958501 
L 198.415118 218.075202 
L 200.806689 216.847926 
L 203.198261 216.636098 
L 205.589832 215.056295 
L 207.981404 208.840849 
L 210.372975 207.4917 
L 212.764547 211.785652 
L 215.156118 213.393367 
L 217.54769 211.878036 
L 219.939261 205.019748 
L 222.330833 196.781572 
L 224.722404 199.90705 
L 227.113976 194.159603 
L 229.505547 191.910255 
L 231.897119 188.122271 
L 234.288691 193.287831 
L 236.680262 192.680002 
L 239.071834 181.261873 
L 241.463405 187.249735 
L 243.854977 182.570078 
L 246.246548 148.681392 
L 253.421263 79.160225 
L 262.987549 58.166908 
L 265.37912 82.311789 
L 267.770692 155.425977 
L 270.162263 164.108076 
L 272.553835 168.924484 
L 274.945406 159.991363 
L 277.336978 165.116897 
L 279.728549 162.570931 
L 282.120121 163.204137 
L 284.511692 173.872352 
L 286.903264 170.774229 
L 289.294835 172.92528 
L 291.686407 178.684795 
L 294.077978 170.15627 
L 296.46955 172.21669 
L 298.861121 175.166763 
L 301.252693 175.415793 
L 303.644264 179.059534 
L 306.035836 176.541606 
L 308.427407 178.472878 
L 310.818979 175.922859 
L 313.21055 179.961784 
L 315.602122 173.761685 
L 317.993693 175.237649 
L 320.385265 175.208108 
L 322.776836 174.976251 
L 325.168408 170.525851 
L 327.559979 179.65357 
L 329.951551 172.519603 
L 332.343122 175.698688 
L 334.734694 181.809186 
L 337.126265 174.375143 
L 339.517837 168.676076 
L 341.909408 183.993191 
L 344.30098 173.440737 
L 346.692551 179.060471 
L 349.084123 177.647751 
L 351.475694 167.60836 
L 353.867266 163.51412 
L 356.258837 182.384816 
L 358.650409 162.082799 
L 363.433552 181.771308 
L 365.825123 170.067059 
L 368.216695 164.715795 
L 370.608266 178.437981 
L 372.999838 170.766501 
L 375.391409 165.683345 
L 377.782981 176.612822 
L 380.174552 165.748603 
L 382.566124 169.999018 
L 384.957695 173.13827 
L 387.349267 173.721473 
L 389.740838 171.397788 
L 392.13241 168.581769 
L 394.523981 182.629783 
L 396.915553 166.104142 
L 399.307124 160.5281 
L 401.698696 173.152977 
L 404.090267 148.137451 
L 406.481839 173.105275 
L 408.87341 169.600002 
L 411.264982 170.757898 
L 413.656553 169.508515 
L 416.048125 184.937204 
L 418.439696 171.230245 
L 420.831268 163.537382 
L 423.222839 179.258191 
L 425.614411 171.305129 
L 428.005982 168.781256 
L 430.397554 173.696512 
L 432.789125 163.730867 
L 435.180697 164.83365 
L 437.572268 162.85518 
L 439.96384 174.199078 
L 442.355411 156.388888 
L 444.746983 167.843338 
L 447.138554 176.539351 
L 449.530126 170.343719 
L 451.921697 169.003867 
L 454.313269 176.393124 
L 456.70484 162.009163 
L 459.096412 160.528542 
L 461.487983 181.121134 
L 463.879555 168.741041 
L 466.271126 161.942193 
L 468.662698 166.24754 
L 471.054269 159.056067 
L 473.445841 155.111075 
L 475.837412 176.625854 
L 478.228984 164.101746 
L 480.620555 171.974163 
L 483.012127 173.430743 
L 485.403698 167.853122 
L 487.79527 172.028117 
L 490.186841 167.816219 
L 492.578413 166.425512 
L 494.969984 181.488381 
L 497.361556 166.314866 
L 499.753127 161.5025 
L 502.144699 182.755968 
L 504.53627 161.660969 
L 506.927842 163.86927 
L 509.319413 167.868301 
L 511.710985 159.463216 
L 514.102556 164.909577 
L 516.494128 164.640302 
L 518.885699 182.609867 
L 521.277271 174.470859 
L 523.668842 173.98335 
L 526.060414 176.853126 
L 528.451985 175.075968 
L 530.843557 172.399683 
L 533.235128 176.645246 
L 535.6267 177.443057 
L 538.018271 171.318844 
L 540.409843 175.310763 
L 542.801414 177.602143 
L 545.192986 170.619664 
L 547.584557 170.610245 
L 549.976129 178.969298 
L 552.3677 172.277399 
L 554.759272 174.277033 
L 557.150843 171.795393 
L 559.542415 175.141961 
L 561.933986 173.405027 
L 564.325558 179.166992 
L 566.717129 182.475928 
L 569.108701 178.419168 
L 571.500272 180.220804 
L 573.891844 176.334674 
L 576.283415 174.136669 
L 578.674987 173.237203 
L 581.066558 176.833957 
L 583.45813 171.342163 
L 585.849701 174.941524 
L 588.241273 171.185274 
L 593.024416 167.145248 
L 595.415987 169.229915 
L 597.807559 163.27263 
L 600.19913 163.639685 
L 602.590702 170.822091 
L 604.982273 183.134439 
L 607.373845 169.701634 
L 609.765416 165.254205 
L 612.156988 176.597908 
L 614.54856 175.485526 
L 616.940131 178.861384 
L 619.331703 164.201575 
L 621.723274 174.294179 
L 624.114846 175.884759 
L 626.506417 173.665375 
L 628.897989 175.312139 
L 631.28956 175.859195 
L 633.681132 179.268689 
L 636.072703 173.76444 
L 638.464275 168.683942 
L 640.855846 180.881352 
L 643.247418 182.284455 
L 645.638989 171.252273 
L 648.030561 168.449436 
L 650.422132 175.798566 
L 652.813704 165.09184 
L 655.205275 173.976703 
L 657.596847 176.555003 
L 659.988418 177.60902 
L 662.37999 173.101199 
L 664.771561 167.484615 
L 667.163133 169.993162 
L 669.554704 169.16609 
L 671.946276 168.912309 
L 674.337847 166.376161 
L 676.729419 166.413766 
L 679.12099 170.788316 
L 681.512562 165.351172 
L 683.904133 168.594732 
L 686.295705 178.219647 
L 688.687276 175.822046 
L 691.078848 175.028941 
L 693.470419 174.459048 
L 695.861991 176.987021 
L 698.253562 184.353007 
L 700.645134 183.23021 
L 703.036705 177.217445 
L 705.428277 170.591113 
L 707.819848 177.618865 
L 710.21142 161.627505 
L 712.602991 165.994223 
L 714.994563 174.521929 
L 717.386134 181.694658 
L 719.777706 168.162917 
L 722.169277 168.550767 
L 724.560849 168.221038 
L 726.95242 180.855987 
L 729.343992 162.814733 
L 731.735563 171.304204 
L 734.127135 170.52185 
L 736.518706 173.619009 
L 738.910278 166.04806 
L 743.693421 172.130302 
L 746.084992 166.623116 
L 748.476564 169.0198 
L 750.868135 177.629414 
L 753.259707 175.614972 
L 755.651278 182.441194 
L 758.04285 179.449879 
L 760.434421 179.696886 
L 762.825993 179.690025 
L 765.217564 183.520813 
L 767.609136 179.866454 
L 770.000707 179.083617 
L 772.392279 174.317145 
L 774.78385 164.691811 
L 777.175422 181.73528 
L 779.566993 176.346594 
L 784.350136 168.854251 
L 786.741708 184.504286 
L 789.133279 166.805128 
L 791.524851 169.903575 
L 793.916422 163.597585 
L 796.307994 172.983052 
L 798.699565 175.467045 
L 801.091137 177.708636 
L 803.482708 175.913639 
L 805.87428 179.148979 
L 808.265851 178.784262 
L 810.657423 169.849528 
L 813.048994 163.486374 
L 815.440566 178.541535 
L 817.832137 167.671534 
L 820.223709 174.447407 
L 822.61528 183.072589 
L 825.006852 172.36911 
L 827.398423 178.852485 
L 829.789995 177.976949 
L 832.181566 174.516047 
L 834.573138 170.13811 
L 836.964709 185.131972 
L 839.356281 176.3669 
L 841.747852 175.140174 
L 844.139424 173.63269 
L 846.530995 178.161396 
L 848.922567 174.90557 
L 851.314138 176.287087 
L 853.70571 184.842634 
L 856.097281 183.424312 
L 858.488853 185.856338 
L 860.880424 180.973509 
L 863.271996 189.572811 
L 865.663567 180.749551 
L 868.055139 180.455146 
L 870.44671 171.56783 
L 872.838282 176.816804 
L 875.229853 170.436129 
L 877.621425 171.126023 
L 880.012996 176.147119 
L 882.404568 175.606635 
L 884.796139 174.0986 
L 887.187711 169.721184 
L 889.579282 174.161215 
L 891.970854 184.461143 
L 894.362425 179.857882 
L 896.753997 179.29238 
L 899.145568 182.029844 
L 901.53714 176.896243 
L 903.928711 177.277928 
L 906.320283 209.068966 
L 908.711854 185.519234 
L 911.103426 190.352931 
L 913.494997 197.337242 
L 915.886569 206.151459 
L 918.27814 207.913955 
L 920.669712 207.216972 
L 923.061283 213.383225 
L 925.452855 217.244418 
L 927.844426 227.064587 
L 930.235998 223.36904 
L 932.627569 224.821241 
L 935.019141 226.924214 
L 937.410712 225.954645 
L 939.802284 233.499418 
L 942.193855 228.817708 
L 944.585427 230.61203 
L 946.976998 227.186733 
L 949.36857 230.623181 
L 951.760141 228.794276 
L 954.151713 232.904152 
L 954.151713 232.904152 
" clip-path="url(#p060b316e3a)" style="fill: none; stroke: #1f77b4; stroke-width: 1.5; stroke-linecap: square"/>
   </g>
   <g id="line2d_37">
    <path d="M 93.185972 187.116171 
L 97.969115 188.368066 
L 100.360686 189.372752 
L 102.752258 187.492144 
L 105.143829 189.62528 
L 107.535401 188.834172 
L 109.926972 172.688104 
L 112.318544 186.068382 
L 114.710115 187.673247 
L 117.101687 180.797963 
L 119.493258 166.234175 
L 121.88483 162.738075 
L 124.276401 172.577445 
L 126.667973 173.436624 
L 129.059544 181.976742 
L 131.451116 165.826259 
L 133.842687 174.03799 
L 138.62583 171.425941 
L 141.017402 157.222834 
L 143.408973 169.705945 
L 145.800545 160.690471 
L 148.192116 170.220296 
L 150.583688 171.976671 
L 152.975259 172.093834 
L 155.366831 165.549044 
L 157.758402 162.768864 
L 160.149974 155.155521 
L 162.541545 164.663849 
L 164.933117 146.469874 
L 167.324688 154.309608 
L 169.71626 145.944815 
L 172.107831 145.977933 
L 174.499403 144.935425 
L 176.890974 146.529284 
L 179.282546 135.464043 
L 181.674117 151.185987 
L 184.065689 124.182189 
L 186.45726 129.544726 
L 188.848832 130.972182 
L 191.240403 127.324856 
L 193.631975 129.810144 
L 196.023546 119.952612 
L 198.415118 119.782543 
L 200.806689 125.388701 
L 203.198261 121.293201 
L 205.589832 120.642355 
L 207.981404 113.147137 
L 210.372975 109.48733 
L 212.764547 114.542522 
L 215.156118 118.704932 
L 217.54769 112.95739 
L 219.939261 109.8538 
L 222.330833 111.482334 
L 224.722404 107.030423 
L 227.113976 106.551716 
L 229.505547 110.00428 
L 231.897119 109.201956 
L 234.288691 105.789994 
L 236.680262 104.195111 
L 239.071834 107.440318 
L 241.463405 113.694725 
L 243.854977 104.025564 
L 246.246548 102.943199 
L 248.63812 105.399303 
L 251.029691 108.665432 
L 253.421263 105.618009 
L 255.812834 103.682865 
L 258.204406 108.289916 
L 260.595977 109.829153 
L 262.987549 109.815743 
L 265.37912 117.543011 
L 267.770692 106.771412 
L 270.162263 105.034471 
L 272.553835 112.306006 
L 274.945406 109.780313 
L 277.336978 108.302417 
L 279.728549 105.878732 
L 282.120121 105.997495 
L 284.511692 94.54929 
L 286.903264 96.350334 
L 289.294835 89.743491 
L 294.077978 102.122704 
L 296.46955 116.513769 
L 301.252693 97.080061 
L 303.644264 101.385254 
L 306.035836 106.766708 
L 308.427407 105.543308 
L 310.818979 100.184963 
L 313.21055 103.120708 
L 315.602122 100.268638 
L 317.993693 99.053322 
L 320.385265 99.718974 
L 322.776836 97.245769 
L 327.559979 125.212101 
L 329.951551 93.987564 
L 332.343122 83.43139 
L 334.734694 82.446936 
L 337.126265 87.116854 
L 339.517837 102.44404 
L 341.909408 102.787983 
L 344.30098 102.232217 
L 346.692551 98.9936 
L 349.084123 99.294003 
L 351.475694 98.278777 
L 356.258837 107.177167 
L 358.650409 98.372462 
L 361.04198 101.424198 
L 363.433552 97.848429 
L 365.825123 103.456164 
L 368.216695 94.883132 
L 370.608266 100.420795 
L 372.999838 100.992796 
L 375.391409 103.760999 
L 377.782981 102.370074 
L 380.174552 104.490393 
L 382.566124 97.743173 
L 384.957695 99.442347 
L 387.349267 102.277127 
L 389.740838 104.01652 
L 392.13241 99.786926 
L 394.523981 94.64139 
L 396.915553 94.063845 
L 399.307124 100.171941 
L 401.698696 102.908108 
L 404.090267 100.489332 
L 406.481839 101.333137 
L 408.87341 98.443956 
L 411.264982 95.331072 
L 413.656553 92.945282 
L 416.048125 98.463415 
L 418.439696 106.307804 
L 420.831268 100.96657 
L 423.222839 100.111562 
L 425.614411 91.875903 
L 428.005982 98.598373 
L 430.397554 100.429722 
L 432.789125 100.750801 
L 435.180697 99.381792 
L 437.572268 98.262104 
L 439.96384 101.889269 
L 442.355411 94.690423 
L 444.746983 97.243187 
L 447.138554 99.265545 
L 449.530126 95.093469 
L 451.921697 98.204277 
L 454.313269 96.012178 
L 456.70484 89.800545 
L 459.096412 98.640682 
L 461.487983 93.752571 
L 463.879555 103.857266 
L 466.271126 96.51211 
L 468.662698 85.660819 
L 471.054269 97.362154 
L 473.445841 113.810109 
L 475.837412 100.205831 
L 478.228984 100.784517 
L 480.620555 105.134303 
L 483.012127 99.224271 
L 485.403698 89.123631 
L 487.79527 89.723419 
L 490.186841 95.103685 
L 492.578413 105.76355 
L 494.969984 97.288332 
L 497.361556 99.726356 
L 499.753127 93.500139 
L 502.144699 84.426838 
L 504.53627 91.469284 
L 506.927842 82.503124 
L 509.319413 80.812581 
L 511.710985 90.482722 
L 514.102556 116.282474 
L 516.494128 106.435691 
L 518.885699 94.764357 
L 521.277271 92.405025 
L 523.668842 104.393058 
L 526.060414 92.704991 
L 528.451985 96.171896 
L 530.843557 96.894745 
L 533.235128 99.59501 
L 535.6267 113.936968 
L 540.409843 83.32414 
L 542.801414 78.051971 
L 545.192986 71.787646 
L 547.584557 70.91878 
L 549.976129 83.534436 
L 552.3677 91.380837 
L 554.759272 109.159346 
L 557.150843 97.818247 
L 559.542415 97.345032 
L 561.933986 98.660749 
L 564.325558 101.63216 
L 566.717129 92.414036 
L 569.108701 94.312738 
L 571.500272 94.551971 
L 573.891844 111.655097 
L 576.283415 100.690815 
L 578.674987 99.711479 
L 581.066558 77.51967 
L 583.45813 87.652793 
L 585.849701 155.744376 
L 588.241273 115.129746 
L 590.632844 103.945122 
L 593.024416 88.800778 
L 595.415987 87.169806 
L 597.807559 96.424602 
L 600.19913 112.922553 
L 602.590702 97.669656 
L 604.982273 95.676375 
L 607.373845 88.965469 
L 609.765416 91.144111 
L 612.156988 96.760815 
L 614.54856 111.916946 
L 616.940131 98.931345 
L 619.331703 86.927938 
L 621.723274 97.653979 
L 624.114846 111.791586 
L 626.506417 101.858266 
L 628.897989 89.66319 
L 631.28956 93.557913 
L 633.681132 94.749949 
L 636.072703 93.790614 
L 638.464275 90.380116 
L 640.855846 92.312008 
L 643.247418 94.015074 
L 645.638989 111.879099 
L 648.030561 108.109622 
L 650.422132 88.979109 
L 652.813704 99.433035 
L 655.205275 106.406008 
L 657.596847 107.767244 
L 659.988418 92.028685 
L 662.37999 83.256662 
L 664.771561 89.895158 
L 667.163133 111.348284 
L 669.554704 106.515964 
L 671.946276 96.236996 
L 674.337847 90.556692 
L 676.729419 90.281383 
L 679.12099 89.313935 
L 683.904133 86.93453 
L 686.295705 110.138869 
L 688.687276 123.408188 
L 691.078848 104.835909 
L 693.470419 93.715492 
L 695.861991 94.781709 
L 698.253562 93.277531 
L 700.645134 92.324006 
L 703.036705 96.070492 
L 705.428277 93.949867 
L 707.819848 105.161759 
L 710.21142 99.930665 
L 712.602991 95.509197 
L 714.994563 100.47206 
L 717.386134 97.871347 
L 719.777706 100.95623 
L 722.169277 92.838995 
L 724.560849 85.23524 
L 726.95242 92.726403 
L 729.343992 102.11358 
L 731.735563 115.399709 
L 734.127135 102.068595 
L 736.518706 91.646429 
L 738.910278 97.465463 
L 741.301849 99.966974 
L 743.693421 96.002881 
L 746.084992 105.855803 
L 748.476564 105.418358 
L 750.868135 98.409022 
L 753.259707 82.228741 
L 755.651278 81.219347 
L 758.04285 95.868074 
L 760.434421 107.331142 
L 762.825993 102.677878 
L 765.217564 89.813906 
L 767.609136 84.089185 
L 770.000707 91.157836 
L 772.392279 123.79237 
L 774.78385 100.904841 
L 777.175422 94.221145 
L 779.566993 90.174599 
L 781.958565 101.784552 
L 784.350136 105.074692 
L 786.741708 98.059083 
L 789.133279 89.698207 
L 791.524851 92.636128 
L 793.916422 107.907097 
L 796.307994 104.927286 
L 798.699565 91.440912 
L 801.091137 90.794841 
L 803.482708 86.994755 
L 805.87428 99.308027 
L 808.265851 120.646637 
L 810.657423 101.938618 
L 813.048994 91.852783 
L 815.440566 94.643267 
L 817.832137 98.365864 
L 820.223709 100.468214 
L 822.61528 101.537194 
L 825.006852 95.161876 
L 827.398423 100.416998 
L 829.789995 115.287466 
L 832.181566 102.178092 
L 834.573138 109.960215 
L 836.964709 107.707234 
L 839.356281 107.004047 
L 841.747852 99.545929 
L 844.139424 117.244437 
L 846.530995 115.735258 
L 848.922567 106.134592 
L 851.314138 103.813483 
L 853.70571 108.223432 
L 856.097281 117.942398 
L 858.488853 99.318694 
L 860.880424 114.5602 
L 863.271996 123.615326 
L 865.663567 124.62202 
L 868.055139 116.051758 
L 870.44671 104.394606 
L 872.838282 98.913051 
L 875.229853 120.620292 
L 877.621425 125.153214 
L 880.012996 120.970878 
L 882.404568 122.129965 
L 884.796139 142.592511 
L 887.187711 133.840556 
L 889.579282 129.617233 
L 891.970854 136.484286 
L 894.362425 139.860671 
L 896.753997 137.108746 
L 899.145568 152.134537 
L 901.53714 142.459381 
L 903.928711 169.69244 
L 906.320283 157.399452 
L 911.103426 170.247359 
L 913.494997 169.324793 
L 915.886569 176.132749 
L 918.27814 177.94114 
L 920.669712 166.978176 
L 923.061283 174.524824 
L 925.452855 175.437843 
L 927.844426 187.222404 
L 930.235998 186.818973 
L 932.627569 174.459903 
L 935.019141 185.569033 
L 937.410712 183.379828 
L 939.802284 189.056129 
L 942.193855 176.840935 
L 944.585427 185.43883 
L 946.976998 180.066804 
L 949.36857 186.93094 
L 951.760141 189.853358 
L 954.151713 188.93317 
L 954.151713 188.93317 
" clip-path="url(#p060b316e3a)" style="fill: none; stroke: #ff7f0e; stroke-width: 1.5; stroke-linecap: square"/>
   </g>
   <g id="line2d_38">
    <path d="M 93.185972 162.871528 
L 95.577543 152.753682 
L 97.969115 164.527994 
L 100.360686 172.138803 
L 105.143829 159.567787 
L 107.535401 174.24871 
L 109.926972 148.655814 
L 112.318544 161.779977 
L 114.710115 152.737371 
L 117.101687 163.384099 
L 119.493258 141.258213 
L 121.88483 140.619456 
L 124.276401 136.001877 
L 126.667973 147.948297 
L 129.059544 131.371372 
L 131.451116 138.301426 
L 133.842687 126.618569 
L 136.234259 122.939379 
L 138.62583 131.748471 
L 141.017402 121.70305 
L 143.408973 123.330583 
L 145.800545 125.216721 
L 148.192116 117.893608 
L 150.583688 115.340818 
L 152.975259 118.18555 
L 155.366831 112.03282 
L 157.758402 110.497607 
L 160.149974 108.335037 
L 162.541545 108.156996 
L 164.933117 111.568485 
L 167.324688 109.46188 
L 169.71626 101.070983 
L 172.107831 97.068649 
L 174.499403 94.530571 
L 176.890974 83.327288 
L 181.674117 88.702144 
L 184.065689 98.500209 
L 186.45726 94.388549 
L 188.848832 86.180926 
L 191.240403 82.493153 
L 193.631975 81.575295 
L 196.023546 78.470686 
L 198.415118 88.821985 
L 200.806689 76.558929 
L 203.198261 76.86543 
L 205.589832 76.054516 
L 207.981404 76.143603 
L 210.372975 69.773655 
L 212.764547 75.909254 
L 215.156118 76.415083 
L 217.54769 69.909698 
L 219.939261 68.115768 
L 222.330833 66.551212 
L 224.722404 66.104381 
L 227.113976 68.980813 
L 229.505547 69.679817 
L 231.897119 67.738348 
L 234.288691 64.849384 
L 236.680262 64.248852 
L 239.071834 64.309222 
L 241.463405 60.719972 
L 243.854977 61.519243 
L 246.246548 57.731122 
L 248.63812 66.508146 
L 251.029691 65.44325 
L 253.421263 59.623945 
L 255.812834 61.905209 
L 258.204406 63.802861 
L 260.595977 61.873422 
L 262.987549 62.662182 
L 265.37912 62.27866 
L 267.770692 63.992501 
L 270.162263 67.682854 
L 272.553835 62.966294 
L 274.945406 61.850975 
L 277.336978 63.02534 
L 279.728549 66.143977 
L 284.511692 60.383991 
L 286.903264 70.654574 
L 289.294835 68.846712 
L 291.686407 68.741122 
L 294.077978 58.838816 
L 296.46955 58.452198 
L 298.861121 60.100506 
L 301.252693 66.289066 
L 303.644264 62.370618 
L 306.035836 64.309323 
L 308.427407 73.044413 
L 310.818979 67.965607 
L 313.21055 66.517777 
L 315.602122 62.911366 
L 317.993693 65.433001 
L 320.385265 56.304501 
L 322.776836 63.863098 
L 325.168408 68.182616 
L 327.559979 68.432931 
L 329.951551 63.090574 
L 332.343122 63.475302 
L 334.734694 61.307838 
L 337.126265 61.320255 
L 339.517837 58.632488 
L 341.909408 63.932637 
L 344.30098 72.442524 
L 346.692551 76.738402 
L 349.084123 72.643342 
L 351.475694 66.127266 
L 353.867266 63.466512 
L 356.258837 63.333431 
L 358.650409 63.068084 
L 361.04198 59.420574 
L 363.433552 62.624397 
L 365.825123 56.225174 
L 368.216695 67.726247 
L 370.608266 66.24815 
L 372.999838 66.505859 
L 375.391409 62.39655 
L 377.782981 62.647401 
L 380.174552 62.411537 
L 382.566124 61.2097 
L 384.957695 63.448045 
L 387.349267 65.285312 
L 389.740838 64.509711 
L 392.13241 61.518469 
L 394.523981 64.13589 
L 396.915553 61.417232 
L 399.307124 60.056624 
L 401.698696 61.029615 
L 404.090267 66.268042 
L 406.481839 62.831823 
L 408.87341 64.501341 
L 411.264982 71.049393 
L 413.656553 74.324973 
L 416.048125 72.153017 
L 418.439696 73.074588 
L 420.831268 71.479574 
L 423.222839 72.529689 
L 425.614411 66.630784 
L 428.005982 69.318648 
L 430.397554 66.581241 
L 432.789125 64.768307 
L 435.180697 56.263225 
L 437.572268 59.420129 
L 439.96384 56.2863 
L 442.355411 63.616954 
L 444.746983 50.458005 
L 447.138554 54.060034 
L 449.530126 59.231451 
L 451.921697 36.841818 
L 454.313269 58.892735 
L 456.70484 54.703817 
L 459.096412 63.098686 
L 461.487983 60.606355 
L 463.879555 62.97817 
L 466.271126 60.822396 
L 468.662698 62.407852 
L 471.054269 61.866809 
L 473.445841 66.652315 
L 475.837412 62.800457 
L 478.228984 64.202209 
L 480.620555 60.053068 
L 483.012127 62.689726 
L 485.403698 60.087864 
L 487.79527 55.769874 
L 490.186841 56.353273 
L 492.578413 60.45456 
L 494.969984 60.539154 
L 497.361556 67.60443 
L 499.753127 57.916842 
L 504.53627 72.470161 
L 506.927842 67.48998 
L 509.319413 71.467392 
L 511.710985 58.105721 
L 514.102556 63.652621 
L 516.494128 60.683759 
L 518.885699 61.508429 
L 521.277271 59.234199 
L 523.668842 55.327568 
L 526.060414 53.06733 
L 528.451985 56.773761 
L 530.843557 62.018426 
L 535.6267 61.827157 
L 538.018271 59.790633 
L 540.409843 57.113095 
L 542.801414 63.612396 
L 545.192986 52.648855 
L 547.584557 61.012836 
L 549.976129 60.96961 
L 552.3677 62.992811 
L 557.150843 59.183585 
L 559.542415 58.640875 
L 561.933986 60.921589 
L 564.325558 60.783955 
L 566.717129 65.046314 
L 569.108701 64.214692 
L 571.500272 65.197812 
L 573.891844 60.995124 
L 576.283415 61.741112 
L 581.066558 69.328704 
L 583.45813 65.423263 
L 585.849701 63.968098 
L 588.241273 67.759872 
L 590.632844 62.635482 
L 593.024416 67.851989 
L 595.415987 62.43246 
L 597.807559 62.628359 
L 600.19913 61.843402 
L 602.590702 62.542833 
L 604.982273 58.543634 
L 607.373845 62.987952 
L 612.156988 70.143022 
L 614.54856 63.382101 
L 616.940131 62.513198 
L 619.331703 60.780892 
L 621.723274 61.734839 
L 624.114846 57.234992 
L 626.506417 58.077698 
L 628.897989 62.477427 
L 631.28956 63.442454 
L 633.681132 62.883236 
L 636.072703 62.978464 
L 638.464275 61.291787 
L 640.855846 63.992585 
L 643.247418 63.360009 
L 645.638989 61.68087 
L 648.030561 69.055716 
L 650.422132 64.754551 
L 652.813704 62.20392 
L 655.205275 64.22371 
L 657.596847 60.371721 
L 659.988418 62.94122 
L 662.37999 64.562004 
L 667.163133 72.005964 
L 669.554704 67.32996 
L 671.946276 69.620054 
L 674.337847 62.830757 
L 676.729419 65.385943 
L 679.12099 59.581035 
L 681.512562 65.625249 
L 683.904133 74.751141 
L 686.295705 65.552195 
L 688.687276 66.23883 
L 691.078848 65.727927 
L 693.470419 60.679212 
L 695.861991 60.780602 
L 698.253562 62.405384 
L 700.645134 69.897318 
L 703.036705 69.051892 
L 705.428277 71.341132 
L 710.21142 66.837453 
L 712.602991 59.731152 
L 714.994563 61.649381 
L 717.386134 61.25311 
L 719.777706 70.726053 
L 722.169277 100.31053 
L 724.560849 76.091356 
L 726.95242 85.296507 
L 729.343992 75.270156 
L 731.735563 70.898523 
L 734.127135 75.087462 
L 736.518706 70.160548 
L 738.910278 75.621027 
L 741.301849 61.051796 
L 743.693421 77.860482 
L 746.084992 53.543864 
L 748.476564 68.330283 
L 750.868135 56.535314 
L 753.259707 50.639072 
L 755.651278 55.728138 
L 758.04285 57.017539 
L 760.434421 53.341379 
L 762.825993 61.525364 
L 765.217564 59.161412 
L 767.609136 67.984426 
L 770.000707 63.629783 
L 772.392279 64.051694 
L 774.78385 61.85864 
L 777.175422 60.93951 
L 779.566993 62.976128 
L 781.958565 64.707197 
L 784.350136 70.7715 
L 786.741708 64.092574 
L 789.133279 65.918407 
L 791.524851 70.043572 
L 793.916422 63.614188 
L 796.307994 63.234866 
L 798.699565 62.974961 
L 801.091137 66.41265 
L 803.482708 59.988842 
L 805.87428 57.74635 
L 808.265851 61.602119 
L 810.657423 61.784541 
L 813.048994 60.629393 
L 815.440566 58.526553 
L 817.832137 60.625958 
L 820.223709 54.670894 
L 822.61528 60.633642 
L 825.006852 61.294754 
L 827.398423 60.342163 
L 829.789995 63.831873 
L 832.181566 60.973561 
L 834.573138 65.013562 
L 836.964709 64.530791 
L 839.356281 65.721593 
L 841.747852 63.851401 
L 844.139424 69.513149 
L 846.530995 70.059247 
L 848.922567 74.778255 
L 851.314138 69.426746 
L 853.70571 73.294225 
L 856.097281 72.845436 
L 858.488853 66.662913 
L 860.880424 69.816971 
L 863.271996 74.939172 
L 865.663567 70.003886 
L 868.055139 83.345788 
L 870.44671 89.192753 
L 872.838282 78.131444 
L 875.229853 81.482536 
L 877.621425 83.675473 
L 880.012996 89.364047 
L 882.404568 87.194147 
L 884.796139 90.000093 
L 887.187711 97.849994 
L 889.579282 89.823003 
L 891.970854 96.238963 
L 894.362425 99.018203 
L 896.753997 106.649929 
L 899.145568 110.08808 
L 901.53714 103.203128 
L 903.928711 102.013659 
L 906.320283 121.215011 
L 908.711854 115.074275 
L 911.103426 109.388037 
L 913.494997 117.660534 
L 915.886569 120.269222 
L 918.27814 129.181098 
L 920.669712 139.246019 
L 923.061283 130.126155 
L 925.452855 139.467765 
L 927.844426 153.603354 
L 930.235998 146.728547 
L 932.627569 161.730601 
L 935.019141 165.809135 
L 937.410712 172.151493 
L 939.802284 168.802282 
L 942.193855 163.379435 
L 944.585427 190.154042 
L 946.976998 184.866964 
L 949.36857 183.47313 
L 951.760141 188.884291 
L 951.760141 188.884291 
" clip-path="url(#p060b316e3a)" style="fill: none; stroke: #2ca02c; stroke-width: 1.5; stroke-linecap: square"/>
   </g>
   <g id="patch_3">
    <path d="M 50.137685 246.04 
L 50.137685 26.88 
" style="fill: none; stroke: #000000; stroke-width: 0.8; stroke-linejoin: miter; stroke-linecap: square"/>
   </g>
   <g id="patch_4">
    <path d="M 997.2 246.04 
L 997.2 26.88 
" style="fill: none; stroke: #000000; stroke-width: 0.8; stroke-linejoin: miter; stroke-linecap: square"/>
   </g>
   <g id="patch_5">
    <path d="M 50.137685 246.04 
L 997.2 246.04 
" style="fill: none; stroke: #000000; stroke-width: 0.8; stroke-linejoin: miter; stroke-linecap: square"/>
   </g>
   <g id="patch_6">
    <path d="M 50.137685 26.88 
L 997.2 26.88 
" style="fill: none; stroke: #000000; stroke-width: 0.8; stroke-linejoin: miter; stroke-linecap: square"/>
   </g>
   <g id="text_14">
    <!-- Average HTTP Request Duration (log scale) -->
    <g transform="translate(394.420405 20.88) scale(0.12 -0.12)">
     <defs>
      <path id="DejaVuSans-48" d="M 628 4666 
L 1259 4666 
L 1259 2753 
L 3553 2753 
L 3553 4666 
L 4184 4666 
L 4184 0 
L 3553 0 
L 3553 2222 
L 1259 2222 
L 1259 0 
L 628 0 
L 628 4666 
z
" transform="scale(0.015625)"/>
      <path id="DejaVuSans-50" d="M 1259 4147 
L 1259 2394 
L 2053 2394 
Q 2494 2394 2734 2622 
Q 2975 2850 2975 3272 
Q 2975 3691 2734 3919 
Q 2494 4147 2053 4147 
L 1259 4147 
z
M 628 4666 
L 2053 4666 
Q 2838 4666 3239 4311 
Q 3641 3956 3641 3272 
Q 3641 2581 3239 2228 
Q 2838 1875 2053 1875 
L 1259 1875 
L 1259 0 
L 628 0 
L 628 4666 
z
" transform="scale(0.015625)"/>
      <path id="DejaVuSans-52" d="M 2841 2188 
Q 3044 2119 3236 1894 
Q 3428 1669 3622 1275 
L 4263 0 
L 3584 0 
L 2988 1197 
Q 2756 1666 2539 1819 
Q 2322 1972 1947 1972 
L 1259 1972 
L 1259 0 
L 628 0 
L 628 4666 
L 2053 4666 
Q 2853 4666 3247 4331 
Q 3641 3997 3641 3322 
Q 3641 2881 3436 2590 
Q 3231 2300 2841 2188 
z
M 1259 4147 
L 1259 2491 
L 2053 2491 
Q 2509 2491 2742 2702 
Q 2975 2913 2975 3322 
Q 2975 3731 2742 3939 
Q 2509 4147 2053 4147 
L 1259 4147 
z
" transform="scale(0.015625)"/>
      <path id="DejaVuSans-71" d="M 947 1747 
Q 947 1113 1208 752 
Q 1469 391 1925 391 
Q 2381 391 2643 752 
Q 2906 1113 2906 1747 
Q 2906 2381 2643 2742 
Q 2381 3103 1925 3103 
Q 1469 3103 1208 2742 
Q 947 2381 947 1747 
z
M 2906 525 
Q 2725 213 2448 61 
Q 2172 -91 1784 -91 
Q 1150 -91 751 415 
Q 353 922 353 1747 
Q 353 2572 751 3078 
Q 1150 3584 1784 3584 
Q 2172 3584 2448 3432 
Q 2725 3281 2906 2969 
L 2906 3500 
L 3481 3500 
L 3481 -1331 
L 2906 -1331 
L 2906 525 
z
" transform="scale(0.015625)"/>
      <path id="DejaVuSans-6c" d="M 603 4863 
L 1178 4863 
L 1178 0 
L 603 0 
L 603 4863 
z
" transform="scale(0.015625)"/>
     </defs>
     <use xlink:href="#DejaVuSans-41"/>
     <use xlink:href="#DejaVuSans-76" transform="translate(62.533203 0)"/>
     <use xlink:href="#DejaVuSans-65" transform="translate(121.712891 0)"/>
     <use xlink:href="#DejaVuSans-72" transform="translate(183.236328 0)"/>
     <use xlink:href="#DejaVuSans-61" transform="translate(224.349609 0)"/>
     <use xlink:href="#DejaVuSans-67" transform="translate(285.628906 0)"/>
     <use xlink:href="#DejaVuSans-65" transform="translate(349.105469 0)"/>
     <use xlink:href="#DejaVuSans-20" transform="translate(410.628906 0)"/>
     <use xlink:href="#DejaVuSans-48" transform="translate(442.416016 0)"/>
     <use xlink:href="#DejaVuSans-54" transform="translate(517.611328 0)"/>
     <use xlink:href="#DejaVuSans-54" transform="translate(576.945312 0)"/>
     <use xlink:href="#DejaVuSans-50" transform="translate(638.029297 0)"/>
     <use xlink:href="#DejaVuSans-20" transform="translate(698.332031 0)"/>
     <use xlink:href="#DejaVuSans-52" transform="translate(730.119141 0)"/>
     <use xlink:href="#DejaVuSans-65" transform="translate(795.101562 0)"/>
     <use xlink:href="#DejaVuSans-71" transform="translate(856.625 0)"/>
     <use xlink:href="#DejaVuSans-75" transform="translate(920.101562 0)"/>
     <use xlink:href="#DejaVuSans-65" transform="translate(983.480469 0)"/>
     <use xlink:href="#DejaVuSans-73" transform="translate(1045.003906 0)"/>
     <use xlink:href="#DejaVuSans-74" transform="translate(1097.103516 0)"/>
     <use xlink:href="#DejaVuSans-20" transform="translate(1136.3125 0)"/>
     <use xlink:href="#DejaVuSans-44" transform="translate(1168.099609 0)"/>
     <use xlink:href="#DejaVuSans-75" transform="translate(1245.101562 0)"/>
     <use xlink:href="#DejaVuSans-72" transform="translate(1308.480469 0)"/>
     <use xlink:href="#DejaVuSans-61" transform="translate(1349.59375 0)"/>
     <use xlink:href="#DejaVuSans-74" transform="translate(1410.873047 0)"/>
     <use xlink:href="#DejaVuSans-69" transform="translate(1450.082031 0)"/>
     <use xlink:href="#DejaVuSans-6f" transform="translate(1477.865234 0)"/>
     <use xlink:href="#DejaVuSans-6e" transform="translate(1539.046875 0)"/>
     <use xlink:href="#DejaVuSans-20" transform="translate(1602.425781 0)"/>
     <use xlink:href="#DejaVuSans-28" transform="translate(1634.212891 0)"/>
     <use xlink:href="#DejaVuSans-6c" transform="translate(1673.226562 0)"/>
     <use xlink:href="#DejaVuSans-6f" transform="translate(1701.009766 0)"/>
     <use xlink:href="#DejaVuSans-67" transform="translate(1762.191406 0)"/>
     <use xlink:href="#DejaVuSans-20" transform="translate(1825.667969 0)"/>
     <use xlink:href="#DejaVuSans-73" transform="translate(1857.455078 0)"/>
     <use xlink:href="#DejaVuSans-63" transform="translate(1909.554688 0)"/>
     <use xlink:href="#DejaVuSans-61" transform="translate(1964.535156 0)"/>
     <use xlink:href="#DejaVuSans-6c" transform="translate(2025.814453 0)"/>
     <use xlink:href="#DejaVuSans-65" transform="translate(2053.597656 0)"/>
     <use xlink:href="#DejaVuSans-29" transform="translate(2115.121094 0)"/>
    </g>
   </g>
   <g id="legend_1">
    <g id="patch_7">
     <path d="M 57.137685 78.914375 
L 190.481435 78.914375 
Q 192.481435 78.914375 192.481435 76.914375 
L 192.481435 33.88 
Q 192.481435 31.88 190.481435 31.88 
L 57.137685 31.88 
Q 55.137685 31.88 55.137685 33.88 
L 55.137685 76.914375 
Q 55.137685 78.914375 57.137685 78.914375 
z
" style="fill: #ffffff; opacity: 0.8; stroke: #cccccc; stroke-linejoin: miter"/>
    </g>
    <g id="line2d_39">
     <path d="M 59.137685 39.978438 
L 69.137685 39.978438 
L 79.137685 39.978438 
" style="fill: none; stroke: #1f77b4; stroke-width: 1.5; stroke-linecap: square"/>
    </g>
    <g id="text_15">
     <!-- Single Large Results -->
     <g transform="translate(87.137685 43.478438) scale(0.1 -0.1)">
      <defs>
       <path id="DejaVuSans-4c" d="M 628 4666 
L 1259 4666 
L 1259 531 
L 3531 531 
L 3531 0 
L 628 0 
L 628 4666 
z
" transform="scale(0.015625)"/>
      </defs>
      <use xlink:href="#DejaVuSans-53"/>
      <use xlink:href="#DejaVuSans-69" transform="translate(63.476562 0)"/>
      <use xlink:href="#DejaVuSans-6e" transform="translate(91.259766 0)"/>
      <use xlink:href="#DejaVuSans-67" transform="translate(154.638672 0)"/>
      <use xlink:href="#DejaVuSans-6c" transform="translate(218.115234 0)"/>
      <use xlink:href="#DejaVuSans-65" transform="translate(245.898438 0)"/>
      <use xlink:href="#DejaVuSans-20" transform="translate(307.421875 0)"/>
      <use xlink:href="#DejaVuSans-4c" transform="translate(339.208984 0)"/>
      <use xlink:href="#DejaVuSans-61" transform="translate(394.921875 0)"/>
      <use xlink:href="#DejaVuSans-72" transform="translate(456.201172 0)"/>
      <use xlink:href="#DejaVuSans-67" transform="translate(495.564453 0)"/>
      <use xlink:href="#DejaVuSans-65" transform="translate(559.041016 0)"/>
      <use xlink:href="#DejaVuSans-20" transform="translate(620.564453 0)"/>
      <use xlink:href="#DejaVuSans-52" transform="translate(652.351562 0)"/>
      <use xlink:href="#DejaVuSans-65" transform="translate(717.333984 0)"/>
      <use xlink:href="#DejaVuSans-73" transform="translate(778.857422 0)"/>
      <use xlink:href="#DejaVuSans-75" transform="translate(830.957031 0)"/>
      <use xlink:href="#DejaVuSans-6c" transform="translate(894.335938 0)"/>
      <use xlink:href="#DejaVuSans-74" transform="translate(922.119141 0)"/>
      <use xlink:href="#DejaVuSans-73" transform="translate(961.328125 0)"/>
     </g>
    </g>
    <g id="line2d_40">
     <path d="M 59.137685 54.656563 
L 69.137685 54.656563 
L 79.137685 54.656563 
" style="fill: none; stroke: #ff7f0e; stroke-width: 1.5; stroke-linecap: square"/>
    </g>
    <g id="text_16">
     <!-- Single Small Results -->
     <g transform="translate(87.137685 58.156563) scale(0.1 -0.1)">
      <use xlink:href="#DejaVuSans-53"/>
      <use xlink:href="#DejaVuSans-69" transform="translate(63.476562 0)"/>
      <use xlink:href="#DejaVuSans-6e" transform="translate(91.259766 0)"/>
      <use xlink:href="#DejaVuSans-67" transform="translate(154.638672 0)"/>
      <use xlink:href="#DejaVuSans-6c" transform="translate(218.115234 0)"/>
      <use xlink:href="#DejaVuSans-65" transform="translate(245.898438 0)"/>
      <use xlink:href="#DejaVuSans-20" transform="translate(307.421875 0)"/>
      <use xlink:href="#DejaVuSans-53" transform="translate(339.208984 0)"/>
      <use xlink:href="#DejaVuSans-6d" transform="translate(402.685547 0)"/>
      <use xlink:href="#DejaVuSans-61" transform="translate(500.097656 0)"/>
      <use xlink:href="#DejaVuSans-6c" transform="translate(561.376953 0)"/>
      <use xlink:href="#DejaVuSans-6c" transform="translate(589.160156 0)"/>
      <use xlink:href="#DejaVuSans-20" transform="translate(616.943359 0)"/>
      <use xlink:href="#DejaVuSans-52" transform="translate(648.730469 0)"/>
      <use xlink:href="#DejaVuSans-65" transform="translate(713.712891 0)"/>
      <use xlink:href="#DejaVuSans-73" transform="translate(775.236328 0)"/>
      <use xlink:href="#DejaVuSans-75" transform="translate(827.335938 0)"/>
      <use xlink:href="#DejaVuSans-6c" transform="translate(890.714844 0)"/>
      <use xlink:href="#DejaVuSans-74" transform="translate(918.498047 0)"/>
      <use xlink:href="#DejaVuSans-73" transform="translate(957.707031 0)"/>
     </g>
    </g>
    <g id="line2d_41">
     <path d="M 59.137685 69.334688 
L 69.137685 69.334688 
L 79.137685 69.334688 
" style="fill: none; stroke: #2ca02c; stroke-width: 1.5; stroke-linecap: square"/>
    </g>
    <g id="text_17">
     <!-- Multi Results -->
     <g transform="translate(87.137685 72.834688) scale(0.1 -0.1)">
      <defs>
       <path id="DejaVuSans-4d" d="M 628 4666 
L 1569 4666 
L 2759 1491 
L 3956 4666 
L 4897 4666 
L 4897 0 
L 4281 0 
L 4281 4097 
L 3078 897 
L 2444 897 
L 1241 4097 
L 1241 0 
L 628 0 
L 628 4666 
z
" transform="scale(0.015625)"/>
      </defs>
      <use xlink:href="#DejaVuSans-4d"/>
      <use xlink:href="#DejaVuSans-75" transform="translate(86.279297 0)"/>
      <use xlink:href="#DejaVuSans-6c" transform="translate(149.658203 0)"/>
      <use xlink:href="#DejaVuSans-74" transform="translate(177.441406 0)"/>
      <use xlink:href="#DejaVuSans-69" transform="translate(216.650391 0)"/>
      <use xlink:href="#DejaVuSans-20" transform="translate(244.433594 0)"/>
      <use xlink:href="#DejaVuSans-52" transform="translate(276.220703 0)"/>
      <use xlink:href="#DejaVuSans-65" transform="translate(341.203125 0)"/>
      <use xlink:href="#DejaVuSans-73" transform="translate(402.726562 0)"/>
      <use xlink:href="#DejaVuSans-75" transform="translate(454.826172 0)"/>
      <use xlink:href="#DejaVuSans-6c" transform="translate(518.205078 0)"/>
      <use xlink:href="#DejaVuSans-74" transform="translate(545.988281 0)"/>
      <use xlink:href="#DejaVuSans-73" transform="translate(585.197266 0)"/>
     </g>
    </g>
   </g>
  </g>
 </g>
 <defs>
  <clipPath id="p060b316e3a">
   <rect x="50.137685" y="26.88" width="947.062315" height="219.16"/>
  </clipPath>
 </defs>
</svg>
