<?xml version="1.0" encoding="utf-8" standalone="no"?>
<!DOCTYPE svg PUBLIC "-//W3C//DTD SVG 1.1//EN"
  "http://www.w3.org/Graphics/SVG/1.1/DTD/svg11.dtd">
<svg xmlns:xlink="http://www.w3.org/1999/xlink" width="864pt" height="432pt" viewBox="0 0 864 432" xmlns="http://www.w3.org/2000/svg" version="1.1">
 <metadata>
  <rdf:RDF xmlns:dc="http://purl.org/dc/elements/1.1/" xmlns:cc="http://creativecommons.org/ns#" xmlns:rdf="http://www.w3.org/1999/02/22-rdf-syntax-ns#">
   <cc:Work>
    <dc:type rdf:resource="http://purl.org/dc/dcmitype/StillImage"/>
    <dc:date>2025-05-31T16:14:36.223187</dc:date>
    <dc:format>image/svg+xml</dc:format>
    <dc:creator>
     <cc:Agent>
      <dc:title>Matplotlib v3.10.1, https://matplotlib.org/</dc:title>
     </cc:Agent>
    </dc:creator>
   </cc:Work>
  </rdf:RDF>
 </metadata>
 <defs>
  <style type="text/css">*{stroke-linejoin: round; stroke-linecap: butt}</style>
 </defs>
 <g id="figure_1">
  <g id="patch_1">
   <path d="M 0 432 
L 864 432 
L 864 0 
L 0 0 
z
" style="fill: #ffffff"/>
  </g>
  <g id="axes_1">
   <g id="patch_2">
    <path d="M 50.137685 390.04 
L 853.2 390.04 
L 853.2 41.856 
L 50.137685 41.856 
z
" style="fill: #ffffff"/>
   </g>
   <g id="matplotlib.axis_1">
    <g id="xtick_1">
     <g id="line2d_1">
      <defs>
       <path id="me015cb7bd5" d="M 0 0 
L 0 3.5 
" style="stroke: #000000; stroke-width: 0.8"/>
      </defs>
      <g>
       <use xlink:href="#me015cb7bd5" x="86.640517" y="390.04" style="stroke: #000000; stroke-width: 0.8"/>
      </g>
     </g>
     <g id="text_1">
      <!-- 0 -->
      <g transform="translate(83.459267 404.638438) scale(0.1 -0.1)">
       <defs>
        <path id="DejaVuSans-30" d="M 2034 4250 
Q 1547 4250 1301 3770 
Q 1056 3291 1056 2328 
Q 1056 1369 1301 889 
Q 1547 409 2034 409 
Q 2525 409 2770 889 
Q 3016 1369 3016 2328 
Q 3016 3291 2770 3770 
Q 2525 4250 2034 4250 
z
M 2034 4750 
Q 2819 4750 3233 4129 
Q 3647 3509 3647 2328 
Q 3647 1150 3233 529 
Q 2819 -91 2034 -91 
Q 1250 -91 836 529 
Q 422 1150 422 2328 
Q 422 3509 836 4129 
Q 1250 4750 2034 4750 
z
" transform="scale(0.015625)"/>
       </defs>
       <use xlink:href="#DejaVuSans-30"/>
      </g>
     </g>
    </g>
    <g id="xtick_2">
     <g id="line2d_2">
      <g>
       <use xlink:href="#me015cb7bd5" x="232.654375" y="390.04" style="stroke: #000000; stroke-width: 0.8"/>
      </g>
     </g>
     <g id="text_2">
      <!-- 20 -->
      <g transform="translate(226.291875 404.638438) scale(0.1 -0.1)">
       <defs>
        <path id="DejaVuSans-32" d="M 1228 531 
L 3431 531 
L 3431 0 
L 469 0 
L 469 531 
Q 828 903 1448 1529 
Q 2069 2156 2228 2338 
Q 2531 2678 2651 2914 
Q 2772 3150 2772 3378 
Q 2772 3750 2511 3984 
Q 2250 4219 1831 4219 
Q 1534 4219 1204 4116 
Q 875 4013 500 3803 
L 500 4441 
Q 881 4594 1212 4672 
Q 1544 4750 1819 4750 
Q 2544 4750 2975 4387 
Q 3406 4025 3406 3419 
Q 3406 3131 3298 2873 
Q 3191 2616 2906 2266 
Q 2828 2175 2409 1742 
Q 1991 1309 1228 531 
z
" transform="scale(0.015625)"/>
       </defs>
       <use xlink:href="#DejaVuSans-32"/>
       <use xlink:href="#DejaVuSans-30" transform="translate(63.623047 0)"/>
      </g>
     </g>
    </g>
    <g id="xtick_3">
     <g id="line2d_3">
      <g>
       <use xlink:href="#me015cb7bd5" x="378.668233" y="390.04" style="stroke: #000000; stroke-width: 0.8"/>
      </g>
     </g>
     <g id="text_3">
      <!-- 40 -->
      <g transform="translate(372.305733 404.638438) scale(0.1 -0.1)">
       <defs>
        <path id="DejaVuSans-34" d="M 2419 4116 
L 825 1625 
L 2419 1625 
L 2419 4116 
z
M 2253 4666 
L 3047 4666 
L 3047 1625 
L 3713 1625 
L 3713 1100 
L 3047 1100 
L 3047 0 
L 2419 0 
L 2419 1100 
L 313 1100 
L 313 1709 
L 2253 4666 
z
" transform="scale(0.015625)"/>
       </defs>
       <use xlink:href="#DejaVuSans-34"/>
       <use xlink:href="#DejaVuSans-30" transform="translate(63.623047 0)"/>
      </g>
     </g>
    </g>
    <g id="xtick_4">
     <g id="line2d_4">
      <g>
       <use xlink:href="#me015cb7bd5" x="524.68209" y="390.04" style="stroke: #000000; stroke-width: 0.8"/>
      </g>
     </g>
     <g id="text_4">
      <!-- 60 -->
      <g transform="translate(518.31959 404.638438) scale(0.1 -0.1)">
       <defs>
        <path id="DejaVuSans-36" d="M 2113 2584 
Q 1688 2584 1439 2293 
Q 1191 2003 1191 1497 
Q 1191 994 1439 701 
Q 1688 409 2113 409 
Q 2538 409 2786 701 
Q 3034 994 3034 1497 
Q 3034 2003 2786 2293 
Q 2538 2584 2113 2584 
z
M 3366 4563 
L 3366 3988 
Q 3128 4100 2886 4159 
Q 2644 4219 2406 4219 
Q 1781 4219 1451 3797 
Q 1122 3375 1075 2522 
Q 1259 2794 1537 2939 
Q 1816 3084 2150 3084 
Q 2853 3084 3261 2657 
Q 3669 2231 3669 1497 
Q 3669 778 3244 343 
Q 2819 -91 2113 -91 
Q 1303 -91 875 529 
Q 447 1150 447 2328 
Q 447 3434 972 4092 
Q 1497 4750 2381 4750 
Q 2619 4750 2861 4703 
Q 3103 4656 3366 4563 
z
" transform="scale(0.015625)"/>
       </defs>
       <use xlink:href="#DejaVuSans-36"/>
       <use xlink:href="#DejaVuSans-30" transform="translate(63.623047 0)"/>
      </g>
     </g>
    </g>
    <g id="xtick_5">
     <g id="line2d_5">
      <g>
       <use xlink:href="#me015cb7bd5" x="670.695948" y="390.04" style="stroke: #000000; stroke-width: 0.8"/>
      </g>
     </g>
     <g id="text_5">
      <!-- 80 -->
      <g transform="translate(664.333448 404.638438) scale(0.1 -0.1)">
       <defs>
        <path id="DejaVuSans-38" d="M 2034 2216 
Q 1584 2216 1326 1975 
Q 1069 1734 1069 1313 
Q 1069 891 1326 650 
Q 1584 409 2034 409 
Q 2484 409 2743 651 
Q 3003 894 3003 1313 
Q 3003 1734 2745 1975 
Q 2488 2216 2034 2216 
z
M 1403 2484 
Q 997 2584 770 2862 
Q 544 3141 544 3541 
Q 544 4100 942 4425 
Q 1341 4750 2034 4750 
Q 2731 4750 3128 4425 
Q 3525 4100 3525 3541 
Q 3525 3141 3298 2862 
Q 3072 2584 2669 2484 
Q 3125 2378 3379 2068 
Q 3634 1759 3634 1313 
Q 3634 634 3220 271 
Q 2806 -91 2034 -91 
Q 1263 -91 848 271 
Q 434 634 434 1313 
Q 434 1759 690 2068 
Q 947 2378 1403 2484 
z
M 1172 3481 
Q 1172 3119 1398 2916 
Q 1625 2713 2034 2713 
Q 2441 2713 2670 2916 
Q 2900 3119 2900 3481 
Q 2900 3844 2670 4047 
Q 2441 4250 2034 4250 
Q 1625 4250 1398 4047 
Q 1172 3844 1172 3481 
z
" transform="scale(0.015625)"/>
       </defs>
       <use xlink:href="#DejaVuSans-38"/>
       <use xlink:href="#DejaVuSans-30" transform="translate(63.623047 0)"/>
      </g>
     </g>
    </g>
    <g id="xtick_6">
     <g id="line2d_6">
      <g>
       <use xlink:href="#me015cb7bd5" x="816.709806" y="390.04" style="stroke: #000000; stroke-width: 0.8"/>
      </g>
     </g>
     <g id="text_6">
      <!-- 100 -->
      <g transform="translate(807.166056 404.638438) scale(0.1 -0.1)">
       <defs>
        <path id="DejaVuSans-31" d="M 794 531 
L 1825 531 
L 1825 4091 
L 703 3866 
L 703 4441 
L 1819 4666 
L 2450 4666 
L 2450 531 
L 3481 531 
L 3481 0 
L 794 0 
L 794 531 
z
" transform="scale(0.015625)"/>
       </defs>
       <use xlink:href="#DejaVuSans-31"/>
       <use xlink:href="#DejaVuSans-30" transform="translate(63.623047 0)"/>
       <use xlink:href="#DejaVuSans-30" transform="translate(127.246094 0)"/>
      </g>
     </g>
    </g>
    <g id="text_7">
     <!-- Percentile (%) -->
     <g transform="translate(416.764936 418.316562) scale(0.1 -0.1)">
      <defs>
       <path id="DejaVuSans-50" d="M 1259 4147 
L 1259 2394 
L 2053 2394 
Q 2494 2394 2734 2622 
Q 2975 2850 2975 3272 
Q 2975 3691 2734 3919 
Q 2494 4147 2053 4147 
L 1259 4147 
z
M 628 4666 
L 2053 4666 
Q 2838 4666 3239 4311 
Q 3641 3956 3641 3272 
Q 3641 2581 3239 2228 
Q 2838 1875 2053 1875 
L 1259 1875 
L 1259 0 
L 628 0 
L 628 4666 
z
" transform="scale(0.015625)"/>
       <path id="DejaVuSans-65" d="M 3597 1894 
L 3597 1613 
L 953 1613 
Q 991 1019 1311 708 
Q 1631 397 2203 397 
Q 2534 397 2845 478 
Q 3156 559 3463 722 
L 3463 178 
Q 3153 47 2828 -22 
Q 2503 -91 2169 -91 
Q 1331 -91 842 396 
Q 353 884 353 1716 
Q 353 2575 817 3079 
Q 1281 3584 2069 3584 
Q 2775 3584 3186 3129 
Q 3597 2675 3597 1894 
z
M 3022 2063 
Q 3016 2534 2758 2815 
Q 2500 3097 2075 3097 
Q 1594 3097 1305 2825 
Q 1016 2553 972 2059 
L 3022 2063 
z
" transform="scale(0.015625)"/>
       <path id="DejaVuSans-72" d="M 2631 2963 
Q 2534 3019 2420 3045 
Q 2306 3072 2169 3072 
Q 1681 3072 1420 2755 
Q 1159 2438 1159 1844 
L 1159 0 
L 581 0 
L 581 3500 
L 1159 3500 
L 1159 2956 
Q 1341 3275 1631 3429 
Q 1922 3584 2338 3584 
Q 2397 3584 2469 3576 
Q 2541 3569 2628 3553 
L 2631 2963 
z
" transform="scale(0.015625)"/>
       <path id="DejaVuSans-63" d="M 3122 3366 
L 3122 2828 
Q 2878 2963 2633 3030 
Q 2388 3097 2138 3097 
Q 1578 3097 1268 2742 
Q 959 2388 959 1747 
Q 959 1106 1268 751 
Q 1578 397 2138 397 
Q 2388 397 2633 464 
Q 2878 531 3122 666 
L 3122 134 
Q 2881 22 2623 -34 
Q 2366 -91 2075 -91 
Q 1284 -91 818 406 
Q 353 903 353 1747 
Q 353 2603 823 3093 
Q 1294 3584 2113 3584 
Q 2378 3584 2631 3529 
Q 2884 3475 3122 3366 
z
" transform="scale(0.015625)"/>
       <path id="DejaVuSans-6e" d="M 3513 2113 
L 3513 0 
L 2938 0 
L 2938 2094 
Q 2938 2591 2744 2837 
Q 2550 3084 2163 3084 
Q 1697 3084 1428 2787 
Q 1159 2491 1159 1978 
L 1159 0 
L 581 0 
L 581 3500 
L 1159 3500 
L 1159 2956 
Q 1366 3272 1645 3428 
Q 1925 3584 2291 3584 
Q 2894 3584 3203 3211 
Q 3513 2838 3513 2113 
z
" transform="scale(0.015625)"/>
       <path id="DejaVuSans-74" d="M 1172 4494 
L 1172 3500 
L 2356 3500 
L 2356 3053 
L 1172 3053 
L 1172 1153 
Q 1172 725 1289 603 
Q 1406 481 1766 481 
L 2356 481 
L 2356 0 
L 1766 0 
Q 1100 0 847 248 
Q 594 497 594 1153 
L 594 3053 
L 172 3053 
L 172 3500 
L 594 3500 
L 594 4494 
L 1172 4494 
z
" transform="scale(0.015625)"/>
       <path id="DejaVuSans-69" d="M 603 3500 
L 1178 3500 
L 1178 0 
L 603 0 
L 603 3500 
z
M 603 4863 
L 1178 4863 
L 1178 4134 
L 603 4134 
L 603 4863 
z
" transform="scale(0.015625)"/>
       <path id="DejaVuSans-6c" d="M 603 4863 
L 1178 4863 
L 1178 0 
L 603 0 
L 603 4863 
z
" transform="scale(0.015625)"/>
       <path id="DejaVuSans-20" transform="scale(0.015625)"/>
       <path id="DejaVuSans-28" d="M 1984 4856 
Q 1566 4138 1362 3434 
Q 1159 2731 1159 2009 
Q 1159 1288 1364 580 
Q 1569 -128 1984 -844 
L 1484 -844 
Q 1016 -109 783 600 
Q 550 1309 550 2009 
Q 550 2706 781 3412 
Q 1013 4119 1484 4856 
L 1984 4856 
z
" transform="scale(0.015625)"/>
       <path id="DejaVuSans-25" d="M 4653 2053 
Q 4381 2053 4226 1822 
Q 4072 1591 4072 1178 
Q 4072 772 4226 539 
Q 4381 306 4653 306 
Q 4919 306 5073 539 
Q 5228 772 5228 1178 
Q 5228 1588 5073 1820 
Q 4919 2053 4653 2053 
z
M 4653 2450 
Q 5147 2450 5437 2106 
Q 5728 1763 5728 1178 
Q 5728 594 5436 251 
Q 5144 -91 4653 -91 
Q 4153 -91 3862 251 
Q 3572 594 3572 1178 
Q 3572 1766 3864 2108 
Q 4156 2450 4653 2450 
z
M 1428 4353 
Q 1159 4353 1004 4120 
Q 850 3888 850 3481 
Q 850 3069 1003 2837 
Q 1156 2606 1428 2606 
Q 1700 2606 1854 2837 
Q 2009 3069 2009 3481 
Q 2009 3884 1853 4118 
Q 1697 4353 1428 4353 
z
M 4250 4750 
L 4750 4750 
L 1831 -91 
L 1331 -91 
L 4250 4750 
z
M 1428 4750 
Q 1922 4750 2215 4408 
Q 2509 4066 2509 3481 
Q 2509 2891 2217 2550 
Q 1925 2209 1428 2209 
Q 931 2209 642 2551 
Q 353 2894 353 3481 
Q 353 4063 643 4406 
Q 934 4750 1428 4750 
z
" transform="scale(0.015625)"/>
       <path id="DejaVuSans-29" d="M 513 4856 
L 1013 4856 
Q 1481 4119 1714 3412 
Q 1947 2706 1947 2009 
Q 1947 1309 1714 600 
Q 1481 -109 1013 -844 
L 513 -844 
Q 928 -128 1133 580 
Q 1338 1288 1338 2009 
Q 1338 2731 1133 3434 
Q 928 4138 513 4856 
z
" transform="scale(0.015625)"/>
      </defs>
      <use xlink:href="#DejaVuSans-50"/>
      <use xlink:href="#DejaVuSans-65" transform="translate(56.677734 0)"/>
      <use xlink:href="#DejaVuSans-72" transform="translate(118.201172 0)"/>
      <use xlink:href="#DejaVuSans-63" transform="translate(157.064453 0)"/>
      <use xlink:href="#DejaVuSans-65" transform="translate(212.044922 0)"/>
      <use xlink:href="#DejaVuSans-6e" transform="translate(273.568359 0)"/>
      <use xlink:href="#DejaVuSans-74" transform="translate(336.947266 0)"/>
      <use xlink:href="#DejaVuSans-69" transform="translate(376.15625 0)"/>
      <use xlink:href="#DejaVuSans-6c" transform="translate(403.939453 0)"/>
      <use xlink:href="#DejaVuSans-65" transform="translate(431.722656 0)"/>
      <use xlink:href="#DejaVuSans-20" transform="translate(493.246094 0)"/>
      <use xlink:href="#DejaVuSans-28" transform="translate(525.033203 0)"/>
      <use xlink:href="#DejaVuSans-25" transform="translate(564.046875 0)"/>
      <use xlink:href="#DejaVuSans-29" transform="translate(659.066406 0)"/>
     </g>
    </g>
   </g>
   <g id="matplotlib.axis_2">
    <g id="ytick_1">
     <g id="line2d_7">
      <defs>
       <path id="m9fba76b151" d="M 0 0 
L -3.5 0 
" style="stroke: #000000; stroke-width: 0.8"/>
      </defs>
      <g>
       <use xlink:href="#m9fba76b151" x="50.137685" y="323.868098" style="stroke: #000000; stroke-width: 0.8"/>
      </g>
     </g>
     <g id="text_8">
      <!-- $\mathdefault{10^{1}}$ -->
      <g transform="translate(25.537685 327.667317) scale(0.1 -0.1)">
       <use xlink:href="#DejaVuSans-31" transform="translate(0 0.684375)"/>
       <use xlink:href="#DejaVuSans-30" transform="translate(63.623047 0.684375)"/>
       <use xlink:href="#DejaVuSans-31" transform="translate(128.203125 38.965625) scale(0.7)"/>
      </g>
     </g>
    </g>
    <g id="ytick_2">
     <g id="line2d_8">
      <g>
       <use xlink:href="#m9fba76b151" x="50.137685" y="253.417375" style="stroke: #000000; stroke-width: 0.8"/>
      </g>
     </g>
     <g id="text_9">
      <!-- $\mathdefault{10^{2}}$ -->
      <g transform="translate(25.537685 257.216593) scale(0.1 -0.1)">
       <use xlink:href="#DejaVuSans-31" transform="translate(0 0.765625)"/>
       <use xlink:href="#DejaVuSans-30" transform="translate(63.623047 0.765625)"/>
       <use xlink:href="#DejaVuSans-32" transform="translate(128.203125 39.046875) scale(0.7)"/>
      </g>
     </g>
    </g>
    <g id="ytick_3">
     <g id="line2d_9">
      <g>
       <use xlink:href="#m9fba76b151" x="50.137685" y="182.966651" style="stroke: #000000; stroke-width: 0.8"/>
      </g>
     </g>
     <g id="text_10">
      <!-- $\mathdefault{10^{3}}$ -->
      <g transform="translate(25.537685 186.76587) scale(0.1 -0.1)">
       <defs>
        <path id="DejaVuSans-33" d="M 2597 2516 
Q 3050 2419 3304 2112 
Q 3559 1806 3559 1356 
Q 3559 666 3084 287 
Q 2609 -91 1734 -91 
Q 1441 -91 1130 -33 
Q 819 25 488 141 
L 488 750 
Q 750 597 1062 519 
Q 1375 441 1716 441 
Q 2309 441 2620 675 
Q 2931 909 2931 1356 
Q 2931 1769 2642 2001 
Q 2353 2234 1838 2234 
L 1294 2234 
L 1294 2753 
L 1863 2753 
Q 2328 2753 2575 2939 
Q 2822 3125 2822 3475 
Q 2822 3834 2567 4026 
Q 2313 4219 1838 4219 
Q 1578 4219 1281 4162 
Q 984 4106 628 3988 
L 628 4550 
Q 988 4650 1302 4700 
Q 1616 4750 1894 4750 
Q 2613 4750 3031 4423 
Q 3450 4097 3450 3541 
Q 3450 3153 3228 2886 
Q 3006 2619 2597 2516 
z
" transform="scale(0.015625)"/>
       </defs>
       <use xlink:href="#DejaVuSans-31" transform="translate(0 0.765625)"/>
       <use xlink:href="#DejaVuSans-30" transform="translate(63.623047 0.765625)"/>
       <use xlink:href="#DejaVuSans-33" transform="translate(128.203125 39.046875) scale(0.7)"/>
      </g>
     </g>
    </g>
    <g id="ytick_4">
     <g id="line2d_10">
      <g>
       <use xlink:href="#m9fba76b151" x="50.137685" y="112.515927" style="stroke: #000000; stroke-width: 0.8"/>
      </g>
     </g>
     <g id="text_11">
      <!-- $\mathdefault{10^{4}}$ -->
      <g transform="translate(25.537685 116.315146) scale(0.1 -0.1)">
       <use xlink:href="#DejaVuSans-31" transform="translate(0 0.684375)"/>
       <use xlink:href="#DejaVuSans-30" transform="translate(63.623047 0.684375)"/>
       <use xlink:href="#DejaVuSans-34" transform="translate(128.203125 38.965625) scale(0.7)"/>
      </g>
     </g>
    </g>
    <g id="ytick_5">
     <g id="line2d_11">
      <g>
       <use xlink:href="#m9fba76b151" x="50.137685" y="42.065204" style="stroke: #000000; stroke-width: 0.8"/>
      </g>
     </g>
     <g id="text_12">
      <!-- $\mathdefault{10^{5}}$ -->
      <g transform="translate(25.537685 45.864423) scale(0.1 -0.1)">
       <defs>
        <path id="DejaVuSans-35" d="M 691 4666 
L 3169 4666 
L 3169 4134 
L 1269 4134 
L 1269 2991 
Q 1406 3038 1543 3061 
Q 1681 3084 1819 3084 
Q 2600 3084 3056 2656 
Q 3513 2228 3513 1497 
Q 3513 744 3044 326 
Q 2575 -91 1722 -91 
Q 1428 -91 1123 -41 
Q 819 9 494 109 
L 494 744 
Q 775 591 1075 516 
Q 1375 441 1709 441 
Q 2250 441 2565 725 
Q 2881 1009 2881 1497 
Q 2881 1984 2565 2268 
Q 2250 2553 1709 2553 
Q 1456 2553 1204 2497 
Q 953 2441 691 2322 
L 691 4666 
z
" transform="scale(0.015625)"/>
       </defs>
       <use xlink:href="#DejaVuSans-31" transform="translate(0 0.684375)"/>
       <use xlink:href="#DejaVuSans-30" transform="translate(63.623047 0.684375)"/>
       <use xlink:href="#DejaVuSans-35" transform="translate(128.203125 38.965625) scale(0.7)"/>
      </g>
     </g>
    </g>
    <g id="ytick_6">
     <g id="line2d_12">
      <defs>
       <path id="m9546b9dc0f" d="M 0 0 
L -2 0 
" style="stroke: #000000; stroke-width: 0.6"/>
      </defs>
      <g>
       <use xlink:href="#m9546b9dc0f" x="50.137685" y="373.111041" style="stroke: #000000; stroke-width: 0.6"/>
      </g>
     </g>
    </g>
    <g id="ytick_7">
     <g id="line2d_13">
      <g>
       <use xlink:href="#m9546b9dc0f" x="50.137685" y="360.705284" style="stroke: #000000; stroke-width: 0.6"/>
      </g>
     </g>
    </g>
    <g id="ytick_8">
     <g id="line2d_14">
      <g>
       <use xlink:href="#m9546b9dc0f" x="50.137685" y="351.90326" style="stroke: #000000; stroke-width: 0.6"/>
      </g>
     </g>
    </g>
    <g id="ytick_9">
     <g id="line2d_15">
      <g>
       <use xlink:href="#m9546b9dc0f" x="50.137685" y="345.075879" style="stroke: #000000; stroke-width: 0.6"/>
      </g>
     </g>
    </g>
    <g id="ytick_10">
     <g id="line2d_16">
      <g>
       <use xlink:href="#m9546b9dc0f" x="50.137685" y="339.497503" style="stroke: #000000; stroke-width: 0.6"/>
      </g>
     </g>
    </g>
    <g id="ytick_11">
     <g id="line2d_17">
      <g>
       <use xlink:href="#m9546b9dc0f" x="50.137685" y="334.781053" style="stroke: #000000; stroke-width: 0.6"/>
      </g>
     </g>
    </g>
    <g id="ytick_12">
     <g id="line2d_18">
      <g>
       <use xlink:href="#m9546b9dc0f" x="50.137685" y="330.695479" style="stroke: #000000; stroke-width: 0.6"/>
      </g>
     </g>
    </g>
    <g id="ytick_13">
     <g id="line2d_19">
      <g>
       <use xlink:href="#m9546b9dc0f" x="50.137685" y="327.091746" style="stroke: #000000; stroke-width: 0.6"/>
      </g>
     </g>
    </g>
    <g id="ytick_14">
     <g id="line2d_20">
      <g>
       <use xlink:href="#m9546b9dc0f" x="50.137685" y="302.660317" style="stroke: #000000; stroke-width: 0.6"/>
      </g>
     </g>
    </g>
    <g id="ytick_15">
     <g id="line2d_21">
      <g>
       <use xlink:href="#m9546b9dc0f" x="50.137685" y="290.25456" style="stroke: #000000; stroke-width: 0.6"/>
      </g>
     </g>
    </g>
    <g id="ytick_16">
     <g id="line2d_22">
      <g>
       <use xlink:href="#m9546b9dc0f" x="50.137685" y="281.452536" style="stroke: #000000; stroke-width: 0.6"/>
      </g>
     </g>
    </g>
    <g id="ytick_17">
     <g id="line2d_23">
      <g>
       <use xlink:href="#m9546b9dc0f" x="50.137685" y="274.625156" style="stroke: #000000; stroke-width: 0.6"/>
      </g>
     </g>
    </g>
    <g id="ytick_18">
     <g id="line2d_24">
      <g>
       <use xlink:href="#m9546b9dc0f" x="50.137685" y="269.046779" style="stroke: #000000; stroke-width: 0.6"/>
      </g>
     </g>
    </g>
    <g id="ytick_19">
     <g id="line2d_25">
      <g>
       <use xlink:href="#m9546b9dc0f" x="50.137685" y="264.33033" style="stroke: #000000; stroke-width: 0.6"/>
      </g>
     </g>
    </g>
    <g id="ytick_20">
     <g id="line2d_26">
      <g>
       <use xlink:href="#m9546b9dc0f" x="50.137685" y="260.244755" style="stroke: #000000; stroke-width: 0.6"/>
      </g>
     </g>
    </g>
    <g id="ytick_21">
     <g id="line2d_27">
      <g>
       <use xlink:href="#m9546b9dc0f" x="50.137685" y="256.641023" style="stroke: #000000; stroke-width: 0.6"/>
      </g>
     </g>
    </g>
    <g id="ytick_22">
     <g id="line2d_28">
      <g>
       <use xlink:href="#m9546b9dc0f" x="50.137685" y="232.209594" style="stroke: #000000; stroke-width: 0.6"/>
      </g>
     </g>
    </g>
    <g id="ytick_23">
     <g id="line2d_29">
      <g>
       <use xlink:href="#m9546b9dc0f" x="50.137685" y="219.803837" style="stroke: #000000; stroke-width: 0.6"/>
      </g>
     </g>
    </g>
    <g id="ytick_24">
     <g id="line2d_30">
      <g>
       <use xlink:href="#m9546b9dc0f" x="50.137685" y="211.001813" style="stroke: #000000; stroke-width: 0.6"/>
      </g>
     </g>
    </g>
    <g id="ytick_25">
     <g id="line2d_31">
      <g>
       <use xlink:href="#m9546b9dc0f" x="50.137685" y="204.174432" style="stroke: #000000; stroke-width: 0.6"/>
      </g>
     </g>
    </g>
    <g id="ytick_26">
     <g id="line2d_32">
      <g>
       <use xlink:href="#m9546b9dc0f" x="50.137685" y="198.596056" style="stroke: #000000; stroke-width: 0.6"/>
      </g>
     </g>
    </g>
    <g id="ytick_27">
     <g id="line2d_33">
      <g>
       <use xlink:href="#m9546b9dc0f" x="50.137685" y="193.879606" style="stroke: #000000; stroke-width: 0.6"/>
      </g>
     </g>
    </g>
    <g id="ytick_28">
     <g id="line2d_34">
      <g>
       <use xlink:href="#m9546b9dc0f" x="50.137685" y="189.794032" style="stroke: #000000; stroke-width: 0.6"/>
      </g>
     </g>
    </g>
    <g id="ytick_29">
     <g id="line2d_35">
      <g>
       <use xlink:href="#m9546b9dc0f" x="50.137685" y="186.190299" style="stroke: #000000; stroke-width: 0.6"/>
      </g>
     </g>
    </g>
    <g id="ytick_30">
     <g id="line2d_36">
      <g>
       <use xlink:href="#m9546b9dc0f" x="50.137685" y="161.75887" style="stroke: #000000; stroke-width: 0.6"/>
      </g>
     </g>
    </g>
    <g id="ytick_31">
     <g id="line2d_37">
      <g>
       <use xlink:href="#m9546b9dc0f" x="50.137685" y="149.353113" style="stroke: #000000; stroke-width: 0.6"/>
      </g>
     </g>
    </g>
    <g id="ytick_32">
     <g id="line2d_38">
      <g>
       <use xlink:href="#m9546b9dc0f" x="50.137685" y="140.551089" style="stroke: #000000; stroke-width: 0.6"/>
      </g>
     </g>
    </g>
    <g id="ytick_33">
     <g id="line2d_39">
      <g>
       <use xlink:href="#m9546b9dc0f" x="50.137685" y="133.723708" style="stroke: #000000; stroke-width: 0.6"/>
      </g>
     </g>
    </g>
    <g id="ytick_34">
     <g id="line2d_40">
      <g>
       <use xlink:href="#m9546b9dc0f" x="50.137685" y="128.145332" style="stroke: #000000; stroke-width: 0.6"/>
      </g>
     </g>
    </g>
    <g id="ytick_35">
     <g id="line2d_41">
      <g>
       <use xlink:href="#m9546b9dc0f" x="50.137685" y="123.428883" style="stroke: #000000; stroke-width: 0.6"/>
      </g>
     </g>
    </g>
    <g id="ytick_36">
     <g id="line2d_42">
      <g>
       <use xlink:href="#m9546b9dc0f" x="50.137685" y="119.343308" style="stroke: #000000; stroke-width: 0.6"/>
      </g>
     </g>
    </g>
    <g id="ytick_37">
     <g id="line2d_43">
      <g>
       <use xlink:href="#m9546b9dc0f" x="50.137685" y="115.739576" style="stroke: #000000; stroke-width: 0.6"/>
      </g>
     </g>
    </g>
    <g id="ytick_38">
     <g id="line2d_44">
      <g>
       <use xlink:href="#m9546b9dc0f" x="50.137685" y="91.308146" style="stroke: #000000; stroke-width: 0.6"/>
      </g>
     </g>
    </g>
    <g id="ytick_39">
     <g id="line2d_45">
      <g>
       <use xlink:href="#m9546b9dc0f" x="50.137685" y="78.90239" style="stroke: #000000; stroke-width: 0.6"/>
      </g>
     </g>
    </g>
    <g id="ytick_40">
     <g id="line2d_46">
      <g>
       <use xlink:href="#m9546b9dc0f" x="50.137685" y="70.100365" style="stroke: #000000; stroke-width: 0.6"/>
      </g>
     </g>
    </g>
    <g id="ytick_41">
     <g id="line2d_47">
      <g>
       <use xlink:href="#m9546b9dc0f" x="50.137685" y="63.272985" style="stroke: #000000; stroke-width: 0.6"/>
      </g>
     </g>
    </g>
    <g id="ytick_42">
     <g id="line2d_48">
      <g>
       <use xlink:href="#m9546b9dc0f" x="50.137685" y="57.694609" style="stroke: #000000; stroke-width: 0.6"/>
      </g>
     </g>
    </g>
    <g id="ytick_43">
     <g id="line2d_49">
      <g>
       <use xlink:href="#m9546b9dc0f" x="50.137685" y="52.978159" style="stroke: #000000; stroke-width: 0.6"/>
      </g>
     </g>
    </g>
    <g id="ytick_44">
     <g id="line2d_50">
      <g>
       <use xlink:href="#m9546b9dc0f" x="50.137685" y="48.892584" style="stroke: #000000; stroke-width: 0.6"/>
      </g>
     </g>
    </g>
    <g id="ytick_45">
     <g id="line2d_51">
      <g>
       <use xlink:href="#m9546b9dc0f" x="50.137685" y="45.288852" style="stroke: #000000; stroke-width: 0.6"/>
      </g>
     </g>
    </g>
    <g id="text_13">
     <!-- Duration (ms) -->
     <g transform="translate(19.457997 250.62925) rotate(-90) scale(0.1 -0.1)">
      <defs>
       <path id="DejaVuSans-44" d="M 1259 4147 
L 1259 519 
L 2022 519 
Q 2988 519 3436 956 
Q 3884 1394 3884 2338 
Q 3884 3275 3436 3711 
Q 2988 4147 2022 4147 
L 1259 4147 
z
M 628 4666 
L 1925 4666 
Q 3281 4666 3915 4102 
Q 4550 3538 4550 2338 
Q 4550 1131 3912 565 
Q 3275 0 1925 0 
L 628 0 
L 628 4666 
z
" transform="scale(0.015625)"/>
       <path id="DejaVuSans-75" d="M 544 1381 
L 544 3500 
L 1119 3500 
L 1119 1403 
Q 1119 906 1312 657 
Q 1506 409 1894 409 
Q 2359 409 2629 706 
Q 2900 1003 2900 1516 
L 2900 3500 
L 3475 3500 
L 3475 0 
L 2900 0 
L 2900 538 
Q 2691 219 2414 64 
Q 2138 -91 1772 -91 
Q 1169 -91 856 284 
Q 544 659 544 1381 
z
M 1991 3584 
L 1991 3584 
z
" transform="scale(0.015625)"/>
       <path id="DejaVuSans-61" d="M 2194 1759 
Q 1497 1759 1228 1600 
Q 959 1441 959 1056 
Q 959 750 1161 570 
Q 1363 391 1709 391 
Q 2188 391 2477 730 
Q 2766 1069 2766 1631 
L 2766 1759 
L 2194 1759 
z
M 3341 1997 
L 3341 0 
L 2766 0 
L 2766 531 
Q 2569 213 2275 61 
Q 1981 -91 1556 -91 
Q 1019 -91 701 211 
Q 384 513 384 1019 
Q 384 1609 779 1909 
Q 1175 2209 1959 2209 
L 2766 2209 
L 2766 2266 
Q 2766 2663 2505 2880 
Q 2244 3097 1772 3097 
Q 1472 3097 1187 3025 
Q 903 2953 641 2809 
L 641 3341 
Q 956 3463 1253 3523 
Q 1550 3584 1831 3584 
Q 2591 3584 2966 3190 
Q 3341 2797 3341 1997 
z
" transform="scale(0.015625)"/>
       <path id="DejaVuSans-6f" d="M 1959 3097 
Q 1497 3097 1228 2736 
Q 959 2375 959 1747 
Q 959 1119 1226 758 
Q 1494 397 1959 397 
Q 2419 397 2687 759 
Q 2956 1122 2956 1747 
Q 2956 2369 2687 2733 
Q 2419 3097 1959 3097 
z
M 1959 3584 
Q 2709 3584 3137 3096 
Q 3566 2609 3566 1747 
Q 3566 888 3137 398 
Q 2709 -91 1959 -91 
Q 1206 -91 779 398 
Q 353 888 353 1747 
Q 353 2609 779 3096 
Q 1206 3584 1959 3584 
z
" transform="scale(0.015625)"/>
       <path id="DejaVuSans-6d" d="M 3328 2828 
Q 3544 3216 3844 3400 
Q 4144 3584 4550 3584 
Q 5097 3584 5394 3201 
Q 5691 2819 5691 2113 
L 5691 0 
L 5113 0 
L 5113 2094 
Q 5113 2597 4934 2840 
Q 4756 3084 4391 3084 
Q 3944 3084 3684 2787 
Q 3425 2491 3425 1978 
L 3425 0 
L 2847 0 
L 2847 2094 
Q 2847 2600 2669 2842 
Q 2491 3084 2119 3084 
Q 1678 3084 1418 2786 
Q 1159 2488 1159 1978 
L 1159 0 
L 581 0 
L 581 3500 
L 1159 3500 
L 1159 2956 
Q 1356 3278 1631 3431 
Q 1906 3584 2284 3584 
Q 2666 3584 2933 3390 
Q 3200 3197 3328 2828 
z
" transform="scale(0.015625)"/>
       <path id="DejaVuSans-73" d="M 2834 3397 
L 2834 2853 
Q 2591 2978 2328 3040 
Q 2066 3103 1784 3103 
Q 1356 3103 1142 2972 
Q 928 2841 928 2578 
Q 928 2378 1081 2264 
Q 1234 2150 1697 2047 
L 1894 2003 
Q 2506 1872 2764 1633 
Q 3022 1394 3022 966 
Q 3022 478 2636 193 
Q 2250 -91 1575 -91 
Q 1294 -91 989 -36 
Q 684 19 347 128 
L 347 722 
Q 666 556 975 473 
Q 1284 391 1588 391 
Q 1994 391 2212 530 
Q 2431 669 2431 922 
Q 2431 1156 2273 1281 
Q 2116 1406 1581 1522 
L 1381 1569 
Q 847 1681 609 1914 
Q 372 2147 372 2553 
Q 372 3047 722 3315 
Q 1072 3584 1716 3584 
Q 2034 3584 2315 3537 
Q 2597 3491 2834 3397 
z
" transform="scale(0.015625)"/>
      </defs>
      <use xlink:href="#DejaVuSans-44"/>
      <use xlink:href="#DejaVuSans-75" transform="translate(77.001953 0)"/>
      <use xlink:href="#DejaVuSans-72" transform="translate(140.380859 0)"/>
      <use xlink:href="#DejaVuSans-61" transform="translate(181.494141 0)"/>
      <use xlink:href="#DejaVuSans-74" transform="translate(242.773438 0)"/>
      <use xlink:href="#DejaVuSans-69" transform="translate(281.982422 0)"/>
      <use xlink:href="#DejaVuSans-6f" transform="translate(309.765625 0)"/>
      <use xlink:href="#DejaVuSans-6e" transform="translate(370.947266 0)"/>
      <use xlink:href="#DejaVuSans-20" transform="translate(434.326172 0)"/>
      <use xlink:href="#DejaVuSans-28" transform="translate(466.113281 0)"/>
      <use xlink:href="#DejaVuSans-6d" transform="translate(505.126953 0)"/>
      <use xlink:href="#DejaVuSans-73" transform="translate(602.539062 0)"/>
      <use xlink:href="#DejaVuSans-29" transform="translate(654.638672 0)"/>
     </g>
    </g>
   </g>
   <g id="line2d_52">
    <path d="M 86.640517 372.76476 
L 86.779537 369.45618 
L 86.792175 369.434033 
L 86.943833 368.474425 
L 87.007024 368.028575 
L 87.183959 367.523525 
L 87.44936 366.735324 
L 87.58838 366.344669 
L 88.195012 365.315777 
L 88.371947 365.087792 
L 89.509382 364.017143 
L 89.749508 363.810132 
L 89.901166 363.714334 
L 90.179205 363.564622 
L 90.35614 363.396947 
L 91.101792 363.03134 
L 91.291365 362.918578 
L 91.556766 362.815526 
L 91.746339 362.679569 
L 96.662588 360.549446 
L 97.016457 360.415283 
L 97.206029 360.34881 
L 97.623089 360.183431 
L 97.837938 360.084631 
L 98.44457 359.904729 
L 98.747886 359.778562 
L 100.138085 359.244378 
L 100.416125 359.110887 
L 102.476147 358.273511 
L 102.678358 358.178464 
L 102.994312 358.015675 
L 103.499839 357.840352 
L 103.752602 357.732024 
L 107.657797 356.166141 
L 107.834732 356.025694 
L 108.226515 355.905141 
L 108.580384 355.737129 
L 108.845786 355.592437 
L 113.787311 353.576861 
L 113.926331 353.512417 
L 114.204371 353.360845 
L 114.381305 353.280823 
L 115.278615 352.952464 
L 116.719367 352.254766 
L 116.97213 352.042545 
L 117.363914 351.880382 
L 117.540848 351.743087 
L 117.94527 351.581394 
L 119.171172 350.94165 
L 119.777805 350.411631 
L 120.068483 350.20009 
L 120.245417 350.065621 
L 120.523457 349.812313 
L 120.675115 349.660448 
L 120.902602 349.507177 
L 121.142727 349.31068 
L 121.294385 349.242188 
L 121.446043 349.132983 
L 121.736721 348.908819 
L 121.901017 348.76411 
L 122.103228 348.642132 
L 122.545564 348.279911 
L 122.760413 348.111517 
L 122.924709 347.989571 
L 123.417598 347.599469 
L 123.493427 347.488413 
L 123.645085 347.303425 
L 124.137974 346.785513 
L 124.365461 346.484733 
L 124.757244 346.156665 
L 125.250133 345.526481 
L 125.401791 345.295373 
L 125.502897 345.194087 
L 125.919956 344.60951 
L 125.995785 344.483492 
L 126.248549 344.097942 
L 126.463398 343.763568 
L 126.564503 343.629234 
L 126.855181 343.063518 
L 127.360708 342.335086 
L 127.499728 342.187568 
L 127.676662 341.831076 
L 130.305402 337.337815 
L 130.494975 336.927856 
L 131.834621 334.381092 
L 131.859897 334.303359 
L 132.365424 333.207027 
L 132.415977 333.10413 
L 132.643464 332.410614 
L 132.719293 332.143507 
L 132.883589 331.39406 
L 133.022609 331.030848 
L 133.730347 329.326281 
L 133.780899 329.209132 
L 133.882005 329.054172 
L 135.626072 324.742024 
L 135.765092 324.160233 
L 135.815645 324.080807 
L 135.967303 323.671416 
L 136.005218 323.652856 
L 136.144237 323.283368 
L 136.460192 322.224088 
L 136.61185 322.012143 
L 136.725593 321.666904 
L 136.978357 320.978211 
L 137.130015 320.631054 
L 137.357502 319.938627 
L 137.445969 319.687442 
L 137.597627 319.10867 
L 137.938858 318.248175 
L 139.088932 314.74688 
L 139.265866 314.321084 
L 139.430162 313.93965 
L 139.505991 313.758507 
L 140.112623 312.481097 
L 140.27692 312.11749 
L 140.820361 310.920855 
L 140.984657 310.602318 
L 141.111039 310.379588 
L 141.45227 309.651455 
L 141.59129 309.425095 
L 141.629204 309.372126 
L 141.7935 308.887882 
L 142.134731 308.151139 
L 142.943574 307.004801 
L 143.221614 306.475787 
L 143.423825 306.244518 
L 143.916713 305.658075 
L 144.131562 305.10205 
L 144.270582 304.992523 
L 144.447517 304.690638 
L 144.56126 304.587056 
L 144.97832 303.851788 
L 145.155254 303.705682 
L 145.547037 303.164231 
L 145.635505 303.057975 
L 145.774525 302.945616 
L 145.951459 302.682434 
L 146.115755 302.407077 
L 146.29269 302.232374 
L 146.419071 301.972528 
L 146.532815 301.85445 
L 146.823493 301.386062 
L 147.088894 300.989419 
L 147.19 300.898511 
L 147.392211 300.545905 
L 148.428541 299.152518 
L 148.529646 299.02683 
L 150.463286 296.386608 
L 150.614945 296.150895 
L 150.905622 295.902234 
L 151.272129 295.504393 
L 151.600722 295.212651 
L 151.941953 294.87006 
L 152.080972 294.711691 
L 152.359012 294.429739 
L 152.498032 294.26413 
L 152.839263 293.922431 
L 152.915092 293.743943 
L 153.129941 293.369523 
L 153.256322 293.242219 
L 153.395342 293.023707 
L 155.720766 290.422272 
L 155.885062 290.283434 
L 155.960891 290.168375 
L 156.251569 289.872888 
L 156.516971 289.305111 
L 157.565939 287.877104 
L 157.654406 287.757456 
L 157.780788 287.528338 
L 158.008275 287.279897 
L 160.169403 285.438147 
L 160.321061 285.274246 
L 160.422166 285.160167 
L 161.091989 284.403397 
L 161.268924 284.266373 
L 161.43322 284.087232 
L 161.698621 283.775009 
L 162.039852 283.358932 
L 162.140957 283.248689 
L 162.317892 283.012178 
L 162.520103 282.733141 
L 163.910302 281.555357 
L 164.251532 281.35538 
L 164.516934 281.227188 
L 164.719145 281.11072 
L 165.073013 280.880728 
L 165.249948 280.738916 
L 170.41896 276.520735 
L 170.621171 276.156177 
L 170.886573 275.962518 
L 171.076145 275.840892 
L 171.31627 275.684514 
L 172.365239 274.877436 
L 172.529535 274.714562 
L 172.90868 274.355525 
L 173.249911 274.037266 
L 173.351016 273.9204 
L 173.490036 273.7909 
L 173.704885 273.648868 
L 174.046116 273.412061 
L 174.185135 273.261218 
L 174.399984 273.118993 
L 174.614833 272.991138 
L 178.456838 270.575567 
L 179.379424 269.9226 
L 179.61955 269.828898 
L 179.82176 269.680648 
L 180.049247 269.538851 
L 180.213544 269.412225 
L 180.403116 269.290615 
L 180.580051 269.163877 
L 180.971834 268.879649 
L 181.148768 268.739144 
L 181.350979 268.555628 
L 181.83123 268.188198 
L 182.159822 267.934541 
L 182.298842 267.820038 
L 182.614796 267.589443 
L 184.535798 266.12179 
L 184.788562 265.992162 
L 184.94022 265.876165 
L 185.053964 265.766843 
L 186.153484 264.819824 
L 186.39361 264.689828 
L 186.861222 264.40915 
L 187.404664 264.109223 
L 187.632151 263.952976 
L 187.922829 263.832658 
L 188.162954 263.705867 
L 188.592652 263.488448 
L 189.515238 263.072425 
L 189.856469 262.927072 
L 190.134509 262.819173 
L 190.336719 262.718485 
L 200.320875 258.310205 
L 200.674744 258.1428 
L 201.2561 257.864979 
L 201.470949 257.741154 
L 201.913285 257.478428 
L 202.722128 256.923467 
L 202.98753 256.809906 
L 203.240293 256.688303 
L 203.480418 256.570687 
L 212.605179 251.413943 
L 212.984324 251.268006 
L 213.489851 251.119624 
L 213.868996 250.984811 
L 214.791582 250.631023 
L 216.207058 250.067996 
L 216.434545 249.946648 
L 216.662032 249.835115 
L 217.154921 249.598665 
L 217.319217 249.541921 
L 218.722054 248.88273 
L 219.151752 248.651472 
L 219.467706 248.515515 
L 219.606726 248.453596 
L 224.358679 246.545172 
L 224.497699 246.449776 
L 225.116969 246.09485 
L 225.445562 245.953772 
L 228.188045 245.035183 
L 228.352341 244.94517 
L 229.009526 244.704488 
L 229.388671 244.614899 
L 233.862584 242.938156 
L 234.052157 242.828015 
L 234.911552 242.43168 
L 235.189592 242.266003 
L 236.099541 241.932432 
L 236.567153 241.756084 
L 236.782002 241.678594 
L 237.148509 241.531894 
L 237.515016 241.375655 
L 237.957352 241.247308 
L 238.690366 241.008639 
L 239.42338 240.764432 
L 240.093203 240.526625 
L 240.952599 240.250237 
L 241.129533 240.201443 
L 241.761442 239.960228 
L 242.570285 239.607635 
L 242.860963 239.487383 
L 245.123196 238.713964 
L 246.19744 238.37049 
L 247.018921 238.15664 
L 248.042613 237.943111 
L 248.396482 237.865076 
L 249.255878 237.728025 
L 249.521279 237.645027 
L 250.241655 237.499337 
L 251.240071 237.194597 
L 251.73296 237.056704 
L 252.238486 236.917247 
L 252.655546 236.785786 
L 254.020469 236.397659 
L 254.84195 236.177437 
L 255.865642 235.794024 
L 256.484912 235.621132 
L 256.800867 235.518002 
L 257.862473 235.223856 
L 258.342724 235.085613 
L 258.84825 234.944623 
L 271.372679 231.252193 
L 271.941397 231.132805 
L 272.623858 230.956158 
L 273.293681 230.802676 
L 273.50853 230.733773 
L 274.40584 230.479445 
L 274.68388 230.394775 
L 275.10094 230.264384 
L 275.328427 230.194128 
L 276.187823 229.97873 
L 276.705988 229.817924 
L 278.222568 229.439092 
L 279.132517 229.187703 
L 279.739149 229.04387 
L 279.979274 228.95659 
L 283.985575 227.782169 
L 284.50374 227.648689 
L 284.819694 227.573123 
L 285.224116 227.468649 
L 285.426326 227.393693 
L 285.995044 227.272872 
L 290.456319 226.415753 
L 290.936569 226.316234 
L 291.113504 226.27427 
L 291.808603 226.156462 
L 292.225663 226.071405 
L 292.718552 225.941669 
L 293.059782 225.868694 
L 293.76752 225.74827 
L 297.091359 224.977529 
L 297.280932 224.908718 
L 298.077137 224.779464 
L 298.317262 224.734786 
L 302.007608 223.940338 
L 302.310924 223.901064 
L 302.993386 223.779586 
L 307.631595 222.881152 
L 308.238227 222.757728 
L 309.514682 222.523203 
L 310.323525 222.389507 
L 317.148138 221.092877 
L 318.879568 220.899136 
L 320.825847 220.578105 
L 321.192354 220.516333 
L 322.178131 220.335565 
L 322.443533 220.262651 
L 323.163908 220.148483 
L 324.768956 219.934523 
L 325.438779 219.796892 
L 327.701012 219.429715 
L 328.219177 219.374459 
L 332.111734 218.812143 
L 332.55407 218.758943 
L 333.350275 218.620983 
L 335.625146 218.294412 
L 336.244416 218.172656 
L 337.495596 217.986965 
L 338.253886 217.856209 
L 343.448175 217.139682 
L 344.787821 216.990419 
L 345.217519 216.919089 
L 346.367592 216.80463 
L 347.100606 216.732101 
L 348.971056 216.531084 
L 349.792537 216.407155 
L 350.588742 216.288719 
L 352.320171 216.083002 
L 353.596627 215.929348 
L 354.797253 215.80978 
L 355.479714 215.721874 
L 357.969434 215.446046 
L 358.576067 215.356048 
L 359.410186 215.235179 
L 359.890437 215.177235 
L 360.850938 215.050592 
L 362.089478 214.904802 
L 363.454401 214.752878 
L 364.187415 214.652827 
L 366.095779 214.4608 
L 367.346958 214.315937 
L 368.497032 214.15935 
L 369.242684 214.070887 
L 370.733988 213.947824 
L 372.275845 213.771443 
L 373.07205 213.692484 
L 376.509633 213.324125 
L 376.762396 213.286234 
L 378.203148 213.111724 
L 380.364275 212.885421 
L 420.098688 209.038485 
L 422.183987 208.86617 
L 423.119212 208.787708 
L 424.281923 208.671355 
L 426.847472 208.474005 
L 437.99434 207.64941 
L 438.75263 207.589268 
L 440.054362 207.466672 
L 444.338703 207.128272 
L 445.766816 207.016575 
L 464.711436 205.441024 
L 466.695629 205.314648 
L 473.848834 204.790687 
L 474.784059 204.700744 
L 476.78089 204.553193 
L 477.450713 204.504104 
L 479.940433 204.312825 
L 483.479122 204.043546 
L 485.867736 203.807933 
L 486.916704 203.698172 
L 488.268989 203.579105 
L 489.798208 203.440222 
L 491.99725 203.292858 
L 501.842386 202.486451 
L 503.687559 202.364402 
L 505.810772 202.201041 
L 506.632253 202.142549 
L 509.008229 201.965562 
L 509.425289 201.933314 
L 534.524699 200.13693 
L 536.79957 199.981474 
L 537.97492 199.902302 
L 541.020719 199.652492 
L 542.81534 199.519569 
L 544.496217 199.408265 
L 545.50727 199.344319 
L 547.630483 199.199152 
L 548.426688 199.136165 
L 550.372967 199.006298 
L 550.941684 198.970672 
L 555.592532 198.619978 
L 559.169134 198.32853 
L 563.529304 198.029232 
L 565.715708 197.869521 
L 566.019024 197.846438 
L 567.788368 197.703781 
L 580.00948 196.879363 
L 581.614528 196.768105 
L 582.423371 196.716728 
L 584.167439 196.59682 
L 594.884609 195.958695 
L 597.399605 195.840172 
L 600.116812 195.695843 
L 602.998315 195.552344 
L 605.007785 195.423233 
L 607.18155 195.257179 
L 633.216185 193.691241 
L 633.721712 193.671006 
L 636.893893 193.514583 
L 638.625322 193.40999 
L 640.723259 193.267299 
L 642.568432 193.13135 
L 644.780112 192.94738 
L 645.639508 192.849456 
L 647.623701 192.719958 
L 648.799051 192.641563 
L 692.476574 189.637664 
L 693.361246 189.557225 
L 705.418062 188.415606 
L 705.936227 188.332223 
L 707.035748 188.218281 
L 708.312203 188.069051 
L 710.220567 187.901857 
L 719.636006 186.876317 
L 720.697612 186.757581 
L 721.784495 186.59674 
L 723.604392 186.35954 
L 729.329484 185.728355 
L 734.106713 185.095517 
L 736.495327 184.73333 
L 736.798643 184.660735 
L 737.683315 184.505802 
L 739.477936 184.198049 
L 741.727531 183.896431 
L 742.094038 183.854341 
L 743.282026 183.688771 
L 744.267803 183.500889 
L 744.621672 183.447492 
L 745.405239 183.296544 
L 746.264634 183.175702 
L 746.56795 183.102246 
L 747.616919 182.921401 
L 747.945511 182.872299 
L 750.043448 182.35353 
L 750.334126 182.253744 
L 751.218798 182.054425 
L 751.458923 181.991628 
L 754.138216 181.399614 
L 754.93442 181.232021 
L 755.869645 180.908278 
L 756.10977 180.877666 
L 756.577383 180.760375 
L 756.842784 180.694354 
L 757.638989 180.509785 
L 757.954944 180.395322 
L 759.357781 180.080879 
L 759.623182 179.998883 
L 760.116071 179.885582 
L 760.305644 179.800661 
L 760.899638 179.688727 
L 761.582099 179.568859 
L 763.250338 179.13639 
L 763.616845 179.084024 
L 764.678451 178.884173 
L 764.817471 178.829603 
L 769.999122 177.503012 
L 770.138141 177.441563 
L 774.043337 176.345699 
L 774.57414 176.070202 
L 775.319792 175.849049 
L 775.496726 175.723035 
L 776.608886 175.069757 
L 776.747905 174.992616 
L 777.417729 174.870159 
L 777.569387 174.778405 
L 778.226572 174.590493 
L 778.390868 174.506414 
L 780.577272 173.421794 
L 780.741568 173.342345 
L 780.943779 173.213007 
L 781.234457 172.981388 
L 781.3482 172.888634 
L 781.499858 172.773191 
L 781.702069 172.637274 
L 782.10649 172.211925 
L 782.624655 171.724954 
L 782.751037 171.563325 
L 782.991162 171.366592 
L 783.345031 171.173132 
L 783.635709 170.960314 
L 783.774729 170.84746 
L 783.939025 170.696904 
L 784.103322 170.42691 
L 785.581988 169.171081 
L 785.834751 169.07577 
L 786.024324 168.873689 
L 786.302364 168.750556 
L 786.46666 168.613315 
L 786.630956 168.494503 
L 787.439799 167.964692 
L 787.591457 167.84411 
L 788.059069 167.552784 
L 788.311833 167.395028 
L 788.653064 167.200899 
L 788.842636 166.996548 
L 788.95638 166.872011 
L 789.120676 166.745578 
L 789.335525 166.621819 
L 790.207559 165.815849 
L 790.359217 165.673177 
L 790.599342 165.517584 
L 790.763638 165.341062 
L 790.927935 165.205659 
L 791.142783 164.914746 
L 791.458738 164.55791 
L 791.686225 164.319835 
L 791.92635 164.187362 
L 792.179114 163.927535 
L 792.356048 163.809456 
L 792.558259 163.60093 
L 792.886851 163.362261 
L 793.733609 162.884876 
L 793.93582 162.635078 
L 794.213859 162.419223 
L 794.479261 162.287575 
L 795.553506 161.47221 
L 795.705164 161.351522 
L 796.172776 161.000288 
L 798.97845 158.844488 
L 799.155385 158.713105 
L 799.332319 158.546196 
L 799.496615 158.428374 
L 799.837846 158.032318 
L 800.027418 157.85837 
L 800.899452 157.272101 
L 801.089025 157.04357 
L 801.455532 156.724414 
L 801.619828 156.61844 
L 802.251737 156.265321 
L 802.416033 156.046369 
L 802.64352 155.861239 
L 802.858369 155.656696 
L 803.237514 155.332493 
L 803.502916 155.036182 
L 803.717765 154.877706 
L 803.844146 154.684603 
L 804.160101 154.390672 
L 804.349673 154.211492 
L 804.539246 153.963434 
L 804.678266 153.825542 
L 804.842562 153.578208 
L 804.99422 153.414403 
L 805.310174 153.098909 
L 805.499747 152.959301 
L 806.738288 151.512477 
L 806.965775 151.365289 
L 807.471302 150.844778 
L 807.547131 150.720464 
L 807.698789 150.38202 
L 807.837809 150.279893 
L 808.052658 150.036149 
L 808.179039 149.885584 
L 808.343336 149.646874 
L 808.722481 149.321717 
L 808.899415 148.902301 
L 809.025797 148.740628 
L 809.177455 148.3807 
L 809.291199 148.273498 
L 809.430219 148.024181 
L 809.543962 147.813641 
L 809.872555 147.078278 
L 810.934161 145.201154 
L 811.136372 144.677345 
L 811.250115 144.451679 
L 811.414412 143.984759 
L 811.452326 143.881106 
L 811.616622 143.490764 
L 811.76828 142.907511 
L 811.919938 142.441468 
L 812.387551 141.147613 
L 812.488656 140.942234 
L 812.665591 140.329878 
L 812.766696 140.04219 
L 813.006821 139.334574 
L 813.057374 139.243535 
L 813.234308 138.418536 
L 813.322776 138.133761 
L 813.537624 137.573254 
L 813.575539 137.49046 
L 813.714559 137.127338 
L 813.752473 137.026566 
L 813.97996 136.184692 
L 814.371744 133.826065 
L 815.104758 129.598353 
L 815.167949 129.460892 
L 815.420712 128.656819 
L 816.115812 123.535348 
L 816.26747 121.592411 
L 816.292746 121.505442 
L 816.393851 119.161599 
L 816.621338 106.671954 
L 816.671891 105.504446 
L 816.697167 94.699374 
L 816.697167 94.699374 
" clip-path="url(#p5640b46ec0)" style="fill: none; stroke: #1f77b4; stroke-width: 1.5; stroke-linecap: square"/>
   </g>
   <g id="line2d_53">
    <path d="M 86.640517 374.213455 
L 86.874451 373.211086 
L 87.654232 372.16506 
L 88.161089 371.692095 
L 88.940869 371.279309 
L 89.096825 371.199485 
L 90.968298 370.548694 
L 94.282364 369.837759 
L 95.257089 369.715171 
L 100.676562 369.203511 
L 122.471421 368.117939 
L 126.604257 367.971424 
L 129.060565 367.855689 
L 138.378939 367.493297 
L 143.993357 367.200729 
L 191.092086 365.056383 
L 196.667515 364.864588 
L 199.045845 364.778716 
L 223.297012 363.910931 
L 229.418287 363.72211 
L 236.709232 363.444983 
L 240.881057 363.313635 
L 243.025453 363.232965 
L 249.302684 363.040178 
L 251.018201 362.976412 
L 338.080669 360.094477 
L 342.720362 359.932283 
L 345.95645 359.829502 
L 350.245241 359.703742 
L 364.164319 359.237057 
L 382.411178 358.540303 
L 383.970739 358.485003 
L 391.729552 358.181826 
L 394.731706 358.071218 
L 398.16274 357.953465 
L 402.022652 357.80972 
L 404.556938 357.686037 
L 409.508543 357.482456 
L 410.990125 357.39979 
L 420.932324 357.006393 
L 423.583577 356.890194 
L 453.176239 355.243694 
L 455.905469 355.050996 
L 457.659975 354.92881 
L 458.673689 354.84985 
L 460.779096 354.681035 
L 461.753822 354.630502 
L 477.505383 353.305517 
L 478.597076 353.235321 
L 479.766746 353.122344 
L 485.186219 352.647852 
L 486.550835 352.519984 
L 488.188373 352.373091 
L 488.578263 352.30896 
L 492.438176 351.868247 
L 499.963055 351.005092 
L 501.249693 350.853059 
L 509.086485 350.007618 
L 509.554353 349.931554 
L 510.84099 349.786056 
L 512.595496 349.523194 
L 515.129782 349.086673 
L 515.519672 348.990954 
L 515.948551 348.88641 
L 517.1962 348.675697 
L 517.859013 348.564274 
L 518.170925 348.513935 
L 518.794749 348.411668 
L 519.184639 348.357409 
L 520.783189 347.983143 
L 521.017123 347.922022 
L 521.718925 347.789284 
L 522.498706 347.580754 
L 524.175233 347.119201 
L 525.188947 346.942148 
L 525.383893 346.869226 
L 526.28064 346.649325 
L 527.567277 346.386463 
L 527.996157 346.245735 
L 529.165827 346.038564 
L 529.867629 345.88632 
L 530.413475 345.770332 
L 531.544157 345.436568 
L 531.973036 345.295367 
L 532.830794 345.062004 
L 533.025739 344.993307 
L 534.078443 344.749825 
L 534.741256 344.626835 
L 535.521036 344.389903 
L 537.119586 344.015967 
L 537.899366 343.865285 
L 538.172289 343.807632 
L 538.718135 343.707253 
L 539.302971 343.48902 
L 539.926795 343.347937 
L 542.50007 342.599078 
L 543.123894 342.327869 
L 543.591762 342.220425 
L 543.903674 342.094722 
L 544.956378 341.826487 
L 545.307279 341.682189 
L 546.320993 341.447435 
L 546.515938 341.308036 
L 547.295718 341.179952 
L 547.64662 341.026316 
L 549.284158 340.610999 
L 550.687763 340.208676 
L 551.58451 339.951938 
L 551.857433 339.840692 
L 552.832158 339.541364 
L 553.222049 339.385212 
L 554.664642 339.028931 
L 555.093521 338.834779 
L 555.444422 338.72842 
L 556.107236 338.547118 
L 556.458137 338.44865 
L 556.692071 338.350454 
L 557.081961 338.203039 
L 558.29062 337.854102 
L 558.914445 337.553409 
L 559.460291 337.378265 
L 559.772203 337.308144 
L 560.435016 337.123965 
L 560.902884 336.922488 
L 561.292775 336.822146 
L 561.565698 336.728011 
L 562.111544 336.560963 
L 566.283368 335.30031 
L 566.478313 335.195181 
L 566.829215 335.097552 
L 567.258094 334.917212 
L 567.842929 334.789258 
L 568.349786 334.65812 
L 571.468907 333.529156 
L 571.702841 333.427392 
L 572.053742 333.322635 
L 572.443633 333.128292 
L 572.716556 332.965823 
L 574.354094 332.301221 
L 574.860951 332.09057 
L 575.32882 331.926405 
L 575.991633 331.671891 
L 576.342534 331.52975 
L 576.576468 331.42026 
L 578.252996 330.749525 
L 579.032776 330.454679 
L 579.305699 330.367237 
L 581.333128 329.641719 
L 581.684029 329.409851 
L 585.465963 328.260159 
L 586.011809 328.069876 
L 586.323722 327.959677 
L 587.220469 327.655932 
L 587.688337 327.47088 
L 588.078227 327.376241 
L 588.507106 327.216275 
L 588.896996 327.100763 
L 589.442843 326.89273 
L 589.988689 326.723161 
L 590.417568 326.606434 
L 590.768469 326.480732 
L 591.626227 326.085921 
L 591.860162 325.911672 
L 592.522975 325.688862 
L 592.795898 325.575021 
L 592.990843 325.459453 
L 594.394447 325.010971 
L 594.589393 324.900281 
L 594.862316 324.801708 
L 595.057261 324.678498 
L 595.915019 324.377401 
L 596.148953 324.258184 
L 596.65581 324.131201 
L 596.850755 324.031739 
L 597.318624 323.834604 
L 598.332338 323.485101 
L 598.527283 323.382455 
L 598.800206 323.273094 
L 598.995151 323.170941 
L 599.151107 323.065855 
L 601.100558 322.254621 
L 601.490448 322.070227 
L 602.465173 321.599907 
L 603.283943 321.384915 
L 606.520031 320.096547 
L 606.714976 319.944265 
L 606.831943 319.827945 
L 608.54746 319.202804 
L 608.859372 319.010926 
L 608.976339 318.942435 
L 609.171284 318.778167 
L 610.301965 318.174471 
L 610.49691 317.933898 
L 611.510625 317.350286 
L 611.744559 317.112782 
L 613.65502 316.141005 
L 613.966933 316.004593 
L 614.317834 315.764076 
L 614.902669 315.408809 
L 617.514933 314.41953 
L 617.787856 314.333086 
L 619.308427 313.572204 
L 619.464384 313.337943 
L 619.659329 313.2336 
L 619.971241 313.071428 
L 620.283153 312.939076 
L 620.478098 312.653794 
L 620.867988 312.496546 
L 621.1799 312.327598 
L 621.491812 312.201516 
L 622.115636 311.892728 
L 622.466538 311.756695 
L 623.012384 311.531931 
L 623.246318 311.440238 
L 624.143065 310.93641 
L 624.33801 310.778075 
L 624.571944 310.66566 
L 625.15678 310.309167 
L 625.54667 309.962287 
L 625.819593 309.82142 
L 626.248472 309.671852 
L 626.482406 309.561783 
L 626.872296 309.446378 
L 627.340164 309.286055 
L 627.652076 309.187753 
L 628.31489 308.845056 
L 628.470846 308.719094 
L 628.821747 308.531672 
L 630.069395 308.111519 
L 630.26434 307.973428 
L 630.459285 307.84119 
L 631.628956 307.114364 
L 632.291769 306.92025 
L 632.525703 306.732535 
L 632.720648 306.671331 
L 632.915593 306.543407 
L 633.656385 306.001521 
L 634.085264 305.61981 
L 634.475154 305.346741 
L 634.670099 305.256719 
L 635.098978 305.088364 
L 635.293923 304.996497 
L 635.449879 304.82559 
L 636.151682 304.272201 
L 636.346627 304.157612 
L 636.814495 303.62367 
L 637.048429 303.489263 
L 637.204385 303.37239 
L 637.711242 303.106641 
L 637.867198 302.920026 
L 638.257088 302.73167 
L 638.413044 302.649457 
L 638.569 302.551523 
L 638.763945 302.384368 
L 639.621704 302.156044 
L 642.233968 300.811122 
L 642.54588 300.497238 
L 644.378363 299.533302 
L 644.612298 299.337491 
L 644.885221 299.21145 
L 645.353089 298.931536 
L 646.09388 298.363174 
L 646.288825 298.248383 
L 646.600737 298.059 
L 646.678715 297.974282 
L 646.834671 297.802242 
L 647.185573 297.623476 
L 647.380518 297.382163 
L 647.770408 297.226974 
L 648.277265 296.983021 
L 648.823111 296.613693 
L 649.174012 296.438136 
L 649.992782 295.926714 
L 650.616606 295.635115 
L 652.098188 294.574314 
L 652.293133 294.334206 
L 652.605045 294.165167 
L 652.83898 294.058581 
L 654.39854 293.086569 
L 654.671463 292.980901 
L 655.217309 292.580525 
L 655.451243 292.432262 
L 656.153046 291.718547 
L 656.309002 291.488667 
L 656.659903 291.301564 
L 656.854848 291.19899 
L 656.893837 291.175536 
L 657.088782 290.744145 
L 657.322716 290.580628 
L 657.634628 290.431949 
L 658.570365 289.074668 
L 658.726321 288.925562 
L 658.882277 288.626457 
L 658.999244 288.513646 
L 659.467112 287.858954 
L 659.506101 287.853527 
L 659.740035 287.385575 
L 660.285881 286.601869 
L 660.363859 286.553482 
L 660.558804 286.127933 
L 660.909705 285.743716 
L 661.104651 285.068891 
L 661.299596 284.85302 
L 661.767464 284.512262 
L 662.040387 284.259135 
L 662.274321 283.875467 
L 662.586233 283.467649 
L 662.7032 283.451981 
L 662.820167 283.218112 
L 663.015112 283.112268 
L 663.171068 282.910005 
L 663.405002 282.704328 
L 663.599947 282.269985 
L 663.716914 282.200718 
L 663.872871 281.783765 
L 664.730629 281.167546 
L 664.886585 280.986183 
L 665.159508 280.666197 
L 665.315464 280.631249 
L 665.432431 280.339893 
L 665.47142 280.323306 
L 665.627376 279.98571 
L 665.939288 279.684219 
L 666.134233 279.479033 
L 666.446145 279.271469 
L 666.602102 278.955174 
L 669.01942 275.755878 
L 669.058409 275.744296 
L 669.214365 275.517349 
L 669.409311 275.410435 
L 669.565267 275.259053 
L 669.643245 275.239406 
L 669.83819 274.926814 
L 669.916168 274.855642 
L 670.539992 273.9233 
L 670.695948 273.829092 
L 670.929882 273.380325 
L 671.241794 273.240864 
L 671.592695 272.938554 
L 671.748651 272.807888 
L 671.826629 272.79281 
L 671.982585 272.553161 
L 672.177531 272.451806 
L 672.411465 272.204763 
L 672.645399 271.961287 
L 672.918322 271.456985 
L 674.087992 270.276455 
L 674.789794 269.069208 
L 674.945751 268.962707 
L 675.296652 268.258749 
L 677.246102 266.677326 
L 677.558014 266.570244 
L 677.713971 266.457538 
L 678.025883 266.288811 
L 678.259817 266.14369 
L 678.415773 266.021085 
L 678.610718 265.769417 
L 679.70241 264.940721 
L 679.858366 264.645755 
L 680.0923 264.575488 
L 680.404212 264.402763 
L 680.560169 264.243742 
L 681.028037 263.840534 
L 681.261971 263.696086 
L 681.378938 263.620195 
L 681.534894 263.446231 
L 681.807817 263.292995 
L 682.002762 263.04299 
L 682.158718 262.947613 
L 682.314674 262.819664 
L 683.211421 262.517061 
L 683.406367 262.371326 
L 684.147158 261.86668 
L 684.693004 261.646677 
L 684.926938 261.54918 
L 685.277839 261.418971 
L 685.472784 261.332118 
L 685.823685 261.139105 
L 686.291554 260.86935 
L 686.603466 260.755654 
L 686.8374 260.630256 
L 687.266279 260.456542 
L 687.851114 260.229022 
L 688.39696 259.812677 
L 688.786851 259.702423 
L 689.059774 259.571283 
L 689.488653 259.406091 
L 689.839554 259.237082 
L 690.073488 259.097067 
L 690.3854 258.945897 
L 691.204169 258.638075 
L 691.477092 258.439952 
L 691.866983 258.319924 
L 692.022939 258.250807 
L 692.490807 258.151882 
L 692.685752 257.949796 
L 693.426543 257.701084 
L 694.050367 257.421587 
L 694.440258 257.282019 
L 695.14206 257.143202 
L 695.765884 256.883161 
L 696.233752 256.810186 
L 696.545664 256.614687 
L 697.403423 256.438236 
L 697.598368 256.362328 
L 698.027247 256.243609 
L 698.378148 256.118328 
L 698.768038 256.033927 
L 699.040961 255.806757 
L 699.976698 255.591397 
L 700.327599 255.449574 
L 701.107379 255.28857 
L 701.380302 255.198017 
L 702.900874 254.598829 
L 703.44672 254.425741 
L 704.304478 254.146258 
L 704.499423 253.979768 
L 704.772346 253.90024 
L 704.967291 253.830721 
L 708.827204 253.028824 
L 711.478457 252.482361 
L 712.024303 252.286762 
L 716.274105 251.624296 
L 716.702985 251.45037 
L 718.0676 251.208788 
L 718.925358 251.067131 
L 721.069754 250.462794 
L 722.239425 250.012185 
L 722.43437 249.821169 
L 722.668304 249.668651 
L 722.863249 249.400598 
L 723.136172 249.240879 
L 723.448084 248.641807 
L 723.643029 248.592689 
L 723.837974 248.322622 
L 723.954941 248.227536 
L 724.422809 247.110638 
L 724.461798 247.078818 
L 724.617754 246.691262 
L 724.929667 246.406016 
L 725.007645 246.371333 
L 725.163601 246.22162 
L 726.840128 243.44383 
L 727.035073 242.775849 
L 727.619909 242.054867 
L 727.892832 241.140511 
L 728.126766 240.407338 
L 728.282722 240.313978 
L 728.477667 240.11732 
L 728.555645 240.059268 
L 729.062502 239.051519 
L 729.296436 238.971576 
L 730.427118 237.108 
L 730.505096 237.077938 
L 730.73903 236.480979 
L 731.167909 236.017083 
L 731.284876 235.920348 
L 731.635777 235.247643 
L 731.752744 235.20786 
L 731.869711 234.870979 
L 731.947689 234.831557 
L 732.142634 234.464184 
L 732.337579 234.262119 
L 732.610502 233.984543 
L 732.922414 233.863075 
L 733.11736 233.766628 
L 733.585228 233.505513 
L 733.975118 233.354648 
L 734.28703 233.275053 
L 734.715909 233.142176 
L 734.988832 232.690053 
L 736.041536 232.341376 
L 736.66536 232.119548 
L 737.05525 231.997368 
L 737.250195 231.882677 
L 737.44514 231.609218 
L 738.185931 231.3535 
L 738.6538 231.067349 
L 739.355602 230.945974 
L 740.174371 230.788423 
L 740.642239 230.54719 
L 740.954151 230.4219 
L 742.396745 230.169509 
L 743.332481 229.751369 
L 743.800349 229.544097 
L 745.476877 228.776432 
L 745.671822 228.495672 
L 746.022723 228.362138 
L 746.178679 228.247993 
L 746.334635 227.919129 
L 746.412613 227.794016 
L 746.607558 227.62642 
L 746.802503 227.217085 
L 746.997449 226.923799 
L 747.153405 225.945016 
L 747.34835 225.56774 
L 747.543295 225.013184 
L 747.621273 224.965035 
L 748.011163 222.987739 
L 748.089141 222.906655 
L 748.51802 221.215709 
L 748.829932 220.968692 
L 749.024877 220.576182 
L 749.336789 220.172869 
L 749.453756 219.463761 
L 749.609712 218.829558 
L 749.999603 218.524478 
L 750.194548 218.344479 
L 750.662416 218.203134 
L 751.247251 217.696629 
L 751.598152 217.548055 
L 752.027031 217.456783 
L 752.806812 217.324693 
L 753.157713 217.075097 
L 753.586592 216.77685 
L 753.859515 214.493484 
L 754.05446 212.711112 
L 754.132438 212.708157 
L 754.405361 210.402482 
L 754.522328 210.273452 
L 754.678284 209.910784 
L 754.873229 209.810292 
L 754.990196 209.074857 
L 755.263119 208.866272 
L 755.614021 208.452431 
L 755.886944 208.358188 
L 756.237845 207.963441 
L 756.939647 207.679798 
L 757.095603 206.987651 
L 757.173581 206.910672 
L 757.758416 204.732146 
L 757.914372 204.453215 
L 757.99235 204.432494 
L 758.265274 203.832413 
L 758.343252 203.761455 
L 758.499208 203.664416 
L 758.733142 203.517959 
L 759.239999 202.282788 
L 759.395955 202.198158 
L 759.746856 201.798103 
L 759.902812 201.675194 
L 760.058768 201.436893 
L 760.214724 201.384651 
L 760.448658 198.038325 
L 760.604614 197.98398 
L 760.877538 196.889234 
L 761.072483 194.852351 
L 761.111472 194.61707 
L 761.267428 184.901778 
L 761.618329 179.034808 
L 761.774285 170.925951 
L 761.96923 169.159485 
L 762.164175 164.581788 
L 762.320131 163.248968 
L 762.476087 160.048906 
L 762.710021 153.825581 
L 763.021933 142.592897 
L 763.216878 141.916085 
L 763.567779 139.55947 
L 763.606769 139.558552 
L 763.762725 137.393543 
L 763.801714 137.308323 
L 764.230593 133.336934 
L 764.425538 127.503415 
L 764.581494 126.019444 
L 765.049362 117.42331 
L 765.868131 109.790003 
L 766.102065 109.047242 
L 766.491956 106.593717 
L 767.076791 100.339299 
L 767.310725 99.470851 
L 767.544659 97.961731 
L 767.700615 97.570878 
L 768.168483 95.769196 
L 768.246461 95.554503 
L 768.402417 94.775263 
L 768.597362 92.453263 
L 768.870285 91.4406 
L 769.260176 86.792392 
L 769.377143 86.636644 
L 769.572088 83.528551 
L 769.611077 83.510013 
L 769.806022 81.972341 
L 770.000967 78.860946 
L 770.039956 78.819384 
L 770.195912 78.155766 
L 770.351868 76.368927 
L 770.507824 76.121338 
L 770.66378 75.328812 
L 770.858725 74.797303 
L 771.014681 72.525075 
L 771.092659 72.403499 
L 771.209626 72.055073 
L 771.365582 70.297345 
L 771.794461 67.744462 
L 771.989407 67.339012 
L 772.145363 66.975242 
L 772.418286 65.622916 
L 772.457275 65.598024 
L 772.65222 64.65756 
L 772.691209 64.582816 
L 772.964132 62.509655 
L 773.509978 60.252456 
L 773.665934 60.049763 
L 773.860879 59.492035 
L 773.977846 58.985381 
L 774.289758 57.701937 
L 789.885364 57.693796 
L 816.670817 57.682545 
L 816.670817 57.682545 
" clip-path="url(#p5640b46ec0)" style="fill: none; stroke: #ff7f0e; stroke-width: 1.5; stroke-linecap: square"/>
   </g>
   <g id="line2d_54">
    <path d="M 86.640517 362.490302 
L 86.834728 359.165449 
L 86.99657 358.641591 
L 87.320254 357.314654 
L 87.433543 357.190478 
L 87.821964 356.577051 
L 87.951438 356.462033 
L 88.161832 356.242433 
L 88.356043 356.08647 
L 88.566437 355.630524 
L 88.695911 355.536027 
L 88.841569 355.386417 
L 89.019595 355.283058 
L 89.181437 355.03296 
L 89.780252 354.688566 
L 90.055384 354.539798 
L 90.298147 354.411736 
L 90.492357 354.326703 
L 90.702752 354.198736 
L 90.880778 354.089578 
L 91.269199 353.932119 
L 91.495777 353.784828 
L 91.73854 353.649716 
L 92.078409 353.523198 
L 92.483014 353.287033 
L 93.195119 353.080471 
L 93.599724 352.938986 
L 94.020513 352.817479 
L 94.214723 352.766499 
L 95.28288 352.443724 
L 95.752222 352.267597 
L 104.491691 350.283935 
L 104.653533 350.230876 
L 114.995237 348.109057 
L 115.351289 348.033533 
L 116.387078 347.829538 
L 116.694578 347.741057 
L 117.244841 347.605782 
L 120.384575 346.774405 
L 121.776417 346.376105 
L 122.164838 346.264229 
L 122.553258 346.13574 
L 122.925495 346.029093 
L 123.411021 345.913998 
L 124.236415 345.697193 
L 125.288388 345.306081 
L 125.547335 345.194418 
L 125.854835 345.062836 
L 126.340361 344.87806 
L 126.87444 344.733785 
L 129.868517 343.71008 
L 130.273122 343.541093 
L 130.985227 343.322449 
L 131.276542 343.148947 
L 131.648779 343.013561 
L 132.053384 342.865504 
L 132.522726 342.713826 
L 133.526146 342.237994 
L 133.866015 342.084071 
L 135.516803 341.040434 
L 135.711013 340.868296 
L 137.167592 339.99005 
L 137.377986 339.816537 
L 137.653118 339.598423 
L 137.879696 339.484961 
L 138.041538 339.317302 
L 142.783509 334.355675 
L 142.961535 334.133657 
L 143.349956 333.760028 
L 143.495614 333.611027 
L 143.819298 333.254415 
L 144.094429 332.908341 
L 144.48285 332.294116 
L 144.660876 332.039495 
L 144.903639 331.73604 
L 145.033113 331.621947 
L 145.09785 331.518087 
L 145.324429 331.273239 
L 145.518639 331.140519 
L 146.295481 330.229016 
L 146.489691 330.059013 
L 147.056138 329.271082 
L 147.120875 329.158632 
L 147.331269 328.83658 
L 147.460743 328.717 
L 147.622585 328.494501 
L 147.768243 328.315827 
L 148.124295 327.814516 
L 148.545085 327.103627 
L 149.062979 326.619828 
L 149.370479 326.208218 
L 149.4514 326.096384 
L 149.597058 325.771788 
L 149.904557 325.303917 
L 150.114952 325.066803 
L 150.325347 324.813694 
L 150.697583 324.451261 
L 150.875609 324.168263 
L 151.053636 323.908307 
L 151.555346 323.308013 
L 151.684819 323.106929 
L 151.798109 322.897835 
L 152.785345 321.314237 
L 153.011924 321.047734 
L 153.109029 320.963596 
L 153.270871 320.678623 
L 153.659292 320.112972 
L 154.015344 319.735261 
L 154.193371 319.432967 
L 154.274292 319.294532 
L 154.468502 319.012014 
L 154.678897 318.848771 
L 154.840739 318.62511 
L 155.552843 318.02875 
L 155.844159 317.544199 
L 156.006001 317.391096 
L 156.151659 317.079832 
L 156.329685 316.949217 
L 157.300737 315.818624 
L 157.365474 315.711039 
L 157.5435 315.541094 
L 158.174684 315.06783 
L 158.401263 314.864515 
L 158.465999 314.762529 
L 159.323762 313.96259 
L 159.46942 313.741357 
L 159.744551 313.481008 
L 159.857841 313.375044 
L 161.120208 311.745372 
L 161.346787 311.451873 
L 161.621919 311.136887 
L 161.783761 310.846818 
L 161.913234 310.742692 
L 162.075076 310.488275 
L 162.236918 310.236817 
L 162.625339 309.62176 
L 163.046128 309.037459 
L 163.272707 308.705204 
L 163.51547 308.50411 
L 163.677312 308.32823 
L 163.952443 308.124478 
L 164.308496 307.680641 
L 164.51889 307.494414 
L 164.729285 307.049867 
L 164.810206 306.943742 
L 165.004417 306.793031 
L 165.150074 306.661269 
L 165.295732 306.535229 
L 165.522311 306.307908 
L 165.845995 305.946912 
L 165.991653 305.83607 
L 166.169679 305.717426 
L 166.331521 305.475367 
L 166.590468 305.300673 
L 166.719942 305.175458 
L 166.8656 305.003867 
L 167.027442 304.79888 
L 167.658625 304.093283 
L 167.820467 303.867818 
L 167.949941 303.745592 
L 168.111783 303.629924 
L 168.225072 303.50564 
L 168.435467 303.12657 
L 170.280466 301.116774 
L 170.474676 300.854833 
L 171.267702 300.037651 
L 171.429544 299.932284 
L 171.656123 299.756188 
L 172.465333 299.153094 
L 172.610991 299.003692 
L 173.193622 298.505235 
L 173.355464 298.352695 
L 173.484938 298.223713 
L 173.64678 298.124396 
L 173.857174 297.85202 
L 173.921911 297.755245 
L 174.277963 297.391918 
L 174.439805 297.242427 
L 174.634016 297.044394 
L 175.815462 295.879172 
L 175.977305 295.745894 
L 176.365725 295.364369 
L 176.527567 295.009745 
L 177.207304 294.364732 
L 177.482435 294.088426 
L 177.741382 293.850873 
L 179.019934 292.869704 
L 179.456908 292.525805 
L 179.602565 292.286942 
L 179.926249 291.948802 
L 180.088091 291.818404 
L 182.54809 289.540246 
L 182.936511 289.311357 
L 183.033616 289.240556 
L 183.211642 289.048831 
L 183.486774 288.851133 
L 183.794273 288.487605 
L 183.956115 288.374346 
L 184.182694 288.044732 
L 184.635852 287.522598 
L 184.797694 287.386325 
L 185.024273 287.252629 
L 186.497035 286.147953 
L 186.658877 285.981863 
L 187.144403 285.612633 
L 187.306245 285.509224 
L 189.798612 283.756014 
L 189.94427 283.604153 
L 190.365059 283.192456 
L 190.559269 282.965877 
L 190.866769 282.813132 
L 191.1419 282.539094 
L 193.132557 280.887974 
L 194.119793 280.15703 
L 194.330188 279.939428 
L 194.540583 279.839519 
L 194.68624 279.618098 
L 194.880451 279.455847 
L 195.123214 279.288682 
L 195.268872 279.182984 
L 195.349793 279.074587 
L 195.511635 278.976372 
L 195.722029 278.854044 
L 196.482687 278.298205 
L 196.660713 278.068752 
L 196.854923 277.964924 
L 197.194791 277.749929 
L 197.599396 277.389727 
L 197.664133 277.301752 
L 197.825975 277.208207 
L 199.120711 276.482523 
L 199.282553 276.36308 
L 199.46058 276.255747 
L 199.638606 276.09198 
L 202.762156 273.907522 
L 203.134393 273.721396 
L 203.360972 273.538542 
L 203.619919 273.415866 
L 203.878866 273.227856 
L 204.218735 273.056784 
L 206.500707 271.347421 
L 206.711101 271.146967 
L 206.953864 270.929929 
L 207.099522 270.824218 
L 207.261364 270.66209 
L 208.345706 269.809691 
L 208.5561 269.694353 
L 209.138732 269.271833 
L 209.931757 268.647051 
L 210.48202 268.225201 
L 210.740967 268.070204 
L 211.29123 267.674288 
L 211.469256 267.535893 
L 211.631098 267.414811 
L 211.728204 267.33288 
L 211.890046 267.170461 
L 212.116624 267.05051 
L 212.747808 266.608071 
L 212.942019 266.451536 
L 213.168597 266.319696 
L 213.751229 266.05654 
L 213.929255 265.931607 
L 214.155834 265.828088 
L 214.301491 265.719693 
L 214.916491 265.319574 
L 215.029781 265.209306 
L 215.207807 264.998892 
L 215.353465 264.883126 
L 216.648201 263.844518 
L 217.182279 263.589625 
L 217.425042 263.465694 
L 217.586884 263.357837 
L 217.829647 263.211677 
L 218.719778 262.686969 
L 221.179777 260.987052 
L 221.373987 260.831628 
L 222.328855 260.338596 
L 222.814381 260.077397 
L 223.607407 259.60411 
L 225.857011 258.371082 
L 226.115958 258.164959 
L 226.310168 258.038427 
L 226.633852 257.829639 
L 227.184115 257.485759 
L 227.507799 257.247439 
L 228.074246 256.824069 
L 228.964377 256.096202 
L 229.660298 255.72353 
L 230.534245 255.099982 
L 230.793192 254.889219 
L 230.93885 254.761187 
L 231.213981 254.613821 
L 231.553849 254.405367 
L 231.958454 254.164799 
L 232.217402 254.012643 
L 232.783849 253.661519 
L 233.075164 253.554243 
L 233.36648 253.40562 
L 233.593059 253.288205 
L 234.823058 252.553725 
L 235.227663 252.256543 
L 235.648452 252.071304 
L 235.810294 251.941228 
L 236.036873 251.788339 
L 236.312004 251.647669 
L 236.473846 251.504881 
L 236.748978 251.36206 
L 236.91082 251.277938 
L 236.991741 251.186839 
L 237.153583 251.037018 
L 237.331609 250.910992 
L 238.157003 250.352131 
L 238.335029 250.236242 
L 240.422791 248.719715 
L 240.568449 248.59852 
L 240.795028 248.410261 
L 241.814632 247.863583 
L 242.07358 247.742468 
L 242.57529 247.490805 
L 242.704764 247.352596 
L 242.915158 247.216048 
L 243.125553 247.085403 
L 243.400684 246.862375 
L 243.772921 246.669195 
L 244.064236 246.468902 
L 244.371736 246.367167 
L 244.517394 246.235516 
L 244.743973 246.098758 
L 244.921999 245.999986 
L 246.071077 245.191918 
L 246.232919 245.092863 
L 246.524235 244.880038 
L 247.705681 244.05388 
L 247.980813 243.855252 
L 248.563444 243.559768 
L 249.000418 243.391355 
L 249.146075 243.331432 
L 249.955285 242.813051 
L 250.311338 242.593368 
L 251.800284 241.842839 
L 252.010679 241.746329 
L 252.334363 241.572816 
L 252.609494 241.404403 
L 252.819889 241.287473 
L 254.098441 240.685321 
L 254.373572 240.553632 
L 254.535414 240.442544 
L 255.555019 239.772434 
L 255.716861 239.635198 
L 256.089097 239.427902 
L 256.250939 239.361102 
L 256.979228 239.041548 
L 257.675149 238.64751 
L 258.532912 238.333488 
L 258.969885 238.17364 
L 260.604489 237.447343 
L 260.879621 237.359054 
L 261.446068 237.176007 
L 261.624094 237.067587 
L 265.03896 235.539817 
L 265.330276 235.311852 
L 265.573039 235.181292 
L 266.948696 234.567739 
L 269.263037 233.67547 
L 269.408694 233.590813 
L 269.70001 233.469044 
L 270.169352 233.308705 
L 270.444483 233.171036 
L 270.930009 232.929708 
L 271.108036 232.808289 
L 272.111456 232.443842 
L 272.532245 232.245249 
L 273.082508 232.08673 
L 273.422376 231.920797 
L 275.396849 231.137165 
L 275.574875 231.041839 
L 276.011848 230.878239 
L 276.885795 230.55178 
L 278.148163 230.228286 
L 278.277636 230.15589 
L 278.763162 230.022745 
L 279.750399 229.678481 
L 279.944609 229.603654 
L 280.52724 229.435078 
L 280.786187 229.36198 
L 281.514477 229.085947 
L 281.676319 229.037353 
L 282.550265 228.711695 
L 282.712107 228.660547 
L 283.76408 228.385863 
L 283.958291 228.330136 
L 284.718948 228.125192 
L 285.123553 227.940324 
L 286.029868 227.67552 
L 286.224079 227.578865 
L 288.42513 227.046329 
L 289.137235 226.828622 
L 289.638945 226.706969 
L 290.674734 226.456866 
L 291.192628 226.154418 
L 291.483944 226.039705 
L 291.694339 225.960835 
L 292.147496 225.849894 
L 293.102364 225.577279 
L 293.652627 225.373455 
L 294.105785 225.182345 
L 294.656047 225.037113 
L 294.89881 224.97129 
L 295.368152 224.843903 
L 295.659468 224.737622 
L 296.355388 224.532537 
L 296.711441 224.464128 
L 297.391177 224.258686 
L 300.17486 223.539528 
L 301.841832 223.123674 
L 302.812884 222.945205 
L 303.136569 222.853888 
L 304.463673 222.432551 
L 304.787357 222.290623 
L 305.709856 222.042836 
L 306.114461 221.971134 
L 306.713277 221.822949 
L 308.202223 221.403879 
L 308.655381 221.270028 
L 309.092354 221.162197 
L 309.69117 220.962003 
L 309.933933 220.867679 
L 310.629853 220.670094 
L 312.652878 220.191637 
L 313.300246 220.062681 
L 313.62393 220.005665 
L 314.951035 219.63496 
L 315.905903 219.504966 
L 323.480109 217.91367 
L 324.386424 217.789965 
L 325.956291 217.547753 
L 326.68458 217.416037 
L 327.526159 217.307772 
L 329.096026 217.073032 
L 329.354973 217.024511 
L 347.44891 214.576359 
L 348.711277 214.402582 
L 349.941277 214.277061 
L 351.122723 214.1512 
L 351.624433 214.102967 
L 353.30759 213.826827 
L 353.647459 213.770237 
L 354.602326 213.649357 
L 355.249694 213.577892 
L 356.334036 213.459933 
L 356.690088 213.4149 
L 358.324692 213.240176 
L 359.133903 213.130631 
L 360.007849 213.01623 
L 360.299165 212.977998 
L 363.616926 212.489758 
L 366.918503 212.075443 
L 367.517318 212.012056 
L 368.812054 211.81122 
L 369.184291 211.761172 
L 370.737974 211.525009 
L 372.356394 211.308778 
L 372.809552 211.262102 
L 374.282314 211.090743 
L 374.638367 211.055301 
L 375.900734 210.931384 
L 384.575466 209.850724 
L 386.112965 209.711076 
L 386.986912 209.611458 
L 388.184543 209.490068 
L 388.686253 209.442714 
L 390.547436 209.24213 
L 392.424803 209.070878 
L 393.768092 208.919898 
L 394.852433 208.806222 
L 398.089273 208.466059 
L 399.432562 208.355044 
L 400.031377 208.289186 
L 419.063997 206.543721 
L 420.714786 206.391801 
L 421.070838 206.366024 
L 422.381758 206.2565 
L 422.948205 206.204493 
L 424.825573 206.037062 
L 425.764256 205.978702 
L 432.011358 205.537734 
L 433.192804 205.43007 
L 438.679248 205.003013 
L 444.457008 204.552059 
L 446.366744 204.380906 
L 451.820819 204.009774 
L 453.245029 203.906036 
L 455.154765 203.787346 
L 457.598579 203.633566 
L 493.883557 200.961828 
L 494.417635 200.902377 
L 494.951714 200.862252 
L 497.541186 200.591762 
L 503.853024 200.085483 
L 505.196313 199.968937 
L 506.604338 199.844114 
L 507.494469 199.763489 
L 509.064337 199.616182 
L 515.732227 199.090729 
L 519.843014 198.788773 
L 520.878803 198.715743 
L 522.626697 198.604271 
L 523.516828 198.544991 
L 533.567216 197.819598 
L 534.959058 197.722249 
L 537.516161 197.573698 
L 540.963396 197.372822 
L 542.889316 197.238735 
L 543.423395 197.201592 
L 544.378262 197.083156 
L 545.33313 197.019069 
L 547.178129 196.901309 
L 550.107469 196.658747 
L 550.722469 196.617036 
L 557.001939 196.194341 
L 565.369171 195.693105 
L 566.404959 195.635187 
L 587.735736 194.290257 
L 588.544946 194.234051 
L 590.195734 194.108192 
L 591.037313 194.049995 
L 593.367838 193.910207 
L 595.309942 193.789122 
L 600.521254 193.491018 
L 601.62178 193.422265 
L 604.615857 193.228484 
L 610.943879 192.780507 
L 611.623616 192.741093 
L 613.808483 192.625038 
L 615.297429 192.51792 
L 617.061507 192.375542 
L 617.741244 192.323014 
L 619.100717 192.209551 
L 626.885317 191.659497 
L 627.419396 191.605767 
L 644.493727 190.381851 
L 644.785043 190.355101 
L 646.112147 190.250288 
L 647.795304 190.130075 
L 652.165038 189.778076 
L 653.427406 189.66669 
L 655.385694 189.520134 
L 657.651482 189.29604 
L 658.315035 189.232004 
L 660.079112 189.103881 
L 663.202663 188.835217 
L 667.362003 188.54491 
L 669.255554 188.425997 
L 680.390284 187.552959 
L 680.891994 187.498258 
L 681.943967 187.38568 
L 682.80173 187.30087 
L 684.792387 187.12159 
L 690.165541 186.512266 
L 692.026724 186.281253 
L 698.031063 185.672969 
L 699.60093 185.538524 
L 701.980008 185.282744 
L 703.226191 185.140741 
L 703.45277 185.112165 
L 704.035401 185.043954 
L 711.415397 184.273415 
L 712.96908 184.139443 
L 714.182895 184.006555 
L 718.32605 183.541669 
L 720.931707 183.243845 
L 722.274995 183.090532 
L 725.398546 182.699143 
L 725.738414 182.647208 
L 726.644729 182.502448 
L 734.202751 181.349576 
L 734.42933 181.294759 
L 735.206172 181.17949 
L 737.16446 180.816305 
L 737.86038 180.685697 
L 738.362091 180.558823 
L 738.960906 180.50699 
L 740.336563 180.342626 
L 741.922615 180.081332 
L 742.262483 180.017526 
L 749.140768 178.692703 
L 749.642478 178.560761 
L 749.982347 178.426249 
L 750.403136 178.318862 
L 751.989188 177.92534 
L 752.296687 177.869185 
L 752.84695 177.707954 
L 753.332476 177.597372 
L 754.012213 177.427619 
L 754.594844 177.27151 
L 757.216684 176.456506 
L 757.378526 176.366702 
L 757.653658 176.253824 
L 757.880237 176.154925 
L 760.74484 174.940609 
L 761.036156 174.808602 
L 761.35984 174.676317 
L 761.602603 174.518774 
L 761.74826 174.351245 
L 762.007208 174.175236 
L 762.444181 174.043214 
L 762.848786 173.891105 
L 763.042997 173.742144 
L 763.17247 173.640209 
L 763.382865 173.467248 
L 763.949312 173.256496 
L 764.143522 173.050063 
L 764.337733 172.876925 
L 764.499575 172.750574 
L 764.726153 172.488782 
L 764.887995 172.412508 
L 765.066022 172.121203 
L 765.276416 171.996612 
L 765.422074 171.804569 
L 765.761942 171.524918 
L 765.923784 171.391526 
L 766.732994 170.59097 
L 766.830099 170.465467 
L 767.299441 169.922439 
L 767.412731 169.77326 
L 767.574573 169.52488 
L 767.817336 169.316631 
L 767.946809 169.168626 
L 768.33523 168.786401 
L 768.626546 168.30101 
L 768.739835 168.180139 
L 769.387203 167.504748 
L 769.532861 167.363485 
L 769.775624 167.091655 
L 770.034571 166.949543 
L 770.228782 166.835805 
L 771.037992 166.014377 
L 771.232202 165.718641 
L 771.394044 165.550538 
L 771.57207 165.283558 
L 772.624043 164.189116 
L 773.174306 163.826713 
L 773.384701 163.627593 
L 773.481806 163.527808 
L 773.61128 163.391481 
L 773.837858 163.229473 
L 774.064437 163.04287 
L 774.339569 162.759102 
L 774.970752 162.395701 
L 775.245884 162.153446 
L 775.812331 161.792243 
L 776.022725 161.562732 
L 776.508251 161.176487 
L 776.653909 161.011576 
L 777.463119 160.359369 
L 777.576409 160.265629 
L 777.754435 160.096599 
L 777.932461 159.98659 
L 778.450355 159.610933 
L 778.66075 159.474901 
L 778.822592 159.322353 
L 779.27575 159.005764 
L 779.372855 158.884287 
L 779.826013 158.592933 
L 779.97167 158.468197 
L 780.214433 158.245623 
L 780.602854 157.915313 
L 780.845617 157.711669 
L 781.120749 157.458513 
L 781.331143 157.3499 
L 781.541538 157.123404 
L 781.638643 157.015719 
L 781.832853 156.911092 
L 781.994695 156.763567 
L 782.188906 156.631873 
L 783.548379 155.48815 
L 783.710221 155.364546 
L 784.066273 155.063057 
L 784.147194 154.960009 
L 784.341404 154.798719 
L 784.535615 154.660704 
L 784.74601 154.480281 
L 785.021141 154.304909 
L 785.571404 153.892279 
L 785.733246 153.772737 
L 785.976009 153.600138 
L 786.040746 153.505072 
L 786.25114 153.219223 
L 786.315877 153.089006 
L 786.655745 152.630114 
L 786.785219 152.538247 
L 786.963245 152.360752 
L 787.108903 152.252661 
L 791.672847 147.553343 
L 792.417321 146.917655 
L 792.562978 146.764573 
L 793.809162 144.542843 
L 793.95482 144.15215 
L 794.051925 143.933636 
L 794.294688 143.506854 
L 794.634556 142.90438 
L 794.796398 142.463759 
L 794.990608 142.287035 
L 795.168635 141.848255 
L 795.540871 140.89567 
L 795.735082 140.743292 
L 796.673765 139.1827 
L 796.851792 138.830201 
L 797.288765 138.010787 
L 797.466791 137.544336 
L 797.515344 137.463061 
L 797.725738 136.664469 
L 797.968501 136.170632 
L 798.114159 135.597102 
L 798.162712 135.456717 
L 798.486396 134.51753 
L 798.664422 133.799497 
L 798.826264 133.447532 
L 799.344158 131.148684 
L 799.716395 129.823765 
L 800.072447 128.700764 
L 800.266658 127.868223 
L 801.367184 124.066237 
L 801.512841 123.483273 
L 801.561394 123.356613 
L 801.707052 123.025496 
L 801.787973 122.915496 
L 801.85271 122.715535 
L 801.998367 122.135046 
L 802.678104 118.497539 
L 802.694288 118.480501 
L 802.888498 116.636925 
L 802.953235 116.344365 
L 803.147446 114.583765 
L 803.179814 114.484429 
L 803.374024 112.269004 
L 803.422577 111.646775 
L 803.584419 110.40827 
L 803.730077 109.078135 
L 804.345076 104.652443 
L 804.377445 104.56513 
L 804.506918 103.99728 
L 804.652576 103.530439 
L 804.684945 103.18788 
L 804.830602 102.33777 
L 805.688365 99.998359 
L 805.834023 99.842596 
L 806.125338 99.14521 
L 806.303365 98.771 
L 806.740338 98.142173 
L 806.869812 97.978742 
L 807.82468 97.136481 
L 807.986522 96.923619 
L 808.164548 96.72626 
L 808.245469 96.641341 
L 808.391127 96.421387 
L 808.779547 96.152781 
L 809.006126 95.772578 
L 809.119416 95.65934 
L 809.281258 95.456391 
L 809.410731 95.338462 
L 810.495073 92.770069 
L 811.045335 88.383965 
L 811.288098 86.610577 
L 811.433756 85.822417 
L 811.822177 83.100133 
L 811.87073 82.956578 
L 812.226782 82.125812 
L 813.262571 80.882971 
L 813.456781 80.606847 
L 814.589675 78.757745 
L 814.686781 78.67035 
L 814.751517 78.192987 
L 814.945728 74.843417 
L 815.042833 74.59927 
L 815.382701 72.802633 
L 815.463622 72.681355 
L 815.60928 72.524663 
L 815.771122 72.174459 
L 815.852043 72.101863 
L 816.062438 71.429884 
L 816.127174 71.337179 
L 816.305201 70.271151 
L 816.386122 70.188483 
L 816.531779 69.81011 
L 816.564148 69.778945 
L 816.693621 69.378426 
L 816.693621 69.378426 
" clip-path="url(#p5640b46ec0)" style="fill: none; stroke: #2ca02c; stroke-width: 1.5; stroke-linecap: square"/>
   </g>
   <g id="patch_3">
    <path d="M 50.137685 390.04 
L 50.137685 41.856 
" style="fill: none; stroke: #000000; stroke-width: 0.8; stroke-linejoin: miter; stroke-linecap: square"/>
   </g>
   <g id="patch_4">
    <path d="M 853.2 390.04 
L 853.2 41.856 
" style="fill: none; stroke: #000000; stroke-width: 0.8; stroke-linejoin: miter; stroke-linecap: square"/>
   </g>
   <g id="patch_5">
    <path d="M 50.137685 390.04 
L 853.2 390.04 
" style="fill: none; stroke: #000000; stroke-width: 0.8; stroke-linejoin: miter; stroke-linecap: square"/>
   </g>
   <g id="patch_6">
    <path d="M 50.137685 41.856 
L 853.2 41.856 
" style="fill: none; stroke: #000000; stroke-width: 0.8; stroke-linejoin: miter; stroke-linecap: square"/>
   </g>
   <g id="text_14">
    <!-- HTTP Request Duration Percentiles -->
    <g transform="translate(347.44228 22.355625) scale(0.12 -0.12)">
     <defs>
      <path id="DejaVuSans-48" d="M 628 4666 
L 1259 4666 
L 1259 2753 
L 3553 2753 
L 3553 4666 
L 4184 4666 
L 4184 0 
L 3553 0 
L 3553 2222 
L 1259 2222 
L 1259 0 
L 628 0 
L 628 4666 
z
" transform="scale(0.015625)"/>
      <path id="DejaVuSans-54" d="M -19 4666 
L 3928 4666 
L 3928 4134 
L 2272 4134 
L 2272 0 
L 1638 0 
L 1638 4134 
L -19 4134 
L -19 4666 
z
" transform="scale(0.015625)"/>
      <path id="DejaVuSans-52" d="M 2841 2188 
Q 3044 2119 3236 1894 
Q 3428 1669 3622 1275 
L 4263 0 
L 3584 0 
L 2988 1197 
Q 2756 1666 2539 1819 
Q 2322 1972 1947 1972 
L 1259 1972 
L 1259 0 
L 628 0 
L 628 4666 
L 2053 4666 
Q 2853 4666 3247 4331 
Q 3641 3997 3641 3322 
Q 3641 2881 3436 2590 
Q 3231 2300 2841 2188 
z
M 1259 4147 
L 1259 2491 
L 2053 2491 
Q 2509 2491 2742 2702 
Q 2975 2913 2975 3322 
Q 2975 3731 2742 3939 
Q 2509 4147 2053 4147 
L 1259 4147 
z
" transform="scale(0.015625)"/>
      <path id="DejaVuSans-71" d="M 947 1747 
Q 947 1113 1208 752 
Q 1469 391 1925 391 
Q 2381 391 2643 752 
Q 2906 1113 2906 1747 
Q 2906 2381 2643 2742 
Q 2381 3103 1925 3103 
Q 1469 3103 1208 2742 
Q 947 2381 947 1747 
z
M 2906 525 
Q 2725 213 2448 61 
Q 2172 -91 1784 -91 
Q 1150 -91 751 415 
Q 353 922 353 1747 
Q 353 2572 751 3078 
Q 1150 3584 1784 3584 
Q 2172 3584 2448 3432 
Q 2725 3281 2906 2969 
L 2906 3500 
L 3481 3500 
L 3481 -1331 
L 2906 -1331 
L 2906 525 
z
" transform="scale(0.015625)"/>
     </defs>
     <use xlink:href="#DejaVuSans-48"/>
     <use xlink:href="#DejaVuSans-54" transform="translate(75.195312 0)"/>
     <use xlink:href="#DejaVuSans-54" transform="translate(134.529297 0)"/>
     <use xlink:href="#DejaVuSans-50" transform="translate(195.613281 0)"/>
     <use xlink:href="#DejaVuSans-20" transform="translate(255.916016 0)"/>
     <use xlink:href="#DejaVuSans-52" transform="translate(287.703125 0)"/>
     <use xlink:href="#DejaVuSans-65" transform="translate(352.685547 0)"/>
     <use xlink:href="#DejaVuSans-71" transform="translate(414.208984 0)"/>
     <use xlink:href="#DejaVuSans-75" transform="translate(477.685547 0)"/>
     <use xlink:href="#DejaVuSans-65" transform="translate(541.064453 0)"/>
     <use xlink:href="#DejaVuSans-73" transform="translate(602.587891 0)"/>
     <use xlink:href="#DejaVuSans-74" transform="translate(654.6875 0)"/>
     <use xlink:href="#DejaVuSans-20" transform="translate(693.896484 0)"/>
     <use xlink:href="#DejaVuSans-44" transform="translate(725.683594 0)"/>
     <use xlink:href="#DejaVuSans-75" transform="translate(802.685547 0)"/>
     <use xlink:href="#DejaVuSans-72" transform="translate(866.064453 0)"/>
     <use xlink:href="#DejaVuSans-61" transform="translate(907.177734 0)"/>
     <use xlink:href="#DejaVuSans-74" transform="translate(968.457031 0)"/>
     <use xlink:href="#DejaVuSans-69" transform="translate(1007.666016 0)"/>
     <use xlink:href="#DejaVuSans-6f" transform="translate(1035.449219 0)"/>
     <use xlink:href="#DejaVuSans-6e" transform="translate(1096.630859 0)"/>
     <use xlink:href="#DejaVuSans-20" transform="translate(1160.009766 0)"/>
     <use xlink:href="#DejaVuSans-50" transform="translate(1191.796875 0)"/>
     <use xlink:href="#DejaVuSans-65" transform="translate(1248.474609 0)"/>
     <use xlink:href="#DejaVuSans-72" transform="translate(1309.998047 0)"/>
     <use xlink:href="#DejaVuSans-63" transform="translate(1348.861328 0)"/>
     <use xlink:href="#DejaVuSans-65" transform="translate(1403.841797 0)"/>
     <use xlink:href="#DejaVuSans-6e" transform="translate(1465.365234 0)"/>
     <use xlink:href="#DejaVuSans-74" transform="translate(1528.744141 0)"/>
     <use xlink:href="#DejaVuSans-69" transform="translate(1567.953125 0)"/>
     <use xlink:href="#DejaVuSans-6c" transform="translate(1595.736328 0)"/>
     <use xlink:href="#DejaVuSans-65" transform="translate(1623.519531 0)"/>
     <use xlink:href="#DejaVuSans-73" transform="translate(1685.042969 0)"/>
    </g>
    <!-- Test: stress | Endpoint: Combined -->
    <g transform="translate(351.221342 35.856) scale(0.12 -0.12)">
     <defs>
      <path id="DejaVuSans-3a" d="M 750 794 
L 1409 794 
L 1409 0 
L 750 0 
L 750 794 
z
M 750 3309 
L 1409 3309 
L 1409 2516 
L 750 2516 
L 750 3309 
z
" transform="scale(0.015625)"/>
      <path id="DejaVuSans-7c" d="M 1344 4891 
L 1344 -1509 
L 813 -1509 
L 813 4891 
L 1344 4891 
z
" transform="scale(0.015625)"/>
      <path id="DejaVuSans-45" d="M 628 4666 
L 3578 4666 
L 3578 4134 
L 1259 4134 
L 1259 2753 
L 3481 2753 
L 3481 2222 
L 1259 2222 
L 1259 531 
L 3634 531 
L 3634 0 
L 628 0 
L 628 4666 
z
" transform="scale(0.015625)"/>
      <path id="DejaVuSans-64" d="M 2906 2969 
L 2906 4863 
L 3481 4863 
L 3481 0 
L 2906 0 
L 2906 525 
Q 2725 213 2448 61 
Q 2172 -91 1784 -91 
Q 1150 -91 751 415 
Q 353 922 353 1747 
Q 353 2572 751 3078 
Q 1150 3584 1784 3584 
Q 2172 3584 2448 3432 
Q 2725 3281 2906 2969 
z
M 947 1747 
Q 947 1113 1208 752 
Q 1469 391 1925 391 
Q 2381 391 2643 752 
Q 2906 1113 2906 1747 
Q 2906 2381 2643 2742 
Q 2381 3103 1925 3103 
Q 1469 3103 1208 2742 
Q 947 2381 947 1747 
z
" transform="scale(0.015625)"/>
      <path id="DejaVuSans-70" d="M 1159 525 
L 1159 -1331 
L 581 -1331 
L 581 3500 
L 1159 3500 
L 1159 2969 
Q 1341 3281 1617 3432 
Q 1894 3584 2278 3584 
Q 2916 3584 3314 3078 
Q 3713 2572 3713 1747 
Q 3713 922 3314 415 
Q 2916 -91 2278 -91 
Q 1894 -91 1617 61 
Q 1341 213 1159 525 
z
M 3116 1747 
Q 3116 2381 2855 2742 
Q 2594 3103 2138 3103 
Q 1681 3103 1420 2742 
Q 1159 2381 1159 1747 
Q 1159 1113 1420 752 
Q 1681 391 2138 391 
Q 2594 391 2855 752 
Q 3116 1113 3116 1747 
z
" transform="scale(0.015625)"/>
      <path id="DejaVuSans-43" d="M 4122 4306 
L 4122 3641 
Q 3803 3938 3442 4084 
Q 3081 4231 2675 4231 
Q 1875 4231 1450 3742 
Q 1025 3253 1025 2328 
Q 1025 1406 1450 917 
Q 1875 428 2675 428 
Q 3081 428 3442 575 
Q 3803 722 4122 1019 
L 4122 359 
Q 3791 134 3420 21 
Q 3050 -91 2638 -91 
Q 1578 -91 968 557 
Q 359 1206 359 2328 
Q 359 3453 968 4101 
Q 1578 4750 2638 4750 
Q 3056 4750 3426 4639 
Q 3797 4528 4122 4306 
z
" transform="scale(0.015625)"/>
      <path id="DejaVuSans-62" d="M 3116 1747 
Q 3116 2381 2855 2742 
Q 2594 3103 2138 3103 
Q 1681 3103 1420 2742 
Q 1159 2381 1159 1747 
Q 1159 1113 1420 752 
Q 1681 391 2138 391 
Q 2594 391 2855 752 
Q 3116 1113 3116 1747 
z
M 1159 2969 
Q 1341 3281 1617 3432 
Q 1894 3584 2278 3584 
Q 2916 3584 3314 3078 
Q 3713 2572 3713 1747 
Q 3713 922 3314 415 
Q 2916 -91 2278 -91 
Q 1894 -91 1617 61 
Q 1341 213 1159 525 
L 1159 0 
L 581 0 
L 581 4863 
L 1159 4863 
L 1159 2969 
z
" transform="scale(0.015625)"/>
     </defs>
     <use xlink:href="#DejaVuSans-54"/>
     <use xlink:href="#DejaVuSans-65" transform="translate(44.083984 0)"/>
     <use xlink:href="#DejaVuSans-73" transform="translate(105.607422 0)"/>
     <use xlink:href="#DejaVuSans-74" transform="translate(157.707031 0)"/>
     <use xlink:href="#DejaVuSans-3a" transform="translate(196.916016 0)"/>
     <use xlink:href="#DejaVuSans-20" transform="translate(230.607422 0)"/>
     <use xlink:href="#DejaVuSans-73" transform="translate(262.394531 0)"/>
     <use xlink:href="#DejaVuSans-74" transform="translate(314.494141 0)"/>
     <use xlink:href="#DejaVuSans-72" transform="translate(353.703125 0)"/>
     <use xlink:href="#DejaVuSans-65" transform="translate(392.566406 0)"/>
     <use xlink:href="#DejaVuSans-73" transform="translate(454.089844 0)"/>
     <use xlink:href="#DejaVuSans-73" transform="translate(506.189453 0)"/>
     <use xlink:href="#DejaVuSans-20" transform="translate(558.289062 0)"/>
     <use xlink:href="#DejaVuSans-7c" transform="translate(590.076172 0)"/>
     <use xlink:href="#DejaVuSans-20" transform="translate(623.767578 0)"/>
     <use xlink:href="#DejaVuSans-45" transform="translate(655.554688 0)"/>
     <use xlink:href="#DejaVuSans-6e" transform="translate(718.738281 0)"/>
     <use xlink:href="#DejaVuSans-64" transform="translate(782.117188 0)"/>
     <use xlink:href="#DejaVuSans-70" transform="translate(845.59375 0)"/>
     <use xlink:href="#DejaVuSans-6f" transform="translate(909.070312 0)"/>
     <use xlink:href="#DejaVuSans-69" transform="translate(970.251953 0)"/>
     <use xlink:href="#DejaVuSans-6e" transform="translate(998.035156 0)"/>
     <use xlink:href="#DejaVuSans-74" transform="translate(1061.414062 0)"/>
     <use xlink:href="#DejaVuSans-3a" transform="translate(1100.623047 0)"/>
     <use xlink:href="#DejaVuSans-20" transform="translate(1134.314453 0)"/>
     <use xlink:href="#DejaVuSans-43" transform="translate(1166.101562 0)"/>
     <use xlink:href="#DejaVuSans-6f" transform="translate(1235.925781 0)"/>
     <use xlink:href="#DejaVuSans-6d" transform="translate(1297.107422 0)"/>
     <use xlink:href="#DejaVuSans-62" transform="translate(1394.519531 0)"/>
     <use xlink:href="#DejaVuSans-69" transform="translate(1457.996094 0)"/>
     <use xlink:href="#DejaVuSans-6e" transform="translate(1485.779297 0)"/>
     <use xlink:href="#DejaVuSans-65" transform="translate(1549.158203 0)"/>
     <use xlink:href="#DejaVuSans-64" transform="translate(1610.681641 0)"/>
    </g>
   </g>
   <g id="legend_1">
    <g id="patch_7">
     <path d="M 57.137685 93.890375 
L 190.481435 93.890375 
Q 192.481435 93.890375 192.481435 91.890375 
L 192.481435 48.856 
Q 192.481435 46.856 190.481435 46.856 
L 57.137685 46.856 
Q 55.137685 46.856 55.137685 48.856 
L 55.137685 91.890375 
Q 55.137685 93.890375 57.137685 93.890375 
z
" style="fill: #ffffff; opacity: 0.8; stroke: #cccccc; stroke-linejoin: miter"/>
    </g>
    <g id="line2d_55">
     <path d="M 59.137685 54.954437 
L 69.137685 54.954437 
L 79.137685 54.954437 
" style="fill: none; stroke: #1f77b4; stroke-width: 1.5; stroke-linecap: square"/>
    </g>
    <g id="text_15">
     <!-- Single Large Results -->
     <g transform="translate(87.137685 58.454437) scale(0.1 -0.1)">
      <defs>
       <path id="DejaVuSans-53" d="M 3425 4513 
L 3425 3897 
Q 3066 4069 2747 4153 
Q 2428 4238 2131 4238 
Q 1616 4238 1336 4038 
Q 1056 3838 1056 3469 
Q 1056 3159 1242 3001 
Q 1428 2844 1947 2747 
L 2328 2669 
Q 3034 2534 3370 2195 
Q 3706 1856 3706 1288 
Q 3706 609 3251 259 
Q 2797 -91 1919 -91 
Q 1588 -91 1214 -16 
Q 841 59 441 206 
L 441 856 
Q 825 641 1194 531 
Q 1563 422 1919 422 
Q 2459 422 2753 634 
Q 3047 847 3047 1241 
Q 3047 1584 2836 1778 
Q 2625 1972 2144 2069 
L 1759 2144 
Q 1053 2284 737 2584 
Q 422 2884 422 3419 
Q 422 4038 858 4394 
Q 1294 4750 2059 4750 
Q 2388 4750 2728 4690 
Q 3069 4631 3425 4513 
z
" transform="scale(0.015625)"/>
       <path id="DejaVuSans-67" d="M 2906 1791 
Q 2906 2416 2648 2759 
Q 2391 3103 1925 3103 
Q 1463 3103 1205 2759 
Q 947 2416 947 1791 
Q 947 1169 1205 825 
Q 1463 481 1925 481 
Q 2391 481 2648 825 
Q 2906 1169 2906 1791 
z
M 3481 434 
Q 3481 -459 3084 -895 
Q 2688 -1331 1869 -1331 
Q 1566 -1331 1297 -1286 
Q 1028 -1241 775 -1147 
L 775 -588 
Q 1028 -725 1275 -790 
Q 1522 -856 1778 -856 
Q 2344 -856 2625 -561 
Q 2906 -266 2906 331 
L 2906 616 
Q 2728 306 2450 153 
Q 2172 0 1784 0 
Q 1141 0 747 490 
Q 353 981 353 1791 
Q 353 2603 747 3093 
Q 1141 3584 1784 3584 
Q 2172 3584 2450 3431 
Q 2728 3278 2906 2969 
L 2906 3500 
L 3481 3500 
L 3481 434 
z
" transform="scale(0.015625)"/>
       <path id="DejaVuSans-4c" d="M 628 4666 
L 1259 4666 
L 1259 531 
L 3531 531 
L 3531 0 
L 628 0 
L 628 4666 
z
" transform="scale(0.015625)"/>
      </defs>
      <use xlink:href="#DejaVuSans-53"/>
      <use xlink:href="#DejaVuSans-69" transform="translate(63.476562 0)"/>
      <use xlink:href="#DejaVuSans-6e" transform="translate(91.259766 0)"/>
      <use xlink:href="#DejaVuSans-67" transform="translate(154.638672 0)"/>
      <use xlink:href="#DejaVuSans-6c" transform="translate(218.115234 0)"/>
      <use xlink:href="#DejaVuSans-65" transform="translate(245.898438 0)"/>
      <use xlink:href="#DejaVuSans-20" transform="translate(307.421875 0)"/>
      <use xlink:href="#DejaVuSans-4c" transform="translate(339.208984 0)"/>
      <use xlink:href="#DejaVuSans-61" transform="translate(394.921875 0)"/>
      <use xlink:href="#DejaVuSans-72" transform="translate(456.201172 0)"/>
      <use xlink:href="#DejaVuSans-67" transform="translate(495.564453 0)"/>
      <use xlink:href="#DejaVuSans-65" transform="translate(559.041016 0)"/>
      <use xlink:href="#DejaVuSans-20" transform="translate(620.564453 0)"/>
      <use xlink:href="#DejaVuSans-52" transform="translate(652.351562 0)"/>
      <use xlink:href="#DejaVuSans-65" transform="translate(717.333984 0)"/>
      <use xlink:href="#DejaVuSans-73" transform="translate(778.857422 0)"/>
      <use xlink:href="#DejaVuSans-75" transform="translate(830.957031 0)"/>
      <use xlink:href="#DejaVuSans-6c" transform="translate(894.335938 0)"/>
      <use xlink:href="#DejaVuSans-74" transform="translate(922.119141 0)"/>
      <use xlink:href="#DejaVuSans-73" transform="translate(961.328125 0)"/>
     </g>
    </g>
    <g id="line2d_56">
     <path d="M 59.137685 69.632562 
L 69.137685 69.632562 
L 79.137685 69.632562 
" style="fill: none; stroke: #ff7f0e; stroke-width: 1.5; stroke-linecap: square"/>
    </g>
    <g id="text_16">
     <!-- Single Small Results -->
     <g transform="translate(87.137685 73.132562) scale(0.1 -0.1)">
      <use xlink:href="#DejaVuSans-53"/>
      <use xlink:href="#DejaVuSans-69" transform="translate(63.476562 0)"/>
      <use xlink:href="#DejaVuSans-6e" transform="translate(91.259766 0)"/>
      <use xlink:href="#DejaVuSans-67" transform="translate(154.638672 0)"/>
      <use xlink:href="#DejaVuSans-6c" transform="translate(218.115234 0)"/>
      <use xlink:href="#DejaVuSans-65" transform="translate(245.898438 0)"/>
      <use xlink:href="#DejaVuSans-20" transform="translate(307.421875 0)"/>
      <use xlink:href="#DejaVuSans-53" transform="translate(339.208984 0)"/>
      <use xlink:href="#DejaVuSans-6d" transform="translate(402.685547 0)"/>
      <use xlink:href="#DejaVuSans-61" transform="translate(500.097656 0)"/>
      <use xlink:href="#DejaVuSans-6c" transform="translate(561.376953 0)"/>
      <use xlink:href="#DejaVuSans-6c" transform="translate(589.160156 0)"/>
      <use xlink:href="#DejaVuSans-20" transform="translate(616.943359 0)"/>
      <use xlink:href="#DejaVuSans-52" transform="translate(648.730469 0)"/>
      <use xlink:href="#DejaVuSans-65" transform="translate(713.712891 0)"/>
      <use xlink:href="#DejaVuSans-73" transform="translate(775.236328 0)"/>
      <use xlink:href="#DejaVuSans-75" transform="translate(827.335938 0)"/>
      <use xlink:href="#DejaVuSans-6c" transform="translate(890.714844 0)"/>
      <use xlink:href="#DejaVuSans-74" transform="translate(918.498047 0)"/>
      <use xlink:href="#DejaVuSans-73" transform="translate(957.707031 0)"/>
     </g>
    </g>
    <g id="line2d_57">
     <path d="M 59.137685 84.310687 
L 69.137685 84.310687 
L 79.137685 84.310687 
" style="fill: none; stroke: #2ca02c; stroke-width: 1.5; stroke-linecap: square"/>
    </g>
    <g id="text_17">
     <!-- Multi Results -->
     <g transform="translate(87.137685 87.810687) scale(0.1 -0.1)">
      <defs>
       <path id="DejaVuSans-4d" d="M 628 4666 
L 1569 4666 
L 2759 1491 
L 3956 4666 
L 4897 4666 
L 4897 0 
L 4281 0 
L 4281 4097 
L 3078 897 
L 2444 897 
L 1241 4097 
L 1241 0 
L 628 0 
L 628 4666 
z
" transform="scale(0.015625)"/>
      </defs>
      <use xlink:href="#DejaVuSans-4d"/>
      <use xlink:href="#DejaVuSans-75" transform="translate(86.279297 0)"/>
      <use xlink:href="#DejaVuSans-6c" transform="translate(149.658203 0)"/>
      <use xlink:href="#DejaVuSans-74" transform="translate(177.441406 0)"/>
      <use xlink:href="#DejaVuSans-69" transform="translate(216.650391 0)"/>
      <use xlink:href="#DejaVuSans-20" transform="translate(244.433594 0)"/>
      <use xlink:href="#DejaVuSans-52" transform="translate(276.220703 0)"/>
      <use xlink:href="#DejaVuSans-65" transform="translate(341.203125 0)"/>
      <use xlink:href="#DejaVuSans-73" transform="translate(402.726562 0)"/>
      <use xlink:href="#DejaVuSans-75" transform="translate(454.826172 0)"/>
      <use xlink:href="#DejaVuSans-6c" transform="translate(518.205078 0)"/>
      <use xlink:href="#DejaVuSans-74" transform="translate(545.988281 0)"/>
      <use xlink:href="#DejaVuSans-73" transform="translate(585.197266 0)"/>
     </g>
    </g>
   </g>
  </g>
 </g>
 <defs>
  <clipPath id="p5640b46ec0">
   <rect x="50.137685" y="41.856" width="803.062315" height="348.184"/>
  </clipPath>
 </defs>
</svg>
