<?xml version="1.0" encoding="utf-8" standalone="no"?>
<!DOCTYPE svg PUBLIC "-//W3C//DTD SVG 1.1//EN"
  "http://www.w3.org/Graphics/SVG/1.1/DTD/svg11.dtd">
<svg xmlns:xlink="http://www.w3.org/1999/xlink" width="1008pt" height="288pt" viewBox="0 0 1008 288" xmlns="http://www.w3.org/2000/svg" version="1.1">
 <metadata>
  <rdf:RDF xmlns:dc="http://purl.org/dc/elements/1.1/" xmlns:cc="http://creativecommons.org/ns#" xmlns:rdf="http://www.w3.org/1999/02/22-rdf-syntax-ns#">
   <cc:Work>
    <dc:type rdf:resource="http://purl.org/dc/dcmitype/StillImage"/>
    <dc:date>2025-05-31T22:12:42.416463</dc:date>
    <dc:format>image/svg+xml</dc:format>
    <dc:creator>
     <cc:Agent>
      <dc:title>Matplotlib v3.10.1, https://matplotlib.org/</dc:title>
     </cc:Agent>
    </dc:creator>
   </cc:Work>
  </rdf:RDF>
 </metadata>
 <defs>
  <style type="text/css">*{stroke-linejoin: round; stroke-linecap: butt}</style>
 </defs>
 <g id="figure_1">
  <g id="patch_1">
   <path d="M 0 288 
L 1008 288 
L 1008 0 
L 0 0 
z
" style="fill: #ffffff"/>
  </g>
  <g id="axes_1">
   <g id="patch_2">
    <path d="M 50.137685 246.04 
L 997.2 246.04 
L 997.2 26.88 
L 50.137685 26.88 
z
" style="fill: #ffffff"/>
   </g>
   <g id="matplotlib.axis_1">
    <g id="xtick_1">
     <g id="line2d_1">
      <defs>
       <path id="m69d8ec466d" d="M 0 0 
L 0 3.5 
" style="stroke: #000000; stroke-width: 0.8"/>
      </defs>
      <g>
       <use xlink:href="#m69d8ec466d" x="93.185972" y="246.04" style="stroke: #000000; stroke-width: 0.8"/>
      </g>
     </g>
     <g id="text_1">
      <!-- 0 -->
      <g transform="translate(90.004722 260.638438) scale(0.1 -0.1)">
       <defs>
        <path id="DejaVuSans-30" d="M 2034 4250 
Q 1547 4250 1301 3770 
Q 1056 3291 1056 2328 
Q 1056 1369 1301 889 
Q 1547 409 2034 409 
Q 2525 409 2770 889 
Q 3016 1369 3016 2328 
Q 3016 3291 2770 3770 
Q 2525 4250 2034 4250 
z
M 2034 4750 
Q 2819 4750 3233 4129 
Q 3647 3509 3647 2328 
Q 3647 1150 3233 529 
Q 2819 -91 2034 -91 
Q 1250 -91 836 529 
Q 422 1150 422 2328 
Q 422 3509 836 4129 
Q 1250 4750 2034 4750 
z
" transform="scale(0.015625)"/>
       </defs>
       <use xlink:href="#DejaVuSans-30"/>
      </g>
     </g>
    </g>
    <g id="xtick_2">
     <g id="line2d_2">
      <g>
       <use xlink:href="#m69d8ec466d" x="212.764547" y="246.04" style="stroke: #000000; stroke-width: 0.8"/>
      </g>
     </g>
     <g id="text_2">
      <!-- 50 -->
      <g transform="translate(206.402047 260.638438) scale(0.1 -0.1)">
       <defs>
        <path id="DejaVuSans-35" d="M 691 4666 
L 3169 4666 
L 3169 4134 
L 1269 4134 
L 1269 2991 
Q 1406 3038 1543 3061 
Q 1681 3084 1819 3084 
Q 2600 3084 3056 2656 
Q 3513 2228 3513 1497 
Q 3513 744 3044 326 
Q 2575 -91 1722 -91 
Q 1428 -91 1123 -41 
Q 819 9 494 109 
L 494 744 
Q 775 591 1075 516 
Q 1375 441 1709 441 
Q 2250 441 2565 725 
Q 2881 1009 2881 1497 
Q 2881 1984 2565 2268 
Q 2250 2553 1709 2553 
Q 1456 2553 1204 2497 
Q 953 2441 691 2322 
L 691 4666 
z
" transform="scale(0.015625)"/>
       </defs>
       <use xlink:href="#DejaVuSans-35"/>
       <use xlink:href="#DejaVuSans-30" transform="translate(63.623047 0)"/>
      </g>
     </g>
    </g>
    <g id="xtick_3">
     <g id="line2d_3">
      <g>
       <use xlink:href="#m69d8ec466d" x="332.343122" y="246.04" style="stroke: #000000; stroke-width: 0.8"/>
      </g>
     </g>
     <g id="text_3">
      <!-- 100 -->
      <g transform="translate(322.799372 260.638438) scale(0.1 -0.1)">
       <defs>
        <path id="DejaVuSans-31" d="M 794 531 
L 1825 531 
L 1825 4091 
L 703 3866 
L 703 4441 
L 1819 4666 
L 2450 4666 
L 2450 531 
L 3481 531 
L 3481 0 
L 794 0 
L 794 531 
z
" transform="scale(0.015625)"/>
       </defs>
       <use xlink:href="#DejaVuSans-31"/>
       <use xlink:href="#DejaVuSans-30" transform="translate(63.623047 0)"/>
       <use xlink:href="#DejaVuSans-30" transform="translate(127.246094 0)"/>
      </g>
     </g>
    </g>
    <g id="xtick_4">
     <g id="line2d_4">
      <g>
       <use xlink:href="#m69d8ec466d" x="451.921697" y="246.04" style="stroke: #000000; stroke-width: 0.8"/>
      </g>
     </g>
     <g id="text_4">
      <!-- 150 -->
      <g transform="translate(442.377947 260.638438) scale(0.1 -0.1)">
       <use xlink:href="#DejaVuSans-31"/>
       <use xlink:href="#DejaVuSans-35" transform="translate(63.623047 0)"/>
       <use xlink:href="#DejaVuSans-30" transform="translate(127.246094 0)"/>
      </g>
     </g>
    </g>
    <g id="xtick_5">
     <g id="line2d_5">
      <g>
       <use xlink:href="#m69d8ec466d" x="571.500272" y="246.04" style="stroke: #000000; stroke-width: 0.8"/>
      </g>
     </g>
     <g id="text_5">
      <!-- 200 -->
      <g transform="translate(561.956522 260.638438) scale(0.1 -0.1)">
       <defs>
        <path id="DejaVuSans-32" d="M 1228 531 
L 3431 531 
L 3431 0 
L 469 0 
L 469 531 
Q 828 903 1448 1529 
Q 2069 2156 2228 2338 
Q 2531 2678 2651 2914 
Q 2772 3150 2772 3378 
Q 2772 3750 2511 3984 
Q 2250 4219 1831 4219 
Q 1534 4219 1204 4116 
Q 875 4013 500 3803 
L 500 4441 
Q 881 4594 1212 4672 
Q 1544 4750 1819 4750 
Q 2544 4750 2975 4387 
Q 3406 4025 3406 3419 
Q 3406 3131 3298 2873 
Q 3191 2616 2906 2266 
Q 2828 2175 2409 1742 
Q 1991 1309 1228 531 
z
" transform="scale(0.015625)"/>
       </defs>
       <use xlink:href="#DejaVuSans-32"/>
       <use xlink:href="#DejaVuSans-30" transform="translate(63.623047 0)"/>
       <use xlink:href="#DejaVuSans-30" transform="translate(127.246094 0)"/>
      </g>
     </g>
    </g>
    <g id="xtick_6">
     <g id="line2d_6">
      <g>
       <use xlink:href="#m69d8ec466d" x="691.078848" y="246.04" style="stroke: #000000; stroke-width: 0.8"/>
      </g>
     </g>
     <g id="text_6">
      <!-- 250 -->
      <g transform="translate(681.535098 260.638438) scale(0.1 -0.1)">
       <use xlink:href="#DejaVuSans-32"/>
       <use xlink:href="#DejaVuSans-35" transform="translate(63.623047 0)"/>
       <use xlink:href="#DejaVuSans-30" transform="translate(127.246094 0)"/>
      </g>
     </g>
    </g>
    <g id="xtick_7">
     <g id="line2d_7">
      <g>
       <use xlink:href="#m69d8ec466d" x="810.657423" y="246.04" style="stroke: #000000; stroke-width: 0.8"/>
      </g>
     </g>
     <g id="text_7">
      <!-- 300 -->
      <g transform="translate(801.113673 260.638438) scale(0.1 -0.1)">
       <defs>
        <path id="DejaVuSans-33" d="M 2597 2516 
Q 3050 2419 3304 2112 
Q 3559 1806 3559 1356 
Q 3559 666 3084 287 
Q 2609 -91 1734 -91 
Q 1441 -91 1130 -33 
Q 819 25 488 141 
L 488 750 
Q 750 597 1062 519 
Q 1375 441 1716 441 
Q 2309 441 2620 675 
Q 2931 909 2931 1356 
Q 2931 1769 2642 2001 
Q 2353 2234 1838 2234 
L 1294 2234 
L 1294 2753 
L 1863 2753 
Q 2328 2753 2575 2939 
Q 2822 3125 2822 3475 
Q 2822 3834 2567 4026 
Q 2313 4219 1838 4219 
Q 1578 4219 1281 4162 
Q 984 4106 628 3988 
L 628 4550 
Q 988 4650 1302 4700 
Q 1616 4750 1894 4750 
Q 2613 4750 3031 4423 
Q 3450 4097 3450 3541 
Q 3450 3153 3228 2886 
Q 3006 2619 2597 2516 
z
" transform="scale(0.015625)"/>
       </defs>
       <use xlink:href="#DejaVuSans-33"/>
       <use xlink:href="#DejaVuSans-30" transform="translate(63.623047 0)"/>
       <use xlink:href="#DejaVuSans-30" transform="translate(127.246094 0)"/>
      </g>
     </g>
    </g>
    <g id="xtick_8">
     <g id="line2d_8">
      <g>
       <use xlink:href="#m69d8ec466d" x="930.235998" y="246.04" style="stroke: #000000; stroke-width: 0.8"/>
      </g>
     </g>
     <g id="text_8">
      <!-- 350 -->
      <g transform="translate(920.692248 260.638438) scale(0.1 -0.1)">
       <use xlink:href="#DejaVuSans-33"/>
       <use xlink:href="#DejaVuSans-35" transform="translate(63.623047 0)"/>
       <use xlink:href="#DejaVuSans-30" transform="translate(127.246094 0)"/>
      </g>
     </g>
    </g>
    <g id="text_9">
     <!-- Timestamp (Seconds) -->
     <g transform="translate(469.264155 274.316562) scale(0.1 -0.1)">
      <defs>
       <path id="DejaVuSans-54" d="M -19 4666 
L 3928 4666 
L 3928 4134 
L 2272 4134 
L 2272 0 
L 1638 0 
L 1638 4134 
L -19 4134 
L -19 4666 
z
" transform="scale(0.015625)"/>
       <path id="DejaVuSans-69" d="M 603 3500 
L 1178 3500 
L 1178 0 
L 603 0 
L 603 3500 
z
M 603 4863 
L 1178 4863 
L 1178 4134 
L 603 4134 
L 603 4863 
z
" transform="scale(0.015625)"/>
       <path id="DejaVuSans-6d" d="M 3328 2828 
Q 3544 3216 3844 3400 
Q 4144 3584 4550 3584 
Q 5097 3584 5394 3201 
Q 5691 2819 5691 2113 
L 5691 0 
L 5113 0 
L 5113 2094 
Q 5113 2597 4934 2840 
Q 4756 3084 4391 3084 
Q 3944 3084 3684 2787 
Q 3425 2491 3425 1978 
L 3425 0 
L 2847 0 
L 2847 2094 
Q 2847 2600 2669 2842 
Q 2491 3084 2119 3084 
Q 1678 3084 1418 2786 
Q 1159 2488 1159 1978 
L 1159 0 
L 581 0 
L 581 3500 
L 1159 3500 
L 1159 2956 
Q 1356 3278 1631 3431 
Q 1906 3584 2284 3584 
Q 2666 3584 2933 3390 
Q 3200 3197 3328 2828 
z
" transform="scale(0.015625)"/>
       <path id="DejaVuSans-65" d="M 3597 1894 
L 3597 1613 
L 953 1613 
Q 991 1019 1311 708 
Q 1631 397 2203 397 
Q 2534 397 2845 478 
Q 3156 559 3463 722 
L 3463 178 
Q 3153 47 2828 -22 
Q 2503 -91 2169 -91 
Q 1331 -91 842 396 
Q 353 884 353 1716 
Q 353 2575 817 3079 
Q 1281 3584 2069 3584 
Q 2775 3584 3186 3129 
Q 3597 2675 3597 1894 
z
M 3022 2063 
Q 3016 2534 2758 2815 
Q 2500 3097 2075 3097 
Q 1594 3097 1305 2825 
Q 1016 2553 972 2059 
L 3022 2063 
z
" transform="scale(0.015625)"/>
       <path id="DejaVuSans-73" d="M 2834 3397 
L 2834 2853 
Q 2591 2978 2328 3040 
Q 2066 3103 1784 3103 
Q 1356 3103 1142 2972 
Q 928 2841 928 2578 
Q 928 2378 1081 2264 
Q 1234 2150 1697 2047 
L 1894 2003 
Q 2506 1872 2764 1633 
Q 3022 1394 3022 966 
Q 3022 478 2636 193 
Q 2250 -91 1575 -91 
Q 1294 -91 989 -36 
Q 684 19 347 128 
L 347 722 
Q 666 556 975 473 
Q 1284 391 1588 391 
Q 1994 391 2212 530 
Q 2431 669 2431 922 
Q 2431 1156 2273 1281 
Q 2116 1406 1581 1522 
L 1381 1569 
Q 847 1681 609 1914 
Q 372 2147 372 2553 
Q 372 3047 722 3315 
Q 1072 3584 1716 3584 
Q 2034 3584 2315 3537 
Q 2597 3491 2834 3397 
z
" transform="scale(0.015625)"/>
       <path id="DejaVuSans-74" d="M 1172 4494 
L 1172 3500 
L 2356 3500 
L 2356 3053 
L 1172 3053 
L 1172 1153 
Q 1172 725 1289 603 
Q 1406 481 1766 481 
L 2356 481 
L 2356 0 
L 1766 0 
Q 1100 0 847 248 
Q 594 497 594 1153 
L 594 3053 
L 172 3053 
L 172 3500 
L 594 3500 
L 594 4494 
L 1172 4494 
z
" transform="scale(0.015625)"/>
       <path id="DejaVuSans-61" d="M 2194 1759 
Q 1497 1759 1228 1600 
Q 959 1441 959 1056 
Q 959 750 1161 570 
Q 1363 391 1709 391 
Q 2188 391 2477 730 
Q 2766 1069 2766 1631 
L 2766 1759 
L 2194 1759 
z
M 3341 1997 
L 3341 0 
L 2766 0 
L 2766 531 
Q 2569 213 2275 61 
Q 1981 -91 1556 -91 
Q 1019 -91 701 211 
Q 384 513 384 1019 
Q 384 1609 779 1909 
Q 1175 2209 1959 2209 
L 2766 2209 
L 2766 2266 
Q 2766 2663 2505 2880 
Q 2244 3097 1772 3097 
Q 1472 3097 1187 3025 
Q 903 2953 641 2809 
L 641 3341 
Q 956 3463 1253 3523 
Q 1550 3584 1831 3584 
Q 2591 3584 2966 3190 
Q 3341 2797 3341 1997 
z
" transform="scale(0.015625)"/>
       <path id="DejaVuSans-70" d="M 1159 525 
L 1159 -1331 
L 581 -1331 
L 581 3500 
L 1159 3500 
L 1159 2969 
Q 1341 3281 1617 3432 
Q 1894 3584 2278 3584 
Q 2916 3584 3314 3078 
Q 3713 2572 3713 1747 
Q 3713 922 3314 415 
Q 2916 -91 2278 -91 
Q 1894 -91 1617 61 
Q 1341 213 1159 525 
z
M 3116 1747 
Q 3116 2381 2855 2742 
Q 2594 3103 2138 3103 
Q 1681 3103 1420 2742 
Q 1159 2381 1159 1747 
Q 1159 1113 1420 752 
Q 1681 391 2138 391 
Q 2594 391 2855 752 
Q 3116 1113 3116 1747 
z
" transform="scale(0.015625)"/>
       <path id="DejaVuSans-20" transform="scale(0.015625)"/>
       <path id="DejaVuSans-28" d="M 1984 4856 
Q 1566 4138 1362 3434 
Q 1159 2731 1159 2009 
Q 1159 1288 1364 580 
Q 1569 -128 1984 -844 
L 1484 -844 
Q 1016 -109 783 600 
Q 550 1309 550 2009 
Q 550 2706 781 3412 
Q 1013 4119 1484 4856 
L 1984 4856 
z
" transform="scale(0.015625)"/>
       <path id="DejaVuSans-53" d="M 3425 4513 
L 3425 3897 
Q 3066 4069 2747 4153 
Q 2428 4238 2131 4238 
Q 1616 4238 1336 4038 
Q 1056 3838 1056 3469 
Q 1056 3159 1242 3001 
Q 1428 2844 1947 2747 
L 2328 2669 
Q 3034 2534 3370 2195 
Q 3706 1856 3706 1288 
Q 3706 609 3251 259 
Q 2797 -91 1919 -91 
Q 1588 -91 1214 -16 
Q 841 59 441 206 
L 441 856 
Q 825 641 1194 531 
Q 1563 422 1919 422 
Q 2459 422 2753 634 
Q 3047 847 3047 1241 
Q 3047 1584 2836 1778 
Q 2625 1972 2144 2069 
L 1759 2144 
Q 1053 2284 737 2584 
Q 422 2884 422 3419 
Q 422 4038 858 4394 
Q 1294 4750 2059 4750 
Q 2388 4750 2728 4690 
Q 3069 4631 3425 4513 
z
" transform="scale(0.015625)"/>
       <path id="DejaVuSans-63" d="M 3122 3366 
L 3122 2828 
Q 2878 2963 2633 3030 
Q 2388 3097 2138 3097 
Q 1578 3097 1268 2742 
Q 959 2388 959 1747 
Q 959 1106 1268 751 
Q 1578 397 2138 397 
Q 2388 397 2633 464 
Q 2878 531 3122 666 
L 3122 134 
Q 2881 22 2623 -34 
Q 2366 -91 2075 -91 
Q 1284 -91 818 406 
Q 353 903 353 1747 
Q 353 2603 823 3093 
Q 1294 3584 2113 3584 
Q 2378 3584 2631 3529 
Q 2884 3475 3122 3366 
z
" transform="scale(0.015625)"/>
       <path id="DejaVuSans-6f" d="M 1959 3097 
Q 1497 3097 1228 2736 
Q 959 2375 959 1747 
Q 959 1119 1226 758 
Q 1494 397 1959 397 
Q 2419 397 2687 759 
Q 2956 1122 2956 1747 
Q 2956 2369 2687 2733 
Q 2419 3097 1959 3097 
z
M 1959 3584 
Q 2709 3584 3137 3096 
Q 3566 2609 3566 1747 
Q 3566 888 3137 398 
Q 2709 -91 1959 -91 
Q 1206 -91 779 398 
Q 353 888 353 1747 
Q 353 2609 779 3096 
Q 1206 3584 1959 3584 
z
" transform="scale(0.015625)"/>
       <path id="DejaVuSans-6e" d="M 3513 2113 
L 3513 0 
L 2938 0 
L 2938 2094 
Q 2938 2591 2744 2837 
Q 2550 3084 2163 3084 
Q 1697 3084 1428 2787 
Q 1159 2491 1159 1978 
L 1159 0 
L 581 0 
L 581 3500 
L 1159 3500 
L 1159 2956 
Q 1366 3272 1645 3428 
Q 1925 3584 2291 3584 
Q 2894 3584 3203 3211 
Q 3513 2838 3513 2113 
z
" transform="scale(0.015625)"/>
       <path id="DejaVuSans-64" d="M 2906 2969 
L 2906 4863 
L 3481 4863 
L 3481 0 
L 2906 0 
L 2906 525 
Q 2725 213 2448 61 
Q 2172 -91 1784 -91 
Q 1150 -91 751 415 
Q 353 922 353 1747 
Q 353 2572 751 3078 
Q 1150 3584 1784 3584 
Q 2172 3584 2448 3432 
Q 2725 3281 2906 2969 
z
M 947 1747 
Q 947 1113 1208 752 
Q 1469 391 1925 391 
Q 2381 391 2643 752 
Q 2906 1113 2906 1747 
Q 2906 2381 2643 2742 
Q 2381 3103 1925 3103 
Q 1469 3103 1208 2742 
Q 947 2381 947 1747 
z
" transform="scale(0.015625)"/>
       <path id="DejaVuSans-29" d="M 513 4856 
L 1013 4856 
Q 1481 4119 1714 3412 
Q 1947 2706 1947 2009 
Q 1947 1309 1714 600 
Q 1481 -109 1013 -844 
L 513 -844 
Q 928 -128 1133 580 
Q 1338 1288 1338 2009 
Q 1338 2731 1133 3434 
Q 928 4138 513 4856 
z
" transform="scale(0.015625)"/>
      </defs>
      <use xlink:href="#DejaVuSans-54"/>
      <use xlink:href="#DejaVuSans-69" transform="translate(57.958984 0)"/>
      <use xlink:href="#DejaVuSans-6d" transform="translate(85.742188 0)"/>
      <use xlink:href="#DejaVuSans-65" transform="translate(183.154297 0)"/>
      <use xlink:href="#DejaVuSans-73" transform="translate(244.677734 0)"/>
      <use xlink:href="#DejaVuSans-74" transform="translate(296.777344 0)"/>
      <use xlink:href="#DejaVuSans-61" transform="translate(335.986328 0)"/>
      <use xlink:href="#DejaVuSans-6d" transform="translate(397.265625 0)"/>
      <use xlink:href="#DejaVuSans-70" transform="translate(494.677734 0)"/>
      <use xlink:href="#DejaVuSans-20" transform="translate(558.154297 0)"/>
      <use xlink:href="#DejaVuSans-28" transform="translate(589.941406 0)"/>
      <use xlink:href="#DejaVuSans-53" transform="translate(628.955078 0)"/>
      <use xlink:href="#DejaVuSans-65" transform="translate(692.431641 0)"/>
      <use xlink:href="#DejaVuSans-63" transform="translate(753.955078 0)"/>
      <use xlink:href="#DejaVuSans-6f" transform="translate(808.935547 0)"/>
      <use xlink:href="#DejaVuSans-6e" transform="translate(870.117188 0)"/>
      <use xlink:href="#DejaVuSans-64" transform="translate(933.496094 0)"/>
      <use xlink:href="#DejaVuSans-73" transform="translate(996.972656 0)"/>
      <use xlink:href="#DejaVuSans-29" transform="translate(1049.072266 0)"/>
     </g>
    </g>
   </g>
   <g id="matplotlib.axis_2">
    <g id="ytick_1">
     <g id="line2d_9">
      <defs>
       <path id="m20f9039c8b" d="M 0 0 
L -3.5 0 
" style="stroke: #000000; stroke-width: 0.8"/>
      </defs>
      <g>
       <use xlink:href="#m20f9039c8b" x="50.137685" y="214.893206" style="stroke: #000000; stroke-width: 0.8"/>
      </g>
     </g>
     <g id="text_10">
      <!-- $\mathdefault{10^{1}}$ -->
      <g transform="translate(25.537685 218.692425) scale(0.1 -0.1)">
       <use xlink:href="#DejaVuSans-31" transform="translate(0 0.684375)"/>
       <use xlink:href="#DejaVuSans-30" transform="translate(63.623047 0.684375)"/>
       <use xlink:href="#DejaVuSans-31" transform="translate(128.203125 38.965625) scale(0.7)"/>
      </g>
     </g>
    </g>
    <g id="ytick_2">
     <g id="line2d_10">
      <g>
       <use xlink:href="#m20f9039c8b" x="50.137685" y="153.633132" style="stroke: #000000; stroke-width: 0.8"/>
      </g>
     </g>
     <g id="text_11">
      <!-- $\mathdefault{10^{2}}$ -->
      <g transform="translate(25.537685 157.43235) scale(0.1 -0.1)">
       <use xlink:href="#DejaVuSans-31" transform="translate(0 0.765625)"/>
       <use xlink:href="#DejaVuSans-30" transform="translate(63.623047 0.765625)"/>
       <use xlink:href="#DejaVuSans-32" transform="translate(128.203125 39.046875) scale(0.7)"/>
      </g>
     </g>
    </g>
    <g id="ytick_3">
     <g id="line2d_11">
      <g>
       <use xlink:href="#m20f9039c8b" x="50.137685" y="92.373057" style="stroke: #000000; stroke-width: 0.8"/>
      </g>
     </g>
     <g id="text_12">
      <!-- $\mathdefault{10^{3}}$ -->
      <g transform="translate(25.537685 96.172276) scale(0.1 -0.1)">
       <use xlink:href="#DejaVuSans-31" transform="translate(0 0.765625)"/>
       <use xlink:href="#DejaVuSans-30" transform="translate(63.623047 0.765625)"/>
       <use xlink:href="#DejaVuSans-33" transform="translate(128.203125 39.046875) scale(0.7)"/>
      </g>
     </g>
    </g>
    <g id="ytick_4">
     <g id="line2d_12">
      <g>
       <use xlink:href="#m20f9039c8b" x="50.137685" y="31.112983" style="stroke: #000000; stroke-width: 0.8"/>
      </g>
     </g>
     <g id="text_13">
      <!-- $\mathdefault{10^{4}}$ -->
      <g transform="translate(25.537685 34.912202) scale(0.1 -0.1)">
       <defs>
        <path id="DejaVuSans-34" d="M 2419 4116 
L 825 1625 
L 2419 1625 
L 2419 4116 
z
M 2253 4666 
L 3047 4666 
L 3047 1625 
L 3713 1625 
L 3713 1100 
L 3047 1100 
L 3047 0 
L 2419 0 
L 2419 1100 
L 313 1100 
L 313 1709 
L 2253 4666 
z
" transform="scale(0.015625)"/>
       </defs>
       <use xlink:href="#DejaVuSans-31" transform="translate(0 0.684375)"/>
       <use xlink:href="#DejaVuSans-30" transform="translate(63.623047 0.684375)"/>
       <use xlink:href="#DejaVuSans-34" transform="translate(128.203125 38.965625) scale(0.7)"/>
      </g>
     </g>
    </g>
    <g id="ytick_5">
     <g id="line2d_13">
      <defs>
       <path id="m4025722375" d="M 0 0 
L -2 0 
" style="stroke: #000000; stroke-width: 0.6"/>
      </defs>
      <g>
       <use xlink:href="#m4025722375" x="50.137685" y="239.27104" style="stroke: #000000; stroke-width: 0.6"/>
      </g>
     </g>
    </g>
    <g id="ytick_6">
     <g id="line2d_14">
      <g>
       <use xlink:href="#m4025722375" x="50.137685" y="233.334326" style="stroke: #000000; stroke-width: 0.6"/>
      </g>
     </g>
    </g>
    <g id="ytick_7">
     <g id="line2d_15">
      <g>
       <use xlink:href="#m4025722375" x="50.137685" y="228.483677" style="stroke: #000000; stroke-width: 0.6"/>
      </g>
     </g>
    </g>
    <g id="ytick_8">
     <g id="line2d_16">
      <g>
       <use xlink:href="#m4025722375" x="50.137685" y="224.382511" style="stroke: #000000; stroke-width: 0.6"/>
      </g>
     </g>
    </g>
    <g id="ytick_9">
     <g id="line2d_17">
      <g>
       <use xlink:href="#m4025722375" x="50.137685" y="220.82992" style="stroke: #000000; stroke-width: 0.6"/>
      </g>
     </g>
    </g>
    <g id="ytick_10">
     <g id="line2d_18">
      <g>
       <use xlink:href="#m4025722375" x="50.137685" y="217.696313" style="stroke: #000000; stroke-width: 0.6"/>
      </g>
     </g>
    </g>
    <g id="ytick_11">
     <g id="line2d_19">
      <g>
       <use xlink:href="#m4025722375" x="50.137685" y="196.452086" style="stroke: #000000; stroke-width: 0.6"/>
      </g>
     </g>
    </g>
    <g id="ytick_12">
     <g id="line2d_20">
      <g>
       <use xlink:href="#m4025722375" x="50.137685" y="185.664722" style="stroke: #000000; stroke-width: 0.6"/>
      </g>
     </g>
    </g>
    <g id="ytick_13">
     <g id="line2d_21">
      <g>
       <use xlink:href="#m4025722375" x="50.137685" y="178.010966" style="stroke: #000000; stroke-width: 0.6"/>
      </g>
     </g>
    </g>
    <g id="ytick_14">
     <g id="line2d_22">
      <g>
       <use xlink:href="#m4025722375" x="50.137685" y="172.074251" style="stroke: #000000; stroke-width: 0.6"/>
      </g>
     </g>
    </g>
    <g id="ytick_15">
     <g id="line2d_23">
      <g>
       <use xlink:href="#m4025722375" x="50.137685" y="167.223602" style="stroke: #000000; stroke-width: 0.6"/>
      </g>
     </g>
    </g>
    <g id="ytick_16">
     <g id="line2d_24">
      <g>
       <use xlink:href="#m4025722375" x="50.137685" y="163.122437" style="stroke: #000000; stroke-width: 0.6"/>
      </g>
     </g>
    </g>
    <g id="ytick_17">
     <g id="line2d_25">
      <g>
       <use xlink:href="#m4025722375" x="50.137685" y="159.569846" style="stroke: #000000; stroke-width: 0.6"/>
      </g>
     </g>
    </g>
    <g id="ytick_18">
     <g id="line2d_26">
      <g>
       <use xlink:href="#m4025722375" x="50.137685" y="156.436239" style="stroke: #000000; stroke-width: 0.6"/>
      </g>
     </g>
    </g>
    <g id="ytick_19">
     <g id="line2d_27">
      <g>
       <use xlink:href="#m4025722375" x="50.137685" y="135.192012" style="stroke: #000000; stroke-width: 0.6"/>
      </g>
     </g>
    </g>
    <g id="ytick_20">
     <g id="line2d_28">
      <g>
       <use xlink:href="#m4025722375" x="50.137685" y="124.404648" style="stroke: #000000; stroke-width: 0.6"/>
      </g>
     </g>
    </g>
    <g id="ytick_21">
     <g id="line2d_29">
      <g>
       <use xlink:href="#m4025722375" x="50.137685" y="116.750892" style="stroke: #000000; stroke-width: 0.6"/>
      </g>
     </g>
    </g>
    <g id="ytick_22">
     <g id="line2d_30">
      <g>
       <use xlink:href="#m4025722375" x="50.137685" y="110.814177" style="stroke: #000000; stroke-width: 0.6"/>
      </g>
     </g>
    </g>
    <g id="ytick_23">
     <g id="line2d_31">
      <g>
       <use xlink:href="#m4025722375" x="50.137685" y="105.963528" style="stroke: #000000; stroke-width: 0.6"/>
      </g>
     </g>
    </g>
    <g id="ytick_24">
     <g id="line2d_32">
      <g>
       <use xlink:href="#m4025722375" x="50.137685" y="101.862363" style="stroke: #000000; stroke-width: 0.6"/>
      </g>
     </g>
    </g>
    <g id="ytick_25">
     <g id="line2d_33">
      <g>
       <use xlink:href="#m4025722375" x="50.137685" y="98.309772" style="stroke: #000000; stroke-width: 0.6"/>
      </g>
     </g>
    </g>
    <g id="ytick_26">
     <g id="line2d_34">
      <g>
       <use xlink:href="#m4025722375" x="50.137685" y="95.176165" style="stroke: #000000; stroke-width: 0.6"/>
      </g>
     </g>
    </g>
    <g id="ytick_27">
     <g id="line2d_35">
      <g>
       <use xlink:href="#m4025722375" x="50.137685" y="73.931938" style="stroke: #000000; stroke-width: 0.6"/>
      </g>
     </g>
    </g>
    <g id="ytick_28">
     <g id="line2d_36">
      <g>
       <use xlink:href="#m4025722375" x="50.137685" y="63.144574" style="stroke: #000000; stroke-width: 0.6"/>
      </g>
     </g>
    </g>
    <g id="ytick_29">
     <g id="line2d_37">
      <g>
       <use xlink:href="#m4025722375" x="50.137685" y="55.490818" style="stroke: #000000; stroke-width: 0.6"/>
      </g>
     </g>
    </g>
    <g id="ytick_30">
     <g id="line2d_38">
      <g>
       <use xlink:href="#m4025722375" x="50.137685" y="49.554103" style="stroke: #000000; stroke-width: 0.6"/>
      </g>
     </g>
    </g>
    <g id="ytick_31">
     <g id="line2d_39">
      <g>
       <use xlink:href="#m4025722375" x="50.137685" y="44.703454" style="stroke: #000000; stroke-width: 0.6"/>
      </g>
     </g>
    </g>
    <g id="ytick_32">
     <g id="line2d_40">
      <g>
       <use xlink:href="#m4025722375" x="50.137685" y="40.602289" style="stroke: #000000; stroke-width: 0.6"/>
      </g>
     </g>
    </g>
    <g id="ytick_33">
     <g id="line2d_41">
      <g>
       <use xlink:href="#m4025722375" x="50.137685" y="37.049698" style="stroke: #000000; stroke-width: 0.6"/>
      </g>
     </g>
    </g>
    <g id="ytick_34">
     <g id="line2d_42">
      <g>
       <use xlink:href="#m4025722375" x="50.137685" y="33.916091" style="stroke: #000000; stroke-width: 0.6"/>
      </g>
     </g>
    </g>
    <g id="text_14">
     <!-- Avg Duration (ms) -->
     <g transform="translate(19.457997 181.990469) rotate(-90) scale(0.1 -0.1)">
      <defs>
       <path id="DejaVuSans-41" d="M 2188 4044 
L 1331 1722 
L 3047 1722 
L 2188 4044 
z
M 1831 4666 
L 2547 4666 
L 4325 0 
L 3669 0 
L 3244 1197 
L 1141 1197 
L 716 0 
L 50 0 
L 1831 4666 
z
" transform="scale(0.015625)"/>
       <path id="DejaVuSans-76" d="M 191 3500 
L 800 3500 
L 1894 563 
L 2988 3500 
L 3597 3500 
L 2284 0 
L 1503 0 
L 191 3500 
z
" transform="scale(0.015625)"/>
       <path id="DejaVuSans-67" d="M 2906 1791 
Q 2906 2416 2648 2759 
Q 2391 3103 1925 3103 
Q 1463 3103 1205 2759 
Q 947 2416 947 1791 
Q 947 1169 1205 825 
Q 1463 481 1925 481 
Q 2391 481 2648 825 
Q 2906 1169 2906 1791 
z
M 3481 434 
Q 3481 -459 3084 -895 
Q 2688 -1331 1869 -1331 
Q 1566 -1331 1297 -1286 
Q 1028 -1241 775 -1147 
L 775 -588 
Q 1028 -725 1275 -790 
Q 1522 -856 1778 -856 
Q 2344 -856 2625 -561 
Q 2906 -266 2906 331 
L 2906 616 
Q 2728 306 2450 153 
Q 2172 0 1784 0 
Q 1141 0 747 490 
Q 353 981 353 1791 
Q 353 2603 747 3093 
Q 1141 3584 1784 3584 
Q 2172 3584 2450 3431 
Q 2728 3278 2906 2969 
L 2906 3500 
L 3481 3500 
L 3481 434 
z
" transform="scale(0.015625)"/>
       <path id="DejaVuSans-44" d="M 1259 4147 
L 1259 519 
L 2022 519 
Q 2988 519 3436 956 
Q 3884 1394 3884 2338 
Q 3884 3275 3436 3711 
Q 2988 4147 2022 4147 
L 1259 4147 
z
M 628 4666 
L 1925 4666 
Q 3281 4666 3915 4102 
Q 4550 3538 4550 2338 
Q 4550 1131 3912 565 
Q 3275 0 1925 0 
L 628 0 
L 628 4666 
z
" transform="scale(0.015625)"/>
       <path id="DejaVuSans-75" d="M 544 1381 
L 544 3500 
L 1119 3500 
L 1119 1403 
Q 1119 906 1312 657 
Q 1506 409 1894 409 
Q 2359 409 2629 706 
Q 2900 1003 2900 1516 
L 2900 3500 
L 3475 3500 
L 3475 0 
L 2900 0 
L 2900 538 
Q 2691 219 2414 64 
Q 2138 -91 1772 -91 
Q 1169 -91 856 284 
Q 544 659 544 1381 
z
M 1991 3584 
L 1991 3584 
z
" transform="scale(0.015625)"/>
       <path id="DejaVuSans-72" d="M 2631 2963 
Q 2534 3019 2420 3045 
Q 2306 3072 2169 3072 
Q 1681 3072 1420 2755 
Q 1159 2438 1159 1844 
L 1159 0 
L 581 0 
L 581 3500 
L 1159 3500 
L 1159 2956 
Q 1341 3275 1631 3429 
Q 1922 3584 2338 3584 
Q 2397 3584 2469 3576 
Q 2541 3569 2628 3553 
L 2631 2963 
z
" transform="scale(0.015625)"/>
      </defs>
      <use xlink:href="#DejaVuSans-41"/>
      <use xlink:href="#DejaVuSans-76" transform="translate(62.533203 0)"/>
      <use xlink:href="#DejaVuSans-67" transform="translate(121.712891 0)"/>
      <use xlink:href="#DejaVuSans-20" transform="translate(185.189453 0)"/>
      <use xlink:href="#DejaVuSans-44" transform="translate(216.976562 0)"/>
      <use xlink:href="#DejaVuSans-75" transform="translate(293.978516 0)"/>
      <use xlink:href="#DejaVuSans-72" transform="translate(357.357422 0)"/>
      <use xlink:href="#DejaVuSans-61" transform="translate(398.470703 0)"/>
      <use xlink:href="#DejaVuSans-74" transform="translate(459.75 0)"/>
      <use xlink:href="#DejaVuSans-69" transform="translate(498.958984 0)"/>
      <use xlink:href="#DejaVuSans-6f" transform="translate(526.742188 0)"/>
      <use xlink:href="#DejaVuSans-6e" transform="translate(587.923828 0)"/>
      <use xlink:href="#DejaVuSans-20" transform="translate(651.302734 0)"/>
      <use xlink:href="#DejaVuSans-28" transform="translate(683.089844 0)"/>
      <use xlink:href="#DejaVuSans-6d" transform="translate(722.103516 0)"/>
      <use xlink:href="#DejaVuSans-73" transform="translate(819.515625 0)"/>
      <use xlink:href="#DejaVuSans-29" transform="translate(871.615234 0)"/>
     </g>
    </g>
   </g>
   <g id="line2d_43">
    <path d="M 93.185972 211.582806 
L 95.577543 202.667709 
L 97.969115 203.593166 
L 100.360686 160.057579 
L 102.752258 175.852013 
L 105.143829 182.974285 
L 107.535401 170.75176 
L 109.926972 206.948402 
L 112.318544 183.688734 
L 114.710115 180.979478 
L 117.101687 173.414766 
L 119.493258 186.410779 
L 121.88483 176.719328 
L 124.276401 180.893722 
L 126.667973 167.733645 
L 129.059544 181.278808 
L 131.451116 187.895842 
L 133.842687 175.955393 
L 136.234259 175.668388 
L 138.62583 177.989362 
L 141.017402 185.786826 
L 143.408973 170.795042 
L 145.800545 164.734731 
L 148.192116 165.016631 
L 150.583688 169.229171 
L 152.975259 178.905731 
L 155.366831 156.381772 
L 157.758402 147.599247 
L 160.149974 163.347767 
L 162.541545 151.04062 
L 164.933117 145.228306 
L 167.324688 157.801367 
L 169.71626 163.703703 
L 172.107831 142.21078 
L 174.499403 160.609706 
L 176.890974 141.968575 
L 179.282546 137.641081 
L 181.674117 161.887632 
L 184.065689 169.053963 
L 186.45726 121.756442 
L 188.848832 149.89806 
L 191.240403 137.761016 
L 193.631975 155.276064 
L 196.023546 148.754899 
L 198.415118 155.645 
L 200.806689 132.166167 
L 203.198261 133.704464 
L 205.589832 126.209208 
L 207.981404 140.649734 
L 210.372975 109.393904 
L 212.764547 114.561768 
L 215.156118 133.186252 
L 217.54769 125.344372 
L 219.939261 132.673144 
L 222.330833 125.568022 
L 224.722404 122.660452 
L 227.113976 129.669762 
L 229.505547 117.036219 
L 231.897119 127.597759 
L 234.288691 144.314821 
L 236.680262 124.846091 
L 239.071834 102.929496 
L 241.463405 119.776798 
L 243.854977 122.089065 
L 246.246548 115.732121 
L 248.63812 103.452129 
L 251.029691 102.983271 
L 253.421263 133.125938 
L 255.812834 108.687871 
L 258.204406 117.648074 
L 260.595977 122.832611 
L 262.987549 103.119575 
L 265.37912 97.741253 
L 267.770692 103.906097 
L 270.162263 107.273938 
L 272.553835 114.238656 
L 274.945406 107.885789 
L 277.336978 130.184978 
L 279.728549 114.592979 
L 282.120121 110.393615 
L 284.511692 105.395984 
L 286.903264 109.831492 
L 289.294835 106.837898 
L 291.686407 99.10099 
L 294.077978 111.858159 
L 296.46955 115.382357 
L 298.861121 110.94407 
L 301.252693 105.549447 
L 303.644264 102.477292 
L 306.035836 113.613822 
L 308.427407 106.646236 
L 310.818979 122.742472 
L 313.21055 109.784813 
L 315.602122 106.026667 
L 317.993693 102.927248 
L 320.385265 101.721263 
L 322.776836 99.891894 
L 325.168408 103.421002 
L 327.559979 103.241522 
L 329.951551 107.996211 
L 332.343122 109.992556 
L 334.734694 105.064994 
L 337.126265 92.473262 
L 339.517837 106.089147 
L 341.909408 105.337023 
L 346.692551 92.643127 
L 349.084123 90.993244 
L 351.475694 116.409292 
L 353.867266 112.213538 
L 356.258837 120.3807 
L 358.650409 129.806889 
L 361.04198 130.752155 
L 363.433552 110.320593 
L 365.825123 112.049203 
L 368.216695 125.887117 
L 370.608266 113.308974 
L 372.999838 106.832264 
L 375.391409 102.879658 
L 377.782981 102.52665 
L 380.174552 102.601586 
L 382.566124 102.235384 
L 384.957695 114.548118 
L 387.349267 105.010021 
L 389.740838 109.208642 
L 392.13241 109.981177 
L 394.523981 113.614713 
L 396.915553 124.535704 
L 399.307124 125.960333 
L 401.698696 114.617824 
L 404.090267 121.312529 
L 406.481839 98.742769 
L 408.87341 95.811669 
L 411.264982 95.332017 
L 413.656553 96.242954 
L 416.048125 114.236829 
L 418.439696 120.954341 
L 420.831268 123.514607 
L 423.222839 126.72571 
L 425.614411 125.487847 
L 428.005982 114.691099 
L 430.397554 103.069761 
L 432.789125 95.629929 
L 435.180697 106.007742 
L 437.572268 115.441687 
L 439.96384 107.800242 
L 442.355411 121.665629 
L 444.746983 142.21259 
L 447.138554 115.774006 
L 449.530126 118.35393 
L 451.921697 127.165654 
L 454.313269 117.629379 
L 456.70484 104.874789 
L 459.096412 107.156575 
L 461.487983 109.949799 
L 463.879555 104.253135 
L 466.271126 115.017562 
L 468.662698 109.02412 
L 471.054269 111.103962 
L 473.445841 104.853977 
L 475.837412 117.270733 
L 478.228984 122.325659 
L 480.620555 107.446603 
L 483.012127 99.905319 
L 485.403698 107.042503 
L 487.79527 101.2857 
L 490.186841 108.930064 
L 492.578413 101.257719 
L 494.969984 100.439109 
L 497.361556 104.569542 
L 499.753127 121.307951 
L 502.144699 111.505156 
L 504.53627 100.962144 
L 506.927842 111.212543 
L 509.319413 108.652387 
L 511.710985 110.193534 
L 514.102556 97.088171 
L 516.494128 100.521841 
L 518.885699 107.106952 
L 521.277271 132.645053 
L 523.668842 111.146098 
L 526.060414 106.83634 
L 528.451985 111.577362 
L 530.843557 103.072673 
L 533.235128 101.477593 
L 535.6267 107.61058 
L 538.018271 115.76568 
L 540.409843 102.352663 
L 542.801414 107.246617 
L 545.192986 106.159326 
L 547.584557 107.079861 
L 549.976129 106.881783 
L 552.3677 113.925698 
L 554.759272 105.640785 
L 557.150843 116.022983 
L 559.542415 130.804302 
L 561.933986 116.143483 
L 564.325558 104.777003 
L 566.717129 116.995138 
L 569.108701 126.29248 
L 571.500272 111.246549 
L 573.891844 112.193027 
L 576.283415 100.917678 
L 578.674987 115.019811 
L 581.066558 108.544287 
L 583.45813 101.482707 
L 585.849701 105.020975 
L 588.241273 104.905635 
L 590.632844 110.263242 
L 593.024416 113.817156 
L 595.415987 112.332436 
L 597.807559 123.702041 
L 600.19913 112.338433 
L 602.590702 110.487399 
L 604.982273 123.919233 
L 607.373845 112.79758 
L 609.765416 115.201548 
L 612.156988 117.181589 
L 614.54856 101.734434 
L 616.940131 107.751786 
L 619.331703 109.454227 
L 621.723274 108.07047 
L 624.114846 108.539494 
L 626.506417 96.882432 
L 628.897989 99.731324 
L 631.28956 107.500812 
L 633.681132 122.24727 
L 636.072703 101.126823 
L 638.464275 107.033149 
L 640.855846 105.527022 
L 643.247418 118.084179 
L 645.638989 113.708634 
L 648.030561 95.709761 
L 650.422132 114.140039 
L 652.813704 96.75282 
L 655.205275 96.972999 
L 657.596847 99.602407 
L 659.988418 102.918374 
L 662.37999 108.272501 
L 664.771561 96.612962 
L 667.163133 91.965548 
L 669.554704 96.96484 
L 671.946276 111.055822 
L 674.337847 120.628817 
L 676.729419 144.204437 
L 679.12099 119.334509 
L 681.512562 102.205366 
L 683.904133 96.509934 
L 686.295705 102.489438 
L 688.687276 106.645361 
L 691.078848 108.672522 
L 693.470419 109.144671 
L 695.861991 112.432457 
L 698.253562 118.52559 
L 700.645134 122.1784 
L 703.036705 100.611772 
L 705.428277 113.389502 
L 707.819848 129.644777 
L 710.21142 121.240543 
L 712.602991 100.502544 
L 714.994563 95.539038 
L 717.386134 99.129263 
L 719.777706 100.678851 
L 722.169277 100.46988 
L 724.560849 97.156296 
L 726.95242 106.697255 
L 729.343992 101.712797 
L 731.735563 112.057031 
L 734.127135 111.967279 
L 736.518706 111.612875 
L 738.910278 112.327037 
L 741.301849 105.978325 
L 743.693421 101.351479 
L 746.084992 105.005982 
L 748.476564 102.172091 
L 750.868135 114.826582 
L 753.259707 116.701469 
L 755.651278 123.124239 
L 758.04285 114.589683 
L 760.434421 98.543082 
L 762.825993 88.585927 
L 765.217564 109.056783 
L 767.609136 119.135594 
L 770.000707 103.056325 
L 772.392279 98.911669 
L 774.78385 102.276399 
L 777.175422 99.940187 
L 779.566993 103.266493 
L 781.958565 92.998019 
L 784.350136 100.328136 
L 786.741708 129.594822 
L 789.133279 116.395992 
L 791.524851 100.144159 
L 793.916422 102.912082 
L 796.307994 102.190899 
L 798.699565 102.610738 
L 801.091137 108.445841 
L 803.482708 117.49302 
L 805.87428 119.909531 
L 808.265851 113.443882 
L 810.657423 118.447909 
L 813.048994 113.169234 
L 815.440566 119.836547 
L 817.832137 110.96864 
L 820.223709 113.314342 
L 822.61528 133.782513 
L 825.006852 109.054065 
L 827.398423 110.010724 
L 829.789995 112.069576 
L 832.181566 136.681052 
L 834.573138 128.537996 
L 836.964709 121.373461 
L 839.356281 130.06359 
L 841.747852 145.582976 
L 844.139424 142.921624 
L 846.530995 131.331849 
L 848.922567 139.543943 
L 851.314138 145.636767 
L 853.70571 134.823838 
L 856.097281 125.478214 
L 858.488853 138.986699 
L 860.880424 126.86367 
L 863.271996 127.566029 
L 865.663567 164.932327 
L 868.055139 165.045945 
L 870.44671 153.765351 
L 872.838282 146.407306 
L 875.229853 146.3419 
L 877.621425 153.955248 
L 880.012996 166.029184 
L 882.404568 142.466224 
L 884.796139 150.184735 
L 887.187711 164.070812 
L 889.579282 147.082548 
L 891.970854 157.008719 
L 894.362425 152.78666 
L 896.753997 167.07062 
L 899.145568 149.921203 
L 901.53714 151.726829 
L 903.928711 178.392393 
L 906.320283 178.608116 
L 908.711854 176.147496 
L 911.103426 163.715719 
L 913.494997 172.865818 
L 915.886569 164.665271 
L 918.27814 181.919145 
L 920.669712 172.491882 
L 923.061283 183.886455 
L 925.452855 179.432673 
L 927.844426 173.010341 
L 930.235998 195.656311 
L 935.019141 157.94842 
L 937.410712 181.235046 
L 939.802284 171.510195 
L 942.193855 180.064762 
L 944.585427 186.880311 
L 946.976998 170.528409 
L 949.36857 158.177179 
L 951.760141 206.757084 
L 954.151713 159.360616 
L 954.151713 159.360616 
" clip-path="url(#p371a66c749)" style="fill: none; stroke: #1f77b4; stroke-width: 1.5; stroke-linecap: square"/>
   </g>
   <g id="line2d_44">
    <path d="M 93.185972 173.734853 
L 95.577543 144.456905 
L 97.969115 205.525905 
L 100.360686 144.62619 
L 102.752258 144.315281 
L 105.143829 149.400864 
L 107.535401 130.852855 
L 109.926972 180.925189 
L 112.318544 152.016996 
L 114.710115 149.115527 
L 117.101687 142.890585 
L 119.493258 118.853456 
L 121.88483 124.030136 
L 124.276401 140.197378 
L 126.667973 91.133991 
L 129.059544 122.870763 
L 131.451116 113.163339 
L 133.842687 113.379123 
L 136.234259 125.231059 
L 138.62583 104.692034 
L 141.017402 81.410187 
L 143.408973 93.047875 
L 145.800545 94.596365 
L 148.192116 86.803961 
L 150.583688 87.006897 
L 152.975259 79.542344 
L 155.366831 85.324474 
L 157.758402 67.509549 
L 160.149974 71.188272 
L 162.541545 80.826617 
L 164.933117 74.675866 
L 167.324688 76.992728 
L 169.71626 70.289843 
L 172.107831 64.223694 
L 174.499403 66.367015 
L 176.890974 78.489792 
L 179.282546 68.008061 
L 181.674117 65.214081 
L 184.065689 72.539302 
L 186.45726 71.069851 
L 188.848832 71.974324 
L 191.240403 72.288327 
L 193.631975 78.530993 
L 198.415118 63.398008 
L 200.806689 56.737931 
L 203.198261 58.239608 
L 205.589832 49.586942 
L 207.981404 58.520291 
L 210.372975 100.179649 
L 212.764547 54.933639 
L 215.156118 58.58748 
L 217.54769 64.471101 
L 219.939261 60.992253 
L 222.330833 62.214848 
L 224.722404 47.189044 
L 227.113976 51.392539 
L 229.505547 56.273929 
L 231.897119 52.167636 
L 234.288691 45.843582 
L 236.680262 52.307574 
L 239.071834 45.415293 
L 241.463405 89.185227 
L 243.854977 38.968259 
L 246.246548 43.506789 
L 248.63812 50.16968 
L 251.029691 41.997848 
L 253.421263 44.025259 
L 255.812834 55.856638 
L 258.204406 45.505717 
L 260.595977 44.252651 
L 262.987549 71.253389 
L 265.37912 44.092223 
L 267.770692 53.429089 
L 270.162263 45.533657 
L 272.553835 46.767157 
L 274.945406 46.48595 
L 277.336978 44.58265 
L 279.728549 52.812735 
L 282.120121 43.150942 
L 284.511692 58.579768 
L 286.903264 51.452432 
L 289.294835 47.870814 
L 291.686407 49.635556 
L 294.077978 49.03735 
L 296.46955 62.876875 
L 298.861121 54.891218 
L 301.252693 60.918199 
L 303.644264 73.879018 
L 306.035836 52.404331 
L 308.427407 52.808608 
L 310.818979 65.153339 
L 313.21055 61.47775 
L 315.602122 47.748668 
L 317.993693 44.053444 
L 320.385265 41.609273 
L 322.776836 48.649077 
L 325.168408 50.026301 
L 327.559979 50.96559 
L 329.951551 51.351693 
L 332.343122 45.549111 
L 334.734694 47.707789 
L 337.126265 47.210884 
L 339.517837 54.945954 
L 341.909408 47.560534 
L 344.30098 61.666523 
L 346.692551 48.790502 
L 349.084123 42.618551 
L 351.475694 51.710505 
L 353.867266 57.024886 
L 356.258837 48.252539 
L 358.650409 53.58081 
L 361.04198 55.210145 
L 363.433552 40.264233 
L 365.825123 40.702464 
L 368.216695 50.479489 
L 370.608266 40.958274 
L 372.999838 44.277903 
L 375.391409 37.786403 
L 377.782981 48.751862 
L 380.174552 54.787378 
L 382.566124 55.281182 
L 384.957695 56.793608 
L 387.349267 63.562856 
L 389.740838 44.062227 
L 392.13241 46.620512 
L 394.523981 48.777938 
L 396.915553 54.078468 
L 399.307124 49.798263 
L 401.698696 44.697684 
L 404.090267 53.349977 
L 406.481839 48.279453 
L 408.87341 61.723357 
L 411.264982 60.801459 
L 413.656553 57.654368 
L 416.048125 46.514327 
L 418.439696 56.339358 
L 420.831268 49.098561 
L 423.222839 50.35821 
L 425.614411 37.761734 
L 428.005982 54.156153 
L 430.397554 43.55444 
L 432.789125 47.148457 
L 435.180697 42.941747 
L 437.572268 40.961091 
L 439.96384 60.775947 
L 442.355411 45.344706 
L 444.746983 46.114411 
L 447.138554 53.94812 
L 451.921697 48.605291 
L 454.313269 43.80413 
L 456.70484 48.771639 
L 459.096412 48.693884 
L 461.487983 47.232149 
L 463.879555 59.161306 
L 466.271126 53.080815 
L 468.662698 47.547581 
L 471.054269 39.169242 
L 473.445841 42.179201 
L 475.837412 54.154004 
L 478.228984 50.556146 
L 480.620555 42.464048 
L 483.012127 47.886351 
L 485.403698 56.142664 
L 487.79527 55.185698 
L 490.186841 38.753014 
L 492.578413 50.042219 
L 494.969984 47.865618 
L 497.361556 48.613861 
L 499.753127 46.168116 
L 502.144699 87.453973 
L 504.53627 54.642069 
L 506.927842 47.115721 
L 509.319413 47.032953 
L 511.710985 42.360528 
L 514.102556 45.657152 
L 516.494128 58.112063 
L 518.885699 41.588639 
L 521.277271 75.642707 
L 523.668842 59.984206 
L 526.060414 58.352266 
L 528.451985 49.520392 
L 530.843557 39.044125 
L 533.235128 55.790075 
L 535.6267 49.193094 
L 538.018271 39.789762 
L 540.409843 63.389159 
L 542.801414 47.865289 
L 545.192986 38.927116 
L 547.584557 50.02818 
L 549.976129 40.420467 
L 552.3677 58.254313 
L 554.759272 52.744615 
L 557.150843 52.599285 
L 559.542415 45.853285 
L 561.933986 51.885354 
L 564.325558 48.662668 
L 566.717129 50.64346 
L 569.108701 49.668948 
L 571.500272 46.611306 
L 573.891844 47.924879 
L 576.283415 42.825945 
L 578.674987 50.28738 
L 581.066558 45.295424 
L 583.45813 43.341759 
L 585.849701 46.181036 
L 588.241273 49.882823 
L 590.632844 44.692634 
L 593.024416 47.553322 
L 595.415987 49.153135 
L 597.807559 47.292056 
L 600.19913 57.794684 
L 602.590702 47.150849 
L 604.982273 43.948251 
L 607.373845 42.007147 
L 609.765416 53.00449 
L 612.156988 52.309258 
L 614.54856 49.071378 
L 616.940131 44.374515 
L 619.331703 51.211672 
L 621.723274 48.966389 
L 624.114846 43.899843 
L 626.506417 53.484354 
L 628.897989 45.699547 
L 631.28956 51.802421 
L 633.681132 43.674648 
L 636.072703 44.547073 
L 638.464275 41.084586 
L 640.855846 47.262937 
L 643.247418 50.328641 
L 645.638989 42.723281 
L 648.030561 48.814649 
L 650.422132 53.925139 
L 652.813704 49.158391 
L 655.205275 61.123203 
L 657.596847 58.835766 
L 659.988418 45.457303 
L 662.37999 51.577025 
L 664.771561 52.803478 
L 667.163133 54.945963 
L 669.554704 45.363197 
L 671.946276 43.650126 
L 674.337847 38.772201 
L 676.729419 41.545799 
L 679.12099 50.972253 
L 681.512562 47.728836 
L 683.904133 41.294588 
L 686.295705 47.069054 
L 688.687276 41.88935 
L 691.078848 44.709401 
L 693.470419 58.416205 
L 695.861991 54.644127 
L 698.253562 51.471044 
L 700.645134 57.454903 
L 703.036705 52.056079 
L 705.428277 49.310991 
L 707.819848 64.870906 
L 710.21142 62.280556 
L 712.602991 43.76049 
L 714.994563 54.208494 
L 717.386134 43.73747 
L 719.777706 53.287952 
L 722.169277 56.796908 
L 724.560849 55.382329 
L 726.95242 55.478903 
L 729.343992 50.765811 
L 731.735563 53.828767 
L 734.127135 45.176974 
L 736.518706 45.890977 
L 738.910278 43.876294 
L 741.301849 54.845058 
L 743.693421 51.156772 
L 746.084992 53.298167 
L 748.476564 37.484698 
L 750.868135 49.712537 
L 753.259707 39.555005 
L 755.651278 42.289917 
L 758.04285 54.28367 
L 760.434421 43.42037 
L 762.825993 39.922296 
L 765.217564 40.387103 
L 767.609136 58.773008 
L 770.000707 53.930134 
L 772.392279 50.340866 
L 774.78385 46.463063 
L 777.175422 36.841818 
L 779.566993 51.320494 
L 781.958565 41.382112 
L 784.350136 44.755013 
L 786.741708 42.230486 
L 789.133279 57.814272 
L 791.524851 53.205947 
L 793.916422 45.931446 
L 796.307994 58.631566 
L 798.699565 61.891852 
L 801.091137 54.072498 
L 803.482708 48.376435 
L 805.87428 48.158165 
L 808.265851 53.062207 
L 810.657423 44.064563 
L 813.048994 84.180569 
L 815.440566 41.338996 
L 817.832137 40.222266 
L 820.223709 45.867521 
L 822.61528 47.910093 
L 825.006852 43.038005 
L 829.789995 56.377747 
L 832.181566 52.331689 
L 834.573138 48.511288 
L 836.964709 51.805874 
L 839.356281 47.649599 
L 841.747852 50.314674 
L 844.139424 46.03389 
L 846.530995 47.482217 
L 848.922567 61.632743 
L 851.314138 58.58224 
L 853.70571 52.982656 
L 856.097281 59.102848 
L 858.488853 48.310283 
L 860.880424 58.944189 
L 863.271996 48.467319 
L 865.663567 52.005129 
L 868.055139 63.491328 
L 870.44671 63.896907 
L 872.838282 63.435794 
L 875.229853 56.251783 
L 877.621425 69.396985 
L 880.012996 65.308196 
L 882.404568 77.077621 
L 884.796139 90.525073 
L 887.187711 67.24912 
L 889.579282 59.027184 
L 891.970854 59.185943 
L 894.362425 72.829801 
L 896.753997 102.496547 
L 899.145568 108.45475 
L 901.53714 87.149741 
L 903.928711 102.878966 
L 906.320283 85.10192 
L 908.711854 100.114016 
L 911.103426 117.717604 
L 913.494997 102.68783 
L 915.886569 106.139744 
L 918.27814 113.062877 
L 920.669712 111.574302 
L 923.061283 138.425339 
L 925.452855 125.80017 
L 927.844426 95.496057 
L 930.235998 109.076761 
L 932.627569 110.832609 
L 935.019141 167.764655 
L 937.410712 133.154294 
L 939.802284 152.241395 
L 942.193855 146.295292 
L 944.585427 122.738464 
L 946.976998 163.337372 
L 949.36857 161.826866 
L 951.760141 158.121137 
L 954.151713 159.520977 
L 954.151713 159.520977 
" clip-path="url(#p371a66c749)" style="fill: none; stroke: #ff7f0e; stroke-width: 1.5; stroke-linecap: square"/>
   </g>
   <g id="line2d_45">
    <path d="M 93.185972 236.078182 
L 95.577543 151.255013 
L 97.969115 200.624393 
L 100.360686 170.907537 
L 102.752258 153.009514 
L 105.143829 186.632935 
L 107.535401 153.78046 
L 109.926972 163.784495 
L 112.318544 159.981456 
L 114.710115 189.800918 
L 117.101687 163.878231 
L 119.493258 150.549071 
L 121.88483 165.216078 
L 124.276401 169.187171 
L 126.667973 159.48545 
L 129.059544 146.697279 
L 131.451116 155.971627 
L 133.842687 168.959753 
L 136.234259 149.454029 
L 138.62583 170.997346 
L 141.017402 160.746589 
L 143.408973 140.025915 
L 145.800545 149.611675 
L 148.192116 156.259914 
L 150.583688 151.367383 
L 152.975259 159.935808 
L 155.366831 127.791566 
L 157.758402 141.141269 
L 160.149974 136.550211 
L 162.541545 134.484287 
L 164.933117 129.92101 
L 167.324688 172.654219 
L 169.71626 170.714976 
L 172.107831 147.136883 
L 174.499403 138.685579 
L 176.890974 140.017709 
L 179.282546 132.363064 
L 181.674117 147.181518 
L 184.065689 147.12239 
L 186.45726 164.329895 
L 188.848832 111.766841 
L 191.240403 121.709143 
L 193.631975 110.454919 
L 196.023546 122.590424 
L 198.415118 111.262571 
L 200.806689 109.89244 
L 203.198261 123.138189 
L 205.589832 105.976309 
L 207.981404 123.794333 
L 210.372975 124.071001 
L 212.764547 108.355639 
L 215.156118 99.742789 
L 217.54769 114.169865 
L 219.939261 117.522865 
L 222.330833 104.695448 
L 224.722404 97.467608 
L 227.113976 103.115718 
L 229.505547 87.056024 
L 231.897119 109.651587 
L 234.288691 100.468789 
L 236.680262 87.914264 
L 241.463405 88.038095 
L 243.854977 98.438092 
L 246.246548 105.667626 
L 248.63812 87.789953 
L 251.029691 130.159113 
L 253.421263 96.741476 
L 255.812834 83.482693 
L 258.204406 90.187311 
L 260.595977 100.483772 
L 262.987549 85.753442 
L 265.37912 88.430252 
L 267.770692 89.268301 
L 270.162263 105.005001 
L 272.553835 101.337976 
L 274.945406 102.203783 
L 277.336978 86.836029 
L 279.728549 84.285977 
L 282.120121 87.307811 
L 284.511692 86.621505 
L 286.903264 98.036898 
L 289.294835 99.492152 
L 291.686407 116.499617 
L 294.077978 128.170311 
L 296.46955 114.441356 
L 298.861121 98.961886 
L 301.252693 94.540142 
L 303.644264 99.325349 
L 306.035836 99.678518 
L 308.427407 115.976257 
L 310.818979 98.895298 
L 313.21055 103.555684 
L 315.602122 112.472057 
L 317.993693 103.537888 
L 320.385265 91.796091 
L 322.776836 85.559398 
L 325.168408 114.505557 
L 327.559979 83.087671 
L 329.951551 98.202568 
L 332.343122 91.514394 
L 334.734694 105.073845 
L 337.126265 100.887722 
L 339.517837 84.038576 
L 341.909408 109.009207 
L 344.30098 108.888138 
L 346.692551 123.153055 
L 349.084123 109.449658 
L 351.475694 89.660915 
L 353.867266 90.977655 
L 356.258837 80.902539 
L 358.650409 130.296447 
L 361.04198 85.166003 
L 363.433552 98.533549 
L 365.825123 99.863975 
L 368.216695 82.145971 
L 370.608266 87.848352 
L 372.999838 102.072991 
L 375.391409 117.738311 
L 377.782981 102.257462 
L 380.174552 68.893721 
L 382.566124 154.396175 
L 384.957695 82.621226 
L 387.349267 79.537567 
L 389.740838 108.188242 
L 392.13241 69.240855 
L 394.523981 82.684904 
L 396.915553 68.268696 
L 399.307124 71.09573 
L 401.698696 64.903902 
L 404.090267 87.88425 
L 406.481839 96.088598 
L 408.87341 64.195933 
L 411.264982 65.845532 
L 413.656553 108.244876 
L 416.048125 115.336011 
L 418.439696 87.804194 
L 420.831268 88.753027 
L 425.614411 103.528564 
L 428.005982 99.896743 
L 430.397554 116.870095 
L 435.180697 95.845272 
L 437.572268 78.758571 
L 439.96384 113.875802 
L 442.355411 79.591242 
L 444.746983 83.332405 
L 447.138554 80.349709 
L 449.530126 81.22728 
L 451.921697 101.625933 
L 454.313269 83.184106 
L 456.70484 82.264134 
L 459.096412 87.24527 
L 461.487983 105.689209 
L 463.879555 106.042674 
L 466.271126 92.891022 
L 468.662698 92.243259 
L 471.054269 99.37967 
L 473.445841 100.398639 
L 475.837412 103.155771 
L 478.228984 102.228639 
L 480.620555 105.293627 
L 483.012127 113.737244 
L 485.403698 106.458642 
L 487.79527 111.385417 
L 490.186841 115.905601 
L 492.578413 115.58959 
L 494.969984 103.60324 
L 497.361556 99.67787 
L 499.753127 110.482195 
L 502.144699 107.530898 
L 504.53627 115.436246 
L 506.927842 124.54418 
L 509.319413 110.76506 
L 511.710985 106.98414 
L 514.102556 104.929095 
L 518.885699 98.947516 
L 521.277271 99.764776 
L 523.668842 107.645851 
L 526.060414 105.332268 
L 528.451985 98.269732 
L 530.843557 102.73754 
L 533.235128 109.685691 
L 535.6267 107.916338 
L 538.018271 92.231481 
L 540.409843 100.346459 
L 545.192986 110.831707 
L 547.584557 99.122679 
L 549.976129 99.101801 
L 552.3677 110.771518 
L 554.759272 112.066945 
L 557.150843 107.759884 
L 559.542415 113.94952 
L 561.933986 111.953372 
L 564.325558 97.805328 
L 566.717129 93.217659 
L 569.108701 102.756142 
L 571.500272 111.712605 
L 573.891844 119.539694 
L 576.283415 106.646283 
L 578.674987 95.15393 
L 581.066558 99.279465 
L 583.45813 104.409189 
L 585.849701 109.248428 
L 588.241273 101.735849 
L 590.632844 101.535777 
L 593.024416 107.764314 
L 595.415987 107.6092 
L 597.807559 109.158036 
L 600.19913 103.010603 
L 602.590702 111.770703 
L 604.982273 110.768825 
L 607.373845 111.496548 
L 609.765416 110.678598 
L 612.156988 111.542873 
L 614.54856 108.766943 
L 616.940131 120.424662 
L 619.331703 125.491858 
L 621.723274 128.412805 
L 624.114846 137.455191 
L 626.506417 116.809306 
L 628.897989 104.613963 
L 631.28956 101.047148 
L 633.681132 112.277469 
L 636.072703 108.346101 
L 638.464275 100.607388 
L 640.855846 96.875485 
L 643.247418 97.415292 
L 645.638989 100.131638 
L 648.030561 99.867599 
L 650.422132 97.641799 
L 652.813704 101.203869 
L 655.205275 90.178251 
L 657.596847 101.77288 
L 659.988418 118.094972 
L 662.37999 116.530837 
L 664.771561 107.371165 
L 667.163133 90.453118 
L 669.554704 90.781754 
L 671.946276 114.389016 
L 674.337847 105.226285 
L 676.729419 110.392776 
L 679.12099 124.863431 
L 681.512562 104.799976 
L 683.904133 103.599507 
L 686.295705 104.263649 
L 688.687276 103.304841 
L 693.470419 106.354208 
L 695.861991 101.613804 
L 698.253562 108.800957 
L 700.645134 114.065645 
L 703.036705 109.807244 
L 705.428277 96.829947 
L 707.819848 92.815356 
L 710.21142 106.798376 
L 712.602991 125.808975 
L 714.994563 108.658433 
L 717.386134 108.761755 
L 719.777706 91.75706 
L 722.169277 105.358731 
L 724.560849 106.546921 
L 726.95242 117.97618 
L 729.343992 113.472393 
L 731.735563 99.208888 
L 734.127135 95.141081 
L 736.518706 113.489773 
L 738.910278 100.543051 
L 741.301849 91.739016 
L 743.693421 98.416265 
L 746.084992 108.074345 
L 748.476564 114.157573 
L 750.868135 97.168365 
L 753.259707 115.512523 
L 755.651278 95.727088 
L 758.04285 96.203886 
L 760.434421 97.361622 
L 762.825993 96.271671 
L 765.217564 98.996467 
L 767.609136 104.082665 
L 770.000707 114.776071 
L 772.392279 99.864591 
L 774.78385 114.064257 
L 777.175422 92.341685 
L 779.566993 100.346791 
L 781.958565 108.950636 
L 784.350136 96.957499 
L 786.741708 101.734169 
L 789.133279 90.953215 
L 791.524851 106.531045 
L 793.916422 114.631604 
L 796.307994 111.637962 
L 798.699565 104.303213 
L 801.091137 106.12538 
L 803.482708 104.640335 
L 805.87428 104.287168 
L 808.265851 101.859301 
L 810.657423 100.760651 
L 813.048994 97.898566 
L 815.440566 105.372829 
L 817.832137 109.063364 
L 820.223709 96.440951 
L 822.61528 99.127034 
L 825.006852 103.695241 
L 827.398423 91.221145 
L 829.789995 96.370802 
L 832.181566 101.987647 
L 834.573138 101.848208 
L 836.964709 109.652821 
L 839.356281 132.280043 
L 841.747852 138.883073 
L 844.139424 112.220362 
L 846.530995 112.146704 
L 848.922567 156.804003 
L 851.314138 121.777558 
L 853.70571 122.035989 
L 856.097281 107.119088 
L 858.488853 125.099811 
L 860.880424 132.676144 
L 863.271996 146.712321 
L 865.663567 157.097448 
L 868.055139 137.531394 
L 870.44671 144.954706 
L 872.838282 162.801427 
L 875.229853 150.661504 
L 877.621425 150.136635 
L 880.012996 142.993244 
L 882.404568 140.499842 
L 884.796139 146.028786 
L 887.187711 164.478464 
L 889.579282 147.037349 
L 891.970854 162.131061 
L 894.362425 162.20641 
L 896.753997 148.650068 
L 899.145568 164.050352 
L 901.53714 164.641679 
L 903.928711 168.815206 
L 906.320283 158.988056 
L 908.711854 160.278241 
L 911.103426 167.117417 
L 913.494997 151.074497 
L 915.886569 173.977961 
L 918.27814 138.784736 
L 920.669712 176.148215 
L 923.061283 149.13391 
L 925.452855 181.213995 
L 927.844426 165.494127 
L 930.235998 143.210098 
L 932.627569 147.025134 
L 935.019141 186.744283 
L 937.410712 167.492954 
L 939.802284 189.713361 
L 942.193855 188.316553 
L 944.585427 153.830998 
L 946.976998 156.774383 
L 949.36857 169.544943 
L 951.760141 206.556908 
L 954.151713 158.963418 
L 954.151713 158.963418 
" clip-path="url(#p371a66c749)" style="fill: none; stroke: #2ca02c; stroke-width: 1.5; stroke-linecap: square"/>
   </g>
   <g id="patch_3">
    <path d="M 50.137685 246.04 
L 50.137685 26.88 
" style="fill: none; stroke: #000000; stroke-width: 0.8; stroke-linejoin: miter; stroke-linecap: square"/>
   </g>
   <g id="patch_4">
    <path d="M 997.2 246.04 
L 997.2 26.88 
" style="fill: none; stroke: #000000; stroke-width: 0.8; stroke-linejoin: miter; stroke-linecap: square"/>
   </g>
   <g id="patch_5">
    <path d="M 50.137685 246.04 
L 997.2 246.04 
" style="fill: none; stroke: #000000; stroke-width: 0.8; stroke-linejoin: miter; stroke-linecap: square"/>
   </g>
   <g id="patch_6">
    <path d="M 50.137685 26.88 
L 997.2 26.88 
" style="fill: none; stroke: #000000; stroke-width: 0.8; stroke-linejoin: miter; stroke-linecap: square"/>
   </g>
   <g id="text_15">
    <!-- Average HTTP Request Duration (log scale) -->
    <g transform="translate(394.420405 20.88) scale(0.12 -0.12)">
     <defs>
      <path id="DejaVuSans-48" d="M 628 4666 
L 1259 4666 
L 1259 2753 
L 3553 2753 
L 3553 4666 
L 4184 4666 
L 4184 0 
L 3553 0 
L 3553 2222 
L 1259 2222 
L 1259 0 
L 628 0 
L 628 4666 
z
" transform="scale(0.015625)"/>
      <path id="DejaVuSans-50" d="M 1259 4147 
L 1259 2394 
L 2053 2394 
Q 2494 2394 2734 2622 
Q 2975 2850 2975 3272 
Q 2975 3691 2734 3919 
Q 2494 4147 2053 4147 
L 1259 4147 
z
M 628 4666 
L 2053 4666 
Q 2838 4666 3239 4311 
Q 3641 3956 3641 3272 
Q 3641 2581 3239 2228 
Q 2838 1875 2053 1875 
L 1259 1875 
L 1259 0 
L 628 0 
L 628 4666 
z
" transform="scale(0.015625)"/>
      <path id="DejaVuSans-52" d="M 2841 2188 
Q 3044 2119 3236 1894 
Q 3428 1669 3622 1275 
L 4263 0 
L 3584 0 
L 2988 1197 
Q 2756 1666 2539 1819 
Q 2322 1972 1947 1972 
L 1259 1972 
L 1259 0 
L 628 0 
L 628 4666 
L 2053 4666 
Q 2853 4666 3247 4331 
Q 3641 3997 3641 3322 
Q 3641 2881 3436 2590 
Q 3231 2300 2841 2188 
z
M 1259 4147 
L 1259 2491 
L 2053 2491 
Q 2509 2491 2742 2702 
Q 2975 2913 2975 3322 
Q 2975 3731 2742 3939 
Q 2509 4147 2053 4147 
L 1259 4147 
z
" transform="scale(0.015625)"/>
      <path id="DejaVuSans-71" d="M 947 1747 
Q 947 1113 1208 752 
Q 1469 391 1925 391 
Q 2381 391 2643 752 
Q 2906 1113 2906 1747 
Q 2906 2381 2643 2742 
Q 2381 3103 1925 3103 
Q 1469 3103 1208 2742 
Q 947 2381 947 1747 
z
M 2906 525 
Q 2725 213 2448 61 
Q 2172 -91 1784 -91 
Q 1150 -91 751 415 
Q 353 922 353 1747 
Q 353 2572 751 3078 
Q 1150 3584 1784 3584 
Q 2172 3584 2448 3432 
Q 2725 3281 2906 2969 
L 2906 3500 
L 3481 3500 
L 3481 -1331 
L 2906 -1331 
L 2906 525 
z
" transform="scale(0.015625)"/>
      <path id="DejaVuSans-6c" d="M 603 4863 
L 1178 4863 
L 1178 0 
L 603 0 
L 603 4863 
z
" transform="scale(0.015625)"/>
     </defs>
     <use xlink:href="#DejaVuSans-41"/>
     <use xlink:href="#DejaVuSans-76" transform="translate(62.533203 0)"/>
     <use xlink:href="#DejaVuSans-65" transform="translate(121.712891 0)"/>
     <use xlink:href="#DejaVuSans-72" transform="translate(183.236328 0)"/>
     <use xlink:href="#DejaVuSans-61" transform="translate(224.349609 0)"/>
     <use xlink:href="#DejaVuSans-67" transform="translate(285.628906 0)"/>
     <use xlink:href="#DejaVuSans-65" transform="translate(349.105469 0)"/>
     <use xlink:href="#DejaVuSans-20" transform="translate(410.628906 0)"/>
     <use xlink:href="#DejaVuSans-48" transform="translate(442.416016 0)"/>
     <use xlink:href="#DejaVuSans-54" transform="translate(517.611328 0)"/>
     <use xlink:href="#DejaVuSans-54" transform="translate(576.945312 0)"/>
     <use xlink:href="#DejaVuSans-50" transform="translate(638.029297 0)"/>
     <use xlink:href="#DejaVuSans-20" transform="translate(698.332031 0)"/>
     <use xlink:href="#DejaVuSans-52" transform="translate(730.119141 0)"/>
     <use xlink:href="#DejaVuSans-65" transform="translate(795.101562 0)"/>
     <use xlink:href="#DejaVuSans-71" transform="translate(856.625 0)"/>
     <use xlink:href="#DejaVuSans-75" transform="translate(920.101562 0)"/>
     <use xlink:href="#DejaVuSans-65" transform="translate(983.480469 0)"/>
     <use xlink:href="#DejaVuSans-73" transform="translate(1045.003906 0)"/>
     <use xlink:href="#DejaVuSans-74" transform="translate(1097.103516 0)"/>
     <use xlink:href="#DejaVuSans-20" transform="translate(1136.3125 0)"/>
     <use xlink:href="#DejaVuSans-44" transform="translate(1168.099609 0)"/>
     <use xlink:href="#DejaVuSans-75" transform="translate(1245.101562 0)"/>
     <use xlink:href="#DejaVuSans-72" transform="translate(1308.480469 0)"/>
     <use xlink:href="#DejaVuSans-61" transform="translate(1349.59375 0)"/>
     <use xlink:href="#DejaVuSans-74" transform="translate(1410.873047 0)"/>
     <use xlink:href="#DejaVuSans-69" transform="translate(1450.082031 0)"/>
     <use xlink:href="#DejaVuSans-6f" transform="translate(1477.865234 0)"/>
     <use xlink:href="#DejaVuSans-6e" transform="translate(1539.046875 0)"/>
     <use xlink:href="#DejaVuSans-20" transform="translate(1602.425781 0)"/>
     <use xlink:href="#DejaVuSans-28" transform="translate(1634.212891 0)"/>
     <use xlink:href="#DejaVuSans-6c" transform="translate(1673.226562 0)"/>
     <use xlink:href="#DejaVuSans-6f" transform="translate(1701.009766 0)"/>
     <use xlink:href="#DejaVuSans-67" transform="translate(1762.191406 0)"/>
     <use xlink:href="#DejaVuSans-20" transform="translate(1825.667969 0)"/>
     <use xlink:href="#DejaVuSans-73" transform="translate(1857.455078 0)"/>
     <use xlink:href="#DejaVuSans-63" transform="translate(1909.554688 0)"/>
     <use xlink:href="#DejaVuSans-61" transform="translate(1964.535156 0)"/>
     <use xlink:href="#DejaVuSans-6c" transform="translate(2025.814453 0)"/>
     <use xlink:href="#DejaVuSans-65" transform="translate(2053.597656 0)"/>
     <use xlink:href="#DejaVuSans-29" transform="translate(2115.121094 0)"/>
    </g>
   </g>
   <g id="legend_1">
    <g id="patch_7">
     <path d="M 456.996967 241.04 
L 590.340717 241.04 
Q 592.340717 241.04 592.340717 239.04 
L 592.340717 196.005625 
Q 592.340717 194.005625 590.340717 194.005625 
L 456.996967 194.005625 
Q 454.996967 194.005625 454.996967 196.005625 
L 454.996967 239.04 
Q 454.996967 241.04 456.996967 241.04 
z
" style="fill: #ffffff; opacity: 0.8; stroke: #cccccc; stroke-linejoin: miter"/>
    </g>
    <g id="line2d_46">
     <path d="M 458.996967 202.104062 
L 468.996967 202.104062 
L 478.996967 202.104062 
" style="fill: none; stroke: #1f77b4; stroke-width: 1.5; stroke-linecap: square"/>
    </g>
    <g id="text_16">
     <!-- Single Large Results -->
     <g transform="translate(486.996967 205.604062) scale(0.1 -0.1)">
      <defs>
       <path id="DejaVuSans-4c" d="M 628 4666 
L 1259 4666 
L 1259 531 
L 3531 531 
L 3531 0 
L 628 0 
L 628 4666 
z
" transform="scale(0.015625)"/>
      </defs>
      <use xlink:href="#DejaVuSans-53"/>
      <use xlink:href="#DejaVuSans-69" transform="translate(63.476562 0)"/>
      <use xlink:href="#DejaVuSans-6e" transform="translate(91.259766 0)"/>
      <use xlink:href="#DejaVuSans-67" transform="translate(154.638672 0)"/>
      <use xlink:href="#DejaVuSans-6c" transform="translate(218.115234 0)"/>
      <use xlink:href="#DejaVuSans-65" transform="translate(245.898438 0)"/>
      <use xlink:href="#DejaVuSans-20" transform="translate(307.421875 0)"/>
      <use xlink:href="#DejaVuSans-4c" transform="translate(339.208984 0)"/>
      <use xlink:href="#DejaVuSans-61" transform="translate(394.921875 0)"/>
      <use xlink:href="#DejaVuSans-72" transform="translate(456.201172 0)"/>
      <use xlink:href="#DejaVuSans-67" transform="translate(495.564453 0)"/>
      <use xlink:href="#DejaVuSans-65" transform="translate(559.041016 0)"/>
      <use xlink:href="#DejaVuSans-20" transform="translate(620.564453 0)"/>
      <use xlink:href="#DejaVuSans-52" transform="translate(652.351562 0)"/>
      <use xlink:href="#DejaVuSans-65" transform="translate(717.333984 0)"/>
      <use xlink:href="#DejaVuSans-73" transform="translate(778.857422 0)"/>
      <use xlink:href="#DejaVuSans-75" transform="translate(830.957031 0)"/>
      <use xlink:href="#DejaVuSans-6c" transform="translate(894.335938 0)"/>
      <use xlink:href="#DejaVuSans-74" transform="translate(922.119141 0)"/>
      <use xlink:href="#DejaVuSans-73" transform="translate(961.328125 0)"/>
     </g>
    </g>
    <g id="line2d_47">
     <path d="M 458.996967 216.782187 
L 468.996967 216.782187 
L 478.996967 216.782187 
" style="fill: none; stroke: #ff7f0e; stroke-width: 1.5; stroke-linecap: square"/>
    </g>
    <g id="text_17">
     <!-- Single Small Results -->
     <g transform="translate(486.996967 220.282187) scale(0.1 -0.1)">
      <use xlink:href="#DejaVuSans-53"/>
      <use xlink:href="#DejaVuSans-69" transform="translate(63.476562 0)"/>
      <use xlink:href="#DejaVuSans-6e" transform="translate(91.259766 0)"/>
      <use xlink:href="#DejaVuSans-67" transform="translate(154.638672 0)"/>
      <use xlink:href="#DejaVuSans-6c" transform="translate(218.115234 0)"/>
      <use xlink:href="#DejaVuSans-65" transform="translate(245.898438 0)"/>
      <use xlink:href="#DejaVuSans-20" transform="translate(307.421875 0)"/>
      <use xlink:href="#DejaVuSans-53" transform="translate(339.208984 0)"/>
      <use xlink:href="#DejaVuSans-6d" transform="translate(402.685547 0)"/>
      <use xlink:href="#DejaVuSans-61" transform="translate(500.097656 0)"/>
      <use xlink:href="#DejaVuSans-6c" transform="translate(561.376953 0)"/>
      <use xlink:href="#DejaVuSans-6c" transform="translate(589.160156 0)"/>
      <use xlink:href="#DejaVuSans-20" transform="translate(616.943359 0)"/>
      <use xlink:href="#DejaVuSans-52" transform="translate(648.730469 0)"/>
      <use xlink:href="#DejaVuSans-65" transform="translate(713.712891 0)"/>
      <use xlink:href="#DejaVuSans-73" transform="translate(775.236328 0)"/>
      <use xlink:href="#DejaVuSans-75" transform="translate(827.335938 0)"/>
      <use xlink:href="#DejaVuSans-6c" transform="translate(890.714844 0)"/>
      <use xlink:href="#DejaVuSans-74" transform="translate(918.498047 0)"/>
      <use xlink:href="#DejaVuSans-73" transform="translate(957.707031 0)"/>
     </g>
    </g>
    <g id="line2d_48">
     <path d="M 458.996967 231.460312 
L 468.996967 231.460312 
L 478.996967 231.460312 
" style="fill: none; stroke: #2ca02c; stroke-width: 1.5; stroke-linecap: square"/>
    </g>
    <g id="text_18">
     <!-- Multi Results -->
     <g transform="translate(486.996967 234.960312) scale(0.1 -0.1)">
      <defs>
       <path id="DejaVuSans-4d" d="M 628 4666 
L 1569 4666 
L 2759 1491 
L 3956 4666 
L 4897 4666 
L 4897 0 
L 4281 0 
L 4281 4097 
L 3078 897 
L 2444 897 
L 1241 4097 
L 1241 0 
L 628 0 
L 628 4666 
z
" transform="scale(0.015625)"/>
      </defs>
      <use xlink:href="#DejaVuSans-4d"/>
      <use xlink:href="#DejaVuSans-75" transform="translate(86.279297 0)"/>
      <use xlink:href="#DejaVuSans-6c" transform="translate(149.658203 0)"/>
      <use xlink:href="#DejaVuSans-74" transform="translate(177.441406 0)"/>
      <use xlink:href="#DejaVuSans-69" transform="translate(216.650391 0)"/>
      <use xlink:href="#DejaVuSans-20" transform="translate(244.433594 0)"/>
      <use xlink:href="#DejaVuSans-52" transform="translate(276.220703 0)"/>
      <use xlink:href="#DejaVuSans-65" transform="translate(341.203125 0)"/>
      <use xlink:href="#DejaVuSans-73" transform="translate(402.726562 0)"/>
      <use xlink:href="#DejaVuSans-75" transform="translate(454.826172 0)"/>
      <use xlink:href="#DejaVuSans-6c" transform="translate(518.205078 0)"/>
      <use xlink:href="#DejaVuSans-74" transform="translate(545.988281 0)"/>
      <use xlink:href="#DejaVuSans-73" transform="translate(585.197266 0)"/>
     </g>
    </g>
   </g>
  </g>
 </g>
 <defs>
  <clipPath id="p371a66c749">
   <rect x="50.137685" y="26.88" width="947.062315" height="219.16"/>
  </clipPath>
 </defs>
</svg>
