<?xml version="1.0" encoding="utf-8" standalone="no"?>
<!DOCTYPE svg PUBLIC "-//W3C//DTD SVG 1.1//EN"
  "http://www.w3.org/Graphics/SVG/1.1/DTD/svg11.dtd">
<svg xmlns:xlink="http://www.w3.org/1999/xlink" width="864pt" height="432pt" viewBox="0 0 864 432" xmlns="http://www.w3.org/2000/svg" version="1.1">
 <metadata>
  <rdf:RDF xmlns:dc="http://purl.org/dc/elements/1.1/" xmlns:cc="http://creativecommons.org/ns#" xmlns:rdf="http://www.w3.org/1999/02/22-rdf-syntax-ns#">
   <cc:Work>
    <dc:type rdf:resource="http://purl.org/dc/dcmitype/StillImage"/>
    <dc:date>2025-05-31T16:14:46.501427</dc:date>
    <dc:format>image/svg+xml</dc:format>
    <dc:creator>
     <cc:Agent>
      <dc:title>Matplotlib v3.10.1, https://matplotlib.org/</dc:title>
     </cc:Agent>
    </dc:creator>
   </cc:Work>
  </rdf:RDF>
 </metadata>
 <defs>
  <style type="text/css">*{stroke-linejoin: round; stroke-linecap: butt}</style>
 </defs>
 <g id="figure_1">
  <g id="patch_1">
   <path d="M 0 432 
L 864 432 
L 864 0 
L 0 0 
z
" style="fill: #ffffff"/>
  </g>
  <g id="axes_1">
   <g id="patch_2">
    <path d="M 50.137685 390.04 
L 853.2 390.04 
L 853.2 41.856 
L 50.137685 41.856 
z
" style="fill: #ffffff"/>
   </g>
   <g id="matplotlib.axis_1">
    <g id="xtick_1">
     <g id="line2d_1">
      <defs>
       <path id="me269b5de9a" d="M 0 0 
L 0 3.5 
" style="stroke: #000000; stroke-width: 0.8"/>
      </defs>
      <g>
       <use xlink:href="#me269b5de9a" x="86.640517" y="390.04" style="stroke: #000000; stroke-width: 0.8"/>
      </g>
     </g>
     <g id="text_1">
      <!-- 0 -->
      <g transform="translate(83.459267 404.638438) scale(0.1 -0.1)">
       <defs>
        <path id="DejaVuSans-30" d="M 2034 4250 
Q 1547 4250 1301 3770 
Q 1056 3291 1056 2328 
Q 1056 1369 1301 889 
Q 1547 409 2034 409 
Q 2525 409 2770 889 
Q 3016 1369 3016 2328 
Q 3016 3291 2770 3770 
Q 2525 4250 2034 4250 
z
M 2034 4750 
Q 2819 4750 3233 4129 
Q 3647 3509 3647 2328 
Q 3647 1150 3233 529 
Q 2819 -91 2034 -91 
Q 1250 -91 836 529 
Q 422 1150 422 2328 
Q 422 3509 836 4129 
Q 1250 4750 2034 4750 
z
" transform="scale(0.015625)"/>
       </defs>
       <use xlink:href="#DejaVuSans-30"/>
      </g>
     </g>
    </g>
    <g id="xtick_2">
     <g id="line2d_2">
      <g>
       <use xlink:href="#me269b5de9a" x="232.663408" y="390.04" style="stroke: #000000; stroke-width: 0.8"/>
      </g>
     </g>
     <g id="text_2">
      <!-- 20 -->
      <g transform="translate(226.300908 404.638438) scale(0.1 -0.1)">
       <defs>
        <path id="DejaVuSans-32" d="M 1228 531 
L 3431 531 
L 3431 0 
L 469 0 
L 469 531 
Q 828 903 1448 1529 
Q 2069 2156 2228 2338 
Q 2531 2678 2651 2914 
Q 2772 3150 2772 3378 
Q 2772 3750 2511 3984 
Q 2250 4219 1831 4219 
Q 1534 4219 1204 4116 
Q 875 4013 500 3803 
L 500 4441 
Q 881 4594 1212 4672 
Q 1544 4750 1819 4750 
Q 2544 4750 2975 4387 
Q 3406 4025 3406 3419 
Q 3406 3131 3298 2873 
Q 3191 2616 2906 2266 
Q 2828 2175 2409 1742 
Q 1991 1309 1228 531 
z
" transform="scale(0.015625)"/>
       </defs>
       <use xlink:href="#DejaVuSans-32"/>
       <use xlink:href="#DejaVuSans-30" transform="translate(63.623047 0)"/>
      </g>
     </g>
    </g>
    <g id="xtick_3">
     <g id="line2d_3">
      <g>
       <use xlink:href="#me269b5de9a" x="378.686299" y="390.04" style="stroke: #000000; stroke-width: 0.8"/>
      </g>
     </g>
     <g id="text_3">
      <!-- 40 -->
      <g transform="translate(372.323799 404.638438) scale(0.1 -0.1)">
       <defs>
        <path id="DejaVuSans-34" d="M 2419 4116 
L 825 1625 
L 2419 1625 
L 2419 4116 
z
M 2253 4666 
L 3047 4666 
L 3047 1625 
L 3713 1625 
L 3713 1100 
L 3047 1100 
L 3047 0 
L 2419 0 
L 2419 1100 
L 313 1100 
L 313 1709 
L 2253 4666 
z
" transform="scale(0.015625)"/>
       </defs>
       <use xlink:href="#DejaVuSans-34"/>
       <use xlink:href="#DejaVuSans-30" transform="translate(63.623047 0)"/>
      </g>
     </g>
    </g>
    <g id="xtick_4">
     <g id="line2d_4">
      <g>
       <use xlink:href="#me269b5de9a" x="524.709189" y="390.04" style="stroke: #000000; stroke-width: 0.8"/>
      </g>
     </g>
     <g id="text_4">
      <!-- 60 -->
      <g transform="translate(518.346689 404.638438) scale(0.1 -0.1)">
       <defs>
        <path id="DejaVuSans-36" d="M 2113 2584 
Q 1688 2584 1439 2293 
Q 1191 2003 1191 1497 
Q 1191 994 1439 701 
Q 1688 409 2113 409 
Q 2538 409 2786 701 
Q 3034 994 3034 1497 
Q 3034 2003 2786 2293 
Q 2538 2584 2113 2584 
z
M 3366 4563 
L 3366 3988 
Q 3128 4100 2886 4159 
Q 2644 4219 2406 4219 
Q 1781 4219 1451 3797 
Q 1122 3375 1075 2522 
Q 1259 2794 1537 2939 
Q 1816 3084 2150 3084 
Q 2853 3084 3261 2657 
Q 3669 2231 3669 1497 
Q 3669 778 3244 343 
Q 2819 -91 2113 -91 
Q 1303 -91 875 529 
Q 447 1150 447 2328 
Q 447 3434 972 4092 
Q 1497 4750 2381 4750 
Q 2619 4750 2861 4703 
Q 3103 4656 3366 4563 
z
" transform="scale(0.015625)"/>
       </defs>
       <use xlink:href="#DejaVuSans-36"/>
       <use xlink:href="#DejaVuSans-30" transform="translate(63.623047 0)"/>
      </g>
     </g>
    </g>
    <g id="xtick_5">
     <g id="line2d_5">
      <g>
       <use xlink:href="#me269b5de9a" x="670.73208" y="390.04" style="stroke: #000000; stroke-width: 0.8"/>
      </g>
     </g>
     <g id="text_5">
      <!-- 80 -->
      <g transform="translate(664.36958 404.638438) scale(0.1 -0.1)">
       <defs>
        <path id="DejaVuSans-38" d="M 2034 2216 
Q 1584 2216 1326 1975 
Q 1069 1734 1069 1313 
Q 1069 891 1326 650 
Q 1584 409 2034 409 
Q 2484 409 2743 651 
Q 3003 894 3003 1313 
Q 3003 1734 2745 1975 
Q 2488 2216 2034 2216 
z
M 1403 2484 
Q 997 2584 770 2862 
Q 544 3141 544 3541 
Q 544 4100 942 4425 
Q 1341 4750 2034 4750 
Q 2731 4750 3128 4425 
Q 3525 4100 3525 3541 
Q 3525 3141 3298 2862 
Q 3072 2584 2669 2484 
Q 3125 2378 3379 2068 
Q 3634 1759 3634 1313 
Q 3634 634 3220 271 
Q 2806 -91 2034 -91 
Q 1263 -91 848 271 
Q 434 634 434 1313 
Q 434 1759 690 2068 
Q 947 2378 1403 2484 
z
M 1172 3481 
Q 1172 3119 1398 2916 
Q 1625 2713 2034 2713 
Q 2441 2713 2670 2916 
Q 2900 3119 2900 3481 
Q 2900 3844 2670 4047 
Q 2441 4250 2034 4250 
Q 1625 4250 1398 4047 
Q 1172 3844 1172 3481 
z
" transform="scale(0.015625)"/>
       </defs>
       <use xlink:href="#DejaVuSans-38"/>
       <use xlink:href="#DejaVuSans-30" transform="translate(63.623047 0)"/>
      </g>
     </g>
    </g>
    <g id="xtick_6">
     <g id="line2d_6">
      <g>
       <use xlink:href="#me269b5de9a" x="816.754971" y="390.04" style="stroke: #000000; stroke-width: 0.8"/>
      </g>
     </g>
     <g id="text_6">
      <!-- 100 -->
      <g transform="translate(807.211221 404.638438) scale(0.1 -0.1)">
       <defs>
        <path id="DejaVuSans-31" d="M 794 531 
L 1825 531 
L 1825 4091 
L 703 3866 
L 703 4441 
L 1819 4666 
L 2450 4666 
L 2450 531 
L 3481 531 
L 3481 0 
L 794 0 
L 794 531 
z
" transform="scale(0.015625)"/>
       </defs>
       <use xlink:href="#DejaVuSans-31"/>
       <use xlink:href="#DejaVuSans-30" transform="translate(63.623047 0)"/>
       <use xlink:href="#DejaVuSans-30" transform="translate(127.246094 0)"/>
      </g>
     </g>
    </g>
    <g id="text_7">
     <!-- Percentile (%) -->
     <g transform="translate(416.764936 418.316562) scale(0.1 -0.1)">
      <defs>
       <path id="DejaVuSans-50" d="M 1259 4147 
L 1259 2394 
L 2053 2394 
Q 2494 2394 2734 2622 
Q 2975 2850 2975 3272 
Q 2975 3691 2734 3919 
Q 2494 4147 2053 4147 
L 1259 4147 
z
M 628 4666 
L 2053 4666 
Q 2838 4666 3239 4311 
Q 3641 3956 3641 3272 
Q 3641 2581 3239 2228 
Q 2838 1875 2053 1875 
L 1259 1875 
L 1259 0 
L 628 0 
L 628 4666 
z
" transform="scale(0.015625)"/>
       <path id="DejaVuSans-65" d="M 3597 1894 
L 3597 1613 
L 953 1613 
Q 991 1019 1311 708 
Q 1631 397 2203 397 
Q 2534 397 2845 478 
Q 3156 559 3463 722 
L 3463 178 
Q 3153 47 2828 -22 
Q 2503 -91 2169 -91 
Q 1331 -91 842 396 
Q 353 884 353 1716 
Q 353 2575 817 3079 
Q 1281 3584 2069 3584 
Q 2775 3584 3186 3129 
Q 3597 2675 3597 1894 
z
M 3022 2063 
Q 3016 2534 2758 2815 
Q 2500 3097 2075 3097 
Q 1594 3097 1305 2825 
Q 1016 2553 972 2059 
L 3022 2063 
z
" transform="scale(0.015625)"/>
       <path id="DejaVuSans-72" d="M 2631 2963 
Q 2534 3019 2420 3045 
Q 2306 3072 2169 3072 
Q 1681 3072 1420 2755 
Q 1159 2438 1159 1844 
L 1159 0 
L 581 0 
L 581 3500 
L 1159 3500 
L 1159 2956 
Q 1341 3275 1631 3429 
Q 1922 3584 2338 3584 
Q 2397 3584 2469 3576 
Q 2541 3569 2628 3553 
L 2631 2963 
z
" transform="scale(0.015625)"/>
       <path id="DejaVuSans-63" d="M 3122 3366 
L 3122 2828 
Q 2878 2963 2633 3030 
Q 2388 3097 2138 3097 
Q 1578 3097 1268 2742 
Q 959 2388 959 1747 
Q 959 1106 1268 751 
Q 1578 397 2138 397 
Q 2388 397 2633 464 
Q 2878 531 3122 666 
L 3122 134 
Q 2881 22 2623 -34 
Q 2366 -91 2075 -91 
Q 1284 -91 818 406 
Q 353 903 353 1747 
Q 353 2603 823 3093 
Q 1294 3584 2113 3584 
Q 2378 3584 2631 3529 
Q 2884 3475 3122 3366 
z
" transform="scale(0.015625)"/>
       <path id="DejaVuSans-6e" d="M 3513 2113 
L 3513 0 
L 2938 0 
L 2938 2094 
Q 2938 2591 2744 2837 
Q 2550 3084 2163 3084 
Q 1697 3084 1428 2787 
Q 1159 2491 1159 1978 
L 1159 0 
L 581 0 
L 581 3500 
L 1159 3500 
L 1159 2956 
Q 1366 3272 1645 3428 
Q 1925 3584 2291 3584 
Q 2894 3584 3203 3211 
Q 3513 2838 3513 2113 
z
" transform="scale(0.015625)"/>
       <path id="DejaVuSans-74" d="M 1172 4494 
L 1172 3500 
L 2356 3500 
L 2356 3053 
L 1172 3053 
L 1172 1153 
Q 1172 725 1289 603 
Q 1406 481 1766 481 
L 2356 481 
L 2356 0 
L 1766 0 
Q 1100 0 847 248 
Q 594 497 594 1153 
L 594 3053 
L 172 3053 
L 172 3500 
L 594 3500 
L 594 4494 
L 1172 4494 
z
" transform="scale(0.015625)"/>
       <path id="DejaVuSans-69" d="M 603 3500 
L 1178 3500 
L 1178 0 
L 603 0 
L 603 3500 
z
M 603 4863 
L 1178 4863 
L 1178 4134 
L 603 4134 
L 603 4863 
z
" transform="scale(0.015625)"/>
       <path id="DejaVuSans-6c" d="M 603 4863 
L 1178 4863 
L 1178 0 
L 603 0 
L 603 4863 
z
" transform="scale(0.015625)"/>
       <path id="DejaVuSans-20" transform="scale(0.015625)"/>
       <path id="DejaVuSans-28" d="M 1984 4856 
Q 1566 4138 1362 3434 
Q 1159 2731 1159 2009 
Q 1159 1288 1364 580 
Q 1569 -128 1984 -844 
L 1484 -844 
Q 1016 -109 783 600 
Q 550 1309 550 2009 
Q 550 2706 781 3412 
Q 1013 4119 1484 4856 
L 1984 4856 
z
" transform="scale(0.015625)"/>
       <path id="DejaVuSans-25" d="M 4653 2053 
Q 4381 2053 4226 1822 
Q 4072 1591 4072 1178 
Q 4072 772 4226 539 
Q 4381 306 4653 306 
Q 4919 306 5073 539 
Q 5228 772 5228 1178 
Q 5228 1588 5073 1820 
Q 4919 2053 4653 2053 
z
M 4653 2450 
Q 5147 2450 5437 2106 
Q 5728 1763 5728 1178 
Q 5728 594 5436 251 
Q 5144 -91 4653 -91 
Q 4153 -91 3862 251 
Q 3572 594 3572 1178 
Q 3572 1766 3864 2108 
Q 4156 2450 4653 2450 
z
M 1428 4353 
Q 1159 4353 1004 4120 
Q 850 3888 850 3481 
Q 850 3069 1003 2837 
Q 1156 2606 1428 2606 
Q 1700 2606 1854 2837 
Q 2009 3069 2009 3481 
Q 2009 3884 1853 4118 
Q 1697 4353 1428 4353 
z
M 4250 4750 
L 4750 4750 
L 1831 -91 
L 1331 -91 
L 4250 4750 
z
M 1428 4750 
Q 1922 4750 2215 4408 
Q 2509 4066 2509 3481 
Q 2509 2891 2217 2550 
Q 1925 2209 1428 2209 
Q 931 2209 642 2551 
Q 353 2894 353 3481 
Q 353 4063 643 4406 
Q 934 4750 1428 4750 
z
" transform="scale(0.015625)"/>
       <path id="DejaVuSans-29" d="M 513 4856 
L 1013 4856 
Q 1481 4119 1714 3412 
Q 1947 2706 1947 2009 
Q 1947 1309 1714 600 
Q 1481 -109 1013 -844 
L 513 -844 
Q 928 -128 1133 580 
Q 1338 1288 1338 2009 
Q 1338 2731 1133 3434 
Q 928 4138 513 4856 
z
" transform="scale(0.015625)"/>
      </defs>
      <use xlink:href="#DejaVuSans-50"/>
      <use xlink:href="#DejaVuSans-65" transform="translate(56.677734 0)"/>
      <use xlink:href="#DejaVuSans-72" transform="translate(118.201172 0)"/>
      <use xlink:href="#DejaVuSans-63" transform="translate(157.064453 0)"/>
      <use xlink:href="#DejaVuSans-65" transform="translate(212.044922 0)"/>
      <use xlink:href="#DejaVuSans-6e" transform="translate(273.568359 0)"/>
      <use xlink:href="#DejaVuSans-74" transform="translate(336.947266 0)"/>
      <use xlink:href="#DejaVuSans-69" transform="translate(376.15625 0)"/>
      <use xlink:href="#DejaVuSans-6c" transform="translate(403.939453 0)"/>
      <use xlink:href="#DejaVuSans-65" transform="translate(431.722656 0)"/>
      <use xlink:href="#DejaVuSans-20" transform="translate(493.246094 0)"/>
      <use xlink:href="#DejaVuSans-28" transform="translate(525.033203 0)"/>
      <use xlink:href="#DejaVuSans-25" transform="translate(564.046875 0)"/>
      <use xlink:href="#DejaVuSans-29" transform="translate(659.066406 0)"/>
     </g>
    </g>
   </g>
   <g id="matplotlib.axis_2">
    <g id="ytick_1">
     <g id="line2d_7">
      <defs>
       <path id="m04ebd30439" d="M 0 0 
L -3.5 0 
" style="stroke: #000000; stroke-width: 0.8"/>
      </defs>
      <g>
       <use xlink:href="#m04ebd30439" x="50.137685" y="298.289571" style="stroke: #000000; stroke-width: 0.8"/>
      </g>
     </g>
     <g id="text_8">
      <!-- $\mathdefault{10^{2}}$ -->
      <g transform="translate(25.537685 302.08879) scale(0.1 -0.1)">
       <use xlink:href="#DejaVuSans-31" transform="translate(0 0.765625)"/>
       <use xlink:href="#DejaVuSans-30" transform="translate(63.623047 0.765625)"/>
       <use xlink:href="#DejaVuSans-32" transform="translate(128.203125 39.046875) scale(0.7)"/>
      </g>
     </g>
    </g>
    <g id="ytick_2">
     <g id="line2d_8">
      <g>
       <use xlink:href="#m04ebd30439" x="50.137685" y="188.897862" style="stroke: #000000; stroke-width: 0.8"/>
      </g>
     </g>
     <g id="text_9">
      <!-- $\mathdefault{10^{3}}$ -->
      <g transform="translate(25.537685 192.697081) scale(0.1 -0.1)">
       <defs>
        <path id="DejaVuSans-33" d="M 2597 2516 
Q 3050 2419 3304 2112 
Q 3559 1806 3559 1356 
Q 3559 666 3084 287 
Q 2609 -91 1734 -91 
Q 1441 -91 1130 -33 
Q 819 25 488 141 
L 488 750 
Q 750 597 1062 519 
Q 1375 441 1716 441 
Q 2309 441 2620 675 
Q 2931 909 2931 1356 
Q 2931 1769 2642 2001 
Q 2353 2234 1838 2234 
L 1294 2234 
L 1294 2753 
L 1863 2753 
Q 2328 2753 2575 2939 
Q 2822 3125 2822 3475 
Q 2822 3834 2567 4026 
Q 2313 4219 1838 4219 
Q 1578 4219 1281 4162 
Q 984 4106 628 3988 
L 628 4550 
Q 988 4650 1302 4700 
Q 1616 4750 1894 4750 
Q 2613 4750 3031 4423 
Q 3450 4097 3450 3541 
Q 3450 3153 3228 2886 
Q 3006 2619 2597 2516 
z
" transform="scale(0.015625)"/>
       </defs>
       <use xlink:href="#DejaVuSans-31" transform="translate(0 0.765625)"/>
       <use xlink:href="#DejaVuSans-30" transform="translate(63.623047 0.765625)"/>
       <use xlink:href="#DejaVuSans-33" transform="translate(128.203125 39.046875) scale(0.7)"/>
      </g>
     </g>
    </g>
    <g id="ytick_3">
     <g id="line2d_9">
      <g>
       <use xlink:href="#m04ebd30439" x="50.137685" y="79.506153" style="stroke: #000000; stroke-width: 0.8"/>
      </g>
     </g>
     <g id="text_10">
      <!-- $\mathdefault{10^{4}}$ -->
      <g transform="translate(25.537685 83.305372) scale(0.1 -0.1)">
       <use xlink:href="#DejaVuSans-31" transform="translate(0 0.684375)"/>
       <use xlink:href="#DejaVuSans-30" transform="translate(63.623047 0.684375)"/>
       <use xlink:href="#DejaVuSans-34" transform="translate(128.203125 38.965625) scale(0.7)"/>
      </g>
     </g>
    </g>
    <g id="ytick_4">
     <g id="line2d_10">
      <defs>
       <path id="m3c20da4e2b" d="M 0 0 
L -2 0 
" style="stroke: #000000; stroke-width: 0.6"/>
      </defs>
      <g>
       <use xlink:href="#m3c20da4e2b" x="50.137685" y="374.751094" style="stroke: #000000; stroke-width: 0.6"/>
      </g>
     </g>
    </g>
    <g id="ytick_5">
     <g id="line2d_11">
      <g>
       <use xlink:href="#m3c20da4e2b" x="50.137685" y="355.48817" style="stroke: #000000; stroke-width: 0.6"/>
      </g>
     </g>
    </g>
    <g id="ytick_6">
     <g id="line2d_12">
      <g>
       <use xlink:href="#m3c20da4e2b" x="50.137685" y="341.820909" style="stroke: #000000; stroke-width: 0.6"/>
      </g>
     </g>
    </g>
    <g id="ytick_7">
     <g id="line2d_13">
      <g>
       <use xlink:href="#m3c20da4e2b" x="50.137685" y="331.219757" style="stroke: #000000; stroke-width: 0.6"/>
      </g>
     </g>
    </g>
    <g id="ytick_8">
     <g id="line2d_14">
      <g>
       <use xlink:href="#m3c20da4e2b" x="50.137685" y="322.557985" style="stroke: #000000; stroke-width: 0.6"/>
      </g>
     </g>
    </g>
    <g id="ytick_9">
     <g id="line2d_15">
      <g>
       <use xlink:href="#m3c20da4e2b" x="50.137685" y="315.234561" style="stroke: #000000; stroke-width: 0.6"/>
      </g>
     </g>
    </g>
    <g id="ytick_10">
     <g id="line2d_16">
      <g>
       <use xlink:href="#m3c20da4e2b" x="50.137685" y="308.890723" style="stroke: #000000; stroke-width: 0.6"/>
      </g>
     </g>
    </g>
    <g id="ytick_11">
     <g id="line2d_17">
      <g>
       <use xlink:href="#m3c20da4e2b" x="50.137685" y="303.295061" style="stroke: #000000; stroke-width: 0.6"/>
      </g>
     </g>
    </g>
    <g id="ytick_12">
     <g id="line2d_18">
      <g>
       <use xlink:href="#m3c20da4e2b" x="50.137685" y="265.359385" style="stroke: #000000; stroke-width: 0.6"/>
      </g>
     </g>
    </g>
    <g id="ytick_13">
     <g id="line2d_19">
      <g>
       <use xlink:href="#m3c20da4e2b" x="50.137685" y="246.096462" style="stroke: #000000; stroke-width: 0.6"/>
      </g>
     </g>
    </g>
    <g id="ytick_14">
     <g id="line2d_20">
      <g>
       <use xlink:href="#m3c20da4e2b" x="50.137685" y="232.4292" style="stroke: #000000; stroke-width: 0.6"/>
      </g>
     </g>
    </g>
    <g id="ytick_15">
     <g id="line2d_21">
      <g>
       <use xlink:href="#m3c20da4e2b" x="50.137685" y="221.828048" style="stroke: #000000; stroke-width: 0.6"/>
      </g>
     </g>
    </g>
    <g id="ytick_16">
     <g id="line2d_22">
      <g>
       <use xlink:href="#m3c20da4e2b" x="50.137685" y="213.166276" style="stroke: #000000; stroke-width: 0.6"/>
      </g>
     </g>
    </g>
    <g id="ytick_17">
     <g id="line2d_23">
      <g>
       <use xlink:href="#m3c20da4e2b" x="50.137685" y="205.842852" style="stroke: #000000; stroke-width: 0.6"/>
      </g>
     </g>
    </g>
    <g id="ytick_18">
     <g id="line2d_24">
      <g>
       <use xlink:href="#m3c20da4e2b" x="50.137685" y="199.499014" style="stroke: #000000; stroke-width: 0.6"/>
      </g>
     </g>
    </g>
    <g id="ytick_19">
     <g id="line2d_25">
      <g>
       <use xlink:href="#m3c20da4e2b" x="50.137685" y="193.903352" style="stroke: #000000; stroke-width: 0.6"/>
      </g>
     </g>
    </g>
    <g id="ytick_20">
     <g id="line2d_26">
      <g>
       <use xlink:href="#m3c20da4e2b" x="50.137685" y="155.967676" style="stroke: #000000; stroke-width: 0.6"/>
      </g>
     </g>
    </g>
    <g id="ytick_21">
     <g id="line2d_27">
      <g>
       <use xlink:href="#m3c20da4e2b" x="50.137685" y="136.704753" style="stroke: #000000; stroke-width: 0.6"/>
      </g>
     </g>
    </g>
    <g id="ytick_22">
     <g id="line2d_28">
      <g>
       <use xlink:href="#m3c20da4e2b" x="50.137685" y="123.037491" style="stroke: #000000; stroke-width: 0.6"/>
      </g>
     </g>
    </g>
    <g id="ytick_23">
     <g id="line2d_29">
      <g>
       <use xlink:href="#m3c20da4e2b" x="50.137685" y="112.436339" style="stroke: #000000; stroke-width: 0.6"/>
      </g>
     </g>
    </g>
    <g id="ytick_24">
     <g id="line2d_30">
      <g>
       <use xlink:href="#m3c20da4e2b" x="50.137685" y="103.774567" style="stroke: #000000; stroke-width: 0.6"/>
      </g>
     </g>
    </g>
    <g id="ytick_25">
     <g id="line2d_31">
      <g>
       <use xlink:href="#m3c20da4e2b" x="50.137685" y="96.451143" style="stroke: #000000; stroke-width: 0.6"/>
      </g>
     </g>
    </g>
    <g id="ytick_26">
     <g id="line2d_32">
      <g>
       <use xlink:href="#m3c20da4e2b" x="50.137685" y="90.107305" style="stroke: #000000; stroke-width: 0.6"/>
      </g>
     </g>
    </g>
    <g id="ytick_27">
     <g id="line2d_33">
      <g>
       <use xlink:href="#m3c20da4e2b" x="50.137685" y="84.511643" style="stroke: #000000; stroke-width: 0.6"/>
      </g>
     </g>
    </g>
    <g id="ytick_28">
     <g id="line2d_34">
      <g>
       <use xlink:href="#m3c20da4e2b" x="50.137685" y="46.575968" style="stroke: #000000; stroke-width: 0.6"/>
      </g>
     </g>
    </g>
    <g id="text_11">
     <!-- Duration (ms) -->
     <g transform="translate(19.457997 250.62925) rotate(-90) scale(0.1 -0.1)">
      <defs>
       <path id="DejaVuSans-44" d="M 1259 4147 
L 1259 519 
L 2022 519 
Q 2988 519 3436 956 
Q 3884 1394 3884 2338 
Q 3884 3275 3436 3711 
Q 2988 4147 2022 4147 
L 1259 4147 
z
M 628 4666 
L 1925 4666 
Q 3281 4666 3915 4102 
Q 4550 3538 4550 2338 
Q 4550 1131 3912 565 
Q 3275 0 1925 0 
L 628 0 
L 628 4666 
z
" transform="scale(0.015625)"/>
       <path id="DejaVuSans-75" d="M 544 1381 
L 544 3500 
L 1119 3500 
L 1119 1403 
Q 1119 906 1312 657 
Q 1506 409 1894 409 
Q 2359 409 2629 706 
Q 2900 1003 2900 1516 
L 2900 3500 
L 3475 3500 
L 3475 0 
L 2900 0 
L 2900 538 
Q 2691 219 2414 64 
Q 2138 -91 1772 -91 
Q 1169 -91 856 284 
Q 544 659 544 1381 
z
M 1991 3584 
L 1991 3584 
z
" transform="scale(0.015625)"/>
       <path id="DejaVuSans-61" d="M 2194 1759 
Q 1497 1759 1228 1600 
Q 959 1441 959 1056 
Q 959 750 1161 570 
Q 1363 391 1709 391 
Q 2188 391 2477 730 
Q 2766 1069 2766 1631 
L 2766 1759 
L 2194 1759 
z
M 3341 1997 
L 3341 0 
L 2766 0 
L 2766 531 
Q 2569 213 2275 61 
Q 1981 -91 1556 -91 
Q 1019 -91 701 211 
Q 384 513 384 1019 
Q 384 1609 779 1909 
Q 1175 2209 1959 2209 
L 2766 2209 
L 2766 2266 
Q 2766 2663 2505 2880 
Q 2244 3097 1772 3097 
Q 1472 3097 1187 3025 
Q 903 2953 641 2809 
L 641 3341 
Q 956 3463 1253 3523 
Q 1550 3584 1831 3584 
Q 2591 3584 2966 3190 
Q 3341 2797 3341 1997 
z
" transform="scale(0.015625)"/>
       <path id="DejaVuSans-6f" d="M 1959 3097 
Q 1497 3097 1228 2736 
Q 959 2375 959 1747 
Q 959 1119 1226 758 
Q 1494 397 1959 397 
Q 2419 397 2687 759 
Q 2956 1122 2956 1747 
Q 2956 2369 2687 2733 
Q 2419 3097 1959 3097 
z
M 1959 3584 
Q 2709 3584 3137 3096 
Q 3566 2609 3566 1747 
Q 3566 888 3137 398 
Q 2709 -91 1959 -91 
Q 1206 -91 779 398 
Q 353 888 353 1747 
Q 353 2609 779 3096 
Q 1206 3584 1959 3584 
z
" transform="scale(0.015625)"/>
       <path id="DejaVuSans-6d" d="M 3328 2828 
Q 3544 3216 3844 3400 
Q 4144 3584 4550 3584 
Q 5097 3584 5394 3201 
Q 5691 2819 5691 2113 
L 5691 0 
L 5113 0 
L 5113 2094 
Q 5113 2597 4934 2840 
Q 4756 3084 4391 3084 
Q 3944 3084 3684 2787 
Q 3425 2491 3425 1978 
L 3425 0 
L 2847 0 
L 2847 2094 
Q 2847 2600 2669 2842 
Q 2491 3084 2119 3084 
Q 1678 3084 1418 2786 
Q 1159 2488 1159 1978 
L 1159 0 
L 581 0 
L 581 3500 
L 1159 3500 
L 1159 2956 
Q 1356 3278 1631 3431 
Q 1906 3584 2284 3584 
Q 2666 3584 2933 3390 
Q 3200 3197 3328 2828 
z
" transform="scale(0.015625)"/>
       <path id="DejaVuSans-73" d="M 2834 3397 
L 2834 2853 
Q 2591 2978 2328 3040 
Q 2066 3103 1784 3103 
Q 1356 3103 1142 2972 
Q 928 2841 928 2578 
Q 928 2378 1081 2264 
Q 1234 2150 1697 2047 
L 1894 2003 
Q 2506 1872 2764 1633 
Q 3022 1394 3022 966 
Q 3022 478 2636 193 
Q 2250 -91 1575 -91 
Q 1294 -91 989 -36 
Q 684 19 347 128 
L 347 722 
Q 666 556 975 473 
Q 1284 391 1588 391 
Q 1994 391 2212 530 
Q 2431 669 2431 922 
Q 2431 1156 2273 1281 
Q 2116 1406 1581 1522 
L 1381 1569 
Q 847 1681 609 1914 
Q 372 2147 372 2553 
Q 372 3047 722 3315 
Q 1072 3584 1716 3584 
Q 2034 3584 2315 3537 
Q 2597 3491 2834 3397 
z
" transform="scale(0.015625)"/>
      </defs>
      <use xlink:href="#DejaVuSans-44"/>
      <use xlink:href="#DejaVuSans-75" transform="translate(77.001953 0)"/>
      <use xlink:href="#DejaVuSans-72" transform="translate(140.380859 0)"/>
      <use xlink:href="#DejaVuSans-61" transform="translate(181.494141 0)"/>
      <use xlink:href="#DejaVuSans-74" transform="translate(242.773438 0)"/>
      <use xlink:href="#DejaVuSans-69" transform="translate(281.982422 0)"/>
      <use xlink:href="#DejaVuSans-6f" transform="translate(309.765625 0)"/>
      <use xlink:href="#DejaVuSans-6e" transform="translate(370.947266 0)"/>
      <use xlink:href="#DejaVuSans-20" transform="translate(434.326172 0)"/>
      <use xlink:href="#DejaVuSans-28" transform="translate(466.113281 0)"/>
      <use xlink:href="#DejaVuSans-6d" transform="translate(505.126953 0)"/>
      <use xlink:href="#DejaVuSans-73" transform="translate(602.539062 0)"/>
      <use xlink:href="#DejaVuSans-29" transform="translate(654.638672 0)"/>
     </g>
    </g>
   </g>
   <g id="line2d_35">
    <path d="M 86.640517 374.213455 
L 87.160748 372.968083 
L 87.507568 372.852449 
L 87.796585 372.693985 
L 88.027798 372.59118 
L 88.432422 372.425614 
L 88.605832 372.230467 
L 89.530686 371.955674 
L 92.189641 371.179975 
L 93.519119 370.824981 
L 94.328366 370.592603 
L 95.311024 370.406454 
L 97.160732 369.802142 
L 97.623159 369.700293 
L 98.143389 369.587637 
L 103.80812 367.925128 
L 104.559564 367.750972 
L 104.906384 367.649464 
L 106.756092 367.259456 
L 107.623143 367.073477 
L 108.027767 366.900207 
L 108.721407 366.709182 
L 108.952621 366.650293 
L 110.224295 366.354193 
L 110.917936 366.235123 
L 111.495969 366.118492 
L 111.84279 366.057125 
L 112.88325 365.827341 
L 113.056661 365.702903 
L 113.519088 365.587863 
L 121.033527 363.544758 
L 121.380347 363.455207 
L 121.842774 363.268706 
L 122.247397 363.168347 
L 124.443926 362.448716 
L 125.426583 362.042273 
L 129.877443 360.580337 
L 130.108657 360.485852 
L 130.744494 360.421308 
L 130.917904 360.322188 
L 131.206921 360.206934 
L 131.611545 360.021644 
L 132.478595 359.689465 
L 132.652005 359.569302 
L 133.172236 359.311142 
L 133.345646 359.236366 
L 133.576859 359.155423 
L 133.865876 359.057706 
L 134.039286 358.994487 
L 134.328303 358.776661 
L 134.61732 358.732176 
L 134.79073 358.59093 
L 135.079747 358.374435 
L 135.253157 358.126692 
L 135.484371 357.991007 
L 135.715584 357.894411 
L 135.888994 357.675649 
L 137.334079 356.998942 
L 137.565292 356.638252 
L 137.854309 356.489784 
L 138.316736 356.258343 
L 138.89477 355.875264 
L 139.06818 355.812626 
L 139.472804 355.722322 
L 139.819624 355.513076 
L 140.397658 355.355796 
L 140.802281 355.137343 
L 141.033495 355.070166 
L 141.206905 354.942335 
L 141.495922 354.784621 
L 142.073956 354.475875 
L 142.651989 354.341662 
L 143.114417 354.022238 
L 143.461237 353.793898 
L 143.69245 353.644641 
L 143.86586 353.505765 
L 144.559501 353.071902 
L 144.964125 352.963098 
L 145.426552 352.534015 
L 145.542158 352.428633 
L 145.715568 352.300054 
L 146.062389 352.196619 
L 146.929439 351.518364 
L 147.334063 351.355311 
L 147.507473 351.171689 
L 147.912097 350.921045 
L 148.085507 350.829803 
L 149.010361 350.366385 
L 149.530591 350.152635 
L 149.704001 350.057087 
L 149.993018 349.929713 
L 151.033479 349.17012 
L 151.206889 349.047976 
L 151.438103 348.904005 
L 151.842726 348.558047 
L 152.478564 348.322682 
L 152.651974 348.108684 
L 152.998794 347.77632 
L 153.172204 347.746574 
L 153.403418 347.596615 
L 153.865845 347.442095 
L 154.212665 347.240473 
L 154.328272 347.159805 
L 154.501682 347.050491 
L 155.079716 346.769241 
L 155.599946 346.53424 
L 158.894738 343.872079 
L 159.241559 343.715803 
L 159.414969 343.510515 
L 159.646182 343.298969 
L 160.224216 342.801164 
L 160.62884 342.54114 
L 163.172188 341.09885 
L 163.345598 340.879853 
L 163.692419 340.731058 
L 163.865829 340.6349 
L 164.039239 340.407326 
L 164.443863 340.180581 
L 164.617273 340.004397 
L 165.137503 339.824193 
L 165.310913 339.573481 
L 165.94675 339.389181 
L 166.235767 339.26938 
L 166.871604 338.803737 
L 166.929408 338.78387 
L 167.102818 338.499086 
L 167.449638 338.371949 
L 168.085475 338.024955 
L 168.374492 337.904668 
L 168.547902 337.770808 
L 168.663509 337.714762 
L 168.836919 337.515225 
L 169.53056 337.065247 
L 169.70397 336.877026 
L 169.935183 336.690379 
L 170.571021 335.993297 
L 170.744431 335.752308 
L 170.917841 335.651014 
L 171.206858 335.304197 
L 171.842695 335.066245 
L 172.189515 334.852617 
L 172.420729 334.71294 
L 172.594139 334.44965 
L 172.709745 334.400846 
L 172.883156 334.023991 
L 173.403386 333.143659 
L 173.692403 332.956644 
L 174.212633 332.538524 
L 174.559454 332.368055 
L 175.021881 332.027658 
L 175.310897 331.795979 
L 176.987195 330.962659 
L 177.218409 330.670991 
L 177.391819 330.563752 
L 177.565229 330.232441 
L 177.623033 330.213961 
L 177.796443 329.901227 
L 178.143263 329.776689 
L 178.374476 329.478479 
L 178.490083 329.38548 
L 178.721297 329.097227 
L 178.836903 328.986342 
L 179.068117 328.760189 
L 179.703954 328.394088 
L 179.992971 328.276944 
L 180.108578 328.146999 
L 180.339791 327.941292 
L 180.860022 327.347164 
L 181.322449 327.19119 
L 181.380252 327.122766 
L 181.553662 326.778001 
L 181.958286 326.598495 
L 182.131696 326.424111 
L 182.362909 326.333018 
L 182.70973 326.089263 
L 183.57678 325.637856 
L 183.807994 325.523742 
L 184.675044 325.315895 
L 184.906258 325.048942 
L 185.079668 324.890255 
L 185.715505 324.530628 
L 185.888915 324.2565 
L 186.640359 323.935679 
L 186.929376 323.717602 
L 187.102786 323.624976 
L 187.449607 323.566451 
L 187.623017 323.538378 
L 187.85423 323.33151 
L 188.663478 322.999047 
L 189.588332 322.668361 
L 189.761742 322.572777 
L 190.224169 322.400216 
L 190.570989 322.298162 
L 190.802202 322.225637 
L 191.091219 321.920052 
L 192.073877 321.696041 
L 192.362894 321.566172 
L 192.940927 321.386457 
L 193.981388 321.106432 
L 194.270405 320.905153 
L 194.848439 320.764006 
L 196.06231 320.358844 
L 196.524737 320.261395 
L 197.738608 319.84504 
L 198.143231 319.731235 
L 198.432248 319.654234 
L 198.836872 319.566576 
L 199.068085 319.424198 
L 200.050743 319.240189 
L 201.669237 318.968586 
L 202.420681 318.717136 
L 202.825305 318.633341 
L 203.056518 318.577038 
L 203.518945 318.40223 
L 209.125873 316.856764 
L 209.472693 316.766302 
L 209.992924 316.599953 
L 214.328177 315.467566 
L 214.674997 315.344952 
L 215.137424 315.236879 
L 215.484244 315.124944 
L 216.177885 315.01033 
L 216.409098 314.937982 
L 216.987132 314.859168 
L 217.565166 314.717716 
L 219.183661 314.247405 
L 220.513138 313.893032 
L 220.744352 313.825058 
L 222.362846 313.429581 
L 222.709666 313.32158 
L 230.686533 311.020065 
L 230.975549 310.86255 
L 232.940864 310.291036 
L 242.651832 307.970554 
L 244.443736 307.474342 
L 245.946624 307.214464 
L 246.640265 306.969569 
L 248.085349 306.699182 
L 248.547776 306.551896 
L 249.47263 306.386894 
L 249.935057 306.203605 
L 250.397484 306.097207 
L 250.686501 306.027243 
L 251.091125 305.884406 
L 252.073782 305.569799 
L 252.767422 305.397287 
L 254.212507 305.008362 
L 254.732737 304.774571 
L 255.426378 304.643769 
L 255.715395 304.584525 
L 256.120018 304.479211 
L 256.929266 304.194178 
L 257.391693 304.113999 
L 257.68071 303.973756 
L 258.54776 303.794113 
L 258.89458 303.702818 
L 259.703828 303.528784 
L 259.935041 303.450021 
L 262.767407 302.598118 
L 262.940817 302.519088 
L 263.461047 302.387946 
L 264.443705 302.081493 
L 265.830986 301.72174 
L 266.120003 301.661926 
L 267.10266 301.484346 
L 267.7963 301.24786 
L 267.969711 301.152861 
L 268.721155 300.939495 
L 269.472598 300.807643 
L 271.784733 300.303381 
L 271.958144 300.222991 
L 272.189357 300.161508 
L 286.351184 297.741323 
L 288.258696 297.419405 
L 288.547713 297.322692 
L 290.859848 297.051455 
L 291.611292 296.933964 
L 291.958112 296.891943 
L 292.478342 296.815559 
L 293.63441 296.708117 
L 294.443657 296.605724 
L 294.963888 296.537241 
L 295.195101 296.466734 
L 295.599725 296.368837 
L 295.946545 296.246714 
L 296.524579 296.125679 
L 296.813596 296.048541 
L 298.547697 295.873241 
L 298.721107 295.800006 
L 300.975439 295.605301 
L 304.328035 295.200448 
L 305.484102 295.09907 
L 306.004333 295.032095 
L 310.108372 294.49601 
L 310.570799 294.429037 
L 317.160384 293.539809 
L 318.085238 293.362918 
L 318.432059 293.28297 
L 320.455177 292.974675 
L 321.784654 292.699298 
L 324.61702 292.277894 
L 324.906037 292.191989 
L 326.408925 292.054535 
L 326.697942 291.988913 
L 327.622796 291.851179 
L 336.408909 290.358509 
L 337.564976 290.180972 
L 337.911797 290.139458 
L 343.981151 289.518952 
L 346.293286 289.29241 
L 346.69791 289.232883 
L 347.853977 289.118305 
L 348.952242 289.003134 
L 349.934899 288.918022 
L 356.004254 288.27695 
L 357.680552 288.134012 
L 358.027372 288.087558 
L 361.206558 287.819168 
L 365.946434 287.476685 
L 370.166081 287.139684 
L 372.015789 286.976922 
L 375.946419 286.703575 
L 377.622717 286.585511 
L 378.258554 286.535055 
L 379.067801 286.407033 
L 387.044667 285.423374 
L 392.593791 284.798848 
L 393.807662 284.649265 
L 394.905926 284.547516 
L 395.194943 284.483424 
L 396.119797 284.351173 
L 403.749843 283.2283 
L 404.096663 283.100037 
L 405.368337 282.932515 
L 409.298967 281.993093 
L 409.934804 281.881054 
L 415.368322 280.824159 
L 415.946355 280.698427 
L 418.894328 280.222907 
L 419.819182 280.110544 
L 421.553283 279.795296 
L 421.784497 279.732334 
L 423.402991 279.567973 
L 423.865418 279.456809 
L 424.616862 279.342646 
L 426.235357 279.054937 
L 427.218014 278.9404 
L 427.564834 278.872413 
L 428.836509 278.591347 
L 429.472346 278.455856 
L 440.223774 277.02933 
L 442.767122 276.774361 
L 444.385617 276.588102 
L 446.235325 276.416429 
L 446.928965 276.350233 
L 457.564787 275.695222 
L 458.836461 275.614398 
L 461.72663 275.419161 
L 462.478074 275.339423 
L 465.079226 275.202446 
L 466.52431 275.142085 
L 469.876906 274.982067 
L 492.88265 274.016467 
L 493.634094 273.979166 
L 498.431774 273.788324 
L 500.281482 273.695891 
L 521.264108 272.558121 
L 532.59357 271.74703 
L 534.847902 271.574736 
L 537.160037 271.364965 
L 540.917256 270.852828 
L 542.477947 270.726089 
L 543.865229 270.50546 
L 545.136903 270.374979 
L 545.77274 270.31685 
L 548.027072 270.043166 
L 548.836319 269.959527 
L 553.171572 269.491832 
L 553.576196 269.407971 
L 556.177348 269.095872 
L 557.102202 269.008655 
L 570.339175 267.798977 
L 570.743799 267.724255 
L 575.483676 267.252301 
L 580.68598 266.824227 
L 581.20621 266.776701 
L 582.188867 266.638276 
L 589.183076 265.743388 
L 589.472093 265.701319 
L 590.859374 265.573645 
L 591.553014 265.502684 
L 592.766885 265.385921 
L 601.726409 264.596028 
L 603.46051 264.48046 
L 604.327561 264.430379 
L 605.830449 264.331878 
L 607.622353 264.207224 
L 617.044304 263.769879 
L 619.934473 263.648779 
L 622.246608 263.508356 
L 622.535624 263.477235 
L 624.038512 263.407728 
L 626.119434 263.291543 
L 630.33908 263.114575 
L 636.061615 262.721168 
L 637.217682 262.644377 
L 639.761031 262.444517 
L 641.379525 262.312633 
L 642.188773 262.235565 
L 647.62229 261.683044 
L 647.911307 261.641636 
L 650.165639 261.448574 
L 651.72633 261.330888 
L 652.824594 261.199409 
L 667.969079 260.042026 
L 670.570231 259.914477 
L 671.379478 259.848032 
L 675.714731 259.586789 
L 691.148233 258.417158 
L 691.668463 258.364975 
L 695.54129 257.968165 
L 695.945913 257.887944 
L 697.044177 257.708224 
L 703.171335 256.61673 
L 704.61642 256.328666 
L 705.48347 256.027876 
L 705.888094 255.868033 
L 706.408324 255.723598 
L 706.697341 255.619514 
L 708.315836 255.235405 
L 708.489246 255.159122 
L 708.662656 255.072736 
L 708.836066 255.011412 
L 709.76092 254.848931 
L 710.859184 254.586777 
L 711.437218 254.417293 
L 712.304269 254.231753 
L 713.460336 253.967505 
L 713.69155 253.848279 
L 715.021028 253.505314 
L 716.292702 253.307805 
L 716.581719 253.238832 
L 717.044146 253.091778 
L 717.622179 252.912796 
L 718.084607 252.800134 
L 720.512348 252.428096 
L 722.59327 252.203914 
L 723.575927 252.116089 
L 730.685743 251.513837 
L 731.205973 251.46166 
L 738.315788 250.997227 
L 738.951626 250.954668 
L 742.419828 250.757531 
L 746.003638 250.45632 
L 746.755081 250.371912 
L 748.315773 250.245829 
L 749.356233 250.154298 
L 750.570104 250.039648 
L 750.916925 249.931843 
L 754.442931 249.526037 
L 757.50651 249.112892 
L 757.968937 249.013167 
L 758.315757 248.938225 
L 759.529628 248.774539 
L 759.876448 248.690243 
L 760.396678 248.544641 
L 765.136555 247.36523 
L 765.367769 247.296101 
L 765.887999 247.23402 
L 766.061409 247.139317 
L 766.350426 247.096396 
L 767.911117 246.807146 
L 768.373544 246.712366 
L 768.778168 246.596041 
L 769.067185 246.471729 
L 769.876432 246.207197 
L 770.107646 246.101473 
L 771.20591 245.836195 
L 772.593191 245.431197 
L 773.055618 245.30644 
L 773.402438 245.272236 
L 773.922669 245.149427 
L 774.500702 245.027006 
L 775.30995 244.918381 
L 775.598967 244.827446 
L 777.101854 244.591202 
L 777.390871 244.50881 
L 777.853298 244.468018 
L 778.489135 244.335007 
L 778.951562 244.280368 
L 780.165433 244.034864 
L 780.916877 243.797726 
L 782.188551 243.603472 
L 782.535372 243.430214 
L 782.997799 243.316172 
L 783.518029 243.179669 
L 783.749243 243.036926 
L 783.980456 242.977619 
L 784.38508 242.853098 
L 784.674097 242.725919 
L 784.90531 242.662197 
L 785.194327 242.518981 
L 786.176984 242.224467 
L 786.523805 242.070423 
L 786.697215 241.981523 
L 786.986232 241.935194 
L 787.159642 241.810892 
L 787.911086 241.667877 
L 788.142299 241.555629 
L 788.83594 241.400077 
L 789.471777 241.292995 
L 789.876401 241.206156 
L 791.263682 240.924592 
L 791.899519 240.714783 
L 794.500671 239.845501 
L 795.483328 239.05134 
L 795.714542 238.917309 
L 795.945755 238.854843 
L 796.292575 238.493378 
L 796.523789 238.16766 
L 796.870609 238.08445 
L 797.044019 237.687161 
L 797.217429 237.669886 
L 797.39084 237.428462 
L 798.720317 236.798509 
L 798.951531 236.534639 
L 799.471761 236.290268 
L 799.818581 236.101442 
L 800.454419 235.791633 
L 800.974649 235.646012 
L 801.321469 235.584388 
L 801.552683 235.42447 
L 801.957306 235.273434 
L 802.130717 235.069568 
L 802.53534 234.960723 
L 802.766554 234.694853 
L 803.286784 234.499853 
L 803.980425 233.688175 
L 805.714526 232.255615 
L 806.234756 232.153665 
L 806.408166 231.943601 
L 806.81279 231.677425 
L 806.9862 231.529226 
L 807.217414 231.438665 
L 807.448627 231.378825 
L 807.795447 230.8759 
L 808.720301 230.24675 
L 809.876369 228.330172 
L 810.512206 227.454226 
L 810.859026 227.284118 
L 810.974633 227.025883 
L 811.321453 226.166626 
L 811.494864 224.984743 
L 811.552667 224.964009 
L 811.899487 224.123038 
L 812.072897 223.493164 
L 812.130701 223.428022 
L 812.708734 220.666722 
L 812.824341 220.571887 
L 812.939948 220.154568 
L 812.997751 220.149717 
L 813.171161 219.848196 
L 813.344572 217.472733 
L 813.460178 216.341965 
L 813.749195 203.199933 
L 813.922605 103.635234 
L 814.096016 98.987397 
L 814.327229 97.884949 
L 814.500639 97.360177 
L 814.789656 96.993756 
L 815.078673 95.079717 
L 815.19428 94.570759 
L 815.36769 93.90157 
L 815.425493 93.880474 
L 815.598903 93.533039 
L 815.656707 93.527675 
L 816.523757 90.780308 
L 816.697167 88.698878 
L 816.697167 88.698878 
" clip-path="url(#p25c3eeee39)" style="fill: none; stroke: #1f77b4; stroke-width: 1.5; stroke-linecap: square"/>
   </g>
   <g id="line2d_36">
    <path d="M 86.640517 345.640837 
L 87.156135 320.700979 
L 87.285039 320.544491 
L 87.413944 315.944517 
L 87.542848 315.696081 
L 87.929561 309.721726 
L 88.18737 309.114725 
L 88.445179 307.863694 
L 88.574083 307.014249 
L 88.960796 301.738344 
L 89.347509 301.188977 
L 89.476414 300.228736 
L 89.605318 300.185849 
L 90.120936 299.056969 
L 90.378745 298.892985 
L 90.636553 298.588943 
L 90.765458 298.511723 
L 91.023266 298.052471 
L 91.667788 297.129693 
L 91.925597 296.925867 
L 92.441215 296.832044 
L 92.956832 296.435179 
L 93.47245 296.192141 
L 93.988067 296.01245 
L 94.116972 296.005439 
L 94.374781 295.769937 
L 94.890398 295.641311 
L 95.53492 295.386944 
L 96.179442 295.299703 
L 96.69506 295.141346 
L 97.081773 295.082616 
L 97.984103 294.961261 
L 98.370817 294.863345 
L 99.144243 294.708407 
L 100.562191 294.163008 
L 101.077809 294.015199 
L 101.335618 293.743958 
L 101.851235 293.641777 
L 102.753566 293.129115 
L 103.011375 292.887937 
L 103.398088 292.754284 
L 106.233984 291.100942 
L 106.620697 290.142204 
L 107.007411 290.068534 
L 107.265219 289.888883 
L 107.523028 289.726556 
L 107.909741 289.399204 
L 108.038646 287.826228 
L 108.16755 287.786904 
L 108.425359 286.189254 
L 108.554263 285.604683 
L 108.812072 285.565904 
L 109.198785 285.300064 
L 109.843307 285.106439 
L 110.101116 284.864144 
L 110.487829 284.742222 
L 110.874542 284.271955 
L 111.132351 284.248126 
L 111.519064 283.710641 
L 111.647969 283.610578 
L 111.905777 283.064764 
L 112.034682 283.051315 
L 112.29249 282.546355 
L 112.421395 282.508617 
L 112.679204 281.324292 
L 113.45263 278.837471 
L 113.581534 277.451523 
L 113.710439 277.436187 
L 114.097152 275.133925 
L 114.354961 273.931276 
L 114.612769 273.545598 
L 114.870578 272.997487 
L 114.999483 272.672667 
L 115.128387 271.606828 
L 115.257291 271.593487 
L 115.644005 271.198596 
L 116.030718 269.287257 
L 116.288527 268.831521 
L 117.57757 268.186262 
L 117.835379 268.134173 
L 118.093188 267.86431 
L 121.702511 267.104735 
L 122.733746 266.771763 
L 122.991555 266.532105 
L 123.120459 266.511423 
L 123.378268 266.204413 
L 124.02279 264.654065 
L 124.409503 264.169144 
L 124.538407 263.809329 
L 124.667312 263.793896 
L 125.054025 263.478671 
L 125.182929 263.441348 
L 125.440738 263.040818 
L 125.956356 262.886915 
L 126.214164 262.635843 
L 128.792252 261.90519 
L 130.081296 261.746596 
L 132.014862 261.56493 
L 134.206236 261.306085 
L 134.850758 261.216722 
L 136.784324 261.070747 
L 139.362412 260.651029 
L 140.006934 260.511714 
L 140.522551 260.399165 
L 141.553787 259.943604 
L 142.327213 257.652327 
L 142.84283 257.356469 
L 143.358448 256.663381 
L 143.616257 256.64678 
L 144.131874 256.136224 
L 144.776396 256.04822 
L 145.034205 255.924693 
L 145.420918 255.688069 
L 145.678727 255.154556 
L 146.06544 255.000638 
L 146.709962 253.308386 
L 147.096675 252.674338 
L 147.22558 252.617606 
L 147.870102 251.228271 
L 148.12791 250.059239 
L 148.256815 250.026665 
L 148.772432 246.486445 
L 149.159145 246.40253 
L 149.545859 246.293401 
L 149.803667 245.93609 
L 151.092711 245.29796 
L 151.479424 245.141279 
L 151.737233 244.868372 
L 152.123946 244.542741 
L 152.768468 243.356663 
L 153.026277 243.294097 
L 153.284086 242.914623 
L 153.799703 242.751965 
L 154.057512 242.498083 
L 154.315321 242.217118 
L 154.959843 242.053852 
L 156.248887 241.762842 
L 157.666835 241.569503 
L 158.182453 241.434588 
L 158.69807 241.281721 
L 159.342592 241.140835 
L 159.987114 241.000904 
L 160.116018 240.975454 
L 160.373827 240.769778 
L 160.76054 240.63942 
L 160.889445 240.416076 
L 161.147254 239.78513 
L 161.533967 239.642905 
L 162.049584 239.177136 
L 162.436297 238.931992 
L 162.951915 238.790225 
L 163.338628 238.630753 
L 163.596437 238.364415 
L 164.112054 238.022022 
L 164.756576 237.832085 
L 165.14329 237.564937 
L 165.401098 237.373069 
L 165.787812 237.297966 
L 165.916716 237.004035 
L 166.174525 235.163784 
L 166.561238 233.388576 
L 166.819047 233.001065 
L 167.076855 231.786596 
L 167.721377 230.984142 
L 167.850282 230.965257 
L 168.236995 230.667019 
L 168.752612 230.515768 
L 169.010421 230.409179 
L 169.26823 230.240207 
L 169.654943 230.212725 
L 170.041656 229.767459 
L 170.170561 229.339983 
L 170.299465 229.313264 
L 170.686178 228.796417 
L 171.201796 228.631338 
L 171.717413 228.486487 
L 171.975222 228.279133 
L 172.877553 228.100518 
L 173.650979 227.865824 
L 175.713449 227.40992 
L 176.100163 227.310529 
L 176.744684 226.325872 
L 177.002493 225.664004 
L 177.260302 225.625979 
L 177.389206 225.39024 
L 177.518111 225.386254 
L 177.77592 225.244422 
L 178.67825 225.090035 
L 178.807155 225.069094 
L 178.936059 224.775171 
L 179.322772 224.665155 
L 179.580581 224.342574 
L 179.709485 224.290861 
L 179.967294 223.622874 
L 180.611816 223.276457 
L 180.740721 222.911711 
L 180.869625 222.897701 
L 181.771956 221.315487 
L 182.029764 221.173051 
L 182.158669 220.530434 
L 182.287573 220.527629 
L 182.932095 219.843873 
L 183.318808 219.647576 
L 184.607852 218.880048 
L 184.865661 218.435838 
L 185.252374 218.382844 
L 185.381278 217.947441 
L 185.767992 217.84068 
L 187.959366 217.431834 
L 190.279645 217.122614 
L 191.181976 216.995214 
L 191.439785 216.896192 
L 191.955402 216.493462 
L 192.213211 215.959455 
L 192.342115 215.658801 
L 192.728829 215.543466 
L 192.986637 215.205982 
L 193.502255 215.128205 
L 194.017872 214.935754 
L 194.662394 214.810349 
L 195.178012 214.501057 
L 195.435821 212.425273 
L 195.822534 211.996704 
L 196.467056 211.437806 
L 196.724865 211.115211 
L 196.853769 211.112449 
L 197.111578 210.694391 
L 197.627195 210.442817 
L 199.174048 210.008511 
L 199.81857 209.087665 
L 200.463092 208.955894 
L 201.236518 208.777251 
L 205.748172 208.214863 
L 206.650502 207.688429 
L 206.908311 207.135901 
L 207.295024 207.037115 
L 208.197355 206.701447 
L 208.712973 206.613462 
L 209.099686 206.46791 
L 209.744208 206.363625 
L 210.002017 205.17543 
L 210.259825 205.096726 
L 210.38873 204.494298 
L 210.904347 204.310894 
L 211.033252 204.039835 
L 211.162156 204.038363 
L 211.419965 203.72511 
L 211.677774 203.695448 
L 211.935582 203.21629 
L 212.709009 202.830187 
L 213.611339 202.719234 
L 214.51367 202.530772 
L 215.287096 201.733103 
L 215.67381 201.632583 
L 216.189427 201.546167 
L 217.73628 201.41544 
L 218.122993 201.307462 
L 219.540941 201.192231 
L 223.536977 200.842424 
L 224.052595 200.56951 
L 224.439308 200.53651 
L 224.697117 200.080702 
L 225.470543 199.89767 
L 225.728352 199.78524 
L 226.501778 199.643713 
L 227.275205 199.451936 
L 227.533013 199.382393 
L 227.661918 199.159622 
L 227.790822 198.547203 
L 228.30644 198.405549 
L 228.435344 198.330253 
L 228.822057 197.852609 
L 228.950962 197.842157 
L 229.079866 197.718979 
L 229.337675 197.215187 
L 229.466579 197.173683 
L 229.982197 196.632843 
L 230.755623 196.348865 
L 231.915763 196.084291 
L 232.818093 195.83827 
L 233.462615 195.72691 
L 234.236042 195.408645 
L 234.880563 195.287848 
L 235.138372 195.184967 
L 237.071938 195.008171 
L 238.360982 194.904597 
L 240.165643 194.772163 
L 243.00154 194.58659 
L 244.290584 194.399231 
L 244.806201 193.83072 
L 247.12648 193.113492 
L 247.384289 192.76018 
L 247.642098 192.286668 
L 248.028811 191.962187 
L 248.28662 191.581764 
L 249.188951 191.272172 
L 250.477994 190.739805 
L 251.380325 190.637391 
L 252.41156 190.406094 
L 254.602935 190.221946 
L 255.763074 189.98831 
L 256.020883 189.696907 
L 256.407596 189.634375 
L 256.665405 189.495677 
L 265.946521 188.907415 
L 268.137896 188.194506 
L 270.973792 187.751789 
L 271.231601 187.582146 
L 271.48941 187.46115 
L 271.747218 187.40386 
L 272.520645 187.035219 
L 273.294071 186.942853 
L 274.325306 186.167892 
L 276.387776 185.725239 
L 276.645585 185.527669 
L 277.161203 185.448009 
L 277.547916 185.342021 
L 280.770526 184.86708 
L 281.157239 184.760649 
L 281.801761 184.631147 
L 284.12204 184.385376 
L 285.282179 184.274065 
L 286.18451 184.239791 
L 291.598494 184.068654 
L 294.176582 183.930472 
L 295.336721 183.7957 
L 298.81714 183.137865 
L 299.461662 183.026193 
L 299.848375 182.963806 
L 300.750706 182.850134 
L 301.653036 182.338748 
L 302.297558 182.247032 
L 302.684272 181.987119 
L 303.328793 181.668973 
L 304.746742 181.42675 
L 305.133455 181.356805 
L 305.391264 181.017664 
L 306.035786 180.885155 
L 306.938116 180.729456 
L 308.356065 180.606913 
L 309.902917 180.435701 
L 312.996623 179.861978 
L 316.73485 179.734386 
L 321.117599 179.623047 
L 325.887061 179.515116 
L 330.269811 179.19224 
L 330.656524 178.926553 
L 335.297082 178.394317 
L 335.683795 178.331564 
L 335.812699 178.327826 
L 336.199412 177.966209 
L 336.71503 177.816074 
L 337.488456 177.25378 
L 338.648596 177.147996 
L 340.83997 176.584998 
L 342.773536 176.369949 
L 343.933676 176.245343 
L 349.992182 175.612977 
L 356.308497 175.459659 
L 363.269334 175.342636 
L 366.878657 175.163878 
L 368.425509 174.966966 
L 369.070031 174.835991 
L 370.48798 174.634694 
L 372.292641 174.512764 
L 372.808259 174.433016 
L 373.968398 174.2768 
L 374.484016 174.194355 
L 374.741824 174.012065 
L 375.257442 173.859408 
L 376.288677 173.544608 
L 376.546486 173.194905 
L 377.964434 172.884607 
L 378.480052 172.753791 
L 379.511287 172.602838 
L 380.284713 172.503226 
L 380.929235 172.410779 
L 384.02294 172.211263 
L 384.280749 172.127158 
L 384.925271 172.026611 
L 385.18308 171.959888 
L 387.890072 171.821716 
L 389.30802 171.775426 
L 395.624335 171.632663 
L 408.643678 171.238644 
L 409.417105 171.062441 
L 413.284236 170.804805 
L 414.186567 170.749939 
L 415.862324 170.598437 
L 417.022464 170.341022 
L 417.280272 170.217149 
L 417.924794 170.078476 
L 418.95603 169.937456 
L 419.471647 169.786517 
L 420.502882 169.606219 
L 421.405213 169.442479 
L 421.791926 169.357386 
L 422.049735 169.124178 
L 422.823161 168.989299 
L 424.627823 168.833553 
L 427.850432 168.594728 
L 428.108241 168.473335 
L 428.623859 168.402937 
L 430.557424 168.298132 
L 431.073042 168.250952 
L 437.002644 168.106071 
L 445.381429 167.949996 
L 446.670473 167.905505 
L 448.732943 167.714221 
L 449.506369 167.612575 
L 450.4087 167.474878 
L 451.182127 167.421135 
L 458.271868 166.947904 
L 458.529677 166.824506 
L 460.463242 166.619949 
L 462.525713 166.073566 
L 463.685852 165.952451 
L 464.974896 165.791852 
L 465.748322 165.677293 
L 467.295175 165.545936 
L 468.842028 165.455517 
L 469.744358 165.370575 
L 470.904498 165.257277 
L 472.322446 165.03488 
L 476.963004 164.858443 
L 486.888642 164.721035 
L 490.626869 164.446525 
L 491.013582 164.340323 
L 494.236192 164.087338 
L 496.685375 163.943253 
L 498.490037 163.560078 
L 499.263463 163.4124 
L 507.126631 162.480643 
L 510.735954 162.337536 
L 515.247607 162.032379 
L 515.763225 161.933334 
L 518.728026 161.776073 
L 525.946672 161.647764 
L 528.911472 161.500453 
L 529.298186 161.258662 
L 530.458325 161.15403 
L 532.520795 161.052125 
L 533.938744 160.938393 
L 534.583266 160.825398 
L 536.001214 160.559881 
L 537.419162 160.447151 
L 538.83711 160.272333 
L 539.868345 160.069846 
L 540.899581 159.898189 
L 543.090955 159.522983 
L 547.860418 159.335221 
L 549.922888 159.108177 
L 550.954123 159.025888 
L 554.305637 158.894332 
L 562.684422 158.755619 
L 566.035936 158.64992 
L 567.32498 158.36732 
L 569.774163 158.151421 
L 570.289781 158.067524 
L 570.934303 157.919122 
L 571.192112 157.818019 
L 572.738964 157.490325 
L 573.125678 157.430538 
L 573.7702 157.311385 
L 574.028008 157.2418 
L 575.059243 157.114108 
L 576.992809 156.802511 
L 578.281853 156.663744 
L 582.148985 156.393666 
L 597.101894 155.729586 
L 599.93779 155.536106 
L 601.484643 155.403748 
L 601.742452 155.193072 
L 602.902591 155.068848 
L 605.22287 154.714758 
L 605.480679 154.623111 
L 606.511914 154.557009 
L 607.414245 154.418304 
L 607.929862 154.316274 
L 611.023568 154.113163 
L 613.343847 153.971181 
L 613.73056 153.902864 
L 614.503986 153.770469 
L 615.406317 153.680154 
L 622.367154 153.385479 
L 624.558528 153.105612 
L 628.812373 152.979142 
L 631.64827 152.717949 
L 633.066218 152.431127 
L 633.195122 152.427615 
L 633.452931 152.221229 
L 634.226357 152.023044 
L 635.257593 151.925233 
L 637.448967 151.583816 
L 644.925422 151.06285 
L 647.890223 150.955389 
L 649.308171 150.714341 
L 651.757354 150.543978 
L 653.433111 150.232529 
L 653.948729 150.029793 
L 654.464346 149.965752 
L 654.722155 149.710981 
L 656.269008 149.344673 
L 658.718191 149.063147 
L 659.620522 148.966404 
L 667.999307 148.628445 
L 668.643829 148.545607 
L 668.901638 148.43474 
L 669.675064 148.357425 
L 671.866439 148.269302 
L 673.542196 148.083618 
L 673.800005 147.848005 
L 674.83124 147.71695 
L 675.089048 147.570753 
L 675.604666 147.47477 
L 676.378092 147.364209 
L 679.085084 146.893316 
L 679.600702 146.83156 
L 680.245224 146.681069 
L 681.405363 146.578002 
L 685.272495 146.398428 
L 685.530304 146.279271 
L 686.30373 146.155118 
L 688.881818 145.977263 
L 689.139627 145.852942 
L 690.686479 145.585604 
L 691.202097 145.438263 
L 691.717715 145.365741 
L 691.975523 145.23295 
L 692.74895 145.1141 
L 693.780185 144.946366 
L 695.198133 144.837332 
L 696.87389 144.545257 
L 702.803492 144.079706 
L 703.190205 144.015641 
L 704.737058 143.918898 
L 706.412815 143.335636 
L 706.799528 143.214226 
L 707.186241 143.042646 
L 708.088572 142.934245 
L 710.151042 142.810193 
L 710.795564 142.735313 
L 714.275982 142.441014 
L 718.01421 142.284585 
L 718.400923 142.034178 
L 719.689967 141.824413 
L 720.07668 141.574067 
L 720.592297 141.488773 
L 721.494628 140.9504 
L 723.170385 140.826727 
L 723.686003 140.656036 
L 725.36176 140.528062 
L 729.228891 140.341168 
L 730.517935 140.103808 
L 732.580406 139.946317 
L 733.353832 139.853461 
L 734.385067 139.725348 
L 735.158493 139.612163 
L 737.092059 139.118893 
L 737.478772 139.000768 
L 738.638912 138.854188 
L 739.025625 138.775651 
L 745.857557 137.946204 
L 746.115366 137.85056 
L 746.373175 137.812887 
L 746.630984 137.684027 
L 747.662219 137.378827 
L 748.177836 137.225686 
L 750.369211 137.06213 
L 754.236343 136.74437 
L 754.880865 136.7023 
L 755.138673 136.469651 
L 756.298813 136.362845 
L 756.556622 136.182432 
L 756.81443 136.075714 
L 757.201144 135.982195 
L 757.716761 135.857492 
L 757.845666 135.855936 
L 758.103474 135.666541 
L 758.490187 135.553595 
L 759.005805 135.478494 
L 760.03704 135.362457 
L 760.939371 135.122028 
L 763.001841 134.953216 
L 763.517459 134.738352 
L 765.064311 134.51261 
L 765.32212 134.340113 
L 766.095546 134.096312 
L 766.353355 133.928511 
L 767.38459 133.78735 
L 769.189252 133.682745 
L 770.865009 133.437334 
L 772.66967 133.267221 
L 773.572001 133.104139 
L 775.247758 132.907059 
L 775.505567 132.577824 
L 775.89228 132.502992 
L 776.150089 132.368125 
L 777.696941 131.886493 
L 778.470368 131.802817 
L 780.532838 131.578893 
L 780.919551 131.466596 
L 781.048455 131.465847 
L 781.435169 131.167646 
L 782.466404 130.777517 
L 782.724212 130.578884 
L 783.368734 130.481748 
L 783.626543 130.354977 
L 784.142161 130.291588 
L 785.689013 130.169266 
L 785.946822 130.116226 
L 786.204631 129.863309 
L 786.333535 129.784158 
L 786.46244 129.528314 
L 786.978057 129.395796 
L 787.235866 129.096178 
L 791.102998 128.331903 
L 791.360806 128.000228 
L 791.876424 127.885269 
L 792.005328 127.557984 
L 792.392042 127.449672 
L 792.64985 127.277846 
L 794.196703 127.121889 
L 795.099034 126.190218 
L 796.388078 125.858215 
L 796.645886 125.639923 
L 796.903695 125.577297 
L 797.290408 125.477254 
L 797.548217 125.474849 
L 797.806026 125.335899 
L 799.09507 124.8958 
L 799.223974 124.894207 
L 799.481783 124.772355 
L 799.868496 124.692274 
L 800.126305 124.456743 
L 800.770827 124.417582 
L 800.899731 123.527077 
L 801.544253 123.272452 
L 801.673157 123.269953 
L 801.930966 123.07683 
L 802.188775 123.00717 
L 803.091106 122.516775 
L 803.22001 122.161376 
L 804.251245 121.969073 
L 804.637958 121.794903 
L 805.024672 121.753833 
L 805.669193 121.188281 
L 805.927002 120.762659 
L 806.313715 120.665636 
L 807.344951 120.173917 
L 807.473855 120.068547 
L 807.731664 119.709587 
L 807.989472 119.462995 
L 808.891803 119.307568 
L 809.020708 119.060294 
L 809.278516 118.431148 
L 809.923038 118.349977 
L 810.180847 116.9916 
L 810.438656 116.901208 
L 810.696465 116.713428 
L 810.954273 115.739018 
L 811.083178 115.567444 
L 811.340987 114.686319 
L 811.598795 114.454923 
L 811.7277 113.581912 
L 811.856604 113.539185 
L 811.985509 113.092533 
L 812.243317 113.070299 
L 812.501126 112.810165 
L 812.758935 112.672885 
L 813.016744 111.937106 
L 813.274552 111.509283 
L 813.403457 111.49467 
L 813.661266 109.638929 
L 813.79017 109.617007 
L 813.919074 109.413996 
L 814.176883 107.988294 
L 814.305787 107.677727 
L 815.079214 103.935641 
L 815.337023 101.770835 
L 815.465927 101.587582 
L 815.594831 99.1823 
L 815.85264 99.021311 
L 815.981545 99.013644 
L 816.626066 94.455459 
L 816.626066 94.455459 
" clip-path="url(#p25c3eeee39)" style="fill: none; stroke: #ff7f0e; stroke-width: 1.5; stroke-linecap: square"/>
   </g>
   <g id="line2d_37">
    <path d="M 86.640517 308.028558 
L 86.929443 307.817 
L 87.218368 306.77785 
L 87.507293 306.55673 
L 88.085144 305.671131 
L 89.240846 299.073962 
L 90.107622 298.435808 
L 90.685473 292.267894 
L 90.974398 291.670359 
L 91.263323 290.099959 
L 91.552249 289.525063 
L 91.841174 287.895772 
L 92.1301 287.357892 
L 92.70795 285.716885 
L 92.996876 285.537507 
L 93.285801 282.580873 
L 93.863652 281.701593 
L 94.152577 280.590897 
L 94.441503 280.306492 
L 94.730428 279.656275 
L 95.019354 279.454897 
L 95.308279 276.278291 
L 95.597204 275.728864 
L 95.88613 274.744205 
L 96.175055 274.655221 
L 96.46398 269.625454 
L 97.041831 267.748075 
L 97.330757 267.622308 
L 97.619682 266.895917 
L 97.908607 266.87454 
L 98.197533 266.599589 
L 98.486458 266.098679 
L 99.353234 260.539226 
L 99.64216 259.178366 
L 100.22001 258.874302 
L 100.508936 258.762669 
L 101.375712 257.50308 
L 101.664637 257.481152 
L 101.953563 257.320829 
L 102.242488 256.586337 
L 102.531414 256.518127 
L 102.820339 255.757849 
L 103.109264 253.986369 
L 103.39819 253.338694 
L 103.687115 251.683142 
L 103.976041 251.679711 
L 104.264966 251.177003 
L 104.553891 251.015765 
L 104.842817 249.665651 
L 105.131742 247.531077 
L 105.420667 247.484121 
L 105.709593 246.58368 
L 106.287444 246.42712 
L 106.576369 245.499346 
L 107.15422 245.197335 
L 107.732071 245.076391 
L 108.309921 243.986469 
L 109.176697 243.184922 
L 109.465623 242.182155 
L 109.754548 241.799692 
L 110.621324 239.508585 
L 110.91025 239.457733 
L 111.199175 238.733215 
L 111.488101 238.578204 
L 111.777026 236.936468 
L 112.065951 236.883946 
L 112.643802 236.274205 
L 112.932728 236.178972 
L 113.221653 235.856425 
L 113.510578 235.818176 
L 113.799504 234.668356 
L 114.088429 234.591032 
L 114.377354 232.998256 
L 114.66628 232.840888 
L 114.955205 231.669392 
L 115.244131 231.198975 
L 115.821981 231.058472 
L 116.110907 230.590171 
L 116.399832 230.472925 
L 116.688758 230.031944 
L 116.977683 230.009272 
L 117.266608 228.960283 
L 118.133384 228.474128 
L 118.711235 228.285921 
L 119.000161 227.335937 
L 119.289086 225.639023 
L 119.578011 225.635794 
L 119.866937 225.053108 
L 120.444788 224.776688 
L 120.733713 224.731546 
L 121.022638 223.764496 
L 121.600489 223.65768 
L 121.889415 223.403369 
L 122.17834 221.822177 
L 122.756191 221.027562 
L 123.334041 220.78088 
L 123.911892 219.346315 
L 124.200818 218.927513 
L 124.489743 218.866446 
L 125.067594 218.256248 
L 125.356519 217.66105 
L 125.645445 217.63158 
L 126.223295 216.795605 
L 126.512221 215.751736 
L 127.090071 215.021519 
L 127.667922 214.57527 
L 127.956848 214.114426 
L 128.534698 213.762955 
L 129.112549 211.005567 
L 129.6904 210.853706 
L 129.979325 210.588668 
L 130.268251 210.068873 
L 131.135027 209.765704 
L 131.423952 209.730294 
L 131.712878 209.571242 
L 132.001803 209.189034 
L 132.290728 209.033612 
L 132.579654 208.067838 
L 132.868579 207.971392 
L 133.157505 207.001453 
L 134.602132 206.499468 
L 135.468908 206.490486 
L 135.757833 206.223909 
L 136.335684 206.137882 
L 136.913535 205.864803 
L 137.491385 205.665907 
L 137.780311 205.387092 
L 138.069236 205.359306 
L 138.358162 204.189694 
L 138.647087 204.102868 
L 138.936012 203.875207 
L 139.513863 203.806522 
L 139.802789 203.572083 
L 140.091714 203.523117 
L 140.669565 202.675287 
L 140.95849 202.545631 
L 141.247415 202.255418 
L 141.536341 202.147514 
L 141.825266 201.784679 
L 142.114192 200.851853 
L 142.403117 200.801442 
L 142.692042 200.583427 
L 143.269893 200.523501 
L 143.558819 200.146708 
L 146.736998 199.495067 
L 147.025923 199.154339 
L 147.314849 199.11179 
L 147.603774 198.864873 
L 147.892699 198.093071 
L 148.47055 197.603411 
L 149.048401 197.541808 
L 149.337326 196.897978 
L 150.493028 195.627688 
L 151.070879 195.572709 
L 151.648729 194.163397 
L 153.093356 193.770295 
L 153.671207 193.609897 
L 153.960133 193.487156 
L 154.249058 193.04143 
L 154.537983 193.017297 
L 154.826909 192.43065 
L 155.404759 192.1885 
L 155.693685 192.183453 
L 156.560461 191.778329 
L 156.849386 190.675234 
L 157.716163 190.417873 
L 158.005088 190.411162 
L 158.294013 189.970464 
L 158.582939 189.839483 
L 159.160789 189.315114 
L 159.449715 189.25169 
L 159.73864 188.916713 
L 160.605416 188.549071 
L 162.050043 188.268088 
L 162.627894 187.92898 
L 163.205745 187.661405 
L 163.783596 186.40857 
L 164.361446 186.190329 
L 164.650372 185.559152 
L 165.517148 185.297793 
L 165.806073 184.406176 
L 166.383924 184.042458 
L 167.828551 183.826892 
L 168.406402 183.110408 
L 169.851029 182.023402 
L 170.139954 181.919072 
L 170.42888 181.57921 
L 170.717805 181.488162 
L 171.00673 181.03641 
L 171.295656 180.974321 
L 172.162432 180.423154 
L 172.740283 180.190454 
L 173.029208 179.758031 
L 174.18491 178.806206 
L 174.473835 178.231931 
L 175.340611 177.808262 
L 175.629537 177.775699 
L 177.074163 176.995468 
L 177.363089 176.991661 
L 178.229865 175.943053 
L 179.096641 175.573183 
L 179.385567 175.372604 
L 180.252343 175.32456 
L 180.541268 175.198567 
L 181.119119 175.159327 
L 181.408044 174.925315 
L 181.985895 174.174126 
L 182.27482 173.480828 
L 183.719447 173.10992 
L 184.008373 172.754546 
L 184.297298 172.690803 
L 184.586224 172.155321 
L 186.319776 171.973986 
L 186.897627 171.846862 
L 188.053328 171.578553 
L 188.920104 170.572653 
L 189.20903 170.46599 
L 190.075806 169.751354 
L 190.653657 168.75629 
L 190.942582 168.537899 
L 191.520433 168.316463 
L 191.809358 167.927998 
L 192.387209 167.853122 
L 192.676134 167.171731 
L 192.96506 167.124993 
L 193.253985 166.301828 
L 193.831836 165.987064 
L 194.120761 165.625325 
L 194.698612 165.529504 
L 197.298941 165.079518 
L 198.165717 164.904791 
L 198.454642 164.871418 
L 198.743568 164.168947 
L 199.610344 163.43164 
L 199.899269 163.419805 
L 200.188194 163.111691 
L 200.766045 162.945358 
L 201.343896 162.267286 
L 201.632821 162.245533 
L 202.210672 161.927368 
L 203.077448 161.778025 
L 204.522075 160.586333 
L 204.811001 160.568177 
L 205.099926 159.890683 
L 206.833478 159.103133 
L 207.122404 159.053074 
L 207.411329 158.521091 
L 207.98918 158.307331 
L 208.278105 157.460421 
L 210.011658 156.604946 
L 210.300583 156.497812 
L 210.589508 156.009805 
L 211.167359 155.684349 
L 211.456285 155.670127 
L 211.74521 155.453184 
L 212.323061 155.381242 
L 212.611986 154.677576 
L 213.189837 154.471039 
L 213.478762 154.078924 
L 213.767688 154.068645 
L 214.056613 153.543028 
L 214.345538 152.630869 
L 215.212315 152.243975 
L 215.50124 151.738196 
L 216.945867 151.583583 
L 217.234792 151.126797 
L 217.523718 151.105613 
L 217.812643 150.950412 
L 218.679419 149.818848 
L 220.124046 149.630873 
L 220.701897 149.260104 
L 220.990822 148.169574 
L 221.568673 147.643242 
L 221.857599 147.639969 
L 222.435449 147.385119 
L 222.724375 146.915125 
L 223.0133 146.813069 
L 223.591151 146.203839 
L 223.880076 145.485613 
L 225.324703 145.283706 
L 225.902554 144.7765 
L 226.480405 144.744152 
L 227.347181 144.283907 
L 227.636106 144.261424 
L 227.925032 143.652863 
L 229.658584 143.476358 
L 230.236435 142.944622 
L 230.814286 142.802489 
L 231.392136 142.464432 
L 231.681062 141.789644 
L 232.836763 141.532036 
L 233.992465 141.383205 
L 235.437092 140.274752 
L 236.881719 139.767353 
L 237.459569 138.909097 
L 238.615271 138.644905 
L 239.770973 138.595637 
L 240.059898 138.157341 
L 241.504525 137.988868 
L 242.660226 137.860399 
L 242.949152 137.848346 
L 243.238077 137.611125 
L 243.815928 137.447087 
L 244.393779 136.918926 
L 244.682704 136.564591 
L 244.971629 136.395336 
L 247.283033 136.096824 
L 247.571958 135.448258 
L 248.438734 135.210811 
L 248.72766 134.886183 
L 249.30551 134.758699 
L 250.461212 134.573904 
L 251.616913 134.07732 
L 252.48369 133.298944 
L 252.772615 133.283573 
L 253.350466 132.844714 
L 253.639391 132.553452 
L 256.23972 131.662791 
L 258.262197 131.434538 
L 260.5736 130.93222 
L 260.862526 130.668354 
L 261.151451 130.157315 
L 264.32963 129.81668 
L 265.485332 128.990261 
L 267.218884 128.624105 
L 268.663511 128.426044 
L 268.952437 127.948047 
L 271.26384 127.338956 
L 273.575243 127.086105 
L 274.153094 126.873473 
L 275.01987 126.659262 
L 275.597721 126.27059 
L 276.753422 126.103881 
L 277.620198 125.961831 
L 280.798378 125.756359 
L 281.087303 125.540151 
L 281.376228 125.533663 
L 281.954079 125.334082 
L 282.243004 125.316447 
L 282.53193 125.17866 
L 282.820855 125.171511 
L 283.109781 124.902891 
L 283.687631 124.782698 
L 285.421184 124.666904 
L 287.443661 124.413408 
L 287.732587 124.235127 
L 288.310438 124.113594 
L 288.599363 123.808488 
L 289.755065 123.61921 
L 293.80002 123.250016 
L 295.533572 122.657804 
L 295.822498 122.4012 
L 296.111423 122.361192 
L 296.400348 122.146864 
L 301.601005 121.671314 
L 302.178856 121.536614 
L 302.756707 121.521019 
L 303.334558 121.301804 
L 303.623483 121.288519 
L 304.201334 121.148031 
L 305.06811 121.101341 
L 305.645961 121.002379 
L 312.869095 120.5003 
L 313.446946 120.339313 
L 313.735872 120.083456 
L 315.180499 119.807896 
L 322.114708 119.361867 
L 323.270409 119.169534 
L 323.559335 118.868544 
L 324.426111 118.698256 
L 327.315365 118.458935 
L 328.471066 118.427057 
L 328.759992 118.244745 
L 329.626768 118.054475 
L 329.915693 117.790435 
L 332.804947 117.504362 
L 337.427753 117.380068 
L 338.87238 117.307642 
L 340.605933 117.090265 
L 341.183783 116.959802 
L 342.05056 116.870757 
L 342.62841 116.676697 
L 344.361963 116.389427 
L 348.695844 116.112354 
L 349.273694 115.935499 
L 350.14047 115.754894 
L 350.429396 115.604321 
L 351.585097 115.525902 
L 351.874023 115.339327 
L 355.918978 115.171774 
L 358.808232 114.965981 
L 359.386083 114.836525 
L 364.008889 114.218976 
L 368.34277 114.102142 
L 371.520949 113.817217 
L 372.387725 113.461632 
L 373.832352 113.221856 
L 383.36689 112.852468 
L 384.811517 112.429658 
L 392.901428 112.028016 
L 398.102085 111.716003 
L 399.546712 111.634986 
L 399.835637 111.406564 
L 401.858115 111.196285 
L 409.948026 111.014312 
L 414.859757 110.749774 
L 416.882235 110.238894 
L 429.306027 109.786312 
L 432.19528 109.569126 
L 433.350982 109.539906 
L 433.928833 109.410735 
L 438.262714 109.245398 
L 441.729818 109.117794 
L 448.952953 108.500633 
L 449.530804 108.420548 
L 453.575759 108.286893 
L 458.776416 108.15958 
L 459.643192 108.017409 
L 460.798894 107.928157 
L 466.288476 107.479253 
L 476.978715 106.963804 
L 479.290119 106.632341 
L 494.314239 106.231693 
L 494.892089 106.144245 
L 495.46994 106.109143 
L 496.336716 105.945291 
L 498.359194 105.857704 
L 498.937045 105.786614 
L 499.803821 105.669414 
L 505.004478 105.55335 
L 514.25009 105.233893 
L 515.116867 105.121101 
L 520.606449 104.767091 
L 528.407434 104.64092 
L 532.741315 104.383254 
L 533.897017 104.171111 
L 538.808748 103.901063 
L 546.031883 103.779013 
L 549.210062 103.607005 
L 551.23254 103.323083 
L 554.121794 103.194395 
L 560.767078 103.015454 
L 567.123436 102.692442 
L 576.657974 102.238105 
L 584.747885 102.118159 
L 588.503915 101.915677 
L 589.081766 101.76551 
L 591.682094 101.564945 
L 593.415647 101.484824 
L 601.794483 101.367395 
L 604.972662 101.184269 
L 609.595468 100.730128 
L 611.040095 100.666317 
L 615.662901 100.559915 
L 619.707857 100.419841 
L 621.730334 100.243676 
L 624.330663 99.993788 
L 624.908514 99.920576 
L 632.709499 99.783043 
L 639.643708 99.522083 
L 640.221559 99.363974 
L 654.667829 98.693493 
L 656.401381 98.559708 
L 663.046665 98.234688 
L 663.913441 98.137793 
L 665.646993 98.065931 
L 666.224844 97.859713 
L 667.669471 97.750536 
L 680.093263 97.222016 
L 680.671113 97.102231 
L 688.183174 96.772624 
L 689.338875 96.684267 
L 693.094905 96.581088 
L 695.695234 96.187817 
L 699.451264 96.002201 
L 700.606965 95.899261 
L 701.473741 95.793028 
L 703.785144 95.603886 
L 705.229771 95.500074 
L 709.274727 95.349484 
L 712.741831 95.244955 
L 714.475384 94.900811 
L 720.831742 94.489851 
L 721.120668 94.302305 
L 730.36628 93.664586 
L 732.677683 93.384058 
L 736.433713 93.206806 
L 737.011564 93.120824 
L 739.900818 92.90197 
L 741.056519 92.700587 
L 750.302132 91.850531 
L 751.746759 91.668471 
L 753.769236 91.422697 
L 757.236341 91.047061 
L 757.814192 90.931219 
L 764.17055 90.620626 
L 764.748401 90.438266 
L 765.615177 90.365017 
L 771.393685 89.834107 
L 771.68261 89.639145 
L 775.43864 89.374628 
L 776.594342 89.165428 
L 782.083924 88.245977 
L 783.239626 88.142381 
L 784.106402 87.735701 
L 785.551029 87.597584 
L 787.862432 87.425739 
L 788.151358 87.201551 
L 789.018134 87.088316 
L 791.040611 86.8402 
L 791.329537 86.612142 
L 792.485238 86.585097 
L 793.063089 86.481908 
L 794.218791 86.37981 
L 794.507716 86.297028 
L 794.796641 86.06635 
L 796.819119 85.832334 
L 797.685895 85.802865 
L 798.263746 85.320719 
L 799.130522 84.83933 
L 799.708373 84.741813 
L 800.286224 84.67475 
L 800.575149 84.385753 
L 801.153 84.251286 
L 802.597627 84.043482 
L 802.886552 83.626424 
L 803.464403 83.558958 
L 803.753328 83.223249 
L 804.620105 82.911423 
L 804.90903 82.014212 
L 805.486881 81.228504 
L 805.775806 80.38495 
L 806.353657 79.589942 
L 806.642582 79.196169 
L 807.220433 79.103567 
L 807.509358 78.925696 
L 808.087209 77.674133 
L 808.376135 76.347099 
L 808.66506 76.261294 
L 808.953985 75.306779 
L 809.242911 75.158447 
L 809.531836 74.214523 
L 809.820762 73.785011 
L 810.109687 71.113649 
L 810.398612 70.768232 
L 810.687538 69.578638 
L 810.976463 69.080779 
L 811.265389 68.313348 
L 811.554314 68.306739 
L 812.132165 67.516648 
L 812.42109 67.503955 
L 812.710015 66.928654 
L 813.287866 66.619873 
L 813.865717 65.712277 
L 814.732493 65.552065 
L 815.021419 64.590083 
L 815.310344 64.453494 
L 815.599269 64.099988 
L 815.888195 60.391674 
L 816.466045 57.682545 
L 816.466045 57.682545 
" clip-path="url(#p25c3eeee39)" style="fill: none; stroke: #2ca02c; stroke-width: 1.5; stroke-linecap: square"/>
   </g>
   <g id="patch_3">
    <path d="M 50.137685 390.04 
L 50.137685 41.856 
" style="fill: none; stroke: #000000; stroke-width: 0.8; stroke-linejoin: miter; stroke-linecap: square"/>
   </g>
   <g id="patch_4">
    <path d="M 853.2 390.04 
L 853.2 41.856 
" style="fill: none; stroke: #000000; stroke-width: 0.8; stroke-linejoin: miter; stroke-linecap: square"/>
   </g>
   <g id="patch_5">
    <path d="M 50.137685 390.04 
L 853.2 390.04 
" style="fill: none; stroke: #000000; stroke-width: 0.8; stroke-linejoin: miter; stroke-linecap: square"/>
   </g>
   <g id="patch_6">
    <path d="M 50.137685 41.856 
L 853.2 41.856 
" style="fill: none; stroke: #000000; stroke-width: 0.8; stroke-linejoin: miter; stroke-linecap: square"/>
   </g>
   <g id="text_12">
    <!-- HTTP Request Duration Percentiles -->
    <g transform="translate(347.44228 22.355625) scale(0.12 -0.12)">
     <defs>
      <path id="DejaVuSans-48" d="M 628 4666 
L 1259 4666 
L 1259 2753 
L 3553 2753 
L 3553 4666 
L 4184 4666 
L 4184 0 
L 3553 0 
L 3553 2222 
L 1259 2222 
L 1259 0 
L 628 0 
L 628 4666 
z
" transform="scale(0.015625)"/>
      <path id="DejaVuSans-54" d="M -19 4666 
L 3928 4666 
L 3928 4134 
L 2272 4134 
L 2272 0 
L 1638 0 
L 1638 4134 
L -19 4134 
L -19 4666 
z
" transform="scale(0.015625)"/>
      <path id="DejaVuSans-52" d="M 2841 2188 
Q 3044 2119 3236 1894 
Q 3428 1669 3622 1275 
L 4263 0 
L 3584 0 
L 2988 1197 
Q 2756 1666 2539 1819 
Q 2322 1972 1947 1972 
L 1259 1972 
L 1259 0 
L 628 0 
L 628 4666 
L 2053 4666 
Q 2853 4666 3247 4331 
Q 3641 3997 3641 3322 
Q 3641 2881 3436 2590 
Q 3231 2300 2841 2188 
z
M 1259 4147 
L 1259 2491 
L 2053 2491 
Q 2509 2491 2742 2702 
Q 2975 2913 2975 3322 
Q 2975 3731 2742 3939 
Q 2509 4147 2053 4147 
L 1259 4147 
z
" transform="scale(0.015625)"/>
      <path id="DejaVuSans-71" d="M 947 1747 
Q 947 1113 1208 752 
Q 1469 391 1925 391 
Q 2381 391 2643 752 
Q 2906 1113 2906 1747 
Q 2906 2381 2643 2742 
Q 2381 3103 1925 3103 
Q 1469 3103 1208 2742 
Q 947 2381 947 1747 
z
M 2906 525 
Q 2725 213 2448 61 
Q 2172 -91 1784 -91 
Q 1150 -91 751 415 
Q 353 922 353 1747 
Q 353 2572 751 3078 
Q 1150 3584 1784 3584 
Q 2172 3584 2448 3432 
Q 2725 3281 2906 2969 
L 2906 3500 
L 3481 3500 
L 3481 -1331 
L 2906 -1331 
L 2906 525 
z
" transform="scale(0.015625)"/>
     </defs>
     <use xlink:href="#DejaVuSans-48"/>
     <use xlink:href="#DejaVuSans-54" transform="translate(75.195312 0)"/>
     <use xlink:href="#DejaVuSans-54" transform="translate(134.529297 0)"/>
     <use xlink:href="#DejaVuSans-50" transform="translate(195.613281 0)"/>
     <use xlink:href="#DejaVuSans-20" transform="translate(255.916016 0)"/>
     <use xlink:href="#DejaVuSans-52" transform="translate(287.703125 0)"/>
     <use xlink:href="#DejaVuSans-65" transform="translate(352.685547 0)"/>
     <use xlink:href="#DejaVuSans-71" transform="translate(414.208984 0)"/>
     <use xlink:href="#DejaVuSans-75" transform="translate(477.685547 0)"/>
     <use xlink:href="#DejaVuSans-65" transform="translate(541.064453 0)"/>
     <use xlink:href="#DejaVuSans-73" transform="translate(602.587891 0)"/>
     <use xlink:href="#DejaVuSans-74" transform="translate(654.6875 0)"/>
     <use xlink:href="#DejaVuSans-20" transform="translate(693.896484 0)"/>
     <use xlink:href="#DejaVuSans-44" transform="translate(725.683594 0)"/>
     <use xlink:href="#DejaVuSans-75" transform="translate(802.685547 0)"/>
     <use xlink:href="#DejaVuSans-72" transform="translate(866.064453 0)"/>
     <use xlink:href="#DejaVuSans-61" transform="translate(907.177734 0)"/>
     <use xlink:href="#DejaVuSans-74" transform="translate(968.457031 0)"/>
     <use xlink:href="#DejaVuSans-69" transform="translate(1007.666016 0)"/>
     <use xlink:href="#DejaVuSans-6f" transform="translate(1035.449219 0)"/>
     <use xlink:href="#DejaVuSans-6e" transform="translate(1096.630859 0)"/>
     <use xlink:href="#DejaVuSans-20" transform="translate(1160.009766 0)"/>
     <use xlink:href="#DejaVuSans-50" transform="translate(1191.796875 0)"/>
     <use xlink:href="#DejaVuSans-65" transform="translate(1248.474609 0)"/>
     <use xlink:href="#DejaVuSans-72" transform="translate(1309.998047 0)"/>
     <use xlink:href="#DejaVuSans-63" transform="translate(1348.861328 0)"/>
     <use xlink:href="#DejaVuSans-65" transform="translate(1403.841797 0)"/>
     <use xlink:href="#DejaVuSans-6e" transform="translate(1465.365234 0)"/>
     <use xlink:href="#DejaVuSans-74" transform="translate(1528.744141 0)"/>
     <use xlink:href="#DejaVuSans-69" transform="translate(1567.953125 0)"/>
     <use xlink:href="#DejaVuSans-6c" transform="translate(1595.736328 0)"/>
     <use xlink:href="#DejaVuSans-65" transform="translate(1623.519531 0)"/>
     <use xlink:href="#DejaVuSans-73" transform="translate(1685.042969 0)"/>
    </g>
    <!-- Test: stress | Endpoint: PostWaypoint -->
    <g transform="translate(341.076655 35.856) scale(0.12 -0.12)">
     <defs>
      <path id="DejaVuSans-3a" d="M 750 794 
L 1409 794 
L 1409 0 
L 750 0 
L 750 794 
z
M 750 3309 
L 1409 3309 
L 1409 2516 
L 750 2516 
L 750 3309 
z
" transform="scale(0.015625)"/>
      <path id="DejaVuSans-7c" d="M 1344 4891 
L 1344 -1509 
L 813 -1509 
L 813 4891 
L 1344 4891 
z
" transform="scale(0.015625)"/>
      <path id="DejaVuSans-45" d="M 628 4666 
L 3578 4666 
L 3578 4134 
L 1259 4134 
L 1259 2753 
L 3481 2753 
L 3481 2222 
L 1259 2222 
L 1259 531 
L 3634 531 
L 3634 0 
L 628 0 
L 628 4666 
z
" transform="scale(0.015625)"/>
      <path id="DejaVuSans-64" d="M 2906 2969 
L 2906 4863 
L 3481 4863 
L 3481 0 
L 2906 0 
L 2906 525 
Q 2725 213 2448 61 
Q 2172 -91 1784 -91 
Q 1150 -91 751 415 
Q 353 922 353 1747 
Q 353 2572 751 3078 
Q 1150 3584 1784 3584 
Q 2172 3584 2448 3432 
Q 2725 3281 2906 2969 
z
M 947 1747 
Q 947 1113 1208 752 
Q 1469 391 1925 391 
Q 2381 391 2643 752 
Q 2906 1113 2906 1747 
Q 2906 2381 2643 2742 
Q 2381 3103 1925 3103 
Q 1469 3103 1208 2742 
Q 947 2381 947 1747 
z
" transform="scale(0.015625)"/>
      <path id="DejaVuSans-70" d="M 1159 525 
L 1159 -1331 
L 581 -1331 
L 581 3500 
L 1159 3500 
L 1159 2969 
Q 1341 3281 1617 3432 
Q 1894 3584 2278 3584 
Q 2916 3584 3314 3078 
Q 3713 2572 3713 1747 
Q 3713 922 3314 415 
Q 2916 -91 2278 -91 
Q 1894 -91 1617 61 
Q 1341 213 1159 525 
z
M 3116 1747 
Q 3116 2381 2855 2742 
Q 2594 3103 2138 3103 
Q 1681 3103 1420 2742 
Q 1159 2381 1159 1747 
Q 1159 1113 1420 752 
Q 1681 391 2138 391 
Q 2594 391 2855 752 
Q 3116 1113 3116 1747 
z
" transform="scale(0.015625)"/>
      <path id="DejaVuSans-57" d="M 213 4666 
L 850 4666 
L 1831 722 
L 2809 4666 
L 3519 4666 
L 4500 722 
L 5478 4666 
L 6119 4666 
L 4947 0 
L 4153 0 
L 3169 4050 
L 2175 0 
L 1381 0 
L 213 4666 
z
" transform="scale(0.015625)"/>
      <path id="DejaVuSans-79" d="M 2059 -325 
Q 1816 -950 1584 -1140 
Q 1353 -1331 966 -1331 
L 506 -1331 
L 506 -850 
L 844 -850 
Q 1081 -850 1212 -737 
Q 1344 -625 1503 -206 
L 1606 56 
L 191 3500 
L 800 3500 
L 1894 763 
L 2988 3500 
L 3597 3500 
L 2059 -325 
z
" transform="scale(0.015625)"/>
     </defs>
     <use xlink:href="#DejaVuSans-54"/>
     <use xlink:href="#DejaVuSans-65" transform="translate(44.083984 0)"/>
     <use xlink:href="#DejaVuSans-73" transform="translate(105.607422 0)"/>
     <use xlink:href="#DejaVuSans-74" transform="translate(157.707031 0)"/>
     <use xlink:href="#DejaVuSans-3a" transform="translate(196.916016 0)"/>
     <use xlink:href="#DejaVuSans-20" transform="translate(230.607422 0)"/>
     <use xlink:href="#DejaVuSans-73" transform="translate(262.394531 0)"/>
     <use xlink:href="#DejaVuSans-74" transform="translate(314.494141 0)"/>
     <use xlink:href="#DejaVuSans-72" transform="translate(353.703125 0)"/>
     <use xlink:href="#DejaVuSans-65" transform="translate(392.566406 0)"/>
     <use xlink:href="#DejaVuSans-73" transform="translate(454.089844 0)"/>
     <use xlink:href="#DejaVuSans-73" transform="translate(506.189453 0)"/>
     <use xlink:href="#DejaVuSans-20" transform="translate(558.289062 0)"/>
     <use xlink:href="#DejaVuSans-7c" transform="translate(590.076172 0)"/>
     <use xlink:href="#DejaVuSans-20" transform="translate(623.767578 0)"/>
     <use xlink:href="#DejaVuSans-45" transform="translate(655.554688 0)"/>
     <use xlink:href="#DejaVuSans-6e" transform="translate(718.738281 0)"/>
     <use xlink:href="#DejaVuSans-64" transform="translate(782.117188 0)"/>
     <use xlink:href="#DejaVuSans-70" transform="translate(845.59375 0)"/>
     <use xlink:href="#DejaVuSans-6f" transform="translate(909.070312 0)"/>
     <use xlink:href="#DejaVuSans-69" transform="translate(970.251953 0)"/>
     <use xlink:href="#DejaVuSans-6e" transform="translate(998.035156 0)"/>
     <use xlink:href="#DejaVuSans-74" transform="translate(1061.414062 0)"/>
     <use xlink:href="#DejaVuSans-3a" transform="translate(1100.623047 0)"/>
     <use xlink:href="#DejaVuSans-20" transform="translate(1134.314453 0)"/>
     <use xlink:href="#DejaVuSans-50" transform="translate(1166.101562 0)"/>
     <use xlink:href="#DejaVuSans-6f" transform="translate(1222.779297 0)"/>
     <use xlink:href="#DejaVuSans-73" transform="translate(1283.960938 0)"/>
     <use xlink:href="#DejaVuSans-74" transform="translate(1336.060547 0)"/>
     <use xlink:href="#DejaVuSans-57" transform="translate(1375.269531 0)"/>
     <use xlink:href="#DejaVuSans-61" transform="translate(1467.771484 0)"/>
     <use xlink:href="#DejaVuSans-79" transform="translate(1529.050781 0)"/>
     <use xlink:href="#DejaVuSans-70" transform="translate(1588.230469 0)"/>
     <use xlink:href="#DejaVuSans-6f" transform="translate(1651.707031 0)"/>
     <use xlink:href="#DejaVuSans-69" transform="translate(1712.888672 0)"/>
     <use xlink:href="#DejaVuSans-6e" transform="translate(1740.671875 0)"/>
     <use xlink:href="#DejaVuSans-74" transform="translate(1804.050781 0)"/>
    </g>
   </g>
   <g id="legend_1">
    <g id="patch_7">
     <path d="M 57.137685 93.890375 
L 190.481435 93.890375 
Q 192.481435 93.890375 192.481435 91.890375 
L 192.481435 48.856 
Q 192.481435 46.856 190.481435 46.856 
L 57.137685 46.856 
Q 55.137685 46.856 55.137685 48.856 
L 55.137685 91.890375 
Q 55.137685 93.890375 57.137685 93.890375 
z
" style="fill: #ffffff; opacity: 0.8; stroke: #cccccc; stroke-linejoin: miter"/>
    </g>
    <g id="line2d_38">
     <path d="M 59.137685 54.954437 
L 69.137685 54.954437 
L 79.137685 54.954437 
" style="fill: none; stroke: #1f77b4; stroke-width: 1.5; stroke-linecap: square"/>
    </g>
    <g id="text_13">
     <!-- Single Large Results -->
     <g transform="translate(87.137685 58.454437) scale(0.1 -0.1)">
      <defs>
       <path id="DejaVuSans-53" d="M 3425 4513 
L 3425 3897 
Q 3066 4069 2747 4153 
Q 2428 4238 2131 4238 
Q 1616 4238 1336 4038 
Q 1056 3838 1056 3469 
Q 1056 3159 1242 3001 
Q 1428 2844 1947 2747 
L 2328 2669 
Q 3034 2534 3370 2195 
Q 3706 1856 3706 1288 
Q 3706 609 3251 259 
Q 2797 -91 1919 -91 
Q 1588 -91 1214 -16 
Q 841 59 441 206 
L 441 856 
Q 825 641 1194 531 
Q 1563 422 1919 422 
Q 2459 422 2753 634 
Q 3047 847 3047 1241 
Q 3047 1584 2836 1778 
Q 2625 1972 2144 2069 
L 1759 2144 
Q 1053 2284 737 2584 
Q 422 2884 422 3419 
Q 422 4038 858 4394 
Q 1294 4750 2059 4750 
Q 2388 4750 2728 4690 
Q 3069 4631 3425 4513 
z
" transform="scale(0.015625)"/>
       <path id="DejaVuSans-67" d="M 2906 1791 
Q 2906 2416 2648 2759 
Q 2391 3103 1925 3103 
Q 1463 3103 1205 2759 
Q 947 2416 947 1791 
Q 947 1169 1205 825 
Q 1463 481 1925 481 
Q 2391 481 2648 825 
Q 2906 1169 2906 1791 
z
M 3481 434 
Q 3481 -459 3084 -895 
Q 2688 -1331 1869 -1331 
Q 1566 -1331 1297 -1286 
Q 1028 -1241 775 -1147 
L 775 -588 
Q 1028 -725 1275 -790 
Q 1522 -856 1778 -856 
Q 2344 -856 2625 -561 
Q 2906 -266 2906 331 
L 2906 616 
Q 2728 306 2450 153 
Q 2172 0 1784 0 
Q 1141 0 747 490 
Q 353 981 353 1791 
Q 353 2603 747 3093 
Q 1141 3584 1784 3584 
Q 2172 3584 2450 3431 
Q 2728 3278 2906 2969 
L 2906 3500 
L 3481 3500 
L 3481 434 
z
" transform="scale(0.015625)"/>
       <path id="DejaVuSans-4c" d="M 628 4666 
L 1259 4666 
L 1259 531 
L 3531 531 
L 3531 0 
L 628 0 
L 628 4666 
z
" transform="scale(0.015625)"/>
      </defs>
      <use xlink:href="#DejaVuSans-53"/>
      <use xlink:href="#DejaVuSans-69" transform="translate(63.476562 0)"/>
      <use xlink:href="#DejaVuSans-6e" transform="translate(91.259766 0)"/>
      <use xlink:href="#DejaVuSans-67" transform="translate(154.638672 0)"/>
      <use xlink:href="#DejaVuSans-6c" transform="translate(218.115234 0)"/>
      <use xlink:href="#DejaVuSans-65" transform="translate(245.898438 0)"/>
      <use xlink:href="#DejaVuSans-20" transform="translate(307.421875 0)"/>
      <use xlink:href="#DejaVuSans-4c" transform="translate(339.208984 0)"/>
      <use xlink:href="#DejaVuSans-61" transform="translate(394.921875 0)"/>
      <use xlink:href="#DejaVuSans-72" transform="translate(456.201172 0)"/>
      <use xlink:href="#DejaVuSans-67" transform="translate(495.564453 0)"/>
      <use xlink:href="#DejaVuSans-65" transform="translate(559.041016 0)"/>
      <use xlink:href="#DejaVuSans-20" transform="translate(620.564453 0)"/>
      <use xlink:href="#DejaVuSans-52" transform="translate(652.351562 0)"/>
      <use xlink:href="#DejaVuSans-65" transform="translate(717.333984 0)"/>
      <use xlink:href="#DejaVuSans-73" transform="translate(778.857422 0)"/>
      <use xlink:href="#DejaVuSans-75" transform="translate(830.957031 0)"/>
      <use xlink:href="#DejaVuSans-6c" transform="translate(894.335938 0)"/>
      <use xlink:href="#DejaVuSans-74" transform="translate(922.119141 0)"/>
      <use xlink:href="#DejaVuSans-73" transform="translate(961.328125 0)"/>
     </g>
    </g>
    <g id="line2d_39">
     <path d="M 59.137685 69.632562 
L 69.137685 69.632562 
L 79.137685 69.632562 
" style="fill: none; stroke: #ff7f0e; stroke-width: 1.5; stroke-linecap: square"/>
    </g>
    <g id="text_14">
     <!-- Single Small Results -->
     <g transform="translate(87.137685 73.132562) scale(0.1 -0.1)">
      <use xlink:href="#DejaVuSans-53"/>
      <use xlink:href="#DejaVuSans-69" transform="translate(63.476562 0)"/>
      <use xlink:href="#DejaVuSans-6e" transform="translate(91.259766 0)"/>
      <use xlink:href="#DejaVuSans-67" transform="translate(154.638672 0)"/>
      <use xlink:href="#DejaVuSans-6c" transform="translate(218.115234 0)"/>
      <use xlink:href="#DejaVuSans-65" transform="translate(245.898438 0)"/>
      <use xlink:href="#DejaVuSans-20" transform="translate(307.421875 0)"/>
      <use xlink:href="#DejaVuSans-53" transform="translate(339.208984 0)"/>
      <use xlink:href="#DejaVuSans-6d" transform="translate(402.685547 0)"/>
      <use xlink:href="#DejaVuSans-61" transform="translate(500.097656 0)"/>
      <use xlink:href="#DejaVuSans-6c" transform="translate(561.376953 0)"/>
      <use xlink:href="#DejaVuSans-6c" transform="translate(589.160156 0)"/>
      <use xlink:href="#DejaVuSans-20" transform="translate(616.943359 0)"/>
      <use xlink:href="#DejaVuSans-52" transform="translate(648.730469 0)"/>
      <use xlink:href="#DejaVuSans-65" transform="translate(713.712891 0)"/>
      <use xlink:href="#DejaVuSans-73" transform="translate(775.236328 0)"/>
      <use xlink:href="#DejaVuSans-75" transform="translate(827.335938 0)"/>
      <use xlink:href="#DejaVuSans-6c" transform="translate(890.714844 0)"/>
      <use xlink:href="#DejaVuSans-74" transform="translate(918.498047 0)"/>
      <use xlink:href="#DejaVuSans-73" transform="translate(957.707031 0)"/>
     </g>
    </g>
    <g id="line2d_40">
     <path d="M 59.137685 84.310687 
L 69.137685 84.310687 
L 79.137685 84.310687 
" style="fill: none; stroke: #2ca02c; stroke-width: 1.5; stroke-linecap: square"/>
    </g>
    <g id="text_15">
     <!-- Multi Results -->
     <g transform="translate(87.137685 87.810687) scale(0.1 -0.1)">
      <defs>
       <path id="DejaVuSans-4d" d="M 628 4666 
L 1569 4666 
L 2759 1491 
L 3956 4666 
L 4897 4666 
L 4897 0 
L 4281 0 
L 4281 4097 
L 3078 897 
L 2444 897 
L 1241 4097 
L 1241 0 
L 628 0 
L 628 4666 
z
" transform="scale(0.015625)"/>
      </defs>
      <use xlink:href="#DejaVuSans-4d"/>
      <use xlink:href="#DejaVuSans-75" transform="translate(86.279297 0)"/>
      <use xlink:href="#DejaVuSans-6c" transform="translate(149.658203 0)"/>
      <use xlink:href="#DejaVuSans-74" transform="translate(177.441406 0)"/>
      <use xlink:href="#DejaVuSans-69" transform="translate(216.650391 0)"/>
      <use xlink:href="#DejaVuSans-20" transform="translate(244.433594 0)"/>
      <use xlink:href="#DejaVuSans-52" transform="translate(276.220703 0)"/>
      <use xlink:href="#DejaVuSans-65" transform="translate(341.203125 0)"/>
      <use xlink:href="#DejaVuSans-73" transform="translate(402.726562 0)"/>
      <use xlink:href="#DejaVuSans-75" transform="translate(454.826172 0)"/>
      <use xlink:href="#DejaVuSans-6c" transform="translate(518.205078 0)"/>
      <use xlink:href="#DejaVuSans-74" transform="translate(545.988281 0)"/>
      <use xlink:href="#DejaVuSans-73" transform="translate(585.197266 0)"/>
     </g>
    </g>
   </g>
  </g>
 </g>
 <defs>
  <clipPath id="p25c3eeee39">
   <rect x="50.137685" y="41.856" width="803.062315" height="348.184"/>
  </clipPath>
 </defs>
</svg>
