<?xml version="1.0" encoding="utf-8" standalone="no"?>
<!DOCTYPE svg PUBLIC "-//W3C//DTD SVG 1.1//EN"
  "http://www.w3.org/Graphics/SVG/1.1/DTD/svg11.dtd">
<svg xmlns:xlink="http://www.w3.org/1999/xlink" width="864pt" height="432pt" viewBox="0 0 864 432" xmlns="http://www.w3.org/2000/svg" version="1.1">
 <metadata>
  <rdf:RDF xmlns:dc="http://purl.org/dc/elements/1.1/" xmlns:cc="http://creativecommons.org/ns#" xmlns:rdf="http://www.w3.org/1999/02/22-rdf-syntax-ns#">
   <cc:Work>
    <dc:type rdf:resource="http://purl.org/dc/dcmitype/StillImage"/>
    <dc:date>2025-05-31T16:12:06.512451</dc:date>
    <dc:format>image/svg+xml</dc:format>
    <dc:creator>
     <cc:Agent>
      <dc:title>Matplotlib v3.10.1, https://matplotlib.org/</dc:title>
     </cc:Agent>
    </dc:creator>
   </cc:Work>
  </rdf:RDF>
 </metadata>
 <defs>
  <style type="text/css">*{stroke-linejoin: round; stroke-linecap: butt}</style>
 </defs>
 <g id="figure_1">
  <g id="patch_1">
   <path d="M 0 432 
L 864 432 
L 864 0 
L 0 0 
z
" style="fill: #ffffff"/>
  </g>
  <g id="axes_1">
   <g id="patch_2">
    <path d="M 50.002685 390.04 
L 853.2 390.04 
L 853.2 41.856 
L 50.002685 41.856 
z
" style="fill: #ffffff"/>
   </g>
   <g id="matplotlib.axis_1">
    <g id="xtick_1">
     <g id="line2d_1">
      <defs>
       <path id="me4b2b07a3d" d="M 0 0 
L 0 3.5 
" style="stroke: #000000; stroke-width: 0.8"/>
      </defs>
      <g>
       <use xlink:href="#me4b2b07a3d" x="86.511654" y="390.04" style="stroke: #000000; stroke-width: 0.8"/>
      </g>
     </g>
     <g id="text_1">
      <!-- 0 -->
      <g transform="translate(83.330404 404.638438) scale(0.1 -0.1)">
       <defs>
        <path id="DejaVuSans-30" d="M 2034 4250 
Q 1547 4250 1301 3770 
Q 1056 3291 1056 2328 
Q 1056 1369 1301 889 
Q 1547 409 2034 409 
Q 2525 409 2770 889 
Q 3016 1369 3016 2328 
Q 3016 3291 2770 3770 
Q 2525 4250 2034 4250 
z
M 2034 4750 
Q 2819 4750 3233 4129 
Q 3647 3509 3647 2328 
Q 3647 1150 3233 529 
Q 2819 -91 2034 -91 
Q 1250 -91 836 529 
Q 422 1150 422 2328 
Q 422 3509 836 4129 
Q 1250 4750 2034 4750 
z
" transform="scale(0.015625)"/>
       </defs>
       <use xlink:href="#DejaVuSans-30"/>
      </g>
     </g>
    </g>
    <g id="xtick_2">
     <g id="line2d_2">
      <g>
       <use xlink:href="#me4b2b07a3d" x="187.925456" y="390.04" style="stroke: #000000; stroke-width: 0.8"/>
      </g>
     </g>
     <g id="text_2">
      <!-- 50 -->
      <g transform="translate(181.562956 404.638438) scale(0.1 -0.1)">
       <defs>
        <path id="DejaVuSans-35" d="M 691 4666 
L 3169 4666 
L 3169 4134 
L 1269 4134 
L 1269 2991 
Q 1406 3038 1543 3061 
Q 1681 3084 1819 3084 
Q 2600 3084 3056 2656 
Q 3513 2228 3513 1497 
Q 3513 744 3044 326 
Q 2575 -91 1722 -91 
Q 1428 -91 1123 -41 
Q 819 9 494 109 
L 494 744 
Q 775 591 1075 516 
Q 1375 441 1709 441 
Q 2250 441 2565 725 
Q 2881 1009 2881 1497 
Q 2881 1984 2565 2268 
Q 2250 2553 1709 2553 
Q 1456 2553 1204 2497 
Q 953 2441 691 2322 
L 691 4666 
z
" transform="scale(0.015625)"/>
       </defs>
       <use xlink:href="#DejaVuSans-35"/>
       <use xlink:href="#DejaVuSans-30" transform="translate(63.623047 0)"/>
      </g>
     </g>
    </g>
    <g id="xtick_3">
     <g id="line2d_3">
      <g>
       <use xlink:href="#me4b2b07a3d" x="289.339258" y="390.04" style="stroke: #000000; stroke-width: 0.8"/>
      </g>
     </g>
     <g id="text_3">
      <!-- 100 -->
      <g transform="translate(279.795508 404.638438) scale(0.1 -0.1)">
       <defs>
        <path id="DejaVuSans-31" d="M 794 531 
L 1825 531 
L 1825 4091 
L 703 3866 
L 703 4441 
L 1819 4666 
L 2450 4666 
L 2450 531 
L 3481 531 
L 3481 0 
L 794 0 
L 794 531 
z
" transform="scale(0.015625)"/>
       </defs>
       <use xlink:href="#DejaVuSans-31"/>
       <use xlink:href="#DejaVuSans-30" transform="translate(63.623047 0)"/>
       <use xlink:href="#DejaVuSans-30" transform="translate(127.246094 0)"/>
      </g>
     </g>
    </g>
    <g id="xtick_4">
     <g id="line2d_4">
      <g>
       <use xlink:href="#me4b2b07a3d" x="390.753061" y="390.04" style="stroke: #000000; stroke-width: 0.8"/>
      </g>
     </g>
     <g id="text_4">
      <!-- 150 -->
      <g transform="translate(381.209311 404.638438) scale(0.1 -0.1)">
       <use xlink:href="#DejaVuSans-31"/>
       <use xlink:href="#DejaVuSans-35" transform="translate(63.623047 0)"/>
       <use xlink:href="#DejaVuSans-30" transform="translate(127.246094 0)"/>
      </g>
     </g>
    </g>
    <g id="xtick_5">
     <g id="line2d_5">
      <g>
       <use xlink:href="#me4b2b07a3d" x="492.166863" y="390.04" style="stroke: #000000; stroke-width: 0.8"/>
      </g>
     </g>
     <g id="text_5">
      <!-- 200 -->
      <g transform="translate(482.623113 404.638438) scale(0.1 -0.1)">
       <defs>
        <path id="DejaVuSans-32" d="M 1228 531 
L 3431 531 
L 3431 0 
L 469 0 
L 469 531 
Q 828 903 1448 1529 
Q 2069 2156 2228 2338 
Q 2531 2678 2651 2914 
Q 2772 3150 2772 3378 
Q 2772 3750 2511 3984 
Q 2250 4219 1831 4219 
Q 1534 4219 1204 4116 
Q 875 4013 500 3803 
L 500 4441 
Q 881 4594 1212 4672 
Q 1544 4750 1819 4750 
Q 2544 4750 2975 4387 
Q 3406 4025 3406 3419 
Q 3406 3131 3298 2873 
Q 3191 2616 2906 2266 
Q 2828 2175 2409 1742 
Q 1991 1309 1228 531 
z
" transform="scale(0.015625)"/>
       </defs>
       <use xlink:href="#DejaVuSans-32"/>
       <use xlink:href="#DejaVuSans-30" transform="translate(63.623047 0)"/>
       <use xlink:href="#DejaVuSans-30" transform="translate(127.246094 0)"/>
      </g>
     </g>
    </g>
    <g id="xtick_6">
     <g id="line2d_6">
      <g>
       <use xlink:href="#me4b2b07a3d" x="593.580666" y="390.04" style="stroke: #000000; stroke-width: 0.8"/>
      </g>
     </g>
     <g id="text_6">
      <!-- 250 -->
      <g transform="translate(584.036916 404.638438) scale(0.1 -0.1)">
       <use xlink:href="#DejaVuSans-32"/>
       <use xlink:href="#DejaVuSans-35" transform="translate(63.623047 0)"/>
       <use xlink:href="#DejaVuSans-30" transform="translate(127.246094 0)"/>
      </g>
     </g>
    </g>
    <g id="xtick_7">
     <g id="line2d_7">
      <g>
       <use xlink:href="#me4b2b07a3d" x="694.994468" y="390.04" style="stroke: #000000; stroke-width: 0.8"/>
      </g>
     </g>
     <g id="text_7">
      <!-- 300 -->
      <g transform="translate(685.450718 404.638438) scale(0.1 -0.1)">
       <defs>
        <path id="DejaVuSans-33" d="M 2597 2516 
Q 3050 2419 3304 2112 
Q 3559 1806 3559 1356 
Q 3559 666 3084 287 
Q 2609 -91 1734 -91 
Q 1441 -91 1130 -33 
Q 819 25 488 141 
L 488 750 
Q 750 597 1062 519 
Q 1375 441 1716 441 
Q 2309 441 2620 675 
Q 2931 909 2931 1356 
Q 2931 1769 2642 2001 
Q 2353 2234 1838 2234 
L 1294 2234 
L 1294 2753 
L 1863 2753 
Q 2328 2753 2575 2939 
Q 2822 3125 2822 3475 
Q 2822 3834 2567 4026 
Q 2313 4219 1838 4219 
Q 1578 4219 1281 4162 
Q 984 4106 628 3988 
L 628 4550 
Q 988 4650 1302 4700 
Q 1616 4750 1894 4750 
Q 2613 4750 3031 4423 
Q 3450 4097 3450 3541 
Q 3450 3153 3228 2886 
Q 3006 2619 2597 2516 
z
" transform="scale(0.015625)"/>
       </defs>
       <use xlink:href="#DejaVuSans-33"/>
       <use xlink:href="#DejaVuSans-30" transform="translate(63.623047 0)"/>
       <use xlink:href="#DejaVuSans-30" transform="translate(127.246094 0)"/>
      </g>
     </g>
    </g>
    <g id="xtick_8">
     <g id="line2d_8">
      <g>
       <use xlink:href="#me4b2b07a3d" x="796.408271" y="390.04" style="stroke: #000000; stroke-width: 0.8"/>
      </g>
     </g>
     <g id="text_8">
      <!-- 350 -->
      <g transform="translate(786.864521 404.638438) scale(0.1 -0.1)">
       <use xlink:href="#DejaVuSans-33"/>
       <use xlink:href="#DejaVuSans-35" transform="translate(63.623047 0)"/>
       <use xlink:href="#DejaVuSans-30" transform="translate(127.246094 0)"/>
      </g>
     </g>
    </g>
    <g id="text_9">
     <!-- Timestamp (Seconds) -->
     <g transform="translate(397.196655 418.316562) scale(0.1 -0.1)">
      <defs>
       <path id="DejaVuSans-54" d="M -19 4666 
L 3928 4666 
L 3928 4134 
L 2272 4134 
L 2272 0 
L 1638 0 
L 1638 4134 
L -19 4134 
L -19 4666 
z
" transform="scale(0.015625)"/>
       <path id="DejaVuSans-69" d="M 603 3500 
L 1178 3500 
L 1178 0 
L 603 0 
L 603 3500 
z
M 603 4863 
L 1178 4863 
L 1178 4134 
L 603 4134 
L 603 4863 
z
" transform="scale(0.015625)"/>
       <path id="DejaVuSans-6d" d="M 3328 2828 
Q 3544 3216 3844 3400 
Q 4144 3584 4550 3584 
Q 5097 3584 5394 3201 
Q 5691 2819 5691 2113 
L 5691 0 
L 5113 0 
L 5113 2094 
Q 5113 2597 4934 2840 
Q 4756 3084 4391 3084 
Q 3944 3084 3684 2787 
Q 3425 2491 3425 1978 
L 3425 0 
L 2847 0 
L 2847 2094 
Q 2847 2600 2669 2842 
Q 2491 3084 2119 3084 
Q 1678 3084 1418 2786 
Q 1159 2488 1159 1978 
L 1159 0 
L 581 0 
L 581 3500 
L 1159 3500 
L 1159 2956 
Q 1356 3278 1631 3431 
Q 1906 3584 2284 3584 
Q 2666 3584 2933 3390 
Q 3200 3197 3328 2828 
z
" transform="scale(0.015625)"/>
       <path id="DejaVuSans-65" d="M 3597 1894 
L 3597 1613 
L 953 1613 
Q 991 1019 1311 708 
Q 1631 397 2203 397 
Q 2534 397 2845 478 
Q 3156 559 3463 722 
L 3463 178 
Q 3153 47 2828 -22 
Q 2503 -91 2169 -91 
Q 1331 -91 842 396 
Q 353 884 353 1716 
Q 353 2575 817 3079 
Q 1281 3584 2069 3584 
Q 2775 3584 3186 3129 
Q 3597 2675 3597 1894 
z
M 3022 2063 
Q 3016 2534 2758 2815 
Q 2500 3097 2075 3097 
Q 1594 3097 1305 2825 
Q 1016 2553 972 2059 
L 3022 2063 
z
" transform="scale(0.015625)"/>
       <path id="DejaVuSans-73" d="M 2834 3397 
L 2834 2853 
Q 2591 2978 2328 3040 
Q 2066 3103 1784 3103 
Q 1356 3103 1142 2972 
Q 928 2841 928 2578 
Q 928 2378 1081 2264 
Q 1234 2150 1697 2047 
L 1894 2003 
Q 2506 1872 2764 1633 
Q 3022 1394 3022 966 
Q 3022 478 2636 193 
Q 2250 -91 1575 -91 
Q 1294 -91 989 -36 
Q 684 19 347 128 
L 347 722 
Q 666 556 975 473 
Q 1284 391 1588 391 
Q 1994 391 2212 530 
Q 2431 669 2431 922 
Q 2431 1156 2273 1281 
Q 2116 1406 1581 1522 
L 1381 1569 
Q 847 1681 609 1914 
Q 372 2147 372 2553 
Q 372 3047 722 3315 
Q 1072 3584 1716 3584 
Q 2034 3584 2315 3537 
Q 2597 3491 2834 3397 
z
" transform="scale(0.015625)"/>
       <path id="DejaVuSans-74" d="M 1172 4494 
L 1172 3500 
L 2356 3500 
L 2356 3053 
L 1172 3053 
L 1172 1153 
Q 1172 725 1289 603 
Q 1406 481 1766 481 
L 2356 481 
L 2356 0 
L 1766 0 
Q 1100 0 847 248 
Q 594 497 594 1153 
L 594 3053 
L 172 3053 
L 172 3500 
L 594 3500 
L 594 4494 
L 1172 4494 
z
" transform="scale(0.015625)"/>
       <path id="DejaVuSans-61" d="M 2194 1759 
Q 1497 1759 1228 1600 
Q 959 1441 959 1056 
Q 959 750 1161 570 
Q 1363 391 1709 391 
Q 2188 391 2477 730 
Q 2766 1069 2766 1631 
L 2766 1759 
L 2194 1759 
z
M 3341 1997 
L 3341 0 
L 2766 0 
L 2766 531 
Q 2569 213 2275 61 
Q 1981 -91 1556 -91 
Q 1019 -91 701 211 
Q 384 513 384 1019 
Q 384 1609 779 1909 
Q 1175 2209 1959 2209 
L 2766 2209 
L 2766 2266 
Q 2766 2663 2505 2880 
Q 2244 3097 1772 3097 
Q 1472 3097 1187 3025 
Q 903 2953 641 2809 
L 641 3341 
Q 956 3463 1253 3523 
Q 1550 3584 1831 3584 
Q 2591 3584 2966 3190 
Q 3341 2797 3341 1997 
z
" transform="scale(0.015625)"/>
       <path id="DejaVuSans-70" d="M 1159 525 
L 1159 -1331 
L 581 -1331 
L 581 3500 
L 1159 3500 
L 1159 2969 
Q 1341 3281 1617 3432 
Q 1894 3584 2278 3584 
Q 2916 3584 3314 3078 
Q 3713 2572 3713 1747 
Q 3713 922 3314 415 
Q 2916 -91 2278 -91 
Q 1894 -91 1617 61 
Q 1341 213 1159 525 
z
M 3116 1747 
Q 3116 2381 2855 2742 
Q 2594 3103 2138 3103 
Q 1681 3103 1420 2742 
Q 1159 2381 1159 1747 
Q 1159 1113 1420 752 
Q 1681 391 2138 391 
Q 2594 391 2855 752 
Q 3116 1113 3116 1747 
z
" transform="scale(0.015625)"/>
       <path id="DejaVuSans-20" transform="scale(0.015625)"/>
       <path id="DejaVuSans-28" d="M 1984 4856 
Q 1566 4138 1362 3434 
Q 1159 2731 1159 2009 
Q 1159 1288 1364 580 
Q 1569 -128 1984 -844 
L 1484 -844 
Q 1016 -109 783 600 
Q 550 1309 550 2009 
Q 550 2706 781 3412 
Q 1013 4119 1484 4856 
L 1984 4856 
z
" transform="scale(0.015625)"/>
       <path id="DejaVuSans-53" d="M 3425 4513 
L 3425 3897 
Q 3066 4069 2747 4153 
Q 2428 4238 2131 4238 
Q 1616 4238 1336 4038 
Q 1056 3838 1056 3469 
Q 1056 3159 1242 3001 
Q 1428 2844 1947 2747 
L 2328 2669 
Q 3034 2534 3370 2195 
Q 3706 1856 3706 1288 
Q 3706 609 3251 259 
Q 2797 -91 1919 -91 
Q 1588 -91 1214 -16 
Q 841 59 441 206 
L 441 856 
Q 825 641 1194 531 
Q 1563 422 1919 422 
Q 2459 422 2753 634 
Q 3047 847 3047 1241 
Q 3047 1584 2836 1778 
Q 2625 1972 2144 2069 
L 1759 2144 
Q 1053 2284 737 2584 
Q 422 2884 422 3419 
Q 422 4038 858 4394 
Q 1294 4750 2059 4750 
Q 2388 4750 2728 4690 
Q 3069 4631 3425 4513 
z
" transform="scale(0.015625)"/>
       <path id="DejaVuSans-63" d="M 3122 3366 
L 3122 2828 
Q 2878 2963 2633 3030 
Q 2388 3097 2138 3097 
Q 1578 3097 1268 2742 
Q 959 2388 959 1747 
Q 959 1106 1268 751 
Q 1578 397 2138 397 
Q 2388 397 2633 464 
Q 2878 531 3122 666 
L 3122 134 
Q 2881 22 2623 -34 
Q 2366 -91 2075 -91 
Q 1284 -91 818 406 
Q 353 903 353 1747 
Q 353 2603 823 3093 
Q 1294 3584 2113 3584 
Q 2378 3584 2631 3529 
Q 2884 3475 3122 3366 
z
" transform="scale(0.015625)"/>
       <path id="DejaVuSans-6f" d="M 1959 3097 
Q 1497 3097 1228 2736 
Q 959 2375 959 1747 
Q 959 1119 1226 758 
Q 1494 397 1959 397 
Q 2419 397 2687 759 
Q 2956 1122 2956 1747 
Q 2956 2369 2687 2733 
Q 2419 3097 1959 3097 
z
M 1959 3584 
Q 2709 3584 3137 3096 
Q 3566 2609 3566 1747 
Q 3566 888 3137 398 
Q 2709 -91 1959 -91 
Q 1206 -91 779 398 
Q 353 888 353 1747 
Q 353 2609 779 3096 
Q 1206 3584 1959 3584 
z
" transform="scale(0.015625)"/>
       <path id="DejaVuSans-6e" d="M 3513 2113 
L 3513 0 
L 2938 0 
L 2938 2094 
Q 2938 2591 2744 2837 
Q 2550 3084 2163 3084 
Q 1697 3084 1428 2787 
Q 1159 2491 1159 1978 
L 1159 0 
L 581 0 
L 581 3500 
L 1159 3500 
L 1159 2956 
Q 1366 3272 1645 3428 
Q 1925 3584 2291 3584 
Q 2894 3584 3203 3211 
Q 3513 2838 3513 2113 
z
" transform="scale(0.015625)"/>
       <path id="DejaVuSans-64" d="M 2906 2969 
L 2906 4863 
L 3481 4863 
L 3481 0 
L 2906 0 
L 2906 525 
Q 2725 213 2448 61 
Q 2172 -91 1784 -91 
Q 1150 -91 751 415 
Q 353 922 353 1747 
Q 353 2572 751 3078 
Q 1150 3584 1784 3584 
Q 2172 3584 2448 3432 
Q 2725 3281 2906 2969 
z
M 947 1747 
Q 947 1113 1208 752 
Q 1469 391 1925 391 
Q 2381 391 2643 752 
Q 2906 1113 2906 1747 
Q 2906 2381 2643 2742 
Q 2381 3103 1925 3103 
Q 1469 3103 1208 2742 
Q 947 2381 947 1747 
z
" transform="scale(0.015625)"/>
       <path id="DejaVuSans-29" d="M 513 4856 
L 1013 4856 
Q 1481 4119 1714 3412 
Q 1947 2706 1947 2009 
Q 1947 1309 1714 600 
Q 1481 -109 1013 -844 
L 513 -844 
Q 928 -128 1133 580 
Q 1338 1288 1338 2009 
Q 1338 2731 1133 3434 
Q 928 4138 513 4856 
z
" transform="scale(0.015625)"/>
      </defs>
      <use xlink:href="#DejaVuSans-54"/>
      <use xlink:href="#DejaVuSans-69" transform="translate(57.958984 0)"/>
      <use xlink:href="#DejaVuSans-6d" transform="translate(85.742188 0)"/>
      <use xlink:href="#DejaVuSans-65" transform="translate(183.154297 0)"/>
      <use xlink:href="#DejaVuSans-73" transform="translate(244.677734 0)"/>
      <use xlink:href="#DejaVuSans-74" transform="translate(296.777344 0)"/>
      <use xlink:href="#DejaVuSans-61" transform="translate(335.986328 0)"/>
      <use xlink:href="#DejaVuSans-6d" transform="translate(397.265625 0)"/>
      <use xlink:href="#DejaVuSans-70" transform="translate(494.677734 0)"/>
      <use xlink:href="#DejaVuSans-20" transform="translate(558.154297 0)"/>
      <use xlink:href="#DejaVuSans-28" transform="translate(589.941406 0)"/>
      <use xlink:href="#DejaVuSans-53" transform="translate(628.955078 0)"/>
      <use xlink:href="#DejaVuSans-65" transform="translate(692.431641 0)"/>
      <use xlink:href="#DejaVuSans-63" transform="translate(753.955078 0)"/>
      <use xlink:href="#DejaVuSans-6f" transform="translate(808.935547 0)"/>
      <use xlink:href="#DejaVuSans-6e" transform="translate(870.117188 0)"/>
      <use xlink:href="#DejaVuSans-64" transform="translate(933.496094 0)"/>
      <use xlink:href="#DejaVuSans-73" transform="translate(996.972656 0)"/>
      <use xlink:href="#DejaVuSans-29" transform="translate(1049.072266 0)"/>
     </g>
    </g>
   </g>
   <g id="matplotlib.axis_2">
    <g id="ytick_1">
     <g id="line2d_9">
      <defs>
       <path id="mef6d0f8746" d="M 0 0 
L -3.5 0 
" style="stroke: #000000; stroke-width: 0.8"/>
      </defs>
      <g>
       <use xlink:href="#mef6d0f8746" x="50.002685" y="313.633977" style="stroke: #000000; stroke-width: 0.8"/>
      </g>
     </g>
     <g id="text_10">
      <!-- $\mathdefault{10^{1}}$ -->
      <g transform="translate(25.402685 317.433196) scale(0.1 -0.1)">
       <use xlink:href="#DejaVuSans-31" transform="translate(0 0.684375)"/>
       <use xlink:href="#DejaVuSans-30" transform="translate(63.623047 0.684375)"/>
       <use xlink:href="#DejaVuSans-31" transform="translate(128.203125 38.965625) scale(0.7)"/>
      </g>
     </g>
    </g>
    <g id="ytick_2">
     <g id="line2d_10">
      <g>
       <use xlink:href="#mef6d0f8746" x="50.002685" y="209.986285" style="stroke: #000000; stroke-width: 0.8"/>
      </g>
     </g>
     <g id="text_11">
      <!-- $\mathdefault{10^{2}}$ -->
      <g transform="translate(25.402685 213.785504) scale(0.1 -0.1)">
       <use xlink:href="#DejaVuSans-31" transform="translate(0 0.765625)"/>
       <use xlink:href="#DejaVuSans-30" transform="translate(63.623047 0.765625)"/>
       <use xlink:href="#DejaVuSans-32" transform="translate(128.203125 39.046875) scale(0.7)"/>
      </g>
     </g>
    </g>
    <g id="ytick_3">
     <g id="line2d_11">
      <g>
       <use xlink:href="#mef6d0f8746" x="50.002685" y="106.338594" style="stroke: #000000; stroke-width: 0.8"/>
      </g>
     </g>
     <g id="text_12">
      <!-- $\mathdefault{10^{3}}$ -->
      <g transform="translate(25.402685 110.137812) scale(0.1 -0.1)">
       <use xlink:href="#DejaVuSans-31" transform="translate(0 0.765625)"/>
       <use xlink:href="#DejaVuSans-30" transform="translate(63.623047 0.765625)"/>
       <use xlink:href="#DejaVuSans-33" transform="translate(128.203125 39.046875) scale(0.7)"/>
      </g>
     </g>
    </g>
    <g id="ytick_4">
     <g id="line2d_12">
      <defs>
       <path id="m605737ea55" d="M 0 0 
L -2 0 
" style="stroke: #000000; stroke-width: 0.6"/>
      </defs>
      <g>
       <use xlink:href="#m605737ea55" x="50.002685" y="386.080605" style="stroke: #000000; stroke-width: 0.6"/>
      </g>
     </g>
    </g>
    <g id="ytick_5">
     <g id="line2d_13">
      <g>
       <use xlink:href="#m605737ea55" x="50.002685" y="367.829152" style="stroke: #000000; stroke-width: 0.6"/>
      </g>
     </g>
    </g>
    <g id="ytick_6">
     <g id="line2d_14">
      <g>
       <use xlink:href="#m605737ea55" x="50.002685" y="354.879541" style="stroke: #000000; stroke-width: 0.6"/>
      </g>
     </g>
    </g>
    <g id="ytick_7">
     <g id="line2d_15">
      <g>
       <use xlink:href="#m605737ea55" x="50.002685" y="344.835042" style="stroke: #000000; stroke-width: 0.6"/>
      </g>
     </g>
    </g>
    <g id="ytick_8">
     <g id="line2d_16">
      <g>
       <use xlink:href="#m605737ea55" x="50.002685" y="336.628088" style="stroke: #000000; stroke-width: 0.6"/>
      </g>
     </g>
    </g>
    <g id="ytick_9">
     <g id="line2d_17">
      <g>
       <use xlink:href="#m605737ea55" x="50.002685" y="329.689208" style="stroke: #000000; stroke-width: 0.6"/>
      </g>
     </g>
    </g>
    <g id="ytick_10">
     <g id="line2d_18">
      <g>
       <use xlink:href="#m605737ea55" x="50.002685" y="323.678476" style="stroke: #000000; stroke-width: 0.6"/>
      </g>
     </g>
    </g>
    <g id="ytick_11">
     <g id="line2d_19">
      <g>
       <use xlink:href="#m605737ea55" x="50.002685" y="318.376636" style="stroke: #000000; stroke-width: 0.6"/>
      </g>
     </g>
    </g>
    <g id="ytick_12">
     <g id="line2d_20">
      <g>
       <use xlink:href="#m605737ea55" x="50.002685" y="282.432913" style="stroke: #000000; stroke-width: 0.6"/>
      </g>
     </g>
    </g>
    <g id="ytick_13">
     <g id="line2d_21">
      <g>
       <use xlink:href="#m605737ea55" x="50.002685" y="264.181461" style="stroke: #000000; stroke-width: 0.6"/>
      </g>
     </g>
    </g>
    <g id="ytick_14">
     <g id="line2d_22">
      <g>
       <use xlink:href="#m605737ea55" x="50.002685" y="251.231849" style="stroke: #000000; stroke-width: 0.6"/>
      </g>
     </g>
    </g>
    <g id="ytick_15">
     <g id="line2d_23">
      <g>
       <use xlink:href="#m605737ea55" x="50.002685" y="241.18735" style="stroke: #000000; stroke-width: 0.6"/>
      </g>
     </g>
    </g>
    <g id="ytick_16">
     <g id="line2d_24">
      <g>
       <use xlink:href="#m605737ea55" x="50.002685" y="232.980396" style="stroke: #000000; stroke-width: 0.6"/>
      </g>
     </g>
    </g>
    <g id="ytick_17">
     <g id="line2d_25">
      <g>
       <use xlink:href="#m605737ea55" x="50.002685" y="226.041516" style="stroke: #000000; stroke-width: 0.6"/>
      </g>
     </g>
    </g>
    <g id="ytick_18">
     <g id="line2d_26">
      <g>
       <use xlink:href="#m605737ea55" x="50.002685" y="220.030785" style="stroke: #000000; stroke-width: 0.6"/>
      </g>
     </g>
    </g>
    <g id="ytick_19">
     <g id="line2d_27">
      <g>
       <use xlink:href="#m605737ea55" x="50.002685" y="214.728944" style="stroke: #000000; stroke-width: 0.6"/>
      </g>
     </g>
    </g>
    <g id="ytick_20">
     <g id="line2d_28">
      <g>
       <use xlink:href="#m605737ea55" x="50.002685" y="178.785221" style="stroke: #000000; stroke-width: 0.6"/>
      </g>
     </g>
    </g>
    <g id="ytick_21">
     <g id="line2d_29">
      <g>
       <use xlink:href="#m605737ea55" x="50.002685" y="160.533769" style="stroke: #000000; stroke-width: 0.6"/>
      </g>
     </g>
    </g>
    <g id="ytick_22">
     <g id="line2d_30">
      <g>
       <use xlink:href="#m605737ea55" x="50.002685" y="147.584157" style="stroke: #000000; stroke-width: 0.6"/>
      </g>
     </g>
    </g>
    <g id="ytick_23">
     <g id="line2d_31">
      <g>
       <use xlink:href="#m605737ea55" x="50.002685" y="137.539658" style="stroke: #000000; stroke-width: 0.6"/>
      </g>
     </g>
    </g>
    <g id="ytick_24">
     <g id="line2d_32">
      <g>
       <use xlink:href="#m605737ea55" x="50.002685" y="129.332704" style="stroke: #000000; stroke-width: 0.6"/>
      </g>
     </g>
    </g>
    <g id="ytick_25">
     <g id="line2d_33">
      <g>
       <use xlink:href="#m605737ea55" x="50.002685" y="122.393824" style="stroke: #000000; stroke-width: 0.6"/>
      </g>
     </g>
    </g>
    <g id="ytick_26">
     <g id="line2d_34">
      <g>
       <use xlink:href="#m605737ea55" x="50.002685" y="116.383093" style="stroke: #000000; stroke-width: 0.6"/>
      </g>
     </g>
    </g>
    <g id="ytick_27">
     <g id="line2d_35">
      <g>
       <use xlink:href="#m605737ea55" x="50.002685" y="111.081252" style="stroke: #000000; stroke-width: 0.6"/>
      </g>
     </g>
    </g>
    <g id="ytick_28">
     <g id="line2d_36">
      <g>
       <use xlink:href="#m605737ea55" x="50.002685" y="75.137529" style="stroke: #000000; stroke-width: 0.6"/>
      </g>
     </g>
    </g>
    <g id="ytick_29">
     <g id="line2d_37">
      <g>
       <use xlink:href="#m605737ea55" x="50.002685" y="56.886077" style="stroke: #000000; stroke-width: 0.6"/>
      </g>
     </g>
    </g>
    <g id="ytick_30">
     <g id="line2d_38">
      <g>
       <use xlink:href="#m605737ea55" x="50.002685" y="43.936465" style="stroke: #000000; stroke-width: 0.6"/>
      </g>
     </g>
    </g>
    <g id="text_13">
     <!-- Avg Duration (ms) -->
     <g transform="translate(19.322997 261.478469) rotate(-90) scale(0.1 -0.1)">
      <defs>
       <path id="DejaVuSans-41" d="M 2188 4044 
L 1331 1722 
L 3047 1722 
L 2188 4044 
z
M 1831 4666 
L 2547 4666 
L 4325 0 
L 3669 0 
L 3244 1197 
L 1141 1197 
L 716 0 
L 50 0 
L 1831 4666 
z
" transform="scale(0.015625)"/>
       <path id="DejaVuSans-76" d="M 191 3500 
L 800 3500 
L 1894 563 
L 2988 3500 
L 3597 3500 
L 2284 0 
L 1503 0 
L 191 3500 
z
" transform="scale(0.015625)"/>
       <path id="DejaVuSans-67" d="M 2906 1791 
Q 2906 2416 2648 2759 
Q 2391 3103 1925 3103 
Q 1463 3103 1205 2759 
Q 947 2416 947 1791 
Q 947 1169 1205 825 
Q 1463 481 1925 481 
Q 2391 481 2648 825 
Q 2906 1169 2906 1791 
z
M 3481 434 
Q 3481 -459 3084 -895 
Q 2688 -1331 1869 -1331 
Q 1566 -1331 1297 -1286 
Q 1028 -1241 775 -1147 
L 775 -588 
Q 1028 -725 1275 -790 
Q 1522 -856 1778 -856 
Q 2344 -856 2625 -561 
Q 2906 -266 2906 331 
L 2906 616 
Q 2728 306 2450 153 
Q 2172 0 1784 0 
Q 1141 0 747 490 
Q 353 981 353 1791 
Q 353 2603 747 3093 
Q 1141 3584 1784 3584 
Q 2172 3584 2450 3431 
Q 2728 3278 2906 2969 
L 2906 3500 
L 3481 3500 
L 3481 434 
z
" transform="scale(0.015625)"/>
       <path id="DejaVuSans-44" d="M 1259 4147 
L 1259 519 
L 2022 519 
Q 2988 519 3436 956 
Q 3884 1394 3884 2338 
Q 3884 3275 3436 3711 
Q 2988 4147 2022 4147 
L 1259 4147 
z
M 628 4666 
L 1925 4666 
Q 3281 4666 3915 4102 
Q 4550 3538 4550 2338 
Q 4550 1131 3912 565 
Q 3275 0 1925 0 
L 628 0 
L 628 4666 
z
" transform="scale(0.015625)"/>
       <path id="DejaVuSans-75" d="M 544 1381 
L 544 3500 
L 1119 3500 
L 1119 1403 
Q 1119 906 1312 657 
Q 1506 409 1894 409 
Q 2359 409 2629 706 
Q 2900 1003 2900 1516 
L 2900 3500 
L 3475 3500 
L 3475 0 
L 2900 0 
L 2900 538 
Q 2691 219 2414 64 
Q 2138 -91 1772 -91 
Q 1169 -91 856 284 
Q 544 659 544 1381 
z
M 1991 3584 
L 1991 3584 
z
" transform="scale(0.015625)"/>
       <path id="DejaVuSans-72" d="M 2631 2963 
Q 2534 3019 2420 3045 
Q 2306 3072 2169 3072 
Q 1681 3072 1420 2755 
Q 1159 2438 1159 1844 
L 1159 0 
L 581 0 
L 581 3500 
L 1159 3500 
L 1159 2956 
Q 1341 3275 1631 3429 
Q 1922 3584 2338 3584 
Q 2397 3584 2469 3576 
Q 2541 3569 2628 3553 
L 2631 2963 
z
" transform="scale(0.015625)"/>
      </defs>
      <use xlink:href="#DejaVuSans-41"/>
      <use xlink:href="#DejaVuSans-76" transform="translate(62.533203 0)"/>
      <use xlink:href="#DejaVuSans-67" transform="translate(121.712891 0)"/>
      <use xlink:href="#DejaVuSans-20" transform="translate(185.189453 0)"/>
      <use xlink:href="#DejaVuSans-44" transform="translate(216.976562 0)"/>
      <use xlink:href="#DejaVuSans-75" transform="translate(293.978516 0)"/>
      <use xlink:href="#DejaVuSans-72" transform="translate(357.357422 0)"/>
      <use xlink:href="#DejaVuSans-61" transform="translate(398.470703 0)"/>
      <use xlink:href="#DejaVuSans-74" transform="translate(459.75 0)"/>
      <use xlink:href="#DejaVuSans-69" transform="translate(498.958984 0)"/>
      <use xlink:href="#DejaVuSans-6f" transform="translate(526.742188 0)"/>
      <use xlink:href="#DejaVuSans-6e" transform="translate(587.923828 0)"/>
      <use xlink:href="#DejaVuSans-20" transform="translate(651.302734 0)"/>
      <use xlink:href="#DejaVuSans-28" transform="translate(683.089844 0)"/>
      <use xlink:href="#DejaVuSans-6d" transform="translate(722.103516 0)"/>
      <use xlink:href="#DejaVuSans-73" transform="translate(819.515625 0)"/>
      <use xlink:href="#DejaVuSans-29" transform="translate(871.615234 0)"/>
     </g>
    </g>
   </g>
   <g id="line2d_39">
    <path d="M 86.511654 352.70109 
L 88.53993 362.635683 
L 90.568206 363.630953 
L 92.596482 365.909922 
L 96.653034 369.161222 
L 98.68131 370.106674 
L 100.709586 367.500229 
L 102.737862 369.056462 
L 104.766138 370.163229 
L 106.794414 368.543293 
L 108.82269 368.54935 
L 110.850966 369.662529 
L 112.879242 364.718022 
L 114.907518 370.152042 
L 116.935794 369.385104 
L 118.96407 369.677704 
L 120.992346 368.543966 
L 123.020623 367.730943 
L 127.077175 369.630085 
L 129.105451 368.354586 
L 131.133727 369.493326 
L 133.162003 368.625654 
L 137.218555 368.967959 
L 139.246831 370.219799 
L 143.303383 367.316824 
L 145.331659 368.595729 
L 147.359935 364.769002 
L 151.416487 368.688678 
L 153.444763 369.855917 
L 155.473039 369.962244 
L 157.501315 369.87 
L 159.529591 369.020355 
L 161.557867 369.688784 
L 163.586143 365.798102 
L 165.61442 369.191482 
L 167.642696 366.30692 
L 169.670972 365.742566 
L 171.699248 368.911861 
L 173.727524 368.473365 
L 175.7558 366.960218 
L 177.784076 367.917615 
L 179.812352 365.915149 
L 181.840628 354.256472 
L 183.868904 368.844136 
L 187.925456 367.369889 
L 189.953732 365.822774 
L 191.982008 366.921938 
L 194.010284 365.784598 
L 196.03856 366.313714 
L 198.066836 367.457206 
L 200.095112 365.969368 
L 202.123388 366.831246 
L 204.151664 365.055987 
L 206.179941 367.879873 
L 208.208217 367.094855 
L 210.236493 366.756073 
L 212.264769 365.548902 
L 214.293045 367.166222 
L 216.321321 366.168862 
L 218.349597 365.652559 
L 220.377873 365.649249 
L 222.406149 367.731517 
L 224.434425 367.341779 
L 226.462701 366.186091 
L 228.490977 366.704768 
L 234.575805 363.258304 
L 236.604081 365.506629 
L 238.632357 363.561814 
L 240.660633 365.257176 
L 242.688909 366.138617 
L 244.717185 366.234282 
L 246.745461 362.294048 
L 248.773738 362.939426 
L 250.802014 363.083995 
L 252.83029 367.354058 
L 254.858566 361.053739 
L 256.886842 365.787071 
L 258.915118 363.248452 
L 260.943394 364.717889 
L 262.97167 359.104326 
L 264.999946 362.432795 
L 267.028222 357.723385 
L 269.056498 362.457542 
L 271.084774 362.306656 
L 273.11305 362.989869 
L 275.141326 360.61492 
L 277.169602 363.979069 
L 279.197878 360.629337 
L 281.226154 361.757687 
L 283.25443 360.492806 
L 285.282706 362.467481 
L 287.310982 362.376403 
L 289.339258 361.034477 
L 291.367535 362.255989 
L 293.395811 361.243563 
L 295.424087 360.781719 
L 297.452363 354.9865 
L 299.480639 362.247654 
L 301.508915 359.438881 
L 303.537191 362.427906 
L 305.565467 352.889973 
L 307.593743 359.476426 
L 309.622019 350.067553 
L 311.650295 339.733878 
L 313.678571 359.823573 
L 315.706847 359.424978 
L 317.735123 348.372287 
L 319.763399 356.010676 
L 321.791675 354.204044 
L 323.819951 354.900635 
L 325.848227 354.637162 
L 327.876503 355.174243 
L 329.904779 356.852599 
L 331.933056 356.317737 
L 333.961332 351.710899 
L 335.989608 358.346516 
L 338.017884 355.40607 
L 340.04616 353.5086 
L 342.074436 355.384185 
L 344.102712 355.602184 
L 346.130988 349.490955 
L 348.159264 351.179618 
L 350.18754 355.836094 
L 352.215816 359.501684 
L 354.244092 356.939933 
L 356.272368 351.08914 
L 358.300644 352.61184 
L 360.32892 359.204466 
L 362.357196 352.206843 
L 364.385472 361.626461 
L 366.413748 357.289015 
L 368.442024 355.564769 
L 370.4703 357.884601 
L 372.498576 353.348854 
L 374.526853 360.095604 
L 376.555129 358.138962 
L 378.583405 357.438963 
L 380.611681 357.774489 
L 382.639957 360.594925 
L 384.668233 354.163341 
L 386.696509 359.504527 
L 388.724785 359.295921 
L 390.753061 362.133625 
L 392.781337 358.246231 
L 394.809613 361.216718 
L 396.837889 357.958917 
L 398.866165 358.204461 
L 400.894441 360.522898 
L 402.922717 359.230534 
L 404.950993 354.987523 
L 406.979269 359.989047 
L 409.007545 357.281058 
L 411.035821 351.041144 
L 413.064097 357.767768 
L 415.092374 360.113804 
L 417.12065 340.863133 
L 419.148926 355.538092 
L 421.177202 354.635973 
L 423.205478 343.429619 
L 425.233754 347.763264 
L 427.26203 349.979761 
L 429.290306 357.54811 
L 431.318582 356.766744 
L 433.346858 349.167684 
L 435.375134 355.529564 
L 437.40341 342.003242 
L 439.431686 355.216875 
L 441.459962 351.072837 
L 443.488238 351.304697 
L 445.516514 356.52869 
L 447.54479 352.879264 
L 449.573066 359.979967 
L 451.601342 346.399442 
L 453.629618 355.816088 
L 455.657894 353.802694 
L 457.686171 348.382389 
L 459.714447 358.641331 
L 461.742723 352.346651 
L 463.770999 356.186382 
L 465.799275 357.786346 
L 467.827551 339.8322 
L 469.855827 358.107117 
L 471.884103 356.830845 
L 473.912379 359.519001 
L 475.940655 356.272336 
L 477.968931 358.546706 
L 479.997207 351.003041 
L 482.025483 354.162041 
L 484.053759 362.496443 
L 486.082035 356.131939 
L 488.110311 359.284435 
L 490.138587 359.823484 
L 492.166863 359.462692 
L 494.195139 351.363771 
L 498.251691 362.372606 
L 500.279968 359.247822 
L 502.308244 339.264976 
L 504.33652 357.910006 
L 506.364796 360.184822 
L 508.393072 330.3139 
L 510.421348 354.527515 
L 512.449624 350.529558 
L 514.4779 347.733162 
L 516.506176 356.146944 
L 518.534452 356.392885 
L 520.562728 355.44058 
L 522.591004 355.243477 
L 524.61928 350.375957 
L 526.647556 339.065973 
L 528.675832 345.531276 
L 530.704108 352.504157 
L 532.732384 348.151554 
L 534.76066 352.032245 
L 536.788936 352.999849 
L 538.817212 348.707929 
L 540.845489 344.944459 
L 542.873765 348.521947 
L 544.902041 351.81396 
L 546.930317 347.652521 
L 548.958593 338.730257 
L 550.986869 350.012456 
L 553.015145 354.007542 
L 555.043421 348.716406 
L 557.071697 351.166581 
L 559.099973 353.345942 
L 561.128249 352.698783 
L 563.156525 343.387874 
L 565.184801 354.679741 
L 567.213077 343.863659 
L 569.241353 347.918934 
L 571.269629 337.193702 
L 573.297905 350.751341 
L 575.326181 335.762394 
L 577.354457 348.34392 
L 579.382733 352.211826 
L 581.411009 354.462609 
L 583.439286 353.962053 
L 585.467562 349.268901 
L 587.495838 356.676296 
L 589.524114 350.463854 
L 591.55239 349.722109 
L 593.580666 356.961157 
L 595.608942 353.865301 
L 597.637218 353.611598 
L 599.665494 351.146044 
L 601.69377 347.474014 
L 603.722046 357.039051 
L 605.750322 344.817779 
L 607.778598 353.642362 
L 609.806874 356.208001 
L 611.83515 353.37783 
L 613.863426 357.971922 
L 615.891702 360.696092 
L 617.919978 357.435646 
L 619.948254 361.349847 
L 621.97653 358.68956 
L 624.004807 354.638013 
L 626.033083 352.612024 
L 628.061359 354.140633 
L 630.089635 356.803117 
L 632.117911 358.983313 
L 634.146187 359.885467 
L 636.174463 359.009521 
L 638.202739 359.410074 
L 640.231015 358.667265 
L 642.259291 362.140393 
L 644.287567 356.252631 
L 646.315843 353.841409 
L 648.344119 355.218338 
L 650.372395 357.423677 
L 652.400671 358.069283 
L 654.428947 359.316523 
L 656.457223 360.296662 
L 658.485499 362.154491 
L 660.513775 361.320135 
L 662.542051 363.723105 
L 664.570327 356.767129 
L 666.598604 360.945125 
L 668.62688 358.734281 
L 670.655156 350.056718 
L 674.711708 365.133646 
L 676.739984 348.639508 
L 678.76826 356.093829 
L 680.796536 356.973819 
L 682.824812 352.87996 
L 684.853088 359.017703 
L 686.881364 360.72492 
L 688.90964 347.949676 
L 690.937916 356.384857 
L 692.966192 362.519196 
L 694.994468 362.822866 
L 697.022744 360.077131 
L 699.05102 360.575468 
L 701.079296 363.675537 
L 703.107572 362.159804 
L 705.135848 360.033466 
L 707.164125 360.364693 
L 709.192401 365.838992 
L 711.220677 365.722688 
L 713.248953 366.789686 
L 715.277229 366.161556 
L 717.305505 367.319313 
L 719.333781 364.907756 
L 721.362057 366.136268 
L 723.390333 364.592809 
L 725.418609 364.880617 
L 727.446885 359.370914 
L 729.475161 364.069727 
L 731.503437 363.689857 
L 733.531713 364.86785 
L 735.559989 353.212605 
L 737.588265 365.191022 
L 739.616541 363.516821 
L 741.644817 366.90185 
L 743.673093 366.681473 
L 745.701369 367.947852 
L 747.729645 364.600112 
L 749.757922 367.767803 
L 751.786198 367.095426 
L 753.814474 368.320138 
L 755.84275 367.018176 
L 757.871026 367.816426 
L 759.899302 358.562838 
L 761.927578 366.807336 
L 763.955854 367.396671 
L 765.98413 368.124057 
L 768.012406 366.082979 
L 770.040682 369.398885 
L 772.068958 367.141505 
L 774.097234 367.572752 
L 776.12551 368.635226 
L 778.153786 365.852268 
L 780.182062 366.12787 
L 782.210338 362.528904 
L 784.238614 367.015804 
L 786.26689 367.03488 
L 788.295166 366.557231 
L 790.323442 364.952454 
L 792.351719 363.555304 
L 794.379995 364.402588 
L 796.408271 365.50814 
L 798.436547 362.235894 
L 802.493099 361.016382 
L 804.521375 367.928025 
L 806.549651 362.579305 
L 808.577927 366.656534 
L 810.606203 364.998606 
L 812.634479 361.348896 
L 814.662755 365.462331 
L 816.691031 359.993954 
L 816.691031 359.993954 
" clip-path="url(#p9306535e70)" style="fill: none; stroke: #1f77b4; stroke-width: 1.5; stroke-linecap: square"/>
   </g>
   <g id="line2d_40">
    <path d="M 86.511654 355.367664 
L 88.53993 366.247314 
L 90.568206 370.076191 
L 94.624758 369.737101 
L 96.653034 371.993006 
L 98.68131 365.954078 
L 100.709586 372.031863 
L 102.737862 374.213455 
L 104.766138 371.031853 
L 106.794414 373.44838 
L 108.82269 372.457424 
L 110.850966 371.767481 
L 112.879242 373.782234 
L 114.907518 361.652124 
L 116.935794 373.744745 
L 118.96407 327.063565 
L 120.992346 336.663779 
L 123.020623 357.317645 
L 125.048899 366.044382 
L 127.077175 372.845925 
L 129.105451 371.130269 
L 131.133727 335.387267 
L 133.162003 349.043875 
L 135.190279 336.214265 
L 137.218555 346.668816 
L 139.246831 329.187029 
L 141.275107 353.642831 
L 143.303383 349.895577 
L 145.331659 356.249887 
L 147.359935 369.729507 
L 149.388211 368.761808 
L 151.416487 348.342399 
L 153.444763 354.909921 
L 155.473039 350.331916 
L 157.501315 342.1076 
L 159.529591 328.240687 
L 161.557867 350.976785 
L 163.586143 205.384419 
L 165.61442 112.527748 
L 167.642696 93.029603 
L 169.670972 107.585397 
L 171.699248 106.386092 
L 173.727524 84.496067 
L 175.7558 98.013367 
L 177.784076 75.618248 
L 179.812352 80.14345 
L 181.840628 79.092889 
L 183.868904 87.549534 
L 185.89718 82.324285 
L 187.925456 75.861736 
L 189.953732 73.143968 
L 191.982008 69.170151 
L 194.010284 66.949498 
L 196.03856 71.055208 
L 198.066836 63.852892 
L 200.095112 67.24771 
L 202.123388 66.638028 
L 204.151664 57.682545 
L 206.179941 61.579176 
L 208.208217 59.092626 
L 210.236493 69.107667 
L 212.264769 84.250849 
L 214.293045 126.2686 
L 216.321321 120.028196 
L 218.349597 115.55845 
L 220.377873 109.320641 
L 222.406149 143.527875 
L 224.434425 123.186876 
L 226.462701 122.150218 
L 228.490977 129.651522 
L 230.519253 119.992194 
L 232.547529 127.834748 
L 234.575805 130.343466 
L 236.604081 119.309702 
L 238.632357 111.798075 
L 240.660633 89.698419 
L 242.688909 125.653577 
L 244.717185 114.688544 
L 246.745461 115.280026 
L 248.773738 127.959218 
L 250.802014 111.925626 
L 252.83029 130.800263 
L 254.858566 138.294027 
L 256.886842 121.657437 
L 258.915118 108.878026 
L 260.943394 120.547573 
L 262.97167 105.404445 
L 264.999946 124.215458 
L 267.028222 119.373906 
L 269.056498 118.518416 
L 271.084774 124.267368 
L 273.11305 101.003567 
L 275.141326 106.119904 
L 277.169602 126.862852 
L 279.197878 110.52696 
L 281.226154 136.438693 
L 283.25443 108.262938 
L 285.282706 113.071379 
L 287.310982 104.911943 
L 289.339258 114.897418 
L 291.367535 154.813175 
L 293.395811 129.652189 
L 295.424087 116.729977 
L 297.452363 111.084051 
L 299.480639 127.771159 
L 301.508915 119.014736 
L 303.537191 130.739214 
L 305.565467 129.949362 
L 307.593743 111.757228 
L 309.622019 131.280537 
L 311.650295 108.392258 
L 313.678571 111.97226 
L 315.706847 116.725177 
L 317.735123 105.323377 
L 319.763399 120.961607 
L 321.791675 130.50066 
L 323.819951 93.137129 
L 325.848227 77.519862 
L 327.876503 105.826317 
L 329.904779 142.030951 
L 331.933056 135.010245 
L 333.961332 105.372391 
L 335.989608 122.182292 
L 338.017884 118.669249 
L 340.04616 95.07831 
L 342.074436 151.86908 
L 344.102712 113.888401 
L 346.130988 98.637055 
L 348.159264 98.852591 
L 350.18754 106.037886 
L 352.215816 114.288215 
L 354.244092 121.369433 
L 356.272368 155.697571 
L 358.300644 130.904924 
L 360.32892 135.196058 
L 362.357196 115.02086 
L 364.385472 93.645045 
L 366.413748 76.704283 
L 368.442024 101.035819 
L 370.4703 96.710762 
L 372.498576 121.577714 
L 374.526853 106.418237 
L 376.555129 109.181662 
L 378.583405 117.796129 
L 380.611681 114.40276 
L 382.639957 124.686362 
L 384.668233 127.091221 
L 386.696509 112.487084 
L 388.724785 109.093259 
L 390.753061 97.649717 
L 392.781337 119.798883 
L 394.809613 150.706704 
L 396.837889 122.999179 
L 398.866165 137.890034 
L 400.894441 130.01813 
L 402.922717 133.576005 
L 404.950993 99.59048 
L 406.979269 111.963876 
L 409.007545 123.161467 
L 411.035821 118.15507 
L 413.064097 130.34041 
L 415.092374 122.039213 
L 417.12065 99.948114 
L 419.148926 110.82066 
L 421.177202 132.65112 
L 423.205478 120.264518 
L 425.233754 125.841994 
L 427.26203 116.968571 
L 429.290306 116.713149 
L 431.318582 112.562095 
L 433.346858 115.071916 
L 435.375134 134.831327 
L 437.40341 125.06265 
L 441.459962 119.604156 
L 443.488238 113.287473 
L 445.516514 108.813677 
L 447.54479 122.091131 
L 449.573066 131.117684 
L 451.601342 129.627787 
L 453.629618 115.546029 
L 455.657894 111.169414 
L 457.686171 109.623486 
L 459.714447 144.698939 
L 461.742723 125.101286 
L 463.770999 125.678701 
L 465.799275 118.286759 
L 467.827551 120.908828 
L 469.855827 118.303693 
L 471.884103 120.667637 
L 473.912379 124.343762 
L 475.940655 119.784632 
L 477.968931 108.208198 
L 479.997207 114.123549 
L 482.025483 104.35756 
L 484.053759 121.730904 
L 486.082035 112.104257 
L 488.110311 122.245768 
L 490.138587 124.610296 
L 492.166863 124.093771 
L 494.195139 104.710047 
L 496.223415 111.216823 
L 498.251691 128.099733 
L 500.279968 115.372772 
L 502.308244 132.580363 
L 504.33652 126.382341 
L 508.393072 107.281829 
L 510.421348 127.43539 
L 512.449624 131.008686 
L 514.4779 121.231585 
L 516.506176 125.138321 
L 518.534452 127.589562 
L 520.562728 108.552197 
L 522.591004 103.35469 
L 524.61928 133.537798 
L 526.647556 119.15875 
L 528.675832 128.798889 
L 530.704108 155.395203 
L 532.732384 145.838343 
L 534.76066 140.196341 
L 536.788936 127.754292 
L 538.817212 107.221847 
L 540.845489 121.250638 
L 542.873765 124.004066 
L 544.902041 127.386597 
L 546.930317 129.168077 
L 548.958593 97.269754 
L 550.986869 105.014653 
L 553.015145 110.526841 
L 555.043421 117.102062 
L 557.071697 136.060915 
L 559.099973 116.795763 
L 561.128249 104.520573 
L 563.156525 132.59848 
L 565.184801 115.825381 
L 567.213077 123.772182 
L 569.241353 114.159549 
L 571.269629 121.262132 
L 573.297905 156.273832 
L 575.326181 126.391807 
L 577.354457 110.153298 
L 579.382733 126.13915 
L 581.411009 133.981905 
L 583.439286 116.406658 
L 585.467562 143.788134 
L 587.495838 132.659485 
L 589.524114 106.868766 
L 591.55239 122.325086 
L 593.580666 96.965558 
L 595.608942 100.197714 
L 597.637218 139.432442 
L 599.665494 102.91888 
L 601.69377 107.265839 
L 603.722046 129.686317 
L 605.750322 104.118148 
L 607.778598 111.864943 
L 609.806874 114.694709 
L 611.83515 114.182667 
L 613.863426 142.515879 
L 615.891702 126.159339 
L 617.919978 116.486656 
L 619.948254 127.668811 
L 621.97653 103.85594 
L 624.004807 103.581967 
L 626.033083 141.884637 
L 628.061359 125.286703 
L 630.089635 118.194985 
L 632.117911 108.180882 
L 634.146187 120.960279 
L 636.174463 131.064325 
L 638.202739 92.617871 
L 640.231015 134.386892 
L 642.259291 119.236531 
L 644.287567 150.106598 
L 646.315843 122.563319 
L 648.344119 116.9824 
L 650.372395 109.696352 
L 652.400671 117.896153 
L 654.428947 97.830915 
L 656.457223 112.836402 
L 658.485499 136.434507 
L 660.513775 148.21284 
L 662.542051 134.649499 
L 664.570327 122.755876 
L 666.598604 102.421583 
L 668.62688 88.561189 
L 670.655156 149.876331 
L 672.683432 139.075466 
L 674.711708 154.434693 
L 676.739984 120.732259 
L 678.76826 126.574872 
L 680.796536 138.565954 
L 682.824812 127.582991 
L 684.853088 117.649398 
L 686.881364 116.47822 
L 688.90964 119.65044 
L 690.937916 102.766653 
L 692.966192 113.065202 
L 694.994468 126.084049 
L 697.022744 125.181545 
L 699.05102 130.225772 
L 701.079296 110.32506 
L 703.107572 125.033251 
L 705.135848 126.340225 
L 707.164125 139.550934 
L 709.192401 127.74992 
L 711.220677 109.103805 
L 713.248953 108.934662 
L 715.277229 128.311363 
L 717.305505 103.584951 
L 719.333781 140.498496 
L 721.362057 121.16333 
L 723.390333 108.509361 
L 725.418609 120.487121 
L 727.446885 142.279142 
L 729.475161 128.973165 
L 731.503437 127.623512 
L 733.531713 125.855988 
L 735.559989 117.527504 
L 737.588265 144.73825 
L 739.616541 147.963668 
L 741.644817 121.640868 
L 743.673093 122.448265 
L 745.701369 138.879931 
L 747.729645 119.389683 
L 749.757922 123.638198 
L 751.786198 127.562417 
L 753.814474 129.657119 
L 755.84275 147.194514 
L 757.871026 119.66498 
L 759.899302 134.313653 
L 761.927578 159.067399 
L 763.955854 255.364197 
L 765.98413 342.911699 
L 768.012406 351.230919 
L 770.040682 362.747018 
L 772.068958 347.860915 
L 774.097234 357.104468 
L 776.12551 360.654366 
L 778.153786 341.364822 
L 780.182062 360.905386 
L 782.210338 366.063828 
L 784.238614 367.761751 
L 786.26689 366.749385 
L 788.295166 369.098827 
L 790.323442 369.540808 
L 792.351719 366.804126 
L 794.379995 367.776376 
L 796.408271 367.21088 
L 798.436547 364.617094 
L 800.464823 366.91143 
L 802.493099 366.488389 
L 804.521375 365.868101 
L 806.549651 365.876044 
L 808.577927 364.158584 
L 810.606203 366.152807 
L 812.634479 364.293209 
L 814.662755 363.481217 
L 814.662755 363.481217 
" clip-path="url(#p9306535e70)" style="fill: none; stroke: #ff7f0e; stroke-width: 1.5; stroke-linecap: square"/>
   </g>
   <g id="line2d_41">
    <path d="M 86.511654 340.339031 
L 90.568206 349.42906 
L 92.596482 353.161956 
L 94.624758 348.636643 
L 96.653034 352.461032 
L 98.68131 348.280216 
L 100.709586 350.276165 
L 102.737862 351.562423 
L 104.766138 349.141085 
L 106.794414 340.871316 
L 108.82269 354.90549 
L 110.850966 355.288419 
L 112.879242 353.941271 
L 114.907518 354.619975 
L 116.935794 345.189576 
L 118.96407 349.165769 
L 120.992346 354.316266 
L 123.020623 353.693119 
L 125.048899 352.671863 
L 127.077175 348.357537 
L 131.133727 353.733125 
L 133.162003 351.440546 
L 135.190279 352.823651 
L 137.218555 353.183283 
L 139.246831 350.564037 
L 141.275107 354.903566 
L 143.303383 348.520579 
L 145.331659 343.414334 
L 147.359935 335.605697 
L 149.388211 326.82774 
L 151.416487 351.84195 
L 153.444763 354.236751 
L 155.473039 349.517901 
L 157.501315 354.283002 
L 159.529591 330.986265 
L 161.557867 332.074075 
L 163.586143 346.573802 
L 165.61442 346.017882 
L 167.642696 342.707927 
L 169.670972 324.650607 
L 171.699248 320.781103 
L 173.727524 339.882121 
L 175.7558 332.429545 
L 177.784076 342.979552 
L 179.812352 320.616023 
L 181.840628 318.156298 
L 183.868904 322.717033 
L 185.89718 320.107287 
L 187.925456 311.63316 
L 189.953732 317.527482 
L 191.982008 278.719179 
L 194.010284 295.093659 
L 196.03856 296.192317 
L 198.066836 279.660447 
L 200.095112 287.909801 
L 202.123388 278.080139 
L 204.151664 285.867801 
L 206.179941 267.959204 
L 208.208217 237.488181 
L 210.236493 280.709348 
L 212.264769 282.75268 
L 214.293045 262.062417 
L 216.321321 280.824859 
L 218.349597 279.183523 
L 220.377873 282.131936 
L 222.406149 306.161978 
L 224.434425 269.132928 
L 226.462701 291.770789 
L 228.490977 293.651949 
L 230.519253 289.272163 
L 232.547529 289.103018 
L 234.575805 277.414416 
L 236.604081 275.96838 
L 238.632357 284.844652 
L 240.660633 295.179882 
L 242.688909 313.993321 
L 244.717185 309.280176 
L 246.745461 308.699087 
L 248.773738 332.153063 
L 250.802014 322.008632 
L 252.83029 334.736721 
L 254.858566 326.806356 
L 256.886842 301.328291 
L 258.915118 318.935278 
L 260.943394 332.749588 
L 262.97167 326.741555 
L 264.999946 331.092675 
L 267.028222 311.469589 
L 269.056498 312.760136 
L 271.084774 297.665688 
L 273.11305 314.780316 
L 275.141326 301.675727 
L 277.169602 317.781843 
L 279.197878 301.906525 
L 281.226154 326.437217 
L 283.25443 314.529331 
L 285.282706 306.823536 
L 287.310982 322.217533 
L 289.339258 281.970863 
L 291.367535 296.343578 
L 293.395811 294.12945 
L 295.424087 312.523859 
L 297.452363 318.699939 
L 299.480639 292.390801 
L 301.508915 317.773137 
L 303.537191 302.810631 
L 305.565467 330.123134 
L 307.593743 327.423347 
L 309.622019 251.172498 
L 311.650295 196.649788 
L 313.678571 156.981399 
L 315.706847 126.467999 
L 317.735123 143.228989 
L 319.763399 158.590159 
L 321.791675 310.39944 
L 323.819951 305.361596 
L 325.848227 323.915406 
L 327.876503 329.704486 
L 329.904779 317.355482 
L 331.933056 312.666442 
L 333.961332 320.954557 
L 335.989608 298.007576 
L 338.017884 294.209925 
L 340.04616 321.947921 
L 342.074436 304.562702 
L 344.102712 300.227118 
L 346.130988 317.868624 
L 348.159264 317.659395 
L 350.18754 309.17392 
L 352.215816 324.5997 
L 354.244092 259.212751 
L 356.272368 301.133157 
L 358.300644 317.113941 
L 360.32892 306.128679 
L 362.357196 313.750424 
L 364.385472 287.285131 
L 366.413748 317.785289 
L 368.442024 315.40126 
L 370.4703 306.972617 
L 372.498576 311.631125 
L 374.526853 315.154634 
L 376.555129 312.475119 
L 378.583405 322.633717 
L 380.611681 320.046862 
L 382.639957 325.317964 
L 384.668233 315.932635 
L 386.696509 308.278356 
L 388.724785 309.685207 
L 390.753061 329.205237 
L 392.781337 321.214888 
L 394.809613 325.960297 
L 396.837889 312.430425 
L 398.866165 311.329999 
L 400.894441 311.982423 
L 402.922717 321.694336 
L 404.950993 308.191402 
L 406.979269 305.979429 
L 411.035821 321.855342 
L 413.064097 319.970744 
L 415.092374 299.875847 
L 417.12065 313.600946 
L 419.148926 302.788888 
L 421.177202 319.798451 
L 423.205478 325.087979 
L 425.233754 332.099013 
L 427.26203 303.288756 
L 429.290306 291.652446 
L 431.318582 317.309479 
L 433.346858 305.269075 
L 435.375134 310.143549 
L 437.40341 293.572895 
L 439.431686 291.212052 
L 441.459962 289.255531 
L 443.488238 292.541191 
L 445.516514 300.275217 
L 447.54479 266.918182 
L 449.573066 276.856389 
L 451.601342 274.304607 
L 453.629618 284.22562 
L 455.657894 282.585296 
L 457.686171 286.271308 
L 459.714447 302.009074 
L 461.742723 291.96523 
L 463.770999 289.369008 
L 465.799275 290.626307 
L 467.827551 296.327627 
L 469.855827 291.45286 
L 471.884103 283.774955 
L 473.912379 295.904182 
L 475.940655 305.676955 
L 477.968931 296.06455 
L 479.997207 293.861167 
L 482.025483 305.461253 
L 484.053759 322.864359 
L 486.082035 302.388873 
L 488.110311 301.247783 
L 490.138587 312.992629 
L 492.166863 297.012326 
L 494.195139 301.660966 
L 496.223415 326.689294 
L 498.251691 320.939797 
L 500.279968 322.985409 
L 502.308244 320.472844 
L 504.33652 313.159792 
L 506.364796 315.409797 
L 508.393072 308.603719 
L 510.421348 309.059553 
L 512.449624 313.217911 
L 514.4779 308.921869 
L 516.506176 307.984582 
L 518.534452 320.221415 
L 520.562728 301.296912 
L 522.591004 315.667109 
L 524.61928 297.60323 
L 526.647556 316.634581 
L 528.675832 326.195351 
L 530.704108 310.596415 
L 534.76066 304.624339 
L 536.788936 305.589093 
L 538.817212 304.724435 
L 540.845489 320.198086 
L 542.873765 323.250313 
L 544.902041 278.7694 
L 546.930317 311.647277 
L 548.958593 310.807719 
L 550.986869 316.590391 
L 553.015145 318.642436 
L 555.043421 301.171213 
L 557.071697 289.327597 
L 559.099973 307.921642 
L 561.128249 311.965194 
L 563.156525 314.050075 
L 565.184801 328.633846 
L 567.213077 303.449406 
L 569.241353 309.266251 
L 571.269629 294.861652 
L 573.297905 323.215656 
L 575.326181 305.528077 
L 577.354457 299.677944 
L 579.382733 298.045291 
L 581.411009 321.249018 
L 583.439286 333.933368 
L 585.467562 319.389939 
L 587.495838 317.579551 
L 589.524114 314.91655 
L 591.55239 312.872279 
L 593.580666 310.117471 
L 595.608942 314.609615 
L 597.637218 313.962011 
L 599.665494 301.663721 
L 601.69377 311.897383 
L 603.722046 315.389 
L 605.750322 301.102499 
L 607.778598 307.057881 
L 609.806874 308.086898 
L 611.83515 308.85775 
L 613.863426 320.86765 
L 615.891702 325.012343 
L 617.919978 314.657225 
L 619.948254 318.639569 
L 621.97653 294.815917 
L 624.004807 323.823633 
L 626.033083 331.343356 
L 628.061359 323.480041 
L 630.089635 318.544593 
L 632.117911 316.609827 
L 634.146187 328.046701 
L 636.174463 295.396666 
L 638.202739 308.30967 
L 640.231015 331.533133 
L 642.259291 310.206176 
L 644.287567 312.769975 
L 646.315843 327.35761 
L 648.344119 322.356389 
L 650.372395 333.241811 
L 652.400671 302.623668 
L 654.428947 314.217396 
L 656.457223 315.888366 
L 658.485499 316.00945 
L 660.513775 320.170243 
L 662.542051 330.311885 
L 664.570327 304.788112 
L 666.598604 329.791241 
L 668.62688 321.862945 
L 670.655156 307.122522 
L 672.683432 313.744597 
L 674.711708 299.207685 
L 676.739984 324.372195 
L 680.796536 305.879415 
L 682.824812 321.762308 
L 684.853088 300.652655 
L 686.881364 302.084197 
L 688.90964 301.414731 
L 690.937916 306.464022 
L 692.966192 300.193829 
L 694.994468 306.995803 
L 697.022744 294.502181 
L 699.05102 295.113018 
L 701.079296 315.505807 
L 703.107572 316.585181 
L 705.135848 312.634777 
L 707.164125 317.977945 
L 709.192401 326.948895 
L 711.220677 324.973183 
L 713.248953 343.010384 
L 715.277229 332.173794 
L 717.305505 329.247699 
L 719.333781 340.359962 
L 721.362057 337.981934 
L 723.390333 331.115372 
L 725.418609 340.896508 
L 727.446885 325.183149 
L 729.475161 327.752427 
L 731.503437 340.366294 
L 733.531713 340.865318 
L 735.559989 325.012765 
L 737.588265 343.149485 
L 739.616541 341.962944 
L 741.644817 338.807962 
L 743.673093 332.29673 
L 745.701369 349.645642 
L 747.729645 343.266742 
L 749.757922 332.666434 
L 751.786198 351.603242 
L 753.814474 352.958585 
L 755.84275 350.939501 
L 757.871026 350.860073 
L 761.927578 350.229167 
L 763.955854 350.883409 
L 765.98413 349.316113 
L 768.012406 352.215309 
L 770.040682 351.632879 
L 772.068958 336.840545 
L 774.097234 347.562358 
L 776.12551 350.278968 
L 778.153786 351.609055 
L 780.182062 353.409386 
L 782.210338 339.876567 
L 784.238614 349.558046 
L 786.26689 348.767145 
L 790.323442 349.324813 
L 792.351719 349.310546 
L 794.379995 346.041319 
L 796.408271 351.488408 
L 798.436547 351.898759 
L 800.464823 352.733818 
L 802.493099 352.198571 
L 804.521375 348.631433 
L 806.549651 352.185713 
L 808.577927 352.256873 
L 810.606203 352.053929 
L 812.634479 350.019942 
L 814.662755 345.884999 
L 816.691031 356.549354 
L 816.691031 356.549354 
" clip-path="url(#p9306535e70)" style="fill: none; stroke: #2ca02c; stroke-width: 1.5; stroke-linecap: square"/>
   </g>
   <g id="patch_3">
    <path d="M 50.002685 390.04 
L 50.002685 41.856 
" style="fill: none; stroke: #000000; stroke-width: 0.8; stroke-linejoin: miter; stroke-linecap: square"/>
   </g>
   <g id="patch_4">
    <path d="M 853.2 390.04 
L 853.2 41.856 
" style="fill: none; stroke: #000000; stroke-width: 0.8; stroke-linejoin: miter; stroke-linecap: square"/>
   </g>
   <g id="patch_5">
    <path d="M 50.002685 390.04 
L 853.2 390.04 
" style="fill: none; stroke: #000000; stroke-width: 0.8; stroke-linejoin: miter; stroke-linecap: square"/>
   </g>
   <g id="patch_6">
    <path d="M 50.002685 41.856 
L 853.2 41.856 
" style="fill: none; stroke: #000000; stroke-width: 0.8; stroke-linejoin: miter; stroke-linecap: square"/>
   </g>
   <g id="text_14">
    <!-- Average HTTP Request Duration Over Time -->
    <g transform="translate(322.529155 22.355625) scale(0.12 -0.12)">
     <defs>
      <path id="DejaVuSans-48" d="M 628 4666 
L 1259 4666 
L 1259 2753 
L 3553 2753 
L 3553 4666 
L 4184 4666 
L 4184 0 
L 3553 0 
L 3553 2222 
L 1259 2222 
L 1259 0 
L 628 0 
L 628 4666 
z
" transform="scale(0.015625)"/>
      <path id="DejaVuSans-50" d="M 1259 4147 
L 1259 2394 
L 2053 2394 
Q 2494 2394 2734 2622 
Q 2975 2850 2975 3272 
Q 2975 3691 2734 3919 
Q 2494 4147 2053 4147 
L 1259 4147 
z
M 628 4666 
L 2053 4666 
Q 2838 4666 3239 4311 
Q 3641 3956 3641 3272 
Q 3641 2581 3239 2228 
Q 2838 1875 2053 1875 
L 1259 1875 
L 1259 0 
L 628 0 
L 628 4666 
z
" transform="scale(0.015625)"/>
      <path id="DejaVuSans-52" d="M 2841 2188 
Q 3044 2119 3236 1894 
Q 3428 1669 3622 1275 
L 4263 0 
L 3584 0 
L 2988 1197 
Q 2756 1666 2539 1819 
Q 2322 1972 1947 1972 
L 1259 1972 
L 1259 0 
L 628 0 
L 628 4666 
L 2053 4666 
Q 2853 4666 3247 4331 
Q 3641 3997 3641 3322 
Q 3641 2881 3436 2590 
Q 3231 2300 2841 2188 
z
M 1259 4147 
L 1259 2491 
L 2053 2491 
Q 2509 2491 2742 2702 
Q 2975 2913 2975 3322 
Q 2975 3731 2742 3939 
Q 2509 4147 2053 4147 
L 1259 4147 
z
" transform="scale(0.015625)"/>
      <path id="DejaVuSans-71" d="M 947 1747 
Q 947 1113 1208 752 
Q 1469 391 1925 391 
Q 2381 391 2643 752 
Q 2906 1113 2906 1747 
Q 2906 2381 2643 2742 
Q 2381 3103 1925 3103 
Q 1469 3103 1208 2742 
Q 947 2381 947 1747 
z
M 2906 525 
Q 2725 213 2448 61 
Q 2172 -91 1784 -91 
Q 1150 -91 751 415 
Q 353 922 353 1747 
Q 353 2572 751 3078 
Q 1150 3584 1784 3584 
Q 2172 3584 2448 3432 
Q 2725 3281 2906 2969 
L 2906 3500 
L 3481 3500 
L 3481 -1331 
L 2906 -1331 
L 2906 525 
z
" transform="scale(0.015625)"/>
      <path id="DejaVuSans-4f" d="M 2522 4238 
Q 1834 4238 1429 3725 
Q 1025 3213 1025 2328 
Q 1025 1447 1429 934 
Q 1834 422 2522 422 
Q 3209 422 3611 934 
Q 4013 1447 4013 2328 
Q 4013 3213 3611 3725 
Q 3209 4238 2522 4238 
z
M 2522 4750 
Q 3503 4750 4090 4092 
Q 4678 3434 4678 2328 
Q 4678 1225 4090 567 
Q 3503 -91 2522 -91 
Q 1538 -91 948 565 
Q 359 1222 359 2328 
Q 359 3434 948 4092 
Q 1538 4750 2522 4750 
z
" transform="scale(0.015625)"/>
     </defs>
     <use xlink:href="#DejaVuSans-41"/>
     <use xlink:href="#DejaVuSans-76" transform="translate(62.533203 0)"/>
     <use xlink:href="#DejaVuSans-65" transform="translate(121.712891 0)"/>
     <use xlink:href="#DejaVuSans-72" transform="translate(183.236328 0)"/>
     <use xlink:href="#DejaVuSans-61" transform="translate(224.349609 0)"/>
     <use xlink:href="#DejaVuSans-67" transform="translate(285.628906 0)"/>
     <use xlink:href="#DejaVuSans-65" transform="translate(349.105469 0)"/>
     <use xlink:href="#DejaVuSans-20" transform="translate(410.628906 0)"/>
     <use xlink:href="#DejaVuSans-48" transform="translate(442.416016 0)"/>
     <use xlink:href="#DejaVuSans-54" transform="translate(517.611328 0)"/>
     <use xlink:href="#DejaVuSans-54" transform="translate(576.945312 0)"/>
     <use xlink:href="#DejaVuSans-50" transform="translate(638.029297 0)"/>
     <use xlink:href="#DejaVuSans-20" transform="translate(698.332031 0)"/>
     <use xlink:href="#DejaVuSans-52" transform="translate(730.119141 0)"/>
     <use xlink:href="#DejaVuSans-65" transform="translate(795.101562 0)"/>
     <use xlink:href="#DejaVuSans-71" transform="translate(856.625 0)"/>
     <use xlink:href="#DejaVuSans-75" transform="translate(920.101562 0)"/>
     <use xlink:href="#DejaVuSans-65" transform="translate(983.480469 0)"/>
     <use xlink:href="#DejaVuSans-73" transform="translate(1045.003906 0)"/>
     <use xlink:href="#DejaVuSans-74" transform="translate(1097.103516 0)"/>
     <use xlink:href="#DejaVuSans-20" transform="translate(1136.3125 0)"/>
     <use xlink:href="#DejaVuSans-44" transform="translate(1168.099609 0)"/>
     <use xlink:href="#DejaVuSans-75" transform="translate(1245.101562 0)"/>
     <use xlink:href="#DejaVuSans-72" transform="translate(1308.480469 0)"/>
     <use xlink:href="#DejaVuSans-61" transform="translate(1349.59375 0)"/>
     <use xlink:href="#DejaVuSans-74" transform="translate(1410.873047 0)"/>
     <use xlink:href="#DejaVuSans-69" transform="translate(1450.082031 0)"/>
     <use xlink:href="#DejaVuSans-6f" transform="translate(1477.865234 0)"/>
     <use xlink:href="#DejaVuSans-6e" transform="translate(1539.046875 0)"/>
     <use xlink:href="#DejaVuSans-20" transform="translate(1602.425781 0)"/>
     <use xlink:href="#DejaVuSans-4f" transform="translate(1634.212891 0)"/>
     <use xlink:href="#DejaVuSans-76" transform="translate(1712.923828 0)"/>
     <use xlink:href="#DejaVuSans-65" transform="translate(1772.103516 0)"/>
     <use xlink:href="#DejaVuSans-72" transform="translate(1833.626953 0)"/>
     <use xlink:href="#DejaVuSans-20" transform="translate(1874.740234 0)"/>
     <use xlink:href="#DejaVuSans-54" transform="translate(1906.527344 0)"/>
     <use xlink:href="#DejaVuSans-69" transform="translate(1964.486328 0)"/>
     <use xlink:href="#DejaVuSans-6d" transform="translate(1992.269531 0)"/>
     <use xlink:href="#DejaVuSans-65" transform="translate(2089.681641 0)"/>
    </g>
    <!-- Test: stress | Endpoint: GetWaypointsByMapId -->
    <g transform="translate(313.830092 35.856) scale(0.12 -0.12)">
     <defs>
      <path id="DejaVuSans-3a" d="M 750 794 
L 1409 794 
L 1409 0 
L 750 0 
L 750 794 
z
M 750 3309 
L 1409 3309 
L 1409 2516 
L 750 2516 
L 750 3309 
z
" transform="scale(0.015625)"/>
      <path id="DejaVuSans-7c" d="M 1344 4891 
L 1344 -1509 
L 813 -1509 
L 813 4891 
L 1344 4891 
z
" transform="scale(0.015625)"/>
      <path id="DejaVuSans-45" d="M 628 4666 
L 3578 4666 
L 3578 4134 
L 1259 4134 
L 1259 2753 
L 3481 2753 
L 3481 2222 
L 1259 2222 
L 1259 531 
L 3634 531 
L 3634 0 
L 628 0 
L 628 4666 
z
" transform="scale(0.015625)"/>
      <path id="DejaVuSans-47" d="M 3809 666 
L 3809 1919 
L 2778 1919 
L 2778 2438 
L 4434 2438 
L 4434 434 
Q 4069 175 3628 42 
Q 3188 -91 2688 -91 
Q 1594 -91 976 548 
Q 359 1188 359 2328 
Q 359 3472 976 4111 
Q 1594 4750 2688 4750 
Q 3144 4750 3555 4637 
Q 3966 4525 4313 4306 
L 4313 3634 
Q 3963 3931 3569 4081 
Q 3175 4231 2741 4231 
Q 1884 4231 1454 3753 
Q 1025 3275 1025 2328 
Q 1025 1384 1454 906 
Q 1884 428 2741 428 
Q 3075 428 3337 486 
Q 3600 544 3809 666 
z
" transform="scale(0.015625)"/>
      <path id="DejaVuSans-57" d="M 213 4666 
L 850 4666 
L 1831 722 
L 2809 4666 
L 3519 4666 
L 4500 722 
L 5478 4666 
L 6119 4666 
L 4947 0 
L 4153 0 
L 3169 4050 
L 2175 0 
L 1381 0 
L 213 4666 
z
" transform="scale(0.015625)"/>
      <path id="DejaVuSans-79" d="M 2059 -325 
Q 1816 -950 1584 -1140 
Q 1353 -1331 966 -1331 
L 506 -1331 
L 506 -850 
L 844 -850 
Q 1081 -850 1212 -737 
Q 1344 -625 1503 -206 
L 1606 56 
L 191 3500 
L 800 3500 
L 1894 763 
L 2988 3500 
L 3597 3500 
L 2059 -325 
z
" transform="scale(0.015625)"/>
      <path id="DejaVuSans-42" d="M 1259 2228 
L 1259 519 
L 2272 519 
Q 2781 519 3026 730 
Q 3272 941 3272 1375 
Q 3272 1813 3026 2020 
Q 2781 2228 2272 2228 
L 1259 2228 
z
M 1259 4147 
L 1259 2741 
L 2194 2741 
Q 2656 2741 2882 2914 
Q 3109 3088 3109 3444 
Q 3109 3797 2882 3972 
Q 2656 4147 2194 4147 
L 1259 4147 
z
M 628 4666 
L 2241 4666 
Q 2963 4666 3353 4366 
Q 3744 4066 3744 3513 
Q 3744 3084 3544 2831 
Q 3344 2578 2956 2516 
Q 3422 2416 3680 2098 
Q 3938 1781 3938 1306 
Q 3938 681 3513 340 
Q 3088 0 2303 0 
L 628 0 
L 628 4666 
z
" transform="scale(0.015625)"/>
      <path id="DejaVuSans-4d" d="M 628 4666 
L 1569 4666 
L 2759 1491 
L 3956 4666 
L 4897 4666 
L 4897 0 
L 4281 0 
L 4281 4097 
L 3078 897 
L 2444 897 
L 1241 4097 
L 1241 0 
L 628 0 
L 628 4666 
z
" transform="scale(0.015625)"/>
      <path id="DejaVuSans-49" d="M 628 4666 
L 1259 4666 
L 1259 0 
L 628 0 
L 628 4666 
z
" transform="scale(0.015625)"/>
     </defs>
     <use xlink:href="#DejaVuSans-54"/>
     <use xlink:href="#DejaVuSans-65" transform="translate(44.083984 0)"/>
     <use xlink:href="#DejaVuSans-73" transform="translate(105.607422 0)"/>
     <use xlink:href="#DejaVuSans-74" transform="translate(157.707031 0)"/>
     <use xlink:href="#DejaVuSans-3a" transform="translate(196.916016 0)"/>
     <use xlink:href="#DejaVuSans-20" transform="translate(230.607422 0)"/>
     <use xlink:href="#DejaVuSans-73" transform="translate(262.394531 0)"/>
     <use xlink:href="#DejaVuSans-74" transform="translate(314.494141 0)"/>
     <use xlink:href="#DejaVuSans-72" transform="translate(353.703125 0)"/>
     <use xlink:href="#DejaVuSans-65" transform="translate(392.566406 0)"/>
     <use xlink:href="#DejaVuSans-73" transform="translate(454.089844 0)"/>
     <use xlink:href="#DejaVuSans-73" transform="translate(506.189453 0)"/>
     <use xlink:href="#DejaVuSans-20" transform="translate(558.289062 0)"/>
     <use xlink:href="#DejaVuSans-7c" transform="translate(590.076172 0)"/>
     <use xlink:href="#DejaVuSans-20" transform="translate(623.767578 0)"/>
     <use xlink:href="#DejaVuSans-45" transform="translate(655.554688 0)"/>
     <use xlink:href="#DejaVuSans-6e" transform="translate(718.738281 0)"/>
     <use xlink:href="#DejaVuSans-64" transform="translate(782.117188 0)"/>
     <use xlink:href="#DejaVuSans-70" transform="translate(845.59375 0)"/>
     <use xlink:href="#DejaVuSans-6f" transform="translate(909.070312 0)"/>
     <use xlink:href="#DejaVuSans-69" transform="translate(970.251953 0)"/>
     <use xlink:href="#DejaVuSans-6e" transform="translate(998.035156 0)"/>
     <use xlink:href="#DejaVuSans-74" transform="translate(1061.414062 0)"/>
     <use xlink:href="#DejaVuSans-3a" transform="translate(1100.623047 0)"/>
     <use xlink:href="#DejaVuSans-20" transform="translate(1134.314453 0)"/>
     <use xlink:href="#DejaVuSans-47" transform="translate(1166.101562 0)"/>
     <use xlink:href="#DejaVuSans-65" transform="translate(1243.591797 0)"/>
     <use xlink:href="#DejaVuSans-74" transform="translate(1305.115234 0)"/>
     <use xlink:href="#DejaVuSans-57" transform="translate(1344.324219 0)"/>
     <use xlink:href="#DejaVuSans-61" transform="translate(1436.826172 0)"/>
     <use xlink:href="#DejaVuSans-79" transform="translate(1498.105469 0)"/>
     <use xlink:href="#DejaVuSans-70" transform="translate(1557.285156 0)"/>
     <use xlink:href="#DejaVuSans-6f" transform="translate(1620.761719 0)"/>
     <use xlink:href="#DejaVuSans-69" transform="translate(1681.943359 0)"/>
     <use xlink:href="#DejaVuSans-6e" transform="translate(1709.726562 0)"/>
     <use xlink:href="#DejaVuSans-74" transform="translate(1773.105469 0)"/>
     <use xlink:href="#DejaVuSans-73" transform="translate(1812.314453 0)"/>
     <use xlink:href="#DejaVuSans-42" transform="translate(1864.414062 0)"/>
     <use xlink:href="#DejaVuSans-79" transform="translate(1933.017578 0)"/>
     <use xlink:href="#DejaVuSans-4d" transform="translate(1992.197266 0)"/>
     <use xlink:href="#DejaVuSans-61" transform="translate(2078.476562 0)"/>
     <use xlink:href="#DejaVuSans-70" transform="translate(2139.755859 0)"/>
     <use xlink:href="#DejaVuSans-49" transform="translate(2203.232422 0)"/>
     <use xlink:href="#DejaVuSans-64" transform="translate(2232.724609 0)"/>
    </g>
   </g>
   <g id="legend_1">
    <g id="patch_7">
     <path d="M 712.85625 93.890375 
L 846.2 93.890375 
Q 848.2 93.890375 848.2 91.890375 
L 848.2 48.856 
Q 848.2 46.856 846.2 46.856 
L 712.85625 46.856 
Q 710.85625 46.856 710.85625 48.856 
L 710.85625 91.890375 
Q 710.85625 93.890375 712.85625 93.890375 
z
" style="fill: #ffffff; opacity: 0.8; stroke: #cccccc; stroke-linejoin: miter"/>
    </g>
    <g id="line2d_42">
     <path d="M 714.85625 54.954437 
L 724.85625 54.954437 
L 734.85625 54.954437 
" style="fill: none; stroke: #1f77b4; stroke-width: 1.5; stroke-linecap: square"/>
    </g>
    <g id="text_15">
     <!-- Single Large Results -->
     <g transform="translate(742.85625 58.454437) scale(0.1 -0.1)">
      <defs>
       <path id="DejaVuSans-6c" d="M 603 4863 
L 1178 4863 
L 1178 0 
L 603 0 
L 603 4863 
z
" transform="scale(0.015625)"/>
       <path id="DejaVuSans-4c" d="M 628 4666 
L 1259 4666 
L 1259 531 
L 3531 531 
L 3531 0 
L 628 0 
L 628 4666 
z
" transform="scale(0.015625)"/>
      </defs>
      <use xlink:href="#DejaVuSans-53"/>
      <use xlink:href="#DejaVuSans-69" transform="translate(63.476562 0)"/>
      <use xlink:href="#DejaVuSans-6e" transform="translate(91.259766 0)"/>
      <use xlink:href="#DejaVuSans-67" transform="translate(154.638672 0)"/>
      <use xlink:href="#DejaVuSans-6c" transform="translate(218.115234 0)"/>
      <use xlink:href="#DejaVuSans-65" transform="translate(245.898438 0)"/>
      <use xlink:href="#DejaVuSans-20" transform="translate(307.421875 0)"/>
      <use xlink:href="#DejaVuSans-4c" transform="translate(339.208984 0)"/>
      <use xlink:href="#DejaVuSans-61" transform="translate(394.921875 0)"/>
      <use xlink:href="#DejaVuSans-72" transform="translate(456.201172 0)"/>
      <use xlink:href="#DejaVuSans-67" transform="translate(495.564453 0)"/>
      <use xlink:href="#DejaVuSans-65" transform="translate(559.041016 0)"/>
      <use xlink:href="#DejaVuSans-20" transform="translate(620.564453 0)"/>
      <use xlink:href="#DejaVuSans-52" transform="translate(652.351562 0)"/>
      <use xlink:href="#DejaVuSans-65" transform="translate(717.333984 0)"/>
      <use xlink:href="#DejaVuSans-73" transform="translate(778.857422 0)"/>
      <use xlink:href="#DejaVuSans-75" transform="translate(830.957031 0)"/>
      <use xlink:href="#DejaVuSans-6c" transform="translate(894.335938 0)"/>
      <use xlink:href="#DejaVuSans-74" transform="translate(922.119141 0)"/>
      <use xlink:href="#DejaVuSans-73" transform="translate(961.328125 0)"/>
     </g>
    </g>
    <g id="line2d_43">
     <path d="M 714.85625 69.632562 
L 724.85625 69.632562 
L 734.85625 69.632562 
" style="fill: none; stroke: #ff7f0e; stroke-width: 1.5; stroke-linecap: square"/>
    </g>
    <g id="text_16">
     <!-- Single Small Results -->
     <g transform="translate(742.85625 73.132562) scale(0.1 -0.1)">
      <use xlink:href="#DejaVuSans-53"/>
      <use xlink:href="#DejaVuSans-69" transform="translate(63.476562 0)"/>
      <use xlink:href="#DejaVuSans-6e" transform="translate(91.259766 0)"/>
      <use xlink:href="#DejaVuSans-67" transform="translate(154.638672 0)"/>
      <use xlink:href="#DejaVuSans-6c" transform="translate(218.115234 0)"/>
      <use xlink:href="#DejaVuSans-65" transform="translate(245.898438 0)"/>
      <use xlink:href="#DejaVuSans-20" transform="translate(307.421875 0)"/>
      <use xlink:href="#DejaVuSans-53" transform="translate(339.208984 0)"/>
      <use xlink:href="#DejaVuSans-6d" transform="translate(402.685547 0)"/>
      <use xlink:href="#DejaVuSans-61" transform="translate(500.097656 0)"/>
      <use xlink:href="#DejaVuSans-6c" transform="translate(561.376953 0)"/>
      <use xlink:href="#DejaVuSans-6c" transform="translate(589.160156 0)"/>
      <use xlink:href="#DejaVuSans-20" transform="translate(616.943359 0)"/>
      <use xlink:href="#DejaVuSans-52" transform="translate(648.730469 0)"/>
      <use xlink:href="#DejaVuSans-65" transform="translate(713.712891 0)"/>
      <use xlink:href="#DejaVuSans-73" transform="translate(775.236328 0)"/>
      <use xlink:href="#DejaVuSans-75" transform="translate(827.335938 0)"/>
      <use xlink:href="#DejaVuSans-6c" transform="translate(890.714844 0)"/>
      <use xlink:href="#DejaVuSans-74" transform="translate(918.498047 0)"/>
      <use xlink:href="#DejaVuSans-73" transform="translate(957.707031 0)"/>
     </g>
    </g>
    <g id="line2d_44">
     <path d="M 714.85625 84.310687 
L 724.85625 84.310687 
L 734.85625 84.310687 
" style="fill: none; stroke: #2ca02c; stroke-width: 1.5; stroke-linecap: square"/>
    </g>
    <g id="text_17">
     <!-- Multi Results -->
     <g transform="translate(742.85625 87.810687) scale(0.1 -0.1)">
      <use xlink:href="#DejaVuSans-4d"/>
      <use xlink:href="#DejaVuSans-75" transform="translate(86.279297 0)"/>
      <use xlink:href="#DejaVuSans-6c" transform="translate(149.658203 0)"/>
      <use xlink:href="#DejaVuSans-74" transform="translate(177.441406 0)"/>
      <use xlink:href="#DejaVuSans-69" transform="translate(216.650391 0)"/>
      <use xlink:href="#DejaVuSans-20" transform="translate(244.433594 0)"/>
      <use xlink:href="#DejaVuSans-52" transform="translate(276.220703 0)"/>
      <use xlink:href="#DejaVuSans-65" transform="translate(341.203125 0)"/>
      <use xlink:href="#DejaVuSans-73" transform="translate(402.726562 0)"/>
      <use xlink:href="#DejaVuSans-75" transform="translate(454.826172 0)"/>
      <use xlink:href="#DejaVuSans-6c" transform="translate(518.205078 0)"/>
      <use xlink:href="#DejaVuSans-74" transform="translate(545.988281 0)"/>
      <use xlink:href="#DejaVuSans-73" transform="translate(585.197266 0)"/>
     </g>
    </g>
   </g>
  </g>
 </g>
 <defs>
  <clipPath id="p9306535e70">
   <rect x="50.002685" y="41.856" width="803.197315" height="348.184"/>
  </clipPath>
 </defs>
</svg>
