<?xml version="1.0" encoding="utf-8" standalone="no"?>
<!DOCTYPE svg PUBLIC "-//W3C//DTD SVG 1.1//EN"
  "http://www.w3.org/Graphics/SVG/1.1/DTD/svg11.dtd">
<svg xmlns:xlink="http://www.w3.org/1999/xlink" width="1008pt" height="288pt" viewBox="0 0 1008 288" xmlns="http://www.w3.org/2000/svg" version="1.1">
 <metadata>
  <rdf:RDF xmlns:dc="http://purl.org/dc/elements/1.1/" xmlns:cc="http://creativecommons.org/ns#" xmlns:rdf="http://www.w3.org/1999/02/22-rdf-syntax-ns#">
   <cc:Work>
    <dc:type rdf:resource="http://purl.org/dc/dcmitype/StillImage"/>
    <dc:date>2025-05-31T22:12:30.157238</dc:date>
    <dc:format>image/svg+xml</dc:format>
    <dc:creator>
     <cc:Agent>
      <dc:title>Matplotlib v3.10.1, https://matplotlib.org/</dc:title>
     </cc:Agent>
    </dc:creator>
   </cc:Work>
  </rdf:RDF>
 </metadata>
 <defs>
  <style type="text/css">*{stroke-linejoin: round; stroke-linecap: butt}</style>
 </defs>
 <g id="figure_1">
  <g id="patch_1">
   <path d="M 0 288 
L 1008 288 
L 1008 0 
L 0 0 
z
" style="fill: #ffffff"/>
  </g>
  <g id="axes_1">
   <g id="patch_2">
    <path d="M 50.87 246.04 
L 997.2 246.04 
L 997.2 26.88 
L 50.87 26.88 
z
" style="fill: #ffffff"/>
   </g>
   <g id="matplotlib.axis_1">
    <g id="xtick_1">
     <g id="line2d_1">
      <defs>
       <path id="m0630d36c71" d="M 0 0 
L 0 3.5 
" style="stroke: #000000; stroke-width: 0.8"/>
      </defs>
      <g>
       <use xlink:href="#m0630d36c71" x="93.885" y="246.04" style="stroke: #000000; stroke-width: 0.8"/>
      </g>
     </g>
     <g id="text_1">
      <!-- 0 -->
      <g transform="translate(90.70375 260.638438) scale(0.1 -0.1)">
       <defs>
        <path id="DejaVuSans-30" d="M 2034 4250 
Q 1547 4250 1301 3770 
Q 1056 3291 1056 2328 
Q 1056 1369 1301 889 
Q 1547 409 2034 409 
Q 2525 409 2770 889 
Q 3016 1369 3016 2328 
Q 3016 3291 2770 3770 
Q 2525 4250 2034 4250 
z
M 2034 4750 
Q 2819 4750 3233 4129 
Q 3647 3509 3647 2328 
Q 3647 1150 3233 529 
Q 2819 -91 2034 -91 
Q 1250 -91 836 529 
Q 422 1150 422 2328 
Q 422 3509 836 4129 
Q 1250 4750 2034 4750 
z
" transform="scale(0.015625)"/>
       </defs>
       <use xlink:href="#DejaVuSans-30"/>
      </g>
     </g>
    </g>
    <g id="xtick_2">
     <g id="line2d_2">
      <g>
       <use xlink:href="#m0630d36c71" x="213.371111" y="246.04" style="stroke: #000000; stroke-width: 0.8"/>
      </g>
     </g>
     <g id="text_2">
      <!-- 50 -->
      <g transform="translate(207.008611 260.638438) scale(0.1 -0.1)">
       <defs>
        <path id="DejaVuSans-35" d="M 691 4666 
L 3169 4666 
L 3169 4134 
L 1269 4134 
L 1269 2991 
Q 1406 3038 1543 3061 
Q 1681 3084 1819 3084 
Q 2600 3084 3056 2656 
Q 3513 2228 3513 1497 
Q 3513 744 3044 326 
Q 2575 -91 1722 -91 
Q 1428 -91 1123 -41 
Q 819 9 494 109 
L 494 744 
Q 775 591 1075 516 
Q 1375 441 1709 441 
Q 2250 441 2565 725 
Q 2881 1009 2881 1497 
Q 2881 1984 2565 2268 
Q 2250 2553 1709 2553 
Q 1456 2553 1204 2497 
Q 953 2441 691 2322 
L 691 4666 
z
" transform="scale(0.015625)"/>
       </defs>
       <use xlink:href="#DejaVuSans-35"/>
       <use xlink:href="#DejaVuSans-30" transform="translate(63.623047 0)"/>
      </g>
     </g>
    </g>
    <g id="xtick_3">
     <g id="line2d_3">
      <g>
       <use xlink:href="#m0630d36c71" x="332.857222" y="246.04" style="stroke: #000000; stroke-width: 0.8"/>
      </g>
     </g>
     <g id="text_3">
      <!-- 100 -->
      <g transform="translate(323.313472 260.638438) scale(0.1 -0.1)">
       <defs>
        <path id="DejaVuSans-31" d="M 794 531 
L 1825 531 
L 1825 4091 
L 703 3866 
L 703 4441 
L 1819 4666 
L 2450 4666 
L 2450 531 
L 3481 531 
L 3481 0 
L 794 0 
L 794 531 
z
" transform="scale(0.015625)"/>
       </defs>
       <use xlink:href="#DejaVuSans-31"/>
       <use xlink:href="#DejaVuSans-30" transform="translate(63.623047 0)"/>
       <use xlink:href="#DejaVuSans-30" transform="translate(127.246094 0)"/>
      </g>
     </g>
    </g>
    <g id="xtick_4">
     <g id="line2d_4">
      <g>
       <use xlink:href="#m0630d36c71" x="452.343333" y="246.04" style="stroke: #000000; stroke-width: 0.8"/>
      </g>
     </g>
     <g id="text_4">
      <!-- 150 -->
      <g transform="translate(442.799583 260.638438) scale(0.1 -0.1)">
       <use xlink:href="#DejaVuSans-31"/>
       <use xlink:href="#DejaVuSans-35" transform="translate(63.623047 0)"/>
       <use xlink:href="#DejaVuSans-30" transform="translate(127.246094 0)"/>
      </g>
     </g>
    </g>
    <g id="xtick_5">
     <g id="line2d_5">
      <g>
       <use xlink:href="#m0630d36c71" x="571.829444" y="246.04" style="stroke: #000000; stroke-width: 0.8"/>
      </g>
     </g>
     <g id="text_5">
      <!-- 200 -->
      <g transform="translate(562.285694 260.638438) scale(0.1 -0.1)">
       <defs>
        <path id="DejaVuSans-32" d="M 1228 531 
L 3431 531 
L 3431 0 
L 469 0 
L 469 531 
Q 828 903 1448 1529 
Q 2069 2156 2228 2338 
Q 2531 2678 2651 2914 
Q 2772 3150 2772 3378 
Q 2772 3750 2511 3984 
Q 2250 4219 1831 4219 
Q 1534 4219 1204 4116 
Q 875 4013 500 3803 
L 500 4441 
Q 881 4594 1212 4672 
Q 1544 4750 1819 4750 
Q 2544 4750 2975 4387 
Q 3406 4025 3406 3419 
Q 3406 3131 3298 2873 
Q 3191 2616 2906 2266 
Q 2828 2175 2409 1742 
Q 1991 1309 1228 531 
z
" transform="scale(0.015625)"/>
       </defs>
       <use xlink:href="#DejaVuSans-32"/>
       <use xlink:href="#DejaVuSans-30" transform="translate(63.623047 0)"/>
       <use xlink:href="#DejaVuSans-30" transform="translate(127.246094 0)"/>
      </g>
     </g>
    </g>
    <g id="xtick_6">
     <g id="line2d_6">
      <g>
       <use xlink:href="#m0630d36c71" x="691.315556" y="246.04" style="stroke: #000000; stroke-width: 0.8"/>
      </g>
     </g>
     <g id="text_6">
      <!-- 250 -->
      <g transform="translate(681.771806 260.638438) scale(0.1 -0.1)">
       <use xlink:href="#DejaVuSans-32"/>
       <use xlink:href="#DejaVuSans-35" transform="translate(63.623047 0)"/>
       <use xlink:href="#DejaVuSans-30" transform="translate(127.246094 0)"/>
      </g>
     </g>
    </g>
    <g id="xtick_7">
     <g id="line2d_7">
      <g>
       <use xlink:href="#m0630d36c71" x="810.801667" y="246.04" style="stroke: #000000; stroke-width: 0.8"/>
      </g>
     </g>
     <g id="text_7">
      <!-- 300 -->
      <g transform="translate(801.257917 260.638438) scale(0.1 -0.1)">
       <defs>
        <path id="DejaVuSans-33" d="M 2597 2516 
Q 3050 2419 3304 2112 
Q 3559 1806 3559 1356 
Q 3559 666 3084 287 
Q 2609 -91 1734 -91 
Q 1441 -91 1130 -33 
Q 819 25 488 141 
L 488 750 
Q 750 597 1062 519 
Q 1375 441 1716 441 
Q 2309 441 2620 675 
Q 2931 909 2931 1356 
Q 2931 1769 2642 2001 
Q 2353 2234 1838 2234 
L 1294 2234 
L 1294 2753 
L 1863 2753 
Q 2328 2753 2575 2939 
Q 2822 3125 2822 3475 
Q 2822 3834 2567 4026 
Q 2313 4219 1838 4219 
Q 1578 4219 1281 4162 
Q 984 4106 628 3988 
L 628 4550 
Q 988 4650 1302 4700 
Q 1616 4750 1894 4750 
Q 2613 4750 3031 4423 
Q 3450 4097 3450 3541 
Q 3450 3153 3228 2886 
Q 3006 2619 2597 2516 
z
" transform="scale(0.015625)"/>
       </defs>
       <use xlink:href="#DejaVuSans-33"/>
       <use xlink:href="#DejaVuSans-30" transform="translate(63.623047 0)"/>
       <use xlink:href="#DejaVuSans-30" transform="translate(127.246094 0)"/>
      </g>
     </g>
    </g>
    <g id="xtick_8">
     <g id="line2d_8">
      <g>
       <use xlink:href="#m0630d36c71" x="930.287778" y="246.04" style="stroke: #000000; stroke-width: 0.8"/>
      </g>
     </g>
     <g id="text_8">
      <!-- 350 -->
      <g transform="translate(920.744028 260.638438) scale(0.1 -0.1)">
       <use xlink:href="#DejaVuSans-33"/>
       <use xlink:href="#DejaVuSans-35" transform="translate(63.623047 0)"/>
       <use xlink:href="#DejaVuSans-30" transform="translate(127.246094 0)"/>
      </g>
     </g>
    </g>
    <g id="text_9">
     <!-- Timestamp (Seconds) -->
     <g transform="translate(469.630312 274.316562) scale(0.1 -0.1)">
      <defs>
       <path id="DejaVuSans-54" d="M -19 4666 
L 3928 4666 
L 3928 4134 
L 2272 4134 
L 2272 0 
L 1638 0 
L 1638 4134 
L -19 4134 
L -19 4666 
z
" transform="scale(0.015625)"/>
       <path id="DejaVuSans-69" d="M 603 3500 
L 1178 3500 
L 1178 0 
L 603 0 
L 603 3500 
z
M 603 4863 
L 1178 4863 
L 1178 4134 
L 603 4134 
L 603 4863 
z
" transform="scale(0.015625)"/>
       <path id="DejaVuSans-6d" d="M 3328 2828 
Q 3544 3216 3844 3400 
Q 4144 3584 4550 3584 
Q 5097 3584 5394 3201 
Q 5691 2819 5691 2113 
L 5691 0 
L 5113 0 
L 5113 2094 
Q 5113 2597 4934 2840 
Q 4756 3084 4391 3084 
Q 3944 3084 3684 2787 
Q 3425 2491 3425 1978 
L 3425 0 
L 2847 0 
L 2847 2094 
Q 2847 2600 2669 2842 
Q 2491 3084 2119 3084 
Q 1678 3084 1418 2786 
Q 1159 2488 1159 1978 
L 1159 0 
L 581 0 
L 581 3500 
L 1159 3500 
L 1159 2956 
Q 1356 3278 1631 3431 
Q 1906 3584 2284 3584 
Q 2666 3584 2933 3390 
Q 3200 3197 3328 2828 
z
" transform="scale(0.015625)"/>
       <path id="DejaVuSans-65" d="M 3597 1894 
L 3597 1613 
L 953 1613 
Q 991 1019 1311 708 
Q 1631 397 2203 397 
Q 2534 397 2845 478 
Q 3156 559 3463 722 
L 3463 178 
Q 3153 47 2828 -22 
Q 2503 -91 2169 -91 
Q 1331 -91 842 396 
Q 353 884 353 1716 
Q 353 2575 817 3079 
Q 1281 3584 2069 3584 
Q 2775 3584 3186 3129 
Q 3597 2675 3597 1894 
z
M 3022 2063 
Q 3016 2534 2758 2815 
Q 2500 3097 2075 3097 
Q 1594 3097 1305 2825 
Q 1016 2553 972 2059 
L 3022 2063 
z
" transform="scale(0.015625)"/>
       <path id="DejaVuSans-73" d="M 2834 3397 
L 2834 2853 
Q 2591 2978 2328 3040 
Q 2066 3103 1784 3103 
Q 1356 3103 1142 2972 
Q 928 2841 928 2578 
Q 928 2378 1081 2264 
Q 1234 2150 1697 2047 
L 1894 2003 
Q 2506 1872 2764 1633 
Q 3022 1394 3022 966 
Q 3022 478 2636 193 
Q 2250 -91 1575 -91 
Q 1294 -91 989 -36 
Q 684 19 347 128 
L 347 722 
Q 666 556 975 473 
Q 1284 391 1588 391 
Q 1994 391 2212 530 
Q 2431 669 2431 922 
Q 2431 1156 2273 1281 
Q 2116 1406 1581 1522 
L 1381 1569 
Q 847 1681 609 1914 
Q 372 2147 372 2553 
Q 372 3047 722 3315 
Q 1072 3584 1716 3584 
Q 2034 3584 2315 3537 
Q 2597 3491 2834 3397 
z
" transform="scale(0.015625)"/>
       <path id="DejaVuSans-74" d="M 1172 4494 
L 1172 3500 
L 2356 3500 
L 2356 3053 
L 1172 3053 
L 1172 1153 
Q 1172 725 1289 603 
Q 1406 481 1766 481 
L 2356 481 
L 2356 0 
L 1766 0 
Q 1100 0 847 248 
Q 594 497 594 1153 
L 594 3053 
L 172 3053 
L 172 3500 
L 594 3500 
L 594 4494 
L 1172 4494 
z
" transform="scale(0.015625)"/>
       <path id="DejaVuSans-61" d="M 2194 1759 
Q 1497 1759 1228 1600 
Q 959 1441 959 1056 
Q 959 750 1161 570 
Q 1363 391 1709 391 
Q 2188 391 2477 730 
Q 2766 1069 2766 1631 
L 2766 1759 
L 2194 1759 
z
M 3341 1997 
L 3341 0 
L 2766 0 
L 2766 531 
Q 2569 213 2275 61 
Q 1981 -91 1556 -91 
Q 1019 -91 701 211 
Q 384 513 384 1019 
Q 384 1609 779 1909 
Q 1175 2209 1959 2209 
L 2766 2209 
L 2766 2266 
Q 2766 2663 2505 2880 
Q 2244 3097 1772 3097 
Q 1472 3097 1187 3025 
Q 903 2953 641 2809 
L 641 3341 
Q 956 3463 1253 3523 
Q 1550 3584 1831 3584 
Q 2591 3584 2966 3190 
Q 3341 2797 3341 1997 
z
" transform="scale(0.015625)"/>
       <path id="DejaVuSans-70" d="M 1159 525 
L 1159 -1331 
L 581 -1331 
L 581 3500 
L 1159 3500 
L 1159 2969 
Q 1341 3281 1617 3432 
Q 1894 3584 2278 3584 
Q 2916 3584 3314 3078 
Q 3713 2572 3713 1747 
Q 3713 922 3314 415 
Q 2916 -91 2278 -91 
Q 1894 -91 1617 61 
Q 1341 213 1159 525 
z
M 3116 1747 
Q 3116 2381 2855 2742 
Q 2594 3103 2138 3103 
Q 1681 3103 1420 2742 
Q 1159 2381 1159 1747 
Q 1159 1113 1420 752 
Q 1681 391 2138 391 
Q 2594 391 2855 752 
Q 3116 1113 3116 1747 
z
" transform="scale(0.015625)"/>
       <path id="DejaVuSans-20" transform="scale(0.015625)"/>
       <path id="DejaVuSans-28" d="M 1984 4856 
Q 1566 4138 1362 3434 
Q 1159 2731 1159 2009 
Q 1159 1288 1364 580 
Q 1569 -128 1984 -844 
L 1484 -844 
Q 1016 -109 783 600 
Q 550 1309 550 2009 
Q 550 2706 781 3412 
Q 1013 4119 1484 4856 
L 1984 4856 
z
" transform="scale(0.015625)"/>
       <path id="DejaVuSans-53" d="M 3425 4513 
L 3425 3897 
Q 3066 4069 2747 4153 
Q 2428 4238 2131 4238 
Q 1616 4238 1336 4038 
Q 1056 3838 1056 3469 
Q 1056 3159 1242 3001 
Q 1428 2844 1947 2747 
L 2328 2669 
Q 3034 2534 3370 2195 
Q 3706 1856 3706 1288 
Q 3706 609 3251 259 
Q 2797 -91 1919 -91 
Q 1588 -91 1214 -16 
Q 841 59 441 206 
L 441 856 
Q 825 641 1194 531 
Q 1563 422 1919 422 
Q 2459 422 2753 634 
Q 3047 847 3047 1241 
Q 3047 1584 2836 1778 
Q 2625 1972 2144 2069 
L 1759 2144 
Q 1053 2284 737 2584 
Q 422 2884 422 3419 
Q 422 4038 858 4394 
Q 1294 4750 2059 4750 
Q 2388 4750 2728 4690 
Q 3069 4631 3425 4513 
z
" transform="scale(0.015625)"/>
       <path id="DejaVuSans-63" d="M 3122 3366 
L 3122 2828 
Q 2878 2963 2633 3030 
Q 2388 3097 2138 3097 
Q 1578 3097 1268 2742 
Q 959 2388 959 1747 
Q 959 1106 1268 751 
Q 1578 397 2138 397 
Q 2388 397 2633 464 
Q 2878 531 3122 666 
L 3122 134 
Q 2881 22 2623 -34 
Q 2366 -91 2075 -91 
Q 1284 -91 818 406 
Q 353 903 353 1747 
Q 353 2603 823 3093 
Q 1294 3584 2113 3584 
Q 2378 3584 2631 3529 
Q 2884 3475 3122 3366 
z
" transform="scale(0.015625)"/>
       <path id="DejaVuSans-6f" d="M 1959 3097 
Q 1497 3097 1228 2736 
Q 959 2375 959 1747 
Q 959 1119 1226 758 
Q 1494 397 1959 397 
Q 2419 397 2687 759 
Q 2956 1122 2956 1747 
Q 2956 2369 2687 2733 
Q 2419 3097 1959 3097 
z
M 1959 3584 
Q 2709 3584 3137 3096 
Q 3566 2609 3566 1747 
Q 3566 888 3137 398 
Q 2709 -91 1959 -91 
Q 1206 -91 779 398 
Q 353 888 353 1747 
Q 353 2609 779 3096 
Q 1206 3584 1959 3584 
z
" transform="scale(0.015625)"/>
       <path id="DejaVuSans-6e" d="M 3513 2113 
L 3513 0 
L 2938 0 
L 2938 2094 
Q 2938 2591 2744 2837 
Q 2550 3084 2163 3084 
Q 1697 3084 1428 2787 
Q 1159 2491 1159 1978 
L 1159 0 
L 581 0 
L 581 3500 
L 1159 3500 
L 1159 2956 
Q 1366 3272 1645 3428 
Q 1925 3584 2291 3584 
Q 2894 3584 3203 3211 
Q 3513 2838 3513 2113 
z
" transform="scale(0.015625)"/>
       <path id="DejaVuSans-64" d="M 2906 2969 
L 2906 4863 
L 3481 4863 
L 3481 0 
L 2906 0 
L 2906 525 
Q 2725 213 2448 61 
Q 2172 -91 1784 -91 
Q 1150 -91 751 415 
Q 353 922 353 1747 
Q 353 2572 751 3078 
Q 1150 3584 1784 3584 
Q 2172 3584 2448 3432 
Q 2725 3281 2906 2969 
z
M 947 1747 
Q 947 1113 1208 752 
Q 1469 391 1925 391 
Q 2381 391 2643 752 
Q 2906 1113 2906 1747 
Q 2906 2381 2643 2742 
Q 2381 3103 1925 3103 
Q 1469 3103 1208 2742 
Q 947 2381 947 1747 
z
" transform="scale(0.015625)"/>
       <path id="DejaVuSans-29" d="M 513 4856 
L 1013 4856 
Q 1481 4119 1714 3412 
Q 1947 2706 1947 2009 
Q 1947 1309 1714 600 
Q 1481 -109 1013 -844 
L 513 -844 
Q 928 -128 1133 580 
Q 1338 1288 1338 2009 
Q 1338 2731 1133 3434 
Q 928 4138 513 4856 
z
" transform="scale(0.015625)"/>
      </defs>
      <use xlink:href="#DejaVuSans-54"/>
      <use xlink:href="#DejaVuSans-69" transform="translate(57.958984 0)"/>
      <use xlink:href="#DejaVuSans-6d" transform="translate(85.742188 0)"/>
      <use xlink:href="#DejaVuSans-65" transform="translate(183.154297 0)"/>
      <use xlink:href="#DejaVuSans-73" transform="translate(244.677734 0)"/>
      <use xlink:href="#DejaVuSans-74" transform="translate(296.777344 0)"/>
      <use xlink:href="#DejaVuSans-61" transform="translate(335.986328 0)"/>
      <use xlink:href="#DejaVuSans-6d" transform="translate(397.265625 0)"/>
      <use xlink:href="#DejaVuSans-70" transform="translate(494.677734 0)"/>
      <use xlink:href="#DejaVuSans-20" transform="translate(558.154297 0)"/>
      <use xlink:href="#DejaVuSans-28" transform="translate(589.941406 0)"/>
      <use xlink:href="#DejaVuSans-53" transform="translate(628.955078 0)"/>
      <use xlink:href="#DejaVuSans-65" transform="translate(692.431641 0)"/>
      <use xlink:href="#DejaVuSans-63" transform="translate(753.955078 0)"/>
      <use xlink:href="#DejaVuSans-6f" transform="translate(808.935547 0)"/>
      <use xlink:href="#DejaVuSans-6e" transform="translate(870.117188 0)"/>
      <use xlink:href="#DejaVuSans-64" transform="translate(933.496094 0)"/>
      <use xlink:href="#DejaVuSans-73" transform="translate(996.972656 0)"/>
      <use xlink:href="#DejaVuSans-29" transform="translate(1049.072266 0)"/>
     </g>
    </g>
   </g>
   <g id="matplotlib.axis_2">
    <g id="ytick_1">
     <g id="line2d_9">
      <defs>
       <path id="m64563cd09b" d="M 0 0 
L -3.5 0 
" style="stroke: #000000; stroke-width: 0.8"/>
      </defs>
      <g>
       <use xlink:href="#m64563cd09b" x="50.87" y="236.744524" style="stroke: #000000; stroke-width: 0.8"/>
      </g>
     </g>
     <g id="text_10">
      <!-- 0 -->
      <g transform="translate(37.5075 240.543743) scale(0.1 -0.1)">
       <use xlink:href="#DejaVuSans-30"/>
      </g>
     </g>
    </g>
    <g id="ytick_2">
     <g id="line2d_10">
      <g>
       <use xlink:href="#m64563cd09b" x="50.87" y="203.427407" style="stroke: #000000; stroke-width: 0.8"/>
      </g>
     </g>
     <g id="text_11">
      <!-- 50 -->
      <g transform="translate(31.145 207.226625) scale(0.1 -0.1)">
       <use xlink:href="#DejaVuSans-35"/>
       <use xlink:href="#DejaVuSans-30" transform="translate(63.623047 0)"/>
      </g>
     </g>
    </g>
    <g id="ytick_3">
     <g id="line2d_11">
      <g>
       <use xlink:href="#m64563cd09b" x="50.87" y="170.110289" style="stroke: #000000; stroke-width: 0.8"/>
      </g>
     </g>
     <g id="text_12">
      <!-- 100 -->
      <g transform="translate(24.7825 173.909508) scale(0.1 -0.1)">
       <use xlink:href="#DejaVuSans-31"/>
       <use xlink:href="#DejaVuSans-30" transform="translate(63.623047 0)"/>
       <use xlink:href="#DejaVuSans-30" transform="translate(127.246094 0)"/>
      </g>
     </g>
    </g>
    <g id="ytick_4">
     <g id="line2d_12">
      <g>
       <use xlink:href="#m64563cd09b" x="50.87" y="136.793171" style="stroke: #000000; stroke-width: 0.8"/>
      </g>
     </g>
     <g id="text_13">
      <!-- 150 -->
      <g transform="translate(24.7825 140.59239) scale(0.1 -0.1)">
       <use xlink:href="#DejaVuSans-31"/>
       <use xlink:href="#DejaVuSans-35" transform="translate(63.623047 0)"/>
       <use xlink:href="#DejaVuSans-30" transform="translate(127.246094 0)"/>
      </g>
     </g>
    </g>
    <g id="ytick_5">
     <g id="line2d_13">
      <g>
       <use xlink:href="#m64563cd09b" x="50.87" y="103.476054" style="stroke: #000000; stroke-width: 0.8"/>
      </g>
     </g>
     <g id="text_14">
      <!-- 200 -->
      <g transform="translate(24.7825 107.275272) scale(0.1 -0.1)">
       <use xlink:href="#DejaVuSans-32"/>
       <use xlink:href="#DejaVuSans-30" transform="translate(63.623047 0)"/>
       <use xlink:href="#DejaVuSans-30" transform="translate(127.246094 0)"/>
      </g>
     </g>
    </g>
    <g id="ytick_6">
     <g id="line2d_14">
      <g>
       <use xlink:href="#m64563cd09b" x="50.87" y="70.158936" style="stroke: #000000; stroke-width: 0.8"/>
      </g>
     </g>
     <g id="text_15">
      <!-- 250 -->
      <g transform="translate(24.7825 73.958155) scale(0.1 -0.1)">
       <use xlink:href="#DejaVuSans-32"/>
       <use xlink:href="#DejaVuSans-35" transform="translate(63.623047 0)"/>
       <use xlink:href="#DejaVuSans-30" transform="translate(127.246094 0)"/>
      </g>
     </g>
    </g>
    <g id="ytick_7">
     <g id="line2d_15">
      <g>
       <use xlink:href="#m64563cd09b" x="50.87" y="36.841818" style="stroke: #000000; stroke-width: 0.8"/>
      </g>
     </g>
     <g id="text_16">
      <!-- 300 -->
      <g transform="translate(24.7825 40.641037) scale(0.1 -0.1)">
       <use xlink:href="#DejaVuSans-33"/>
       <use xlink:href="#DejaVuSans-30" transform="translate(63.623047 0)"/>
       <use xlink:href="#DejaVuSans-30" transform="translate(127.246094 0)"/>
      </g>
     </g>
    </g>
    <g id="text_17">
     <!-- Requests/sec -->
     <g transform="translate(18.702812 169.489687) rotate(-90) scale(0.1 -0.1)">
      <defs>
       <path id="DejaVuSans-52" d="M 2841 2188 
Q 3044 2119 3236 1894 
Q 3428 1669 3622 1275 
L 4263 0 
L 3584 0 
L 2988 1197 
Q 2756 1666 2539 1819 
Q 2322 1972 1947 1972 
L 1259 1972 
L 1259 0 
L 628 0 
L 628 4666 
L 2053 4666 
Q 2853 4666 3247 4331 
Q 3641 3997 3641 3322 
Q 3641 2881 3436 2590 
Q 3231 2300 2841 2188 
z
M 1259 4147 
L 1259 2491 
L 2053 2491 
Q 2509 2491 2742 2702 
Q 2975 2913 2975 3322 
Q 2975 3731 2742 3939 
Q 2509 4147 2053 4147 
L 1259 4147 
z
" transform="scale(0.015625)"/>
       <path id="DejaVuSans-71" d="M 947 1747 
Q 947 1113 1208 752 
Q 1469 391 1925 391 
Q 2381 391 2643 752 
Q 2906 1113 2906 1747 
Q 2906 2381 2643 2742 
Q 2381 3103 1925 3103 
Q 1469 3103 1208 2742 
Q 947 2381 947 1747 
z
M 2906 525 
Q 2725 213 2448 61 
Q 2172 -91 1784 -91 
Q 1150 -91 751 415 
Q 353 922 353 1747 
Q 353 2572 751 3078 
Q 1150 3584 1784 3584 
Q 2172 3584 2448 3432 
Q 2725 3281 2906 2969 
L 2906 3500 
L 3481 3500 
L 3481 -1331 
L 2906 -1331 
L 2906 525 
z
" transform="scale(0.015625)"/>
       <path id="DejaVuSans-75" d="M 544 1381 
L 544 3500 
L 1119 3500 
L 1119 1403 
Q 1119 906 1312 657 
Q 1506 409 1894 409 
Q 2359 409 2629 706 
Q 2900 1003 2900 1516 
L 2900 3500 
L 3475 3500 
L 3475 0 
L 2900 0 
L 2900 538 
Q 2691 219 2414 64 
Q 2138 -91 1772 -91 
Q 1169 -91 856 284 
Q 544 659 544 1381 
z
M 1991 3584 
L 1991 3584 
z
" transform="scale(0.015625)"/>
       <path id="DejaVuSans-2f" d="M 1625 4666 
L 2156 4666 
L 531 -594 
L 0 -594 
L 1625 4666 
z
" transform="scale(0.015625)"/>
      </defs>
      <use xlink:href="#DejaVuSans-52"/>
      <use xlink:href="#DejaVuSans-65" transform="translate(64.982422 0)"/>
      <use xlink:href="#DejaVuSans-71" transform="translate(126.505859 0)"/>
      <use xlink:href="#DejaVuSans-75" transform="translate(189.982422 0)"/>
      <use xlink:href="#DejaVuSans-65" transform="translate(253.361328 0)"/>
      <use xlink:href="#DejaVuSans-73" transform="translate(314.884766 0)"/>
      <use xlink:href="#DejaVuSans-74" transform="translate(366.984375 0)"/>
      <use xlink:href="#DejaVuSans-73" transform="translate(406.193359 0)"/>
      <use xlink:href="#DejaVuSans-2f" transform="translate(458.292969 0)"/>
      <use xlink:href="#DejaVuSans-73" transform="translate(491.984375 0)"/>
      <use xlink:href="#DejaVuSans-65" transform="translate(544.083984 0)"/>
      <use xlink:href="#DejaVuSans-63" transform="translate(605.607422 0)"/>
     </g>
    </g>
   </g>
   <g id="line2d_16">
    <path d="M 93.885 233.412812 
L 110.613056 210.09083 
L 113.002778 208.758145 
L 115.3925 204.093749 
L 120.171944 198.76301 
L 122.561667 194.764956 
L 127.341111 188.101532 
L 129.730833 184.103478 
L 191.863611 97.478972 
L 194.253333 98.145315 
L 196.643056 90.815549 
L 199.032778 87.483837 
L 201.4225 85.48481 
L 206.201944 80.154071 
L 208.591667 75.489675 
L 210.981389 72.157963 
L 213.371111 71.491621 
L 215.760833 64.161855 
L 218.150556 60.830143 
L 220.540278 60.163801 
L 222.93 56.832089 
L 225.319722 50.835008 
L 227.709444 48.169638 
L 230.099167 44.171584 
L 232.488889 42.172557 
L 234.878611 42.172557 
L 237.268333 38.174503 
L 239.658056 37.508161 
L 242.047778 37.508161 
L 244.4375 38.840845 
L 246.827222 38.840845 
L 249.216944 39.507188 
L 251.606667 38.174503 
L 253.996389 39.507188 
L 256.386111 40.17353 
L 258.775833 38.174503 
L 263.555278 36.841818 
L 268.334722 36.841818 
L 270.724444 38.840845 
L 273.114167 37.508161 
L 275.503889 37.508161 
L 277.893611 36.841818 
L 280.283333 41.506215 
L 282.673056 44.171584 
L 285.062778 40.17353 
L 287.4525 37.508161 
L 289.842222 36.841818 
L 292.231944 38.174503 
L 297.011389 36.841818 
L 299.401111 40.17353 
L 301.790833 36.841818 
L 306.570278 36.841818 
L 308.96 43.505242 
L 311.349722 36.841818 
L 316.129167 36.841818 
L 318.518889 41.506215 
L 320.908611 36.841818 
L 323.298333 38.174503 
L 325.688056 37.508161 
L 328.077778 47.503296 
L 330.4675 36.841818 
L 332.857222 36.841818 
L 335.246944 42.838899 
L 337.636667 42.838899 
L 340.026389 36.841818 
L 347.195556 36.841818 
L 349.585278 41.506215 
L 351.975 36.841818 
L 363.923611 36.841818 
L 366.313333 39.507188 
L 368.703056 37.508161 
L 371.092778 40.17353 
L 373.4825 36.841818 
L 375.872222 39.507188 
L 378.261944 38.174503 
L 380.651667 41.506215 
L 383.041389 40.17353 
L 385.431111 38.174503 
L 387.820833 38.174503 
L 390.210556 47.503296 
L 392.600278 36.841818 
L 404.548889 36.841818 
L 406.938611 37.508161 
L 409.328333 36.841818 
L 418.887222 36.841818 
L 421.276944 39.507188 
L 423.666667 42.838899 
L 426.056389 36.841818 
L 428.446111 40.17353 
L 430.835833 37.508161 
L 433.225556 36.841818 
L 435.615278 42.838899 
L 438.005 36.841818 
L 440.394722 37.508161 
L 442.784444 40.839872 
L 445.174167 36.841818 
L 449.953611 36.841818 
L 452.343333 46.836953 
L 454.733056 36.841818 
L 457.122778 36.841818 
L 459.5125 37.508161 
L 464.291944 40.17353 
L 466.681667 36.841818 
L 469.071389 38.174503 
L 471.461111 36.841818 
L 473.850833 38.174503 
L 476.240556 36.841818 
L 478.630278 36.841818 
L 481.02 48.835981 
L 483.409722 36.841818 
L 485.799444 40.17353 
L 488.189167 36.841818 
L 492.968611 36.841818 
L 495.358333 40.839872 
L 497.748056 48.835981 
L 500.137778 36.841818 
L 502.5275 36.841818 
L 504.917222 37.508161 
L 507.306944 40.839872 
L 509.696667 36.841818 
L 512.086389 38.840845 
L 514.476111 36.841818 
L 516.865833 38.174503 
L 519.255556 36.841818 
L 521.645278 39.507188 
L 524.035 36.841818 
L 526.424722 36.841818 
L 528.814444 45.504269 
L 531.204167 42.172557 
L 533.593889 43.505242 
L 535.983611 36.841818 
L 540.763056 36.841818 
L 543.152778 37.508161 
L 545.5425 48.835981 
L 547.932222 36.841818 
L 550.321944 38.174503 
L 552.711667 36.841818 
L 562.270556 36.841818 
L 564.660278 46.836953 
L 567.05 39.507188 
L 569.439722 38.174503 
L 574.219167 36.841818 
L 581.388333 36.841818 
L 583.778056 41.506215 
L 586.167778 42.172557 
L 588.5575 36.841818 
L 595.726667 36.841818 
L 598.116389 39.507188 
L 600.506111 42.838899 
L 602.895833 39.507188 
L 605.285556 36.841818 
L 614.844444 36.841818 
L 617.234167 43.505242 
L 619.623889 42.172557 
L 622.013611 36.841818 
L 626.793056 36.841818 
L 629.182778 40.839872 
L 631.5725 44.171584 
L 633.962222 36.841818 
L 643.521111 36.841818 
L 645.910833 38.174503 
L 650.690278 39.507188 
L 653.08 36.841818 
L 657.859444 36.841818 
L 660.249167 37.508161 
L 662.638889 38.840845 
L 665.028611 46.836953 
L 667.418333 40.17353 
L 669.808056 38.840845 
L 672.197778 42.838899 
L 674.5875 38.174503 
L 676.977222 36.841818 
L 686.536111 36.841818 
L 688.925833 46.170611 
L 691.315556 40.839872 
L 693.705278 36.841818 
L 700.874444 36.841818 
L 703.264167 41.506215 
L 705.653889 37.508161 
L 708.043611 38.840845 
L 710.433333 48.169638 
L 712.823056 37.508161 
L 715.212778 39.507188 
L 717.6025 40.17353 
L 719.992222 39.507188 
L 722.381944 36.841818 
L 727.161389 36.841818 
L 729.551111 46.836953 
L 731.940833 45.504269 
L 734.330556 38.840845 
L 736.720278 38.840845 
L 739.11 36.841818 
L 753.448333 36.841818 
L 755.838056 39.507188 
L 758.227778 36.841818 
L 760.6175 43.505242 
L 763.007222 39.507188 
L 765.396944 38.174503 
L 767.786667 40.17353 
L 770.176389 36.841818 
L 772.566111 37.508161 
L 774.955833 36.841818 
L 777.345556 39.507188 
L 779.735278 36.841818 
L 782.125 38.174503 
L 784.514722 36.841818 
L 786.904444 36.841818 
L 791.683889 39.507188 
L 794.073611 38.174503 
L 798.853056 40.839872 
L 801.242778 38.174503 
L 803.6325 36.841818 
L 806.022222 36.841818 
L 808.411944 38.840845 
L 810.801667 38.174503 
L 813.191389 41.506215 
L 815.581111 46.836953 
L 817.970833 50.835008 
L 820.360556 51.50135 
L 822.750278 55.499404 
L 825.14 62.162828 
L 827.529722 62.162828 
L 829.919444 67.493566 
L 832.309167 71.491621 
L 834.698889 72.157963 
L 837.088611 76.822359 
L 839.478333 77.488702 
L 841.868056 80.820413 
L 844.257778 83.485783 
L 846.6475 91.481891 
L 849.037222 90.815549 
L 877.713889 130.79609 
L 880.103611 134.794144 
L 882.493333 137.459514 
L 887.272778 144.122937 
L 889.6625 150.120018 
L 894.441944 160.781496 
L 896.831667 158.782469 
L 899.221389 160.781496 
L 906.390556 170.776631 
L 908.780278 174.774685 
L 911.17 177.440055 
L 915.949444 184.103478 
L 918.339167 188.101532 
L 920.728889 191.433244 
L 923.118611 200.095695 
L 925.508333 197.430325 
L 927.898056 200.762037 
L 930.287778 204.760091 
L 932.6775 207.425461 
L 935.067222 211.423515 
L 937.456944 214.755227 
L 939.846667 217.420596 
L 942.236389 220.752308 
L 944.626111 223.417677 
L 947.015833 227.415731 
L 949.405556 230.747443 
L 951.795278 234.745497 
L 954.185 236.078182 
L 954.185 236.078182 
" clip-path="url(#p4d3fdc9799)" style="fill: none; stroke: #1f77b4; stroke-width: 1.5; stroke-linecap: square"/>
   </g>
   <g id="line2d_17">
    <path d="M 93.885 234.079155 
L 105.833611 217.420596 
L 108.223333 214.755227 
L 113.002778 208.091803 
L 115.3925 206.092776 
L 117.782222 202.094722 
L 120.171944 199.429352 
L 124.951389 191.433244 
L 165.576667 134.794144 
L 167.966389 134.794144 
L 170.356111 128.797063 
L 172.745833 124.799009 
L 175.135556 121.467297 
L 177.525278 118.801928 
L 179.915 119.46827 
L 182.304722 111.472162 
L 184.694444 174.108343 
L 187.084167 190.100559 
L 189.473889 151.452703 
L 191.863611 214.755227 
L 194.253333 146.121964 
L 196.643056 196.763983 
L 199.032778 162.780523 
L 201.4225 218.086938 
L 203.812222 133.461459 
L 206.201944 204.093749 
L 208.591667 165.445892 
L 210.981389 183.437136 
L 213.371111 190.100559 
L 215.760833 181.438109 
L 218.150556 198.096668 
L 220.540278 165.445892 
L 222.93 202.761064 
L 225.319722 188.767875 
L 227.709444 174.108343 
L 230.099167 198.76301 
L 232.488889 200.095695 
L 234.878611 162.780523 
L 237.268333 174.108343 
L 239.658056 176.773712 
L 242.047778 122.133639 
L 244.4375 120.800955 
L 246.827222 125.465351 
L 249.216944 132.795117 
L 251.606667 104.142396 
L 253.996389 124.132666 
L 256.386111 138.125856 
L 258.775833 103.476054 
L 261.165556 88.150179 
L 263.555278 108.806792 
L 265.945 158.782469 
L 268.334722 95.479945 
L 270.724444 160.781496 
L 273.114167 87.483837 
L 275.503889 152.119045 
L 277.893611 146.788306 
L 280.283333 134.794144 
L 282.673056 94.813603 
L 285.062778 102.809711 
L 287.4525 138.125856 
L 289.842222 144.122937 
L 292.231944 122.133639 
L 294.621667 130.79609 
L 297.011389 94.147261 
L 299.401111 116.802901 
L 304.180556 152.119045 
L 306.570278 112.138504 
L 308.96 122.799982 
L 311.349722 139.458541 
L 313.739444 141.457568 
L 316.129167 86.817495 
L 318.518889 186.102505 
L 320.908611 114.137531 
L 323.298333 143.456595 
L 325.688056 142.790252 
L 328.077778 81.486756 
L 330.4675 138.125856 
L 332.857222 104.142396 
L 335.246944 144.789279 
L 337.636667 108.14045 
L 340.026389 135.460486 
L 342.416111 90.149206 
L 344.805833 112.804846 
L 347.195556 144.122937 
L 349.585278 106.807765 
L 351.975 155.450757 
L 354.364722 100.810684 
L 356.754444 138.125856 
L 359.144167 156.117099 
L 361.533889 52.834035 
L 363.923611 189.434217 
L 366.313333 142.12391 
L 368.703056 84.818468 
L 371.092778 186.102505 
L 373.4825 169.443946 
L 375.872222 120.800955 
L 378.261944 108.14045 
L 380.651667 127.464378 
L 383.041389 163.446865 
L 385.431111 84.818468 
L 387.820833 134.794144 
L 390.210556 147.454649 
L 392.600278 92.814576 
L 394.99 168.111262 
L 397.379722 155.450757 
L 399.769444 151.452703 
L 402.159167 116.136558 
L 404.548889 126.131694 
L 406.938611 126.798036 
L 409.328333 109.473135 
L 411.718056 130.129748 
L 414.107778 140.791225 
L 416.4975 90.149206 
L 418.887222 180.105424 
L 421.276944 90.815549 
L 423.666667 169.443946 
L 426.056389 188.767875 
L 428.446111 115.470216 
L 430.835833 116.136558 
L 433.225556 139.458541 
L 435.615278 97.478972 
L 438.005 173.442001 
L 440.394722 116.136558 
L 442.784444 124.799009 
L 445.174167 105.475081 
L 447.563889 142.12391 
L 449.953611 107.474108 
L 452.343333 160.781496 
L 454.733056 101.477026 
L 457.122778 134.127802 
L 459.5125 113.471189 
L 461.902222 97.478972 
L 464.291944 105.475081 
L 466.681667 144.789279 
L 469.071389 84.818468 
L 471.461111 167.444919 
L 473.850833 120.800955 
L 476.240556 134.794144 
L 478.630278 90.149206 
L 481.02 160.115154 
L 483.409722 110.139477 
L 485.799444 128.130721 
L 488.189167 110.805819 
L 490.578889 151.452703 
L 492.968611 129.463405 
L 495.358333 68.159909 
L 497.748056 133.461459 
L 500.137778 180.105424 
L 502.5275 96.146288 
L 504.917222 148.120991 
L 507.306944 122.133639 
L 509.696667 80.154071 
L 512.086389 128.797063 
L 514.476111 112.804846 
L 516.865833 141.457568 
L 519.255556 148.787334 
L 521.645278 86.151152 
L 524.035 131.462432 
L 526.424722 131.462432 
L 528.814444 92.814576 
L 531.204167 132.128775 
L 533.593889 144.122937 
L 535.983611 122.133639 
L 538.373333 98.811657 
L 540.763056 81.486756 
L 543.152778 129.463405 
L 545.5425 182.104451 
L 547.932222 92.814576 
L 550.321944 169.443946 
L 552.711667 62.82917 
L 555.101389 138.792198 
L 557.491111 109.473135 
L 559.880833 167.444919 
L 562.270556 162.114181 
L 564.660278 76.822359 
L 567.05 152.119045 
L 569.439722 72.157963 
L 571.829444 155.450757 
L 574.219167 127.464378 
L 576.608889 122.133639 
L 578.998611 173.442001 
L 581.388333 76.822359 
L 583.778056 160.781496 
L 586.167778 54.166719 
L 588.5575 167.444919 
L 590.947222 118.801928 
L 593.336944 169.443946 
L 595.726667 74.823332 
L 598.116389 130.79609 
L 600.506111 86.817495 
L 602.895833 124.799009 
L 605.285556 146.788306 
L 607.675278 74.15699 
L 610.065 184.103478 
L 612.454722 126.798036 
L 614.844444 100.144342 
L 617.234167 109.473135 
L 619.623889 74.15699 
L 622.013611 122.133639 
L 624.403333 66.160882 
L 626.793056 140.124883 
L 629.182778 163.446865 
L 631.5725 121.467297 
L 633.962222 122.799982 
L 636.351944 116.802901 
L 638.741667 158.116126 
L 641.131389 64.161855 
L 643.521111 197.430325 
L 645.910833 121.467297 
L 648.300556 117.469243 
L 650.690278 142.12391 
L 653.08 67.493566 
L 655.469722 162.114181 
L 657.859444 71.491621 
L 660.249167 158.782469 
L 662.638889 151.452703 
L 665.028611 106.141423 
L 667.418333 81.486756 
L 669.808056 146.788306 
L 672.197778 94.147261 
L 674.5875 98.145315 
L 676.977222 168.111262 
L 679.366944 113.471189 
L 681.756667 129.463405 
L 684.146389 106.141423 
L 686.536111 135.460486 
L 688.925833 116.136558 
L 691.315556 175.441028 
L 693.705278 70.825278 
L 696.095 155.450757 
L 698.484722 173.442001 
L 700.874444 80.820413 
L 703.264167 134.127802 
L 705.653889 140.124883 
L 708.043611 134.127802 
L 710.433333 145.455622 
L 712.823056 104.808738 
L 715.212778 108.14045 
L 717.6025 141.457568 
L 719.992222 108.806792 
L 722.381944 130.79609 
L 724.771667 106.807765 
L 727.161389 127.464378 
L 729.551111 166.778577 
L 731.940833 103.476054 
L 734.330556 142.790252 
L 736.720278 118.801928 
L 739.11 114.137531 
L 741.499722 142.790252 
L 743.889444 109.473135 
L 746.279167 153.45173 
L 748.668889 128.797063 
L 751.058611 88.150179 
L 753.448333 140.124883 
L 755.838056 101.477026 
L 758.227778 130.79609 
L 760.6175 72.157963 
L 763.007222 184.103478 
L 765.396944 118.135585 
L 767.786667 114.803874 
L 770.176389 118.135585 
L 772.566111 83.485783 
L 774.955833 167.444919 
L 777.345556 127.464378 
L 779.735278 109.473135 
L 782.125 143.456595 
L 784.514722 104.142396 
L 786.904444 139.458541 
L 789.294167 109.473135 
L 791.683889 113.471189 
L 794.073611 93.480918 
L 796.463333 104.808738 
L 798.853056 130.129748 
L 801.242778 52.834035 
L 803.6325 202.761064 
L 806.022222 155.450757 
L 808.411944 98.811657 
L 810.801667 122.799982 
L 813.191389 94.147261 
L 815.581111 105.475081 
L 817.970833 114.803874 
L 820.360556 163.446865 
L 822.750278 135.460486 
L 825.14 143.456595 
L 827.529722 94.147261 
L 829.919444 154.784415 
L 832.309167 97.478972 
L 834.698889 214.755227 
L 837.088611 110.139477 
L 839.478333 159.448811 
L 841.868056 122.799982 
L 844.257778 152.785388 
L 846.6475 141.457568 
L 849.037222 144.789279 
L 851.426944 164.113208 
L 853.816667 127.464378 
L 856.206389 140.791225 
L 858.596111 173.442001 
L 860.985833 136.126829 
L 863.375556 156.783442 
L 865.765278 138.792198 
L 868.155 186.102505 
L 870.544722 194.098614 
L 872.934444 138.125856 
L 875.324167 128.797063 
L 877.713889 215.421569 
L 880.103611 156.783442 
L 882.493333 152.785388 
L 884.883056 206.092776 
L 887.272778 153.45173 
L 889.6625 147.454649 
L 892.052222 150.120018 
L 894.441944 154.118072 
L 896.831667 161.447838 
L 899.221389 160.781496 
L 901.611111 165.445892 
L 904.000833 167.444919 
L 906.390556 170.776631 
L 908.780278 173.442001 
L 911.17 177.440055 
L 913.559722 180.105424 
L 918.339167 186.768848 
L 920.728889 191.433244 
L 923.118611 192.765929 
L 925.508333 199.429352 
L 927.898056 200.095695 
L 930.287778 202.761064 
L 932.6775 207.425461 
L 937.456944 212.756199 
L 939.846667 216.754254 
L 942.236389 219.419623 
L 944.626111 224.084019 
L 947.015833 226.749389 
L 949.405556 230.081101 
L 951.795278 234.079155 
L 951.795278 234.079155 
" clip-path="url(#p4d3fdc9799)" style="fill: none; stroke: #ff7f0e; stroke-width: 1.5; stroke-linecap: square"/>
   </g>
   <g id="line2d_18">
    <path d="M 93.885 234.745497 
L 134.510278 178.106397 
L 136.9 175.441028 
L 139.289722 171.442974 
L 141.679444 168.111262 
L 144.069167 166.112235 
L 146.458889 162.780523 
L 148.848611 158.782469 
L 156.017778 148.787334 
L 158.4075 147.454649 
L 160.797222 142.790252 
L 163.186944 141.457568 
L 167.966389 132.128775 
L 170.356111 128.130721 
L 172.745833 124.799009 
L 175.135556 122.799982 
L 177.525278 118.801928 
L 179.915 116.136558 
L 189.473889 102.809711 
L 191.863611 101.477026 
L 194.253333 97.478972 
L 196.643056 91.481891 
L 199.032778 90.149206 
L 201.4225 87.483837 
L 203.812222 82.153098 
L 206.201944 81.486756 
L 208.591667 75.489675 
L 210.981389 74.15699 
L 213.371111 70.158936 
L 215.760833 68.159909 
L 218.150556 68.159909 
L 220.540278 59.497458 
L 222.93 62.162828 
L 225.319722 54.166719 
L 227.709444 57.498431 
L 230.099167 46.836953 
L 232.488889 43.505242 
L 234.878611 50.835008 
L 237.268333 46.836953 
L 239.658056 36.841818 
L 242.047778 41.506215 
L 244.4375 47.503296 
L 246.827222 39.507188 
L 249.216944 41.506215 
L 251.606667 36.841818 
L 253.996389 46.836953 
L 256.386111 37.508161 
L 258.775833 42.172557 
L 261.165556 46.170611 
L 263.555278 43.505242 
L 265.945 39.507188 
L 268.334722 38.174503 
L 270.724444 41.506215 
L 273.114167 42.838899 
L 275.503889 39.507188 
L 277.893611 41.506215 
L 280.283333 38.174503 
L 282.673056 37.508161 
L 285.062778 39.507188 
L 287.4525 40.17353 
L 289.842222 37.508161 
L 292.231944 41.506215 
L 294.621667 38.174503 
L 297.011389 43.505242 
L 299.401111 39.507188 
L 301.790833 37.508161 
L 304.180556 40.839872 
L 306.570278 40.17353 
L 308.96 40.17353 
L 311.349722 44.837926 
L 313.739444 36.841818 
L 316.129167 36.841818 
L 323.298333 38.840845 
L 325.688056 42.838899 
L 328.077778 37.508161 
L 330.4675 42.172557 
L 332.857222 39.507188 
L 335.246944 37.508161 
L 337.636667 40.17353 
L 340.026389 39.507188 
L 342.416111 42.172557 
L 344.805833 45.504269 
L 347.195556 40.17353 
L 349.585278 39.507188 
L 351.975 36.841818 
L 354.364722 36.841818 
L 356.754444 81.486756 
L 359.144167 111.472162 
L 361.533889 126.131694 
L 363.923611 92.814576 
L 366.313333 63.495512 
L 368.703056 41.506215 
L 371.092778 37.508161 
L 375.872222 38.840845 
L 378.261944 42.838899 
L 380.651667 37.508161 
L 383.041389 39.507188 
L 385.431111 40.17353 
L 387.820833 41.506215 
L 390.210556 42.172557 
L 392.600278 40.839872 
L 394.99 43.505242 
L 397.379722 36.841818 
L 399.769444 38.840845 
L 402.159167 37.508161 
L 404.548889 38.840845 
L 406.938611 40.839872 
L 409.328333 45.504269 
L 411.718056 38.174503 
L 414.107778 39.507188 
L 416.4975 36.841818 
L 418.887222 38.174503 
L 421.276944 46.170611 
L 423.666667 39.507188 
L 426.056389 40.839872 
L 428.446111 38.840845 
L 430.835833 37.508161 
L 433.225556 42.838899 
L 435.615278 38.174503 
L 438.005 38.840845 
L 442.784444 38.840845 
L 445.174167 40.839872 
L 447.563889 40.839872 
L 449.953611 38.840845 
L 452.343333 37.508161 
L 454.733056 39.507188 
L 457.122778 40.17353 
L 459.5125 39.507188 
L 461.902222 44.171584 
L 464.291944 36.841818 
L 471.461111 40.839872 
L 473.850833 38.840845 
L 476.240556 38.840845 
L 478.630278 44.837926 
L 481.02 40.17353 
L 483.409722 36.841818 
L 485.799444 38.840845 
L 488.189167 38.840845 
L 490.578889 36.841818 
L 492.968611 36.841818 
L 495.358333 48.169638 
L 497.748056 37.508161 
L 500.137778 40.17353 
L 502.5275 39.507188 
L 504.917222 41.506215 
L 507.306944 36.841818 
L 509.696667 42.172557 
L 512.086389 43.505242 
L 514.476111 41.506215 
L 516.865833 46.170611 
L 519.255556 36.841818 
L 521.645278 44.171584 
L 524.035 38.174503 
L 526.424722 42.838899 
L 528.814444 42.838899 
L 531.204167 42.172557 
L 533.593889 38.840845 
L 538.373333 44.171584 
L 540.763056 42.172557 
L 543.152778 38.840845 
L 545.5425 36.841818 
L 547.932222 40.839872 
L 550.321944 36.841818 
L 552.711667 45.504269 
L 555.101389 39.507188 
L 557.491111 38.840845 
L 559.880833 36.841818 
L 562.270556 36.841818 
L 564.660278 46.836953 
L 567.05 39.507188 
L 569.439722 43.505242 
L 571.829444 40.17353 
L 574.219167 42.838899 
L 576.608889 36.841818 
L 578.998611 36.841818 
L 581.388333 42.172557 
L 583.778056 39.507188 
L 586.167778 39.507188 
L 588.5575 42.172557 
L 590.947222 37.508161 
L 593.336944 36.841818 
L 598.116389 43.505242 
L 600.506111 38.840845 
L 602.895833 39.507188 
L 605.285556 36.841818 
L 607.675278 39.507188 
L 610.065 38.174503 
L 612.454722 40.839872 
L 614.844444 47.503296 
L 617.234167 38.840845 
L 619.623889 39.507188 
L 622.013611 36.841818 
L 624.403333 43.505242 
L 626.793056 40.17353 
L 629.182778 38.174503 
L 631.5725 36.841818 
L 633.962222 38.174503 
L 636.351944 46.170611 
L 638.741667 37.508161 
L 641.131389 38.174503 
L 643.521111 40.17353 
L 645.910833 41.506215 
L 648.300556 40.17353 
L 650.690278 42.172557 
L 653.08 42.838899 
L 655.469722 40.17353 
L 657.859444 39.507188 
L 660.249167 38.174503 
L 662.638889 37.508161 
L 665.028611 38.840845 
L 667.418333 39.507188 
L 669.808056 45.504269 
L 672.197778 38.174503 
L 674.5875 38.174503 
L 676.977222 39.507188 
L 679.366944 38.174503 
L 681.756667 38.174503 
L 684.146389 41.506215 
L 686.536111 37.508161 
L 691.315556 40.17353 
L 693.705278 40.839872 
L 698.484722 38.174503 
L 700.874444 38.840845 
L 703.264167 37.508161 
L 705.653889 46.170611 
L 708.043611 40.17353 
L 710.433333 42.838899 
L 712.823056 40.17353 
L 715.212778 38.174503 
L 717.6025 40.839872 
L 719.992222 36.841818 
L 722.381944 36.841818 
L 724.771667 39.507188 
L 727.161389 37.508161 
L 729.551111 42.838899 
L 731.940833 36.841818 
L 734.330556 39.507188 
L 736.720278 39.507188 
L 739.11 40.839872 
L 741.499722 40.839872 
L 743.889444 36.841818 
L 746.279167 43.505242 
L 748.668889 42.172557 
L 751.058611 36.841818 
L 753.448333 39.507188 
L 755.838056 40.839872 
L 758.227778 41.506215 
L 760.6175 38.840845 
L 763.007222 38.174503 
L 765.396944 41.506215 
L 767.786667 38.174503 
L 770.176389 36.841818 
L 772.566111 37.508161 
L 774.955833 36.841818 
L 777.345556 40.839872 
L 779.735278 42.172557 
L 782.125 38.840845 
L 784.514722 46.836953 
L 786.904444 36.841818 
L 789.294167 38.174503 
L 791.683889 38.840845 
L 794.073611 44.171584 
L 796.463333 40.17353 
L 798.853056 41.506215 
L 801.242778 38.174503 
L 803.6325 36.841818 
L 806.022222 37.508161 
L 808.411944 42.838899 
L 810.801667 44.837926 
L 813.191389 40.17353 
L 815.581111 44.171584 
L 817.970833 53.500377 
L 820.360556 50.168665 
L 822.750278 55.499404 
L 825.14 56.165746 
L 827.529722 62.82917 
L 829.919444 64.828197 
L 832.309167 68.159909 
L 834.698889 76.156017 
L 837.088611 73.490648 
L 839.478333 81.486756 
L 841.868056 80.154071 
L 844.257778 84.152125 
L 846.6475 86.817495 
L 849.037222 92.148234 
L 851.426944 93.480918 
L 853.816667 97.478972 
L 856.206389 102.809711 
L 858.596111 104.808738 
L 860.985833 108.806792 
L 863.375556 110.805819 
L 865.765278 113.471189 
L 868.155 118.801928 
L 870.544722 120.800955 
L 872.934444 123.466324 
L 875.324167 126.798036 
L 877.713889 132.795117 
L 880.103611 132.795117 
L 882.493333 137.459514 
L 884.883056 142.790252 
L 887.272778 143.456595 
L 889.6625 146.788306 
L 892.052222 149.453676 
L 894.441944 154.118072 
L 896.831667 158.116126 
L 899.221389 161.447838 
L 901.611111 163.446865 
L 906.390556 170.110289 
L 908.780278 175.441028 
L 911.17 177.440055 
L 913.559722 180.771766 
L 915.949444 182.770794 
L 918.339167 186.768848 
L 920.728889 191.433244 
L 923.118611 193.432271 
L 925.508333 196.097641 
L 930.287778 202.761064 
L 932.6775 205.426434 
L 935.067222 210.757172 
L 937.456944 212.756199 
L 939.846667 216.087911 
L 942.236389 220.085965 
L 944.626111 222.751335 
L 947.015833 227.415731 
L 954.185 235.411839 
L 954.185 235.411839 
" clip-path="url(#p4d3fdc9799)" style="fill: none; stroke: #2ca02c; stroke-width: 1.5; stroke-linecap: square"/>
   </g>
   <g id="patch_3">
    <path d="M 50.87 246.04 
L 50.87 26.88 
" style="fill: none; stroke: #000000; stroke-width: 0.8; stroke-linejoin: miter; stroke-linecap: square"/>
   </g>
   <g id="patch_4">
    <path d="M 997.2 246.04 
L 997.2 26.88 
" style="fill: none; stroke: #000000; stroke-width: 0.8; stroke-linejoin: miter; stroke-linecap: square"/>
   </g>
   <g id="patch_5">
    <path d="M 50.87 246.04 
L 997.2 246.04 
" style="fill: none; stroke: #000000; stroke-width: 0.8; stroke-linejoin: miter; stroke-linecap: square"/>
   </g>
   <g id="patch_6">
    <path d="M 50.87 26.88 
L 997.2 26.88 
" style="fill: none; stroke: #000000; stroke-width: 0.8; stroke-linejoin: miter; stroke-linecap: square"/>
   </g>
   <g id="text_18">
    <!-- Number of Requests per Second -->
    <g transform="translate(426.972812 20.88) scale(0.12 -0.12)">
     <defs>
      <path id="DejaVuSans-4e" d="M 628 4666 
L 1478 4666 
L 3547 763 
L 3547 4666 
L 4159 4666 
L 4159 0 
L 3309 0 
L 1241 3903 
L 1241 0 
L 628 0 
L 628 4666 
z
" transform="scale(0.015625)"/>
      <path id="DejaVuSans-62" d="M 3116 1747 
Q 3116 2381 2855 2742 
Q 2594 3103 2138 3103 
Q 1681 3103 1420 2742 
Q 1159 2381 1159 1747 
Q 1159 1113 1420 752 
Q 1681 391 2138 391 
Q 2594 391 2855 752 
Q 3116 1113 3116 1747 
z
M 1159 2969 
Q 1341 3281 1617 3432 
Q 1894 3584 2278 3584 
Q 2916 3584 3314 3078 
Q 3713 2572 3713 1747 
Q 3713 922 3314 415 
Q 2916 -91 2278 -91 
Q 1894 -91 1617 61 
Q 1341 213 1159 525 
L 1159 0 
L 581 0 
L 581 4863 
L 1159 4863 
L 1159 2969 
z
" transform="scale(0.015625)"/>
      <path id="DejaVuSans-72" d="M 2631 2963 
Q 2534 3019 2420 3045 
Q 2306 3072 2169 3072 
Q 1681 3072 1420 2755 
Q 1159 2438 1159 1844 
L 1159 0 
L 581 0 
L 581 3500 
L 1159 3500 
L 1159 2956 
Q 1341 3275 1631 3429 
Q 1922 3584 2338 3584 
Q 2397 3584 2469 3576 
Q 2541 3569 2628 3553 
L 2631 2963 
z
" transform="scale(0.015625)"/>
      <path id="DejaVuSans-66" d="M 2375 4863 
L 2375 4384 
L 1825 4384 
Q 1516 4384 1395 4259 
Q 1275 4134 1275 3809 
L 1275 3500 
L 2222 3500 
L 2222 3053 
L 1275 3053 
L 1275 0 
L 697 0 
L 697 3053 
L 147 3053 
L 147 3500 
L 697 3500 
L 697 3744 
Q 697 4328 969 4595 
Q 1241 4863 1831 4863 
L 2375 4863 
z
" transform="scale(0.015625)"/>
     </defs>
     <use xlink:href="#DejaVuSans-4e"/>
     <use xlink:href="#DejaVuSans-75" transform="translate(74.804688 0)"/>
     <use xlink:href="#DejaVuSans-6d" transform="translate(138.183594 0)"/>
     <use xlink:href="#DejaVuSans-62" transform="translate(235.595703 0)"/>
     <use xlink:href="#DejaVuSans-65" transform="translate(299.072266 0)"/>
     <use xlink:href="#DejaVuSans-72" transform="translate(360.595703 0)"/>
     <use xlink:href="#DejaVuSans-20" transform="translate(401.708984 0)"/>
     <use xlink:href="#DejaVuSans-6f" transform="translate(433.496094 0)"/>
     <use xlink:href="#DejaVuSans-66" transform="translate(494.677734 0)"/>
     <use xlink:href="#DejaVuSans-20" transform="translate(529.882812 0)"/>
     <use xlink:href="#DejaVuSans-52" transform="translate(561.669922 0)"/>
     <use xlink:href="#DejaVuSans-65" transform="translate(626.652344 0)"/>
     <use xlink:href="#DejaVuSans-71" transform="translate(688.175781 0)"/>
     <use xlink:href="#DejaVuSans-75" transform="translate(751.652344 0)"/>
     <use xlink:href="#DejaVuSans-65" transform="translate(815.03125 0)"/>
     <use xlink:href="#DejaVuSans-73" transform="translate(876.554688 0)"/>
     <use xlink:href="#DejaVuSans-74" transform="translate(928.654297 0)"/>
     <use xlink:href="#DejaVuSans-73" transform="translate(967.863281 0)"/>
     <use xlink:href="#DejaVuSans-20" transform="translate(1019.962891 0)"/>
     <use xlink:href="#DejaVuSans-70" transform="translate(1051.75 0)"/>
     <use xlink:href="#DejaVuSans-65" transform="translate(1115.226562 0)"/>
     <use xlink:href="#DejaVuSans-72" transform="translate(1176.75 0)"/>
     <use xlink:href="#DejaVuSans-20" transform="translate(1217.863281 0)"/>
     <use xlink:href="#DejaVuSans-53" transform="translate(1249.650391 0)"/>
     <use xlink:href="#DejaVuSans-65" transform="translate(1313.126953 0)"/>
     <use xlink:href="#DejaVuSans-63" transform="translate(1374.650391 0)"/>
     <use xlink:href="#DejaVuSans-6f" transform="translate(1429.630859 0)"/>
     <use xlink:href="#DejaVuSans-6e" transform="translate(1490.8125 0)"/>
     <use xlink:href="#DejaVuSans-64" transform="translate(1554.191406 0)"/>
    </g>
   </g>
   <g id="legend_1">
    <g id="patch_7">
     <path d="M 856.85625 78.914375 
L 990.2 78.914375 
Q 992.2 78.914375 992.2 76.914375 
L 992.2 33.88 
Q 992.2 31.88 990.2 31.88 
L 856.85625 31.88 
Q 854.85625 31.88 854.85625 33.88 
L 854.85625 76.914375 
Q 854.85625 78.914375 856.85625 78.914375 
z
" style="fill: #ffffff; opacity: 0.8; stroke: #cccccc; stroke-linejoin: miter"/>
    </g>
    <g id="line2d_19">
     <path d="M 858.85625 39.978438 
L 868.85625 39.978438 
L 878.85625 39.978438 
" style="fill: none; stroke: #1f77b4; stroke-width: 1.5; stroke-linecap: square"/>
    </g>
    <g id="text_19">
     <!-- Single Large Results -->
     <g transform="translate(886.85625 43.478438) scale(0.1 -0.1)">
      <defs>
       <path id="DejaVuSans-67" d="M 2906 1791 
Q 2906 2416 2648 2759 
Q 2391 3103 1925 3103 
Q 1463 3103 1205 2759 
Q 947 2416 947 1791 
Q 947 1169 1205 825 
Q 1463 481 1925 481 
Q 2391 481 2648 825 
Q 2906 1169 2906 1791 
z
M 3481 434 
Q 3481 -459 3084 -895 
Q 2688 -1331 1869 -1331 
Q 1566 -1331 1297 -1286 
Q 1028 -1241 775 -1147 
L 775 -588 
Q 1028 -725 1275 -790 
Q 1522 -856 1778 -856 
Q 2344 -856 2625 -561 
Q 2906 -266 2906 331 
L 2906 616 
Q 2728 306 2450 153 
Q 2172 0 1784 0 
Q 1141 0 747 490 
Q 353 981 353 1791 
Q 353 2603 747 3093 
Q 1141 3584 1784 3584 
Q 2172 3584 2450 3431 
Q 2728 3278 2906 2969 
L 2906 3500 
L 3481 3500 
L 3481 434 
z
" transform="scale(0.015625)"/>
       <path id="DejaVuSans-6c" d="M 603 4863 
L 1178 4863 
L 1178 0 
L 603 0 
L 603 4863 
z
" transform="scale(0.015625)"/>
       <path id="DejaVuSans-4c" d="M 628 4666 
L 1259 4666 
L 1259 531 
L 3531 531 
L 3531 0 
L 628 0 
L 628 4666 
z
" transform="scale(0.015625)"/>
      </defs>
      <use xlink:href="#DejaVuSans-53"/>
      <use xlink:href="#DejaVuSans-69" transform="translate(63.476562 0)"/>
      <use xlink:href="#DejaVuSans-6e" transform="translate(91.259766 0)"/>
      <use xlink:href="#DejaVuSans-67" transform="translate(154.638672 0)"/>
      <use xlink:href="#DejaVuSans-6c" transform="translate(218.115234 0)"/>
      <use xlink:href="#DejaVuSans-65" transform="translate(245.898438 0)"/>
      <use xlink:href="#DejaVuSans-20" transform="translate(307.421875 0)"/>
      <use xlink:href="#DejaVuSans-4c" transform="translate(339.208984 0)"/>
      <use xlink:href="#DejaVuSans-61" transform="translate(394.921875 0)"/>
      <use xlink:href="#DejaVuSans-72" transform="translate(456.201172 0)"/>
      <use xlink:href="#DejaVuSans-67" transform="translate(495.564453 0)"/>
      <use xlink:href="#DejaVuSans-65" transform="translate(559.041016 0)"/>
      <use xlink:href="#DejaVuSans-20" transform="translate(620.564453 0)"/>
      <use xlink:href="#DejaVuSans-52" transform="translate(652.351562 0)"/>
      <use xlink:href="#DejaVuSans-65" transform="translate(717.333984 0)"/>
      <use xlink:href="#DejaVuSans-73" transform="translate(778.857422 0)"/>
      <use xlink:href="#DejaVuSans-75" transform="translate(830.957031 0)"/>
      <use xlink:href="#DejaVuSans-6c" transform="translate(894.335938 0)"/>
      <use xlink:href="#DejaVuSans-74" transform="translate(922.119141 0)"/>
      <use xlink:href="#DejaVuSans-73" transform="translate(961.328125 0)"/>
     </g>
    </g>
    <g id="line2d_20">
     <path d="M 858.85625 54.656563 
L 868.85625 54.656563 
L 878.85625 54.656563 
" style="fill: none; stroke: #ff7f0e; stroke-width: 1.5; stroke-linecap: square"/>
    </g>
    <g id="text_20">
     <!-- Single Small Results -->
     <g transform="translate(886.85625 58.156563) scale(0.1 -0.1)">
      <use xlink:href="#DejaVuSans-53"/>
      <use xlink:href="#DejaVuSans-69" transform="translate(63.476562 0)"/>
      <use xlink:href="#DejaVuSans-6e" transform="translate(91.259766 0)"/>
      <use xlink:href="#DejaVuSans-67" transform="translate(154.638672 0)"/>
      <use xlink:href="#DejaVuSans-6c" transform="translate(218.115234 0)"/>
      <use xlink:href="#DejaVuSans-65" transform="translate(245.898438 0)"/>
      <use xlink:href="#DejaVuSans-20" transform="translate(307.421875 0)"/>
      <use xlink:href="#DejaVuSans-53" transform="translate(339.208984 0)"/>
      <use xlink:href="#DejaVuSans-6d" transform="translate(402.685547 0)"/>
      <use xlink:href="#DejaVuSans-61" transform="translate(500.097656 0)"/>
      <use xlink:href="#DejaVuSans-6c" transform="translate(561.376953 0)"/>
      <use xlink:href="#DejaVuSans-6c" transform="translate(589.160156 0)"/>
      <use xlink:href="#DejaVuSans-20" transform="translate(616.943359 0)"/>
      <use xlink:href="#DejaVuSans-52" transform="translate(648.730469 0)"/>
      <use xlink:href="#DejaVuSans-65" transform="translate(713.712891 0)"/>
      <use xlink:href="#DejaVuSans-73" transform="translate(775.236328 0)"/>
      <use xlink:href="#DejaVuSans-75" transform="translate(827.335938 0)"/>
      <use xlink:href="#DejaVuSans-6c" transform="translate(890.714844 0)"/>
      <use xlink:href="#DejaVuSans-74" transform="translate(918.498047 0)"/>
      <use xlink:href="#DejaVuSans-73" transform="translate(957.707031 0)"/>
     </g>
    </g>
    <g id="line2d_21">
     <path d="M 858.85625 69.334688 
L 868.85625 69.334688 
L 878.85625 69.334688 
" style="fill: none; stroke: #2ca02c; stroke-width: 1.5; stroke-linecap: square"/>
    </g>
    <g id="text_21">
     <!-- Multi Results -->
     <g transform="translate(886.85625 72.834688) scale(0.1 -0.1)">
      <defs>
       <path id="DejaVuSans-4d" d="M 628 4666 
L 1569 4666 
L 2759 1491 
L 3956 4666 
L 4897 4666 
L 4897 0 
L 4281 0 
L 4281 4097 
L 3078 897 
L 2444 897 
L 1241 4097 
L 1241 0 
L 628 0 
L 628 4666 
z
" transform="scale(0.015625)"/>
      </defs>
      <use xlink:href="#DejaVuSans-4d"/>
      <use xlink:href="#DejaVuSans-75" transform="translate(86.279297 0)"/>
      <use xlink:href="#DejaVuSans-6c" transform="translate(149.658203 0)"/>
      <use xlink:href="#DejaVuSans-74" transform="translate(177.441406 0)"/>
      <use xlink:href="#DejaVuSans-69" transform="translate(216.650391 0)"/>
      <use xlink:href="#DejaVuSans-20" transform="translate(244.433594 0)"/>
      <use xlink:href="#DejaVuSans-52" transform="translate(276.220703 0)"/>
      <use xlink:href="#DejaVuSans-65" transform="translate(341.203125 0)"/>
      <use xlink:href="#DejaVuSans-73" transform="translate(402.726562 0)"/>
      <use xlink:href="#DejaVuSans-75" transform="translate(454.826172 0)"/>
      <use xlink:href="#DejaVuSans-6c" transform="translate(518.205078 0)"/>
      <use xlink:href="#DejaVuSans-74" transform="translate(545.988281 0)"/>
      <use xlink:href="#DejaVuSans-73" transform="translate(585.197266 0)"/>
     </g>
    </g>
   </g>
  </g>
 </g>
 <defs>
  <clipPath id="p4d3fdc9799">
   <rect x="50.87" y="26.88" width="946.33" height="219.16"/>
  </clipPath>
 </defs>
</svg>
