<?xml version="1.0" encoding="utf-8" standalone="no"?>
<!DOCTYPE svg PUBLIC "-//W3C//DTD SVG 1.1//EN"
  "http://www.w3.org/Graphics/SVG/1.1/DTD/svg11.dtd">
<svg xmlns:xlink="http://www.w3.org/1999/xlink" width="1008pt" height="288pt" viewBox="0 0 1008 288" xmlns="http://www.w3.org/2000/svg" version="1.1">
 <metadata>
  <rdf:RDF xmlns:dc="http://purl.org/dc/elements/1.1/" xmlns:cc="http://creativecommons.org/ns#" xmlns:rdf="http://www.w3.org/1999/02/22-rdf-syntax-ns#">
   <cc:Work>
    <dc:type rdf:resource="http://purl.org/dc/dcmitype/StillImage"/>
    <dc:date>2025-05-31T22:12:40.475365</dc:date>
    <dc:format>image/svg+xml</dc:format>
    <dc:creator>
     <cc:Agent>
      <dc:title>Matplotlib v3.10.1, https://matplotlib.org/</dc:title>
     </cc:Agent>
    </dc:creator>
   </cc:Work>
  </rdf:RDF>
 </metadata>
 <defs>
  <style type="text/css">*{stroke-linejoin: round; stroke-linecap: butt}</style>
 </defs>
 <g id="figure_1">
  <g id="patch_1">
   <path d="M 0 288 
L 1008 288 
L 1008 0 
L 0 0 
z
" style="fill: #ffffff"/>
  </g>
  <g id="axes_1">
   <g id="patch_2">
    <path d="M 44.57 246.04 
L 997.2 246.04 
L 997.2 26.88 
L 44.57 26.88 
z
" style="fill: #ffffff"/>
   </g>
   <g id="matplotlib.axis_1">
    <g id="xtick_1">
     <g id="line2d_1">
      <defs>
       <path id="mf8e0b0207e" d="M 0 0 
L 0 3.5 
" style="stroke: #000000; stroke-width: 0.8"/>
      </defs>
      <g>
       <use xlink:href="#mf8e0b0207e" x="87.871364" y="246.04" style="stroke: #000000; stroke-width: 0.8"/>
      </g>
     </g>
     <g id="text_1">
      <!-- 0 -->
      <g transform="translate(84.690114 260.638438) scale(0.1 -0.1)">
       <defs>
        <path id="DejaVuSans-30" d="M 2034 4250 
Q 1547 4250 1301 3770 
Q 1056 3291 1056 2328 
Q 1056 1369 1301 889 
Q 1547 409 2034 409 
Q 2525 409 2770 889 
Q 3016 1369 3016 2328 
Q 3016 3291 2770 3770 
Q 2525 4250 2034 4250 
z
M 2034 4750 
Q 2819 4750 3233 4129 
Q 3647 3509 3647 2328 
Q 3647 1150 3233 529 
Q 2819 -91 2034 -91 
Q 1250 -91 836 529 
Q 422 1150 422 2328 
Q 422 3509 836 4129 
Q 1250 4750 2034 4750 
z
" transform="scale(0.015625)"/>
       </defs>
       <use xlink:href="#DejaVuSans-30"/>
      </g>
     </g>
    </g>
    <g id="xtick_2">
     <g id="line2d_2">
      <g>
       <use xlink:href="#mf8e0b0207e" x="208.152929" y="246.04" style="stroke: #000000; stroke-width: 0.8"/>
      </g>
     </g>
     <g id="text_2">
      <!-- 50 -->
      <g transform="translate(201.790429 260.638438) scale(0.1 -0.1)">
       <defs>
        <path id="DejaVuSans-35" d="M 691 4666 
L 3169 4666 
L 3169 4134 
L 1269 4134 
L 1269 2991 
Q 1406 3038 1543 3061 
Q 1681 3084 1819 3084 
Q 2600 3084 3056 2656 
Q 3513 2228 3513 1497 
Q 3513 744 3044 326 
Q 2575 -91 1722 -91 
Q 1428 -91 1123 -41 
Q 819 9 494 109 
L 494 744 
Q 775 591 1075 516 
Q 1375 441 1709 441 
Q 2250 441 2565 725 
Q 2881 1009 2881 1497 
Q 2881 1984 2565 2268 
Q 2250 2553 1709 2553 
Q 1456 2553 1204 2497 
Q 953 2441 691 2322 
L 691 4666 
z
" transform="scale(0.015625)"/>
       </defs>
       <use xlink:href="#DejaVuSans-35"/>
       <use xlink:href="#DejaVuSans-30" transform="translate(63.623047 0)"/>
      </g>
     </g>
    </g>
    <g id="xtick_3">
     <g id="line2d_3">
      <g>
       <use xlink:href="#mf8e0b0207e" x="328.434495" y="246.04" style="stroke: #000000; stroke-width: 0.8"/>
      </g>
     </g>
     <g id="text_3">
      <!-- 100 -->
      <g transform="translate(318.890745 260.638438) scale(0.1 -0.1)">
       <defs>
        <path id="DejaVuSans-31" d="M 794 531 
L 1825 531 
L 1825 4091 
L 703 3866 
L 703 4441 
L 1819 4666 
L 2450 4666 
L 2450 531 
L 3481 531 
L 3481 0 
L 794 0 
L 794 531 
z
" transform="scale(0.015625)"/>
       </defs>
       <use xlink:href="#DejaVuSans-31"/>
       <use xlink:href="#DejaVuSans-30" transform="translate(63.623047 0)"/>
       <use xlink:href="#DejaVuSans-30" transform="translate(127.246094 0)"/>
      </g>
     </g>
    </g>
    <g id="xtick_4">
     <g id="line2d_4">
      <g>
       <use xlink:href="#mf8e0b0207e" x="448.716061" y="246.04" style="stroke: #000000; stroke-width: 0.8"/>
      </g>
     </g>
     <g id="text_4">
      <!-- 150 -->
      <g transform="translate(439.172311 260.638438) scale(0.1 -0.1)">
       <use xlink:href="#DejaVuSans-31"/>
       <use xlink:href="#DejaVuSans-35" transform="translate(63.623047 0)"/>
       <use xlink:href="#DejaVuSans-30" transform="translate(127.246094 0)"/>
      </g>
     </g>
    </g>
    <g id="xtick_5">
     <g id="line2d_5">
      <g>
       <use xlink:href="#mf8e0b0207e" x="568.997626" y="246.04" style="stroke: #000000; stroke-width: 0.8"/>
      </g>
     </g>
     <g id="text_5">
      <!-- 200 -->
      <g transform="translate(559.453876 260.638438) scale(0.1 -0.1)">
       <defs>
        <path id="DejaVuSans-32" d="M 1228 531 
L 3431 531 
L 3431 0 
L 469 0 
L 469 531 
Q 828 903 1448 1529 
Q 2069 2156 2228 2338 
Q 2531 2678 2651 2914 
Q 2772 3150 2772 3378 
Q 2772 3750 2511 3984 
Q 2250 4219 1831 4219 
Q 1534 4219 1204 4116 
Q 875 4013 500 3803 
L 500 4441 
Q 881 4594 1212 4672 
Q 1544 4750 1819 4750 
Q 2544 4750 2975 4387 
Q 3406 4025 3406 3419 
Q 3406 3131 3298 2873 
Q 3191 2616 2906 2266 
Q 2828 2175 2409 1742 
Q 1991 1309 1228 531 
z
" transform="scale(0.015625)"/>
       </defs>
       <use xlink:href="#DejaVuSans-32"/>
       <use xlink:href="#DejaVuSans-30" transform="translate(63.623047 0)"/>
       <use xlink:href="#DejaVuSans-30" transform="translate(127.246094 0)"/>
      </g>
     </g>
    </g>
    <g id="xtick_6">
     <g id="line2d_6">
      <g>
       <use xlink:href="#mf8e0b0207e" x="689.279192" y="246.04" style="stroke: #000000; stroke-width: 0.8"/>
      </g>
     </g>
     <g id="text_6">
      <!-- 250 -->
      <g transform="translate(679.735442 260.638438) scale(0.1 -0.1)">
       <use xlink:href="#DejaVuSans-32"/>
       <use xlink:href="#DejaVuSans-35" transform="translate(63.623047 0)"/>
       <use xlink:href="#DejaVuSans-30" transform="translate(127.246094 0)"/>
      </g>
     </g>
    </g>
    <g id="xtick_7">
     <g id="line2d_7">
      <g>
       <use xlink:href="#mf8e0b0207e" x="809.560758" y="246.04" style="stroke: #000000; stroke-width: 0.8"/>
      </g>
     </g>
     <g id="text_7">
      <!-- 300 -->
      <g transform="translate(800.017008 260.638438) scale(0.1 -0.1)">
       <defs>
        <path id="DejaVuSans-33" d="M 2597 2516 
Q 3050 2419 3304 2112 
Q 3559 1806 3559 1356 
Q 3559 666 3084 287 
Q 2609 -91 1734 -91 
Q 1441 -91 1130 -33 
Q 819 25 488 141 
L 488 750 
Q 750 597 1062 519 
Q 1375 441 1716 441 
Q 2309 441 2620 675 
Q 2931 909 2931 1356 
Q 2931 1769 2642 2001 
Q 2353 2234 1838 2234 
L 1294 2234 
L 1294 2753 
L 1863 2753 
Q 2328 2753 2575 2939 
Q 2822 3125 2822 3475 
Q 2822 3834 2567 4026 
Q 2313 4219 1838 4219 
Q 1578 4219 1281 4162 
Q 984 4106 628 3988 
L 628 4550 
Q 988 4650 1302 4700 
Q 1616 4750 1894 4750 
Q 2613 4750 3031 4423 
Q 3450 4097 3450 3541 
Q 3450 3153 3228 2886 
Q 3006 2619 2597 2516 
z
" transform="scale(0.015625)"/>
       </defs>
       <use xlink:href="#DejaVuSans-33"/>
       <use xlink:href="#DejaVuSans-30" transform="translate(63.623047 0)"/>
       <use xlink:href="#DejaVuSans-30" transform="translate(127.246094 0)"/>
      </g>
     </g>
    </g>
    <g id="xtick_8">
     <g id="line2d_8">
      <g>
       <use xlink:href="#mf8e0b0207e" x="929.842323" y="246.04" style="stroke: #000000; stroke-width: 0.8"/>
      </g>
     </g>
     <g id="text_8">
      <!-- 350 -->
      <g transform="translate(920.298573 260.638438) scale(0.1 -0.1)">
       <use xlink:href="#DejaVuSans-33"/>
       <use xlink:href="#DejaVuSans-35" transform="translate(63.623047 0)"/>
       <use xlink:href="#DejaVuSans-30" transform="translate(127.246094 0)"/>
      </g>
     </g>
    </g>
    <g id="text_9">
     <!-- Timestamp (Seconds) -->
     <g transform="translate(466.480312 274.316562) scale(0.1 -0.1)">
      <defs>
       <path id="DejaVuSans-54" d="M -19 4666 
L 3928 4666 
L 3928 4134 
L 2272 4134 
L 2272 0 
L 1638 0 
L 1638 4134 
L -19 4134 
L -19 4666 
z
" transform="scale(0.015625)"/>
       <path id="DejaVuSans-69" d="M 603 3500 
L 1178 3500 
L 1178 0 
L 603 0 
L 603 3500 
z
M 603 4863 
L 1178 4863 
L 1178 4134 
L 603 4134 
L 603 4863 
z
" transform="scale(0.015625)"/>
       <path id="DejaVuSans-6d" d="M 3328 2828 
Q 3544 3216 3844 3400 
Q 4144 3584 4550 3584 
Q 5097 3584 5394 3201 
Q 5691 2819 5691 2113 
L 5691 0 
L 5113 0 
L 5113 2094 
Q 5113 2597 4934 2840 
Q 4756 3084 4391 3084 
Q 3944 3084 3684 2787 
Q 3425 2491 3425 1978 
L 3425 0 
L 2847 0 
L 2847 2094 
Q 2847 2600 2669 2842 
Q 2491 3084 2119 3084 
Q 1678 3084 1418 2786 
Q 1159 2488 1159 1978 
L 1159 0 
L 581 0 
L 581 3500 
L 1159 3500 
L 1159 2956 
Q 1356 3278 1631 3431 
Q 1906 3584 2284 3584 
Q 2666 3584 2933 3390 
Q 3200 3197 3328 2828 
z
" transform="scale(0.015625)"/>
       <path id="DejaVuSans-65" d="M 3597 1894 
L 3597 1613 
L 953 1613 
Q 991 1019 1311 708 
Q 1631 397 2203 397 
Q 2534 397 2845 478 
Q 3156 559 3463 722 
L 3463 178 
Q 3153 47 2828 -22 
Q 2503 -91 2169 -91 
Q 1331 -91 842 396 
Q 353 884 353 1716 
Q 353 2575 817 3079 
Q 1281 3584 2069 3584 
Q 2775 3584 3186 3129 
Q 3597 2675 3597 1894 
z
M 3022 2063 
Q 3016 2534 2758 2815 
Q 2500 3097 2075 3097 
Q 1594 3097 1305 2825 
Q 1016 2553 972 2059 
L 3022 2063 
z
" transform="scale(0.015625)"/>
       <path id="DejaVuSans-73" d="M 2834 3397 
L 2834 2853 
Q 2591 2978 2328 3040 
Q 2066 3103 1784 3103 
Q 1356 3103 1142 2972 
Q 928 2841 928 2578 
Q 928 2378 1081 2264 
Q 1234 2150 1697 2047 
L 1894 2003 
Q 2506 1872 2764 1633 
Q 3022 1394 3022 966 
Q 3022 478 2636 193 
Q 2250 -91 1575 -91 
Q 1294 -91 989 -36 
Q 684 19 347 128 
L 347 722 
Q 666 556 975 473 
Q 1284 391 1588 391 
Q 1994 391 2212 530 
Q 2431 669 2431 922 
Q 2431 1156 2273 1281 
Q 2116 1406 1581 1522 
L 1381 1569 
Q 847 1681 609 1914 
Q 372 2147 372 2553 
Q 372 3047 722 3315 
Q 1072 3584 1716 3584 
Q 2034 3584 2315 3537 
Q 2597 3491 2834 3397 
z
" transform="scale(0.015625)"/>
       <path id="DejaVuSans-74" d="M 1172 4494 
L 1172 3500 
L 2356 3500 
L 2356 3053 
L 1172 3053 
L 1172 1153 
Q 1172 725 1289 603 
Q 1406 481 1766 481 
L 2356 481 
L 2356 0 
L 1766 0 
Q 1100 0 847 248 
Q 594 497 594 1153 
L 594 3053 
L 172 3053 
L 172 3500 
L 594 3500 
L 594 4494 
L 1172 4494 
z
" transform="scale(0.015625)"/>
       <path id="DejaVuSans-61" d="M 2194 1759 
Q 1497 1759 1228 1600 
Q 959 1441 959 1056 
Q 959 750 1161 570 
Q 1363 391 1709 391 
Q 2188 391 2477 730 
Q 2766 1069 2766 1631 
L 2766 1759 
L 2194 1759 
z
M 3341 1997 
L 3341 0 
L 2766 0 
L 2766 531 
Q 2569 213 2275 61 
Q 1981 -91 1556 -91 
Q 1019 -91 701 211 
Q 384 513 384 1019 
Q 384 1609 779 1909 
Q 1175 2209 1959 2209 
L 2766 2209 
L 2766 2266 
Q 2766 2663 2505 2880 
Q 2244 3097 1772 3097 
Q 1472 3097 1187 3025 
Q 903 2953 641 2809 
L 641 3341 
Q 956 3463 1253 3523 
Q 1550 3584 1831 3584 
Q 2591 3584 2966 3190 
Q 3341 2797 3341 1997 
z
" transform="scale(0.015625)"/>
       <path id="DejaVuSans-70" d="M 1159 525 
L 1159 -1331 
L 581 -1331 
L 581 3500 
L 1159 3500 
L 1159 2969 
Q 1341 3281 1617 3432 
Q 1894 3584 2278 3584 
Q 2916 3584 3314 3078 
Q 3713 2572 3713 1747 
Q 3713 922 3314 415 
Q 2916 -91 2278 -91 
Q 1894 -91 1617 61 
Q 1341 213 1159 525 
z
M 3116 1747 
Q 3116 2381 2855 2742 
Q 2594 3103 2138 3103 
Q 1681 3103 1420 2742 
Q 1159 2381 1159 1747 
Q 1159 1113 1420 752 
Q 1681 391 2138 391 
Q 2594 391 2855 752 
Q 3116 1113 3116 1747 
z
" transform="scale(0.015625)"/>
       <path id="DejaVuSans-20" transform="scale(0.015625)"/>
       <path id="DejaVuSans-28" d="M 1984 4856 
Q 1566 4138 1362 3434 
Q 1159 2731 1159 2009 
Q 1159 1288 1364 580 
Q 1569 -128 1984 -844 
L 1484 -844 
Q 1016 -109 783 600 
Q 550 1309 550 2009 
Q 550 2706 781 3412 
Q 1013 4119 1484 4856 
L 1984 4856 
z
" transform="scale(0.015625)"/>
       <path id="DejaVuSans-53" d="M 3425 4513 
L 3425 3897 
Q 3066 4069 2747 4153 
Q 2428 4238 2131 4238 
Q 1616 4238 1336 4038 
Q 1056 3838 1056 3469 
Q 1056 3159 1242 3001 
Q 1428 2844 1947 2747 
L 2328 2669 
Q 3034 2534 3370 2195 
Q 3706 1856 3706 1288 
Q 3706 609 3251 259 
Q 2797 -91 1919 -91 
Q 1588 -91 1214 -16 
Q 841 59 441 206 
L 441 856 
Q 825 641 1194 531 
Q 1563 422 1919 422 
Q 2459 422 2753 634 
Q 3047 847 3047 1241 
Q 3047 1584 2836 1778 
Q 2625 1972 2144 2069 
L 1759 2144 
Q 1053 2284 737 2584 
Q 422 2884 422 3419 
Q 422 4038 858 4394 
Q 1294 4750 2059 4750 
Q 2388 4750 2728 4690 
Q 3069 4631 3425 4513 
z
" transform="scale(0.015625)"/>
       <path id="DejaVuSans-63" d="M 3122 3366 
L 3122 2828 
Q 2878 2963 2633 3030 
Q 2388 3097 2138 3097 
Q 1578 3097 1268 2742 
Q 959 2388 959 1747 
Q 959 1106 1268 751 
Q 1578 397 2138 397 
Q 2388 397 2633 464 
Q 2878 531 3122 666 
L 3122 134 
Q 2881 22 2623 -34 
Q 2366 -91 2075 -91 
Q 1284 -91 818 406 
Q 353 903 353 1747 
Q 353 2603 823 3093 
Q 1294 3584 2113 3584 
Q 2378 3584 2631 3529 
Q 2884 3475 3122 3366 
z
" transform="scale(0.015625)"/>
       <path id="DejaVuSans-6f" d="M 1959 3097 
Q 1497 3097 1228 2736 
Q 959 2375 959 1747 
Q 959 1119 1226 758 
Q 1494 397 1959 397 
Q 2419 397 2687 759 
Q 2956 1122 2956 1747 
Q 2956 2369 2687 2733 
Q 2419 3097 1959 3097 
z
M 1959 3584 
Q 2709 3584 3137 3096 
Q 3566 2609 3566 1747 
Q 3566 888 3137 398 
Q 2709 -91 1959 -91 
Q 1206 -91 779 398 
Q 353 888 353 1747 
Q 353 2609 779 3096 
Q 1206 3584 1959 3584 
z
" transform="scale(0.015625)"/>
       <path id="DejaVuSans-6e" d="M 3513 2113 
L 3513 0 
L 2938 0 
L 2938 2094 
Q 2938 2591 2744 2837 
Q 2550 3084 2163 3084 
Q 1697 3084 1428 2787 
Q 1159 2491 1159 1978 
L 1159 0 
L 581 0 
L 581 3500 
L 1159 3500 
L 1159 2956 
Q 1366 3272 1645 3428 
Q 1925 3584 2291 3584 
Q 2894 3584 3203 3211 
Q 3513 2838 3513 2113 
z
" transform="scale(0.015625)"/>
       <path id="DejaVuSans-64" d="M 2906 2969 
L 2906 4863 
L 3481 4863 
L 3481 0 
L 2906 0 
L 2906 525 
Q 2725 213 2448 61 
Q 2172 -91 1784 -91 
Q 1150 -91 751 415 
Q 353 922 353 1747 
Q 353 2572 751 3078 
Q 1150 3584 1784 3584 
Q 2172 3584 2448 3432 
Q 2725 3281 2906 2969 
z
M 947 1747 
Q 947 1113 1208 752 
Q 1469 391 1925 391 
Q 2381 391 2643 752 
Q 2906 1113 2906 1747 
Q 2906 2381 2643 2742 
Q 2381 3103 1925 3103 
Q 1469 3103 1208 2742 
Q 947 2381 947 1747 
z
" transform="scale(0.015625)"/>
       <path id="DejaVuSans-29" d="M 513 4856 
L 1013 4856 
Q 1481 4119 1714 3412 
Q 1947 2706 1947 2009 
Q 1947 1309 1714 600 
Q 1481 -109 1013 -844 
L 513 -844 
Q 928 -128 1133 580 
Q 1338 1288 1338 2009 
Q 1338 2731 1133 3434 
Q 928 4138 513 4856 
z
" transform="scale(0.015625)"/>
      </defs>
      <use xlink:href="#DejaVuSans-54"/>
      <use xlink:href="#DejaVuSans-69" transform="translate(57.958984 0)"/>
      <use xlink:href="#DejaVuSans-6d" transform="translate(85.742188 0)"/>
      <use xlink:href="#DejaVuSans-65" transform="translate(183.154297 0)"/>
      <use xlink:href="#DejaVuSans-73" transform="translate(244.677734 0)"/>
      <use xlink:href="#DejaVuSans-74" transform="translate(296.777344 0)"/>
      <use xlink:href="#DejaVuSans-61" transform="translate(335.986328 0)"/>
      <use xlink:href="#DejaVuSans-6d" transform="translate(397.265625 0)"/>
      <use xlink:href="#DejaVuSans-70" transform="translate(494.677734 0)"/>
      <use xlink:href="#DejaVuSans-20" transform="translate(558.154297 0)"/>
      <use xlink:href="#DejaVuSans-28" transform="translate(589.941406 0)"/>
      <use xlink:href="#DejaVuSans-53" transform="translate(628.955078 0)"/>
      <use xlink:href="#DejaVuSans-65" transform="translate(692.431641 0)"/>
      <use xlink:href="#DejaVuSans-63" transform="translate(753.955078 0)"/>
      <use xlink:href="#DejaVuSans-6f" transform="translate(808.935547 0)"/>
      <use xlink:href="#DejaVuSans-6e" transform="translate(870.117188 0)"/>
      <use xlink:href="#DejaVuSans-64" transform="translate(933.496094 0)"/>
      <use xlink:href="#DejaVuSans-73" transform="translate(996.972656 0)"/>
      <use xlink:href="#DejaVuSans-29" transform="translate(1049.072266 0)"/>
     </g>
    </g>
   </g>
   <g id="matplotlib.axis_2">
    <g id="ytick_1">
     <g id="line2d_9">
      <defs>
       <path id="md3cd2e9be6" d="M 0 0 
L -3.5 0 
" style="stroke: #000000; stroke-width: 0.8"/>
      </defs>
      <g>
       <use xlink:href="#md3cd2e9be6" x="44.57" y="240.14423" style="stroke: #000000; stroke-width: 0.8"/>
      </g>
     </g>
     <g id="text_10">
      <!-- 0 -->
      <g transform="translate(31.2075 243.943449) scale(0.1 -0.1)">
       <use xlink:href="#DejaVuSans-30"/>
      </g>
     </g>
    </g>
    <g id="ytick_2">
     <g id="line2d_10">
      <g>
       <use xlink:href="#md3cd2e9be6" x="44.57" y="199.483748" style="stroke: #000000; stroke-width: 0.8"/>
      </g>
     </g>
     <g id="text_11">
      <!-- 10 -->
      <g transform="translate(24.845 203.282966) scale(0.1 -0.1)">
       <use xlink:href="#DejaVuSans-31"/>
       <use xlink:href="#DejaVuSans-30" transform="translate(63.623047 0)"/>
      </g>
     </g>
    </g>
    <g id="ytick_3">
     <g id="line2d_11">
      <g>
       <use xlink:href="#md3cd2e9be6" x="44.57" y="158.823265" style="stroke: #000000; stroke-width: 0.8"/>
      </g>
     </g>
     <g id="text_12">
      <!-- 20 -->
      <g transform="translate(24.845 162.622484) scale(0.1 -0.1)">
       <use xlink:href="#DejaVuSans-32"/>
       <use xlink:href="#DejaVuSans-30" transform="translate(63.623047 0)"/>
      </g>
     </g>
    </g>
    <g id="ytick_4">
     <g id="line2d_12">
      <g>
       <use xlink:href="#md3cd2e9be6" x="44.57" y="118.162783" style="stroke: #000000; stroke-width: 0.8"/>
      </g>
     </g>
     <g id="text_13">
      <!-- 30 -->
      <g transform="translate(24.845 121.962002) scale(0.1 -0.1)">
       <use xlink:href="#DejaVuSans-33"/>
       <use xlink:href="#DejaVuSans-30" transform="translate(63.623047 0)"/>
      </g>
     </g>
    </g>
    <g id="ytick_5">
     <g id="line2d_13">
      <g>
       <use xlink:href="#md3cd2e9be6" x="44.57" y="77.502301" style="stroke: #000000; stroke-width: 0.8"/>
      </g>
     </g>
     <g id="text_14">
      <!-- 40 -->
      <g transform="translate(24.845 81.301519) scale(0.1 -0.1)">
       <defs>
        <path id="DejaVuSans-34" d="M 2419 4116 
L 825 1625 
L 2419 1625 
L 2419 4116 
z
M 2253 4666 
L 3047 4666 
L 3047 1625 
L 3713 1625 
L 3713 1100 
L 3047 1100 
L 3047 0 
L 2419 0 
L 2419 1100 
L 313 1100 
L 313 1709 
L 2253 4666 
z
" transform="scale(0.015625)"/>
       </defs>
       <use xlink:href="#DejaVuSans-34"/>
       <use xlink:href="#DejaVuSans-30" transform="translate(63.623047 0)"/>
      </g>
     </g>
    </g>
    <g id="ytick_6">
     <g id="line2d_14">
      <g>
       <use xlink:href="#md3cd2e9be6" x="44.57" y="36.841818" style="stroke: #000000; stroke-width: 0.8"/>
      </g>
     </g>
     <g id="text_15">
      <!-- 50 -->
      <g transform="translate(24.845 40.641037) scale(0.1 -0.1)">
       <use xlink:href="#DejaVuSans-35"/>
       <use xlink:href="#DejaVuSans-30" transform="translate(63.623047 0)"/>
      </g>
     </g>
    </g>
    <g id="text_16">
     <!-- Requests/sec -->
     <g transform="translate(18.765312 169.489687) rotate(-90) scale(0.1 -0.1)">
      <defs>
       <path id="DejaVuSans-52" d="M 2841 2188 
Q 3044 2119 3236 1894 
Q 3428 1669 3622 1275 
L 4263 0 
L 3584 0 
L 2988 1197 
Q 2756 1666 2539 1819 
Q 2322 1972 1947 1972 
L 1259 1972 
L 1259 0 
L 628 0 
L 628 4666 
L 2053 4666 
Q 2853 4666 3247 4331 
Q 3641 3997 3641 3322 
Q 3641 2881 3436 2590 
Q 3231 2300 2841 2188 
z
M 1259 4147 
L 1259 2491 
L 2053 2491 
Q 2509 2491 2742 2702 
Q 2975 2913 2975 3322 
Q 2975 3731 2742 3939 
Q 2509 4147 2053 4147 
L 1259 4147 
z
" transform="scale(0.015625)"/>
       <path id="DejaVuSans-71" d="M 947 1747 
Q 947 1113 1208 752 
Q 1469 391 1925 391 
Q 2381 391 2643 752 
Q 2906 1113 2906 1747 
Q 2906 2381 2643 2742 
Q 2381 3103 1925 3103 
Q 1469 3103 1208 2742 
Q 947 2381 947 1747 
z
M 2906 525 
Q 2725 213 2448 61 
Q 2172 -91 1784 -91 
Q 1150 -91 751 415 
Q 353 922 353 1747 
Q 353 2572 751 3078 
Q 1150 3584 1784 3584 
Q 2172 3584 2448 3432 
Q 2725 3281 2906 2969 
L 2906 3500 
L 3481 3500 
L 3481 -1331 
L 2906 -1331 
L 2906 525 
z
" transform="scale(0.015625)"/>
       <path id="DejaVuSans-75" d="M 544 1381 
L 544 3500 
L 1119 3500 
L 1119 1403 
Q 1119 906 1312 657 
Q 1506 409 1894 409 
Q 2359 409 2629 706 
Q 2900 1003 2900 1516 
L 2900 3500 
L 3475 3500 
L 3475 0 
L 2900 0 
L 2900 538 
Q 2691 219 2414 64 
Q 2138 -91 1772 -91 
Q 1169 -91 856 284 
Q 544 659 544 1381 
z
M 1991 3584 
L 1991 3584 
z
" transform="scale(0.015625)"/>
       <path id="DejaVuSans-2f" d="M 1625 4666 
L 2156 4666 
L 531 -594 
L 0 -594 
L 1625 4666 
z
" transform="scale(0.015625)"/>
      </defs>
      <use xlink:href="#DejaVuSans-52"/>
      <use xlink:href="#DejaVuSans-65" transform="translate(64.982422 0)"/>
      <use xlink:href="#DejaVuSans-71" transform="translate(126.505859 0)"/>
      <use xlink:href="#DejaVuSans-75" transform="translate(189.982422 0)"/>
      <use xlink:href="#DejaVuSans-65" transform="translate(253.361328 0)"/>
      <use xlink:href="#DejaVuSans-73" transform="translate(314.884766 0)"/>
      <use xlink:href="#DejaVuSans-74" transform="translate(366.984375 0)"/>
      <use xlink:href="#DejaVuSans-73" transform="translate(406.193359 0)"/>
      <use xlink:href="#DejaVuSans-2f" transform="translate(458.292969 0)"/>
      <use xlink:href="#DejaVuSans-73" transform="translate(491.984375 0)"/>
      <use xlink:href="#DejaVuSans-65" transform="translate(544.083984 0)"/>
      <use xlink:href="#DejaVuSans-63" transform="translate(605.607422 0)"/>
     </g>
    </g>
   </g>
   <g id="line2d_15">
    <path d="M 87.871364 236.078182 
L 90.276995 232.012134 
L 92.682626 232.012134 
L 95.088258 227.946085 
L 97.493889 227.946085 
L 99.89952 219.813989 
L 102.305152 215.747941 
L 104.710783 215.747941 
L 109.522045 207.615844 
L 111.927677 207.615844 
L 114.333308 199.483748 
L 116.738939 199.483748 
L 119.144571 195.417699 
L 121.550202 195.417699 
L 123.955833 187.285603 
L 128.767096 179.153506 
L 131.172727 179.153506 
L 133.578359 175.087458 
L 135.98399 175.087458 
L 138.389621 171.02141 
L 140.795253 162.889314 
L 143.200884 162.889314 
L 145.606515 158.823265 
L 148.012146 158.823265 
L 152.823409 150.691169 
L 155.22904 142.559072 
L 157.634672 146.625121 
L 160.040303 142.559072 
L 162.445934 142.559072 
L 164.851566 130.360928 
L 167.257197 130.360928 
L 169.662828 138.493024 
L 172.06846 126.294879 
L 174.474091 118.162783 
L 176.879722 114.096735 
L 179.285354 118.162783 
L 181.690985 105.964638 
L 184.096616 105.964638 
L 186.502247 110.030686 
L 193.719141 97.832542 
L 196.124773 97.832542 
L 198.530404 89.700445 
L 200.936035 93.766494 
L 203.341667 81.568349 
L 205.747298 85.634397 
L 208.152929 77.502301 
L 210.558561 85.634397 
L 212.964192 65.304156 
L 217.775455 65.304156 
L 220.181086 81.568349 
L 222.586717 73.436252 
L 227.39798 49.039963 
L 229.803611 65.304156 
L 232.209242 69.370204 
L 234.614874 49.039963 
L 237.020505 57.172059 
L 239.426136 89.700445 
L 241.831768 211.681892 
L 249.048662 236.078182 
L 258.671187 85.634397 
L 261.076818 126.294879 
L 263.482449 65.304156 
L 265.888081 36.841818 
L 268.293712 97.832542 
L 270.699343 61.238108 
L 273.104975 105.964638 
L 275.510606 44.973915 
L 277.916237 81.568349 
L 280.321869 81.568349 
L 282.7275 57.172059 
L 285.133131 49.039963 
L 287.538763 89.700445 
L 289.944394 65.304156 
L 292.350025 53.106011 
L 294.755657 69.370204 
L 297.161288 69.370204 
L 299.566919 61.238108 
L 301.972551 57.172059 
L 304.378182 73.436252 
L 306.783813 65.304156 
L 309.189444 53.106011 
L 311.595076 77.502301 
L 314.000707 77.502301 
L 316.406338 36.841818 
L 318.81197 77.502301 
L 321.217601 65.304156 
L 323.623232 81.568349 
L 326.028864 40.907866 
L 328.434495 73.436252 
L 330.840126 53.106011 
L 333.245758 81.568349 
L 335.651389 49.039963 
L 338.05702 89.700445 
L 340.462652 36.841818 
L 342.868283 65.304156 
L 345.273914 81.568349 
L 347.679545 77.502301 
L 350.085177 57.172059 
L 352.490808 97.832542 
L 354.896439 40.907866 
L 359.707702 89.700445 
L 362.113333 61.238108 
L 364.518965 57.172059 
L 366.924596 85.634397 
L 369.330227 65.304156 
L 371.735859 49.039963 
L 374.14149 105.964638 
L 376.547121 53.106011 
L 378.952753 36.841818 
L 381.358384 93.766494 
L 383.764015 73.436252 
L 386.169646 57.172059 
L 388.575278 77.502301 
L 390.980909 77.502301 
L 393.38654 44.973915 
L 395.792172 85.634397 
L 398.197803 89.700445 
L 400.603434 61.238108 
L 403.009066 97.832542 
L 405.414697 73.436252 
L 407.820328 36.841818 
L 410.22596 77.502301 
L 412.631591 61.238108 
L 415.037222 69.370204 
L 417.442854 73.436252 
L 419.848485 73.436252 
L 422.254116 77.502301 
L 424.659747 40.907866 
L 427.065379 126.294879 
L 429.47101 57.172059 
L 431.876641 36.841818 
L 434.282273 97.832542 
L 436.687904 65.304156 
L 439.093535 73.436252 
L 441.499167 53.106011 
L 443.904798 110.030686 
L 446.310429 36.841818 
L 448.716061 69.370204 
L 451.121692 85.634397 
L 453.527323 85.634397 
L 455.932955 44.973915 
L 458.338586 105.964638 
L 460.744217 36.841818 
L 463.149848 73.436252 
L 465.55548 114.096735 
L 467.961111 69.370204 
L 470.366742 36.841818 
L 472.772374 118.162783 
L 475.178005 49.039963 
L 477.583636 81.568349 
L 479.989268 57.172059 
L 482.394899 77.502301 
L 484.80053 65.304156 
L 487.206162 73.436252 
L 489.611793 36.841818 
L 492.017424 118.162783 
L 494.423056 57.172059 
L 496.828687 40.907866 
L 499.234318 130.360928 
L 501.639949 36.841818 
L 504.045581 61.238108 
L 506.451212 114.096735 
L 508.856843 77.502301 
L 511.262475 69.370204 
L 513.668106 40.907866 
L 516.073737 85.634397 
L 518.479369 65.304156 
L 520.885 36.841818 
L 523.290631 89.700445 
L 525.696263 73.436252 
L 528.101894 36.841818 
L 530.507525 97.832542 
L 532.913157 49.039963 
L 535.318788 69.370204 
L 537.724419 61.238108 
L 540.130051 77.502301 
L 542.535682 69.370204 
L 544.941313 40.907866 
L 547.346944 93.766494 
L 549.752576 65.304156 
L 552.158207 61.238108 
L 554.563838 73.436252 
L 556.96947 36.841818 
L 559.375101 73.436252 
L 561.780732 65.304156 
L 564.186364 77.502301 
L 566.591995 57.172059 
L 568.997626 49.039963 
L 571.403258 73.436252 
L 573.808889 65.304156 
L 576.21452 53.106011 
L 578.620152 81.568349 
L 581.025783 61.238108 
L 583.431414 105.964638 
L 585.837045 36.841818 
L 588.242677 36.841818 
L 590.648308 77.502301 
L 593.053939 134.426976 
L 595.459571 36.841818 
L 597.865202 73.436252 
L 600.270833 44.973915 
L 602.676465 130.360928 
L 605.082096 44.973915 
L 607.487727 36.841818 
L 609.893359 89.700445 
L 612.29899 57.172059 
L 614.704621 73.436252 
L 617.110253 57.172059 
L 619.515884 77.502301 
L 621.921515 81.568349 
L 624.327146 44.973915 
L 626.732778 73.436252 
L 629.138409 57.172059 
L 631.54404 77.502301 
L 633.949672 44.973915 
L 636.355303 65.304156 
L 638.760934 73.436252 
L 641.166566 77.502301 
L 645.977828 44.973915 
L 648.38346 97.832542 
L 650.789091 73.436252 
L 653.194722 69.370204 
L 655.600354 36.841818 
L 658.005985 49.039963 
L 660.411616 85.634397 
L 662.817247 89.700445 
L 665.222879 97.832542 
L 667.62851 36.841818 
L 670.034141 36.841818 
L 672.439773 85.634397 
L 674.845404 89.700445 
L 677.251035 81.568349 
L 679.656667 81.568349 
L 682.062298 36.841818 
L 684.467929 81.568349 
L 686.873561 53.106011 
L 689.279192 69.370204 
L 691.684823 57.172059 
L 694.090455 53.106011 
L 696.496086 73.436252 
L 698.901717 73.436252 
L 701.307348 44.973915 
L 703.71298 77.502301 
L 706.118611 114.096735 
L 708.524242 44.973915 
L 713.335505 61.238108 
L 715.741136 81.568349 
L 718.146768 61.238108 
L 720.552399 73.436252 
L 722.95803 49.039963 
L 725.363662 101.89859 
L 727.769293 61.238108 
L 730.174924 44.973915 
L 732.580556 97.832542 
L 734.986187 93.766494 
L 737.391818 36.841818 
L 739.797449 49.039963 
L 742.203081 122.228831 
L 744.608712 44.973915 
L 747.014343 77.502301 
L 749.419975 61.238108 
L 751.825606 36.841818 
L 754.231237 97.832542 
L 756.636869 36.841818 
L 759.0425 61.238108 
L 761.448131 53.106011 
L 763.853763 73.436252 
L 766.259394 77.502301 
L 768.665025 73.436252 
L 771.070657 36.841818 
L 773.476288 61.238108 
L 775.881919 97.832542 
L 778.287551 69.370204 
L 780.693182 36.841818 
L 783.098813 61.238108 
L 785.504444 110.030686 
L 787.910076 53.106011 
L 790.315707 40.907866 
L 792.721338 85.634397 
L 795.12697 93.766494 
L 797.532601 69.370204 
L 799.938232 40.907866 
L 802.343864 49.039963 
L 804.749495 85.634397 
L 807.155126 93.766494 
L 809.560758 36.841818 
L 811.966389 49.039963 
L 814.37202 105.964638 
L 816.777652 61.238108 
L 819.183283 61.238108 
L 821.588914 85.634397 
L 823.994545 85.634397 
L 826.400177 93.766494 
L 828.805808 77.502301 
L 833.617071 69.370204 
L 836.022702 138.493024 
L 838.428333 110.030686 
L 840.833965 77.502301 
L 843.239596 81.568349 
L 845.645227 130.360928 
L 848.050859 114.096735 
L 850.45649 89.700445 
L 852.862121 142.559072 
L 855.267753 110.030686 
L 857.673384 101.89859 
L 860.079015 110.030686 
L 862.484646 138.493024 
L 864.890278 114.096735 
L 867.295909 166.955362 
L 869.70154 118.162783 
L 874.512803 126.294879 
L 876.918434 162.889314 
L 879.324066 191.351651 
L 881.729697 134.426976 
L 884.135328 138.493024 
L 886.54096 146.625121 
L 888.946591 146.625121 
L 891.352222 195.417699 
L 893.757854 166.955362 
L 896.163485 158.823265 
L 898.569116 162.889314 
L 900.974747 162.889314 
L 903.380379 171.02141 
L 905.78601 207.615844 
L 908.191641 175.087458 
L 910.597273 175.087458 
L 920.219798 191.351651 
L 922.625429 191.351651 
L 925.031061 199.483748 
L 927.436692 199.483748 
L 929.842323 207.615844 
L 932.247955 207.615844 
L 934.653586 219.813989 
L 937.059217 215.747941 
L 939.464848 215.747941 
L 946.681742 227.946085 
L 949.087374 227.946085 
L 951.493005 236.078182 
L 953.898636 236.078182 
L 953.898636 236.078182 
" clip-path="url(#pd5eb96527d)" style="fill: none; stroke: #1f77b4; stroke-width: 1.5; stroke-linecap: square"/>
   </g>
   <g id="line2d_16">
    <path d="M 87.871364 236.078182 
L 92.682626 232.012134 
L 99.89952 219.813989 
L 107.116414 219.813989 
L 109.522045 211.681892 
L 114.333308 203.549796 
L 116.738939 207.615844 
L 119.144571 207.615844 
L 121.550202 195.417699 
L 123.955833 191.351651 
L 128.767096 191.351651 
L 131.172727 195.417699 
L 133.578359 191.351651 
L 135.98399 171.02141 
L 138.389621 191.351651 
L 140.795253 179.153506 
L 143.200884 171.02141 
L 145.606515 166.955362 
L 148.012146 171.02141 
L 150.417778 166.955362 
L 155.22904 166.955362 
L 157.634672 187.285603 
L 160.040303 138.493024 
L 162.445934 179.153506 
L 164.851566 150.691169 
L 167.257197 175.087458 
L 169.662828 146.625121 
L 172.06846 175.087458 
L 174.474091 142.559072 
L 176.879722 187.285603 
L 179.285354 154.757217 
L 181.690985 166.955362 
L 184.096616 175.087458 
L 186.502247 146.625121 
L 188.907879 171.02141 
L 191.31351 171.02141 
L 193.719141 158.823265 
L 196.124773 142.559072 
L 198.530404 166.955362 
L 200.936035 154.757217 
L 203.341667 199.483748 
L 208.152929 134.426976 
L 210.558561 175.087458 
L 212.964192 171.02141 
L 215.369823 146.625121 
L 217.775455 195.417699 
L 220.181086 146.625121 
L 222.586717 166.955362 
L 224.992348 146.625121 
L 227.39798 158.823265 
L 229.803611 191.351651 
L 232.209242 134.426976 
L 234.614874 158.823265 
L 237.020505 162.889314 
L 239.426136 171.02141 
L 244.237399 138.493024 
L 246.64303 162.889314 
L 249.048662 175.087458 
L 251.454293 146.625121 
L 253.859924 158.823265 
L 256.265556 162.889314 
L 258.671187 138.493024 
L 261.076818 175.087458 
L 263.482449 171.02141 
L 265.888081 122.228831 
L 270.699343 162.889314 
L 273.104975 162.889314 
L 275.510606 142.559072 
L 277.916237 207.615844 
L 280.321869 175.087458 
L 282.7275 187.285603 
L 285.133131 175.087458 
L 287.538763 142.559072 
L 289.944394 158.823265 
L 292.350025 166.955362 
L 294.755657 183.219555 
L 297.161288 162.889314 
L 299.566919 138.493024 
L 301.972551 183.219555 
L 304.378182 150.691169 
L 306.783813 154.757217 
L 309.189444 195.417699 
L 311.595076 179.153506 
L 314.000707 130.360928 
L 316.406338 227.946085 
L 318.81197 118.162783 
L 321.217601 134.426976 
L 323.623232 227.946085 
L 326.028864 203.549796 
L 328.434495 211.681892 
L 330.840126 138.493024 
L 333.245758 175.087458 
L 335.651389 158.823265 
L 338.05702 175.087458 
L 340.462652 162.889314 
L 342.868283 146.625121 
L 345.273914 179.153506 
L 347.679545 191.351651 
L 350.085177 122.228831 
L 352.490808 179.153506 
L 354.896439 187.285603 
L 357.302071 146.625121 
L 359.707702 171.02141 
L 362.113333 175.087458 
L 364.518965 191.351651 
L 366.924596 126.294879 
L 369.330227 191.351651 
L 371.735859 154.757217 
L 374.14149 154.757217 
L 376.547121 187.285603 
L 378.952753 166.955362 
L 383.764015 166.955362 
L 386.169646 154.757217 
L 388.575278 207.615844 
L 390.980909 166.955362 
L 393.38654 171.02141 
L 395.792172 138.493024 
L 398.197803 199.483748 
L 400.603434 142.559072 
L 403.009066 175.087458 
L 405.414697 175.087458 
L 407.820328 171.02141 
L 410.22596 203.549796 
L 412.631591 110.030686 
L 415.037222 199.483748 
L 417.442854 175.087458 
L 419.848485 195.417699 
L 422.254116 130.360928 
L 424.659747 191.351651 
L 427.065379 146.625121 
L 429.47101 199.483748 
L 431.876641 154.757217 
L 434.282273 183.219555 
L 436.687904 171.02141 
L 439.093535 154.757217 
L 441.499167 179.153506 
L 443.904798 171.02141 
L 446.310429 187.285603 
L 448.716061 158.823265 
L 451.121692 199.483748 
L 453.527323 158.823265 
L 455.932955 150.691169 
L 458.338586 207.615844 
L 460.744217 183.219555 
L 463.149848 166.955362 
L 465.55548 187.285603 
L 467.961111 118.162783 
L 470.366742 232.012134 
L 472.772374 122.228831 
L 475.178005 171.02141 
L 477.583636 166.955362 
L 479.989268 203.549796 
L 482.394899 150.691169 
L 484.80053 232.012134 
L 487.206162 101.89859 
L 489.611793 223.880037 
L 492.017424 130.360928 
L 494.423056 223.880037 
L 496.828687 138.493024 
L 499.234318 227.946085 
L 501.639949 195.417699 
L 504.045581 191.351651 
L 506.451212 191.351651 
L 508.856843 101.89859 
L 511.262475 179.153506 
L 513.668106 183.219555 
L 516.073737 191.351651 
L 518.479369 150.691169 
L 520.885 162.889314 
L 523.290631 187.285603 
L 525.696263 219.813989 
L 528.101894 81.568349 
L 530.507525 199.483748 
L 532.913157 207.615844 
L 537.724419 187.285603 
L 540.130051 223.880037 
L 542.535682 187.285603 
L 544.941313 191.351651 
L 547.346944 97.832542 
L 549.752576 215.747941 
L 552.158207 195.417699 
L 554.563838 171.02141 
L 556.96947 142.559072 
L 559.375101 187.285603 
L 564.186364 187.285603 
L 566.591995 175.087458 
L 568.997626 126.294879 
L 571.403258 191.351651 
L 573.808889 158.823265 
L 576.21452 232.012134 
L 578.620152 211.681892 
L 581.025783 61.238108 
L 583.431414 191.351651 
L 585.837045 175.087458 
L 588.242677 219.813989 
L 590.648308 191.351651 
L 593.053939 126.294879 
L 595.459571 166.955362 
L 597.865202 162.889314 
L 600.270833 215.747941 
L 602.676465 179.153506 
L 605.082096 207.615844 
L 607.487727 93.766494 
L 609.893359 195.417699 
L 612.29899 183.219555 
L 614.704621 207.615844 
L 617.110253 150.691169 
L 619.515884 134.426976 
L 621.921515 227.946085 
L 624.327146 146.625121 
L 626.732778 232.012134 
L 629.138409 110.030686 
L 631.54404 195.417699 
L 633.949672 179.153506 
L 636.355303 223.880037 
L 638.760934 146.625121 
L 641.166566 130.360928 
L 643.572197 199.483748 
L 645.977828 199.483748 
L 648.38346 130.360928 
L 650.789091 171.02141 
L 653.194722 171.02141 
L 655.600354 203.549796 
L 658.005985 191.351651 
L 660.411616 219.813989 
L 662.817247 73.436252 
L 665.222879 199.483748 
L 667.62851 203.549796 
L 670.034141 171.02141 
L 672.439773 162.889314 
L 674.845404 207.615844 
L 677.251035 171.02141 
L 682.062298 77.502301 
L 684.467929 166.955362 
L 686.873561 191.351651 
L 689.279192 195.417699 
L 691.684823 187.285603 
L 694.090455 150.691169 
L 696.496086 203.549796 
L 698.901717 187.285603 
L 701.307348 150.691169 
L 706.118611 134.426976 
L 708.524242 207.615844 
L 710.929874 142.559072 
L 713.335505 179.153506 
L 715.741136 211.681892 
L 718.146768 146.625121 
L 720.552399 171.02141 
L 722.95803 227.946085 
L 725.363662 122.228831 
L 727.769293 158.823265 
L 730.174924 199.483748 
L 732.580556 199.483748 
L 734.986187 118.162783 
L 737.391818 191.351651 
L 739.797449 232.012134 
L 742.203081 114.096735 
L 744.608712 195.417699 
L 747.014343 199.483748 
L 749.419975 223.880037 
L 751.825606 187.285603 
L 754.231237 105.964638 
L 756.636869 175.087458 
L 759.0425 187.285603 
L 761.448131 195.417699 
L 763.853763 232.012134 
L 766.259394 158.823265 
L 768.665025 118.162783 
L 771.070657 203.549796 
L 773.476288 195.417699 
L 775.881919 146.625121 
L 778.287551 183.219555 
L 780.693182 142.559072 
L 783.098813 171.02141 
L 785.504444 215.747941 
L 787.910076 183.219555 
L 790.315707 97.832542 
L 792.721338 219.813989 
L 795.12697 142.559072 
L 797.532601 232.012134 
L 799.938232 199.483748 
L 802.343864 134.426976 
L 804.749495 138.493024 
L 807.155126 211.681892 
L 809.560758 154.757217 
L 811.966389 187.285603 
L 814.37202 171.02141 
L 816.777652 138.493024 
L 819.183283 211.681892 
L 821.588914 154.757217 
L 823.994545 183.219555 
L 826.400177 122.228831 
L 828.805808 207.615844 
L 831.211439 126.294879 
L 833.617071 187.285603 
L 836.022702 179.153506 
L 838.428333 227.946085 
L 840.833965 101.89859 
L 843.239596 175.087458 
L 845.645227 191.351651 
L 848.050859 211.681892 
L 850.45649 122.228831 
L 852.862121 195.417699 
L 855.267753 183.219555 
L 857.673384 166.955362 
L 860.079015 158.823265 
L 862.484646 179.153506 
L 864.890278 171.02141 
L 867.295909 203.549796 
L 869.70154 207.615844 
L 872.107172 150.691169 
L 874.512803 191.351651 
L 876.918434 183.219555 
L 879.324066 203.549796 
L 881.729697 130.360928 
L 884.135328 195.417699 
L 886.54096 166.955362 
L 888.946591 187.285603 
L 891.352222 179.153506 
L 893.757854 187.285603 
L 896.163485 171.02141 
L 898.569116 191.351651 
L 900.974747 166.955362 
L 903.380379 187.285603 
L 905.78601 187.285603 
L 908.191641 175.087458 
L 913.002904 191.351651 
L 915.408535 195.417699 
L 917.814167 187.285603 
L 920.219798 195.417699 
L 925.031061 203.549796 
L 927.436692 199.483748 
L 929.842323 215.747941 
L 932.247955 207.615844 
L 934.653586 207.615844 
L 937.059217 219.813989 
L 939.464848 215.747941 
L 941.87048 219.813989 
L 944.276111 232.012134 
L 946.681742 227.946085 
L 949.087374 227.946085 
L 953.898636 236.078182 
L 953.898636 236.078182 
" clip-path="url(#pd5eb96527d)" style="fill: none; stroke: #ff7f0e; stroke-width: 1.5; stroke-linecap: square"/>
   </g>
   <g id="line2d_17">
    <path d="M 87.871364 236.078182 
L 90.276995 232.012134 
L 92.682626 232.012134 
L 95.088258 227.946085 
L 97.493889 227.946085 
L 99.89952 223.880037 
L 102.305152 215.747941 
L 104.710783 219.813989 
L 109.522045 211.681892 
L 111.927677 223.880037 
L 114.333308 203.549796 
L 116.738939 219.813989 
L 119.144571 203.549796 
L 121.550202 211.681892 
L 123.955833 203.549796 
L 128.767096 211.681892 
L 131.172727 195.417699 
L 133.578359 207.615844 
L 135.98399 195.417699 
L 138.389621 203.549796 
L 140.795253 203.549796 
L 143.200884 207.615844 
L 145.606515 195.417699 
L 148.012146 203.549796 
L 150.417778 199.483748 
L 152.823409 203.549796 
L 155.22904 195.417699 
L 157.634672 199.483748 
L 160.040303 195.417699 
L 162.445934 203.549796 
L 167.257197 211.681892 
L 169.662828 207.615844 
L 172.06846 232.012134 
L 174.474091 191.351651 
L 176.879722 183.219555 
L 181.690985 232.012134 
L 184.096616 211.681892 
L 186.502247 199.483748 
L 188.907879 207.615844 
L 191.31351 195.417699 
L 193.719141 232.012134 
L 196.124773 227.946085 
L 198.530404 191.351651 
L 200.936035 211.681892 
L 203.341667 211.681892 
L 205.747298 207.615844 
L 208.152929 215.747941 
L 210.558561 227.946085 
L 212.964192 232.012134 
L 215.369823 187.285603 
L 217.775455 215.747941 
L 220.181086 183.219555 
L 222.586717 223.880037 
L 224.992348 227.946085 
L 227.39798 219.813989 
L 229.803611 236.078182 
L 232.209242 207.615844 
L 234.614874 195.417699 
L 237.020505 187.285603 
L 239.426136 211.681892 
L 241.831768 232.012134 
L 244.237399 211.681892 
L 246.64303 227.946085 
L 249.048662 223.880037 
L 251.454293 215.747941 
L 253.859924 179.153506 
L 256.265556 199.483748 
L 258.671187 203.549796 
L 261.076818 223.880037 
L 263.482449 232.012134 
L 265.888081 223.880037 
L 268.293712 227.946085 
L 270.699343 179.153506 
L 273.104975 191.351651 
L 275.510606 223.880037 
L 280.321869 171.02141 
L 282.7275 227.946085 
L 285.133131 219.813989 
L 287.538763 236.078182 
L 292.350025 203.549796 
L 294.755657 158.823265 
L 297.161288 207.615844 
L 299.566919 215.747941 
L 301.972551 232.012134 
L 304.378182 232.012134 
L 306.783813 207.615844 
L 309.189444 207.615844 
L 311.595076 187.285603 
L 314.000707 203.549796 
L 316.406338 223.880037 
L 318.81197 199.483748 
L 321.217601 223.880037 
L 323.623232 215.747941 
L 328.434495 232.012134 
L 330.840126 199.483748 
L 333.245758 183.219555 
L 335.651389 219.813989 
L 338.05702 171.02141 
L 340.462652 219.813989 
L 342.868283 215.747941 
L 345.273914 232.012134 
L 347.679545 227.946085 
L 350.085177 219.813989 
L 352.490808 195.417699 
L 354.896439 207.615844 
L 357.302071 207.615844 
L 359.707702 203.549796 
L 362.113333 211.681892 
L 364.518965 215.747941 
L 366.924596 223.880037 
L 369.330227 199.483748 
L 371.735859 211.681892 
L 374.14149 211.681892 
L 376.547121 199.483748 
L 378.952753 219.813989 
L 381.358384 203.549796 
L 383.764015 219.813989 
L 386.169646 215.747941 
L 388.575278 219.813989 
L 390.980909 199.483748 
L 393.38654 223.880037 
L 395.792172 207.615844 
L 398.197803 211.681892 
L 400.603434 223.880037 
L 403.009066 203.549796 
L 405.414697 162.889314 
L 407.820328 203.549796 
L 410.22596 223.880037 
L 412.631591 215.747941 
L 415.037222 223.880037 
L 417.442854 211.681892 
L 419.848485 211.681892 
L 422.254116 207.615844 
L 424.659747 207.615844 
L 427.065379 219.813989 
L 429.47101 219.813989 
L 431.876641 232.012134 
L 434.282273 203.549796 
L 436.687904 227.946085 
L 439.093535 223.880037 
L 441.499167 191.351651 
L 443.904798 199.483748 
L 446.310429 219.813989 
L 448.716061 232.012134 
L 451.121692 211.681892 
L 453.527323 215.747941 
L 455.932955 215.747941 
L 458.338586 203.549796 
L 460.744217 203.549796 
L 463.149848 211.681892 
L 465.55548 195.417699 
L 467.961111 227.946085 
L 470.366742 215.747941 
L 472.772374 215.747941 
L 475.178005 195.417699 
L 477.583636 219.813989 
L 479.989268 223.880037 
L 482.394899 219.813989 
L 484.80053 223.880037 
L 487.206162 207.615844 
L 489.611793 211.681892 
L 492.017424 211.681892 
L 494.423056 227.946085 
L 496.828687 171.02141 
L 499.234318 195.417699 
L 501.639949 215.747941 
L 506.451212 232.012134 
L 508.856843 236.078182 
L 511.262475 207.615844 
L 516.073737 191.351651 
L 518.479369 207.615844 
L 520.885 232.012134 
L 523.290631 227.946085 
L 525.696263 207.615844 
L 528.101894 223.880037 
L 530.507525 199.483748 
L 532.913157 223.880037 
L 535.318788 195.417699 
L 537.724419 207.615844 
L 540.130051 223.880037 
L 542.535682 232.012134 
L 544.941313 211.681892 
L 547.346944 211.681892 
L 549.752576 207.615844 
L 552.158207 175.087458 
L 554.563838 223.880037 
L 556.96947 236.078182 
L 559.375101 215.747941 
L 561.780732 215.747941 
L 564.186364 211.681892 
L 566.591995 171.02141 
L 571.403258 236.078182 
L 573.808889 219.813989 
L 576.21452 219.813989 
L 578.620152 199.483748 
L 581.025783 203.549796 
L 583.431414 171.02141 
L 585.837045 223.880037 
L 588.242677 227.946085 
L 590.648308 223.880037 
L 593.053939 232.012134 
L 595.459571 215.747941 
L 597.865202 187.285603 
L 600.270833 191.351651 
L 602.676465 223.880037 
L 605.082096 187.285603 
L 609.893359 236.078182 
L 612.29899 215.747941 
L 614.704621 211.681892 
L 617.110253 215.747941 
L 619.515884 187.285603 
L 621.921515 203.549796 
L 624.327146 207.615844 
L 626.732778 227.946085 
L 629.138409 223.880037 
L 633.949672 223.880037 
L 636.355303 175.087458 
L 638.760934 199.483748 
L 641.166566 199.483748 
L 643.572197 219.813989 
L 645.977828 236.078182 
L 650.789091 219.813989 
L 653.194722 207.615844 
L 655.600354 187.285603 
L 658.005985 175.087458 
L 660.411616 207.615844 
L 665.222879 227.946085 
L 670.034141 211.681892 
L 672.439773 187.285603 
L 674.845404 195.417699 
L 677.251035 199.483748 
L 679.656667 219.813989 
L 682.062298 227.946085 
L 686.873561 227.946085 
L 689.279192 195.417699 
L 691.684823 199.483748 
L 694.090455 183.219555 
L 696.496086 211.681892 
L 698.901717 207.615844 
L 701.307348 219.813989 
L 703.71298 219.813989 
L 708.524242 207.615844 
L 710.929874 215.747941 
L 713.335505 195.417699 
L 715.741136 150.691169 
L 718.146768 211.681892 
L 720.552399 236.078182 
L 722.95803 191.351651 
L 725.363662 199.483748 
L 727.769293 232.012134 
L 730.174924 223.880037 
L 732.580556 211.681892 
L 734.986187 207.615844 
L 737.391818 219.813989 
L 739.797449 183.219555 
L 742.203081 236.078182 
L 744.608712 227.946085 
L 749.419975 227.946085 
L 751.825606 179.153506 
L 754.231237 227.946085 
L 756.636869 203.549796 
L 759.0425 195.417699 
L 761.448131 219.813989 
L 763.853763 215.747941 
L 766.259394 207.615844 
L 768.665025 219.813989 
L 771.070657 223.880037 
L 773.476288 207.615844 
L 775.881919 199.483748 
L 778.287551 199.483748 
L 780.693182 191.351651 
L 783.098813 219.813989 
L 785.504444 227.946085 
L 787.910076 203.549796 
L 790.315707 223.880037 
L 792.721338 211.681892 
L 795.12697 219.813989 
L 797.532601 187.285603 
L 799.938232 227.946085 
L 802.343864 207.615844 
L 804.749495 219.813989 
L 807.155126 211.681892 
L 809.560758 211.681892 
L 811.966389 223.880037 
L 814.37202 219.813989 
L 816.777652 207.615844 
L 821.588914 215.747941 
L 823.994545 207.615844 
L 826.400177 203.549796 
L 828.805808 215.747941 
L 831.211439 207.615844 
L 833.617071 223.880037 
L 836.022702 195.417699 
L 838.428333 219.813989 
L 840.833965 215.747941 
L 843.239596 195.417699 
L 845.645227 195.417699 
L 848.050859 211.681892 
L 850.45649 223.880037 
L 857.673384 211.681892 
L 860.079015 191.351651 
L 864.890278 215.747941 
L 867.295909 195.417699 
L 869.70154 223.880037 
L 872.107172 207.615844 
L 874.512803 203.549796 
L 876.918434 211.681892 
L 879.324066 211.681892 
L 881.729697 203.549796 
L 884.135328 207.615844 
L 886.54096 207.615844 
L 888.946591 203.549796 
L 893.757854 203.549796 
L 896.163485 199.483748 
L 898.569116 219.813989 
L 900.974747 215.747941 
L 903.380379 195.417699 
L 905.78601 215.747941 
L 908.191641 207.615844 
L 910.597273 203.549796 
L 915.408535 211.681892 
L 917.814167 203.549796 
L 920.219798 211.681892 
L 922.625429 203.549796 
L 925.031061 211.681892 
L 927.436692 215.747941 
L 929.842323 203.549796 
L 932.247955 215.747941 
L 934.653586 219.813989 
L 937.059217 215.747941 
L 939.464848 219.813989 
L 941.87048 219.813989 
L 944.276111 232.012134 
L 949.087374 232.012134 
L 951.493005 236.078182 
L 951.493005 236.078182 
" clip-path="url(#pd5eb96527d)" style="fill: none; stroke: #2ca02c; stroke-width: 1.5; stroke-linecap: square"/>
   </g>
   <g id="patch_3">
    <path d="M 44.57 246.04 
L 44.57 26.88 
" style="fill: none; stroke: #000000; stroke-width: 0.8; stroke-linejoin: miter; stroke-linecap: square"/>
   </g>
   <g id="patch_4">
    <path d="M 997.2 246.04 
L 997.2 26.88 
" style="fill: none; stroke: #000000; stroke-width: 0.8; stroke-linejoin: miter; stroke-linecap: square"/>
   </g>
   <g id="patch_5">
    <path d="M 44.57 246.04 
L 997.2 246.04 
" style="fill: none; stroke: #000000; stroke-width: 0.8; stroke-linejoin: miter; stroke-linecap: square"/>
   </g>
   <g id="patch_6">
    <path d="M 44.57 26.88 
L 997.2 26.88 
" style="fill: none; stroke: #000000; stroke-width: 0.8; stroke-linejoin: miter; stroke-linecap: square"/>
   </g>
   <g id="text_17">
    <!-- Number of Requests per Second -->
    <g transform="translate(423.822812 20.88) scale(0.12 -0.12)">
     <defs>
      <path id="DejaVuSans-4e" d="M 628 4666 
L 1478 4666 
L 3547 763 
L 3547 4666 
L 4159 4666 
L 4159 0 
L 3309 0 
L 1241 3903 
L 1241 0 
L 628 0 
L 628 4666 
z
" transform="scale(0.015625)"/>
      <path id="DejaVuSans-62" d="M 3116 1747 
Q 3116 2381 2855 2742 
Q 2594 3103 2138 3103 
Q 1681 3103 1420 2742 
Q 1159 2381 1159 1747 
Q 1159 1113 1420 752 
Q 1681 391 2138 391 
Q 2594 391 2855 752 
Q 3116 1113 3116 1747 
z
M 1159 2969 
Q 1341 3281 1617 3432 
Q 1894 3584 2278 3584 
Q 2916 3584 3314 3078 
Q 3713 2572 3713 1747 
Q 3713 922 3314 415 
Q 2916 -91 2278 -91 
Q 1894 -91 1617 61 
Q 1341 213 1159 525 
L 1159 0 
L 581 0 
L 581 4863 
L 1159 4863 
L 1159 2969 
z
" transform="scale(0.015625)"/>
      <path id="DejaVuSans-72" d="M 2631 2963 
Q 2534 3019 2420 3045 
Q 2306 3072 2169 3072 
Q 1681 3072 1420 2755 
Q 1159 2438 1159 1844 
L 1159 0 
L 581 0 
L 581 3500 
L 1159 3500 
L 1159 2956 
Q 1341 3275 1631 3429 
Q 1922 3584 2338 3584 
Q 2397 3584 2469 3576 
Q 2541 3569 2628 3553 
L 2631 2963 
z
" transform="scale(0.015625)"/>
      <path id="DejaVuSans-66" d="M 2375 4863 
L 2375 4384 
L 1825 4384 
Q 1516 4384 1395 4259 
Q 1275 4134 1275 3809 
L 1275 3500 
L 2222 3500 
L 2222 3053 
L 1275 3053 
L 1275 0 
L 697 0 
L 697 3053 
L 147 3053 
L 147 3500 
L 697 3500 
L 697 3744 
Q 697 4328 969 4595 
Q 1241 4863 1831 4863 
L 2375 4863 
z
" transform="scale(0.015625)"/>
     </defs>
     <use xlink:href="#DejaVuSans-4e"/>
     <use xlink:href="#DejaVuSans-75" transform="translate(74.804688 0)"/>
     <use xlink:href="#DejaVuSans-6d" transform="translate(138.183594 0)"/>
     <use xlink:href="#DejaVuSans-62" transform="translate(235.595703 0)"/>
     <use xlink:href="#DejaVuSans-65" transform="translate(299.072266 0)"/>
     <use xlink:href="#DejaVuSans-72" transform="translate(360.595703 0)"/>
     <use xlink:href="#DejaVuSans-20" transform="translate(401.708984 0)"/>
     <use xlink:href="#DejaVuSans-6f" transform="translate(433.496094 0)"/>
     <use xlink:href="#DejaVuSans-66" transform="translate(494.677734 0)"/>
     <use xlink:href="#DejaVuSans-20" transform="translate(529.882812 0)"/>
     <use xlink:href="#DejaVuSans-52" transform="translate(561.669922 0)"/>
     <use xlink:href="#DejaVuSans-65" transform="translate(626.652344 0)"/>
     <use xlink:href="#DejaVuSans-71" transform="translate(688.175781 0)"/>
     <use xlink:href="#DejaVuSans-75" transform="translate(751.652344 0)"/>
     <use xlink:href="#DejaVuSans-65" transform="translate(815.03125 0)"/>
     <use xlink:href="#DejaVuSans-73" transform="translate(876.554688 0)"/>
     <use xlink:href="#DejaVuSans-74" transform="translate(928.654297 0)"/>
     <use xlink:href="#DejaVuSans-73" transform="translate(967.863281 0)"/>
     <use xlink:href="#DejaVuSans-20" transform="translate(1019.962891 0)"/>
     <use xlink:href="#DejaVuSans-70" transform="translate(1051.75 0)"/>
     <use xlink:href="#DejaVuSans-65" transform="translate(1115.226562 0)"/>
     <use xlink:href="#DejaVuSans-72" transform="translate(1176.75 0)"/>
     <use xlink:href="#DejaVuSans-20" transform="translate(1217.863281 0)"/>
     <use xlink:href="#DejaVuSans-53" transform="translate(1249.650391 0)"/>
     <use xlink:href="#DejaVuSans-65" transform="translate(1313.126953 0)"/>
     <use xlink:href="#DejaVuSans-63" transform="translate(1374.650391 0)"/>
     <use xlink:href="#DejaVuSans-6f" transform="translate(1429.630859 0)"/>
     <use xlink:href="#DejaVuSans-6e" transform="translate(1490.8125 0)"/>
     <use xlink:href="#DejaVuSans-64" transform="translate(1554.191406 0)"/>
    </g>
   </g>
   <g id="legend_1">
    <g id="patch_7">
     <path d="M 856.85625 78.914375 
L 990.2 78.914375 
Q 992.2 78.914375 992.2 76.914375 
L 992.2 33.88 
Q 992.2 31.88 990.2 31.88 
L 856.85625 31.88 
Q 854.85625 31.88 854.85625 33.88 
L 854.85625 76.914375 
Q 854.85625 78.914375 856.85625 78.914375 
z
" style="fill: #ffffff; opacity: 0.8; stroke: #cccccc; stroke-linejoin: miter"/>
    </g>
    <g id="line2d_18">
     <path d="M 858.85625 39.978438 
L 868.85625 39.978438 
L 878.85625 39.978438 
" style="fill: none; stroke: #1f77b4; stroke-width: 1.5; stroke-linecap: square"/>
    </g>
    <g id="text_18">
     <!-- Single Large Results -->
     <g transform="translate(886.85625 43.478438) scale(0.1 -0.1)">
      <defs>
       <path id="DejaVuSans-67" d="M 2906 1791 
Q 2906 2416 2648 2759 
Q 2391 3103 1925 3103 
Q 1463 3103 1205 2759 
Q 947 2416 947 1791 
Q 947 1169 1205 825 
Q 1463 481 1925 481 
Q 2391 481 2648 825 
Q 2906 1169 2906 1791 
z
M 3481 434 
Q 3481 -459 3084 -895 
Q 2688 -1331 1869 -1331 
Q 1566 -1331 1297 -1286 
Q 1028 -1241 775 -1147 
L 775 -588 
Q 1028 -725 1275 -790 
Q 1522 -856 1778 -856 
Q 2344 -856 2625 -561 
Q 2906 -266 2906 331 
L 2906 616 
Q 2728 306 2450 153 
Q 2172 0 1784 0 
Q 1141 0 747 490 
Q 353 981 353 1791 
Q 353 2603 747 3093 
Q 1141 3584 1784 3584 
Q 2172 3584 2450 3431 
Q 2728 3278 2906 2969 
L 2906 3500 
L 3481 3500 
L 3481 434 
z
" transform="scale(0.015625)"/>
       <path id="DejaVuSans-6c" d="M 603 4863 
L 1178 4863 
L 1178 0 
L 603 0 
L 603 4863 
z
" transform="scale(0.015625)"/>
       <path id="DejaVuSans-4c" d="M 628 4666 
L 1259 4666 
L 1259 531 
L 3531 531 
L 3531 0 
L 628 0 
L 628 4666 
z
" transform="scale(0.015625)"/>
      </defs>
      <use xlink:href="#DejaVuSans-53"/>
      <use xlink:href="#DejaVuSans-69" transform="translate(63.476562 0)"/>
      <use xlink:href="#DejaVuSans-6e" transform="translate(91.259766 0)"/>
      <use xlink:href="#DejaVuSans-67" transform="translate(154.638672 0)"/>
      <use xlink:href="#DejaVuSans-6c" transform="translate(218.115234 0)"/>
      <use xlink:href="#DejaVuSans-65" transform="translate(245.898438 0)"/>
      <use xlink:href="#DejaVuSans-20" transform="translate(307.421875 0)"/>
      <use xlink:href="#DejaVuSans-4c" transform="translate(339.208984 0)"/>
      <use xlink:href="#DejaVuSans-61" transform="translate(394.921875 0)"/>
      <use xlink:href="#DejaVuSans-72" transform="translate(456.201172 0)"/>
      <use xlink:href="#DejaVuSans-67" transform="translate(495.564453 0)"/>
      <use xlink:href="#DejaVuSans-65" transform="translate(559.041016 0)"/>
      <use xlink:href="#DejaVuSans-20" transform="translate(620.564453 0)"/>
      <use xlink:href="#DejaVuSans-52" transform="translate(652.351562 0)"/>
      <use xlink:href="#DejaVuSans-65" transform="translate(717.333984 0)"/>
      <use xlink:href="#DejaVuSans-73" transform="translate(778.857422 0)"/>
      <use xlink:href="#DejaVuSans-75" transform="translate(830.957031 0)"/>
      <use xlink:href="#DejaVuSans-6c" transform="translate(894.335938 0)"/>
      <use xlink:href="#DejaVuSans-74" transform="translate(922.119141 0)"/>
      <use xlink:href="#DejaVuSans-73" transform="translate(961.328125 0)"/>
     </g>
    </g>
    <g id="line2d_19">
     <path d="M 858.85625 54.656563 
L 868.85625 54.656563 
L 878.85625 54.656563 
" style="fill: none; stroke: #ff7f0e; stroke-width: 1.5; stroke-linecap: square"/>
    </g>
    <g id="text_19">
     <!-- Single Small Results -->
     <g transform="translate(886.85625 58.156563) scale(0.1 -0.1)">
      <use xlink:href="#DejaVuSans-53"/>
      <use xlink:href="#DejaVuSans-69" transform="translate(63.476562 0)"/>
      <use xlink:href="#DejaVuSans-6e" transform="translate(91.259766 0)"/>
      <use xlink:href="#DejaVuSans-67" transform="translate(154.638672 0)"/>
      <use xlink:href="#DejaVuSans-6c" transform="translate(218.115234 0)"/>
      <use xlink:href="#DejaVuSans-65" transform="translate(245.898438 0)"/>
      <use xlink:href="#DejaVuSans-20" transform="translate(307.421875 0)"/>
      <use xlink:href="#DejaVuSans-53" transform="translate(339.208984 0)"/>
      <use xlink:href="#DejaVuSans-6d" transform="translate(402.685547 0)"/>
      <use xlink:href="#DejaVuSans-61" transform="translate(500.097656 0)"/>
      <use xlink:href="#DejaVuSans-6c" transform="translate(561.376953 0)"/>
      <use xlink:href="#DejaVuSans-6c" transform="translate(589.160156 0)"/>
      <use xlink:href="#DejaVuSans-20" transform="translate(616.943359 0)"/>
      <use xlink:href="#DejaVuSans-52" transform="translate(648.730469 0)"/>
      <use xlink:href="#DejaVuSans-65" transform="translate(713.712891 0)"/>
      <use xlink:href="#DejaVuSans-73" transform="translate(775.236328 0)"/>
      <use xlink:href="#DejaVuSans-75" transform="translate(827.335938 0)"/>
      <use xlink:href="#DejaVuSans-6c" transform="translate(890.714844 0)"/>
      <use xlink:href="#DejaVuSans-74" transform="translate(918.498047 0)"/>
      <use xlink:href="#DejaVuSans-73" transform="translate(957.707031 0)"/>
     </g>
    </g>
    <g id="line2d_20">
     <path d="M 858.85625 69.334688 
L 868.85625 69.334688 
L 878.85625 69.334688 
" style="fill: none; stroke: #2ca02c; stroke-width: 1.5; stroke-linecap: square"/>
    </g>
    <g id="text_20">
     <!-- Multi Results -->
     <g transform="translate(886.85625 72.834688) scale(0.1 -0.1)">
      <defs>
       <path id="DejaVuSans-4d" d="M 628 4666 
L 1569 4666 
L 2759 1491 
L 3956 4666 
L 4897 4666 
L 4897 0 
L 4281 0 
L 4281 4097 
L 3078 897 
L 2444 897 
L 1241 4097 
L 1241 0 
L 628 0 
L 628 4666 
z
" transform="scale(0.015625)"/>
      </defs>
      <use xlink:href="#DejaVuSans-4d"/>
      <use xlink:href="#DejaVuSans-75" transform="translate(86.279297 0)"/>
      <use xlink:href="#DejaVuSans-6c" transform="translate(149.658203 0)"/>
      <use xlink:href="#DejaVuSans-74" transform="translate(177.441406 0)"/>
      <use xlink:href="#DejaVuSans-69" transform="translate(216.650391 0)"/>
      <use xlink:href="#DejaVuSans-20" transform="translate(244.433594 0)"/>
      <use xlink:href="#DejaVuSans-52" transform="translate(276.220703 0)"/>
      <use xlink:href="#DejaVuSans-65" transform="translate(341.203125 0)"/>
      <use xlink:href="#DejaVuSans-73" transform="translate(402.726562 0)"/>
      <use xlink:href="#DejaVuSans-75" transform="translate(454.826172 0)"/>
      <use xlink:href="#DejaVuSans-6c" transform="translate(518.205078 0)"/>
      <use xlink:href="#DejaVuSans-74" transform="translate(545.988281 0)"/>
      <use xlink:href="#DejaVuSans-73" transform="translate(585.197266 0)"/>
     </g>
    </g>
   </g>
  </g>
 </g>
 <defs>
  <clipPath id="pd5eb96527d">
   <rect x="44.57" y="26.88" width="952.63" height="219.16"/>
  </clipPath>
 </defs>
</svg>
