<?xml version="1.0" encoding="utf-8" standalone="no"?>
<!DOCTYPE svg PUBLIC "-//W3C//DTD SVG 1.1//EN"
  "http://www.w3.org/Graphics/SVG/1.1/DTD/svg11.dtd">
<svg xmlns:xlink="http://www.w3.org/1999/xlink" width="1008pt" height="288pt" viewBox="0 0 1008 288" xmlns="http://www.w3.org/2000/svg" version="1.1">
 <metadata>
  <rdf:RDF xmlns:dc="http://purl.org/dc/elements/1.1/" xmlns:cc="http://creativecommons.org/ns#" xmlns:rdf="http://www.w3.org/1999/02/22-rdf-syntax-ns#">
   <cc:Work>
    <dc:type rdf:resource="http://purl.org/dc/dcmitype/StillImage"/>
    <dc:date>2025-05-31T22:11:48.093531</dc:date>
    <dc:format>image/svg+xml</dc:format>
    <dc:creator>
     <cc:Agent>
      <dc:title>Matplotlib v3.10.1, https://matplotlib.org/</dc:title>
     </cc:Agent>
    </dc:creator>
   </cc:Work>
  </rdf:RDF>
 </metadata>
 <defs>
  <style type="text/css">*{stroke-linejoin: round; stroke-linecap: butt}</style>
 </defs>
 <g id="figure_1">
  <g id="patch_1">
   <path d="M 0 288 
L 1008 288 
L 1008 0 
L 0 0 
z
" style="fill: #ffffff"/>
  </g>
  <g id="axes_1">
   <g id="patch_2">
    <path d="M 50.87 246.04 
L 997.2 246.04 
L 997.2 26.88 
L 50.87 26.88 
z
" style="fill: #ffffff"/>
   </g>
   <g id="matplotlib.axis_1">
    <g id="xtick_1">
     <g id="line2d_1">
      <defs>
       <path id="m3068d7ebc9" d="M 0 0 
L 0 3.5 
" style="stroke: #000000; stroke-width: 0.8"/>
      </defs>
      <g>
       <use xlink:href="#m3068d7ebc9" x="93.885" y="246.04" style="stroke: #000000; stroke-width: 0.8"/>
      </g>
     </g>
     <g id="text_1">
      <!-- 0 -->
      <g transform="translate(90.70375 260.638438) scale(0.1 -0.1)">
       <defs>
        <path id="DejaVuSans-30" d="M 2034 4250 
Q 1547 4250 1301 3770 
Q 1056 3291 1056 2328 
Q 1056 1369 1301 889 
Q 1547 409 2034 409 
Q 2525 409 2770 889 
Q 3016 1369 3016 2328 
Q 3016 3291 2770 3770 
Q 2525 4250 2034 4250 
z
M 2034 4750 
Q 2819 4750 3233 4129 
Q 3647 3509 3647 2328 
Q 3647 1150 3233 529 
Q 2819 -91 2034 -91 
Q 1250 -91 836 529 
Q 422 1150 422 2328 
Q 422 3509 836 4129 
Q 1250 4750 2034 4750 
z
" transform="scale(0.015625)"/>
       </defs>
       <use xlink:href="#DejaVuSans-30"/>
      </g>
     </g>
    </g>
    <g id="xtick_2">
     <g id="line2d_2">
      <g>
       <use xlink:href="#m3068d7ebc9" x="212.710967" y="246.04" style="stroke: #000000; stroke-width: 0.8"/>
      </g>
     </g>
     <g id="text_2">
      <!-- 50 -->
      <g transform="translate(206.348467 260.638438) scale(0.1 -0.1)">
       <defs>
        <path id="DejaVuSans-35" d="M 691 4666 
L 3169 4666 
L 3169 4134 
L 1269 4134 
L 1269 2991 
Q 1406 3038 1543 3061 
Q 1681 3084 1819 3084 
Q 2600 3084 3056 2656 
Q 3513 2228 3513 1497 
Q 3513 744 3044 326 
Q 2575 -91 1722 -91 
Q 1428 -91 1123 -41 
Q 819 9 494 109 
L 494 744 
Q 775 591 1075 516 
Q 1375 441 1709 441 
Q 2250 441 2565 725 
Q 2881 1009 2881 1497 
Q 2881 1984 2565 2268 
Q 2250 2553 1709 2553 
Q 1456 2553 1204 2497 
Q 953 2441 691 2322 
L 691 4666 
z
" transform="scale(0.015625)"/>
       </defs>
       <use xlink:href="#DejaVuSans-35"/>
       <use xlink:href="#DejaVuSans-30" transform="translate(63.623047 0)"/>
      </g>
     </g>
    </g>
    <g id="xtick_3">
     <g id="line2d_3">
      <g>
       <use xlink:href="#m3068d7ebc9" x="331.536934" y="246.04" style="stroke: #000000; stroke-width: 0.8"/>
      </g>
     </g>
     <g id="text_3">
      <!-- 100 -->
      <g transform="translate(321.993184 260.638438) scale(0.1 -0.1)">
       <defs>
        <path id="DejaVuSans-31" d="M 794 531 
L 1825 531 
L 1825 4091 
L 703 3866 
L 703 4441 
L 1819 4666 
L 2450 4666 
L 2450 531 
L 3481 531 
L 3481 0 
L 794 0 
L 794 531 
z
" transform="scale(0.015625)"/>
       </defs>
       <use xlink:href="#DejaVuSans-31"/>
       <use xlink:href="#DejaVuSans-30" transform="translate(63.623047 0)"/>
       <use xlink:href="#DejaVuSans-30" transform="translate(127.246094 0)"/>
      </g>
     </g>
    </g>
    <g id="xtick_4">
     <g id="line2d_4">
      <g>
       <use xlink:href="#m3068d7ebc9" x="450.362901" y="246.04" style="stroke: #000000; stroke-width: 0.8"/>
      </g>
     </g>
     <g id="text_4">
      <!-- 150 -->
      <g transform="translate(440.819151 260.638438) scale(0.1 -0.1)">
       <use xlink:href="#DejaVuSans-31"/>
       <use xlink:href="#DejaVuSans-35" transform="translate(63.623047 0)"/>
       <use xlink:href="#DejaVuSans-30" transform="translate(127.246094 0)"/>
      </g>
     </g>
    </g>
    <g id="xtick_5">
     <g id="line2d_5">
      <g>
       <use xlink:href="#m3068d7ebc9" x="569.188867" y="246.04" style="stroke: #000000; stroke-width: 0.8"/>
      </g>
     </g>
     <g id="text_5">
      <!-- 200 -->
      <g transform="translate(559.645117 260.638438) scale(0.1 -0.1)">
       <defs>
        <path id="DejaVuSans-32" d="M 1228 531 
L 3431 531 
L 3431 0 
L 469 0 
L 469 531 
Q 828 903 1448 1529 
Q 2069 2156 2228 2338 
Q 2531 2678 2651 2914 
Q 2772 3150 2772 3378 
Q 2772 3750 2511 3984 
Q 2250 4219 1831 4219 
Q 1534 4219 1204 4116 
Q 875 4013 500 3803 
L 500 4441 
Q 881 4594 1212 4672 
Q 1544 4750 1819 4750 
Q 2544 4750 2975 4387 
Q 3406 4025 3406 3419 
Q 3406 3131 3298 2873 
Q 3191 2616 2906 2266 
Q 2828 2175 2409 1742 
Q 1991 1309 1228 531 
z
" transform="scale(0.015625)"/>
       </defs>
       <use xlink:href="#DejaVuSans-32"/>
       <use xlink:href="#DejaVuSans-30" transform="translate(63.623047 0)"/>
       <use xlink:href="#DejaVuSans-30" transform="translate(127.246094 0)"/>
      </g>
     </g>
    </g>
    <g id="xtick_6">
     <g id="line2d_6">
      <g>
       <use xlink:href="#m3068d7ebc9" x="688.014834" y="246.04" style="stroke: #000000; stroke-width: 0.8"/>
      </g>
     </g>
     <g id="text_6">
      <!-- 250 -->
      <g transform="translate(678.471084 260.638438) scale(0.1 -0.1)">
       <use xlink:href="#DejaVuSans-32"/>
       <use xlink:href="#DejaVuSans-35" transform="translate(63.623047 0)"/>
       <use xlink:href="#DejaVuSans-30" transform="translate(127.246094 0)"/>
      </g>
     </g>
    </g>
    <g id="xtick_7">
     <g id="line2d_7">
      <g>
       <use xlink:href="#m3068d7ebc9" x="806.840801" y="246.04" style="stroke: #000000; stroke-width: 0.8"/>
      </g>
     </g>
     <g id="text_7">
      <!-- 300 -->
      <g transform="translate(797.297051 260.638438) scale(0.1 -0.1)">
       <defs>
        <path id="DejaVuSans-33" d="M 2597 2516 
Q 3050 2419 3304 2112 
Q 3559 1806 3559 1356 
Q 3559 666 3084 287 
Q 2609 -91 1734 -91 
Q 1441 -91 1130 -33 
Q 819 25 488 141 
L 488 750 
Q 750 597 1062 519 
Q 1375 441 1716 441 
Q 2309 441 2620 675 
Q 2931 909 2931 1356 
Q 2931 1769 2642 2001 
Q 2353 2234 1838 2234 
L 1294 2234 
L 1294 2753 
L 1863 2753 
Q 2328 2753 2575 2939 
Q 2822 3125 2822 3475 
Q 2822 3834 2567 4026 
Q 2313 4219 1838 4219 
Q 1578 4219 1281 4162 
Q 984 4106 628 3988 
L 628 4550 
Q 988 4650 1302 4700 
Q 1616 4750 1894 4750 
Q 2613 4750 3031 4423 
Q 3450 4097 3450 3541 
Q 3450 3153 3228 2886 
Q 3006 2619 2597 2516 
z
" transform="scale(0.015625)"/>
       </defs>
       <use xlink:href="#DejaVuSans-33"/>
       <use xlink:href="#DejaVuSans-30" transform="translate(63.623047 0)"/>
       <use xlink:href="#DejaVuSans-30" transform="translate(127.246094 0)"/>
      </g>
     </g>
    </g>
    <g id="xtick_8">
     <g id="line2d_8">
      <g>
       <use xlink:href="#m3068d7ebc9" x="925.666768" y="246.04" style="stroke: #000000; stroke-width: 0.8"/>
      </g>
     </g>
     <g id="text_8">
      <!-- 350 -->
      <g transform="translate(916.123018 260.638438) scale(0.1 -0.1)">
       <use xlink:href="#DejaVuSans-33"/>
       <use xlink:href="#DejaVuSans-35" transform="translate(63.623047 0)"/>
       <use xlink:href="#DejaVuSans-30" transform="translate(127.246094 0)"/>
      </g>
     </g>
    </g>
    <g id="text_9">
     <!-- Timestamp (Seconds) -->
     <g transform="translate(469.630312 274.316562) scale(0.1 -0.1)">
      <defs>
       <path id="DejaVuSans-54" d="M -19 4666 
L 3928 4666 
L 3928 4134 
L 2272 4134 
L 2272 0 
L 1638 0 
L 1638 4134 
L -19 4134 
L -19 4666 
z
" transform="scale(0.015625)"/>
       <path id="DejaVuSans-69" d="M 603 3500 
L 1178 3500 
L 1178 0 
L 603 0 
L 603 3500 
z
M 603 4863 
L 1178 4863 
L 1178 4134 
L 603 4134 
L 603 4863 
z
" transform="scale(0.015625)"/>
       <path id="DejaVuSans-6d" d="M 3328 2828 
Q 3544 3216 3844 3400 
Q 4144 3584 4550 3584 
Q 5097 3584 5394 3201 
Q 5691 2819 5691 2113 
L 5691 0 
L 5113 0 
L 5113 2094 
Q 5113 2597 4934 2840 
Q 4756 3084 4391 3084 
Q 3944 3084 3684 2787 
Q 3425 2491 3425 1978 
L 3425 0 
L 2847 0 
L 2847 2094 
Q 2847 2600 2669 2842 
Q 2491 3084 2119 3084 
Q 1678 3084 1418 2786 
Q 1159 2488 1159 1978 
L 1159 0 
L 581 0 
L 581 3500 
L 1159 3500 
L 1159 2956 
Q 1356 3278 1631 3431 
Q 1906 3584 2284 3584 
Q 2666 3584 2933 3390 
Q 3200 3197 3328 2828 
z
" transform="scale(0.015625)"/>
       <path id="DejaVuSans-65" d="M 3597 1894 
L 3597 1613 
L 953 1613 
Q 991 1019 1311 708 
Q 1631 397 2203 397 
Q 2534 397 2845 478 
Q 3156 559 3463 722 
L 3463 178 
Q 3153 47 2828 -22 
Q 2503 -91 2169 -91 
Q 1331 -91 842 396 
Q 353 884 353 1716 
Q 353 2575 817 3079 
Q 1281 3584 2069 3584 
Q 2775 3584 3186 3129 
Q 3597 2675 3597 1894 
z
M 3022 2063 
Q 3016 2534 2758 2815 
Q 2500 3097 2075 3097 
Q 1594 3097 1305 2825 
Q 1016 2553 972 2059 
L 3022 2063 
z
" transform="scale(0.015625)"/>
       <path id="DejaVuSans-73" d="M 2834 3397 
L 2834 2853 
Q 2591 2978 2328 3040 
Q 2066 3103 1784 3103 
Q 1356 3103 1142 2972 
Q 928 2841 928 2578 
Q 928 2378 1081 2264 
Q 1234 2150 1697 2047 
L 1894 2003 
Q 2506 1872 2764 1633 
Q 3022 1394 3022 966 
Q 3022 478 2636 193 
Q 2250 -91 1575 -91 
Q 1294 -91 989 -36 
Q 684 19 347 128 
L 347 722 
Q 666 556 975 473 
Q 1284 391 1588 391 
Q 1994 391 2212 530 
Q 2431 669 2431 922 
Q 2431 1156 2273 1281 
Q 2116 1406 1581 1522 
L 1381 1569 
Q 847 1681 609 1914 
Q 372 2147 372 2553 
Q 372 3047 722 3315 
Q 1072 3584 1716 3584 
Q 2034 3584 2315 3537 
Q 2597 3491 2834 3397 
z
" transform="scale(0.015625)"/>
       <path id="DejaVuSans-74" d="M 1172 4494 
L 1172 3500 
L 2356 3500 
L 2356 3053 
L 1172 3053 
L 1172 1153 
Q 1172 725 1289 603 
Q 1406 481 1766 481 
L 2356 481 
L 2356 0 
L 1766 0 
Q 1100 0 847 248 
Q 594 497 594 1153 
L 594 3053 
L 172 3053 
L 172 3500 
L 594 3500 
L 594 4494 
L 1172 4494 
z
" transform="scale(0.015625)"/>
       <path id="DejaVuSans-61" d="M 2194 1759 
Q 1497 1759 1228 1600 
Q 959 1441 959 1056 
Q 959 750 1161 570 
Q 1363 391 1709 391 
Q 2188 391 2477 730 
Q 2766 1069 2766 1631 
L 2766 1759 
L 2194 1759 
z
M 3341 1997 
L 3341 0 
L 2766 0 
L 2766 531 
Q 2569 213 2275 61 
Q 1981 -91 1556 -91 
Q 1019 -91 701 211 
Q 384 513 384 1019 
Q 384 1609 779 1909 
Q 1175 2209 1959 2209 
L 2766 2209 
L 2766 2266 
Q 2766 2663 2505 2880 
Q 2244 3097 1772 3097 
Q 1472 3097 1187 3025 
Q 903 2953 641 2809 
L 641 3341 
Q 956 3463 1253 3523 
Q 1550 3584 1831 3584 
Q 2591 3584 2966 3190 
Q 3341 2797 3341 1997 
z
" transform="scale(0.015625)"/>
       <path id="DejaVuSans-70" d="M 1159 525 
L 1159 -1331 
L 581 -1331 
L 581 3500 
L 1159 3500 
L 1159 2969 
Q 1341 3281 1617 3432 
Q 1894 3584 2278 3584 
Q 2916 3584 3314 3078 
Q 3713 2572 3713 1747 
Q 3713 922 3314 415 
Q 2916 -91 2278 -91 
Q 1894 -91 1617 61 
Q 1341 213 1159 525 
z
M 3116 1747 
Q 3116 2381 2855 2742 
Q 2594 3103 2138 3103 
Q 1681 3103 1420 2742 
Q 1159 2381 1159 1747 
Q 1159 1113 1420 752 
Q 1681 391 2138 391 
Q 2594 391 2855 752 
Q 3116 1113 3116 1747 
z
" transform="scale(0.015625)"/>
       <path id="DejaVuSans-20" transform="scale(0.015625)"/>
       <path id="DejaVuSans-28" d="M 1984 4856 
Q 1566 4138 1362 3434 
Q 1159 2731 1159 2009 
Q 1159 1288 1364 580 
Q 1569 -128 1984 -844 
L 1484 -844 
Q 1016 -109 783 600 
Q 550 1309 550 2009 
Q 550 2706 781 3412 
Q 1013 4119 1484 4856 
L 1984 4856 
z
" transform="scale(0.015625)"/>
       <path id="DejaVuSans-53" d="M 3425 4513 
L 3425 3897 
Q 3066 4069 2747 4153 
Q 2428 4238 2131 4238 
Q 1616 4238 1336 4038 
Q 1056 3838 1056 3469 
Q 1056 3159 1242 3001 
Q 1428 2844 1947 2747 
L 2328 2669 
Q 3034 2534 3370 2195 
Q 3706 1856 3706 1288 
Q 3706 609 3251 259 
Q 2797 -91 1919 -91 
Q 1588 -91 1214 -16 
Q 841 59 441 206 
L 441 856 
Q 825 641 1194 531 
Q 1563 422 1919 422 
Q 2459 422 2753 634 
Q 3047 847 3047 1241 
Q 3047 1584 2836 1778 
Q 2625 1972 2144 2069 
L 1759 2144 
Q 1053 2284 737 2584 
Q 422 2884 422 3419 
Q 422 4038 858 4394 
Q 1294 4750 2059 4750 
Q 2388 4750 2728 4690 
Q 3069 4631 3425 4513 
z
" transform="scale(0.015625)"/>
       <path id="DejaVuSans-63" d="M 3122 3366 
L 3122 2828 
Q 2878 2963 2633 3030 
Q 2388 3097 2138 3097 
Q 1578 3097 1268 2742 
Q 959 2388 959 1747 
Q 959 1106 1268 751 
Q 1578 397 2138 397 
Q 2388 397 2633 464 
Q 2878 531 3122 666 
L 3122 134 
Q 2881 22 2623 -34 
Q 2366 -91 2075 -91 
Q 1284 -91 818 406 
Q 353 903 353 1747 
Q 353 2603 823 3093 
Q 1294 3584 2113 3584 
Q 2378 3584 2631 3529 
Q 2884 3475 3122 3366 
z
" transform="scale(0.015625)"/>
       <path id="DejaVuSans-6f" d="M 1959 3097 
Q 1497 3097 1228 2736 
Q 959 2375 959 1747 
Q 959 1119 1226 758 
Q 1494 397 1959 397 
Q 2419 397 2687 759 
Q 2956 1122 2956 1747 
Q 2956 2369 2687 2733 
Q 2419 3097 1959 3097 
z
M 1959 3584 
Q 2709 3584 3137 3096 
Q 3566 2609 3566 1747 
Q 3566 888 3137 398 
Q 2709 -91 1959 -91 
Q 1206 -91 779 398 
Q 353 888 353 1747 
Q 353 2609 779 3096 
Q 1206 3584 1959 3584 
z
" transform="scale(0.015625)"/>
       <path id="DejaVuSans-6e" d="M 3513 2113 
L 3513 0 
L 2938 0 
L 2938 2094 
Q 2938 2591 2744 2837 
Q 2550 3084 2163 3084 
Q 1697 3084 1428 2787 
Q 1159 2491 1159 1978 
L 1159 0 
L 581 0 
L 581 3500 
L 1159 3500 
L 1159 2956 
Q 1366 3272 1645 3428 
Q 1925 3584 2291 3584 
Q 2894 3584 3203 3211 
Q 3513 2838 3513 2113 
z
" transform="scale(0.015625)"/>
       <path id="DejaVuSans-64" d="M 2906 2969 
L 2906 4863 
L 3481 4863 
L 3481 0 
L 2906 0 
L 2906 525 
Q 2725 213 2448 61 
Q 2172 -91 1784 -91 
Q 1150 -91 751 415 
Q 353 922 353 1747 
Q 353 2572 751 3078 
Q 1150 3584 1784 3584 
Q 2172 3584 2448 3432 
Q 2725 3281 2906 2969 
z
M 947 1747 
Q 947 1113 1208 752 
Q 1469 391 1925 391 
Q 2381 391 2643 752 
Q 2906 1113 2906 1747 
Q 2906 2381 2643 2742 
Q 2381 3103 1925 3103 
Q 1469 3103 1208 2742 
Q 947 2381 947 1747 
z
" transform="scale(0.015625)"/>
       <path id="DejaVuSans-29" d="M 513 4856 
L 1013 4856 
Q 1481 4119 1714 3412 
Q 1947 2706 1947 2009 
Q 1947 1309 1714 600 
Q 1481 -109 1013 -844 
L 513 -844 
Q 928 -128 1133 580 
Q 1338 1288 1338 2009 
Q 1338 2731 1133 3434 
Q 928 4138 513 4856 
z
" transform="scale(0.015625)"/>
      </defs>
      <use xlink:href="#DejaVuSans-54"/>
      <use xlink:href="#DejaVuSans-69" transform="translate(57.958984 0)"/>
      <use xlink:href="#DejaVuSans-6d" transform="translate(85.742188 0)"/>
      <use xlink:href="#DejaVuSans-65" transform="translate(183.154297 0)"/>
      <use xlink:href="#DejaVuSans-73" transform="translate(244.677734 0)"/>
      <use xlink:href="#DejaVuSans-74" transform="translate(296.777344 0)"/>
      <use xlink:href="#DejaVuSans-61" transform="translate(335.986328 0)"/>
      <use xlink:href="#DejaVuSans-6d" transform="translate(397.265625 0)"/>
      <use xlink:href="#DejaVuSans-70" transform="translate(494.677734 0)"/>
      <use xlink:href="#DejaVuSans-20" transform="translate(558.154297 0)"/>
      <use xlink:href="#DejaVuSans-28" transform="translate(589.941406 0)"/>
      <use xlink:href="#DejaVuSans-53" transform="translate(628.955078 0)"/>
      <use xlink:href="#DejaVuSans-65" transform="translate(692.431641 0)"/>
      <use xlink:href="#DejaVuSans-63" transform="translate(753.955078 0)"/>
      <use xlink:href="#DejaVuSans-6f" transform="translate(808.935547 0)"/>
      <use xlink:href="#DejaVuSans-6e" transform="translate(870.117188 0)"/>
      <use xlink:href="#DejaVuSans-64" transform="translate(933.496094 0)"/>
      <use xlink:href="#DejaVuSans-73" transform="translate(996.972656 0)"/>
      <use xlink:href="#DejaVuSans-29" transform="translate(1049.072266 0)"/>
     </g>
    </g>
   </g>
   <g id="matplotlib.axis_2">
    <g id="ytick_1">
     <g id="line2d_9">
      <defs>
       <path id="m2da92d8348" d="M 0 0 
L -3.5 0 
" style="stroke: #000000; stroke-width: 0.8"/>
      </defs>
      <g>
       <use xlink:href="#m2da92d8348" x="50.87" y="236.787208" style="stroke: #000000; stroke-width: 0.8"/>
      </g>
     </g>
     <g id="text_10">
      <!-- 0 -->
      <g transform="translate(37.5075 240.586427) scale(0.1 -0.1)">
       <use xlink:href="#DejaVuSans-30"/>
      </g>
     </g>
    </g>
    <g id="ytick_2">
     <g id="line2d_10">
      <g>
       <use xlink:href="#m2da92d8348" x="50.87" y="201.335898" style="stroke: #000000; stroke-width: 0.8"/>
      </g>
     </g>
     <g id="text_11">
      <!-- 50 -->
      <g transform="translate(31.145 205.135117) scale(0.1 -0.1)">
       <use xlink:href="#DejaVuSans-35"/>
       <use xlink:href="#DejaVuSans-30" transform="translate(63.623047 0)"/>
      </g>
     </g>
    </g>
    <g id="ytick_3">
     <g id="line2d_11">
      <g>
       <use xlink:href="#m2da92d8348" x="50.87" y="165.884588" style="stroke: #000000; stroke-width: 0.8"/>
      </g>
     </g>
     <g id="text_12">
      <!-- 100 -->
      <g transform="translate(24.7825 169.683806) scale(0.1 -0.1)">
       <use xlink:href="#DejaVuSans-31"/>
       <use xlink:href="#DejaVuSans-30" transform="translate(63.623047 0)"/>
       <use xlink:href="#DejaVuSans-30" transform="translate(127.246094 0)"/>
      </g>
     </g>
    </g>
    <g id="ytick_4">
     <g id="line2d_12">
      <g>
       <use xlink:href="#m2da92d8348" x="50.87" y="130.433277" style="stroke: #000000; stroke-width: 0.8"/>
      </g>
     </g>
     <g id="text_13">
      <!-- 150 -->
      <g transform="translate(24.7825 134.232496) scale(0.1 -0.1)">
       <use xlink:href="#DejaVuSans-31"/>
       <use xlink:href="#DejaVuSans-35" transform="translate(63.623047 0)"/>
       <use xlink:href="#DejaVuSans-30" transform="translate(127.246094 0)"/>
      </g>
     </g>
    </g>
    <g id="ytick_5">
     <g id="line2d_13">
      <g>
       <use xlink:href="#m2da92d8348" x="50.87" y="94.981967" style="stroke: #000000; stroke-width: 0.8"/>
      </g>
     </g>
     <g id="text_14">
      <!-- 200 -->
      <g transform="translate(24.7825 98.781186) scale(0.1 -0.1)">
       <use xlink:href="#DejaVuSans-32"/>
       <use xlink:href="#DejaVuSans-30" transform="translate(63.623047 0)"/>
       <use xlink:href="#DejaVuSans-30" transform="translate(127.246094 0)"/>
      </g>
     </g>
    </g>
    <g id="ytick_6">
     <g id="line2d_14">
      <g>
       <use xlink:href="#m2da92d8348" x="50.87" y="59.530657" style="stroke: #000000; stroke-width: 0.8"/>
      </g>
     </g>
     <g id="text_15">
      <!-- 250 -->
      <g transform="translate(24.7825 63.329875) scale(0.1 -0.1)">
       <use xlink:href="#DejaVuSans-32"/>
       <use xlink:href="#DejaVuSans-35" transform="translate(63.623047 0)"/>
       <use xlink:href="#DejaVuSans-30" transform="translate(127.246094 0)"/>
      </g>
     </g>
    </g>
    <g id="text_16">
     <!-- Requests/sec -->
     <g transform="translate(18.702812 169.489687) rotate(-90) scale(0.1 -0.1)">
      <defs>
       <path id="DejaVuSans-52" d="M 2841 2188 
Q 3044 2119 3236 1894 
Q 3428 1669 3622 1275 
L 4263 0 
L 3584 0 
L 2988 1197 
Q 2756 1666 2539 1819 
Q 2322 1972 1947 1972 
L 1259 1972 
L 1259 0 
L 628 0 
L 628 4666 
L 2053 4666 
Q 2853 4666 3247 4331 
Q 3641 3997 3641 3322 
Q 3641 2881 3436 2590 
Q 3231 2300 2841 2188 
z
M 1259 4147 
L 1259 2491 
L 2053 2491 
Q 2509 2491 2742 2702 
Q 2975 2913 2975 3322 
Q 2975 3731 2742 3939 
Q 2509 4147 2053 4147 
L 1259 4147 
z
" transform="scale(0.015625)"/>
       <path id="DejaVuSans-71" d="M 947 1747 
Q 947 1113 1208 752 
Q 1469 391 1925 391 
Q 2381 391 2643 752 
Q 2906 1113 2906 1747 
Q 2906 2381 2643 2742 
Q 2381 3103 1925 3103 
Q 1469 3103 1208 2742 
Q 947 2381 947 1747 
z
M 2906 525 
Q 2725 213 2448 61 
Q 2172 -91 1784 -91 
Q 1150 -91 751 415 
Q 353 922 353 1747 
Q 353 2572 751 3078 
Q 1150 3584 1784 3584 
Q 2172 3584 2448 3432 
Q 2725 3281 2906 2969 
L 2906 3500 
L 3481 3500 
L 3481 -1331 
L 2906 -1331 
L 2906 525 
z
" transform="scale(0.015625)"/>
       <path id="DejaVuSans-75" d="M 544 1381 
L 544 3500 
L 1119 3500 
L 1119 1403 
Q 1119 906 1312 657 
Q 1506 409 1894 409 
Q 2359 409 2629 706 
Q 2900 1003 2900 1516 
L 2900 3500 
L 3475 3500 
L 3475 0 
L 2900 0 
L 2900 538 
Q 2691 219 2414 64 
Q 2138 -91 1772 -91 
Q 1169 -91 856 284 
Q 544 659 544 1381 
z
M 1991 3584 
L 1991 3584 
z
" transform="scale(0.015625)"/>
       <path id="DejaVuSans-2f" d="M 1625 4666 
L 2156 4666 
L 531 -594 
L 0 -594 
L 1625 4666 
z
" transform="scale(0.015625)"/>
      </defs>
      <use xlink:href="#DejaVuSans-52"/>
      <use xlink:href="#DejaVuSans-65" transform="translate(64.982422 0)"/>
      <use xlink:href="#DejaVuSans-71" transform="translate(126.505859 0)"/>
      <use xlink:href="#DejaVuSans-75" transform="translate(189.982422 0)"/>
      <use xlink:href="#DejaVuSans-65" transform="translate(253.361328 0)"/>
      <use xlink:href="#DejaVuSans-73" transform="translate(314.884766 0)"/>
      <use xlink:href="#DejaVuSans-74" transform="translate(366.984375 0)"/>
      <use xlink:href="#DejaVuSans-73" transform="translate(406.193359 0)"/>
      <use xlink:href="#DejaVuSans-2f" transform="translate(458.292969 0)"/>
      <use xlink:href="#DejaVuSans-73" transform="translate(491.984375 0)"/>
      <use xlink:href="#DejaVuSans-65" transform="translate(544.083984 0)"/>
      <use xlink:href="#DejaVuSans-63" transform="translate(605.607422 0)"/>
     </g>
    </g>
   </g>
   <g id="line2d_15">
    <path d="M 93.885 232.533051 
L 96.261519 229.696946 
L 108.144116 211.971291 
L 110.520635 209.844212 
L 112.897155 204.881029 
L 115.273674 204.172003 
L 117.650193 197.790767 
L 120.026713 195.663688 
L 122.403232 192.118557 
L 124.779751 187.8644 
L 127.156271 184.319269 
L 129.53279 184.319269 
L 131.909309 177.229007 
L 134.285829 174.392902 
L 136.662348 170.138745 
L 139.038867 167.30264 
L 141.415387 162.339456 
L 143.791906 163.757509 
L 146.168425 162.339456 
L 148.544945 152.41309 
L 153.297983 150.995037 
L 155.674503 153.122116 
L 158.051022 139.650618 
L 160.427541 135.396461 
L 162.804061 133.269382 
L 165.18058 132.560356 
L 167.557099 131.142303 
L 169.933619 136.105487 
L 172.310138 122.633989 
L 174.686657 114.125675 
L 177.063177 119.797884 
L 179.439696 111.998596 
L 181.816215 126.17912 
L 184.192735 126.888146 
L 186.569254 130.433277 
L 188.945773 111.28957 
L 191.322293 112.707622 
L 193.698812 102.781255 
L 196.075331 94.981967 
L 198.451851 99.236124 
L 200.82837 86.473653 
L 203.20489 105.61736 
L 205.581409 105.61736 
L 207.957928 129.015225 
L 210.334448 62.366762 
L 212.710967 60.239683 
L 215.087486 69.457024 
L 217.464006 55.2765 
L 219.840525 68.038971 
L 222.217044 75.838259 
L 224.593564 101.363203 
L 226.970083 55.2765 
L 229.346602 73.002155 
L 231.723122 87.891705 
L 234.099641 91.436836 
L 236.47616 93.563915 
L 238.85268 96.400019 
L 241.229199 97.818072 
L 243.605718 99.94515 
L 245.982238 124.761068 
L 248.358757 124.761068 
L 250.735276 110.580544 
L 253.111796 100.654177 
L 255.488315 121.924963 
L 257.864834 129.724251 
L 260.241354 122.633989 
L 262.617873 125.470094 
L 264.994392 89.309757 
L 267.370912 112.707622 
L 269.747431 116.252753 
L 272.12395 111.998596 
L 274.50047 129.015225 
L 276.876989 106.326386 
L 279.253508 119.088858 
L 281.630028 114.834701 
L 284.006547 86.473653 
L 286.383066 99.94515 
L 288.759586 100.654177 
L 291.136105 111.28957 
L 293.512624 72.293128 
L 295.889144 107.744439 
L 298.265663 104.908334 
L 300.642182 75.129233 
L 303.018702 124.052041 
L 305.395221 80.092417 
L 307.77174 90.018784 
L 310.14826 85.764626 
L 312.524779 93.563915 
L 314.901298 90.018784 
L 317.277818 74.420207 
L 319.654337 105.61736 
L 322.030856 94.272941 
L 324.407376 110.580544 
L 326.783895 120.50691 
L 329.160414 116.961779 
L 331.536934 111.28957 
L 333.913453 136.814513 
L 336.289972 102.072229 
L 338.666492 136.814513 
L 341.043011 95.690993 
L 343.41953 94.981967 
L 345.79605 79.38339 
L 348.172569 90.72781 
L 350.549088 93.563915 
L 352.925608 102.781255 
L 355.302127 93.563915 
L 357.678646 87.182679 
L 360.055166 107.035412 
L 362.431685 101.363203 
L 364.808204 133.978408 
L 367.184724 120.50691 
L 369.561243 105.61736 
L 371.937762 106.326386 
L 374.314282 116.961779 
L 376.690801 114.834701 
L 379.06732 114.834701 
L 381.44384 108.453465 
L 383.820359 129.724251 
L 386.196878 97.109046 
L 388.573398 114.834701 
L 390.949917 75.838259 
L 393.326436 104.908334 
L 395.702956 126.888146 
L 398.079475 131.85133 
L 400.455994 111.998596 
L 402.832514 104.908334 
L 405.209033 118.379832 
L 407.585552 128.306199 
L 409.962072 125.470094 
L 412.338591 124.052041 
L 414.71511 154.540168 
L 417.09163 98.527098 
L 421.844669 87.182679 
L 424.221188 119.797884 
L 426.597707 128.306199 
L 428.974227 125.470094 
L 431.350746 138.941592 
L 436.103785 105.61736 
L 438.480304 127.597172 
L 440.856823 116.961779 
L 443.233343 151.704063 
L 445.609862 86.473653 
L 447.986381 115.543727 
L 450.362901 103.490281 
L 452.73942 89.309757 
L 455.115939 115.543727 
L 457.492459 110.580544 
L 459.868978 126.888146 
L 462.245497 140.359644 
L 464.622017 146.74088 
L 466.998536 129.015225 
L 469.375055 118.379832 
L 471.751575 138.941592 
L 474.128094 111.998596 
L 476.504613 114.125675 
L 478.881133 137.523539 
L 481.257652 119.088858 
L 483.634171 115.543727 
L 486.010691 143.195749 
L 490.763729 90.018784 
L 493.140249 85.764626 
L 495.516768 85.764626 
L 497.893287 82.928522 
L 500.269807 103.490281 
L 502.646326 70.875076 
L 505.022845 51.022342 
L 507.399365 104.908334 
L 509.775884 60.948709 
L 512.152403 107.744439 
L 514.528923 110.580544 
L 516.905442 82.219495 
L 519.281961 134.687434 
L 521.658481 124.052041 
L 524.035 139.650618 
L 526.411519 129.724251 
L 528.788039 121.924963 
L 531.164558 123.343015 
L 533.541077 93.563915 
L 535.917597 128.306199 
L 538.294116 104.908334 
L 540.670635 129.015225 
L 543.047155 138.232566 
L 545.423674 146.74088 
L 547.800193 122.633989 
L 550.176713 122.633989 
L 552.553232 129.015225 
L 554.929751 122.633989 
L 557.306271 87.182679 
L 559.68279 138.232566 
L 562.059309 124.761068 
L 564.435829 152.41309 
L 566.812348 115.543727 
L 569.188867 123.343015 
L 571.565387 87.891705 
L 573.941906 96.400019 
L 576.318425 111.28957 
L 578.694945 104.199308 
L 581.071464 152.41309 
L 583.447983 132.560356 
L 585.824503 137.523539 
L 588.201022 131.142303 
L 590.577541 151.704063 
L 592.954061 85.0556 
L 595.33058 77.965338 
L 597.707099 68.038971 
L 600.083619 124.052041 
L 602.460138 121.924963 
L 604.836657 96.400019 
L 607.213177 111.998596 
L 609.589696 112.707622 
L 611.966215 95.690993 
L 614.342735 97.109046 
L 616.719254 122.633989 
L 619.095773 120.50691 
L 621.472293 114.125675 
L 623.848812 138.941592 
L 626.225331 141.06867 
L 628.601851 80.092417 
L 630.97837 36.841818 
L 633.35489 98.527098 
L 635.731409 82.928522 
L 638.107928 128.306199 
L 640.484448 133.269382 
L 642.860967 97.109046 
L 645.237486 121.924963 
L 647.614006 117.670806 
L 649.990525 146.031854 
L 652.367044 136.105487 
L 654.743564 94.981967 
L 657.120083 137.523539 
L 659.496602 104.199308 
L 661.873122 138.941592 
L 664.249641 126.888146 
L 666.62616 99.236124 
L 669.00268 124.052041 
L 671.379199 139.650618 
L 673.755718 143.904775 
L 676.132238 141.06867 
L 678.508757 106.326386 
L 680.885276 134.687434 
L 683.261796 94.272941 
L 685.638315 86.473653 
L 688.014834 123.343015 
L 690.391354 119.797884 
L 692.767873 85.764626 
L 695.144392 109.871517 
L 697.520912 116.961779 
L 699.897431 116.961779 
L 702.27395 97.109046 
L 704.65047 121.215937 
L 707.026989 103.490281 
L 709.403508 90.018784 
L 711.780028 123.343015 
L 714.156547 69.457024 
L 716.533066 101.363203 
L 718.909586 81.510469 
L 721.286105 142.486723 
L 723.662624 124.761068 
L 726.039144 157.376273 
L 728.415663 116.961779 
L 730.792182 118.379832 
L 733.168702 107.035412 
L 735.545221 148.867959 
L 737.92174 105.61736 
L 740.29826 155.249194 
L 742.674779 131.142303 
L 745.051298 127.597172 
L 747.427818 101.363203 
L 749.804337 99.94515 
L 752.180856 148.158932 
L 754.557376 104.199308 
L 756.933895 81.510469 
L 759.310414 116.961779 
L 761.686934 133.978408 
L 764.063453 138.232566 
L 766.439972 137.523539 
L 768.816492 115.543727 
L 771.193011 74.420207 
L 773.56953 77.965338 
L 775.94605 70.875076 
L 778.322569 75.838259 
L 780.699088 124.052041 
L 783.075608 121.215937 
L 785.452127 95.690993 
L 787.828646 93.563915 
L 790.205166 111.28957 
L 792.581685 108.453465 
L 794.958204 110.580544 
L 797.334724 81.510469 
L 799.711243 76.547286 
L 802.087762 50.313316 
L 804.464282 43.93208 
L 806.840801 98.527098 
L 809.21732 127.597172 
L 811.59384 120.50691 
L 813.970359 125.470094 
L 816.346878 119.797884 
L 818.723398 138.232566 
L 821.099917 118.379832 
L 823.476436 110.580544 
L 825.852956 117.670806 
L 828.229475 104.199308 
L 830.605994 121.924963 
L 832.982514 114.834701 
L 835.359033 103.490281 
L 837.735552 108.453465 
L 840.112072 88.600731 
L 842.488591 121.924963 
L 844.86511 114.125675 
L 847.24163 138.941592 
L 849.618149 87.182679 
L 851.994669 101.363203 
L 854.371188 171.556797 
L 856.747707 119.088858 
L 859.124227 111.28957 
L 861.500746 124.761068 
L 863.877265 110.580544 
L 866.253785 119.088858 
L 868.630304 129.015225 
L 871.006823 146.74088 
L 873.383343 133.978408 
L 875.759862 128.306199 
L 878.136381 132.560356 
L 880.512901 135.396461 
L 882.88942 141.06867 
L 885.265939 153.831142 
L 887.642459 155.958221 
L 890.018978 155.249194 
L 892.395497 151.704063 
L 894.772017 158.794325 
L 897.148536 159.503352 
L 899.525055 163.048483 
L 901.901575 168.011666 
L 904.278094 184.319269 
L 906.654613 178.647059 
L 909.031133 177.229007 
L 911.407652 180.774138 
L 913.784171 187.8644 
L 916.160691 189.282452 
L 918.53721 194.245636 
L 920.913729 196.372714 
L 923.290249 199.208819 
L 925.666768 202.75395 
L 928.043287 205.590055 
L 930.419807 209.844212 
L 932.796326 211.971291 
L 937.549365 219.061553 
L 939.925884 224.024736 
L 942.302403 226.860841 
L 944.678923 231.114998 
L 947.055442 234.660129 
L 947.055442 234.660129 
" clip-path="url(#p7ba386f144)" style="fill: none; stroke: #1f77b4; stroke-width: 1.5; stroke-linecap: square"/>
   </g>
   <g id="line2d_16">
    <path d="M 93.885 232.533051 
L 96.261519 230.405972 
L 98.638039 226.151815 
L 103.391077 220.479605 
L 105.767597 216.934474 
L 108.144116 212.680317 
L 110.520635 209.135186 
L 112.897155 207.717134 
L 115.273674 204.172003 
L 117.650193 198.499793 
L 120.026713 197.790767 
L 122.403232 202.044924 
L 124.779751 191.409531 
L 127.156271 194.954662 
L 129.53279 180.774138 
L 131.909309 184.319269 
L 134.285829 189.282452 
L 136.662348 181.483164 
L 139.038867 178.647059 
L 141.415387 178.647059 
L 143.791906 176.519981 
L 146.168425 170.138745 
L 150.921464 170.138745 
L 153.297983 168.011666 
L 155.674503 165.175561 
L 158.051022 170.138745 
L 160.427541 173.683876 
L 162.804061 168.011666 
L 165.18058 168.011666 
L 167.557099 168.720692 
L 169.933619 185.028295 
L 172.310138 168.720692 
L 174.686657 167.30264 
L 177.063177 177.938033 
L 179.439696 169.429719 
L 181.816215 163.048483 
L 184.192735 165.884588 
L 186.569254 161.63043 
L 188.945773 163.757509 
L 191.322293 156.667247 
L 193.698812 156.667247 
L 196.075331 170.847771 
L 198.451851 180.065112 
L 200.82837 157.376273 
L 203.20489 167.30264 
L 205.581409 161.63043 
L 207.957928 162.339456 
L 210.334448 183.610243 
L 212.710967 163.757509 
L 215.087486 161.63043 
L 217.464006 157.376273 
L 222.217044 158.794325 
L 224.593564 163.048483 
L 226.970083 162.339456 
L 229.346602 170.138745 
L 231.723122 178.647059 
L 234.099641 155.958221 
L 236.47616 182.19219 
L 238.85268 176.519981 
L 241.229199 173.683876 
L 245.982238 187.8644 
L 248.358757 182.19219 
L 250.735276 184.319269 
L 253.111796 189.991478 
L 255.488315 192.118557 
L 257.864834 199.917845 
L 260.241354 199.917845 
L 262.617873 205.590055 
L 264.994392 204.881029 
L 267.370912 201.335898 
L 272.12395 208.42616 
L 276.876989 212.680317 
L 279.253508 214.098369 
L 281.630028 214.807396 
L 284.006547 219.061553 
L 286.383066 219.770579 
L 288.759586 221.188632 
L 291.136105 218.352527 
L 293.512624 219.770579 
L 295.889144 219.770579 
L 298.265663 222.606684 
L 303.018702 225.442789 
L 305.395221 224.024736 
L 307.77174 221.897658 
L 310.14826 221.188632 
L 312.524779 221.188632 
L 314.901298 221.897658 
L 317.277818 223.31571 
L 319.654337 224.024736 
L 329.160414 224.024736 
L 331.536934 222.606684 
L 333.913453 223.31571 
L 336.289972 221.188632 
L 338.666492 216.225448 
L 341.043011 212.680317 
L 343.41953 212.680317 
L 345.79605 205.590055 
L 348.172569 202.044924 
L 350.549088 194.954662 
L 352.925608 192.827583 
L 357.678646 187.155374 
L 362.431685 182.901216 
L 364.808204 185.028295 
L 367.184724 181.483164 
L 369.561243 179.356085 
L 371.937762 181.483164 
L 374.314282 185.028295 
L 376.690801 181.483164 
L 379.06732 182.901216 
L 381.44384 177.938033 
L 386.196878 172.265823 
L 388.573398 170.847771 
L 390.949917 172.265823 
L 393.326436 171.556797 
L 395.702956 171.556797 
L 400.455994 178.647059 
L 402.832514 178.647059 
L 405.209033 183.610243 
L 407.585552 183.610243 
L 409.962072 185.737321 
L 412.338591 189.991478 
L 414.71511 188.573426 
L 417.09163 194.954662 
L 419.468149 194.245636 
L 421.844669 194.245636 
L 424.221188 197.790767 
L 426.597707 195.663688 
L 428.974227 195.663688 
L 431.350746 194.954662 
L 433.727265 198.499793 
L 436.103785 197.790767 
L 438.480304 199.208819 
L 440.856823 201.335898 
L 443.233343 200.626872 
L 445.609862 204.881029 
L 447.986381 208.42616 
L 450.362901 208.42616 
L 452.73942 211.262265 
L 455.115939 211.971291 
L 457.492459 215.516422 
L 464.622017 213.389343 
L 466.998536 214.807396 
L 471.751575 216.225448 
L 474.128094 219.770579 
L 476.504613 216.934474 
L 478.881133 219.770579 
L 481.257652 219.770579 
L 483.634171 220.479605 
L 490.763729 218.352527 
L 493.140249 216.225448 
L 495.516768 215.516422 
L 500.269807 215.516422 
L 502.646326 211.971291 
L 505.022845 210.553238 
L 507.399365 207.717134 
L 512.152403 199.208819 
L 516.905442 189.282452 
L 519.281961 196.372714 
L 524.035 197.790767 
L 526.411519 201.335898 
L 528.788039 201.335898 
L 531.164558 199.208819 
L 533.541077 196.372714 
L 535.917597 194.245636 
L 538.294116 193.53661 
L 543.047155 182.19219 
L 545.423674 181.483164 
L 547.800193 179.356085 
L 550.176713 181.483164 
L 552.553232 177.938033 
L 554.929751 176.519981 
L 557.306271 177.229007 
L 559.68279 172.97485 
L 562.059309 174.392902 
L 564.435829 176.519981 
L 566.812348 179.356085 
L 569.188867 180.065112 
L 571.565387 185.028295 
L 573.941906 186.446347 
L 576.318425 186.446347 
L 578.694945 190.700505 
L 581.071464 189.282452 
L 583.447983 189.282452 
L 585.824503 192.118557 
L 590.577541 193.53661 
L 592.954061 193.53661 
L 595.33058 192.827583 
L 597.707099 195.663688 
L 600.083619 193.53661 
L 602.460138 196.372714 
L 604.836657 201.335898 
L 607.213177 200.626872 
L 609.589696 200.626872 
L 611.966215 203.462976 
L 616.719254 204.881029 
L 619.095773 206.299081 
L 621.472293 208.42616 
L 626.225331 209.844212 
L 628.601851 211.971291 
L 630.97837 213.389343 
L 633.35489 213.389343 
L 635.731409 216.225448 
L 638.107928 216.225448 
L 640.484448 217.6435 
L 642.860967 215.516422 
L 649.990525 215.516422 
L 652.367044 216.225448 
L 654.743564 218.352527 
L 657.120083 221.897658 
L 659.496602 221.188632 
L 661.873122 216.225448 
L 664.249641 212.680317 
L 666.62616 210.553238 
L 669.00268 209.135186 
L 671.379199 203.462976 
L 673.755718 204.881029 
L 676.132238 203.462976 
L 680.885276 204.881029 
L 683.261796 207.008107 
L 685.638315 205.590055 
L 688.014834 202.75395 
L 690.391354 201.335898 
L 695.144392 204.172003 
L 697.520912 207.717134 
L 699.897431 204.172003 
L 709.403508 198.499793 
L 711.780028 194.954662 
L 714.156547 192.827583 
L 716.533066 192.827583 
L 718.909586 194.954662 
L 721.286105 189.991478 
L 723.662624 192.827583 
L 726.039144 192.118557 
L 728.415663 189.991478 
L 730.792182 191.409531 
L 733.168702 189.282452 
L 735.545221 189.282452 
L 737.92174 188.573426 
L 740.29826 188.573426 
L 745.051298 191.409531 
L 747.427818 192.118557 
L 749.804337 195.663688 
L 752.180856 194.954662 
L 756.933895 197.790767 
L 759.310414 200.626872 
L 761.686934 202.75395 
L 764.063453 200.626872 
L 766.439972 199.917845 
L 771.193011 201.335898 
L 773.56953 204.172003 
L 775.94605 206.299081 
L 778.322569 202.044924 
L 780.699088 203.462976 
L 783.075608 207.008107 
L 785.452127 208.42616 
L 787.828646 208.42616 
L 790.205166 209.135186 
L 792.581685 212.680317 
L 794.958204 213.389343 
L 797.334724 209.135186 
L 799.711243 205.590055 
L 802.087762 206.299081 
L 806.840801 204.881029 
L 811.59384 209.135186 
L 813.970359 214.098369 
L 816.346878 211.971291 
L 821.099917 211.971291 
L 823.476436 210.553238 
L 825.852956 206.299081 
L 828.229475 207.008107 
L 830.605994 204.172003 
L 832.982514 203.462976 
L 835.359033 204.881029 
L 837.735552 207.717134 
L 840.112072 201.335898 
L 842.488591 207.717134 
L 844.86511 206.299081 
L 847.24163 208.42616 
L 849.618149 207.717134 
L 851.994669 208.42616 
L 854.371188 210.553238 
L 856.747707 209.844212 
L 859.124227 209.844212 
L 861.500746 208.42616 
L 863.877265 210.553238 
L 866.253785 206.299081 
L 868.630304 209.844212 
L 871.006823 211.971291 
L 873.383343 211.971291 
L 875.759862 214.807396 
L 878.136381 216.225448 
L 880.512901 219.061553 
L 882.88942 217.6435 
L 885.265939 216.934474 
L 887.642459 217.6435 
L 890.018978 215.516422 
L 892.395497 219.061553 
L 894.772017 219.061553 
L 897.148536 220.479605 
L 899.525055 219.770579 
L 901.901575 218.352527 
L 904.278094 221.188632 
L 906.654613 224.733763 
L 909.031133 225.442789 
L 911.407652 226.860841 
L 913.784171 227.569867 
L 916.160691 224.024736 
L 918.53721 228.98792 
L 920.913729 229.696946 
L 923.290249 228.98792 
L 925.666768 227.569867 
L 928.043287 227.569867 
L 930.419807 231.114998 
L 932.796326 232.533051 
L 935.172845 231.114998 
L 937.549365 232.533051 
L 939.925884 230.405972 
L 942.302403 229.696946 
L 944.678923 228.278894 
L 947.055442 222.606684 
L 949.431961 222.606684 
L 951.808481 221.188632 
L 954.185 224.733763 
L 954.185 224.733763 
" clip-path="url(#p7ba386f144)" style="fill: none; stroke: #ff7f0e; stroke-width: 1.5; stroke-linecap: square"/>
   </g>
   <g id="line2d_17">
    <path d="M 93.885 233.951103 
L 96.261519 236.078182 
L 101.014558 234.660129 
L 103.391077 233.242077 
L 105.767597 224.733763 
L 108.144116 219.061553 
L 110.520635 209.135186 
L 112.897155 207.717134 
L 115.273674 202.044924 
L 117.650193 202.75395 
L 120.026713 197.081741 
L 122.403232 192.118557 
L 124.779751 188.573426 
L 127.156271 186.446347 
L 129.53279 182.901216 
L 131.909309 181.483164 
L 134.285829 175.810954 
L 136.662348 170.847771 
L 139.038867 168.720692 
L 141.415387 162.339456 
L 143.791906 160.921404 
L 146.168425 156.667247 
L 148.544945 155.249194 
L 150.921464 156.667247 
L 153.297983 159.503352 
L 160.427541 142.486723 
L 162.804061 137.523539 
L 165.18058 135.396461 
L 167.557099 133.978408 
L 169.933619 133.978408 
L 172.310138 126.17912 
L 174.686657 119.797884 
L 177.063177 116.252753 
L 179.439696 134.687434 
L 181.816215 109.871517 
L 184.192735 113.416648 
L 186.569254 114.834701 
L 188.945773 112.707622 
L 191.322293 97.109046 
L 193.698812 115.543727 
L 196.075331 110.580544 
L 198.451851 110.580544 
L 200.82837 102.781255 
L 203.20489 119.797884 
L 207.957928 105.61736 
L 210.334448 101.363203 
L 212.710967 126.17912 
L 215.087486 126.888146 
L 217.464006 116.252753 
L 219.840525 126.17912 
L 222.217044 118.379832 
L 224.593564 112.707622 
L 226.970083 126.17912 
L 229.346602 112.707622 
L 231.723122 131.142303 
L 234.099641 120.50691 
L 236.47616 126.17912 
L 238.85268 102.781255 
L 241.229199 120.50691 
L 243.605718 126.17912 
L 245.982238 145.322828 
L 248.358757 115.543727 
L 250.735276 118.379832 
L 253.111796 149.576985 
L 255.488315 120.50691 
L 257.864834 128.306199 
L 260.241354 120.50691 
L 262.617873 132.560356 
L 264.994392 117.670806 
L 267.370912 130.433277 
L 269.747431 146.74088 
L 272.12395 129.015225 
L 274.50047 137.523539 
L 276.876989 126.888146 
L 279.253508 124.052041 
L 281.630028 129.724251 
L 284.006547 119.088858 
L 286.383066 104.908334 
L 288.759586 128.306199 
L 291.136105 136.814513 
L 293.512624 127.597172 
L 295.889144 115.543727 
L 298.265663 142.486723 
L 300.642182 119.797884 
L 303.018702 123.343015 
L 305.395221 141.06867 
L 307.77174 153.122116 
L 310.14826 155.958221 
L 312.524779 153.122116 
L 314.901298 119.797884 
L 317.277818 141.777697 
L 319.654337 124.761068 
L 322.030856 137.523539 
L 324.407376 99.236124 
L 326.783895 151.704063 
L 329.160414 128.306199 
L 331.536934 143.195749 
L 333.913453 131.142303 
L 336.289972 102.072229 
L 338.666492 112.707622 
L 341.043011 97.109046 
L 343.41953 116.961779 
L 345.79605 118.379832 
L 348.172569 136.814513 
L 350.549088 141.777697 
L 352.925608 124.761068 
L 355.302127 127.597172 
L 357.678646 106.326386 
L 360.055166 123.343015 
L 362.431685 108.453465 
L 364.808204 109.162491 
L 367.184724 116.961779 
L 369.561243 108.453465 
L 371.937762 114.834701 
L 374.314282 124.052041 
L 376.690801 117.670806 
L 379.06732 108.453465 
L 381.44384 130.433277 
L 383.820359 124.052041 
L 386.196878 90.018784 
L 388.573398 139.650618 
L 390.949917 135.396461 
L 393.326436 96.400019 
L 395.702956 95.690993 
L 398.079475 114.125675 
L 400.455994 95.690993 
L 402.832514 132.560356 
L 405.209033 121.215937 
L 407.585552 89.309757 
L 409.962072 85.764626 
L 412.338591 132.560356 
L 414.71511 101.363203 
L 417.09163 116.961779 
L 419.468149 120.50691 
L 421.844669 117.670806 
L 424.221188 135.396461 
L 426.597707 75.838259 
L 428.974227 124.052041 
L 431.350746 103.490281 
L 433.727265 120.50691 
L 436.103785 129.724251 
L 438.480304 116.252753 
L 440.856823 130.433277 
L 443.233343 83.637548 
L 445.609862 90.018784 
L 447.986381 153.122116 
L 450.362901 117.670806 
L 452.73942 158.794325 
L 455.115939 138.941592 
L 457.492459 172.97485 
L 459.868978 132.560356 
L 462.245497 109.162491 
L 464.622017 133.978408 
L 466.998536 116.961779 
L 469.375055 138.941592 
L 471.751575 122.633989 
L 474.128094 115.543727 
L 476.504613 146.031854 
L 478.881133 107.035412 
L 481.257652 153.831142 
L 483.634171 121.215937 
L 486.010691 128.306199 
L 488.38721 140.359644 
L 490.763729 124.052041 
L 493.140249 156.667247 
L 495.516768 140.359644 
L 497.893287 133.978408 
L 500.269807 94.272941 
L 502.646326 77.256312 
L 505.022845 73.002155 
L 507.399365 118.379832 
L 509.775884 74.420207 
L 512.152403 119.088858 
L 514.528923 147.449906 
L 516.905442 136.105487 
L 519.281961 126.17912 
L 521.658481 86.473653 
L 524.035 104.908334 
L 526.411519 115.543727 
L 528.788039 102.072229 
L 531.164558 101.363203 
L 533.541077 101.363203 
L 535.917597 119.797884 
L 538.294116 89.309757 
L 540.670635 112.707622 
L 543.047155 82.219495 
L 545.423674 129.724251 
L 547.800193 110.580544 
L 550.176713 132.560356 
L 552.553232 145.322828 
L 554.929751 114.834701 
L 557.306271 155.958221 
L 559.68279 107.744439 
L 562.059309 168.720692 
L 564.435829 116.252753 
L 566.812348 157.376273 
L 569.188867 96.400019 
L 571.565387 145.322828 
L 573.941906 98.527098 
L 576.318425 117.670806 
L 578.694945 87.891705 
L 581.071464 121.215937 
L 583.447983 120.50691 
L 585.824503 143.195749 
L 588.201022 114.125675 
L 590.577541 128.306199 
L 592.954061 102.072229 
L 595.33058 126.888146 
L 597.707099 121.924963 
L 600.083619 125.470094 
L 602.460138 90.72781 
L 604.836657 95.690993 
L 607.213177 149.576985 
L 609.589696 133.269382 
L 611.966215 126.17912 
L 614.342735 143.195749 
L 616.719254 98.527098 
L 619.095773 126.17912 
L 621.472293 93.563915 
L 623.848812 131.85133 
L 626.225331 114.834701 
L 628.601851 127.597172 
L 630.97837 103.490281 
L 633.35489 119.088858 
L 635.731409 118.379832 
L 638.107928 143.904775 
L 640.484448 115.543727 
L 642.860967 141.06867 
L 645.237486 102.781255 
L 647.614006 95.690993 
L 649.990525 119.088858 
L 652.367044 107.035412 
L 654.743564 106.326386 
L 657.120083 116.252753 
L 659.496602 123.343015 
L 661.873122 110.580544 
L 664.249641 131.142303 
L 666.62616 104.908334 
L 669.00268 120.50691 
L 671.379199 119.797884 
L 673.755718 146.031854 
L 676.132238 163.048483 
L 678.508757 151.704063 
L 680.885276 180.774138 
L 683.261796 194.954662 
L 685.638315 208.42616 
L 688.014834 216.934474 
L 690.391354 222.606684 
L 692.767873 227.569867 
L 699.897431 233.951103 
L 702.27395 235.369156 
L 704.65047 212.680317 
L 707.026989 219.061553 
L 709.403508 223.31571 
L 711.780028 228.278894 
L 716.533066 232.533051 
L 718.909586 233.951103 
L 730.792182 230.405972 
L 733.168702 231.114998 
L 735.545221 227.569867 
L 737.92174 231.114998 
L 740.29826 191.409531 
L 742.674779 167.30264 
L 745.051298 186.446347 
L 747.427818 194.245636 
L 749.804337 206.299081 
L 752.180856 216.225448 
L 754.557376 221.188632 
L 756.933895 227.569867 
L 759.310414 228.98792 
L 761.686934 231.824025 
L 764.063453 233.951103 
L 766.439972 234.660129 
L 768.816492 236.078182 
L 771.193011 208.42616 
L 773.56953 164.466535 
L 775.94605 189.282452 
L 778.322569 150.995037 
L 780.699088 174.392902 
L 783.075608 158.794325 
L 785.452127 182.901216 
L 787.828646 188.573426 
L 790.205166 201.335898 
L 792.581685 213.389343 
L 794.958204 220.479605 
L 797.334724 224.024736 
L 799.711243 216.225448 
L 804.464282 226.151815 
L 809.21732 231.824025 
L 811.59384 229.696946 
L 813.970359 228.278894 
L 816.346878 207.008107 
L 818.723398 187.8644 
L 821.099917 184.319269 
L 823.476436 180.065112 
L 825.852956 179.356085 
L 828.229475 182.901216 
L 830.605994 169.429719 
L 832.982514 135.396461 
L 835.359033 127.597172 
L 837.735552 133.978408 
L 840.112072 99.236124 
L 842.488591 82.928522 
L 844.86511 94.272941 
L 847.24163 93.563915 
L 849.618149 107.035412 
L 851.994669 124.052041 
L 854.371188 96.400019 
L 856.747707 121.924963 
L 859.124227 124.761068 
L 861.500746 113.416648 
L 863.877265 138.941592 
L 866.253785 130.433277 
L 868.630304 136.105487 
L 871.006823 125.470094 
L 873.383343 133.269382 
L 875.759862 135.396461 
L 878.136381 136.814513 
L 880.512901 143.904775 
L 882.88942 141.777697 
L 885.265939 141.777697 
L 887.642459 148.158932 
L 890.018978 163.048483 
L 892.395497 155.249194 
L 894.772017 158.085299 
L 897.148536 161.63043 
L 899.525055 168.011666 
L 901.901575 168.011666 
L 904.278094 171.556797 
L 906.654613 176.519981 
L 909.031133 177.938033 
L 911.407652 183.610243 
L 913.784171 185.028295 
L 916.160691 192.118557 
L 918.53721 191.409531 
L 920.913729 198.499793 
L 923.290249 199.917845 
L 925.666768 204.172003 
L 928.043287 205.590055 
L 930.419807 209.844212 
L 939.925884 224.024736 
L 942.302403 228.278894 
L 944.678923 230.405972 
L 947.055442 234.660129 
L 947.055442 234.660129 
" clip-path="url(#p7ba386f144)" style="fill: none; stroke: #2ca02c; stroke-width: 1.5; stroke-linecap: square"/>
   </g>
   <g id="patch_3">
    <path d="M 50.87 246.04 
L 50.87 26.88 
" style="fill: none; stroke: #000000; stroke-width: 0.8; stroke-linejoin: miter; stroke-linecap: square"/>
   </g>
   <g id="patch_4">
    <path d="M 997.2 246.04 
L 997.2 26.88 
" style="fill: none; stroke: #000000; stroke-width: 0.8; stroke-linejoin: miter; stroke-linecap: square"/>
   </g>
   <g id="patch_5">
    <path d="M 50.87 246.04 
L 997.2 246.04 
" style="fill: none; stroke: #000000; stroke-width: 0.8; stroke-linejoin: miter; stroke-linecap: square"/>
   </g>
   <g id="patch_6">
    <path d="M 50.87 26.88 
L 997.2 26.88 
" style="fill: none; stroke: #000000; stroke-width: 0.8; stroke-linejoin: miter; stroke-linecap: square"/>
   </g>
   <g id="text_17">
    <!-- Number of Requests per Second -->
    <g transform="translate(426.972812 20.88) scale(0.12 -0.12)">
     <defs>
      <path id="DejaVuSans-4e" d="M 628 4666 
L 1478 4666 
L 3547 763 
L 3547 4666 
L 4159 4666 
L 4159 0 
L 3309 0 
L 1241 3903 
L 1241 0 
L 628 0 
L 628 4666 
z
" transform="scale(0.015625)"/>
      <path id="DejaVuSans-62" d="M 3116 1747 
Q 3116 2381 2855 2742 
Q 2594 3103 2138 3103 
Q 1681 3103 1420 2742 
Q 1159 2381 1159 1747 
Q 1159 1113 1420 752 
Q 1681 391 2138 391 
Q 2594 391 2855 752 
Q 3116 1113 3116 1747 
z
M 1159 2969 
Q 1341 3281 1617 3432 
Q 1894 3584 2278 3584 
Q 2916 3584 3314 3078 
Q 3713 2572 3713 1747 
Q 3713 922 3314 415 
Q 2916 -91 2278 -91 
Q 1894 -91 1617 61 
Q 1341 213 1159 525 
L 1159 0 
L 581 0 
L 581 4863 
L 1159 4863 
L 1159 2969 
z
" transform="scale(0.015625)"/>
      <path id="DejaVuSans-72" d="M 2631 2963 
Q 2534 3019 2420 3045 
Q 2306 3072 2169 3072 
Q 1681 3072 1420 2755 
Q 1159 2438 1159 1844 
L 1159 0 
L 581 0 
L 581 3500 
L 1159 3500 
L 1159 2956 
Q 1341 3275 1631 3429 
Q 1922 3584 2338 3584 
Q 2397 3584 2469 3576 
Q 2541 3569 2628 3553 
L 2631 2963 
z
" transform="scale(0.015625)"/>
      <path id="DejaVuSans-66" d="M 2375 4863 
L 2375 4384 
L 1825 4384 
Q 1516 4384 1395 4259 
Q 1275 4134 1275 3809 
L 1275 3500 
L 2222 3500 
L 2222 3053 
L 1275 3053 
L 1275 0 
L 697 0 
L 697 3053 
L 147 3053 
L 147 3500 
L 697 3500 
L 697 3744 
Q 697 4328 969 4595 
Q 1241 4863 1831 4863 
L 2375 4863 
z
" transform="scale(0.015625)"/>
     </defs>
     <use xlink:href="#DejaVuSans-4e"/>
     <use xlink:href="#DejaVuSans-75" transform="translate(74.804688 0)"/>
     <use xlink:href="#DejaVuSans-6d" transform="translate(138.183594 0)"/>
     <use xlink:href="#DejaVuSans-62" transform="translate(235.595703 0)"/>
     <use xlink:href="#DejaVuSans-65" transform="translate(299.072266 0)"/>
     <use xlink:href="#DejaVuSans-72" transform="translate(360.595703 0)"/>
     <use xlink:href="#DejaVuSans-20" transform="translate(401.708984 0)"/>
     <use xlink:href="#DejaVuSans-6f" transform="translate(433.496094 0)"/>
     <use xlink:href="#DejaVuSans-66" transform="translate(494.677734 0)"/>
     <use xlink:href="#DejaVuSans-20" transform="translate(529.882812 0)"/>
     <use xlink:href="#DejaVuSans-52" transform="translate(561.669922 0)"/>
     <use xlink:href="#DejaVuSans-65" transform="translate(626.652344 0)"/>
     <use xlink:href="#DejaVuSans-71" transform="translate(688.175781 0)"/>
     <use xlink:href="#DejaVuSans-75" transform="translate(751.652344 0)"/>
     <use xlink:href="#DejaVuSans-65" transform="translate(815.03125 0)"/>
     <use xlink:href="#DejaVuSans-73" transform="translate(876.554688 0)"/>
     <use xlink:href="#DejaVuSans-74" transform="translate(928.654297 0)"/>
     <use xlink:href="#DejaVuSans-73" transform="translate(967.863281 0)"/>
     <use xlink:href="#DejaVuSans-20" transform="translate(1019.962891 0)"/>
     <use xlink:href="#DejaVuSans-70" transform="translate(1051.75 0)"/>
     <use xlink:href="#DejaVuSans-65" transform="translate(1115.226562 0)"/>
     <use xlink:href="#DejaVuSans-72" transform="translate(1176.75 0)"/>
     <use xlink:href="#DejaVuSans-20" transform="translate(1217.863281 0)"/>
     <use xlink:href="#DejaVuSans-53" transform="translate(1249.650391 0)"/>
     <use xlink:href="#DejaVuSans-65" transform="translate(1313.126953 0)"/>
     <use xlink:href="#DejaVuSans-63" transform="translate(1374.650391 0)"/>
     <use xlink:href="#DejaVuSans-6f" transform="translate(1429.630859 0)"/>
     <use xlink:href="#DejaVuSans-6e" transform="translate(1490.8125 0)"/>
     <use xlink:href="#DejaVuSans-64" transform="translate(1554.191406 0)"/>
    </g>
   </g>
   <g id="legend_1">
    <g id="patch_7">
     <path d="M 856.85625 78.914375 
L 990.2 78.914375 
Q 992.2 78.914375 992.2 76.914375 
L 992.2 33.88 
Q 992.2 31.88 990.2 31.88 
L 856.85625 31.88 
Q 854.85625 31.88 854.85625 33.88 
L 854.85625 76.914375 
Q 854.85625 78.914375 856.85625 78.914375 
z
" style="fill: #ffffff; opacity: 0.8; stroke: #cccccc; stroke-linejoin: miter"/>
    </g>
    <g id="line2d_18">
     <path d="M 858.85625 39.978438 
L 868.85625 39.978438 
L 878.85625 39.978438 
" style="fill: none; stroke: #1f77b4; stroke-width: 1.5; stroke-linecap: square"/>
    </g>
    <g id="text_18">
     <!-- Single Large Results -->
     <g transform="translate(886.85625 43.478438) scale(0.1 -0.1)">
      <defs>
       <path id="DejaVuSans-67" d="M 2906 1791 
Q 2906 2416 2648 2759 
Q 2391 3103 1925 3103 
Q 1463 3103 1205 2759 
Q 947 2416 947 1791 
Q 947 1169 1205 825 
Q 1463 481 1925 481 
Q 2391 481 2648 825 
Q 2906 1169 2906 1791 
z
M 3481 434 
Q 3481 -459 3084 -895 
Q 2688 -1331 1869 -1331 
Q 1566 -1331 1297 -1286 
Q 1028 -1241 775 -1147 
L 775 -588 
Q 1028 -725 1275 -790 
Q 1522 -856 1778 -856 
Q 2344 -856 2625 -561 
Q 2906 -266 2906 331 
L 2906 616 
Q 2728 306 2450 153 
Q 2172 0 1784 0 
Q 1141 0 747 490 
Q 353 981 353 1791 
Q 353 2603 747 3093 
Q 1141 3584 1784 3584 
Q 2172 3584 2450 3431 
Q 2728 3278 2906 2969 
L 2906 3500 
L 3481 3500 
L 3481 434 
z
" transform="scale(0.015625)"/>
       <path id="DejaVuSans-6c" d="M 603 4863 
L 1178 4863 
L 1178 0 
L 603 0 
L 603 4863 
z
" transform="scale(0.015625)"/>
       <path id="DejaVuSans-4c" d="M 628 4666 
L 1259 4666 
L 1259 531 
L 3531 531 
L 3531 0 
L 628 0 
L 628 4666 
z
" transform="scale(0.015625)"/>
      </defs>
      <use xlink:href="#DejaVuSans-53"/>
      <use xlink:href="#DejaVuSans-69" transform="translate(63.476562 0)"/>
      <use xlink:href="#DejaVuSans-6e" transform="translate(91.259766 0)"/>
      <use xlink:href="#DejaVuSans-67" transform="translate(154.638672 0)"/>
      <use xlink:href="#DejaVuSans-6c" transform="translate(218.115234 0)"/>
      <use xlink:href="#DejaVuSans-65" transform="translate(245.898438 0)"/>
      <use xlink:href="#DejaVuSans-20" transform="translate(307.421875 0)"/>
      <use xlink:href="#DejaVuSans-4c" transform="translate(339.208984 0)"/>
      <use xlink:href="#DejaVuSans-61" transform="translate(394.921875 0)"/>
      <use xlink:href="#DejaVuSans-72" transform="translate(456.201172 0)"/>
      <use xlink:href="#DejaVuSans-67" transform="translate(495.564453 0)"/>
      <use xlink:href="#DejaVuSans-65" transform="translate(559.041016 0)"/>
      <use xlink:href="#DejaVuSans-20" transform="translate(620.564453 0)"/>
      <use xlink:href="#DejaVuSans-52" transform="translate(652.351562 0)"/>
      <use xlink:href="#DejaVuSans-65" transform="translate(717.333984 0)"/>
      <use xlink:href="#DejaVuSans-73" transform="translate(778.857422 0)"/>
      <use xlink:href="#DejaVuSans-75" transform="translate(830.957031 0)"/>
      <use xlink:href="#DejaVuSans-6c" transform="translate(894.335938 0)"/>
      <use xlink:href="#DejaVuSans-74" transform="translate(922.119141 0)"/>
      <use xlink:href="#DejaVuSans-73" transform="translate(961.328125 0)"/>
     </g>
    </g>
    <g id="line2d_19">
     <path d="M 858.85625 54.656563 
L 868.85625 54.656563 
L 878.85625 54.656563 
" style="fill: none; stroke: #ff7f0e; stroke-width: 1.5; stroke-linecap: square"/>
    </g>
    <g id="text_19">
     <!-- Single Small Results -->
     <g transform="translate(886.85625 58.156563) scale(0.1 -0.1)">
      <use xlink:href="#DejaVuSans-53"/>
      <use xlink:href="#DejaVuSans-69" transform="translate(63.476562 0)"/>
      <use xlink:href="#DejaVuSans-6e" transform="translate(91.259766 0)"/>
      <use xlink:href="#DejaVuSans-67" transform="translate(154.638672 0)"/>
      <use xlink:href="#DejaVuSans-6c" transform="translate(218.115234 0)"/>
      <use xlink:href="#DejaVuSans-65" transform="translate(245.898438 0)"/>
      <use xlink:href="#DejaVuSans-20" transform="translate(307.421875 0)"/>
      <use xlink:href="#DejaVuSans-53" transform="translate(339.208984 0)"/>
      <use xlink:href="#DejaVuSans-6d" transform="translate(402.685547 0)"/>
      <use xlink:href="#DejaVuSans-61" transform="translate(500.097656 0)"/>
      <use xlink:href="#DejaVuSans-6c" transform="translate(561.376953 0)"/>
      <use xlink:href="#DejaVuSans-6c" transform="translate(589.160156 0)"/>
      <use xlink:href="#DejaVuSans-20" transform="translate(616.943359 0)"/>
      <use xlink:href="#DejaVuSans-52" transform="translate(648.730469 0)"/>
      <use xlink:href="#DejaVuSans-65" transform="translate(713.712891 0)"/>
      <use xlink:href="#DejaVuSans-73" transform="translate(775.236328 0)"/>
      <use xlink:href="#DejaVuSans-75" transform="translate(827.335938 0)"/>
      <use xlink:href="#DejaVuSans-6c" transform="translate(890.714844 0)"/>
      <use xlink:href="#DejaVuSans-74" transform="translate(918.498047 0)"/>
      <use xlink:href="#DejaVuSans-73" transform="translate(957.707031 0)"/>
     </g>
    </g>
    <g id="line2d_20">
     <path d="M 858.85625 69.334688 
L 868.85625 69.334688 
L 878.85625 69.334688 
" style="fill: none; stroke: #2ca02c; stroke-width: 1.5; stroke-linecap: square"/>
    </g>
    <g id="text_20">
     <!-- Multi Results -->
     <g transform="translate(886.85625 72.834688) scale(0.1 -0.1)">
      <defs>
       <path id="DejaVuSans-4d" d="M 628 4666 
L 1569 4666 
L 2759 1491 
L 3956 4666 
L 4897 4666 
L 4897 0 
L 4281 0 
L 4281 4097 
L 3078 897 
L 2444 897 
L 1241 4097 
L 1241 0 
L 628 0 
L 628 4666 
z
" transform="scale(0.015625)"/>
      </defs>
      <use xlink:href="#DejaVuSans-4d"/>
      <use xlink:href="#DejaVuSans-75" transform="translate(86.279297 0)"/>
      <use xlink:href="#DejaVuSans-6c" transform="translate(149.658203 0)"/>
      <use xlink:href="#DejaVuSans-74" transform="translate(177.441406 0)"/>
      <use xlink:href="#DejaVuSans-69" transform="translate(216.650391 0)"/>
      <use xlink:href="#DejaVuSans-20" transform="translate(244.433594 0)"/>
      <use xlink:href="#DejaVuSans-52" transform="translate(276.220703 0)"/>
      <use xlink:href="#DejaVuSans-65" transform="translate(341.203125 0)"/>
      <use xlink:href="#DejaVuSans-73" transform="translate(402.726562 0)"/>
      <use xlink:href="#DejaVuSans-75" transform="translate(454.826172 0)"/>
      <use xlink:href="#DejaVuSans-6c" transform="translate(518.205078 0)"/>
      <use xlink:href="#DejaVuSans-74" transform="translate(545.988281 0)"/>
      <use xlink:href="#DejaVuSans-73" transform="translate(585.197266 0)"/>
     </g>
    </g>
   </g>
  </g>
 </g>
 <defs>
  <clipPath id="p7ba386f144">
   <rect x="50.87" y="26.88" width="946.33" height="219.16"/>
  </clipPath>
 </defs>
</svg>
