<?xml version="1.0" encoding="utf-8" standalone="no"?>
<!DOCTYPE svg PUBLIC "-//W3C//DTD SVG 1.1//EN"
  "http://www.w3.org/Graphics/SVG/1.1/DTD/svg11.dtd">
<svg xmlns:xlink="http://www.w3.org/1999/xlink" width="864pt" height="432pt" viewBox="0 0 864 432" xmlns="http://www.w3.org/2000/svg" version="1.1">
 <metadata>
  <rdf:RDF xmlns:dc="http://purl.org/dc/elements/1.1/" xmlns:cc="http://creativecommons.org/ns#" xmlns:rdf="http://www.w3.org/1999/02/22-rdf-syntax-ns#">
   <cc:Work>
    <dc:type rdf:resource="http://purl.org/dc/dcmitype/StillImage"/>
    <dc:date>2025-05-31T16:12:07.035871</dc:date>
    <dc:format>image/svg+xml</dc:format>
    <dc:creator>
     <cc:Agent>
      <dc:title>Matplotlib v3.10.1, https://matplotlib.org/</dc:title>
     </cc:Agent>
    </dc:creator>
   </cc:Work>
  </rdf:RDF>
 </metadata>
 <defs>
  <style type="text/css">*{stroke-linejoin: round; stroke-linecap: butt}</style>
 </defs>
 <g id="figure_1">
  <g id="patch_1">
   <path d="M 0 432 
L 864 432 
L 864 0 
L 0 0 
z
" style="fill: #ffffff"/>
  </g>
  <g id="axes_1">
   <g id="patch_2">
    <path d="M 50.137685 390.04 
L 853.2 390.04 
L 853.2 41.856 
L 50.137685 41.856 
z
" style="fill: #ffffff"/>
   </g>
   <g id="matplotlib.axis_1">
    <g id="xtick_1">
     <g id="line2d_1">
      <defs>
       <path id="m6aed670c97" d="M 0 0 
L 0 3.5 
" style="stroke: #000000; stroke-width: 0.8"/>
      </defs>
      <g>
       <use xlink:href="#m6aed670c97" x="86.640517" y="390.04" style="stroke: #000000; stroke-width: 0.8"/>
      </g>
     </g>
     <g id="text_1">
      <!-- 0 -->
      <g transform="translate(83.459267 404.638438) scale(0.1 -0.1)">
       <defs>
        <path id="DejaVuSans-30" d="M 2034 4250 
Q 1547 4250 1301 3770 
Q 1056 3291 1056 2328 
Q 1056 1369 1301 889 
Q 1547 409 2034 409 
Q 2525 409 2770 889 
Q 3016 1369 3016 2328 
Q 3016 3291 2770 3770 
Q 2525 4250 2034 4250 
z
M 2034 4750 
Q 2819 4750 3233 4129 
Q 3647 3509 3647 2328 
Q 3647 1150 3233 529 
Q 2819 -91 2034 -91 
Q 1250 -91 836 529 
Q 422 1150 422 2328 
Q 422 3509 836 4129 
Q 1250 4750 2034 4750 
z
" transform="scale(0.015625)"/>
       </defs>
       <use xlink:href="#DejaVuSans-30"/>
      </g>
     </g>
    </g>
    <g id="xtick_2">
     <g id="line2d_2">
      <g>
       <use xlink:href="#m6aed670c97" x="188.037274" y="390.04" style="stroke: #000000; stroke-width: 0.8"/>
      </g>
     </g>
     <g id="text_2">
      <!-- 50 -->
      <g transform="translate(181.674774 404.638438) scale(0.1 -0.1)">
       <defs>
        <path id="DejaVuSans-35" d="M 691 4666 
L 3169 4666 
L 3169 4134 
L 1269 4134 
L 1269 2991 
Q 1406 3038 1543 3061 
Q 1681 3084 1819 3084 
Q 2600 3084 3056 2656 
Q 3513 2228 3513 1497 
Q 3513 744 3044 326 
Q 2575 -91 1722 -91 
Q 1428 -91 1123 -41 
Q 819 9 494 109 
L 494 744 
Q 775 591 1075 516 
Q 1375 441 1709 441 
Q 2250 441 2565 725 
Q 2881 1009 2881 1497 
Q 2881 1984 2565 2268 
Q 2250 2553 1709 2553 
Q 1456 2553 1204 2497 
Q 953 2441 691 2322 
L 691 4666 
z
" transform="scale(0.015625)"/>
       </defs>
       <use xlink:href="#DejaVuSans-35"/>
       <use xlink:href="#DejaVuSans-30" transform="translate(63.623047 0)"/>
      </g>
     </g>
    </g>
    <g id="xtick_3">
     <g id="line2d_3">
      <g>
       <use xlink:href="#m6aed670c97" x="289.434031" y="390.04" style="stroke: #000000; stroke-width: 0.8"/>
      </g>
     </g>
     <g id="text_3">
      <!-- 100 -->
      <g transform="translate(279.890281 404.638438) scale(0.1 -0.1)">
       <defs>
        <path id="DejaVuSans-31" d="M 794 531 
L 1825 531 
L 1825 4091 
L 703 3866 
L 703 4441 
L 1819 4666 
L 2450 4666 
L 2450 531 
L 3481 531 
L 3481 0 
L 794 0 
L 794 531 
z
" transform="scale(0.015625)"/>
       </defs>
       <use xlink:href="#DejaVuSans-31"/>
       <use xlink:href="#DejaVuSans-30" transform="translate(63.623047 0)"/>
       <use xlink:href="#DejaVuSans-30" transform="translate(127.246094 0)"/>
      </g>
     </g>
    </g>
    <g id="xtick_4">
     <g id="line2d_4">
      <g>
       <use xlink:href="#m6aed670c97" x="390.830788" y="390.04" style="stroke: #000000; stroke-width: 0.8"/>
      </g>
     </g>
     <g id="text_4">
      <!-- 150 -->
      <g transform="translate(381.287038 404.638438) scale(0.1 -0.1)">
       <use xlink:href="#DejaVuSans-31"/>
       <use xlink:href="#DejaVuSans-35" transform="translate(63.623047 0)"/>
       <use xlink:href="#DejaVuSans-30" transform="translate(127.246094 0)"/>
      </g>
     </g>
    </g>
    <g id="xtick_5">
     <g id="line2d_5">
      <g>
       <use xlink:href="#m6aed670c97" x="492.227545" y="390.04" style="stroke: #000000; stroke-width: 0.8"/>
      </g>
     </g>
     <g id="text_5">
      <!-- 200 -->
      <g transform="translate(482.683795 404.638438) scale(0.1 -0.1)">
       <defs>
        <path id="DejaVuSans-32" d="M 1228 531 
L 3431 531 
L 3431 0 
L 469 0 
L 469 531 
Q 828 903 1448 1529 
Q 2069 2156 2228 2338 
Q 2531 2678 2651 2914 
Q 2772 3150 2772 3378 
Q 2772 3750 2511 3984 
Q 2250 4219 1831 4219 
Q 1534 4219 1204 4116 
Q 875 4013 500 3803 
L 500 4441 
Q 881 4594 1212 4672 
Q 1544 4750 1819 4750 
Q 2544 4750 2975 4387 
Q 3406 4025 3406 3419 
Q 3406 3131 3298 2873 
Q 3191 2616 2906 2266 
Q 2828 2175 2409 1742 
Q 1991 1309 1228 531 
z
" transform="scale(0.015625)"/>
       </defs>
       <use xlink:href="#DejaVuSans-32"/>
       <use xlink:href="#DejaVuSans-30" transform="translate(63.623047 0)"/>
       <use xlink:href="#DejaVuSans-30" transform="translate(127.246094 0)"/>
      </g>
     </g>
    </g>
    <g id="xtick_6">
     <g id="line2d_6">
      <g>
       <use xlink:href="#m6aed670c97" x="593.624302" y="390.04" style="stroke: #000000; stroke-width: 0.8"/>
      </g>
     </g>
     <g id="text_6">
      <!-- 250 -->
      <g transform="translate(584.080552 404.638438) scale(0.1 -0.1)">
       <use xlink:href="#DejaVuSans-32"/>
       <use xlink:href="#DejaVuSans-35" transform="translate(63.623047 0)"/>
       <use xlink:href="#DejaVuSans-30" transform="translate(127.246094 0)"/>
      </g>
     </g>
    </g>
    <g id="xtick_7">
     <g id="line2d_7">
      <g>
       <use xlink:href="#m6aed670c97" x="695.021059" y="390.04" style="stroke: #000000; stroke-width: 0.8"/>
      </g>
     </g>
     <g id="text_7">
      <!-- 300 -->
      <g transform="translate(685.477309 404.638438) scale(0.1 -0.1)">
       <defs>
        <path id="DejaVuSans-33" d="M 2597 2516 
Q 3050 2419 3304 2112 
Q 3559 1806 3559 1356 
Q 3559 666 3084 287 
Q 2609 -91 1734 -91 
Q 1441 -91 1130 -33 
Q 819 25 488 141 
L 488 750 
Q 750 597 1062 519 
Q 1375 441 1716 441 
Q 2309 441 2620 675 
Q 2931 909 2931 1356 
Q 2931 1769 2642 2001 
Q 2353 2234 1838 2234 
L 1294 2234 
L 1294 2753 
L 1863 2753 
Q 2328 2753 2575 2939 
Q 2822 3125 2822 3475 
Q 2822 3834 2567 4026 
Q 2313 4219 1838 4219 
Q 1578 4219 1281 4162 
Q 984 4106 628 3988 
L 628 4550 
Q 988 4650 1302 4700 
Q 1616 4750 1894 4750 
Q 2613 4750 3031 4423 
Q 3450 4097 3450 3541 
Q 3450 3153 3228 2886 
Q 3006 2619 2597 2516 
z
" transform="scale(0.015625)"/>
       </defs>
       <use xlink:href="#DejaVuSans-33"/>
       <use xlink:href="#DejaVuSans-30" transform="translate(63.623047 0)"/>
       <use xlink:href="#DejaVuSans-30" transform="translate(127.246094 0)"/>
      </g>
     </g>
    </g>
    <g id="xtick_8">
     <g id="line2d_8">
      <g>
       <use xlink:href="#m6aed670c97" x="796.417816" y="390.04" style="stroke: #000000; stroke-width: 0.8"/>
      </g>
     </g>
     <g id="text_8">
      <!-- 350 -->
      <g transform="translate(786.874066 404.638438) scale(0.1 -0.1)">
       <use xlink:href="#DejaVuSans-33"/>
       <use xlink:href="#DejaVuSans-35" transform="translate(63.623047 0)"/>
       <use xlink:href="#DejaVuSans-30" transform="translate(127.246094 0)"/>
      </g>
     </g>
    </g>
    <g id="text_9">
     <!-- Timestamp (Seconds) -->
     <g transform="translate(397.264155 418.316562) scale(0.1 -0.1)">
      <defs>
       <path id="DejaVuSans-54" d="M -19 4666 
L 3928 4666 
L 3928 4134 
L 2272 4134 
L 2272 0 
L 1638 0 
L 1638 4134 
L -19 4134 
L -19 4666 
z
" transform="scale(0.015625)"/>
       <path id="DejaVuSans-69" d="M 603 3500 
L 1178 3500 
L 1178 0 
L 603 0 
L 603 3500 
z
M 603 4863 
L 1178 4863 
L 1178 4134 
L 603 4134 
L 603 4863 
z
" transform="scale(0.015625)"/>
       <path id="DejaVuSans-6d" d="M 3328 2828 
Q 3544 3216 3844 3400 
Q 4144 3584 4550 3584 
Q 5097 3584 5394 3201 
Q 5691 2819 5691 2113 
L 5691 0 
L 5113 0 
L 5113 2094 
Q 5113 2597 4934 2840 
Q 4756 3084 4391 3084 
Q 3944 3084 3684 2787 
Q 3425 2491 3425 1978 
L 3425 0 
L 2847 0 
L 2847 2094 
Q 2847 2600 2669 2842 
Q 2491 3084 2119 3084 
Q 1678 3084 1418 2786 
Q 1159 2488 1159 1978 
L 1159 0 
L 581 0 
L 581 3500 
L 1159 3500 
L 1159 2956 
Q 1356 3278 1631 3431 
Q 1906 3584 2284 3584 
Q 2666 3584 2933 3390 
Q 3200 3197 3328 2828 
z
" transform="scale(0.015625)"/>
       <path id="DejaVuSans-65" d="M 3597 1894 
L 3597 1613 
L 953 1613 
Q 991 1019 1311 708 
Q 1631 397 2203 397 
Q 2534 397 2845 478 
Q 3156 559 3463 722 
L 3463 178 
Q 3153 47 2828 -22 
Q 2503 -91 2169 -91 
Q 1331 -91 842 396 
Q 353 884 353 1716 
Q 353 2575 817 3079 
Q 1281 3584 2069 3584 
Q 2775 3584 3186 3129 
Q 3597 2675 3597 1894 
z
M 3022 2063 
Q 3016 2534 2758 2815 
Q 2500 3097 2075 3097 
Q 1594 3097 1305 2825 
Q 1016 2553 972 2059 
L 3022 2063 
z
" transform="scale(0.015625)"/>
       <path id="DejaVuSans-73" d="M 2834 3397 
L 2834 2853 
Q 2591 2978 2328 3040 
Q 2066 3103 1784 3103 
Q 1356 3103 1142 2972 
Q 928 2841 928 2578 
Q 928 2378 1081 2264 
Q 1234 2150 1697 2047 
L 1894 2003 
Q 2506 1872 2764 1633 
Q 3022 1394 3022 966 
Q 3022 478 2636 193 
Q 2250 -91 1575 -91 
Q 1294 -91 989 -36 
Q 684 19 347 128 
L 347 722 
Q 666 556 975 473 
Q 1284 391 1588 391 
Q 1994 391 2212 530 
Q 2431 669 2431 922 
Q 2431 1156 2273 1281 
Q 2116 1406 1581 1522 
L 1381 1569 
Q 847 1681 609 1914 
Q 372 2147 372 2553 
Q 372 3047 722 3315 
Q 1072 3584 1716 3584 
Q 2034 3584 2315 3537 
Q 2597 3491 2834 3397 
z
" transform="scale(0.015625)"/>
       <path id="DejaVuSans-74" d="M 1172 4494 
L 1172 3500 
L 2356 3500 
L 2356 3053 
L 1172 3053 
L 1172 1153 
Q 1172 725 1289 603 
Q 1406 481 1766 481 
L 2356 481 
L 2356 0 
L 1766 0 
Q 1100 0 847 248 
Q 594 497 594 1153 
L 594 3053 
L 172 3053 
L 172 3500 
L 594 3500 
L 594 4494 
L 1172 4494 
z
" transform="scale(0.015625)"/>
       <path id="DejaVuSans-61" d="M 2194 1759 
Q 1497 1759 1228 1600 
Q 959 1441 959 1056 
Q 959 750 1161 570 
Q 1363 391 1709 391 
Q 2188 391 2477 730 
Q 2766 1069 2766 1631 
L 2766 1759 
L 2194 1759 
z
M 3341 1997 
L 3341 0 
L 2766 0 
L 2766 531 
Q 2569 213 2275 61 
Q 1981 -91 1556 -91 
Q 1019 -91 701 211 
Q 384 513 384 1019 
Q 384 1609 779 1909 
Q 1175 2209 1959 2209 
L 2766 2209 
L 2766 2266 
Q 2766 2663 2505 2880 
Q 2244 3097 1772 3097 
Q 1472 3097 1187 3025 
Q 903 2953 641 2809 
L 641 3341 
Q 956 3463 1253 3523 
Q 1550 3584 1831 3584 
Q 2591 3584 2966 3190 
Q 3341 2797 3341 1997 
z
" transform="scale(0.015625)"/>
       <path id="DejaVuSans-70" d="M 1159 525 
L 1159 -1331 
L 581 -1331 
L 581 3500 
L 1159 3500 
L 1159 2969 
Q 1341 3281 1617 3432 
Q 1894 3584 2278 3584 
Q 2916 3584 3314 3078 
Q 3713 2572 3713 1747 
Q 3713 922 3314 415 
Q 2916 -91 2278 -91 
Q 1894 -91 1617 61 
Q 1341 213 1159 525 
z
M 3116 1747 
Q 3116 2381 2855 2742 
Q 2594 3103 2138 3103 
Q 1681 3103 1420 2742 
Q 1159 2381 1159 1747 
Q 1159 1113 1420 752 
Q 1681 391 2138 391 
Q 2594 391 2855 752 
Q 3116 1113 3116 1747 
z
" transform="scale(0.015625)"/>
       <path id="DejaVuSans-20" transform="scale(0.015625)"/>
       <path id="DejaVuSans-28" d="M 1984 4856 
Q 1566 4138 1362 3434 
Q 1159 2731 1159 2009 
Q 1159 1288 1364 580 
Q 1569 -128 1984 -844 
L 1484 -844 
Q 1016 -109 783 600 
Q 550 1309 550 2009 
Q 550 2706 781 3412 
Q 1013 4119 1484 4856 
L 1984 4856 
z
" transform="scale(0.015625)"/>
       <path id="DejaVuSans-53" d="M 3425 4513 
L 3425 3897 
Q 3066 4069 2747 4153 
Q 2428 4238 2131 4238 
Q 1616 4238 1336 4038 
Q 1056 3838 1056 3469 
Q 1056 3159 1242 3001 
Q 1428 2844 1947 2747 
L 2328 2669 
Q 3034 2534 3370 2195 
Q 3706 1856 3706 1288 
Q 3706 609 3251 259 
Q 2797 -91 1919 -91 
Q 1588 -91 1214 -16 
Q 841 59 441 206 
L 441 856 
Q 825 641 1194 531 
Q 1563 422 1919 422 
Q 2459 422 2753 634 
Q 3047 847 3047 1241 
Q 3047 1584 2836 1778 
Q 2625 1972 2144 2069 
L 1759 2144 
Q 1053 2284 737 2584 
Q 422 2884 422 3419 
Q 422 4038 858 4394 
Q 1294 4750 2059 4750 
Q 2388 4750 2728 4690 
Q 3069 4631 3425 4513 
z
" transform="scale(0.015625)"/>
       <path id="DejaVuSans-63" d="M 3122 3366 
L 3122 2828 
Q 2878 2963 2633 3030 
Q 2388 3097 2138 3097 
Q 1578 3097 1268 2742 
Q 959 2388 959 1747 
Q 959 1106 1268 751 
Q 1578 397 2138 397 
Q 2388 397 2633 464 
Q 2878 531 3122 666 
L 3122 134 
Q 2881 22 2623 -34 
Q 2366 -91 2075 -91 
Q 1284 -91 818 406 
Q 353 903 353 1747 
Q 353 2603 823 3093 
Q 1294 3584 2113 3584 
Q 2378 3584 2631 3529 
Q 2884 3475 3122 3366 
z
" transform="scale(0.015625)"/>
       <path id="DejaVuSans-6f" d="M 1959 3097 
Q 1497 3097 1228 2736 
Q 959 2375 959 1747 
Q 959 1119 1226 758 
Q 1494 397 1959 397 
Q 2419 397 2687 759 
Q 2956 1122 2956 1747 
Q 2956 2369 2687 2733 
Q 2419 3097 1959 3097 
z
M 1959 3584 
Q 2709 3584 3137 3096 
Q 3566 2609 3566 1747 
Q 3566 888 3137 398 
Q 2709 -91 1959 -91 
Q 1206 -91 779 398 
Q 353 888 353 1747 
Q 353 2609 779 3096 
Q 1206 3584 1959 3584 
z
" transform="scale(0.015625)"/>
       <path id="DejaVuSans-6e" d="M 3513 2113 
L 3513 0 
L 2938 0 
L 2938 2094 
Q 2938 2591 2744 2837 
Q 2550 3084 2163 3084 
Q 1697 3084 1428 2787 
Q 1159 2491 1159 1978 
L 1159 0 
L 581 0 
L 581 3500 
L 1159 3500 
L 1159 2956 
Q 1366 3272 1645 3428 
Q 1925 3584 2291 3584 
Q 2894 3584 3203 3211 
Q 3513 2838 3513 2113 
z
" transform="scale(0.015625)"/>
       <path id="DejaVuSans-64" d="M 2906 2969 
L 2906 4863 
L 3481 4863 
L 3481 0 
L 2906 0 
L 2906 525 
Q 2725 213 2448 61 
Q 2172 -91 1784 -91 
Q 1150 -91 751 415 
Q 353 922 353 1747 
Q 353 2572 751 3078 
Q 1150 3584 1784 3584 
Q 2172 3584 2448 3432 
Q 2725 3281 2906 2969 
z
M 947 1747 
Q 947 1113 1208 752 
Q 1469 391 1925 391 
Q 2381 391 2643 752 
Q 2906 1113 2906 1747 
Q 2906 2381 2643 2742 
Q 2381 3103 1925 3103 
Q 1469 3103 1208 2742 
Q 947 2381 947 1747 
z
" transform="scale(0.015625)"/>
       <path id="DejaVuSans-29" d="M 513 4856 
L 1013 4856 
Q 1481 4119 1714 3412 
Q 1947 2706 1947 2009 
Q 1947 1309 1714 600 
Q 1481 -109 1013 -844 
L 513 -844 
Q 928 -128 1133 580 
Q 1338 1288 1338 2009 
Q 1338 2731 1133 3434 
Q 928 4138 513 4856 
z
" transform="scale(0.015625)"/>
      </defs>
      <use xlink:href="#DejaVuSans-54"/>
      <use xlink:href="#DejaVuSans-69" transform="translate(57.958984 0)"/>
      <use xlink:href="#DejaVuSans-6d" transform="translate(85.742188 0)"/>
      <use xlink:href="#DejaVuSans-65" transform="translate(183.154297 0)"/>
      <use xlink:href="#DejaVuSans-73" transform="translate(244.677734 0)"/>
      <use xlink:href="#DejaVuSans-74" transform="translate(296.777344 0)"/>
      <use xlink:href="#DejaVuSans-61" transform="translate(335.986328 0)"/>
      <use xlink:href="#DejaVuSans-6d" transform="translate(397.265625 0)"/>
      <use xlink:href="#DejaVuSans-70" transform="translate(494.677734 0)"/>
      <use xlink:href="#DejaVuSans-20" transform="translate(558.154297 0)"/>
      <use xlink:href="#DejaVuSans-28" transform="translate(589.941406 0)"/>
      <use xlink:href="#DejaVuSans-53" transform="translate(628.955078 0)"/>
      <use xlink:href="#DejaVuSans-65" transform="translate(692.431641 0)"/>
      <use xlink:href="#DejaVuSans-63" transform="translate(753.955078 0)"/>
      <use xlink:href="#DejaVuSans-6f" transform="translate(808.935547 0)"/>
      <use xlink:href="#DejaVuSans-6e" transform="translate(870.117188 0)"/>
      <use xlink:href="#DejaVuSans-64" transform="translate(933.496094 0)"/>
      <use xlink:href="#DejaVuSans-73" transform="translate(996.972656 0)"/>
      <use xlink:href="#DejaVuSans-29" transform="translate(1049.072266 0)"/>
     </g>
    </g>
   </g>
   <g id="matplotlib.axis_2">
    <g id="ytick_1">
     <g id="line2d_9">
      <defs>
       <path id="m85b9109379" d="M 0 0 
L -3.5 0 
" style="stroke: #000000; stroke-width: 0.8"/>
      </defs>
      <g>
       <use xlink:href="#m85b9109379" x="50.137685" y="299.085963" style="stroke: #000000; stroke-width: 0.8"/>
      </g>
     </g>
     <g id="text_10">
      <!-- $\mathdefault{10^{2}}$ -->
      <g transform="translate(25.537685 302.885181) scale(0.1 -0.1)">
       <use xlink:href="#DejaVuSans-31" transform="translate(0 0.765625)"/>
       <use xlink:href="#DejaVuSans-30" transform="translate(63.623047 0.765625)"/>
       <use xlink:href="#DejaVuSans-32" transform="translate(128.203125 39.046875) scale(0.7)"/>
      </g>
     </g>
    </g>
    <g id="ytick_2">
     <g id="line2d_10">
      <g>
       <use xlink:href="#m85b9109379" x="50.137685" y="187.187693" style="stroke: #000000; stroke-width: 0.8"/>
      </g>
     </g>
     <g id="text_11">
      <!-- $\mathdefault{10^{3}}$ -->
      <g transform="translate(25.537685 190.986911) scale(0.1 -0.1)">
       <use xlink:href="#DejaVuSans-31" transform="translate(0 0.765625)"/>
       <use xlink:href="#DejaVuSans-30" transform="translate(63.623047 0.765625)"/>
       <use xlink:href="#DejaVuSans-33" transform="translate(128.203125 39.046875) scale(0.7)"/>
      </g>
     </g>
    </g>
    <g id="ytick_3">
     <g id="line2d_11">
      <g>
       <use xlink:href="#m85b9109379" x="50.137685" y="75.289423" style="stroke: #000000; stroke-width: 0.8"/>
      </g>
     </g>
     <g id="text_12">
      <!-- $\mathdefault{10^{4}}$ -->
      <g transform="translate(25.537685 79.088641) scale(0.1 -0.1)">
       <defs>
        <path id="DejaVuSans-34" d="M 2419 4116 
L 825 1625 
L 2419 1625 
L 2419 4116 
z
M 2253 4666 
L 3047 4666 
L 3047 1625 
L 3713 1625 
L 3713 1100 
L 3047 1100 
L 3047 0 
L 2419 0 
L 2419 1100 
L 313 1100 
L 313 1709 
L 2253 4666 
z
" transform="scale(0.015625)"/>
       </defs>
       <use xlink:href="#DejaVuSans-31" transform="translate(0 0.684375)"/>
       <use xlink:href="#DejaVuSans-30" transform="translate(63.623047 0.684375)"/>
       <use xlink:href="#DejaVuSans-34" transform="translate(128.203125 38.965625) scale(0.7)"/>
      </g>
     </g>
    </g>
    <g id="ytick_4">
     <g id="line2d_12">
      <defs>
       <path id="m233d2d34b8" d="M 0 0 
L -2 0 
" style="stroke: #000000; stroke-width: 0.6"/>
      </defs>
      <g>
       <use xlink:href="#m233d2d34b8" x="50.137685" y="377.299497" style="stroke: #000000; stroke-width: 0.6"/>
      </g>
     </g>
    </g>
    <g id="ytick_5">
     <g id="line2d_13">
      <g>
       <use xlink:href="#m233d2d34b8" x="50.137685" y="357.59519" style="stroke: #000000; stroke-width: 0.6"/>
      </g>
     </g>
    </g>
    <g id="ytick_6">
     <g id="line2d_14">
      <g>
       <use xlink:href="#m233d2d34b8" x="50.137685" y="343.614761" style="stroke: #000000; stroke-width: 0.6"/>
      </g>
     </g>
    </g>
    <g id="ytick_7">
     <g id="line2d_15">
      <g>
       <use xlink:href="#m233d2d34b8" x="50.137685" y="332.770698" style="stroke: #000000; stroke-width: 0.6"/>
      </g>
     </g>
    </g>
    <g id="ytick_8">
     <g id="line2d_16">
      <g>
       <use xlink:href="#m233d2d34b8" x="50.137685" y="323.910454" style="stroke: #000000; stroke-width: 0.6"/>
      </g>
     </g>
    </g>
    <g id="ytick_9">
     <g id="line2d_17">
      <g>
       <use xlink:href="#m233d2d34b8" x="50.137685" y="316.419224" style="stroke: #000000; stroke-width: 0.6"/>
      </g>
     </g>
    </g>
    <g id="ytick_10">
     <g id="line2d_18">
      <g>
       <use xlink:href="#m233d2d34b8" x="50.137685" y="309.930025" style="stroke: #000000; stroke-width: 0.6"/>
      </g>
     </g>
    </g>
    <g id="ytick_11">
     <g id="line2d_19">
      <g>
       <use xlink:href="#m233d2d34b8" x="50.137685" y="304.206147" style="stroke: #000000; stroke-width: 0.6"/>
      </g>
     </g>
    </g>
    <g id="ytick_12">
     <g id="line2d_20">
      <g>
       <use xlink:href="#m233d2d34b8" x="50.137685" y="265.401227" style="stroke: #000000; stroke-width: 0.6"/>
      </g>
     </g>
    </g>
    <g id="ytick_13">
     <g id="line2d_21">
      <g>
       <use xlink:href="#m233d2d34b8" x="50.137685" y="245.69692" style="stroke: #000000; stroke-width: 0.6"/>
      </g>
     </g>
    </g>
    <g id="ytick_14">
     <g id="line2d_22">
      <g>
       <use xlink:href="#m233d2d34b8" x="50.137685" y="231.716491" style="stroke: #000000; stroke-width: 0.6"/>
      </g>
     </g>
    </g>
    <g id="ytick_15">
     <g id="line2d_23">
      <g>
       <use xlink:href="#m233d2d34b8" x="50.137685" y="220.872428" style="stroke: #000000; stroke-width: 0.6"/>
      </g>
     </g>
    </g>
    <g id="ytick_16">
     <g id="line2d_24">
      <g>
       <use xlink:href="#m233d2d34b8" x="50.137685" y="212.012184" style="stroke: #000000; stroke-width: 0.6"/>
      </g>
     </g>
    </g>
    <g id="ytick_17">
     <g id="line2d_25">
      <g>
       <use xlink:href="#m233d2d34b8" x="50.137685" y="204.520954" style="stroke: #000000; stroke-width: 0.6"/>
      </g>
     </g>
    </g>
    <g id="ytick_18">
     <g id="line2d_26">
      <g>
       <use xlink:href="#m233d2d34b8" x="50.137685" y="198.031755" style="stroke: #000000; stroke-width: 0.6"/>
      </g>
     </g>
    </g>
    <g id="ytick_19">
     <g id="line2d_27">
      <g>
       <use xlink:href="#m233d2d34b8" x="50.137685" y="192.307877" style="stroke: #000000; stroke-width: 0.6"/>
      </g>
     </g>
    </g>
    <g id="ytick_20">
     <g id="line2d_28">
      <g>
       <use xlink:href="#m233d2d34b8" x="50.137685" y="153.502957" style="stroke: #000000; stroke-width: 0.6"/>
      </g>
     </g>
    </g>
    <g id="ytick_21">
     <g id="line2d_29">
      <g>
       <use xlink:href="#m233d2d34b8" x="50.137685" y="133.79865" style="stroke: #000000; stroke-width: 0.6"/>
      </g>
     </g>
    </g>
    <g id="ytick_22">
     <g id="line2d_30">
      <g>
       <use xlink:href="#m233d2d34b8" x="50.137685" y="119.818221" style="stroke: #000000; stroke-width: 0.6"/>
      </g>
     </g>
    </g>
    <g id="ytick_23">
     <g id="line2d_31">
      <g>
       <use xlink:href="#m233d2d34b8" x="50.137685" y="108.974158" style="stroke: #000000; stroke-width: 0.6"/>
      </g>
     </g>
    </g>
    <g id="ytick_24">
     <g id="line2d_32">
      <g>
       <use xlink:href="#m233d2d34b8" x="50.137685" y="100.113914" style="stroke: #000000; stroke-width: 0.6"/>
      </g>
     </g>
    </g>
    <g id="ytick_25">
     <g id="line2d_33">
      <g>
       <use xlink:href="#m233d2d34b8" x="50.137685" y="92.622684" style="stroke: #000000; stroke-width: 0.6"/>
      </g>
     </g>
    </g>
    <g id="ytick_26">
     <g id="line2d_34">
      <g>
       <use xlink:href="#m233d2d34b8" x="50.137685" y="86.133485" style="stroke: #000000; stroke-width: 0.6"/>
      </g>
     </g>
    </g>
    <g id="ytick_27">
     <g id="line2d_35">
      <g>
       <use xlink:href="#m233d2d34b8" x="50.137685" y="80.409607" style="stroke: #000000; stroke-width: 0.6"/>
      </g>
     </g>
    </g>
    <g id="text_13">
     <!-- Avg Duration (ms) -->
     <g transform="translate(19.457997 261.478469) rotate(-90) scale(0.1 -0.1)">
      <defs>
       <path id="DejaVuSans-41" d="M 2188 4044 
L 1331 1722 
L 3047 1722 
L 2188 4044 
z
M 1831 4666 
L 2547 4666 
L 4325 0 
L 3669 0 
L 3244 1197 
L 1141 1197 
L 716 0 
L 50 0 
L 1831 4666 
z
" transform="scale(0.015625)"/>
       <path id="DejaVuSans-76" d="M 191 3500 
L 800 3500 
L 1894 563 
L 2988 3500 
L 3597 3500 
L 2284 0 
L 1503 0 
L 191 3500 
z
" transform="scale(0.015625)"/>
       <path id="DejaVuSans-67" d="M 2906 1791 
Q 2906 2416 2648 2759 
Q 2391 3103 1925 3103 
Q 1463 3103 1205 2759 
Q 947 2416 947 1791 
Q 947 1169 1205 825 
Q 1463 481 1925 481 
Q 2391 481 2648 825 
Q 2906 1169 2906 1791 
z
M 3481 434 
Q 3481 -459 3084 -895 
Q 2688 -1331 1869 -1331 
Q 1566 -1331 1297 -1286 
Q 1028 -1241 775 -1147 
L 775 -588 
Q 1028 -725 1275 -790 
Q 1522 -856 1778 -856 
Q 2344 -856 2625 -561 
Q 2906 -266 2906 331 
L 2906 616 
Q 2728 306 2450 153 
Q 2172 0 1784 0 
Q 1141 0 747 490 
Q 353 981 353 1791 
Q 353 2603 747 3093 
Q 1141 3584 1784 3584 
Q 2172 3584 2450 3431 
Q 2728 3278 2906 2969 
L 2906 3500 
L 3481 3500 
L 3481 434 
z
" transform="scale(0.015625)"/>
       <path id="DejaVuSans-44" d="M 1259 4147 
L 1259 519 
L 2022 519 
Q 2988 519 3436 956 
Q 3884 1394 3884 2338 
Q 3884 3275 3436 3711 
Q 2988 4147 2022 4147 
L 1259 4147 
z
M 628 4666 
L 1925 4666 
Q 3281 4666 3915 4102 
Q 4550 3538 4550 2338 
Q 4550 1131 3912 565 
Q 3275 0 1925 0 
L 628 0 
L 628 4666 
z
" transform="scale(0.015625)"/>
       <path id="DejaVuSans-75" d="M 544 1381 
L 544 3500 
L 1119 3500 
L 1119 1403 
Q 1119 906 1312 657 
Q 1506 409 1894 409 
Q 2359 409 2629 706 
Q 2900 1003 2900 1516 
L 2900 3500 
L 3475 3500 
L 3475 0 
L 2900 0 
L 2900 538 
Q 2691 219 2414 64 
Q 2138 -91 1772 -91 
Q 1169 -91 856 284 
Q 544 659 544 1381 
z
M 1991 3584 
L 1991 3584 
z
" transform="scale(0.015625)"/>
       <path id="DejaVuSans-72" d="M 2631 2963 
Q 2534 3019 2420 3045 
Q 2306 3072 2169 3072 
Q 1681 3072 1420 2755 
Q 1159 2438 1159 1844 
L 1159 0 
L 581 0 
L 581 3500 
L 1159 3500 
L 1159 2956 
Q 1341 3275 1631 3429 
Q 1922 3584 2338 3584 
Q 2397 3584 2469 3576 
Q 2541 3569 2628 3553 
L 2631 2963 
z
" transform="scale(0.015625)"/>
      </defs>
      <use xlink:href="#DejaVuSans-41"/>
      <use xlink:href="#DejaVuSans-76" transform="translate(62.533203 0)"/>
      <use xlink:href="#DejaVuSans-67" transform="translate(121.712891 0)"/>
      <use xlink:href="#DejaVuSans-20" transform="translate(185.189453 0)"/>
      <use xlink:href="#DejaVuSans-44" transform="translate(216.976562 0)"/>
      <use xlink:href="#DejaVuSans-75" transform="translate(293.978516 0)"/>
      <use xlink:href="#DejaVuSans-72" transform="translate(357.357422 0)"/>
      <use xlink:href="#DejaVuSans-61" transform="translate(398.470703 0)"/>
      <use xlink:href="#DejaVuSans-74" transform="translate(459.75 0)"/>
      <use xlink:href="#DejaVuSans-69" transform="translate(498.958984 0)"/>
      <use xlink:href="#DejaVuSans-6f" transform="translate(526.742188 0)"/>
      <use xlink:href="#DejaVuSans-6e" transform="translate(587.923828 0)"/>
      <use xlink:href="#DejaVuSans-20" transform="translate(651.302734 0)"/>
      <use xlink:href="#DejaVuSans-28" transform="translate(683.089844 0)"/>
      <use xlink:href="#DejaVuSans-6d" transform="translate(722.103516 0)"/>
      <use xlink:href="#DejaVuSans-73" transform="translate(819.515625 0)"/>
      <use xlink:href="#DejaVuSans-29" transform="translate(871.615234 0)"/>
     </g>
    </g>
   </g>
   <g id="line2d_36">
    <path d="M 86.640517 364.232262 
L 88.668452 366.487976 
L 90.696388 374.213455 
L 92.724323 372.451804 
L 94.752258 372.541174 
L 96.780193 371.212117 
L 98.808128 370.160282 
L 100.836063 370.452613 
L 102.863998 369.275361 
L 104.891934 371.971293 
L 106.919869 365.765077 
L 108.947804 362.399278 
L 110.975739 357.253065 
L 113.003674 357.336985 
L 115.031609 367.600987 
L 117.059544 369.9521 
L 119.08748 369.936416 
L 121.115415 363.296094 
L 123.14335 366.600539 
L 125.171285 364.984601 
L 127.19922 360.488602 
L 129.227155 365.845278 
L 131.25509 365.51264 
L 133.283025 363.870588 
L 135.310961 363.167045 
L 137.338896 364.380617 
L 139.366831 355.802321 
L 141.394766 361.981739 
L 143.422701 353.019754 
L 145.450636 351.929765 
L 147.478571 352.461219 
L 149.506507 354.239953 
L 151.534442 351.649666 
L 153.562377 345.053645 
L 155.590312 355.484305 
L 157.618247 342.578741 
L 159.646182 343.831007 
L 161.674117 346.8672 
L 163.702053 339.94492 
L 165.729988 356.227377 
L 167.757923 355.415152 
L 169.785858 340.390204 
L 171.813793 340.176178 
L 173.841728 345.426345 
L 175.869663 345.61175 
L 177.897599 343.661952 
L 179.925534 343.325417 
L 181.953469 340.815551 
L 183.981404 330.940944 
L 186.009339 328.797523 
L 188.037274 335.619413 
L 190.065209 338.173622 
L 192.093145 335.766184 
L 194.12108 324.870282 
L 196.149015 311.782122 
L 198.17695 316.747633 
L 200.204885 307.616546 
L 202.23282 304.04296 
L 204.260755 298.024912 
L 206.288691 306.231544 
L 208.316626 305.265874 
L 210.344561 287.125658 
L 212.372496 296.638697 
L 214.400431 289.20403 
L 216.428366 235.364377 
L 222.512172 124.914669 
L 230.623912 91.562154 
L 232.651847 129.921624 
L 234.679782 246.079637 
L 236.707718 259.873067 
L 238.735653 267.524993 
L 240.763588 253.33276 
L 242.791523 261.475802 
L 244.819458 257.430972 
L 246.847393 258.436961 
L 248.875328 275.385774 
L 250.903264 270.463721 
L 252.931199 273.881141 
L 254.959134 283.0314 
L 256.987069 269.481958 
L 259.015004 272.755389 
L 261.042939 277.44223 
L 263.070874 277.837869 
L 265.09881 283.626757 
L 267.126745 279.626472 
L 269.15468 282.694723 
L 271.182615 278.643456 
L 273.21055 285.060179 
L 275.238485 275.209954 
L 277.26642 277.554848 
L 279.294356 277.507916 
L 281.322291 277.13956 
L 283.350226 270.069119 
L 285.378161 284.570513 
L 287.406096 273.236633 
L 289.434031 278.287311 
L 291.461966 287.995185 
L 293.489902 276.184567 
L 295.517837 267.130343 
L 297.545772 291.464958 
L 299.573707 274.700058 
L 301.601642 283.628245 
L 303.629577 281.383827 
L 305.657512 265.43404 
L 307.685447 258.929436 
L 309.713383 288.9097 
L 311.741318 256.655468 
L 315.797188 287.935008 
L 317.825123 269.340226 
L 319.853058 260.838562 
L 321.880993 282.639281 
L 323.908929 270.451444 
L 325.936864 262.37573 
L 327.964799 279.739614 
L 329.992734 262.479405 
L 332.020669 269.232128 
L 334.048604 274.219522 
L 336.076539 275.146068 
L 338.104475 271.454383 
L 340.13241 266.980515 
L 342.160345 289.298883 
L 344.18828 263.044258 
L 346.216215 254.185485 
L 348.24415 274.242887 
L 350.272085 234.500207 
L 352.300021 274.167102 
L 354.327956 268.598203 
L 356.355891 270.437776 
L 358.383826 268.452856 
L 360.411761 292.964731 
L 362.439696 271.188204 
L 364.467631 258.966394 
L 366.495567 283.942366 
L 368.523502 271.307174 
L 370.551437 267.297444 
L 372.579372 275.106413 
L 374.607307 259.273787 
L 376.635242 261.025802 
L 378.663177 257.882565 
L 380.691113 275.904849 
L 382.719048 247.609434 
L 384.746983 265.807355 
L 386.774918 279.622889 
L 388.802853 269.779762 
L 390.830788 267.651111 
L 392.858723 279.390575 
L 394.886658 256.538481 
L 396.914594 254.186187 
L 398.942529 286.902063 
L 400.970464 267.233554 
L 402.998399 256.432084 
L 405.026334 263.272078 
L 407.054269 251.846837 
L 409.082204 245.579347 
L 411.11014 279.760319 
L 413.138075 259.86301 
L 415.16601 272.370081 
L 417.193945 274.684179 
L 419.22188 265.822899 
L 421.249815 272.455799 
L 423.27775 265.764271 
L 425.305686 263.554825 
L 427.333621 287.485515 
L 429.361556 263.379039 
L 431.389491 255.733535 
L 433.417426 289.499357 
L 435.445361 255.985297 
L 437.473296 259.493671 
L 439.501232 265.847013 
L 441.529167 252.493682 
L 443.557102 261.146428 
L 445.585037 260.718625 
L 447.612972 289.267243 
L 449.640907 276.336634 
L 451.668842 275.562118 
L 453.696778 280.12139 
L 455.724713 277.297983 
L 457.752648 273.046114 
L 459.780583 279.791127 
L 461.808518 281.058625 
L 463.836453 271.328963 
L 465.864388 277.671006 
L 467.892323 281.311368 
L 469.920259 270.21816 
L 471.948194 270.203197 
L 473.976129 283.483396 
L 476.004064 272.851838 
L 478.031999 276.028699 
L 480.059934 272.086066 
L 482.087869 277.402828 
L 484.115805 274.643324 
L 486.14374 283.797477 
L 488.171675 289.054452 
L 490.19961 282.609393 
L 492.227545 285.47169 
L 494.25548 279.297715 
L 496.283415 275.805699 
L 498.311351 274.376699 
L 500.339286 280.090936 
L 502.367221 271.366011 
L 504.395156 277.084388 
L 506.423091 271.116756 
L 510.478961 264.698284 
L 512.506897 268.010239 
L 514.534832 258.545776 
L 516.562767 259.128925 
L 518.590702 270.539761 
L 520.618637 290.100641 
L 522.646572 268.759668 
L 524.674507 261.693946 
L 526.702443 279.71592 
L 528.730378 277.948656 
L 530.758313 283.311951 
L 532.786248 260.021611 
L 534.814183 276.055939 
L 536.842118 278.582925 
L 538.870053 275.056945 
L 540.897989 277.673192 
L 542.925924 278.542312 
L 544.953859 283.959044 
L 546.981794 275.214331 
L 549.009729 267.142839 
L 551.037664 286.521115 
L 553.065599 288.750255 
L 555.093534 271.2232 
L 557.12147 266.770274 
L 559.149405 278.445988 
L 561.17734 261.435993 
L 563.205275 275.551558 
L 565.23321 279.647756 
L 567.261145 281.322295 
L 569.28908 274.160626 
L 571.317016 265.237445 
L 573.344951 269.222824 
L 575.372886 267.908838 
L 577.400821 267.505651 
L 579.428756 263.476421 
L 581.456691 263.536165 
L 583.484626 270.486101 
L 585.512562 261.847999 
L 587.540497 267.00111 
L 589.568432 282.29241 
L 591.596367 278.483292 
L 593.624302 277.223269 
L 595.652237 276.317869 
L 597.680172 280.334112 
L 599.708108 292.036605 
L 601.736043 290.252794 
L 603.763978 280.700192 
L 605.791913 270.172801 
L 607.819848 281.337935 
L 609.847783 255.932133 
L 611.875718 262.869628 
L 613.903654 276.417769 
L 615.931589 287.813231 
L 617.959524 266.315076 
L 619.987459 266.931262 
L 622.015394 266.407415 
L 624.043329 286.480817 
L 626.071264 257.818307 
L 628.0992 271.305704 
L 630.127135 270.062762 
L 632.15507 274.983282 
L 634.183005 262.955159 
L 638.238875 272.618143 
L 640.26681 263.868763 
L 642.294745 267.676424 
L 644.322681 281.354695 
L 646.350616 278.154309 
L 648.378551 288.999268 
L 650.406486 284.246906 
L 652.434421 284.63933 
L 654.462356 284.628429 
L 656.490291 290.714481 
L 658.518227 284.908726 
L 660.546162 283.665018 
L 662.574097 276.092424 
L 664.602032 260.800459 
L 666.629967 287.877768 
L 668.657902 279.316652 
L 672.713773 267.413413 
L 674.741708 292.276946 
L 676.769643 264.157929 
L 678.797578 269.080496 
L 680.825513 259.06204 
L 682.853448 273.972924 
L 684.881383 277.919295 
L 686.909319 281.480556 
L 688.937254 278.628807 
L 690.965189 283.768858 
L 692.993124 283.189426 
L 695.021059 268.994629 
L 697.048994 258.885357 
L 699.076929 282.8038 
L 701.104865 265.534406 
L 703.1328 276.299375 
L 705.160735 290.002379 
L 707.18867 272.997541 
L 709.216605 283.297813 
L 711.24454 281.90683 
L 713.272475 276.408424 
L 715.300411 269.453106 
L 717.328346 293.274163 
L 719.356281 279.348913 
L 721.384216 277.399988 
L 723.412151 275.005017 
L 725.440086 282.199866 
L 727.468021 277.027268 
L 729.495956 279.222112 
L 731.523892 292.814486 
L 733.551827 290.561169 
L 735.579762 294.424978 
L 737.607697 286.667527 
L 739.635632 300.329415 
L 741.663567 286.311721 
L 743.691502 285.843994 
L 745.719438 271.724531 
L 747.747373 280.063684 
L 749.775308 269.926575 
L 751.803243 271.022624 
L 753.831178 278.999742 
L 755.859113 278.141065 
L 757.887048 275.745218 
L 759.914984 268.790726 
L 761.942919 275.844695 
L 763.970854 292.208404 
L 765.998789 284.895109 
L 768.026724 283.996684 
L 770.054659 288.345748 
L 772.082594 280.189891 
L 774.11053 280.796281 
L 776.138465 331.303358 
L 778.1664 293.889414 
L 780.194335 301.568809 
L 782.22227 312.664926 
L 784.250205 326.668254 
L 786.27814 329.468369 
L 788.306076 328.361057 
L 790.334011 338.157509 
L 792.361946 344.291867 
L 794.389881 359.893371 
L 796.417816 354.022179 
L 798.445751 356.329322 
L 800.473686 359.670358 
L 802.501622 358.129983 
L 804.529557 370.11652 
L 806.557492 362.678591 
L 808.585427 365.529267 
L 810.613362 360.087427 
L 812.641297 365.546983 
L 814.669232 362.641363 
L 816.697167 369.170808 
L 816.697167 369.170808 
" clip-path="url(#pee70ef660d)" style="fill: none; stroke: #1f77b4; stroke-width: 1.5; stroke-linecap: square"/>
   </g>
   <g id="line2d_37">
    <path d="M 86.640517 296.4265 
L 90.696388 298.415412 
L 92.724323 300.011578 
L 94.752258 297.023817 
L 96.780193 300.412775 
L 98.808128 299.155925 
L 100.836063 273.504334 
L 102.863998 294.761857 
L 104.891934 297.311539 
L 106.919869 286.388634 
L 108.947804 263.250845 
L 110.975739 257.696518 
L 113.003674 273.328528 
L 115.031609 274.693523 
L 117.059544 288.261385 
L 119.08748 262.60278 
L 121.115415 275.648926 
L 125.171285 271.49911 
L 127.19922 248.934341 
L 129.227155 268.766517 
L 131.25509 254.443447 
L 133.283025 269.583677 
L 135.310961 272.374066 
L 137.338896 272.560205 
L 139.366831 262.162362 
L 141.394766 257.745433 
L 143.422701 245.649958 
L 145.450636 260.756036 
L 147.478571 231.850893 
L 149.506507 244.306039 
L 151.534442 231.01672 
L 153.562377 231.069336 
L 155.590312 229.413082 
L 157.618247 231.945278 
L 159.646182 214.365702 
L 161.674117 239.343479 
L 163.702053 196.441989 
L 165.729988 204.961563 
L 167.757923 207.22939 
L 169.785858 201.434808 
L 171.813793 205.383236 
L 173.841728 189.722373 
L 175.869663 189.452182 
L 177.897599 198.358799 
L 179.925534 191.852195 
L 181.953469 190.818182 
L 183.981404 178.910375 
L 186.009339 173.095964 
L 188.037274 181.127252 
L 190.065209 187.740158 
L 192.093145 178.60892 
L 194.12108 173.678182 
L 196.149015 176.265469 
L 198.17695 169.192626 
L 200.204885 168.432094 
L 202.23282 173.917253 
L 204.260755 172.642584 
L 206.288691 167.22193 
L 208.316626 164.688107 
L 210.344561 169.843835 
L 212.372496 179.78034 
L 214.400431 164.418744 
L 216.428366 162.699169 
L 218.456301 166.601233 
L 220.484236 171.790198 
L 222.512172 166.948694 
L 224.540107 163.874292 
L 226.568042 171.193609 
L 228.595977 173.639026 
L 230.623912 173.617721 
L 232.651847 185.89419 
L 234.679782 168.781129 
L 236.707718 166.021615 
L 238.735653 177.574052 
L 240.763588 173.561432 
L 242.791523 171.213469 
L 244.819458 167.362911 
L 246.847393 167.551592 
L 248.875328 149.363593 
L 250.903264 152.224948 
L 252.931199 141.728522 
L 256.987069 161.395631 
L 259.015004 184.259013 
L 263.070874 153.384281 
L 265.09881 160.224029 
L 267.126745 168.773657 
L 269.15468 166.830016 
L 271.182615 158.317103 
L 273.21055 162.981181 
L 275.238485 158.450039 
L 277.26642 156.519241 
L 279.294356 157.576777 
L 281.322291 153.647544 
L 285.378161 198.078232 
L 287.406096 148.471168 
L 289.434031 131.700356 
L 291.461966 130.136333 
L 293.489902 137.555529 
L 295.517837 161.906145 
L 297.545772 162.452575 
L 299.573707 161.569618 
L 301.601642 156.42436 
L 303.629577 156.901615 
L 305.657512 155.288705 
L 309.713383 169.425761 
L 311.741318 155.437546 
L 313.769253 160.285901 
L 315.797188 154.605002 
L 317.825123 163.514126 
L 319.853058 149.893974 
L 321.880993 158.691774 
L 323.908929 159.600524 
L 325.936864 163.998424 
L 327.964799 161.788634 
L 329.992734 165.157227 
L 332.020669 154.437781 
L 334.048604 157.137293 
L 336.076539 161.640967 
L 338.104475 164.404377 
L 340.13241 157.684733 
L 342.160345 149.509914 
L 344.18828 148.592357 
L 346.216215 158.296414 
L 348.24415 162.643418 
L 350.272085 158.800659 
L 352.300021 160.14123 
L 354.327956 155.551129 
L 356.355891 150.605625 
L 358.383826 146.815272 
L 360.411761 155.582044 
L 362.439696 168.044585 
L 364.467631 159.558858 
L 366.495567 158.200489 
L 368.523502 145.116327 
L 370.551437 155.796454 
L 372.579372 158.705957 
L 374.607307 159.216061 
L 376.635242 157.041088 
L 378.663177 155.262217 
L 380.691113 161.024769 
L 382.719048 149.587814 
L 384.746983 153.643443 
L 386.774918 156.856404 
L 388.802853 150.228142 
L 390.830788 155.170346 
L 392.858723 151.687713 
L 394.886658 141.819164 
L 396.914594 155.863671 
L 398.942529 148.09783 
L 400.970464 164.151365 
L 402.998399 152.481966 
L 405.026334 135.242296 
L 407.054269 153.832448 
L 409.082204 179.963652 
L 411.11014 158.350256 
L 413.138075 159.269626 
L 415.16601 166.18022 
L 417.193945 156.790831 
L 419.22188 140.743736 
L 421.249815 141.696632 
L 423.27775 150.244372 
L 425.305686 167.179918 
L 427.333621 153.715165 
L 429.361556 157.588504 
L 431.389491 147.696785 
L 433.417426 133.281845 
L 435.445361 144.470323 
L 437.473296 130.225601 
L 439.501232 127.539801 
L 441.529167 142.902952 
L 443.557102 183.891549 
L 445.585037 168.247763 
L 447.612972 149.705275 
L 449.640907 145.956955 
L 451.668842 165.00259 
L 453.696778 146.433517 
L 455.724713 151.94146 
L 457.752648 153.089866 
L 459.780583 157.379833 
L 461.808518 180.165196 
L 465.864388 131.529966 
L 467.892323 123.153962 
L 469.920259 113.2017 
L 471.948194 111.821316 
L 473.976129 131.864068 
L 476.004064 144.329807 
L 478.031999 172.574889 
L 480.059934 154.557052 
L 482.087869 153.805245 
L 484.115805 155.895553 
L 486.14374 160.616295 
L 488.171675 145.971271 
L 490.19961 148.987778 
L 492.227545 149.367853 
L 494.25548 176.539941 
L 496.283415 159.12076 
L 498.311351 157.564868 
L 500.339286 122.308285 
L 502.367221 138.406987 
L 504.395156 246.585485 
L 506.423091 182.060187 
L 508.451026 164.290944 
L 510.478961 140.230814 
L 512.506897 137.639656 
L 514.534832 152.34294 
L 516.562767 178.553574 
L 518.590702 154.320983 
L 520.618637 151.154217 
L 522.646572 140.492462 
L 524.674507 143.953715 
L 526.702443 152.877088 
L 528.730378 176.955946 
L 530.758313 156.325453 
L 532.786248 137.255395 
L 534.814183 154.296075 
L 536.842118 176.756784 
L 538.870053 160.975513 
L 540.897989 141.600945 
L 542.925924 147.788571 
L 544.953859 149.682385 
L 546.981794 148.158269 
L 549.009729 142.739941 
L 551.037664 145.809176 
L 553.065599 148.514872 
L 555.093534 176.895817 
L 557.12147 170.907172 
L 559.149405 140.514132 
L 561.17734 157.1225 
L 563.205275 168.200605 
L 565.23321 170.363229 
L 567.261145 145.359056 
L 569.28908 131.422762 
L 571.317016 141.969478 
L 573.344951 176.0525 
L 575.372886 168.375295 
L 577.400821 152.044885 
L 579.428756 143.02047 
L 581.456691 142.583081 
L 583.484626 141.046077 
L 587.540497 137.265866 
L 589.568432 174.131078 
L 591.596367 195.212318 
L 593.624302 165.706157 
L 595.652237 148.038921 
L 597.680172 149.732841 
L 599.708108 147.343123 
L 601.736043 145.828239 
L 603.763978 151.780359 
L 605.791913 148.411278 
L 607.819848 166.223841 
L 609.847783 157.913094 
L 611.875718 150.888617 
L 613.903654 158.77322 
L 615.931589 154.641413 
L 617.959524 159.54243 
L 619.987459 146.646412 
L 622.015394 134.566171 
L 624.043329 146.467535 
L 626.071264 161.381136 
L 628.0992 182.489083 
L 630.127135 161.309667 
L 632.15507 144.751757 
L 634.183005 153.996577 
L 636.21094 157.970778 
L 638.238875 151.672942 
L 640.26681 167.326483 
L 642.294745 166.631505 
L 644.322681 155.495629 
L 646.350616 129.789683 
L 648.378551 128.186038 
L 650.406486 151.458771 
L 652.434421 169.670384 
L 654.462356 162.277648 
L 656.490291 141.84039 
L 658.518227 132.745409 
L 660.546162 143.97552 
L 662.574097 195.822676 
L 664.602032 159.460788 
L 666.629967 148.842262 
L 668.657902 142.413431 
L 670.685837 160.858402 
L 672.713773 166.085515 
L 674.741708 154.939673 
L 676.769643 141.656577 
L 678.797578 146.324112 
L 680.825513 170.585415 
L 682.853448 165.851329 
L 684.881383 144.425249 
L 686.909319 143.398823 
L 688.937254 137.361548 
L 690.965189 156.923897 
L 692.993124 190.824984 
L 695.021059 161.10317 
L 697.048994 145.079597 
L 699.076929 149.512897 
L 701.104865 155.427062 
L 703.1328 158.767109 
L 705.160735 160.465419 
L 707.18867 150.336821 
L 709.216605 158.685742 
L 711.24454 182.31076 
L 713.272475 161.483627 
L 715.300411 173.847247 
L 717.328346 170.267889 
L 719.356281 169.150722 
L 721.384216 157.301855 
L 723.412151 185.419839 
L 725.440086 183.022176 
L 727.468021 167.769401 
L 729.495956 164.081807 
L 731.523892 171.087983 
L 733.551827 186.528705 
L 735.579762 156.940844 
L 737.607697 181.155337 
L 739.635632 195.541402 
L 741.663567 197.140757 
L 743.691502 183.525006 
L 745.719438 165.005049 
L 747.747373 156.29639 
L 749.775308 190.78313 
L 751.803243 197.984677 
L 753.831178 191.340113 
L 755.859113 193.181578 
L 757.887048 225.690846 
L 759.914984 211.786435 
L 761.942919 205.076756 
L 763.970854 215.986584 
L 765.998789 221.350716 
L 768.026724 216.978676 
L 770.054659 240.850459 
L 772.082594 225.47934 
L 774.11053 268.745062 
L 776.138465 249.214938 
L 780.194335 269.626673 
L 782.22227 268.160973 
L 784.250205 278.976912 
L 786.27814 281.849941 
L 788.306076 264.432855 
L 790.334011 276.422368 
L 792.361946 277.872901 
L 794.389881 296.595276 
L 796.417816 295.954336 
L 798.445751 276.319227 
L 800.473686 293.96853 
L 802.501622 290.490496 
L 804.529557 299.508552 
L 806.557492 280.102022 
L 808.585427 293.761674 
L 810.613362 285.227026 
L 812.641297 296.13222 
L 814.669232 300.775126 
L 816.697167 299.313205 
L 816.697167 299.313205 
" clip-path="url(#pee70ef660d)" style="fill: none; stroke: #ff7f0e; stroke-width: 1.5; stroke-linecap: square"/>
   </g>
   <g id="line2d_38">
    <path d="M 86.640517 257.908538 
L 88.668452 241.834108 
L 90.696388 260.540199 
L 92.724323 272.631648 
L 96.780193 252.659816 
L 98.808128 275.9837 
L 100.836063 235.323741 
L 102.863998 256.174368 
L 104.891934 241.808195 
L 106.919869 258.722871 
L 108.947804 223.571019 
L 110.975739 222.556213 
L 113.003674 215.22017 
L 115.031609 234.199693 
L 117.059544 207.863593 
L 119.08748 218.873511 
L 121.115415 200.312717 
L 123.14335 194.467512 
L 125.171285 208.462698 
L 127.19922 192.50333 
L 129.227155 195.089026 
L 131.25509 198.085571 
L 133.283025 186.451191 
L 135.310961 182.395521 
L 137.338896 186.915005 
L 139.366831 177.140037 
L 141.394766 174.701013 
L 143.422701 171.265292 
L 145.450636 170.982435 
L 147.478571 176.402338 
L 149.506507 173.055531 
L 151.534442 159.724741 
L 153.562377 153.366151 
L 155.590312 149.333854 
L 157.618247 131.534967 
L 161.674117 140.074112 
L 163.702053 155.640499 
L 165.729988 149.108221 
L 167.757923 136.068601 
L 169.785858 130.209761 
L 171.813793 128.75154 
L 173.841728 123.819183 
L 175.869663 140.264506 
L 177.897599 120.781936 
L 179.925534 121.26888 
L 181.953469 119.980565 
L 183.981404 120.1221 
L 186.009339 110.002033 
L 188.037274 119.749784 
L 190.065209 120.553405 
L 192.093145 110.218166 
L 194.12108 107.368113 
L 196.149015 104.882471 
L 198.17695 104.172582 
L 200.204885 108.742428 
L 202.23282 109.852949 
L 204.260755 106.768498 
L 206.288691 102.178742 
L 208.316626 101.224663 
L 210.344561 101.320575 
L 212.372496 95.618259 
L 214.400431 96.888078 
L 216.428366 90.869812 
L 218.456301 104.814051 
L 220.484236 103.122228 
L 222.512172 93.876979 
L 224.540107 97.50127 
L 226.568042 100.516108 
L 228.595977 97.450769 
L 230.623912 98.703888 
L 232.651847 98.09458 
L 234.679782 100.817394 
L 236.707718 106.680334 
L 238.735653 99.187037 
L 240.763588 97.415107 
L 242.791523 99.280845 
L 244.819458 104.235488 
L 248.875328 95.084479 
L 250.903264 111.401566 
L 252.931199 108.529378 
L 254.959134 108.361625 
L 256.987069 92.629629 
L 259.015004 92.015401 
L 261.042939 94.634101 
L 263.070874 104.465994 
L 265.09881 98.240674 
L 267.126745 101.320735 
L 269.15468 115.198353 
L 271.182615 107.129549 
L 273.21055 104.829351 
L 275.238485 99.099772 
L 277.26642 103.105946 
L 279.294356 88.60331 
L 281.322291 100.611808 
L 283.350226 107.474316 
L 285.378161 107.871996 
L 287.406096 99.384483 
L 289.434031 99.995708 
L 291.461966 96.552215 
L 293.489902 96.571941 
L 295.517837 92.301832 
L 297.545772 100.722286 
L 299.573707 114.242119 
L 301.601642 121.067069 
L 303.629577 114.561162 
L 305.657512 104.208939 
L 307.685447 99.981744 
L 309.713383 99.770316 
L 311.741318 99.348754 
L 313.769253 93.553879 
L 315.797188 98.643858 
L 317.825123 88.477281 
L 319.853058 106.749272 
L 321.880993 104.40099 
L 323.908929 104.810417 
L 325.936864 98.281874 
L 327.964799 98.680405 
L 329.992734 98.305684 
L 332.020669 96.3963 
L 334.048604 99.952406 
L 336.076539 102.871309 
L 338.104475 101.639095 
L 340.13241 96.886848 
L 342.160345 101.045199 
L 344.18828 96.726011 
L 346.216215 94.564385 
L 348.24415 96.110196 
L 350.272085 104.432592 
L 352.300021 98.973401 
L 354.327956 101.625799 
L 356.355891 112.028823 
L 358.383826 117.232804 
L 360.411761 113.782174 
L 362.439696 115.246293 
L 364.467631 112.71226 
L 366.495567 114.3806 
L 368.523502 105.008888 
L 370.551437 109.279153 
L 372.579372 104.930179 
L 374.607307 102.049933 
L 376.635242 88.537734 
L 378.663177 93.553172 
L 380.691113 88.574394 
L 382.719048 100.220755 
L 384.746983 79.314862 
L 386.774918 85.037479 
L 388.802853 93.253416 
L 390.830788 57.682545 
L 392.858723 92.71529 
L 394.886658 86.06027 
L 396.914594 99.397372 
L 398.942529 95.437754 
L 400.970464 99.205905 
L 402.998399 95.780983 
L 405.026334 98.299829 
L 407.054269 97.440263 
L 409.082204 105.043096 
L 411.11014 98.923569 
L 413.138075 101.150561 
L 415.16601 94.558735 
L 417.193945 98.747649 
L 419.22188 94.614017 
L 421.249815 87.753937 
L 423.27775 88.680796 
L 425.305686 95.196594 
L 427.333621 95.33099 
L 429.361556 106.55574 
L 431.389491 91.164869 
L 435.445361 114.286027 
L 437.473296 106.37391 
L 439.501232 112.692906 
L 441.529167 91.464946 
L 443.557102 100.27742 
L 445.585037 95.560727 
L 447.612972 96.870898 
L 449.640907 93.257782 
L 451.668842 87.051237 
L 453.696778 83.46035 
L 455.724713 89.348833 
L 457.752648 97.68114 
L 461.808518 97.377268 
L 463.836453 94.1418 
L 465.864388 89.88794 
L 467.892323 100.213513 
L 469.920259 82.795511 
L 471.948194 96.083539 
L 473.976129 96.014864 
L 476.004064 99.229165 
L 480.059934 93.17737 
L 482.087869 92.315155 
L 484.115805 95.938572 
L 486.14374 95.71991 
L 488.171675 102.491607 
L 490.19961 101.170392 
L 492.227545 102.732297 
L 494.25548 96.0554 
L 496.283415 97.240565 
L 500.339286 109.295129 
L 502.367221 103.090475 
L 504.395156 100.778625 
L 506.423091 106.802693 
L 508.451026 98.661469 
L 510.478961 106.949042 
L 512.506897 98.338925 
L 514.534832 98.650153 
L 516.562767 97.403076 
L 518.590702 98.514276 
L 520.618637 92.160667 
L 522.646572 99.221446 
L 526.702443 110.588854 
L 528.730378 99.847639 
L 530.758313 98.467195 
L 532.786248 95.715045 
L 534.814183 97.2306 
L 536.842118 90.0816 
L 538.870053 91.420425 
L 540.897989 98.410364 
L 542.925924 99.943523 
L 544.953859 99.055082 
L 546.981794 99.206372 
L 549.009729 96.526715 
L 551.037664 100.817528 
L 553.065599 99.812541 
L 555.093534 97.144859 
L 557.12147 108.861427 
L 559.149405 102.028078 
L 561.17734 97.975838 
L 563.205275 101.18472 
L 565.23321 95.064986 
L 567.261145 99.147201 
L 569.28908 101.722175 
L 573.344951 113.548547 
L 575.372886 106.119683 
L 577.400821 109.758003 
L 579.428756 98.971708 
L 581.456691 103.031184 
L 583.484626 93.808807 
L 585.512562 103.411375 
L 587.540497 117.909867 
L 589.568432 103.295311 
L 591.596367 104.386183 
L 593.624302 103.574501 
L 595.652237 95.553503 
L 597.680172 95.714584 
L 599.708108 98.295909 
L 601.736043 110.198498 
L 603.763978 108.855352 
L 605.791913 112.492315 
L 609.847783 105.337227 
L 611.875718 94.047302 
L 613.903654 97.094831 
L 615.931589 96.465267 
L 617.959524 111.515126 
L 619.987459 158.516593 
L 622.015394 120.039093 
L 624.043329 134.663506 
L 626.071264 118.734435 
L 628.0992 111.789133 
L 630.127135 118.444187 
L 632.15507 110.616697 
L 634.183005 119.291873 
L 636.21094 96.145435 
L 638.238875 122.84974 
L 640.26681 84.217429 
L 642.294745 107.708917 
L 644.322681 88.970007 
L 646.350616 79.602527 
L 648.378551 87.68763 
L 650.406486 89.736128 
L 652.434421 83.895738 
L 654.462356 96.897802 
L 656.490291 93.142143 
L 658.518227 107.159447 
L 660.546162 100.241137 
L 662.574097 100.911435 
L 664.602032 97.427285 
L 666.629967 95.967045 
L 668.657902 99.202662 
L 670.685837 101.952846 
L 672.713773 111.587329 
L 674.741708 100.976382 
L 676.769643 103.87712 
L 678.797578 110.430855 
L 680.825513 100.216361 
L 682.853448 99.613723 
L 684.881383 99.200807 
L 686.909319 104.662334 
L 688.937254 94.456698 
L 690.965189 90.894006 
L 692.993124 97.019745 
L 695.021059 97.309563 
L 697.048994 95.474355 
L 699.076929 92.13353 
L 701.104865 95.468897 
L 703.1328 86.007964 
L 705.160735 95.481106 
L 707.18867 96.531427 
L 709.216605 95.018026 
L 711.24454 100.562201 
L 713.272475 96.021141 
L 715.300411 102.439574 
L 717.328346 101.672586 
L 719.356281 103.564437 
L 721.384216 100.593225 
L 723.412151 109.58816 
L 725.440086 110.455758 
L 727.468021 117.952943 
L 729.495956 109.450891 
L 731.523892 115.595233 
L 733.551827 114.882234 
L 735.579762 105.059933 
L 737.607697 110.070849 
L 739.635632 118.208595 
L 741.663567 110.367805 
L 743.691502 131.564359 
L 745.719438 140.853553 
L 747.747373 123.280224 
L 749.775308 128.604172 
L 751.803243 132.088136 
L 753.831178 141.125691 
L 755.859113 137.678327 
L 757.887048 142.13619 
L 759.914984 154.607489 
L 761.942919 141.854844 
L 763.970854 152.048011 
L 765.998789 156.463446 
L 768.026724 168.588126 
L 770.054659 174.050389 
L 772.082594 163.112123 
L 774.11053 161.22239 
L 776.138465 191.727972 
L 778.1664 181.972059 
L 780.194335 172.938215 
L 782.22227 186.080902 
L 784.250205 190.225377 
L 786.27814 204.383858 
L 788.306076 220.374205 
L 790.334011 205.88529 
L 792.361946 220.726499 
L 794.389881 243.183999 
L 796.417816 232.261852 
L 798.445751 256.095924 
L 800.473686 262.575575 
L 802.501622 272.651809 
L 804.529557 267.330849 
L 806.557492 258.715461 
L 808.585427 301.252828 
L 810.613362 292.85314 
L 812.641297 290.638726 
L 814.669232 299.23555 
L 814.669232 299.23555 
" clip-path="url(#pee70ef660d)" style="fill: none; stroke: #2ca02c; stroke-width: 1.5; stroke-linecap: square"/>
   </g>
   <g id="patch_3">
    <path d="M 50.137685 390.04 
L 50.137685 41.856 
" style="fill: none; stroke: #000000; stroke-width: 0.8; stroke-linejoin: miter; stroke-linecap: square"/>
   </g>
   <g id="patch_4">
    <path d="M 853.2 390.04 
L 853.2 41.856 
" style="fill: none; stroke: #000000; stroke-width: 0.8; stroke-linejoin: miter; stroke-linecap: square"/>
   </g>
   <g id="patch_5">
    <path d="M 50.137685 390.04 
L 853.2 390.04 
" style="fill: none; stroke: #000000; stroke-width: 0.8; stroke-linejoin: miter; stroke-linecap: square"/>
   </g>
   <g id="patch_6">
    <path d="M 50.137685 41.856 
L 853.2 41.856 
" style="fill: none; stroke: #000000; stroke-width: 0.8; stroke-linejoin: miter; stroke-linecap: square"/>
   </g>
   <g id="text_14">
    <!-- Average HTTP Request Duration Over Time -->
    <g transform="translate(322.596655 22.355625) scale(0.12 -0.12)">
     <defs>
      <path id="DejaVuSans-48" d="M 628 4666 
L 1259 4666 
L 1259 2753 
L 3553 2753 
L 3553 4666 
L 4184 4666 
L 4184 0 
L 3553 0 
L 3553 2222 
L 1259 2222 
L 1259 0 
L 628 0 
L 628 4666 
z
" transform="scale(0.015625)"/>
      <path id="DejaVuSans-50" d="M 1259 4147 
L 1259 2394 
L 2053 2394 
Q 2494 2394 2734 2622 
Q 2975 2850 2975 3272 
Q 2975 3691 2734 3919 
Q 2494 4147 2053 4147 
L 1259 4147 
z
M 628 4666 
L 2053 4666 
Q 2838 4666 3239 4311 
Q 3641 3956 3641 3272 
Q 3641 2581 3239 2228 
Q 2838 1875 2053 1875 
L 1259 1875 
L 1259 0 
L 628 0 
L 628 4666 
z
" transform="scale(0.015625)"/>
      <path id="DejaVuSans-52" d="M 2841 2188 
Q 3044 2119 3236 1894 
Q 3428 1669 3622 1275 
L 4263 0 
L 3584 0 
L 2988 1197 
Q 2756 1666 2539 1819 
Q 2322 1972 1947 1972 
L 1259 1972 
L 1259 0 
L 628 0 
L 628 4666 
L 2053 4666 
Q 2853 4666 3247 4331 
Q 3641 3997 3641 3322 
Q 3641 2881 3436 2590 
Q 3231 2300 2841 2188 
z
M 1259 4147 
L 1259 2491 
L 2053 2491 
Q 2509 2491 2742 2702 
Q 2975 2913 2975 3322 
Q 2975 3731 2742 3939 
Q 2509 4147 2053 4147 
L 1259 4147 
z
" transform="scale(0.015625)"/>
      <path id="DejaVuSans-71" d="M 947 1747 
Q 947 1113 1208 752 
Q 1469 391 1925 391 
Q 2381 391 2643 752 
Q 2906 1113 2906 1747 
Q 2906 2381 2643 2742 
Q 2381 3103 1925 3103 
Q 1469 3103 1208 2742 
Q 947 2381 947 1747 
z
M 2906 525 
Q 2725 213 2448 61 
Q 2172 -91 1784 -91 
Q 1150 -91 751 415 
Q 353 922 353 1747 
Q 353 2572 751 3078 
Q 1150 3584 1784 3584 
Q 2172 3584 2448 3432 
Q 2725 3281 2906 2969 
L 2906 3500 
L 3481 3500 
L 3481 -1331 
L 2906 -1331 
L 2906 525 
z
" transform="scale(0.015625)"/>
      <path id="DejaVuSans-4f" d="M 2522 4238 
Q 1834 4238 1429 3725 
Q 1025 3213 1025 2328 
Q 1025 1447 1429 934 
Q 1834 422 2522 422 
Q 3209 422 3611 934 
Q 4013 1447 4013 2328 
Q 4013 3213 3611 3725 
Q 3209 4238 2522 4238 
z
M 2522 4750 
Q 3503 4750 4090 4092 
Q 4678 3434 4678 2328 
Q 4678 1225 4090 567 
Q 3503 -91 2522 -91 
Q 1538 -91 948 565 
Q 359 1222 359 2328 
Q 359 3434 948 4092 
Q 1538 4750 2522 4750 
z
" transform="scale(0.015625)"/>
     </defs>
     <use xlink:href="#DejaVuSans-41"/>
     <use xlink:href="#DejaVuSans-76" transform="translate(62.533203 0)"/>
     <use xlink:href="#DejaVuSans-65" transform="translate(121.712891 0)"/>
     <use xlink:href="#DejaVuSans-72" transform="translate(183.236328 0)"/>
     <use xlink:href="#DejaVuSans-61" transform="translate(224.349609 0)"/>
     <use xlink:href="#DejaVuSans-67" transform="translate(285.628906 0)"/>
     <use xlink:href="#DejaVuSans-65" transform="translate(349.105469 0)"/>
     <use xlink:href="#DejaVuSans-20" transform="translate(410.628906 0)"/>
     <use xlink:href="#DejaVuSans-48" transform="translate(442.416016 0)"/>
     <use xlink:href="#DejaVuSans-54" transform="translate(517.611328 0)"/>
     <use xlink:href="#DejaVuSans-54" transform="translate(576.945312 0)"/>
     <use xlink:href="#DejaVuSans-50" transform="translate(638.029297 0)"/>
     <use xlink:href="#DejaVuSans-20" transform="translate(698.332031 0)"/>
     <use xlink:href="#DejaVuSans-52" transform="translate(730.119141 0)"/>
     <use xlink:href="#DejaVuSans-65" transform="translate(795.101562 0)"/>
     <use xlink:href="#DejaVuSans-71" transform="translate(856.625 0)"/>
     <use xlink:href="#DejaVuSans-75" transform="translate(920.101562 0)"/>
     <use xlink:href="#DejaVuSans-65" transform="translate(983.480469 0)"/>
     <use xlink:href="#DejaVuSans-73" transform="translate(1045.003906 0)"/>
     <use xlink:href="#DejaVuSans-74" transform="translate(1097.103516 0)"/>
     <use xlink:href="#DejaVuSans-20" transform="translate(1136.3125 0)"/>
     <use xlink:href="#DejaVuSans-44" transform="translate(1168.099609 0)"/>
     <use xlink:href="#DejaVuSans-75" transform="translate(1245.101562 0)"/>
     <use xlink:href="#DejaVuSans-72" transform="translate(1308.480469 0)"/>
     <use xlink:href="#DejaVuSans-61" transform="translate(1349.59375 0)"/>
     <use xlink:href="#DejaVuSans-74" transform="translate(1410.873047 0)"/>
     <use xlink:href="#DejaVuSans-69" transform="translate(1450.082031 0)"/>
     <use xlink:href="#DejaVuSans-6f" transform="translate(1477.865234 0)"/>
     <use xlink:href="#DejaVuSans-6e" transform="translate(1539.046875 0)"/>
     <use xlink:href="#DejaVuSans-20" transform="translate(1602.425781 0)"/>
     <use xlink:href="#DejaVuSans-4f" transform="translate(1634.212891 0)"/>
     <use xlink:href="#DejaVuSans-76" transform="translate(1712.923828 0)"/>
     <use xlink:href="#DejaVuSans-65" transform="translate(1772.103516 0)"/>
     <use xlink:href="#DejaVuSans-72" transform="translate(1833.626953 0)"/>
     <use xlink:href="#DejaVuSans-20" transform="translate(1874.740234 0)"/>
     <use xlink:href="#DejaVuSans-54" transform="translate(1906.527344 0)"/>
     <use xlink:href="#DejaVuSans-69" transform="translate(1964.486328 0)"/>
     <use xlink:href="#DejaVuSans-6d" transform="translate(1992.269531 0)"/>
     <use xlink:href="#DejaVuSans-65" transform="translate(2089.681641 0)"/>
    </g>
    <!-- Test: stress | Endpoint: PostWaypoint -->
    <g transform="translate(341.076655 35.856) scale(0.12 -0.12)">
     <defs>
      <path id="DejaVuSans-3a" d="M 750 794 
L 1409 794 
L 1409 0 
L 750 0 
L 750 794 
z
M 750 3309 
L 1409 3309 
L 1409 2516 
L 750 2516 
L 750 3309 
z
" transform="scale(0.015625)"/>
      <path id="DejaVuSans-7c" d="M 1344 4891 
L 1344 -1509 
L 813 -1509 
L 813 4891 
L 1344 4891 
z
" transform="scale(0.015625)"/>
      <path id="DejaVuSans-45" d="M 628 4666 
L 3578 4666 
L 3578 4134 
L 1259 4134 
L 1259 2753 
L 3481 2753 
L 3481 2222 
L 1259 2222 
L 1259 531 
L 3634 531 
L 3634 0 
L 628 0 
L 628 4666 
z
" transform="scale(0.015625)"/>
      <path id="DejaVuSans-57" d="M 213 4666 
L 850 4666 
L 1831 722 
L 2809 4666 
L 3519 4666 
L 4500 722 
L 5478 4666 
L 6119 4666 
L 4947 0 
L 4153 0 
L 3169 4050 
L 2175 0 
L 1381 0 
L 213 4666 
z
" transform="scale(0.015625)"/>
      <path id="DejaVuSans-79" d="M 2059 -325 
Q 1816 -950 1584 -1140 
Q 1353 -1331 966 -1331 
L 506 -1331 
L 506 -850 
L 844 -850 
Q 1081 -850 1212 -737 
Q 1344 -625 1503 -206 
L 1606 56 
L 191 3500 
L 800 3500 
L 1894 763 
L 2988 3500 
L 3597 3500 
L 2059 -325 
z
" transform="scale(0.015625)"/>
     </defs>
     <use xlink:href="#DejaVuSans-54"/>
     <use xlink:href="#DejaVuSans-65" transform="translate(44.083984 0)"/>
     <use xlink:href="#DejaVuSans-73" transform="translate(105.607422 0)"/>
     <use xlink:href="#DejaVuSans-74" transform="translate(157.707031 0)"/>
     <use xlink:href="#DejaVuSans-3a" transform="translate(196.916016 0)"/>
     <use xlink:href="#DejaVuSans-20" transform="translate(230.607422 0)"/>
     <use xlink:href="#DejaVuSans-73" transform="translate(262.394531 0)"/>
     <use xlink:href="#DejaVuSans-74" transform="translate(314.494141 0)"/>
     <use xlink:href="#DejaVuSans-72" transform="translate(353.703125 0)"/>
     <use xlink:href="#DejaVuSans-65" transform="translate(392.566406 0)"/>
     <use xlink:href="#DejaVuSans-73" transform="translate(454.089844 0)"/>
     <use xlink:href="#DejaVuSans-73" transform="translate(506.189453 0)"/>
     <use xlink:href="#DejaVuSans-20" transform="translate(558.289062 0)"/>
     <use xlink:href="#DejaVuSans-7c" transform="translate(590.076172 0)"/>
     <use xlink:href="#DejaVuSans-20" transform="translate(623.767578 0)"/>
     <use xlink:href="#DejaVuSans-45" transform="translate(655.554688 0)"/>
     <use xlink:href="#DejaVuSans-6e" transform="translate(718.738281 0)"/>
     <use xlink:href="#DejaVuSans-64" transform="translate(782.117188 0)"/>
     <use xlink:href="#DejaVuSans-70" transform="translate(845.59375 0)"/>
     <use xlink:href="#DejaVuSans-6f" transform="translate(909.070312 0)"/>
     <use xlink:href="#DejaVuSans-69" transform="translate(970.251953 0)"/>
     <use xlink:href="#DejaVuSans-6e" transform="translate(998.035156 0)"/>
     <use xlink:href="#DejaVuSans-74" transform="translate(1061.414062 0)"/>
     <use xlink:href="#DejaVuSans-3a" transform="translate(1100.623047 0)"/>
     <use xlink:href="#DejaVuSans-20" transform="translate(1134.314453 0)"/>
     <use xlink:href="#DejaVuSans-50" transform="translate(1166.101562 0)"/>
     <use xlink:href="#DejaVuSans-6f" transform="translate(1222.779297 0)"/>
     <use xlink:href="#DejaVuSans-73" transform="translate(1283.960938 0)"/>
     <use xlink:href="#DejaVuSans-74" transform="translate(1336.060547 0)"/>
     <use xlink:href="#DejaVuSans-57" transform="translate(1375.269531 0)"/>
     <use xlink:href="#DejaVuSans-61" transform="translate(1467.771484 0)"/>
     <use xlink:href="#DejaVuSans-79" transform="translate(1529.050781 0)"/>
     <use xlink:href="#DejaVuSans-70" transform="translate(1588.230469 0)"/>
     <use xlink:href="#DejaVuSans-6f" transform="translate(1651.707031 0)"/>
     <use xlink:href="#DejaVuSans-69" transform="translate(1712.888672 0)"/>
     <use xlink:href="#DejaVuSans-6e" transform="translate(1740.671875 0)"/>
     <use xlink:href="#DejaVuSans-74" transform="translate(1804.050781 0)"/>
    </g>
   </g>
   <g id="legend_1">
    <g id="patch_7">
     <path d="M 712.85625 93.890375 
L 846.2 93.890375 
Q 848.2 93.890375 848.2 91.890375 
L 848.2 48.856 
Q 848.2 46.856 846.2 46.856 
L 712.85625 46.856 
Q 710.85625 46.856 710.85625 48.856 
L 710.85625 91.890375 
Q 710.85625 93.890375 712.85625 93.890375 
z
" style="fill: #ffffff; opacity: 0.8; stroke: #cccccc; stroke-linejoin: miter"/>
    </g>
    <g id="line2d_39">
     <path d="M 714.85625 54.954437 
L 724.85625 54.954437 
L 734.85625 54.954437 
" style="fill: none; stroke: #1f77b4; stroke-width: 1.5; stroke-linecap: square"/>
    </g>
    <g id="text_15">
     <!-- Single Large Results -->
     <g transform="translate(742.85625 58.454437) scale(0.1 -0.1)">
      <defs>
       <path id="DejaVuSans-6c" d="M 603 4863 
L 1178 4863 
L 1178 0 
L 603 0 
L 603 4863 
z
" transform="scale(0.015625)"/>
       <path id="DejaVuSans-4c" d="M 628 4666 
L 1259 4666 
L 1259 531 
L 3531 531 
L 3531 0 
L 628 0 
L 628 4666 
z
" transform="scale(0.015625)"/>
      </defs>
      <use xlink:href="#DejaVuSans-53"/>
      <use xlink:href="#DejaVuSans-69" transform="translate(63.476562 0)"/>
      <use xlink:href="#DejaVuSans-6e" transform="translate(91.259766 0)"/>
      <use xlink:href="#DejaVuSans-67" transform="translate(154.638672 0)"/>
      <use xlink:href="#DejaVuSans-6c" transform="translate(218.115234 0)"/>
      <use xlink:href="#DejaVuSans-65" transform="translate(245.898438 0)"/>
      <use xlink:href="#DejaVuSans-20" transform="translate(307.421875 0)"/>
      <use xlink:href="#DejaVuSans-4c" transform="translate(339.208984 0)"/>
      <use xlink:href="#DejaVuSans-61" transform="translate(394.921875 0)"/>
      <use xlink:href="#DejaVuSans-72" transform="translate(456.201172 0)"/>
      <use xlink:href="#DejaVuSans-67" transform="translate(495.564453 0)"/>
      <use xlink:href="#DejaVuSans-65" transform="translate(559.041016 0)"/>
      <use xlink:href="#DejaVuSans-20" transform="translate(620.564453 0)"/>
      <use xlink:href="#DejaVuSans-52" transform="translate(652.351562 0)"/>
      <use xlink:href="#DejaVuSans-65" transform="translate(717.333984 0)"/>
      <use xlink:href="#DejaVuSans-73" transform="translate(778.857422 0)"/>
      <use xlink:href="#DejaVuSans-75" transform="translate(830.957031 0)"/>
      <use xlink:href="#DejaVuSans-6c" transform="translate(894.335938 0)"/>
      <use xlink:href="#DejaVuSans-74" transform="translate(922.119141 0)"/>
      <use xlink:href="#DejaVuSans-73" transform="translate(961.328125 0)"/>
     </g>
    </g>
    <g id="line2d_40">
     <path d="M 714.85625 69.632562 
L 724.85625 69.632562 
L 734.85625 69.632562 
" style="fill: none; stroke: #ff7f0e; stroke-width: 1.5; stroke-linecap: square"/>
    </g>
    <g id="text_16">
     <!-- Single Small Results -->
     <g transform="translate(742.85625 73.132562) scale(0.1 -0.1)">
      <use xlink:href="#DejaVuSans-53"/>
      <use xlink:href="#DejaVuSans-69" transform="translate(63.476562 0)"/>
      <use xlink:href="#DejaVuSans-6e" transform="translate(91.259766 0)"/>
      <use xlink:href="#DejaVuSans-67" transform="translate(154.638672 0)"/>
      <use xlink:href="#DejaVuSans-6c" transform="translate(218.115234 0)"/>
      <use xlink:href="#DejaVuSans-65" transform="translate(245.898438 0)"/>
      <use xlink:href="#DejaVuSans-20" transform="translate(307.421875 0)"/>
      <use xlink:href="#DejaVuSans-53" transform="translate(339.208984 0)"/>
      <use xlink:href="#DejaVuSans-6d" transform="translate(402.685547 0)"/>
      <use xlink:href="#DejaVuSans-61" transform="translate(500.097656 0)"/>
      <use xlink:href="#DejaVuSans-6c" transform="translate(561.376953 0)"/>
      <use xlink:href="#DejaVuSans-6c" transform="translate(589.160156 0)"/>
      <use xlink:href="#DejaVuSans-20" transform="translate(616.943359 0)"/>
      <use xlink:href="#DejaVuSans-52" transform="translate(648.730469 0)"/>
      <use xlink:href="#DejaVuSans-65" transform="translate(713.712891 0)"/>
      <use xlink:href="#DejaVuSans-73" transform="translate(775.236328 0)"/>
      <use xlink:href="#DejaVuSans-75" transform="translate(827.335938 0)"/>
      <use xlink:href="#DejaVuSans-6c" transform="translate(890.714844 0)"/>
      <use xlink:href="#DejaVuSans-74" transform="translate(918.498047 0)"/>
      <use xlink:href="#DejaVuSans-73" transform="translate(957.707031 0)"/>
     </g>
    </g>
    <g id="line2d_41">
     <path d="M 714.85625 84.310687 
L 724.85625 84.310687 
L 734.85625 84.310687 
" style="fill: none; stroke: #2ca02c; stroke-width: 1.5; stroke-linecap: square"/>
    </g>
    <g id="text_17">
     <!-- Multi Results -->
     <g transform="translate(742.85625 87.810687) scale(0.1 -0.1)">
      <defs>
       <path id="DejaVuSans-4d" d="M 628 4666 
L 1569 4666 
L 2759 1491 
L 3956 4666 
L 4897 4666 
L 4897 0 
L 4281 0 
L 4281 4097 
L 3078 897 
L 2444 897 
L 1241 4097 
L 1241 0 
L 628 0 
L 628 4666 
z
" transform="scale(0.015625)"/>
      </defs>
      <use xlink:href="#DejaVuSans-4d"/>
      <use xlink:href="#DejaVuSans-75" transform="translate(86.279297 0)"/>
      <use xlink:href="#DejaVuSans-6c" transform="translate(149.658203 0)"/>
      <use xlink:href="#DejaVuSans-74" transform="translate(177.441406 0)"/>
      <use xlink:href="#DejaVuSans-69" transform="translate(216.650391 0)"/>
      <use xlink:href="#DejaVuSans-20" transform="translate(244.433594 0)"/>
      <use xlink:href="#DejaVuSans-52" transform="translate(276.220703 0)"/>
      <use xlink:href="#DejaVuSans-65" transform="translate(341.203125 0)"/>
      <use xlink:href="#DejaVuSans-73" transform="translate(402.726562 0)"/>
      <use xlink:href="#DejaVuSans-75" transform="translate(454.826172 0)"/>
      <use xlink:href="#DejaVuSans-6c" transform="translate(518.205078 0)"/>
      <use xlink:href="#DejaVuSans-74" transform="translate(545.988281 0)"/>
      <use xlink:href="#DejaVuSans-73" transform="translate(585.197266 0)"/>
     </g>
    </g>
   </g>
  </g>
 </g>
 <defs>
  <clipPath id="pee70ef660d">
   <rect x="50.137685" y="41.856" width="803.062315" height="348.184"/>
  </clipPath>
 </defs>
</svg>
