<?xml version="1.0" encoding="utf-8" standalone="no"?>
<!DOCTYPE svg PUBLIC "-//W3C//DTD SVG 1.1//EN"
  "http://www.w3.org/Graphics/SVG/1.1/DTD/svg11.dtd">
<svg xmlns:xlink="http://www.w3.org/1999/xlink" width="1008pt" height="288pt" viewBox="0 0 1008 288" xmlns="http://www.w3.org/2000/svg" version="1.1">
 <metadata>
  <rdf:RDF xmlns:dc="http://purl.org/dc/elements/1.1/" xmlns:cc="http://creativecommons.org/ns#" xmlns:rdf="http://www.w3.org/1999/02/22-rdf-syntax-ns#">
   <cc:Work>
    <dc:type rdf:resource="http://purl.org/dc/dcmitype/StillImage"/>
    <dc:date>2025-05-31T16:18:35.235695</dc:date>
    <dc:format>image/svg+xml</dc:format>
    <dc:creator>
     <cc:Agent>
      <dc:title>Matplotlib v3.10.1, https://matplotlib.org/</dc:title>
     </cc:Agent>
    </dc:creator>
   </cc:Work>
  </rdf:RDF>
 </metadata>
 <defs>
  <style type="text/css">*{stroke-linejoin: round; stroke-linecap: butt}</style>
 </defs>
 <g id="figure_1">
  <g id="patch_1">
   <path d="M 0 288 
L 1008 288 
L 1008 0 
L 0 0 
z
" style="fill: #ffffff"/>
  </g>
  <g id="axes_1">
   <g id="patch_2">
    <path d="M 49.912685 246.04 
L 997.2 246.04 
L 997.2 26.88 
L 49.912685 26.88 
z
" style="fill: #ffffff"/>
   </g>
   <g id="matplotlib.axis_1">
    <g id="xtick_1">
     <g id="line2d_1">
      <defs>
       <path id="m0538ab1fc0" d="M 0 0 
L 0 3.5 
" style="stroke: #000000; stroke-width: 0.8"/>
      </defs>
      <g>
       <use xlink:href="#m0538ab1fc0" x="92.971199" y="246.04" style="stroke: #000000; stroke-width: 0.8"/>
      </g>
     </g>
     <g id="text_1">
      <!-- 0 -->
      <g transform="translate(89.789949 260.638438) scale(0.1 -0.1)">
       <defs>
        <path id="DejaVuSans-30" d="M 2034 4250 
Q 1547 4250 1301 3770 
Q 1056 3291 1056 2328 
Q 1056 1369 1301 889 
Q 1547 409 2034 409 
Q 2525 409 2770 889 
Q 3016 1369 3016 2328 
Q 3016 3291 2770 3770 
Q 2525 4250 2034 4250 
z
M 2034 4750 
Q 2819 4750 3233 4129 
Q 3647 3509 3647 2328 
Q 3647 1150 3233 529 
Q 2819 -91 2034 -91 
Q 1250 -91 836 529 
Q 422 1150 422 2328 
Q 422 3509 836 4129 
Q 1250 4750 2034 4750 
z
" transform="scale(0.015625)"/>
       </defs>
       <use xlink:href="#DejaVuSans-30"/>
      </g>
     </g>
    </g>
    <g id="xtick_2">
     <g id="line2d_2">
      <g>
       <use xlink:href="#m0538ab1fc0" x="212.578183" y="246.04" style="stroke: #000000; stroke-width: 0.8"/>
      </g>
     </g>
     <g id="text_2">
      <!-- 50 -->
      <g transform="translate(206.215683 260.638438) scale(0.1 -0.1)">
       <defs>
        <path id="DejaVuSans-35" d="M 691 4666 
L 3169 4666 
L 3169 4134 
L 1269 4134 
L 1269 2991 
Q 1406 3038 1543 3061 
Q 1681 3084 1819 3084 
Q 2600 3084 3056 2656 
Q 3513 2228 3513 1497 
Q 3513 744 3044 326 
Q 2575 -91 1722 -91 
Q 1428 -91 1123 -41 
Q 819 9 494 109 
L 494 744 
Q 775 591 1075 516 
Q 1375 441 1709 441 
Q 2250 441 2565 725 
Q 2881 1009 2881 1497 
Q 2881 1984 2565 2268 
Q 2250 2553 1709 2553 
Q 1456 2553 1204 2497 
Q 953 2441 691 2322 
L 691 4666 
z
" transform="scale(0.015625)"/>
       </defs>
       <use xlink:href="#DejaVuSans-35"/>
       <use xlink:href="#DejaVuSans-30" transform="translate(63.623047 0)"/>
      </g>
     </g>
    </g>
    <g id="xtick_3">
     <g id="line2d_3">
      <g>
       <use xlink:href="#m0538ab1fc0" x="332.185168" y="246.04" style="stroke: #000000; stroke-width: 0.8"/>
      </g>
     </g>
     <g id="text_3">
      <!-- 100 -->
      <g transform="translate(322.641418 260.638438) scale(0.1 -0.1)">
       <defs>
        <path id="DejaVuSans-31" d="M 794 531 
L 1825 531 
L 1825 4091 
L 703 3866 
L 703 4441 
L 1819 4666 
L 2450 4666 
L 2450 531 
L 3481 531 
L 3481 0 
L 794 0 
L 794 531 
z
" transform="scale(0.015625)"/>
       </defs>
       <use xlink:href="#DejaVuSans-31"/>
       <use xlink:href="#DejaVuSans-30" transform="translate(63.623047 0)"/>
       <use xlink:href="#DejaVuSans-30" transform="translate(127.246094 0)"/>
      </g>
     </g>
    </g>
    <g id="xtick_4">
     <g id="line2d_4">
      <g>
       <use xlink:href="#m0538ab1fc0" x="451.792152" y="246.04" style="stroke: #000000; stroke-width: 0.8"/>
      </g>
     </g>
     <g id="text_4">
      <!-- 150 -->
      <g transform="translate(442.248402 260.638438) scale(0.1 -0.1)">
       <use xlink:href="#DejaVuSans-31"/>
       <use xlink:href="#DejaVuSans-35" transform="translate(63.623047 0)"/>
       <use xlink:href="#DejaVuSans-30" transform="translate(127.246094 0)"/>
      </g>
     </g>
    </g>
    <g id="xtick_5">
     <g id="line2d_5">
      <g>
       <use xlink:href="#m0538ab1fc0" x="571.399136" y="246.04" style="stroke: #000000; stroke-width: 0.8"/>
      </g>
     </g>
     <g id="text_5">
      <!-- 200 -->
      <g transform="translate(561.855386 260.638438) scale(0.1 -0.1)">
       <defs>
        <path id="DejaVuSans-32" d="M 1228 531 
L 3431 531 
L 3431 0 
L 469 0 
L 469 531 
Q 828 903 1448 1529 
Q 2069 2156 2228 2338 
Q 2531 2678 2651 2914 
Q 2772 3150 2772 3378 
Q 2772 3750 2511 3984 
Q 2250 4219 1831 4219 
Q 1534 4219 1204 4116 
Q 875 4013 500 3803 
L 500 4441 
Q 881 4594 1212 4672 
Q 1544 4750 1819 4750 
Q 2544 4750 2975 4387 
Q 3406 4025 3406 3419 
Q 3406 3131 3298 2873 
Q 3191 2616 2906 2266 
Q 2828 2175 2409 1742 
Q 1991 1309 1228 531 
z
" transform="scale(0.015625)"/>
       </defs>
       <use xlink:href="#DejaVuSans-32"/>
       <use xlink:href="#DejaVuSans-30" transform="translate(63.623047 0)"/>
       <use xlink:href="#DejaVuSans-30" transform="translate(127.246094 0)"/>
      </g>
     </g>
    </g>
    <g id="xtick_6">
     <g id="line2d_6">
      <g>
       <use xlink:href="#m0538ab1fc0" x="691.00612" y="246.04" style="stroke: #000000; stroke-width: 0.8"/>
      </g>
     </g>
     <g id="text_6">
      <!-- 250 -->
      <g transform="translate(681.46237 260.638438) scale(0.1 -0.1)">
       <use xlink:href="#DejaVuSans-32"/>
       <use xlink:href="#DejaVuSans-35" transform="translate(63.623047 0)"/>
       <use xlink:href="#DejaVuSans-30" transform="translate(127.246094 0)"/>
      </g>
     </g>
    </g>
    <g id="xtick_7">
     <g id="line2d_7">
      <g>
       <use xlink:href="#m0538ab1fc0" x="810.613105" y="246.04" style="stroke: #000000; stroke-width: 0.8"/>
      </g>
     </g>
     <g id="text_7">
      <!-- 300 -->
      <g transform="translate(801.069355 260.638438) scale(0.1 -0.1)">
       <defs>
        <path id="DejaVuSans-33" d="M 2597 2516 
Q 3050 2419 3304 2112 
Q 3559 1806 3559 1356 
Q 3559 666 3084 287 
Q 2609 -91 1734 -91 
Q 1441 -91 1130 -33 
Q 819 25 488 141 
L 488 750 
Q 750 597 1062 519 
Q 1375 441 1716 441 
Q 2309 441 2620 675 
Q 2931 909 2931 1356 
Q 2931 1769 2642 2001 
Q 2353 2234 1838 2234 
L 1294 2234 
L 1294 2753 
L 1863 2753 
Q 2328 2753 2575 2939 
Q 2822 3125 2822 3475 
Q 2822 3834 2567 4026 
Q 2313 4219 1838 4219 
Q 1578 4219 1281 4162 
Q 984 4106 628 3988 
L 628 4550 
Q 988 4650 1302 4700 
Q 1616 4750 1894 4750 
Q 2613 4750 3031 4423 
Q 3450 4097 3450 3541 
Q 3450 3153 3228 2886 
Q 3006 2619 2597 2516 
z
" transform="scale(0.015625)"/>
       </defs>
       <use xlink:href="#DejaVuSans-33"/>
       <use xlink:href="#DejaVuSans-30" transform="translate(63.623047 0)"/>
       <use xlink:href="#DejaVuSans-30" transform="translate(127.246094 0)"/>
      </g>
     </g>
    </g>
    <g id="xtick_8">
     <g id="line2d_8">
      <g>
       <use xlink:href="#m0538ab1fc0" x="930.220089" y="246.04" style="stroke: #000000; stroke-width: 0.8"/>
      </g>
     </g>
     <g id="text_8">
      <!-- 350 -->
      <g transform="translate(920.676339 260.638438) scale(0.1 -0.1)">
       <use xlink:href="#DejaVuSans-33"/>
       <use xlink:href="#DejaVuSans-35" transform="translate(63.623047 0)"/>
       <use xlink:href="#DejaVuSans-30" transform="translate(127.246094 0)"/>
      </g>
     </g>
    </g>
    <g id="text_9">
     <!-- Timestamp (Seconds) -->
     <g transform="translate(469.151655 274.316562) scale(0.1 -0.1)">
      <defs>
       <path id="DejaVuSans-54" d="M -19 4666 
L 3928 4666 
L 3928 4134 
L 2272 4134 
L 2272 0 
L 1638 0 
L 1638 4134 
L -19 4134 
L -19 4666 
z
" transform="scale(0.015625)"/>
       <path id="DejaVuSans-69" d="M 603 3500 
L 1178 3500 
L 1178 0 
L 603 0 
L 603 3500 
z
M 603 4863 
L 1178 4863 
L 1178 4134 
L 603 4134 
L 603 4863 
z
" transform="scale(0.015625)"/>
       <path id="DejaVuSans-6d" d="M 3328 2828 
Q 3544 3216 3844 3400 
Q 4144 3584 4550 3584 
Q 5097 3584 5394 3201 
Q 5691 2819 5691 2113 
L 5691 0 
L 5113 0 
L 5113 2094 
Q 5113 2597 4934 2840 
Q 4756 3084 4391 3084 
Q 3944 3084 3684 2787 
Q 3425 2491 3425 1978 
L 3425 0 
L 2847 0 
L 2847 2094 
Q 2847 2600 2669 2842 
Q 2491 3084 2119 3084 
Q 1678 3084 1418 2786 
Q 1159 2488 1159 1978 
L 1159 0 
L 581 0 
L 581 3500 
L 1159 3500 
L 1159 2956 
Q 1356 3278 1631 3431 
Q 1906 3584 2284 3584 
Q 2666 3584 2933 3390 
Q 3200 3197 3328 2828 
z
" transform="scale(0.015625)"/>
       <path id="DejaVuSans-65" d="M 3597 1894 
L 3597 1613 
L 953 1613 
Q 991 1019 1311 708 
Q 1631 397 2203 397 
Q 2534 397 2845 478 
Q 3156 559 3463 722 
L 3463 178 
Q 3153 47 2828 -22 
Q 2503 -91 2169 -91 
Q 1331 -91 842 396 
Q 353 884 353 1716 
Q 353 2575 817 3079 
Q 1281 3584 2069 3584 
Q 2775 3584 3186 3129 
Q 3597 2675 3597 1894 
z
M 3022 2063 
Q 3016 2534 2758 2815 
Q 2500 3097 2075 3097 
Q 1594 3097 1305 2825 
Q 1016 2553 972 2059 
L 3022 2063 
z
" transform="scale(0.015625)"/>
       <path id="DejaVuSans-73" d="M 2834 3397 
L 2834 2853 
Q 2591 2978 2328 3040 
Q 2066 3103 1784 3103 
Q 1356 3103 1142 2972 
Q 928 2841 928 2578 
Q 928 2378 1081 2264 
Q 1234 2150 1697 2047 
L 1894 2003 
Q 2506 1872 2764 1633 
Q 3022 1394 3022 966 
Q 3022 478 2636 193 
Q 2250 -91 1575 -91 
Q 1294 -91 989 -36 
Q 684 19 347 128 
L 347 722 
Q 666 556 975 473 
Q 1284 391 1588 391 
Q 1994 391 2212 530 
Q 2431 669 2431 922 
Q 2431 1156 2273 1281 
Q 2116 1406 1581 1522 
L 1381 1569 
Q 847 1681 609 1914 
Q 372 2147 372 2553 
Q 372 3047 722 3315 
Q 1072 3584 1716 3584 
Q 2034 3584 2315 3537 
Q 2597 3491 2834 3397 
z
" transform="scale(0.015625)"/>
       <path id="DejaVuSans-74" d="M 1172 4494 
L 1172 3500 
L 2356 3500 
L 2356 3053 
L 1172 3053 
L 1172 1153 
Q 1172 725 1289 603 
Q 1406 481 1766 481 
L 2356 481 
L 2356 0 
L 1766 0 
Q 1100 0 847 248 
Q 594 497 594 1153 
L 594 3053 
L 172 3053 
L 172 3500 
L 594 3500 
L 594 4494 
L 1172 4494 
z
" transform="scale(0.015625)"/>
       <path id="DejaVuSans-61" d="M 2194 1759 
Q 1497 1759 1228 1600 
Q 959 1441 959 1056 
Q 959 750 1161 570 
Q 1363 391 1709 391 
Q 2188 391 2477 730 
Q 2766 1069 2766 1631 
L 2766 1759 
L 2194 1759 
z
M 3341 1997 
L 3341 0 
L 2766 0 
L 2766 531 
Q 2569 213 2275 61 
Q 1981 -91 1556 -91 
Q 1019 -91 701 211 
Q 384 513 384 1019 
Q 384 1609 779 1909 
Q 1175 2209 1959 2209 
L 2766 2209 
L 2766 2266 
Q 2766 2663 2505 2880 
Q 2244 3097 1772 3097 
Q 1472 3097 1187 3025 
Q 903 2953 641 2809 
L 641 3341 
Q 956 3463 1253 3523 
Q 1550 3584 1831 3584 
Q 2591 3584 2966 3190 
Q 3341 2797 3341 1997 
z
" transform="scale(0.015625)"/>
       <path id="DejaVuSans-70" d="M 1159 525 
L 1159 -1331 
L 581 -1331 
L 581 3500 
L 1159 3500 
L 1159 2969 
Q 1341 3281 1617 3432 
Q 1894 3584 2278 3584 
Q 2916 3584 3314 3078 
Q 3713 2572 3713 1747 
Q 3713 922 3314 415 
Q 2916 -91 2278 -91 
Q 1894 -91 1617 61 
Q 1341 213 1159 525 
z
M 3116 1747 
Q 3116 2381 2855 2742 
Q 2594 3103 2138 3103 
Q 1681 3103 1420 2742 
Q 1159 2381 1159 1747 
Q 1159 1113 1420 752 
Q 1681 391 2138 391 
Q 2594 391 2855 752 
Q 3116 1113 3116 1747 
z
" transform="scale(0.015625)"/>
       <path id="DejaVuSans-20" transform="scale(0.015625)"/>
       <path id="DejaVuSans-28" d="M 1984 4856 
Q 1566 4138 1362 3434 
Q 1159 2731 1159 2009 
Q 1159 1288 1364 580 
Q 1569 -128 1984 -844 
L 1484 -844 
Q 1016 -109 783 600 
Q 550 1309 550 2009 
Q 550 2706 781 3412 
Q 1013 4119 1484 4856 
L 1984 4856 
z
" transform="scale(0.015625)"/>
       <path id="DejaVuSans-53" d="M 3425 4513 
L 3425 3897 
Q 3066 4069 2747 4153 
Q 2428 4238 2131 4238 
Q 1616 4238 1336 4038 
Q 1056 3838 1056 3469 
Q 1056 3159 1242 3001 
Q 1428 2844 1947 2747 
L 2328 2669 
Q 3034 2534 3370 2195 
Q 3706 1856 3706 1288 
Q 3706 609 3251 259 
Q 2797 -91 1919 -91 
Q 1588 -91 1214 -16 
Q 841 59 441 206 
L 441 856 
Q 825 641 1194 531 
Q 1563 422 1919 422 
Q 2459 422 2753 634 
Q 3047 847 3047 1241 
Q 3047 1584 2836 1778 
Q 2625 1972 2144 2069 
L 1759 2144 
Q 1053 2284 737 2584 
Q 422 2884 422 3419 
Q 422 4038 858 4394 
Q 1294 4750 2059 4750 
Q 2388 4750 2728 4690 
Q 3069 4631 3425 4513 
z
" transform="scale(0.015625)"/>
       <path id="DejaVuSans-63" d="M 3122 3366 
L 3122 2828 
Q 2878 2963 2633 3030 
Q 2388 3097 2138 3097 
Q 1578 3097 1268 2742 
Q 959 2388 959 1747 
Q 959 1106 1268 751 
Q 1578 397 2138 397 
Q 2388 397 2633 464 
Q 2878 531 3122 666 
L 3122 134 
Q 2881 22 2623 -34 
Q 2366 -91 2075 -91 
Q 1284 -91 818 406 
Q 353 903 353 1747 
Q 353 2603 823 3093 
Q 1294 3584 2113 3584 
Q 2378 3584 2631 3529 
Q 2884 3475 3122 3366 
z
" transform="scale(0.015625)"/>
       <path id="DejaVuSans-6f" d="M 1959 3097 
Q 1497 3097 1228 2736 
Q 959 2375 959 1747 
Q 959 1119 1226 758 
Q 1494 397 1959 397 
Q 2419 397 2687 759 
Q 2956 1122 2956 1747 
Q 2956 2369 2687 2733 
Q 2419 3097 1959 3097 
z
M 1959 3584 
Q 2709 3584 3137 3096 
Q 3566 2609 3566 1747 
Q 3566 888 3137 398 
Q 2709 -91 1959 -91 
Q 1206 -91 779 398 
Q 353 888 353 1747 
Q 353 2609 779 3096 
Q 1206 3584 1959 3584 
z
" transform="scale(0.015625)"/>
       <path id="DejaVuSans-6e" d="M 3513 2113 
L 3513 0 
L 2938 0 
L 2938 2094 
Q 2938 2591 2744 2837 
Q 2550 3084 2163 3084 
Q 1697 3084 1428 2787 
Q 1159 2491 1159 1978 
L 1159 0 
L 581 0 
L 581 3500 
L 1159 3500 
L 1159 2956 
Q 1366 3272 1645 3428 
Q 1925 3584 2291 3584 
Q 2894 3584 3203 3211 
Q 3513 2838 3513 2113 
z
" transform="scale(0.015625)"/>
       <path id="DejaVuSans-64" d="M 2906 2969 
L 2906 4863 
L 3481 4863 
L 3481 0 
L 2906 0 
L 2906 525 
Q 2725 213 2448 61 
Q 2172 -91 1784 -91 
Q 1150 -91 751 415 
Q 353 922 353 1747 
Q 353 2572 751 3078 
Q 1150 3584 1784 3584 
Q 2172 3584 2448 3432 
Q 2725 3281 2906 2969 
z
M 947 1747 
Q 947 1113 1208 752 
Q 1469 391 1925 391 
Q 2381 391 2643 752 
Q 2906 1113 2906 1747 
Q 2906 2381 2643 2742 
Q 2381 3103 1925 3103 
Q 1469 3103 1208 2742 
Q 947 2381 947 1747 
z
" transform="scale(0.015625)"/>
       <path id="DejaVuSans-29" d="M 513 4856 
L 1013 4856 
Q 1481 4119 1714 3412 
Q 1947 2706 1947 2009 
Q 1947 1309 1714 600 
Q 1481 -109 1013 -844 
L 513 -844 
Q 928 -128 1133 580 
Q 1338 1288 1338 2009 
Q 1338 2731 1133 3434 
Q 928 4138 513 4856 
z
" transform="scale(0.015625)"/>
      </defs>
      <use xlink:href="#DejaVuSans-54"/>
      <use xlink:href="#DejaVuSans-69" transform="translate(57.958984 0)"/>
      <use xlink:href="#DejaVuSans-6d" transform="translate(85.742188 0)"/>
      <use xlink:href="#DejaVuSans-65" transform="translate(183.154297 0)"/>
      <use xlink:href="#DejaVuSans-73" transform="translate(244.677734 0)"/>
      <use xlink:href="#DejaVuSans-74" transform="translate(296.777344 0)"/>
      <use xlink:href="#DejaVuSans-61" transform="translate(335.986328 0)"/>
      <use xlink:href="#DejaVuSans-6d" transform="translate(397.265625 0)"/>
      <use xlink:href="#DejaVuSans-70" transform="translate(494.677734 0)"/>
      <use xlink:href="#DejaVuSans-20" transform="translate(558.154297 0)"/>
      <use xlink:href="#DejaVuSans-28" transform="translate(589.941406 0)"/>
      <use xlink:href="#DejaVuSans-53" transform="translate(628.955078 0)"/>
      <use xlink:href="#DejaVuSans-65" transform="translate(692.431641 0)"/>
      <use xlink:href="#DejaVuSans-63" transform="translate(753.955078 0)"/>
      <use xlink:href="#DejaVuSans-6f" transform="translate(808.935547 0)"/>
      <use xlink:href="#DejaVuSans-6e" transform="translate(870.117188 0)"/>
      <use xlink:href="#DejaVuSans-64" transform="translate(933.496094 0)"/>
      <use xlink:href="#DejaVuSans-73" transform="translate(996.972656 0)"/>
      <use xlink:href="#DejaVuSans-29" transform="translate(1049.072266 0)"/>
     </g>
    </g>
   </g>
   <g id="matplotlib.axis_2">
    <g id="ytick_1">
     <g id="line2d_9">
      <defs>
       <path id="m2da998934c" d="M 0 0 
L -3.5 0 
" style="stroke: #000000; stroke-width: 0.8"/>
      </defs>
      <g>
       <use xlink:href="#m2da998934c" x="49.912685" y="179.876224" style="stroke: #000000; stroke-width: 0.8"/>
      </g>
     </g>
     <g id="text_10">
      <!-- $\mathdefault{10^{1}}$ -->
      <g transform="translate(25.312685 183.675443) scale(0.1 -0.1)">
       <use xlink:href="#DejaVuSans-31" transform="translate(0 0.684375)"/>
       <use xlink:href="#DejaVuSans-30" transform="translate(63.623047 0.684375)"/>
       <use xlink:href="#DejaVuSans-31" transform="translate(128.203125 38.965625) scale(0.7)"/>
      </g>
     </g>
    </g>
    <g id="ytick_2">
     <g id="line2d_10">
      <g>
       <use xlink:href="#m2da998934c" x="49.912685" y="91.919653" style="stroke: #000000; stroke-width: 0.8"/>
      </g>
     </g>
     <g id="text_11">
      <!-- $\mathdefault{10^{2}}$ -->
      <g transform="translate(25.312685 95.718872) scale(0.1 -0.1)">
       <use xlink:href="#DejaVuSans-31" transform="translate(0 0.765625)"/>
       <use xlink:href="#DejaVuSans-30" transform="translate(63.623047 0.765625)"/>
       <use xlink:href="#DejaVuSans-32" transform="translate(128.203125 39.046875) scale(0.7)"/>
      </g>
     </g>
    </g>
    <g id="ytick_3">
     <g id="line2d_11">
      <defs>
       <path id="me3d8605640" d="M 0 0 
L -2 0 
" style="stroke: #000000; stroke-width: 0.6"/>
      </defs>
      <g>
       <use xlink:href="#me3d8605640" x="49.912685" y="241.355229" style="stroke: #000000; stroke-width: 0.6"/>
      </g>
     </g>
    </g>
    <g id="ytick_4">
     <g id="line2d_12">
      <g>
       <use xlink:href="#me3d8605640" x="49.912685" y="225.866846" style="stroke: #000000; stroke-width: 0.6"/>
      </g>
     </g>
    </g>
    <g id="ytick_5">
     <g id="line2d_13">
      <g>
       <use xlink:href="#me3d8605640" x="49.912685" y="214.877663" style="stroke: #000000; stroke-width: 0.6"/>
      </g>
     </g>
    </g>
    <g id="ytick_6">
     <g id="line2d_14">
      <g>
       <use xlink:href="#me3d8605640" x="49.912685" y="206.353791" style="stroke: #000000; stroke-width: 0.6"/>
      </g>
     </g>
    </g>
    <g id="ytick_7">
     <g id="line2d_15">
      <g>
       <use xlink:href="#me3d8605640" x="49.912685" y="199.38928" style="stroke: #000000; stroke-width: 0.6"/>
      </g>
     </g>
    </g>
    <g id="ytick_8">
     <g id="line2d_16">
      <g>
       <use xlink:href="#me3d8605640" x="49.912685" y="193.50087" style="stroke: #000000; stroke-width: 0.6"/>
      </g>
     </g>
    </g>
    <g id="ytick_9">
     <g id="line2d_17">
      <g>
       <use xlink:href="#me3d8605640" x="49.912685" y="188.400097" style="stroke: #000000; stroke-width: 0.6"/>
      </g>
     </g>
    </g>
    <g id="ytick_10">
     <g id="line2d_18">
      <g>
       <use xlink:href="#me3d8605640" x="49.912685" y="183.900896" style="stroke: #000000; stroke-width: 0.6"/>
      </g>
     </g>
    </g>
    <g id="ytick_11">
     <g id="line2d_19">
      <g>
       <use xlink:href="#me3d8605640" x="49.912685" y="153.398658" style="stroke: #000000; stroke-width: 0.6"/>
      </g>
     </g>
    </g>
    <g id="ytick_12">
     <g id="line2d_20">
      <g>
       <use xlink:href="#me3d8605640" x="49.912685" y="137.910275" style="stroke: #000000; stroke-width: 0.6"/>
      </g>
     </g>
    </g>
    <g id="ytick_13">
     <g id="line2d_21">
      <g>
       <use xlink:href="#me3d8605640" x="49.912685" y="126.921092" style="stroke: #000000; stroke-width: 0.6"/>
      </g>
     </g>
    </g>
    <g id="ytick_14">
     <g id="line2d_22">
      <g>
       <use xlink:href="#me3d8605640" x="49.912685" y="118.397219" style="stroke: #000000; stroke-width: 0.6"/>
      </g>
     </g>
    </g>
    <g id="ytick_15">
     <g id="line2d_23">
      <g>
       <use xlink:href="#me3d8605640" x="49.912685" y="111.432708" style="stroke: #000000; stroke-width: 0.6"/>
      </g>
     </g>
    </g>
    <g id="ytick_16">
     <g id="line2d_24">
      <g>
       <use xlink:href="#me3d8605640" x="49.912685" y="105.544298" style="stroke: #000000; stroke-width: 0.6"/>
      </g>
     </g>
    </g>
    <g id="ytick_17">
     <g id="line2d_25">
      <g>
       <use xlink:href="#me3d8605640" x="49.912685" y="100.443525" style="stroke: #000000; stroke-width: 0.6"/>
      </g>
     </g>
    </g>
    <g id="ytick_18">
     <g id="line2d_26">
      <g>
       <use xlink:href="#me3d8605640" x="49.912685" y="95.944325" style="stroke: #000000; stroke-width: 0.6"/>
      </g>
     </g>
    </g>
    <g id="ytick_19">
     <g id="line2d_27">
      <g>
       <use xlink:href="#me3d8605640" x="49.912685" y="65.442087" style="stroke: #000000; stroke-width: 0.6"/>
      </g>
     </g>
    </g>
    <g id="ytick_20">
     <g id="line2d_28">
      <g>
       <use xlink:href="#me3d8605640" x="49.912685" y="49.953703" style="stroke: #000000; stroke-width: 0.6"/>
      </g>
     </g>
    </g>
    <g id="ytick_21">
     <g id="line2d_29">
      <g>
       <use xlink:href="#me3d8605640" x="49.912685" y="38.96452" style="stroke: #000000; stroke-width: 0.6"/>
      </g>
     </g>
    </g>
    <g id="ytick_22">
     <g id="line2d_30">
      <g>
       <use xlink:href="#me3d8605640" x="49.912685" y="30.440648" style="stroke: #000000; stroke-width: 0.6"/>
      </g>
     </g>
    </g>
    <g id="text_12">
     <!-- Avg Duration (ms) -->
     <g transform="translate(19.232997 181.990469) rotate(-90) scale(0.1 -0.1)">
      <defs>
       <path id="DejaVuSans-41" d="M 2188 4044 
L 1331 1722 
L 3047 1722 
L 2188 4044 
z
M 1831 4666 
L 2547 4666 
L 4325 0 
L 3669 0 
L 3244 1197 
L 1141 1197 
L 716 0 
L 50 0 
L 1831 4666 
z
" transform="scale(0.015625)"/>
       <path id="DejaVuSans-76" d="M 191 3500 
L 800 3500 
L 1894 563 
L 2988 3500 
L 3597 3500 
L 2284 0 
L 1503 0 
L 191 3500 
z
" transform="scale(0.015625)"/>
       <path id="DejaVuSans-67" d="M 2906 1791 
Q 2906 2416 2648 2759 
Q 2391 3103 1925 3103 
Q 1463 3103 1205 2759 
Q 947 2416 947 1791 
Q 947 1169 1205 825 
Q 1463 481 1925 481 
Q 2391 481 2648 825 
Q 2906 1169 2906 1791 
z
M 3481 434 
Q 3481 -459 3084 -895 
Q 2688 -1331 1869 -1331 
Q 1566 -1331 1297 -1286 
Q 1028 -1241 775 -1147 
L 775 -588 
Q 1028 -725 1275 -790 
Q 1522 -856 1778 -856 
Q 2344 -856 2625 -561 
Q 2906 -266 2906 331 
L 2906 616 
Q 2728 306 2450 153 
Q 2172 0 1784 0 
Q 1141 0 747 490 
Q 353 981 353 1791 
Q 353 2603 747 3093 
Q 1141 3584 1784 3584 
Q 2172 3584 2450 3431 
Q 2728 3278 2906 2969 
L 2906 3500 
L 3481 3500 
L 3481 434 
z
" transform="scale(0.015625)"/>
       <path id="DejaVuSans-44" d="M 1259 4147 
L 1259 519 
L 2022 519 
Q 2988 519 3436 956 
Q 3884 1394 3884 2338 
Q 3884 3275 3436 3711 
Q 2988 4147 2022 4147 
L 1259 4147 
z
M 628 4666 
L 1925 4666 
Q 3281 4666 3915 4102 
Q 4550 3538 4550 2338 
Q 4550 1131 3912 565 
Q 3275 0 1925 0 
L 628 0 
L 628 4666 
z
" transform="scale(0.015625)"/>
       <path id="DejaVuSans-75" d="M 544 1381 
L 544 3500 
L 1119 3500 
L 1119 1403 
Q 1119 906 1312 657 
Q 1506 409 1894 409 
Q 2359 409 2629 706 
Q 2900 1003 2900 1516 
L 2900 3500 
L 3475 3500 
L 3475 0 
L 2900 0 
L 2900 538 
Q 2691 219 2414 64 
Q 2138 -91 1772 -91 
Q 1169 -91 856 284 
Q 544 659 544 1381 
z
M 1991 3584 
L 1991 3584 
z
" transform="scale(0.015625)"/>
       <path id="DejaVuSans-72" d="M 2631 2963 
Q 2534 3019 2420 3045 
Q 2306 3072 2169 3072 
Q 1681 3072 1420 2755 
Q 1159 2438 1159 1844 
L 1159 0 
L 581 0 
L 581 3500 
L 1159 3500 
L 1159 2956 
Q 1341 3275 1631 3429 
Q 1922 3584 2338 3584 
Q 2397 3584 2469 3576 
Q 2541 3569 2628 3553 
L 2631 2963 
z
" transform="scale(0.015625)"/>
      </defs>
      <use xlink:href="#DejaVuSans-41"/>
      <use xlink:href="#DejaVuSans-76" transform="translate(62.533203 0)"/>
      <use xlink:href="#DejaVuSans-67" transform="translate(121.712891 0)"/>
      <use xlink:href="#DejaVuSans-20" transform="translate(185.189453 0)"/>
      <use xlink:href="#DejaVuSans-44" transform="translate(216.976562 0)"/>
      <use xlink:href="#DejaVuSans-75" transform="translate(293.978516 0)"/>
      <use xlink:href="#DejaVuSans-72" transform="translate(357.357422 0)"/>
      <use xlink:href="#DejaVuSans-61" transform="translate(398.470703 0)"/>
      <use xlink:href="#DejaVuSans-74" transform="translate(459.75 0)"/>
      <use xlink:href="#DejaVuSans-69" transform="translate(498.958984 0)"/>
      <use xlink:href="#DejaVuSans-6f" transform="translate(526.742188 0)"/>
      <use xlink:href="#DejaVuSans-6e" transform="translate(587.923828 0)"/>
      <use xlink:href="#DejaVuSans-20" transform="translate(651.302734 0)"/>
      <use xlink:href="#DejaVuSans-28" transform="translate(683.089844 0)"/>
      <use xlink:href="#DejaVuSans-6d" transform="translate(722.103516 0)"/>
      <use xlink:href="#DejaVuSans-73" transform="translate(819.515625 0)"/>
      <use xlink:href="#DejaVuSans-29" transform="translate(871.615234 0)"/>
     </g>
    </g>
   </g>
   <g id="line2d_31">
    <path d="M 92.971199 218.636474 
L 95.363339 202.531557 
L 97.755478 223.582886 
L 100.147618 228.90816 
L 102.539758 228.55284 
L 104.931898 230.902936 
L 107.324037 231.544233 
L 109.716177 233.34065 
L 112.108317 233.771466 
L 114.500456 232.519388 
L 116.892596 229.771178 
L 119.284736 233.109987 
L 121.676875 230.43342 
L 124.069015 230.575306 
L 126.461155 231.862784 
L 128.853294 233.867648 
L 131.245434 234.34941 
L 133.637574 233.67022 
L 136.029713 235.142406 
L 138.421853 235.334442 
L 140.813993 231.425539 
L 143.206132 233.88683 
L 145.598272 232.581856 
L 147.990412 229.560518 
L 150.382552 233.155989 
L 152.774691 230.145741 
L 155.166831 233.743397 
L 157.558971 231.005099 
L 159.95111 233.611477 
L 162.34325 233.851975 
L 164.73539 232.832639 
L 167.127529 232.700279 
L 169.519669 229.295872 
L 171.911809 233.920112 
L 174.303948 236.078182 
L 176.696088 234.03801 
L 179.088228 234.528579 
L 181.480367 234.002911 
L 183.872507 235.467795 
L 186.264647 233.673793 
L 188.656786 235.507879 
L 191.048926 234.685931 
L 193.441066 232.779362 
L 195.833206 232.505651 
L 198.225345 232.077928 
L 200.617485 234.506653 
L 203.009625 224.99343 
L 205.401764 233.535449 
L 207.793904 231.38676 
L 212.578183 232.290707 
L 214.970323 234.332247 
L 217.362463 233.70657 
L 219.754602 234.600933 
L 222.146742 233.135798 
L 224.538882 232.09366 
L 226.931021 234.301805 
L 229.323161 234.827687 
L 231.715301 234.721143 
L 234.107441 232.947691 
L 236.49958 226.567599 
L 238.89172 232.24587 
L 241.28386 232.000065 
L 243.675999 234.07798 
L 246.068139 234.279476 
L 248.460279 233.563425 
L 250.852418 233.313556 
L 253.244558 233.317761 
L 258.028837 230.360108 
L 260.420977 230.227502 
L 262.813117 222.892732 
L 265.205256 226.311502 
L 267.597396 227.771573 
L 269.989536 229.654743 
L 272.381675 230.135976 
L 274.773815 226.213929 
L 277.165955 230.787175 
L 279.558095 229.450736 
L 281.950234 230.609367 
L 284.342374 232.702851 
L 286.734514 232.702681 
L 289.126653 230.820934 
L 291.518793 225.909826 
L 293.910933 229.835619 
L 296.303072 230.478158 
L 298.695212 233.601563 
L 301.087352 230.474525 
L 303.479491 232.680781 
L 305.871631 229.150862 
L 308.263771 228.059788 
L 310.65591 232.844968 
L 313.04805 227.902991 
L 315.44019 224.881944 
L 317.832329 231.651522 
L 320.224469 230.607801 
L 322.616609 231.765861 
L 325.008749 230.400622 
L 327.400888 233.976711 
L 329.793028 228.600539 
L 332.185168 231.696336 
L 334.577307 231.020346 
L 336.969447 228.22792 
L 339.361587 230.387377 
L 341.753726 231.651364 
L 344.145866 229.740874 
L 346.538006 230.310103 
L 348.930145 230.619103 
L 351.322285 224.599211 
L 356.106564 231.412501 
L 358.498704 230.988777 
L 360.890844 229.269796 
L 363.282983 227.16576 
L 365.675123 226.990717 
L 368.067263 225.814452 
L 370.459403 229.556984 
L 372.851542 229.021814 
L 375.243682 226.772191 
L 377.635822 36.841818 
L 380.027961 119.858562 
L 382.420101 127.224387 
L 384.812241 167.702889 
L 387.20438 187.184859 
L 389.59652 211.917417 
L 391.98866 207.924137 
L 394.380799 210.540435 
L 396.772939 193.897152 
L 399.165079 200.210404 
L 401.557218 203.330571 
L 403.949358 208.737312 
L 406.341498 200.249684 
L 408.733638 189.87226 
L 411.125777 213.173921 
L 413.517917 210.940619 
L 415.910057 221.548507 
L 418.302196 201.823977 
L 420.694336 204.370195 
L 423.086476 214.190019 
L 425.478615 225.637983 
L 427.870755 210.195118 
L 430.262895 211.974844 
L 432.655034 216.882896 
L 435.047174 221.117999 
L 437.439314 224.415604 
L 439.831453 222.550164 
L 442.223593 218.890682 
L 444.615733 219.716219 
L 447.007872 222.845227 
L 449.400012 210.52331 
L 451.792152 213.308557 
L 454.184292 205.065867 
L 456.576431 214.442472 
L 458.968571 216.443724 
L 461.360711 221.779531 
L 463.75285 212.371606 
L 466.14499 219.522814 
L 468.53713 216.566035 
L 470.929269 214.763298 
L 473.321409 197.426458 
L 475.713549 217.414532 
L 478.105688 218.998026 
L 480.497828 212.390589 
L 482.889968 209.135157 
L 485.282107 214.237081 
L 487.674247 211.046037 
L 490.066387 213.324243 
L 492.458526 203.919285 
L 494.850666 214.625382 
L 497.242806 213.324378 
L 499.634946 218.867548 
L 502.027085 222.197604 
L 504.419225 224.311553 
L 506.811365 220.430507 
L 509.203504 223.306918 
L 511.595644 212.673927 
L 513.987784 221.392696 
L 516.379923 220.043612 
L 518.772063 213.824753 
L 521.164203 223.407908 
L 523.556342 225.114495 
L 525.948482 218.548438 
L 528.340622 217.279462 
L 530.732761 221.62258 
L 533.124901 217.377744 
L 535.517041 224.017738 
L 537.90918 223.163327 
L 540.30132 218.851921 
L 542.69346 223.28933 
L 545.0856 209.519459 
L 547.477739 224.546214 
L 549.869879 215.382486 
L 552.262019 220.243567 
L 554.654158 216.472753 
L 557.046298 220.291199 
L 559.438438 219.877892 
L 561.830577 221.687018 
L 564.222717 213.044248 
L 566.614857 218.277703 
L 569.006996 219.939009 
L 571.399136 218.39008 
L 573.791276 213.111631 
L 576.183415 206.258101 
L 578.575555 210.887265 
L 580.967695 217.009754 
L 583.359835 222.346239 
L 585.751974 220.302947 
L 588.144114 220.903571 
L 590.536254 214.199119 
L 592.928393 220.247892 
L 595.320533 214.561169 
L 597.712673 220.85491 
L 600.104812 208.155781 
L 602.496952 217.065388 
L 604.889092 217.273086 
L 607.281231 196.789564 
L 609.673371 221.025719 
L 612.065511 221.304549 
L 614.45765 216.414247 
L 616.84979 222.831148 
L 619.24193 224.539097 
L 621.634069 219.572897 
L 624.026209 224.509953 
L 626.418349 221.043847 
L 628.810489 225.185159 
L 631.202628 224.883739 
L 633.594768 221.542178 
L 635.986908 222.304459 
L 638.379047 222.641466 
L 640.771187 227.914732 
L 643.163327 226.974378 
L 645.555466 223.844229 
L 647.947606 223.180941 
L 650.339746 222.860141 
L 652.731885 218.330913 
L 655.124025 217.782222 
L 657.516165 221.473354 
L 659.908304 223.477782 
L 662.300444 223.86654 
L 664.692584 214.809857 
L 667.084723 216.125006 
L 669.476863 224.027702 
L 671.869003 217.143479 
L 674.261143 219.813655 
L 676.653282 226.323847 
L 679.045422 221.3841 
L 681.437562 223.049733 
L 683.829701 218.187925 
L 686.221841 215.998707 
L 688.613981 223.778907 
L 691.00612 217.557504 
L 693.39826 219.869685 
L 695.7904 221.914027 
L 698.182539 222.124076 
L 700.574679 223.838608 
L 702.966819 226.998743 
L 705.358958 226.435801 
L 707.751098 220.975362 
L 710.143238 227.096779 
L 712.535377 227.903203 
L 714.927517 226.64336 
L 717.319657 223.638688 
L 719.711797 223.282037 
L 722.103936 226.10599 
L 724.496076 224.034392 
L 726.888216 215.743587 
L 729.280355 221.082926 
L 731.672495 223.870119 
L 734.064635 225.030842 
L 736.456774 228.487779 
L 738.848914 222.352567 
L 741.241054 225.546685 
L 743.633193 216.642429 
L 746.025333 226.69178 
L 748.417473 228.265661 
L 750.809612 226.045651 
L 753.201752 228.200568 
L 755.593892 225.172411 
L 757.986032 222.498756 
L 760.378171 224.466622 
L 762.770311 223.465438 
L 765.162451 225.8745 
L 767.55459 226.248273 
L 769.94673 224.827402 
L 772.33887 228.0687 
L 774.731009 227.941438 
L 777.123149 229.701733 
L 779.515289 224.359736 
L 781.907428 227.162075 
L 784.299568 228.083361 
L 786.691708 226.141111 
L 789.083847 228.308804 
L 791.475987 227.618263 
L 793.868127 228.296815 
L 796.260266 224.215707 
L 798.652406 222.331206 
L 801.044546 227.001983 
L 803.436686 224.949745 
L 805.828825 224.079707 
L 808.220965 220.989656 
L 813.005244 226.870906 
L 815.397384 224.72881 
L 817.789524 221.998074 
L 820.181663 227.446861 
L 822.573803 225.080157 
L 824.965943 229.487508 
L 827.358082 228.280846 
L 829.750222 229.125705 
L 832.142362 228.984983 
L 834.534501 226.833944 
L 836.926641 227.0556 
L 839.318781 229.789234 
L 841.71092 219.621572 
L 844.10306 217.754971 
L 846.4952 225.279233 
L 848.88734 232.378726 
L 851.279479 232.001121 
L 853.671619 227.20565 
L 856.063759 233.150692 
L 858.455898 230.016502 
L 860.848038 231.43352 
L 863.240178 232.539537 
L 865.632317 233.410673 
L 868.024457 230.849592 
L 870.416597 234.861271 
L 872.808736 229.269601 
L 877.593016 233.374183 
L 879.985155 233.987049 
L 882.377295 232.630769 
L 884.769435 234.67106 
L 887.161574 232.07083 
L 889.553714 234.640226 
L 891.945854 228.674797 
L 894.337994 234.229642 
L 896.730133 233.527853 
L 899.122273 233.516444 
L 901.514413 233.821453 
L 903.906552 234.736427 
L 906.298692 232.14245 
L 908.690832 232.785335 
L 911.082971 232.573817 
L 913.475111 232.540832 
L 915.867251 228.695338 
L 918.25939 230.49422 
L 920.65153 230.420295 
L 923.04367 230.142137 
L 925.435809 231.093578 
L 927.827949 233.53283 
L 930.220089 233.784227 
L 932.612229 232.376625 
L 935.004368 230.826945 
L 937.396508 232.110332 
L 939.788648 231.179136 
L 942.180787 226.880182 
L 944.572927 231.762771 
L 946.965067 228.311405 
L 949.357206 232.344505 
L 951.749346 225.803053 
L 954.141486 225.296246 
L 954.141486 225.296246 
" clip-path="url(#p3a4da2a127)" style="fill: none; stroke: #1f77b4; stroke-width: 1.5; stroke-linecap: square"/>
   </g>
   <g id="line2d_32">
    <path d="M 92.971199 219.994335 
L 95.363339 223.892123 
L 97.755478 229.609125 
L 100.147618 230.952091 
L 102.539758 222.669005 
L 104.931898 228.828305 
L 107.324037 232.507214 
L 109.716177 231.249703 
L 112.108317 233.020161 
L 116.892596 236.046064 
L 119.284736 233.858121 
L 121.676875 233.588494 
L 124.069015 235.081708 
L 126.461155 228.39538 
L 128.853294 194.519755 
L 131.245434 233.526243 
L 133.637574 223.186071 
L 136.029713 220.264433 
L 138.421853 229.569602 
L 140.813993 208.741014 
L 143.206132 202.218651 
L 145.598272 151.467993 
L 147.990412 166.455927 
L 150.382552 157.061853 
L 152.774691 195.294727 
L 155.166831 210.873585 
L 157.558971 212.117748 
L 159.95111 208.099643 
L 162.34325 205.80509 
L 164.73539 191.366725 
L 167.127529 182.298745 
L 169.519669 183.534692 
L 171.911809 174.587711 
L 174.303948 181.702469 
L 176.696088 129.216258 
L 179.088228 98.432436 
L 181.480367 163.704936 
L 183.872507 152.816901 
L 186.264647 138.475455 
L 188.656786 148.36236 
L 191.048926 127.771394 
L 193.441066 133.010941 
L 195.833206 109.931149 
L 198.225345 100.931295 
L 200.617485 83.465856 
L 203.009625 86.20175 
L 205.401764 107.899916 
L 207.793904 116.180367 
L 210.186044 90.323947 
L 212.578183 104.287026 
L 214.970323 80.705105 
L 217.362463 91.711992 
L 219.754602 89.231178 
L 222.146742 95.746811 
L 224.538882 101.658744 
L 226.931021 80.81033 
L 229.323161 89.696499 
L 231.715301 97.661282 
L 234.107441 74.095335 
L 236.49958 70.833401 
L 238.89172 80.502162 
L 243.675999 90.72711 
L 246.068139 86.806064 
L 248.460279 78.898081 
L 250.852418 80.063411 
L 253.244558 83.261693 
L 255.636698 77.605614 
L 258.028837 74.654949 
L 260.420977 75.096411 
L 262.813117 81.073032 
L 265.205256 68.837148 
L 267.597396 70.982533 
L 269.989536 74.854655 
L 272.381675 69.286618 
L 274.773815 85.925811 
L 277.165955 80.022727 
L 279.558095 67.79564 
L 281.950234 82.651189 
L 284.342374 81.538255 
L 286.734514 82.177906 
L 289.126653 69.364447 
L 293.910933 84.061191 
L 296.303072 73.849723 
L 298.695212 83.033241 
L 301.087352 90.994678 
L 303.479491 87.211889 
L 305.871631 91.636291 
L 308.263771 87.066025 
L 310.65591 89.555838 
L 313.04805 91.619698 
L 315.44019 80.312092 
L 317.832329 85.199235 
L 322.616609 75.820672 
L 325.008749 81.629052 
L 327.400888 77.569072 
L 329.793028 79.281941 
L 332.185168 92.511504 
L 334.577307 58.27354 
L 336.969447 83.232667 
L 339.361587 79.664557 
L 341.753726 85.877384 
L 344.145866 80.590237 
L 346.538006 81.934422 
L 348.930145 78.592068 
L 351.322285 74.83826 
L 353.714425 88.809354 
L 356.106564 84.07086 
L 358.498704 83.335672 
L 360.890844 75.869521 
L 363.282983 84.221493 
L 365.675123 82.999192 
L 368.067263 87.979673 
L 370.459403 84.581113 
L 372.851542 90.047403 
L 375.243682 89.446196 
L 377.635822 88.383938 
L 380.027961 83.506523 
L 382.420101 85.600798 
L 384.812241 79.004478 
L 387.20438 75.995863 
L 389.59652 89.149901 
L 391.98866 92.493767 
L 394.380799 86.213571 
L 396.772939 86.693672 
L 399.165079 101.204702 
L 401.557218 97.243884 
L 403.949358 99.21542 
L 406.341498 97.60191 
L 408.733638 103.10476 
L 411.125777 89.323036 
L 413.517917 93.929522 
L 415.910057 91.65222 
L 418.302196 100.911326 
L 420.694336 96.817437 
L 423.086476 107.921508 
L 425.478615 106.033888 
L 427.870755 102.936304 
L 430.262895 103.645529 
L 432.655034 100.443821 
L 435.047174 99.700918 
L 437.439314 105.832606 
L 439.831453 110.248868 
L 442.223593 127.952502 
L 444.615733 109.901162 
L 447.007872 99.535492 
L 449.400012 107.124005 
L 451.792152 113.147136 
L 454.184292 106.189712 
L 456.576431 113.40447 
L 458.968571 107.040696 
L 461.360711 108.683956 
L 463.75285 130.503469 
L 466.14499 139.722059 
L 468.53713 138.426521 
L 470.929269 141.45249 
L 473.321409 155.036206 
L 475.713549 137.997992 
L 478.105688 161.78894 
L 480.497828 155.612936 
L 482.889968 166.994121 
L 485.282107 139.68601 
L 487.674247 136.995617 
L 490.066387 177.558828 
L 492.458526 132.46597 
L 494.850666 157.569946 
L 497.242806 149.196328 
L 499.634946 131.091516 
L 502.027085 146.092265 
L 504.419225 113.408947 
L 506.811365 125.576273 
L 509.203504 113.99067 
L 511.595644 107.588371 
L 513.987784 130.268889 
L 516.379923 118.776851 
L 518.772063 123.407628 
L 521.164203 179.81292 
L 523.556342 163.827596 
L 525.948482 136.350946 
L 528.340622 130.064731 
L 530.732761 147.091886 
L 533.124901 117.430648 
L 535.517041 162.478336 
L 537.90918 134.050098 
L 540.30132 186.06611 
L 542.69346 153.129916 
L 545.0856 158.532686 
L 547.477739 152.921509 
L 549.869879 149.85177 
L 552.262019 143.925349 
L 554.654158 159.568557 
L 557.046298 147.784283 
L 559.438438 138.165724 
L 561.830577 139.685399 
L 564.222717 126.541224 
L 566.614857 135.878417 
L 569.006996 155.873484 
L 571.399136 158.236662 
L 573.791276 150.80908 
L 576.183415 134.067433 
L 578.575555 140.801999 
L 580.967695 135.282859 
L 583.359835 126.41425 
L 585.751974 174.889557 
L 588.144114 140.571574 
L 590.536254 164.278468 
L 592.928393 170.844229 
L 595.320533 138.414985 
L 597.712673 161.160619 
L 600.104812 169.278439 
L 602.496952 142.032162 
L 604.889092 174.359548 
L 607.281231 121.610983 
L 609.673371 173.288893 
L 612.065511 160.339569 
L 614.45765 173.092242 
L 616.84979 151.807385 
L 619.24193 158.48483 
L 621.634069 137.785243 
L 624.026209 113.037958 
L 626.418349 146.161353 
L 628.810489 143.574425 
L 631.202628 133.03923 
L 633.594768 132.091311 
L 635.986908 152.995836 
L 638.379047 181.025299 
L 640.771187 148.822346 
L 643.163327 130.440523 
L 645.555466 139.816277 
L 647.947606 122.43972 
L 650.339746 99.952986 
L 652.731885 114.79764 
L 655.124025 123.042853 
L 657.516165 164.9814 
L 659.908304 124.736708 
L 662.300444 160.837445 
L 664.692584 153.869083 
L 667.084723 145.006051 
L 669.476863 131.417313 
L 671.869003 130.940135 
L 674.261143 141.69769 
L 676.653282 159.870195 
L 679.045422 141.606553 
L 681.437562 130.425202 
L 683.829701 137.169071 
L 686.221841 168.43429 
L 688.613981 141.570996 
L 691.00612 144.222269 
L 693.39826 166.132326 
L 695.7904 150.334157 
L 698.182539 154.867255 
L 700.574679 152.790514 
L 702.966819 141.881511 
L 705.358958 133.787395 
L 707.751098 129.949387 
L 710.143238 155.585567 
L 712.535377 143.002508 
L 714.927517 143.647992 
L 717.319657 130.024412 
L 719.711797 144.270129 
L 722.103936 116.399682 
L 724.496076 162.962434 
L 726.888216 134.819402 
L 729.280355 136.240381 
L 731.672495 134.905738 
L 734.064635 182.876881 
L 736.456774 149.810435 
L 738.848914 129.423655 
L 741.241054 140.00205 
L 743.633193 130.639862 
L 746.025333 169.646486 
L 748.417473 166.217457 
L 750.809612 134.196006 
L 753.201752 158.051039 
L 755.593892 131.350352 
L 757.986032 144.958471 
L 760.378171 132.140344 
L 762.770311 154.313753 
L 765.162451 161.239073 
L 767.55459 127.807686 
L 769.94673 120.971743 
L 772.33887 168.65357 
L 774.731009 124.175706 
L 777.123149 137.767658 
L 779.515289 135.915686 
L 781.907428 137.693913 
L 784.299568 146.952455 
L 786.691708 166.386515 
L 789.083847 124.880424 
L 791.475987 147.565496 
L 793.868127 126.893617 
L 796.260266 137.182842 
L 798.652406 144.337329 
L 801.044546 136.135257 
L 803.436686 135.958291 
L 805.828825 150.080018 
L 808.220965 137.164855 
L 810.613105 149.869806 
L 813.005244 141.961698 
L 815.397384 143.055742 
L 817.789524 158.837828 
L 820.181663 156.591678 
L 822.573803 166.566655 
L 824.965943 162.303721 
L 827.358082 153.579407 
L 829.750222 199.993085 
L 832.142362 177.385289 
L 834.534501 184.459194 
L 836.926641 190.980399 
L 839.318781 168.785973 
L 841.71092 212.731078 
L 844.10306 190.854192 
L 846.4952 219.959176 
L 848.88734 197.494327 
L 851.279479 189.160736 
L 853.671619 211.690885 
L 856.063759 208.250512 
L 858.455898 220.66137 
L 860.848038 217.774884 
L 863.240178 213.488092 
L 865.632317 220.009454 
L 868.024457 201.68126 
L 870.416597 221.570902 
L 872.808736 230.875062 
L 875.200876 230.400404 
L 877.593016 228.922647 
L 879.985155 228.976509 
L 882.377295 230.976891 
L 884.769435 225.199143 
L 887.161574 230.336548 
L 889.553714 224.750462 
L 891.945854 232.302881 
L 894.337994 231.315657 
L 896.730133 232.40326 
L 899.122273 228.933853 
L 901.514413 233.492605 
L 903.906552 231.153067 
L 906.298692 233.296564 
L 908.690832 232.629162 
L 911.082971 231.541571 
L 913.475111 233.017074 
L 915.867251 231.547205 
L 918.25939 231.609123 
L 920.65153 233.676653 
L 923.04367 233.146447 
L 925.435809 230.153165 
L 927.827949 231.805011 
L 930.220089 232.779695 
L 932.612229 225.984384 
L 935.004368 231.422613 
L 937.396508 232.62732 
L 939.788648 232.363988 
L 942.180787 229.689951 
L 944.572927 231.328746 
L 946.965067 228.964424 
L 949.357206 228.52287 
L 951.749346 225.160429 
L 954.141486 225.150747 
L 954.141486 225.150747 
" clip-path="url(#p3a4da2a127)" style="fill: none; stroke: #ff7f0e; stroke-width: 1.5; stroke-linecap: square"/>
   </g>
   <g id="line2d_33">
    <path d="M 92.971199 212.108154 
L 95.363339 214.722556 
L 97.755478 216.920041 
L 100.147618 217.375012 
L 102.539758 217.102724 
L 104.931898 219.310223 
L 107.324037 219.80161 
L 109.716177 216.61003 
L 112.108317 215.631713 
L 114.500456 219.101194 
L 116.892596 217.521463 
L 121.676875 219.210214 
L 124.069015 218.813705 
L 126.461155 209.320814 
L 128.853294 217.740812 
L 131.245434 215.104942 
L 133.637574 220.562901 
L 136.029713 218.882839 
L 138.421853 209.712882 
L 140.813993 212.735941 
L 143.206132 61.83931 
L 145.598272 189.591238 
L 147.990412 208.069868 
L 150.382552 111.436043 
L 152.774691 191.451133 
L 155.166831 209.572703 
L 157.558971 206.192915 
L 159.95111 206.811746 
L 162.34325 212.308973 
L 164.73539 170.63189 
L 167.127529 213.340145 
L 169.519669 205.493376 
L 171.911809 209.258637 
L 174.303948 216.32343 
L 176.696088 211.478529 
L 179.088228 210.381406 
L 181.480367 186.464245 
L 183.872507 210.55314 
L 186.264647 199.603357 
L 188.656786 162.624973 
L 191.048926 203.283058 
L 193.441066 206.274812 
L 195.833206 205.967477 
L 198.225345 171.264863 
L 200.617485 180.654963 
L 203.009625 209.625724 
L 205.401764 195.595107 
L 207.793904 209.022506 
L 210.186044 191.281221 
L 212.578183 198.365271 
L 214.970323 189.313316 
L 217.362463 189.805402 
L 219.754602 199.500253 
L 222.146742 197.629353 
L 224.538882 197.087691 
L 226.931021 204.901177 
L 229.323161 203.995764 
L 231.715301 193.451335 
L 234.107441 203.487571 
L 236.49958 200.639106 
L 238.89172 181.717648 
L 241.28386 192.241039 
L 243.675999 200.546492 
L 246.068139 194.959297 
L 248.460279 209.082437 
L 250.852418 202.054046 
L 253.244558 203.843312 
L 255.636698 206.25321 
L 258.028837 201.776331 
L 260.420977 211.034597 
L 262.813117 200.540037 
L 265.205256 182.135906 
L 267.597396 199.472993 
L 269.989536 190.2892 
L 272.381675 205.414655 
L 274.773815 195.539246 
L 277.165955 206.013604 
L 279.558095 188.68842 
L 281.950234 205.551278 
L 284.342374 198.232527 
L 286.734514 207.688294 
L 289.126653 199.771764 
L 291.518793 196.274694 
L 293.910933 210.332312 
L 296.303072 190.738247 
L 298.695212 205.293535 
L 301.087352 204.583863 
L 303.479491 195.596403 
L 305.871631 206.56614 
L 308.263771 202.085393 
L 310.65591 211.040958 
L 313.04805 210.864881 
L 315.44019 186.573853 
L 317.832329 206.771269 
L 320.224469 209.160907 
L 322.616609 209.751141 
L 325.008749 208.016771 
L 327.400888 189.414813 
L 329.793028 204.963929 
L 332.185168 204.085832 
L 334.577307 200.94908 
L 336.969447 210.425469 
L 339.361587 206.875807 
L 341.753726 179.858811 
L 344.145866 203.06813 
L 346.538006 207.884049 
L 348.930145 211.721079 
L 351.322285 206.742798 
L 353.714425 208.961318 
L 356.106564 88.80317 
L 358.498704 158.459521 
L 360.890844 162.520595 
L 363.282983 180.300259 
L 365.675123 177.480292 
L 368.067263 190.128651 
L 370.459403 178.184403 
L 372.851542 195.422988 
L 375.243682 201.771255 
L 377.635822 194.541076 
L 380.027961 191.584138 
L 382.420101 196.935974 
L 384.812241 202.763774 
L 387.20438 205.886157 
L 389.59652 201.524407 
L 391.98866 161.669594 
L 394.380799 203.599452 
L 396.772939 197.352506 
L 399.165079 205.586601 
L 401.557218 206.867259 
L 403.949358 199.446892 
L 406.341498 203.046361 
L 408.733638 196.273841 
L 411.125777 204.444551 
L 413.517917 203.047397 
L 415.910057 189.621876 
L 418.302196 183.744671 
L 420.694336 210.458452 
L 423.086476 192.673531 
L 425.478615 205.875464 
L 427.870755 211.15124 
L 430.262895 200.140455 
L 432.655034 210.501339 
L 435.047174 200.344125 
L 437.439314 209.468218 
L 439.831453 205.203418 
L 442.223593 197.165678 
L 444.615733 208.538223 
L 447.007872 199.180926 
L 449.400012 208.465652 
L 451.792152 205.121449 
L 454.184292 203.222935 
L 456.576431 207.365073 
L 458.968571 204.436729 
L 461.360711 204.199346 
L 463.75285 202.757868 
L 466.14499 194.222336 
L 468.53713 187.064339 
L 470.929269 212.662168 
L 473.321409 202.992934 
L 475.713549 200.9427 
L 478.105688 204.481973 
L 480.497828 207.778062 
L 482.889968 207.754725 
L 485.282107 204.777674 
L 487.674247 205.027414 
L 490.066387 213.544771 
L 492.458526 202.928583 
L 494.850666 207.763771 
L 497.242806 204.147525 
L 499.634946 202.697943 
L 502.027085 210.63704 
L 504.419225 205.716314 
L 506.811365 182.155177 
L 509.203504 207.655583 
L 511.595644 202.186048 
L 513.987784 210.38094 
L 516.379923 209.057935 
L 518.772063 194.944978 
L 521.164203 193.150532 
L 523.556342 209.100395 
L 525.948482 203.790947 
L 528.340622 210.469214 
L 530.732761 205.28328 
L 533.124901 217.679762 
L 535.517041 212.609244 
L 537.90918 215.094499 
L 540.30132 213.430333 
L 542.69346 196.918316 
L 545.0856 209.101381 
L 547.477739 218.154937 
L 549.869879 214.430078 
L 552.262019 212.993267 
L 554.654158 211.383003 
L 557.046298 197.270896 
L 559.438438 211.24553 
L 561.830577 212.304802 
L 564.222717 208.77334 
L 566.614857 211.902322 
L 569.006996 189.847476 
L 571.399136 203.707703 
L 573.791276 210.864377 
L 576.183415 208.288348 
L 578.575555 217.14324 
L 580.967695 199.851196 
L 583.359835 208.692243 
L 585.751974 182.884763 
L 588.144114 193.213683 
L 590.536254 208.436821 
L 592.928393 199.142917 
L 595.320533 196.250732 
L 597.712673 210.239405 
L 600.104812 206.1957 
L 602.496952 209.651975 
L 604.889092 159.926078 
L 607.281231 181.504277 
L 609.673371 187.483628 
L 612.065511 194.76844 
L 614.45765 194.576068 
L 616.84979 201.763171 
L 619.24193 167.066916 
L 621.634069 209.718463 
L 624.026209 192.964021 
L 626.418349 206.273983 
L 628.810489 161.75863 
L 631.202628 182.452462 
L 633.594768 185.601317 
L 638.379047 190.390267 
L 640.771187 191.015328 
L 643.163327 191.874342 
L 645.555466 182.402612 
L 647.947606 192.138648 
L 650.339746 173.540175 
L 652.731885 194.786392 
L 655.124025 202.554823 
L 657.516165 86.357983 
L 659.908304 140.552104 
L 662.300444 142.912917 
L 664.692584 107.248014 
L 667.084723 151.057509 
L 669.476863 149.096838 
L 671.869003 156.922635 
L 674.261143 174.260819 
L 676.653282 176.599115 
L 679.045422 188.038151 
L 681.437562 194.050421 
L 683.829701 188.228999 
L 686.221841 205.805548 
L 688.613981 204.054097 
L 691.00612 192.03749 
L 693.39826 206.294792 
L 695.7904 162.340654 
L 698.182539 197.290451 
L 700.574679 193.239118 
L 702.966819 197.920352 
L 705.358958 209.552486 
L 707.751098 184.193426 
L 710.143238 186.448734 
L 712.535377 194.159554 
L 714.927517 208.377549 
L 717.319657 199.32237 
L 719.711797 184.818761 
L 722.103936 185.728545 
L 724.496076 211.708327 
L 726.888216 197.014522 
L 729.280355 204.17314 
L 731.672495 208.14267 
L 734.064635 184.974472 
L 736.456774 203.033258 
L 738.848914 202.657122 
L 741.241054 206.516382 
L 743.633193 196.74593 
L 746.025333 163.571226 
L 748.417473 196.922428 
L 750.809612 200.031942 
L 753.201752 185.958396 
L 755.593892 193.479472 
L 757.986032 194.875662 
L 760.378171 200.401903 
L 762.770311 203.529477 
L 765.162451 199.971113 
L 767.55459 201.535719 
L 769.94673 197.082692 
L 772.33887 178.182256 
L 774.731009 210.421288 
L 777.123149 201.675662 
L 779.515289 202.911506 
L 781.907428 209.042164 
L 784.299568 189.301121 
L 786.691708 198.260684 
L 789.083847 204.981785 
L 791.475987 208.154334 
L 793.868127 212.362231 
L 796.260266 169.180758 
L 798.652406 196.001508 
L 801.044546 190.230337 
L 803.436686 199.895168 
L 805.828825 212.084384 
L 808.220965 194.900535 
L 810.613105 196.788378 
L 813.005244 207.421996 
L 815.397384 210.174826 
L 817.789524 211.086463 
L 820.181663 212.226282 
L 822.573803 163.789395 
L 824.965943 212.089008 
L 827.358082 214.23095 
L 829.750222 209.742839 
L 832.142362 210.064855 
L 834.534501 198.040872 
L 836.926641 212.343263 
L 839.318781 211.999473 
L 841.71092 209.635169 
L 844.10306 216.291632 
L 846.4952 181.860017 
L 848.88734 209.010545 
L 851.279479 214.318479 
L 853.671619 218.262648 
L 856.063759 217.859319 
L 858.455898 217.997094 
L 860.848038 208.36497 
L 863.240178 218.48018 
L 865.632317 217.305537 
L 868.024457 219.579999 
L 870.416597 219.847092 
L 872.808736 187.14544 
L 875.200876 210.345399 
L 877.593016 218.048173 
L 879.985155 219.846391 
L 882.377295 218.421147 
L 884.769435 212.687031 
L 887.161574 214.396003 
L 889.553714 218.908333 
L 891.945854 220.116976 
L 894.337994 220.00948 
L 896.730133 189.565675 
L 899.122273 215.691585 
L 901.514413 219.508167 
L 903.906552 214.301264 
L 906.298692 218.477553 
L 908.690832 220.168797 
L 911.082971 218.831934 
L 913.475111 220.104731 
L 915.867251 216.826197 
L 918.25939 219.052714 
L 920.65153 218.041852 
L 923.04367 177.818353 
L 925.435809 219.063704 
L 927.827949 219.575478 
L 930.220089 219.673285 
L 932.612229 219.333208 
L 935.004368 207.423829 
L 937.396508 218.748596 
L 939.788648 219.078748 
L 942.180787 219.912281 
L 944.572927 217.690106 
L 946.965067 215.199948 
L 949.357206 192.553947 
L 951.749346 218.491232 
L 954.141486 217.536475 
L 954.141486 217.536475 
" clip-path="url(#p3a4da2a127)" style="fill: none; stroke: #2ca02c; stroke-width: 1.5; stroke-linecap: square"/>
   </g>
   <g id="patch_3">
    <path d="M 49.912685 246.04 
L 49.912685 26.88 
" style="fill: none; stroke: #000000; stroke-width: 0.8; stroke-linejoin: miter; stroke-linecap: square"/>
   </g>
   <g id="patch_4">
    <path d="M 997.2 246.04 
L 997.2 26.88 
" style="fill: none; stroke: #000000; stroke-width: 0.8; stroke-linejoin: miter; stroke-linecap: square"/>
   </g>
   <g id="patch_5">
    <path d="M 49.912685 246.04 
L 997.2 246.04 
" style="fill: none; stroke: #000000; stroke-width: 0.8; stroke-linejoin: miter; stroke-linecap: square"/>
   </g>
   <g id="patch_6">
    <path d="M 49.912685 26.88 
L 997.2 26.88 
" style="fill: none; stroke: #000000; stroke-width: 0.8; stroke-linejoin: miter; stroke-linecap: square"/>
   </g>
   <g id="text_13">
    <!-- Average HTTP Request Duration (log scale) -->
    <g transform="translate(394.307905 20.88) scale(0.12 -0.12)">
     <defs>
      <path id="DejaVuSans-48" d="M 628 4666 
L 1259 4666 
L 1259 2753 
L 3553 2753 
L 3553 4666 
L 4184 4666 
L 4184 0 
L 3553 0 
L 3553 2222 
L 1259 2222 
L 1259 0 
L 628 0 
L 628 4666 
z
" transform="scale(0.015625)"/>
      <path id="DejaVuSans-50" d="M 1259 4147 
L 1259 2394 
L 2053 2394 
Q 2494 2394 2734 2622 
Q 2975 2850 2975 3272 
Q 2975 3691 2734 3919 
Q 2494 4147 2053 4147 
L 1259 4147 
z
M 628 4666 
L 2053 4666 
Q 2838 4666 3239 4311 
Q 3641 3956 3641 3272 
Q 3641 2581 3239 2228 
Q 2838 1875 2053 1875 
L 1259 1875 
L 1259 0 
L 628 0 
L 628 4666 
z
" transform="scale(0.015625)"/>
      <path id="DejaVuSans-52" d="M 2841 2188 
Q 3044 2119 3236 1894 
Q 3428 1669 3622 1275 
L 4263 0 
L 3584 0 
L 2988 1197 
Q 2756 1666 2539 1819 
Q 2322 1972 1947 1972 
L 1259 1972 
L 1259 0 
L 628 0 
L 628 4666 
L 2053 4666 
Q 2853 4666 3247 4331 
Q 3641 3997 3641 3322 
Q 3641 2881 3436 2590 
Q 3231 2300 2841 2188 
z
M 1259 4147 
L 1259 2491 
L 2053 2491 
Q 2509 2491 2742 2702 
Q 2975 2913 2975 3322 
Q 2975 3731 2742 3939 
Q 2509 4147 2053 4147 
L 1259 4147 
z
" transform="scale(0.015625)"/>
      <path id="DejaVuSans-71" d="M 947 1747 
Q 947 1113 1208 752 
Q 1469 391 1925 391 
Q 2381 391 2643 752 
Q 2906 1113 2906 1747 
Q 2906 2381 2643 2742 
Q 2381 3103 1925 3103 
Q 1469 3103 1208 2742 
Q 947 2381 947 1747 
z
M 2906 525 
Q 2725 213 2448 61 
Q 2172 -91 1784 -91 
Q 1150 -91 751 415 
Q 353 922 353 1747 
Q 353 2572 751 3078 
Q 1150 3584 1784 3584 
Q 2172 3584 2448 3432 
Q 2725 3281 2906 2969 
L 2906 3500 
L 3481 3500 
L 3481 -1331 
L 2906 -1331 
L 2906 525 
z
" transform="scale(0.015625)"/>
      <path id="DejaVuSans-6c" d="M 603 4863 
L 1178 4863 
L 1178 0 
L 603 0 
L 603 4863 
z
" transform="scale(0.015625)"/>
     </defs>
     <use xlink:href="#DejaVuSans-41"/>
     <use xlink:href="#DejaVuSans-76" transform="translate(62.533203 0)"/>
     <use xlink:href="#DejaVuSans-65" transform="translate(121.712891 0)"/>
     <use xlink:href="#DejaVuSans-72" transform="translate(183.236328 0)"/>
     <use xlink:href="#DejaVuSans-61" transform="translate(224.349609 0)"/>
     <use xlink:href="#DejaVuSans-67" transform="translate(285.628906 0)"/>
     <use xlink:href="#DejaVuSans-65" transform="translate(349.105469 0)"/>
     <use xlink:href="#DejaVuSans-20" transform="translate(410.628906 0)"/>
     <use xlink:href="#DejaVuSans-48" transform="translate(442.416016 0)"/>
     <use xlink:href="#DejaVuSans-54" transform="translate(517.611328 0)"/>
     <use xlink:href="#DejaVuSans-54" transform="translate(576.945312 0)"/>
     <use xlink:href="#DejaVuSans-50" transform="translate(638.029297 0)"/>
     <use xlink:href="#DejaVuSans-20" transform="translate(698.332031 0)"/>
     <use xlink:href="#DejaVuSans-52" transform="translate(730.119141 0)"/>
     <use xlink:href="#DejaVuSans-65" transform="translate(795.101562 0)"/>
     <use xlink:href="#DejaVuSans-71" transform="translate(856.625 0)"/>
     <use xlink:href="#DejaVuSans-75" transform="translate(920.101562 0)"/>
     <use xlink:href="#DejaVuSans-65" transform="translate(983.480469 0)"/>
     <use xlink:href="#DejaVuSans-73" transform="translate(1045.003906 0)"/>
     <use xlink:href="#DejaVuSans-74" transform="translate(1097.103516 0)"/>
     <use xlink:href="#DejaVuSans-20" transform="translate(1136.3125 0)"/>
     <use xlink:href="#DejaVuSans-44" transform="translate(1168.099609 0)"/>
     <use xlink:href="#DejaVuSans-75" transform="translate(1245.101562 0)"/>
     <use xlink:href="#DejaVuSans-72" transform="translate(1308.480469 0)"/>
     <use xlink:href="#DejaVuSans-61" transform="translate(1349.59375 0)"/>
     <use xlink:href="#DejaVuSans-74" transform="translate(1410.873047 0)"/>
     <use xlink:href="#DejaVuSans-69" transform="translate(1450.082031 0)"/>
     <use xlink:href="#DejaVuSans-6f" transform="translate(1477.865234 0)"/>
     <use xlink:href="#DejaVuSans-6e" transform="translate(1539.046875 0)"/>
     <use xlink:href="#DejaVuSans-20" transform="translate(1602.425781 0)"/>
     <use xlink:href="#DejaVuSans-28" transform="translate(1634.212891 0)"/>
     <use xlink:href="#DejaVuSans-6c" transform="translate(1673.226562 0)"/>
     <use xlink:href="#DejaVuSans-6f" transform="translate(1701.009766 0)"/>
     <use xlink:href="#DejaVuSans-67" transform="translate(1762.191406 0)"/>
     <use xlink:href="#DejaVuSans-20" transform="translate(1825.667969 0)"/>
     <use xlink:href="#DejaVuSans-73" transform="translate(1857.455078 0)"/>
     <use xlink:href="#DejaVuSans-63" transform="translate(1909.554688 0)"/>
     <use xlink:href="#DejaVuSans-61" transform="translate(1964.535156 0)"/>
     <use xlink:href="#DejaVuSans-6c" transform="translate(2025.814453 0)"/>
     <use xlink:href="#DejaVuSans-65" transform="translate(2053.597656 0)"/>
     <use xlink:href="#DejaVuSans-29" transform="translate(2115.121094 0)"/>
    </g>
   </g>
   <g id="legend_1">
    <g id="patch_7">
     <path d="M 856.85625 78.914375 
L 990.2 78.914375 
Q 992.2 78.914375 992.2 76.914375 
L 992.2 33.88 
Q 992.2 31.88 990.2 31.88 
L 856.85625 31.88 
Q 854.85625 31.88 854.85625 33.88 
L 854.85625 76.914375 
Q 854.85625 78.914375 856.85625 78.914375 
z
" style="fill: #ffffff; opacity: 0.8; stroke: #cccccc; stroke-linejoin: miter"/>
    </g>
    <g id="line2d_34">
     <path d="M 858.85625 39.978438 
L 868.85625 39.978438 
L 878.85625 39.978438 
" style="fill: none; stroke: #1f77b4; stroke-width: 1.5; stroke-linecap: square"/>
    </g>
    <g id="text_14">
     <!-- Single Large Results -->
     <g transform="translate(886.85625 43.478438) scale(0.1 -0.1)">
      <defs>
       <path id="DejaVuSans-4c" d="M 628 4666 
L 1259 4666 
L 1259 531 
L 3531 531 
L 3531 0 
L 628 0 
L 628 4666 
z
" transform="scale(0.015625)"/>
      </defs>
      <use xlink:href="#DejaVuSans-53"/>
      <use xlink:href="#DejaVuSans-69" transform="translate(63.476562 0)"/>
      <use xlink:href="#DejaVuSans-6e" transform="translate(91.259766 0)"/>
      <use xlink:href="#DejaVuSans-67" transform="translate(154.638672 0)"/>
      <use xlink:href="#DejaVuSans-6c" transform="translate(218.115234 0)"/>
      <use xlink:href="#DejaVuSans-65" transform="translate(245.898438 0)"/>
      <use xlink:href="#DejaVuSans-20" transform="translate(307.421875 0)"/>
      <use xlink:href="#DejaVuSans-4c" transform="translate(339.208984 0)"/>
      <use xlink:href="#DejaVuSans-61" transform="translate(394.921875 0)"/>
      <use xlink:href="#DejaVuSans-72" transform="translate(456.201172 0)"/>
      <use xlink:href="#DejaVuSans-67" transform="translate(495.564453 0)"/>
      <use xlink:href="#DejaVuSans-65" transform="translate(559.041016 0)"/>
      <use xlink:href="#DejaVuSans-20" transform="translate(620.564453 0)"/>
      <use xlink:href="#DejaVuSans-52" transform="translate(652.351562 0)"/>
      <use xlink:href="#DejaVuSans-65" transform="translate(717.333984 0)"/>
      <use xlink:href="#DejaVuSans-73" transform="translate(778.857422 0)"/>
      <use xlink:href="#DejaVuSans-75" transform="translate(830.957031 0)"/>
      <use xlink:href="#DejaVuSans-6c" transform="translate(894.335938 0)"/>
      <use xlink:href="#DejaVuSans-74" transform="translate(922.119141 0)"/>
      <use xlink:href="#DejaVuSans-73" transform="translate(961.328125 0)"/>
     </g>
    </g>
    <g id="line2d_35">
     <path d="M 858.85625 54.656563 
L 868.85625 54.656563 
L 878.85625 54.656563 
" style="fill: none; stroke: #ff7f0e; stroke-width: 1.5; stroke-linecap: square"/>
    </g>
    <g id="text_15">
     <!-- Single Small Results -->
     <g transform="translate(886.85625 58.156563) scale(0.1 -0.1)">
      <use xlink:href="#DejaVuSans-53"/>
      <use xlink:href="#DejaVuSans-69" transform="translate(63.476562 0)"/>
      <use xlink:href="#DejaVuSans-6e" transform="translate(91.259766 0)"/>
      <use xlink:href="#DejaVuSans-67" transform="translate(154.638672 0)"/>
      <use xlink:href="#DejaVuSans-6c" transform="translate(218.115234 0)"/>
      <use xlink:href="#DejaVuSans-65" transform="translate(245.898438 0)"/>
      <use xlink:href="#DejaVuSans-20" transform="translate(307.421875 0)"/>
      <use xlink:href="#DejaVuSans-53" transform="translate(339.208984 0)"/>
      <use xlink:href="#DejaVuSans-6d" transform="translate(402.685547 0)"/>
      <use xlink:href="#DejaVuSans-61" transform="translate(500.097656 0)"/>
      <use xlink:href="#DejaVuSans-6c" transform="translate(561.376953 0)"/>
      <use xlink:href="#DejaVuSans-6c" transform="translate(589.160156 0)"/>
      <use xlink:href="#DejaVuSans-20" transform="translate(616.943359 0)"/>
      <use xlink:href="#DejaVuSans-52" transform="translate(648.730469 0)"/>
      <use xlink:href="#DejaVuSans-65" transform="translate(713.712891 0)"/>
      <use xlink:href="#DejaVuSans-73" transform="translate(775.236328 0)"/>
      <use xlink:href="#DejaVuSans-75" transform="translate(827.335938 0)"/>
      <use xlink:href="#DejaVuSans-6c" transform="translate(890.714844 0)"/>
      <use xlink:href="#DejaVuSans-74" transform="translate(918.498047 0)"/>
      <use xlink:href="#DejaVuSans-73" transform="translate(957.707031 0)"/>
     </g>
    </g>
    <g id="line2d_36">
     <path d="M 858.85625 69.334688 
L 868.85625 69.334688 
L 878.85625 69.334688 
" style="fill: none; stroke: #2ca02c; stroke-width: 1.5; stroke-linecap: square"/>
    </g>
    <g id="text_16">
     <!-- Multi Results -->
     <g transform="translate(886.85625 72.834688) scale(0.1 -0.1)">
      <defs>
       <path id="DejaVuSans-4d" d="M 628 4666 
L 1569 4666 
L 2759 1491 
L 3956 4666 
L 4897 4666 
L 4897 0 
L 4281 0 
L 4281 4097 
L 3078 897 
L 2444 897 
L 1241 4097 
L 1241 0 
L 628 0 
L 628 4666 
z
" transform="scale(0.015625)"/>
      </defs>
      <use xlink:href="#DejaVuSans-4d"/>
      <use xlink:href="#DejaVuSans-75" transform="translate(86.279297 0)"/>
      <use xlink:href="#DejaVuSans-6c" transform="translate(149.658203 0)"/>
      <use xlink:href="#DejaVuSans-74" transform="translate(177.441406 0)"/>
      <use xlink:href="#DejaVuSans-69" transform="translate(216.650391 0)"/>
      <use xlink:href="#DejaVuSans-20" transform="translate(244.433594 0)"/>
      <use xlink:href="#DejaVuSans-52" transform="translate(276.220703 0)"/>
      <use xlink:href="#DejaVuSans-65" transform="translate(341.203125 0)"/>
      <use xlink:href="#DejaVuSans-73" transform="translate(402.726562 0)"/>
      <use xlink:href="#DejaVuSans-75" transform="translate(454.826172 0)"/>
      <use xlink:href="#DejaVuSans-6c" transform="translate(518.205078 0)"/>
      <use xlink:href="#DejaVuSans-74" transform="translate(545.988281 0)"/>
      <use xlink:href="#DejaVuSans-73" transform="translate(585.197266 0)"/>
     </g>
    </g>
   </g>
  </g>
 </g>
 <defs>
  <clipPath id="p3a4da2a127">
   <rect x="49.912685" y="26.88" width="947.287315" height="219.16"/>
  </clipPath>
 </defs>
</svg>
