<?xml version="1.0" encoding="utf-8" standalone="no"?>
<!DOCTYPE svg PUBLIC "-//W3C//DTD SVG 1.1//EN"
  "http://www.w3.org/Graphics/SVG/1.1/DTD/svg11.dtd">
<svg xmlns:xlink="http://www.w3.org/1999/xlink" width="1008pt" height="288pt" viewBox="0 0 1008 288" xmlns="http://www.w3.org/2000/svg" version="1.1">
 <metadata>
  <rdf:RDF xmlns:dc="http://purl.org/dc/elements/1.1/" xmlns:cc="http://creativecommons.org/ns#" xmlns:rdf="http://www.w3.org/1999/02/22-rdf-syntax-ns#">
   <cc:Work>
    <dc:type rdf:resource="http://purl.org/dc/dcmitype/StillImage"/>
    <dc:date>2025-05-31T22:11:45.682151</dc:date>
    <dc:format>image/svg+xml</dc:format>
    <dc:creator>
     <cc:Agent>
      <dc:title>Matplotlib v3.10.1, https://matplotlib.org/</dc:title>
     </cc:Agent>
    </dc:creator>
   </cc:Work>
  </rdf:RDF>
 </metadata>
 <defs>
  <style type="text/css">*{stroke-linejoin: round; stroke-linecap: butt}</style>
 </defs>
 <g id="figure_1">
  <g id="patch_1">
   <path d="M 0 288 
L 1008 288 
L 1008 0 
L 0 0 
z
" style="fill: #ffffff"/>
  </g>
  <g id="axes_1">
   <g id="patch_2">
    <path d="M 50.137685 246.04 
L 997.2 246.04 
L 997.2 26.88 
L 50.137685 26.88 
z
" style="fill: #ffffff"/>
   </g>
   <g id="matplotlib.axis_1">
    <g id="xtick_1">
     <g id="line2d_1">
      <defs>
       <path id="m01d297d51d" d="M 0 0 
L 0 3.5 
" style="stroke: #000000; stroke-width: 0.8"/>
      </defs>
      <g>
       <use xlink:href="#m01d297d51d" x="93.185972" y="246.04" style="stroke: #000000; stroke-width: 0.8"/>
      </g>
     </g>
     <g id="text_1">
      <!-- 0 -->
      <g transform="translate(90.004722 260.638438) scale(0.1 -0.1)">
       <defs>
        <path id="DejaVuSans-30" d="M 2034 4250 
Q 1547 4250 1301 3770 
Q 1056 3291 1056 2328 
Q 1056 1369 1301 889 
Q 1547 409 2034 409 
Q 2525 409 2770 889 
Q 3016 1369 3016 2328 
Q 3016 3291 2770 3770 
Q 2525 4250 2034 4250 
z
M 2034 4750 
Q 2819 4750 3233 4129 
Q 3647 3509 3647 2328 
Q 3647 1150 3233 529 
Q 2819 -91 2034 -91 
Q 1250 -91 836 529 
Q 422 1150 422 2328 
Q 422 3509 836 4129 
Q 1250 4750 2034 4750 
z
" transform="scale(0.015625)"/>
       </defs>
       <use xlink:href="#DejaVuSans-30"/>
      </g>
     </g>
    </g>
    <g id="xtick_2">
     <g id="line2d_2">
      <g>
       <use xlink:href="#m01d297d51d" x="212.103892" y="246.04" style="stroke: #000000; stroke-width: 0.8"/>
      </g>
     </g>
     <g id="text_2">
      <!-- 50 -->
      <g transform="translate(205.741392 260.638438) scale(0.1 -0.1)">
       <defs>
        <path id="DejaVuSans-35" d="M 691 4666 
L 3169 4666 
L 3169 4134 
L 1269 4134 
L 1269 2991 
Q 1406 3038 1543 3061 
Q 1681 3084 1819 3084 
Q 2600 3084 3056 2656 
Q 3513 2228 3513 1497 
Q 3513 744 3044 326 
Q 2575 -91 1722 -91 
Q 1428 -91 1123 -41 
Q 819 9 494 109 
L 494 744 
Q 775 591 1075 516 
Q 1375 441 1709 441 
Q 2250 441 2565 725 
Q 2881 1009 2881 1497 
Q 2881 1984 2565 2268 
Q 2250 2553 1709 2553 
Q 1456 2553 1204 2497 
Q 953 2441 691 2322 
L 691 4666 
z
" transform="scale(0.015625)"/>
       </defs>
       <use xlink:href="#DejaVuSans-35"/>
       <use xlink:href="#DejaVuSans-30" transform="translate(63.623047 0)"/>
      </g>
     </g>
    </g>
    <g id="xtick_3">
     <g id="line2d_3">
      <g>
       <use xlink:href="#m01d297d51d" x="331.021812" y="246.04" style="stroke: #000000; stroke-width: 0.8"/>
      </g>
     </g>
     <g id="text_3">
      <!-- 100 -->
      <g transform="translate(321.478062 260.638438) scale(0.1 -0.1)">
       <defs>
        <path id="DejaVuSans-31" d="M 794 531 
L 1825 531 
L 1825 4091 
L 703 3866 
L 703 4441 
L 1819 4666 
L 2450 4666 
L 2450 531 
L 3481 531 
L 3481 0 
L 794 0 
L 794 531 
z
" transform="scale(0.015625)"/>
       </defs>
       <use xlink:href="#DejaVuSans-31"/>
       <use xlink:href="#DejaVuSans-30" transform="translate(63.623047 0)"/>
       <use xlink:href="#DejaVuSans-30" transform="translate(127.246094 0)"/>
      </g>
     </g>
    </g>
    <g id="xtick_4">
     <g id="line2d_4">
      <g>
       <use xlink:href="#m01d297d51d" x="449.939732" y="246.04" style="stroke: #000000; stroke-width: 0.8"/>
      </g>
     </g>
     <g id="text_4">
      <!-- 150 -->
      <g transform="translate(440.395982 260.638438) scale(0.1 -0.1)">
       <use xlink:href="#DejaVuSans-31"/>
       <use xlink:href="#DejaVuSans-35" transform="translate(63.623047 0)"/>
       <use xlink:href="#DejaVuSans-30" transform="translate(127.246094 0)"/>
      </g>
     </g>
    </g>
    <g id="xtick_5">
     <g id="line2d_5">
      <g>
       <use xlink:href="#m01d297d51d" x="568.857652" y="246.04" style="stroke: #000000; stroke-width: 0.8"/>
      </g>
     </g>
     <g id="text_5">
      <!-- 200 -->
      <g transform="translate(559.313902 260.638438) scale(0.1 -0.1)">
       <defs>
        <path id="DejaVuSans-32" d="M 1228 531 
L 3431 531 
L 3431 0 
L 469 0 
L 469 531 
Q 828 903 1448 1529 
Q 2069 2156 2228 2338 
Q 2531 2678 2651 2914 
Q 2772 3150 2772 3378 
Q 2772 3750 2511 3984 
Q 2250 4219 1831 4219 
Q 1534 4219 1204 4116 
Q 875 4013 500 3803 
L 500 4441 
Q 881 4594 1212 4672 
Q 1544 4750 1819 4750 
Q 2544 4750 2975 4387 
Q 3406 4025 3406 3419 
Q 3406 3131 3298 2873 
Q 3191 2616 2906 2266 
Q 2828 2175 2409 1742 
Q 1991 1309 1228 531 
z
" transform="scale(0.015625)"/>
       </defs>
       <use xlink:href="#DejaVuSans-32"/>
       <use xlink:href="#DejaVuSans-30" transform="translate(63.623047 0)"/>
       <use xlink:href="#DejaVuSans-30" transform="translate(127.246094 0)"/>
      </g>
     </g>
    </g>
    <g id="xtick_6">
     <g id="line2d_6">
      <g>
       <use xlink:href="#m01d297d51d" x="687.775572" y="246.04" style="stroke: #000000; stroke-width: 0.8"/>
      </g>
     </g>
     <g id="text_6">
      <!-- 250 -->
      <g transform="translate(678.231822 260.638438) scale(0.1 -0.1)">
       <use xlink:href="#DejaVuSans-32"/>
       <use xlink:href="#DejaVuSans-35" transform="translate(63.623047 0)"/>
       <use xlink:href="#DejaVuSans-30" transform="translate(127.246094 0)"/>
      </g>
     </g>
    </g>
    <g id="xtick_7">
     <g id="line2d_7">
      <g>
       <use xlink:href="#m01d297d51d" x="806.693492" y="246.04" style="stroke: #000000; stroke-width: 0.8"/>
      </g>
     </g>
     <g id="text_7">
      <!-- 300 -->
      <g transform="translate(797.149742 260.638438) scale(0.1 -0.1)">
       <defs>
        <path id="DejaVuSans-33" d="M 2597 2516 
Q 3050 2419 3304 2112 
Q 3559 1806 3559 1356 
Q 3559 666 3084 287 
Q 2609 -91 1734 -91 
Q 1441 -91 1130 -33 
Q 819 25 488 141 
L 488 750 
Q 750 597 1062 519 
Q 1375 441 1716 441 
Q 2309 441 2620 675 
Q 2931 909 2931 1356 
Q 2931 1769 2642 2001 
Q 2353 2234 1838 2234 
L 1294 2234 
L 1294 2753 
L 1863 2753 
Q 2328 2753 2575 2939 
Q 2822 3125 2822 3475 
Q 2822 3834 2567 4026 
Q 2313 4219 1838 4219 
Q 1578 4219 1281 4162 
Q 984 4106 628 3988 
L 628 4550 
Q 988 4650 1302 4700 
Q 1616 4750 1894 4750 
Q 2613 4750 3031 4423 
Q 3450 4097 3450 3541 
Q 3450 3153 3228 2886 
Q 3006 2619 2597 2516 
z
" transform="scale(0.015625)"/>
       </defs>
       <use xlink:href="#DejaVuSans-33"/>
       <use xlink:href="#DejaVuSans-30" transform="translate(63.623047 0)"/>
       <use xlink:href="#DejaVuSans-30" transform="translate(127.246094 0)"/>
      </g>
     </g>
    </g>
    <g id="xtick_8">
     <g id="line2d_8">
      <g>
       <use xlink:href="#m01d297d51d" x="925.611412" y="246.04" style="stroke: #000000; stroke-width: 0.8"/>
      </g>
     </g>
     <g id="text_8">
      <!-- 350 -->
      <g transform="translate(916.067662 260.638438) scale(0.1 -0.1)">
       <use xlink:href="#DejaVuSans-33"/>
       <use xlink:href="#DejaVuSans-35" transform="translate(63.623047 0)"/>
       <use xlink:href="#DejaVuSans-30" transform="translate(127.246094 0)"/>
      </g>
     </g>
    </g>
    <g id="text_9">
     <!-- Timestamp (Seconds) -->
     <g transform="translate(469.264155 274.316562) scale(0.1 -0.1)">
      <defs>
       <path id="DejaVuSans-54" d="M -19 4666 
L 3928 4666 
L 3928 4134 
L 2272 4134 
L 2272 0 
L 1638 0 
L 1638 4134 
L -19 4134 
L -19 4666 
z
" transform="scale(0.015625)"/>
       <path id="DejaVuSans-69" d="M 603 3500 
L 1178 3500 
L 1178 0 
L 603 0 
L 603 3500 
z
M 603 4863 
L 1178 4863 
L 1178 4134 
L 603 4134 
L 603 4863 
z
" transform="scale(0.015625)"/>
       <path id="DejaVuSans-6d" d="M 3328 2828 
Q 3544 3216 3844 3400 
Q 4144 3584 4550 3584 
Q 5097 3584 5394 3201 
Q 5691 2819 5691 2113 
L 5691 0 
L 5113 0 
L 5113 2094 
Q 5113 2597 4934 2840 
Q 4756 3084 4391 3084 
Q 3944 3084 3684 2787 
Q 3425 2491 3425 1978 
L 3425 0 
L 2847 0 
L 2847 2094 
Q 2847 2600 2669 2842 
Q 2491 3084 2119 3084 
Q 1678 3084 1418 2786 
Q 1159 2488 1159 1978 
L 1159 0 
L 581 0 
L 581 3500 
L 1159 3500 
L 1159 2956 
Q 1356 3278 1631 3431 
Q 1906 3584 2284 3584 
Q 2666 3584 2933 3390 
Q 3200 3197 3328 2828 
z
" transform="scale(0.015625)"/>
       <path id="DejaVuSans-65" d="M 3597 1894 
L 3597 1613 
L 953 1613 
Q 991 1019 1311 708 
Q 1631 397 2203 397 
Q 2534 397 2845 478 
Q 3156 559 3463 722 
L 3463 178 
Q 3153 47 2828 -22 
Q 2503 -91 2169 -91 
Q 1331 -91 842 396 
Q 353 884 353 1716 
Q 353 2575 817 3079 
Q 1281 3584 2069 3584 
Q 2775 3584 3186 3129 
Q 3597 2675 3597 1894 
z
M 3022 2063 
Q 3016 2534 2758 2815 
Q 2500 3097 2075 3097 
Q 1594 3097 1305 2825 
Q 1016 2553 972 2059 
L 3022 2063 
z
" transform="scale(0.015625)"/>
       <path id="DejaVuSans-73" d="M 2834 3397 
L 2834 2853 
Q 2591 2978 2328 3040 
Q 2066 3103 1784 3103 
Q 1356 3103 1142 2972 
Q 928 2841 928 2578 
Q 928 2378 1081 2264 
Q 1234 2150 1697 2047 
L 1894 2003 
Q 2506 1872 2764 1633 
Q 3022 1394 3022 966 
Q 3022 478 2636 193 
Q 2250 -91 1575 -91 
Q 1294 -91 989 -36 
Q 684 19 347 128 
L 347 722 
Q 666 556 975 473 
Q 1284 391 1588 391 
Q 1994 391 2212 530 
Q 2431 669 2431 922 
Q 2431 1156 2273 1281 
Q 2116 1406 1581 1522 
L 1381 1569 
Q 847 1681 609 1914 
Q 372 2147 372 2553 
Q 372 3047 722 3315 
Q 1072 3584 1716 3584 
Q 2034 3584 2315 3537 
Q 2597 3491 2834 3397 
z
" transform="scale(0.015625)"/>
       <path id="DejaVuSans-74" d="M 1172 4494 
L 1172 3500 
L 2356 3500 
L 2356 3053 
L 1172 3053 
L 1172 1153 
Q 1172 725 1289 603 
Q 1406 481 1766 481 
L 2356 481 
L 2356 0 
L 1766 0 
Q 1100 0 847 248 
Q 594 497 594 1153 
L 594 3053 
L 172 3053 
L 172 3500 
L 594 3500 
L 594 4494 
L 1172 4494 
z
" transform="scale(0.015625)"/>
       <path id="DejaVuSans-61" d="M 2194 1759 
Q 1497 1759 1228 1600 
Q 959 1441 959 1056 
Q 959 750 1161 570 
Q 1363 391 1709 391 
Q 2188 391 2477 730 
Q 2766 1069 2766 1631 
L 2766 1759 
L 2194 1759 
z
M 3341 1997 
L 3341 0 
L 2766 0 
L 2766 531 
Q 2569 213 2275 61 
Q 1981 -91 1556 -91 
Q 1019 -91 701 211 
Q 384 513 384 1019 
Q 384 1609 779 1909 
Q 1175 2209 1959 2209 
L 2766 2209 
L 2766 2266 
Q 2766 2663 2505 2880 
Q 2244 3097 1772 3097 
Q 1472 3097 1187 3025 
Q 903 2953 641 2809 
L 641 3341 
Q 956 3463 1253 3523 
Q 1550 3584 1831 3584 
Q 2591 3584 2966 3190 
Q 3341 2797 3341 1997 
z
" transform="scale(0.015625)"/>
       <path id="DejaVuSans-70" d="M 1159 525 
L 1159 -1331 
L 581 -1331 
L 581 3500 
L 1159 3500 
L 1159 2969 
Q 1341 3281 1617 3432 
Q 1894 3584 2278 3584 
Q 2916 3584 3314 3078 
Q 3713 2572 3713 1747 
Q 3713 922 3314 415 
Q 2916 -91 2278 -91 
Q 1894 -91 1617 61 
Q 1341 213 1159 525 
z
M 3116 1747 
Q 3116 2381 2855 2742 
Q 2594 3103 2138 3103 
Q 1681 3103 1420 2742 
Q 1159 2381 1159 1747 
Q 1159 1113 1420 752 
Q 1681 391 2138 391 
Q 2594 391 2855 752 
Q 3116 1113 3116 1747 
z
" transform="scale(0.015625)"/>
       <path id="DejaVuSans-20" transform="scale(0.015625)"/>
       <path id="DejaVuSans-28" d="M 1984 4856 
Q 1566 4138 1362 3434 
Q 1159 2731 1159 2009 
Q 1159 1288 1364 580 
Q 1569 -128 1984 -844 
L 1484 -844 
Q 1016 -109 783 600 
Q 550 1309 550 2009 
Q 550 2706 781 3412 
Q 1013 4119 1484 4856 
L 1984 4856 
z
" transform="scale(0.015625)"/>
       <path id="DejaVuSans-53" d="M 3425 4513 
L 3425 3897 
Q 3066 4069 2747 4153 
Q 2428 4238 2131 4238 
Q 1616 4238 1336 4038 
Q 1056 3838 1056 3469 
Q 1056 3159 1242 3001 
Q 1428 2844 1947 2747 
L 2328 2669 
Q 3034 2534 3370 2195 
Q 3706 1856 3706 1288 
Q 3706 609 3251 259 
Q 2797 -91 1919 -91 
Q 1588 -91 1214 -16 
Q 841 59 441 206 
L 441 856 
Q 825 641 1194 531 
Q 1563 422 1919 422 
Q 2459 422 2753 634 
Q 3047 847 3047 1241 
Q 3047 1584 2836 1778 
Q 2625 1972 2144 2069 
L 1759 2144 
Q 1053 2284 737 2584 
Q 422 2884 422 3419 
Q 422 4038 858 4394 
Q 1294 4750 2059 4750 
Q 2388 4750 2728 4690 
Q 3069 4631 3425 4513 
z
" transform="scale(0.015625)"/>
       <path id="DejaVuSans-63" d="M 3122 3366 
L 3122 2828 
Q 2878 2963 2633 3030 
Q 2388 3097 2138 3097 
Q 1578 3097 1268 2742 
Q 959 2388 959 1747 
Q 959 1106 1268 751 
Q 1578 397 2138 397 
Q 2388 397 2633 464 
Q 2878 531 3122 666 
L 3122 134 
Q 2881 22 2623 -34 
Q 2366 -91 2075 -91 
Q 1284 -91 818 406 
Q 353 903 353 1747 
Q 353 2603 823 3093 
Q 1294 3584 2113 3584 
Q 2378 3584 2631 3529 
Q 2884 3475 3122 3366 
z
" transform="scale(0.015625)"/>
       <path id="DejaVuSans-6f" d="M 1959 3097 
Q 1497 3097 1228 2736 
Q 959 2375 959 1747 
Q 959 1119 1226 758 
Q 1494 397 1959 397 
Q 2419 397 2687 759 
Q 2956 1122 2956 1747 
Q 2956 2369 2687 2733 
Q 2419 3097 1959 3097 
z
M 1959 3584 
Q 2709 3584 3137 3096 
Q 3566 2609 3566 1747 
Q 3566 888 3137 398 
Q 2709 -91 1959 -91 
Q 1206 -91 779 398 
Q 353 888 353 1747 
Q 353 2609 779 3096 
Q 1206 3584 1959 3584 
z
" transform="scale(0.015625)"/>
       <path id="DejaVuSans-6e" d="M 3513 2113 
L 3513 0 
L 2938 0 
L 2938 2094 
Q 2938 2591 2744 2837 
Q 2550 3084 2163 3084 
Q 1697 3084 1428 2787 
Q 1159 2491 1159 1978 
L 1159 0 
L 581 0 
L 581 3500 
L 1159 3500 
L 1159 2956 
Q 1366 3272 1645 3428 
Q 1925 3584 2291 3584 
Q 2894 3584 3203 3211 
Q 3513 2838 3513 2113 
z
" transform="scale(0.015625)"/>
       <path id="DejaVuSans-64" d="M 2906 2969 
L 2906 4863 
L 3481 4863 
L 3481 0 
L 2906 0 
L 2906 525 
Q 2725 213 2448 61 
Q 2172 -91 1784 -91 
Q 1150 -91 751 415 
Q 353 922 353 1747 
Q 353 2572 751 3078 
Q 1150 3584 1784 3584 
Q 2172 3584 2448 3432 
Q 2725 3281 2906 2969 
z
M 947 1747 
Q 947 1113 1208 752 
Q 1469 391 1925 391 
Q 2381 391 2643 752 
Q 2906 1113 2906 1747 
Q 2906 2381 2643 2742 
Q 2381 3103 1925 3103 
Q 1469 3103 1208 2742 
Q 947 2381 947 1747 
z
" transform="scale(0.015625)"/>
       <path id="DejaVuSans-29" d="M 513 4856 
L 1013 4856 
Q 1481 4119 1714 3412 
Q 1947 2706 1947 2009 
Q 1947 1309 1714 600 
Q 1481 -109 1013 -844 
L 513 -844 
Q 928 -128 1133 580 
Q 1338 1288 1338 2009 
Q 1338 2731 1133 3434 
Q 928 4138 513 4856 
z
" transform="scale(0.015625)"/>
      </defs>
      <use xlink:href="#DejaVuSans-54"/>
      <use xlink:href="#DejaVuSans-69" transform="translate(57.958984 0)"/>
      <use xlink:href="#DejaVuSans-6d" transform="translate(85.742188 0)"/>
      <use xlink:href="#DejaVuSans-65" transform="translate(183.154297 0)"/>
      <use xlink:href="#DejaVuSans-73" transform="translate(244.677734 0)"/>
      <use xlink:href="#DejaVuSans-74" transform="translate(296.777344 0)"/>
      <use xlink:href="#DejaVuSans-61" transform="translate(335.986328 0)"/>
      <use xlink:href="#DejaVuSans-6d" transform="translate(397.265625 0)"/>
      <use xlink:href="#DejaVuSans-70" transform="translate(494.677734 0)"/>
      <use xlink:href="#DejaVuSans-20" transform="translate(558.154297 0)"/>
      <use xlink:href="#DejaVuSans-28" transform="translate(589.941406 0)"/>
      <use xlink:href="#DejaVuSans-53" transform="translate(628.955078 0)"/>
      <use xlink:href="#DejaVuSans-65" transform="translate(692.431641 0)"/>
      <use xlink:href="#DejaVuSans-63" transform="translate(753.955078 0)"/>
      <use xlink:href="#DejaVuSans-6f" transform="translate(808.935547 0)"/>
      <use xlink:href="#DejaVuSans-6e" transform="translate(870.117188 0)"/>
      <use xlink:href="#DejaVuSans-64" transform="translate(933.496094 0)"/>
      <use xlink:href="#DejaVuSans-73" transform="translate(996.972656 0)"/>
      <use xlink:href="#DejaVuSans-29" transform="translate(1049.072266 0)"/>
     </g>
    </g>
   </g>
   <g id="matplotlib.axis_2">
    <g id="ytick_1">
     <g id="line2d_9">
      <defs>
       <path id="m450a401303" d="M 0 0 
L -3.5 0 
" style="stroke: #000000; stroke-width: 0.8"/>
      </defs>
      <g>
       <use xlink:href="#m450a401303" x="50.137685" y="212.412752" style="stroke: #000000; stroke-width: 0.8"/>
      </g>
     </g>
     <g id="text_10">
      <!-- $\mathdefault{10^{1}}$ -->
      <g transform="translate(25.537685 216.21197) scale(0.1 -0.1)">
       <use xlink:href="#DejaVuSans-31" transform="translate(0 0.684375)"/>
       <use xlink:href="#DejaVuSans-30" transform="translate(63.623047 0.684375)"/>
       <use xlink:href="#DejaVuSans-31" transform="translate(128.203125 38.965625) scale(0.7)"/>
      </g>
     </g>
    </g>
    <g id="ytick_2">
     <g id="line2d_10">
      <g>
       <use xlink:href="#m450a401303" x="50.137685" y="164.221662" style="stroke: #000000; stroke-width: 0.8"/>
      </g>
     </g>
     <g id="text_11">
      <!-- $\mathdefault{10^{2}}$ -->
      <g transform="translate(25.537685 168.020881) scale(0.1 -0.1)">
       <use xlink:href="#DejaVuSans-31" transform="translate(0 0.765625)"/>
       <use xlink:href="#DejaVuSans-30" transform="translate(63.623047 0.765625)"/>
       <use xlink:href="#DejaVuSans-32" transform="translate(128.203125 39.046875) scale(0.7)"/>
      </g>
     </g>
    </g>
    <g id="ytick_3">
     <g id="line2d_11">
      <g>
       <use xlink:href="#m450a401303" x="50.137685" y="116.030573" style="stroke: #000000; stroke-width: 0.8"/>
      </g>
     </g>
     <g id="text_12">
      <!-- $\mathdefault{10^{3}}$ -->
      <g transform="translate(25.537685 119.829792) scale(0.1 -0.1)">
       <use xlink:href="#DejaVuSans-31" transform="translate(0 0.765625)"/>
       <use xlink:href="#DejaVuSans-30" transform="translate(63.623047 0.765625)"/>
       <use xlink:href="#DejaVuSans-33" transform="translate(128.203125 39.046875) scale(0.7)"/>
      </g>
     </g>
    </g>
    <g id="ytick_4">
     <g id="line2d_12">
      <g>
       <use xlink:href="#m450a401303" x="50.137685" y="67.839484" style="stroke: #000000; stroke-width: 0.8"/>
      </g>
     </g>
     <g id="text_13">
      <!-- $\mathdefault{10^{4}}$ -->
      <g transform="translate(25.537685 71.638703) scale(0.1 -0.1)">
       <defs>
        <path id="DejaVuSans-34" d="M 2419 4116 
L 825 1625 
L 2419 1625 
L 2419 4116 
z
M 2253 4666 
L 3047 4666 
L 3047 1625 
L 3713 1625 
L 3713 1100 
L 3047 1100 
L 3047 0 
L 2419 0 
L 2419 1100 
L 313 1100 
L 313 1709 
L 2253 4666 
z
" transform="scale(0.015625)"/>
       </defs>
       <use xlink:href="#DejaVuSans-31" transform="translate(0 0.684375)"/>
       <use xlink:href="#DejaVuSans-30" transform="translate(63.623047 0.684375)"/>
       <use xlink:href="#DejaVuSans-34" transform="translate(128.203125 38.965625) scale(0.7)"/>
      </g>
     </g>
    </g>
    <g id="ytick_5">
     <g id="line2d_13">
      <defs>
       <path id="mfb60551723" d="M 0 0 
L -2 0 
" style="stroke: #000000; stroke-width: 0.6"/>
      </defs>
      <g>
       <use xlink:href="#mfb60551723" x="50.137685" y="237.610848" style="stroke: #000000; stroke-width: 0.6"/>
      </g>
     </g>
    </g>
    <g id="ytick_6">
     <g id="line2d_14">
      <g>
       <use xlink:href="#mfb60551723" x="50.137685" y="231.589914" style="stroke: #000000; stroke-width: 0.6"/>
      </g>
     </g>
    </g>
    <g id="ytick_7">
     <g id="line2d_15">
      <g>
       <use xlink:href="#mfb60551723" x="50.137685" y="226.919715" style="stroke: #000000; stroke-width: 0.6"/>
      </g>
     </g>
    </g>
    <g id="ytick_8">
     <g id="line2d_16">
      <g>
       <use xlink:href="#mfb60551723" x="50.137685" y="223.103884" style="stroke: #000000; stroke-width: 0.6"/>
      </g>
     </g>
    </g>
    <g id="ytick_9">
     <g id="line2d_17">
      <g>
       <use xlink:href="#mfb60551723" x="50.137685" y="219.877646" style="stroke: #000000; stroke-width: 0.6"/>
      </g>
     </g>
    </g>
    <g id="ytick_10">
     <g id="line2d_18">
      <g>
       <use xlink:href="#mfb60551723" x="50.137685" y="217.082951" style="stroke: #000000; stroke-width: 0.6"/>
      </g>
     </g>
    </g>
    <g id="ytick_11">
     <g id="line2d_19">
      <g>
       <use xlink:href="#mfb60551723" x="50.137685" y="214.617855" style="stroke: #000000; stroke-width: 0.6"/>
      </g>
     </g>
    </g>
    <g id="ytick_12">
     <g id="line2d_20">
      <g>
       <use xlink:href="#mfb60551723" x="50.137685" y="197.905788" style="stroke: #000000; stroke-width: 0.6"/>
      </g>
     </g>
    </g>
    <g id="ytick_13">
     <g id="line2d_21">
      <g>
       <use xlink:href="#mfb60551723" x="50.137685" y="189.419759" style="stroke: #000000; stroke-width: 0.6"/>
      </g>
     </g>
    </g>
    <g id="ytick_14">
     <g id="line2d_22">
      <g>
       <use xlink:href="#mfb60551723" x="50.137685" y="183.398825" style="stroke: #000000; stroke-width: 0.6"/>
      </g>
     </g>
    </g>
    <g id="ytick_15">
     <g id="line2d_23">
      <g>
       <use xlink:href="#mfb60551723" x="50.137685" y="178.728626" style="stroke: #000000; stroke-width: 0.6"/>
      </g>
     </g>
    </g>
    <g id="ytick_16">
     <g id="line2d_24">
      <g>
       <use xlink:href="#mfb60551723" x="50.137685" y="174.912795" style="stroke: #000000; stroke-width: 0.6"/>
      </g>
     </g>
    </g>
    <g id="ytick_17">
     <g id="line2d_25">
      <g>
       <use xlink:href="#mfb60551723" x="50.137685" y="171.686557" style="stroke: #000000; stroke-width: 0.6"/>
      </g>
     </g>
    </g>
    <g id="ytick_18">
     <g id="line2d_26">
      <g>
       <use xlink:href="#mfb60551723" x="50.137685" y="168.891861" style="stroke: #000000; stroke-width: 0.6"/>
      </g>
     </g>
    </g>
    <g id="ytick_19">
     <g id="line2d_27">
      <g>
       <use xlink:href="#mfb60551723" x="50.137685" y="166.426766" style="stroke: #000000; stroke-width: 0.6"/>
      </g>
     </g>
    </g>
    <g id="ytick_20">
     <g id="line2d_28">
      <g>
       <use xlink:href="#mfb60551723" x="50.137685" y="149.714699" style="stroke: #000000; stroke-width: 0.6"/>
      </g>
     </g>
    </g>
    <g id="ytick_21">
     <g id="line2d_29">
      <g>
       <use xlink:href="#mfb60551723" x="50.137685" y="141.228669" style="stroke: #000000; stroke-width: 0.6"/>
      </g>
     </g>
    </g>
    <g id="ytick_22">
     <g id="line2d_30">
      <g>
       <use xlink:href="#mfb60551723" x="50.137685" y="135.207736" style="stroke: #000000; stroke-width: 0.6"/>
      </g>
     </g>
    </g>
    <g id="ytick_23">
     <g id="line2d_31">
      <g>
       <use xlink:href="#mfb60551723" x="50.137685" y="130.537537" style="stroke: #000000; stroke-width: 0.6"/>
      </g>
     </g>
    </g>
    <g id="ytick_24">
     <g id="line2d_32">
      <g>
       <use xlink:href="#mfb60551723" x="50.137685" y="126.721706" style="stroke: #000000; stroke-width: 0.6"/>
      </g>
     </g>
    </g>
    <g id="ytick_25">
     <g id="line2d_33">
      <g>
       <use xlink:href="#mfb60551723" x="50.137685" y="123.495467" style="stroke: #000000; stroke-width: 0.6"/>
      </g>
     </g>
    </g>
    <g id="ytick_26">
     <g id="line2d_34">
      <g>
       <use xlink:href="#mfb60551723" x="50.137685" y="120.700772" style="stroke: #000000; stroke-width: 0.6"/>
      </g>
     </g>
    </g>
    <g id="ytick_27">
     <g id="line2d_35">
      <g>
       <use xlink:href="#mfb60551723" x="50.137685" y="118.235676" style="stroke: #000000; stroke-width: 0.6"/>
      </g>
     </g>
    </g>
    <g id="ytick_28">
     <g id="line2d_36">
      <g>
       <use xlink:href="#mfb60551723" x="50.137685" y="101.52361" style="stroke: #000000; stroke-width: 0.6"/>
      </g>
     </g>
    </g>
    <g id="ytick_29">
     <g id="line2d_37">
      <g>
       <use xlink:href="#mfb60551723" x="50.137685" y="93.03758" style="stroke: #000000; stroke-width: 0.6"/>
      </g>
     </g>
    </g>
    <g id="ytick_30">
     <g id="line2d_38">
      <g>
       <use xlink:href="#mfb60551723" x="50.137685" y="87.016646" style="stroke: #000000; stroke-width: 0.6"/>
      </g>
     </g>
    </g>
    <g id="ytick_31">
     <g id="line2d_39">
      <g>
       <use xlink:href="#mfb60551723" x="50.137685" y="82.346447" style="stroke: #000000; stroke-width: 0.6"/>
      </g>
     </g>
    </g>
    <g id="ytick_32">
     <g id="line2d_40">
      <g>
       <use xlink:href="#mfb60551723" x="50.137685" y="78.530617" style="stroke: #000000; stroke-width: 0.6"/>
      </g>
     </g>
    </g>
    <g id="ytick_33">
     <g id="line2d_41">
      <g>
       <use xlink:href="#mfb60551723" x="50.137685" y="75.304378" style="stroke: #000000; stroke-width: 0.6"/>
      </g>
     </g>
    </g>
    <g id="ytick_34">
     <g id="line2d_42">
      <g>
       <use xlink:href="#mfb60551723" x="50.137685" y="72.509683" style="stroke: #000000; stroke-width: 0.6"/>
      </g>
     </g>
    </g>
    <g id="ytick_35">
     <g id="line2d_43">
      <g>
       <use xlink:href="#mfb60551723" x="50.137685" y="70.044587" style="stroke: #000000; stroke-width: 0.6"/>
      </g>
     </g>
    </g>
    <g id="ytick_36">
     <g id="line2d_44">
      <g>
       <use xlink:href="#mfb60551723" x="50.137685" y="53.332521" style="stroke: #000000; stroke-width: 0.6"/>
      </g>
     </g>
    </g>
    <g id="ytick_37">
     <g id="line2d_45">
      <g>
       <use xlink:href="#mfb60551723" x="50.137685" y="44.846491" style="stroke: #000000; stroke-width: 0.6"/>
      </g>
     </g>
    </g>
    <g id="ytick_38">
     <g id="line2d_46">
      <g>
       <use xlink:href="#mfb60551723" x="50.137685" y="38.825557" style="stroke: #000000; stroke-width: 0.6"/>
      </g>
     </g>
    </g>
    <g id="ytick_39">
     <g id="line2d_47">
      <g>
       <use xlink:href="#mfb60551723" x="50.137685" y="34.155358" style="stroke: #000000; stroke-width: 0.6"/>
      </g>
     </g>
    </g>
    <g id="ytick_40">
     <g id="line2d_48">
      <g>
       <use xlink:href="#mfb60551723" x="50.137685" y="30.339528" style="stroke: #000000; stroke-width: 0.6"/>
      </g>
     </g>
    </g>
    <g id="ytick_41">
     <g id="line2d_49">
      <g>
       <use xlink:href="#mfb60551723" x="50.137685" y="27.113289" style="stroke: #000000; stroke-width: 0.6"/>
      </g>
     </g>
    </g>
    <g id="text_14">
     <!-- Avg Duration (ms) -->
     <g transform="translate(19.457997 181.990469) rotate(-90) scale(0.1 -0.1)">
      <defs>
       <path id="DejaVuSans-41" d="M 2188 4044 
L 1331 1722 
L 3047 1722 
L 2188 4044 
z
M 1831 4666 
L 2547 4666 
L 4325 0 
L 3669 0 
L 3244 1197 
L 1141 1197 
L 716 0 
L 50 0 
L 1831 4666 
z
" transform="scale(0.015625)"/>
       <path id="DejaVuSans-76" d="M 191 3500 
L 800 3500 
L 1894 563 
L 2988 3500 
L 3597 3500 
L 2284 0 
L 1503 0 
L 191 3500 
z
" transform="scale(0.015625)"/>
       <path id="DejaVuSans-67" d="M 2906 1791 
Q 2906 2416 2648 2759 
Q 2391 3103 1925 3103 
Q 1463 3103 1205 2759 
Q 947 2416 947 1791 
Q 947 1169 1205 825 
Q 1463 481 1925 481 
Q 2391 481 2648 825 
Q 2906 1169 2906 1791 
z
M 3481 434 
Q 3481 -459 3084 -895 
Q 2688 -1331 1869 -1331 
Q 1566 -1331 1297 -1286 
Q 1028 -1241 775 -1147 
L 775 -588 
Q 1028 -725 1275 -790 
Q 1522 -856 1778 -856 
Q 2344 -856 2625 -561 
Q 2906 -266 2906 331 
L 2906 616 
Q 2728 306 2450 153 
Q 2172 0 1784 0 
Q 1141 0 747 490 
Q 353 981 353 1791 
Q 353 2603 747 3093 
Q 1141 3584 1784 3584 
Q 2172 3584 2450 3431 
Q 2728 3278 2906 2969 
L 2906 3500 
L 3481 3500 
L 3481 434 
z
" transform="scale(0.015625)"/>
       <path id="DejaVuSans-44" d="M 1259 4147 
L 1259 519 
L 2022 519 
Q 2988 519 3436 956 
Q 3884 1394 3884 2338 
Q 3884 3275 3436 3711 
Q 2988 4147 2022 4147 
L 1259 4147 
z
M 628 4666 
L 1925 4666 
Q 3281 4666 3915 4102 
Q 4550 3538 4550 2338 
Q 4550 1131 3912 565 
Q 3275 0 1925 0 
L 628 0 
L 628 4666 
z
" transform="scale(0.015625)"/>
       <path id="DejaVuSans-75" d="M 544 1381 
L 544 3500 
L 1119 3500 
L 1119 1403 
Q 1119 906 1312 657 
Q 1506 409 1894 409 
Q 2359 409 2629 706 
Q 2900 1003 2900 1516 
L 2900 3500 
L 3475 3500 
L 3475 0 
L 2900 0 
L 2900 538 
Q 2691 219 2414 64 
Q 2138 -91 1772 -91 
Q 1169 -91 856 284 
Q 544 659 544 1381 
z
M 1991 3584 
L 1991 3584 
z
" transform="scale(0.015625)"/>
       <path id="DejaVuSans-72" d="M 2631 2963 
Q 2534 3019 2420 3045 
Q 2306 3072 2169 3072 
Q 1681 3072 1420 2755 
Q 1159 2438 1159 1844 
L 1159 0 
L 581 0 
L 581 3500 
L 1159 3500 
L 1159 2956 
Q 1341 3275 1631 3429 
Q 1922 3584 2338 3584 
Q 2397 3584 2469 3576 
Q 2541 3569 2628 3553 
L 2631 2963 
z
" transform="scale(0.015625)"/>
      </defs>
      <use xlink:href="#DejaVuSans-41"/>
      <use xlink:href="#DejaVuSans-76" transform="translate(62.533203 0)"/>
      <use xlink:href="#DejaVuSans-67" transform="translate(121.712891 0)"/>
      <use xlink:href="#DejaVuSans-20" transform="translate(185.189453 0)"/>
      <use xlink:href="#DejaVuSans-44" transform="translate(216.976562 0)"/>
      <use xlink:href="#DejaVuSans-75" transform="translate(293.978516 0)"/>
      <use xlink:href="#DejaVuSans-72" transform="translate(357.357422 0)"/>
      <use xlink:href="#DejaVuSans-61" transform="translate(398.470703 0)"/>
      <use xlink:href="#DejaVuSans-74" transform="translate(459.75 0)"/>
      <use xlink:href="#DejaVuSans-69" transform="translate(498.958984 0)"/>
      <use xlink:href="#DejaVuSans-6f" transform="translate(526.742188 0)"/>
      <use xlink:href="#DejaVuSans-6e" transform="translate(587.923828 0)"/>
      <use xlink:href="#DejaVuSans-20" transform="translate(651.302734 0)"/>
      <use xlink:href="#DejaVuSans-28" transform="translate(683.089844 0)"/>
      <use xlink:href="#DejaVuSans-6d" transform="translate(722.103516 0)"/>
      <use xlink:href="#DejaVuSans-73" transform="translate(819.515625 0)"/>
      <use xlink:href="#DejaVuSans-29" transform="translate(871.615234 0)"/>
     </g>
    </g>
   </g>
   <g id="line2d_50">
    <path d="M 93.185972 213.491745 
L 95.56433 185.389128 
L 97.942689 209.003677 
L 100.321047 199.925213 
L 102.699405 216.829515 
L 105.077764 198.898968 
L 107.456122 220.567965 
L 109.834481 201.767701 
L 112.212839 215.476903 
L 114.591197 196.249701 
L 116.969556 188.122835 
L 119.347914 216.97261 
L 121.726273 209.650489 
L 124.104631 184.401881 
L 126.482989 207.442287 
L 128.861348 205.343067 
L 131.239706 208.741025 
L 133.618065 213.627923 
L 135.996423 204.056335 
L 138.374781 202.977968 
L 140.75314 208.751032 
L 143.131498 188.548024 
L 145.509857 183.855513 
L 147.888215 181.125899 
L 150.266573 205.485497 
L 152.644932 190.309825 
L 155.02329 204.426195 
L 157.401649 170.777871 
L 159.780007 180.471514 
L 162.158365 183.874474 
L 164.536724 191.135457 
L 166.915082 183.950766 
L 169.293441 164.342588 
L 171.671799 161.872079 
L 174.050157 183.58108 
L 176.428516 174.615096 
L 178.806874 162.537303 
L 181.185233 170.366195 
L 183.563591 154.459412 
L 185.941949 145.155974 
L 188.320308 146.524481 
L 190.698666 158.42145 
L 193.077025 151.749741 
L 195.455383 149.390622 
L 197.833741 158.719485 
L 200.2121 156.432199 
L 202.590458 160.742607 
L 204.968817 147.428292 
L 207.347175 146.333248 
L 209.725533 146.977634 
L 212.103892 182.851741 
L 214.48225 163.696194 
L 216.860609 156.407168 
L 219.238967 180.935566 
L 221.617325 155.634151 
L 223.995684 159.99844 
L 226.374042 145.935296 
L 228.752401 149.579736 
L 231.130759 139.334656 
L 233.509117 140.455532 
L 235.887476 130.568223 
L 238.265834 132.12666 
L 240.644193 133.953179 
L 243.022551 132.664034 
L 245.400909 125.745383 
L 247.779268 119.868726 
L 250.157626 122.658046 
L 252.535985 127.482702 
L 254.914343 120.639329 
L 257.292701 123.956644 
L 259.67106 121.238765 
L 262.049418 120.503051 
L 264.427777 118.247728 
L 266.806135 130.731971 
L 271.562852 118.041875 
L 273.94121 122.038296 
L 276.319569 118.377902 
L 278.697927 123.892931 
L 281.076285 119.969747 
L 283.454644 122.572268 
L 285.833002 130.316192 
L 288.211361 127.333685 
L 290.589719 127.176823 
L 292.968077 131.562666 
L 295.346436 134.094126 
L 297.724794 130.734746 
L 300.103153 125.782297 
L 302.481511 128.470093 
L 304.85987 130.147326 
L 307.238228 132.679151 
L 309.616586 138.54309 
L 311.994945 129.763004 
L 314.373303 133.515148 
L 316.751662 133.80605 
L 319.13002 138.895584 
L 321.508378 127.871052 
L 323.886737 132.488948 
L 326.265095 125.566786 
L 328.643454 121.479721 
L 331.021812 120.065345 
L 335.778529 121.161074 
L 338.156887 122.338057 
L 340.535246 122.141419 
L 342.913604 121.182057 
L 345.291962 132.287372 
L 347.670321 138.713783 
L 352.427038 127.99251 
L 354.805396 126.39554 
L 357.183754 132.152676 
L 359.562113 131.769457 
L 361.940471 130.73537 
L 364.31883 123.812407 
L 366.697188 118.717245 
L 369.075546 121.527139 
L 371.453905 121.362435 
L 373.832263 125.713492 
L 376.210622 123.236784 
L 378.58898 120.31158 
L 380.967338 120.829974 
L 383.345697 123.271652 
L 385.724055 124.60923 
L 388.102414 127.722959 
L 390.480772 124.828771 
L 392.85913 132.521688 
L 395.237489 131.290695 
L 397.615847 122.656193 
L 399.994206 117.705782 
L 402.372564 122.334064 
L 404.750922 123.770045 
L 407.129281 117.20649 
L 409.507639 118.184535 
L 411.885998 118.543897 
L 414.264356 117.212981 
L 416.642714 115.473163 
L 419.021073 126.88338 
L 421.399431 132.461694 
L 423.77779 129.253617 
L 426.156148 120.596131 
L 428.534506 120.497341 
L 430.912865 113.130935 
L 433.291223 114.696104 
L 435.669582 118.98263 
L 438.04794 124.249167 
L 440.426298 123.559249 
L 442.804657 117.806991 
L 445.183015 116.271912 
L 447.561374 120.770661 
L 449.939732 127.309977 
L 452.31809 128.649244 
L 454.696449 128.054835 
L 457.074807 123.005278 
L 459.453166 121.251562 
L 461.831524 120.175219 
L 466.588241 112.552451 
L 468.966599 114.949627 
L 471.344958 118.588574 
L 473.723316 118.071169 
L 476.101674 121.266788 
L 478.480033 118.013645 
L 480.858391 120.470026 
L 483.23675 123.779236 
L 485.615108 114.219044 
L 487.993466 114.60089 
L 490.371825 121.861689 
L 492.750183 131.143075 
L 495.128542 131.498741 
L 497.5069 132.18847 
L 499.885258 133.350718 
L 502.263617 138.46014 
L 504.641975 148.000553 
L 507.020334 135.187025 
L 509.398692 133.945918 
L 511.77705 138.756224 
L 514.155409 130.087227 
L 516.533767 130.383711 
L 518.912126 126.877461 
L 521.290484 121.436584 
L 523.668842 118.009343 
L 526.047201 112.961544 
L 528.425559 115.394348 
L 530.803918 121.164337 
L 533.182276 122.740947 
L 535.560634 121.356917 
L 537.938993 121.25863 
L 540.317351 122.456225 
L 542.69571 120.29067 
L 545.074068 115.901535 
L 547.452426 113.227777 
L 549.830785 114.491159 
L 552.209143 116.036889 
L 554.587502 120.040266 
L 556.96586 121.133594 
L 559.344218 124.764696 
L 561.722577 118.922175 
L 564.100935 115.068472 
L 566.479294 114.928222 
L 568.857652 117.012542 
L 571.23601 124.080247 
L 573.614369 134.064495 
L 575.992727 127.038001 
L 578.371086 127.027011 
L 580.749444 118.282639 
L 583.127802 113.758824 
L 585.506161 112.975544 
L 587.884519 116.386487 
L 590.262878 113.706701 
L 592.641236 114.06633 
L 595.019594 131.796872 
L 597.397953 139.234242 
L 599.776311 134.178922 
L 602.15467 125.782366 
L 604.533028 123.590598 
L 606.911386 125.054485 
L 609.289745 124.978835 
L 611.668103 123.075308 
L 614.046462 129.245637 
L 616.42482 124.312097 
L 618.803178 124.430964 
L 621.181537 120.802953 
L 623.559895 118.541251 
L 625.938254 117.947247 
L 628.316612 119.040793 
L 630.69497 130.776874 
L 633.073329 159.015993 
L 635.451687 139.987221 
L 637.830046 128.485652 
L 640.208404 119.331331 
L 642.586762 119.799825 
L 644.965121 125.831182 
L 647.343479 121.815534 
L 649.721838 118.679254 
L 652.100196 119.055421 
L 654.478554 117.640188 
L 656.856913 127.133596 
L 659.235271 120.795891 
L 661.61363 114.069043 
L 663.991988 116.377724 
L 666.370346 120.111507 
L 668.748705 121.081641 
L 671.127063 117.189464 
L 673.505422 113.65595 
L 675.88378 113.99499 
L 680.640497 118.320165 
L 683.018855 122.908667 
L 685.397214 124.712803 
L 687.775572 127.442209 
L 690.15393 126.380696 
L 692.532289 121.812952 
L 694.910647 128.593627 
L 697.289006 126.273942 
L 699.667364 121.660052 
L 702.045722 123.372763 
L 704.424081 126.659479 
L 706.802439 123.407904 
L 709.180798 128.778162 
L 711.559156 124.229009 
L 713.937514 132.632257 
L 716.315873 129.53182 
L 718.694231 133.416139 
L 721.07259 127.940582 
L 723.450948 120.15975 
L 725.829306 115.04722 
L 728.207665 115.836078 
L 730.586023 118.973353 
L 732.964382 118.741362 
L 735.34274 114.117288 
L 737.721098 118.485589 
L 740.099457 119.099596 
L 742.477815 112.526593 
L 744.856174 113.017368 
L 749.61289 130.348396 
L 751.991249 122.05365 
L 754.369607 116.540593 
L 756.747966 131.291507 
L 759.126324 126.093169 
L 761.504682 118.462227 
L 763.883041 118.170185 
L 766.261399 113.764429 
L 768.639758 115.296703 
L 771.018116 122.979584 
L 773.396474 140.084022 
L 775.774833 143.262389 
L 778.153191 134.372537 
L 780.53155 130.368942 
L 782.909908 124.759445 
L 785.288266 124.324557 
L 787.666625 128.371235 
L 790.044983 126.773927 
L 792.423342 125.340885 
L 794.8017 126.247419 
L 797.180058 125.666826 
L 799.558417 136.017483 
L 801.936775 144.123607 
L 804.315134 169.844353 
L 806.693492 143.87436 
L 809.07185 127.570221 
L 811.450209 120.166253 
L 813.828567 120.544197 
L 816.206926 125.174229 
L 818.585284 119.447054 
L 820.963642 122.380065 
L 823.342001 125.121099 
L 825.720359 126.473799 
L 828.098718 131.503834 
L 830.477076 133.640836 
L 832.855434 133.069649 
L 835.233793 130.263504 
L 837.612151 141.908142 
L 839.99051 149.498383 
L 842.368868 149.725487 
L 844.747227 145.121001 
L 847.125585 133.036393 
L 849.503943 141.688925 
L 851.882302 184.908037 
L 854.26066 139.835189 
L 856.639019 129.432254 
L 861.395735 185.070749 
L 863.774094 167.629045 
L 866.152452 203.790643 
L 868.530811 161.426458 
L 870.909169 152.441871 
L 873.287527 150.825195 
L 875.665886 185.616997 
L 878.044244 185.480638 
L 880.422603 207.109282 
L 882.800961 182.115918 
L 887.557678 172.563404 
L 889.936036 178.688999 
L 892.314395 169.753738 
L 894.692753 202.561798 
L 897.071111 203.127751 
L 899.44947 184.997136 
L 901.827828 202.386112 
L 904.206187 155.095969 
L 906.584545 162.742811 
L 908.962903 183.279847 
L 911.341262 202.372224 
L 913.71962 223.212331 
L 916.097979 213.269852 
L 918.476337 205.375616 
L 920.854695 212.61026 
L 923.233054 211.858554 
L 925.611412 183.762479 
L 927.989771 215.390901 
L 930.368129 200.105655 
L 932.746487 195.525282 
L 935.124846 219.615931 
L 937.503204 193.027363 
L 939.881563 205.533292 
L 942.259921 210.707169 
L 944.638279 209.346602 
L 947.016638 231.763881 
L 947.016638 231.763881 
" clip-path="url(#pe6b03278a9)" style="fill: none; stroke: #1f77b4; stroke-width: 1.5; stroke-linecap: square"/>
   </g>
   <g id="line2d_51">
    <path d="M 93.185972 124.176112 
L 95.56433 184.793893 
L 97.942689 176.573369 
L 100.321047 209.22594 
L 102.699405 198.452666 
L 105.077764 207.197609 
L 107.456122 189.425598 
L 109.834481 216.599427 
L 112.212839 188.971598 
L 114.591197 179.951645 
L 116.969556 195.537577 
L 119.347914 170.893679 
L 121.726273 143.660385 
L 124.104631 164.035236 
L 126.482989 164.352173 
L 128.861348 167.818344 
L 131.239706 174.453014 
L 133.618065 166.858425 
L 135.996423 160.812085 
L 138.374781 166.776046 
L 140.75314 157.063087 
L 143.131498 158.659895 
L 145.509857 138.127447 
L 147.888215 155.815868 
L 150.266573 143.685374 
L 152.644932 138.537812 
L 155.02329 163.224074 
L 157.401649 149.085713 
L 159.780007 150.709899 
L 162.158365 139.13978 
L 164.536724 161.441956 
L 166.915082 132.944899 
L 169.293441 129.012411 
L 171.671799 163.808083 
L 174.050157 136.944645 
L 176.428516 131.203818 
L 178.806874 135.849337 
L 181.185233 132.960047 
L 183.563591 120.421256 
L 185.941949 121.631583 
L 188.320308 119.72107 
L 190.698666 139.056502 
L 193.077025 136.678806 
L 195.455383 144.154254 
L 197.833741 126.738583 
L 200.2121 126.453861 
L 202.590458 131.065909 
L 204.968817 126.360336 
L 207.347175 119.647821 
L 209.725533 105.259093 
L 212.103892 118.734924 
L 214.48225 123.16483 
L 216.860609 115.416646 
L 219.238967 119.874384 
L 221.617325 147.73319 
L 223.995684 134.687115 
L 226.374042 129.834187 
L 228.752401 144.6148 
L 231.130759 138.847116 
L 233.509117 123.385382 
L 235.887476 140.607402 
L 238.265834 125.918459 
L 240.644193 131.152642 
L 243.022551 177.940806 
L 245.400909 106.708891 
L 247.779268 122.437315 
L 250.157626 134.645918 
L 252.535985 198.663124 
L 254.914343 115.929878 
L 257.292701 124.585193 
L 259.67106 127.376429 
L 262.049418 106.3746 
L 264.427777 121.174847 
L 266.806135 101.037065 
L 269.184493 204.728314 
L 271.562852 170.454499 
L 273.94121 235.985467 
L 276.319569 220.6331 
L 278.697927 112.671591 
L 281.076285 233.104384 
L 283.454644 226.941822 
L 285.833002 104.89484 
L 288.211361 234.405772 
L 290.589719 75.969478 
L 292.968077 102.953534 
L 295.346436 88.93387 
L 297.724794 236.078182 
L 300.103153 97.198099 
L 302.481511 92.624097 
L 304.85987 96.231412 
L 307.238228 69.154177 
L 309.616586 98.085699 
L 311.994945 228.082978 
L 314.373303 97.000751 
L 316.751662 231.645924 
L 319.13002 94.102816 
L 321.508378 78.30325 
L 323.886737 69.554597 
L 326.265095 233.200939 
L 328.643454 92.04208 
L 331.021812 70.869024 
L 333.40017 69.152049 
L 335.778529 72.388456 
L 338.156887 57.288592 
L 340.535246 63.40789 
L 342.913604 81.134605 
L 345.291962 57.526301 
L 347.670321 63.591692 
L 350.048679 67.479449 
L 352.427038 79.201657 
L 354.805396 72.028156 
L 357.183754 81.736537 
L 359.562113 76.598008 
L 361.940471 77.443342 
L 364.31883 91.093621 
L 366.697188 69.505046 
L 369.075546 72.115667 
L 371.453905 84.00583 
L 373.832263 86.432179 
L 376.210622 80.782948 
L 378.58898 87.277355 
L 380.967338 76.826409 
L 383.345697 83.064249 
L 385.724055 81.207644 
L 388.102414 76.999514 
L 390.480772 87.221813 
L 392.85913 95.928709 
L 395.237489 81.438768 
L 397.615847 90.036149 
L 399.994206 81.75103 
L 402.372564 81.828406 
L 404.750922 91.661272 
L 407.129281 91.667029 
L 409.507639 222.729492 
L 411.885998 117.947722 
L 414.264356 75.120386 
L 416.642714 86.646546 
L 419.021073 93.015129 
L 421.399431 93.010214 
L 423.77779 114.150061 
L 426.156148 81.621468 
L 428.534506 92.302433 
L 430.912865 101.138254 
L 433.291223 232.877721 
L 435.669582 91.18891 
L 438.04794 98.889502 
L 440.426298 83.176981 
L 442.804657 89.612863 
L 445.183015 95.474765 
L 447.561374 235.254284 
L 449.939732 106.85306 
L 452.31809 233.980682 
L 454.696449 235.210506 
L 457.074807 87.000412 
L 464.209882 88.992576 
L 466.588241 79.207056 
L 468.966599 235.488732 
L 471.344958 100.778842 
L 473.723316 96.821039 
L 476.101674 71.055621 
L 478.480033 226.818521 
L 480.858391 96.824177 
L 483.23675 81.436144 
L 485.615108 73.602543 
L 487.993466 97.258352 
L 490.371825 69.505603 
L 492.750183 86.279095 
L 495.128542 78.514811 
L 497.5069 72.496518 
L 499.885258 86.994523 
L 502.263617 67.241557 
L 504.641975 72.219119 
L 507.020334 70.551816 
L 509.398692 67.390196 
L 511.77705 69.902201 
L 516.533767 70.139431 
L 518.912126 100.391687 
L 521.290484 76.966242 
L 523.668842 91.191828 
L 526.047201 112.146186 
L 528.425559 74.703241 
L 530.803918 75.922447 
L 533.182276 68.962457 
L 535.560634 86.919727 
L 537.938993 82.677695 
L 540.317351 66.941978 
L 542.69571 67.562392 
L 545.074068 80.782129 
L 547.452426 74.110536 
L 549.830785 98.497377 
L 552.209143 89.119051 
L 554.587502 82.579804 
L 556.96586 85.553688 
L 559.344218 72.499543 
L 561.722577 101.020274 
L 564.100935 108.757678 
L 566.479294 84.760648 
L 568.857652 98.848083 
L 571.23601 97.106833 
L 573.614369 119.467895 
L 575.992727 85.850537 
L 578.371086 103.020041 
L 580.749444 89.163221 
L 583.127802 80.809016 
L 585.506161 94.027646 
L 587.884519 79.203698 
L 590.262878 78.862274 
L 592.641236 101.838716 
L 595.019594 87.685949 
L 597.397953 115.25587 
L 599.776311 75.640636 
L 602.15467 114.882408 
L 604.533028 234.944906 
L 606.911386 98.074657 
L 609.289745 78.93326 
L 611.668103 110.866048 
L 614.046462 95.930542 
L 616.42482 72.499797 
L 618.803178 228.615557 
L 621.181537 107.467026 
L 623.559895 83.998884 
L 625.938254 83.445325 
L 628.316612 104.705415 
L 630.69497 103.473028 
L 633.073329 80.513525 
L 635.451687 235.348335 
L 637.830046 86.288672 
L 640.208404 99.187964 
L 642.586762 72.501661 
L 644.965121 86.587699 
L 647.343479 78.518222 
L 649.721838 86.995792 
L 652.100196 86.284448 
L 654.478554 84.00151 
L 656.856913 79.528493 
L 659.235271 72.031106 
L 661.61363 54.821421 
L 663.991988 60.614924 
L 666.370346 68.403628 
L 668.748705 69.504662 
L 671.127063 73.409024 
L 673.505422 86.998458 
L 675.88378 81.759754 
L 678.262138 95.929309 
L 680.640497 86.99686 
L 683.018855 85.551426 
L 685.397214 75.841595 
L 687.775572 70.624366 
L 690.15393 68.675922 
L 692.532289 73.851022 
L 694.910647 177.620339 
L 697.289006 79.033962 
L 699.667364 69.736244 
L 702.045722 70.626372 
L 704.424081 78.516371 
L 706.802439 79.337823 
L 709.180798 67.830129 
L 711.559156 81.976007 
L 713.937514 73.105992 
L 716.315873 83.01482 
L 718.694231 81.978633 
L 721.07259 77.28425 
L 723.450948 93.695169 
L 725.829306 79.539497 
L 728.207665 77.286099 
L 730.586023 79.869651 
L 732.964382 80.715422 
L 735.34274 89.304393 
L 737.721098 95.628548 
L 740.099457 84.947469 
L 742.477815 95.002586 
L 744.856174 79.860703 
L 747.234532 79.535235 
L 749.61289 100.77159 
L 751.991249 81.978689 
L 754.369607 81.256434 
L 756.747966 91.191411 
L 759.126324 78.932801 
L 761.504682 82.333764 
L 763.883041 83.600789 
L 766.261399 84.00213 
L 768.639758 89.612343 
L 771.018116 83.181993 
L 773.396474 81.437499 
L 775.774833 86.03825 
L 778.153191 82.760778 
L 780.53155 96.38574 
L 782.909908 94.033614 
L 785.288266 107.494883 
L 787.666625 84.537455 
L 790.044983 84.007599 
L 792.423342 89.616017 
L 794.8017 80.51123 
L 797.180058 73.322938 
L 799.558417 68.805926 
L 801.936775 94.523155 
L 804.315134 109.48016 
L 806.693492 80.979797 
L 809.07185 85.549285 
L 811.450209 106.969349 
L 813.828567 233.783629 
L 816.206926 71.053812 
L 818.585284 81.490617 
L 820.963642 81.742452 
L 823.342001 76.889505 
L 825.720359 71.423123 
L 828.098718 94.02285 
L 830.477076 81.437572 
L 832.855434 77.220709 
L 835.233793 66.482718 
L 837.612151 93.501633 
L 839.99051 64.016802 
L 842.368868 93.253483 
L 844.747227 75.363439 
L 849.503943 93.527364 
L 851.882302 73.850851 
L 854.26066 91.380658 
L 856.639019 68.957617 
L 859.017377 72.779175 
L 861.395735 63.864819 
L 863.774094 234.231338 
L 866.152452 68.323303 
L 868.530811 72.774075 
L 870.909169 81.740071 
L 873.287527 61.223106 
L 875.665886 79.202389 
L 878.044244 71.791776 
L 880.422603 74.705094 
L 882.800961 65.619826 
L 885.179319 66.38865 
L 887.557678 65.628465 
L 889.936036 57.998421 
L 892.314395 64.018288 
L 894.692753 68.685167 
L 897.071111 72.958696 
L 899.44947 67.832331 
L 901.827828 52.539317 
L 904.206187 66.007959 
L 906.584545 89.61003 
L 908.962903 88.342582 
L 911.341262 85.539135 
L 913.71962 61.019417 
L 916.097979 50.100492 
L 918.476337 66.008331 
L 920.854695 78.513736 
L 923.233054 57.520845 
L 925.611412 50.332767 
L 927.989771 69.503287 
L 930.368129 59.344095 
L 932.746487 53.327099 
L 935.124846 44.843916 
L 937.503204 53.422919 
L 939.881563 44.092361 
L 942.259921 39.848002 
L 944.638279 36.841818 
L 947.016638 37.629043 
L 949.394996 39.760816 
L 951.773355 45.096174 
L 954.151713 61.236258 
L 954.151713 61.236258 
" clip-path="url(#pe6b03278a9)" style="fill: none; stroke: #ff7f0e; stroke-width: 1.5; stroke-linecap: square"/>
   </g>
   <g id="line2d_52">
    <path d="M 93.185972 114.879877 
L 95.56433 185.124387 
L 100.321047 224.438655 
L 102.699405 159.851258 
L 105.077764 99.076395 
L 107.456122 103.849897 
L 109.834481 153.931496 
L 112.212839 186.762128 
L 114.591197 193.052923 
L 116.969556 192.032385 
L 119.347914 191.817089 
L 121.726273 183.620088 
L 124.104631 179.363412 
L 126.482989 189.579586 
L 128.861348 211.80349 
L 131.239706 187.944666 
L 133.618065 170.860149 
L 135.996423 164.921088 
L 138.374781 177.997649 
L 140.75314 188.697926 
L 143.131498 195.546977 
L 145.509857 176.987508 
L 147.888215 186.342379 
L 150.266573 179.944958 
L 152.644932 185.346189 
L 155.02329 157.407616 
L 157.401649 158.308168 
L 159.780007 169.811029 
L 162.158365 164.366165 
L 164.536724 167.707838 
L 166.915082 170.569214 
L 169.293441 159.186519 
L 171.671799 168.55821 
L 174.050157 159.95257 
L 176.428516 177.79931 
L 178.806874 154.921733 
L 181.185233 160.596466 
L 183.563591 165.935486 
L 185.941949 161.106768 
L 188.320308 154.240422 
L 190.698666 159.564221 
L 193.077025 157.687781 
L 195.455383 146.113339 
L 197.833741 154.093025 
L 200.2121 144.57289 
L 202.590458 146.638345 
L 204.968817 140.278464 
L 207.347175 138.649607 
L 209.725533 136.852652 
L 212.103892 133.709557 
L 214.48225 131.573365 
L 216.860609 132.191281 
L 219.238967 128.087901 
L 221.617325 127.804856 
L 223.995684 124.942437 
L 226.374042 129.275725 
L 228.752401 124.095538 
L 231.130759 123.814585 
L 233.509117 124.121314 
L 235.887476 119.640444 
L 238.265834 126.81682 
L 240.644193 124.934135 
L 243.022551 119.677668 
L 245.400909 118.487919 
L 247.779268 121.58265 
L 250.157626 118.226604 
L 252.535985 120.039774 
L 254.914343 115.385733 
L 257.292701 116.302694 
L 259.67106 121.893573 
L 262.049418 122.527492 
L 264.427777 117.371786 
L 266.806135 117.260227 
L 269.184493 114.773999 
L 271.562852 120.441395 
L 273.94121 119.636163 
L 276.319569 114.155301 
L 278.697927 120.705429 
L 281.076285 125.979612 
L 283.454644 120.183717 
L 285.833002 119.191963 
L 288.211361 125.61167 
L 290.589719 123.596869 
L 292.968077 119.700263 
L 295.346436 120.883517 
L 297.724794 121.234557 
L 300.103153 115.280975 
L 302.481511 112.796041 
L 304.85987 114.527962 
L 307.238228 102.754934 
L 309.616586 107.497763 
L 311.994945 104.85518 
L 314.373303 106.450416 
L 316.751662 100.756007 
L 319.13002 111.179738 
L 321.508378 109.424425 
L 323.886737 119.762006 
L 326.265095 118.59193 
L 328.643454 116.805667 
L 331.021812 114.070984 
L 333.40017 112.043789 
L 335.778529 116.941097 
L 338.156887 122.852432 
L 340.535246 122.226719 
L 342.913604 125.813673 
L 345.291962 127.293076 
L 347.670321 119.035951 
L 350.048679 114.731174 
L 352.427038 113.558949 
L 354.805396 118.306311 
L 357.183754 119.834525 
L 359.562113 122.780179 
L 361.940471 122.217016 
L 364.31883 119.500563 
L 366.697188 119.589901 
L 369.075546 126.802528 
L 371.453905 127.049657 
L 373.832263 120.809823 
L 376.210622 124.049901 
L 378.58898 121.202784 
L 380.967338 115.736313 
L 383.345697 122.638353 
L 385.724055 122.878755 
L 388.102414 120.926208 
L 390.480772 116.81887 
L 392.85913 118.125446 
L 395.237489 124.282078 
L 397.615847 130.780735 
L 399.994206 128.657237 
L 402.372564 123.263442 
L 404.750922 118.625423 
L 407.129281 120.574468 
L 409.507639 131.063861 
L 411.885998 125.681633 
L 414.264356 124.718459 
L 416.642714 120.932936 
L 419.021073 123.665007 
L 421.399431 125.681203 
L 423.77779 118.834103 
L 426.156148 121.73285 
L 428.534506 126.891274 
L 430.912865 123.560878 
L 433.291223 119.970541 
L 435.669582 124.975616 
L 438.04794 122.83086 
L 440.426298 115.241531 
L 442.804657 122.437757 
L 445.183015 130.453925 
L 447.561374 123.101183 
L 449.939732 119.592312 
L 452.31809 114.688665 
L 454.696449 113.717748 
L 457.074807 107.459985 
L 459.453166 110.809721 
L 461.831524 110.647339 
L 464.209882 117.626226 
L 466.588241 122.32668 
L 468.966599 116.568649 
L 471.344958 118.616795 
L 473.723316 118.887502 
L 476.101674 115.6581 
L 478.480033 118.410339 
L 480.858391 121.850008 
L 483.23675 114.475782 
L 485.615108 111.730712 
L 487.993466 117.266365 
L 490.371825 115.975047 
L 492.750183 113.133659 
L 495.128542 113.675785 
L 497.5069 110.871933 
L 499.885258 113.501857 
L 502.263617 127.300089 
L 504.641975 140.312942 
L 507.020334 130.531043 
L 509.398692 130.287776 
L 511.77705 130.320658 
L 514.155409 121.177094 
L 516.533767 116.820296 
L 518.912126 115.666686 
L 521.290484 122.047149 
L 523.668842 127.003048 
L 526.047201 123.399752 
L 528.425559 119.567313 
L 530.803918 131.989668 
L 533.182276 129.654669 
L 535.560634 128.768059 
L 537.938993 121.162728 
L 540.317351 131.305926 
L 542.69571 125.340226 
L 545.074068 127.598699 
L 547.452426 126.008648 
L 549.830785 120.836877 
L 552.209143 114.524369 
L 556.96586 116.894738 
L 559.344218 115.134418 
L 561.722577 115.164797 
L 564.100935 114.930723 
L 566.479294 110.129764 
L 568.857652 114.023534 
L 571.23601 116.320676 
L 573.614369 118.462034 
L 575.992727 124.618241 
L 580.749444 125.098238 
L 583.127802 124.056175 
L 585.506161 116.343336 
L 587.884519 116.715617 
L 590.262878 120.312326 
L 592.641236 121.982961 
L 595.019594 121.453479 
L 597.397953 119.984326 
L 599.776311 120.909077 
L 602.15467 121.100251 
L 604.533028 130.010755 
L 606.911386 127.538307 
L 609.289745 117.830661 
L 611.668103 112.909692 
L 614.046462 113.340961 
L 618.803178 120.223461 
L 621.181537 123.971092 
L 623.559895 124.948901 
L 625.938254 119.602903 
L 628.316612 120.638702 
L 630.69497 121.456605 
L 633.073329 121.596405 
L 635.451687 122.370502 
L 637.830046 118.252836 
L 640.208404 117.766142 
L 642.586762 117.019672 
L 644.965121 118.834496 
L 647.343479 122.471297 
L 649.721838 130.807644 
L 652.100196 123.809586 
L 654.478554 123.554793 
L 661.61363 120.419176 
L 663.991988 120.946032 
L 666.370346 122.016252 
L 668.748705 125.274616 
L 671.127063 126.552627 
L 673.505422 137.861843 
L 675.88378 163.16693 
L 678.262138 109.072256 
L 680.640497 182.353484 
L 683.018855 193.182036 
L 685.397214 185.145738 
L 687.775572 207.068256 
L 690.15393 188.472009 
L 692.532289 230.809786 
L 694.910647 202.211526 
L 697.289006 183.441551 
L 699.667364 208.822749 
L 702.045722 184.648511 
L 704.424081 62.398739 
L 706.802439 184.912695 
L 709.180798 191.05349 
L 711.559156 169.388563 
L 713.937514 229.723693 
L 716.315873 178.069657 
L 718.694231 229.749795 
L 730.586023 50.1384 
L 732.964382 177.169319 
L 735.34274 67.4759 
L 737.721098 229.636921 
L 740.099457 46.859979 
L 742.477815 55.006579 
L 744.856174 118.655608 
L 747.234532 167.327695 
L 749.61289 175.674441 
L 751.991249 187.39678 
L 754.369607 188.748801 
L 756.747966 199.740174 
L 759.126324 193.410435 
L 761.504682 196.333365 
L 763.883041 162.351346 
L 766.261399 231.584166 
L 768.639758 169.363284 
L 771.018116 41.313309 
L 773.396474 47.627552 
L 775.774833 81.99767 
L 778.153191 62.625617 
L 780.53155 91.974184 
L 782.909908 93.315236 
L 785.288266 166.019383 
L 787.666625 93.605863 
L 790.044983 158.518102 
L 792.423342 193.168725 
L 794.8017 211.003932 
L 797.180058 97.947648 
L 799.558417 63.055039 
L 801.936775 171.747152 
L 804.315134 177.391508 
L 806.693492 210.01319 
L 809.07185 182.644904 
L 811.450209 65.564349 
L 813.828567 69.7642 
L 816.206926 54.519423 
L 818.585284 64.774444 
L 820.963642 72.96915 
L 823.342001 72.649571 
L 825.720359 80.882413 
L 828.098718 84.191811 
L 830.477076 78.074001 
L 832.855434 90.872956 
L 835.233793 97.746432 
L 837.612151 106.462031 
L 839.99051 104.161714 
L 842.368868 114.893492 
L 844.747227 149.373958 
L 847.125585 179.596924 
L 849.503943 161.568398 
L 851.882302 150.611754 
L 854.26066 167.417102 
L 856.639019 176.200959 
L 859.017377 148.733992 
L 861.395735 150.586601 
L 863.774094 162.274557 
L 866.152452 151.726275 
L 868.530811 155.010913 
L 870.909169 159.675378 
L 873.287527 160.916208 
L 875.665886 171.233991 
L 878.044244 162.229409 
L 880.422603 179.486468 
L 882.800961 182.270053 
L 885.179319 166.818172 
L 887.557678 187.354885 
L 889.936036 183.661287 
L 892.314395 176.231754 
L 894.692753 182.014207 
L 897.071111 206.7722 
L 899.44947 195.894538 
L 901.827828 166.635522 
L 904.206187 197.933538 
L 906.584545 187.749013 
L 908.962903 191.809329 
L 911.341262 196.129088 
L 913.71962 183.082434 
L 916.097979 189.254134 
L 918.476337 190.921576 
L 920.854695 210.067423 
L 923.233054 194.72906 
L 925.611412 209.024444 
L 927.989771 198.393707 
L 930.368129 213.05681 
L 932.746487 194.138944 
L 937.503204 213.487426 
L 939.881563 195.362002 
L 942.259921 184.335415 
L 944.638279 200.469155 
L 947.016638 230.576353 
L 947.016638 230.576353 
" clip-path="url(#pe6b03278a9)" style="fill: none; stroke: #2ca02c; stroke-width: 1.5; stroke-linecap: square"/>
   </g>
   <g id="patch_3">
    <path d="M 50.137685 246.04 
L 50.137685 26.88 
" style="fill: none; stroke: #000000; stroke-width: 0.8; stroke-linejoin: miter; stroke-linecap: square"/>
   </g>
   <g id="patch_4">
    <path d="M 997.2 246.04 
L 997.2 26.88 
" style="fill: none; stroke: #000000; stroke-width: 0.8; stroke-linejoin: miter; stroke-linecap: square"/>
   </g>
   <g id="patch_5">
    <path d="M 50.137685 246.04 
L 997.2 246.04 
" style="fill: none; stroke: #000000; stroke-width: 0.8; stroke-linejoin: miter; stroke-linecap: square"/>
   </g>
   <g id="patch_6">
    <path d="M 50.137685 26.88 
L 997.2 26.88 
" style="fill: none; stroke: #000000; stroke-width: 0.8; stroke-linejoin: miter; stroke-linecap: square"/>
   </g>
   <g id="text_15">
    <!-- Average HTTP Request Duration (log scale) -->
    <g transform="translate(394.420405 20.88) scale(0.12 -0.12)">
     <defs>
      <path id="DejaVuSans-48" d="M 628 4666 
L 1259 4666 
L 1259 2753 
L 3553 2753 
L 3553 4666 
L 4184 4666 
L 4184 0 
L 3553 0 
L 3553 2222 
L 1259 2222 
L 1259 0 
L 628 0 
L 628 4666 
z
" transform="scale(0.015625)"/>
      <path id="DejaVuSans-50" d="M 1259 4147 
L 1259 2394 
L 2053 2394 
Q 2494 2394 2734 2622 
Q 2975 2850 2975 3272 
Q 2975 3691 2734 3919 
Q 2494 4147 2053 4147 
L 1259 4147 
z
M 628 4666 
L 2053 4666 
Q 2838 4666 3239 4311 
Q 3641 3956 3641 3272 
Q 3641 2581 3239 2228 
Q 2838 1875 2053 1875 
L 1259 1875 
L 1259 0 
L 628 0 
L 628 4666 
z
" transform="scale(0.015625)"/>
      <path id="DejaVuSans-52" d="M 2841 2188 
Q 3044 2119 3236 1894 
Q 3428 1669 3622 1275 
L 4263 0 
L 3584 0 
L 2988 1197 
Q 2756 1666 2539 1819 
Q 2322 1972 1947 1972 
L 1259 1972 
L 1259 0 
L 628 0 
L 628 4666 
L 2053 4666 
Q 2853 4666 3247 4331 
Q 3641 3997 3641 3322 
Q 3641 2881 3436 2590 
Q 3231 2300 2841 2188 
z
M 1259 4147 
L 1259 2491 
L 2053 2491 
Q 2509 2491 2742 2702 
Q 2975 2913 2975 3322 
Q 2975 3731 2742 3939 
Q 2509 4147 2053 4147 
L 1259 4147 
z
" transform="scale(0.015625)"/>
      <path id="DejaVuSans-71" d="M 947 1747 
Q 947 1113 1208 752 
Q 1469 391 1925 391 
Q 2381 391 2643 752 
Q 2906 1113 2906 1747 
Q 2906 2381 2643 2742 
Q 2381 3103 1925 3103 
Q 1469 3103 1208 2742 
Q 947 2381 947 1747 
z
M 2906 525 
Q 2725 213 2448 61 
Q 2172 -91 1784 -91 
Q 1150 -91 751 415 
Q 353 922 353 1747 
Q 353 2572 751 3078 
Q 1150 3584 1784 3584 
Q 2172 3584 2448 3432 
Q 2725 3281 2906 2969 
L 2906 3500 
L 3481 3500 
L 3481 -1331 
L 2906 -1331 
L 2906 525 
z
" transform="scale(0.015625)"/>
      <path id="DejaVuSans-6c" d="M 603 4863 
L 1178 4863 
L 1178 0 
L 603 0 
L 603 4863 
z
" transform="scale(0.015625)"/>
     </defs>
     <use xlink:href="#DejaVuSans-41"/>
     <use xlink:href="#DejaVuSans-76" transform="translate(62.533203 0)"/>
     <use xlink:href="#DejaVuSans-65" transform="translate(121.712891 0)"/>
     <use xlink:href="#DejaVuSans-72" transform="translate(183.236328 0)"/>
     <use xlink:href="#DejaVuSans-61" transform="translate(224.349609 0)"/>
     <use xlink:href="#DejaVuSans-67" transform="translate(285.628906 0)"/>
     <use xlink:href="#DejaVuSans-65" transform="translate(349.105469 0)"/>
     <use xlink:href="#DejaVuSans-20" transform="translate(410.628906 0)"/>
     <use xlink:href="#DejaVuSans-48" transform="translate(442.416016 0)"/>
     <use xlink:href="#DejaVuSans-54" transform="translate(517.611328 0)"/>
     <use xlink:href="#DejaVuSans-54" transform="translate(576.945312 0)"/>
     <use xlink:href="#DejaVuSans-50" transform="translate(638.029297 0)"/>
     <use xlink:href="#DejaVuSans-20" transform="translate(698.332031 0)"/>
     <use xlink:href="#DejaVuSans-52" transform="translate(730.119141 0)"/>
     <use xlink:href="#DejaVuSans-65" transform="translate(795.101562 0)"/>
     <use xlink:href="#DejaVuSans-71" transform="translate(856.625 0)"/>
     <use xlink:href="#DejaVuSans-75" transform="translate(920.101562 0)"/>
     <use xlink:href="#DejaVuSans-65" transform="translate(983.480469 0)"/>
     <use xlink:href="#DejaVuSans-73" transform="translate(1045.003906 0)"/>
     <use xlink:href="#DejaVuSans-74" transform="translate(1097.103516 0)"/>
     <use xlink:href="#DejaVuSans-20" transform="translate(1136.3125 0)"/>
     <use xlink:href="#DejaVuSans-44" transform="translate(1168.099609 0)"/>
     <use xlink:href="#DejaVuSans-75" transform="translate(1245.101562 0)"/>
     <use xlink:href="#DejaVuSans-72" transform="translate(1308.480469 0)"/>
     <use xlink:href="#DejaVuSans-61" transform="translate(1349.59375 0)"/>
     <use xlink:href="#DejaVuSans-74" transform="translate(1410.873047 0)"/>
     <use xlink:href="#DejaVuSans-69" transform="translate(1450.082031 0)"/>
     <use xlink:href="#DejaVuSans-6f" transform="translate(1477.865234 0)"/>
     <use xlink:href="#DejaVuSans-6e" transform="translate(1539.046875 0)"/>
     <use xlink:href="#DejaVuSans-20" transform="translate(1602.425781 0)"/>
     <use xlink:href="#DejaVuSans-28" transform="translate(1634.212891 0)"/>
     <use xlink:href="#DejaVuSans-6c" transform="translate(1673.226562 0)"/>
     <use xlink:href="#DejaVuSans-6f" transform="translate(1701.009766 0)"/>
     <use xlink:href="#DejaVuSans-67" transform="translate(1762.191406 0)"/>
     <use xlink:href="#DejaVuSans-20" transform="translate(1825.667969 0)"/>
     <use xlink:href="#DejaVuSans-73" transform="translate(1857.455078 0)"/>
     <use xlink:href="#DejaVuSans-63" transform="translate(1909.554688 0)"/>
     <use xlink:href="#DejaVuSans-61" transform="translate(1964.535156 0)"/>
     <use xlink:href="#DejaVuSans-6c" transform="translate(2025.814453 0)"/>
     <use xlink:href="#DejaVuSans-65" transform="translate(2053.597656 0)"/>
     <use xlink:href="#DejaVuSans-29" transform="translate(2115.121094 0)"/>
    </g>
   </g>
   <g id="legend_1">
    <g id="patch_7">
     <path d="M 57.137685 78.914375 
L 190.481435 78.914375 
Q 192.481435 78.914375 192.481435 76.914375 
L 192.481435 33.88 
Q 192.481435 31.88 190.481435 31.88 
L 57.137685 31.88 
Q 55.137685 31.88 55.137685 33.88 
L 55.137685 76.914375 
Q 55.137685 78.914375 57.137685 78.914375 
z
" style="fill: #ffffff; opacity: 0.8; stroke: #cccccc; stroke-linejoin: miter"/>
    </g>
    <g id="line2d_53">
     <path d="M 59.137685 39.978438 
L 69.137685 39.978438 
L 79.137685 39.978438 
" style="fill: none; stroke: #1f77b4; stroke-width: 1.5; stroke-linecap: square"/>
    </g>
    <g id="text_16">
     <!-- Single Large Results -->
     <g transform="translate(87.137685 43.478438) scale(0.1 -0.1)">
      <defs>
       <path id="DejaVuSans-4c" d="M 628 4666 
L 1259 4666 
L 1259 531 
L 3531 531 
L 3531 0 
L 628 0 
L 628 4666 
z
" transform="scale(0.015625)"/>
      </defs>
      <use xlink:href="#DejaVuSans-53"/>
      <use xlink:href="#DejaVuSans-69" transform="translate(63.476562 0)"/>
      <use xlink:href="#DejaVuSans-6e" transform="translate(91.259766 0)"/>
      <use xlink:href="#DejaVuSans-67" transform="translate(154.638672 0)"/>
      <use xlink:href="#DejaVuSans-6c" transform="translate(218.115234 0)"/>
      <use xlink:href="#DejaVuSans-65" transform="translate(245.898438 0)"/>
      <use xlink:href="#DejaVuSans-20" transform="translate(307.421875 0)"/>
      <use xlink:href="#DejaVuSans-4c" transform="translate(339.208984 0)"/>
      <use xlink:href="#DejaVuSans-61" transform="translate(394.921875 0)"/>
      <use xlink:href="#DejaVuSans-72" transform="translate(456.201172 0)"/>
      <use xlink:href="#DejaVuSans-67" transform="translate(495.564453 0)"/>
      <use xlink:href="#DejaVuSans-65" transform="translate(559.041016 0)"/>
      <use xlink:href="#DejaVuSans-20" transform="translate(620.564453 0)"/>
      <use xlink:href="#DejaVuSans-52" transform="translate(652.351562 0)"/>
      <use xlink:href="#DejaVuSans-65" transform="translate(717.333984 0)"/>
      <use xlink:href="#DejaVuSans-73" transform="translate(778.857422 0)"/>
      <use xlink:href="#DejaVuSans-75" transform="translate(830.957031 0)"/>
      <use xlink:href="#DejaVuSans-6c" transform="translate(894.335938 0)"/>
      <use xlink:href="#DejaVuSans-74" transform="translate(922.119141 0)"/>
      <use xlink:href="#DejaVuSans-73" transform="translate(961.328125 0)"/>
     </g>
    </g>
    <g id="line2d_54">
     <path d="M 59.137685 54.656563 
L 69.137685 54.656563 
L 79.137685 54.656563 
" style="fill: none; stroke: #ff7f0e; stroke-width: 1.5; stroke-linecap: square"/>
    </g>
    <g id="text_17">
     <!-- Single Small Results -->
     <g transform="translate(87.137685 58.156563) scale(0.1 -0.1)">
      <use xlink:href="#DejaVuSans-53"/>
      <use xlink:href="#DejaVuSans-69" transform="translate(63.476562 0)"/>
      <use xlink:href="#DejaVuSans-6e" transform="translate(91.259766 0)"/>
      <use xlink:href="#DejaVuSans-67" transform="translate(154.638672 0)"/>
      <use xlink:href="#DejaVuSans-6c" transform="translate(218.115234 0)"/>
      <use xlink:href="#DejaVuSans-65" transform="translate(245.898438 0)"/>
      <use xlink:href="#DejaVuSans-20" transform="translate(307.421875 0)"/>
      <use xlink:href="#DejaVuSans-53" transform="translate(339.208984 0)"/>
      <use xlink:href="#DejaVuSans-6d" transform="translate(402.685547 0)"/>
      <use xlink:href="#DejaVuSans-61" transform="translate(500.097656 0)"/>
      <use xlink:href="#DejaVuSans-6c" transform="translate(561.376953 0)"/>
      <use xlink:href="#DejaVuSans-6c" transform="translate(589.160156 0)"/>
      <use xlink:href="#DejaVuSans-20" transform="translate(616.943359 0)"/>
      <use xlink:href="#DejaVuSans-52" transform="translate(648.730469 0)"/>
      <use xlink:href="#DejaVuSans-65" transform="translate(713.712891 0)"/>
      <use xlink:href="#DejaVuSans-73" transform="translate(775.236328 0)"/>
      <use xlink:href="#DejaVuSans-75" transform="translate(827.335938 0)"/>
      <use xlink:href="#DejaVuSans-6c" transform="translate(890.714844 0)"/>
      <use xlink:href="#DejaVuSans-74" transform="translate(918.498047 0)"/>
      <use xlink:href="#DejaVuSans-73" transform="translate(957.707031 0)"/>
     </g>
    </g>
    <g id="line2d_55">
     <path d="M 59.137685 69.334688 
L 69.137685 69.334688 
L 79.137685 69.334688 
" style="fill: none; stroke: #2ca02c; stroke-width: 1.5; stroke-linecap: square"/>
    </g>
    <g id="text_18">
     <!-- Multi Results -->
     <g transform="translate(87.137685 72.834688) scale(0.1 -0.1)">
      <defs>
       <path id="DejaVuSans-4d" d="M 628 4666 
L 1569 4666 
L 2759 1491 
L 3956 4666 
L 4897 4666 
L 4897 0 
L 4281 0 
L 4281 4097 
L 3078 897 
L 2444 897 
L 1241 4097 
L 1241 0 
L 628 0 
L 628 4666 
z
" transform="scale(0.015625)"/>
      </defs>
      <use xlink:href="#DejaVuSans-4d"/>
      <use xlink:href="#DejaVuSans-75" transform="translate(86.279297 0)"/>
      <use xlink:href="#DejaVuSans-6c" transform="translate(149.658203 0)"/>
      <use xlink:href="#DejaVuSans-74" transform="translate(177.441406 0)"/>
      <use xlink:href="#DejaVuSans-69" transform="translate(216.650391 0)"/>
      <use xlink:href="#DejaVuSans-20" transform="translate(244.433594 0)"/>
      <use xlink:href="#DejaVuSans-52" transform="translate(276.220703 0)"/>
      <use xlink:href="#DejaVuSans-65" transform="translate(341.203125 0)"/>
      <use xlink:href="#DejaVuSans-73" transform="translate(402.726562 0)"/>
      <use xlink:href="#DejaVuSans-75" transform="translate(454.826172 0)"/>
      <use xlink:href="#DejaVuSans-6c" transform="translate(518.205078 0)"/>
      <use xlink:href="#DejaVuSans-74" transform="translate(545.988281 0)"/>
      <use xlink:href="#DejaVuSans-73" transform="translate(585.197266 0)"/>
     </g>
    </g>
   </g>
  </g>
 </g>
 <defs>
  <clipPath id="pe6b03278a9">
   <rect x="50.137685" y="26.88" width="947.062315" height="219.16"/>
  </clipPath>
 </defs>
</svg>
