<?xml version="1.0" encoding="utf-8" standalone="no"?>
<!DOCTYPE svg PUBLIC "-//W3C//DTD SVG 1.1//EN"
  "http://www.w3.org/Graphics/SVG/1.1/DTD/svg11.dtd">
<svg xmlns:xlink="http://www.w3.org/1999/xlink" width="864pt" height="432pt" viewBox="0 0 864 432" xmlns="http://www.w3.org/2000/svg" version="1.1">
 <metadata>
  <rdf:RDF xmlns:dc="http://purl.org/dc/elements/1.1/" xmlns:cc="http://creativecommons.org/ns#" xmlns:rdf="http://www.w3.org/1999/02/22-rdf-syntax-ns#">
   <cc:Work>
    <dc:type rdf:resource="http://purl.org/dc/dcmitype/StillImage"/>
    <dc:date>2025-05-31T16:14:45.873786</dc:date>
    <dc:format>image/svg+xml</dc:format>
    <dc:creator>
     <cc:Agent>
      <dc:title>Matplotlib v3.10.1, https://matplotlib.org/</dc:title>
     </cc:Agent>
    </dc:creator>
   </cc:Work>
  </rdf:RDF>
 </metadata>
 <defs>
  <style type="text/css">*{stroke-linejoin: round; stroke-linecap: butt}</style>
 </defs>
 <g id="figure_1">
  <g id="patch_1">
   <path d="M 0 432 
L 864 432 
L 864 0 
L 0 0 
z
" style="fill: #ffffff"/>
  </g>
  <g id="axes_1">
   <g id="patch_2">
    <path d="M 50.137685 390.04 
L 853.2 390.04 
L 853.2 41.856 
L 50.137685 41.856 
z
" style="fill: #ffffff"/>
   </g>
   <g id="matplotlib.axis_1">
    <g id="xtick_1">
     <g id="line2d_1">
      <defs>
       <path id="m73fd51bcfe" d="M 0 0 
L 0 3.5 
" style="stroke: #000000; stroke-width: 0.8"/>
      </defs>
      <g>
       <use xlink:href="#m73fd51bcfe" x="86.640517" y="390.04" style="stroke: #000000; stroke-width: 0.8"/>
      </g>
     </g>
     <g id="text_1">
      <!-- 0 -->
      <g transform="translate(83.459267 404.638438) scale(0.1 -0.1)">
       <defs>
        <path id="DejaVuSans-30" d="M 2034 4250 
Q 1547 4250 1301 3770 
Q 1056 3291 1056 2328 
Q 1056 1369 1301 889 
Q 1547 409 2034 409 
Q 2525 409 2770 889 
Q 3016 1369 3016 2328 
Q 3016 3291 2770 3770 
Q 2525 4250 2034 4250 
z
M 2034 4750 
Q 2819 4750 3233 4129 
Q 3647 3509 3647 2328 
Q 3647 1150 3233 529 
Q 2819 -91 2034 -91 
Q 1250 -91 836 529 
Q 422 1150 422 2328 
Q 422 3509 836 4129 
Q 1250 4750 2034 4750 
z
" transform="scale(0.015625)"/>
       </defs>
       <use xlink:href="#DejaVuSans-30"/>
      </g>
     </g>
    </g>
    <g id="xtick_2">
     <g id="line2d_2">
      <g>
       <use xlink:href="#m73fd51bcfe" x="232.65348" y="390.04" style="stroke: #000000; stroke-width: 0.8"/>
      </g>
     </g>
     <g id="text_2">
      <!-- 20 -->
      <g transform="translate(226.29098 404.638438) scale(0.1 -0.1)">
       <defs>
        <path id="DejaVuSans-32" d="M 1228 531 
L 3431 531 
L 3431 0 
L 469 0 
L 469 531 
Q 828 903 1448 1529 
Q 2069 2156 2228 2338 
Q 2531 2678 2651 2914 
Q 2772 3150 2772 3378 
Q 2772 3750 2511 3984 
Q 2250 4219 1831 4219 
Q 1534 4219 1204 4116 
Q 875 4013 500 3803 
L 500 4441 
Q 881 4594 1212 4672 
Q 1544 4750 1819 4750 
Q 2544 4750 2975 4387 
Q 3406 4025 3406 3419 
Q 3406 3131 3298 2873 
Q 3191 2616 2906 2266 
Q 2828 2175 2409 1742 
Q 1991 1309 1228 531 
z
" transform="scale(0.015625)"/>
       </defs>
       <use xlink:href="#DejaVuSans-32"/>
       <use xlink:href="#DejaVuSans-30" transform="translate(63.623047 0)"/>
      </g>
     </g>
    </g>
    <g id="xtick_3">
     <g id="line2d_3">
      <g>
       <use xlink:href="#m73fd51bcfe" x="378.666443" y="390.04" style="stroke: #000000; stroke-width: 0.8"/>
      </g>
     </g>
     <g id="text_3">
      <!-- 40 -->
      <g transform="translate(372.303943 404.638438) scale(0.1 -0.1)">
       <defs>
        <path id="DejaVuSans-34" d="M 2419 4116 
L 825 1625 
L 2419 1625 
L 2419 4116 
z
M 2253 4666 
L 3047 4666 
L 3047 1625 
L 3713 1625 
L 3713 1100 
L 3047 1100 
L 3047 0 
L 2419 0 
L 2419 1100 
L 313 1100 
L 313 1709 
L 2253 4666 
z
" transform="scale(0.015625)"/>
       </defs>
       <use xlink:href="#DejaVuSans-34"/>
       <use xlink:href="#DejaVuSans-30" transform="translate(63.623047 0)"/>
      </g>
     </g>
    </g>
    <g id="xtick_4">
     <g id="line2d_4">
      <g>
       <use xlink:href="#m73fd51bcfe" x="524.679406" y="390.04" style="stroke: #000000; stroke-width: 0.8"/>
      </g>
     </g>
     <g id="text_4">
      <!-- 60 -->
      <g transform="translate(518.316906 404.638438) scale(0.1 -0.1)">
       <defs>
        <path id="DejaVuSans-36" d="M 2113 2584 
Q 1688 2584 1439 2293 
Q 1191 2003 1191 1497 
Q 1191 994 1439 701 
Q 1688 409 2113 409 
Q 2538 409 2786 701 
Q 3034 994 3034 1497 
Q 3034 2003 2786 2293 
Q 2538 2584 2113 2584 
z
M 3366 4563 
L 3366 3988 
Q 3128 4100 2886 4159 
Q 2644 4219 2406 4219 
Q 1781 4219 1451 3797 
Q 1122 3375 1075 2522 
Q 1259 2794 1537 2939 
Q 1816 3084 2150 3084 
Q 2853 3084 3261 2657 
Q 3669 2231 3669 1497 
Q 3669 778 3244 343 
Q 2819 -91 2113 -91 
Q 1303 -91 875 529 
Q 447 1150 447 2328 
Q 447 3434 972 4092 
Q 1497 4750 2381 4750 
Q 2619 4750 2861 4703 
Q 3103 4656 3366 4563 
z
" transform="scale(0.015625)"/>
       </defs>
       <use xlink:href="#DejaVuSans-36"/>
       <use xlink:href="#DejaVuSans-30" transform="translate(63.623047 0)"/>
      </g>
     </g>
    </g>
    <g id="xtick_5">
     <g id="line2d_5">
      <g>
       <use xlink:href="#m73fd51bcfe" x="670.692369" y="390.04" style="stroke: #000000; stroke-width: 0.8"/>
      </g>
     </g>
     <g id="text_5">
      <!-- 80 -->
      <g transform="translate(664.329869 404.638438) scale(0.1 -0.1)">
       <defs>
        <path id="DejaVuSans-38" d="M 2034 2216 
Q 1584 2216 1326 1975 
Q 1069 1734 1069 1313 
Q 1069 891 1326 650 
Q 1584 409 2034 409 
Q 2484 409 2743 651 
Q 3003 894 3003 1313 
Q 3003 1734 2745 1975 
Q 2488 2216 2034 2216 
z
M 1403 2484 
Q 997 2584 770 2862 
Q 544 3141 544 3541 
Q 544 4100 942 4425 
Q 1341 4750 2034 4750 
Q 2731 4750 3128 4425 
Q 3525 4100 3525 3541 
Q 3525 3141 3298 2862 
Q 3072 2584 2669 2484 
Q 3125 2378 3379 2068 
Q 3634 1759 3634 1313 
Q 3634 634 3220 271 
Q 2806 -91 2034 -91 
Q 1263 -91 848 271 
Q 434 634 434 1313 
Q 434 1759 690 2068 
Q 947 2378 1403 2484 
z
M 1172 3481 
Q 1172 3119 1398 2916 
Q 1625 2713 2034 2713 
Q 2441 2713 2670 2916 
Q 2900 3119 2900 3481 
Q 2900 3844 2670 4047 
Q 2441 4250 2034 4250 
Q 1625 4250 1398 4047 
Q 1172 3844 1172 3481 
z
" transform="scale(0.015625)"/>
       </defs>
       <use xlink:href="#DejaVuSans-38"/>
       <use xlink:href="#DejaVuSans-30" transform="translate(63.623047 0)"/>
      </g>
     </g>
    </g>
    <g id="xtick_6">
     <g id="line2d_6">
      <g>
       <use xlink:href="#m73fd51bcfe" x="816.705332" y="390.04" style="stroke: #000000; stroke-width: 0.8"/>
      </g>
     </g>
     <g id="text_6">
      <!-- 100 -->
      <g transform="translate(807.161582 404.638438) scale(0.1 -0.1)">
       <defs>
        <path id="DejaVuSans-31" d="M 794 531 
L 1825 531 
L 1825 4091 
L 703 3866 
L 703 4441 
L 1819 4666 
L 2450 4666 
L 2450 531 
L 3481 531 
L 3481 0 
L 794 0 
L 794 531 
z
" transform="scale(0.015625)"/>
       </defs>
       <use xlink:href="#DejaVuSans-31"/>
       <use xlink:href="#DejaVuSans-30" transform="translate(63.623047 0)"/>
       <use xlink:href="#DejaVuSans-30" transform="translate(127.246094 0)"/>
      </g>
     </g>
    </g>
    <g id="text_7">
     <!-- Percentile (%) -->
     <g transform="translate(416.764936 418.316562) scale(0.1 -0.1)">
      <defs>
       <path id="DejaVuSans-50" d="M 1259 4147 
L 1259 2394 
L 2053 2394 
Q 2494 2394 2734 2622 
Q 2975 2850 2975 3272 
Q 2975 3691 2734 3919 
Q 2494 4147 2053 4147 
L 1259 4147 
z
M 628 4666 
L 2053 4666 
Q 2838 4666 3239 4311 
Q 3641 3956 3641 3272 
Q 3641 2581 3239 2228 
Q 2838 1875 2053 1875 
L 1259 1875 
L 1259 0 
L 628 0 
L 628 4666 
z
" transform="scale(0.015625)"/>
       <path id="DejaVuSans-65" d="M 3597 1894 
L 3597 1613 
L 953 1613 
Q 991 1019 1311 708 
Q 1631 397 2203 397 
Q 2534 397 2845 478 
Q 3156 559 3463 722 
L 3463 178 
Q 3153 47 2828 -22 
Q 2503 -91 2169 -91 
Q 1331 -91 842 396 
Q 353 884 353 1716 
Q 353 2575 817 3079 
Q 1281 3584 2069 3584 
Q 2775 3584 3186 3129 
Q 3597 2675 3597 1894 
z
M 3022 2063 
Q 3016 2534 2758 2815 
Q 2500 3097 2075 3097 
Q 1594 3097 1305 2825 
Q 1016 2553 972 2059 
L 3022 2063 
z
" transform="scale(0.015625)"/>
       <path id="DejaVuSans-72" d="M 2631 2963 
Q 2534 3019 2420 3045 
Q 2306 3072 2169 3072 
Q 1681 3072 1420 2755 
Q 1159 2438 1159 1844 
L 1159 0 
L 581 0 
L 581 3500 
L 1159 3500 
L 1159 2956 
Q 1341 3275 1631 3429 
Q 1922 3584 2338 3584 
Q 2397 3584 2469 3576 
Q 2541 3569 2628 3553 
L 2631 2963 
z
" transform="scale(0.015625)"/>
       <path id="DejaVuSans-63" d="M 3122 3366 
L 3122 2828 
Q 2878 2963 2633 3030 
Q 2388 3097 2138 3097 
Q 1578 3097 1268 2742 
Q 959 2388 959 1747 
Q 959 1106 1268 751 
Q 1578 397 2138 397 
Q 2388 397 2633 464 
Q 2878 531 3122 666 
L 3122 134 
Q 2881 22 2623 -34 
Q 2366 -91 2075 -91 
Q 1284 -91 818 406 
Q 353 903 353 1747 
Q 353 2603 823 3093 
Q 1294 3584 2113 3584 
Q 2378 3584 2631 3529 
Q 2884 3475 3122 3366 
z
" transform="scale(0.015625)"/>
       <path id="DejaVuSans-6e" d="M 3513 2113 
L 3513 0 
L 2938 0 
L 2938 2094 
Q 2938 2591 2744 2837 
Q 2550 3084 2163 3084 
Q 1697 3084 1428 2787 
Q 1159 2491 1159 1978 
L 1159 0 
L 581 0 
L 581 3500 
L 1159 3500 
L 1159 2956 
Q 1366 3272 1645 3428 
Q 1925 3584 2291 3584 
Q 2894 3584 3203 3211 
Q 3513 2838 3513 2113 
z
" transform="scale(0.015625)"/>
       <path id="DejaVuSans-74" d="M 1172 4494 
L 1172 3500 
L 2356 3500 
L 2356 3053 
L 1172 3053 
L 1172 1153 
Q 1172 725 1289 603 
Q 1406 481 1766 481 
L 2356 481 
L 2356 0 
L 1766 0 
Q 1100 0 847 248 
Q 594 497 594 1153 
L 594 3053 
L 172 3053 
L 172 3500 
L 594 3500 
L 594 4494 
L 1172 4494 
z
" transform="scale(0.015625)"/>
       <path id="DejaVuSans-69" d="M 603 3500 
L 1178 3500 
L 1178 0 
L 603 0 
L 603 3500 
z
M 603 4863 
L 1178 4863 
L 1178 4134 
L 603 4134 
L 603 4863 
z
" transform="scale(0.015625)"/>
       <path id="DejaVuSans-6c" d="M 603 4863 
L 1178 4863 
L 1178 0 
L 603 0 
L 603 4863 
z
" transform="scale(0.015625)"/>
       <path id="DejaVuSans-20" transform="scale(0.015625)"/>
       <path id="DejaVuSans-28" d="M 1984 4856 
Q 1566 4138 1362 3434 
Q 1159 2731 1159 2009 
Q 1159 1288 1364 580 
Q 1569 -128 1984 -844 
L 1484 -844 
Q 1016 -109 783 600 
Q 550 1309 550 2009 
Q 550 2706 781 3412 
Q 1013 4119 1484 4856 
L 1984 4856 
z
" transform="scale(0.015625)"/>
       <path id="DejaVuSans-25" d="M 4653 2053 
Q 4381 2053 4226 1822 
Q 4072 1591 4072 1178 
Q 4072 772 4226 539 
Q 4381 306 4653 306 
Q 4919 306 5073 539 
Q 5228 772 5228 1178 
Q 5228 1588 5073 1820 
Q 4919 2053 4653 2053 
z
M 4653 2450 
Q 5147 2450 5437 2106 
Q 5728 1763 5728 1178 
Q 5728 594 5436 251 
Q 5144 -91 4653 -91 
Q 4153 -91 3862 251 
Q 3572 594 3572 1178 
Q 3572 1766 3864 2108 
Q 4156 2450 4653 2450 
z
M 1428 4353 
Q 1159 4353 1004 4120 
Q 850 3888 850 3481 
Q 850 3069 1003 2837 
Q 1156 2606 1428 2606 
Q 1700 2606 1854 2837 
Q 2009 3069 2009 3481 
Q 2009 3884 1853 4118 
Q 1697 4353 1428 4353 
z
M 4250 4750 
L 4750 4750 
L 1831 -91 
L 1331 -91 
L 4250 4750 
z
M 1428 4750 
Q 1922 4750 2215 4408 
Q 2509 4066 2509 3481 
Q 2509 2891 2217 2550 
Q 1925 2209 1428 2209 
Q 931 2209 642 2551 
Q 353 2894 353 3481 
Q 353 4063 643 4406 
Q 934 4750 1428 4750 
z
" transform="scale(0.015625)"/>
       <path id="DejaVuSans-29" d="M 513 4856 
L 1013 4856 
Q 1481 4119 1714 3412 
Q 1947 2706 1947 2009 
Q 1947 1309 1714 600 
Q 1481 -109 1013 -844 
L 513 -844 
Q 928 -128 1133 580 
Q 1338 1288 1338 2009 
Q 1338 2731 1133 3434 
Q 928 4138 513 4856 
z
" transform="scale(0.015625)"/>
      </defs>
      <use xlink:href="#DejaVuSans-50"/>
      <use xlink:href="#DejaVuSans-65" transform="translate(56.677734 0)"/>
      <use xlink:href="#DejaVuSans-72" transform="translate(118.201172 0)"/>
      <use xlink:href="#DejaVuSans-63" transform="translate(157.064453 0)"/>
      <use xlink:href="#DejaVuSans-65" transform="translate(212.044922 0)"/>
      <use xlink:href="#DejaVuSans-6e" transform="translate(273.568359 0)"/>
      <use xlink:href="#DejaVuSans-74" transform="translate(336.947266 0)"/>
      <use xlink:href="#DejaVuSans-69" transform="translate(376.15625 0)"/>
      <use xlink:href="#DejaVuSans-6c" transform="translate(403.939453 0)"/>
      <use xlink:href="#DejaVuSans-65" transform="translate(431.722656 0)"/>
      <use xlink:href="#DejaVuSans-20" transform="translate(493.246094 0)"/>
      <use xlink:href="#DejaVuSans-28" transform="translate(525.033203 0)"/>
      <use xlink:href="#DejaVuSans-25" transform="translate(564.046875 0)"/>
      <use xlink:href="#DejaVuSans-29" transform="translate(659.066406 0)"/>
     </g>
    </g>
   </g>
   <g id="matplotlib.axis_2">
    <g id="ytick_1">
     <g id="line2d_7">
      <defs>
       <path id="me60e4207c2" d="M 0 0 
L -3.5 0 
" style="stroke: #000000; stroke-width: 0.8"/>
      </defs>
      <g>
       <use xlink:href="#me60e4207c2" x="50.137685" y="314.47538" style="stroke: #000000; stroke-width: 0.8"/>
      </g>
     </g>
     <g id="text_8">
      <!-- $\mathdefault{10^{1}}$ -->
      <g transform="translate(25.537685 318.274598) scale(0.1 -0.1)">
       <use xlink:href="#DejaVuSans-31" transform="translate(0 0.684375)"/>
       <use xlink:href="#DejaVuSans-30" transform="translate(63.623047 0.684375)"/>
       <use xlink:href="#DejaVuSans-31" transform="translate(128.203125 38.965625) scale(0.7)"/>
      </g>
     </g>
    </g>
    <g id="ytick_2">
     <g id="line2d_8">
      <g>
       <use xlink:href="#me60e4207c2" x="50.137685" y="228.119357" style="stroke: #000000; stroke-width: 0.8"/>
      </g>
     </g>
     <g id="text_9">
      <!-- $\mathdefault{10^{2}}$ -->
      <g transform="translate(25.537685 231.918575) scale(0.1 -0.1)">
       <use xlink:href="#DejaVuSans-31" transform="translate(0 0.765625)"/>
       <use xlink:href="#DejaVuSans-30" transform="translate(63.623047 0.765625)"/>
       <use xlink:href="#DejaVuSans-32" transform="translate(128.203125 39.046875) scale(0.7)"/>
      </g>
     </g>
    </g>
    <g id="ytick_3">
     <g id="line2d_9">
      <g>
       <use xlink:href="#me60e4207c2" x="50.137685" y="141.763334" style="stroke: #000000; stroke-width: 0.8"/>
      </g>
     </g>
     <g id="text_10">
      <!-- $\mathdefault{10^{3}}$ -->
      <g transform="translate(25.537685 145.562552) scale(0.1 -0.1)">
       <defs>
        <path id="DejaVuSans-33" d="M 2597 2516 
Q 3050 2419 3304 2112 
Q 3559 1806 3559 1356 
Q 3559 666 3084 287 
Q 2609 -91 1734 -91 
Q 1441 -91 1130 -33 
Q 819 25 488 141 
L 488 750 
Q 750 597 1062 519 
Q 1375 441 1716 441 
Q 2309 441 2620 675 
Q 2931 909 2931 1356 
Q 2931 1769 2642 2001 
Q 2353 2234 1838 2234 
L 1294 2234 
L 1294 2753 
L 1863 2753 
Q 2328 2753 2575 2939 
Q 2822 3125 2822 3475 
Q 2822 3834 2567 4026 
Q 2313 4219 1838 4219 
Q 1578 4219 1281 4162 
Q 984 4106 628 3988 
L 628 4550 
Q 988 4650 1302 4700 
Q 1616 4750 1894 4750 
Q 2613 4750 3031 4423 
Q 3450 4097 3450 3541 
Q 3450 3153 3228 2886 
Q 3006 2619 2597 2516 
z
" transform="scale(0.015625)"/>
       </defs>
       <use xlink:href="#DejaVuSans-31" transform="translate(0 0.765625)"/>
       <use xlink:href="#DejaVuSans-30" transform="translate(63.623047 0.765625)"/>
       <use xlink:href="#DejaVuSans-33" transform="translate(128.203125 39.046875) scale(0.7)"/>
      </g>
     </g>
    </g>
    <g id="ytick_4">
     <g id="line2d_10">
      <g>
       <use xlink:href="#me60e4207c2" x="50.137685" y="55.407311" style="stroke: #000000; stroke-width: 0.8"/>
      </g>
     </g>
     <g id="text_11">
      <!-- $\mathdefault{10^{4}}$ -->
      <g transform="translate(25.537685 59.20653) scale(0.1 -0.1)">
       <use xlink:href="#DejaVuSans-31" transform="translate(0 0.684375)"/>
       <use xlink:href="#DejaVuSans-30" transform="translate(63.623047 0.684375)"/>
       <use xlink:href="#DejaVuSans-34" transform="translate(128.203125 38.965625) scale(0.7)"/>
      </g>
     </g>
    </g>
    <g id="ytick_5">
     <g id="line2d_11">
      <defs>
       <path id="mf606ad4f4c" d="M 0 0 
L -2 0 
" style="stroke: #000000; stroke-width: 0.6"/>
      </defs>
      <g>
       <use xlink:href="#mf606ad4f4c" x="50.137685" y="374.835649" style="stroke: #000000; stroke-width: 0.6"/>
      </g>
     </g>
    </g>
    <g id="ytick_6">
     <g id="line2d_12">
      <g>
       <use xlink:href="#mf606ad4f4c" x="50.137685" y="359.629109" style="stroke: #000000; stroke-width: 0.6"/>
      </g>
     </g>
    </g>
    <g id="ytick_7">
     <g id="line2d_13">
      <g>
       <use xlink:href="#mf606ad4f4c" x="50.137685" y="348.839896" style="stroke: #000000; stroke-width: 0.6"/>
      </g>
     </g>
    </g>
    <g id="ytick_8">
     <g id="line2d_14">
      <g>
       <use xlink:href="#mf606ad4f4c" x="50.137685" y="340.471133" style="stroke: #000000; stroke-width: 0.6"/>
      </g>
     </g>
    </g>
    <g id="ytick_9">
     <g id="line2d_15">
      <g>
       <use xlink:href="#mf606ad4f4c" x="50.137685" y="333.633355" style="stroke: #000000; stroke-width: 0.6"/>
      </g>
     </g>
    </g>
    <g id="ytick_10">
     <g id="line2d_16">
      <g>
       <use xlink:href="#mf606ad4f4c" x="50.137685" y="327.852097" style="stroke: #000000; stroke-width: 0.6"/>
      </g>
     </g>
    </g>
    <g id="ytick_11">
     <g id="line2d_17">
      <g>
       <use xlink:href="#mf606ad4f4c" x="50.137685" y="322.844143" style="stroke: #000000; stroke-width: 0.6"/>
      </g>
     </g>
    </g>
    <g id="ytick_12">
     <g id="line2d_18">
      <g>
       <use xlink:href="#mf606ad4f4c" x="50.137685" y="318.426815" style="stroke: #000000; stroke-width: 0.6"/>
      </g>
     </g>
    </g>
    <g id="ytick_13">
     <g id="line2d_19">
      <g>
       <use xlink:href="#mf606ad4f4c" x="50.137685" y="288.479626" style="stroke: #000000; stroke-width: 0.6"/>
      </g>
     </g>
    </g>
    <g id="ytick_14">
     <g id="line2d_20">
      <g>
       <use xlink:href="#mf606ad4f4c" x="50.137685" y="273.273086" style="stroke: #000000; stroke-width: 0.6"/>
      </g>
     </g>
    </g>
    <g id="ytick_15">
     <g id="line2d_21">
      <g>
       <use xlink:href="#mf606ad4f4c" x="50.137685" y="262.483873" style="stroke: #000000; stroke-width: 0.6"/>
      </g>
     </g>
    </g>
    <g id="ytick_16">
     <g id="line2d_22">
      <g>
       <use xlink:href="#mf606ad4f4c" x="50.137685" y="254.11511" style="stroke: #000000; stroke-width: 0.6"/>
      </g>
     </g>
    </g>
    <g id="ytick_17">
     <g id="line2d_23">
      <g>
       <use xlink:href="#mf606ad4f4c" x="50.137685" y="247.277332" style="stroke: #000000; stroke-width: 0.6"/>
      </g>
     </g>
    </g>
    <g id="ytick_18">
     <g id="line2d_24">
      <g>
       <use xlink:href="#mf606ad4f4c" x="50.137685" y="241.496074" style="stroke: #000000; stroke-width: 0.6"/>
      </g>
     </g>
    </g>
    <g id="ytick_19">
     <g id="line2d_25">
      <g>
       <use xlink:href="#mf606ad4f4c" x="50.137685" y="236.48812" style="stroke: #000000; stroke-width: 0.6"/>
      </g>
     </g>
    </g>
    <g id="ytick_20">
     <g id="line2d_26">
      <g>
       <use xlink:href="#mf606ad4f4c" x="50.137685" y="232.070792" style="stroke: #000000; stroke-width: 0.6"/>
      </g>
     </g>
    </g>
    <g id="ytick_21">
     <g id="line2d_27">
      <g>
       <use xlink:href="#mf606ad4f4c" x="50.137685" y="202.123604" style="stroke: #000000; stroke-width: 0.6"/>
      </g>
     </g>
    </g>
    <g id="ytick_22">
     <g id="line2d_28">
      <g>
       <use xlink:href="#mf606ad4f4c" x="50.137685" y="186.917063" style="stroke: #000000; stroke-width: 0.6"/>
      </g>
     </g>
    </g>
    <g id="ytick_23">
     <g id="line2d_29">
      <g>
       <use xlink:href="#mf606ad4f4c" x="50.137685" y="176.12785" style="stroke: #000000; stroke-width: 0.6"/>
      </g>
     </g>
    </g>
    <g id="ytick_24">
     <g id="line2d_30">
      <g>
       <use xlink:href="#mf606ad4f4c" x="50.137685" y="167.759087" style="stroke: #000000; stroke-width: 0.6"/>
      </g>
     </g>
    </g>
    <g id="ytick_25">
     <g id="line2d_31">
      <g>
       <use xlink:href="#mf606ad4f4c" x="50.137685" y="160.921309" style="stroke: #000000; stroke-width: 0.6"/>
      </g>
     </g>
    </g>
    <g id="ytick_26">
     <g id="line2d_32">
      <g>
       <use xlink:href="#mf606ad4f4c" x="50.137685" y="155.140051" style="stroke: #000000; stroke-width: 0.6"/>
      </g>
     </g>
    </g>
    <g id="ytick_27">
     <g id="line2d_33">
      <g>
       <use xlink:href="#mf606ad4f4c" x="50.137685" y="150.132097" style="stroke: #000000; stroke-width: 0.6"/>
      </g>
     </g>
    </g>
    <g id="ytick_28">
     <g id="line2d_34">
      <g>
       <use xlink:href="#mf606ad4f4c" x="50.137685" y="145.714769" style="stroke: #000000; stroke-width: 0.6"/>
      </g>
     </g>
    </g>
    <g id="ytick_29">
     <g id="line2d_35">
      <g>
       <use xlink:href="#mf606ad4f4c" x="50.137685" y="115.767581" style="stroke: #000000; stroke-width: 0.6"/>
      </g>
     </g>
    </g>
    <g id="ytick_30">
     <g id="line2d_36">
      <g>
       <use xlink:href="#mf606ad4f4c" x="50.137685" y="100.56104" style="stroke: #000000; stroke-width: 0.6"/>
      </g>
     </g>
    </g>
    <g id="ytick_31">
     <g id="line2d_37">
      <g>
       <use xlink:href="#mf606ad4f4c" x="50.137685" y="89.771827" style="stroke: #000000; stroke-width: 0.6"/>
      </g>
     </g>
    </g>
    <g id="ytick_32">
     <g id="line2d_38">
      <g>
       <use xlink:href="#mf606ad4f4c" x="50.137685" y="81.403064" style="stroke: #000000; stroke-width: 0.6"/>
      </g>
     </g>
    </g>
    <g id="ytick_33">
     <g id="line2d_39">
      <g>
       <use xlink:href="#mf606ad4f4c" x="50.137685" y="74.565286" style="stroke: #000000; stroke-width: 0.6"/>
      </g>
     </g>
    </g>
    <g id="ytick_34">
     <g id="line2d_40">
      <g>
       <use xlink:href="#mf606ad4f4c" x="50.137685" y="68.784028" style="stroke: #000000; stroke-width: 0.6"/>
      </g>
     </g>
    </g>
    <g id="ytick_35">
     <g id="line2d_41">
      <g>
       <use xlink:href="#mf606ad4f4c" x="50.137685" y="63.776074" style="stroke: #000000; stroke-width: 0.6"/>
      </g>
     </g>
    </g>
    <g id="ytick_36">
     <g id="line2d_42">
      <g>
       <use xlink:href="#mf606ad4f4c" x="50.137685" y="59.358746" style="stroke: #000000; stroke-width: 0.6"/>
      </g>
     </g>
    </g>
    <g id="text_12">
     <!-- Duration (ms) -->
     <g transform="translate(19.457997 250.62925) rotate(-90) scale(0.1 -0.1)">
      <defs>
       <path id="DejaVuSans-44" d="M 1259 4147 
L 1259 519 
L 2022 519 
Q 2988 519 3436 956 
Q 3884 1394 3884 2338 
Q 3884 3275 3436 3711 
Q 2988 4147 2022 4147 
L 1259 4147 
z
M 628 4666 
L 1925 4666 
Q 3281 4666 3915 4102 
Q 4550 3538 4550 2338 
Q 4550 1131 3912 565 
Q 3275 0 1925 0 
L 628 0 
L 628 4666 
z
" transform="scale(0.015625)"/>
       <path id="DejaVuSans-75" d="M 544 1381 
L 544 3500 
L 1119 3500 
L 1119 1403 
Q 1119 906 1312 657 
Q 1506 409 1894 409 
Q 2359 409 2629 706 
Q 2900 1003 2900 1516 
L 2900 3500 
L 3475 3500 
L 3475 0 
L 2900 0 
L 2900 538 
Q 2691 219 2414 64 
Q 2138 -91 1772 -91 
Q 1169 -91 856 284 
Q 544 659 544 1381 
z
M 1991 3584 
L 1991 3584 
z
" transform="scale(0.015625)"/>
       <path id="DejaVuSans-61" d="M 2194 1759 
Q 1497 1759 1228 1600 
Q 959 1441 959 1056 
Q 959 750 1161 570 
Q 1363 391 1709 391 
Q 2188 391 2477 730 
Q 2766 1069 2766 1631 
L 2766 1759 
L 2194 1759 
z
M 3341 1997 
L 3341 0 
L 2766 0 
L 2766 531 
Q 2569 213 2275 61 
Q 1981 -91 1556 -91 
Q 1019 -91 701 211 
Q 384 513 384 1019 
Q 384 1609 779 1909 
Q 1175 2209 1959 2209 
L 2766 2209 
L 2766 2266 
Q 2766 2663 2505 2880 
Q 2244 3097 1772 3097 
Q 1472 3097 1187 3025 
Q 903 2953 641 2809 
L 641 3341 
Q 956 3463 1253 3523 
Q 1550 3584 1831 3584 
Q 2591 3584 2966 3190 
Q 3341 2797 3341 1997 
z
" transform="scale(0.015625)"/>
       <path id="DejaVuSans-6f" d="M 1959 3097 
Q 1497 3097 1228 2736 
Q 959 2375 959 1747 
Q 959 1119 1226 758 
Q 1494 397 1959 397 
Q 2419 397 2687 759 
Q 2956 1122 2956 1747 
Q 2956 2369 2687 2733 
Q 2419 3097 1959 3097 
z
M 1959 3584 
Q 2709 3584 3137 3096 
Q 3566 2609 3566 1747 
Q 3566 888 3137 398 
Q 2709 -91 1959 -91 
Q 1206 -91 779 398 
Q 353 888 353 1747 
Q 353 2609 779 3096 
Q 1206 3584 1959 3584 
z
" transform="scale(0.015625)"/>
       <path id="DejaVuSans-6d" d="M 3328 2828 
Q 3544 3216 3844 3400 
Q 4144 3584 4550 3584 
Q 5097 3584 5394 3201 
Q 5691 2819 5691 2113 
L 5691 0 
L 5113 0 
L 5113 2094 
Q 5113 2597 4934 2840 
Q 4756 3084 4391 3084 
Q 3944 3084 3684 2787 
Q 3425 2491 3425 1978 
L 3425 0 
L 2847 0 
L 2847 2094 
Q 2847 2600 2669 2842 
Q 2491 3084 2119 3084 
Q 1678 3084 1418 2786 
Q 1159 2488 1159 1978 
L 1159 0 
L 581 0 
L 581 3500 
L 1159 3500 
L 1159 2956 
Q 1356 3278 1631 3431 
Q 1906 3584 2284 3584 
Q 2666 3584 2933 3390 
Q 3200 3197 3328 2828 
z
" transform="scale(0.015625)"/>
       <path id="DejaVuSans-73" d="M 2834 3397 
L 2834 2853 
Q 2591 2978 2328 3040 
Q 2066 3103 1784 3103 
Q 1356 3103 1142 2972 
Q 928 2841 928 2578 
Q 928 2378 1081 2264 
Q 1234 2150 1697 2047 
L 1894 2003 
Q 2506 1872 2764 1633 
Q 3022 1394 3022 966 
Q 3022 478 2636 193 
Q 2250 -91 1575 -91 
Q 1294 -91 989 -36 
Q 684 19 347 128 
L 347 722 
Q 666 556 975 473 
Q 1284 391 1588 391 
Q 1994 391 2212 530 
Q 2431 669 2431 922 
Q 2431 1156 2273 1281 
Q 2116 1406 1581 1522 
L 1381 1569 
Q 847 1681 609 1914 
Q 372 2147 372 2553 
Q 372 3047 722 3315 
Q 1072 3584 1716 3584 
Q 2034 3584 2315 3537 
Q 2597 3491 2834 3397 
z
" transform="scale(0.015625)"/>
      </defs>
      <use xlink:href="#DejaVuSans-44"/>
      <use xlink:href="#DejaVuSans-75" transform="translate(77.001953 0)"/>
      <use xlink:href="#DejaVuSans-72" transform="translate(140.380859 0)"/>
      <use xlink:href="#DejaVuSans-61" transform="translate(181.494141 0)"/>
      <use xlink:href="#DejaVuSans-74" transform="translate(242.773438 0)"/>
      <use xlink:href="#DejaVuSans-69" transform="translate(281.982422 0)"/>
      <use xlink:href="#DejaVuSans-6f" transform="translate(309.765625 0)"/>
      <use xlink:href="#DejaVuSans-6e" transform="translate(370.947266 0)"/>
      <use xlink:href="#DejaVuSans-20" transform="translate(434.326172 0)"/>
      <use xlink:href="#DejaVuSans-28" transform="translate(466.113281 0)"/>
      <use xlink:href="#DejaVuSans-6d" transform="translate(505.126953 0)"/>
      <use xlink:href="#DejaVuSans-73" transform="translate(602.539062 0)"/>
      <use xlink:href="#DejaVuSans-29" transform="translate(654.638672 0)"/>
     </g>
    </g>
   </g>
   <g id="line2d_43">
    <path d="M 86.640517 371.67604 
L 86.771157 370.869387 
L 86.795652 370.807659 
L 86.975282 370.28918 
L 87.130417 370.077538 
L 87.416192 369.571481 
L 87.808111 369.358735 
L 88.681766 368.92994 
L 91.572174 368.177618 
L 97.622435 367.219516 
L 99.998448 366.953029 
L 100.300553 366.920855 
L 103.917646 366.561591 
L 106.473289 366.365792 
L 110.172031 366.110898 
L 112.613365 365.960018 
L 128.804549 365.220031 
L 166.690123 364.051763 
L 177.059666 363.797931 
L 179.500999 363.737959 
L 184.440821 363.618595 
L 188.417173 363.519573 
L 193.77341 363.399393 
L 196.647488 363.330464 
L 201.489329 363.211754 
L 202.885543 363.17939 
L 209.923769 363.020985 
L 211.638418 362.985764 
L 232.818413 362.555596 
L 239.276924 362.420774 
L 245.310855 362.300032 
L 248.976937 362.224169 
L 254.635278 362.113673 
L 255.843698 362.088609 
L 275.186569 361.693615 
L 280.673446 361.582627 
L 288.64248 361.423755 
L 300.024483 361.203092 
L 304.588715 361.117393 
L 312.027025 360.971021 
L 314.484688 360.922452 
L 322.274093 360.774529 
L 330.855502 360.601123 
L 337.256857 360.480347 
L 339.657366 360.429919 
L 350.190209 360.220026 
L 366.144608 359.909219 
L 373.811538 359.762911 
L 377.72257 359.681714 
L 383.470726 359.570698 
L 418.131128 358.824063 
L 420.441821 358.768859 
L 426.296122 358.632037 
L 428.533331 358.576677 
L 473.661255 357.458906 
L 474.518579 357.434255 
L 483.557228 357.179828 
L 492.212122 356.932373 
L 496.204805 356.815993 
L 501.495721 356.667394 
L 547.374825 355.063757 
L 549.089474 354.994157 
L 561.467605 354.481046 
L 562.790335 354.421721 
L 564.905068 354.338663 
L 569.38765 354.144195 
L 596.438277 352.924372 
L 597.973296 352.85532 
L 600.243164 352.738842 
L 601.590388 352.659528 
L 604.423641 352.501848 
L 606.342415 352.414225 
L 609.788043 352.234684 
L 610.727017 352.18226 
L 613.160185 352.062466 
L 613.927695 352.01819 
L 622.035534 351.562743 
L 623.611378 351.466 
L 625.791432 351.341862 
L 633.172587 350.900341 
L 635.262825 350.761554 
L 637.050959 350.650742 
L 670.421292 348.247536 
L 670.886696 348.20412 
L 672.666665 348.049726 
L 674.577274 347.880554 
L 675.418268 347.768656 
L 676.022478 347.709366 
L 707.098447 344.344058 
L 707.702656 344.25934 
L 708.731446 344.125996 
L 710.429765 343.905519 
L 711.352409 343.787 
L 711.825979 343.714053 
L 712.764953 343.602096 
L 713.556957 343.50737 
L 714.512262 343.385423 
L 714.887851 343.344781 
L 715.908476 343.205598 
L 724.87364 341.845562 
L 725.535004 341.75345 
L 726.457649 341.619544 
L 728.417247 341.315587 
L 729.282737 341.178004 
L 730.736106 340.957557 
L 731.732235 340.829033 
L 732.44259 340.730422 
L 733.544864 340.576494 
L 734.083753 340.495188 
L 735.888217 340.21729 
L 736.647562 340.086291 
L 737.741671 339.917488 
L 738.452026 339.800187 
L 742.232418 339.161845 
L 743.040752 339.018814 
L 745.286126 338.646889 
L 745.939325 338.539131 
L 746.265925 338.479222 
L 747.31921 338.294658 
L 747.980574 338.177342 
L 748.201029 338.128195 
L 748.911383 338.006558 
L 749.237983 337.949744 
L 749.989163 337.825741 
L 750.217783 337.783804 
L 750.944467 337.65972 
L 751.834451 337.498526 
L 751.997751 337.455867 
L 759.142121 336.090553 
L 759.338081 336.045418 
L 760.366871 335.810245 
L 760.783285 335.712691 
L 761.75492 335.517514 
L 762.146839 335.437753 
L 773.153252 332.834545 
L 773.406367 332.781867 
L 773.798287 332.666035 
L 774.361671 332.508736 
L 775.47211 332.192824 
L 775.643575 332.128656 
L 776.41925 331.912774 
L 776.574385 331.857278 
L 777.741979 331.50806 
L 777.913444 331.442133 
L 778.362518 331.282576 
L 778.566643 331.205822 
L 779.342318 330.956257 
L 782.74712 329.707186 
L 782.902255 329.644679 
L 783.473805 329.413919 
L 783.69426 329.311748 
L 784.649564 328.923275 
L 784.845524 328.835095 
L 785.270104 328.658581 
L 785.433404 328.579273 
L 785.694684 328.450376 
L 786.372378 328.149133 
L 786.552008 328.079804 
L 787.082733 327.836729 
L 787.319517 327.679292 
L 787.907397 327.396873 
L 788.136017 327.264758 
L 793.786193 323.648978 
L 794.088298 323.439846 
L 794.382238 323.149729 
L 794.537373 323.03815 
L 795.296717 322.442028 
L 795.557997 322.224553 
L 795.704967 322.101292 
L 796.170371 321.786778 
L 797.068521 320.89335 
L 797.305306 320.676904 
L 797.460441 320.584788 
L 798.807665 319.256741 
L 798.938305 319.099227 
L 799.313894 318.800636 
L 799.452699 318.70067 
L 800.220209 317.893321 
L 800.456993 317.608675 
L 801.167348 316.761611 
L 801.338813 316.545236 
L 801.510278 316.389449 
L 801.649083 316.245527 
L 801.902198 316.049962 
L 802.114487 315.771577 
L 802.179807 315.648776 
L 802.326777 315.421878 
L 802.424757 315.318414 
L 804.327201 312.987543 
L 804.637471 312.455149 
L 805.053885 311.868008 
L 805.315165 311.388839 
L 805.380485 311.269149 
L 805.55195 310.942323 
L 806.02552 310.013124 
L 806.17249 309.718147 
L 806.531749 309.042255 
L 806.711379 308.701238 
L 806.964494 307.959274 
L 807.005319 307.883976 
L 807.242104 307.218419 
L 807.927963 305.500187 
L 808.066768 304.945381 
L 808.328048 303.72057 
L 808.475018 303.122336 
L 808.483183 303.121782 
L 808.638318 302.500886 
L 809.160878 300.630756 
L 809.201703 300.523925 
L 809.316012 300.288501 
L 809.511972 299.660041 
L 809.536467 299.561257 
L 809.993707 298.315666 
L 810.042697 298.164144 
L 810.393792 296.740742 
L 810.434617 296.648148 
L 810.606082 296.127723 
L 810.671402 295.930466 
L 810.802041 295.355675 
L 810.834701 295.254948 
L 811.030661 294.584202 
L 811.063321 294.521562 
L 811.234786 293.74033 
L 811.357261 293.4071 
L 811.512396 293.020053 
L 811.553221 292.969569 
L 811.700191 292.290741 
L 811.765511 292.199433 
L 812.132936 290.91887 
L 812.173761 290.802311 
L 812.239081 290.546151 
L 812.35339 290.226002 
L 812.541185 289.394933 
L 812.58201 289.296825 
L 812.786135 288.788219 
L 812.851455 288.527538 
L 813.02292 287.783889 
L 813.25154 286.950252 
L 813.65979 285.450268 
L 813.72511 285.056464 
L 814.108864 283.169872 
L 814.157854 283.054268 
L 814.215009 282.927975 
L 814.549774 281.218249 
L 814.729404 280.048462 
L 814.753899 279.847819 
L 815.578563 273.464671 
L 816.150113 266.339955 
L 816.305248 262.312023 
L 816.362403 260.879412 
L 816.517538 254.814934 
L 816.672673 247.250151 
L 816.697167 244.965707 
L 816.697167 244.965707 
" clip-path="url(#p8215362eb7)" style="fill: none; stroke: #1f77b4; stroke-width: 1.5; stroke-linecap: square"/>
   </g>
   <g id="line2d_44">
    <path d="M 86.640517 374.213455 
L 86.682712 373.628042 
L 86.90775 372.117392 
L 87.174982 371.448172 
L 88.483014 369.869531 
L 88.651793 369.740298 
L 89.073738 369.416823 
L 89.467555 369.272369 
L 91.900776 368.494273 
L 92.814992 368.305884 
L 94.094894 367.950631 
L 95.149759 367.760615 
L 95.402927 367.696368 
L 96.274948 367.515576 
L 96.921932 367.382047 
L 97.540786 367.257938 
L 122.126165 362.327158 
L 122.562176 362.233119 
L 123.532651 361.977606 
L 124.123376 361.865365 
L 124.854749 361.702928 
L 125.614251 361.529472 
L 126.373754 361.343727 
L 126.584727 361.309561 
L 129.664932 360.48875 
L 129.889969 360.431579 
L 130.480694 360.217359 
L 130.902639 360.082865 
L 131.36678 359.965208 
L 132.266931 359.747633 
L 132.548228 359.672914 
L 134.053169 359.203797 
L 134.207882 359.166635 
L 134.854866 358.979806 
L 135.248682 358.862136 
L 135.656563 358.749206 
L 140.171384 357.109709 
L 140.691784 356.816295 
L 141.05747 356.63108 
L 144.629945 355.042379 
L 144.798724 354.904852 
L 145.417577 354.625207 
L 145.755134 354.465814 
L 146.036431 354.348989 
L 146.289599 354.226661 
L 147.991447 353.422883 
L 148.188355 353.302414 
L 148.399328 353.157106 
L 151.592052 351.424582 
L 151.943674 351.195614 
L 152.267165 351.007344 
L 154.756646 348.345437 
L 155.234851 347.355048 
L 155.333305 347.252864 
L 156.036549 345.902775 
L 156.430365 344.274279 
L 156.641338 343.430589 
L 156.810116 343.079801 
L 156.96483 342.204073 
L 157.119543 341.162949 
L 157.372711 340.032437 
L 158.46977 330.398749 
L 158.751067 324.548908 
L 158.976105 321.356339 
L 159.538699 310.633734 
L 159.707478 305.861898 
L 160.874861 286.232922 
L 160.902991 286.137591 
L 161.943791 266.405891 
L 162.084439 259.387564 
L 162.112569 259.324173 
L 162.647034 248.895921 
L 162.675164 248.835702 
L 163.322147 239.700768 
L 163.392472 239.613776 
L 164.334817 236.900577 
L 164.391077 236.737345 
L 164.644244 235.925141 
L 164.714569 235.833288 
L 165.178709 234.585492 
L 166.908687 231.723707 
L 167.400957 231.255569 
L 168.019811 230.749519 
L 168.174525 230.638983 
L 168.905898 230.106354 
L 169.088741 230.036401 
L 169.6654 229.787978 
L 169.791984 229.675601 
L 170.24206 229.490924 
L 170.551487 229.372078 
L 171.015627 229.176881 
L 180.087463 227.08227 
L 180.776642 226.959408 
L 181.072004 226.905845 
L 183.167668 226.48495 
L 185.432111 226.03132 
L 186.599495 225.847416 
L 187.133959 225.784671 
L 188.06224 225.671437 
L 189.820348 225.374835 
L 190.340748 225.293139 
L 191.043991 225.176623 
L 191.198705 225.141006 
L 196.698066 223.491607 
L 198.737471 222.142538 
L 198.962509 221.945616 
L 199.271936 221.83839 
L 199.86266 221.409058 
L 200.762811 218.915994 
L 201.480119 217.881014 
L 201.648898 217.457525 
L 201.91613 217.183962 
L 202.774087 216.124013 
L 202.914735 215.596717 
L 203.055384 214.870663 
L 203.252292 213.60485 
L 203.435135 210.297461 
L 203.463265 210.248771 
L 203.927405 207.764622 
L 203.9696 207.729521 
L 204.124313 207.415641 
L 204.504065 206.951247 
L 204.588454 206.867093 
L 204.827556 206.356626 
L 204.996335 206.150525 
L 205.812097 205.451988 
L 207.851502 204.347402 
L 214.025976 202.367166 
L 214.855803 202.171741 
L 219.483143 201.431611 
L 220.80524 201.231912 
L 225.671683 200.791694 
L 227.668893 200.649036 
L 228.020515 200.613942 
L 231.030395 200.402486 
L 238.344124 199.953613 
L 242.085377 199.781608 
L 243.519993 199.703385 
L 247.458155 199.48127 
L 253.224748 199.159212 
L 257.064456 199.001107 
L 268.513254 198.260638 
L 275.911371 197.294566 
L 276.262993 197.16582 
L 276.811522 196.942626 
L 280.566841 195.215208 
L 281.030981 195.023257 
L 281.256019 194.868725 
L 281.818613 194.495378 
L 282.549986 194.249955 
L 283.407943 193.395575 
L 283.703305 192.346875 
L 284.139316 189.60748 
L 284.294029 189.387659 
L 284.476873 189.169022 
L 285.306699 188.509213 
L 286.164656 188.120876 
L 286.403759 188.008237 
L 286.656926 187.910383 
L 286.980418 187.755821 
L 287.135132 187.658223 
L 287.669596 187.487212 
L 287.936829 187.387798 
L 288.246256 187.268125 
L 288.400969 187.170055 
L 288.907304 186.938268 
L 289.104212 186.886154 
L 289.807455 186.756747 
L 290.34192 186.652417 
L 295.756892 185.781137 
L 296.657043 185.660361 
L 297.121184 185.615708 
L 301.62194 185.255954 
L 302.493961 185.19002 
L 304.800599 185.020982 
L 305.264739 184.990753 
L 307.838609 184.810151 
L 313.619267 184.460124 
L 316.150943 184.322108 
L 323.000531 184.047607 
L 326.333903 183.928301 
L 348.359478 183.129439 
L 349.315888 183.072054 
L 356.86872 182.567167 
L 361.777357 181.639326 
L 361.988329 181.534602 
L 362.311821 181.417881 
L 362.607183 181.290139 
L 363.999605 180.515247 
L 364.168383 180.408871 
L 364.745043 180.113554 
L 365.701453 179.048769 
L 366.01088 177.355306 
L 366.306242 176.907431 
L 367.529885 175.990712 
L 368.964501 175.559981 
L 369.906847 175.377635 
L 371.13049 175.251173 
L 372.072836 175.129004 
L 373.437128 175.00249 
L 373.73249 174.963991 
L 376.348554 174.607787 
L 376.587657 174.563377 
L 380.30078 174.230902 
L 381.974499 174.112303 
L 383.901385 173.967211 
L 385.139093 173.891147 
L 388.711568 173.721752 
L 389.457006 173.693651 
L 395.251729 173.452469 
L 399.007047 173.322406 
L 406.208257 173.08729 
L 411.327867 172.974938 
L 414.211164 172.895433 
L 418.599401 172.775487 
L 421.623346 172.693565 
L 436.883722 172.298216 
L 437.488511 172.260374 
L 442.186175 172.068596 
L 443.395753 171.978074 
L 444.77411 171.857791 
L 447.207331 171.603569 
L 447.854315 171.483277 
L 448.430974 171.358456 
L 452.144098 169.904787 
L 452.523849 169.663384 
L 452.664498 168.925781 
L 452.805146 168.687729 
L 452.847341 168.628317 
L 453.030184 168.166034 
L 453.269287 167.953301 
L 453.424 167.849983 
L 453.592779 167.617938 
L 453.874076 167.361964 
L 454.099114 167.224062 
L 454.380411 167.024562 
L 457.995081 166.333991 
L 461.314388 165.951136 
L 463.789804 165.730501 
L 466.068312 165.552109 
L 470.133057 165.311329 
L 474.352516 165.102211 
L 486.406103 164.67677 
L 500.808522 164.325188 
L 502.861992 164.276576 
L 510.17572 164.127033 
L 519.317881 163.928385 
L 522.158983 163.831506 
L 525.618939 163.698932 
L 527.362982 163.578142 
L 528.755404 163.462669 
L 531.062041 163.069152 
L 531.948127 162.885536 
L 532.426333 162.780106 
L 532.932668 162.657253 
L 533.903143 162.467233 
L 536.448883 161.843643 
L 536.983348 161.425768 
L 537.461553 161.071307 
L 537.686591 160.740459 
L 537.77098 160.645443 
L 537.925694 160.525406 
L 538.853975 159.832194 
L 540.035423 159.373314 
L 548.474341 158.645305 
L 552.890708 158.381405 
L 555.18328 158.240049 
L 559.880944 157.990616 
L 560.443539 157.962077 
L 564.662997 157.802541 
L 569.03717 157.655179 
L 570.921861 157.596001 
L 593.552225 156.993676 
L 599.234429 156.467451 
L 601.090991 155.927827 
L 601.555132 155.813916 
L 602.863164 155.417091 
L 603.608601 154.732023 
L 603.875834 154.146306 
L 603.932093 154.098667 
L 604.100872 153.792469 
L 604.677531 153.513764 
L 605.211996 153.39932 
L 605.83085 153.273208 
L 606.013693 153.251863 
L 607.560828 153.069041 
L 609.333001 152.891993 
L 611.302081 152.738833 
L 614.269767 152.481073 
L 615.957551 152.35791 
L 619.319053 152.150554 
L 619.980101 152.114693 
L 622.230479 152.000156 
L 623.524447 151.929783 
L 626.548392 151.815832 
L 635.859331 151.54109 
L 640.416347 151.419992 
L 641.893157 151.387285 
L 646.225135 151.27008 
L 650.894669 150.972432 
L 651.190031 150.917972 
L 652.062053 150.735849 
L 652.301155 150.665316 
L 652.596517 150.515404 
L 652.793425 150.463983 
L 653.679512 150.253183 
L 654.945349 149.434215 
L 654.973479 149.192851 
L 655.100063 148.826875 
L 655.423555 148.717909 
L 656.112733 148.434415 
L 656.815976 148.261196 
L 657.041014 148.20384 
L 657.673933 148.069732 
L 658.363111 147.992343 
L 659.783662 147.843986 
L 663.764018 147.515836 
L 665.817488 147.382684 
L 667.378688 147.294615 
L 695.620932 145.957191 
L 696.197591 145.819846 
L 696.591407 145.65041 
L 696.746121 145.582428 
L 696.914899 145.467341 
L 697.055548 145.362389 
L 697.435299 145.226421 
L 697.660337 145.021515 
L 697.87131 144.29357 
L 698.630812 143.934962 
L 698.771461 143.835547 
L 699.587223 143.405767 
L 700.374855 143.235851 
L 700.796801 143.200825 
L 702.681493 143.01385 
L 704.130173 142.895021 
L 704.580249 142.854147 
L 706.436811 142.676475 
L 707.322897 142.591377 
L 708.954421 142.398914 
L 709.840508 142.315664 
L 712.090886 142.183068 
L 720.487608 141.620632 
L 721.486214 141.28824 
L 721.82377 140.957038 
L 722.625468 139.764187 
L 723.863175 139.070505 
L 724.411705 138.957986 
L 725.339986 138.758519 
L 725.522829 138.675247 
L 725.888516 138.52278 
L 726.254202 138.417776 
L 730.543985 137.996364 
L 732.372417 137.879729 
L 733.567931 137.673294 
L 733.750774 137.544891 
L 734.17272 137.190571 
L 734.369628 137.010567 
L 734.425887 136.92726 
L 734.60873 136.200618 
L 735.044741 135.750021 
L 735.283844 135.438634 
L 735.565141 135.28323 
L 735.818309 135.186803 
L 736.029281 135.105734 
L 736.19806 134.985668 
L 736.451227 134.880758 
L 737.506092 134.61323 
L 739.601757 134.402564 
L 739.911184 134.354123 
L 740.473778 134.232863 
L 741.275475 133.897298 
L 741.500513 133.634817 
L 741.655226 133.363287 
L 741.78181 132.395766 
L 741.964653 132.281374 
L 742.203756 132.026198 
L 742.878869 131.486711 
L 743.708696 131.235631 
L 744.735431 131.099205 
L 745.016729 131.064501 
L 745.523064 130.924104 
L 745.804361 130.588048 
L 746.001269 130.467538 
L 746.226307 130.286746 
L 746.352891 129.355352 
L 746.395085 129.325065 
L 746.535734 128.928873 
L 746.704512 128.824338 
L 746.831096 128.686853 
L 746.943615 128.52882 
L 747.168653 128.398666 
L 748.026609 128.186136 
L 748.49075 128.096504 
L 749.44716 127.909924 
L 749.784717 127.715372 
L 749.869106 127.495926 
L 750.080079 127.272771 
L 750.136339 127.230542 
L 750.319182 126.067685 
L 750.530155 125.840024 
L 750.797387 125.711235 
L 751.50063 125.468202 
L 752.189808 125.350849 
L 752.696143 125.145239 
L 753.047765 124.130954 
L 753.174349 123.495477 
L 753.371257 123.289895 
L 753.497841 123.048642 
L 755.185624 122.577838 
L 755.396597 121.991724 
L 755.916997 120.795572 
L 756.184229 120.668633 
L 756.353008 120.547616 
L 756.971862 120.398425 
L 757.281289 120.316524 
L 757.618845 120.184239 
L 757.914207 119.817695 
L 758.223634 119.617002 
L 758.350218 119.240584 
L 758.828424 118.558043 
L 758.926878 118.434867 
L 759.067526 118.29473 
L 760.305234 118.05383 
L 760.600596 117.993442 
L 761.149126 117.872059 
L 761.331969 117.597535 
L 761.796109 117.407196 
L 762.26025 117.020229 
L 762.386834 116.5839 
L 762.977558 116.353403 
L 764.595017 115.762101 
L 764.77786 115.429832 
L 764.988833 115.326748 
L 765.143547 115.040146 
L 765.762401 114.210303 
L 766.184347 113.989062 
L 767.253276 113.725974 
L 767.534573 113.399798 
L 767.858065 112.506784 
L 768.476919 112.157128 
L 768.772281 112.027916 
L 768.997319 111.984437 
L 769.686497 111.777034 
L 770.052184 110.555791 
L 770.206897 110.417921 
L 770.431935 110.288338 
L 770.924205 110.109471 
L 771.121113 110.090497 
L 771.838421 109.903302 
L 771.97907 109.754291 
L 772.119719 109.63802 
L 772.49947 108.75854 
L 772.611989 108.648328 
L 772.808897 108.608638 
L 773.582464 108.447379 
L 774.848302 108.311155 
L 775.467156 108.172144 
L 775.523415 108.144851 
L 775.664064 107.895825 
L 775.818777 107.800475 
L 776.198529 107.08524 
L 776.704864 106.85028 
L 777.661274 106.67668 
L 778.561426 106.405992 
L 778.673944 106.34887 
L 778.800528 105.688468 
L 778.941177 105.361773 
L 779.109955 105.237493 
L 779.461577 105.136172 
L 779.981977 105.032792 
L 780.13669 104.792482 
L 780.263274 104.520471 
L 781.008712 103.755554 
L 782.668365 103.391135 
L 782.823079 103.249145 
L 782.963727 103.163431 
L 783.315349 102.361075 
L 783.906073 102.102147 
L 784.553057 101.87739 
L 784.609316 101.799291 
L 784.778095 101.327635 
L 784.890614 101.224527 
L 785.171911 100.860217 
L 785.396949 100.755528 
L 786.001738 100.545697 
L 786.26897 100.443328 
L 786.395554 100.196726 
L 786.522138 99.829674 
L 786.676851 99.645186 
L 786.944084 99.386297 
L 787.506678 99.240658 
L 787.83017 99.093339 
L 788.013013 98.428604 
L 788.041143 98.411753 
L 788.167727 98.179661 
L 788.406829 98.035013 
L 789.236656 97.867164 
L 789.39137 97.780626 
L 789.560148 97.043232 
L 789.658602 96.921718 
L 790.094613 96.699256 
L 790.600948 96.58435 
L 790.755661 96.29734 
L 790.89631 96.213868 
L 791.107283 95.647074 
L 791.402645 95.524584 
L 791.88085 95.314616 
L 792.021499 94.971923 
L 792.119953 94.904392 
L 792.260602 94.428422 
L 792.738807 94.223689 
L 792.907585 94.106121 
L 793.090428 93.438046 
L 793.202947 93.34243 
L 793.371726 93.182475 
L 793.779607 92.976517 
L 793.93432 92.210762 
L 794.342201 92.040118 
L 794.97512 91.679692 
L 795.143898 91.214477 
L 795.43926 90.98323 
L 796.100309 90.681603 
L 796.311282 90.054805 
L 796.48006 89.912863 
L 796.803552 89.781964 
L 796.958266 89.354418 
L 797.112979 89.019174 
L 797.394276 88.885555 
L 797.886547 88.350262 
L 798.125649 87.889113 
L 798.5054 87.791555 
L 798.885152 87.614846 
L 799.05393 87.234043 
L 799.616525 86.894697 
L 800.446351 86.66348 
L 800.671389 86.061502 
L 800.840168 85.948286 
L 801.037076 85.897374 
L 801.262114 85.803864 
L 801.57154 85.079066 
L 802.007551 84.967377 
L 802.359173 84.725731 
L 802.710794 84.135365 
L 803.287454 83.993607 
L 803.65314 83.339002 
L 804.525162 82.903158 
L 804.651745 82.561247 
L 804.848653 82.409008 
L 805.172145 82.193329 
L 805.340924 81.969266 
L 805.692545 81.468293 
L 805.903518 81.337069 
L 806.058232 80.81048 
L 806.944318 80.416847 
L 807.000577 80.382707 
L 807.127161 80.034133 
L 807.352199 79.877287 
L 807.886664 79.47295 
L 807.900729 79.460334 
L 808.027312 79.192256 
L 808.28048 79.070676 
L 808.547712 78.828601 
L 808.786815 78.344238 
L 809.180631 78.209142 
L 809.447863 77.689175 
L 809.897939 77.247679 
L 810.038588 76.959468 
L 810.165171 76.844215 
L 810.601182 76.676412 
L 810.79809 76.149917 
L 811.065323 75.904687 
L 811.191906 75.513094 
L 811.34662 75.373697 
L 811.684177 75.226745 
L 811.909214 74.723986 
L 812.162382 74.575072 
L 812.288966 74.134478 
L 812.415549 74.004867 
L 812.556198 73.851671 
L 812.724976 73.376474 
L 812.90782 73.264189 
L 813.034403 72.892779 
L 813.245376 72.601832 
L 813.329765 72.510836 
L 813.456349 71.987258 
L 813.625128 71.86622 
L 813.751711 71.301383 
L 813.836101 71.216191 
L 813.962684 70.629827 
L 813.990814 70.607892 
L 814.117398 70.195244 
L 814.370565 70.082843 
L 814.454954 70.01739 
L 814.581538 69.499797 
L 814.806576 69.317494 
L 814.947225 68.300071 
L 815.200392 68.249549 
L 815.369171 68.164361 
L 815.495754 67.647009 
L 815.580143 67.584458 
L 815.706727 67.141386 
L 815.805181 67.052234 
L 815.931765 66.494445 
L 816.016154 66.466081 
L 816.184933 64.951295 
L 816.283387 64.847814 
L 816.536554 61.329412 
L 816.578749 61.311266 
L 816.691268 57.682545 
L 816.691268 57.682545 
" clip-path="url(#p8215362eb7)" style="fill: none; stroke: #ff7f0e; stroke-width: 1.5; stroke-linecap: square"/>
   </g>
   <g id="line2d_45">
    <path d="M 86.640517 359.744548 
L 86.846981 357.682918 
L 87.474632 356.643431 
L 87.912335 356.219731 
L 88.077506 356.072914 
L 88.614313 355.731869 
L 88.853811 355.625935 
L 89.126343 355.504103 
L 89.621857 355.326412 
L 89.935682 355.224128 
L 90.794572 355.027669 
L 92.198527 354.651877 
L 97.764795 353.79765 
L 100.184553 353.542975 
L 101.282941 353.417766 
L 103.562303 353.19546 
L 105.379186 353.048225 
L 125.241019 351.84756 
L 128.44534 351.694049 
L 129.163834 351.659989 
L 139.66872 351.202334 
L 140.544128 351.16759 
L 146.622426 350.94634 
L 147.811659 350.89941 
L 155.145259 350.647692 
L 158.605595 350.532173 
L 163.032182 350.394857 
L 172.653402 350.101986 
L 174.206011 350.051151 
L 194.885441 349.48326 
L 200.179177 349.347994 
L 205.093019 349.22173 
L 253.116536 348.065998 
L 268.023234 347.739445 
L 283.524548 347.406108 
L 288.958679 347.289309 
L 294.128537 347.169302 
L 299.257102 347.058198 
L 305.038092 346.92835 
L 317.681945 346.640238 
L 319.928273 346.592875 
L 327.129736 346.443299 
L 343.878092 346.082722 
L 348.032147 345.987896 
L 357.595558 345.776825 
L 363.954648 345.646311 
L 365.523774 345.612289 
L 370.371547 345.50157 
L 372.783046 345.454955 
L 378.31628 345.33083 
L 383.923842 345.202724 
L 386.285789 345.148236 
L 391.934643 345.025832 
L 394.891207 344.960962 
L 400.515285 344.821212 
L 404.380291 344.731301 
L 412.044233 344.543091 
L 412.97745 344.523523 
L 417.544433 344.403462 
L 419.080524 344.361578 
L 423.110701 344.241238 
L 438.909323 343.781576 
L 439.966418 343.750742 
L 503.920694 341.294159 
L 507.843509 341.124736 
L 512.550888 340.910209 
L 513.574949 340.853485 
L 516.804045 340.695816 
L 517.216973 340.672431 
L 519.719316 340.544675 
L 520.388259 340.511284 
L 522.67588 340.398311 
L 530.06729 339.999084 
L 531.917207 339.891755 
L 533.758865 339.778627 
L 534.807702 339.716339 
L 539.432495 339.457738 
L 539.894974 339.429392 
L 541.191568 339.357894 
L 544.808816 339.129626 
L 545.708999 339.079946 
L 566.735289 337.423503 
L 567.01608 337.392507 
L 582.814702 335.723608 
L 583.153303 335.688643 
L 584.078261 335.571034 
L 586.126384 335.294907 
L 587.745061 335.085919 
L 588.331419 335.003038 
L 589.438066 334.851237 
L 592.320303 334.47044 
L 593.220485 334.329104 
L 593.757292 334.249109 
L 595.846707 333.934279 
L 596.969871 333.747108 
L 599.15013 333.397368 
L 599.827332 333.270565 
L 606.789297 331.910535 
L 607.218742 331.812325 
L 608.234544 331.60239 
L 608.746575 331.486379 
L 610.703853 331.028145 
L 611.331504 330.883827 
L 617.054685 329.389099 
L 618.681621 328.93717 
L 620.432435 328.37073 
L 620.894914 328.220355 
L 621.233515 328.086057 
L 621.60515 327.982946 
L 622.18325 327.794685 
L 625.015935 326.840198 
L 625.172848 326.772671 
L 625.67662 326.580662 
L 626.048255 326.438165 
L 626.403373 326.305801 
L 627.311814 325.898699 
L 632.66336 323.395975 
L 632.820273 323.307723 
L 633.068029 323.174868 
L 634.174676 322.576502 
L 634.628897 322.332777 
L 634.876654 322.215848 
L 635.248289 322.041815 
L 638.006647 320.457688 
L 638.213111 320.36588 
L 638.345248 320.260084 
L 638.617781 320.071735 
L 639.807013 319.376909 
L 640.129097 319.225053 
L 640.286009 319.127225 
L 640.963211 318.752673 
L 641.128382 318.627501 
L 641.277036 318.496925 
L 642.416717 317.836867 
L 642.63144 317.692816 
L 642.895714 317.520813 
L 643.168246 317.399809 
L 643.308642 317.334089 
L 643.539881 317.189893 
L 643.828931 316.988453 
L 644.29141 316.677272 
L 644.993388 316.272138 
L 645.32373 316.097153 
L 645.629297 315.837374 
L 646.265206 315.433103 
L 647.437921 314.744077 
L 647.702195 314.603035 
L 648.007761 314.466451 
L 648.181191 314.354359 
L 648.453724 314.148848 
L 648.775807 313.895293 
L 650.369709 312.80127 
L 650.567914 312.637563 
L 651.179048 312.335243 
L 651.352478 312.247046 
L 651.74063 312.031506 
L 651.971869 311.847253 
L 652.318729 311.626862 
L 652.921604 311.285924 
L 653.128068 311.152047 
L 654.680677 310.329144 
L 654.887141 310.202066 
L 655.159673 310.010986 
L 655.704738 309.636989 
L 655.894685 309.518156 
L 656.315871 309.285753 
L 656.596662 309.098171 
L 656.902229 308.90477 
L 657.141727 308.780281 
L 658.966868 307.551982 
L 659.288952 307.39038 
L 659.445865 307.274143 
L 659.999188 307.056999 
L 660.403857 306.819931 
L 660.79201 306.641462 
L 661.204938 306.428085 
L 661.427919 306.312208 
L 661.906915 306.027297 
L 662.121638 305.90008 
L 662.476756 305.765682 
L 667.142841 303.255374 
L 667.89437 302.84902 
L 668.109092 302.715842 
L 668.455952 302.591207 
L 670.000302 301.744476 
L 670.594918 301.42292 
L 670.76009 301.345158 
L 671.181276 301.116162 
L 671.850219 300.747743 
L 672.040166 300.63678 
L 672.213596 300.492356 
L 672.353991 300.381173 
L 678.622237 297.006601 
L 678.795667 296.932775 
L 678.993872 296.816776 
L 679.621523 296.439288 
L 680.026192 296.222751 
L 680.174846 296.139825 
L 680.55474 295.949165 
L 681.058512 295.719051 
L 681.281493 295.581598 
L 681.52925 295.465267 
L 681.826558 295.311031 
L 682.660672 294.896565 
L 683.222254 294.567772 
L 683.527821 294.455203 
L 683.750802 294.346782 
L 684.254574 294.101564 
L 685.485099 293.514998 
L 685.65027 293.38325 
L 685.873251 293.26929 
L 686.327472 292.990209 
L 686.550453 292.873769 
L 686.715624 292.792683 
L 687.153328 292.553739 
L 687.359792 292.414411 
L 687.59929 292.287683 
L 687.731427 292.213448 
L 687.987442 292.09372 
L 688.210423 291.9805 
L 688.557283 291.810143 
L 688.829815 291.661596 
L 688.978469 291.567024 
L 689.66393 291.229789 
L 689.886911 291.106106 
L 690.23377 290.966527 
L 690.646698 290.771168 
L 690.877938 290.658623 
L 691.109177 290.532773 
L 691.282607 290.414108 
L 691.530364 290.279022 
L 691.753345 290.174456 
L 692.06717 290.04364 
L 692.248858 289.944697 
L 692.463581 289.840584 
L 692.661786 289.751226 
L 692.992129 289.627721 
L 693.702365 289.290988 
L 693.966639 289.168925 
L 694.676875 288.83806 
L 695.626609 288.38092 
L 695.841331 288.234665 
L 696.080829 288.109499 
L 696.303811 287.969096 
L 696.667187 287.826474 
L 696.947978 287.644697 
L 699.40077 286.488766 
L 699.904542 286.299399 
L 709.170644 282.635678 
L 709.517504 282.485553 
L 709.864363 282.344794 
L 710.153413 282.232046 
L 710.995786 281.916767 
L 711.425231 281.717289 
L 711.664729 281.629445 
L 716.545537 279.740351 
L 716.851104 279.623877 
L 717.313583 279.471206 
L 720.204078 278.392601 
L 720.526162 278.270766 
L 721.005159 278.077717 
L 721.195105 277.997888 
L 722.54125 277.518992 
L 722.706422 277.436216 
L 724.415943 276.759533 
L 724.60589 276.683817 
L 724.861905 276.571945 
L 725.101403 276.479547 
L 725.382194 276.325513 
L 725.819898 276.182393 
L 726.158499 276.062234 
L 726.480583 275.929306 
L 727.18256 275.685207 
L 727.389024 275.602518 
L 727.620264 275.497027 
L 727.843245 275.396336 
L 728.21488 275.234544 
L 728.644325 275.056901 
L 729.07377 274.90636 
L 729.271975 274.797782 
L 730.056538 274.473 
L 730.485983 274.329729 
L 730.90717 274.125628 
L 731.121892 274.020293 
L 731.336615 273.931477 
L 731.691733 273.767625 
L 731.840387 273.708776 
L 732.311125 273.530527 
L 732.525847 273.427644 
L 732.955292 273.26884 
L 734.202335 272.794674 
L 734.565711 272.662691 
L 735.052966 272.464499 
L 736.101803 272.092405 
L 738.026047 271.308758 
L 738.364648 271.193019 
L 739.256572 270.818979 
L 739.479554 270.736051 
L 739.735569 270.608841 
L 740.487098 270.303683 
L 741.420315 269.956189 
L 741.84976 269.796948 
L 741.981897 269.731859 
L 742.394825 269.612403 
L 743.691418 269.101678 
L 744.096088 268.928499 
L 744.294293 268.851833 
L 745.260544 268.448956 
L 745.409198 268.401104 
L 746.119434 268.087678 
L 746.43326 267.963674 
L 746.623206 267.894803 
L 747.036134 267.789703 
L 747.34996 267.657168 
L 747.696819 267.524739 
L 747.845473 267.478907 
L 749.967923 266.732632 
L 750.265231 266.611663 
L 750.603832 266.482753 
L 750.760744 266.423964 
L 751.107604 266.299398 
L 751.29755 266.214974 
L 751.685703 266.061557 
L 752.082114 265.92138 
L 753.791635 265.316023 
L 754.179787 265.193324 
L 754.485354 265.095785 
L 755.005643 264.908822 
L 755.19559 264.847649 
L 756.244427 264.491691 
L 756.508701 264.365506 
L 756.995956 264.209095 
L 759.184474 263.452312 
L 764.007472 261.752049 
L 764.30478 261.602551 
L 766.82364 260.626071 
L 767.162241 260.504112 
L 767.5091 260.306478 
L 767.74034 260.232248 
L 768.169785 260.062355 
L 768.607489 259.91373 
L 768.995641 259.786447 
L 769.763687 259.497139 
L 769.953634 259.441288 
L 770.325269 259.266985 
L 770.746455 259.122039 
L 771.101573 258.990358 
L 771.943946 258.635647 
L 772.464235 258.345751 
L 772.745026 258.236633 
L 772.959749 258.130792 
L 773.215764 258.010272 
L 773.52959 257.871775 
L 773.859932 257.678835 
L 774.413255 257.462493 
L 774.718822 257.355775 
L 774.883993 257.241339 
L 775.090457 257.122328 
L 775.429058 256.953628 
L 775.577712 256.881513 
L 775.941089 256.730704 
L 779.921714 255.017816 
L 781.276117 254.508452 
L 781.631235 254.37972 
L 782.448833 254.109454 
L 784.075769 253.505515 
L 784.480438 253.373811 
L 785.347586 253.132637 
L 785.487982 253.079194 
L 785.72748 253.015725 
L 786.313838 252.845348 
L 787.147952 252.578978 
L 787.395709 252.506599 
L 787.899481 252.348018 
L 788.122462 252.27772 
L 788.82444 252.035418 
L 789.443831 251.833745 
L 790.410083 251.526656 
L 790.616547 251.466055 
L 791.582798 251.215859 
L 791.789262 251.161676 
L 793.928229 250.463322 
L 794.118175 250.380651 
L 794.456776 250.252473 
L 796.72788 249.376724 
L 796.90131 249.291157 
L 797.140808 249.178691 
L 797.281203 249.079927 
L 797.603287 248.911904 
L 797.81801 248.783703 
L 798.032732 248.618704 
L 798.429143 248.395001 
L 798.643865 248.22059 
L 799.048535 247.904061 
L 799.197189 247.736869 
L 799.436687 247.566059 
L 799.65141 247.383854 
L 800.246026 246.889012 
L 800.411197 246.686166 
L 800.601144 246.523555 
L 800.824125 246.240956 
L 801.005813 246.103585 
L 801.13795 245.913326 
L 801.278346 245.737619 
L 801.468292 245.616965 
L 801.608688 245.484041 
L 801.790376 245.171841 
L 802.095943 244.84669 
L 802.236338 244.679975 
L 802.484095 244.319472 
L 803.400795 243.353588 
L 803.491639 243.238881 
L 803.764172 242.966608 
L 804.111031 242.558627 
L 804.342271 242.347813 
L 804.532218 242.161287 
L 804.713906 241.926342 
L 804.829526 241.757323 
L 805.110317 241.393111 
L 805.225936 241.243264 
L 805.457176 240.883202 
L 805.66364 240.596924 
L 806.233481 239.771983 
L 808.256827 236.61731 
L 808.405481 236.375879 
L 808.537618 236.154149 
L 808.826668 235.498033 
L 808.884478 235.382448 
L 809.082683 235.049602 
L 809.247854 234.773704 
L 810.040676 233.319299 
L 810.263657 232.905569 
L 810.437087 232.451563 
L 810.470121 232.355884 
L 810.651809 231.655002 
L 810.775688 231.396287 
L 811.023444 230.571702 
L 811.081254 230.459434 
L 811.452889 228.909489 
L 811.79149 227.108307 
L 811.857559 226.699724 
L 812.633863 218.819035 
L 812.790776 217.060847 
L 812.922913 216.01703 
L 813.311065 210.415161 
L 813.525788 208.578584 
L 813.715734 204.40589 
L 814.186472 195.230988 
L 814.359902 187.464456 
L 814.805864 172.328512 
L 814.838898 171.675073 
L 815.714305 142.309867 
L 815.739081 142.031016 
L 815.912511 135.171083 
L 815.970321 130.348631 
L 816.193302 107.167163 
L 816.333697 104.131613 
L 816.383249 102.237498 
L 816.697074 85.679568 
L 816.697074 85.679568 
" clip-path="url(#p8215362eb7)" style="fill: none; stroke: #2ca02c; stroke-width: 1.5; stroke-linecap: square"/>
   </g>
   <g id="patch_3">
    <path d="M 50.137685 390.04 
L 50.137685 41.856 
" style="fill: none; stroke: #000000; stroke-width: 0.8; stroke-linejoin: miter; stroke-linecap: square"/>
   </g>
   <g id="patch_4">
    <path d="M 853.2 390.04 
L 853.2 41.856 
" style="fill: none; stroke: #000000; stroke-width: 0.8; stroke-linejoin: miter; stroke-linecap: square"/>
   </g>
   <g id="patch_5">
    <path d="M 50.137685 390.04 
L 853.2 390.04 
" style="fill: none; stroke: #000000; stroke-width: 0.8; stroke-linejoin: miter; stroke-linecap: square"/>
   </g>
   <g id="patch_6">
    <path d="M 50.137685 41.856 
L 853.2 41.856 
" style="fill: none; stroke: #000000; stroke-width: 0.8; stroke-linejoin: miter; stroke-linecap: square"/>
   </g>
   <g id="text_13">
    <!-- HTTP Request Duration Percentiles -->
    <g transform="translate(347.44228 22.355625) scale(0.12 -0.12)">
     <defs>
      <path id="DejaVuSans-48" d="M 628 4666 
L 1259 4666 
L 1259 2753 
L 3553 2753 
L 3553 4666 
L 4184 4666 
L 4184 0 
L 3553 0 
L 3553 2222 
L 1259 2222 
L 1259 0 
L 628 0 
L 628 4666 
z
" transform="scale(0.015625)"/>
      <path id="DejaVuSans-54" d="M -19 4666 
L 3928 4666 
L 3928 4134 
L 2272 4134 
L 2272 0 
L 1638 0 
L 1638 4134 
L -19 4134 
L -19 4666 
z
" transform="scale(0.015625)"/>
      <path id="DejaVuSans-52" d="M 2841 2188 
Q 3044 2119 3236 1894 
Q 3428 1669 3622 1275 
L 4263 0 
L 3584 0 
L 2988 1197 
Q 2756 1666 2539 1819 
Q 2322 1972 1947 1972 
L 1259 1972 
L 1259 0 
L 628 0 
L 628 4666 
L 2053 4666 
Q 2853 4666 3247 4331 
Q 3641 3997 3641 3322 
Q 3641 2881 3436 2590 
Q 3231 2300 2841 2188 
z
M 1259 4147 
L 1259 2491 
L 2053 2491 
Q 2509 2491 2742 2702 
Q 2975 2913 2975 3322 
Q 2975 3731 2742 3939 
Q 2509 4147 2053 4147 
L 1259 4147 
z
" transform="scale(0.015625)"/>
      <path id="DejaVuSans-71" d="M 947 1747 
Q 947 1113 1208 752 
Q 1469 391 1925 391 
Q 2381 391 2643 752 
Q 2906 1113 2906 1747 
Q 2906 2381 2643 2742 
Q 2381 3103 1925 3103 
Q 1469 3103 1208 2742 
Q 947 2381 947 1747 
z
M 2906 525 
Q 2725 213 2448 61 
Q 2172 -91 1784 -91 
Q 1150 -91 751 415 
Q 353 922 353 1747 
Q 353 2572 751 3078 
Q 1150 3584 1784 3584 
Q 2172 3584 2448 3432 
Q 2725 3281 2906 2969 
L 2906 3500 
L 3481 3500 
L 3481 -1331 
L 2906 -1331 
L 2906 525 
z
" transform="scale(0.015625)"/>
     </defs>
     <use xlink:href="#DejaVuSans-48"/>
     <use xlink:href="#DejaVuSans-54" transform="translate(75.195312 0)"/>
     <use xlink:href="#DejaVuSans-54" transform="translate(134.529297 0)"/>
     <use xlink:href="#DejaVuSans-50" transform="translate(195.613281 0)"/>
     <use xlink:href="#DejaVuSans-20" transform="translate(255.916016 0)"/>
     <use xlink:href="#DejaVuSans-52" transform="translate(287.703125 0)"/>
     <use xlink:href="#DejaVuSans-65" transform="translate(352.685547 0)"/>
     <use xlink:href="#DejaVuSans-71" transform="translate(414.208984 0)"/>
     <use xlink:href="#DejaVuSans-75" transform="translate(477.685547 0)"/>
     <use xlink:href="#DejaVuSans-65" transform="translate(541.064453 0)"/>
     <use xlink:href="#DejaVuSans-73" transform="translate(602.587891 0)"/>
     <use xlink:href="#DejaVuSans-74" transform="translate(654.6875 0)"/>
     <use xlink:href="#DejaVuSans-20" transform="translate(693.896484 0)"/>
     <use xlink:href="#DejaVuSans-44" transform="translate(725.683594 0)"/>
     <use xlink:href="#DejaVuSans-75" transform="translate(802.685547 0)"/>
     <use xlink:href="#DejaVuSans-72" transform="translate(866.064453 0)"/>
     <use xlink:href="#DejaVuSans-61" transform="translate(907.177734 0)"/>
     <use xlink:href="#DejaVuSans-74" transform="translate(968.457031 0)"/>
     <use xlink:href="#DejaVuSans-69" transform="translate(1007.666016 0)"/>
     <use xlink:href="#DejaVuSans-6f" transform="translate(1035.449219 0)"/>
     <use xlink:href="#DejaVuSans-6e" transform="translate(1096.630859 0)"/>
     <use xlink:href="#DejaVuSans-20" transform="translate(1160.009766 0)"/>
     <use xlink:href="#DejaVuSans-50" transform="translate(1191.796875 0)"/>
     <use xlink:href="#DejaVuSans-65" transform="translate(1248.474609 0)"/>
     <use xlink:href="#DejaVuSans-72" transform="translate(1309.998047 0)"/>
     <use xlink:href="#DejaVuSans-63" transform="translate(1348.861328 0)"/>
     <use xlink:href="#DejaVuSans-65" transform="translate(1403.841797 0)"/>
     <use xlink:href="#DejaVuSans-6e" transform="translate(1465.365234 0)"/>
     <use xlink:href="#DejaVuSans-74" transform="translate(1528.744141 0)"/>
     <use xlink:href="#DejaVuSans-69" transform="translate(1567.953125 0)"/>
     <use xlink:href="#DejaVuSans-6c" transform="translate(1595.736328 0)"/>
     <use xlink:href="#DejaVuSans-65" transform="translate(1623.519531 0)"/>
     <use xlink:href="#DejaVuSans-73" transform="translate(1685.042969 0)"/>
    </g>
    <!-- Test: stress | Endpoint: GetWaypointsByMapId -->
    <g transform="translate(313.897592 35.856) scale(0.12 -0.12)">
     <defs>
      <path id="DejaVuSans-3a" d="M 750 794 
L 1409 794 
L 1409 0 
L 750 0 
L 750 794 
z
M 750 3309 
L 1409 3309 
L 1409 2516 
L 750 2516 
L 750 3309 
z
" transform="scale(0.015625)"/>
      <path id="DejaVuSans-7c" d="M 1344 4891 
L 1344 -1509 
L 813 -1509 
L 813 4891 
L 1344 4891 
z
" transform="scale(0.015625)"/>
      <path id="DejaVuSans-45" d="M 628 4666 
L 3578 4666 
L 3578 4134 
L 1259 4134 
L 1259 2753 
L 3481 2753 
L 3481 2222 
L 1259 2222 
L 1259 531 
L 3634 531 
L 3634 0 
L 628 0 
L 628 4666 
z
" transform="scale(0.015625)"/>
      <path id="DejaVuSans-64" d="M 2906 2969 
L 2906 4863 
L 3481 4863 
L 3481 0 
L 2906 0 
L 2906 525 
Q 2725 213 2448 61 
Q 2172 -91 1784 -91 
Q 1150 -91 751 415 
Q 353 922 353 1747 
Q 353 2572 751 3078 
Q 1150 3584 1784 3584 
Q 2172 3584 2448 3432 
Q 2725 3281 2906 2969 
z
M 947 1747 
Q 947 1113 1208 752 
Q 1469 391 1925 391 
Q 2381 391 2643 752 
Q 2906 1113 2906 1747 
Q 2906 2381 2643 2742 
Q 2381 3103 1925 3103 
Q 1469 3103 1208 2742 
Q 947 2381 947 1747 
z
" transform="scale(0.015625)"/>
      <path id="DejaVuSans-70" d="M 1159 525 
L 1159 -1331 
L 581 -1331 
L 581 3500 
L 1159 3500 
L 1159 2969 
Q 1341 3281 1617 3432 
Q 1894 3584 2278 3584 
Q 2916 3584 3314 3078 
Q 3713 2572 3713 1747 
Q 3713 922 3314 415 
Q 2916 -91 2278 -91 
Q 1894 -91 1617 61 
Q 1341 213 1159 525 
z
M 3116 1747 
Q 3116 2381 2855 2742 
Q 2594 3103 2138 3103 
Q 1681 3103 1420 2742 
Q 1159 2381 1159 1747 
Q 1159 1113 1420 752 
Q 1681 391 2138 391 
Q 2594 391 2855 752 
Q 3116 1113 3116 1747 
z
" transform="scale(0.015625)"/>
      <path id="DejaVuSans-47" d="M 3809 666 
L 3809 1919 
L 2778 1919 
L 2778 2438 
L 4434 2438 
L 4434 434 
Q 4069 175 3628 42 
Q 3188 -91 2688 -91 
Q 1594 -91 976 548 
Q 359 1188 359 2328 
Q 359 3472 976 4111 
Q 1594 4750 2688 4750 
Q 3144 4750 3555 4637 
Q 3966 4525 4313 4306 
L 4313 3634 
Q 3963 3931 3569 4081 
Q 3175 4231 2741 4231 
Q 1884 4231 1454 3753 
Q 1025 3275 1025 2328 
Q 1025 1384 1454 906 
Q 1884 428 2741 428 
Q 3075 428 3337 486 
Q 3600 544 3809 666 
z
" transform="scale(0.015625)"/>
      <path id="DejaVuSans-57" d="M 213 4666 
L 850 4666 
L 1831 722 
L 2809 4666 
L 3519 4666 
L 4500 722 
L 5478 4666 
L 6119 4666 
L 4947 0 
L 4153 0 
L 3169 4050 
L 2175 0 
L 1381 0 
L 213 4666 
z
" transform="scale(0.015625)"/>
      <path id="DejaVuSans-79" d="M 2059 -325 
Q 1816 -950 1584 -1140 
Q 1353 -1331 966 -1331 
L 506 -1331 
L 506 -850 
L 844 -850 
Q 1081 -850 1212 -737 
Q 1344 -625 1503 -206 
L 1606 56 
L 191 3500 
L 800 3500 
L 1894 763 
L 2988 3500 
L 3597 3500 
L 2059 -325 
z
" transform="scale(0.015625)"/>
      <path id="DejaVuSans-42" d="M 1259 2228 
L 1259 519 
L 2272 519 
Q 2781 519 3026 730 
Q 3272 941 3272 1375 
Q 3272 1813 3026 2020 
Q 2781 2228 2272 2228 
L 1259 2228 
z
M 1259 4147 
L 1259 2741 
L 2194 2741 
Q 2656 2741 2882 2914 
Q 3109 3088 3109 3444 
Q 3109 3797 2882 3972 
Q 2656 4147 2194 4147 
L 1259 4147 
z
M 628 4666 
L 2241 4666 
Q 2963 4666 3353 4366 
Q 3744 4066 3744 3513 
Q 3744 3084 3544 2831 
Q 3344 2578 2956 2516 
Q 3422 2416 3680 2098 
Q 3938 1781 3938 1306 
Q 3938 681 3513 340 
Q 3088 0 2303 0 
L 628 0 
L 628 4666 
z
" transform="scale(0.015625)"/>
      <path id="DejaVuSans-4d" d="M 628 4666 
L 1569 4666 
L 2759 1491 
L 3956 4666 
L 4897 4666 
L 4897 0 
L 4281 0 
L 4281 4097 
L 3078 897 
L 2444 897 
L 1241 4097 
L 1241 0 
L 628 0 
L 628 4666 
z
" transform="scale(0.015625)"/>
      <path id="DejaVuSans-49" d="M 628 4666 
L 1259 4666 
L 1259 0 
L 628 0 
L 628 4666 
z
" transform="scale(0.015625)"/>
     </defs>
     <use xlink:href="#DejaVuSans-54"/>
     <use xlink:href="#DejaVuSans-65" transform="translate(44.083984 0)"/>
     <use xlink:href="#DejaVuSans-73" transform="translate(105.607422 0)"/>
     <use xlink:href="#DejaVuSans-74" transform="translate(157.707031 0)"/>
     <use xlink:href="#DejaVuSans-3a" transform="translate(196.916016 0)"/>
     <use xlink:href="#DejaVuSans-20" transform="translate(230.607422 0)"/>
     <use xlink:href="#DejaVuSans-73" transform="translate(262.394531 0)"/>
     <use xlink:href="#DejaVuSans-74" transform="translate(314.494141 0)"/>
     <use xlink:href="#DejaVuSans-72" transform="translate(353.703125 0)"/>
     <use xlink:href="#DejaVuSans-65" transform="translate(392.566406 0)"/>
     <use xlink:href="#DejaVuSans-73" transform="translate(454.089844 0)"/>
     <use xlink:href="#DejaVuSans-73" transform="translate(506.189453 0)"/>
     <use xlink:href="#DejaVuSans-20" transform="translate(558.289062 0)"/>
     <use xlink:href="#DejaVuSans-7c" transform="translate(590.076172 0)"/>
     <use xlink:href="#DejaVuSans-20" transform="translate(623.767578 0)"/>
     <use xlink:href="#DejaVuSans-45" transform="translate(655.554688 0)"/>
     <use xlink:href="#DejaVuSans-6e" transform="translate(718.738281 0)"/>
     <use xlink:href="#DejaVuSans-64" transform="translate(782.117188 0)"/>
     <use xlink:href="#DejaVuSans-70" transform="translate(845.59375 0)"/>
     <use xlink:href="#DejaVuSans-6f" transform="translate(909.070312 0)"/>
     <use xlink:href="#DejaVuSans-69" transform="translate(970.251953 0)"/>
     <use xlink:href="#DejaVuSans-6e" transform="translate(998.035156 0)"/>
     <use xlink:href="#DejaVuSans-74" transform="translate(1061.414062 0)"/>
     <use xlink:href="#DejaVuSans-3a" transform="translate(1100.623047 0)"/>
     <use xlink:href="#DejaVuSans-20" transform="translate(1134.314453 0)"/>
     <use xlink:href="#DejaVuSans-47" transform="translate(1166.101562 0)"/>
     <use xlink:href="#DejaVuSans-65" transform="translate(1243.591797 0)"/>
     <use xlink:href="#DejaVuSans-74" transform="translate(1305.115234 0)"/>
     <use xlink:href="#DejaVuSans-57" transform="translate(1344.324219 0)"/>
     <use xlink:href="#DejaVuSans-61" transform="translate(1436.826172 0)"/>
     <use xlink:href="#DejaVuSans-79" transform="translate(1498.105469 0)"/>
     <use xlink:href="#DejaVuSans-70" transform="translate(1557.285156 0)"/>
     <use xlink:href="#DejaVuSans-6f" transform="translate(1620.761719 0)"/>
     <use xlink:href="#DejaVuSans-69" transform="translate(1681.943359 0)"/>
     <use xlink:href="#DejaVuSans-6e" transform="translate(1709.726562 0)"/>
     <use xlink:href="#DejaVuSans-74" transform="translate(1773.105469 0)"/>
     <use xlink:href="#DejaVuSans-73" transform="translate(1812.314453 0)"/>
     <use xlink:href="#DejaVuSans-42" transform="translate(1864.414062 0)"/>
     <use xlink:href="#DejaVuSans-79" transform="translate(1933.017578 0)"/>
     <use xlink:href="#DejaVuSans-4d" transform="translate(1992.197266 0)"/>
     <use xlink:href="#DejaVuSans-61" transform="translate(2078.476562 0)"/>
     <use xlink:href="#DejaVuSans-70" transform="translate(2139.755859 0)"/>
     <use xlink:href="#DejaVuSans-49" transform="translate(2203.232422 0)"/>
     <use xlink:href="#DejaVuSans-64" transform="translate(2232.724609 0)"/>
    </g>
   </g>
   <g id="legend_1">
    <g id="patch_7">
     <path d="M 57.137685 93.890375 
L 190.481435 93.890375 
Q 192.481435 93.890375 192.481435 91.890375 
L 192.481435 48.856 
Q 192.481435 46.856 190.481435 46.856 
L 57.137685 46.856 
Q 55.137685 46.856 55.137685 48.856 
L 55.137685 91.890375 
Q 55.137685 93.890375 57.137685 93.890375 
z
" style="fill: #ffffff; opacity: 0.8; stroke: #cccccc; stroke-linejoin: miter"/>
    </g>
    <g id="line2d_46">
     <path d="M 59.137685 54.954437 
L 69.137685 54.954437 
L 79.137685 54.954437 
" style="fill: none; stroke: #1f77b4; stroke-width: 1.5; stroke-linecap: square"/>
    </g>
    <g id="text_14">
     <!-- Single Large Results -->
     <g transform="translate(87.137685 58.454437) scale(0.1 -0.1)">
      <defs>
       <path id="DejaVuSans-53" d="M 3425 4513 
L 3425 3897 
Q 3066 4069 2747 4153 
Q 2428 4238 2131 4238 
Q 1616 4238 1336 4038 
Q 1056 3838 1056 3469 
Q 1056 3159 1242 3001 
Q 1428 2844 1947 2747 
L 2328 2669 
Q 3034 2534 3370 2195 
Q 3706 1856 3706 1288 
Q 3706 609 3251 259 
Q 2797 -91 1919 -91 
Q 1588 -91 1214 -16 
Q 841 59 441 206 
L 441 856 
Q 825 641 1194 531 
Q 1563 422 1919 422 
Q 2459 422 2753 634 
Q 3047 847 3047 1241 
Q 3047 1584 2836 1778 
Q 2625 1972 2144 2069 
L 1759 2144 
Q 1053 2284 737 2584 
Q 422 2884 422 3419 
Q 422 4038 858 4394 
Q 1294 4750 2059 4750 
Q 2388 4750 2728 4690 
Q 3069 4631 3425 4513 
z
" transform="scale(0.015625)"/>
       <path id="DejaVuSans-67" d="M 2906 1791 
Q 2906 2416 2648 2759 
Q 2391 3103 1925 3103 
Q 1463 3103 1205 2759 
Q 947 2416 947 1791 
Q 947 1169 1205 825 
Q 1463 481 1925 481 
Q 2391 481 2648 825 
Q 2906 1169 2906 1791 
z
M 3481 434 
Q 3481 -459 3084 -895 
Q 2688 -1331 1869 -1331 
Q 1566 -1331 1297 -1286 
Q 1028 -1241 775 -1147 
L 775 -588 
Q 1028 -725 1275 -790 
Q 1522 -856 1778 -856 
Q 2344 -856 2625 -561 
Q 2906 -266 2906 331 
L 2906 616 
Q 2728 306 2450 153 
Q 2172 0 1784 0 
Q 1141 0 747 490 
Q 353 981 353 1791 
Q 353 2603 747 3093 
Q 1141 3584 1784 3584 
Q 2172 3584 2450 3431 
Q 2728 3278 2906 2969 
L 2906 3500 
L 3481 3500 
L 3481 434 
z
" transform="scale(0.015625)"/>
       <path id="DejaVuSans-4c" d="M 628 4666 
L 1259 4666 
L 1259 531 
L 3531 531 
L 3531 0 
L 628 0 
L 628 4666 
z
" transform="scale(0.015625)"/>
      </defs>
      <use xlink:href="#DejaVuSans-53"/>
      <use xlink:href="#DejaVuSans-69" transform="translate(63.476562 0)"/>
      <use xlink:href="#DejaVuSans-6e" transform="translate(91.259766 0)"/>
      <use xlink:href="#DejaVuSans-67" transform="translate(154.638672 0)"/>
      <use xlink:href="#DejaVuSans-6c" transform="translate(218.115234 0)"/>
      <use xlink:href="#DejaVuSans-65" transform="translate(245.898438 0)"/>
      <use xlink:href="#DejaVuSans-20" transform="translate(307.421875 0)"/>
      <use xlink:href="#DejaVuSans-4c" transform="translate(339.208984 0)"/>
      <use xlink:href="#DejaVuSans-61" transform="translate(394.921875 0)"/>
      <use xlink:href="#DejaVuSans-72" transform="translate(456.201172 0)"/>
      <use xlink:href="#DejaVuSans-67" transform="translate(495.564453 0)"/>
      <use xlink:href="#DejaVuSans-65" transform="translate(559.041016 0)"/>
      <use xlink:href="#DejaVuSans-20" transform="translate(620.564453 0)"/>
      <use xlink:href="#DejaVuSans-52" transform="translate(652.351562 0)"/>
      <use xlink:href="#DejaVuSans-65" transform="translate(717.333984 0)"/>
      <use xlink:href="#DejaVuSans-73" transform="translate(778.857422 0)"/>
      <use xlink:href="#DejaVuSans-75" transform="translate(830.957031 0)"/>
      <use xlink:href="#DejaVuSans-6c" transform="translate(894.335938 0)"/>
      <use xlink:href="#DejaVuSans-74" transform="translate(922.119141 0)"/>
      <use xlink:href="#DejaVuSans-73" transform="translate(961.328125 0)"/>
     </g>
    </g>
    <g id="line2d_47">
     <path d="M 59.137685 69.632562 
L 69.137685 69.632562 
L 79.137685 69.632562 
" style="fill: none; stroke: #ff7f0e; stroke-width: 1.5; stroke-linecap: square"/>
    </g>
    <g id="text_15">
     <!-- Single Small Results -->
     <g transform="translate(87.137685 73.132562) scale(0.1 -0.1)">
      <use xlink:href="#DejaVuSans-53"/>
      <use xlink:href="#DejaVuSans-69" transform="translate(63.476562 0)"/>
      <use xlink:href="#DejaVuSans-6e" transform="translate(91.259766 0)"/>
      <use xlink:href="#DejaVuSans-67" transform="translate(154.638672 0)"/>
      <use xlink:href="#DejaVuSans-6c" transform="translate(218.115234 0)"/>
      <use xlink:href="#DejaVuSans-65" transform="translate(245.898438 0)"/>
      <use xlink:href="#DejaVuSans-20" transform="translate(307.421875 0)"/>
      <use xlink:href="#DejaVuSans-53" transform="translate(339.208984 0)"/>
      <use xlink:href="#DejaVuSans-6d" transform="translate(402.685547 0)"/>
      <use xlink:href="#DejaVuSans-61" transform="translate(500.097656 0)"/>
      <use xlink:href="#DejaVuSans-6c" transform="translate(561.376953 0)"/>
      <use xlink:href="#DejaVuSans-6c" transform="translate(589.160156 0)"/>
      <use xlink:href="#DejaVuSans-20" transform="translate(616.943359 0)"/>
      <use xlink:href="#DejaVuSans-52" transform="translate(648.730469 0)"/>
      <use xlink:href="#DejaVuSans-65" transform="translate(713.712891 0)"/>
      <use xlink:href="#DejaVuSans-73" transform="translate(775.236328 0)"/>
      <use xlink:href="#DejaVuSans-75" transform="translate(827.335938 0)"/>
      <use xlink:href="#DejaVuSans-6c" transform="translate(890.714844 0)"/>
      <use xlink:href="#DejaVuSans-74" transform="translate(918.498047 0)"/>
      <use xlink:href="#DejaVuSans-73" transform="translate(957.707031 0)"/>
     </g>
    </g>
    <g id="line2d_48">
     <path d="M 59.137685 84.310687 
L 69.137685 84.310687 
L 79.137685 84.310687 
" style="fill: none; stroke: #2ca02c; stroke-width: 1.5; stroke-linecap: square"/>
    </g>
    <g id="text_16">
     <!-- Multi Results -->
     <g transform="translate(87.137685 87.810687) scale(0.1 -0.1)">
      <use xlink:href="#DejaVuSans-4d"/>
      <use xlink:href="#DejaVuSans-75" transform="translate(86.279297 0)"/>
      <use xlink:href="#DejaVuSans-6c" transform="translate(149.658203 0)"/>
      <use xlink:href="#DejaVuSans-74" transform="translate(177.441406 0)"/>
      <use xlink:href="#DejaVuSans-69" transform="translate(216.650391 0)"/>
      <use xlink:href="#DejaVuSans-20" transform="translate(244.433594 0)"/>
      <use xlink:href="#DejaVuSans-52" transform="translate(276.220703 0)"/>
      <use xlink:href="#DejaVuSans-65" transform="translate(341.203125 0)"/>
      <use xlink:href="#DejaVuSans-73" transform="translate(402.726562 0)"/>
      <use xlink:href="#DejaVuSans-75" transform="translate(454.826172 0)"/>
      <use xlink:href="#DejaVuSans-6c" transform="translate(518.205078 0)"/>
      <use xlink:href="#DejaVuSans-74" transform="translate(545.988281 0)"/>
      <use xlink:href="#DejaVuSans-73" transform="translate(585.197266 0)"/>
     </g>
    </g>
   </g>
  </g>
 </g>
 <defs>
  <clipPath id="p8215362eb7">
   <rect x="50.137685" y="41.856" width="803.062315" height="348.184"/>
  </clipPath>
 </defs>
</svg>
